<svg width="374" height="336" viewBox="0 0 374 336" fill="none" xmlns="http://www.w3.org/2000/svg">
<path opacity="0.7" d="M270.007 0.591309H155.264V85.9817H270.007V0.591309Z" fill="url(#paint0_linear_1319_2)"/>
<path d="M267.688 67.3475C280.977 67.3475 291.75 56.5745 291.75 43.2853C291.75 29.9962 280.977 19.2231 267.688 19.2231C254.399 19.2231 243.625 29.9962 243.625 43.2853C243.625 56.5745 254.399 67.3475 267.688 67.3475Z" fill="url(#paint1_linear_1319_2)"/>
<path d="M278.076 43.2852L261.218 33.5532V53.0181L278.076 43.2852Z" fill="white"/>
<path d="M208.338 12.1519H167.895V15.0522H208.338V12.1519Z" fill="white"/>
<path d="M232.882 12.1519H213.011V15.0522H232.882V12.1519Z" fill="white"/>
<path d="M193.407 22.1016H167.895V25.0019H193.407V22.1016Z" fill="white"/>
<path d="M232.882 22.1016H197.795V25.0019H232.882V22.1016Z" fill="white"/>
<path d="M175.209 31.9707H167.895V34.8711H175.209V31.9707Z" fill="white"/>
<path d="M232.641 32.1313H179.305V35.0317H232.641V32.1313Z" fill="white"/>
<path d="M203.7 62.8682H194.93V74.4199H203.7V62.8682Z" fill="url(#paint2_linear_1319_2)"/>
<path d="M217.083 57.8652H208.313V74.421H217.083V57.8652Z" fill="url(#paint3_linear_1319_2)"/>
<path d="M176.933 62.8682H168.163V74.4199H176.933V62.8682Z" fill="url(#paint4_linear_1319_2)"/>
<path d="M190.317 57.8652H181.546V74.421H190.317V57.8652Z" fill="url(#paint5_linear_1319_2)"/>
<path d="M230.466 47.6348H221.696V74.4198H230.466V47.6348Z" fill="url(#paint6_linear_1319_2)"/>
<path d="M373.687 110.29H264.616V222.951H373.687V110.29Z" fill="url(#paint7_linear_1319_2)"/>
<path d="M319.151 125.11V139.277C309.345 139.277 301.405 147.226 301.405 157.023H287.229C287.229 139.394 301.522 125.11 319.151 125.11Z" fill="white"/>
<path d="M341.634 179.676C335.866 185.408 327.917 188.944 319.151 188.944C301.522 188.944 287.229 174.651 287.229 157.022H301.405C301.405 166.828 309.345 174.777 319.151 174.777C324.005 174.777 328.41 172.831 331.613 169.654L341.634 179.676Z" fill="white"/>
<path d="M351.073 157.023C351.073 165.887 347.466 173.899 341.634 179.677L331.613 169.656C334.879 166.444 336.898 161.967 336.898 157.023C336.898 147.226 328.957 139.277 319.151 139.277V125.11C336.781 125.11 351.073 139.394 351.073 157.023Z" fill="white"/>
<g opacity="0.5">
<path d="M351.873 196.326H286.43V198.572H351.873V196.326Z" fill="white"/>
<path d="M351.873 205.95H286.43V208.196H351.873V205.95Z" fill="white"/>
</g>
<path d="M208.882 176.535C188.928 170.683 120.725 257.569 133.768 264.136C147.919 283.163 239.016 192.375 208.882 176.535Z" fill="#E59E9C"/>
<path d="M114.216 166.675L143.781 232.657L151.431 223.997L171.35 254.885C171.35 254.885 147.245 277.257 132.089 269.896C116.934 262.535 99.4575 170.711 99.4575 170.711L114.216 166.675Z" fill="#FFA89C"/>
<path d="M187.66 181.418C187.66 181.418 175.68 191.233 147.389 225.586L170.771 256.474L201.948 236.267L187.66 181.418Z" fill="#A535C5"/>
<path d="M139.005 267.022C135.731 267.586 132.399 266.119 130.243 263.592C113.379 243.819 94.55 151.315 101.95 152.787C107.189 151.665 163.639 262.781 139.005 267.022Z" fill="#FFA89C"/>
<path d="M85.2853 143.503L85.5125 147.055C86.5297 151.827 86.4351 155.73 89.2624 159.749L90.4327 161.036L99.5551 171.001L114.312 166.965L115.352 161.982L115.358 161.931L116.783 153.207C117.107 150.977 116.946 148.693 116.202 146.578L110.743 138.175C110.743 138.175 107.753 137.511 109.526 142.907C109.987 144.322 109.45 146.632 108.886 148.475L107.796 146.218L106.432 143.416L100.592 132.166C98.8178 129.111 84.471 136.874 85.2853 143.503Z" fill="#E59E9C"/>
<path d="M244.88 181.101L227.777 193.781L215.701 182.883L215.794 166.555L240.18 147.653L240.593 150.567L241.811 159.257L244.88 181.101Z" fill="#FFA89C"/>
<path opacity="0.5" d="M240.922 153.564C234.195 166.733 218.773 173.138 215.751 174.042L215.771 170.617L238.519 150.68C238.519 150.68 239.409 150.57 240.593 150.566L240.922 153.564Z" fill="#FFA89C"/>
<path d="M242.25 151.092C242.25 151.092 237.694 161.1 227.199 166.144C222.273 168.511 216.689 171.723 211.018 170.576C206.011 169.564 203.394 164.562 201.28 160.418C199.219 156.379 198.282 151.836 198.299 147.311C198.318 142.43 198.607 137.703 197.581 132.894C196.77 129.097 195.584 124.347 197.874 120.82C200.842 116.252 223.797 110.675 223.797 110.675L237.249 118.191L247.418 124.996L242.25 151.092Z" fill="#FFA89C"/>
<path d="M202.607 140.079C202.619 141.49 203.362 142.627 204.266 142.62C205.171 142.612 205.895 141.463 205.884 140.052C205.878 139.347 205.69 138.709 205.389 138.25C205.089 137.79 204.677 137.508 204.225 137.511C203.32 137.518 202.595 138.667 202.607 140.079Z" fill="#FFA89C"/>
<path d="M218.548 141.028C218.56 142.439 219.386 143.576 220.393 143.567C221.401 143.56 222.208 142.409 222.198 140.998C222.192 140.293 221.982 139.656 221.649 139.195C221.315 138.736 220.856 138.453 220.352 138.458C219.345 138.467 218.537 139.618 218.548 141.028Z" fill="#FFA89C"/>
<path d="M216.627 133.374L222.599 134.035" stroke="#31374C" stroke-width="0.9396" stroke-miterlimit="10" stroke-linecap="round" stroke-linejoin="round"/>
<path d="M201.321 133.066L206.086 133.147" stroke="#31374C" stroke-width="0.9396" stroke-miterlimit="10" stroke-linecap="round" stroke-linejoin="round"/>
<path d="M211.662 141.479C211.662 141.479 209.8 144.798 209.125 145.693C208.451 146.588 206.386 149.499 210.992 149.652" fill="#FFA89C"/>
<path d="M211.662 141.479C211.662 141.479 209.8 144.798 209.125 145.693C208.451 146.588 206.386 149.499 210.992 149.652" stroke="#31374C" stroke-width="0.9396" stroke-miterlimit="10" stroke-linecap="round" stroke-linejoin="round"/>
<path d="M217.411 154.445C217.411 154.445 216.917 154.949 216.083 155.544C214.855 156.433 212.885 157.533 210.594 157.625C208.954 157.698 207.359 156.057 206.563 155.096C206.233 154.693 206.041 154.408 206.041 154.408C206.041 154.408 207.094 154.481 208.598 154.554C210.228 154.628 212.392 154.692 214.279 154.665C215.506 154.646 216.623 154.573 217.411 154.445Z" fill="#FFA89C"/>
<path d="M217.411 154.445C217.411 154.445 216.917 154.949 216.083 155.544C211.355 156.451 207.652 155.453 206.562 155.096C206.232 154.693 206.04 154.408 206.04 154.408C206.04 154.408 207.093 154.481 208.597 154.554C210.228 154.628 212.391 154.692 214.278 154.665C215.506 154.646 216.623 154.573 217.411 154.445Z" fill="#FFA89C"/>
<path d="M211.648 124.227C211.648 124.227 212.317 127.821 216.077 129.409C216.077 129.409 208.973 130.245 204.71 127.069C204.71 127.069 206.716 130.161 208.387 130.662C208.387 130.662 199.527 131.081 196.685 127.821L197.689 133.42C197.689 133.42 192.506 128.238 192.59 121.968C192.65 117.522 194.648 113.436 196.012 109.293C196.909 106.572 198.218 103.499 200.885 102.08C207.987 98.3 216.615 98.9339 224.163 100.865C230.17 102.402 236.363 104.504 241.197 108.526C254.024 119.202 249.068 142.785 240.462 154.596C240.462 154.596 239.398 143.784 239.231 140.441C239.065 137.098 236.055 136.262 236.139 137.85C236.223 139.438 235.966 147.245 234.294 147.161C232.621 147.077 231.972 133.424 227.96 130.582C223.947 127.742 214.908 126.901 211.648 124.227Z" fill="#0C0C0C"/>
<path d="M295.179 335.354L181.741 334.705C180.296 315.644 176.738 253.152 175.981 232.553C175.993 232.53 175.981 232.519 175.981 232.507C175.962 231.782 175.931 231.057 175.913 230.344C175.364 213.704 175.464 200.141 176.874 195.098C178.836 188.077 182.098 182.939 188.525 179.109C195.491 174.957 205.292 173.229 213.186 172.743C216.384 190.802 241.324 173.261 241.324 173.261C241.324 173.261 247.28 173.882 251.57 174.183C261.634 174.861 278.93 178.24 282.319 193.181C283.957 200.405 285.828 219.25 287.823 240.557C288.94 252.586 290.085 265.421 291.236 277.404C291.933 284.576 294.501 329.149 295.179 335.354Z" fill="#A535C5"/>
<path d="M215.733 170.967L220.683 180.014L215.411 184.125L211.384 172.962" fill="#31374C"/>
<path d="M220.683 180.014L243.201 168.363L247.654 173.958L223.925 186.439L220.683 180.014Z" fill="#31374C"/>
<path d="M270.582 186.3C256.64 201.728 306.864 302.675 318.446 293.782C341.733 289.302 297.941 166.041 270.582 186.3Z" fill="#E59E9C"/>
<path d="M315.644 237.954C315.644 237.954 332.133 280.068 324.881 289.364C317.629 298.66 248.58 303.597 248.58 303.597L245.732 284.631C245.732 284.631 293.751 273.137 293.901 272.408C294.051 271.68 282.352 250.895 282.352 250.895L315.644 237.954Z" fill="#E59E9C"/>
<path d="M326.332 284.627C326.269 287.949 324.201 290.944 321.312 292.584C298.713 305.418 199.032 306.485 201.873 299.495C201.758 294.139 326.811 259.634 326.332 284.627Z" fill="#E59E9C"/>
<path d="M214.004 288.047L291.558 271.785L282.933 251.776L316.396 238.495L323.123 284.204L275.171 302.142L211.366 303.118L211.351 287.998L214.004 288.047Z" fill="#FFA89C"/>
<path d="M180.409 304.305L183.719 305.614C188.469 306.728 191.959 308.476 196.799 307.633L198.463 307.123L211.366 303.117L212.103 289.191L214.005 288.047L209.941 284.983L209.897 284.956L202.612 279.95C200.733 278.706 198.599 277.878 196.367 277.65L186.44 279.006C186.44 279.006 184.565 281.428 190.202 282.124C191.679 282.311 193.539 283.781 194.966 285.076L192.46 285.1L189.344 285.14L176.678 285.627C173.158 285.929 174.066 302.216 180.409 304.305Z" fill="#FFA89C"/>
<path d="M281.613 253.516C281.613 253.516 281.613 253.516 281.613 253.496C274.599 240.538 265.788 223.373 263.48 214.948C263.48 214.948 248.099 182.863 259.704 177.659C261.258 176.966 264.53 175.847 266.119 176.249C277.946 179.189 290.256 187.817 298.516 199.915C304.03 207.967 311.346 222.705 317.396 238.116C317.396 238.116 317.417 238.137 317.417 238.158L281.613 253.516Z" fill="#A535C5"/>
<path d="M246.935 142.447L227.689 141.389L227.893 136.225L248.282 137.443L246.935 142.447Z" fill="#C5D0FF"/>
<path d="M219.688 129.504C219.688 129.504 229.335 129.678 229.029 138.834C228.724 147.99 219.085 147.642 219.085 147.642" fill="url(#paint8_linear_1319_2)"/>
<path d="M219.085 147.641L196.491 146.586C193.14 146.43 190.531 143.083 190.662 139.112L190.787 135.356C190.919 131.385 193.743 128.292 197.094 128.449L219.687 129.504C223.038 129.66 225.648 133.007 225.516 136.978L225.392 140.734C225.26 144.705 222.437 147.798 219.085 147.641Z" fill="url(#paint9_linear_1319_2)"/>
<path d="M218.697 146.39L196.962 145.375C194.024 145.237 191.736 142.303 191.851 138.82L191.953 135.757C192.069 132.274 194.545 129.562 197.483 129.7L219.217 130.715C222.156 130.853 224.444 133.787 224.329 137.27L224.227 140.333C224.111 143.816 221.635 146.528 218.697 146.39Z" fill="#31374C"/>
<path d="M219.008 145.423L196.717 144.382C194.397 144.274 192.589 141.957 192.681 139.207L192.806 135.451C192.898 132.701 194.853 130.559 197.173 130.668L219.464 131.708C221.784 131.816 223.591 134.134 223.5 136.884L223.375 140.639C223.283 143.39 221.328 145.531 219.008 145.423Z" fill="#C5D0FF"/>
<path d="M215.124 140.873L200.891 140.209C199.728 140.154 198.822 138.994 198.868 137.615C198.914 136.237 199.894 135.163 201.056 135.218L215.29 135.882C216.453 135.937 217.358 137.097 217.313 138.476C217.267 139.854 216.287 140.927 215.124 140.873Z" fill="#31374C"/>
<path opacity="0.3" d="M94.8504 189.21C119.243 189.21 139.016 169.436 139.016 145.044C139.016 120.652 119.243 100.878 94.8504 100.878C70.4583 100.878 50.6846 120.652 50.6846 145.044C50.6846 169.436 70.4583 189.21 94.8504 189.21Z" fill="url(#paint10_linear_1319_2)"/>
<path d="M94.8504 170.662C108.999 170.662 120.468 159.193 120.468 145.044C120.468 130.896 108.999 119.427 94.8504 119.427C80.7021 119.427 69.2327 130.896 69.2327 145.044C69.2327 159.193 80.7021 170.662 94.8504 170.662Z" fill="url(#paint11_linear_1319_2)"/>
<path d="M94.8504 156.564C101.212 156.564 106.37 151.406 106.37 145.044C106.37 138.682 101.212 133.524 94.8504 133.524C88.4883 133.524 83.3308 138.682 83.3308 145.044C83.3308 151.406 88.4883 156.564 94.8504 156.564Z" fill="white"/>
<path d="M94.8504 179.147C113.685 179.147 128.953 163.878 128.953 145.044C128.953 126.21 113.685 110.942 94.8504 110.942C76.0162 110.942 60.748 126.21 60.748 145.044C60.748 163.878 76.0162 179.147 94.8504 179.147Z" stroke="white" stroke-width="2" stroke-miterlimit="10"/>
<g opacity="0.7">
<path d="M111.416 308.086H18.8174C17.6168 308.086 16.6436 307.113 16.6436 305.913V247.833C16.6436 246.632 17.6168 245.659 18.8174 245.659H111.416C112.616 245.659 113.59 246.632 113.59 247.833V305.913C113.589 307.113 112.616 308.086 111.416 308.086Z" fill="url(#paint12_linear_1319_2)"/>
</g>
<path d="M26.7501 303.166H23.2012L28.4382 293.999H31.9871L26.7501 303.166Z" fill="white"/>
<path d="M35.0885 303.166H31.5396L36.7766 293.999H40.3255L35.0885 303.166Z" fill="white"/>
<path d="M43.4268 303.166H39.8779L45.115 293.999H48.6639L43.4268 303.166Z" fill="white"/>
<path d="M51.765 303.166H48.2161L53.4531 293.999H57.002L51.765 303.166Z" fill="white"/>
<path d="M60.1034 303.166H56.5544L61.7915 293.999H65.3404L60.1034 303.166Z" fill="white"/>
<path d="M68.4417 303.166H64.8928L70.1299 293.999H73.6788L68.4417 303.166Z" fill="white"/>
<path d="M76.7801 303.166H73.2312L78.4683 293.999H82.0172L76.7801 303.166Z" fill="white"/>
<path d="M85.1185 303.166H81.5696L86.8066 293.999H90.3546L85.1185 303.166Z" fill="white"/>
<path d="M93.4569 303.166H89.908L95.145 293.999H98.693L93.4569 303.166Z" fill="white"/>
<path d="M101.794 303.166H98.2461L103.482 293.999H107.031L101.794 303.166Z" fill="white"/>
<path opacity="0.7" d="M354.516 94.7443H292.871L308.556 76.439H338.831L354.516 94.7443Z" fill="url(#paint13_linear_1319_2)"/>
<path d="M323.693 86.478C327.301 86.478 330.225 85.503 330.225 84.3003C330.225 83.0976 327.301 82.1226 323.693 82.1226C320.085 82.1226 317.161 83.0976 317.161 84.3003C317.161 85.503 320.085 86.478 323.693 86.478Z" fill="white"/>
<path d="M335.208 56.6583C335.208 63.0178 323.693 83.8578 323.693 83.8578C323.693 83.8578 312.178 63.0178 312.178 56.6583C312.178 50.2987 317.334 45.1436 323.693 45.1436C330.053 45.1436 335.208 50.2987 335.208 56.6583Z" fill="url(#paint14_linear_1319_2)"/>
<path d="M323.693 61.8707C326.572 61.8707 328.906 59.5369 328.906 56.658C328.906 53.7791 326.572 51.4453 323.693 51.4453C320.814 51.4453 318.48 53.7791 318.48 56.658C318.48 59.5369 320.814 61.8707 323.693 61.8707Z" fill="white"/>
<path d="M71.4591 233.21H0.75V287.226H71.4591V233.21Z" fill="url(#paint15_linear_1319_2)"/>
<path d="M63.0477 243.258H9.16162V245.375H63.0477V243.258Z" fill="white"/>
<path d="M24.9947 243.258H9.16162V245.375H24.9947V243.258Z" fill="white"/>
<path d="M24.7255 247.252C26.3462 247.252 27.66 245.938 27.66 244.317C27.66 242.697 26.3462 241.383 24.7255 241.383C23.1048 241.383 21.791 242.697 21.791 244.317C21.791 245.938 23.1048 247.252 24.7255 247.252Z" fill="white"/>
<path d="M24.7253 246.124C25.7234 246.124 26.5325 245.315 26.5325 244.317C26.5325 243.319 25.7234 242.51 24.7253 242.51C23.7273 242.51 22.9182 243.319 22.9182 244.317C22.9182 245.315 23.7273 246.124 24.7253 246.124Z" fill="#F57A00"/>
<path d="M63.0477 253.859H9.16162V255.976H63.0477V253.859Z" fill="white"/>
<path d="M44.6156 253.859H9.16162V255.976H44.6156V253.859Z" fill="white"/>
<path d="M44.5239 257.852C46.1446 257.852 47.4584 256.538 47.4584 254.917C47.4584 253.297 46.1446 251.983 44.5239 251.983C42.9032 251.983 41.5894 253.297 41.5894 254.917C41.5894 256.538 42.9032 257.852 44.5239 257.852Z" fill="white"/>
<path d="M44.5239 256.724C45.522 256.724 46.3311 255.915 46.3311 254.917C46.3311 253.919 45.522 253.11 44.5239 253.11C43.5259 253.11 42.7168 253.919 42.7168 254.917C42.7168 255.915 43.5259 256.724 44.5239 256.724Z" fill="#F57A00"/>
<path d="M63.0477 264.459H9.16162V266.577H63.0477V264.459Z" fill="white"/>
<path d="M35.9077 264.459H9.16162V266.577H35.9077V264.459Z" fill="white"/>
<path d="M35.7673 268.453C37.388 268.453 38.7018 267.139 38.7018 265.518C38.7018 263.897 37.388 262.583 35.7673 262.583C34.1466 262.583 32.8328 263.897 32.8328 265.518C32.8328 267.139 34.1466 268.453 35.7673 268.453Z" fill="white"/>
<path d="M35.7671 267.325C36.7651 267.325 37.5742 266.516 37.5742 265.518C37.5742 264.52 36.7651 263.711 35.7671 263.711C34.769 263.711 33.96 264.52 33.96 265.518C33.96 266.516 34.769 267.325 35.7671 267.325Z" fill="#F57A00"/>
<path d="M63.0477 275.061H9.16162V277.178H63.0477V275.061Z" fill="white"/>
<path d="M56.1937 275.061H9.16162V277.178H56.1937V275.061Z" fill="white"/>
<path d="M55.9704 279.053C57.5911 279.053 58.9049 277.739 58.9049 276.119C58.9049 274.498 57.5911 273.184 55.9704 273.184C54.3497 273.184 53.0359 274.498 53.0359 276.119C53.0359 277.739 54.3497 279.053 55.9704 279.053Z" fill="white"/>
<path d="M55.9705 277.926C56.9685 277.926 57.7776 277.117 57.7776 276.119C57.7776 275.121 56.9685 274.312 55.9705 274.312C54.9724 274.312 54.1633 275.121 54.1633 276.119C54.1633 277.117 54.9724 277.926 55.9705 277.926Z" fill="#F57A00"/>
<defs>
<linearGradient id="paint0_linear_1319_2" x1="155.264" y1="43.2861" x2="270.007" y2="43.2861" gradientUnits="userSpaceOnUse">
<stop stop-color="#F57A00"/>
<stop offset="1" stop-color="#7103A4"/>
</linearGradient>
<linearGradient id="paint1_linear_1319_2" x1="243.625" y1="43.2851" x2="291.75" y2="43.2851" gradientUnits="userSpaceOnUse">
<stop stop-color="#F57A00"/>
<stop offset="1" stop-color="#7103A4"/>
</linearGradient>
<linearGradient id="paint2_linear_1319_2" x1="194.93" y1="68.644" x2="203.7" y2="68.644" gradientUnits="userSpaceOnUse">
<stop stop-color="#F57A00"/>
<stop offset="1" stop-color="#7103A4"/>
</linearGradient>
<linearGradient id="paint3_linear_1319_2" x1="208.313" y1="66.143" x2="217.083" y2="66.143" gradientUnits="userSpaceOnUse">
<stop stop-color="#F57A00"/>
<stop offset="1" stop-color="#7103A4"/>
</linearGradient>
<linearGradient id="paint4_linear_1319_2" x1="168.163" y1="68.644" x2="176.933" y2="68.644" gradientUnits="userSpaceOnUse">
<stop stop-color="#F57A00"/>
<stop offset="1" stop-color="#7103A4"/>
</linearGradient>
<linearGradient id="paint5_linear_1319_2" x1="181.546" y1="66.143" x2="190.317" y2="66.143" gradientUnits="userSpaceOnUse">
<stop stop-color="#F57A00"/>
<stop offset="1" stop-color="#7103A4"/>
</linearGradient>
<linearGradient id="paint6_linear_1319_2" x1="221.696" y1="61.0272" x2="230.466" y2="61.0272" gradientUnits="userSpaceOnUse">
<stop stop-color="#F57A00"/>
<stop offset="1" stop-color="#7103A4"/>
</linearGradient>
<linearGradient id="paint7_linear_1319_2" x1="264.616" y1="166.62" x2="373.687" y2="166.62" gradientUnits="userSpaceOnUse">
<stop stop-color="#F57A00"/>
<stop offset="1" stop-color="#7103A4"/>
</linearGradient>
<linearGradient id="paint8_linear_1319_2" x1="219.085" y1="138.574" x2="229.036" y2="138.574" gradientUnits="userSpaceOnUse">
<stop stop-color="#F57A00"/>
<stop offset="1" stop-color="#7103A4"/>
</linearGradient>
<linearGradient id="paint9_linear_1319_2" x1="190.657" y1="138.045" x2="225.521" y2="138.045" gradientUnits="userSpaceOnUse">
<stop stop-color="#F57A00"/>
<stop offset="1" stop-color="#7103A4"/>
</linearGradient>
<linearGradient id="paint10_linear_1319_2" x1="50.6846" y1="145.044" x2="139.016" y2="145.044" gradientUnits="userSpaceOnUse">
<stop stop-color="#F57A00"/>
<stop offset="1" stop-color="#7103A4"/>
</linearGradient>
<linearGradient id="paint11_linear_1319_2" x1="69.2327" y1="145.044" x2="120.468" y2="145.044" gradientUnits="userSpaceOnUse">
<stop stop-color="#F57A00"/>
<stop offset="1" stop-color="#7103A4"/>
</linearGradient>
<linearGradient id="paint12_linear_1319_2" x1="16.6436" y1="276.873" x2="113.59" y2="276.873" gradientUnits="userSpaceOnUse">
<stop stop-color="#F57A00"/>
<stop offset="1" stop-color="#7103A4"/>
</linearGradient>
<linearGradient id="paint13_linear_1319_2" x1="292.871" y1="85.5915" x2="354.516" y2="85.5915" gradientUnits="userSpaceOnUse">
<stop stop-color="#F57A00"/>
<stop offset="1" stop-color="#7103A4"/>
</linearGradient>
<linearGradient id="paint14_linear_1319_2" x1="312.178" y1="64.5005" x2="335.208" y2="64.5005" gradientUnits="userSpaceOnUse">
<stop stop-color="#F57A00"/>
<stop offset="1" stop-color="#7103A4"/>
</linearGradient>
<linearGradient id="paint15_linear_1319_2" x1="0.75" y1="260.218" x2="71.4591" y2="260.218" gradientUnits="userSpaceOnUse">
<stop stop-color="#F57A00"/>
<stop offset="1" stop-color="#7103A4"/>
</linearGradient>
</defs>
</svg>
