<svg width="415" height="360" viewBox="0 0 415 360" fill="none" xmlns="http://www.w3.org/2000/svg">
<path d="M34.0745 172.347C34.344 170.743 34.7641 169.527 36.0637 168.469C38.9062 166.155 45.8901 166.719 49.4205 167.113C51.1074 167.172 52.7779 167.2 54.4652 167.148L59.9869 167.092C61.528 167.12 63.0714 167.169 64.6121 167.134C66.3714 167.103 68.1386 167.036 69.897 167.107C71.4741 167.109 73.0713 167.163 74.645 167.087C78.2714 166.822 84.9522 165.988 87.8209 168.499C89.1312 169.646 89.5101 171.09 89.7699 172.749L89.5778 232.815C89.5923 244.543 89.8274 256.309 89.611 268.032C80.2748 267.761 70.8152 267.998 61.4714 268.134C52.403 268.471 43.2804 268.141 34.2067 268.136L34.1987 230.387C33.9894 222.147 34.1623 213.864 34.1777 205.621L34.2249 173.57L34.0745 172.347Z" fill="url(#paint0_linear_1269_1096)"/>
<path d="M61.5144 178.341C64.0895 178.329 77.6701 177.815 78.9588 178.809C79.2084 179.288 79.4014 179.614 79.2411 180.185C79.0961 180.702 78.8233 180.924 78.408 181.189C72.9758 180.851 67.2984 180.99 61.8561 181.18C57.9109 181.319 50.3045 181.904 46.7163 181.127C46.0125 180.975 45.4893 180.814 45.0828 180.208C45.151 179.647 45.1584 179.477 45.6128 179.077C47.1946 177.685 58.9505 178.332 61.5144 178.341Z" fill="url(#paint1_linear_1269_1096)"/>
<path d="M34.0745 172.346C34.344 170.743 34.7641 169.527 36.0637 168.469C38.9062 166.154 45.8901 166.718 49.4205 167.113C51.1074 167.172 52.7779 167.2 54.4652 167.148L59.9869 167.092C60.3602 167.227 60.8155 167.244 60.9733 167.639C61.6252 169.27 61.0994 171.862 61.1471 173.623C52.2067 173.583 43.1518 173.918 34.2249 173.57L34.0745 172.346Z" fill="url(#paint2_linear_1269_1096)"/>
<path d="M61.1499 194.734L61.1274 217.83C55.5224 217.82 49.9114 217.761 44.3067 217.829L44.324 224.307C49.3542 224.906 55.9526 224.436 61.1497 224.415L61.1254 237.184C61.123 239.996 60.9881 242.886 61.3311 245.677L40.0461 245.617L40.0621 194.779L61.1499 194.734Z" fill="#73069F" fill-opacity="0.9939"/>
<path d="M89.7699 172.749L89.5778 232.816C89.5923 244.544 89.8274 256.309 89.611 268.032C80.2749 267.761 70.8152 267.998 61.4715 268.134C61.228 263.122 61.4706 258.039 61.5136 253.02C61.5341 250.603 61.6514 248.075 61.3313 245.678C60.9883 242.886 61.1234 239.996 61.1256 237.184L61.1499 224.415C55.9528 224.437 49.3543 224.906 44.3241 224.307L44.3069 217.829C49.9114 217.761 55.5225 217.82 61.1276 217.83L61.1501 194.734C61.2638 190.269 61.2836 185.803 61.2094 181.337C66.426 181.203 73.517 181.871 78.4081 181.189C78.8234 180.924 79.0964 180.702 79.2412 180.186C79.4015 179.614 79.2085 179.288 78.9589 178.809C77.6702 177.815 64.0896 178.329 61.5145 178.342C60.8228 177.541 61.1113 174.768 61.1154 173.668L79.9907 173.705C83.0644 173.713 86.3985 174.013 89.4316 173.609L89.7699 172.749Z" fill="url(#paint3_linear_1269_1096)"/>
<path d="M61.1501 194.734L82.8412 194.73L82.8112 227.95C82.8056 233.85 82.9864 239.817 82.7481 245.709C75.6133 245.711 68.4643 245.807 61.3313 245.677C60.9883 242.885 61.1234 239.996 61.1256 237.184L61.1499 224.415C55.9528 224.436 49.3543 224.905 44.3241 224.307L44.3069 217.828C49.9114 217.761 55.5225 217.82 61.1276 217.83L61.1501 194.734Z" fill="#A535C5"/>
<path d="M61.1276 217.83L78.6076 217.835L78.5866 224.3C72.4434 224.322 66.3006 224.296 60.1581 224.221C55.283 224.131 49.0906 223.735 44.3244 224.307L44.3071 217.828C49.9116 217.761 55.5226 217.82 61.1276 217.83Z" fill="#F2F4F6"/>
<path d="M61.4714 268.134C70.8152 267.998 80.2747 267.761 89.611 268.032C89.6063 270.439 89.5784 272.849 89.5979 275.255L99.4196 275.234C99.4445 276.261 99.3903 277.363 99.5878 278.371C99.6957 278.801 99.7897 279.241 100.011 279.63C100.493 280.475 101.275 280.86 102.195 281.067C105.181 281.739 108.808 281.279 111.876 281.26L127.831 281.24L199.638 281.226L239.661 281.222L252.377 281.217C254.23 281.219 256.15 281.357 257.995 281.252C258.805 281.206 259.646 281.047 260.335 280.594C261.482 279.838 261.751 278.681 262.003 277.409L273.212 277.408C273.216 275.526 273.221 273.65 273.332 271.77C273.456 271.315 273.707 271.002 274.027 270.664C274.477 270.188 275.01 269.853 275.654 269.71C278.633 269.051 282.336 269.445 285.382 269.454L302.598 269.481C310.206 269.478 317.85 269.315 325.455 269.488C326.648 270.242 327.466 271.075 328.368 272.142C328.366 274.443 328.444 276.772 328.343 279.069C334.045 279.21 339.784 279.058 345.489 279.051C348.714 279.047 352.326 278.771 355.477 279.493C356.883 279.815 358.158 280.47 359.208 281.461C359.396 281.64 359.574 281.829 359.743 282.026C359.913 282.223 360.072 282.428 360.221 282.641C360.37 282.853 360.509 283.072 360.637 283.298C360.765 283.524 360.881 283.756 360.986 283.993C361.092 284.231 361.185 284.473 361.267 284.719C361.349 284.966 361.418 285.216 361.475 285.469C361.532 285.722 361.577 285.978 361.609 286.235C361.641 286.493 361.661 286.752 361.668 287.011C361.673 287.15 361.675 287.288 361.673 287.426C361.671 287.564 361.666 287.702 361.657 287.84C361.648 287.978 361.636 288.115 361.62 288.253C361.604 288.39 361.585 288.526 361.561 288.662C361.539 288.799 361.512 288.934 361.483 289.069C361.453 289.204 361.42 289.338 361.383 289.472C361.346 289.605 361.306 289.737 361.263 289.868C361.22 289.999 361.173 290.129 361.123 290.258C361.073 290.387 361.02 290.514 360.963 290.64C360.907 290.767 360.847 290.891 360.784 291.014C360.721 291.137 360.656 291.258 360.587 291.378C360.518 291.498 360.445 291.615 360.37 291.731C360.296 291.847 360.218 291.961 360.137 292.073C360.056 292.186 359.972 292.295 359.886 292.403C359.799 292.511 359.71 292.617 359.618 292.72C359.526 292.823 359.432 292.924 359.335 293.022C357.823 294.538 356.04 295.142 353.951 295.351C349.439 295.805 344.615 295.423 340.06 295.411L313.517 295.406L217.707 295.418C216.952 295.873 216.229 296.368 215.735 297.115C215.637 297.264 215.547 297.417 215.466 297.574C215.384 297.731 215.311 297.892 215.246 298.058C215.181 298.223 215.124 298.391 215.076 298.562C215.028 298.733 214.99 298.906 214.96 299.081C214.93 299.256 214.91 299.432 214.898 299.609C214.887 299.786 214.885 299.963 214.891 300.14C214.898 300.318 214.914 300.494 214.939 300.67C214.965 300.846 214.999 301.02 215.042 301.192C215.502 303.02 216.581 304.006 218.129 304.963C237.245 305.364 256.454 304.829 275.581 304.783C282.72 304.765 290.057 304.413 297.174 304.808C297.934 304.85 298.713 304.909 299.401 305.266C301.005 306.097 301.591 307.947 302.106 309.547C301.41 311.898 300.687 312.956 298.631 314.286C294.453 314.548 290.212 314.42 286.027 314.409L265.823 314.357L204.274 314.346L121.262 314.323L98.617 314.318C94.8605 314.323 91.0588 314.47 87.3094 314.322C86.066 314.273 84.7547 314.139 83.7459 313.342C82.7459 312.552 82.1669 311.345 82.0604 310.086C81.9549 308.836 82.3459 307.705 83.1941 306.784C84.017 305.889 84.9972 305.267 86.2098 305.079C88.0159 304.798 90.0592 304.993 91.8934 304.992L103.797 304.987L138.208 304.979C144.166 304.98 150.208 305.249 156.153 304.947C156.794 304.52 157.489 304.057 158.014 303.49C158.98 302.443 159.364 301.187 159.247 299.774C158.827 294.69 152.191 295.684 148.618 295.685L51.2046 295.853L21.6216 295.805C17.3474 295.781 12.6947 296.15 8.47475 295.662C6.72147 295.46 5.0995 294.823 3.74727 293.67C3.64442 293.582 3.54393 293.491 3.4458 293.397C3.34767 293.304 3.25208 293.208 3.15885 293.11C3.06561 293.012 2.97511 292.911 2.88695 292.808C2.79916 292.705 2.71373 292.6 2.63084 292.493C2.54831 292.386 2.46831 292.277 2.39104 292.165C2.31414 292.054 2.23995 291.94 2.16866 291.825C2.09738 291.71 2.02918 291.593 1.96406 291.474C1.89858 291.356 1.83636 291.236 1.77723 291.114C1.71809 290.992 1.66205 290.869 1.60945 290.744C1.55648 290.619 1.50679 290.493 1.46035 290.366C1.41392 290.239 1.37074 290.111 1.33083 289.981C1.29129 289.851 1.25484 289.721 1.22146 289.59C1.18845 289.458 1.1587 289.326 1.13222 289.194C1.10574 289.061 1.08288 288.927 1.06347 288.793C1.04388 288.659 1.02756 288.525 1.01486 288.39C1.00216 288.255 0.992915 288.12 0.987292 287.985C0.872837 285.697 1.63593 283.499 3.19803 281.813C4.27655 280.649 5.74324 279.726 7.28212 279.318C10.2278 278.536 13.9856 278.954 17.0356 278.94C22.7906 278.911 28.5671 278.971 34.3183 278.774C33.9945 275.285 34.1955 271.643 34.2062 268.135C43.2804 268.141 52.403 268.471 61.4714 268.134Z" fill="white"/>
<path d="M302.598 269.481C310.206 269.478 317.85 269.315 325.455 269.488C326.647 270.243 327.466 271.075 328.368 272.142C328.366 274.443 328.444 276.773 328.343 279.07C328.168 279.484 327.99 279.929 327.698 280.277C327.123 280.963 326.297 281.232 325.43 281.299C323.008 281.487 320.446 281.318 318.008 281.318L302.583 281.318L285.388 281.302C282.384 281.298 279.308 281.436 276.313 281.231C275.487 281.174 274.883 281.119 274.253 280.539C273.359 279.716 273.294 278.546 273.212 277.408C273.216 275.526 273.221 273.65 273.332 271.77C273.456 271.315 273.708 271.002 274.027 270.664C274.477 270.188 275.01 269.853 275.654 269.71C278.633 269.051 282.336 269.446 285.382 269.454L302.598 269.481Z" fill="url(#paint4_linear_1269_1096)"/>
<path d="M293.376 273.989C297.51 273.94 303.245 273.447 307.169 274.026C307.574 274.663 307.467 275.4 307.459 276.127C303.747 276.162 296.965 276.714 293.574 275.955C293.216 275.35 293.344 274.664 293.376 273.989Z" fill="#F2F4F6"/>
<path d="M61.4714 268.134C70.8151 267.998 80.2746 267.761 89.6109 268.032C89.6062 270.439 89.5783 272.849 89.5979 275.255C89.6044 276.979 89.731 279.122 88.3545 280.41C87.7144 281.009 87.0773 281.158 86.2321 281.247C83.8182 281.502 81.2298 281.327 78.7996 281.326L64.7826 281.316L47.326 281.313C44.1526 281.311 40.8976 281.451 37.7361 281.219C37.3296 281.189 36.9356 281.141 36.5319 281.084C35.6229 280.387 35.008 279.676 34.3188 278.774C33.995 275.285 34.196 271.643 34.2067 268.135C43.2803 268.141 52.403 268.471 61.4714 268.134Z" fill="url(#paint5_linear_1269_1096)"/>
<path d="M58.4291 273.315L65.7854 273.284C67.1073 273.292 68.7427 273.263 69.7263 274.261C69.7898 274.603 69.8731 274.729 69.7269 275.065C69.3797 275.863 68.933 276.167 68.1367 276.456C65.0596 276.47 61.7065 276.727 58.664 276.352C57.835 276.25 57.3794 276.077 56.8495 275.394C56.7238 274.763 56.7295 274.664 56.9435 274.058C57.4431 273.519 57.7416 273.468 58.4291 273.315Z" fill="#4AEFEF"/>
<path d="M275.402 170.089C276.561 169.036 277.822 167.705 279.384 167.302C281.989 166.629 295.009 167.085 298.873 167.095C306.934 167.115 315.075 166.83 323.122 167.136C323.994 168.063 324.672 168.889 325.148 170.077C322.704 170.96 316.683 170.447 313.948 170.42C307.16 169.666 278.299 171.645 275.402 170.089Z" fill="url(#paint6_linear_1269_1096)"/>
<path d="M251.567 94.0371C256.505 94.032 289.774 93.5325 291.195 94.0852C291.339 94.1412 291.735 94.452 291.818 94.5436C292.194 94.958 292.238 95.5978 292.255 96.1291C292.52 104.24 292.223 112.469 292.222 120.589L292.288 166.948L288.308 166.935L288.239 97.9796L262.253 97.9787C258.991 94.2927 254.937 97.7693 251.645 95.9861C251.301 95.2722 251.475 94.8129 251.567 94.0371Z" fill="white"/>
<path d="M262.272 83.977L287.257 84.0063C291.434 84.0105 295.953 83.669 300.094 84.1217C300.661 84.1839 301.012 84.2777 301.388 84.7366C301.969 85.4464 301.949 86.4416 301.99 87.3132C302.345 94.8088 301.986 102.495 302.02 110.014L302.101 166.972L298.141 166.971C297.983 140.685 297.967 114.399 298.091 88.1142C286.167 88.1222 274.2 88.344 262.28 88.1148L262.272 83.977Z" fill="white"/>
<path d="M325.148 170.077C326.231 169.933 327.559 169.628 328.452 170.471C330.204 172.127 329.265 178.116 329.34 180.517L329.104 180.629L328.738 180.957L302.838 180.907L273.476 180.914L273.187 180.773C272.564 178.162 272.897 173.459 274.06 171.088C274.473 170.687 274.921 170.398 275.402 170.089C278.299 171.645 307.16 169.666 313.948 170.421C316.683 170.446 322.704 170.959 325.148 170.077Z" fill="url(#paint7_linear_1269_1096)"/>
<path d="M328.458 178.073L328.972 178.226C329.281 179.001 329.151 179.815 329.104 180.63L328.738 180.957L302.838 180.908L273.475 180.914L273.187 180.774C273.224 179.972 273.292 179.183 273.384 178.386C274.324 177.65 322.573 178.302 328.458 178.073Z" fill="url(#paint8_linear_1269_1096)"/>
<path d="M325.148 170.077C326.231 169.933 327.559 169.628 328.452 170.471C330.204 172.127 329.265 178.116 329.34 180.517L329.104 180.629C329.151 179.815 329.281 179.001 328.972 178.226L328.458 178.072C325.697 177.566 322.42 177.882 319.597 177.894L302.71 177.979L302.675 170.549C306.402 170.588 310.235 170.757 313.948 170.42C316.683 170.446 322.704 170.959 325.148 170.077Z" fill="url(#paint9_linear_1269_1096)"/>
<path d="M122.224 0.543316C128.766 0.430131 135.311 0.518096 141.854 0.468033L226.225 0.411439C231.373 0.42214 258.379 -0.037668 260.952 0.859469C261.773 1.80848 262.04 2.75296 262.181 3.99111C262.676 8.36378 262.184 13.7334 262.194 18.2121L262.258 31.6716C262.264 34.0056 262.397 36.4358 262.209 38.7601C262.127 39.7761 261.989 41.0213 261.342 41.8455C258.346 42.895 253.62 42.0936 250.338 42.2505C250.809 44.5561 250.754 46.3579 250.367 48.6733C253.485 48.6751 258.468 48.0928 261.258 49.1924C261.883 49.9012 261.997 50.954 262.099 51.8642C262.438 54.8758 262.223 58.1108 262.231 61.1452L262.259 78.4705L262.272 83.9765L262.28 88.1143C262.215 89.1362 262.209 89.9207 261.418 90.6683C259.702 92.2907 253.358 91.3867 250.937 91.411C251.174 92.2698 251.473 93.1488 251.567 94.0365C251.475 94.8121 251.301 95.2716 251.644 95.9855C254.937 97.7687 258.991 94.2921 262.253 97.978C262.364 106.934 262.289 115.898 262.284 124.854C262.281 128.262 262.709 133.194 262.167 136.473C262.059 137.129 261.719 137.636 261.248 138.094C259.646 139.654 253.127 138.803 250.86 138.822C251.043 140.556 251.01 142.06 250.722 143.789C253.03 143.772 259.965 143.023 261.596 144.683C262.866 145.975 262.266 154.698 262.311 156.954C262.549 158.434 262.351 159.923 262.589 161.375C264.931 162.988 267.479 164.316 269.585 166.245C271.22 167.742 272.502 169.541 274.06 171.087C272.896 173.458 272.564 178.161 273.186 180.773L273.475 180.913L302.838 180.907L328.737 180.956C328.32 195.826 328.603 210.767 328.577 225.647L328.368 272.141C327.466 271.074 326.647 270.242 325.454 269.487C317.849 269.315 310.206 269.477 302.597 269.48L285.382 269.453C282.336 269.445 278.632 269.05 275.653 269.71C275.009 269.852 274.477 270.187 274.026 270.663C273.707 271.001 273.455 271.314 273.332 271.769C273.22 273.649 273.216 275.525 273.212 277.408L262.002 277.409C261.75 278.68 261.482 279.838 260.334 280.594C259.646 281.047 258.805 281.206 257.995 281.252C256.15 281.357 254.229 281.219 252.376 281.217L239.661 281.222L199.638 281.225L127.831 281.239L111.875 281.259C108.807 281.278 105.181 281.739 102.195 281.067C101.274 280.86 100.492 280.475 100.011 279.63C99.7892 279.241 99.6952 278.8 99.5873 278.371C99.3896 277.363 99.4438 276.261 99.4191 275.234L89.5974 275.255C89.5778 272.848 89.6058 270.438 89.6105 268.031C89.8269 256.308 89.5918 244.543 89.5773 232.815L89.7694 172.748C89.5096 171.09 89.1305 169.646 87.8204 168.499C84.9518 165.988 78.2711 166.821 74.6445 167.087L74.6155 100.928C82.9134 100.939 91.2651 101.153 99.5564 100.892L99.9107 99.5704C99.9252 98.1171 100.581 97.1919 101.552 96.185C105.105 96.2576 108.658 96.2893 112.212 96.2804L112.227 91.4489C109.327 91.3932 102.928 92.2214 100.713 90.648L99.7962 89.0676C100.171 84.9173 99.8351 80.5193 99.8597 76.3379C100.22 70.3736 99.804 64.1377 99.7785 58.1398C99.7692 55.9166 99.5906 53.5128 99.9285 51.3119C100.038 50.5965 100.242 49.8573 100.786 49.3427C101.534 48.6353 102.435 48.6259 103.403 48.6377L103.401 42.3674C102.906 42.3617 102.42 42.2966 101.941 42.172C101.194 41.9814 100.547 41.5673 100.189 40.8655C99.4482 39.4128 99.6705 8.22013 99.9421 4.51078C100.035 3.23835 100.263 2.03195 100.79 0.864185C102.947 -0.377586 118.704 0.469491 122.224 0.543316Z" fill="url(#paint10_linear_1269_1096)"/>
<path d="M250.761 185.915C253.839 185.896 257.06 185.693 260.119 186.01C259.846 187.35 260.038 188.914 260.205 190.262C257.143 190.472 254.076 190.437 251.009 190.437C251.007 188.907 250.941 187.434 250.761 185.915Z" fill="#6285EB"/>
<path d="M103.401 42.3677L112.341 42.3691L112.335 48.6806C109.372 48.6768 106.36 48.7844 103.403 48.6382L103.401 42.3677Z" fill="#F2F4F6"/>
<path d="M118.204 233.021L211.429 233.046L238.203 233.2C242.839 233.228 247.97 232.827 252.541 233.508L252.543 233.831C252.544 234.838 252.446 235.69 252.195 236.663C252.437 237.13 252.469 237.193 252.997 237.306C253.479 237.41 254.032 237.294 254.502 237.404C252.638 237.746 247.556 237.312 245.299 237.303L218.718 237.249L118.3 237.451C118.292 235.975 118.239 234.496 118.204 233.021Z" fill="url(#paint11_linear_1269_1096)"/>
<path d="M119.733 91.3168C142.196 91.2103 164.658 91.2401 187.12 91.4066C207.233 91.3184 227.345 91.342 247.458 91.4771C248.035 92.7009 248.929 94.1626 248.555 95.5358C248.001 96.0232 247.61 95.9405 246.889 96.0092C227.927 96.2382 208.95 96.0961 189.987 96.0845L117.584 96.1032L117.586 91.3585L119.733 91.3168Z" fill="url(#paint12_linear_1269_1096)"/>
<path d="M130.078 185.939C149.485 185.788 168.892 185.741 188.3 185.798C208.331 185.676 228.361 185.688 248.392 185.836C248.458 187.366 248.427 188.911 248.432 190.444L235.336 190.496L117.636 190.728L117.647 186.037L130.078 185.939Z" fill="url(#paint13_linear_1269_1096)"/>
<path d="M117.794 138.975C146.776 139.134 175.758 139.135 204.74 138.977C219.242 138.944 233.793 138.655 248.29 138.974C248.24 140.261 248.651 142.55 248.086 143.649L247.377 143.876L117.595 144.007C117.542 142.416 117.334 140.506 117.794 138.975Z" fill="url(#paint14_linear_1269_1096)"/>
<path d="M153.17 42.7148L217.29 42.5825L236.2 42.5642C239.335 42.5553 242.52 42.3923 245.647 42.5263C246.355 42.5566 246.901 42.603 247.457 43.0851C248.448 44.6748 248.166 46.4373 247.79 48.1888C247.378 48.5724 246.997 48.6561 246.452 48.7065C243.327 48.9971 239.854 48.7038 236.693 48.7177L212.44 48.7406L117.936 48.6475L117.893 42.7505L153.17 42.7148Z" fill="url(#paint15_linear_1269_1096)"/>
<path d="M262.311 156.955C262.549 158.434 262.351 159.923 262.589 161.375C264.931 162.989 267.479 164.317 269.585 166.246C271.22 167.743 272.503 169.542 274.06 171.087C272.896 173.459 272.564 178.161 273.187 180.773L273.475 180.914C273.803 202.73 273.542 224.593 273.453 246.412C273.419 254.845 273.127 263.342 273.332 271.77C273.221 273.65 273.216 275.526 273.212 277.408L262.003 277.409C262.046 265.65 262.026 253.89 261.943 242.13C261.922 240.962 262.041 238.632 261.03 237.896C259.552 236.819 256.277 237.333 254.502 237.404C254.032 237.294 253.479 237.41 252.997 237.306C252.469 237.193 252.437 237.13 252.195 236.663C252.446 235.69 252.544 234.838 252.543 233.831L252.541 233.507C255.323 233.1 259.628 234.333 261.888 232.48C262.411 229.806 262.525 192.892 261.982 191.725C261.578 190.858 261.036 190.594 260.205 190.262C260.038 188.914 259.846 187.35 260.119 186.01C260.686 185.835 261.141 185.678 261.578 185.259C262.01 184.844 262.15 184.325 262.227 183.749C262.601 180.964 262.335 177.866 262.325 175.044C262.27 169.014 262.266 162.985 262.311 156.955Z" fill="url(#paint16_linear_1269_1096)"/>
<path d="M99.911 99.5708C99.3933 106.385 99.7666 113.437 99.7391 120.287C99.7198 125.057 99.2363 131.924 99.8718 136.481C99.9415 136.981 100.162 137.359 100.493 137.727C100.862 138.138 101.304 138.492 101.727 138.845C105.219 139.172 108.771 138.937 112.276 139.013L112.28 144.234C109.767 144.215 102.466 143.519 100.798 145.239C100.095 145.964 99.9185 146.799 99.8073 147.777C99.5568 149.977 99.6923 152.295 99.6955 154.511L99.7157 165.746C99.7218 169.067 99.7503 172.391 99.7119 175.712C99.6881 177.765 99.5147 179.88 99.6404 181.927C99.7095 183.051 99.8494 184.429 100.677 185.275C102.318 186.952 109.611 185.897 112.037 185.97L112.031 190.892C109.902 190.868 101.949 190.278 100.505 191.716C99.9442 192.275 99.8466 194.301 99.8026 195.134C99.4394 202.007 99.7759 209.069 99.7927 215.959C99.8031 220.297 99.3717 225.087 99.9259 229.357C100.039 230.234 100.166 231.328 100.631 232.081C103.476 233.853 108.61 232.91 111.899 232.983L111.906 238.062C108.956 238.036 103.631 237.434 101.008 238.631C100.189 239.551 99.9391 240.754 99.7704 241.948C99.3355 245.028 99.6233 248.463 99.6233 251.576L99.6317 268.899C99.6335 272.031 99.7808 275.251 99.5878 278.371C99.3901 277.363 99.4443 276.261 99.4196 275.234L89.5979 275.255C89.5783 272.849 89.6063 270.439 89.611 268.032C89.8274 256.309 89.5923 244.543 89.5778 232.816L89.7699 172.749C89.5101 171.09 89.1311 169.647 87.8209 168.5C84.9523 165.988 78.2716 166.822 74.645 167.087L74.616 100.929C82.9138 100.94 91.2656 101.154 99.557 100.892L99.911 99.5708Z" fill="url(#paint17_linear_1269_1096)" fill-opacity="0.46"/>
<path d="M280.546 218.061C287.857 217.636 295.364 218.012 302.691 218.071C308.692 218.107 314.726 218.011 320.722 218.191L320.635 221.975L302.6 222.043C295.264 222.053 287.885 222.221 280.556 221.952L280.546 218.061Z" fill="#F2F4F6"/>
<path d="M302.838 180.907L328.738 180.957C328.321 195.826 328.603 210.768 328.577 225.648L328.368 272.142C327.466 271.075 326.647 270.242 325.454 269.488C317.849 269.315 310.206 269.478 302.597 269.481C302.382 261.633 302.521 253.656 302.721 245.806C305.87 245.809 320.19 246.327 321.938 245.502C322.688 242.153 322.38 238.425 322.376 235L322.351 220.486L322.346 204.38C322.344 201.608 322.477 198.756 322.308 195.993C322.279 195.522 322.178 195.22 321.975 194.803C320.894 193.73 305.473 194.211 302.731 194.219C303.039 189.814 302.881 185.323 302.838 180.907Z" fill="url(#paint18_linear_1269_1096)"/>
<path d="M273.476 180.914L302.838 180.907C302.881 185.323 303.039 189.814 302.732 194.219H280.602C280.486 202.133 280.313 210.15 280.546 218.061L280.557 221.951C287.885 222.221 295.264 222.053 302.6 222.043C303.052 229.923 302.553 237.909 302.721 245.806C302.521 253.656 302.382 261.633 302.598 269.481L285.382 269.454C282.336 269.446 278.633 269.051 275.654 269.71C275.01 269.853 274.477 270.188 274.027 270.664C273.707 271.002 273.456 271.315 273.332 271.77C273.127 263.343 273.419 254.845 273.453 246.413C273.542 224.593 273.803 202.73 273.476 180.914Z" fill="url(#paint19_linear_1269_1096)"/>
<path d="M103.853 4.38793L258.112 4.33008L258.1 38.1633L103.857 38.169L103.853 4.38793Z" fill="white"/>
<path d="M197.355 10.8336L248.224 10.8262L248.22 31.1295L197.321 31.1434L197.355 10.8336Z" fill="url(#paint20_linear_1269_1096)"/>
<path d="M235.448 18.5494C235.928 18.542 236.433 18.5247 236.905 18.6134C237.796 18.7803 238.699 19.419 239.181 20.1812C239.661 20.9386 239.777 21.8577 239.546 22.7189C239.212 23.9544 238.373 24.5651 237.304 25.1544C236.824 25.1615 236.331 25.176 235.854 25.1203C234.971 25.0171 234.119 24.4699 233.604 23.7539C233.074 23.0175 232.931 22.1151 233.133 21.2386C233.453 19.85 234.281 19.2537 235.448 18.5494Z" fill="white"/>
<path d="M217.94 18.501C218.484 18.5766 219.061 18.6426 219.57 18.8523C219.681 18.8984 219.789 18.9499 219.894 19.0071C220 19.0638 220.102 19.1257 220.202 19.1926C220.301 19.2595 220.397 19.3312 220.489 19.4076C220.581 19.4839 220.669 19.5646 220.753 19.6497C220.838 19.7348 220.918 19.8238 220.993 19.9169C221.069 20.0098 221.14 20.1061 221.206 20.2062C221.272 20.3063 221.333 20.4092 221.388 20.5151C221.444 20.621 221.495 20.7295 221.54 20.8403C221.583 20.9433 221.62 21.0486 221.652 21.1558C221.684 21.263 221.71 21.3714 221.73 21.4815C221.75 21.5914 221.764 21.7021 221.772 21.8133C221.78 21.9248 221.783 22.0366 221.779 22.1483C221.775 22.2599 221.765 22.3709 221.749 22.4815C221.734 22.5923 221.712 22.7019 221.684 22.81C221.657 22.9185 221.624 23.0249 221.585 23.1296C221.546 23.2343 221.501 23.3366 221.451 23.4367C220.918 24.5096 220.091 24.8997 219.011 25.2899C218.554 25.2487 218.081 25.2128 217.634 25.1076C216.773 24.9057 215.907 24.2039 215.48 23.4385C215.045 22.6562 214.999 21.7335 215.291 20.8942C215.753 19.5668 216.735 19.0676 217.94 18.501Z" fill="white"/>
<path d="M116.699 11.5984L187.8 11.5718C187.823 17.9921 188.175 24.6187 187.735 31.0157L116.665 31.1002C116.63 24.5995 116.642 18.0988 116.699 11.5984Z" fill="#F2F4F6"/>
<path d="M137.73 19.6699C138.023 19.6859 138.257 19.6901 138.554 19.7456C139.392 19.903 140.119 20.361 140.543 21.1123C140.868 21.6866 140.944 22.3305 140.764 22.965C140.476 23.9775 139.81 24.4228 138.925 24.8944C138.641 24.8837 138.361 24.8775 138.081 24.8253C137.239 24.6678 136.459 24.1571 136.044 23.3954C135.737 22.8315 135.687 22.1758 135.867 21.5656C136.168 20.5507 136.859 20.1484 137.73 19.6699Z" fill="url(#paint21_linear_1269_1096)"/>
<path d="M147.314 19.7011C147.6 19.689 147.718 19.6792 148.022 19.6922C148.884 19.7296 149.561 19.9937 150.099 20.6744C150.517 21.2043 150.671 21.8491 150.583 22.5122C150.437 23.6029 149.832 24.1982 149.014 24.8636C148.773 24.8641 148.531 24.8683 148.29 24.8541C147.447 24.805 146.656 24.469 146.109 23.8093C145.621 23.2206 145.495 22.5776 145.617 21.8233C145.782 20.7987 146.534 20.2641 147.314 19.7011Z" fill="url(#paint22_linear_1269_1096)"/>
<path d="M128.146 19.6685C128.449 19.6714 128.792 19.6578 129.095 19.7053C129.87 19.8263 130.576 20.246 131.005 20.9146C131.365 21.4772 131.416 22.0794 131.306 22.7239C131.131 23.7417 130.368 24.3248 129.565 24.8608C128.555 24.8614 127.555 24.7538 126.861 23.9142C126.386 23.3399 126.191 22.6713 126.326 21.9385C126.533 20.8208 127.25 20.269 128.146 19.6685Z" fill="url(#paint23_linear_1269_1096)"/>
<path d="M157.396 19.4497C157.755 19.4512 158.102 19.4871 158.453 19.5627C159.285 19.7427 160.231 20.2496 160.659 21.0202C161.045 21.7145 161.135 22.4533 160.915 23.2149C160.571 24.407 159.75 24.9415 158.737 25.5523C158.374 25.5635 158.341 25.5724 157.94 25.5452C157.101 25.4895 156.161 25.1195 155.639 24.4326C155.117 23.7448 154.957 23.0149 155.119 22.1765C155.387 20.7903 156.266 20.1665 157.396 19.4497Z" fill="#F6A26E"/>
<path d="M169.035 18.8172C169.814 18.7288 170.685 18.6372 171.455 18.8101C172.575 19.061 173.723 19.7894 174.32 20.7829C174.8 21.5815 174.936 22.4754 174.697 23.3776C174.307 24.8448 173.194 25.7066 171.942 26.4341C171.25 26.5121 170.455 26.537 169.774 26.387C168.602 26.1296 167.443 25.3745 166.819 24.3389C166.294 23.4679 166.131 22.4455 166.431 21.4662C166.858 20.0751 167.823 19.4881 169.035 18.8172Z" fill="#F66554"/>
<path d="M160.376 147.853L258.301 147.837L258.309 181.759L202.101 181.696L103.861 181.846L103.837 148.014L160.376 147.853Z" fill="white"/>
<path d="M246.766 154.625C247.425 154.583 247.937 154.548 248.577 154.762C249.152 157.056 248.701 170.367 248.688 173.885L200.057 173.784L197.584 173.79L197.586 154.771L246.766 154.625Z" fill="url(#paint24_linear_1269_1096)"/>
<path d="M236.111 161.566C236.617 161.637 237.163 161.695 237.638 161.89C238.451 162.224 239.144 162.981 239.44 163.804C239.754 164.676 239.651 165.625 239.232 166.443C238.645 167.594 237.844 167.972 236.664 168.379C236.131 168.29 235.564 168.202 235.061 167.993C234.238 167.65 233.569 166.858 233.262 166.035C232.954 165.21 232.985 164.292 233.396 163.506C234.002 162.347 234.912 161.927 236.111 161.566Z" fill="white"/>
<path d="M217.183 161.523C217.735 161.504 218.33 161.462 218.873 161.579C219.767 161.772 220.51 162.358 220.986 163.129C221.478 163.926 221.575 164.861 221.297 165.753C220.929 166.932 220.196 167.554 219.158 168.148C218.704 168.186 218.226 168.228 217.772 168.186C216.896 168.104 216.028 167.583 215.52 166.87C214.968 166.095 214.835 165.128 215.027 164.206C215.313 162.829 216.035 162.234 217.183 161.523Z" fill="white"/>
<path d="M126.601 154.395C147.038 154.208 167.486 154.487 187.925 154.453L187.946 175.633L179.029 175.617L140.979 175.65C133.367 175.673 125.717 175.856 118.111 175.635L118.143 154.455C120.954 154.354 123.788 154.409 126.601 154.395Z" fill="#F2F4F6"/>
<path d="M147.598 163.366C147.706 163.369 147.814 163.367 147.921 163.376C148.735 163.445 149.606 163.784 150.104 164.467C150.569 165.103 150.708 165.806 150.56 166.573C150.325 167.793 149.597 168.329 148.596 168.959C148.52 168.949 148.445 168.941 148.37 168.931C147.364 168.797 146.425 168.499 145.848 167.585C145.398 166.874 145.342 166.207 145.57 165.406C145.862 164.38 146.739 163.873 147.598 163.366Z" fill="url(#paint25_linear_1269_1096)"/>
<path d="M129.586 163.375C130.59 163.571 131.515 163.91 132.084 164.821C132.477 165.452 132.59 166.168 132.376 166.888C132.031 168.058 131.254 168.479 130.23 168.987C129.95 168.958 129.671 168.927 129.394 168.876C128.654 168.74 127.909 168.306 127.534 167.629C127.158 166.95 127.117 166.233 127.356 165.503C127.729 164.367 128.579 163.895 129.586 163.375Z" fill="url(#paint26_linear_1269_1096)"/>
<path d="M137.721 163.626C138.149 163.593 138.595 163.551 139.023 163.584C139.725 163.638 140.498 164.095 140.952 164.629C141.43 165.191 141.614 165.915 141.484 166.642C141.298 167.685 140.632 168.145 139.841 168.744C139.412 168.767 138.971 168.798 138.542 168.767C137.825 168.714 137.075 168.303 136.613 167.754C136.145 167.198 135.98 166.566 136.098 165.856C136.274 164.791 136.907 164.261 137.721 163.626Z" fill="url(#paint27_linear_1269_1096)"/>
<path d="M157.326 163.393C157.836 163.385 158.372 163.357 158.878 163.433C159.572 163.537 160.333 164.093 160.714 164.679C161.134 165.324 161.158 166.023 160.974 166.746C160.71 167.78 159.865 168.348 159.027 168.898C158.752 168.911 158.538 168.93 158.27 168.918C157.505 168.881 156.609 168.448 156.141 167.826C155.611 167.12 155.423 166.295 155.613 165.431C155.842 164.389 156.464 163.938 157.326 163.393Z" fill="url(#paint28_linear_1269_1096)"/>
<path d="M170.244 161.282C170.857 161.252 171.445 161.23 172.047 161.379C173.209 161.666 174.292 162.417 174.865 163.479C175.437 164.537 175.466 165.755 175.075 166.878C174.536 168.426 173.408 169.137 172.004 169.836C171.357 169.926 170.732 169.909 170.099 169.736C169.057 169.452 168.062 168.746 167.55 167.782C166.956 166.662 166.897 165.385 167.3 164.194C167.808 162.692 168.888 161.969 170.244 161.282Z" fill="url(#paint29_linear_1269_1096)"/>
<path d="M252.663 194.344C254.483 194.329 256.303 194.331 258.122 194.349L258.128 229.369L109.639 229.001L104.043 228.976L104.072 194.695L252.663 194.344Z" fill="white"/>
<path d="M197.802 201.593L248.857 201.711C248.794 208.082 248.793 214.452 248.857 220.822L197.763 220.994L197.802 201.593Z" fill="url(#paint30_linear_1269_1096)"/>
<path d="M235.397 208.946C235.861 208.927 236.34 208.9 236.804 208.939C237.63 209.009 238.468 209.563 238.954 210.221C239.486 210.942 239.645 211.799 239.459 212.671C239.177 213.992 238.333 214.711 237.237 215.396C236.65 215.437 236.005 215.48 235.436 215.307C234.584 215.048 233.843 214.419 233.427 213.635C233.376 213.538 233.33 213.439 233.289 213.337C233.247 213.235 233.212 213.132 233.181 213.026C233.151 212.921 233.125 212.815 233.106 212.707C233.086 212.599 233.072 212.49 233.063 212.381C233.054 212.272 233.051 212.162 233.054 212.053C233.056 211.943 233.064 211.834 233.077 211.725C233.091 211.616 233.11 211.509 233.134 211.402C233.159 211.294 233.189 211.189 233.224 211.085C233.613 209.922 234.348 209.483 235.397 208.946Z" fill="white"/>
<path d="M217.72 208.713C218.281 208.741 218.898 208.792 219.426 208.992C220.258 209.306 220.997 209.999 221.356 210.812C221.402 210.915 221.442 211.02 221.476 211.127C221.511 211.234 221.54 211.342 221.564 211.452C221.587 211.562 221.605 211.673 221.617 211.785C221.629 211.897 221.635 212.008 221.636 212.121C221.637 212.233 221.632 212.345 221.621 212.457C221.61 212.569 221.594 212.68 221.572 212.791C221.55 212.901 221.522 213.009 221.489 213.117C221.455 213.224 221.417 213.33 221.373 213.433C220.916 214.526 220.073 215.049 219.033 215.508C218.544 215.493 218.025 215.492 217.546 215.381C216.678 215.179 215.851 214.523 215.404 213.763C215.348 213.667 215.297 213.568 215.252 213.466C215.206 213.365 215.166 213.262 215.131 213.156C215.096 213.051 215.067 212.944 215.044 212.835C215.021 212.726 215.003 212.617 214.991 212.506C214.979 212.396 214.973 212.285 214.973 212.174C214.973 212.063 214.978 211.952 214.99 211.841C215.001 211.731 215.018 211.621 215.041 211.512C215.064 211.403 215.093 211.296 215.127 211.191C215.566 209.802 216.472 209.315 217.72 208.713Z" fill="white"/>
<path d="M118.168 202.01L187.832 201.957C187.899 208.723 187.901 215.49 187.839 222.257L118.253 222.41C118.168 215.61 118.14 208.81 118.168 202.01Z" fill="#F2F4F6"/>
<path d="M129.335 210.087C129.619 210.096 129.858 210.093 130.143 210.153C130.884 210.309 131.571 210.775 131.959 211.43C132.338 212.07 132.374 212.813 132.138 213.506C131.81 214.468 131.173 214.903 130.311 215.362C129.998 215.342 129.627 215.34 129.316 215.268C129.229 215.247 129.143 215.222 129.059 215.193C128.974 215.164 128.891 215.131 128.809 215.094C128.728 215.057 128.648 215.015 128.571 214.971C128.493 214.925 128.418 214.877 128.346 214.825C128.273 214.772 128.203 214.717 128.135 214.657C128.068 214.599 128.004 214.537 127.942 214.471C127.881 214.406 127.823 214.337 127.768 214.266C127.713 214.196 127.662 214.122 127.615 214.046C127.22 213.402 127.21 212.721 127.41 212.013C127.686 211.039 128.508 210.546 129.335 210.087Z" fill="url(#paint31_linear_1269_1096)"/>
<path d="M147.278 210.121C147.789 210.106 148.373 210.058 148.868 210.203C149.554 210.403 150.127 210.957 150.433 211.593C150.726 212.203 150.745 212.86 150.514 213.494C150.156 214.476 149.495 214.886 148.586 215.309C148.238 215.306 147.883 215.314 147.538 215.264C147.447 215.251 147.358 215.233 147.269 215.211C147.18 215.189 147.092 215.162 147.006 215.131C146.92 215.1 146.835 215.065 146.753 215.026C146.67 214.986 146.59 214.942 146.512 214.895C146.433 214.847 146.358 214.796 146.285 214.741C146.211 214.685 146.141 214.627 146.074 214.565C146.007 214.503 145.943 214.437 145.882 214.369C145.822 214.3 145.764 214.229 145.711 214.154C145.286 213.559 145.17 212.838 145.375 212.136C145.675 211.111 146.41 210.643 147.278 210.121Z" fill="url(#paint32_linear_1269_1096)"/>
<path d="M137.953 210.103C138.269 210.099 138.587 210.097 138.903 210.118C139.687 210.169 140.523 210.545 141.01 211.185C141.453 211.768 141.642 212.404 141.494 213.133C141.261 214.272 140.516 214.817 139.587 215.409C138.57 215.464 137.63 215.34 136.89 214.561C136.374 214.018 136.165 213.317 136.25 212.584C136.393 211.35 137.018 210.813 137.953 210.103Z" fill="url(#paint33_linear_1269_1096)"/>
<path d="M157.319 209.874C157.405 209.878 157.491 209.881 157.577 209.887C158.746 209.958 159.722 210.19 160.499 211.131C160.965 211.694 161.168 212.411 161.033 213.134C160.818 214.292 160.051 214.827 159.141 215.45C158.709 215.476 158.255 215.511 157.824 215.464C157.161 215.39 156.485 214.947 156.073 214.436C155.591 213.837 155.408 213.077 155.531 212.323C155.725 211.127 156.355 210.529 157.319 209.874Z" fill="url(#paint34_linear_1269_1096)"/>
<path d="M170.326 208.299C171.047 208.356 171.755 208.45 172.427 208.739C173.507 209.202 174.424 210.091 174.811 211.212C174.854 211.337 174.891 211.463 174.921 211.592C174.951 211.72 174.974 211.85 174.991 211.98C175.008 212.111 175.018 212.242 175.021 212.374C175.024 212.506 175.021 212.638 175.011 212.769C175.001 212.901 174.984 213.031 174.96 213.161C174.936 213.29 174.906 213.418 174.869 213.545C174.832 213.671 174.789 213.796 174.739 213.918C174.69 214.04 174.634 214.159 174.572 214.275C173.846 215.651 172.657 216.199 171.24 216.652C170.241 216.616 169.317 216.521 168.426 216.026C167.513 215.518 166.796 214.626 166.525 213.614C166.241 212.549 166.403 211.443 166.953 210.492C167.736 209.137 168.885 208.69 170.326 208.299Z" fill="url(#paint35_linear_1269_1096)"/>
<path d="M103.827 52.8598L258.296 52.8477L258.155 87.4304C252.353 87.8579 246.303 87.5024 240.479 87.4861L207.944 87.4496L103.842 87.4692L103.827 52.8598Z" fill="white"/>
<path d="M197.332 60.3444L248.209 60.3032L248.159 80.3L197.304 80.2686L197.332 60.3444Z" fill="url(#paint36_linear_1269_1096)"/>
<path d="M217.672 67.5786C218.214 67.5997 218.797 67.6053 219.316 67.7767C220.172 68.0598 220.965 68.7416 221.345 69.5622C221.391 69.6613 221.432 69.7623 221.467 69.8655C221.503 69.9685 221.533 70.0732 221.557 70.1795C221.582 70.2858 221.601 70.393 221.614 70.5011C221.628 70.6094 221.635 70.7182 221.637 70.8272C221.639 70.9362 221.636 71.0451 221.627 71.1539C221.617 71.2626 221.603 71.3707 221.582 71.4777C221.562 71.5845 221.536 71.6903 221.505 71.7949C221.473 71.8992 221.437 72.0017 221.395 72.1024C220.936 73.2215 220.13 73.728 219.07 74.2108C218.673 74.209 218.263 74.2099 217.869 74.1477C216.986 74.0089 216.101 73.4089 215.609 72.6698C215.111 71.9226 214.999 71.0338 215.224 70.1708C215.582 68.7983 216.491 68.2262 217.672 67.5786Z" fill="white"/>
<path d="M235.136 67.6042C235.645 67.5523 236.175 67.4912 236.685 67.5229C237.571 67.5771 238.519 68.1253 239.067 68.8107C239.617 69.4991 239.82 70.3444 239.689 71.213C239.487 72.5522 238.654 73.3093 237.594 74.0434C237.025 74.1308 236.363 74.226 235.793 74.1359C234.923 73.998 234.113 73.4475 233.615 72.7303C233.089 71.9725 232.948 71.0168 233.137 70.1205C233.405 68.8545 234.103 68.2965 235.136 67.6042Z" fill="white"/>
<path d="M118.395 60.4197C126.727 60.3014 135.077 60.4422 143.411 60.4491L187.992 60.4037L188.007 79.7542L118.371 79.7696L118.395 60.4197Z" fill="#F2F4F6"/>
<path d="M128.097 67.8052C128.339 67.799 128.581 67.7907 128.822 67.7963C129.675 67.8164 130.42 68.1126 130.978 68.7696C131.466 69.3421 131.589 70.0005 131.493 70.7299C131.355 71.7855 130.614 72.3444 129.802 72.9139C129.425 72.9442 129.378 72.956 128.966 72.9513C128.227 72.9424 127.528 72.677 127.047 72.0953C126.631 71.5911 126.456 70.9524 126.52 70.3052C126.636 69.1422 127.214 68.5019 128.097 67.8052Z" fill="url(#paint37_linear_1269_1096)"/>
<path d="M137.486 67.7942C137.914 67.7891 138.364 67.7731 138.788 67.8362C139.545 67.9492 140.297 68.5708 140.639 69.2442C140.936 69.8311 140.964 70.4881 140.77 71.109C140.452 72.1291 139.8 72.5267 138.92 73.0201C137.968 73.021 137.008 72.9005 136.349 72.1295C135.857 71.5537 135.617 70.9118 135.727 70.1589C135.901 68.9659 136.551 68.4399 137.486 67.7942Z" fill="url(#paint38_linear_1269_1096)"/>
<path d="M147.07 67.8286C147.463 67.8034 147.865 67.774 148.258 67.8005C148.998 67.8509 149.714 68.2496 150.161 68.8393C150.553 69.3551 150.711 69.9709 150.594 70.6092C150.395 71.6967 149.746 72.2756 148.864 72.8568C148.682 72.8708 148.5 72.8813 148.318 72.8885C147.425 72.9212 146.547 72.7335 145.935 72.0181C145.396 71.3868 145.188 70.6537 145.372 69.8336C145.607 68.7856 146.22 68.3655 147.07 67.8286Z" fill="url(#paint39_linear_1269_1096)"/>
<path d="M156.816 67.6258C157.28 67.5633 157.754 67.4983 158.223 67.5108C158.337 67.5146 158.451 67.5243 158.564 67.5399C158.677 67.5551 158.789 67.5763 158.9 67.6033C159.011 67.6304 159.121 67.6632 159.228 67.7015C159.335 67.7394 159.441 67.7831 159.544 67.8323C159.647 67.8814 159.747 67.9356 159.845 67.9948C159.942 68.0543 160.036 68.1187 160.127 68.1878C160.218 68.2569 160.305 68.3305 160.388 68.4089C160.472 68.4867 160.551 68.5689 160.626 68.6552C161.118 69.2117 161.4 69.9771 161.28 70.7239C161.076 71.9982 160.338 72.6051 159.333 73.3201C158.77 73.4322 158.228 73.4977 157.652 73.4529C156.862 73.3916 156.075 73.0179 155.573 72.3963C155.088 71.7959 154.915 71.0305 155.018 70.273C155.187 69.0272 155.884 68.3884 156.816 67.6258Z" fill="url(#paint40_linear_1269_1096)"/>
<path d="M170.293 66.4454C171.006 66.4416 171.826 66.5426 172.487 66.8207C172.614 66.8742 172.739 66.9339 172.86 66.9997C172.981 67.0658 173.099 67.1376 173.213 67.2152C173.327 67.2925 173.437 67.3754 173.543 67.4639C173.649 67.5524 173.751 67.6458 173.848 67.7443C173.944 67.8428 174.036 67.9457 174.122 68.0532C174.209 68.1608 174.29 68.2722 174.365 68.3873C174.441 68.5029 174.511 68.6219 174.574 68.7443C174.638 68.8668 174.696 68.9919 174.747 69.12C174.796 69.2455 174.838 69.3732 174.875 69.5031C174.91 69.6329 174.939 69.7644 174.961 69.8974C174.984 70.0302 174.999 70.1636 175.007 70.2982C175.015 70.4328 175.017 70.5674 175.011 70.702C175.006 70.8366 174.993 70.9705 174.974 71.1038C174.955 71.2371 174.928 71.3692 174.895 71.5001C174.862 71.6307 174.822 71.7591 174.776 71.8856C174.729 72.012 174.677 72.1359 174.618 72.257C173.949 73.6191 172.871 74.1574 171.487 74.5935C170.56 74.594 169.691 74.5089 168.852 74.0809C168.734 74.0219 168.62 73.9573 168.509 73.887C168.398 73.817 168.29 73.7413 168.187 73.6604C168.083 73.5793 167.984 73.4935 167.889 73.403C167.794 73.3122 167.703 73.2167 167.618 73.117C167.532 73.017 167.452 72.9131 167.377 72.8054C167.301 72.6976 167.232 72.5863 167.168 72.4713C167.104 72.3566 167.045 72.2391 166.993 72.1185C166.94 71.9978 166.894 71.875 166.854 71.7497C166.537 70.7376 166.669 69.6792 167.159 68.747C167.849 67.4378 168.938 66.8744 170.293 66.4454Z" fill="url(#paint41_linear_1269_1096)"/>
<path d="M103.812 99.9015C114.393 99.6982 125.017 99.8674 135.603 99.8651L203.549 99.9318L239.911 99.8761C245.969 99.8678 252.315 99.4546 258.334 99.9696C258.322 103.362 258.531 134.086 257.994 134.872L103.817 134.73C103.626 123.137 103.764 111.498 103.812 99.9015Z" fill="white"/>
<path d="M219.108 107.2L248.586 107.128L248.664 127.941L226.55 128.007L197.343 128.209L197.399 107.209L219.108 107.2Z" fill="url(#paint42_linear_1269_1096)"/>
<path d="M235.435 114.569C235.886 114.542 236.352 114.508 236.803 114.546C237.702 114.621 238.63 115.205 239.171 115.911C239.717 116.624 239.91 117.489 239.732 118.369C239.479 119.622 238.61 120.346 237.572 120.981C237.113 121.044 236.635 121.114 236.173 121.053C235.266 120.934 234.404 120.434 233.87 119.689C233.336 118.943 233.203 117.977 233.381 117.088C233.635 115.813 234.398 115.25 235.435 114.569Z" fill="white"/>
<path d="M216.712 114.591C217.293 114.535 217.933 114.44 218.513 114.521C219.335 114.636 220.233 115.222 220.713 115.89C220.771 115.971 220.826 116.054 220.876 116.14C220.926 116.227 220.972 116.315 221.013 116.406C221.054 116.497 221.091 116.59 221.123 116.684C221.155 116.779 221.182 116.874 221.204 116.972C221.227 117.069 221.245 117.167 221.258 117.266C221.27 117.365 221.278 117.464 221.281 117.564C221.284 117.663 221.282 117.763 221.275 117.863C221.268 117.962 221.256 118.061 221.239 118.159C221.023 119.482 220.217 120.239 219.167 120.971C218.669 121.043 218.143 121.097 217.64 121.049C216.72 120.963 215.747 120.386 215.228 119.623C214.733 118.896 214.592 117.979 214.76 117.124C214.995 115.921 215.764 115.276 216.712 114.591Z" fill="white"/>
<path d="M118.525 106.962L188.007 106.944L187.995 127.937L118.071 127.954C118.024 123.568 118.064 119.177 118.069 114.791C118.072 112.479 117.889 109.979 118.139 107.687C118.204 107.091 118.078 107.319 118.525 106.962Z" fill="#F2F4F6"/>
<path d="M129.051 115.21C129.42 115.202 129.785 115.194 130.151 115.25C130.938 115.371 131.617 115.785 132.063 116.45C132.447 117.023 132.553 117.66 132.412 118.332C132.186 119.409 131.594 119.839 130.731 120.423C129.762 120.424 128.845 120.31 128.135 119.579C127.6 119.03 127.44 118.364 127.506 117.607C127.597 116.563 128.317 115.868 129.051 115.21Z" fill="url(#paint43_linear_1269_1096)"/>
<path d="M137.924 115.242C138.242 115.227 138.589 115.197 138.909 115.226C139.701 115.296 140.604 115.667 141.06 116.365C141.426 116.925 141.573 117.516 141.451 118.172C141.256 119.225 140.572 119.786 139.752 120.391C139.609 120.398 139.466 120.407 139.323 120.41C138.414 120.434 137.635 120.124 137.008 119.463C136.506 118.934 136.285 118.204 136.363 117.482C136.48 116.4 137.1 115.848 137.924 115.242Z" fill="url(#paint44_linear_1269_1096)"/>
<path d="M147.363 115.263C147.847 115.241 148.39 115.193 148.86 115.326C149.527 115.513 150.135 116.058 150.447 116.67C150.748 117.262 150.784 117.923 150.6 118.552C150.307 119.558 149.683 119.988 148.795 120.456C147.789 120.441 146.758 120.341 146.043 119.529C145.607 119.032 145.407 118.519 145.453 117.85C145.542 116.558 146.411 115.952 147.363 115.263Z" fill="url(#paint45_linear_1269_1096)"/>
<path d="M157.571 115.025C157.893 115.039 158.218 115.053 158.539 115.092C159.301 115.184 160.16 115.6 160.586 116.27C160.998 116.92 161.121 117.549 160.965 118.305C160.702 119.58 159.924 120.175 158.899 120.881C158.459 120.865 157.994 120.843 157.571 120.706C156.85 120.475 156.199 119.917 155.849 119.248C155.485 118.552 155.441 117.722 155.683 116.978C156.011 115.967 156.679 115.518 157.571 115.025Z" fill="url(#paint46_linear_1269_1096)"/>
<path d="M170.565 113.66C171.369 113.721 172.125 113.833 172.871 114.164C173.971 114.652 174.883 115.553 175.231 116.722C175.542 117.766 175.366 118.83 174.826 119.763C174.036 121.128 172.767 121.637 171.323 122.063C170.572 122.059 169.858 122.055 169.154 121.759C168.047 121.295 167.159 120.418 166.781 119.269C166.405 118.128 166.569 116.892 167.176 115.863C167.952 114.547 169.133 113.999 170.565 113.66Z" fill="url(#paint47_linear_1269_1096)"/>
<path d="M174.801 241.306L229.886 241.119C239.272 241.075 248.658 241.081 258.043 241.137C258.067 253.12 258.26 265.152 257.927 277.129L187.849 277.012C159.888 277.043 131.87 276.661 103.916 277.102C103.658 265.249 103.865 253.346 103.848 241.487C127.48 241.122 151.162 241.44 174.801 241.306Z" fill="white"/>
<path d="M247.662 248.317C248.081 248.298 248.339 248.324 248.742 248.401C249.377 249.954 248.947 265.34 248.944 268.35L199.122 268.361C198.628 268.381 198.366 268.342 197.914 268.14C197.474 266.047 197.817 263.289 197.848 261.136L197.995 248.451C214.551 248.5 231.107 248.456 247.662 248.317Z" fill="url(#paint48_linear_1269_1096)"/>
<path d="M236.149 255.232C236.484 255.27 236.824 255.302 237.153 255.381C237.256 255.407 237.357 255.437 237.456 255.473C237.556 255.509 237.654 255.549 237.749 255.595C237.845 255.641 237.937 255.691 238.027 255.746C238.118 255.801 238.205 255.861 238.29 255.924C238.374 255.988 238.454 256.057 238.531 256.129C238.609 256.201 238.683 256.277 238.752 256.357C238.822 256.436 238.887 256.519 238.948 256.605C239.009 256.692 239.066 256.781 239.118 256.873C239.57 257.687 239.574 258.638 239.278 259.506C238.828 260.828 237.955 261.38 236.744 261.944C236.251 261.872 235.718 261.81 235.257 261.614C234.427 261.261 233.751 260.507 233.429 259.674C233.101 258.823 233.175 257.893 233.6 257.088C234.159 256.028 235.064 255.603 236.149 255.232Z" fill="white"/>
<path d="M217.666 255.188C218.135 255.182 218.62 255.171 219.08 255.277C219.941 255.477 220.718 256.007 221.181 256.765C221.652 257.534 221.716 258.455 221.455 259.306C221.084 260.516 220.323 261.093 219.265 261.702C218.846 261.719 218.406 261.743 217.989 261.688C217.1 261.568 216.234 260.971 215.753 260.226C215.284 259.5 215.163 258.634 215.362 257.795C215.686 256.429 216.505 255.854 217.666 255.188Z" fill="white"/>
<path d="M118.841 248.309C126.936 248.058 135.086 248.233 143.186 248.223L187.89 248.197C187.907 254.149 188.305 260.493 187.899 266.398C187.858 267.007 187.969 267.203 187.497 267.611L118.462 267.825C118.317 262.058 118.337 256.231 118.403 250.462C118.412 249.67 118.26 248.876 118.841 248.309Z" fill="#F2F4F6"/>
<path d="M129.6 255.892C129.94 255.929 129.985 255.925 130.353 256.009C131.158 256.192 131.91 256.701 132.251 257.472C132.518 258.075 132.463 258.667 132.258 259.277C131.927 260.261 131.068 260.7 130.193 261.117C129.967 261.102 129.889 261.104 129.645 261.045C128.859 260.854 128.224 260.474 127.802 259.766C127.414 259.114 127.367 258.357 127.613 257.645C127.964 256.631 128.685 256.299 129.6 255.892Z" fill="url(#paint49_linear_1269_1096)"/>
<path d="M137.72 255.932C137.899 255.906 138.078 255.883 138.258 255.864C139.158 255.772 139.915 255.889 140.603 256.556C141.211 257.147 141.385 257.869 141.285 258.69C141.158 259.721 140.431 260.351 139.663 260.949C139.574 260.96 139.487 260.976 139.398 260.981C138.51 261.036 137.615 260.735 136.99 260.087C136.463 259.54 136.245 258.819 136.309 258.075C136.398 257.037 136.963 256.543 137.72 255.932Z" fill="url(#paint50_linear_1269_1096)"/>
<path d="M147.53 255.647C148.466 255.724 149.486 255.954 150.069 256.77C150.521 257.404 150.687 258.082 150.5 258.839C150.207 260.018 149.46 260.53 148.451 261.094C147.55 261.016 146.537 260.716 145.993 259.925C145.562 259.299 145.402 258.652 145.57 257.902C145.825 256.768 146.583 256.213 147.53 255.647Z" fill="url(#paint51_linear_1269_1096)"/>
<path d="M157.384 255.656C157.761 255.641 158.155 255.623 158.529 255.677C159.274 255.785 160.055 256.286 160.476 256.905C160.901 257.532 160.965 258.202 160.808 258.937C160.598 259.922 159.843 260.429 159.061 260.945C158.767 260.966 158.473 260.994 158.177 260.97C157.365 260.903 156.506 260.516 156.042 259.824C155.681 259.286 155.596 258.606 155.701 257.979C155.888 256.865 156.527 256.317 157.384 255.656Z" fill="url(#paint52_linear_1269_1096)"/>
<path d="M169.477 254.533C170.14 254.432 170.896 254.354 171.556 254.511C172.685 254.779 173.733 255.51 174.299 256.533C174.362 256.649 174.42 256.769 174.471 256.892C174.523 257.015 174.568 257.139 174.607 257.267C174.646 257.394 174.678 257.523 174.704 257.653C174.73 257.784 174.749 257.915 174.762 258.047C174.774 258.18 174.781 258.313 174.78 258.446C174.779 258.579 174.772 258.712 174.758 258.844C174.744 258.976 174.723 259.107 174.695 259.238C174.668 259.368 174.634 259.496 174.594 259.623C174.153 261.036 173.225 261.711 171.985 262.408C171.516 262.442 171.029 262.483 170.559 262.446C169.427 262.355 168.176 261.564 167.534 260.643C167.458 260.534 167.388 260.422 167.324 260.307C167.26 260.191 167.202 260.072 167.15 259.95C167.098 259.829 167.052 259.704 167.012 259.578C166.973 259.452 166.94 259.324 166.914 259.194C166.887 259.064 166.867 258.934 166.854 258.802C166.842 258.67 166.835 258.538 166.836 258.406C166.836 258.273 166.843 258.141 166.857 258.009C166.871 257.878 166.892 257.747 166.919 257.618C167.23 256.068 168.197 255.329 169.477 254.533Z" fill="url(#paint53_linear_1269_1096)"/>
<path d="M403.666 103.319C406.086 103.612 408.614 103.571 410.498 105.525C410.83 112.213 411.536 118.955 409.385 125.463C407.907 129.938 407.26 134.645 405.433 139.007C402.299 141.004 402.052 143.451 404.669 146.738C404.712 147.087 404.755 147.57 404.516 147.729C401.407 149.796 400.626 153.205 399.456 156.392C397.734 157.889 399.432 159.191 399.9 160.329C402.549 166.769 405.494 173.064 407.114 179.912C409.444 189.765 408.493 199.527 407.049 209.342C405.948 216.832 405.307 224.379 406.35 231.92C406.878 235.732 405.628 237.841 401.814 238.494C400.348 238.745 398.928 239.27 397.487 239.67C396.912 241.377 395.381 241.719 393.932 241.935C390.54 242.44 387.148 243.137 383.683 242.7C381.95 242.312 380.238 241.791 378.437 241.773C373.173 241.908 368.293 240.287 363.455 238.478C362.313 238.051 361.65 237.121 361.048 236.133C359.451 235.552 358.905 234.464 358.755 232.719C357.818 221.817 356.712 210.929 355.687 200.034C354.602 188.505 355.567 177.206 359.99 166.409C362.881 159.353 364.445 152.275 362.545 144.644C361.967 142.319 362.24 139.783 362.122 137.308C360.949 137.349 361.147 138.374 360.893 139.039C359.028 143.932 357.285 148.875 355.293 153.715C353.54 157.973 351.166 158.787 346.938 156.893C342.632 154.965 339.044 151.991 335.509 148.95C332.919 146.721 335.905 144.712 335.79 142.577C334.547 140.236 335.478 138.551 337.409 137.164C339.851 136.205 341.512 137.9 343.393 138.914C344.267 139.385 345.181 140.201 346.243 139.488C346.87 139.066 346.888 138.25 346.635 137.591C346.077 136.144 344.711 136.307 343.692 136.599C341.605 137.197 339.599 136.717 337.555 136.568C334.089 135.242 331.995 131.933 328.635 130.413C327.86 130.062 327.486 128.986 328.208 128.031C332.503 125.826 337.264 126.308 341.829 125.822C348.652 125.096 348.761 125.254 347.922 118.272C347.175 112.059 345.495 106.005 344.489 99.8308C344.207 98.0998 343.241 96.4928 341.301 96.7509C335.416 97.5338 329.446 96.4226 323.589 97.7298C321.73 98.1448 321.131 98.8016 321.523 100.832C323.057 108.797 324.289 116.819 326.025 124.747C326.296 125.985 326.677 127.247 326.137 128.527C323.978 130.246 322.07 129.955 321.05 127.669C320.587 126.629 320.36 125.489 320.613 124.321C319.153 120.839 319.133 117.062 318.48 113.424C317.224 106.431 316.334 99.3737 315.172 92.363C314.823 90.2584 315.314 89.416 317.571 89.3469C326.771 89.0658 335.969 88.688 345.162 88.2352C347.479 88.1211 348.171 89.2061 348.479 91.2526C349.571 98.5109 350.783 105.751 351.953 112.997C352.185 114.434 352.43 115.869 353.143 117.305C353.803 114.61 354.441 111.909 355.129 109.221C355.94 106.05 357.749 103.883 361.063 103.011C364.775 102.033 368.433 100.852 372.115 99.7596C373.736 99.2028 374.469 100.13 374.992 101.457C377.487 107.779 379.549 114.074 378.157 121.128C377.136 126.3 380.073 128.537 385.162 127.031C392.466 124.87 397.556 120.803 398.054 112.502C398.207 109.96 399.096 107.483 400.176 105.151C400.833 103.732 401.722 102.433 403.666 103.319Z" fill="#A535C5"/>
<path d="M403.841 103.383C400.382 105.977 400.234 110.033 399.703 113.681C398.446 122.311 391.023 129.198 382.261 129.32C379.118 129.363 376.907 127.552 376.505 124.439C376.281 122.706 376.514 120.978 376.802 119.234C377.973 112.143 375.425 105.89 372.159 99.8267C374.484 97.297 374.546 92.8719 371.516 90.4103C367.62 87.2451 366.461 83.0259 365.514 78.593C364.88 75.6296 364.106 72.7368 363.053 69.8884C360.006 61.6491 364.215 54.4788 372.998 53.2405C377.738 52.5722 382.567 52.6615 387.291 53.6465C394.25 55.0976 398.707 59.4742 398.077 66.5823C396.997 78.7485 401.17 89.9787 402.791 101.646C402.895 102.396 403.285 102.928 403.841 103.383Z" fill="#0C0C0C"/>
<path d="M361.165 236.254C366.924 238.081 372.666 239.971 378.69 240.77C379.575 241.285 379.99 242.046 379.955 243.077C379.907 244.47 380.048 245.871 379.81 247.257C378.619 254.182 378.466 261.101 379.429 268.089C380.976 279.319 379.916 290.628 380.143 301.899C380.288 309.104 380.021 316.314 380.795 323.505C380.975 325.183 381.168 327.056 379.507 328.326C377.359 330.152 374.993 331.732 373.049 333.815C372.232 334.69 371.227 335.154 369.994 334.977C369.097 333.574 369.323 331.99 369.615 330.561C370.837 324.577 370.305 318.592 368.571 312.943C361.643 290.373 360.548 267.229 361.031 243.883C361.083 241.34 361.12 238.797 361.165 236.254Z" fill="#FFA89C"/>
<path d="M383.214 241.066C388.067 241.281 392.834 240.619 397.574 239.659C398.932 240.28 398.473 241.409 398.25 242.378C396.422 250.328 396.568 258.235 398.071 266.254C399.997 276.519 397.933 286.657 396.245 296.746C395.075 303.741 393.592 310.684 392.215 317.644C391.482 321.345 392.139 325.079 391.869 328.789C390.67 332.403 387.232 333.286 384.387 334.817C383.441 335.326 382.348 334.823 381.916 333.598C381.917 327.785 381.836 321.977 381.84 316.169C381.848 303.116 381.708 290.061 381.893 277.011C382.004 269.176 381.542 261.428 380.099 253.736C379.467 250.365 379.94 246.991 380.03 243.623C380.082 241.685 381.071 240.561 383.214 241.066Z" fill="#FFA89C"/>
<path d="M382.875 334.258C386.197 332.906 388.49 329.871 391.946 328.737C394.894 330.472 395.302 333.407 395.2 336.337C395.044 340.851 394.376 345.343 394.836 350.544C392.112 348.05 393.994 344.971 392.488 342.829C390.793 343.503 390.775 344.999 390.515 346.31C389.789 349.962 389.217 353.639 389.14 357.371C389.113 358.709 388.819 359.576 387.174 359.53C385.432 359.481 385.454 358.462 385.474 357.193C385.547 352.313 385.608 347.431 385.562 342.55C385.55 341.349 385.666 339.704 383.984 339.459C382.433 339.234 382.24 340.963 381.394 341.742C376.446 346.303 376.758 352.301 376.43 358.161C376.388 358.902 376.291 359.61 375.308 359.527C374.118 359.427 374.222 358.48 374.274 357.699C374.536 353.756 374.858 349.817 375.125 345.875C375.185 344.994 375.645 344.065 374.839 343.079C372.767 343.736 372.173 346.232 370.192 346.979C365.913 348.988 357.081 347.828 354.058 344.86C352.682 343.415 353.875 343.162 354.981 342.979C356.687 342.699 358.43 342.202 360.119 342.326C365.568 342.724 368.29 339.649 370.008 335.097C372.434 332.35 374.769 329.497 378.227 327.923C382.077 327.443 382.45 327.768 382.476 331.338C382.483 332.313 382.107 333.374 382.875 334.258Z" fill="#1B1425"/>
<path d="M399.596 156.38C398.272 152.429 399.47 149.547 403.124 147.775C403.605 147.541 403.987 147.101 404.415 146.756C402.412 144.185 402.561 141.65 404.541 139.147C406.03 128.956 410.748 119.278 409.334 108.619C409.187 107.512 409.117 106.234 410.562 105.708C413.307 108.616 413.669 112.417 414.002 116.052C415.168 128.785 415.361 141.543 414.111 154.293C413.533 160.181 411.232 161.611 405.768 159.508C403.607 158.676 401.495 157.738 399.596 156.38Z" fill="#A535C5"/>
<path d="M320.709 124.326C321.434 125.591 322.016 126.977 322.936 128.077C323.532 128.79 324.365 130.439 325.664 128.656C326.543 127.817 327.378 127.791 328.158 128.791C332.156 130.056 335.081 132.86 337.967 135.719C338.585 136.344 338.608 137.005 338.083 137.698C337.359 139.37 336.636 141.043 335.913 142.716C331.295 140.595 326.404 138.788 323.017 134.804C320.519 131.864 318.675 128.437 320.709 124.326Z" fill="#FFA89C"/>
<path d="M328.108 128.866C327.28 128.821 326.452 128.775 325.624 128.73C323.207 121.998 322.64 114.871 321.273 107.916C320.666 104.823 320.283 101.686 319.703 98.5873C319.398 96.9584 319.811 96.2713 321.573 96.1949C328.771 95.8827 335.964 95.476 343.156 95.0482C344.732 94.9546 345.4 95.4981 345.671 97.1203C347.168 106.105 348.721 115.081 350.387 124.036C350.818 126.353 349.854 126.786 347.883 126.953C341.285 127.512 334.699 128.217 328.108 128.866Z" fill="#E9FCFD"/>
<path d="M343.904 110.842C338.082 112.032 332.177 112.579 326.195 112.145C332.026 110.982 337.907 110.424 343.904 110.842Z" fill="#8ECDD6"/>
<defs>
<linearGradient id="paint0_linear_1269_1096" x1="34.0745" y1="217.512" x2="89.7699" y2="217.512" gradientUnits="userSpaceOnUse">
<stop stop-color="#F57A00"/>
<stop offset="1" stop-color="#7103A4"/>
</linearGradient>
<linearGradient id="paint1_linear_1269_1096" x1="45.0828" y1="179.853" x2="79.2997" y2="179.853" gradientUnits="userSpaceOnUse">
<stop stop-color="#F57A00"/>
<stop offset="1" stop-color="#7103A4"/>
</linearGradient>
<linearGradient id="paint2_linear_1269_1096" x1="34.0745" y1="170.241" x2="61.3025" y2="170.241" gradientUnits="userSpaceOnUse">
<stop stop-color="#F57A00"/>
<stop offset="1" stop-color="#7103A4"/>
</linearGradient>
<linearGradient id="paint3_linear_1269_1096" x1="44.3069" y1="220.441" x2="89.7699" y2="220.441" gradientUnits="userSpaceOnUse">
<stop stop-color="#F57A00"/>
<stop offset="1" stop-color="#7103A4"/>
</linearGradient>
<linearGradient id="paint4_linear_1269_1096" x1="273.212" y1="275.358" x2="328.395" y2="275.358" gradientUnits="userSpaceOnUse">
<stop stop-color="#F57A00"/>
<stop offset="1" stop-color="#7103A4"/>
</linearGradient>
<linearGradient id="paint5_linear_1269_1096" x1="34.1353" y1="274.647" x2="89.6109" y2="274.647" gradientUnits="userSpaceOnUse">
<stop stop-color="#F57A00"/>
<stop offset="1" stop-color="#7103A4"/>
</linearGradient>
<linearGradient id="paint6_linear_1269_1096" x1="275.402" y1="168.82" x2="325.148" y2="168.82" gradientUnits="userSpaceOnUse">
<stop stop-color="#F57A00"/>
<stop offset="1" stop-color="#7103A4"/>
</linearGradient>
<linearGradient id="paint7_linear_1269_1096" x1="272.878" y1="175.43" x2="329.525" y2="175.43" gradientUnits="userSpaceOnUse">
<stop stop-color="#F57A00"/>
<stop offset="1" stop-color="#7103A4"/>
</linearGradient>
<linearGradient id="paint8_linear_1269_1096" x1="273.187" y1="179.49" x2="329.171" y2="179.49" gradientUnits="userSpaceOnUse">
<stop stop-color="#F57A00"/>
<stop offset="1" stop-color="#7103A4"/>
</linearGradient>
<linearGradient id="paint9_linear_1269_1096" x1="302.675" y1="175.266" x2="329.525" y2="175.266" gradientUnits="userSpaceOnUse">
<stop stop-color="#F57A00"/>
<stop offset="1" stop-color="#7103A4"/>
</linearGradient>
<linearGradient id="paint10_linear_1269_1096" x1="74.6155" y1="140.81" x2="328.737" y2="140.81" gradientUnits="userSpaceOnUse">
<stop stop-color="#F57A00"/>
<stop offset="1" stop-color="#7103A4"/>
</linearGradient>
<linearGradient id="paint11_linear_1269_1096" x1="118.204" y1="235.278" x2="254.502" y2="235.278" gradientUnits="userSpaceOnUse">
<stop stop-color="#F57A00"/>
<stop offset="1" stop-color="#7103A4"/>
</linearGradient>
<linearGradient id="paint12_linear_1269_1096" x1="117.584" y1="93.6965" x2="248.644" y2="93.6965" gradientUnits="userSpaceOnUse">
<stop stop-color="#F57A00"/>
<stop offset="1" stop-color="#7103A4"/>
</linearGradient>
<linearGradient id="paint13_linear_1269_1096" x1="117.636" y1="188.221" x2="248.435" y2="188.221" gradientUnits="userSpaceOnUse">
<stop stop-color="#F57A00"/>
<stop offset="1" stop-color="#7103A4"/>
</linearGradient>
<linearGradient id="paint14_linear_1269_1096" x1="117.502" y1="141.416" x2="248.388" y2="141.416" gradientUnits="userSpaceOnUse">
<stop stop-color="#F57A00"/>
<stop offset="1" stop-color="#7103A4"/>
</linearGradient>
<linearGradient id="paint15_linear_1269_1096" x1="117.893" y1="45.6545" x2="248.136" y2="45.6545" gradientUnits="userSpaceOnUse">
<stop stop-color="#F57A00"/>
<stop offset="1" stop-color="#7103A4"/>
</linearGradient>
<linearGradient id="paint16_linear_1269_1096" x1="252.195" y1="217.182" x2="274.06" y2="217.182" gradientUnits="userSpaceOnUse">
<stop stop-color="#F57A00"/>
<stop offset="1" stop-color="#7103A4"/>
</linearGradient>
<linearGradient id="paint17_linear_1269_1096" x1="99.5635" y1="428.436" x2="39.4058" y2="421.544" gradientUnits="userSpaceOnUse">
<stop stop-color="#F37803"/>
<stop offset="1" stop-color="#5A310A"/>
</linearGradient>
<linearGradient id="paint18_linear_1269_1096" x1="302.489" y1="226.524" x2="328.738" y2="226.524" gradientUnits="userSpaceOnUse">
<stop stop-color="#F57A00"/>
<stop offset="1" stop-color="#7103A4"/>
</linearGradient>
<linearGradient id="paint19_linear_1269_1096" x1="273.26" y1="226.338" x2="302.917" y2="226.338" gradientUnits="userSpaceOnUse">
<stop stop-color="#F57A00"/>
<stop offset="1" stop-color="#7103A4"/>
</linearGradient>
<linearGradient id="paint20_linear_1269_1096" x1="197.321" y1="20.9847" x2="248.224" y2="20.9847" gradientUnits="userSpaceOnUse">
<stop stop-color="#F57A00"/>
<stop offset="1" stop-color="#7103A4"/>
</linearGradient>
<linearGradient id="paint21_linear_1269_1096" x1="135.763" y1="22.2821" x2="140.859" y2="22.2821" gradientUnits="userSpaceOnUse">
<stop stop-color="#F57A00"/>
<stop offset="1" stop-color="#7103A4"/>
</linearGradient>
<linearGradient id="paint22_linear_1269_1096" x1="145.574" y1="22.2753" x2="150.607" y2="22.2753" gradientUnits="userSpaceOnUse">
<stop stop-color="#F57A00"/>
<stop offset="1" stop-color="#7103A4"/>
</linearGradient>
<linearGradient id="paint23_linear_1269_1096" x1="126.284" y1="22.2646" x2="131.357" y2="22.2646" gradientUnits="userSpaceOnUse">
<stop stop-color="#F57A00"/>
<stop offset="1" stop-color="#7103A4"/>
</linearGradient>
<linearGradient id="paint24_linear_1269_1096" x1="197.584" y1="164.239" x2="248.868" y2="164.239" gradientUnits="userSpaceOnUse">
<stop stop-color="#F57A00"/>
<stop offset="1" stop-color="#7103A4"/>
</linearGradient>
<linearGradient id="paint25_linear_1269_1096" x1="145.439" y1="166.162" x2="150.617" y2="166.162" gradientUnits="userSpaceOnUse">
<stop stop-color="#F57A00"/>
<stop offset="1" stop-color="#7103A4"/>
</linearGradient>
<linearGradient id="paint26_linear_1269_1096" x1="127.207" y1="166.181" x2="132.483" y2="166.181" gradientUnits="userSpaceOnUse">
<stop stop-color="#F57A00"/>
<stop offset="1" stop-color="#7103A4"/>
</linearGradient>
<linearGradient id="paint27_linear_1269_1096" x1="136.061" y1="166.176" x2="141.525" y2="166.176" gradientUnits="userSpaceOnUse">
<stop stop-color="#F57A00"/>
<stop offset="1" stop-color="#7103A4"/>
</linearGradient>
<linearGradient id="paint28_linear_1269_1096" x1="155.541" y1="166.152" x2="161.083" y2="166.152" gradientUnits="userSpaceOnUse">
<stop stop-color="#F57A00"/>
<stop offset="1" stop-color="#7103A4"/>
</linearGradient>
<linearGradient id="paint29_linear_1269_1096" x1="167.042" y1="165.575" x2="175.337" y2="165.575" gradientUnits="userSpaceOnUse">
<stop stop-color="#F57A00"/>
<stop offset="1" stop-color="#7103A4"/>
</linearGradient>
<linearGradient id="paint30_linear_1269_1096" x1="197.763" y1="211.293" x2="248.857" y2="211.293" gradientUnits="userSpaceOnUse">
<stop stop-color="#F57A00"/>
<stop offset="1" stop-color="#7103A4"/>
</linearGradient>
<linearGradient id="paint31_linear_1269_1096" x1="127.282" y1="212.724" x2="132.286" y2="212.724" gradientUnits="userSpaceOnUse">
<stop stop-color="#F57A00"/>
<stop offset="1" stop-color="#7103A4"/>
</linearGradient>
<linearGradient id="paint32_linear_1269_1096" x1="145.277" y1="212.705" x2="150.672" y2="212.705" gradientUnits="userSpaceOnUse">
<stop stop-color="#F57A00"/>
<stop offset="1" stop-color="#7103A4"/>
</linearGradient>
<linearGradient id="paint33_linear_1269_1096" x1="136.231" y1="212.76" x2="141.543" y2="212.76" gradientUnits="userSpaceOnUse">
<stop stop-color="#F57A00"/>
<stop offset="1" stop-color="#7103A4"/>
</linearGradient>
<linearGradient id="paint34_linear_1269_1096" x1="155.494" y1="212.681" x2="161.074" y2="212.681" gradientUnits="userSpaceOnUse">
<stop stop-color="#F57A00"/>
<stop offset="1" stop-color="#7103A4"/>
</linearGradient>
<linearGradient id="paint35_linear_1269_1096" x1="166.387" y1="212.475" x2="175.022" y2="212.475" gradientUnits="userSpaceOnUse">
<stop stop-color="#F57A00"/>
<stop offset="1" stop-color="#7103A4"/>
</linearGradient>
<linearGradient id="paint36_linear_1269_1096" x1="197.304" y1="70.3015" x2="248.209" y2="70.3015" gradientUnits="userSpaceOnUse">
<stop stop-color="#F57A00"/>
<stop offset="1" stop-color="#7103A4"/>
</linearGradient>
<linearGradient id="paint37_linear_1269_1096" x1="126.507" y1="70.3733" x2="131.524" y2="70.3733" gradientUnits="userSpaceOnUse">
<stop stop-color="#F57A00"/>
<stop offset="1" stop-color="#7103A4"/>
</linearGradient>
<linearGradient id="paint38_linear_1269_1096" x1="135.7" y1="70.4043" x2="140.893" y2="70.4043" gradientUnits="userSpaceOnUse">
<stop stop-color="#F57A00"/>
<stop offset="1" stop-color="#7103A4"/>
</linearGradient>
<linearGradient id="paint39_linear_1269_1096" x1="145.306" y1="70.341" x2="150.632" y2="70.341" gradientUnits="userSpaceOnUse">
<stop stop-color="#F57A00"/>
<stop offset="1" stop-color="#7103A4"/>
</linearGradient>
<linearGradient id="paint40_linear_1269_1096" x1="154.99" y1="70.4882" x2="161.308" y2="70.4882" gradientUnits="userSpaceOnUse">
<stop stop-color="#F57A00"/>
<stop offset="1" stop-color="#7103A4"/>
</linearGradient>
<linearGradient id="paint41_linear_1269_1096" x1="166.682" y1="70.5194" x2="175.015" y2="70.5194" gradientUnits="userSpaceOnUse">
<stop stop-color="#F57A00"/>
<stop offset="1" stop-color="#7103A4"/>
</linearGradient>
<linearGradient id="paint42_linear_1269_1096" x1="197.343" y1="117.668" x2="248.664" y2="117.668" gradientUnits="userSpaceOnUse">
<stop stop-color="#F57A00"/>
<stop offset="1" stop-color="#7103A4"/>
</linearGradient>
<linearGradient id="paint43_linear_1269_1096" x1="127.492" y1="117.813" x2="132.472" y2="117.813" gradientUnits="userSpaceOnUse">
<stop stop-color="#F57A00"/>
<stop offset="1" stop-color="#7103A4"/>
</linearGradient>
<linearGradient id="paint44_linear_1269_1096" x1="136.348" y1="117.813" x2="141.493" y2="117.813" gradientUnits="userSpaceOnUse">
<stop stop-color="#F57A00"/>
<stop offset="1" stop-color="#7103A4"/>
</linearGradient>
<linearGradient id="paint45_linear_1269_1096" x1="145.446" y1="117.846" x2="150.712" y2="117.846" gradientUnits="userSpaceOnUse">
<stop stop-color="#F57A00"/>
<stop offset="1" stop-color="#7103A4"/>
</linearGradient>
<linearGradient id="paint46_linear_1269_1096" x1="155.532" y1="117.953" x2="161.03" y2="117.953" gradientUnits="userSpaceOnUse">
<stop stop-color="#F57A00"/>
<stop offset="1" stop-color="#7103A4"/>
</linearGradient>
<linearGradient id="paint47_linear_1269_1096" x1="166.58" y1="117.861" x2="175.384" y2="117.861" gradientUnits="userSpaceOnUse">
<stop stop-color="#F57A00"/>
<stop offset="1" stop-color="#7103A4"/>
</linearGradient>
<linearGradient id="paint48_linear_1269_1096" x1="197.692" y1="258.338" x2="249.089" y2="258.338" gradientUnits="userSpaceOnUse">
<stop stop-color="#F57A00"/>
<stop offset="1" stop-color="#7103A4"/>
</linearGradient>
<linearGradient id="paint49_linear_1269_1096" x1="127.461" y1="258.505" x2="132.432" y2="258.505" gradientUnits="userSpaceOnUse">
<stop stop-color="#F57A00"/>
<stop offset="1" stop-color="#7103A4"/>
</linearGradient>
<linearGradient id="paint50_linear_1269_1096" x1="136.298" y1="258.412" x2="141.311" y2="258.412" gradientUnits="userSpaceOnUse">
<stop stop-color="#F57A00"/>
<stop offset="1" stop-color="#7103A4"/>
</linearGradient>
<linearGradient id="paint51_linear_1269_1096" x1="145.504" y1="258.371" x2="150.575" y2="258.371" gradientUnits="userSpaceOnUse">
<stop stop-color="#F57A00"/>
<stop offset="1" stop-color="#7103A4"/>
</linearGradient>
<linearGradient id="paint52_linear_1269_1096" x1="155.659" y1="258.31" x2="160.886" y2="258.31" gradientUnits="userSpaceOnUse">
<stop stop-color="#F57A00"/>
<stop offset="1" stop-color="#7103A4"/>
</linearGradient>
<linearGradient id="paint53_linear_1269_1096" x1="166.836" y1="258.441" x2="174.78" y2="258.441" gradientUnits="userSpaceOnUse">
<stop stop-color="#F57A00"/>
<stop offset="1" stop-color="#7103A4"/>
</linearGradient>
</defs>
</svg>
