<svg width="415" height="298" viewBox="0 0 415 298" fill="none" xmlns="http://www.w3.org/2000/svg">
<path fill-rule="evenodd" clip-rule="evenodd" d="M106.885 35.8076L326.574 53.346C331.693 53.7555 335.861 58.2561 335.861 63.3752V216.817C335.861 221.935 328.093 229.017 322.982 228.528L106.885 207.822C101.774 207.333 97.7396 202.91 97.598 197.794L93.3975 46.4829C93.2549 41.3668 101.768 35.3981 106.885 35.8076Z" fill="#071023"/>
<path fill-rule="evenodd" clip-rule="evenodd" d="M101.574 39.8234L321.263 57.3619C326.381 57.7713 330.55 62.2722 330.55 67.3911V220.833C330.55 225.951 326.38 229.786 321.263 229.378L101.574 211.838C96.4546 211.43 92.2864 206.929 92.2864 201.81V48.3682C92.2866 43.2495 96.4546 39.414 101.574 39.8234Z" fill="url(#paint0_linear_1295_1333)"/>
<path fill-rule="evenodd" clip-rule="evenodd" d="M102.861 50.5166V201.351L319.975 218.685V67.8504L102.861 50.5166Z" fill="#150A24"/>
<path fill-rule="evenodd" clip-rule="evenodd" d="M259.154 92.4407L270.772 113.419L259.154 132.688L235.917 130.981L224.299 110.005L235.917 90.7344L259.154 92.4407Z" fill="url(#paint1_linear_1295_1333)"/>
<path fill-rule="evenodd" clip-rule="evenodd" d="M258.837 134.878L270.456 155.856L258.837 175.125L235.601 173.418L223.983 152.44L235.601 133.171L258.837 134.878Z" fill="url(#paint2_linear_1295_1333)"/>
<path fill-rule="evenodd" clip-rule="evenodd" d="M149.382 105.853L161 126.829L149.382 146.1L126.145 144.392L114.527 123.415L126.145 104.145L149.382 105.853Z" fill="white"/>
<path fill-rule="evenodd" clip-rule="evenodd" d="M295.715 116.445L307.333 137.422L295.715 156.692L272.478 154.984L260.86 134.008L272.478 114.737L295.715 116.445Z" fill="url(#paint3_linear_1295_1333)"/>
<path fill-rule="evenodd" clip-rule="evenodd" d="M185.807 87.0228L197.425 108.001L185.807 127.27L162.57 125.564L150.952 104.587L162.57 85.3164L185.807 87.0228Z" fill="url(#paint4_linear_1295_1333)"/>
<path fill-rule="evenodd" clip-rule="evenodd" d="M222.063 68.6451L233.682 89.6219L222.063 108.892L198.827 107.185L187.208 86.208L198.827 66.9375L222.063 68.6451ZM221.129 70.1963L199.762 68.626L189.078 86.3451L199.762 105.634L221.129 107.203L231.811 89.4844L221.129 70.1963Z" fill="url(#paint5_linear_1295_1333)"/>
<path fill-rule="evenodd" clip-rule="evenodd" d="M186.014 129.679L197.632 150.656L186.014 169.927L162.777 168.219L151.159 147.242L162.777 127.972L186.014 129.679ZM185.079 131.229L163.712 129.661L153.028 147.38L163.712 166.669L185.079 168.238L195.762 150.519L185.079 131.229Z" fill="url(#paint6_linear_1295_1333)"/>
<path fill-rule="evenodd" clip-rule="evenodd" d="M222.431 110.772L234.049 131.75L222.431 151.019L199.195 149.313L187.576 128.335L199.195 109.066L222.431 110.772ZM221.497 112.324L200.129 110.753L189.447 128.472L200.129 147.762L221.497 149.332L232.179 131.613L221.497 112.324Z" fill="url(#paint7_linear_1295_1333)"/>
<path fill-rule="evenodd" clip-rule="evenodd" d="M223.057 153.633L234.676 174.612L223.057 193.881L199.821 192.173L188.202 171.196L199.821 151.927L223.057 153.633ZM222.123 155.185L200.755 153.615L190.073 171.334L200.755 190.623L222.123 192.192L232.805 174.474L222.123 155.185Z" fill="url(#paint8_linear_1295_1333)"/>
<path fill-rule="evenodd" clip-rule="evenodd" d="M284.097 122.676C276.908 122.149 271.059 127.568 271.059 134.757C271.059 141.947 276.908 148.225 284.097 148.753C291.287 149.283 297.136 143.862 297.136 136.673C297.136 129.483 291.287 123.204 284.097 122.676ZM284.097 149.829C276.314 149.257 269.983 142.461 269.983 134.679C269.983 126.896 276.314 121.029 284.097 121.6C291.88 122.171 298.212 128.97 298.212 136.752C298.212 144.535 291.88 150.402 284.097 149.829Z" fill="white"/>
<path fill-rule="evenodd" clip-rule="evenodd" d="M284.097 122.676C279.886 122.366 276.46 127.964 276.46 135.154C276.46 142.343 279.886 148.445 284.097 148.753C288.308 149.063 291.734 143.466 291.734 136.275C291.734 129.087 288.308 122.986 284.097 122.676ZM284.097 149.829C279.293 149.476 275.384 142.857 275.384 135.074C275.384 127.293 279.293 121.247 284.097 121.6C288.902 121.953 292.812 128.572 292.812 136.355C292.812 144.138 288.902 150.182 284.097 149.829Z" fill="white"/>
<path fill-rule="evenodd" clip-rule="evenodd" d="M284.097 122.676C283.441 122.628 281.904 126.951 281.904 135.553C281.904 144.156 283.441 148.704 284.097 148.753C284.753 148.801 286.291 144.479 286.291 135.875C286.291 127.274 284.753 122.723 284.097 122.676ZM284.097 149.829C281.511 149.639 280.828 140.356 280.828 135.474C280.828 130.592 281.511 121.41 284.097 121.6C286.683 121.79 287.365 131.073 287.365 135.955C287.365 140.837 286.683 150.019 284.097 149.829Z" fill="white"/>
<path fill-rule="evenodd" clip-rule="evenodd" d="M270.52 135.255L297.673 137.251V136.175L270.52 134.18V135.255Z" fill="white"/>
<path fill-rule="evenodd" clip-rule="evenodd" d="M284.097 131.284C279.657 130.959 275.468 129.454 272.895 127.262L273.556 126.46C275.947 128.499 279.888 129.9 284.097 130.208C288.354 130.522 292.319 129.682 294.704 127.963L295.372 128.855C292.804 130.707 288.59 131.614 284.097 131.284Z" fill="white"/>
<path fill-rule="evenodd" clip-rule="evenodd" d="M294.704 145.003C292.319 142.934 288.354 141.51 284.097 141.198C279.888 140.89 275.947 141.711 273.556 143.397L272.895 142.5C275.468 140.685 279.657 139.796 284.097 140.122C288.59 140.453 292.804 141.98 295.372 144.209L294.704 145.003Z" fill="white"/>
<path fill-rule="evenodd" clip-rule="evenodd" d="M284.343 126.753C281.152 126.519 277.807 125.235 277.595 123.239L278.663 123.202C278.769 124.183 281.127 125.441 284.343 125.677C287.555 125.913 289.872 125.033 290.02 124.064L291.084 124.302C290.826 125.991 287.992 127.021 284.343 126.753Z" fill="white"/>
<path fill-rule="evenodd" clip-rule="evenodd" d="M278.456 147.392L277.386 147.198C277.599 145.232 280.943 144.441 284.135 144.675C287.783 144.943 290.618 146.391 290.875 148.118L289.811 148.2C289.663 147.207 287.347 145.987 284.135 145.751C280.919 145.516 278.56 146.426 278.456 147.392Z" fill="white"/>
<path fill-rule="evenodd" clip-rule="evenodd" d="M243.417 111.103L249.487 116.752C249.572 116.831 249.628 116.936 249.643 117.049L250.564 123.403L254.101 119.165L254.829 113.774C254.843 113.679 254.886 113.591 254.953 113.525C256.781 111.727 257.948 109.621 258.514 107.089L252.238 101.249C249.783 102.022 247.794 103.365 246.166 105.349C246.105 105.422 246.023 105.471 245.929 105.493L240.66 106.659L236.756 110.557L243.11 110.97C243.223 110.977 243.332 111.025 243.417 111.103ZM249.957 124.852C249.873 124.774 249.815 124.669 249.799 124.555L248.747 117.29L242.943 111.89L235.68 111.419C235.494 111.405 235.325 111.283 235.249 111.108C235.175 110.933 235.209 110.736 235.335 110.609L240.065 105.887C240.123 105.831 240.194 105.791 240.275 105.773L245.522 104.611C247.299 102.488 249.476 101.069 252.17 100.274C252.328 100.228 252.506 100.273 252.634 100.393L259.33 106.621C259.458 106.741 259.517 106.915 259.483 107.079C258.915 109.85 257.688 112.153 255.733 114.112L255.007 119.481C254.995 119.563 254.962 119.639 254.911 119.7L250.681 124.768C250.665 124.801 250.645 124.829 250.62 124.856C250.452 125.04 250.152 125.023 249.96 124.856C249.96 124.855 249.958 124.854 249.957 124.852Z" fill="white"/>
<path fill-rule="evenodd" clip-rule="evenodd" d="M253.254 100.968L258.711 106.045C258.965 104.388 258.996 102.536 258.806 100.42C256.7 100.399 254.871 100.579 253.254 100.968ZM258.725 107.286L252.028 101.056C251.903 100.939 251.844 100.768 251.873 100.607C251.902 100.447 252.015 100.32 252.17 100.275C254.168 99.6848 256.47 99.4291 259.202 99.4936C259.45 99.499 259.664 99.6983 259.69 99.9461C259.973 102.69 259.905 105.022 259.484 107.08C259.45 107.239 259.334 107.364 259.178 107.406C259.023 107.447 258.85 107.402 258.725 107.286Z" fill="white"/>
<path fill-rule="evenodd" clip-rule="evenodd" d="M254.093 105.572C253.049 104.602 251.472 104.608 250.579 105.586C249.684 106.564 249.806 108.149 250.85 109.12C251.892 110.091 253.469 110.085 254.364 109.108C255.258 108.13 255.137 106.545 254.093 105.572ZM250.243 109.782C248.81 108.449 248.643 106.27 249.871 104.927C251.099 103.583 253.266 103.577 254.699 104.91C256.133 106.244 256.3 108.422 255.071 109.766C253.842 111.109 251.677 111.117 250.243 109.782Z" fill="white"/>
<path fill-rule="evenodd" clip-rule="evenodd" d="M245.279 110.748C245.083 110.566 245.062 110.27 245.229 110.087L246.398 108.809C246.565 108.625 246.86 108.625 247.055 108.806C247.25 108.988 247.273 109.284 247.106 109.467L245.936 110.745C245.769 110.929 245.474 110.93 245.279 110.748ZM246.704 112.073C246.899 112.255 247.193 112.254 247.361 112.071L248.53 110.792C248.697 110.609 248.675 110.314 248.48 110.133C248.285 109.951 247.99 109.952 247.823 110.134L246.654 111.413C246.485 111.596 246.508 111.891 246.704 112.073ZM248.128 113.398C247.933 113.217 247.91 112.922 248.077 112.739L249.247 111.461C249.414 111.277 249.708 111.276 249.905 111.458C250.099 111.64 250.122 111.936 249.954 112.118L248.786 113.397C248.617 113.58 248.324 113.58 248.128 113.398ZM249.553 114.725C249.749 114.907 250.042 114.905 250.209 114.722L251.379 113.444C251.546 113.261 251.524 112.965 251.328 112.783C251.133 112.601 250.839 112.603 250.671 112.786L249.502 114.064C249.335 114.247 249.358 114.543 249.553 114.725Z" fill="white"/>
<path fill-rule="evenodd" clip-rule="evenodd" d="M242.673 112.792L247.878 117.637L248.449 117.013L243.242 112.169L242.673 112.792ZM247.313 118.338L242.025 113.416C241.657 113.074 241.614 112.516 241.929 112.173L242.571 111.471C242.885 111.128 243.44 111.125 243.806 111.467L249.096 116.388C249.464 116.73 249.505 117.287 249.192 117.631L248.549 118.333C248.236 118.677 247.681 118.679 247.313 118.338Z" fill="white"/>
<path fill-rule="evenodd" clip-rule="evenodd" d="M240.66 106.66L236.756 110.557L242.694 110.944C242.904 109.276 243.572 107.57 244.724 105.76L240.66 106.66ZM235.373 111.283C235.321 111.235 235.279 111.175 235.249 111.108C235.175 110.933 235.209 110.736 235.336 110.61L240.065 105.888C240.122 105.831 240.195 105.791 240.274 105.773L245.665 104.58C245.855 104.538 246.059 104.622 246.174 104.79C246.29 104.957 246.293 105.173 246.182 105.327C244.585 107.545 243.734 109.567 243.579 111.506C243.559 111.746 243.36 111.918 243.119 111.902L235.681 111.417C235.566 111.411 235.457 111.361 235.373 111.283Z" fill="white"/>
<path fill-rule="evenodd" clip-rule="evenodd" d="M249.704 117.466L250.564 123.404L254.101 119.166L254.663 115.008C252.967 116.312 251.334 117.121 249.704 117.466ZM249.957 124.853C249.874 124.775 249.816 124.67 249.799 124.555L248.722 117.117C248.687 116.875 248.84 116.661 249.075 116.621C250.981 116.309 252.91 115.291 254.972 113.508C255.116 113.383 255.329 113.369 255.504 113.471C255.679 113.574 255.779 113.773 255.753 113.966L255.007 119.482C254.995 119.564 254.963 119.639 254.912 119.701L250.626 124.836C250.512 124.974 250.321 125.024 250.14 124.963C250.072 124.94 250.01 124.901 249.957 124.853Z" fill="white"/>
<path fill-rule="evenodd" clip-rule="evenodd" d="M238.643 117.499C238.448 117.318 238.425 117.023 238.592 116.838L240.464 114.792C240.631 114.609 240.926 114.608 241.12 114.79C241.317 114.972 241.338 115.268 241.171 115.451L239.299 117.497C239.132 117.68 238.839 117.681 238.643 117.499ZM243.551 122.066C243.357 121.885 243.333 121.589 243.501 121.406L245.372 119.359C245.54 119.176 245.834 119.176 246.029 119.358C246.224 119.54 246.247 119.835 246.08 120.018L244.208 122.064C244.041 122.247 243.746 122.248 243.551 122.066ZM240.296 120.66C240.491 120.842 240.784 120.841 240.952 120.658L243.626 117.734C243.793 117.552 243.77 117.256 243.575 117.074C243.38 116.892 243.085 116.894 242.918 117.077L240.245 119.999C240.078 120.182 240.1 120.478 240.296 120.66Z" fill="white"/>
<path fill-rule="evenodd" clip-rule="evenodd" d="M124.177 123.004C124.444 119.652 125.902 116.729 128.126 114.638C130.348 112.545 133.335 111.286 136.659 111.259L136.136 113.803C133.707 113.985 131.53 114.98 129.874 116.538C128.216 118.099 127.078 120.223 126.724 122.662L124.177 123.004ZM136.659 138.824C133.335 138.309 130.348 136.61 128.126 134.192C125.902 131.774 124.444 128.636 124.177 125.246L126.724 125.962C127.078 128.454 128.216 130.744 129.874 132.548C131.53 134.35 133.707 135.664 136.136 136.203L136.659 138.824ZM151.35 127.242C151.084 130.594 149.624 133.516 147.402 135.609C145.179 137.699 142.191 138.96 138.869 138.987L139.39 136.441C141.821 136.26 143.997 135.266 145.653 133.706C147.31 132.148 148.449 130.023 148.803 127.584L151.35 127.242ZM138.869 111.422C142.191 111.936 145.179 113.636 147.402 116.053C149.625 118.472 151.082 121.61 151.35 124.999L148.803 124.283C148.449 121.793 147.31 119.501 145.653 117.698C143.997 115.896 141.821 114.581 139.39 114.043L138.869 111.422Z" fill="url(#paint9_linear_1295_1333)"/>
<path fill-rule="evenodd" clip-rule="evenodd" d="M137.763 122.78C139.039 122.874 140.073 123.999 140.073 125.293C140.073 126.586 139.039 127.558 137.763 127.465C136.488 127.371 135.455 126.247 135.455 124.952C135.455 123.659 136.488 122.687 137.763 122.78ZM137.763 123.995C137.15 123.95 136.652 124.418 136.652 125.041C136.652 125.663 137.15 126.205 137.763 126.249C138.377 126.295 138.876 125.826 138.876 125.204C138.876 124.582 138.377 124.04 137.763 123.995ZM139.828 120.734L137.763 110.367L135.699 120.431L131.684 118.508L133.289 122.699L123.219 124.054L133.289 126.888L131.684 130.843L135.699 129.51L137.763 139.878L139.828 129.814L143.844 131.737L142.239 127.545L152.31 126.192L142.239 123.357L143.844 119.403L139.828 120.734Z" fill="url(#paint10_linear_1295_1333)"/>
<path fill-rule="evenodd" clip-rule="evenodd" d="M203.953 84.8799C202.847 85.6355 201.856 86.4234 201 87.2205C201.856 88.1431 202.847 89.0777 203.953 89.9947C203.895 89.1585 203.865 88.3019 203.865 87.432C203.865 86.5607 203.895 85.7082 203.953 84.8799ZM215.168 80.0828C213.994 80.3078 212.751 80.6445 211.474 81.0902C212.224 81.5104 212.979 81.9682 213.733 82.4584L213.735 82.4596L213.753 82.4705L213.758 82.4746C214.504 82.9607 215.221 83.4617 215.906 83.9721C215.734 82.585 215.483 81.2762 215.168 80.0828ZM216.938 90.9497C218.044 90.1941 219.035 89.4062 219.89 88.6091C219.033 87.6865 218.043 86.7519 216.938 85.8349C216.996 86.6711 217.025 87.5277 217.025 88.399C217.025 89.2691 216.996 90.1216 216.938 90.9497ZM210.444 94.3595C209.504 93.8546 208.549 93.2903 207.594 92.6694L207.595 92.6679H207.594L207.589 92.6652L207.584 92.6612C206.625 92.0376 205.716 91.3884 204.866 90.7271C204.772 89.6835 204.723 88.6019 204.723 87.4951C204.723 86.3867 204.772 85.3121 204.866 84.2803C205.714 83.7457 206.619 83.2326 207.576 82.7504V82.7516L207.578 82.7504L207.585 82.7463C208.543 82.2629 209.501 81.8373 210.445 81.4697C211.383 81.9719 212.332 82.5336 213.284 83.1516H213.283L213.284 83.1529L213.307 83.1676C214.266 83.7912 215.174 84.4404 216.025 85.1017C216.118 86.1453 216.168 87.2269 216.168 88.3351C216.168 89.4421 216.118 90.5167 216.025 91.547C215.175 92.0831 214.266 92.5989 213.307 93.0823C212.348 93.5651 211.389 93.9919 210.444 94.3595ZM205.722 95.7481C206.895 95.5218 208.138 95.1852 209.415 94.7394C208.666 94.3194 207.912 93.8628 207.158 93.3726L207.155 93.37L207.153 93.3685L207.147 93.3659L207.145 93.3646H207.146C206.395 92.8757 205.674 92.372 204.985 91.8577C205.156 93.246 205.406 94.5536 205.722 95.7481ZM210.445 95.2983C211.997 96.1089 213.51 96.762 214.93 97.2442C214.766 97.7559 214.589 98.238 214.399 98.6878C213.354 101.17 211.953 102.649 210.445 102.538C208.937 102.427 207.536 100.742 206.491 98.1073C206.301 97.6292 206.125 97.1217 205.961 96.5856C207.38 96.311 208.894 95.8815 210.445 95.2983ZM215.906 92.6601C215.214 93.0749 214.489 93.4735 213.735 93.8546C212.979 94.2345 212.224 94.5806 211.475 94.8917C212.752 95.5247 213.994 96.0444 215.168 96.4417C215.485 95.2942 215.734 94.0231 215.906 92.6601ZM204.984 83.1709C205.677 82.7561 206.402 82.3561 207.157 81.9762L207.163 81.9721L207.166 81.9695V81.9709C207.918 81.5924 208.67 81.249 209.416 80.9393C208.14 80.3049 206.895 79.7865 205.722 79.3879C205.406 80.5367 205.156 81.808 204.984 83.1709ZM200.409 86.5607C200.038 86.131 199.698 85.7056 199.391 85.2867C197.697 82.9771 197.026 80.9219 197.78 79.6721V79.6709C198.533 78.4225 200.605 78.153 203.345 78.728C203.842 78.8332 204.359 78.9651 204.894 79.1239C204.51 80.5151 204.222 82.076 204.049 83.7553C202.671 84.6484 201.446 85.5978 200.409 86.5607ZM215.997 79.9401C216.531 79.8594 217.05 79.8028 217.545 79.7717C220.286 79.5994 222.357 80.1717 223.11 81.532L223.113 81.5346C223.864 82.8949 223.192 84.8502 221.499 86.9107C221.192 87.2836 220.853 87.6609 220.481 88.0353C219.444 86.9189 218.219 85.789 216.841 84.6926C216.668 82.9891 216.38 81.3865 215.997 79.9401ZM214.41 77.7516C214.596 78.2202 214.77 78.7198 214.93 79.2438C213.51 79.5186 211.997 79.9496 210.445 80.5328C208.894 79.7207 207.38 79.0676 205.961 78.5854C206.125 78.075 206.301 77.5913 206.491 77.1415C207.536 74.6596 208.937 73.1806 210.445 73.2913C211.494 73.3681 212.491 74.2071 213.353 75.5971C213.163 75.803 213.05 76.0819 213.05 76.3944C213.05 77.0905 213.612 77.6967 214.309 77.7479C214.344 77.7504 214.378 77.7516 214.41 77.7516ZM199.364 88.9511L199.391 88.9187C199.698 88.5458 200.038 88.1699 200.409 87.7943C201.446 88.9107 202.672 90.0406 204.049 91.1368C204.222 92.8405 204.51 94.4429 204.894 95.8907C204.359 95.9714 203.842 96.0268 203.345 96.0577C200.606 96.2315 198.533 95.6577 197.78 94.2962H197.779C197.263 93.3642 197.417 92.1536 198.108 90.8189C198.181 90.8378 198.255 90.8499 198.33 90.8552C199.026 90.9064 199.59 90.3839 199.59 89.6876C199.59 89.4197 199.507 89.1652 199.364 88.9511ZM219.39 96.5333C218.864 96.4944 218.413 96.7852 218.224 97.2296C218.003 97.1932 217.777 97.1501 217.545 97.1016C217.05 96.9979 216.531 96.8645 215.996 96.7057C216.38 95.3159 216.668 93.755 216.841 92.0769C218.218 91.1827 219.444 90.2333 220.481 89.2689C220.852 89.6984 221.192 90.124 221.499 90.5429C223.193 92.8525 223.864 94.9077 223.11 96.1575H223.111L223.11 96.1602C222.667 96.894 221.768 97.2887 220.546 97.3735C220.35 96.9145 219.907 96.571 219.39 96.5333ZM210.445 72.4333C211.807 72.5343 213.057 73.5538 214.091 75.2292C214.162 75.2225 214.235 75.2212 214.309 75.2266C215.005 75.2778 215.569 75.8837 215.569 76.5801C215.569 76.9342 215.424 77.244 215.188 77.4555L215.191 77.4596C215.394 77.9754 215.584 78.5235 215.759 79.1C216.337 79.011 216.896 78.9491 217.432 78.9155C220.484 78.7244 222.847 79.4367 223.815 81.1014L223.82 81.1041L223.85 81.1621C224.796 82.867 224.086 85.159 222.176 87.4836C221.845 87.8863 221.476 88.2916 221.075 88.6958C221.476 89.1603 221.845 89.6195 222.176 90.0708C224.086 92.6782 224.796 95.0739 223.85 96.6415L223.821 96.6899L223.815 96.6952C223.22 97.6325 222.093 98.1309 220.603 98.2251C220.454 98.7436 219.966 99.0967 219.39 99.0546C218.824 99.0128 218.346 98.6061 218.186 98.0809C217.94 98.0419 217.688 97.9948 217.432 97.9407C216.896 97.829 216.337 97.685 215.759 97.5112C215.584 98.0632 215.394 98.5831 215.191 99.068C214.008 101.87 212.335 103.535 210.445 103.397C208.555 103.258 206.88 101.347 205.701 98.3704C205.496 97.8559 205.306 97.3077 205.131 96.73C204.554 96.819 203.996 96.8809 203.459 96.9145C200.369 97.1098 197.984 96.3757 197.04 94.6708V94.6694C196.368 93.456 196.532 91.9476 197.369 90.3411C197.182 90.1066 197.069 89.8146 197.069 89.5035C197.069 88.8072 197.635 88.2847 198.33 88.3359C198.447 88.3441 198.56 88.3683 198.666 88.406L198.715 88.3468C199.045 87.9441 199.412 87.5388 199.815 87.1347C199.412 86.6713 199.045 86.2109 198.715 85.7597C196.802 83.1537 196.094 80.758 197.039 79.1903C197.986 77.6227 200.37 77.2401 203.459 77.8893C203.994 78.0024 204.553 78.145 205.131 78.3188C205.306 77.768 205.496 77.2469 205.7 76.762C206.88 73.9593 208.556 72.2948 210.445 72.4333Z" fill="white"/>
<path fill-rule="evenodd" clip-rule="evenodd" d="M210.445 90.8985C212.088 91.0196 213.429 89.778 213.429 88.1335C213.429 86.4905 212.088 85.0521 210.445 84.931C208.802 84.8097 207.462 86.0528 207.462 87.6958C207.462 89.3389 208.802 90.7772 210.445 90.8985Z" fill="white"/>
<path fill-rule="evenodd" clip-rule="evenodd" d="M236.166 146.994C235.982 146.981 235.831 147.119 235.831 147.304V165.932C235.831 166.116 235.982 166.277 236.166 166.29L250.267 167.327C250.45 167.341 250.601 167.201 250.601 167.018V152.509L246.146 147.727L236.166 146.994ZM250.267 168.16L236.166 167.122C235.522 167.075 234.999 166.514 234.999 165.871V147.242C234.999 146.6 235.523 146.115 236.166 146.162L246.318 146.908C246.428 146.916 246.534 146.967 246.612 147.051L251.31 152.096C251.39 152.179 251.433 152.288 251.433 152.399V167.078C251.433 167.72 250.909 168.207 250.267 168.16Z" fill="white"/>
<path fill-rule="evenodd" clip-rule="evenodd" d="M246.734 148.359V151.302C246.734 151.487 246.884 151.649 247.069 151.662L250.012 151.878L246.734 148.359ZM251.017 152.784L247.068 152.494C246.424 152.448 245.902 151.884 245.902 151.242V147.293C245.902 147.125 246.003 146.981 246.158 146.928C246.313 146.875 246.493 146.923 246.612 147.051L251.311 152.096C251.429 152.224 251.465 152.406 251.401 152.555C251.336 152.706 251.185 152.796 251.017 152.784Z" fill="white"/>
<path fill-rule="evenodd" clip-rule="evenodd" d="M237.76 154.836C237.529 154.82 237.344 154.621 237.344 154.39C237.344 154.16 237.529 153.988 237.76 154.005L248.674 154.806C248.903 154.823 249.09 155.023 249.09 155.252C249.09 155.482 248.903 155.655 248.674 155.639L237.76 154.836Z" fill="white"/>
<path fill-rule="evenodd" clip-rule="evenodd" d="M237.76 152.09C237.529 152.074 237.344 151.873 237.344 151.644C237.344 151.414 237.529 151.241 237.76 151.259L242.713 151.623C242.942 151.639 243.129 151.839 243.129 152.068C243.129 152.299 242.942 152.471 242.713 152.454L237.76 152.09Z" fill="white"/>
<path fill-rule="evenodd" clip-rule="evenodd" d="M237.76 157.176C237.529 157.158 237.344 156.959 237.344 156.73C237.344 156.5 237.529 156.327 237.76 156.343L248.674 157.145C248.903 157.162 249.09 157.361 249.09 157.592C249.09 157.822 248.903 157.995 248.674 157.977L237.76 157.176Z" fill="white"/>
<path fill-rule="evenodd" clip-rule="evenodd" d="M248.674 160.316L237.76 159.515C237.529 159.497 237.344 159.298 237.344 159.068C237.344 158.839 237.529 158.665 237.76 158.682L248.674 159.484C248.903 159.501 249.09 159.701 249.09 159.931C249.09 160.16 248.903 160.332 248.674 160.316Z" fill="white"/>
<path fill-rule="evenodd" clip-rule="evenodd" d="M248.674 162.656L237.76 161.853C237.529 161.837 237.344 161.636 237.344 161.407C237.344 161.177 237.529 161.004 237.76 161.021L248.674 161.823C248.903 161.839 249.09 162.04 249.09 162.269C249.09 162.499 248.903 162.672 248.674 162.656Z" fill="white"/>
<path fill-rule="evenodd" clip-rule="evenodd" d="M248.674 164.993L237.76 164.192C237.529 164.174 237.344 163.975 237.344 163.745C237.344 163.516 237.529 163.342 237.76 163.36L248.674 164.161C248.903 164.178 249.09 164.378 249.09 164.608C249.09 164.838 248.903 165.011 248.674 164.993Z" fill="white"/>
<path fill-rule="evenodd" clip-rule="evenodd" d="M251.433 164.106L254.269 164.315C254.454 164.328 254.603 164.189 254.603 164.005V149.498L250.148 144.714L240.169 143.981C239.985 143.968 239.835 144.107 239.835 144.291V146.431L246.318 146.908C246.429 146.916 246.534 146.967 246.612 147.051L251.311 152.095C251.39 152.179 251.434 152.288 251.434 152.398V164.106H251.433ZM254.269 165.145L251.017 164.907C250.786 164.891 250.601 164.69 250.601 164.46V152.509L246.146 147.727L239.419 147.232C239.19 147.216 239.003 147.016 239.003 146.786V144.229C239.003 143.587 239.527 143.102 240.169 143.149L250.321 143.895C250.431 143.903 250.537 143.955 250.615 144.038L255.314 149.083C255.392 149.166 255.436 149.275 255.436 149.386V164.065C255.436 164.709 254.913 165.194 254.269 165.145Z" fill="white"/>
<path fill-rule="evenodd" clip-rule="evenodd" d="M255.436 161.093L258.273 161.302C258.458 161.316 258.609 161.177 258.609 160.992V146.484L254.152 141.702L244.173 140.969C243.989 140.956 243.839 141.094 243.839 141.279V143.419L250.321 143.895C250.431 143.903 250.538 143.955 250.616 144.038L255.315 149.083C255.393 149.166 255.436 149.275 255.436 149.386L255.436 161.093ZM258.273 162.134L255.021 161.895C254.791 161.878 254.603 161.678 254.603 161.449V149.498L250.148 144.714L243.423 144.22C243.192 144.204 243.007 144.003 243.007 143.773V141.217C243.007 140.574 243.529 140.09 244.173 140.136L254.325 140.883C254.435 140.891 254.542 140.942 254.619 141.025L259.318 146.07C259.397 146.154 259.44 146.263 259.44 146.373V161.053C259.44 161.697 258.917 162.181 258.273 162.134Z" fill="white"/>
<path fill-rule="evenodd" clip-rule="evenodd" d="M250.737 145.347V148.29C250.737 148.474 250.888 148.635 251.071 148.649L254.016 148.865L250.737 145.347ZM255.021 149.771L251.071 149.482C250.428 149.434 249.906 148.871 249.906 148.229V144.28C249.906 144.112 250.007 143.968 250.162 143.916C250.317 143.862 250.497 143.911 250.616 144.039L255.314 149.083C255.433 149.209 255.469 149.391 255.405 149.543C255.34 149.693 255.188 149.783 255.021 149.771Z" fill="white"/>
<path fill-rule="evenodd" clip-rule="evenodd" d="M254.741 142.333V145.277C254.741 145.461 254.89 145.623 255.075 145.637L258.019 145.854L254.741 142.333ZM259.023 146.758L255.075 146.469C254.432 146.422 253.908 145.86 253.908 145.217V141.268C253.908 141.1 254.009 140.955 254.166 140.903C254.321 140.849 254.5 140.898 254.62 141.027L259.318 146.07C259.437 146.198 259.472 146.38 259.408 146.53C259.344 146.681 259.192 146.771 259.023 146.758Z" fill="white"/>
<path fill-rule="evenodd" clip-rule="evenodd" d="M252.676 152.626L250.737 152.483C250.507 152.466 250.321 152.267 250.321 152.036C250.321 151.807 250.507 151.634 250.737 151.651L252.676 151.794C252.905 151.81 253.092 152.011 253.092 152.24C253.092 152.47 252.905 152.643 252.676 152.626ZM252.676 154.965L251.017 154.843C250.787 154.825 250.601 154.626 250.601 154.396C250.601 154.167 250.787 153.994 251.017 154.011L252.676 154.133C252.905 154.149 253.092 154.35 253.092 154.579C253.092 154.809 252.905 154.982 252.676 154.965ZM252.676 157.303L251.017 157.182C250.787 157.165 250.601 156.965 250.601 156.735C250.601 156.505 250.787 156.332 251.017 156.35L252.676 156.471C252.905 156.489 253.092 156.688 253.092 156.918C253.092 157.147 252.905 157.321 252.676 157.303ZM252.676 159.643L251.017 159.52C250.787 159.503 250.601 159.303 250.601 159.074C250.601 158.844 250.787 158.67 251.017 158.688L252.676 158.81C252.905 158.826 253.092 159.027 253.092 159.256C253.092 159.487 252.905 159.659 252.676 159.643ZM252.676 161.981L251.017 161.86C250.787 161.842 250.601 161.643 250.601 161.412C250.601 161.184 250.787 161.01 251.017 161.027L252.676 161.148C252.905 161.166 253.092 161.365 253.092 161.596C253.092 161.825 252.905 161.998 252.676 161.981Z" fill="white"/>
<path fill-rule="evenodd" clip-rule="evenodd" d="M256.68 149.613L254.741 149.471C254.51 149.454 254.324 149.254 254.324 149.024C254.324 148.795 254.51 148.622 254.741 148.638L256.68 148.781C256.909 148.799 257.096 148.998 257.096 149.228C257.096 149.457 256.909 149.629 256.68 149.613ZM256.68 151.951L255.021 151.83C254.79 151.812 254.603 151.613 254.603 151.383C254.603 151.154 254.79 150.98 255.021 150.998L256.68 151.119C256.909 151.136 257.096 151.337 257.096 151.566C257.096 151.796 256.909 151.969 256.68 151.951ZM256.68 154.291L255.021 154.169C254.79 154.152 254.603 153.951 254.603 153.722C254.603 153.492 254.79 153.319 255.021 153.337L256.68 153.458C256.909 153.476 257.096 153.675 257.096 153.905C257.096 154.134 256.909 154.308 256.68 154.291ZM256.68 156.629L255.021 156.507C254.79 156.49 254.603 156.29 254.603 156.06C254.603 155.831 254.79 155.659 255.021 155.675L256.68 155.797C256.909 155.814 257.096 156.014 257.096 156.245C257.096 156.474 256.909 156.646 256.68 156.629ZM256.68 158.968L255.021 158.846C254.79 158.829 254.603 158.63 254.603 158.399C254.603 158.169 254.79 157.997 255.021 158.014L256.68 158.135C256.909 158.153 257.096 158.353 257.096 158.582C257.096 158.813 256.909 158.985 256.68 158.968Z" fill="white"/>
<path fill-rule="evenodd" clip-rule="evenodd" d="M159.73 104.226L165.902 104.68L163.08 97.4638C162.907 97.4827 162.725 97.4691 162.552 97.4247L159.73 104.226ZM166.346 105.311L159.287 104.793C159.186 104.786 159.093 104.729 159.037 104.642C158.981 104.556 158.97 104.451 159.008 104.361L162.096 96.9185C162.158 96.7691 162.334 96.7085 162.486 96.7812C162.695 96.8808 162.937 96.8984 163.146 96.8296C163.3 96.7798 163.473 96.8661 163.535 97.0249L166.625 104.921C166.661 105.015 166.65 105.12 166.595 105.198C166.539 105.276 166.446 105.319 166.346 105.311Z" fill="url(#paint11_linear_1295_1333)"/>
<path fill-rule="evenodd" clip-rule="evenodd" d="M182.475 105.897L188.648 106.351L185.826 99.1354C185.652 99.1542 185.471 99.1407 185.297 99.0964L182.475 105.897ZM189.093 106.983L182.032 106.464C181.932 106.458 181.838 106.401 181.783 106.314C181.727 106.227 181.717 106.122 181.753 106.032L184.841 98.5901C184.904 98.4405 185.078 98.3786 185.232 98.4528C185.44 98.5509 185.681 98.5686 185.891 98.5011C186.045 98.4499 186.219 98.5376 186.282 98.6964L189.37 106.592C189.408 106.687 189.395 106.792 189.34 106.87C189.285 106.948 189.191 106.991 189.093 106.983Z" fill="white"/>
<path fill-rule="evenodd" clip-rule="evenodd" d="M159.988 106.873L165.645 107.29C166.53 106.836 167.079 106.15 167.191 105.373L158.442 104.731C158.554 105.524 159.102 106.29 159.988 106.873ZM165.724 107.894L159.908 107.467C159.856 107.463 159.805 107.447 159.761 107.419C158.529 106.632 157.822 105.528 157.822 104.386C157.822 104.22 157.955 104.095 158.122 104.107L167.511 104.798C167.677 104.81 167.812 104.954 167.812 105.119C167.812 106.262 167.105 107.263 165.872 107.867C165.826 107.889 165.777 107.898 165.724 107.894Z" fill="url(#paint12_linear_1295_1333)"/>
<path fill-rule="evenodd" clip-rule="evenodd" d="M182.733 108.545L188.39 108.961C189.274 108.507 189.824 107.822 189.936 107.045L181.187 106.402C181.299 107.196 181.849 107.961 182.733 108.545ZM188.469 109.566L182.654 109.139C182.601 109.135 182.551 109.119 182.506 109.089C181.274 108.304 180.566 107.198 180.566 106.058C180.566 105.891 180.7 105.767 180.867 105.779L190.256 106.47C190.422 106.482 190.557 106.625 190.557 106.791C190.557 107.933 189.85 108.935 188.617 109.539C188.571 109.561 188.522 109.57 188.469 109.566Z" fill="white"/>
<path fill-rule="evenodd" clip-rule="evenodd" d="M162.817 95.1045C162.33 95.0694 161.934 95.4358 161.934 95.9219C161.934 96.408 162.33 96.8322 162.817 96.8686C163.303 96.9037 163.699 96.5373 163.699 96.0512C163.699 95.5651 163.303 95.1408 162.817 95.1045ZM162.817 97.468C161.999 97.4088 161.335 96.6949 161.335 95.8774C161.335 95.0614 161.999 94.4444 162.817 94.5051C163.634 94.5657 164.298 95.278 164.298 96.0957C164.298 96.9131 163.634 97.5287 162.817 97.468Z" fill="url(#paint13_linear_1295_1333)"/>
<path fill-rule="evenodd" clip-rule="evenodd" d="M185.561 96.7757C185.075 96.7406 184.679 97.107 184.679 97.5931C184.679 98.0792 185.075 98.5034 185.561 98.5398C186.047 98.5749 186.443 98.2085 186.443 97.7224C186.443 97.2361 186.047 96.8119 185.561 96.7757ZM185.561 99.1392C184.744 99.08 184.08 98.3663 184.08 97.5488C184.08 96.7314 184.744 96.1158 185.561 96.1765C186.379 96.2359 187.043 96.9495 187.043 97.7671C187.043 98.5831 186.379 99.1997 185.561 99.1392Z" fill="white"/>
<path fill-rule="evenodd" clip-rule="evenodd" d="M173.306 114.659L175.07 114.788V95.4612C175.07 94.9737 174.676 94.5495 174.188 94.5144C173.702 94.4782 173.306 94.8443 173.306 95.3306L173.306 114.659ZM175.371 115.411L173.007 115.237C172.841 115.224 172.707 115.08 172.707 114.915V95.2874C172.707 94.47 173.372 93.8544 174.188 93.9136C175.006 93.9743 175.67 94.688 175.67 95.5042V115.133C175.67 115.299 175.536 115.423 175.371 115.411Z" fill="url(#paint14_linear_1295_1333)"/>
<path fill-rule="evenodd" clip-rule="evenodd" d="M169.261 114.962C169.065 114.947 168.905 115.095 168.905 115.291V115.654C168.905 115.851 169.065 116.022 169.261 116.037L179.117 116.76C179.313 116.775 179.473 116.627 179.473 116.431V116.068C179.473 115.871 179.313 115.7 179.117 115.685L169.261 114.962ZM179.117 117.361L169.261 116.636C168.734 116.597 168.306 116.138 168.306 115.611V115.246C168.306 114.72 168.734 114.324 169.261 114.361L179.117 115.086C179.644 115.125 180.072 115.584 180.072 116.111V116.476C180.072 117.003 179.644 117.398 179.117 117.361Z" fill="white"/>
<path fill-rule="evenodd" clip-rule="evenodd" d="M167.001 116.471C166.806 116.456 166.646 116.603 166.646 116.799V117.163C166.646 117.36 166.805 117.531 167.001 117.545L181.377 118.601C181.572 118.616 181.731 118.468 181.731 118.273V117.908C181.731 117.712 181.573 117.54 181.377 117.527L167.001 116.471ZM181.377 119.2L167.001 118.145C166.476 118.105 166.046 117.646 166.046 117.12V116.755C166.046 116.228 166.476 115.832 167.001 115.87L181.377 116.927C181.902 116.965 182.331 117.426 182.331 117.952V118.316C182.331 118.842 181.902 119.239 181.377 119.2Z" fill="white"/>
<path fill-rule="evenodd" clip-rule="evenodd" d="M164.006 96.9563L172.707 97.596V95.8319L164.006 95.1921C164.189 95.4521 164.298 95.7659 164.298 96.0958C164.298 96.4257 164.189 96.7233 164.006 96.9563ZM173.007 98.2169L162.827 97.4694C162.662 97.4573 162.527 97.3132 162.527 97.1489C162.526 96.9833 162.659 96.8593 162.823 96.8688C163.305 96.9009 163.699 96.5333 163.699 96.0513C163.699 95.5706 163.305 95.145 162.823 95.1058C162.659 95.0923 162.526 94.947 162.527 94.7827C162.527 94.6169 162.662 94.4931 162.827 94.5052L173.007 95.254C173.173 95.2661 173.306 95.4101 173.306 95.5757V97.9393C173.306 98.105 173.173 98.229 173.007 98.2169ZM175.67 97.8128L184.374 98.4526C184.189 98.1925 184.08 97.8788 184.08 97.5489C184.08 97.219 184.189 96.9226 184.372 96.6897L175.67 96.0499V97.8128ZM185.56 99.1395C185.556 99.1395 185.554 99.1395 185.551 99.1395L175.371 98.3907C175.205 98.3786 175.07 98.2345 175.07 98.0688V95.7052C175.07 95.5396 175.205 95.4157 175.371 95.4278L185.551 96.1751C185.716 96.1872 185.851 96.3313 185.851 96.4956C185.853 96.6614 185.719 96.7864 185.554 96.7757C185.071 96.7433 184.68 97.111 184.68 97.5931C184.68 98.0753 185.071 98.4995 185.554 98.5384C185.554 98.5384 185.555 98.5399 185.556 98.5399H185.56C185.725 98.552 185.859 98.696 185.859 98.8618C185.859 99.0276 185.725 99.1516 185.56 99.1395Z" fill="white"/>
<path fill-rule="evenodd" clip-rule="evenodd" d="M216.955 125.398C216.628 124.717 216.232 124.159 215.768 123.724C215.304 123.288 214.79 122.944 214.228 122.69C213.667 122.435 213.081 122.243 212.464 122.111V120.233L209.722 120.031V121.909C209.22 121.93 208.726 121.997 208.24 122.105C207.755 122.21 207.301 122.368 206.877 122.574C206.455 122.777 206.081 123.037 205.756 123.352C205.433 123.663 205.177 124.036 204.994 124.47C204.809 124.902 204.716 125.403 204.714 125.967C204.716 126.68 204.832 127.288 205.05 127.799C205.274 128.308 205.581 128.738 205.976 129.082C206.369 129.428 206.823 129.714 207.34 129.939C207.854 130.164 208.409 130.352 209.003 130.499C209.597 130.645 210.2 130.775 210.824 130.886C211.332 130.98 211.81 131.096 212.263 131.233C212.72 131.366 213.123 131.533 213.475 131.725C213.832 131.92 214.11 132.149 214.314 132.416C214.516 132.68 214.62 132.989 214.623 133.346C214.62 133.766 214.516 134.119 214.314 134.402C214.113 134.688 213.836 134.907 213.486 135.073C213.133 135.233 212.738 135.341 212.292 135.399C211.846 135.453 211.377 135.461 210.888 135.424C210.439 135.392 209.989 135.306 209.542 135.167C209.096 135.027 208.678 134.845 208.286 134.618C207.894 134.391 207.552 134.129 207.258 133.827C206.961 133.528 206.743 133.198 206.591 132.843L204.044 133.734C204.3 134.347 204.628 134.886 205.019 135.354C205.414 135.822 205.857 136.224 206.358 136.56C206.855 136.895 207.387 137.168 207.959 137.38C208.528 137.591 209.115 137.746 209.722 137.845V139.896L212.464 140.096V137.937C213.142 137.937 213.781 137.847 214.394 137.665C215.006 137.483 215.548 137.21 216.028 136.842C216.506 136.477 216.885 136.023 217.162 135.475C217.434 134.931 217.575 134.293 217.582 133.564C217.578 132.807 217.453 132.157 217.208 131.621C216.96 131.081 216.624 130.628 216.196 130.258C215.765 129.892 215.275 129.586 214.717 129.348C214.164 129.108 213.573 128.907 212.95 128.75C212.328 128.592 211.698 128.452 211.061 128.333C210.603 128.25 210.165 128.153 209.748 128.051C209.326 127.944 208.952 127.815 208.622 127.657C208.291 127.501 208.027 127.304 207.837 127.063C207.642 126.823 207.545 126.527 207.542 126.175C207.545 125.798 207.639 125.488 207.826 125.243C208.014 124.994 208.265 124.804 208.586 124.668C208.905 124.534 209.273 124.45 209.683 124.408C210.093 124.364 210.521 124.361 210.975 124.397C211.349 124.425 211.724 124.496 212.094 124.606C212.465 124.715 212.817 124.856 213.149 125.029C213.48 125.201 213.771 125.399 214.027 125.616C214.283 125.831 214.481 126.061 214.623 126.307L216.955 125.398ZM210.813 116.275C218.416 116.834 224.581 123.451 224.581 131.054C224.581 138.659 218.417 144.369 210.813 143.81C203.209 143.251 197.045 136.635 197.045 129.031C197.045 121.428 203.209 115.716 210.813 116.275Z" fill="white"/>
<path fill-rule="evenodd" clip-rule="evenodd" d="M175.617 154.451C176.148 154.109 176.494 153.511 176.494 152.808C176.494 151.649 175.555 150.64 174.396 150.555C173.237 150.47 172.297 151.34 172.297 152.5C172.297 153.203 172.644 153.852 173.176 154.271L172.524 158.082L176.269 158.357L175.617 154.451ZM167.422 144.919V140.227C167.422 136.39 170.56 133.484 174.396 133.765C178.231 134.047 181.369 137.415 181.369 141.251V145.944L178.42 145.727V141.035C178.42 138.821 176.608 136.878 174.396 136.715C172.183 136.552 170.372 138.23 170.372 140.442V145.136L167.422 144.919ZM183.465 146.795C184.857 148.775 185.681 151.158 185.681 153.675C185.681 159.91 180.63 164.591 174.396 164.133C168.163 163.675 163.11 158.25 163.11 152.018C163.11 149.501 163.934 147.238 165.327 145.463L183.465 146.795Z" fill="white"/>
<path fill-rule="evenodd" clip-rule="evenodd" d="M211.622 167.765C209.236 167.557 207.295 169.331 207.295 171.718C207.295 173.257 207.773 174.057 208.282 174.905C208.819 175.804 209.428 176.822 209.428 178.653C209.428 178.855 209.428 179.131 210.378 179.213L212.867 179.43C213.816 179.512 213.816 179.237 213.816 179.034C213.816 177.203 214.426 176.291 214.962 175.486C215.471 174.726 215.951 174.008 215.951 172.469C215.95 170.083 214.009 167.972 211.622 167.765ZM212.866 180.496L210.377 180.279C208.712 180.134 208.363 179.265 208.363 178.56C208.363 177.037 207.908 176.276 207.381 175.396C206.841 174.494 206.228 173.472 206.228 171.624C206.228 168.651 208.648 166.441 211.622 166.699C214.596 166.958 217.015 169.587 217.015 172.562C217.015 174.408 216.403 175.325 215.863 176.133C215.336 176.923 214.881 177.603 214.881 179.126C214.881 179.83 214.532 180.64 212.866 180.496Z" fill="white"/>
<path fill-rule="evenodd" clip-rule="evenodd" d="M208.242 172.363C208.229 172.362 208.214 172.36 208.2 172.358C207.906 172.309 207.687 172.035 207.71 171.742C207.862 169.804 209.034 168.505 210.927 168.176C211.211 168.13 211.502 168.324 211.576 168.615C211.65 168.906 211.479 169.182 211.195 169.232C209.749 169.481 208.888 170.436 208.772 171.919C208.75 172.195 208.517 172.387 208.242 172.363Z" fill="white"/>
<path fill-rule="evenodd" clip-rule="evenodd" d="M214.164 182.036L209.082 181.595C208.787 181.569 208.549 181.311 208.549 181.016C208.549 180.722 208.787 180.504 209.082 180.529L214.164 180.971C214.457 180.997 214.696 181.255 214.696 181.549C214.695 181.844 214.457 182.062 214.164 182.036Z" fill="white"/>
<path fill-rule="evenodd" clip-rule="evenodd" d="M214.164 183.427L209.082 182.986C208.787 182.96 208.549 182.701 208.549 182.407C208.549 182.113 208.787 181.895 209.082 181.921L214.164 182.362C214.457 182.388 214.696 182.647 214.696 182.941C214.695 183.235 214.457 183.452 214.164 183.427Z" fill="white"/>
<path fill-rule="evenodd" clip-rule="evenodd" d="M211.622 164.655C211.329 164.629 211.089 164.371 211.089 164.076V160.717C211.089 160.423 211.329 160.205 211.622 160.231C211.917 160.257 212.156 160.517 212.156 160.81V164.169C212.156 164.464 211.917 164.681 211.622 164.655ZM207.658 165.374C207.473 165.358 207.295 165.248 207.196 165.069L205.516 162.013C205.37 161.745 205.457 161.427 205.712 161.302C205.968 161.177 206.292 161.294 206.439 161.56L208.118 164.615C208.266 164.883 208.179 165.2 207.924 165.326C207.839 165.368 207.748 165.382 207.658 165.374ZM215.587 166.062C215.497 166.054 215.405 166.024 215.322 165.968C215.066 165.799 214.98 165.466 215.127 165.224L216.806 162.46C216.953 162.218 217.279 162.16 217.533 162.328C217.788 162.498 217.875 162.832 217.728 163.073L216.049 165.836C215.951 165.999 215.772 166.079 215.587 166.062ZM204.754 168.025C204.664 168.017 204.572 167.986 204.489 167.931L201.58 165.998C201.325 165.829 201.238 165.495 201.385 165.253C201.531 165.012 201.857 164.953 202.112 165.122L205.021 167.053C205.275 167.223 205.363 167.556 205.216 167.798C205.118 167.96 204.938 168.041 204.754 168.025ZM218.491 169.218C218.306 169.202 218.128 169.09 218.029 168.911C217.882 168.643 217.97 168.325 218.224 168.2L221.133 166.774C221.387 166.648 221.713 166.764 221.86 167.031C222.007 167.299 221.921 167.617 221.666 167.742L218.757 169.169C218.672 169.21 218.581 169.225 218.491 169.218ZM203.691 171.898L200.332 171.606C200.039 171.58 199.801 171.321 199.801 171.026C199.801 170.733 200.039 170.515 200.332 170.54L203.691 170.833C203.986 170.858 204.225 171.117 204.225 171.412C204.225 171.705 203.986 171.923 203.691 171.898ZM222.912 173.567L219.553 173.274C219.26 173.249 219.02 172.99 219.02 172.695C219.02 172.401 219.26 172.183 219.553 172.209L222.912 172.501C223.206 172.527 223.444 172.785 223.444 173.08C223.444 173.374 223.206 173.591 222.912 173.567ZM201.846 177.383C201.662 177.367 201.483 177.255 201.385 177.076C201.238 176.808 201.325 176.49 201.58 176.365L204.487 174.937C204.743 174.814 205.069 174.928 205.216 175.196C205.363 175.464 205.275 175.782 205.021 175.907L202.112 177.333C202.028 177.375 201.937 177.39 201.846 177.383ZM221.398 179.08C221.308 179.072 221.216 179.041 221.133 178.986L218.224 177.053C217.97 176.883 217.882 176.551 218.029 176.308C218.177 176.066 218.502 176.008 218.757 176.176L221.666 178.109C221.921 178.279 222.007 178.611 221.86 178.854C221.762 179.015 221.583 179.096 221.398 179.08Z" fill="white"/>
<path fill-rule="evenodd" clip-rule="evenodd" d="M223.165 210.003C220.022 207.978 216.59 206.585 213.051 205.817V201.176C213.051 199.696 211.841 198.485 210.36 198.485H208.452H204.54H202.631C201.15 198.485 199.94 199.696 199.94 201.176V205.817C196.4 206.585 192.97 207.978 189.825 210.003L186.547 206.723C185.501 205.677 183.788 205.678 182.743 206.723L181.393 208.074L178.625 210.84L177.276 212.19C176.23 213.236 176.23 214.948 177.276 215.994L180.554 219.272C178.53 222.415 177.134 225.847 176.368 229.387H171.729C170.249 229.387 169.038 230.598 169.038 232.078V233.987V237.899V239.807C169.038 241.288 170.249 242.498 171.729 242.498H176.368C177.134 246.039 178.531 249.469 180.555 252.612L177.277 255.891C176.23 256.938 176.23 258.65 177.277 259.696L178.625 261.045L181.393 263.812L182.743 265.161C183.789 266.207 185.501 266.207 186.547 265.161L189.825 261.883C192.97 263.907 196.401 265.302 199.94 266.069V270.71C199.94 272.19 201.151 273.4 202.631 273.399H204.54H208.452H210.36C211.841 273.399 213.051 272.19 213.051 270.71V266.069C216.59 265.301 220.022 263.907 223.165 261.883L226.443 265.161C227.491 266.209 229.203 266.207 230.249 265.161L231.598 263.812L234.364 261.045L235.714 259.696C236.76 258.65 236.76 256.938 235.714 255.891L232.436 252.613C234.461 249.47 235.857 246.039 236.623 242.497H241.261C242.743 242.497 243.952 241.288 243.952 239.807V237.899V233.987V232.078C243.952 230.598 242.743 229.387 241.261 229.387H236.622C235.855 225.848 234.46 222.417 232.436 219.273L235.714 215.994C236.76 214.948 236.76 213.236 235.714 212.19L234.364 210.84L231.598 208.074L230.249 206.723C229.203 205.678 227.491 205.678 226.444 206.723L223.165 210.003ZM157.698 196.239C159.16 196.09 160.479 197.164 160.627 198.625L160.889 201.204C162.669 201.627 164.332 202.384 165.798 203.412L167.903 201.893C169.095 201.033 170.772 201.304 171.632 202.496L174.019 205.804C174.88 206.995 174.609 208.672 173.417 209.533L171.313 211.05C171.566 211.901 171.745 212.786 171.838 213.702C171.931 214.618 171.935 215.521 171.859 216.405L174.226 217.467C175.566 218.069 176.169 219.657 175.568 220.998L173.898 224.72C173.294 226.06 171.707 226.664 170.367 226.062L167.999 224.999C166.77 226.302 165.293 227.378 163.636 228.151L163.898 230.73C164.048 232.193 162.974 233.509 161.512 233.659L157.453 234.073C155.991 234.221 154.674 233.147 154.525 231.686L154.262 229.107C152.483 228.685 150.82 227.928 149.353 226.9L147.248 228.418C146.057 229.278 144.378 229.008 143.519 227.816L141.131 224.508C140.272 223.316 140.543 221.638 141.735 220.778L143.838 219.26C143.585 218.41 143.406 217.524 143.313 216.609C143.22 215.694 143.216 214.79 143.292 213.905L140.927 212.843C139.585 212.242 138.982 210.653 139.584 209.313L141.255 205.59C141.856 204.25 143.445 203.646 144.785 204.248L147.153 205.311C148.382 204.009 149.858 202.932 151.516 202.159L151.253 199.58C151.104 198.118 152.179 196.801 153.64 196.652L157.698 196.239ZM157.576 208.578C153.943 208.578 150.998 211.523 150.998 215.157C150.998 218.789 153.943 221.734 157.576 221.734C161.208 221.734 164.154 218.789 164.154 215.157C164.154 211.523 161.208 208.578 157.576 208.578ZM162.119 237.821C163.576 238.016 164.606 239.368 164.411 240.824L164.065 243.393C165.696 244.219 167.137 245.342 168.323 246.684L170.725 245.698C172.085 245.139 173.652 245.795 174.211 247.154L175.761 250.926C176.319 252.285 175.664 253.853 174.306 254.412L171.907 255.398C171.954 256.284 171.922 257.188 171.798 258.1C171.677 259.01 171.469 259.891 171.189 260.733L173.243 262.318C174.405 263.215 174.622 264.901 173.725 266.065L171.232 269.293C170.334 270.456 168.648 270.674 167.485 269.776L165.43 268.19C163.931 269.17 162.245 269.873 160.453 270.238L160.108 272.807C159.911 274.263 158.561 275.295 157.105 275.098L153.062 274.554C151.605 274.359 150.574 273.007 150.77 271.551L151.116 268.983C149.484 268.156 148.043 267.033 146.856 265.691L144.456 266.677C143.096 267.237 141.527 266.58 140.97 265.222L139.42 261.45C138.861 260.091 139.515 258.522 140.875 257.963L143.274 256.977C143.226 256.091 143.259 255.188 143.382 254.277C143.504 253.365 143.712 252.484 143.992 251.643L141.938 250.057C140.776 249.161 140.559 247.474 141.456 246.312L143.949 243.083C144.846 241.919 146.532 241.702 147.695 242.599L149.75 244.186C151.249 243.205 152.935 242.502 154.728 242.137L155.073 239.568C155.268 238.112 156.62 237.08 158.076 237.277L162.119 237.821ZM157.59 249.61C153.958 249.61 151.012 252.554 151.012 256.188C151.012 259.822 153.958 262.767 157.59 262.767C161.223 262.767 164.169 259.821 164.169 256.188C164.169 252.554 161.223 249.61 157.59 249.61ZM206.495 213.656C212.65 213.656 218.221 216.15 222.255 220.184C226.288 224.217 228.782 229.789 228.782 235.942C228.782 242.096 226.288 247.668 222.255 251.701C218.221 255.735 212.65 258.229 206.495 258.229C200.342 258.229 194.77 255.735 190.737 251.701C186.703 247.668 184.209 242.096 184.209 235.942C184.209 229.789 186.703 224.217 190.737 220.184C194.77 216.15 200.342 213.656 206.495 213.656ZM195.041 224.49C197.973 221.558 202.023 219.745 206.495 219.745C210.969 219.745 215.019 221.559 217.949 224.49C220.88 227.42 222.694 231.47 222.694 235.942C222.694 240.416 220.881 244.466 217.949 247.398C215.019 250.328 210.969 252.141 206.495 252.141C202.023 252.141 197.973 250.328 195.041 247.398C192.111 244.466 190.298 240.416 190.298 235.942C190.298 231.47 192.111 227.42 195.041 224.49Z" fill="url(#paint15_linear_1295_1333)"/>
<path fill-rule="evenodd" clip-rule="evenodd" d="M157.591 249.61C161.223 249.61 164.168 252.556 164.168 256.188C164.168 259.821 161.223 262.767 157.591 262.767C153.958 262.767 151.012 259.821 151.012 256.188C151.012 252.556 153.958 249.61 157.591 249.61Z" fill="#EDE4F1"/>
<path fill-rule="evenodd" clip-rule="evenodd" d="M157.576 221.734C153.943 221.734 150.998 218.789 150.998 215.156C150.998 211.523 153.943 208.578 157.576 208.578C161.209 208.578 164.154 211.523 164.154 215.156C164.154 218.789 161.209 221.734 157.576 221.734Z" fill="#EDE4F1"/>
<path fill-rule="evenodd" clip-rule="evenodd" d="M184.209 235.944C184.209 229.789 186.703 224.217 190.737 220.184C194.77 216.151 200.342 213.657 206.495 213.657C212.65 213.657 218.221 216.151 222.255 220.184C226.288 224.218 228.782 229.789 228.782 235.944C228.782 242.097 226.288 247.668 222.255 251.702C218.221 255.735 212.65 258.231 206.495 258.231C200.342 258.231 194.77 255.735 190.737 251.702C186.704 247.668 184.209 242.097 184.209 235.944ZM195.041 224.49C192.111 227.42 190.298 231.47 190.298 235.944C190.298 240.416 192.111 244.467 195.041 247.398C197.973 250.329 202.023 252.141 206.495 252.141C210.969 252.141 215.019 250.328 217.949 247.398C220.881 244.467 222.694 240.417 222.694 235.944C222.694 231.47 220.879 227.42 217.949 224.49C215.019 221.559 210.969 219.745 206.495 219.745C202.023 219.745 197.973 221.558 195.041 224.49Z" fill="#EDE4F1"/>
<path fill-rule="evenodd" clip-rule="evenodd" d="M188.458 38.4565C184.044 103.501 168.387 175.583 96.7105 194.232L94.93 194.695L93.1509 194.232C21.4736 175.583 5.81628 103.501 1.40169 38.4565L0.976074 32.19L7.14949 31.0304C37.0403 25.4281 64.4504 14.2259 91.9816 1.58669L94.9296 0.233398L97.8776 1.58669C125.409 14.2259 152.819 25.4281 182.71 31.0304L188.883 32.19L188.458 38.4565Z" fill="#EDE4F1"/>
<path fill-rule="evenodd" clip-rule="evenodd" d="M181.408 37.7401C151.87 32.2024 125.523 21.815 94.9302 7.771C64.3391 21.8148 37.9901 32.2022 8.45215 37.7401C14.4815 126.58 40.8276 173.08 94.9302 187.156C149.033 173.08 175.379 126.58 181.408 37.7401Z" fill="url(#paint16_linear_1295_1333)"/>
<g filter="url(#filter0_d_1295_1333)">
<path d="M94.9302 21.938C117.94 32.331 140.898 41.5008 165.305 47.4497C166.092 47.6415 166.881 47.8301 167.671 48.0151C165.033 77.3414 159.047 111.815 142.864 137.52C142.012 138.873 141.131 140.201 140.222 141.503C139.677 142.285 139.121 143.057 138.554 143.819C133.831 150.169 128.361 155.831 122.02 160.551C115.359 165.511 108.068 169.253 100.344 172.019C98.5619 172.658 96.7563 173.244 94.9302 173.782L94.019 173.508C84.6196 170.646 75.783 166.465 67.8403 160.551C35.3747 136.384 25.7443 87.5284 22.189 48.0151C47.4819 42.0909 71.1778 32.6661 94.9302 21.938Z" fill="url(#paint17_linear_1295_1333)"/>
</g>
<path fill-rule="evenodd" clip-rule="evenodd" d="M78.2736 81.5645H111.588C111.588 77.2039 111.588 72.8417 111.588 68.481C111.588 63.9035 109.712 59.7408 106.691 56.7199C103.67 53.6979 99.5062 51.8231 94.9299 51.8231C90.3539 51.8231 86.1909 53.6977 83.169 56.7199C80.1482 59.7406 78.2734 63.9033 78.2734 68.481V81.5645H78.2736ZM119.473 81.5645V81.6844C123.401 82.3578 126.415 85.8 126.415 89.913V128.555C126.415 133.146 122.659 136.903 118.067 136.903H71.7931C67.202 136.903 63.446 133.146 63.446 128.555V89.913C63.446 85.8 66.46 82.3578 70.3871 81.6844V68.481C70.3871 61.7273 73.148 55.5901 77.5949 51.1444C82.0392 46.6989 88.1776 43.938 94.9301 43.938C101.684 43.938 107.821 46.6989 112.267 51.1444C116.714 55.5899 119.473 61.7271 119.473 68.481C119.473 72.8417 119.473 77.2039 119.473 81.5645Z" fill="white"/>
<path fill-rule="evenodd" clip-rule="evenodd" d="M94.93 93.4546C99.8456 93.4546 103.829 97.4382 103.829 102.354C103.829 106.347 101.198 109.727 97.5737 110.853V121.607C97.5737 123.061 96.3845 124.251 94.93 124.251C93.4769 124.251 92.2863 123.061 92.2863 121.607V110.853C88.6623 109.727 86.0308 106.347 86.0308 102.354C86.031 97.4382 90.016 93.4546 94.93 93.4546Z" fill="url(#paint18_linear_1295_1333)"/>
<path fill-rule="evenodd" clip-rule="evenodd" d="M315.407 271.698C260.423 271.698 215.848 277.549 215.848 284.766C215.848 291.984 260.423 297.834 315.407 297.834C370.392 297.834 414.966 291.984 414.966 284.766C414.966 277.548 370.392 271.698 315.407 271.698Z" fill="url(#paint19_linear_1295_1333)"/>
<path fill-rule="evenodd" clip-rule="evenodd" d="M270.167 281.164C280.038 281.005 287.417 280.887 290.825 279.811C294.502 278.649 293.741 276.406 291.629 272.819C282.326 277.099 284.805 271.939 280.454 272.595C277.396 275.056 272.868 276.705 266.872 277.543C264.335 279.414 265.365 281.081 270.167 281.164Z" fill="#071023"/>
<path fill-rule="evenodd" clip-rule="evenodd" d="M282.847 130.77H343.834C345.035 130.77 346.277 131.753 346.592 132.956L357.443 174.275C357.759 175.478 357.033 176.461 355.832 176.461H294.845C293.642 176.461 292.402 175.478 292.086 174.275L281.235 132.956C280.92 131.753 281.644 130.77 282.847 130.77Z" fill="white"/>
<path fill-rule="evenodd" clip-rule="evenodd" d="M347.896 131.962L355.263 160.013C364.111 155.697 374.767 148.769 385.945 139.882C386.245 135.882 386.617 132.693 387.061 130.314C386.166 128.534 385.183 126.634 384.112 124.611C394.428 124.545 400.719 122.326 402.984 117.956C400.224 109.882 396.367 101.637 391.413 93.223C387.948 88.0974 381.16 85.0847 371.052 84.1851C369.87 97.7413 349.077 97.0464 353.967 85.3769C346.422 87.4011 340.032 91.1423 334.794 96.6005C330.289 107.702 327.541 115.449 326.551 119.844C331.444 123.271 336.079 125.489 340.456 126.499C340.655 127.46 340.813 128.553 340.927 129.776H345.137C346.339 129.776 347.581 130.761 347.896 131.962Z" fill="#A535C5"/>
<path fill-rule="evenodd" clip-rule="evenodd" d="M355.262 160.013L347.896 131.962C347.581 130.759 346.34 129.776 345.138 129.776H340.928H284.151C282.95 129.776 280.808 131.329 281.165 132.519C281.107 131.524 281.794 130.77 282.847 130.77H343.834C345.035 130.77 346.277 131.753 346.592 132.956L357.443 174.275C357.633 174.997 357.447 175.638 357.009 176.037C358.014 175.389 358.972 174.135 358.748 173.283L355.262 160.013Z" fill="#85868B"/>
<path fill-rule="evenodd" clip-rule="evenodd" d="M355.832 176.461H294.845C294.621 176.461 294.395 176.426 294.176 176.363C295.389 179.509 298.687 179.044 299.975 179.033H372.282C376.2 178.868 376.098 176.12 376.149 173.471H358.777C358.834 174.312 357.942 175.435 357.009 176.037C356.717 176.303 356.313 176.461 355.832 176.461Z" fill="#E5E5E5"/>
<path fill-rule="evenodd" clip-rule="evenodd" d="M347.297 147.762C340.758 151.068 333.025 152.085 325.073 152.491C325.162 152.777 325.23 153.071 325.277 153.368C325.808 156.72 323.445 159.574 320.033 159.574C316.818 159.574 313.902 157.027 313.401 153.862C313.347 153.519 313.322 153.18 313.328 152.85C305.071 153.072 297.096 153.524 290.5 156.106L295.035 173.381H354.024L347.297 147.762Z" fill="url(#paint20_linear_1295_1333)"/>
<path fill-rule="evenodd" clip-rule="evenodd" d="M318.712 149.658C320.898 149.658 322.95 151.429 323.298 153.615C323.644 155.801 322.152 157.573 319.966 157.573C317.78 157.573 315.728 155.801 315.382 153.615C315.036 151.429 316.526 149.658 318.712 149.658Z" fill="url(#paint21_linear_1295_1333)"/>
<path fill-rule="evenodd" clip-rule="evenodd" d="M388.884 166.394C387.666 162.685 386.792 158.836 386.259 154.85C378.047 158.031 368.654 161.097 356.779 165.788L358.383 171.896C376.327 172.481 386.493 170.647 388.884 166.394Z" fill="#7103A4"/>
<path fill-rule="evenodd" clip-rule="evenodd" d="M356.779 165.788C368.654 161.097 378.047 158.031 386.259 154.85C393.496 152.047 399.819 149.157 406.118 144.989C405.855 136.946 404.659 129.165 401.33 120.146C398.273 123.068 392.535 124.557 384.112 124.611C386.55 129.22 388.537 133.193 390.072 136.53C377.405 147.033 365.194 155.168 355.263 160.013L356.779 165.788Z" fill="#FAB688"/>
<path fill-rule="evenodd" clip-rule="evenodd" d="M328.131 120.915C327.217 124.11 326.37 127.065 325.589 129.776H340.928C340.813 128.553 340.656 127.46 340.456 126.499C336.552 125.598 332.445 123.737 328.131 120.915Z" fill="#FAB688"/>
<path fill-rule="evenodd" clip-rule="evenodd" d="M290.892 269.569C299.964 236.671 303.209 213.561 300.627 200.239C305.782 200.974 310.959 201.204 316.159 200.931C315.368 197.373 314.572 193.804 313.764 190.191C313.856 185.285 316.363 181.646 325.252 179.033H299.975C299.116 179.04 297.362 179.25 295.928 178.454C287.786 180.78 283.81 184.621 282.45 189.311C281.456 202.218 284.139 216.918 281.853 269.667C284.702 269.962 287.716 269.93 290.892 269.569Z" fill="#071023"/>
<path fill-rule="evenodd" clip-rule="evenodd" d="M300.369 179.033H299.975C299.116 179.04 297.361 179.25 295.928 178.454C287.786 180.78 283.81 184.621 282.45 189.311C281.456 202.218 284.139 216.918 281.853 269.667C283.553 269.842 285.31 269.903 287.127 269.845C291.815 251.509 302.962 206.531 290.404 187.147C293.35 184.021 296.671 181.317 300.369 179.033Z" fill="#1B1425"/>
<path fill-rule="evenodd" clip-rule="evenodd" d="M371.036 84.3254C369.421 82.2688 367.996 80.3592 367.579 79.0016C367.904 78.0723 368.246 76.9008 368.602 75.4827C374.655 71.371 375.482 68.3302 371.084 66.3572C370.198 66.8542 369.097 68.3855 367.782 70.9497C366.734 70.9093 365.937 70.372 365.395 69.3402C366.646 65.0117 367.459 61.4969 367.836 58.794C364.854 54.362 357.878 53.7276 348.641 54.9249C348.212 57.384 347.861 59.9873 347.587 62.7373C345.954 64.2416 346.165 69.82 347.67 76.2479C346.918 79.9028 349.174 81.8988 354.44 82.2313C354.516 83.5295 354.006 85.182 353.967 85.3773V85.3799C353.964 85.3906 353.959 85.4041 353.951 85.4203C349.147 97.0061 369.722 97.7173 371.036 84.3254Z" fill="#FAB688"/>
<path fill-rule="evenodd" clip-rule="evenodd" d="M348.641 54.9245C357.878 53.7271 364.854 54.3616 367.837 58.7936C367.458 61.495 366.646 65.0115 365.397 69.3398C365.937 70.3699 366.734 70.9074 367.782 70.9492C369.098 68.3851 370.198 66.8539 371.084 66.3568C375.482 68.3297 374.656 71.3707 368.602 75.4822C368.247 76.9003 367.905 78.072 367.579 79.0011C373.023 77.781 377.581 72.9099 378.222 70.8035C384.575 58.2817 377.489 52.9943 373.698 51.0658C372.026 38.6665 354.02 49.6263 344.998 43.6479C341.413 48.6015 345.846 54.814 348.641 54.9245Z" fill="#0C0C0C"/>
<path fill-rule="evenodd" clip-rule="evenodd" d="M361.282 82.0718C358.734 82.2777 356.453 82.3304 354.44 82.2306C354.492 83.1234 354.267 84.1861 354.108 84.8245C357.373 84.7396 359.765 83.8214 361.282 82.0718Z" fill="#ED7D57"/>
<path fill-rule="evenodd" clip-rule="evenodd" d="M333.381 198.598H388.407C390.372 198.598 391.982 200.206 391.982 202.172V202.174C391.982 204.141 390.372 205.749 388.407 205.749H333.381C331.413 205.749 329.805 204.141 329.805 202.174V202.172C329.805 200.206 331.413 198.598 333.381 198.598Z" fill="#F57A00"/>
<path fill-rule="evenodd" clip-rule="evenodd" d="M385.123 266.318C382.492 263.688 378.86 262.054 374.863 262.054H365.398H346.923C342.926 262.054 339.294 263.688 336.663 266.318C334.032 268.95 332.399 272.583 332.399 276.579V279.509H331.28V283.135H332.399H338.405H339.524V279.509H338.405V276.579C338.405 274.239 339.364 272.11 340.91 270.566C342.455 269.021 344.584 268.06 346.924 268.06H365.398H374.863C377.202 268.06 379.332 269.021 380.878 270.566C382.422 272.11 383.381 274.239 383.381 276.579V279.509H382.263V283.135H383.381H389.388H390.507V279.509H389.388V276.579C389.387 272.583 387.754 268.95 385.123 266.318Z" fill="#F57A00"/>
<path d="M363.896 205.749H357.89V262.054H363.896V205.749Z" fill="#F57A00"/>
<path fill-rule="evenodd" clip-rule="evenodd" d="M380.14 198.373C390.78 194.553 392.228 183.953 387.547 167.938C383.702 171.086 373.98 172.404 358.383 171.895L358.748 173.283C358.763 173.343 358.774 173.406 358.778 173.471H376.149C376.098 176.12 376.2 178.867 372.283 179.033H325.252C316.364 181.646 313.856 185.285 313.764 190.191C319.392 215.34 324.399 238.4 331.219 270.265C333.518 271.554 336.664 271.456 340.657 269.969C343.856 239.065 342.979 216.592 338.024 202.55C351.183 202.601 365.222 200.808 380.14 198.373Z" fill="#1B1425"/>
<path fill-rule="evenodd" clip-rule="evenodd" d="M380.14 198.372C390.78 194.553 392.228 183.954 387.547 167.938C386.729 168.608 385.645 169.194 384.296 169.697C388.174 186.154 383.958 195.171 371.453 196.037C356.863 198.2 344.767 199.241 335.168 199.158C339.399 226.593 340.125 250.515 337.344 270.922C338.375 270.724 339.479 270.406 340.657 269.969C343.856 239.065 342.979 216.593 338.024 202.549C351.183 202.599 365.222 200.808 380.14 198.372Z" fill="#071023"/>
<path fill-rule="evenodd" clip-rule="evenodd" d="M282.805 269.753C282.541 270.744 282.112 271.678 281.515 272.55C284.363 272.818 283.266 276.485 290.956 273.12C290.627 272.15 290.444 270.984 290.404 269.621C287.756 269.896 285.223 269.939 282.805 269.753Z" fill="#FAB688"/>
<path fill-rule="evenodd" clip-rule="evenodd" d="M331.245 286.938C336.483 284.776 337.27 281.256 340.151 279.912C343.053 278.557 343.386 276.142 340.549 273.521C338.453 275.195 335.853 277.253 334.475 276.164C333.556 275.435 330.438 275.484 329.82 276.545C327.103 282.859 323.326 280.857 322.58 283.73C322.494 287.556 327.945 288.298 331.245 286.938Z" fill="#071023"/>
<path fill-rule="evenodd" clip-rule="evenodd" d="M332.138 270.689C332.182 272.369 331.953 274.054 331.448 275.744C332.571 275.567 333.922 275.725 334.476 276.164C335.752 277.173 338.078 275.48 340.079 273.895C339.755 272.988 339.535 271.821 339.422 270.393C336.496 271.309 334.068 271.408 332.138 270.689Z" fill="#FAB688"/>
<path fill-rule="evenodd" clip-rule="evenodd" d="M384.112 124.611C382.759 122.16 381.326 118.865 379.813 114.722C380.625 119.545 380.584 123.019 381.895 126.984C380.837 132.594 380.398 138.313 380.506 144.084C382.301 142.737 384.116 141.336 385.945 139.882C386.245 135.882 386.617 132.693 387.061 130.313C386.166 128.534 385.183 126.634 384.112 124.611ZM337.302 125.578C338.369 125.952 339.42 126.26 340.457 126.499C340.063 120.361 339.805 115.288 339.684 111.28C338.501 117.197 337.708 121.965 337.302 125.578ZM388.884 166.394C387.666 162.685 386.792 158.836 386.259 154.85C384.739 155.438 383.176 156.024 381.567 156.615C382.212 160.98 383.135 165.349 384.306 169.695C386.604 168.834 388.131 167.734 388.884 166.394Z" fill="#1B1425"/>
<defs>
<filter id="filter0_d_1295_1333" x="18.189" y="21.938" width="153.482" height="159.844" filterUnits="userSpaceOnUse" color-interpolation-filters="sRGB">
<feFlood flood-opacity="0" result="BackgroundImageFix"/>
<feColorMatrix in="SourceAlpha" type="matrix" values="0 0 0 0 0 0 0 0 0 0 0 0 0 0 0 0 0 0 127 0" result="hardAlpha"/>
<feOffset dy="4"/>
<feGaussianBlur stdDeviation="2"/>
<feComposite in2="hardAlpha" operator="out"/>
<feColorMatrix type="matrix" values="0 0 0 0 0 0 0 0 0 0 0 0 0 0 0 0 0 0 0.25 0"/>
<feBlend mode="normal" in2="BackgroundImageFix" result="effect1_dropShadow_1295_1333"/>
<feBlend mode="normal" in="SourceGraphic" in2="effect1_dropShadow_1295_1333" result="shape"/>
</filter>
<linearGradient id="paint0_linear_1295_1333" x1="92.2864" y1="134.6" x2="330.55" y2="134.6" gradientUnits="userSpaceOnUse">
<stop stop-color="#F57A00"/>
<stop offset="1" stop-color="#7103A4"/>
</linearGradient>
<linearGradient id="paint1_linear_1295_1333" x1="224.299" y1="111.711" x2="270.772" y2="111.711" gradientUnits="userSpaceOnUse">
<stop stop-color="#F57A00"/>
<stop offset="1" stop-color="#7103A4"/>
</linearGradient>
<linearGradient id="paint2_linear_1295_1333" x1="223.983" y1="154.148" x2="270.456" y2="154.148" gradientUnits="userSpaceOnUse">
<stop stop-color="#F57A00"/>
<stop offset="1" stop-color="#7103A4"/>
</linearGradient>
<linearGradient id="paint3_linear_1295_1333" x1="260.86" y1="135.715" x2="307.333" y2="135.715" gradientUnits="userSpaceOnUse">
<stop stop-color="#F57A00"/>
<stop offset="1" stop-color="#7103A4"/>
</linearGradient>
<linearGradient id="paint4_linear_1295_1333" x1="150.952" y1="106.293" x2="197.425" y2="106.293" gradientUnits="userSpaceOnUse">
<stop stop-color="#F57A00"/>
<stop offset="1" stop-color="#7103A4"/>
</linearGradient>
<linearGradient id="paint5_linear_1295_1333" x1="187.208" y1="87.9147" x2="233.682" y2="87.9147" gradientUnits="userSpaceOnUse">
<stop stop-color="#F57A00"/>
<stop offset="1" stop-color="#7103A4"/>
</linearGradient>
<linearGradient id="paint6_linear_1295_1333" x1="151.159" y1="148.949" x2="197.632" y2="148.949" gradientUnits="userSpaceOnUse">
<stop stop-color="#F57A00"/>
<stop offset="1" stop-color="#7103A4"/>
</linearGradient>
<linearGradient id="paint7_linear_1295_1333" x1="187.576" y1="130.042" x2="234.049" y2="130.042" gradientUnits="userSpaceOnUse">
<stop stop-color="#F57A00"/>
<stop offset="1" stop-color="#7103A4"/>
</linearGradient>
<linearGradient id="paint8_linear_1295_1333" x1="188.202" y1="172.904" x2="234.676" y2="172.904" gradientUnits="userSpaceOnUse">
<stop stop-color="#F57A00"/>
<stop offset="1" stop-color="#7103A4"/>
</linearGradient>
<linearGradient id="paint9_linear_1295_1333" x1="124.177" y1="125.123" x2="151.35" y2="125.123" gradientUnits="userSpaceOnUse">
<stop stop-color="#F57A00"/>
<stop offset="1" stop-color="#7103A4"/>
</linearGradient>
<linearGradient id="paint10_linear_1295_1333" x1="123.219" y1="125.123" x2="152.31" y2="125.123" gradientUnits="userSpaceOnUse">
<stop stop-color="#F57A00"/>
<stop offset="1" stop-color="#7103A4"/>
</linearGradient>
<linearGradient id="paint11_linear_1295_1333" x1="158.986" y1="101.031" x2="166.646" y2="101.031" gradientUnits="userSpaceOnUse">
<stop stop-color="#F57A00"/>
<stop offset="1" stop-color="#7103A4"/>
</linearGradient>
<linearGradient id="paint12_linear_1295_1333" x1="157.822" y1="106.001" x2="167.812" y2="106.001" gradientUnits="userSpaceOnUse">
<stop stop-color="#F57A00"/>
<stop offset="1" stop-color="#7103A4"/>
</linearGradient>
<linearGradient id="paint13_linear_1295_1333" x1="161.335" y1="95.9865" x2="164.298" y2="95.9865" gradientUnits="userSpaceOnUse">
<stop stop-color="#F57A00"/>
<stop offset="1" stop-color="#7103A4"/>
</linearGradient>
<linearGradient id="paint14_linear_1295_1333" x1="172.707" y1="104.66" x2="175.67" y2="104.66" gradientUnits="userSpaceOnUse">
<stop stop-color="#F57A00"/>
<stop offset="1" stop-color="#7103A4"/>
</linearGradient>
<linearGradient id="paint15_linear_1295_1333" x1="139.22" y1="235.673" x2="243.952" y2="235.673" gradientUnits="userSpaceOnUse">
<stop stop-color="#F57A00"/>
<stop offset="1" stop-color="#7103A4"/>
</linearGradient>
<linearGradient id="paint16_linear_1295_1333" x1="8.45215" y1="97.4628" x2="181.408" y2="97.4628" gradientUnits="userSpaceOnUse">
<stop stop-color="#F57A00"/>
<stop offset="1" stop-color="#7103A4"/>
</linearGradient>
<linearGradient id="paint17_linear_1295_1333" x1="22.189" y1="97.8591" x2="167.671" y2="97.8591" gradientUnits="userSpaceOnUse">
<stop stop-color="#F57A00"/>
<stop offset="1" stop-color="#7103A4"/>
</linearGradient>
<linearGradient id="paint18_linear_1295_1333" x1="86.0308" y1="108.852" x2="103.829" y2="108.852" gradientUnits="userSpaceOnUse">
<stop stop-color="#F57A00"/>
<stop offset="1" stop-color="#7103A4"/>
</linearGradient>
<linearGradient id="paint19_linear_1295_1333" x1="215.848" y1="284.766" x2="414.966" y2="284.766" gradientUnits="userSpaceOnUse">
<stop stop-color="#F57A00"/>
<stop offset="1" stop-color="#7103A4"/>
</linearGradient>
<linearGradient id="paint20_linear_1295_1333" x1="290.5" y1="160.571" x2="354.024" y2="160.571" gradientUnits="userSpaceOnUse">
<stop stop-color="#F57A00"/>
<stop offset="1" stop-color="#7103A4"/>
</linearGradient>
<linearGradient id="paint21_linear_1295_1333" x1="315.332" y1="153.616" x2="323.348" y2="153.616" gradientUnits="userSpaceOnUse">
<stop stop-color="#F57A00"/>
<stop offset="1" stop-color="#7103A4"/>
</linearGradient>
</defs>
</svg>
