<svg width="415" height="242" viewBox="0 0 415 242" fill="none" xmlns="http://www.w3.org/2000/svg">
<path opacity="0.5" fill-rule="evenodd" clip-rule="evenodd" d="M122.502 207.367C189.618 207.367 244.029 212.601 244.029 219.06C244.029 225.519 189.618 230.754 122.502 230.754C55.3849 230.754 0.976074 225.519 0.976074 219.06C0.976074 212.601 55.3849 207.367 122.502 207.367Z" fill="#3A3A3A"/>
<g opacity="0.5">
<path fill-rule="evenodd" clip-rule="evenodd" d="M325.628 218.253C374.967 218.253 414.966 223.487 414.966 229.947C414.966 236.404 374.967 241.64 325.628 241.64C276.289 241.64 236.292 236.404 236.292 229.947C236.292 223.487 276.289 218.253 325.628 218.253Z" fill="#3A3A3A"/>
</g>
<path fill-rule="evenodd" clip-rule="evenodd" d="M288.925 51.9808C285.026 109.419 271.201 173.069 207.907 189.537L206.335 189.946L204.764 189.537C141.47 173.069 127.644 109.419 123.745 51.9808L123.37 46.4472L128.822 45.4246C155.216 40.4762 179.42 30.5845 203.732 19.4234L206.335 18.2285L208.938 19.4234C233.251 30.5845 257.454 40.4762 283.849 45.4246L289.3 46.4472L288.925 51.9808Z" fill="url(#paint0_linear_1269_1095)"/>
<path fill-rule="evenodd" clip-rule="evenodd" d="M282.698 51.3482C256.615 46.4585 233.349 37.2868 206.335 24.8853C179.321 37.287 156.054 46.4587 129.972 51.3482C135.295 129.798 158.56 170.859 206.335 183.29C254.11 170.859 277.374 129.798 282.698 51.3482Z" fill="url(#paint1_linear_1269_1095)"/>
<path fill-rule="evenodd" clip-rule="evenodd" d="M270.569 60.4199C248.234 55.1903 227.31 46.8681 206.335 37.394C185.36 46.8681 164.436 55.1905 142.102 60.4199C145.24 95.3133 153.745 138.454 182.414 159.795C189.654 165.186 197.735 168.945 206.335 171.478C214.935 168.945 223.016 165.186 230.256 159.795C258.925 138.455 267.429 95.3133 270.569 60.4199Z" fill="url(#paint2_linear_1269_1095)" fill-opacity="0.46"/>
<path fill-rule="evenodd" clip-rule="evenodd" d="M191.626 90.0477H221.044C221.044 86.196 221.044 82.3451 221.044 78.4943C221.044 74.4526 219.388 70.7759 216.72 68.1084C214.053 65.4408 210.376 63.7846 206.335 63.7846C202.294 63.7846 198.617 65.4408 195.95 68.1084C193.282 70.7759 191.626 74.4526 191.626 78.4943V90.0477ZM228.007 90.0477V90.1535C231.476 90.7478 234.138 93.7879 234.138 97.4198V131.542C234.138 135.597 230.82 138.914 226.766 138.914H185.904C181.85 138.914 178.532 135.597 178.532 131.542V97.4198C178.532 93.7879 181.194 90.7478 184.663 90.1535V78.4941C184.663 72.5307 187.1 67.1111 191.026 63.1845C194.952 59.2589 200.371 56.8213 206.335 56.8213C212.299 56.8213 217.717 59.2587 221.644 63.1845C225.57 67.1113 228.007 72.5307 228.007 78.4941C228.007 82.3451 228.007 86.196 228.007 90.0477Z" fill="url(#paint3_linear_1269_1095)"/>
<path fill-rule="evenodd" clip-rule="evenodd" d="M191.712 87.9808H221.13C221.13 84.1291 221.13 80.2782 221.13 76.4274C221.13 72.3857 219.474 68.7093 216.806 66.0415C214.139 63.3739 210.462 61.7178 206.421 61.7178C202.38 61.7178 198.703 63.3739 196.035 66.0415C193.368 68.7092 191.712 72.3857 191.712 76.4274L191.712 87.9808ZM228.093 87.9808V88.0867C231.562 88.6809 234.224 91.7212 234.224 95.3529V129.475C234.224 133.53 230.906 136.847 226.853 136.847H185.99C181.936 136.847 178.619 133.53 178.619 129.475V95.3529C178.619 91.7212 181.281 88.6809 184.749 88.0867V76.4273C184.749 70.4638 187.186 65.0445 191.113 61.1178C195.039 57.192 200.458 54.7544 206.421 54.7544C212.385 54.7544 217.803 57.1922 221.73 61.1178C225.656 65.0445 228.093 70.4638 228.093 76.4273C228.093 80.278 228.093 84.1291 228.093 87.9808Z" fill="white"/>
<path fill-rule="evenodd" clip-rule="evenodd" d="M206.336 100.546C210.675 100.546 214.194 104.065 214.194 108.404C214.194 111.931 211.87 114.916 208.67 115.91V125.407C208.67 126.69 207.619 127.741 206.336 127.741C205.051 127.741 204 126.69 204 125.407V115.91C200.8 114.916 198.477 111.931 198.477 108.404C198.477 104.065 201.995 100.546 206.336 100.546Z" fill="#534C4C"/>
<path fill-rule="evenodd" clip-rule="evenodd" d="M73.7197 16.7832C73.6376 20.0342 74.3561 26.3089 74.4556 30.117C74.5622 34.2149 74.0993 40.2332 74.3705 44.3217L78.2316 46.785C78.258 45.2868 78.2216 44.0033 78.3054 42.7787C78.301 43.229 78.3102 45.0648 78.3884 46.8844L82.7599 49.177C81.72 38.4917 82.3683 35.8065 82.1026 22.9365C82.1956 22.0654 73.7197 16.7832 73.7197 16.7832Z" fill="black"/>
<path fill-rule="evenodd" clip-rule="evenodd" d="M151.782 73.8986C132.674 68.0163 129.192 73.58 124.04 72.8725C125.379 69.742 126.723 66.9016 128.073 64.3491C138.099 65.9082 139.118 68.3277 153.891 68.1633C156.535 66.3521 159.444 65.1723 161.218 65.4928C161.705 66.6074 161.181 67.421 159.646 67.936C159.232 68.5139 159.066 69.0516 159.149 69.5508C162.976 71.1859 166.344 72.1932 169.253 72.5729C169.593 76.0211 167.463 78.2131 162.862 79.1516C158.17 77.9392 154.477 76.188 151.782 73.8986Z" fill="#FFA89C"/>
<path fill-rule="evenodd" clip-rule="evenodd" d="M60.1551 75.0889C62.9971 80.8946 66.3211 86.6835 69.6317 91.2875C70.3901 90.4743 71.1232 88.7102 72.199 88.0339C72.627 87.7644 73.3088 88.4601 73.7636 88.2455C75.9337 87.2233 78.3421 86.9292 80.2868 88.3863C80.7734 88.7516 81.0343 89.4663 81.1055 91.16C81.0234 93.4869 79.0741 93.9299 76.3646 92.8331C72.7355 96.791 70.3218 98.078 68.3434 96.6951C59.3899 88.6584 53.4622 81.9954 50.5608 76.7066C53.5463 74.4363 56.7451 73.8975 60.1551 75.0889Z" fill="#F9AF79"/>
<path fill-rule="evenodd" clip-rule="evenodd" d="M89.4914 10.874C89.4914 10.874 89.4019 13.4203 90.5474 13.9186C91.6934 14.4117 90.7101 21.6258 90.8936 25.3324C91.1372 30.2797 90.7912 35.0902 91.1977 40.0183L95.115 42.8378C95.0903 41.0265 95.011 39.477 95.0528 37.9945C95.0637 38.5374 95.1344 40.7562 95.2728 42.9518L99.6915 45.5429C98.3001 32.6745 98.942 31.8842 98.2453 16.3425C98.3094 15.2865 89.4914 10.874 89.4914 10.874Z" fill="black"/>
<path fill-rule="evenodd" clip-rule="evenodd" d="M96.049 6.1751L82.7058 26.4208C82.7058 26.4208 81.1805 23.4325 79.486 24.5034C76.8427 26.1743 71.8655 20.3597 73.0494 12.2843C74.9328 -0.46044 87.1419 -1.05116 92.9785 2.39058C94.4495 3.25802 95.7057 5.03295 96.049 6.1751Z" fill="black"/>
<path fill-rule="evenodd" clip-rule="evenodd" d="M101.913 47.0731C100.047 48.781 97.6212 50.3157 94.4777 51.5044C82.6951 55.9676 76.634 46.3231 73.9243 39.5042C75.4554 38.3292 76.9862 37.9047 77.8728 37.6774C78.7373 37.4529 79.6529 37.2576 80.4152 37.117C81.6369 35.8854 83.0914 31.3268 82.6375 24.6167L83.2301 24.6914L93.174 26.009C93.174 26.009 93.1491 29.1183 93.3273 32.0308C93.4667 34.304 93.7333 36.4606 94.232 36.9323C95.0015 36.9936 95.4645 37.0364 95.4645 37.0364L95.4706 37.0458C95.6289 37.2395 99.0317 41.4345 101.913 47.0731Z" fill="#FFA89C"/>
<path fill-rule="evenodd" clip-rule="evenodd" d="M93.1758 26.0139C93.1758 26.0139 93.1485 29.1188 93.3274 32.0312C87.8213 32.2238 84.5967 27.397 83.2302 24.6919L93.1758 26.0139Z" fill="#ED7D57"/>
<path fill-rule="evenodd" clip-rule="evenodd" d="M92.4682 30.8907C88.917 30.2243 81.729 27.8626 81.6727 21.596C81.1477 13.4997 79.118 8.17623 87.3895 7.17208C95.6599 6.16147 97.4742 9.14865 98.3058 11.8109C99.8066 15.5394 99.1666 32.1479 92.4682 30.8907Z" fill="#FFA89C"/>
<path fill-rule="evenodd" clip-rule="evenodd" d="M86.1973 52.9351C86.1973 52.8491 86.2685 52.7788 86.3544 52.7788C86.44 52.7788 86.5103 52.8491 86.5103 52.9351C86.5103 53.0192 86.44 53.0902 86.3524 53.0902C86.2685 53.0904 86.1973 53.0192 86.1973 52.9351Z" fill="url(#paint4_linear_1269_1095)"/>
<path fill-rule="evenodd" clip-rule="evenodd" d="M87.2207 52.9351C87.2207 52.8491 87.291 52.7788 87.377 52.7788C87.4646 52.7788 87.5329 52.8491 87.5329 52.9395C87.5329 53.0236 87.4626 53.0902 87.3751 53.0902C87.291 53.0904 87.2207 53.0238 87.2207 52.9351Z" fill="url(#paint5_linear_1269_1095)"/>
<path fill-rule="evenodd" clip-rule="evenodd" d="M101.513 51.9519C101.333 51.3866 101.646 50.7776 102.213 50.5979C102.782 50.4188 103.386 50.7304 103.567 51.2971C103.747 51.8679 103.434 52.4723 102.865 52.6511C102.299 52.8311 101.692 52.5197 101.513 51.9519Z" fill="#6D96CE"/>
<path fill-rule="evenodd" clip-rule="evenodd" d="M101.697 51.8908C101.517 51.3246 101.832 50.7213 102.399 50.5413C102.965 50.3581 103.571 50.6747 103.752 51.2408C103.932 51.8067 103.618 52.4158 103.05 52.5946C102.483 52.7735 101.877 52.463 101.697 51.8908Z" fill="white"/>
<path fill-rule="evenodd" clip-rule="evenodd" d="M102.057 51.5654C102.057 51.4813 102.127 51.4092 102.213 51.4092C102.299 51.4092 102.371 51.4813 102.371 51.5654C102.371 51.6496 102.299 51.7206 102.213 51.7206C102.125 51.7208 102.057 51.6496 102.057 51.5654Z" fill="url(#paint6_linear_1269_1095)"/>
<path fill-rule="evenodd" clip-rule="evenodd" d="M103.079 51.5654C103.079 51.4813 103.149 51.4092 103.235 51.4092C103.321 51.4092 103.393 51.4813 103.393 51.5654C103.393 51.6557 103.321 51.7206 103.235 51.7206C103.149 51.7208 103.079 51.6557 103.079 51.5654Z" fill="url(#paint7_linear_1269_1095)"/>
<path fill-rule="evenodd" clip-rule="evenodd" d="M82.7844 33.7573C80.564 35.0356 79.8832 37.1382 78.3795 37.9187C74.0192 38.3294 69.7209 38.6663 67.6752 40.084C59.6721 49.7578 53.2083 58.3115 48.2809 65.7428C44.2047 71.774 57.941 89.0231 62.0047 91.6928L67.7418 87.905C68.7022 87.2714 58.9736 72.7259 57.649 70.4828C63.4069 65.4298 69.2282 60.3456 72.9092 56.1312C72.229 61.6598 74.231 69.5262 78.9175 79.7295C95.2227 80.791 104.577 80.5328 106.979 78.9571C107.773 74.395 108.402 69.4167 108.868 64.0264C112.611 67.3759 115.642 70.3513 117.964 72.9506C120.106 73.6554 127.464 74.4203 134.32 74.5372C140.541 74.6431 146.315 74.1312 148.078 74.2151C150.185 74.3144 149.629 73.1084 150.19 72.4428C151.519 70.8652 151.302 68.7711 151.978 67.5084C150.323 67.796 125.091 62.8038 122.771 62.0535C116.113 52.5579 110.364 44.8935 105.525 39.0559C101.768 38.1796 98.9641 37.7223 97.1144 37.683C96.3237 36.7489 95.1508 35.9483 93.5967 35.281C94.5023 40.2667 94.3171 44.2454 92.7676 48.8714C85.6449 43.6501 83.6722 38.4334 82.7844 33.7573Z" fill="#A535C5"/>
<path fill-rule="evenodd" clip-rule="evenodd" d="M70.6907 122.508C67.3098 101.562 70.0515 87.3024 78.9174 79.7295C92.6877 80.6251 103.124 79.942 106.979 78.957C107.02 80.4305 106.946 84.1106 107.256 86.3921C109.653 104.05 111.069 130.161 110.679 157.089C100.962 160.503 85.7446 160.359 65.0276 156.66C67.394 146.186 69.2809 134.801 70.6907 122.508Z" fill="#1B1425"/>
<path fill-rule="evenodd" clip-rule="evenodd" d="M97.1143 37.6832C97.9524 40.1419 98.3987 42.1732 98.4555 43.7746C97.496 43.0123 96.7885 42.4907 96.3311 42.209C93.8899 48.2208 93.553 47.9605 92.7678 48.8717C93.9631 44.8628 95.2886 40.5217 93.5969 35.2812C95.1506 35.9485 96.3236 36.7492 97.1143 37.6832Z" fill="white"/>
<path fill-rule="evenodd" clip-rule="evenodd" d="M82.7844 33.7573C83.6719 38.4334 85.6446 43.6501 92.7678 48.8716C88.5115 47.3597 85.8906 45.2608 83.2248 40.3425C82.7835 42.0069 82.2258 43.9527 81.5504 46.1785C79.6987 43.884 78.6409 41.1315 78.3796 37.9189C79.8832 37.1382 80.5641 35.0356 82.7844 33.7573Z" fill="white"/>
<path fill-rule="evenodd" clip-rule="evenodd" d="M69.2894 215.752C71.789 225.081 70.9456 230.048 66.2336 230.729C59.9761 231.181 58.2791 225 60.7349 212.258C60.6801 212.953 60.6381 213.594 60.6115 214.168C59.9197 227.513 70.2707 224.527 69.5503 218.381C69.4498 217.525 69.3677 216.648 69.2894 215.752Z" fill="#1B1425"/>
<path fill-rule="evenodd" clip-rule="evenodd" d="M69.5502 218.381C70.2706 224.527 59.9195 227.513 60.6113 214.168C60.6377 213.594 60.68 212.953 60.7348 212.258C61.1583 206.823 62.3079 198.116 62.2221 192.628C62.0018 178.606 63.2473 166.672 65.9597 156.825C70.9788 157.702 75.6699 158.367 80.0329 158.82C77.6737 167.015 75.6286 174.512 73.8977 181.31C71.7714 189.659 67.8044 202.011 68.7976 210.489C69.0115 212.305 69.1428 214.063 69.2891 215.752C69.3675 216.648 69.4496 217.525 69.5502 218.381Z" fill="#FFA89C"/>
<path fill-rule="evenodd" clip-rule="evenodd" d="M110.946 219.991C107.335 220.187 110.632 222.995 108.281 223.627C103.141 220.817 100.294 213.155 98.2436 209.772C97.1636 207.992 96.3819 210.256 95.8499 212.791C94.7068 218.234 94.7406 225.42 96.0334 227.655C96.9727 226.018 97.7807 220.977 98.6362 217.898C103.679 222.383 102.577 227.33 105.57 229.015C112.743 229.808 116.622 230.006 122.07 230.125C123.267 225.495 113.793 227.058 110.946 219.991Z" fill="#1B1425"/>
<path fill-rule="evenodd" clip-rule="evenodd" d="M108.268 157.833C107.582 184.746 105.102 208.727 109.59 220.326C108.343 221.132 110.206 223.109 108.281 223.627C103.14 220.817 100.294 213.155 98.2435 209.772C98.2326 209.752 98.2206 209.734 98.2098 209.716C98.4968 209 98.702 208.177 98.8261 207.249C98.7367 184.927 93.1556 171.16 94.2339 159.537C99.667 159.457 104.345 158.889 108.268 157.833Z" fill="#FFA89C"/>
<path fill-rule="evenodd" clip-rule="evenodd" d="M148.121 74.1488C148.876 71.5822 148.808 69.7582 150.8 67.1562C152.144 67.4559 153.199 67.3169 154.011 67.7186C152.354 69.4448 151.299 71.4472 151.352 74.0526C151.329 74.1165 151.305 74.1796 151.28 74.2434C149.984 74.5266 149.287 74.419 148.121 74.1488Z" fill="#A535C5"/>
<path fill-rule="evenodd" clip-rule="evenodd" d="M67.7891 87.5547C68.4675 88.3589 68.3459 88.5561 68.4227 89.4855C68.4236 89.501 68.3898 89.491 68.3743 89.4936C66.4634 89.8071 65.0038 90.8651 63.9923 92.669C63.7229 93.1501 63.0966 92.4755 61.427 91.3735C63.322 88.7387 65.4239 87.6657 67.7891 87.5547Z" fill="url(#paint8_linear_1269_1095)"/>
<path fill-rule="evenodd" clip-rule="evenodd" d="M92.7521 49.0157C93.6707 50.7456 94.2201 53.4059 94.4062 55.3216C94.6311 57.645 94.4948 59.9985 94.0374 62.2874C93.716 63.8922 93.5782 65.5583 93.5498 67.1935C93.5179 68.9895 93.6149 70.8181 93.8531 72.5982C94.1706 74.9703 94.2911 77.2588 94.2712 79.6473L94.2702 79.7394C94.2693 79.7907 94.313 79.8353 94.3643 79.8353C94.4162 79.8353 94.4603 79.7922 94.461 79.7403L94.4619 79.6472C94.4822 77.2507 94.3614 74.9526 94.0429 72.5725C93.8066 70.8015 93.7096 68.9817 93.7408 67.1972C93.7692 65.571 93.907 63.9178 94.2265 62.3226C94.6883 60.0175 94.8228 57.6457 94.5953 55.305C94.4071 53.3694 93.8485 50.6733 92.9218 48.925C92.8973 48.8783 92.8377 48.8611 92.7914 48.8857C92.7457 48.9108 92.7283 48.97 92.7521 49.0157Z" fill="white"/>
<path fill-rule="evenodd" clip-rule="evenodd" d="M74.0903 19.9033C74.1176 22.8761 75.0478 28.5866 75.2762 32.0642C75.5219 35.8044 75.2627 41.3179 75.6717 45.0447L79.614 47.1764C79.5902 45.807 79.5096 44.6355 79.5518 43.5144C79.5638 43.9254 79.6339 45.6024 79.7737 47.262L84.2206 49.2221C82.8192 39.491 83.3771 37.0179 82.6759 25.2661C82.7397 24.4673 74.0903 19.9033 74.0903 19.9033Z" fill="black"/>
<path fill-rule="evenodd" clip-rule="evenodd" d="M93.6384 35.1177C93.8558 38.7802 93.6185 44.2227 94.0192 47.8742L95.1944 48.9287C95.1697 47.5593 95.0894 46.3882 95.1322 45.2662C95.1431 45.6777 95.2134 47.3547 95.3541 49.0147L99.8009 50.9748C98.961 45.1402 99.0167 40.6994 98.9171 37.0594L93.6384 35.1177Z" fill="black"/>
<path fill-rule="evenodd" clip-rule="evenodd" d="M95.5605 6.79555C94.6285 6.27161 94.3154 5.67185 94.6211 4.99443C96.0099 4.31128 97.3455 4.23749 98.6299 4.77249C97.8614 4.83927 96.8377 5.51301 95.5605 6.79555Z" fill="black"/>
<path fill-rule="evenodd" clip-rule="evenodd" d="M93.553 6.60536C94.3108 7.35861 94.9737 7.49661 95.5425 7.01695C95.8197 5.49514 95.5266 4.18973 94.6614 3.09961C94.8075 3.85839 94.4378 5.02581 93.553 6.60536Z" fill="black"/>
<path fill-rule="evenodd" clip-rule="evenodd" d="M72.1996 88.0337C71.1242 88.7101 70.3902 90.475 69.6308 91.2873C69.2145 90.7077 68.7973 90.1097 68.3809 89.4943C66.4791 89.8066 65.0176 90.8364 63.9924 92.6697C65.3528 93.9699 66.8034 95.312 68.3437 96.694C68.8641 97.0582 69.4146 97.2373 70.0098 97.2318C71.6758 97.2154 73.6908 95.7489 76.3649 92.8329C78.4265 91.4967 80.6021 91.9053 81.1058 91.1598C81.0345 89.4661 80.7554 88.7748 80.287 88.3852C76.868 85.5449 74.8556 86.7601 72.7375 88.0299C72.5403 87.9651 72.3533 87.9367 72.1996 88.0337Z" fill="#FFA89C"/>
<path fill-rule="evenodd" clip-rule="evenodd" d="M91.8228 49.1479C92.0438 49.1479 92.2239 49.3276 92.2239 49.5486C92.2239 49.7697 92.0438 49.9493 91.8228 49.9493C91.6018 49.9493 91.4221 49.7697 91.4221 49.5486C91.4221 49.3276 91.6018 49.1479 91.8228 49.1479Z" fill="#525252"/>
<path fill-rule="evenodd" clip-rule="evenodd" d="M93.0964 55.6587C93.3175 55.6587 93.4971 55.8375 93.4971 56.0594C93.4971 56.2804 93.3175 56.4592 93.0964 56.4592C92.8754 56.4592 92.6956 56.2804 92.6956 56.0594C92.6956 55.8375 92.8756 55.6587 93.0964 55.6587Z" fill="#525252"/>
<path fill-rule="evenodd" clip-rule="evenodd" d="M92.274 63.1455C92.495 63.1455 92.6747 63.3256 92.6747 63.5466C92.6747 63.7676 92.495 63.9463 92.274 63.9463C92.053 63.9463 91.874 63.7676 91.874 63.5466C91.874 63.3256 92.053 63.1455 92.274 63.1455Z" fill="#525252"/>
<path fill-rule="evenodd" clip-rule="evenodd" d="M92.4327 70.6895C92.6546 70.6895 92.8334 70.8686 92.8334 71.0894C92.8334 71.3102 92.6546 71.4901 92.4327 71.4901C92.2117 71.4901 92.0327 71.3104 92.0327 71.0894C92.0327 70.8684 92.2118 70.6895 92.4327 70.6895Z" fill="#525252"/>
<path fill-rule="evenodd" clip-rule="evenodd" d="M92.7831 76.8833C93.005 76.8833 93.184 77.0621 93.184 77.2829C93.184 77.5048 93.0048 77.684 92.7831 77.684C92.5621 77.684 92.3833 77.5048 92.3833 77.2829C92.3833 77.0621 92.5621 76.8833 92.7831 76.8833Z" fill="#525252"/>
<path fill-rule="evenodd" clip-rule="evenodd" d="M97.8549 7.38726C95.2026 5.00907 93.3823 5.65993 92.3971 6.46963C83.3845 2.91942 78.2217 9.15665 78.2217 9.15665C77.6107 15.1849 72.7346 18.8806 72.7346 18.8806C72.7346 18.8806 75.7531 20.2272 82.3381 18.4285C84.3485 17.8765 86.0822 16.5617 87.5238 15.0004C85.1019 18.9519 81.6225 21.8958 81.6225 21.8958C89.3854 18.3646 92.8648 10.1414 93.1102 9.13821C98.5825 13.4675 95.9461 13.6009 99.0508 17.7549C99.0508 17.7549 101.833 10.9408 97.8549 7.38726Z" fill="black"/>
<path fill-rule="evenodd" clip-rule="evenodd" d="M94.7554 7.83366C92.8545 7.65046 91.7837 8.21074 91.5408 9.51652C92.8783 11.934 94.7619 13.4045 97.1902 13.9314C96.1313 13.0496 95.3197 11.0164 94.7554 7.83366Z" fill="black"/>
<path fill-rule="evenodd" clip-rule="evenodd" d="M346.473 35.2101C345.783 34.3537 345.201 33.2116 344.729 31.7838C344.979 31.0225 345.238 30.0582 345.502 28.8952C350.367 25.4357 350.989 22.9408 347.366 21.4099C346.653 21.8305 345.781 23.0998 344.754 25.2142C343.899 25.1978 344.704 22.9635 344.245 22.1329C345.189 18.5814 344.324 17.5077 344.587 15.2992C342.074 11.7361 335.987 10.7821 328.475 11.9178C327.836 18.8417 325.698 35.1773 334.07 34.6496L334.132 35.5599C334.582 38.3873 334.582 41.4036 335.297 43.8532L335.628 44.4767C338.34 42.8999 342.028 39.851 346.473 35.2101Z" fill="#FFA89C"/>
<path fill-rule="evenodd" clip-rule="evenodd" d="M328.863 12.4793C336.375 11.3427 342.075 11.7362 344.587 15.2993C344.325 17.5078 344.939 18.8573 343.996 22.4102C344.454 23.2412 343.899 25.1978 344.755 25.2142C345.782 23.0998 346.653 21.8306 347.366 21.41C350.988 22.9417 350.367 25.436 345.502 28.8952C345.237 30.0582 344.979 31.0225 344.729 31.7839C353.275 26.7624 357.017 14.6001 349.229 8.89381C347.65 -1.18863 333.158 8.06511 325.695 3.34766C322.858 7.45077 326.582 12.4374 328.863 12.4793Z" fill="black"/>
<path fill-rule="evenodd" clip-rule="evenodd" d="M339.752 33.9438C338.376 34.3265 335.66 34.6982 334.07 34.6499L334.012 35.6501C334.099 36.1981 334.075 36.9111 334.2 37.4579C334.216 37.4524 334.486 37.1932 334.502 37.1876C336.961 36.3289 338.711 35.2476 339.752 33.9438Z" fill="#ED7D57"/>
<path fill-rule="evenodd" clip-rule="evenodd" d="M350.039 12.3642C349.327 11.3437 349.273 10.4563 349.877 9.70194C351.576 9.34607 352.957 9.75121 354.019 10.919C353.214 10.7162 351.888 11.1983 350.039 12.3642Z" fill="black"/>
<path fill-rule="evenodd" clip-rule="evenodd" d="M348.282 9.20915C348.983 9.9934 349.626 10.167 350.212 9.72867C350.573 8.24966 350.36 6.95052 349.574 5.82959C349.673 6.58265 349.242 7.70911 348.282 9.20915Z" fill="black"/>
<path fill-rule="evenodd" clip-rule="evenodd" d="M334.152 11.9417C334.091 9.75964 333.241 8.45294 331.602 8.02051C328.836 9.29142 327.313 11.3034 327.033 14.0578C327.956 12.932 330.33 12.2273 334.152 11.9417Z" fill="black"/>
<path fill-rule="evenodd" clip-rule="evenodd" d="M339.173 4.26007C338.84 5.18766 339.275 6.40083 337.962 6.68402C337.094 10.6846 333.937 5.2882 334 3.79443C334.559 4.21524 336.283 4.37058 339.173 4.26007Z" fill="black"/>
<path fill-rule="evenodd" clip-rule="evenodd" d="M276.694 74.1326C276.108 73.9326 274.142 73.4723 271.847 72.7029C269.491 73.6614 266.389 73.3773 262.539 71.852C261.073 69.5277 260.939 67.163 262.138 64.759C265.174 66.2051 267.839 66.7619 270.134 66.4315C267.282 64.5529 266.842 63.4382 268.808 63.0864C268.998 63.5294 269.406 63.8935 270.032 64.1811C272.014 64.5007 273.433 65.8417 274.287 68.2044C275.345 68.4901 276.437 68.7503 276.998 68.9265C276.425 70.2891 276.314 71.9267 276.694 74.1326Z" fill="#FFA89C"/>
<path fill-rule="evenodd" clip-rule="evenodd" d="M324.448 56.5471C326.687 61.5125 329.206 66.0218 332.001 70.0735C331.177 57.7121 330.76 47.295 330.747 38.8228C329.493 39.5255 328.559 40.1986 327.869 40.9307C327.736 41.086 327.609 41.2421 327.487 41.398C326.163 46.1283 325.306 49.8311 324.916 52.5069C326.153 53.073 327.198 53.5623 328.052 53.9759C326.892 54.7567 325.69 55.614 324.448 56.5471Z" fill="white"/>
<path fill-rule="evenodd" clip-rule="evenodd" d="M350.617 38.9697C357.725 43.0909 366.551 49.2012 371.066 52.3847C374.114 63.9996 375.765 76.5471 376.02 90.0272C375.605 105.518 374.062 116.728 372.234 122.769C369.567 122.885 366.728 122.623 365.675 121.61C365.099 107.983 364.952 96.9262 365.237 88.4368C363.286 83.9597 361.573 80.6147 360.096 78.3997C359.451 83.0109 358.562 87.0096 358.351 91.1299C359.104 99.5691 359.471 109.648 361.727 121.365C358.916 124.06 352.7 125.666 343.078 126.186C341.275 103.999 340.821 85.6834 341.717 71.2373C344.843 68.7722 346.532 62.9687 351.14 57.4353C350.197 56.1917 348.508 56.0356 347.566 52.9682C348.595 52.6304 349.953 51.7932 351.641 50.4592C351.772 47.9687 350.873 43.7027 350.617 38.9697Z" fill="#A535C5"/>
<path fill-rule="evenodd" clip-rule="evenodd" d="M332.001 70.0738C329.245 99.4948 328.091 118.622 326.469 125.253C321.857 124.747 318.303 122.584 316.156 120.449C316.733 103.712 318.688 93.021 319.513 83.2369C318.023 67.1707 314.973 52.3998 318.261 45.5342C321.792 43.156 324.868 41.7776 327.487 41.3984C326.163 46.1288 325.306 49.8316 324.916 52.5074C326.153 53.0735 327.199 53.5628 328.052 53.9764C326.892 54.7571 325.69 55.6144 324.448 56.5475C326.687 61.5128 329.205 66.0221 332.001 70.0738Z" fill="#A535C5"/>
<path fill-rule="evenodd" clip-rule="evenodd" d="M314.091 50.3133C315.41 48.6982 316.799 47.1051 318.261 45.5337C315.982 50.2919 316.748 58.8485 317.929 69.0005C315.631 71.8498 310.686 76.937 306.452 80.1029C297.762 80.6034 288.453 78.5881 274.101 74.2454C273.521 72.7525 273.708 70.274 274.287 68.2052C288.265 69.0114 296.804 68.8763 302.41 70.3186C306.042 61.2724 310.646 55.9097 314.091 50.3133Z" fill="#A535C5"/>
<path fill-rule="evenodd" clip-rule="evenodd" d="M341.776 46.0688C344.306 42.7512 346.382 39.7803 348.688 37.8899C348.439 36.8782 348.301 36.0631 348.024 35.2988C347.894 34.9364 347.109 34.512 346.066 34.3164C346.161 34.4826 346.37 35.1874 346.197 35.2967C346.153 35.3241 346.117 35.3619 346.077 35.3947C343.628 37.3729 341.044 39.0811 337.872 40.5839C339.386 42.3485 340.437 44.202 341.776 46.0688Z" fill="white"/>
<path fill-rule="evenodd" clip-rule="evenodd" d="M331.84 38.717C331.774 40.8753 331.827 42.6454 331.997 44.0296C332.517 42.4412 333.477 41.1444 334.876 40.1412C334.76 38.505 334.068 37.2326 334.143 35.6387C332.619 36.2119 332.629 36.826 331.84 38.717Z" fill="white"/>
<path fill-rule="evenodd" clip-rule="evenodd" d="M333.147 45.3773C334.008 43.9894 335.006 43.1688 336.141 42.9141C336.986 43.2828 337.894 44.1427 338.864 45.4932C338.107 46.7975 337.306 47.7086 336.458 48.2267C338.05 58.2529 338.787 72.2137 338.666 90.1076C337.459 92.7717 336.276 94.6972 335.118 95.881C333.72 93.8177 332.852 91.6879 332.515 89.4914C333.619 70.7107 334.276 57.0072 334.486 48.3798C333.69 47.3328 333.243 46.3322 333.147 45.3773Z" fill="white"/>
<path fill-rule="evenodd" clip-rule="evenodd" d="M338.862 41.8277C339.419 42.5773 339.926 43.3387 340.437 44.1074C339.97 44.4185 339.372 44.7811 338.643 45.1937C337.996 44.3338 337.377 43.6954 336.786 43.2818C337.494 42.7579 338.186 42.2731 338.862 41.8277ZM334.266 40.6216C334.529 41.5466 334.894 42.4026 335.358 43.1898C334.716 43.5038 334.121 44.0223 333.578 44.7453C333.27 44.2631 333.016 43.4455 332.812 42.2941C333.206 41.6759 333.69 41.1182 334.266 40.6216Z" fill="white"/>
<path fill-rule="evenodd" clip-rule="evenodd" d="M317.597 177.333C317.532 162.278 318.038 144.556 319.117 124.166V124.164L319.19 122.8C321.153 123.988 323.607 124.939 326.469 125.253C327.152 122.461 327.751 117.453 328.424 110.394C328.831 110.524 329.241 110.645 329.656 110.757H329.657C330.578 111.004 331.512 111.203 332.458 111.353V111.872C332.458 112.141 332.685 112.368 332.961 112.377L337.82 112.513C338.096 112.521 338.322 112.307 338.322 112.037V111.668C339.201 111.629 340.091 111.55 340.993 111.438V111.437C341.339 111.393 341.687 111.344 342.035 111.289C342.309 116.044 342.657 121.01 343.078 126.186C350.006 125.812 355.169 124.873 358.566 123.372C358.619 123.769 358.672 124.168 358.724 124.566C360.695 139.732 361.788 156.089 362.001 173.636C365.268 180.644 366.161 197.76 364.681 224.987C361.898 225.605 358.743 225.605 355.217 224.987C352.437 212.738 350.018 196.622 347.96 176.638C345.066 167.07 342.07 153.624 338.971 136.296C338.346 148.05 336.663 161.343 333.923 176.177C334.848 187.133 333.243 203.225 329.112 224.448C326.941 224.657 323.524 224.349 318.858 223.526C319.333 206.265 318.913 190.868 317.597 177.333Z" fill="#1B1425"/>
<path fill-rule="evenodd" clip-rule="evenodd" d="M364.986 229.545C364.538 229.975 364.394 229.852 364.078 229.642C363.563 226.828 358.258 226.501 356.941 229.372C356.549 229.219 356.274 228.975 356.113 228.64C355.187 230.46 353.091 232.243 353.649 235.416C355.059 237.443 362.317 238.45 365.755 234.299C366.729 232.721 365.527 230.72 364.986 229.545ZM328.384 226.454C329.273 228.861 329.471 230.837 328.424 231.613C325.755 232.148 320.286 232.084 311.863 233.191C305.915 232.764 303.339 231.07 304.844 229.188C310.012 229.508 314.678 228.161 318.842 225.146C319.617 228.295 322.799 228.73 328.384 226.454Z" fill="#1B1425"/>
<path fill-rule="evenodd" clip-rule="evenodd" d="M364.441 225.037C364.584 226.721 364.726 228.259 364.865 229.654C364.51 229.95 364.363 229.832 364.078 229.642C363.563 226.828 358.258 226.501 356.941 229.372L356.932 229.368L356.923 229.366V229.365L356.915 229.362L356.906 229.358L356.905 229.357L356.896 229.355L356.888 229.351L356.887 229.35L356.879 229.347L356.871 229.344L356.869 229.343L356.863 229.34L356.854 229.336L356.851 229.335L356.846 229.332L356.837 229.329L356.834 229.328L356.829 229.325L356.82 229.32L356.816 229.319L356.812 229.317L356.804 229.313L356.8 229.311L356.796 229.308L356.787 229.305L356.783 229.303L356.78 229.301L356.771 229.296L356.767 229.294L356.763 229.293L356.756 229.288L356.75 229.286L356.748 229.285L356.739 229.28L356.734 229.278L356.731 229.276L356.724 229.272L356.718 229.269L356.716 229.268L356.709 229.263L356.701 229.26L356.7 229.259L356.693 229.254L356.686 229.251H356.685L356.677 229.246L356.67 229.242L356.647 229.228L356.64 229.223L356.639 229.222L356.632 229.219L356.625 229.214L356.624 229.214L356.617 229.209L356.61 229.204L356.609 229.203L356.604 229.2L356.596 229.196L356.594 229.194L356.589 229.19L356.582 229.186L356.579 229.184L356.575 229.181L356.568 229.176L356.565 229.174L356.554 229.166L356.551 229.164L356.547 229.161L356.54 229.155L356.536 229.153L356.533 229.151L356.526 229.146L356.522 229.143L356.52 229.14L356.512 229.136L356.509 229.132L356.5 229.125L356.494 229.121L356.492 229.119L356.486 229.115L356.482 229.11L356.48 229.109L356.473 229.104L356.468 229.099L356.467 229.098L356.461 229.093L356.455 229.088L356.454 229.088C356.686 227.958 356.883 226.682 357.045 225.257C359.745 225.573 362.211 225.501 364.441 225.037ZM319.808 223.687C319.605 224.431 319.332 225.082 318.993 225.641C319.023 225.723 319.055 225.803 319.089 225.881C319.242 226.231 319.435 226.535 319.67 226.793L319.673 226.796C319.751 226.882 319.832 226.961 319.919 227.037L319.923 227.041C319.949 227.063 319.977 227.086 320.004 227.109L320.016 227.118C320.315 227.357 320.663 227.539 321.059 227.667L321.068 227.67C321.103 227.681 321.139 227.692 321.175 227.702L321.195 227.708C321.232 227.718 321.268 227.728 321.306 227.737L321.317 227.74C321.356 227.75 321.397 227.759 321.437 227.768L321.444 227.77C321.484 227.778 321.525 227.787 321.565 227.794L321.585 227.798L321.702 227.819L321.714 227.82C322.115 227.883 322.556 227.902 323.036 227.875L323.057 227.874L323.201 227.865L323.223 227.863L323.366 227.851L323.397 227.848L323.541 227.833L323.566 227.83L323.724 227.811L323.727 227.81L323.891 227.788L323.929 227.782C324.326 227.723 324.745 227.638 325.185 227.529L325.234 227.517L325.406 227.472L325.428 227.467L325.596 227.421L325.649 227.406L325.804 227.363L325.858 227.347L326.014 227.302L326.079 227.281L326.237 227.233L326.282 227.219L326.458 227.163L326.505 227.147L326.681 227.09L326.721 227.076L326.905 227.013L326.951 226.998L327.135 226.933L327.362 226.85C327.506 226.798 327.653 226.743 327.801 226.685L327.834 226.672L328.063 226.583C328.055 225.908 328.089 225.215 328.168 224.504C326.172 224.559 323.386 224.287 319.808 223.687Z" fill="#FFA89C"/>
<path fill-rule="evenodd" clip-rule="evenodd" d="M316.825 52.7671C316.648 57.2617 317.211 62.837 317.929 69.0004C315.63 71.8498 310.686 76.937 306.451 80.1029C297.762 80.6034 288.452 78.5875 274.101 74.2453C284.531 76.6045 295.196 78.0029 306.093 78.4394C308.299 76.8519 311.69 73.503 316.266 68.3924C316.122 64.4876 316.309 59.2794 316.825 52.7671Z" fill="#A535C5"/>
<path fill-rule="evenodd" clip-rule="evenodd" d="M342.036 111.288C337.195 112.05 332.659 111.752 328.424 110.393C328.551 109.065 328.679 107.665 328.812 106.193C333.478 107.061 337.803 107.191 341.785 106.581C341.861 108.127 341.944 109.696 342.036 111.288Z" fill="url(#paint9_linear_1269_1095)"/>
<path fill-rule="evenodd" clip-rule="evenodd" d="M337.821 106.3L332.96 106.163C332.683 106.156 332.459 106.374 332.459 106.651V111.86C332.459 112.136 332.684 112.368 332.96 112.375L337.821 112.512C338.097 112.52 338.322 112.302 338.322 112.026V106.815C338.322 106.539 338.097 106.308 337.821 106.3Z" fill="white"/>
<path fill-rule="evenodd" clip-rule="evenodd" d="M337.356 107.23V111.556L333.425 111.446V107.12L337.356 107.23Z" fill="url(#paint10_linear_1269_1095)"/>
<path fill-rule="evenodd" clip-rule="evenodd" d="M345.767 134.863L347.758 181.083L398.178 175.775L392.208 134.863H345.767Z" fill="#F5916F"/>
<path fill-rule="evenodd" clip-rule="evenodd" d="M339.354 175.388C343.414 176.882 345.765 178.925 347.757 181.083L345.767 134.864L343.5 134.808L339.354 175.388Z" fill="url(#paint11_linear_1269_1095)"/>
<path fill-rule="evenodd" clip-rule="evenodd" d="M345.767 134.863L351.631 153.406C352.474 155.46 353.339 157.259 356.756 156.976L389.114 154.925C391.999 154.742 392.067 153.283 392.092 151.308V134.863H345.767Z" fill="url(#paint12_linear_1269_1095)"/>
<path fill-rule="evenodd" clip-rule="evenodd" d="M369.125 153.684L377.356 153.154C377.807 153.124 378.26 153.441 378.33 153.893L379.45 161.202C379.518 161.652 379.234 162.068 378.789 162.113L370.226 162.978C369.779 163.024 369.299 162.696 369.252 162.24L368.464 154.595C368.418 154.139 368.673 153.714 369.125 153.684Z" fill="white"/>
<path fill-rule="evenodd" clip-rule="evenodd" d="M370.646 155.653L371.178 160.81L377.21 160.2L376.456 155.277L370.646 155.653Z" fill="url(#paint13_linear_1269_1095)"/>
<path fill-rule="evenodd" clip-rule="evenodd" d="M355.44 134.863C355.945 133.07 357.123 131.576 358.718 130.407C359.404 129.904 360.168 129.463 360.99 129.087C361.478 127.824 364.402 126.761 367.973 126.625C371.756 126.479 374.894 127.426 375.203 128.765C375.441 128.87 375.675 128.979 375.902 129.096C378.277 130.312 380.052 132.216 380.629 134.863H378.887C378.33 132.922 376.949 131.508 375.143 130.582C374.899 130.457 374.647 130.341 374.39 130.234C373.202 131.081 370.873 131.714 368.173 131.818C365.345 131.925 362.877 131.424 361.683 130.603C360.965 130.933 360.3 131.317 359.704 131.755C358.565 132.59 357.69 133.631 357.226 134.863L355.44 134.863Z" fill="url(#paint14_linear_1269_1095)"/>
<path fill-rule="evenodd" clip-rule="evenodd" d="M363.701 128.7C363.673 129.81 363.275 131.489 363.982 132.288C365.841 134.385 370.39 134.53 372.344 133.183C373.186 132.605 373.283 130.713 373.305 129.5C372.3 126.931 371.755 124.555 371.674 122.371C369.683 121.049 366.676 120.923 365.676 121.61L363.701 128.7Z" fill="#FFA89C"/>
<path fill-rule="evenodd" clip-rule="evenodd" d="M352.479 58.4688C348.208 64.4931 344.572 68.8911 341.574 71.66C343.68 61.0879 346.58 50.2567 348.974 38.063C349.809 38.5113 350.397 38.4884 351.375 39.4134C352.016 44.2299 352.368 48.7393 352.433 51.2957C350.813 52.7946 349.492 53.758 348.468 54.186C350.171 55.5025 351.506 56.9302 352.479 58.4688Z" fill="white"/>
<defs>
<linearGradient id="paint0_linear_1269_1095" x1="123.37" y1="104.086" x2="289.3" y2="104.086" gradientUnits="userSpaceOnUse">
<stop stop-color="#F57A00"/>
<stop offset="1" stop-color="#7103A4"/>
</linearGradient>
<linearGradient id="paint1_linear_1269_1095" x1="129.972" y1="104.087" x2="282.698" y2="104.087" gradientUnits="userSpaceOnUse">
<stop stop-color="#F57A00"/>
<stop offset="1" stop-color="#7103A4"/>
</linearGradient>
<linearGradient id="paint2_linear_1269_1095" x1="227.195" y1="284.012" x2="63.7018" y2="198.821" gradientUnits="userSpaceOnUse">
<stop stop-color="#F37803"/>
<stop offset="1" stop-color="#5A310A"/>
</linearGradient>
<linearGradient id="paint3_linear_1269_1095" x1="178.532" y1="97.867" x2="234.138" y2="97.867" gradientUnits="userSpaceOnUse">
<stop stop-color="#F57A00"/>
<stop offset="1" stop-color="#7103A4"/>
</linearGradient>
<linearGradient id="paint4_linear_1269_1095" x1="86.1973" y1="52.9345" x2="86.5103" y2="52.9345" gradientUnits="userSpaceOnUse">
<stop stop-color="#F57A00"/>
<stop offset="1" stop-color="#7103A4"/>
</linearGradient>
<linearGradient id="paint5_linear_1269_1095" x1="87.2207" y1="52.9345" x2="87.5329" y2="52.9345" gradientUnits="userSpaceOnUse">
<stop stop-color="#F57A00"/>
<stop offset="1" stop-color="#7103A4"/>
</linearGradient>
<linearGradient id="paint6_linear_1269_1095" x1="102.057" y1="51.5649" x2="102.371" y2="51.5649" gradientUnits="userSpaceOnUse">
<stop stop-color="#F57A00"/>
<stop offset="1" stop-color="#7103A4"/>
</linearGradient>
<linearGradient id="paint7_linear_1269_1095" x1="103.079" y1="51.5649" x2="103.393" y2="51.5649" gradientUnits="userSpaceOnUse">
<stop stop-color="#F57A00"/>
<stop offset="1" stop-color="#7103A4"/>
</linearGradient>
<linearGradient id="paint8_linear_1269_1095" x1="61.427" y1="90.1906" x2="68.4227" y2="90.1906" gradientUnits="userSpaceOnUse">
<stop stop-color="#F57A00"/>
<stop offset="1" stop-color="#7103A4"/>
</linearGradient>
<linearGradient id="paint9_linear_1269_1095" x1="328.424" y1="108.946" x2="342.036" y2="108.946" gradientUnits="userSpaceOnUse">
<stop stop-color="#F57A00"/>
<stop offset="1" stop-color="#7103A4"/>
</linearGradient>
<linearGradient id="paint10_linear_1269_1095" x1="333.425" y1="109.338" x2="337.356" y2="109.338" gradientUnits="userSpaceOnUse">
<stop stop-color="#F57A00"/>
<stop offset="1" stop-color="#7103A4"/>
</linearGradient>
<linearGradient id="paint11_linear_1269_1095" x1="339.354" y1="157.946" x2="347.757" y2="157.946" gradientUnits="userSpaceOnUse">
<stop stop-color="#F57A00"/>
<stop offset="1" stop-color="#7103A4"/>
</linearGradient>
<linearGradient id="paint12_linear_1269_1095" x1="345.767" y1="145.934" x2="392.092" y2="145.934" gradientUnits="userSpaceOnUse">
<stop stop-color="#F57A00"/>
<stop offset="1" stop-color="#7103A4"/>
</linearGradient>
<linearGradient id="paint13_linear_1269_1095" x1="370.646" y1="158.044" x2="377.21" y2="158.044" gradientUnits="userSpaceOnUse">
<stop stop-color="#F57A00"/>
<stop offset="1" stop-color="#7103A4"/>
</linearGradient>
<linearGradient id="paint14_linear_1269_1095" x1="355.44" y1="130.737" x2="380.629" y2="130.737" gradientUnits="userSpaceOnUse">
<stop stop-color="#F57A00"/>
<stop offset="1" stop-color="#7103A4"/>
</linearGradient>
</defs>
</svg>
