<svg width="392" height="297" viewBox="0 0 392 297" fill="none" xmlns="http://www.w3.org/2000/svg">
<path d="M60.2823 133.119H6.34991C2.93867 133.119 0.17334 135.884 0.17334 139.296V173.562C0.17334 176.974 2.93867 179.739 6.34991 179.739H60.2822C63.6934 179.739 66.4587 176.974 66.4587 173.562V139.296C66.4589 135.884 63.6936 133.119 60.2823 133.119Z" fill="url(#paint0_linear_1269_1094)" fill-opacity="0.46"/>
<path d="M17.506 159.983H12.6091V173.668H17.506V159.983Z" fill="url(#paint1_linear_1269_1094)"/>
<path d="M26.6357 150.215H21.7388V173.668H26.6357V150.215Z" fill="url(#paint2_linear_1269_1094)"/>
<path d="M35.7645 152.47H30.8677V173.668H35.7645V152.47Z" fill="url(#paint3_linear_1269_1094)"/>
<path d="M44.8932 144.957H39.9963V173.669H44.8932V144.957Z" fill="url(#paint4_linear_1269_1094)"/>
<path d="M54.0216 139.19H49.1248V173.668H54.0216V139.19Z" fill="url(#paint5_linear_1269_1094)"/>
<path d="M241.624 234.023H220.95H200.276L195.143 279.187H220.95H246.758L241.624 234.023Z" fill="white"/>
<path d="M282.148 277.522H159.753C154.925 277.522 151.011 281.436 151.011 286.263H290.889C290.889 281.436 286.975 277.522 282.148 277.522Z" fill="url(#paint6_linear_1269_1094)"/>
<path d="M360.188 81.5551V234.945C360.188 240.864 355.389 245.664 349.469 245.664H92.432C86.513 245.664 81.7134 240.864 81.7134 234.945V81.5551C81.7134 75.636 86.5128 70.8364 92.432 70.8364H349.469C355.389 70.8366 360.188 75.636 360.188 81.5551Z" fill="#E2F4FF"/>
<path d="M360.188 81.5551V222.382H81.7134V81.5551C81.7134 75.636 86.5128 70.8364 92.432 70.8364H349.469C355.389 70.8366 360.188 75.636 360.188 81.5551Z" fill="white"/>
<path d="M351.863 214.058V79.1616L90.0387 79.1616V214.058L351.863 214.058Z" fill="url(#paint7_linear_1269_1094)"/>
<path d="M347.785 209.981V83.2388L94.1153 83.2388L94.1153 209.981L347.785 209.981Z" fill="#E2F2FB"/>
<path d="M307.008 89.1914H104.74C102.93 89.1914 101.463 90.6587 101.463 92.4684C101.463 94.2785 102.93 95.7454 104.74 95.7454H307.008C308.817 95.7454 310.285 94.2785 310.285 92.4684C310.285 90.6587 308.817 89.1914 307.008 89.1914Z" fill="url(#paint8_linear_1269_1094)"/>
<path d="M322.287 94.5099C323.413 93.3837 323.413 91.5577 322.287 90.4315C321.161 89.3053 319.335 89.3053 318.209 90.4315C317.083 91.5577 317.083 93.3837 318.209 94.5099C319.335 95.6361 321.161 95.6361 322.287 94.5099Z" fill="url(#paint9_linear_1269_1094)"/>
<path d="M330.018 95.1294C331.49 94.5199 332.189 92.8329 331.579 91.3614C330.97 89.8899 329.283 89.1911 327.811 89.8006C326.34 90.4102 325.641 92.0972 326.25 93.5687C326.86 95.0402 328.547 95.739 330.018 95.1294Z" fill="url(#paint10_linear_1269_1094)"/>
<path d="M339.59 94.5099C340.716 93.3837 340.716 91.5578 339.59 90.4316C338.464 89.3053 336.638 89.3054 335.512 90.4316C334.385 91.5578 334.385 93.3837 335.512 94.5099C336.638 95.6361 338.464 95.6361 339.59 94.5099Z" fill="url(#paint11_linear_1269_1094)"/>
<path d="M223.208 197.501H109.108V197.93H223.208V197.501Z" fill="url(#paint12_linear_1269_1094)"/>
<path d="M223.208 185.646H109.108V186.075H223.208V185.646Z" fill="url(#paint13_linear_1269_1094)"/>
<path d="M223.208 173.793H109.108V174.222H223.208V173.793Z" fill="url(#paint14_linear_1269_1094)"/>
<path d="M223.208 161.938H109.108V162.367H223.208V161.938Z" fill="url(#paint15_linear_1269_1094)"/>
<path d="M125.012 168.828H119.569V197.501H125.012V168.828Z" fill="url(#paint16_linear_1269_1094)"/>
<path d="M133.099 156.401H127.657V197.501H133.099V156.401Z" fill="url(#paint17_linear_1269_1094)"/>
<path d="M145.653 179.521H140.211V197.501H145.653V179.521Z" fill="url(#paint18_linear_1269_1094)"/>
<path d="M153.741 167.094H148.299V197.501H153.741V167.094Z" fill="url(#paint19_linear_1269_1094)"/>
<path d="M166.295 165.014H160.853V197.501H166.295V165.014Z" fill="url(#paint20_linear_1269_1094)"/>
<path d="M174.383 170.454H168.94V197.501H174.383V170.454Z" fill="url(#paint21_linear_1269_1094)"/>
<path d="M186.937 156.401H181.495V197.501H186.937V156.401Z" fill="url(#paint22_linear_1269_1094)"/>
<path d="M195.025 156.401H189.582V197.501H195.025V156.401Z" fill="url(#paint23_linear_1269_1094)"/>
<path d="M207.579 153.681H202.137V197.501H207.579V153.681Z" fill="url(#paint24_linear_1269_1094)"/>
<path d="M215.667 145.733H210.224V197.501H215.667V145.733Z" fill="url(#paint25_linear_1269_1094)"/>
<path d="M227.201 204.029H108.116V145.733H110.048V202.096H227.201V204.029Z" fill="url(#paint26_linear_1269_1094)"/>
<path d="M223.675 103.98H108.116V141.931H223.675V103.98Z" fill="url(#paint27_linear_1269_1094)"/>
<path d="M210.224 110.88H130.831C129.491 110.88 128.403 111.967 128.403 113.309C128.403 114.65 129.491 115.737 130.831 115.737H210.224C211.565 115.737 212.652 114.65 212.652 113.309C212.652 111.967 211.565 110.88 210.224 110.88Z" fill="url(#paint28_linear_1269_1094)"/>
<path d="M124.475 115.52C125.697 114.298 125.697 112.318 124.475 111.097C123.254 109.875 121.274 109.875 120.052 111.097C118.831 112.318 118.831 114.298 120.052 115.52C121.274 116.741 123.254 116.741 124.475 115.52Z" fill="url(#paint29_linear_1269_1094)"/>
<path d="M121.796 114.868L120.521 113.592C120.396 113.467 120.396 113.265 120.521 113.141C120.645 113.016 120.848 113.016 120.972 113.141L121.796 113.965L123.561 112.201C123.685 112.076 123.887 112.076 124.012 112.201C124.137 112.325 124.137 112.527 124.012 112.652L121.796 114.868Z" fill="url(#paint30_linear_1269_1094)"/>
<path d="M210.224 120.527H130.831C129.491 120.527 128.403 121.614 128.403 122.955C128.403 124.296 129.491 125.383 130.831 125.383H210.224C211.565 125.383 212.652 124.296 212.652 122.955C212.652 121.614 211.565 120.527 210.224 120.527Z" fill="white"/>
<path d="M122.266 126.083C123.994 126.083 125.394 124.682 125.394 122.955C125.394 121.228 123.994 119.828 122.266 119.828C120.539 119.828 119.139 121.228 119.139 122.955C119.139 124.682 120.539 126.083 122.266 126.083Z" fill="url(#paint31_linear_1269_1094)"/>
<path d="M121.796 124.514L120.52 123.239C120.396 123.114 120.396 122.912 120.52 122.787C120.645 122.662 120.847 122.662 120.972 122.787L121.796 123.611L123.56 121.847C123.685 121.722 123.887 121.722 124.012 121.847C124.137 121.972 124.137 122.174 124.012 122.299L121.796 124.514Z" fill="url(#paint32_linear_1269_1094)"/>
<path d="M210.224 130.174H130.831C129.491 130.174 128.403 131.261 128.403 132.602C128.403 133.943 129.491 135.03 130.831 135.03H210.224C211.565 135.03 212.652 133.943 212.652 132.602C212.652 131.261 211.565 130.174 210.224 130.174Z" fill="white"/>
<path d="M125.311 133.34C125.707 131.659 124.667 129.975 122.986 129.578C121.305 129.181 119.62 130.222 119.223 131.903C118.826 133.584 119.867 135.269 121.548 135.665C123.229 136.062 124.914 135.021 125.311 133.34Z" fill="url(#paint33_linear_1269_1094)"/>
<path d="M122.718 132.602L123.631 131.689C123.756 131.564 123.756 131.362 123.631 131.237C123.507 131.112 123.304 131.112 123.18 131.237L122.266 132.151L121.352 131.237C121.228 131.112 121.025 131.112 120.901 131.237C120.776 131.362 120.776 131.564 120.901 131.689L121.815 132.602L120.901 133.516C120.776 133.64 120.776 133.843 120.901 133.967C121.025 134.092 121.228 134.092 121.352 133.967L122.266 133.054L123.18 133.967C123.304 134.092 123.507 134.092 123.631 133.967C123.756 133.843 123.756 133.64 123.631 133.516L122.718 132.602Z" fill="url(#paint34_linear_1269_1094)"/>
<path d="M262.197 178.562H236.731V204.029H262.197V178.562Z" fill="url(#paint35_linear_1269_1094)"/>
<path d="M255.699 191.935L257.349 191.324L257.349 191.241C257.347 190.9 257.323 190.56 257.278 190.23C257.233 189.9 257.165 189.566 257.075 189.237L257.053 189.157L255.3 189.009C255.061 188.397 254.73 187.835 254.326 187.339L255.06 185.74L255.001 185.682C254.76 185.443 254.502 185.219 254.236 185.017C253.973 184.816 253.689 184.628 253.39 184.458L253.319 184.417L251.974 185.552C251.389 185.295 250.759 185.127 250.105 185.06L249.493 183.41L249.41 183.411C249.068 183.413 248.728 183.437 248.399 183.481C248.07 183.526 247.736 183.594 247.406 183.684L247.326 183.705L247.178 185.459C246.565 185.698 246.004 186.029 245.508 186.433L243.909 185.699L243.851 185.758C243.609 186.002 243.385 186.259 243.185 186.523C242.982 186.79 242.795 187.074 242.626 187.368L242.586 187.44L243.72 188.785C243.464 189.37 243.295 190 243.229 190.654L241.579 191.266L241.579 191.349C241.581 191.69 241.605 192.03 241.65 192.36C241.695 192.69 241.763 193.024 241.853 193.353L241.874 193.433L243.628 193.581C243.867 194.193 244.198 194.755 244.602 195.251L243.869 196.85L243.927 196.908C244.168 197.147 244.426 197.371 244.692 197.573C244.954 197.773 245.239 197.961 245.537 198.132L245.609 198.173L246.954 197.038C247.54 197.295 248.17 197.464 248.824 197.53L249.435 199.18L249.518 199.179C249.86 199.177 250.2 199.153 250.529 199.109C250.858 199.064 251.192 198.996 251.522 198.906L251.602 198.884L251.75 197.131C252.362 196.892 252.924 196.561 253.42 196.156L255.019 196.891L255.077 196.832C255.319 196.587 255.542 196.33 255.742 196.067C255.944 195.801 256.132 195.517 256.301 195.221L256.342 195.15L255.207 193.805C255.464 193.219 255.633 192.589 255.699 191.935ZM249.99 195.151C247.86 195.441 245.899 193.95 245.608 191.82C245.318 189.691 246.809 187.729 248.939 187.439C251.068 187.149 253.03 188.64 253.32 190.769C253.61 192.899 252.119 194.86 249.99 195.151Z" fill="white"/>
<path d="M251.854 191.411C251.915 190.094 250.898 188.976 249.581 188.914C248.263 188.852 247.145 189.87 247.084 191.187C247.022 192.504 248.039 193.622 249.357 193.684C250.674 193.746 251.792 192.728 251.854 191.411Z" fill="white"/>
<path d="M333.785 178.562H267.415V204.029H333.785V178.562Z" fill="url(#paint36_linear_1269_1094)"/>
<path d="M329.978 184.011H274.101V184.656H329.978V184.011Z" fill="white"/>
<path d="M329.978 188.652H274.102V189.297H329.978V188.652Z" fill="white"/>
<path d="M329.978 193.293H274.102V193.938H329.978V193.293Z" fill="white"/>
<path d="M329.978 197.934H274.102V198.58H329.978V197.934Z" fill="white"/>
<path d="M333.785 103.455H236.731V168.623H333.785V103.455Z" fill="url(#paint37_linear_1269_1094)"/>
<path d="M285.79 136.039C285.79 133.484 285.161 131.08 284.067 128.955L291.698 124.549C293.537 127.971 294.582 131.882 294.582 136.039C294.582 140.196 293.537 144.107 291.698 147.529L284.068 143.123C285.161 140.998 285.79 138.594 285.79 136.039Z" fill="white"/>
<path d="M257.249 144.438C259.881 148.514 264.368 151.263 269.518 151.513V160.324C261.112 160.066 253.783 155.543 249.621 148.842L257.249 144.438Z" fill="white"/>
<path d="M269.518 120.565C264.368 120.815 259.881 123.564 257.249 127.639L249.621 123.235C253.783 116.535 261.112 112.012 269.518 111.754V120.565Z" fill="white"/>
<path d="M254.766 136.039C254.766 138.594 255.395 140.997 256.489 143.123L248.858 147.528C247.019 144.107 245.974 140.195 245.974 136.039C245.974 131.882 247.019 127.97 248.859 124.549L256.489 128.954C255.395 131.08 254.766 133.484 254.766 136.039Z" fill="white"/>
<path d="M283.307 127.639C280.675 123.564 276.188 120.815 271.038 120.565V111.754C279.443 112.013 286.773 116.534 290.935 123.235L283.307 127.639Z" fill="white"/>
<path d="M271.037 151.512C276.188 151.262 280.675 148.513 283.307 144.438L290.935 148.842C286.773 155.543 279.443 160.065 271.037 160.323V151.512H271.037Z" fill="white"/>
<path d="M307.264 142.484H302.846V146.902H307.264V142.484Z" fill="white"/>
<path d="M304.731 145.644L303.853 144.765C303.767 144.679 303.767 144.54 303.853 144.454C303.938 144.368 304.078 144.368 304.164 144.454L304.731 145.022L305.947 143.807C306.033 143.721 306.172 143.721 306.258 143.807C306.344 143.893 306.344 144.032 306.258 144.118L304.731 145.644Z" fill="white"/>
<path d="M324.542 142.484H308.614V143.339H324.542V142.484Z" fill="white"/>
<path d="M320.593 145.144H308.614V145.999H320.593V145.144Z" fill="white"/>
<path d="M307.264 151.485H302.846V155.904H307.264V151.485Z" fill="white"/>
<path d="M304.731 154.646L303.853 153.767C303.767 153.681 303.767 153.541 303.853 153.456C303.938 153.37 304.078 153.37 304.164 153.456L304.731 154.023L305.947 152.808C306.033 152.722 306.172 152.722 306.258 152.808C306.344 152.894 306.344 153.033 306.258 153.119L304.731 154.646Z" fill="white"/>
<path d="M324.542 151.485H308.614V152.341H324.542V151.485Z" fill="white"/>
<path d="M320.593 154.146H308.614V155.001H320.593V154.146Z" fill="white"/>
<path d="M307.264 116.174H302.846V120.593H307.264V116.174Z" fill="white"/>
<path d="M304.731 119.334L303.853 118.455C303.767 118.369 303.767 118.23 303.853 118.144C303.938 118.058 304.078 118.058 304.164 118.144L304.731 118.712L305.947 117.497C306.033 117.411 306.172 117.411 306.258 117.497C306.344 117.582 306.344 117.722 306.258 117.808L304.731 119.334Z" fill="white"/>
<path d="M324.542 116.174H308.614V117.03H324.542V116.174Z" fill="white"/>
<path d="M320.593 118.834H308.614V119.69H320.593V118.834Z" fill="white"/>
<path d="M307.264 125.176H302.846V129.594H307.264V125.176Z" fill="white"/>
<path d="M304.731 128.336L303.853 127.457C303.767 127.371 303.767 127.232 303.853 127.146C303.938 127.06 304.078 127.06 304.164 127.146L304.731 127.714L305.947 126.499C306.033 126.413 306.172 126.413 306.258 126.499C306.344 126.584 306.344 126.724 306.258 126.81L304.731 128.336Z" fill="white"/>
<path d="M324.542 125.176H308.614V126.031H324.542V125.176Z" fill="white"/>
<path d="M320.593 127.836H308.614V128.691H320.593V127.836Z" fill="white"/>
<path d="M127.586 205.228H70.7016L68.1503 199.747C67.6922 198.763 66.7049 198.133 65.6192 198.133H20.7244C19.1825 198.133 17.9324 199.383 17.9324 200.925V269.525H130.377V208.02C130.377 206.478 129.127 205.228 127.586 205.228Z" fill="url(#paint38_linear_1269_1094)"/>
<path d="M123.039 214.174H25.2717V282.272H123.039V214.174Z" fill="#E2F2FB"/>
<path d="M127.586 221.079H82.6912C81.6055 221.079 80.6181 221.709 80.1601 222.693L77.6087 228.174H20.7247C19.1827 228.174 17.9326 229.424 17.9326 230.966V289.678C17.9326 291.221 19.1827 292.471 20.7247 292.471H127.586C129.128 292.471 130.378 291.221 130.378 289.678V223.871C130.378 222.329 129.128 221.079 127.586 221.079Z" fill="url(#paint39_linear_1269_1094)"/>
<path d="M360.188 159.876C377.079 159.876 390.772 146.183 390.772 129.291C390.772 112.4 377.079 98.7065 360.188 98.7065C343.296 98.7065 329.603 112.4 329.603 129.291C329.603 146.183 343.296 159.876 360.188 159.876Z" fill="url(#paint40_linear_1269_1094)"/>
<path d="M376.024 118.028H344.352L360.188 128.649L376.024 118.028Z" fill="white"/>
<path d="M360.188 130.609L342.892 119.008V141.229H377.484V119.008L360.188 130.609Z" fill="white"/>
<path d="M380.262 113.948C385.039 113.948 388.911 110.076 388.911 105.3C388.911 100.524 385.039 96.6519 380.262 96.6519C375.486 96.6519 371.614 100.524 371.614 105.3C371.614 110.076 375.486 113.948 380.262 113.948Z" fill="url(#paint41_linear_1269_1094)"/>
<path d="M379.698 101.669H379.669L377.98 102.58L377.726 101.58L379.848 100.443H380.969V110.156H379.698V101.669Z" fill="white"/>
<path d="M383.661 227.037H348.521C344.057 227.037 340.438 230.656 340.438 235.12V270.259C340.438 274.723 344.057 278.342 348.521 278.342H383.661C388.125 278.342 391.743 274.723 391.743 270.259V235.12C391.743 230.656 388.125 227.037 383.661 227.037Z" fill="url(#paint42_linear_1269_1094)"/>
<path d="M378.394 249.283C378.112 248.264 377.713 247.297 377.202 246.397C375.869 246.882 374.319 246.6 373.25 245.53C372.18 244.461 371.898 242.911 372.383 241.578C371.483 241.067 370.516 240.668 369.497 240.387C368.896 241.67 367.602 242.565 366.091 242.565C364.58 242.565 363.286 241.67 362.685 240.387C361.666 240.668 360.699 241.068 359.799 241.578C360.284 242.911 360.002 244.461 358.932 245.53C357.863 246.6 356.313 246.882 354.98 246.397C354.469 247.297 354.07 248.264 353.788 249.283C355.072 249.884 355.967 251.178 355.967 252.689C355.967 254.2 355.072 255.494 353.788 256.095C354.07 257.114 354.469 258.081 354.98 258.981C356.313 258.496 357.863 258.778 358.932 259.848C360.002 260.917 360.284 262.467 359.799 263.8C360.699 264.311 361.666 264.71 362.685 264.991C363.286 263.708 364.58 262.813 366.091 262.813C367.602 262.813 368.896 263.708 369.497 264.991C370.516 264.71 371.483 264.311 372.383 263.8C371.898 262.467 372.18 260.917 373.25 259.848C374.319 258.778 375.869 258.496 377.202 258.981C377.713 258.081 378.112 257.114 378.394 256.095C377.11 255.494 376.215 254.2 376.215 252.689C376.215 251.178 377.11 249.884 378.394 249.283ZM366.091 257.156C363.624 257.156 361.624 255.156 361.624 252.689C361.624 250.222 363.624 248.222 366.091 248.222C368.558 248.222 370.558 250.222 370.558 252.689C370.558 255.156 368.558 257.156 366.091 257.156Z" fill="white"/>
<path d="M113.695 146.34C78.0951 130.801 55.0891 95.0331 55.0891 55.2205V25.3643L119.569 0.591309L184.049 25.3643V55.2205C184.049 95.0338 161.042 130.801 125.437 146.342L119.569 148.908L113.695 146.34Z" fill="url(#paint43_linear_1269_1094)"/>
<path d="M117.159 138.414C84.7082 124.249 63.7385 91.5934 63.7385 55.2205V31.3079L119.569 9.85791L175.398 31.3079V55.2205C175.398 91.5934 154.429 124.249 121.976 138.414L119.568 139.467L117.159 138.414Z" fill="url(#paint44_linear_1269_1094)" fill-opacity="0.46"/>
<path d="M121.01 18.4053L167.936 36.4353V55.2206C167.936 87.8643 149.59 117.228 121.01 130.661V18.4053Z" fill="url(#paint45_linear_1269_1094)"/>
<path d="M94.9071 109.515C94.0251 109.515 93.1948 109.134 92.6293 108.47C80.1372 93.8161 73.2585 74.9048 73.2585 55.2212V38.0369L114.2 22.3063C114.55 22.1721 114.916 22.103 115.287 22.103C116.533 22.103 117.672 22.8853 118.119 24.0493C118.717 25.6114 117.937 27.3691 116.377 27.9678L79.3242 42.2018V55.2212C79.3242 73.4414 85.6756 90.9398 97.2068 104.493C98.2612 105.731 98.1763 107.567 97.0159 108.673C96.4454 109.215 95.6965 109.515 94.9082 109.515C94.9071 109.515 94.9084 109.515 94.9071 109.515Z" fill="white"/>
<path d="M134.853 61.7657V55.3925C134.853 47.6819 128.581 41.4092 120.871 41.4092H117.151C109.441 41.4092 103.169 47.6819 103.169 55.3925V61.7657C100.433 62.228 98.3472 64.6023 98.3472 67.4695V93.1219C98.3472 96.3209 100.94 98.9139 104.139 98.9139H133.883C137.082 98.9139 139.675 96.3209 139.675 93.1219V67.4697C139.675 64.6023 137.589 62.228 134.853 61.7657ZM121.54 79.512V87.1727C121.54 88.5692 120.408 89.7012 119.011 89.7012C117.615 89.7012 116.482 88.569 116.482 87.1727V79.512C114.81 78.6103 113.673 76.8434 113.673 74.8101C113.673 71.8619 116.063 69.4719 119.011 69.4719C121.959 69.4719 124.349 71.8619 124.349 74.8101C124.349 76.8436 123.212 78.6105 121.54 79.512ZM129.343 61.6779H108.679V55.3925C108.679 50.7209 112.48 46.9195 117.151 46.9195H120.871C125.542 46.9195 129.343 50.7209 129.343 55.3925V61.6779Z" fill="white"/>
<path d="M183.344 283.925L182.62 271.966H191.996L192.305 280.178C192.305 281.567 193.111 282.83 194.371 283.413L203.015 287.313C205.089 288.274 204.405 291.383 202.118 291.383H182.62L183.344 283.925Z" fill="#FFA89C"/>
<path d="M182.305 291.667C182.283 292.035 182.326 292.359 182.434 292.683C182.759 293.721 183.732 294.478 184.878 294.478H212.646C213.467 294.478 214.138 293.765 214.138 292.856C214.138 292.791 214.138 292.726 214.117 292.683C214.073 292.121 213.749 291.624 213.23 291.386L201.011 286.282C195.22 288.184 189.45 288.144 183.297 286.406C183.073 286.343 182.845 286.491 182.821 286.721L182.305 291.667Z" fill="#1B1425"/>
<path d="M182.434 292.683C182.759 293.721 183.732 294.478 184.878 294.478H212.646C213.467 294.478 214.138 293.764 214.138 292.856C214.138 292.791 214.138 292.726 214.116 292.683L182.434 292.683Z" fill="#1B1425"/>
<path d="M194.313 165.557L193.938 158.134L180.806 149.638H165.927L167.085 157.448L175.108 214.102L181.467 279.889H193.782L194.975 214.529L194.313 165.557Z" fill="#1B1425"/>
<path d="M194.17 281.309H180.984L180.947 277.105H194.133L194.17 281.309Z" fill="#1B1425"/>
<path d="M145.234 282.918L146.147 272.337H154.803L153.866 283.531L154.272 293.42L138.64 291.522L143.506 286.796C144.559 285.773 145.059 284.359 145.234 282.918Z" fill="#FFA89C"/>
<path d="M137.471 294.189C137.579 294.816 137.904 295.897 140.153 296.006C141.537 296.07 145.148 296.029 147.614 296.029C149.495 296.029 154.664 293.994 154.664 292.156L154.642 291.68L154.361 287.29C154.361 286.901 154.015 286.728 154.015 286.728C152.774 287.791 150.769 289.145 148.844 289.729C145.665 290.702 142.165 291.139 141.23 288.902C141.23 288.902 139.39 290.488 138.351 291.432C137.705 292.018 137.428 292.675 137.428 293.281C137.385 293.627 137.428 293.951 137.471 294.189Z" fill="#1B1425"/>
<path d="M137.471 294.189C137.579 294.816 137.904 295.897 140.153 296.005C141.537 296.07 145.148 296.135 147.614 296.135C149.495 296.135 150.684 295.573 152.22 294.902C153.063 294.535 154.664 293.994 154.664 292.156L154.642 291.68C154.101 292.524 153.107 292.87 152.501 293.129C150.901 293.843 149.668 294.427 147.7 294.427C145.105 294.427 141.32 294.362 139.893 294.297C138.444 294.232 137.752 293.778 137.428 293.281C137.384 293.626 137.428 293.951 137.471 294.189Z" fill="#1B1425"/>
<path d="M163.223 149.638L148.756 156.881L148.158 165.578L146.622 212.864L143.964 279.846L156.119 279.889L166.51 213.782L175.109 157.576L176.056 149.638H163.223Z" fill="#1B1425"/>
<path d="M143.686 281.309H156.872L156.836 277.105H143.65L143.686 281.309Z" fill="#1B1425"/>
<path d="M171.308 182.942C171.56 182.942 171.785 182.763 171.833 182.508L175.107 165.078C175.161 164.788 174.969 164.509 174.68 164.455C174.382 164.398 174.111 164.592 174.056 164.88L170.783 182.31C170.728 182.6 170.92 182.879 171.21 182.933C171.243 182.939 171.277 182.942 171.308 182.942Z" fill="#1B1425"/>
<path d="M160.087 55.9614C159.009 57.5433 158.17 59.2878 157.607 61.1175C155.789 67.0251 156.77 72.4265 155.781 78.5279C155.298 81.5049 153.42 84.7895 152.927 87.4698C152.559 89.4701 153.868 92.1755 155.723 93.3627C157.503 94.5017 159.768 94.7994 161.842 94.7539C163.654 94.7141 165.457 94.4514 167.27 94.4366C169.632 94.4175 171.979 94.8195 174.341 94.8656C178.695 94.9506 182.992 93.6225 185.718 90.886C188.183 88.4125 188.988 85.5272 188.868 81.5134C188.787 78.7786 187.547 74.3217 187.282 71.7413C186.988 68.8863 187.17 65.8558 186.742 63.1781C186.315 60.5004 185.378 57.7815 183.404 55.9221C182.064 54.6591 180.522 54.0699 178.916 54.0862C176.544 51.9857 172.649 50.931 169.269 51.2585C165.888 51.586 162 53.1547 160.087 55.9614Z" fill="black"/>
<path d="M160.592 97.2083C160.597 93.1356 157.3 89.8293 153.228 89.8236C149.155 89.8179 145.849 93.1149 145.843 97.1877C145.837 101.26 149.134 104.567 153.207 104.572C157.28 104.578 160.586 101.281 160.592 97.2083Z" fill="#F9C3BC"/>
<path d="M131.95 125.055C132.767 122.293 131.19 119.393 128.428 118.576C125.667 117.759 122.766 119.336 121.949 122.097C121.133 124.859 122.709 127.759 125.471 128.576C128.232 129.393 131.133 127.816 131.95 125.055Z" fill="#F9C3BC"/>
<path d="M158.447 102.406L158.246 102.566C148.582 110.257 139.37 118.498 130.654 127.249L123.265 119.889L123.343 119.79C130.991 110.094 139.192 100.846 147.903 92.0924L147.998 91.9976L158.447 102.406Z" fill="#F9C3BC"/>
<path d="M126.972 128.731C129.852 128.728 132.184 126.391 132.18 123.511C132.177 120.631 129.839 118.299 126.959 118.302C124.079 118.306 121.748 120.643 121.751 123.523C121.755 126.403 124.092 128.735 126.972 128.731Z" fill="#FFA89C"/>
<path d="M148.771 150.476C148.839 148.385 147.199 146.634 145.108 146.566C143.016 146.498 141.266 148.139 141.198 150.23C141.13 152.321 142.77 154.072 144.861 154.14C146.953 154.208 148.703 152.568 148.771 150.476Z" fill="#FFA89C"/>
<path d="M131.274 120.594C132.839 122.893 135.324 127.402 138.221 132.314C141.619 138.076 145.523 144.433 148.102 148.222L141.83 152.48C136.332 145.232 129.018 135.249 122.646 126.453L131.274 120.594Z" fill="#FFA89C"/>
<path d="M127.718 112.031C131.852 106.843 143.13 95.0638 147.168 91.7152C148.608 90.271 150.482 89.3761 152.445 89.1969C152.697 89.174 152.949 89.1626 153.199 89.1626C155.281 89.1626 157.25 89.9847 158.744 91.4768C161.982 94.7067 161.989 99.9694 158.746 103.22C155.354 106.162 137.66 121.986 137.66 121.986L127.597 112.182L127.718 112.031Z" fill="#A535C5"/>
<path d="M186.35 104.422C190.403 104.025 193.367 100.418 192.97 96.3643C192.573 92.3111 188.965 89.3473 184.912 89.7444C180.859 90.1415 177.895 93.7491 178.292 97.8023C178.689 101.856 182.297 104.819 186.35 104.422Z" fill="#F9C3BC"/>
<path d="M202.952 135.603C205.199 133.801 205.56 130.519 203.758 128.273C201.956 126.026 198.675 125.665 196.428 127.467C194.182 129.269 193.821 132.55 195.623 134.797C197.424 137.043 200.706 137.404 202.952 135.603Z" fill="#F9C3BC"/>
<path d="M192.468 94.3018L192.538 94.5498C195.86 106.445 199.864 118.139 204.531 129.574L194.876 133.515L194.815 133.405C188.862 122.585 183.536 111.431 178.864 99.9991L178.813 99.8753L192.468 94.3018Z" fill="#F9C3BC"/>
<path d="M182.518 89.7725C184.299 89.0473 186.29 88.966 188.127 89.5438C190.499 90.2898 192.395 92.0341 193.335 94.343C194.703 98.5483 200.007 114.174 202.344 120.883L202.412 121.072L189.464 126.524L189.371 126.354C186.2 120.524 179.741 105.549 178.229 100.529C177.461 98.6399 177.368 96.5671 177.965 94.6895C178.688 92.4201 180.303 90.6727 182.518 89.7725Z" fill="#A535C5"/>
<path d="M147.06 165.474C147.275 160.802 148.571 153.083 149.713 146.273C150.242 143.129 150.729 140.223 151.046 137.99C151.617 133.959 151.734 122.009 151.255 116.68C150.615 109.317 149.021 90.4356 149.021 90.4356L149.01 90.3116L149.112 90.2418C151.882 88.3558 160.398 85.1166 163.701 84.5029L177.238 84.8739C179.541 85.4938 186.938 88.6966 188.749 89.776C188.749 89.776 191.631 96.5392 192.698 99.0159C194.482 103.2 194.988 107.455 194.207 111.666C193.671 114.42 192.148 121.839 191.765 123.697C190.662 128.996 190.608 132.664 191.531 139.393C191.815 141.466 192.286 144.164 192.798 147.113C193.892 153.401 195.13 160.529 195.288 165.476L195.297 165.697H188.577C185.021 165.697 182.023 163.048 181.584 159.52L180.563 151.315H166.721L165.286 159.822C164.714 163.214 161.777 165.697 158.338 165.697H147.049L147.06 165.474Z" fill="#A535C5"/>
<path d="M147.927 152.682C149.205 151.049 148.919 148.689 147.286 147.41C145.654 146.131 143.294 146.418 142.015 148.051C140.736 149.683 141.023 152.043 142.655 153.322C144.288 154.601 146.648 154.314 147.927 152.682Z" fill="#FFA89C"/>
<path d="M142.616 153.281C144.187 154.388 145.329 155.927 146.855 157.078C147.909 157.871 149.152 158.412 150.449 158.649C151.77 158.89 152.687 159.609 153.73 160.442C153.916 160.591 154.109 160.743 154.34 160.803C154.57 160.863 154.849 160.803 154.976 160.601C155.129 160.356 155.001 160.038 154.865 159.782C154.089 158.328 153.1 156.987 151.939 155.817C152.163 156.043 152.77 156.17 153.064 156.351C153.428 156.576 153.767 156.838 154.1 157.105C154.834 157.695 155.567 158.282 156.339 158.821C156.821 159.158 157.606 159.106 157.549 158.335C157.526 158.012 157.346 157.724 157.164 157.457C156.103 155.899 154.765 154.53 153.231 153.434C154.609 153.741 155.684 154.778 156.79 155.656C157.353 156.103 157.927 156.529 158.481 156.988C158.794 157.248 159.356 157.33 159.684 157.046C160.076 156.707 159.858 156.174 159.601 155.82C158.824 154.744 157.812 153.825 156.82 152.951C155.835 152.084 154.756 151.462 153.649 150.769C154.666 150.902 155.604 151.353 156.463 151.896C156.891 152.166 157.302 152.462 157.709 152.763C158.066 153.027 158.391 153.395 158.833 153.511C159.192 153.605 159.648 153.453 159.744 153.094C159.831 152.774 159.606 152.46 159.39 152.208C158.368 151.02 157.207 149.95 155.938 149.028C155.418 148.651 154.814 148.334 154.201 148.134C153.766 147.993 153.321 147.886 152.878 147.773C152.443 147.663 151.371 147.57 151.159 147.081C151.107 146.961 150.827 145.454 150.827 145.454C150.827 145.454 150.198 145.491 149.924 145.596C148.725 146.055 147.63 146.876 146.296 146.146C145.97 146.71 143.11 152.587 142.616 153.281Z" fill="#FFA89C"/>
<path d="M215.016 105.285C217.098 105.08 218.62 103.225 218.414 101.143C218.209 99.0602 216.354 97.5387 214.272 97.7442C212.189 97.9496 210.668 99.8043 210.873 101.887C211.079 103.969 212.933 105.491 215.016 105.285Z" fill="#FFA89C"/>
<path d="M215.158 104.167C216.467 103.739 217.675 103.569 219.216 103.792C221.31 104.094 222.85 104.665 224.912 103.907C226.055 103.486 227.091 102.826 228.188 102.296C229.501 101.662 230.897 101.217 232.256 100.686C233.021 100.386 233.726 99.4606 232.543 99.1202C231.601 98.8492 230.46 99.1451 229.555 99.4991C230.673 98.8174 231.851 98.0491 232.91 97.1667C233.291 96.8499 233.488 96.3716 232.979 96.0572C232.789 95.9401 232.565 95.9248 232.349 95.9265C230.457 95.9413 228.637 97.0806 226.995 98.1641C227.383 97.704 227.771 97.2439 228.16 96.784C228.334 96.5775 228.509 96.2925 228.393 96.013C228.035 95.1518 226.855 96.2257 226.486 96.4962C225.799 97.0004 225.294 97.4009 224.608 97.8381C223.849 98.3213 223.202 98.7616 222.267 98.5997C220.56 98.304 219.664 97.6272 217.941 97.4218C216.53 97.2538 214.878 97.4146 213.529 97.8792L215.158 104.167Z" fill="#FFA89C"/>
<path d="M213.828 97.7823C214.396 97.5936 215.533 96.6316 216.919 96.4469C217.731 96.3386 218.599 96.5062 219.263 96.4992C220.22 96.489 222.207 96.2548 222.207 96.2548C222.588 96.2108 223.009 96.2661 223.188 96.6052C223.464 97.1296 222.89 97.6945 222.319 97.8527L219.295 98.6389L218.753 99.0571L213.828 97.7823Z" fill="#FFA89C"/>
<path d="M165.272 95.6055H180.146C180.271 103.932 179.706 118.542 178.154 130.339L180.563 151.315H166.722L169.581 130.583C167.516 119.047 165.716 104.728 165.272 95.6055Z" fill="white"/>
<path d="M122.641 118.009L127.597 112.182L136.18 112.307L137.66 121.986L134.772 124.696L137.464 129.545L126.237 133.886L121.997 127.196C120.177 124.323 120.438 120.6 122.641 118.009Z" fill="#A535C5"/>
<path d="M164.077 89.2241L176.653 89.4403L176.715 84.8473L177.027 65.4955L164.474 65.2783L164.337 73.6467L164.077 89.2241Z" fill="#FFA89C"/>
<path d="M163.702 84.503L170.27 83.3657L177.238 84.8739C179.062 94.6347 173.254 100.091 173.254 100.091C173.254 100.091 162.78 94.1126 163.702 84.503Z" fill="#FFA89C"/>
<path d="M176.717 84.5518C181.35 86.2849 183.357 95.2967 183.34 99.2909L178.813 96.6288L173.254 100.09C177.593 95.9142 177.531 89.4629 176.717 84.5518Z" fill="white"/>
<path d="M164.162 84.1406C163.945 87.311 166.113 96.2579 173.255 100.09L165.921 98.1135L161.283 101.662C160.092 96.9815 160.445 85.568 164.162 84.1406Z" fill="white"/>
<path d="M164.337 73.6469C166.172 78.9477 171.359 83.5262 176.715 84.8474L177.028 65.4955L164.475 65.2783L164.337 73.6469Z" fill="#EE9A8E"/>
<path d="M201.337 136.483C204.068 135.569 205.54 132.613 204.626 129.883C203.711 127.152 200.756 125.68 198.025 126.594C195.294 127.509 193.822 130.464 194.737 133.195C195.651 135.926 198.607 137.398 201.337 136.483Z" fill="#FFA89C"/>
<path d="M218.044 103.203C218.977 101.33 218.215 99.0555 216.343 98.1225C214.47 97.1895 212.195 97.9512 211.262 99.8241C210.329 101.697 211.091 103.972 212.964 104.905C214.836 105.838 217.111 105.076 218.044 103.203Z" fill="#FFA89C"/>
<path d="M195.019 129.228C196.256 126.738 198.969 122.362 201.832 117.43C205.19 111.644 209.222 103.928 211.262 99.8237L218.047 103.204C214.422 111.549 208.9 124.015 204.353 133.879L195.019 129.228Z" fill="#FFA89C"/>
<path d="M209.702 124.779L201.966 116.599L198.122 122.878L195.308 121.662L189.463 126.524L193.912 134.668C196.509 139.423 203.435 139.118 205.605 134.154L209.702 124.779Z" fill="#A535C5"/>
<path d="M210.764 99.7133L237.146 98.0096C238.598 97.9159 239.776 96.7989 239.947 95.354L242.434 74.3315C242.561 73.2519 241.679 72.3208 240.594 72.3909L216.329 73.9579C214.859 74.0529 213.666 75.184 213.492 76.6472L210.764 99.7133Z" fill="url(#paint46_linear_1269_1094)"/>
<path d="M197.02 98.6111L238.818 95.9117C239.103 95.8933 239.35 96.1099 239.368 96.3953L239.429 97.3426C239.448 97.6282 239.231 97.8745 238.946 97.8931L197.148 100.592C196.862 100.611 196.616 100.394 196.598 100.109L196.536 99.1616C196.518 98.8758 196.734 98.6295 197.02 98.6111Z" fill="url(#paint47_linear_1269_1094)"/>
<path d="M212.208 99.6195L238.59 97.9158C240.042 97.8221 241.22 96.7052 241.391 95.2603L243.878 74.2378C244.006 73.1581 243.123 72.227 242.038 72.2972L217.773 73.8642C216.303 73.9592 215.11 75.0902 214.937 76.5535L212.208 99.6195Z" fill="url(#paint48_linear_1269_1094)" fill-opacity="0.46"/>
<path d="M184.11 70.8885C184.508 69.259 183.654 67.6511 182.203 67.2971C180.752 66.943 179.254 67.9769 178.856 69.6063C178.459 71.2357 179.312 72.8437 180.763 73.1977C182.214 73.5518 183.712 72.5179 184.11 70.8885Z" fill="#EE9A8E"/>
<path d="M168.943 53.7782C175.607 52.5305 180.633 55.0992 182.176 60.4931C183.52 65.1941 183.293 72.1287 181.735 76.7635C180.415 80.6934 177.197 82.8484 173.892 82.6055C170.559 82.3605 167.206 80.29 165.066 77.6405C162.93 74.9966 161.176 71.4697 160.337 67.4715C159.191 61.2211 161.453 55.1804 168.943 53.7782Z" fill="#FFA89C"/>
<path d="M176.501 60.3088C173.722 64.9513 168.848 67.8066 163.062 69.0269L161.103 71.5023C160.586 70.226 160.194 68.8938 159.909 67.5511C158.834 61.6956 160.626 54.9059 168.871 53.3564C169.425 53.2367 169.983 53.1601 170.5 53.1093C176.598 52.5104 181.128 55.2202 182.593 60.3846C183.028 61.9302 183.323 63.8243 183.44 65.6839C182.861 64.7659 181.509 63.7369 180.226 63.1428C178.986 62.5693 177.273 61.3087 176.501 60.3088Z" fill="black"/>
<path d="M162.313 67.1921C163.341 68.3445 164.016 69.8184 164.355 71.3249C165.714 70.3682 166.434 68.5831 166.12 66.951C165.157 66.6283 164.284 66.4942 163.281 66.6524C163.158 66.6717 163.032 66.6963 162.93 66.7663C162.827 66.8365 162.754 66.9637 162.783 67.0843C162.74 67.1304 162.357 67.146 162.313 67.1921Z" fill="black"/>
<path d="M164.506 73.9878C165.89 73.4272 166.501 71.7125 165.872 70.1579C165.242 68.6032 163.61 67.7974 162.225 68.358C160.841 68.9186 160.23 70.6333 160.859 72.1879C161.489 73.7426 163.121 74.5484 164.506 73.9878Z" fill="#FFA89C"/>
<path d="M164.849 71.5327C164.86 71.5323 164.872 71.5309 164.884 71.5296C165.03 71.5057 165.128 71.3696 165.105 71.2243C165.062 70.9628 164.974 70.7109 164.838 70.4762C164.384 69.6875 163.468 69.2371 162.667 69.4184C162.526 69.4495 162.39 69.4991 162.262 69.5665C162.008 69.6988 161.793 69.9029 161.641 70.1553C161.566 70.2814 161.606 70.4451 161.733 70.5217C161.854 70.5975 162.02 70.5573 162.099 70.4301C162.201 70.2594 162.339 70.1272 162.509 70.039C162.596 69.9939 162.689 69.96 162.782 69.9385C163.374 69.8092 164.034 70.149 164.374 70.7428C164.477 70.9224 164.547 71.112 164.578 71.3083C164.601 71.4418 164.718 71.5365 164.849 71.5327Z" fill="#EE9A8E"/>
<path d="M180.79 153.139L180.563 151.314L173.69 148.392L166.722 151.314L166.414 153.139H180.79Z" fill="#FFA89C"/>
<defs>
<linearGradient id="paint0_linear_1269_1094" x1="44.0789" y1="218.866" x2="-23.0463" y2="166.961" gradientUnits="userSpaceOnUse">
<stop stop-color="#F37803"/>
<stop offset="1" stop-color="#5A310A"/>
</linearGradient>
<linearGradient id="paint1_linear_1269_1094" x1="12.6091" y1="166.826" x2="17.506" y2="166.826" gradientUnits="userSpaceOnUse">
<stop stop-color="#F57A00"/>
<stop offset="1" stop-color="#7103A4"/>
</linearGradient>
<linearGradient id="paint2_linear_1269_1094" x1="21.7388" y1="161.941" x2="26.6357" y2="161.941" gradientUnits="userSpaceOnUse">
<stop stop-color="#F57A00"/>
<stop offset="1" stop-color="#7103A4"/>
</linearGradient>
<linearGradient id="paint3_linear_1269_1094" x1="30.8677" y1="163.069" x2="35.7645" y2="163.069" gradientUnits="userSpaceOnUse">
<stop stop-color="#F57A00"/>
<stop offset="1" stop-color="#7103A4"/>
</linearGradient>
<linearGradient id="paint4_linear_1269_1094" x1="39.9963" y1="159.313" x2="44.8932" y2="159.313" gradientUnits="userSpaceOnUse">
<stop stop-color="#F57A00"/>
<stop offset="1" stop-color="#7103A4"/>
</linearGradient>
<linearGradient id="paint5_linear_1269_1094" x1="49.1248" y1="156.429" x2="54.0216" y2="156.429" gradientUnits="userSpaceOnUse">
<stop stop-color="#F57A00"/>
<stop offset="1" stop-color="#7103A4"/>
</linearGradient>
<linearGradient id="paint6_linear_1269_1094" x1="151.011" y1="281.893" x2="290.889" y2="281.893" gradientUnits="userSpaceOnUse">
<stop stop-color="#F57A00"/>
<stop offset="1" stop-color="#7103A4"/>
</linearGradient>
<linearGradient id="paint7_linear_1269_1094" x1="220.952" y1="79.1616" x2="220.952" y2="214.058" gradientUnits="userSpaceOnUse">
<stop stop-color="#F57A00"/>
<stop offset="1" stop-color="#7103A4"/>
</linearGradient>
<linearGradient id="paint8_linear_1269_1094" x1="101.463" y1="92.4684" x2="310.285" y2="92.4684" gradientUnits="userSpaceOnUse">
<stop stop-color="#F57A00"/>
<stop offset="1" stop-color="#7103A4"/>
</linearGradient>
<linearGradient id="paint9_linear_1269_1094" x1="318.209" y1="94.5099" x2="322.287" y2="90.4315" gradientUnits="userSpaceOnUse">
<stop stop-color="#F57A00"/>
<stop offset="1" stop-color="#7103A4"/>
</linearGradient>
<linearGradient id="paint10_linear_1269_1094" x1="326.25" y1="93.5687" x2="331.579" y2="91.3614" gradientUnits="userSpaceOnUse">
<stop stop-color="#F57A00"/>
<stop offset="1" stop-color="#7103A4"/>
</linearGradient>
<linearGradient id="paint11_linear_1269_1094" x1="335.512" y1="94.5099" x2="339.59" y2="90.4315" gradientUnits="userSpaceOnUse">
<stop stop-color="#F57A00"/>
<stop offset="1" stop-color="#7103A4"/>
</linearGradient>
<linearGradient id="paint12_linear_1269_1094" x1="109.108" y1="197.716" x2="223.208" y2="197.716" gradientUnits="userSpaceOnUse">
<stop stop-color="#F57A00"/>
<stop offset="1" stop-color="#7103A4"/>
</linearGradient>
<linearGradient id="paint13_linear_1269_1094" x1="109.108" y1="185.861" x2="223.208" y2="185.861" gradientUnits="userSpaceOnUse">
<stop stop-color="#F57A00"/>
<stop offset="1" stop-color="#7103A4"/>
</linearGradient>
<linearGradient id="paint14_linear_1269_1094" x1="109.108" y1="174.008" x2="223.208" y2="174.008" gradientUnits="userSpaceOnUse">
<stop stop-color="#F57A00"/>
<stop offset="1" stop-color="#7103A4"/>
</linearGradient>
<linearGradient id="paint15_linear_1269_1094" x1="109.108" y1="162.153" x2="223.208" y2="162.153" gradientUnits="userSpaceOnUse">
<stop stop-color="#F57A00"/>
<stop offset="1" stop-color="#7103A4"/>
</linearGradient>
<linearGradient id="paint16_linear_1269_1094" x1="119.569" y1="183.164" x2="125.012" y2="183.164" gradientUnits="userSpaceOnUse">
<stop stop-color="#F57A00"/>
<stop offset="1" stop-color="#7103A4"/>
</linearGradient>
<linearGradient id="paint17_linear_1269_1094" x1="127.657" y1="176.951" x2="133.099" y2="176.951" gradientUnits="userSpaceOnUse">
<stop stop-color="#F57A00"/>
<stop offset="1" stop-color="#7103A4"/>
</linearGradient>
<linearGradient id="paint18_linear_1269_1094" x1="140.211" y1="188.511" x2="145.653" y2="188.511" gradientUnits="userSpaceOnUse">
<stop stop-color="#F57A00"/>
<stop offset="1" stop-color="#7103A4"/>
</linearGradient>
<linearGradient id="paint19_linear_1269_1094" x1="148.299" y1="182.297" x2="153.741" y2="182.297" gradientUnits="userSpaceOnUse">
<stop stop-color="#F57A00"/>
<stop offset="1" stop-color="#7103A4"/>
</linearGradient>
<linearGradient id="paint20_linear_1269_1094" x1="160.853" y1="181.257" x2="166.295" y2="181.257" gradientUnits="userSpaceOnUse">
<stop stop-color="#F57A00"/>
<stop offset="1" stop-color="#7103A4"/>
</linearGradient>
<linearGradient id="paint21_linear_1269_1094" x1="168.94" y1="183.977" x2="174.383" y2="183.977" gradientUnits="userSpaceOnUse">
<stop stop-color="#F57A00"/>
<stop offset="1" stop-color="#7103A4"/>
</linearGradient>
<linearGradient id="paint22_linear_1269_1094" x1="181.495" y1="176.951" x2="186.937" y2="176.951" gradientUnits="userSpaceOnUse">
<stop stop-color="#F57A00"/>
<stop offset="1" stop-color="#7103A4"/>
</linearGradient>
<linearGradient id="paint23_linear_1269_1094" x1="189.582" y1="176.951" x2="195.025" y2="176.951" gradientUnits="userSpaceOnUse">
<stop stop-color="#F57A00"/>
<stop offset="1" stop-color="#7103A4"/>
</linearGradient>
<linearGradient id="paint24_linear_1269_1094" x1="202.137" y1="175.591" x2="207.579" y2="175.591" gradientUnits="userSpaceOnUse">
<stop stop-color="#F57A00"/>
<stop offset="1" stop-color="#7103A4"/>
</linearGradient>
<linearGradient id="paint25_linear_1269_1094" x1="210.224" y1="171.617" x2="215.667" y2="171.617" gradientUnits="userSpaceOnUse">
<stop stop-color="#F57A00"/>
<stop offset="1" stop-color="#7103A4"/>
</linearGradient>
<linearGradient id="paint26_linear_1269_1094" x1="108.116" y1="174.881" x2="227.201" y2="174.881" gradientUnits="userSpaceOnUse">
<stop stop-color="#F57A00"/>
<stop offset="1" stop-color="#7103A4"/>
</linearGradient>
<linearGradient id="paint27_linear_1269_1094" x1="108.116" y1="122.955" x2="223.675" y2="122.955" gradientUnits="userSpaceOnUse">
<stop stop-color="#F57A00"/>
<stop offset="1" stop-color="#7103A4"/>
</linearGradient>
<linearGradient id="paint28_linear_1269_1094" x1="128.403" y1="113.308" x2="212.652" y2="113.308" gradientUnits="userSpaceOnUse">
<stop stop-color="#F57A00"/>
<stop offset="1" stop-color="#7103A4"/>
</linearGradient>
<linearGradient id="paint29_linear_1269_1094" x1="120.052" y1="115.52" x2="124.475" y2="111.097" gradientUnits="userSpaceOnUse">
<stop stop-color="#F57A00"/>
<stop offset="1" stop-color="#7103A4"/>
</linearGradient>
<linearGradient id="paint30_linear_1269_1094" x1="120.427" y1="113.487" x2="124.106" y2="113.487" gradientUnits="userSpaceOnUse">
<stop stop-color="#F57A00"/>
<stop offset="1" stop-color="#7103A4"/>
</linearGradient>
<linearGradient id="paint31_linear_1269_1094" x1="119.139" y1="122.955" x2="125.394" y2="122.955" gradientUnits="userSpaceOnUse">
<stop stop-color="#F57A00"/>
<stop offset="1" stop-color="#7103A4"/>
</linearGradient>
<linearGradient id="paint32_linear_1269_1094" x1="120.427" y1="123.134" x2="124.105" y2="123.134" gradientUnits="userSpaceOnUse">
<stop stop-color="#F57A00"/>
<stop offset="1" stop-color="#7103A4"/>
</linearGradient>
<linearGradient id="paint33_linear_1269_1094" x1="121.548" y1="135.665" x2="122.986" y2="129.578" gradientUnits="userSpaceOnUse">
<stop stop-color="#F57A00"/>
<stop offset="1" stop-color="#7103A4"/>
</linearGradient>
<linearGradient id="paint34_linear_1269_1094" x1="120.807" y1="132.602" x2="123.725" y2="132.602" gradientUnits="userSpaceOnUse">
<stop stop-color="#F57A00"/>
<stop offset="1" stop-color="#7103A4"/>
</linearGradient>
<linearGradient id="paint35_linear_1269_1094" x1="236.731" y1="191.295" x2="262.197" y2="191.295" gradientUnits="userSpaceOnUse">
<stop stop-color="#F57A00"/>
<stop offset="1" stop-color="#7103A4"/>
</linearGradient>
<linearGradient id="paint36_linear_1269_1094" x1="267.415" y1="191.295" x2="333.785" y2="191.295" gradientUnits="userSpaceOnUse">
<stop stop-color="#F57A00"/>
<stop offset="1" stop-color="#7103A4"/>
</linearGradient>
<linearGradient id="paint37_linear_1269_1094" x1="236.731" y1="136.039" x2="333.785" y2="136.039" gradientUnits="userSpaceOnUse">
<stop stop-color="#F57A00"/>
<stop offset="1" stop-color="#7103A4"/>
</linearGradient>
<linearGradient id="paint38_linear_1269_1094" x1="17.9324" y1="233.829" x2="130.377" y2="233.829" gradientUnits="userSpaceOnUse">
<stop stop-color="#F57A00"/>
<stop offset="1" stop-color="#7103A4"/>
</linearGradient>
<linearGradient id="paint39_linear_1269_1094" x1="17.9326" y1="256.774" x2="130.378" y2="256.774" gradientUnits="userSpaceOnUse">
<stop stop-color="#F57A00"/>
<stop offset="1" stop-color="#7103A4"/>
</linearGradient>
<linearGradient id="paint40_linear_1269_1094" x1="329.603" y1="129.291" x2="390.772" y2="129.291" gradientUnits="userSpaceOnUse">
<stop stop-color="#F57A00"/>
<stop offset="1" stop-color="#7103A4"/>
</linearGradient>
<linearGradient id="paint41_linear_1269_1094" x1="371.614" y1="105.3" x2="388.911" y2="105.3" gradientUnits="userSpaceOnUse">
<stop stop-color="#F57A00"/>
<stop offset="1" stop-color="#7103A4"/>
</linearGradient>
<linearGradient id="paint42_linear_1269_1094" x1="340.438" y1="252.689" x2="391.743" y2="252.689" gradientUnits="userSpaceOnUse">
<stop stop-color="#F57A00"/>
<stop offset="1" stop-color="#7103A4"/>
</linearGradient>
<linearGradient id="paint43_linear_1269_1094" x1="55.0891" y1="74.7487" x2="184.049" y2="74.7487" gradientUnits="userSpaceOnUse">
<stop stop-color="#F57A00"/>
<stop offset="1" stop-color="#7103A4"/>
</linearGradient>
<linearGradient id="paint44_linear_1269_1094" x1="137.699" y1="248.245" x2="-10.4621" y2="178.827" gradientUnits="userSpaceOnUse">
<stop stop-color="#F37803"/>
<stop offset="1" stop-color="#5A310A"/>
</linearGradient>
<linearGradient id="paint45_linear_1269_1094" x1="121.01" y1="74.5326" x2="167.936" y2="74.5326" gradientUnits="userSpaceOnUse">
<stop stop-color="#F57A00"/>
<stop offset="1" stop-color="#7103A4"/>
</linearGradient>
<linearGradient id="paint46_linear_1269_1094" x1="210.764" y1="86.0501" x2="242.446" y2="86.0501" gradientUnits="userSpaceOnUse">
<stop stop-color="#F57A00"/>
<stop offset="1" stop-color="#7103A4"/>
</linearGradient>
<linearGradient id="paint47_linear_1269_1094" x1="196.535" y1="98.2521" x2="239.43" y2="98.2521" gradientUnits="userSpaceOnUse">
<stop stop-color="#F57A00"/>
<stop offset="1" stop-color="#7103A4"/>
</linearGradient>
<linearGradient id="paint48_linear_1269_1094" x1="233.193" y1="122.554" x2="196.511" y2="99.4239" gradientUnits="userSpaceOnUse">
<stop stop-color="#F37803"/>
<stop offset="1" stop-color="#5A310A"/>
</linearGradient>
</defs>
</svg>
