<svg width="29" height="29" viewBox="0 0 29 29" fill="none" xmlns="http://www.w3.org/2000/svg">
<path d="M14.3191 2.38831C9.70089 2.38831 5.96576 6.12344 5.96576 10.7416C5.96576 15.7178 11.2403 22.5795 13.4122 25.1929C13.8895 25.7657 14.7606 25.7657 15.238 25.1929C17.3979 22.5795 22.6724 15.7178 22.6724 10.7416C22.6724 6.12344 18.9373 2.38831 14.3191 2.38831ZM14.3191 13.725C12.6723 13.725 11.3358 12.3884 11.3358 10.7416C11.3358 9.09484 12.6723 7.75831 14.3191 7.75831C15.9659 7.75831 17.3024 9.09484 17.3024 10.7416C17.3024 12.3884 15.9659 13.725 14.3191 13.725Z" fill="#F57A00"/>
</svg>
