<svg width="588" height="538" viewBox="0 0 588 538" fill="none" xmlns="http://www.w3.org/2000/svg">
<path opacity="0.6" d="M486.794 456.072L366.005 525.614C358.207 530.112 348.849 530.112 341.05 525.614L68.6261 368.538C61.0009 364.041 61.0009 353.142 68.6261 348.644L190.628 278.237C197.906 274.085 206.918 274.085 214.196 278.237L445.549 411.613L478.302 430.469L486.621 435.313C494.766 439.984 494.766 451.401 486.794 456.072Z" fill="#333435"/>
<path d="M483.155 432.199L370.164 497.244C358.034 504.164 343.13 504.164 330.999 497.244L263.24 458.148L128.067 380.302L64.2936 343.455C58.0549 339.822 57.3617 331.692 61.8674 327.021C62.5606 326.329 63.2538 325.81 64.2936 325.291L196.347 249.175C198.426 247.964 200.852 247.964 202.932 249.175L483.328 410.748C484.888 411.613 486.101 412.651 486.967 414.035C491.126 419.571 489.913 428.221 483.155 432.199Z" fill="#7103A4"/>
<path d="M489.22 406.078L489.394 421.647L469.464 427.01C469.464 427.01 471.717 404.867 472.237 404.867C472.41 405.04 489.22 406.078 489.22 406.078Z" fill="#A535C5"/>
<path d="M59.6146 316.641L58.9214 335.497L102.939 334.805L59.6146 316.641Z" fill="#77B7FF"/>
<path d="M483.155 417.149L362.366 486.691C354.568 491.189 345.21 491.189 337.411 486.691L64.9869 329.788C57.3618 325.291 57.3618 314.392 64.9869 309.894L186.989 239.487C194.267 235.335 203.279 235.335 210.557 239.487L441.91 372.863L474.663 391.719L482.982 396.563C491.126 401.234 491.127 412.651 483.155 417.149Z" fill="#F6BCA5"/>
<path d="M84.916 310.587L112.47 294.152L193.227 245.888C196.693 243.812 201.199 243.812 204.665 245.888L468.251 400.542C473.103 403.31 473.103 410.229 468.251 412.997L362.019 474.582C354.568 478.907 345.556 478.907 338.104 474.582L85.0894 329.789C77.6375 325.637 77.4642 314.911 84.916 310.587Z" fill="url(#paint0_linear_1380_5491)"/>
<path d="M120.789 299.861L110.911 292.941L163.767 261.63L171.565 266.474C174.165 268.031 174.165 271.837 171.565 273.221L125.121 300.034C123.735 300.726 122.002 300.726 120.789 299.861Z" fill="#7103A4"/>
<path d="M124.601 288.444L148.69 274.777C149.383 274.431 150.249 274.431 150.943 274.777L151.116 274.95C152.502 275.815 152.676 277.891 151.116 278.756L127.721 292.768C127.027 293.287 125.988 293.114 125.295 292.768L124.601 292.249C123.215 291.384 123.215 289.309 124.601 288.444Z" fill="white"/>
<path d="M160.994 272.183C160.994 273.394 159.608 274.258 158.048 274.258C156.488 274.258 155.102 273.394 155.102 272.183C155.102 270.972 156.488 270.107 158.048 270.107C159.781 270.107 160.994 271.145 160.994 272.183Z" fill="white"/>
<g opacity="0.5">
<mask id="mask0_1380_5491" style="mask-type:luminance" maskUnits="userSpaceOnUse" x="301" y="382" width="122" height="73">
<path d="M358.38 454.515L301.712 419.225L365.659 382.724L422.327 418.014L358.38 454.515Z" fill="white"/>
</mask>
<g mask="url(#mask0_1380_5491)">
<path d="M359.42 416.111C358.207 416.803 358.034 417.841 359.074 418.533C368.432 424.415 371.724 432.545 369.125 440.33C368.778 441.541 370.511 442.579 372.591 442.233C373.111 442.06 373.631 441.887 373.977 441.714C374.497 441.368 374.844 441.022 374.844 440.676C377.79 431.854 374.151 422.685 363.579 416.111C362.713 415.592 360.98 415.419 359.767 415.938C359.593 416.111 359.42 416.111 359.42 416.111Z" fill="white"/>
<path d="M357.168 423.723C356.474 424.242 356.128 424.934 356.648 425.28C361.673 430.296 362.54 436.351 359.767 442.06C359.421 442.925 360.287 443.617 361.847 443.617C362.367 443.617 363.06 443.444 363.406 443.271C363.753 443.098 363.926 442.925 364.1 442.579C367.219 436.178 366.352 429.431 360.634 423.896C360.114 423.377 358.727 423.204 357.688 423.55C357.514 423.55 357.341 423.55 357.168 423.723Z" fill="white"/>
<path d="M353.702 412.132C348.849 414.9 348.329 419.398 352.489 421.993C353.355 422.512 354.741 422.512 355.608 421.993C356.474 421.474 356.648 420.609 355.781 420.09C353.182 418.36 353.528 415.765 356.474 413.862C359.594 412.132 364.273 411.959 366.872 413.689C371.725 416.803 375.364 420.263 377.617 424.415C377.963 425.107 379.176 425.453 380.39 425.107C380.736 425.107 380.909 424.934 381.083 424.761C381.776 424.415 381.949 423.896 381.776 423.377C379.35 419.052 375.364 415.073 370.165 411.786C366.006 409.191 358.554 409.364 353.702 412.132Z" fill="white"/>
<path d="M380.216 427.528C379.696 427.874 379.35 428.393 379.523 428.739C380.389 431.853 380.563 435.14 379.869 438.254C379.696 439.292 381.429 439.984 382.989 439.465C383.162 439.465 383.335 439.292 383.509 439.292C383.855 439.119 384.202 438.773 384.202 438.427C384.895 434.967 384.895 431.507 383.855 428.047C383.682 427.356 382.469 427.01 381.256 427.183C380.909 427.183 380.563 427.355 380.216 427.528Z" fill="white"/>
<path d="M372.764 408.672C371.898 409.191 371.725 410.056 372.591 410.575C383.336 417.149 388.188 425.972 387.841 434.967C387.841 436.005 389.921 436.524 391.307 435.832C391.307 435.832 391.307 435.832 391.481 435.832C392.001 435.486 392.174 435.14 392.174 434.794C392.694 425.28 387.321 415.765 375.884 408.672C375.017 408.153 373.631 408.153 372.764 408.672Z" fill="white"/>
<path d="M348.849 409.191C340.877 413.689 340.011 420.955 346.943 425.279C348.329 426.144 349.716 427.182 350.755 428.22C351.275 428.739 352.662 428.912 353.701 428.566C353.875 428.566 354.048 428.393 354.048 428.393C354.741 428.047 355.088 427.355 354.568 426.836C353.355 425.625 351.968 424.414 350.235 423.377C344.863 420.09 345.556 414.554 351.795 411.094C354.568 409.537 358.034 408.499 361.673 408.326C362.193 408.326 362.713 408.153 363.233 407.98C363.753 407.634 363.926 407.288 363.926 406.942C363.926 406.25 362.886 405.731 361.846 405.731C356.994 405.904 352.488 407.115 348.849 409.191Z" fill="white"/>
<path d="M354.742 435.14C354.222 435.486 354.049 435.832 354.049 436.178C354.049 438.081 353.355 439.984 352.316 441.887C351.796 442.579 352.662 443.444 353.875 443.444C354.568 443.444 355.262 443.271 355.781 443.098C356.128 442.925 356.301 442.752 356.475 442.579C357.688 440.503 358.381 438.254 358.381 436.005C358.381 435.313 357.341 434.794 356.128 434.794C355.782 434.794 355.262 434.967 354.742 435.14Z" fill="white"/>
<path d="M389.748 415.419C389.054 415.765 388.881 416.457 389.228 416.976C392.347 421.128 394.253 425.453 394.773 429.95C394.947 430.988 397.026 431.334 398.413 430.642C398.586 430.642 398.586 430.469 398.759 430.469C399.106 430.123 399.279 429.777 399.279 429.431C398.586 424.588 396.68 419.917 393.214 415.592C392.694 414.9 391.134 414.727 389.921 415.246C389.748 415.419 389.748 415.419 389.748 415.419Z" fill="white"/>
<path d="M343.997 406.251C338.451 409.364 335.159 413.689 334.812 418.014C334.812 418.706 335.678 419.225 336.892 419.225C337.411 419.225 337.931 419.052 338.451 418.879C338.971 418.706 339.144 418.36 339.144 417.841C339.318 414.208 342.091 410.748 346.77 407.981C355.954 402.791 369.992 402.445 377.79 407.462C380.043 408.845 382.296 410.402 384.202 412.132C384.895 412.651 386.282 412.824 387.321 412.305L387.668 412.132C388.534 411.613 388.708 410.921 388.014 410.402C385.935 408.673 383.682 406.943 381.256 405.386C371.898 399.677 355.088 399.85 343.997 406.251Z" fill="white"/>
<path d="M336.892 421.82C336.198 422.166 336.025 422.858 336.198 423.377C337.238 425.28 338.971 427.01 341.397 428.393C346.77 431.853 348.156 436.697 345.383 441.195C345.037 441.887 345.557 442.579 346.596 442.752C347.463 442.925 348.329 442.752 348.849 442.406C349.196 442.233 349.369 442.06 349.542 441.887C352.835 436.524 351.275 430.642 344.69 426.491C342.784 425.28 341.224 423.896 340.358 422.166C340.011 421.474 338.451 421.128 337.238 421.647C337.065 421.647 336.892 421.647 336.892 421.82Z" fill="white"/>
<path d="M365.833 397.428C365.486 397.601 365.139 397.947 365.139 398.293C364.966 398.985 365.659 399.677 366.872 399.677C373.458 400.023 379.177 401.58 383.682 404.348C391.307 409.019 396.853 414.727 399.799 421.128C400.146 421.82 401.359 422.166 402.572 421.82C402.918 421.82 403.265 421.647 403.438 421.474C404.131 421.128 404.305 420.609 404.131 420.09C401.012 413.343 395.12 407.289 387.148 402.272C382.123 399.158 375.364 397.255 367.912 396.909C366.872 396.909 366.352 397.082 365.833 397.428Z" fill="white"/>
<path d="M339.318 403.31C325.281 411.44 323.721 424.069 335.852 431.68C339.318 433.756 340.185 437.043 338.798 439.811C338.452 440.33 338.798 441.022 339.665 441.195C340.531 441.368 341.571 441.368 342.264 440.849C342.611 440.676 342.784 440.503 342.957 440.157C344.864 436.351 343.824 432.372 339.145 429.604C328.574 423.031 329.96 411.959 342.091 405.04C346.077 402.791 350.756 401.061 355.955 400.196C356.301 400.196 356.648 400.023 356.995 399.85C357.515 399.504 357.861 398.985 357.688 398.639C357.515 397.947 356.301 397.601 355.088 397.774C349.196 398.812 343.824 400.715 339.318 403.31Z" fill="white"/>
<path d="M393.387 401.926C392.521 402.445 392.347 403.137 393.041 403.656C396.853 406.424 400.146 409.538 402.572 412.825C403.265 413.689 405.171 413.689 406.211 412.998C406.731 412.825 406.904 412.479 406.904 411.96C404.132 408.327 400.666 405.04 396.506 401.753C395.987 401.407 394.6 401.407 393.387 401.926Z" fill="white"/>
<path d="M339.144 397.947C338.278 398.466 338.105 399.158 338.798 399.677C339.491 400.196 340.877 400.369 341.917 399.85C355.781 393.795 373.804 393.622 385.935 399.331C386.801 399.677 388.014 399.677 388.881 399.158L389.054 398.985C389.921 398.466 389.747 397.601 388.881 397.082C375.19 390.681 354.915 390.854 339.491 397.601C339.318 397.774 339.318 397.774 339.144 397.947Z" fill="white"/>
<path d="M329.266 403.829C329.093 403.829 329.093 404.002 328.92 404.002C319.042 412.132 317.482 422.512 324.934 430.469C325.454 430.988 326.84 431.161 327.88 430.815C328.053 430.815 328.227 430.642 328.227 430.642C328.92 430.296 329.266 429.604 328.747 429.085C321.988 421.993 323.374 412.651 332.212 405.386C332.906 404.694 332.732 404.002 331.866 403.656C331.173 403.31 329.96 403.31 329.266 403.829Z" fill="white"/>
<path d="M331.346 433.41C330.48 433.929 330.307 434.621 331 435.14C331.866 435.832 332.213 436.697 332.04 437.562C332.04 437.908 332.386 438.254 332.733 438.6C333.599 438.946 334.812 438.946 335.679 438.427C336.025 438.254 336.372 437.908 336.372 437.562C336.545 436.178 335.852 434.967 334.639 433.756C334.119 433.237 332.906 433.064 331.866 433.237C331.693 433.237 331.52 433.41 331.346 433.41Z" fill="white"/>
</g>
</g>
<path d="M269.825 124.967L271.211 241.909C271.211 243.466 272.077 244.677 273.291 245.542L415.915 327.713C418.688 329.27 422.153 327.367 422.153 324.08L422.5 209.214C422.5 207.657 421.634 206.273 420.42 205.581L276.063 121.334C273.291 119.604 269.651 121.68 269.825 124.967Z" fill="url(#paint1_linear_1380_5491)" fill-opacity="0.8"/>
<path d="M414.008 329.27L419.034 328.059L412.795 319.409L414.008 329.27Z" fill="#77B7FF"/>
<path d="M267.052 122.372L272.771 120.815L273.29 134.654L267.052 122.372Z" fill="#77B7FF"/>
<path d="M416.781 210.598L416.435 325.464C416.435 328.75 412.969 330.653 410.196 329.096L338.104 287.579L267.572 246.926C266.359 246.234 265.492 244.85 265.492 243.293L264.106 126.351C264.106 123.064 267.572 120.988 270.344 122.718L391.826 193.644L414.702 206.965C416.088 207.657 416.781 209.041 416.781 210.598Z" fill="url(#paint2_linear_1380_5491)"/>
<path d="M274.85 214.576V226.686L295.299 238.622V226.513L274.85 214.576Z" fill="white"/>
<path d="M300.325 229.108V241.217L320.774 252.98V241.044L300.325 229.108Z" fill="white"/>
<path d="M325.106 243.466V255.575L345.729 267.512V255.575L325.106 243.466Z" fill="white"/>
<path d="M351.795 259.035V271.145L372.244 283.081V271.145L351.795 259.035Z" fill="white"/>
<mask id="mask1_1380_5491" style="mask-type:luminance" maskUnits="userSpaceOnUse" x="382" y="207" width="27" height="44">
<path d="M382.295 243.639L382.641 207.311L408.636 214.403L408.289 250.905L382.295 243.639Z" fill="white"/>
</mask>
<g mask="url(#mask1_1380_5491)">
<path d="M395.639 210.771C388.533 208.695 382.641 215.269 382.468 225.302C382.468 235.336 388.187 245.196 395.292 247.099C402.397 249.175 408.289 242.601 408.463 232.568C408.463 222.534 402.744 212.847 395.639 210.771Z" fill="white"/>
</g>
<mask id="mask2_1380_5491" style="mask-type:luminance" maskUnits="userSpaceOnUse" x="281" y="150" width="44" height="56">
<path d="M281.436 181.535L281.609 150.397L324.067 174.443V205.581L281.436 181.535Z" fill="white"/>
</mask>
<g mask="url(#mask2_1380_5491)">
<path d="M284.381 178.767V169.253L285.768 169.945C286.461 170.291 286.981 170.81 287.154 171.502C287.501 172.194 287.674 173.232 287.674 174.789V177.557C287.674 178.767 287.501 179.459 287.327 179.805C286.981 180.151 286.634 180.151 286.114 179.805L284.381 178.767ZM284.381 164.582V156.279L285.768 157.144C286.288 157.49 286.634 157.836 286.808 158.528C286.981 159.22 287.154 160.084 287.154 161.122V162.852C287.154 164.063 286.981 164.928 286.634 165.101C286.288 165.447 285.941 165.447 285.421 165.101L284.381 164.582ZM285.941 152.819L281.609 150.397V181.535L286.114 184.13C287.501 184.995 288.714 184.995 289.407 184.13C290.1 183.265 290.447 181.708 290.447 179.286V176.692C290.447 174.962 290.274 173.578 289.927 172.194C289.58 170.81 289.06 169.772 288.194 168.734C288.887 168.561 289.407 168.042 289.58 167.177C289.927 166.312 290.1 165.101 290.1 163.544V162.506C290.1 160.084 289.754 158.182 289.06 156.625C288.541 154.895 287.501 153.684 285.941 152.819Z" fill="white"/>
<path d="M295.126 179.286L296.512 164.236L297.899 180.843L295.126 179.286ZM298.765 160.084L294.433 157.663L291.487 187.244L294.086 188.801L294.606 183.438L298.245 185.514L298.765 191.396L301.711 193.126L298.765 160.084Z" fill="white"/>
<path d="M312.455 167.869L309.856 166.312L309.683 184.995L306.737 164.582L303.097 162.506V193.644L305.697 195.201V172.54L309.336 197.277L312.282 199.007L312.455 167.869Z" fill="white"/>
<path d="M324.067 174.443L321.294 172.886L317.308 184.303L317.481 170.637L314.535 168.907L314.362 200.218L317.308 201.775V192.261L318.348 189.839L321.121 204.024L324.067 205.581L320.081 186.033L324.067 174.443Z" fill="white"/>
</g>
<path opacity="0.5" d="M416.781 210.598L416.435 325.464C416.435 328.751 412.969 330.654 410.196 329.097L338.104 287.579C338.277 287.233 338.624 286.887 339.144 286.541C340.357 285.503 341.917 285.157 343.476 284.811C351.795 283.081 360.286 282.216 368.258 279.448C376.23 276.68 384.028 271.664 387.667 264.052C390.44 258.343 390.787 251.597 390.96 245.196C391.306 235.162 391.653 225.302 391.826 215.269C392 208.176 392 200.91 391.826 193.818L414.702 207.138C416.088 207.657 416.781 209.041 416.781 210.598Z" fill="#E0E0E0"/>
<path d="M77.291 190.876L77.4643 267.857L99.1266 280.659L100.166 204.197L77.291 190.876Z" fill="url(#paint3_linear_1380_5491)"/>
<path d="M122.349 191.742L100.167 204.197L99.1267 280.659L122.522 266.647L122.349 191.742Z" fill="url(#paint4_linear_1380_5491)"/>
<path d="M99.993 178.075L77.291 190.877L100.166 204.197L122.348 191.742L99.993 178.075Z" fill="url(#paint5_linear_1380_5491)"/>
<path opacity="0.5" d="M195.307 350.893C222.393 350.893 244.351 336.487 244.351 318.717C244.351 300.946 222.393 286.54 195.307 286.54C168.221 286.54 146.264 300.946 146.264 318.717C146.264 336.487 168.221 350.893 195.307 350.893Z" fill="#050505"/>
<path d="M192.707 342.071C219.793 342.071 241.751 327.665 241.751 309.894C241.751 292.124 219.793 277.718 192.707 277.718C165.622 277.718 143.664 292.124 143.664 309.894C143.664 327.665 165.622 342.071 192.707 342.071Z" fill="#F57A00"/>
<g opacity="0.5">
<path d="M200.852 293.806C200.506 293.979 200.332 293.979 200.159 294.152C199.986 294.325 199.813 294.498 199.639 294.671C199.466 294.844 199.293 295.017 199.293 295.19C199.119 295.363 199.119 295.536 199.119 295.709L194.787 314.392L178.844 312.316C178.324 312.316 177.977 312.316 177.457 312.316C176.937 312.316 176.591 312.316 176.244 312.489C175.897 312.489 175.378 312.662 175.031 312.835C174.684 313.008 174.338 313.008 173.991 313.181C173.818 313.354 173.471 313.354 173.298 313.527C173.125 313.7 172.951 313.873 172.778 313.873C172.605 314.046 172.431 314.219 172.258 314.392C172.085 314.565 172.085 314.738 171.912 314.911C171.738 315.43 171.565 315.776 171.738 316.295C171.738 316.641 172.085 317.16 172.258 317.506C172.605 317.852 173.125 318.198 173.645 318.371C174.164 318.544 174.858 318.89 175.551 318.89L198.08 321.831C198.426 321.831 198.946 321.831 199.293 321.831C199.639 321.831 200.159 321.831 200.506 321.831C200.852 321.831 201.372 321.658 201.719 321.658C202.065 321.485 202.412 321.485 202.759 321.312C202.759 321.312 202.759 321.312 202.932 321.312C202.932 321.312 202.932 321.312 203.105 321.312C203.279 321.312 203.105 321.312 203.279 321.312C203.625 321.139 203.798 320.966 204.145 320.793C204.318 320.62 204.665 320.447 204.838 320.274C205.011 320.101 205.185 319.928 205.358 319.582C205.531 319.409 205.531 319.236 205.531 318.89L210.037 296.401C210.037 296.055 210.037 295.536 209.864 295.19C209.691 294.844 209.344 294.498 208.997 294.152C208.651 293.806 208.131 293.633 207.438 293.46C206.918 293.287 206.225 293.114 205.531 293.114C205.185 293.114 204.838 293.114 204.492 293.114C204.145 293.114 203.798 293.114 203.452 293.287C203.105 293.287 202.759 293.46 202.585 293.46C201.372 293.633 201.026 293.633 200.852 293.806Z" fill="#050505"/>
</g>
<path d="M198.773 291.73C198.426 291.903 198.253 291.903 198.079 292.076C197.906 292.249 197.733 292.422 197.559 292.595C197.386 292.768 197.213 292.941 197.213 293.114C197.04 293.287 197.04 293.46 197.04 293.633L192.707 312.316L176.764 310.24C176.244 310.24 175.897 310.24 175.377 310.24C174.857 310.24 174.511 310.24 174.164 310.413C173.818 310.413 173.298 310.586 172.951 310.759C172.605 310.932 172.258 310.932 171.911 311.105C171.738 311.278 171.391 311.278 171.218 311.451C171.045 311.624 170.872 311.797 170.698 311.797C170.525 311.97 170.352 312.143 170.178 312.316C170.005 312.489 170.005 312.662 169.832 312.835C169.658 313.354 169.485 313.7 169.658 314.219C169.658 314.565 170.005 315.084 170.178 315.43C170.525 315.776 171.045 316.122 171.565 316.295C172.085 316.468 172.778 316.814 173.471 316.814L196 319.755C196.346 319.755 196.866 319.755 197.213 319.755C197.559 319.755 198.079 319.755 198.426 319.755C198.773 319.755 199.292 319.582 199.639 319.582C199.986 319.409 200.332 319.409 200.679 319.236C200.679 319.236 200.679 319.236 200.852 319.236C200.852 319.236 200.852 319.236 201.025 319.236C201.025 319.236 201.025 319.236 201.199 319.236C201.545 319.063 201.719 318.89 202.065 318.717C202.238 318.544 202.585 318.371 202.758 318.198C202.932 318.025 203.105 317.852 203.278 317.506C203.452 317.333 203.452 317.16 203.452 316.814L207.957 294.325C207.957 293.979 207.957 293.46 207.784 293.114C207.611 292.768 207.264 292.422 206.918 292.076C206.571 291.73 206.051 291.557 205.358 291.384C204.838 291.211 204.145 291.038 203.452 291.038C203.105 291.038 202.758 291.038 202.412 291.038C202.065 291.038 201.719 291.038 201.372 291.211C201.025 291.211 200.679 291.384 200.505 291.384C199.292 291.384 198.946 291.557 198.773 291.73Z" fill="white"/>
<path opacity="0.5" d="M220.435 369.75L307.258 320.101L329.093 332.902L242.098 382.205L220.435 369.75Z" fill="white"/>
<path opacity="0.5" d="M255.268 399.85L350.755 344.839L372.764 357.64L275.717 412.824L255.268 399.85Z" fill="white"/>
<path d="M0 194.51L0.346596 302.802L30.847 320.966L32.4067 213.02L0 194.51Z" fill="url(#paint6_linear_1380_5491)"/>
<path d="M63.6002 195.547L32.4066 213.019L30.8469 320.966L63.7735 301.418L63.6002 195.547Z" fill="url(#paint7_linear_1380_5491)"/>
<path d="M32.0601 176.346L0 194.51L32.4067 213.02L63.6003 195.548L32.0601 176.346Z" fill="url(#paint8_linear_1380_5491)"/>
<path opacity="0.5" d="M217.316 262.668C217.316 266.993 210.557 270.453 202.412 270.453C194.094 270.453 187.509 266.993 187.509 262.668C187.509 258.343 194.267 254.884 202.412 254.884C210.557 254.711 217.316 258.343 217.316 262.668Z" fill="white"/>
<path d="M215.062 179.113C216.275 176.692 217.315 173.924 218.008 170.81C218.702 167.696 219.048 164.236 219.048 160.603C219.048 155.76 218.355 151.089 217.315 146.764C216.102 142.266 214.542 138.288 212.463 134.655C210.383 131.022 207.957 128.081 205.358 125.832C202.758 123.583 199.812 122.199 196.866 121.68C193.92 121.161 191.147 121.68 188.721 122.891C186.295 124.102 184.215 126.178 182.309 128.773C180.576 131.368 179.19 134.655 178.15 138.288C177.283 141.92 176.763 146.072 176.763 150.397C176.763 153.684 177.11 157.144 177.803 160.257C178.496 163.371 179.363 166.485 180.403 169.426C181.616 172.367 182.829 174.962 184.389 177.383C185.948 179.805 187.681 181.881 189.587 183.611V189.839L190.107 246.061C190.107 247.791 190.454 249.694 190.801 251.424C191.32 253.154 191.84 254.883 192.707 256.267C193.4 257.824 194.44 259.208 195.48 260.246C196.519 261.457 197.732 262.322 198.772 262.841L204.664 265.609V254.364L212.29 257.651C212.636 257.824 212.983 257.824 213.329 257.997C213.676 257.997 214.022 257.997 214.196 257.997C214.542 257.997 214.716 257.824 215.062 257.651C215.236 257.478 215.582 257.305 215.755 257.132C215.929 256.959 216.102 256.613 216.275 256.267C216.449 255.921 216.622 255.575 216.795 255.229C216.969 254.883 216.969 254.537 217.142 254.019C217.142 253.5 217.315 253.154 217.315 252.635C217.315 251.597 217.142 250.732 216.969 249.694C216.795 248.656 216.449 247.791 215.929 246.926C215.409 246.061 214.889 245.369 214.369 244.677C213.849 244.158 213.156 243.639 212.463 243.293L207.091 241.044L204.838 240.179V236.546L207.091 237.411L212.463 239.66C212.809 239.833 213.156 239.833 213.503 239.833C213.849 239.833 214.196 239.833 214.369 239.833C214.716 239.833 214.889 239.66 215.236 239.487C215.582 239.314 215.755 239.141 215.929 238.968C216.102 238.795 216.275 238.449 216.449 238.103C216.622 237.757 216.795 237.411 216.969 237.065C217.142 236.719 217.142 236.2 217.315 235.854C217.315 235.335 217.488 234.989 217.488 234.471C217.488 233.433 217.315 232.395 217.142 231.53C216.969 230.492 216.449 229.627 216.102 228.762C215.582 227.897 215.062 227.205 214.542 226.686C214.022 226.167 213.329 225.648 212.636 225.475L207.264 223.399L205.011 222.534V194.51V188.109C207.091 187.59 208.824 186.552 210.557 184.995C212.29 183.438 213.849 181.535 215.062 179.113ZM192.014 133.79C192.36 132.579 192.707 131.714 193.4 130.849C193.92 129.984 194.613 129.465 195.306 129.119C196 128.773 196.866 128.6 197.732 128.773C198.599 128.946 199.465 129.465 200.159 129.984C200.852 130.676 201.718 131.541 202.238 132.579C202.758 133.617 203.278 134.828 203.625 136.039C203.971 137.25 204.145 138.806 204.145 140.19C204.145 141.574 203.971 142.958 203.625 143.996C203.278 145.207 202.758 146.072 202.238 146.937C201.718 147.802 201.025 148.321 200.159 148.667C199.465 149.013 198.599 149.013 197.732 148.84C196.866 148.667 196 148.148 195.306 147.456C194.613 146.764 193.92 145.899 193.227 144.861C192.707 143.823 192.187 142.612 191.84 141.401C191.494 140.19 191.32 138.806 191.32 137.423C191.494 136.212 191.667 134.828 192.014 133.79Z" fill="#A535C5"/>
<path d="M188.028 184.13L188.722 246.407C188.722 248.137 189.068 250.04 189.415 251.77C189.935 253.5 190.454 255.229 191.321 256.613C192.014 258.17 193.054 259.554 194.094 260.592C195.134 261.803 196.347 262.668 197.386 263.187L203.279 265.955V254.71L202.065 254.191C201.372 253.846 200.852 253.5 200.332 252.808C199.813 252.289 199.293 251.424 198.946 250.732C198.599 249.867 198.253 249.002 197.906 248.137C197.733 247.272 197.56 246.234 197.56 245.369C197.56 244.85 197.56 244.504 197.56 243.985C197.56 243.639 197.733 243.12 197.733 242.774C197.906 242.428 197.906 242.082 198.08 241.736C198.253 241.39 198.426 241.217 198.599 240.871C198.773 240.698 199.119 240.525 199.293 240.352C199.466 240.179 199.813 240.179 200.159 240.006C200.506 240.006 200.679 240.006 201.026 240.006C201.372 240.006 201.719 240.179 201.892 240.179L203.105 240.698V237.065L201.892 236.546C201.199 236.2 200.679 235.854 200.159 235.335C199.639 234.816 199.119 234.125 198.599 233.26C198.253 232.395 197.906 231.53 197.56 230.665C197.386 229.8 197.213 228.762 197.213 227.724C197.213 227.205 197.213 226.859 197.213 226.34C197.213 225.994 197.386 225.475 197.56 225.129C197.733 224.783 197.733 224.437 197.906 224.091C198.08 223.745 198.253 223.572 198.426 223.226C198.599 223.053 198.946 222.707 199.119 222.707C199.293 222.534 199.639 222.361 199.986 222.361C200.332 222.361 200.506 222.188 200.852 222.361C201.199 222.361 201.546 222.534 201.719 222.534L202.932 223.053V195.029C202.412 195.202 201.719 195.375 201.199 195.375C200.506 195.375 199.986 195.548 199.293 195.375C198.599 195.375 198.08 195.202 197.386 195.202C196.693 195.029 196.173 194.856 195.48 194.683C194.787 194.51 194.094 194.164 193.574 193.991C192.881 193.645 192.361 193.299 191.668 192.953C190.974 192.607 190.454 192.088 189.935 191.742C189.415 191.223 188.722 190.877 188.202 190.185L188.028 184.13Z" fill="url(#paint9_linear_1380_5491)"/>
<path d="M210.73 244.158L205.358 241.909V255.921L203.105 254.883V241.044L201.892 240.525C201.545 240.352 201.199 240.352 201.025 240.352C200.679 240.352 200.506 240.352 200.159 240.352C199.812 240.352 199.639 240.525 199.292 240.698C199.119 240.871 198.773 241.044 198.599 241.217C198.426 241.39 198.253 241.736 198.079 242.082C197.906 242.428 197.733 242.774 197.733 243.12C197.559 243.466 197.559 243.812 197.559 244.331C197.559 244.677 197.386 245.196 197.559 245.715C197.559 246.58 197.733 247.618 197.906 248.483C198.079 249.348 198.426 250.213 198.946 251.077C199.292 251.942 199.812 252.634 200.332 253.153C200.852 253.672 201.545 254.191 202.065 254.537L203.278 255.056L210.903 258.343C211.25 258.516 211.597 258.516 211.943 258.689C212.29 258.689 212.636 258.689 212.81 258.689C213.156 258.689 213.33 258.516 213.676 258.343C213.849 258.17 214.196 257.997 214.369 257.824C214.543 257.651 214.716 257.305 214.889 256.959C215.063 256.613 215.236 256.267 215.409 255.921C215.582 255.575 215.582 255.229 215.756 254.71C215.756 254.191 215.929 253.845 215.929 253.326C215.929 252.288 215.756 251.423 215.582 250.386C215.409 249.348 215.063 248.483 214.543 247.618C214.023 246.753 213.503 246.061 212.983 245.369C212.116 244.85 211.423 244.331 210.73 244.158Z" fill="white"/>
<path d="M210.903 226.167L205.531 224.091V238.276L203.278 237.411V223.226L202.065 222.707C201.719 222.534 201.372 222.534 201.199 222.534C200.852 222.534 200.679 222.534 200.332 222.534C199.986 222.534 199.812 222.707 199.466 222.88C199.292 223.053 198.946 223.226 198.773 223.399C198.599 223.572 198.426 223.918 198.253 224.264C198.079 224.61 197.906 224.956 197.906 225.302C197.733 225.648 197.733 225.994 197.559 226.513C197.559 226.859 197.386 227.378 197.559 227.897C197.559 228.935 197.733 229.8 197.906 230.838C198.079 231.703 198.426 232.568 198.946 233.433C199.292 234.298 199.812 234.99 200.506 235.509C201.025 236.027 201.719 236.546 202.238 236.719L203.452 237.238L211.077 240.352C211.423 240.525 211.77 240.525 212.116 240.525C212.463 240.525 212.81 240.525 212.983 240.525C213.33 240.525 213.503 240.352 213.849 240.179C214.196 240.006 214.369 239.833 214.543 239.66C214.716 239.487 214.889 239.141 215.063 238.795C215.236 238.449 215.409 238.103 215.582 237.757C215.756 237.411 215.756 236.892 215.929 236.546C215.929 236.027 216.102 235.682 216.102 235.163C216.102 234.125 215.929 233.087 215.756 232.222C215.582 231.184 215.063 230.319 214.716 229.454C214.196 228.589 213.676 227.897 213.156 227.378C212.116 226.859 211.423 226.34 210.903 226.167Z" fill="white"/>
<path d="M188.028 184.13V190.358C188.548 190.877 189.241 191.396 189.761 191.915C190.281 192.434 190.974 192.78 191.494 193.126C192.187 193.472 192.707 193.818 193.401 194.164C194.094 194.51 194.614 194.683 195.307 194.856C196 195.029 196.693 195.202 197.213 195.375C197.906 195.548 198.426 195.548 199.119 195.548C199.813 195.548 200.332 195.548 201.026 195.548C201.719 195.548 202.239 195.375 202.759 195.202V188.801C202.239 188.974 201.546 189.147 200.852 189.147C200.159 189.147 199.639 189.32 198.946 189.32C198.253 189.32 197.733 189.32 197.04 189.147C196.347 188.974 195.827 188.801 195.134 188.628C194.44 188.455 193.747 188.109 193.227 187.936C192.534 187.59 192.014 187.244 191.321 186.898C190.628 186.552 190.108 186.033 189.415 185.687C189.241 185.168 188.548 184.649 188.028 184.13Z" fill="#F57A00"/>
<path d="M195.826 149.705C194.96 149.532 194.093 149.013 193.4 148.321C192.707 147.629 192.014 146.764 191.321 145.726C190.801 144.688 190.281 143.477 189.934 142.266C189.588 141.055 189.414 139.671 189.414 138.287C189.414 136.904 189.588 135.693 189.934 134.482C190.281 133.271 190.628 132.406 191.321 131.541C191.841 130.676 192.534 130.157 193.227 129.811C193.92 129.465 194.787 129.292 195.653 129.465C196.52 129.638 197.386 130.157 198.079 130.676C198.773 131.368 199.639 132.233 200.159 133.271C200.679 134.309 201.199 135.52 201.545 136.731C201.892 137.941 202.065 139.498 202.065 140.882C202.065 142.266 201.892 143.65 201.545 144.688C201.199 145.899 200.679 146.764 200.159 147.629C199.639 148.494 198.946 149.013 198.079 149.359C197.559 149.705 196.693 149.878 195.826 149.705ZM194.96 122.372C192.014 121.853 189.241 122.372 186.815 123.583C184.389 124.794 182.309 126.87 180.403 129.465C178.67 132.06 177.284 135.347 176.244 138.979C175.377 142.612 174.857 146.764 174.857 151.089C174.857 154.376 175.204 157.835 175.897 160.949C176.59 164.063 177.457 167.177 178.497 170.118C179.71 173.059 180.923 175.654 182.483 178.075C184.042 180.497 185.775 182.573 187.681 184.303C188.201 184.822 188.895 185.341 189.414 185.687C189.934 186.206 190.628 186.552 191.321 186.898C192.014 187.244 192.534 187.59 193.227 187.936C193.92 188.282 194.44 188.455 195.133 188.628C195.826 188.801 196.52 188.974 197.04 189.147C197.733 189.32 198.253 189.32 198.946 189.32C199.639 189.32 200.159 189.32 200.852 189.147C201.545 189.147 202.065 188.974 202.758 188.801C204.838 188.282 206.571 187.244 208.304 185.687C210.037 184.13 211.597 182.227 212.81 179.805C214.023 177.383 215.063 174.616 215.756 171.502C216.449 168.388 216.796 164.928 216.796 161.295C216.796 156.451 216.102 151.781 215.063 147.456C213.849 142.958 212.29 138.979 210.21 135.347C208.131 131.714 205.704 128.773 203.105 126.524C200.852 124.448 197.906 122.891 194.96 122.372Z" fill="url(#paint10_linear_1380_5491)"/>
<path d="M205.358 224.091L203.105 223.226V237.238L205.358 238.276V224.091Z" fill="#F57A00"/>
<path d="M205.358 241.909L203.105 240.871V254.883L205.358 255.748V241.909Z" fill="#F57A00"/>
<path d="M205.185 265.436L203.279 266.128V260.938L205.185 265.436Z" fill="#A535C5"/>
<path opacity="0.5" d="M474.837 391.719L426.313 400.714L441.91 372.863L474.837 391.719Z" fill="#050505"/>
<path d="M528.213 377.361L423.714 396.736L458.373 335.151L484.368 350.893L484.715 367.327L499.098 359.889L528.213 377.361Z" fill="white"/>
<path d="M484.368 350.893L423.714 396.736L484.715 367.327L484.368 350.893Z" fill="#F57A00"/>
<path opacity="0.6" d="M229.62 520.252C228.407 532.188 204.318 539.454 175.898 536.513C147.477 533.572 125.295 521.636 126.508 509.699C127.721 497.763 151.809 490.497 180.23 493.438C208.651 496.379 230.833 508.315 229.62 520.252Z" fill="#333435"/>
<path d="M179.883 331.345C141.931 309.376 117.669 315.084 117.669 315.084L102.419 323.388C113.164 324.426 144.531 328.059 164.46 339.476C202.412 361.273 226.501 395.006 226.501 395.006V459.532C226.501 487.902 206.051 510.737 194.787 519.733C215.236 512.467 241.924 491.881 241.924 451.228V386.703C241.924 386.703 217.662 353.142 179.883 331.345Z" fill="#7103A4"/>
<path d="M226.674 459.359V394.833C226.674 394.833 202.585 361.273 164.633 339.303C144.704 327.886 128.587 323.907 117.843 322.869C107.965 321.831 102.593 323.215 102.593 323.215V387.741C102.593 461.435 164.633 523.885 164.633 523.885C164.633 523.885 188.202 527.344 206.225 512.813C217.489 503.818 226.674 487.729 226.674 459.359Z" fill="#F6BCA5"/>
<path d="M115.59 339.822C115.59 339.822 95.4873 454.342 164.46 507.277C164.46 507.277 231.526 525.268 213.33 396.217C213.33 396.044 172.605 333.94 115.59 339.822Z" fill="url(#paint11_linear_1380_5491)"/>
<path d="M164.46 514.024L163.247 512.813C158.048 507.104 147.997 494.995 138.119 478.907C119.576 449.152 110.218 420.09 110.218 392.411V333.075H111.604C115.07 332.902 118.709 333.075 122.695 333.594C131.707 334.805 146.264 338.438 164.287 348.645C182.656 359.197 197.387 372.69 206.571 382.205C210.211 386.011 213.85 389.989 216.969 393.795L218.356 395.525V454.861C218.356 482.713 208.824 501.05 189.935 509.353C180.23 513.678 170.352 514.024 165.327 514.024H164.46ZM115.59 339.822V395.525C115.59 421.301 124.428 448.46 141.758 476.312C150.423 490.324 159.434 501.223 164.46 507.277C169.486 507.277 178.151 506.758 186.815 502.953C204.492 495.168 213.33 477.869 213.33 451.92V396.217C210.731 393.103 207.785 389.989 204.838 386.876C196 377.88 181.963 364.906 164.46 354.872C147.304 345.012 133.44 341.552 124.775 340.341C121.655 339.995 118.536 339.822 115.59 339.822Z" fill="white"/>
<g opacity="0.5">
<path d="M196.174 401.234C195.654 401.061 195.307 401.061 194.787 401.061C194.441 401.061 193.921 401.061 193.574 401.061C193.228 401.234 192.708 401.234 192.361 401.58C192.015 401.753 191.668 402.099 191.321 402.445L164.46 431.68L154.582 413.343C154.236 412.824 153.889 412.305 153.716 411.786C153.369 411.268 153.022 410.922 152.676 410.576C152.329 410.23 151.809 409.884 151.463 409.711C151.116 409.538 150.596 409.192 150.25 409.192C149.903 409.019 149.73 409.019 149.383 409.019C149.037 409.019 148.863 409.019 148.517 409.019C148.17 409.019 147.997 409.019 147.65 409.192C147.304 409.365 147.13 409.365 146.957 409.538C146.437 409.884 145.917 410.403 145.571 411.095C145.224 411.786 145.051 412.478 145.051 413.343C145.051 414.208 145.051 415.073 145.224 416.111C145.397 416.976 145.744 418.014 146.264 418.879L160.301 445.174C160.648 445.693 160.821 446.212 161.167 446.558C161.514 447.077 161.861 447.423 162.207 447.769C162.554 448.115 162.9 448.461 163.42 448.807C163.767 449.153 164.287 449.326 164.633 449.499C164.98 449.672 165.5 449.845 165.847 449.845C166.193 449.845 166.54 449.845 167.06 449.845C167.406 449.845 167.753 449.672 168.099 449.499C168.446 449.326 168.793 449.153 168.966 448.807L200.853 415.592C201.373 415.073 201.892 414.208 202.066 413.343C202.239 412.478 202.412 411.613 202.412 410.576C202.412 409.538 202.066 408.673 201.719 407.635C201.373 406.597 200.853 405.732 200.16 404.694C199.813 404.348 199.466 404.002 199.293 403.656C198.946 403.31 198.6 402.964 198.253 402.791C197.907 402.445 197.56 402.272 197.213 402.099C196.867 401.407 196.52 401.407 196.174 401.234Z" fill="#050505"/>
</g>
<path d="M193.054 401.58C192.534 401.407 192.188 401.407 191.668 401.407C191.321 401.407 190.801 401.407 190.455 401.407C190.108 401.58 189.588 401.58 189.242 401.926C188.895 402.099 188.548 402.445 188.202 402.791L161.341 432.026L151.463 413.689C151.116 413.17 150.769 412.651 150.596 412.132C150.249 411.613 149.903 411.267 149.556 410.921C149.21 410.576 148.69 410.23 148.343 410.057C147.997 409.884 147.477 409.538 147.13 409.538C146.783 409.365 146.61 409.365 146.264 409.365C145.917 409.365 145.744 409.365 145.397 409.365C145.051 409.365 144.877 409.365 144.531 409.538C144.184 409.711 144.011 409.711 143.837 409.884C143.318 410.23 142.798 410.749 142.451 411.44C142.104 412.132 141.931 412.824 141.931 413.689C141.931 414.554 141.931 415.419 142.104 416.457C142.278 417.322 142.624 418.36 143.144 419.225L157.181 445.52C157.528 446.039 157.701 446.558 158.048 446.904C158.394 447.423 158.741 447.769 159.088 448.115C159.434 448.461 159.781 448.807 160.301 449.153C160.647 449.499 161.167 449.671 161.514 449.844C161.86 450.017 162.38 450.19 162.727 450.19C163.074 450.19 163.42 450.19 163.94 450.19C164.287 450.19 164.633 450.017 164.98 449.844C165.326 449.671 165.673 449.499 165.846 449.153L197.733 415.938C198.253 415.419 198.773 414.554 198.946 413.689C199.119 412.824 199.293 411.959 199.293 410.921C199.293 409.884 198.946 409.019 198.6 407.981C198.253 406.943 197.733 406.078 197.04 405.04C196.693 404.694 196.347 404.348 196.173 404.002C195.827 403.656 195.48 403.31 195.134 403.137C194.787 402.791 194.44 402.618 194.094 402.445C193.747 401.926 193.401 401.753 193.054 401.58Z" fill="white"/>
<mask id="mask3_1380_5491" style="mask-type:luminance" maskUnits="userSpaceOnUse" x="454" y="254" width="134" height="124">
<path d="M454.214 302.11L455.254 254.191L588 329.097L586.96 377.015L454.214 302.11Z" fill="white"/>
</mask>
<g mask="url(#mask3_1380_5491)">
<path d="M467.385 307.992C460.627 304.186 455.254 290.865 455.601 278.583C455.948 266.301 461.666 259.381 468.425 263.187L574.657 323.215C581.415 327.021 586.788 340.168 586.441 352.623C586.094 364.906 580.376 371.825 573.617 368.02L467.385 307.992ZM574.83 321.658L468.598 261.63C461.32 257.478 455.081 264.917 454.908 278.064C454.561 291.211 460.28 305.397 467.559 309.549L573.79 369.576C581.069 373.728 587.307 366.29 587.481 353.142C587.827 339.822 582.108 325.81 574.83 321.658Z" fill="url(#paint12_linear_1380_5491)"/>
<path d="M475.53 282.389C473.797 281.351 472.584 282.562 472.41 285.157C472.237 291.211 477.263 291.211 477.089 295.536C477.089 297.093 476.396 297.785 475.183 297.266C473.97 296.574 473.45 294.844 473.45 293.46L472.237 292.768C472.237 295.536 473.45 297.958 475.183 298.996C477.089 300.034 478.302 298.477 478.302 296.055C478.476 290 473.623 290 473.623 285.676C473.623 283.946 474.317 283.427 475.356 283.946C476.396 284.638 476.916 286.195 477.089 287.232L478.302 287.924C478.302 285.676 477.263 283.427 475.53 282.389Z" fill="white"/>
<path d="M485.235 288.097L480.382 285.33L480.036 301.591L484.888 304.359V302.629L481.249 300.553V294.844L484.542 296.747V295.017L481.422 293.114V287.751L485.062 289.827L485.235 288.097Z" fill="white"/>
<path d="M490.953 291.211C488.527 289.827 486.448 292.076 486.274 296.92C486.101 301.764 488.007 306.261 490.607 307.818C492.513 308.856 494.073 307.991 494.939 305.224L493.553 304.359C493.033 306.088 491.993 306.607 490.78 305.743C488.874 304.705 487.487 301.418 487.661 297.439C487.834 293.46 489.22 291.73 491.127 292.768C492.513 293.46 493.38 295.19 493.899 297.439L495.286 298.304C494.419 294.844 493.033 292.249 490.953 291.211Z" fill="white"/>
<path d="M503.604 298.477L502.391 297.785L502.218 307.991C502.218 310.932 501.178 311.797 499.965 311.105C498.579 310.413 497.712 308.51 497.885 305.57L498.059 295.363L496.846 294.671L496.672 304.878C496.499 309.029 498.059 311.97 499.965 313.008C501.871 314.046 503.431 313.008 503.431 308.856L503.604 298.477Z" fill="white"/>
<path d="M506.55 308.165L506.724 301.937L508.457 302.975C509.843 303.667 510.363 305.224 510.363 307.127C510.363 309.029 509.67 309.894 508.457 309.202L506.55 308.165ZM508.457 301.245L505.511 299.688L505.164 315.949L506.377 316.641L506.55 310.067L507.937 310.932L509.843 318.717L511.229 319.582L509.15 311.451C510.71 311.624 511.403 310.067 511.403 307.992C511.576 305.051 510.536 302.456 508.457 301.245Z" fill="white"/>
<path d="M514.522 304.705L513.482 304.013L512.962 320.274L514.175 320.966L514.522 304.705Z" fill="white"/>
<path d="M522.147 308.856L516.082 305.57V307.299L518.508 308.683L518.161 323.215L519.201 323.734L519.548 309.202L522.147 310.586V308.856Z" fill="white"/>
<path d="M529.772 313.354L528.559 312.489L526.133 319.582L524.053 310.067L522.84 309.375L525.439 321.139V327.194L526.479 327.886L526.652 321.831L529.772 313.354Z" fill="white"/>
<path d="M538.61 318.025C536.184 316.641 534.105 318.89 533.931 323.907C533.758 328.75 535.664 333.248 538.264 334.632C540.17 335.67 541.73 334.805 542.596 332.037L541.21 331.172C540.69 332.902 539.65 333.421 538.437 332.556C536.531 331.518 535.144 328.231 535.318 324.253C535.491 320.274 536.877 318.544 538.784 319.582C540.17 320.274 541.037 322.004 541.556 324.253L542.943 325.118C542.076 321.831 540.517 319.063 538.61 318.025Z" fill="white"/>
<path d="M548.142 338.438C546.235 337.4 544.849 334.113 545.022 330.134C545.196 326.156 546.582 324.426 548.488 325.464C550.395 326.502 551.781 329.788 551.608 333.767C551.608 337.746 550.048 339.476 548.142 338.438ZM548.488 323.734C545.889 322.35 543.983 324.599 543.809 329.442C543.636 334.286 545.542 338.784 548.142 340.341C550.741 341.725 552.647 339.476 552.821 334.632C552.994 329.615 551.088 325.118 548.488 323.734Z" fill="white"/>
<path d="M555.42 342.417L555.767 329.615L557.326 330.48C559.753 331.864 560.792 334.978 560.792 338.957C560.619 342.936 559.406 344.666 557.153 343.282L555.42 342.417ZM557.326 328.923L554.554 327.366L554.207 343.628L556.98 345.185C559.926 346.914 561.832 344.839 562.005 339.822C562.005 334.632 560.272 330.48 557.326 328.923Z" fill="white"/>
<path d="M568.591 335.151L563.739 332.383L563.392 348.644L568.071 351.412L568.244 349.682L564.605 347.607V342.071L567.898 343.801V342.071L564.778 340.168V334.805L568.418 336.881L568.591 335.151Z" fill="white"/>
</g>
<mask id="mask4_1380_5491" style="mask-type:luminance" maskUnits="userSpaceOnUse" x="107" y="0" width="135" height="124">
<path d="M107.445 48.159L108.485 0.240479L241.231 75.3186L240.191 123.064L107.445 48.159Z" fill="white"/>
</mask>
<g mask="url(#mask4_1380_5491)">
<path d="M120.615 54.0407C113.857 50.2349 108.485 37.0876 108.831 24.6322C109.004 12.3498 114.897 5.4302 121.655 9.236L227.887 69.2639C234.645 73.0697 240.018 86.39 239.671 98.6724C239.324 110.955 233.606 117.874 226.847 114.069L120.615 54.0407ZM228.06 67.707L121.655 7.67908C114.377 3.52729 108.138 10.9659 107.965 24.1132C107.618 37.2605 113.337 51.4458 120.615 55.5976L226.847 115.625C234.126 119.777 240.364 112.339 240.538 99.1913C241.057 86.044 235.339 71.8587 228.06 67.707Z" fill="url(#paint13_linear_1380_5491)"/>
<path d="M140.198 35.1848L138.985 34.4928L135.866 46.9482L133.439 31.379L132.053 30.687L135.172 48.8511L136.559 49.543L140.198 35.1848Z" fill="white"/>
<path d="M146.437 38.6443L141.584 35.8765L141.238 52.1376L145.917 54.9055L146.09 53.1756L142.451 51.0997V45.564L145.744 47.2939V45.564L142.624 43.8341V38.2983L146.263 40.3742L146.437 38.6443Z" fill="white"/>
<path d="M149.21 48.3319L149.383 42.1042L151.116 43.1422C152.502 43.8342 153.022 45.3911 153.022 47.294C153.022 49.1969 152.329 50.0618 151.116 49.3699L149.21 48.3319ZM151.116 41.2393L148.17 39.6824L147.823 55.9435L149.036 56.6355L149.21 50.0618L150.596 50.9268L152.502 58.7114L153.889 59.5763L151.809 51.4458C153.369 51.6188 154.062 50.0618 154.062 47.9859C154.062 45.2181 153.195 42.4502 151.116 41.2393Z" fill="white"/>
<path d="M157.181 44.6993L155.968 44.0073L155.622 60.2685L156.835 60.9604L157.181 44.6993Z" fill="white"/>
<path d="M164.287 48.678L159.088 45.9102L158.741 62.1713L159.954 62.8633L160.128 55.4247L163.247 57.3276V55.5977L160.128 53.6948L160.301 48.332L164.113 50.4079L164.287 48.678Z" fill="white"/>
<path d="M166.886 50.2347L165.673 49.5427L165.327 65.8039L166.366 66.4958L166.886 50.2347Z" fill="white"/>
<path d="M172.778 53.3487C170.179 51.9648 168.273 54.2136 168.099 59.0574C167.926 63.9011 169.832 68.3989 172.432 69.9558C174.338 70.9938 175.898 70.1288 176.764 67.361L175.378 66.496C174.858 68.2259 173.818 68.7449 172.605 67.8799C170.699 66.842 169.312 63.5552 169.486 59.5764C169.659 55.5976 171.045 53.8677 172.952 54.9056C174.338 55.5976 175.205 57.3275 175.724 59.5764L177.111 60.4413C176.244 57.1545 174.858 54.5596 172.778 53.3487Z" fill="white"/>
<path d="M180.23 68.9179L181.963 61.6523L183.349 70.8208L180.23 68.9179ZM182.83 59.4034L181.443 58.7114L177.804 73.0697L179.017 73.7616L179.884 70.4748L183.869 72.7237L184.563 76.7025L185.776 77.3945L182.83 59.4034Z" fill="white"/>
<path d="M192.881 64.9391L186.816 61.4792V63.2092L189.242 64.5931L188.895 79.1243L190.108 79.8163L190.455 65.285L192.881 66.669V64.9391Z" fill="white"/>
<path d="M195.48 66.4962L194.44 65.8042L194.094 82.0654L195.134 82.7573L195.48 66.4962Z" fill="white"/>
<path d="M201.373 84.487C199.466 83.4491 198.08 80.1622 198.253 76.1834C198.427 72.2046 199.813 70.4747 201.719 71.5127C203.626 72.5506 205.012 75.8375 204.839 79.8163C204.665 83.795 203.106 85.525 201.373 84.487ZM201.546 69.7828C198.946 68.3988 197.04 70.6477 196.867 75.4915C196.694 80.3352 198.6 84.833 201.199 86.3899C203.799 87.7738 205.705 85.525 205.878 80.6812C206.052 75.6645 204.145 71.1667 201.546 69.7828Z" fill="white"/>
<path d="M214.716 77.2217L213.503 76.5297L213.33 89.5041L208.824 73.9349L207.611 73.2429L207.265 89.5041L208.478 90.196L208.824 77.2217L213.157 92.9639L214.37 93.4829L214.716 77.2217Z" fill="white"/>
</g>
<mask id="mask5_1380_5491" style="mask-type:luminance" maskUnits="userSpaceOnUse" x="324" y="75" width="135" height="124">
<path d="M324.241 123.064L325.281 75.1458L458.027 150.224L456.987 198.142L324.241 123.064Z" fill="white"/>
</mask>
<g mask="url(#mask5_1380_5491)">
<path d="M337.585 128.946C330.826 125.14 325.454 111.993 325.801 99.5373C326.147 87.255 331.866 80.3353 338.625 84.1411L444.856 144.169C451.615 147.975 456.987 161.295 456.641 173.577C456.294 185.86 450.575 192.78 443.817 188.974L337.585 128.946ZM444.856 142.785L338.625 82.7572C331.346 78.6054 325.107 86.044 324.934 99.1914C324.588 112.339 330.306 126.524 337.585 130.676L443.817 190.704C451.095 194.855 457.334 187.417 457.507 174.269C457.854 160.949 452.135 146.764 444.856 142.785Z" fill="url(#paint14_linear_1380_5491)"/>
<path d="M365.139 114.76L359.073 111.301V113.03L361.5 114.414L361.153 128.946L362.366 129.638L362.713 115.106L365.139 116.49V114.76Z" fill="white"/>
<path d="M367.566 124.102L367.739 117.875L369.472 118.913C370.858 119.605 371.378 121.161 371.378 123.064C371.378 124.967 370.685 125.832 369.472 125.14L367.566 124.102ZM369.472 117.183L366.526 115.626L366.179 131.887L367.392 132.579L367.566 126.005L368.952 126.524L370.858 134.309L372.245 135.174L370.165 127.043C371.725 127.216 372.418 125.659 372.418 123.583C372.591 120.988 371.551 118.394 369.472 117.183Z" fill="white"/>
<path d="M375.884 131.887L377.617 124.621L379.003 133.79L375.884 131.887ZM378.483 122.372L377.097 121.68L373.458 136.038L374.671 136.73L375.537 133.444L379.523 135.692L380.216 139.671L381.429 140.363L378.483 122.372Z" fill="white"/>
<path d="M390.094 128.773L389.054 128.081L388.708 141.055L384.375 125.486L383.162 124.794L382.816 141.055L383.855 141.747L384.202 128.773L388.708 144.515L389.748 145.034L390.094 128.773Z" fill="white"/>
<path d="M394.946 131.368C393.213 130.33 392 131.541 391.827 134.136C391.654 140.19 396.679 140.19 396.506 144.515C396.506 146.072 395.813 146.764 394.6 146.245C393.387 145.553 392.867 143.823 392.867 142.439L391.654 141.747C391.654 144.515 392.867 146.937 394.6 147.975C396.506 149.013 397.719 147.456 397.719 145.034C397.893 138.979 393.04 138.979 393.04 134.655C393.04 132.925 393.907 132.406 394.773 132.925C395.813 133.617 396.333 135.174 396.506 136.212L397.719 136.903C397.719 134.655 396.679 132.233 394.946 131.368Z" fill="white"/>
<path d="M404.825 137.077L399.799 134.309L399.279 150.57L400.492 151.089L400.665 143.823L403.785 145.553L403.958 143.823L400.665 142.093L400.839 136.558L404.825 138.807V137.077Z" fill="white"/>
<path d="M411.063 140.537L406.211 137.942L405.865 154.203L410.717 156.971V155.068L407.078 152.992L407.251 147.456L410.37 149.359L410.544 147.629L407.251 145.726L407.424 140.364L411.063 142.439V140.537Z" fill="white"/>
<path d="M413.836 150.224L414.009 143.996L415.742 145.034C417.128 145.726 417.648 147.283 417.648 149.186C417.648 151.089 416.955 151.954 415.742 151.262L413.836 150.224ZM415.742 143.304L412.796 141.747L412.449 158.008L413.663 158.7L413.836 152.127L415.222 152.992L417.129 160.776L418.515 161.641L416.435 153.511C417.995 153.684 418.688 152.127 418.688 150.051C418.861 147.11 417.822 144.515 415.742 143.304Z" fill="white"/>
</g>
<defs>
<linearGradient id="paint0_linear_1380_5491" x1="79.4131" y1="361.077" x2="471.89" y2="361.077" gradientUnits="userSpaceOnUse">
<stop stop-color="#F57A00"/>
<stop offset="1" stop-color="#7103A4"/>
</linearGradient>
<linearGradient id="paint1_linear_1380_5491" x1="370.95" y1="502.462" x2="157.972" y2="417.256" gradientUnits="userSpaceOnUse">
<stop stop-color="#7103A4"/>
<stop offset="1" stop-color="#3C0754"/>
</linearGradient>
<linearGradient id="paint2_linear_1380_5491" x1="264.106" y1="225.87" x2="416.781" y2="225.87" gradientUnits="userSpaceOnUse">
<stop stop-color="#F57A00"/>
<stop offset="1" stop-color="#7103A4"/>
</linearGradient>
<linearGradient id="paint3_linear_1380_5491" x1="77.291" y1="235.767" x2="100.166" y2="235.767" gradientUnits="userSpaceOnUse">
<stop stop-color="#F57A00"/>
<stop offset="1" stop-color="#7103A4"/>
</linearGradient>
<linearGradient id="paint4_linear_1380_5491" x1="99.1267" y1="236.2" x2="122.522" y2="236.2" gradientUnits="userSpaceOnUse">
<stop stop-color="#F57A00"/>
<stop offset="1" stop-color="#7103A4"/>
</linearGradient>
<linearGradient id="paint5_linear_1380_5491" x1="77.291" y1="191.136" x2="122.348" y2="191.136" gradientUnits="userSpaceOnUse">
<stop stop-color="#F57A00"/>
<stop offset="1" stop-color="#7103A4"/>
</linearGradient>
<linearGradient id="paint6_linear_1380_5491" x1="0" y1="257.737" x2="32.4067" y2="257.737" gradientUnits="userSpaceOnUse">
<stop stop-color="#F57A00"/>
<stop offset="1" stop-color="#7103A4"/>
</linearGradient>
<linearGradient id="paint7_linear_1380_5491" x1="30.8469" y1="258.256" x2="63.7735" y2="258.256" gradientUnits="userSpaceOnUse">
<stop stop-color="#F57A00"/>
<stop offset="1" stop-color="#7103A4"/>
</linearGradient>
<linearGradient id="paint8_linear_1380_5491" x1="0" y1="194.683" x2="63.6003" y2="194.683" gradientUnits="userSpaceOnUse">
<stop stop-color="#F57A00"/>
<stop offset="1" stop-color="#7103A4"/>
</linearGradient>
<linearGradient id="paint9_linear_1380_5491" x1="188.028" y1="225.042" x2="203.279" y2="225.042" gradientUnits="userSpaceOnUse">
<stop stop-color="#F57A00"/>
<stop offset="1" stop-color="#7103A4"/>
</linearGradient>
<linearGradient id="paint10_linear_1380_5491" x1="174.857" y1="155.745" x2="216.796" y2="155.745" gradientUnits="userSpaceOnUse">
<stop stop-color="#F57A00"/>
<stop offset="1" stop-color="#7103A4"/>
</linearGradient>
<linearGradient id="paint11_linear_1380_5491" x1="112.864" y1="423.78" x2="216.461" y2="423.78" gradientUnits="userSpaceOnUse">
<stop stop-color="#F57A00"/>
<stop offset="1" stop-color="#7103A4"/>
</linearGradient>
<linearGradient id="paint12_linear_1380_5491" x1="454.893" y1="315.603" x2="587.496" y2="315.603" gradientUnits="userSpaceOnUse">
<stop stop-color="#F57A00"/>
<stop offset="1" stop-color="#7103A4"/>
</linearGradient>
<linearGradient id="paint13_linear_1380_5491" x1="107.95" y1="61.6517" x2="240.57" y2="61.6517" gradientUnits="userSpaceOnUse">
<stop stop-color="#F57A00"/>
<stop offset="1" stop-color="#7103A4"/>
</linearGradient>
<linearGradient id="paint14_linear_1380_5491" x1="324.919" y1="136.73" x2="457.522" y2="136.73" gradientUnits="userSpaceOnUse">
<stop stop-color="#F57A00"/>
<stop offset="1" stop-color="#7103A4"/>
</linearGradient>
</defs>
</svg>
