<svg width="497" height="559" viewBox="0 0 497 559" fill="none" xmlns="http://www.w3.org/2000/svg">
<path d="M281.445 56.828C282.841 56.8157 283.959 57.9833 283.883 59.3781C283.245 71.2089 281.985 120.119 304.219 127.399C326.452 134.679 353.869 131.248 360.229 130.303C361.078 130.177 361.93 130.509 362.469 131.178L366.657 136.372C367.004 136.801 367.193 137.336 367.194 137.888L367.637 440.74C367.639 442.079 366.555 443.165 365.216 443.165H117.484C116.151 443.165 115.068 442.087 115.063 440.753L113.728 110.97C113.728 110.872 113.722 110.777 113.71 110.68C113.385 108.111 109.307 69.4145 156.532 58.1496C173.835 54.0222 178.797 52.7903 177.99 52.9207C175.049 53.3954 175.439 57.7545 178.418 57.7283L281.445 56.828Z" fill="url(#paint0_linear_1372_1542)" stroke="white" stroke-width="2" stroke-miterlimit="10" stroke-linecap="round"/>
<path d="M330.775 289.54H203.707V293.35H330.775V289.54Z" fill="#7A87B4"/>
<path d="M330.775 311.054H203.707V314.864H330.775V311.054Z" fill="#7A87B4"/>
<path d="M329.654 328.534H202.586V332.344H329.654V328.534Z" fill="#7A87B4"/>
<path d="M330.103 346.463H203.034V350.273H330.103V346.463Z" fill="#7A87B4"/>
<path d="M153.12 314.733H0V470.882H153.12V314.733Z" fill="white"/>
<path d="M481.151 516.111C481.823 516.111 491.012 514.094 491.012 514.094L493.029 519.697L484.737 521.042L481.151 516.111Z" fill="#F9FAF8"/>
<path d="M285.337 239.564C254.178 239.564 228.918 264.823 228.918 295.983C228.918 327.142 254.178 352.402 285.337 352.402C316.497 352.402 341.756 327.142 341.756 295.983C341.756 264.823 316.497 239.564 285.337 239.564ZM285.642 343.863C259.143 343.863 237.661 322.381 237.661 295.881C237.661 269.382 259.143 247.9 285.642 247.9C312.142 247.9 333.624 269.381 333.624 295.881C333.624 322.381 312.142 343.863 285.642 343.863Z" fill="#FFFDFA"/>
<path d="M85.042 62.4078L89.0759 502.553L405.514 503.225" stroke="url(#paint1_linear_1372_1542)" stroke-width="2" stroke-miterlimit="10" stroke-dasharray="10 10"/>
<path d="M23.0771 89.1885L410.333 90.085" stroke="url(#paint2_linear_1372_1542)" stroke-width="2" stroke-miterlimit="10" stroke-dasharray="10 10"/>
<path d="M412.574 59.3824L409.437 377.614" stroke="url(#paint3_linear_1372_1542)" stroke-width="2" stroke-miterlimit="10" stroke-dasharray="10 10"/>
<path d="M438.458 346.127L448.767 350.385L440.475 367.641L445.405 378.846L464.903 350.385C464.903 350.385 468.264 346.127 462.662 340.748C457.059 335.37 444.285 331.336 444.285 331.336L438.458 346.127Z" fill="white"/>
<path d="M416.832 514.767L417.357 521.585L427.477 521.602L427.925 515.327L416.832 514.767Z" fill="#F9FAF8"/>
<path d="M413.471 392.405L409.661 447.087C409.661 447.087 408.092 462.102 411.678 474.428C415.264 486.753 416.384 513.422 416.384 513.422L427.589 513.646L430.503 482.944C430.503 482.944 432.072 469.945 429.158 461.878L438.122 433.864L450.672 458.068L480.142 514.206L491.348 512.189L476.333 461.093L469.609 448.095L465.351 432.408C465.351 432.408 453.493 392.745 450.458 387.141C447.423 381.535 413.471 392.405 413.471 392.405Z" fill="#100D15" stroke="white" stroke-width="2" stroke-miterlimit="10" stroke-linecap="round"/>
<path d="M321.923 342.317L331.784 352.85L328.647 356.66L385.121 419.185C385.121 419.185 390.052 422.995 395.654 419.185C401.257 415.375 400.361 407.084 400.361 407.084L369.434 371.002L344.334 342.989C344.334 342.989 342.093 342.765 340.972 343.661L332.008 333.577L321.923 342.317Z" fill="#30338C"/>
<path d="M398.456 306.348C398.456 306.348 391.06 305.451 387.923 300.969C384.785 296.487 389.715 293.125 389.715 293.125C389.715 293.125 389.827 296.375 392.517 296.823C395.206 297.271 397.447 296.151 397.447 296.151C397.447 296.151 401.705 296.151 403.722 298.392C403.722 298.392 411.566 303.995 412.91 309.373C414.255 314.752 407.98 325.285 407.98 325.285L399.464 316.993C399.464 316.993 401.033 316.32 400.585 313.407C400.136 310.494 396.102 314.304 396.102 314.304C396.102 314.304 394.534 314.752 394.758 312.735C394.982 310.718 398.456 306.348 398.456 306.348Z" fill="#070707"/>
<path d="M399.688 306.684L388.707 300.857C388.707 300.857 384.673 308.253 382.88 309.373C381.087 310.494 379.07 312.287 379.07 312.287L382.208 315.2L381.311 317.889C381.311 317.889 382.656 318.786 382.88 318.337C383.104 317.889 382.432 320.13 381.759 319.458C381.087 318.786 381.759 324.164 381.759 324.164C381.759 324.164 385.793 327.302 391.62 327.974C391.62 327.974 398.119 335.818 398.567 339.403C399.016 342.989 410.445 330.663 411.117 329.095C411.79 327.526 403.946 320.578 403.946 320.578L400.36 316.769C400.36 316.769 402.601 312.511 400.808 311.838C399.016 311.166 395.654 313.183 395.654 313.183L399.688 306.684Z" fill="#FAFDFB"/>
<path d="M418.737 321.475L411.79 328.198C411.79 328.198 409.1 329.095 407.083 331.784C407.083 331.784 402.377 336.266 401.481 338.283C401.481 338.283 396.775 337.835 394.309 339.628C391.844 341.42 390.275 346.127 390.275 346.127L384 369.658L400.136 378.398L404.17 373.916L413.358 397.223C413.358 397.223 448.319 385.793 451.457 386.914C454.594 388.035 438.682 350.161 438.682 350.161L446.974 331.336C446.974 331.336 425.012 321.475 418.737 321.475Z" fill="#7103A4" stroke="white" stroke-width="2" stroke-miterlimit="10"/>
<path d="M400.584 373.916L396.999 385.345C396.999 385.345 392.068 394.758 388.707 395.206C388.707 395.206 384.897 398.568 379.967 395.43C375.036 392.293 365.624 383.777 365.624 383.777L355.315 377.502L350.16 378.174C350.16 378.174 349.04 378.846 348.143 378.846C347.247 378.846 346.126 378.846 346.351 378.174C346.575 377.502 347.247 377.053 347.247 377.053H344.109C344.109 377.053 344.109 375.485 345.23 375.036C345.23 375.036 340.972 376.605 342.317 373.468C342.317 373.468 338.059 373.916 340.076 370.778L349.04 366.52C349.04 366.52 346.126 365.624 345.678 364.279C345.23 362.935 347.695 362.038 347.695 362.038L351.729 363.831L358.452 367.417L372.571 375.26L382.88 379.967L385.121 368.986L400.584 373.916Z" fill="#F9FAFD"/>
<path d="M279.188 56.4262L369.433 137.932" stroke="white" stroke-width="3" stroke-miterlimit="10" stroke-linecap="round"/>
<path d="M331.784 159.894H238.107V164.376H331.784V159.894Z" fill="#FCFFFF"/>
<path d="M332.568 174.125H238.892V178.607H332.568V174.125Z" fill="#FCFFFF"/>
<path d="M331.896 215.809H204.827V219.619H331.896V215.809Z" fill="#FCFFFF"/>
<path d="M331.896 233.289H204.827V237.099H331.896V233.289Z" fill="#FCFFFF"/>
<path d="M330.327 251.89H203.259V255.7H330.327V251.89Z" fill="#FCFFFF"/>
<path d="M330.327 269.37H203.259V273.18H330.327V269.37Z" fill="#FCFFFF"/>
<path d="M284.609 234.297C250.263 234.297 222.42 262.14 222.42 296.487C222.42 330.834 250.263 358.677 284.609 358.677C318.956 358.677 346.799 330.834 346.799 296.487C346.799 262.14 318.956 234.297 284.609 234.297ZM284.945 349.264C255.735 349.264 232.056 325.585 232.056 296.375C232.056 267.165 255.735 243.486 284.945 243.486C314.155 243.486 337.835 267.165 337.835 296.375C337.835 325.585 314.155 349.264 284.945 349.264Z" fill="#F57A00"/>
<path d="M275.085 265L274.861 257.605C274.861 257.605 267.689 254.243 255.139 263.431C242.589 272.62 240.572 289.876 240.572 289.876L240.348 300.409L250.209 300.633C250.209 300.633 248.864 287.411 255.812 276.205C262.759 265 275.085 265 275.085 265Z" fill="#30338C"/>
<path d="M484.176 520.257L492.692 519.809L496.726 528.101C496.726 528.101 496.95 532.807 496.726 533.928C496.501 535.048 466.247 533.928 466.247 533.928C466.247 533.928 465.127 531.014 466.471 529.894C467.816 528.773 478.797 527.205 478.797 527.205C478.797 527.205 485.744 524.964 484.176 520.257Z" fill="white"/>
<path d="M417.28 519.249H427.589L428.037 525.3C428.037 525.3 431.175 530.454 429.158 533.816H399.576C399.576 533.816 399.128 530.678 401.369 529.334C403.61 527.989 413.47 526.196 413.47 526.196C413.47 526.196 417.28 525.076 417.28 519.249Z" fill="white"/>
<path d="M230.194 0.425568H128.225V104.411H230.194V0.425568Z" fill="#7103A4"/>
<path d="M225.039 5.68199H133.38V99.1546H225.039V5.68199Z" fill="#F5BB95"/>
<path d="M152.834 314.704H4.47583V465.997H152.834V314.704Z" fill="url(#paint4_linear_1372_1542)"/>
<path d="M95.2393 169.27H6.05103V260.222H95.2393V169.27Z" fill="white"/>
<path d="M95.073 169.253H8.6582V257.377H95.073V169.253Z" fill="url(#paint5_linear_1372_1542)"/>
<path d="M217.756 13.1096H140.663V91.727H217.756V13.1096Z" fill="url(#paint6_linear_1372_1542)"/>
<path d="M270.084 454.913H168.116V558.899H270.084V454.913Z" fill="#7103A4"/>
<path d="M264.93 460.17H173.271V553.642H264.93V460.17Z" fill="#F5BB95"/>
<path d="M242.495 546.215H195.705C187.337 546.215 180.554 539.431 180.554 531.064V482.749C180.554 474.381 187.338 467.598 195.705 467.598H242.495C250.863 467.598 257.647 474.381 257.647 482.749V531.064C257.647 539.432 250.863 546.215 242.495 546.215Z" fill="url(#paint7_linear_1372_1542)"/>
<path d="M419.997 153.037H342.974C342.955 153.037 342.939 153.021 342.939 153.002V74.454C342.939 74.4347 342.955 74.419 342.974 74.419H419.997C420.017 74.419 420.032 74.4347 420.032 74.454V153.002C420.032 153.021 420.017 153.037 419.997 153.037Z" fill="#7103A4"/>
<path d="M413.723 146.638H349.25C349.23 146.638 349.215 146.622 349.215 146.603V80.8531C349.215 80.8339 349.23 80.8182 349.25 80.8182H413.723C413.742 80.8182 413.757 80.8339 413.757 80.8531V146.603C413.757 146.622 413.742 146.638 413.723 146.638Z" fill="#F5BB95"/>
<path d="M323.793 78.6177H246.77C246.751 78.6177 246.735 78.602 246.735 78.5827V0.0349585C246.735 0.0156853 246.751 0 246.77 0H323.793C323.812 0 323.828 0.0156853 323.828 0.0349585V78.5829C323.827 78.6022 323.812 78.6177 323.793 78.6177Z" fill="#7103A4"/>
<path d="M317.518 72.2185H253.045C253.026 72.2185 253.01 72.2028 253.01 72.1836V6.43409C253.01 6.41482 253.026 6.39935 253.045 6.39935H317.518C317.537 6.39935 317.553 6.41504 317.553 6.43409V72.1838C317.553 72.2031 317.537 72.2185 317.518 72.2185Z" fill="#F5BB95"/>
<path d="M409.501 142.333H353.471C353.452 142.333 353.436 142.317 353.436 142.298V85.1582C353.436 85.1389 353.452 85.1233 353.471 85.1233H409.501C409.52 85.1233 409.536 85.1389 409.536 85.1582V142.298C409.536 142.317 409.52 142.333 409.501 142.333Z" fill="url(#paint8_linear_1372_1542)"/>
<path d="M313.135 67.257H257.105C257.086 67.257 257.07 67.2413 257.07 67.2221V10.0825C257.07 10.0633 257.086 10.0476 257.105 10.0476H313.135C313.154 10.0476 313.17 10.0633 313.17 10.0825V67.2221C313.17 67.2413 313.154 67.257 313.135 67.257Z" fill="url(#paint9_linear_1372_1542)"/>
<path d="M193.437 59.0859C193.462 59.459 193.494 59.7042 193.494 59.9491C193.495 65.3658 193.499 70.7825 193.491 76.1991C193.487 78.6876 192.674 79.495 190.209 79.4955C180.275 79.4973 170.341 79.4986 160.407 79.4973C157.888 79.4968 157.083 78.6748 157.083 76.1211C157.082 60.3196 157.082 44.5178 157.083 28.7163C157.084 26.1707 157.904 25.3424 160.412 25.3424C166.275 25.3424 172.139 25.3236 178.002 25.3744C178.592 25.3796 179.313 25.6629 179.746 26.0631C183.997 29.9924 188.201 33.9709 192.413 37.9417C193.946 39.3874 193.938 39.5637 192.435 40.9711C192.278 41.1173 192.164 41.3084 191.842 41.7192C191.798 40.8931 191.771 40.3956 191.736 39.7354C191.327 39.7354 190.932 39.7354 190.537 39.7354C187.587 39.7347 184.636 39.7338 181.686 39.7334C179.191 39.7332 178.278 38.8513 178.269 36.3924C178.257 33.3331 178.266 30.2736 178.266 27.077C177.808 27.0521 177.416 27.0127 177.024 27.0122C171.497 27.0077 165.97 27.0057 160.443 27.0095C158.994 27.0106 158.817 27.1899 158.817 28.6009C158.816 44.4399 158.816 60.2788 158.818 76.118C158.818 77.7226 158.905 77.8044 160.547 77.8046C170.406 77.806 180.266 77.8073 190.125 77.8064C191.673 77.8062 191.778 77.6993 191.779 76.1534C191.781 71.5588 191.852 66.9621 191.739 62.3702C191.703 60.9007 192.351 60.0307 193.437 59.0859ZM179.965 28.5967C179.965 31.6109 179.949 34.3163 179.976 37.0213C179.983 37.7756 180.541 38.0129 181.207 38.0194C182.622 38.0333 184.037 38.0365 185.453 38.0394C186.88 38.0425 188.308 38.04 190.012 38.04C186.594 34.8277 183.4 31.8254 179.965 28.5967Z" fill="#FDFBFF"/>
<path d="M201.336 46.622C200.941 47.3763 200.727 48.0764 200.289 48.5802C193.646 56.2084 186.977 63.813 180.299 71.4106C180.015 71.734 179.627 72.0159 179.23 72.1824C176.927 73.1495 174.615 74.0972 172.285 74.9954C171.887 75.1487 171.215 75.2117 170.976 74.9885C170.725 74.7527 170.716 74.0956 170.816 73.6727C171.294 71.6406 171.9 69.6377 172.351 67.5999C172.645 66.2681 173.334 65.2463 174.218 64.2444C180.514 57.107 186.772 49.9365 193.042 42.7754C194.547 41.0561 195.822 40.9579 197.533 42.442C198.407 43.2001 199.329 43.9123 200.129 44.7426C200.615 45.2478 200.908 45.9382 201.336 46.622ZM179.442 69.7885C185.28 63.1245 191.046 56.5414 196.878 49.8834C195.356 48.6127 193.906 47.4023 192.386 46.1332C186.55 52.7941 180.765 59.397 174.955 66.0283C176.478 67.3052 177.906 68.5015 179.442 69.7885ZM197.983 48.5529C198.287 48.2342 198.526 47.9536 198.796 47.7053C199.589 46.9743 199.532 46.334 198.667 45.6922C198.129 45.293 197.648 44.8168 197.144 44.3724C195.223 42.6799 195.142 42.69 193.589 44.8959C195.035 46.0998 196.487 47.3084 197.983 48.5529ZM174.15 67.61C173.673 69.4701 173.248 71.1276 172.776 72.9693C174.627 72.2107 176.251 71.5453 178.01 70.8241C176.678 69.7148 175.487 68.7238 174.15 67.61Z" fill="#FDFBFF"/>
<path d="M185.884 48.2555C185.209 49.4928 184.381 49.9453 183.028 49.9253C176.982 49.8357 170.935 49.8852 164.887 49.8841C164.589 49.8841 164.231 49.9831 164.005 49.8543C163.645 49.6494 163.372 49.2911 163.063 48.9977C163.362 48.7326 163.652 48.4572 163.965 48.2102C164.035 48.1556 164.183 48.1999 164.295 48.1999C171.276 48.1986 178.256 48.197 185.237 48.1984C185.417 48.1984 185.598 48.2293 185.884 48.2555Z" fill="#FDFBFF"/>
<path d="M182.931 51.618C182.244 52.9582 181.3 53.3136 179.954 53.2921C174.888 53.2112 169.82 53.26 164.752 53.258C164.417 53.2578 164.037 53.3353 163.76 53.2036C163.477 53.0689 163.098 52.7011 163.12 52.4705C163.15 52.1617 163.491 51.8443 163.768 51.6149C163.906 51.5008 164.199 51.5647 164.422 51.5644C170.347 51.5624 176.272 51.5622 182.196 51.5647C182.409 51.5644 182.622 51.5945 182.931 51.618Z" fill="#FDFBFF"/>
<path d="M179.961 55.0284C179.294 56.1272 178.588 56.7507 177.203 56.7151C173.07 56.6086 168.932 56.6812 164.795 56.681C164.46 56.681 164.068 56.7642 163.806 56.6205C163.501 56.4535 163.121 56.077 163.124 55.7947C163.127 55.5204 163.556 55.2313 163.833 54.9897C163.919 54.915 164.122 54.9733 164.271 54.9733C169.339 54.9733 174.407 54.9731 179.475 54.9756C179.61 54.9756 179.745 55.004 179.961 55.0284Z" fill="#FDFBFF"/>
<path d="M169.333 31.249C171.211 31.2308 172.766 32.7637 172.765 34.6312C172.764 36.5148 171.236 38.0481 169.361 38.047C167.531 38.0459 166.027 36.5585 165.993 34.7152C165.958 32.8285 167.462 31.2669 169.333 31.249ZM171.053 34.6144C171.027 33.6733 170.223 32.9322 169.282 32.9808C168.405 33.0261 167.662 33.8165 167.678 34.687C167.694 35.5814 168.57 36.3882 169.465 36.3324C170.341 36.2779 171.078 35.481 171.053 34.6144Z" fill="#FDFBFF"/>
<path d="M177.037 58.3347C176.341 59.602 175.536 60.1224 174.189 60.0762C171.063 59.9693 167.93 60.0442 164.801 60.0401C164.429 60.0397 164.012 60.104 163.7 59.9577C163.427 59.8292 163.14 59.4626 163.107 59.1728C163.08 58.9373 163.399 58.6404 163.609 58.4113C163.687 58.3262 163.891 58.3376 164.037 58.3374C168.316 58.3342 172.594 58.3347 177.037 58.3347Z" fill="#FDFBFF"/>
<path d="M174.01 61.8332C173.343 63.099 172.423 63.5851 170.998 63.493C168.84 63.3533 166.667 63.46 164.501 63.4537C163.865 63.4519 163.112 63.5214 163.085 62.6037C163.058 61.675 163.789 61.7118 164.442 61.7124C167.543 61.7158 170.643 61.7169 173.744 61.723C173.807 61.723 173.871 61.7736 174.01 61.8332Z" fill="#FDFBFF"/>
<path d="M171.163 65.1482C171.031 66.8299 171.031 66.8294 169.487 66.8288C167.772 66.8281 166.057 66.8274 164.342 66.8285C163.71 66.829 163.075 66.7857 163.081 65.9426C163.086 65.174 163.673 65.0973 164.27 65.0975C166.395 65.098 168.521 65.0982 170.646 65.1018C170.792 65.1018 170.939 65.1273 171.163 65.1482Z" fill="#FDFBFF"/>
<path d="M172.638 38.5885C173.073 38.088 173.411 37.6992 173.774 37.2815C175.242 38.1869 176.065 39.4385 176.119 41.139C176.154 42.2566 176.196 43.3825 176.092 44.4914C176.054 44.887 175.647 45.5008 175.321 45.5651C174.583 45.7101 174.449 45.0775 174.453 44.4632C174.457 43.6802 174.434 42.8965 174.457 42.1141C174.5 40.6455 174.162 39.3706 172.638 38.5885Z" fill="#FDFBFF"/>
<path d="M165.03 37.316C165.38 37.7324 165.69 38.1019 166.117 38.6109C164.074 39.5243 164.289 41.3476 164.306 43.1042C164.312 43.6999 164.359 44.3114 164.24 44.8854C164.182 45.1635 163.817 45.5006 163.532 45.5696C163.305 45.6247 162.858 45.3845 162.735 45.1541C161.708 43.2445 162.928 38.6532 164.749 37.4267C164.809 37.3866 164.886 37.3718 165.03 37.316Z" fill="#FDFBFF"/>
<path d="M170.261 68.4531C170.176 70.2063 170.176 70.2065 168.622 70.2063C167.166 70.2061 165.71 70.202 164.253 70.2074C163.642 70.2096 163.085 70.1144 163.08 69.3479C163.075 68.584 163.648 68.4603 164.245 68.4571C166.249 68.4466 168.253 68.4531 170.261 68.4531Z" fill="#FDFBFF"/>
<path d="M183.72 70.1989C184.443 69.0149 185.165 68.1232 186.517 68.4885C186.914 68.5958 187.211 69.0779 187.553 69.3883C187.217 69.6586 186.906 70.1139 186.54 70.1621C185.671 70.2766 184.777 70.1989 183.72 70.1989Z" fill="#FDFBFF"/>
<path d="M116.392 358.142C116.392 360.857 116.393 363.291 116.392 365.725C116.388 375.132 116.159 384.546 116.452 393.944C116.676 401.13 114.22 407.134 109.706 412.421C103.501 419.689 95.9162 425.122 87.1242 428.891C84.3005 430.102 81.5572 430.279 78.6976 429.048C68.6691 424.733 60.0791 418.559 53.6443 409.635C50.5218 405.305 48.9477 400.5 49.0127 395.055C49.1496 383.585 49.0396 372.112 49.0308 360.64C49.0302 359.891 49.0308 359.142 49.0308 358.624C54.3684 357.762 59.5098 357.128 64.561 356.065C70.5079 354.815 75.9949 352.29 81.232 349.207C81.8938 348.817 83.0935 348.54 83.6389 348.874C93.6029 354.961 104.416 358.026 116.392 358.142ZM55.6108 364.795C55.6108 365.024 55.6115 365.844 55.6108 366.663C55.6034 376.151 55.6698 385.64 55.5537 395.127C55.5037 399.222 56.7367 402.787 59.0914 406.033C64.7268 413.803 72.257 419.156 80.9705 422.915C81.9575 423.341 83.4357 423.33 84.4336 422.916C91.9463 419.792 98.5481 415.32 103.947 409.167C107.923 404.636 110.168 399.612 109.921 393.33C109.574 384.544 109.825 375.734 109.82 366.935C109.82 366.102 109.82 365.269 109.82 364.29C108.928 364.148 108.171 364.092 107.45 363.901C101.338 362.282 94.9671 361.258 89.2068 358.804C84.5907 356.837 80.6924 355.771 76.4193 358.86C76.1786 359.034 75.8678 359.13 75.5758 359.212C69.0568 361.039 62.5364 362.86 55.6108 364.795Z" fill="#A535C5" stroke="white" stroke-miterlimit="10" stroke-linecap="round"/>
<path d="M134.121 341.723C134.121 345.869 134.122 349.585 134.121 353.302C134.115 367.665 133.765 382.038 134.212 396.387C134.555 407.358 130.804 416.525 123.913 424.597C114.439 435.694 102.858 443.989 89.4344 449.745C85.123 451.594 80.9345 451.863 76.5684 449.985C61.2566 443.396 48.1412 433.969 38.3166 420.344C33.5494 413.733 31.1456 406.397 31.2449 398.083C31.454 380.571 31.2859 363.054 31.2727 345.538C31.2718 344.394 31.2727 343.25 31.2727 342.46C39.4223 341.144 47.2721 340.175 54.9845 338.553C64.0644 336.643 72.4419 332.788 80.4383 328.081C81.4486 327.486 83.2802 327.063 84.1134 327.572C99.3264 336.867 115.835 341.547 134.121 341.723ZM41.3192 351.881C41.3192 352.232 41.3201 353.483 41.3189 354.734C41.3075 369.22 41.4088 383.708 41.2318 398.193C41.1553 404.445 43.0381 409.889 46.6332 414.846C55.2373 426.708 66.7346 434.881 80.0385 440.62C81.5454 441.27 83.8021 441.255 85.3258 440.622C96.7963 435.852 106.876 429.025 115.119 419.631C121.19 412.712 124.618 405.041 124.24 395.449C123.711 382.035 124.094 368.584 124.086 355.149C124.086 353.877 124.086 352.606 124.086 351.111C122.724 350.894 121.569 350.809 120.468 350.518C111.135 348.045 101.408 346.481 92.6135 342.735C85.5656 339.732 79.6136 338.104 73.0894 342.821C72.7219 343.086 72.2474 343.233 71.8012 343.358C61.8489 346.147 51.8932 348.927 41.3192 351.881Z" fill="#F57A00" stroke="white" stroke-miterlimit="10" stroke-linecap="round"/>
<path d="M92.4719 385.748C93.4886 385.864 94.163 385.941 94.9734 386.034C95.0643 386.511 95.2414 387.012 95.2436 387.515C95.2674 393.328 95.2297 399.141 95.2934 404.953C95.3097 406.45 94.7629 406.959 93.2917 406.95C86.2554 406.907 79.2182 406.97 72.1828 406.886C71.5132 406.878 70.2817 406.116 70.2735 405.686C70.15 399.202 70.1878 392.715 70.1878 386.12C71.1248 385.989 71.8563 385.886 72.9549 385.732C72.9549 384.351 72.9341 382.935 72.9585 381.519C73.0591 375.731 77.1358 371.656 82.7999 371.664C88.2813 371.673 92.3753 375.812 92.4685 381.453C92.4911 382.817 92.4719 384.182 92.4719 385.748ZM87.7134 385.793C88.6843 381.609 87.9066 378.485 85.5515 377.021C83.5246 375.76 81.5052 375.836 79.5824 377.235C77.3926 378.829 76.6925 382.243 77.777 385.793C81.0967 385.793 84.4197 385.793 87.7134 385.793ZM79.5138 394.993C79.7164 395.079 79.919 395.166 80.1216 395.252C80.4089 397.078 80.5848 398.932 81.0429 400.714C81.2054 401.346 81.9714 402.084 82.6098 402.273C83.7095 402.598 84.3917 402.093 84.4991 400.733C84.6201 399.2 85.2563 397.703 85.3363 396.173C85.3899 395.149 85.1606 393.803 84.5089 393.142C83.9361 392.561 82.4458 392.35 81.6428 392.675C80.7643 393.029 80.2097 394.186 79.5138 394.993Z" fill="#FDFCFA" stroke="white" stroke-width="5" stroke-miterlimit="10" stroke-linecap="round"/>
<path d="M402.713 101.014C402.639 101.394 402.573 101.777 402.488 102.154C401.482 106.626 397.652 109.682 393.062 109.677C392.944 109.677 392.826 109.677 392.664 109.677C392.664 109.869 392.664 110.027 392.664 110.184C392.664 115 392.667 119.816 392.662 124.633C392.66 127.163 391.137 129.235 388.763 129.857C388.109 130.029 387.404 130.056 386.722 130.057C380.032 130.071 373.342 130.07 366.652 130.064C363.97 130.062 361.82 128.269 361.334 125.655C361.317 125.565 361.284 125.478 361.258 125.39C361.258 124.121 361.258 122.852 361.258 121.584C361.466 121.252 361.771 121.156 362.152 121.159C363.5 121.172 364.849 121.164 366.198 121.164C366.344 121.164 366.49 121.164 366.697 121.164C366.697 120.946 366.696 120.763 366.697 120.579C366.749 113.011 366.801 105.443 366.852 97.8745C366.857 97.1067 367.072 96.8907 367.84 96.8907C373.101 96.8902 378.361 96.8846 383.622 96.9012C384.045 96.9025 384.245 96.7902 384.415 96.3904C385.943 92.8079 389.531 90.5054 393.411 90.5832C398.091 90.6771 402.117 94.3372 402.638 98.9684C402.648 99.0582 402.687 99.1447 402.713 99.2326C402.713 99.8264 402.713 100.42 402.713 101.014ZM368.196 98.2638C368.145 105.911 368.094 113.516 368.043 121.164C368.241 121.164 368.386 121.164 368.531 121.164C373.172 121.164 377.813 121.164 382.454 121.165C383.269 121.165 383.428 121.324 383.429 122.125C383.43 123.029 383.416 123.934 383.436 124.837C383.485 127.017 385.233 128.719 387.394 128.712C389.542 128.705 391.289 127.008 391.298 124.837C391.321 119.831 391.305 114.824 391.313 109.818C391.313 109.571 391.242 109.481 390.992 109.419C388.633 108.835 386.743 107.554 385.363 105.545C385.217 105.333 385.057 105.292 384.827 105.292C382.682 105.298 380.537 105.297 378.392 105.293C378.219 105.293 378.039 105.281 377.876 105.23C377.587 105.139 377.448 104.917 377.449 104.614C377.45 104.309 377.598 104.094 377.882 104C378.031 103.951 378.199 103.942 378.358 103.942C380.234 103.938 382.109 103.94 383.984 103.939C384.123 103.939 384.262 103.924 384.44 103.915C383.648 102.071 383.477 100.206 383.814 98.264C378.601 98.2638 373.428 98.2638 368.196 98.2638ZM401.362 100.148C401.365 95.6193 397.712 91.9509 393.196 91.9478C388.674 91.9446 384.991 95.6047 384.984 100.11C384.976 104.654 388.644 108.332 393.178 108.326C397.709 108.321 401.359 104.673 401.362 100.148ZM383.842 128.713C382.532 127.458 382.013 125.997 382.071 124.305C382.091 123.716 382.074 123.127 382.074 122.53C375.563 122.53 369.1 122.53 362.657 122.53C362.657 123.521 362.553 124.491 362.679 125.429C362.937 127.349 364.619 128.71 366.598 128.711C372.141 128.716 377.684 128.713 383.227 128.713C383.4 128.713 383.573 128.713 383.842 128.713Z" fill="#FDFDFD"/>
<path d="M382.587 117.045C381.116 117.045 379.645 117.045 378.175 117.046C377.843 117.046 377.591 116.909 377.482 116.593C377.38 116.296 377.453 116.013 377.723 115.845C377.873 115.752 378.076 115.706 378.256 115.706C381.157 115.698 384.059 115.698 386.96 115.703C387.447 115.704 387.743 115.981 387.731 116.392C387.719 116.784 387.424 117.042 386.959 117.044C385.502 117.048 384.045 117.045 382.587 117.045Z" fill="#FDFDFD"/>
<path d="M382.634 109.832C384.091 109.832 385.548 109.829 387.005 109.834C387.445 109.836 387.724 110.096 387.732 110.481C387.74 110.866 387.466 111.132 387.032 111.158C386.924 111.165 386.816 111.162 386.708 111.162C384.375 111.163 382.041 111.164 379.707 111.165C379.222 111.165 378.736 111.17 378.25 111.163C377.716 111.155 377.434 110.904 377.449 110.467C377.463 110.056 377.744 109.833 378.264 109.832C379.721 109.829 381.178 109.831 382.635 109.831C382.634 109.831 382.634 109.832 382.634 109.832Z" fill="#FDFDFD"/>
<path d="M375.938 104.686C375.929 105.824 374.954 106.754 373.781 106.745C372.617 106.737 371.643 105.782 371.647 104.651C371.65 103.52 372.626 102.577 373.795 102.574C374.986 102.572 375.948 103.519 375.938 104.686ZM373.799 105.39C374.241 105.387 374.605 105.057 374.607 104.659C374.608 104.267 374.236 103.93 373.799 103.928C373.358 103.925 372.998 104.255 372.999 104.659C373 105.066 373.358 105.393 373.799 105.39Z" fill="#FDFDFD"/>
<path d="M375.937 110.52C375.929 111.662 374.963 112.588 373.785 112.584C372.619 112.579 371.649 111.633 371.647 110.497C371.645 109.365 372.616 108.42 373.789 108.415C374.984 108.409 375.946 109.351 375.937 110.52ZM373.776 111.225C374.226 111.233 374.592 110.922 374.605 110.521C374.619 110.13 374.252 109.776 373.821 109.762C373.386 109.748 373.013 110.07 372.999 110.474C372.985 110.883 373.33 111.216 373.776 111.225Z" fill="#FDFDFD"/>
<path d="M375.939 116.35C375.934 117.493 374.973 118.421 373.795 118.421C372.625 118.421 371.654 117.482 371.647 116.345C371.639 115.195 372.624 114.251 373.821 114.263C375.011 114.275 375.944 115.195 375.939 116.35ZM373.817 117.062C374.264 117.055 374.617 116.721 374.604 116.317C374.59 115.918 374.209 115.586 373.781 115.599C373.338 115.613 372.99 115.949 372.998 116.354C373.007 116.762 373.362 117.069 373.817 117.062Z" fill="#FDFDFD"/>
<path d="M394.631 102.392C394.622 101.477 394.053 100.88 393.173 100.815C392.597 100.773 392.052 100.664 391.571 100.329C390.635 99.6783 390.209 98.7765 390.327 97.649C390.438 96.5852 391.009 95.8031 391.987 95.3847C392.345 95.2318 392.453 95.0586 392.417 94.7063C392.377 94.3175 392.511 94.0037 392.919 93.8946C393.354 93.778 393.758 94.0994 393.731 94.5888C393.707 95.0153 393.83 95.2011 394.248 95.3676C395.286 95.7813 395.835 96.6172 395.975 97.7201C396.039 98.221 395.805 98.5721 395.39 98.625C394.973 98.6781 394.687 98.3973 394.628 97.877C394.533 97.0464 393.957 96.4886 393.179 96.4743C392.4 96.4599 391.788 96.9742 391.654 97.7564C391.501 98.6499 392.203 99.4278 393.203 99.4728C394.434 99.5282 395.43 100.248 395.82 101.364C396.338 102.848 395.588 104.443 394.097 104.974C393.82 105.073 393.699 105.193 393.739 105.484C393.757 105.615 393.747 105.754 393.729 105.887C393.681 106.235 393.405 106.467 393.055 106.45C392.697 106.433 392.397 106.227 392.441 105.888C392.528 105.225 392.181 104.991 391.666 104.712C390.792 104.236 390.351 103.424 390.31 102.418C390.292 101.965 390.519 101.685 390.907 101.653C391.318 101.62 391.579 101.865 391.633 102.336C391.732 103.197 392.25 103.737 393.038 103.801C393.729 103.856 394.371 103.414 394.571 102.734C394.612 102.594 394.622 102.444 394.631 102.392Z" fill="#FDFDFD"/>
<path d="M296.363 22.3701C297.998 22.3701 299.571 22.3692 301.144 22.3703C302.923 22.3714 304.038 23.4846 304.039 25.2709C304.041 34.879 304.041 44.4869 304.039 54.0951C304.039 55.7689 302.893 56.9157 301.218 56.9159C290.307 56.9177 279.396 56.9177 268.484 56.9159C266.808 56.9157 265.661 55.7705 265.661 54.098C265.659 44.4899 265.659 34.882 265.661 25.2738C265.661 23.4714 266.777 22.3708 268.591 22.3703C270.024 22.3699 271.456 22.3701 272.889 22.3701C273.026 22.3701 273.163 22.3701 273.336 22.3701C273.336 21.6191 273.335 20.906 273.336 20.1931C273.339 19.1779 273.975 18.5359 274.983 18.5329C275.815 18.5305 276.646 18.5278 277.477 18.5327C278.441 18.5383 279.087 19.1862 279.092 20.1483C279.096 20.8746 279.093 21.6012 279.093 22.3488C282.931 22.3488 286.738 22.3488 290.607 22.3488C290.607 21.9434 290.607 21.5275 290.607 21.1113C290.607 20.7659 290.602 20.4204 290.608 20.075C290.624 19.2059 291.272 18.5468 292.142 18.5347C293.037 18.5224 293.933 18.524 294.828 18.5345C295.694 18.5446 296.351 19.2068 296.361 20.075C296.37 20.8262 296.363 21.5781 296.363 22.3701ZM273.336 23.9057C273.175 23.9057 273.062 23.9057 272.95 23.9057C271.466 23.9057 269.982 23.9046 268.498 23.9061C267.654 23.907 267.196 24.3649 267.196 25.2109C267.195 32.2734 267.195 39.3356 267.196 46.3981C267.196 47.2423 267.656 47.7024 268.497 47.704C269.687 47.706 270.877 47.7022 272.066 47.7051C273.716 47.7091 274.867 48.8584 274.871 50.504C274.874 51.6554 274.871 52.8069 274.871 53.9584C274.871 54.9635 275.287 55.3812 276.287 55.3812C284.551 55.3812 292.815 55.3812 301.079 55.3812C302.085 55.3812 302.504 54.9657 302.504 53.968C302.504 44.4235 302.504 34.879 302.504 25.3344C302.504 25.2447 302.507 25.1551 302.503 25.0656C302.479 24.3915 302.004 23.9117 301.325 23.9084C299.739 23.9007 298.152 23.9059 296.566 23.9072C296.506 23.9072 296.447 23.9236 296.363 23.9357C296.363 24.208 296.37 24.4621 296.361 24.7156C296.334 25.5228 295.698 26.1853 294.893 26.2028C293.96 26.2232 293.025 26.2227 292.092 26.2028C291.265 26.1851 290.63 25.5204 290.608 24.6916C290.602 24.4399 290.607 24.1878 290.607 23.9321C286.747 23.9321 282.931 23.9321 279.092 23.9321C279.092 24.1874 279.096 24.4162 279.092 24.645C279.078 25.5381 278.432 26.1954 277.539 26.2059C276.644 26.2164 275.748 26.218 274.853 26.2052C274.008 26.1931 273.357 25.5298 273.337 24.6849C273.331 24.4435 273.336 24.2017 273.336 23.9057ZM273.448 55.3812C273.41 54.6466 273.356 53.9409 273.341 53.2345C273.322 52.3531 273.338 51.471 273.336 50.5894C273.334 49.6707 272.895 49.2665 271.966 49.2342C270.382 49.1793 268.787 49.4193 267.196 49.0462C267.196 50.7364 267.194 52.4223 267.196 54.1083C267.198 54.9182 267.668 55.3794 268.49 55.3808C269.831 55.3828 271.173 55.3814 272.515 55.3814C272.856 55.3812 273.198 55.3812 273.448 55.3812ZM274.9 20.0844C274.9 21.6288 274.9 23.1406 274.9 24.6421C275.801 24.6421 276.675 24.6421 277.538 24.6421C277.538 23.1079 277.538 21.6046 277.538 20.0844C276.655 20.0844 275.791 20.0844 274.9 20.0844ZM292.167 20.0853C292.167 21.627 292.167 23.139 292.167 24.6423C293.067 24.6423 293.94 24.6423 294.808 24.6423C294.808 23.1085 294.808 21.6059 294.808 20.0853C293.923 20.0853 293.059 20.0853 292.167 20.0853Z" fill="#FDFDFD"/>
<path d="M273.461 42.5267C273.855 41.265 274.211 40.1212 274.569 38.9778C275.001 37.6011 275.441 36.2273 275.86 34.847C275.945 34.5712 276.067 34.4522 276.367 34.4609C277.044 34.4806 277.722 34.4741 278.4 34.4629C278.641 34.4589 278.767 34.5391 278.842 34.7789C279.608 37.2407 280.383 39.6998 281.162 42.1578C281.245 42.4216 281.196 42.5435 280.9 42.5386C280.35 42.5294 279.8 42.5298 279.25 42.5363C279.018 42.539 278.92 42.4362 278.855 42.215C278.622 41.4151 278.613 41.4178 277.771 41.4181C277.311 41.4181 276.85 41.4281 276.39 41.4138C276.175 41.4071 276.077 41.4759 276.016 41.6895C275.774 42.5287 275.766 42.5265 274.868 42.5265C274.427 42.5267 273.985 42.5267 273.461 42.5267ZM276.592 39.7431C277.143 39.7431 277.617 39.7431 278.142 39.7431C277.885 38.8467 277.641 37.9955 277.398 37.1446C277.372 37.1468 277.346 37.1493 277.32 37.1515C277.081 38.0024 276.842 38.8534 276.592 39.7431Z" fill="#FDFDFD"/>
<path d="M294.048 39.6478C293.74 39.6478 293.448 39.6375 293.157 39.651C292.903 39.6626 292.819 39.5553 292.829 39.3103C292.843 38.9529 292.84 38.5943 292.83 38.2369C292.825 38.0298 292.895 37.9296 293.113 37.9305C294.046 37.9345 294.979 37.924 295.912 37.9437C296.007 37.9457 296.179 38.1134 296.18 38.2048C296.183 38.8937 296.207 39.59 296.119 40.2702C295.961 41.479 294.892 42.4252 293.573 42.5451C293.071 42.5906 292.543 42.58 292.053 42.4758C290.853 42.2212 290.028 41.3492 289.914 40.1229C289.818 39.0844 289.785 38.0226 289.886 36.987C290.043 35.3708 291.296 34.3598 292.985 34.3688C294.157 34.375 295.19 34.7282 295.82 35.7959C296.014 36.1249 296.083 36.5327 296.18 36.9122C296.239 37.1459 296.119 37.2658 295.864 37.2611C295.353 37.2517 294.841 37.2718 294.331 37.2472C294.225 37.242 294.068 37.1147 294.033 37.0108C293.848 36.4507 293.51 36.187 292.967 36.2248C292.435 36.2618 292.061 36.5832 292.034 37.1589C291.993 38.0383 291.981 38.924 292.038 39.8018C292.085 40.5319 292.819 40.9367 293.513 40.6919C293.914 40.5505 294.09 40.2318 294.048 39.6478Z" fill="#FDFDFD"/>
<path d="M282.23 37.4128C282.23 36.5558 282.241 35.6986 282.224 34.8421C282.218 34.5378 282.324 34.4333 282.622 34.4443C283.082 34.4613 283.543 34.4616 284.003 34.4443C284.307 34.4329 284.397 34.551 284.395 34.849C284.383 36.4606 284.384 38.0721 284.392 39.6839C284.395 40.4062 284.82 40.8006 285.496 40.7397C285.899 40.7031 286.217 40.4398 286.303 40.0391C286.345 39.8412 286.356 39.6335 286.357 39.4302C286.361 37.9336 286.37 36.4371 286.352 34.9409C286.347 34.5658 286.437 34.4046 286.842 34.4356C287.287 34.4696 287.736 34.4465 288.184 34.4389C288.424 34.4349 288.528 34.527 288.527 34.7784C288.519 36.4669 288.553 38.156 288.512 39.8433C288.472 41.5137 287.22 42.6112 285.423 42.6154C284.804 42.617 284.205 42.5137 283.649 42.2091C282.767 41.7251 282.292 40.9732 282.246 39.9831C282.206 39.1281 282.237 38.2696 282.237 37.4126C282.235 37.4128 282.232 37.4128 282.23 37.4128Z" fill="#FDFDFD"/>
<path d="M144.995 126.595C144.454 128.143 143.961 129.545 143.757 131.022C143.696 131.463 143.332 131.574 143.041 131.769C135.449 136.826 135.646 147.02 143.429 151.782C143.635 151.908 143.83 152.056 144.045 152.162C149.129 154.664 150.989 158.913 150.734 164.357C150.7 165.091 150.497 165.391 149.791 165.378C149.469 165.373 149.147 165.407 148.826 165.392C146.615 165.288 146.538 165.284 146.577 163.081C146.634 159.867 145.38 157.509 142.486 156.011C138.42 153.906 135.501 150.777 134.083 146.348C131.448 138.115 136.189 129.109 144.462 126.654C144.57 126.622 144.689 126.628 144.995 126.595Z" fill="#FBFCFC"/>
<path d="M190.775 145.628C189.616 144.408 188.625 143.197 187.409 142.217C187.128 141.99 187.24 141.616 187.222 141.301C186.699 132.345 177.427 127.275 169.621 131.677C169.41 131.795 169.19 131.897 168.988 132.03C164.174 135.195 159.487 134.609 154.882 131.558C154.748 131.47 154.511 131.389 154.501 131.287C154.378 130.08 155.263 129.346 155.87 128.488C156.19 128.036 156.547 127.722 157.174 128.117C157.852 128.546 158.597 128.867 159.303 129.252C161.339 130.363 163.342 130.331 165.408 129.26C167.472 128.19 169.469 127 171.772 126.4C182.84 123.519 193.472 133.656 191.028 144.813C190.978 145.037 190.892 145.252 190.775 145.628Z" fill="#FBFCFC"/>
<path d="M173.317 122.95C171.765 123.241 170.247 123.599 168.774 124.121C168.397 124.254 168.088 123.959 167.769 123.797C159.885 119.797 150.862 125.23 150.714 134.071C150.687 135.683 150.621 137.286 150.317 138.878C149.856 141.297 148.588 143.188 146.636 144.632C145.763 145.277 144.84 145.856 143.921 146.434C142.514 147.32 142.504 147.31 141.684 145.904C141.523 145.626 141.401 145.325 141.247 145.043C140.687 144.021 140.773 143.226 141.998 142.796C142.183 142.731 142.334 142.574 142.513 142.485C145.488 140.998 146.686 138.533 146.566 135.286C146.479 132.936 146.796 130.644 147.621 128.412C151.429 118.103 165.381 114.947 173.193 122.65C173.241 122.697 173.251 122.783 173.317 122.95Z" fill="#FBFCFC"/>
<path d="M133.935 152.905C135.058 154.112 135.992 155.275 137.176 156.184C137.513 156.443 137.449 156.825 137.472 157.183C138.044 166.249 147.227 171.249 155.142 166.806C155.458 166.628 155.781 166.462 156.086 166.268C160.861 163.232 165.425 164.103 169.881 167.006C170.013 167.092 170.242 167.204 170.239 167.298C170.197 168.558 169.319 169.375 168.611 170.279C168.14 170.881 167.692 170.492 167.243 170.234C167.208 170.213 167.172 170.196 167.139 170.173C163.821 167.817 160.63 168.195 157.266 170.28C152.935 172.963 148.253 173.259 143.461 171.523C136.096 168.854 131.59 160.159 133.935 152.905Z" fill="#FBFCFC"/>
<path d="M151.294 175.594C152.897 175.258 154.359 174.987 155.744 174.438C156.178 174.266 156.517 174.516 156.875 174.696C164.848 178.724 173.837 173.305 173.978 164.384C174.002 162.854 174.086 161.334 174.346 159.818C174.786 157.247 176.125 155.274 178.204 153.779C179.184 153.075 180.241 152.481 181.224 151.782C181.849 151.338 182.288 151.353 182.652 152.061C182.781 152.31 182.964 152.531 183.103 152.775C184.148 154.61 184.15 154.973 182.314 155.919C179.1 157.574 178.031 160.213 178.103 163.664C178.236 169.985 175.572 174.857 170.119 178.118C164.25 181.627 156.097 180.559 151.294 175.594Z" fill="#FBFCFC"/>
<path d="M177.095 133.321C177.861 133.25 178.21 133.565 178.155 134.364C178.12 134.883 178.234 135.411 178.207 135.931C178.048 139.052 179.609 141.098 182.241 142.506C185.751 144.383 188.475 146.989 190.096 150.711C193.777 159.167 189.08 169.29 180.228 171.864C180.122 171.895 180.004 171.889 179.745 171.913C180.228 170.368 180.779 168.914 180.984 167.372C181.031 167.02 181.416 166.924 181.678 166.747C189.327 161.593 189.066 151.479 181.169 146.664C180.139 146.037 179.124 145.377 178.147 144.672C175.754 142.945 174.43 140.604 174.243 137.642C174.467 136.69 174.21 135.745 174.199 134.797C174.182 133.45 174.457 133.195 175.81 133.323C176.24 133.363 176.666 133.532 177.095 133.321Z" fill="#FBFCFC"/>
<path d="M177.094 133.321C176.848 133.612 176.509 133.538 176.194 133.54C174.291 133.55 174.465 133.249 174.424 135.397C174.409 136.144 174.645 136.923 174.242 137.642C174.169 136.482 174.133 135.317 174.009 134.162C173.927 133.401 174.247 133.164 174.94 133.153C175.666 133.142 176.384 133.158 177.094 133.321Z" fill="#FBFCFC"/>
<path d="M208.73 521.046C207.259 519.569 205.808 518.114 204.317 516.617C204.965 515.657 205.617 514.663 206.303 513.694C206.524 513.382 206.53 513.148 206.358 512.808C206.054 512.204 205.785 511.575 205.577 510.932C205.456 510.56 205.279 510.419 204.905 510.358C203.891 510.192 202.888 509.962 201.875 509.79C201.494 509.725 201.373 509.566 201.377 509.181C201.396 507.451 201.396 505.72 201.377 503.99C201.373 503.584 201.494 503.413 201.909 503.347C202.923 503.184 203.926 502.948 204.939 502.782C205.294 502.725 205.457 502.585 205.575 502.245C205.802 501.586 206.07 500.936 206.38 500.312C206.543 499.984 206.513 499.761 206.314 499.477C205.631 498.501 204.971 497.509 204.318 496.546C205.8 495.061 207.252 493.606 208.742 492.112C209.65 492.729 210.596 493.344 211.51 494.003C211.902 494.285 212.205 494.364 212.666 494.103C213.233 493.782 213.887 493.619 214.479 493.336C214.677 493.241 214.894 493.009 214.94 492.803C215.178 491.761 215.381 490.71 215.554 489.655C215.615 489.285 215.771 489.186 216.12 489.189C217.891 489.202 219.662 489.205 221.433 489.187C221.808 489.183 221.929 489.336 221.988 489.674C222.169 490.707 222.392 491.732 222.565 492.766C222.62 493.097 222.764 493.246 223.072 493.358C223.746 493.604 224.393 493.928 225.07 494.164C225.295 494.241 225.637 494.233 225.829 494.112C226.837 493.475 227.815 492.79 228.781 492.137C230.259 493.622 231.717 495.088 233.203 496.581C232.58 497.5 231.933 498.478 231.258 499.436C231.047 499.737 230.998 499.974 231.174 500.326C231.486 500.949 231.743 501.602 231.978 502.259C232.088 502.567 232.221 502.715 232.563 502.77C233.598 502.938 234.621 503.173 235.654 503.349C236.027 503.413 236.17 503.555 236.166 503.949C236.147 505.699 236.148 507.45 236.166 509.201C236.17 509.597 236.022 509.731 235.648 509.794C234.615 509.969 233.585 510.167 232.564 510.4C232.355 510.448 232.113 510.65 232.019 510.845C231.7 511.51 231.413 512.195 231.174 512.893C231.097 513.115 231.123 513.455 231.247 513.649C231.885 514.656 232.57 515.634 233.224 516.599C231.747 518.074 230.294 519.526 228.792 521.026C227.887 520.412 226.926 519.785 225.994 519.116C225.636 518.858 225.363 518.805 224.949 519.024C224.353 519.34 223.688 519.523 223.08 519.819C222.868 519.923 222.641 520.172 222.589 520.394C222.356 521.395 222.161 522.406 221.998 523.42C221.929 523.854 221.757 523.99 221.318 523.983C219.609 523.958 217.9 523.963 216.19 523.98C215.792 523.984 215.615 523.885 215.548 523.454C215.388 522.418 215.181 521.388 214.941 520.368C214.89 520.149 214.652 519.91 214.439 519.805C213.794 519.49 213.128 519.213 212.452 518.972C212.244 518.898 211.925 518.907 211.747 519.02C210.726 519.672 209.732 520.366 208.73 521.046ZM208.978 518.568C209.867 517.967 210.744 517.39 211.601 516.784C211.886 516.582 212.09 516.57 212.427 516.725C213.616 517.272 214.822 517.79 216.053 518.235C216.455 518.381 216.6 518.579 216.665 518.943C216.826 519.834 217.017 520.72 217.155 521.614C217.208 521.965 217.359 522.046 217.681 522.038C218.422 522.019 219.166 522.055 219.905 522.013C220.071 522.004 220.328 521.788 220.366 521.626C220.572 520.724 220.734 519.812 220.89 518.899C220.952 518.539 221.109 518.382 221.48 518.246C222.709 517.797 223.915 517.281 225.11 516.744C225.423 516.603 225.628 516.534 225.934 516.754C226.802 517.379 227.698 517.964 228.55 518.543C229.285 517.812 229.997 517.104 230.742 516.363C230.193 515.55 229.637 514.687 229.037 513.856C228.776 513.493 228.781 513.239 228.982 512.82C229.521 511.696 229.994 510.534 230.407 509.357C230.561 508.919 230.761 508.741 231.189 508.669C232.198 508.5 233.2 508.292 234.186 508.103C234.186 507.035 234.186 506.036 234.186 505.021C233.134 504.826 232.126 504.63 231.114 504.457C230.729 504.392 230.563 504.205 230.422 503.824C229.975 502.616 229.474 501.424 228.936 500.253C228.775 499.904 228.763 499.684 228.984 499.374C229.601 498.51 230.183 497.621 230.697 496.864C229.934 496.084 229.235 495.369 228.521 494.639C227.56 495.29 226.555 495.97 225.724 496.533C224.237 495.959 222.896 495.404 221.526 494.936C221.1 494.791 220.942 494.599 220.876 494.192C220.732 493.299 220.567 492.407 220.363 491.526C220.325 491.364 220.07 491.146 219.904 491.137C219.165 491.094 218.422 491.13 217.681 491.112C217.357 491.105 217.212 491.194 217.158 491.543C217.016 492.457 216.811 493.361 216.658 494.274C216.595 494.643 216.414 494.788 216.06 494.922C214.818 495.393 213.592 495.915 212.381 496.463C212.096 496.592 211.922 496.606 211.672 496.431C210.78 495.806 209.873 495.201 208.985 494.598C208.252 495.335 207.543 496.049 206.815 496.782C207.392 497.634 207.962 498.517 208.578 499.365C208.826 499.705 208.769 499.932 208.603 500.293C208.071 501.445 207.578 502.618 207.15 503.812C207.001 504.227 206.818 504.401 206.408 504.468C205.515 504.612 204.624 504.777 203.742 504.98C203.579 505.017 203.356 505.268 203.347 505.43C203.305 506.19 203.305 506.955 203.347 507.715C203.356 507.877 203.58 508.126 203.744 508.164C204.646 508.369 205.558 508.531 206.471 508.685C206.835 508.746 206.993 508.914 207.127 509.276C207.584 510.503 208.089 511.714 208.63 512.906C208.786 513.25 208.811 513.47 208.586 513.784C207.966 514.646 207.385 515.537 206.815 516.378C207.554 517.127 208.247 517.828 208.978 518.568Z" fill="#FBFCFC"/>
<path d="M223.029 535.409C211.75 536.551 202.492 532.903 195.583 523.848C190.737 517.498 189.533 509.709 190.131 504.824C190.716 504.871 191.305 504.919 191.942 504.971C191.59 513.839 194.557 521.346 201.283 527.155C207.998 532.954 215.853 534.728 224.571 533.122C224.626 533.386 224.675 533.622 224.724 533.857C224.77 534.078 224.815 534.3 224.882 534.631C226.599 533.343 228.275 532.086 230.049 530.755C227.93 530.139 225.929 529.557 223.839 528.949C223.954 529.644 224.059 530.28 224.179 531C216.359 532.506 209.297 530.953 203.121 525.934C195.927 520.087 193.499 511.541 194.182 504.843C194.78 504.891 195.38 504.939 196.011 504.99C195.649 513.611 198.806 520.557 205.83 525.566C210.625 528.985 216.041 530.148 221.94 529.434C221.857 528.918 221.792 528.457 221.708 527.998C221.544 527.101 222.1 526.539 223.013 526.732C223.575 526.851 224.121 527.045 224.674 527.206C227.22 527.945 229.766 528.684 232.312 529.424C233.069 529.645 233.306 530.497 232.763 531.083C232.597 531.261 232.386 531.4 232.189 531.549C229.772 533.369 227.353 535.19 224.933 537.008C224.234 537.533 223.437 537.231 223.227 536.361C223.15 536.045 223.094 535.724 223.029 535.409Z" fill="#FBFCFC"/>
<path d="M215.899 478.104C226.518 477.458 235.202 481.103 241.711 489.477C246.089 495.109 247.878 501.607 247.533 508.712C247.413 508.745 247.355 508.778 247.299 508.774C246.765 508.738 246.232 508.695 245.631 508.649C245.994 500.052 243.174 492.687 236.777 486.893C230.389 481.108 222.785 479.085 214.269 480.266C214.211 479.938 214.155 479.66 214.113 479.38C214.074 479.119 214.049 478.856 214.002 478.466C212.199 479.683 210.475 480.848 208.635 482.091C210.717 482.813 212.685 483.495 214.726 484.202C214.668 483.585 214.616 483.04 214.566 482.502C230.032 479.587 244.565 492.558 243.395 508.301C242.793 508.258 242.19 508.215 241.563 508.17C241.762 499.839 238.651 493.114 231.927 488.216C227.414 484.927 222.29 483.646 216.684 484.094C216.733 484.53 216.773 484.914 216.822 485.298C216.939 486.208 216.286 486.742 215.383 486.445C214.114 486.028 212.852 485.59 211.59 485.153C209.842 484.549 208.096 483.936 206.349 483.33C206.019 483.216 205.695 483.154 205.658 482.679C205.621 482.189 205.667 481.778 206.101 481.485C206.613 481.14 207.123 480.792 207.634 480.445C209.78 478.989 211.926 477.532 214.074 476.078C214.742 475.626 215.526 475.946 215.693 476.748C215.784 477.188 215.829 477.637 215.899 478.104Z" fill="#FBFCFC"/>
<path d="M194.581 491.107C195.167 491.489 195.662 491.811 196.192 492.156C195.571 493.284 194.963 494.389 194.319 495.558C193.792 495.318 193.243 495.068 192.58 494.765C193.247 493.546 193.89 492.37 194.581 491.107Z" fill="#FBFCFC"/>
<path d="M191.41 497.691C192.083 497.91 192.641 498.091 193.24 498.285C192.921 499.537 192.61 500.757 192.281 502.049C191.698 501.951 191.104 501.851 190.389 501.731C190.73 500.383 191.057 499.087 191.41 497.691Z" fill="#FBFCFC"/>
<path d="M247.252 511.467C246.972 512.692 246.717 513.802 246.455 514.947C245.803 514.762 245.235 514.601 244.619 514.426C244.86 513.354 245.096 512.306 245.347 511.19C245.95 511.277 246.546 511.364 247.252 511.467Z" fill="#FBFCFC"/>
<path d="M242.373 519.801C242.863 518.765 243.318 517.804 243.798 516.788C244.378 517.02 244.939 517.244 245.574 517.498C245.06 518.594 244.574 519.628 244.059 520.723C243.466 520.4 242.935 520.109 242.373 519.801Z" fill="#FBFCFC"/>
<path d="M197.921 493.471C198.504 493.851 199.009 494.181 199.526 494.518C199.015 495.455 198.528 496.349 198.009 497.303C197.464 497.052 196.915 496.8 196.272 496.505C196.824 495.49 197.354 494.514 197.921 493.471Z" fill="#FBFCFC"/>
<path d="M196.324 502.608C195.702 502.489 195.123 502.379 194.445 502.25C194.734 501.125 195.008 500.063 195.297 498.937C195.956 499.153 196.532 499.342 197.119 499.534C196.851 500.572 196.595 501.558 196.324 502.608Z" fill="#FBFCFC"/>
<path d="M241.297 510.687C241.923 510.791 242.503 510.887 243.169 510.998C242.973 511.874 242.787 512.704 242.584 513.607C241.944 513.427 241.365 513.263 240.753 513.09C240.938 512.27 241.113 511.499 241.297 510.687Z" fill="#FBFCFC"/>
<path d="M238.887 517.682C239.246 516.922 239.584 516.207 239.939 515.456C240.519 515.688 241.065 515.906 241.704 516.161C241.321 516.982 240.955 517.766 240.562 518.61C239.969 518.281 239.44 517.988 238.887 517.682Z" fill="#FBFCFC"/>
<path d="M199.436 491.412C199.895 490.882 200.294 490.422 200.751 489.894C201.226 490.341 201.665 490.753 202.138 491.198C201.749 491.655 201.381 492.086 200.951 492.59C200.464 492.21 199.98 491.835 199.436 491.412Z" fill="#FBFCFC"/>
<path d="M241.453 524.594C240.925 524.181 240.462 523.817 239.958 523.423C240.322 522.919 240.665 522.444 241.044 521.92C241.573 522.281 242.07 522.62 242.623 522.997C242.227 523.537 241.868 524.027 241.453 524.594Z" fill="#FBFCFC"/>
<path d="M197.961 489.808C197.459 489.399 196.989 489.017 196.476 488.599C196.916 488.094 197.325 487.624 197.772 487.112C198.241 487.549 198.67 487.948 199.162 488.407C198.768 488.867 198.38 489.319 197.961 489.808Z" fill="#FBFCFC"/>
<path d="M239.134 520.863C238.82 521.286 238.555 521.643 238.245 522.061C237.747 521.676 237.273 521.308 236.744 520.899C237.026 520.518 237.286 520.169 237.573 519.782C238.099 520.147 238.582 520.481 239.134 520.863Z" fill="#FBFCFC"/>
<path d="M218.78 513.248C215.095 513.249 212.102 510.252 212.108 506.569C212.114 502.895 215.133 499.89 218.806 499.905C222.484 499.92 225.461 502.932 225.447 506.626C225.434 510.274 222.441 513.247 218.78 513.248ZM223.519 506.649C223.572 504.027 221.493 501.879 218.854 501.827C216.227 501.776 214.099 503.834 214.032 506.492C213.966 509.09 216.065 511.26 218.7 511.317C221.319 511.374 223.466 509.294 223.519 506.649Z" fill="#FBFCFC"/>
<path d="M81.3401 78.9426C81.3401 80.0338 81.3943 81.0405 81.3267 82.0389C81.2361 83.3766 80.2552 84.295 78.9117 84.3768C78.2793 84.4153 77.643 84.3972 77.0086 84.3972C56.6234 84.3985 36.2382 84.3989 15.8528 84.3987C15.3676 84.3987 14.8804 84.414 14.3975 84.3792C13.0602 84.2829 12.1291 83.4615 12.0157 82.1451C11.9267 81.1135 11.998 80.0681 11.998 78.9426C35.1065 78.9426 58.1511 78.9426 81.3401 78.9426Z" fill="url(#paint10_linear_1372_1542)" stroke="white" stroke-miterlimit="10" stroke-linecap="round"/>
<path d="M41.1052 40.6404C44.6488 43.7182 48.1117 46.7258 51.7189 49.8588C58.8262 42.4016 65.9104 34.9689 73.1016 27.4239C71.3327 26.668 69.7326 25.9843 68.1327 25.3005C68.1347 25.2279 68.1367 25.1553 68.1385 25.0827C71.9277 24.4628 75.7169 23.8429 79.7181 23.1883C78.99 27.1816 78.2928 31.0049 77.5956 34.8284C77.5167 34.8344 77.4378 34.8405 77.3589 34.8465C76.9403 33.4533 76.5217 32.0598 76.0367 30.4455C67.9731 38.9038 60.0081 47.2587 51.9719 55.6884C48.308 52.5057 44.7104 49.3807 41.0032 46.1603C33.1871 52.4151 25.3891 58.6554 17.4526 65.0066C16.6388 63.8486 15.8598 62.7402 15.0129 61.5352C23.7114 54.5693 32.3552 47.6473 41.1052 40.6404Z" fill="url(#paint11_linear_1372_1542)" stroke="white" stroke-miterlimit="10" stroke-linecap="round"/>
<path d="M75.9693 35.4308C75.9693 49.4513 75.9693 63.0884 75.9693 76.7968C73.6238 76.7968 71.3236 76.7968 68.88 76.7968C68.8596 76.4138 68.8201 76.0212 68.8201 75.6283C68.8174 65.2083 68.8268 54.7882 68.8042 44.3684C68.8024 43.5284 69.0084 42.9054 69.6126 42.2896C71.5206 40.3445 73.3605 38.3323 75.2228 36.3424C75.4169 36.1354 75.5843 35.9034 75.9693 35.4308Z" fill="url(#paint12_linear_1372_1542)" stroke="white" stroke-miterlimit="10" stroke-linecap="round"/>
<path d="M65.5149 46.8891C65.5149 56.8184 65.5149 66.7479 65.5149 76.7724C63.1697 76.7724 60.8443 76.7724 58.3359 76.7724C58.3359 76.3609 58.3359 75.9298 58.3359 75.4986C58.3354 68.7115 58.3155 61.9242 58.3677 55.1376C58.3724 54.5139 58.6947 53.7636 59.1169 53.2952C60.8387 51.3854 62.6668 49.5717 64.4298 47.6982C64.7265 47.3828 64.8957 46.9474 65.1239 46.5673C65.2543 46.6747 65.3847 46.7818 65.5149 46.8891Z" fill="url(#paint13_linear_1372_1542)" stroke="white" stroke-miterlimit="10" stroke-linecap="round"/>
<path d="M41.2552 51.2413C42.2905 52.1355 43.2623 52.9445 44.1916 53.7999C44.4088 53.9998 44.6029 54.3561 44.6038 54.641C44.6262 61.9852 44.6215 69.3296 44.6215 76.7699C42.243 76.7699 39.9182 76.7699 37.4581 76.7699C37.4366 76.4394 37.394 76.0853 37.3938 75.7312C37.3905 68.9072 37.377 62.0829 37.4232 55.2591C37.4265 54.7591 37.7515 54.1385 38.1266 53.7878C39.0744 52.9012 40.1364 52.1366 41.2552 51.2413Z" fill="url(#paint14_linear_1372_1542)" stroke="white" stroke-miterlimit="10" stroke-linecap="round"/>
<path d="M55.0401 76.8053C52.6198 76.8053 50.3211 76.8053 47.9514 76.8053C47.9514 70.2757 47.9514 63.8065 47.9514 57.0591C49.3994 58.3055 50.7003 59.4256 52.1492 60.6732C53.1077 59.647 54.0074 58.6834 55.0401 57.5776C55.0401 64.0944 55.0401 70.4035 55.0401 76.8053Z" fill="url(#paint15_linear_1372_1542)" stroke="white" stroke-miterlimit="10" stroke-linecap="round"/>
<path d="M34.0503 76.7986C31.6364 76.7986 29.3382 76.7986 26.9047 76.7986C26.9047 76.2587 26.9047 75.785 26.9047 75.311C26.9049 71.4277 26.8944 67.5446 26.9215 63.6615C26.9244 63.2543 27.0212 62.694 27.2933 62.4663C29.459 60.6546 31.6779 58.9062 34.0503 57.0017C34.0503 63.7276 34.0503 70.2242 34.0503 76.7986Z" fill="url(#paint16_linear_1372_1542)" stroke="white" stroke-miterlimit="10" stroke-linecap="round"/>
<path d="M23.6227 76.8302C21.2073 76.8302 18.9035 76.8302 16.4397 76.8302C16.4397 74.9892 16.4258 73.179 16.4587 71.3698C16.4625 71.1605 16.6889 70.9082 16.8771 70.7562C18.9936 69.0492 21.1222 67.357 23.2516 65.6663C23.3262 65.6072 23.4457 65.6047 23.623 65.5527C23.6227 69.3042 23.6227 73.0045 23.6227 76.8302Z" fill="url(#paint17_linear_1372_1542)" stroke="white" stroke-miterlimit="10" stroke-linecap="round"/>
<path d="M78.2071 208.544C78.2071 219.575 78.2071 230.401 78.2071 241.413C60.5155 241.413 42.9576 241.413 25.2019 241.413C25.2019 229.854 25.2019 218.205 25.2019 206.555C31.5192 204.313 37.891 203.565 44.6835 204.587C55.7481 206.251 66.9128 207.247 78.2071 208.544ZM53.6872 218.377C49.2281 217.953 44.7807 217.5 40.3253 217.147C39.7554 217.101 39.144 217.578 38.5517 217.813C39.0983 218.061 39.6388 218.509 40.1928 218.526C44.2523 218.653 48.3153 218.669 52.3753 218.788C52.9958 218.806 53.8716 218.99 54.1755 219.419C55.6338 221.478 56.7294 223.665 56.0011 226.369C55.6963 227.5 55.6474 228.723 55.6414 229.906C55.6326 231.615 54.9836 232.29 53.2116 231.98C51.216 231.632 49.1896 231.447 47.1706 231.249C44.6631 231.004 42.1515 230.79 39.637 230.643C39.2879 230.622 38.9116 231.062 38.5479 231.289C38.8681 231.568 39.151 231.926 39.5205 232.1C39.811 232.236 40.2087 232.139 40.5586 232.152C46.0669 232.363 51.5745 232.587 57.0835 232.778C58.596 232.83 60.1119 232.786 61.7792 232.786C61.5688 230.414 61.4366 228.254 61.169 226.111C60.9334 224.224 60.9823 222.648 62.3545 220.957C64.0965 218.812 62.9905 215.299 60.5915 213.848C58.4488 212.552 56.0156 212.997 54.7452 215.122C54.1672 216.088 54.0182 217.311 53.6872 218.377ZM54.3803 235.575C54.3875 235.506 54.3949 235.438 54.4021 235.37C49.5446 234.915 44.6886 234.442 39.8269 234.04C39.4244 234.007 38.9818 234.462 38.5578 234.69C38.9374 234.985 39.3139 235.532 39.6969 235.536C44.5909 235.594 49.4859 235.575 54.3803 235.575ZM54.3279 239.019C54.3463 238.929 54.3644 238.839 54.3828 238.749C49.5878 238.299 44.7946 237.826 39.9947 237.435C39.5313 237.397 39.0266 237.866 38.5409 238.099C38.9795 238.406 39.4145 238.974 39.8571 238.979C44.6801 239.043 49.5042 239.019 54.3279 239.019ZM54.3927 228.733C54.4023 228.685 54.4119 228.637 54.4216 228.589C49.521 228.13 44.6221 227.653 39.7171 227.251C39.3522 227.221 38.9434 227.729 38.5551 227.987C38.9658 228.236 39.3744 228.696 39.7876 228.7C44.6555 228.751 49.5242 228.733 54.3927 228.733ZM53.9335 225.35C53.9673 225.302 54.0012 225.255 54.035 225.207C49.3384 224.747 44.6436 224.264 39.9418 223.863C39.4997 223.825 39.0134 224.304 38.5474 224.543C39.0091 224.812 39.4681 225.309 39.9331 225.314C44.5994 225.372 49.2667 225.35 53.9335 225.35ZM38.3747 221.301C38.5232 221.534 38.6718 221.767 38.8202 222C43.9787 222 49.1374 222 54.2959 222C49.424 221.38 44.523 220.864 39.6144 220.438C39.2292 220.405 38.7893 220.999 38.3747 221.301ZM52.6951 208.399C52.6926 208.307 52.6901 208.215 52.6877 208.123C48.4545 207.695 44.2234 207.242 39.9849 206.877C39.5346 206.839 39.04 207.317 38.5658 207.556C38.9513 207.837 39.3336 208.357 39.7231 208.362C44.0463 208.421 48.3709 208.399 52.6951 208.399ZM52.4073 211.777C52.412 211.678 52.4165 211.579 52.4212 211.48C48.202 211.06 43.9845 210.618 39.7603 210.258C39.3829 210.225 38.9609 210.717 38.5595 210.966C38.8793 211.236 39.196 211.738 39.5192 211.742C43.8146 211.794 48.111 211.777 52.4073 211.777ZM52.358 215.16C52.3634 215.059 52.369 214.958 52.3744 214.857C48.1045 214.439 43.8361 214.004 39.5617 213.638C39.2516 213.612 38.8982 214.089 38.5647 214.333C38.8702 214.608 39.1727 215.12 39.4815 215.124C43.7734 215.177 48.0657 215.16 52.358 215.16ZM34.5664 233.88C32.0838 234.414 29.7985 234.905 27.5131 235.397C33.8874 235.942 34.5075 235.812 34.5664 233.88ZM34.7125 230.487C32.2227 231.008 29.9951 231.475 27.7675 231.941C33.5479 232.497 34.4033 232.321 34.7125 230.487ZM27.7529 238.684C27.7444 238.796 27.7359 238.908 27.7276 239.02C29.6708 239.02 31.619 239.093 33.5541 238.967C34.0169 238.937 34.4369 238.246 34.8766 237.859C34.7298 237.684 34.583 237.509 34.4364 237.334C32.2086 237.784 29.9807 238.234 27.7529 238.684ZM34.678 227.094C32.1187 227.636 29.7759 228.132 27.4329 228.627C32.8961 229.198 34.4373 228.887 34.678 227.094ZM27.78 221.849C27.8002 221.969 27.8204 222.09 27.8405 222.211C29.823 222.121 31.811 222.09 33.7827 221.893C34.1749 221.853 34.5028 221.175 34.8602 220.791C34.706 220.642 34.5521 220.493 34.3979 220.344C32.1918 220.846 29.9859 221.347 27.78 221.849ZM27.8074 225.193C27.8266 225.335 27.8459 225.478 27.8652 225.621C29.743 225.534 31.6275 225.513 33.4938 225.318C33.9808 225.267 34.4116 224.676 34.8681 224.332C34.7338 224.131 34.5996 223.93 34.4653 223.729C32.246 224.217 30.0267 224.705 27.8074 225.193ZM34.9046 214.212C34.7309 213.999 34.557 213.786 34.3833 213.572C32.1709 214.08 29.9588 214.586 27.4029 215.173C29.7436 215.173 31.6813 215.231 33.6102 215.129C34.0566 215.105 34.4739 214.532 34.9046 214.212ZM27.3634 218.567C29.7815 218.567 31.6613 218.634 33.5301 218.519C33.9864 218.491 34.4055 217.862 34.8416 217.51C34.7007 217.327 34.5597 217.144 34.4187 216.961C32.2048 217.465 29.9906 217.969 27.3634 218.567ZM28.8197 208.079C33.4286 208.894 34.6798 208.554 34.4539 206.763C32.5699 207.203 30.6948 207.641 28.8197 208.079ZM34.4947 210.157C32.5678 210.601 30.6645 211.04 28.2437 211.598C32.7422 212.344 34.6137 211.886 34.4947 210.157Z" fill="white"/>
<path d="M40.5246 201.941C38.8006 201.774 37.2296 201.622 35.7005 201.474C34.3724 191.093 37.5435 183.652 46.8785 180.544C54.7126 177.936 62.8934 180.875 67.5371 187.705C70.8877 192.633 72.2899 199.238 71.1958 205.36C69.0339 205.126 66.8553 204.89 64.7299 204.659C64.5222 202.082 64.5739 199.675 64.0928 197.379C63.0321 192.319 60.1142 188.603 55.1361 186.882C50.7685 185.372 46.314 187.023 43.7215 190.825C43.4656 191.2 43.1814 191.556 42.7997 192.069C43.7515 183.698 51.8911 179.602 59.4997 183.463C62.9816 185.23 64.3095 186.597 67.882 191.837C67.7856 191.444 67.7614 191.015 67.5819 190.665C64.9784 185.586 61.0472 182.102 55.3354 181.079C47.9896 179.763 41.7359 184.535 41.0011 191.98C40.6804 195.231 40.6786 198.514 40.5246 201.941Z" fill="white"/>
<path d="M212.803 411.394C211.701 410.924 210.831 410.246 210.191 409.361C209.551 408.476 209.221 407.431 209.202 406.226H213.438C213.494 407.036 213.781 407.676 214.299 408.147C214.817 408.617 215.528 408.852 216.431 408.852C217.353 408.852 218.078 408.631 218.605 408.189C219.133 407.747 219.396 407.168 219.396 406.452C219.396 405.869 219.217 405.389 218.86 405.012C218.502 404.636 218.055 404.339 217.518 404.123C216.982 403.906 216.243 403.666 215.302 403.402C214.021 403.026 212.981 402.654 212.181 402.287C211.381 401.92 210.694 401.365 210.12 400.621C209.546 399.878 209.259 398.884 209.259 397.642C209.259 396.475 209.55 395.458 210.134 394.592C210.717 393.727 211.536 393.063 212.591 392.601C213.645 392.14 214.85 391.91 216.205 391.91C218.238 391.91 219.89 392.404 221.161 393.392C222.431 394.38 223.133 395.76 223.264 397.529H218.916C218.878 396.851 218.591 396.291 218.055 395.849C217.518 395.407 216.807 395.185 215.923 395.185C215.151 395.185 214.534 395.383 214.073 395.778C213.611 396.174 213.381 396.748 213.381 397.501C213.381 398.028 213.555 398.466 213.904 398.814C214.252 399.162 214.684 399.445 215.203 399.661C215.72 399.877 216.449 400.127 217.391 400.409C218.671 400.786 219.716 401.162 220.525 401.539C221.334 401.916 222.031 402.48 222.615 403.233C223.198 403.986 223.49 404.975 223.49 406.198C223.49 407.252 223.217 408.231 222.671 409.134C222.125 410.038 221.325 410.758 220.271 411.295C219.217 411.831 217.965 412.099 216.516 412.099C215.141 412.1 213.904 411.865 212.803 411.394Z" fill="white"/>
<path d="M230.86 395.383V400.325H237.496V403.459H230.86V408.683H238.343V411.902H226.907V392.164H238.343V395.383H230.86Z" fill="white"/>
<path d="M254.015 408.147H246.165L244.866 411.902H240.715L247.803 392.164H252.405L259.493 411.902H255.314L254.015 408.147ZM252.942 404.984L250.09 396.738L247.238 404.984H252.942Z" fill="white"/>
<path d="M272.312 411.902L267.964 404.221H266.1V411.902H262.147V392.192H269.545C271.07 392.192 272.369 392.46 273.442 392.997C274.515 393.534 275.32 394.258 275.856 395.171C276.393 396.084 276.661 397.106 276.661 398.235C276.661 399.534 276.284 400.706 275.532 401.751C274.779 402.796 273.658 403.516 272.171 403.911L276.887 411.902L272.312 411.902ZM266.1 401.256H269.404C270.477 401.256 271.277 400.998 271.804 400.48C272.331 399.962 272.595 399.242 272.595 398.319C272.595 397.416 272.331 396.715 271.804 396.216C271.277 395.717 270.477 395.468 269.404 395.468H266.1V401.256Z" fill="white"/>
<path d="M280.599 396.809C281.475 395.275 282.67 394.08 284.186 393.223C285.701 392.367 287.4 391.938 289.282 391.938C291.485 391.938 293.414 392.503 295.071 393.633C296.727 394.762 297.885 396.325 298.544 398.32H293.998C293.546 397.379 292.911 396.673 292.092 396.202C291.273 395.732 290.327 395.496 289.254 395.496C288.106 395.496 287.084 395.765 286.19 396.301C285.296 396.838 284.599 397.596 284.101 398.575C283.602 399.553 283.353 400.702 283.353 402.02C283.353 403.318 283.602 404.462 284.101 405.45C284.599 406.439 285.296 407.201 286.19 407.738C287.084 408.274 288.106 408.542 289.254 408.542C290.327 408.542 291.273 408.302 292.092 407.822C292.911 407.342 293.546 406.632 293.998 405.69H298.544C297.885 407.705 296.732 409.272 295.085 410.392C293.437 411.512 291.503 412.072 289.282 412.072C287.399 412.072 285.701 411.644 284.185 410.787C282.67 409.931 281.474 408.74 280.599 407.215C279.724 405.691 279.286 403.959 279.286 402.02C279.286 400.08 279.724 398.343 280.599 396.809Z" fill="white"/>
<path d="M318.282 392.192V411.902H314.329V403.515H305.886V411.902H301.932V392.192H305.886V400.296H314.329V392.192H318.282Z" fill="white"/>
<defs>
<linearGradient id="paint0_linear_1372_1542" x1="113.489" y1="248.036" x2="367.637" y2="248.036" gradientUnits="userSpaceOnUse">
<stop stop-color="#F57A00"/>
<stop offset="1" stop-color="#7103A4"/>
</linearGradient>
<linearGradient id="paint1_linear_1372_1542" x1="85.042" y1="282.814" x2="405.514" y2="282.814" gradientUnits="userSpaceOnUse">
<stop stop-color="#F57A00"/>
<stop offset="1" stop-color="#7103A4"/>
</linearGradient>
<linearGradient id="paint2_linear_1372_1542" x1="23.0771" y1="89.6367" x2="410.333" y2="89.6367" gradientUnits="userSpaceOnUse">
<stop stop-color="#F57A00"/>
<stop offset="1" stop-color="#7103A4"/>
</linearGradient>
<linearGradient id="paint3_linear_1372_1542" x1="409.437" y1="218.496" x2="412.574" y2="218.496" gradientUnits="userSpaceOnUse">
<stop stop-color="#F57A00"/>
<stop offset="1" stop-color="#7103A4"/>
</linearGradient>
<linearGradient id="paint4_linear_1372_1542" x1="4.47583" y1="390.35" x2="152.834" y2="390.35" gradientUnits="userSpaceOnUse">
<stop stop-color="#F57A00"/>
<stop offset="1" stop-color="#7103A4"/>
</linearGradient>
<linearGradient id="paint5_linear_1372_1542" x1="8.6582" y1="213.314" x2="95.073" y2="213.314" gradientUnits="userSpaceOnUse">
<stop stop-color="#F57A00"/>
<stop offset="1" stop-color="#7103A4"/>
</linearGradient>
<linearGradient id="paint6_linear_1372_1542" x1="140.663" y1="52.4179" x2="217.756" y2="52.4179" gradientUnits="userSpaceOnUse">
<stop stop-color="#F57A00"/>
<stop offset="1" stop-color="#7103A4"/>
</linearGradient>
<linearGradient id="paint7_linear_1372_1542" x1="180.554" y1="506.906" x2="257.647" y2="506.906" gradientUnits="userSpaceOnUse">
<stop stop-color="#F57A00"/>
<stop offset="1" stop-color="#7103A4"/>
</linearGradient>
<linearGradient id="paint8_linear_1372_1542" x1="353.436" y1="113.728" x2="409.536" y2="113.728" gradientUnits="userSpaceOnUse">
<stop stop-color="#F57A00"/>
<stop offset="1" stop-color="#7103A4"/>
</linearGradient>
<linearGradient id="paint9_linear_1372_1542" x1="257.07" y1="38.652" x2="313.17" y2="38.652" gradientUnits="userSpaceOnUse">
<stop stop-color="#F57A00"/>
<stop offset="1" stop-color="#7103A4"/>
</linearGradient>
<linearGradient id="paint10_linear_1372_1542" x1="11.9709" y1="81.6723" x2="81.3607" y2="81.6723" gradientUnits="userSpaceOnUse">
<stop stop-color="#F57A00"/>
<stop offset="1" stop-color="#7103A4"/>
</linearGradient>
<linearGradient id="paint11_linear_1372_1542" x1="15.0129" y1="44.0972" x2="79.7181" y2="44.0972" gradientUnits="userSpaceOnUse">
<stop stop-color="#F57A00"/>
<stop offset="1" stop-color="#7103A4"/>
</linearGradient>
<linearGradient id="paint12_linear_1372_1542" x1="68.8042" y1="56.1136" x2="75.9693" y2="56.1136" gradientUnits="userSpaceOnUse">
<stop stop-color="#F57A00"/>
<stop offset="1" stop-color="#7103A4"/>
</linearGradient>
<linearGradient id="paint13_linear_1372_1542" x1="58.3318" y1="61.6697" x2="65.5149" y2="61.6697" gradientUnits="userSpaceOnUse">
<stop stop-color="#F57A00"/>
<stop offset="1" stop-color="#7103A4"/>
</linearGradient>
<linearGradient id="paint14_linear_1372_1542" x1="37.3894" y1="64.0055" x2="44.6219" y2="64.0055" gradientUnits="userSpaceOnUse">
<stop stop-color="#F57A00"/>
<stop offset="1" stop-color="#7103A4"/>
</linearGradient>
<linearGradient id="paint15_linear_1372_1542" x1="47.9514" y1="66.9321" x2="55.0401" y2="66.9321" gradientUnits="userSpaceOnUse">
<stop stop-color="#F57A00"/>
<stop offset="1" stop-color="#7103A4"/>
</linearGradient>
<linearGradient id="paint16_linear_1372_1542" x1="26.9028" y1="66.9001" x2="34.0503" y2="66.9001" gradientUnits="userSpaceOnUse">
<stop stop-color="#F57A00"/>
<stop offset="1" stop-color="#7103A4"/>
</linearGradient>
<linearGradient id="paint17_linear_1372_1542" x1="16.4368" y1="71.1914" x2="23.623" y2="71.1914" gradientUnits="userSpaceOnUse">
<stop stop-color="#F57A00"/>
<stop offset="1" stop-color="#7103A4"/>
</linearGradient>
</defs>
</svg>
