<svg width="644" height="406" viewBox="0 0 644 406" fill="none" xmlns="http://www.w3.org/2000/svg">
<path d="M433.329 178.297H364.005V402.708H433.329V178.297Z" fill="#A535C5"/>
<g opacity="0.35">
<path d="M433.329 178.297H398.667V402.707H433.329V178.297Z" fill="#F0BCFF"/>
</g>
<path d="M427.294 205.823H370.041V290.502H427.294V205.823Z" fill="white"/>
<path d="M427.294 186.63H370.041V200.711H427.294V186.63Z" fill="white"/>
<path d="M418.14 379.214C421.943 368.486 416.329 356.706 405.6 352.903C394.872 349.101 383.093 354.715 379.29 365.443C375.487 376.172 381.102 387.951 391.83 391.754C402.558 395.556 414.338 389.942 418.14 379.214Z" fill="#E6E6E6"/>
<path d="M408.058 387.551C416.44 382.371 419.037 371.376 413.856 362.994C408.676 354.611 397.681 352.015 389.299 357.195C380.916 362.375 378.32 373.37 383.5 381.753C388.68 390.135 399.675 392.731 408.058 387.551Z" fill="#7103A4"/>
<path d="M419.439 214.261H377.896V222.162H419.439V214.261Z" fill="#D3D3D3"/>
<path d="M411.477 227.8H385.858V235.701H411.477V227.8Z" fill="#E6E6E6"/>
<path d="M416.861 241.34H380.473V249.241H416.861V241.34Z" fill="#E6E6E6"/>
<path d="M502.93 178.297H433.606V402.708H502.93V178.297Z" fill="#A535C5"/>
<g opacity="0.35">
<path d="M502.931 178.297H468.269V402.707H502.931V178.297Z" fill="#F0BCFF"/>
</g>
<path d="M496.895 205.823H439.642V290.502H496.895V205.823Z" fill="white"/>
<path d="M496.895 186.63H439.642V200.711H496.895V186.63Z" fill="white"/>
<path d="M478.717 390.065C488.519 384.281 491.776 371.646 485.992 361.844C480.208 352.042 467.573 348.785 457.771 354.569C447.969 360.353 444.712 372.988 450.496 382.79C456.28 392.592 468.915 395.849 478.717 390.065Z" fill="#E6E6E6"/>
<path d="M450.427 372.331C450.427 362.477 458.415 354.489 468.269 354.489C478.122 354.489 486.111 362.477 486.111 372.331C486.111 382.185 478.123 390.173 468.269 390.173C458.415 390.172 450.427 382.185 450.427 372.331Z" fill="#7103A4"/>
<path d="M489.04 214.261H447.497V222.162H489.04V214.261Z" fill="#D3D3D3"/>
<path d="M481.078 227.8H455.459V235.701H481.078V227.8Z" fill="#E6E6E6"/>
<path d="M486.463 241.34H450.075V249.241H486.463V241.34Z" fill="#E6E6E6"/>
<path d="M572.007 172.21L503.696 184.009L541.89 405.143L610.202 393.344L572.007 172.21Z" fill="#A535C5"/>
<g opacity="0.35">
<path d="M572.007 172.21L537.851 178.11L576.046 399.244L610.202 393.344L572.007 172.21Z" fill="#F0BCFF"/>
</g>
<path d="M570.745 200.362L514.328 210.106L528.74 293.549L585.158 283.805L570.745 200.362Z" fill="white"/>
<path d="M567.479 181.449L511.062 191.194L513.458 205.069L569.875 195.325L567.479 181.449Z" fill="white"/>
<path d="M571.099 389.941C582.48 389.841 591.626 380.533 591.525 369.152C591.425 357.77 582.118 348.625 570.736 348.725C559.355 348.825 550.209 358.133 550.309 369.515C550.409 380.896 559.717 390.042 571.099 389.941Z" fill="#E6E6E6"/>
<path d="M583.476 381.962C590.444 374.994 590.444 363.698 583.476 356.73C576.509 349.762 565.212 349.762 558.244 356.73C551.277 363.698 551.277 374.994 558.244 381.962C565.212 388.93 576.509 388.93 583.476 381.962Z" fill="#7103A4"/>
<path d="M564.441 210.013L523.505 217.083L524.85 224.869L565.786 217.799L564.441 210.013Z" fill="#D3D3D3"/>
<path d="M558.9 224.71L533.655 229.071L534.999 236.856L560.244 232.496L558.9 224.71Z" fill="#E6E6E6"/>
<path d="M566.51 237.135L530.653 243.329L531.998 251.114L567.854 244.921L566.51 237.135Z" fill="#E6E6E6"/>
<path d="M90.3761 18.7686C84.133 18.7686 79.071 23.8302 79.071 30.0764C79.071 36.3195 84.133 41.3815 90.3761 41.3815C96.6224 41.3815 101.684 36.3195 101.684 30.0764C101.684 23.8305 96.6224 18.7686 90.3761 18.7686Z" fill="#516F7E"/>
<path d="M120.284 34.0076V26.1445L112.49 24.9752C111.917 22.4844 110.937 20.1507 109.62 18.0479L114.305 11.7092L108.745 6.14908L102.406 10.8341C100.303 9.51648 97.9695 8.53618 95.4782 7.96347L94.3093 0.169556H86.4462L85.2772 7.96276C82.786 8.53511 80.4517 9.51541 78.3484 10.8334L72.0109 6.14908L66.4507 11.7092L71.1354 18.0475C69.8181 20.1507 68.8382 22.4847 68.2658 24.9756L60.4712 26.1449V34.008L68.2655 35.1773C68.8378 37.6685 69.8178 40.0021 71.1354 42.1054L66.4507 48.4436L72.0109 54.0038L78.3495 49.3187C80.4524 50.636 82.7864 51.6156 85.2772 52.188L86.4465 59.983H94.3096L95.4789 52.1873C97.9695 51.6149 100.303 50.635 102.406 49.318L108.745 54.0038L114.305 48.4436L109.62 42.105C110.938 40.0021 111.918 37.6685 112.49 35.1776L120.284 34.0076ZM90.3763 45.7203C81.7376 45.7203 74.7357 38.7152 74.7357 30.0768C74.7357 21.4381 81.7376 14.4333 90.3763 14.4333C99.0179 14.4333 106.02 21.4381 106.02 30.0768C106.02 38.7152 99.0179 45.7203 90.3763 45.7203Z" fill="url(#paint0_linear_1376_1665)"/>
<path d="M101.684 30.0764C101.684 36.3195 96.6224 41.3815 90.3761 41.3815C84.133 41.3815 79.071 36.3195 79.071 30.0764C79.071 23.8302 84.133 18.7686 90.3761 18.7686C96.6224 18.7686 101.684 23.8305 101.684 30.0764Z" fill="url(#paint1_linear_1376_1665)"/>
<path d="M90.3761 49.8625C79.4662 49.8625 70.5903 40.9866 70.5903 30.0767C70.5903 19.165 79.4662 10.2877 90.3761 10.2877C101.288 10.2877 110.165 19.165 110.165 30.0767C110.165 40.9866 101.288 49.8625 90.3761 49.8625ZM90.3761 11.1803C79.9583 11.1803 71.4829 19.6571 71.4829 30.0763C71.4829 40.4942 79.9583 48.9695 90.3761 48.9695C100.796 48.9695 109.272 40.4942 109.272 30.0763C109.272 19.6571 100.796 11.1803 90.3761 11.1803Z" fill="white"/>
<path d="M151.786 59.376V54.3529L146.806 53.6062C146.441 52.015 145.815 50.524 144.973 49.1807L147.966 45.1315L144.414 41.5797L140.365 44.5723C139.022 43.7307 137.531 43.1045 135.94 42.7387L135.193 37.7598H130.17L129.423 42.738C127.832 43.1035 126.341 43.7297 124.997 44.5716L120.948 41.5794L117.397 45.1311L120.389 49.18C119.548 50.5233 118.922 52.0143 118.556 53.6058L113.577 54.3529V59.376L118.556 60.1227C118.921 61.7139 119.548 63.2048 120.389 64.5485L117.397 68.5974L120.948 72.1492L124.998 69.1562C126.341 69.9978 127.832 70.6236 129.423 70.9891L130.17 75.9687H135.193L135.94 70.9888C137.531 70.6233 139.022 69.9971 140.365 69.1558L144.415 72.1492L147.966 68.5974L144.973 64.5482C145.815 63.2048 146.441 61.7139 146.807 60.1227L151.786 59.376ZM132.68 66.8582C127.161 66.8582 122.689 62.3832 122.689 56.8648C122.689 51.3464 127.161 46.8713 132.68 46.8713C138.2 46.8713 142.673 51.346 142.673 56.8648C142.673 62.3832 138.2 66.8582 132.68 66.8582Z" fill="#F57A00"/>
<path d="M396.688 55.4258V391.694C396.688 398.254 391.37 403.573 384.814 403.573H147.611C141.05 403.573 135.732 398.254 135.732 391.694V55.4258C135.732 48.8693 141.051 43.5509 147.611 43.5509H384.814C391.37 43.5509 396.688 48.8696 396.688 55.4258Z" fill="#7103A4"/>
<path d="M374.965 56.8298L384.586 64.0981V390.292H157.458L147.837 383.024H374.965V56.8298Z" fill="white"/>
<path d="M374.965 56.8298H147.837V383.024H374.965V56.8298Z" fill="#EFEFEF"/>
<path d="M374.967 56.8394V383.034H148.169L147.839 352.009V56.8394H374.967Z" fill="url(#paint2_linear_1376_1665)"/>
<path d="M216.936 217.546H180.556C178.91 217.546 177.574 216.21 177.574 214.564V178.184C177.574 176.537 178.91 175.202 180.556 175.202H216.936C218.583 175.202 219.918 176.537 219.918 178.184V214.564C219.918 216.21 218.583 217.546 216.936 217.546Z" fill="#F49325"/>
<path d="M196.394 208.724C195.772 208.724 195.172 208.477 194.73 208.035L184.145 197.449C183.226 196.53 183.226 195.041 184.145 194.122C185.064 193.204 186.552 193.204 187.471 194.122L196.157 202.808L209.815 184.947C210.602 183.917 212.078 183.716 213.113 184.507C214.146 185.296 214.342 186.773 213.553 187.805L198.262 207.8C197.85 208.339 197.227 208.673 196.55 208.718C196.497 208.723 196.445 208.724 196.394 208.724Z" fill="white"/>
<path d="M345.232 181.564H229.964V186.268H345.232V181.564Z" fill="#CCCCCC"/>
<path d="M300.536 206.479H229.964V211.184H300.536V206.479Z" fill="#CCCCCC"/>
<path d="M345.232 194.089H229.964V198.794H345.232V194.089Z" fill="#CCCCCC"/>
<path d="M216.936 278.888H180.556C178.91 278.888 177.574 277.552 177.574 275.906V239.526C177.574 237.879 178.91 236.544 180.556 236.544H216.936C218.583 236.544 219.918 237.879 219.918 239.526V275.906C219.918 277.552 218.583 278.888 216.936 278.888Z" fill="#F49325"/>
<path d="M196.394 270.066C195.772 270.066 195.172 269.819 194.73 269.377L184.145 258.791C183.226 257.872 183.226 256.384 184.145 255.465C185.064 254.546 186.552 254.546 187.471 255.465L196.157 264.151L209.815 246.289C210.602 245.259 212.078 245.058 213.113 245.849C214.146 246.639 214.342 248.116 213.553 249.147L198.262 269.143C197.85 269.681 197.227 270.016 196.55 270.06C196.497 270.065 196.445 270.066 196.394 270.066Z" fill="white"/>
<path d="M345.232 242.906H229.964V247.611H345.232V242.906Z" fill="#CCCCCC"/>
<path d="M300.536 267.822H229.964V272.526H300.536V267.822Z" fill="#CCCCCC"/>
<path d="M345.232 255.431H229.964V260.136H345.232V255.431Z" fill="#CCCCCC"/>
<path d="M345.232 304.248H229.964V308.953H345.232V304.248Z" fill="#CCCCCC"/>
<path d="M300.536 329.164H229.964V333.868H300.536V329.164Z" fill="#CCCCCC"/>
<path d="M345.232 316.774H229.964V321.479H345.232V316.774Z" fill="#CCCCCC"/>
<path d="M216.936 340.23H180.556C178.91 340.23 177.574 338.895 177.574 337.248V300.869C177.574 299.222 178.91 297.887 180.556 297.887H216.936C218.583 297.887 219.918 299.222 219.918 300.869V337.248C219.918 338.895 218.583 340.23 216.936 340.23Z" fill="#F49325"/>
<path d="M196.393 331.409C195.772 331.409 195.172 331.162 194.73 330.72L184.144 320.134C183.225 319.215 183.225 317.726 184.144 316.807C185.063 315.888 186.552 315.888 187.471 316.807L196.157 325.494L209.815 307.632C210.602 306.602 212.078 306.401 213.113 307.192C214.146 307.982 214.342 309.459 213.553 310.49L198.263 330.486C197.85 331.024 197.227 331.359 196.55 331.404C196.497 331.408 196.445 331.409 196.393 331.409Z" fill="white"/>
<path d="M347.928 56.9295C347.484 55.8972 346.984 54.8976 346.426 53.9373C346.366 53.8296 346.305 53.7248 346.241 53.6199C346.133 53.4377 346.023 53.2555 345.913 53.0761C345.871 53.0126 345.833 52.9492 345.788 52.8828C345.678 52.7117 345.568 52.5405 345.454 52.3722C345.451 52.364 345.448 52.3583 345.443 52.3529C345.313 52.1568 345.181 51.9635 345.045 51.7731C344.623 51.1686 344.176 50.5834 343.707 50.0175C343.544 49.8214 343.378 49.6256 343.21 49.4323C343.058 49.2583 342.903 49.0871 342.746 48.916C342.583 48.7366 342.415 48.5597 342.246 48.3832C342.238 48.3721 342.227 48.3611 342.216 48.35C342.056 48.1871 341.896 48.027 341.733 47.8668C341.647 47.7784 341.562 47.6957 341.473 47.6129C341.385 47.5274 341.297 47.4446 341.208 47.3619C341.206 47.3562 341.2 47.3537 341.197 47.3508C341.054 47.2182 340.91 47.0859 340.767 46.9589C340.667 46.868 340.57 46.7824 340.471 46.6968C340.284 46.5339 340.096 46.3709 339.903 46.2136C339.712 46.0564 339.519 45.8991 339.323 45.7472C339.171 45.6256 339.014 45.5072 338.859 45.3909C338.619 45.2087 338.373 45.0322 338.127 44.8582C338.006 44.7726 337.885 44.6899 337.76 44.6043C337.52 44.4413 337.28 44.284 337.034 44.1293C336.929 44.0605 336.821 43.9941 336.714 43.9278C336.512 43.8009 336.308 43.6793 336.101 43.5605C335.957 43.4778 335.811 43.3922 335.665 43.3119C335.535 43.2374 335.403 43.1629 335.27 43.0937C335.259 43.0855 335.245 43.0798 335.234 43.0745C335.093 42.9971 334.95 42.9225 334.809 42.8509C334.663 42.7763 334.516 42.7018 334.37 42.6301C334.221 42.5556 334.075 42.4839 333.926 42.4147C333.92 42.4119 333.917 42.409 333.912 42.4065C333.693 42.3045 333.473 42.205 333.252 42.1084C333.025 42.0089 332.799 41.9123 332.57 41.8185C332.341 41.7247 332.112 41.6334 331.88 41.5453C331.778 41.504 331.673 41.4655 331.568 41.4294C331.466 41.3909 331.364 41.3549 331.259 41.3189C331.121 41.2665 330.983 41.2194 330.845 41.1752C330.765 41.1477 330.685 41.1199 330.605 41.0953C330.362 41.0154 330.116 40.938 329.871 40.866C329.733 40.8246 329.592 40.7833 329.451 40.7444C329.31 40.7059 329.169 40.667 329.029 40.6285C328.786 40.5679 328.545 40.5069 328.303 40.4491C327.977 40.3718 327.648 40.3001 327.317 40.2337L296.534 34.072L290.011 32.7661C290.325 31.2202 290.472 29.6494 290.472 28.0069C290.472 14.5961 279.623 3.74683 266.212 3.74683C252.801 3.74683 241.951 14.5958 241.951 28.0069C241.951 29.6494 242.098 31.2202 242.41 32.7661L235.886 34.072L205.103 40.2337C199.817 41.2857 195.038 43.7866 191.223 47.3505C191.22 47.3533 191.215 47.3558 191.212 47.3615C188.372 50.0143 186.069 53.258 184.493 56.9295C184.178 57.6306 184.06 58.3542 184.06 59.0553C184.06 61.882 186.329 64.3943 189.399 64.3943H343.025C346.092 64.3943 348.364 61.882 348.364 59.0553C348.364 58.3542 348.242 57.631 347.928 56.9295ZM251.352 30.9774C251.134 30.011 251.037 28.9979 251.037 28.0069C251.037 19.6453 257.851 12.832 266.212 12.832C274.571 12.832 281.387 19.6453 281.387 28.0069C281.387 28.9979 281.288 30.011 281.072 30.9774C281.053 31.0712 281.034 31.165 281.015 31.2563C280.995 31.35 280.973 31.4413 280.951 31.5351C280.929 31.6289 280.907 31.7256 280.882 31.8193C280.854 31.9299 280.824 32.0376 280.793 32.1453C280.755 32.289 280.714 32.4295 280.669 32.5704C280.573 32.8824 280.465 33.1887 280.346 33.4925C280.321 33.5617 280.294 33.6277 280.266 33.6969C280.216 33.821 280.164 33.9454 280.112 34.0667C280.112 34.0667 280.109 34.0695 280.109 34.072C279.957 34.4197 279.794 34.7595 279.617 35.0933C279.54 35.2395 279.46 35.3857 279.377 35.5294C279.289 35.6867 279.195 35.8415 279.098 35.9959C279.051 36.0733 279.002 36.1478 278.955 36.2223C278.905 36.2997 278.855 36.3742 278.806 36.4488C278.709 36.5925 278.61 36.733 278.51 36.8738C278.187 37.321 277.842 37.7461 277.475 38.1547C277.356 38.2874 277.235 38.4169 277.111 38.5442C276.984 38.674 276.857 38.8009 276.727 38.925C276.614 39.0356 276.498 39.1433 276.382 39.2481C276.225 39.3918 276.062 39.5323 275.899 39.6678C275.769 39.7755 275.637 39.8804 275.501 39.9852C275.382 40.0761 275.261 40.1674 275.139 40.2559C275.106 40.2833 275.07 40.3083 275.035 40.3304C274.93 40.4106 274.822 40.4852 274.712 40.5568C274.532 40.6809 274.35 40.7968 274.165 40.9102C274.044 40.9848 273.919 41.0593 273.795 41.131C273.765 41.1502 273.732 41.1698 273.698 41.1862C273.544 41.2747 273.389 41.3603 273.232 41.443C273.226 41.443 273.224 41.4458 273.221 41.4487C273.064 41.5286 272.909 41.606 272.752 41.6805C272.743 41.6862 272.732 41.6915 272.724 41.6944C272.602 41.7525 272.481 41.8074 272.357 41.8627C272.301 41.8877 272.246 41.9123 272.191 41.9344C272.036 42.0007 271.882 42.0642 271.725 42.1248C271.601 42.1744 271.474 42.2215 271.349 42.2657C271.225 42.3127 271.101 42.3541 270.976 42.3926C270.88 42.4286 270.78 42.4589 270.681 42.4893C270.328 42.597 269.969 42.6936 269.605 42.7763C269.483 42.8038 269.359 42.8316 269.237 42.8562C269.13 42.8783 269.019 42.8976 268.912 42.9168C268.801 42.9361 268.691 42.9582 268.58 42.9721C268.36 43.0081 268.139 43.0384 267.915 43.063C267.733 43.0823 267.551 43.0991 267.368 43.1126C267.275 43.1208 267.183 43.1265 267.09 43.1319C267.026 43.1347 266.963 43.1376 266.899 43.1401C266.802 43.1458 266.703 43.1483 266.606 43.1511C266.562 43.1511 266.518 43.1511 266.474 43.154C266.385 43.1568 266.3 43.1568 266.212 43.1568C259.984 43.1568 254.639 39.4136 252.315 34.0716C251.888 33.0892 251.562 32.054 251.352 30.9774Z" fill="#A535C5"/>
<path opacity="0.3" d="M348.364 59.0554C348.364 61.8822 346.093 64.3955 343.024 64.3955H266.211V43.1566C273.581 43.1566 279.718 37.9135 281.071 30.9786C281.289 30.0122 281.386 28.9973 281.386 28.0067C281.386 19.6465 274.572 12.8325 266.211 12.8325V3.74731C279.621 3.74731 290.471 14.5963 290.471 28.0067C290.471 29.6495 290.326 31.22 290.012 32.7666L327.319 40.2328C336.549 42.0693 344.232 48.3274 347.929 56.929C348.243 57.6297 348.364 58.3547 348.364 59.0554Z" fill="white"/>
<path d="M349.166 159.193H173.64V76.1835H349.166V159.193ZM175.423 157.409H347.383V77.9665H175.423V157.409Z" fill="#E3EFF6"/>
<path d="M148.695 183.726L154.906 178.003C155.441 177.51 156.127 177.213 156.853 177.161C159.82 176.947 167.622 176.519 167.893 177.92C168.135 179.17 160.859 180.461 160.859 180.461C160.859 180.461 162.869 183.502 160.97 184.619C159.072 185.735 154.606 186.294 154.606 186.294L152.824 188.088L148.695 183.726Z" fill="#F9A38A"/>
<path d="M97.5022 249.867L94.7 393.64H84.2908L78.7713 326.457L72.1484 252.65L97.5022 249.867Z" fill="#1B1425"/>
<path d="M85.6295 393.641L94.1787 393.64C94.1787 393.64 99.844 399.599 103.147 399.598C106.45 399.597 106.267 403.902 106.267 403.902L84.6392 403.906L84.0882 402.085C84.0882 402.085 83.3058 395.965 85.6295 393.641Z" fill="#141414"/>
<path d="M41.2039 393.641L49.5987 393.64C49.5987 393.64 49.7692 398.311 51.2181 398.196C53.991 397.978 54.128 403.902 54.128 403.902L40.5888 403.906L40.469 403.436C40.2269 402.485 40.1095 401.498 40.1249 400.505C40.158 398.357 40.3431 394.664 41.2039 393.641Z" fill="#141414"/>
<path d="M88.7778 252.649L82.7637 279.593L67.709 330.938L50.9668 393.64H39.813L50.5229 328.841L57.0152 261.622L57.1179 260.583L57.2113 259.592L57.8033 253.475L66.1806 253.253L67.2779 253.223L67.5093 253.217L88.7778 252.649Z" fill="#1B1425"/>
<path d="M94.9298 182.562L98.1182 254.235C94.8856 255.42 65.6195 256.133 57.8035 253.475C57.7825 248.769 57.6277 242.179 57.0286 234.314C56.5383 227.881 55.9278 222.921 55.0933 216.598C53.9654 208.054 52.3625 196.52 50.1843 182.509L68.0976 175.942L83.7603 177.373L94.9298 182.562Z" fill="#F2F2F2"/>
<path d="M85.7617 168.923C85.2101 169.713 84.806 170.677 84.5061 171.75C84.4954 171.785 84.4847 171.82 84.4765 171.852C84.4469 171.959 84.4284 172.042 84.4177 172.109C84.3589 172.433 83.2815 175.658 83.759 177.466L78.8215 182.158L68.0967 175.943C68.9169 172.983 69.144 169.508 69.082 165.782L70.8946 166.056L75.2505 166.736L83.7483 167.772L85.593 167.997C85.4486 168.16 85.8823 168.744 85.7617 168.923Z" fill="#FFB196"/>
<path d="M85.7616 168.923C85.2099 169.713 84.8059 170.677 84.506 171.75C84.4953 171.785 84.4846 171.82 84.4764 171.852C84.4468 171.959 83.9561 173.887 83.9454 173.954C83.8866 174.277 77.4374 170.619 75.9661 169.615L83.7482 167.771L85.5929 167.996C85.4485 168.16 85.8821 168.744 85.7616 168.923Z" fill="#141414"/>
<path d="M90.4248 169.024C90.3081 169.442 90.1805 169.851 90.0382 170.253C89.979 170.42 89.9166 170.587 89.851 170.753C89.851 170.753 89.5711 171.07 88.7769 171.346C88.697 171.372 88.6143 171.397 88.5212 171.424C87.7898 171.635 86.6997 171.796 85.1249 171.71C85.1217 171.709 85.1146 171.71 85.1117 171.71C84.8076 171.692 84.4884 171.667 84.146 171.629C81.9201 171.4 78.8929 170.708 74.7902 169.193C73.24 168.619 71.5308 167.927 69.6519 167.093C69.6519 167.093 69.602 166.924 69.5357 166.612C68.7397 163.483 65.8234 148.067 69.6769 146.51C73.9119 144.798 84.8379 143.714 88.7477 146.076C88.7477 146.076 91.9396 155.535 91.2207 164.406C91.2118 164.494 91.2068 164.579 91.1975 164.666L91.1968 164.669C91.0634 166.155 90.8174 167.626 90.4248 169.024Z" fill="#FFB196"/>
<path d="M68.6234 169.161C68.6234 169.161 69.005 167.057 64.8588 159.31C62.7077 155.291 64.0479 146.25 69.6037 145.993C69.368 143.897 71.0851 141.976 73.0724 141.271C75.0601 140.566 77.2436 140.797 79.3333 141.08C81.3135 141.349 83.1721 141.507 85.1595 141.258C86.0332 141.149 86.9225 141.185 87.8058 141.024C88.7712 140.848 89.7165 140.564 90.6177 140.175C91.1351 139.953 91.7342 139.695 92.2334 139.957C92.6724 140.187 92.8375 140.726 92.9181 141.215C93.2633 143.309 92.788 145.519 91.6515 147.308C91.0474 148.259 90.571 148.866 89.4145 149.058C88.2923 149.244 87.1515 149.055 86.0235 149.049C85.1695 149.045 84.565 149.01 83.9289 149.576C83.3615 150.08 82.843 151.043 83.5558 151.644C85.2037 153.032 83.5644 157.624 83.3815 159.036C83.1985 160.449 80.9559 153.574 78.8997 154.328C76.8439 155.083 76.3753 155.674 77.346 161.284C78.317 166.892 68.6234 169.161 68.6234 169.161Z" fill="#323232"/>
<path opacity="0.6" d="M76.4868 301L81.2047 284.91L77.542 312.758L76.4868 301Z" fill="#333A48"/>
<path d="M148.934 182.352L127.265 202.385L95.0124 182.323C94.5382 191.71 93.6713 197.684 95.3876 204.914L126.494 216.424C127.993 216.522 129.461 215.954 130.545 214.857L154.3 188.341L148.934 182.352Z" fill="#A535C5"/>
<path d="M98.9416 256.588H90.0974L82.5835 254.651L79.2339 207.817L84.0662 177.216L95.0489 182.323C94.5757 195.81 98.9416 256.588 98.9416 256.588Z" fill="#A535C5"/>
<path d="M83.1244 254.259L77.3892 256.581L56.432 255.295C56.3867 250.543 56.2619 245.67 56.0497 240.681C55.9491 238.354 55.8308 236.002 55.6885 233.626C55.5982 232.08 55.4973 230.52 55.3896 228.953C55.3062 227.772 55.2195 226.602 55.1289 225.434C54.9449 223.045 54.7399 220.679 54.5209 218.341C53.2807 205.13 52.2569 194.007 50.1829 182.508C52.0657 181.838 67.2139 176.254 68.0961 175.942L79.2328 207.418L81.7658 220.404L82.193 227.359L82.6965 235.536L83.1237 242.49V254.259H83.1244Z" fill="#A535C5"/>
<path d="M82.6976 235.536C82.6976 235.536 65.0162 241.834 56.0504 240.681C55.9499 238.354 55.8315 236.002 55.6892 233.626C64.6235 234.824 73.6866 235.464 82.6976 235.536Z" fill="#FFEEE0"/>
<path d="M91.8696 249.612L49.3497 268.38C48.5202 268.746 47.5514 268.37 47.1851 267.541L33.9469 237.548C33.5807 236.718 33.9562 235.749 34.7857 235.383L77.3056 216.616C78.1351 216.249 79.1039 216.625 79.4702 217.455L92.7084 247.448C93.0746 248.277 92.6991 249.247 91.8696 249.612Z" fill="#0D2435"/>
<path d="M89.882 243.123C89.9879 243.009 90.0863 242.89 90.1765 242.766C90.1869 242.752 90.1965 242.739 90.2065 242.725C90.2236 242.701 90.2403 242.677 90.2567 242.653C90.2625 242.644 90.2682 242.636 90.2742 242.627C90.2896 242.603 90.3053 242.58 90.3202 242.556C90.3213 242.555 90.3217 242.555 90.322 242.553C90.3395 242.526 90.3566 242.499 90.373 242.471C90.4258 242.384 90.475 242.294 90.5203 242.203C90.536 242.172 90.5517 242.14 90.5666 242.108C90.5802 242.079 90.593 242.05 90.6062 242.02C90.6198 241.99 90.6326 241.959 90.6458 241.927C90.6469 241.926 90.6476 241.924 90.6483 241.922C90.6601 241.892 90.6711 241.863 90.6825 241.833C90.689 241.818 90.6947 241.802 90.7 241.786C90.7057 241.77 90.7114 241.755 90.7171 241.739C90.7178 241.738 90.7178 241.738 90.7178 241.737C90.7264 241.711 90.7353 241.686 90.7435 241.661C90.7496 241.643 90.7549 241.626 90.7603 241.608C90.7703 241.576 90.7806 241.543 90.7895 241.51C90.7988 241.477 90.8081 241.444 90.8163 241.41C90.823 241.384 90.8295 241.358 90.8355 241.332C90.8452 241.291 90.8537 241.25 90.8623 241.209C90.8662 241.189 90.8701 241.169 90.874 241.149C90.8812 241.109 90.8876 241.07 90.8936 241.03C90.8965 241.013 90.899 240.996 90.9011 240.979C90.9058 240.946 90.91 240.913 90.9133 240.881C90.9157 240.858 90.9183 240.835 90.9204 240.812C90.9225 240.791 90.9247 240.77 90.9261 240.75C90.9264 240.748 90.9264 240.746 90.9264 240.744C90.9282 240.722 90.9297 240.7 90.9311 240.678C90.9321 240.655 90.9336 240.632 90.9346 240.61C90.9357 240.587 90.9368 240.564 90.9372 240.542C90.9372 240.541 90.9375 240.54 90.9375 240.54C90.9382 240.507 90.9386 240.473 90.9382 240.44C90.9382 240.405 90.9379 240.371 90.9368 240.337C90.9357 240.303 90.9346 240.269 90.9329 240.235C90.9325 240.22 90.9314 240.204 90.93 240.189C90.9293 240.174 90.9279 240.159 90.9268 240.144C90.9257 240.123 90.9239 240.103 90.9218 240.083C90.9207 240.072 90.92 240.06 90.9186 240.048C90.915 240.013 90.9111 239.978 90.9065 239.943C90.904 239.923 90.9015 239.903 90.8983 239.883C90.8954 239.863 90.8922 239.843 90.8894 239.823C90.8833 239.789 90.8776 239.755 90.8715 239.721C90.863 239.675 90.8537 239.63 90.8437 239.584L89.9048 235.348L89.7058 234.45C89.9187 234.404 90.1255 234.335 90.3334 234.243C92.0291 233.495 92.7954 231.517 92.0469 229.822C91.2984 228.126 89.321 227.36 87.6254 228.108C87.4178 228.2 87.227 228.306 87.0491 228.432L86.5199 227.68L84.0226 224.131C83.5947 223.521 83.0116 223.057 82.348 222.773C82.348 222.773 82.3469 222.772 82.3459 222.772C81.852 222.561 81.3131 222.451 80.7611 222.457C80.6549 222.456 80.5568 222.481 80.468 222.521C80.1107 222.678 79.9195 223.105 80.0911 223.494L88.6649 242.919C88.836 243.307 89.2804 243.454 89.638 243.297C89.7261 243.258 89.811 243.202 89.882 243.123ZM87.7737 229.463C87.8836 229.381 88.0066 229.313 88.1318 229.258C89.1891 228.791 90.4308 229.272 90.8976 230.329C91.364 231.386 90.8829 232.629 89.8256 233.095C89.7004 233.151 89.5667 233.194 89.4323 233.221C89.4195 233.224 89.4063 233.227 89.3938 233.229C89.3809 233.232 89.3681 233.234 89.3549 233.237C89.3417 233.239 89.3285 233.242 89.315 233.244C89.2993 233.247 89.2843 233.249 89.269 233.251C89.2486 233.254 89.2287 233.257 89.2083 233.259C89.1634 233.265 89.1188 233.268 89.0735 233.27C89.0636 233.271 89.0536 233.271 89.0432 233.271C89.0247 233.272 89.0061 233.273 88.988 233.273H88.9872C88.9348 233.273 88.8828 233.271 88.8307 233.268C88.8079 233.266 88.7851 233.264 88.7622 233.261C88.7373 233.259 88.7127 233.256 88.6877 233.252C88.6752 233.25 88.6631 233.249 88.651 233.247C88.6385 233.245 88.6264 233.243 88.6139 233.24C88.5903 233.236 88.5672 233.232 88.5436 233.227C88.4691 233.211 88.396 233.191 88.324 233.167C88.3004 233.16 88.2772 233.152 88.2544 233.143C88.2309 233.134 88.2077 233.125 88.1849 233.116C88.1646 233.108 88.1446 233.099 88.1246 233.09C88.0979 233.079 88.0708 233.066 88.0447 233.053C88.0241 233.042 88.0034 233.031 87.9823 233.02C87.9641 233.01 87.946 233 87.9278 232.989C87.9224 232.987 87.9174 232.984 87.9124 232.98C87.8964 232.971 87.8811 232.962 87.8657 232.952C87.8401 232.936 87.8151 232.92 87.7905 232.903C87.7744 232.892 87.758 232.88 87.742 232.868C87.7377 232.865 87.7334 232.862 87.7295 232.859C87.7095 232.844 87.6903 232.83 87.671 232.814C87.6707 232.814 87.6703 232.813 87.6696 232.813C87.6507 232.798 87.6322 232.783 87.614 232.767C87.6129 232.766 87.6115 232.765 87.6108 232.764C87.5968 232.752 87.5829 232.74 87.569 232.727C87.563 232.721 87.5566 232.716 87.5509 232.71C87.5337 232.694 87.5173 232.678 87.5006 232.661C87.4874 232.648 87.4742 232.635 87.4617 232.622C87.4489 232.609 87.4367 232.595 87.425 232.582C87.415 232.571 87.4057 232.561 87.3961 232.55C87.3626 232.511 87.3305 232.471 87.2998 232.43C87.2895 232.416 87.2791 232.402 87.2691 232.387C87.2602 232.375 87.2517 232.362 87.2431 232.35C87.2345 232.337 87.2256 232.324 87.2178 232.311C87.201 232.285 87.1846 232.259 87.1693 232.232C87.1568 232.209 87.1443 232.187 87.1325 232.165C87.1261 232.154 87.1204 232.142 87.1147 232.131C87.1108 232.123 87.1069 232.115 87.1029 232.108C87.0969 232.096 87.0908 232.083 87.0851 232.071C87.0826 232.065 87.0801 232.06 87.0773 232.054C87.0719 232.043 87.0673 232.033 87.0623 232.021C86.7146 231.234 86.8897 230.349 87.4357 229.757C87.5366 229.649 87.6493 229.55 87.7737 229.463Z" fill="#755735"/>
<path d="M64.4292 254.651L67.0963 258.831L67.9329 262.082C68.0181 262.414 67.879 262.746 67.5898 262.848C67.3634 262.927 67.1138 263.09 66.9412 263.444C66.7757 263.783 66.7283 264.122 66.7279 264.401C66.7275 264.723 66.5147 264.983 66.2162 265.022C65.8492 265.071 65.3828 265.207 64.9567 265.558C64.6981 265.771 64.517 266.011 64.3907 266.227C64.2549 266.461 63.9949 266.58 63.7242 266.502C63.4318 266.419 63.0438 266.358 62.6113 266.429C62.116 266.511 61.7544 266.732 61.5179 266.93C61.3396 267.078 61.0907 267.102 60.8618 266.993C60.7177 266.925 60.5391 266.867 60.3347 266.855C60.2138 266.849 60.1036 266.859 60.0045 266.88C59.6479 266.956 59.2674 266.712 59.1579 266.323C58.7671 264.933 58.3763 263.543 57.9854 262.152L56.9053 259.451L64.4292 254.651Z" fill="#F9A38A"/>
<path d="M50.1837 182.509L36.9052 223.108C35.8817 226.437 36.3692 230.047 38.2389 232.985L55.6889 260.405L64.6582 254.65L50.1837 227.359L54.2571 215.619C53.8502 205.043 52.8889 194.067 50.1837 182.509Z" fill="#A535C5"/>
<path d="M78.8219 182.158L74.3188 185.81L66.6543 176.694L68.0971 175.942L78.8219 182.158Z" fill="#595959"/>
<path d="M64.0281 176.797L63.3274 184.876L67.7282 185.535L64.7378 187.712L75.6352 207.11L80.0268 209.666L67.9761 175.513L64.0281 176.797Z" fill="#1B1425"/>
<path d="M78.4585 212.26L82.3608 206.552L86.5241 192.626L84.218 190.704H87.3479L86.976 178.094L84.0657 177.216L78.4585 212.26Z" fill="#1B1425"/>
<path d="M78.8218 182.158L82.6107 185.233L86.2074 178.176L83.7589 177.466L78.8218 182.158Z" fill="#595959"/>
<path d="M76.4912 184.016L77.0921 187.1H80.0572L81.0226 183.849L78.822 182.158L76.4912 184.016Z" fill="black"/>
<path d="M77.092 187.1L76.2258 198.894L79.2338 207.418L80.6253 198.719L80.0572 187.1H77.092Z" fill="black"/>
<path d="M425.336 128.186L407.463 126.823L400.624 143.393L386.9 121.09L382.919 114.618L382.915 114.614L382.681 114.235L381.252 111.913L380.92 111.374L372.075 97.002L378.582 93.0009L378.89 92.8098L383.106 90.2141L396.787 81.7947L399.34 85.9438L411.027 104.934L411.101 105.054L412.834 107.869L412.97 108.091L425.336 128.186Z" fill="url(#paint3_linear_1376_1665)"/>
<path d="M399.636 100.386L392.583 111.854L392.142 112.569L391.115 114.235L390.483 115.262L390.479 115.27L389.242 117.28L386.9 121.09L371.091 146.778L364.252 130.208L346.375 131.57L360.544 108.552L360.814 108.115L362.524 105.332L362.601 105.207L372.34 89.379L374.928 85.179L383.106 90.2142L384.281 90.9363L387.325 92.8099L387.415 92.8645L399.636 100.386Z" fill="url(#paint4_linear_1376_1665)"/>
<path opacity="0.35" d="M435.961 83.5825C434.212 87.2088 428.498 88.3603 426.011 91.4749C423.513 94.6016 423.654 100.425 420.523 102.923C418.158 104.816 414.321 104.446 411.026 104.933L411.101 105.054L412.834 107.869C411.522 107.982 410.336 108.146 409.5 108.548C408.458 109.051 407.287 110.328 406.151 111.561C404.238 113.642 402.072 115.999 398.922 116.714C398.313 116.854 397.669 116.925 397.009 116.925C394.699 116.925 392.552 116.089 390.479 115.27C390.448 115.258 390.413 115.242 390.381 115.231C388.699 114.563 387.11 113.935 385.857 113.935C385.007 113.935 384.003 114.224 382.918 114.618C382.403 114.805 381.872 115.016 381.33 115.231C379.226 116.062 377.051 116.925 374.702 116.925C374.046 116.925 373.402 116.855 372.789 116.714C369.643 116 367.473 113.642 365.56 111.562C364.428 110.328 363.257 109.052 362.215 108.548C361.821 108.357 361.345 108.221 360.814 108.115L362.523 105.332C358.928 104.216 354.018 105.183 351.188 102.923C348.061 100.425 348.198 94.6012 345.7 91.4749C343.213 88.3599 337.499 87.2085 335.75 83.5825C334.033 80.0186 336.671 74.839 335.774 70.8849C334.903 67.0597 330.258 63.5429 330.258 59.4523C330.258 55.3617 334.903 51.8484 335.774 48.0192C336.671 44.0691 334.033 38.8895 335.75 35.3216C337.499 31.6993 343.213 30.5439 345.7 27.4329C348.198 24.3022 348.061 18.4786 351.188 15.9805C354.303 13.494 359.943 14.9189 363.569 13.1702C367.137 11.4488 369.529 6.13259 373.484 5.23467C377.309 4.3642 381.766 8.09569 385.857 8.09569C389.948 8.09569 394.401 4.3642 398.23 5.23467C402.181 6.13259 404.577 11.4488 408.141 13.1702C411.767 14.9189 417.411 13.4943 420.522 15.9805C423.653 18.4786 423.512 24.3026 426.014 27.4329C428.497 30.5439 434.211 31.6993 435.96 35.3216C437.681 38.8895 435.039 44.0691 435.937 48.0192C436.807 51.8484 441.456 55.3613 441.456 59.4523C441.456 63.5429 436.807 67.0597 435.937 70.8849C435.04 74.839 437.682 80.0186 435.961 83.5825Z" fill="#999999"/>
<path d="M435.961 83.5825C434.212 87.2088 428.497 88.3603 426.011 91.4749C423.513 94.6016 423.654 100.425 420.523 102.923C418.158 104.816 414.321 104.446 411.026 104.933C409.992 105.082 409.008 105.32 408.142 105.738C404.578 107.459 402.182 112.771 398.231 113.669C396.319 114.102 394.246 113.392 392.142 112.568C390.038 111.745 387.903 110.812 385.857 110.812C384.355 110.812 382.801 111.315 381.251 111.912C378.578 112.931 375.904 114.219 373.484 113.669C369.53 112.771 367.137 107.459 363.569 105.738C363.238 105.577 362.886 105.445 362.523 105.332C358.928 104.216 354.018 105.183 351.188 102.923C348.061 100.425 348.198 94.6012 345.7 91.4749C343.213 88.3599 337.499 87.2085 335.75 83.5825C334.033 80.0186 336.671 74.839 335.774 70.885C334.903 67.0597 330.259 63.5429 330.259 59.4523C330.259 55.3617 334.904 51.8484 335.774 48.0192C336.672 44.0691 334.033 38.8895 335.75 35.3216C337.499 31.6993 343.213 30.5439 345.7 27.4329C348.198 24.3022 348.061 18.4786 351.188 15.9805C354.303 13.494 359.943 14.9189 363.569 13.1702C367.137 11.4488 369.529 6.13259 373.484 5.23467C377.309 4.3642 381.767 8.09569 385.857 8.09569C389.948 8.09569 394.402 4.3642 398.231 5.23467C402.181 6.13259 404.578 11.4488 408.141 13.1702C411.768 14.9189 417.412 13.4943 420.523 15.9805C423.653 18.4786 423.512 24.3026 426.015 27.4329C428.497 30.5439 434.212 31.6993 435.96 35.3216C437.682 38.8895 435.039 44.0691 435.937 48.0192C436.807 51.8484 441.456 55.3613 441.456 59.4523C441.456 63.5429 436.807 67.0597 435.937 70.885C435.04 74.839 437.682 80.0186 435.961 83.5825Z" fill="url(#paint5_linear_1376_1665)"/>
<path d="M385.856 102.951C409.879 102.951 429.354 83.4764 429.354 59.4534C429.354 35.4305 409.879 15.9561 385.856 15.9561C361.834 15.9561 342.359 35.4305 342.359 59.4534C342.359 83.4764 361.834 102.951 385.856 102.951Z" fill="#F9F9F9"/>
<path d="M367.088 55.3491V39.9491H371.444V55.3491H367.088ZM379.955 55.6571C378.693 55.6571 377.476 55.5031 376.303 55.1951C375.144 54.8725 374.198 54.4618 373.465 53.9631L374.895 50.7511C375.584 51.1911 376.376 51.5578 377.271 51.8511C378.18 52.1298 379.082 52.2691 379.977 52.2691C380.578 52.2691 381.062 52.2178 381.429 52.1151C381.795 51.9978 382.059 51.8511 382.221 51.6751C382.397 51.4845 382.485 51.2645 382.485 51.0151C382.485 50.6631 382.323 50.3845 382.001 50.1791C381.678 49.9738 381.26 49.8051 380.747 49.6731C380.233 49.5411 379.661 49.4091 379.031 49.2771C378.415 49.1451 377.791 48.9765 377.161 48.7711C376.545 48.5658 375.98 48.3018 375.467 47.9791C374.953 47.6418 374.535 47.2091 374.213 46.6811C373.89 46.1385 373.729 45.4565 373.729 44.6351C373.729 43.7111 373.978 42.8751 374.477 42.1271C374.99 41.3791 375.753 40.7778 376.765 40.3231C377.777 39.8685 379.038 39.6411 380.549 39.6411C381.561 39.6411 382.551 39.7585 383.519 39.9931C384.501 40.2131 385.374 40.5431 386.137 40.9831L384.795 44.2171C384.061 43.8211 383.335 43.5278 382.617 43.3371C381.898 43.1318 381.201 43.0291 380.527 43.0291C379.925 43.0291 379.441 43.0951 379.075 43.2271C378.708 43.3445 378.444 43.5058 378.283 43.7111C378.121 43.9165 378.041 44.1511 378.041 44.4151C378.041 44.7525 378.195 45.0238 378.503 45.2291C378.825 45.4198 379.243 45.5811 379.757 45.7131C380.285 45.8305 380.857 45.9551 381.473 46.0871C382.103 46.2191 382.727 46.3878 383.343 46.5931C383.973 46.7838 384.545 47.0478 385.059 47.3851C385.572 47.7078 385.983 48.1405 386.291 48.6831C386.613 49.2111 386.775 49.8785 386.775 50.6851C386.775 51.5798 386.518 52.4085 386.005 53.1711C385.506 53.9191 384.751 54.5205 383.739 54.9751C382.741 55.4298 381.48 55.6571 379.955 55.6571ZM396.553 55.6571C395.321 55.6571 394.184 55.4591 393.143 55.0631C392.102 54.6671 391.192 54.1098 390.415 53.3911C389.652 52.6578 389.058 51.8071 388.633 50.8391C388.208 49.8711 387.995 48.8078 387.995 47.6491C387.995 46.4905 388.208 45.4271 388.633 44.4591C389.058 43.4911 389.652 42.6478 390.415 41.9291C391.192 41.1958 392.102 40.6311 393.143 40.2351C394.184 39.8391 395.321 39.6411 396.553 39.6411C397.8 39.6411 398.936 39.8391 399.963 40.2351C401.004 40.6311 401.906 41.1958 402.669 41.9291C403.432 42.6478 404.026 43.4911 404.451 44.4591C404.891 45.4271 405.111 46.4905 405.111 47.6491C405.111 48.8078 404.891 49.8785 404.451 50.8611C404.026 51.8291 403.432 52.6725 402.669 53.3911C401.906 54.1098 401.004 54.6671 399.963 55.0631C398.936 55.4591 397.8 55.6571 396.553 55.6571ZM396.553 52.0491C397.14 52.0491 397.682 51.9465 398.181 51.7411C398.694 51.5358 399.134 51.2425 399.501 50.8611C399.882 50.4651 400.176 49.9958 400.381 49.4531C400.601 48.9105 400.711 48.3091 400.711 47.6491C400.711 46.9745 400.601 46.3731 400.381 45.8451C400.176 45.3025 399.882 44.8405 399.501 44.4591C399.134 44.0631 398.694 43.7625 398.181 43.5571C397.682 43.3518 397.14 43.2491 396.553 43.2491C395.966 43.2491 395.416 43.3518 394.903 43.5571C394.404 43.7625 393.964 44.0631 393.583 44.4591C393.216 44.8405 392.923 45.3025 392.703 45.8451C392.498 46.3731 392.395 46.9745 392.395 47.6491C392.395 48.3091 392.498 48.9105 392.703 49.4531C392.923 49.9958 393.216 50.4651 393.583 50.8611C393.964 51.2425 394.404 51.5358 394.903 51.7411C395.416 51.9465 395.966 52.0491 396.553 52.0491ZM358.054 82.3491V79.6211L363.818 74.2311C364.229 73.8498 364.53 73.5125 364.72 73.2191C364.926 72.9258 365.058 72.6618 365.116 72.4271C365.19 72.1778 365.226 71.9505 365.226 71.7451C365.226 71.2465 365.058 70.8578 364.72 70.5791C364.398 70.3005 363.906 70.1611 363.246 70.1611C362.689 70.1611 362.168 70.2858 361.684 70.5351C361.2 70.7845 360.804 71.1585 360.496 71.6571L357.262 69.8531C357.834 68.8851 358.663 68.1078 359.748 67.5211C360.834 66.9345 362.132 66.6411 363.642 66.6411C364.83 66.6411 365.872 66.8318 366.766 67.2131C367.661 67.5945 368.358 68.1371 368.856 68.8411C369.37 69.5451 369.626 70.3738 369.626 71.3271C369.626 71.8258 369.56 72.3245 369.428 72.8231C369.296 73.3071 369.04 73.8278 368.658 74.3851C368.292 74.9278 367.742 75.5365 367.008 76.2111L362.432 80.4351L361.706 78.8951H370.044V82.3491H358.054ZM373.644 82.3491L379.65 68.5551L380.816 70.4031H373.006L374.788 68.4011V72.7791H371.07V66.9491H383.83V69.6771L378.396 82.3491H373.644ZM391.581 82.6571C390.261 82.6571 389.088 82.3418 388.061 81.7111C387.049 81.0805 386.25 80.1711 385.663 78.9831C385.076 77.7951 384.783 76.3505 384.783 74.6491C384.783 72.9478 385.076 71.5031 385.663 70.3151C386.25 69.1271 387.049 68.2178 388.061 67.5871C389.088 66.9565 390.261 66.6411 391.581 66.6411C392.886 66.6411 394.045 66.9565 395.057 67.5871C396.084 68.2178 396.89 69.1271 397.477 70.3151C398.064 71.5031 398.357 72.9478 398.357 74.6491C398.357 76.3505 398.064 77.7951 397.477 78.9831C396.89 80.1711 396.084 81.0805 395.057 81.7111C394.045 82.3418 392.886 82.6571 391.581 82.6571ZM391.581 79.0931C392.05 79.0931 392.461 78.9465 392.813 78.6531C393.18 78.3598 393.466 77.8905 393.671 77.2451C393.876 76.5851 393.979 75.7198 393.979 74.6491C393.979 73.5638 393.876 72.6985 393.671 72.0531C393.466 71.4078 393.18 70.9385 392.813 70.6451C392.461 70.3518 392.05 70.2051 391.581 70.2051C391.112 70.2051 390.694 70.3518 390.327 70.6451C389.975 70.9385 389.689 71.4078 389.469 72.0531C389.264 72.6985 389.161 73.5638 389.161 74.6491C389.161 75.7198 389.264 76.5851 389.469 77.2451C389.689 77.8905 389.975 78.3598 390.327 78.6531C390.694 78.9465 391.112 79.0931 391.581 79.0931ZM406.642 82.6571C405.322 82.6571 404.148 82.3418 403.122 81.7111C402.11 81.0805 401.31 80.1711 400.724 78.9831C400.137 77.7951 399.844 76.3505 399.844 74.6491C399.844 72.9478 400.137 71.5031 400.724 70.3151C401.31 69.1271 402.11 68.2178 403.122 67.5871C404.148 66.9565 405.322 66.6411 406.642 66.6411C407.947 66.6411 409.106 66.9565 410.118 67.5871C411.144 68.2178 411.951 69.1271 412.538 70.3151C413.124 71.5031 413.418 72.9478 413.418 74.6491C413.418 76.3505 413.124 77.7951 412.538 78.9831C411.951 80.1711 411.144 81.0805 410.118 81.7111C409.106 82.3418 407.947 82.6571 406.642 82.6571ZM406.642 79.0931C407.111 79.0931 407.522 78.9465 407.874 78.6531C408.24 78.3598 408.526 77.8905 408.732 77.2451C408.937 76.5851 409.04 75.7198 409.04 74.6491C409.04 73.5638 408.937 72.6985 408.732 72.0531C408.526 71.4078 408.24 70.9385 407.874 70.6451C407.522 70.3518 407.111 70.2051 406.642 70.2051C406.172 70.2051 405.754 70.3518 405.388 70.6451C405.036 70.9385 404.75 71.4078 404.53 72.0531C404.324 72.6985 404.222 73.5638 404.222 74.6491C404.222 75.7198 404.324 76.5851 404.53 77.2451C404.75 77.8905 405.036 78.3598 405.388 78.6531C405.754 78.9465 406.172 79.0931 406.642 79.0931ZM384.234 109.349V95.5111L386.104 97.3151H381.374V93.9491H388.59V109.349H384.234Z" fill="#7103A4"/>
<path opacity="0.35" d="M380.152 115.691L385.218 123.823L386.9 121.09L382.915 114.614L380.152 115.691Z" fill="#999999"/>
<path d="M644 402.735H0V405.077H644V402.735Z" fill="#8FA1AA"/>
<path d="M171.511 158.719L142.275 206.441L145.996 208.72L175.232 160.999L171.511 158.719Z" fill="#2B4750"/>
<path d="M144.614 207.892L143.663 207.31C141.614 206.054 140.971 203.375 142.226 201.326L161.412 170.013C162.668 167.964 165.347 167.32 167.396 168.576L168.347 169.159C170.396 170.414 171.039 173.093 169.783 175.142L150.597 206.456C149.342 208.504 146.663 209.148 144.614 207.892Z" fill="#FF7000"/>
<g opacity="0.4">
<path d="M169.783 175.144L150.598 206.455C149.343 208.505 146.662 209.148 144.613 207.893L143.664 207.311C143.602 207.273 143.54 207.235 143.482 207.191C145.502 208.293 148.052 207.625 149.268 205.64L168.453 174.329C169.668 172.345 169.106 169.769 167.207 168.469C167.273 168.501 167.335 168.539 167.396 168.577L168.345 169.158C170.395 170.414 171.039 173.094 169.783 175.144Z" fill="#A7A9AC"/>
</g>
<path opacity="0.45" d="M209.668 156.068C221.297 144.439 221.297 125.584 209.668 113.955C198.038 102.326 179.184 102.326 167.554 113.955C155.925 125.584 155.925 144.439 167.554 156.068C179.184 167.697 198.038 167.697 209.668 156.068Z" fill="white"/>
<g opacity="0.35">
<path d="M177.623 116.926C177.437 116.812 177.278 116.648 177.168 116.443C176.835 115.823 177.068 115.052 177.688 114.72C184.901 110.85 193.703 111.093 200.659 115.356C201.259 115.723 201.446 116.507 201.079 117.106C200.713 117.705 199.929 117.893 199.329 117.526C193.142 113.735 185.31 113.519 178.891 116.963C178.478 117.184 177.996 117.154 177.623 116.926Z" fill="#BFDDE8"/>
</g>
<g opacity="0.35">
<path d="M170.258 123.396C170.232 123.38 170.206 123.362 170.181 123.344C169.609 122.935 169.478 122.14 169.888 121.568C171.004 120.012 172.31 118.6 173.771 117.373C174.309 116.92 175.111 116.991 175.564 117.528C176.016 118.066 175.946 118.869 175.408 119.321C174.11 120.412 172.949 121.667 171.957 123.051C171.565 123.597 170.822 123.741 170.258 123.396Z" fill="#BFDDE8"/>
</g>
<path d="M172.488 161.333C157.973 152.44 153.4 133.398 162.293 118.884C171.186 104.369 190.229 99.7963 204.743 108.689C219.257 117.582 223.83 136.625 214.937 151.139C206.044 165.653 187.002 170.226 172.488 161.333ZM203.603 110.549C190.115 102.285 172.418 106.535 164.154 120.023C155.889 133.511 160.139 151.208 173.628 159.473C187.116 167.737 204.813 163.487 213.077 149.999C221.342 136.511 217.092 118.814 203.603 110.549Z" fill="url(#paint6_linear_1376_1665)"/>
<path d="M155.807 174.908C156.472 174.537 157.227 174.308 157.988 174.319C158.75 174.329 159.517 174.59 160.085 175.098C160.358 175.342 160.587 175.65 160.673 176.006C160.759 176.362 160.684 176.769 160.424 177.027C159.98 177.467 159.237 177.332 158.655 177.558C157.754 177.909 157.904 178.676 157.701 179.411C157.461 180.282 156.807 181.297 156.214 181.969C154.904 183.452 153.01 184.005 151.854 185.612C151.523 185.2 149.02 183.033 149.15 182.594C149.23 182.323 150.545 181.638 151.033 181.103C151.976 180.069 152.869 178.988 153.706 177.865C154.082 177.36 155.24 175.225 155.807 174.908Z" fill="#FFB196"/>
<defs>
<linearGradient id="paint0_linear_1376_1665" x1="60.4712" y1="30.0759" x2="120.284" y2="30.0759" gradientUnits="userSpaceOnUse">
<stop stop-color="#F57A00"/>
<stop offset="1" stop-color="#7103A4"/>
</linearGradient>
<linearGradient id="paint1_linear_1376_1665" x1="79.071" y1="30.0749" x2="101.684" y2="30.0749" gradientUnits="userSpaceOnUse">
<stop stop-color="#F57A00"/>
<stop offset="1" stop-color="#7103A4"/>
</linearGradient>
<linearGradient id="paint2_linear_1376_1665" x1="147.839" y1="219.935" x2="374.967" y2="219.935" gradientUnits="userSpaceOnUse">
<stop stop-color="#F57A00"/>
<stop offset="1" stop-color="#7103A4"/>
</linearGradient>
<linearGradient id="paint3_linear_1376_1665" x1="372.075" y1="112.594" x2="425.336" y2="112.594" gradientUnits="userSpaceOnUse">
<stop stop-color="#F57A00"/>
<stop offset="1" stop-color="#7103A4"/>
</linearGradient>
<linearGradient id="paint4_linear_1376_1665" x1="346.375" y1="115.978" x2="399.636" y2="115.978" gradientUnits="userSpaceOnUse">
<stop stop-color="#F57A00"/>
<stop offset="1" stop-color="#7103A4"/>
</linearGradient>
<linearGradient id="paint5_linear_1376_1665" x1="330.259" y1="59.4514" x2="441.456" y2="59.4514" gradientUnits="userSpaceOnUse">
<stop stop-color="#F57A00"/>
<stop offset="1" stop-color="#7103A4"/>
</linearGradient>
<linearGradient id="paint6_linear_1376_1665" x1="157.753" y1="135.011" x2="219.477" y2="135.011" gradientUnits="userSpaceOnUse">
<stop stop-color="#F57A00"/>
<stop offset="1" stop-color="#7103A4"/>
</linearGradient>
</defs>
</svg>
