<svg width="550" height="571" viewBox="0 0 550 571" fill="none" xmlns="http://www.w3.org/2000/svg">
<path opacity="0.72" d="M373.497 345.759H57.5569C47.599 345.759 39.5266 337.687 39.5266 327.729V27.9013C39.5266 17.9425 47.599 9.87012 57.5569 9.87012H373.496C383.453 9.87012 391.526 17.9425 391.526 27.9013V327.73C391.526 337.687 383.455 345.759 373.497 345.759Z" fill="url(#paint0_linear_1379_4414)"/>
<path d="M496.718 549.401C496.718 561.227 460.113 570.812 414.957 570.812C369.803 570.812 333.198 561.227 333.198 549.401C333.198 537.576 369.803 527.989 414.957 527.989C460.113 527.989 496.718 537.576 496.718 549.401Z" fill="#A535C5"/>
<path d="M414.957 564.244C457.382 564.244 491.774 555.237 491.774 544.126C491.774 533.015 457.382 524.008 414.957 524.008C372.532 524.008 338.14 533.015 338.14 544.126C338.14 555.237 372.532 564.244 414.957 564.244Z" fill="#72ACFB"/>
<path d="M149.934 78.6704C149.934 95.8555 139.721 110.653 125.032 117.329C119.689 119.759 113.748 121.11 107.493 121.11C101.238 121.11 95.2969 119.759 89.953 117.329C75.2659 110.653 65.0532 95.8559 65.0532 78.6704C65.0532 55.2296 84.0525 36.2295 107.493 36.2295C130.935 36.2291 149.934 55.2296 149.934 78.6704Z" fill="url(#paint1_linear_1379_4414)"/>
<path d="M117.255 67.3807C117.255 72.7237 112.922 77.0568 107.577 77.0568C102.233 77.0568 97.9006 72.7242 97.9006 67.3807C97.9006 62.0355 102.233 57.7041 107.577 57.7041C112.922 57.7041 117.255 62.0355 117.255 67.3807Z" fill="url(#paint2_linear_1379_4414)"/>
<path d="M125.032 98.9256V117.329C119.689 119.759 113.748 121.11 107.493 121.11C101.238 121.11 95.2968 119.759 89.9529 117.329V98.9256C89.9529 89.2414 97.8029 81.3862 107.493 81.3862C117.183 81.3862 125.032 89.2414 125.032 98.9256Z" fill="url(#paint3_linear_1379_4414)"/>
<path d="M281.994 52.3229H179.529C176.564 52.3229 174.163 49.9218 174.163 46.9594C174.163 43.9965 176.564 41.5933 179.529 41.5933H281.994C284.956 41.5933 287.357 43.9965 287.357 46.9594C287.358 49.9218 284.956 52.3229 281.994 52.3229Z" fill="url(#paint4_linear_1379_4414)"/>
<path d="M266.997 76.2516H179.529C176.565 76.2516 174.163 73.8514 174.163 70.8872C174.163 67.9252 176.565 65.522 179.529 65.522H266.997C269.959 65.522 272.361 67.9248 272.361 70.8872C272.361 73.8514 269.959 76.2516 266.997 76.2516Z" fill="url(#paint5_linear_1379_4414)"/>
<path d="M326.649 100.181H179.529C176.565 100.181 174.163 97.7794 174.163 94.8165C174.163 91.8537 176.565 89.4521 179.529 89.4521H326.649C329.611 89.4521 332.013 91.8541 332.013 94.8165C332.013 97.7794 329.611 100.181 326.649 100.181Z" fill="url(#paint6_linear_1379_4414)"/>
<g opacity="0.52">
<path d="M73.7188 222.182L99.4156 196.485L109.213 206.283L137.336 178.16L159.051 199.875L167.911 191.017H186.727L214.7 163.04L237.272 185.612L257.279 165.608L268.147 176.474L321.63 122.989L365.242 166.602V222.182H73.7188Z" fill="url(#paint7_linear_1379_4414)"/>
</g>
<g opacity="0.64">
<path d="M125.713 222.182L144.366 203.529L158.537 217.699L176.368 199.868L184.143 207.643L211.771 180.018L226.838 195.083H244.37L255.145 184.31L261.53 190.696H270.268L274.552 186.41H284.393L306.793 164.012L316.441 173.662L365.121 124.982V222.182H125.713Z" fill="url(#paint8_linear_1379_4414)"/>
</g>
<g opacity="0.72">
<path opacity="0.72" d="M541.196 307.58H464.519C459.657 307.58 455.716 303.639 455.716 298.775V142.673C455.716 137.809 459.657 133.868 464.519 133.868H541.196C546.058 133.868 550 137.809 550 142.671V298.777C550 303.639 546.058 307.58 541.196 307.58Z" fill="url(#paint9_linear_1379_4414)"/>
</g>
<path d="M523.575 235.34H484.543C482.821 235.34 481.426 233.944 481.426 232.223V226.385C481.426 224.664 482.822 223.268 484.545 223.268H523.576C525.296 223.268 526.693 224.663 526.693 226.385V232.223C526.692 233.944 525.296 235.34 523.575 235.34Z" fill="black"/>
<path d="M523.575 257.941H484.543C482.821 257.941 481.426 256.545 481.426 254.824V248.986C481.426 247.265 482.821 245.87 484.543 245.87H523.575C525.296 245.87 526.693 247.266 526.693 248.987V254.824C526.692 256.545 525.296 257.941 523.575 257.941Z" fill="black"/>
<path d="M523.575 280.541H484.543C482.821 280.541 481.426 279.146 481.426 277.425V271.587C481.426 269.866 482.822 268.471 484.545 268.471H523.576C525.296 268.471 526.693 269.866 526.693 271.587V277.424C526.692 279.145 525.296 280.541 523.575 280.541Z" fill="black"/>
<path d="M527.134 167.647C523.465 157.388 513.659 151.086 503.327 151.397C500.827 151.473 498.293 151.935 495.808 152.823C488.281 155.516 482.883 161.512 480.666 168.594C479.129 173.503 479.119 178.935 480.985 184.151C481.171 184.67 481.372 185.18 481.588 185.679C482.571 187.941 483.857 189.984 485.387 191.779C491.799 199.318 502.442 202.505 512.313 198.975C525.057 194.416 531.692 180.391 527.134 167.647ZM510.247 193.199C502.847 195.847 494.867 193.459 490.06 187.806C488.913 186.459 487.948 184.926 487.211 183.232C487.051 182.858 486.898 182.476 486.76 182.086C485.359 178.175 485.367 174.103 486.519 170.424C488.182 165.113 492.229 160.617 497.872 158.599C499.735 157.933 501.634 157.586 503.511 157.529C511.258 157.294 518.609 162.02 521.36 169.711C524.777 179.267 519.803 189.782 510.247 193.199Z" fill="black"/>
<path d="M115.763 166.794H79.4776C77.0897 166.794 75.1543 164.858 75.1543 162.471V161.843C75.1543 159.456 77.0897 157.521 79.4763 157.521H115.764C118.152 157.521 120.087 159.456 120.087 161.843V162.47C120.087 164.857 118.151 166.794 115.763 166.794Z" fill="url(#paint10_linear_1379_4414)"/>
<path d="M192.308 143.14H156.018C153.632 143.14 151.697 141.205 151.697 138.818V138.191C151.697 135.803 153.632 133.868 156.02 133.868H192.306C194.694 133.868 196.629 135.804 196.629 138.191V138.818C196.629 141.206 194.695 143.14 192.308 143.14Z" fill="url(#paint11_linear_1379_4414)"/>
<path d="M273.571 146.583H237.283C234.896 146.583 232.961 144.648 232.961 142.261V141.631C232.961 139.245 234.895 137.311 237.282 137.311H273.572C275.959 137.311 277.893 139.245 277.893 141.632V142.259C277.893 144.647 275.959 146.583 273.571 146.583Z" fill="url(#paint12_linear_1379_4414)"/>
<path d="M135.026 253.595C120.988 246.953 104.753 250.484 94.6505 261.212C92.2055 263.81 90.119 266.829 88.5093 270.231C83.6362 280.53 84.2389 292.015 89.1423 301.388C92.5427 307.886 98.0061 313.37 105.145 316.746C105.854 317.084 106.573 317.394 107.293 317.678C110.56 318.967 113.918 319.729 117.271 319.999C131.333 321.134 145.271 313.621 151.662 300.113C159.914 282.672 152.465 261.847 135.026 253.595ZM143.76 296.372C138.968 306.501 128.519 312.133 117.975 311.284C115.464 311.08 112.946 310.511 110.496 309.542C109.955 309.33 109.418 309.097 108.885 308.846C103.533 306.313 99.4348 302.201 96.8873 297.33C93.212 290.302 92.7579 281.692 96.4127 273.97C97.6185 271.42 99.1834 269.157 101.016 267.21C108.588 259.165 120.761 256.518 131.287 261.497C144.362 267.683 149.946 283.297 143.76 296.372Z" fill="white"/>
<path d="M96.8867 297.33L89.1426 301.389C84.2392 292.015 83.6364 280.531 88.5095 270.232C90.1192 266.829 92.2057 263.81 94.6508 261.212L101.015 267.21C99.1828 269.157 97.618 271.42 96.4121 273.97C92.7573 281.692 93.2114 290.301 96.8867 297.33Z" fill="#EAAA60"/>
<path d="M110.495 309.541L107.293 317.678C106.573 317.394 105.855 317.083 105.146 316.746C98.0062 313.37 92.5432 307.886 89.1428 301.388L96.887 297.329C99.4349 302.2 103.532 306.312 108.884 308.845C109.417 309.096 109.955 309.33 110.495 309.541Z" fill="#EAAA60"/>
<path d="M351.927 163.833H334.014V168.659H351.927V163.833Z" fill="#7103A4"/>
<path d="M351.927 173.485H334.014V178.312H351.927V173.485Z" fill="#7103A4"/>
<path d="M351.927 183.14H334.014V187.966H351.927V183.14Z" fill="#7103A4"/>
<path opacity="0.72" d="M439.43 229.305H380.08C375.198 229.305 371.243 225.348 371.243 220.466V161.117C371.243 156.235 375.199 152.278 380.08 152.278H439.43C444.311 152.278 448.268 156.235 448.268 161.117V220.466C448.268 225.348 444.311 229.305 439.43 229.305Z" fill="url(#paint13_linear_1379_4414)"/>
<path d="M408.988 258.881C408.988 258.881 405.731 253.181 410.898 237.902C415.894 223.124 433.191 224.465 438.689 233.931C444.184 243.399 442.328 249.279 434.234 259.967C426.143 270.657 412.348 263.767 408.988 258.881Z" fill="#DBA585"/>
<path d="M449.163 521.755C449.163 521.755 450.019 528.03 450.127 528.972C450.232 529.917 459.647 528.417 459.647 528.417L460.41 520.949C460.41 520.949 450.34 520.87 449.163 521.755Z" fill="#DBA585"/>
<path d="M450.024 528.174C450.024 528.174 447.042 531.956 444.159 533.603C441.274 535.253 436.741 535.905 435.034 537.611C433.802 538.843 430.549 544.143 442.531 544.037C454.513 543.93 460.29 544.785 461.572 542.753C462.856 540.721 459.716 527.75 459.716 527.75C459.716 527.75 456.783 528.578 450.024 528.174Z" fill="#454971"/>
<path d="M383.979 521.755C383.979 521.755 384.834 528.03 384.941 528.972C385.05 529.917 394.463 528.417 394.463 528.417L395.227 520.949C395.227 520.949 385.156 520.87 383.979 521.755Z" fill="#DBA585"/>
<path d="M384.843 528.174C384.843 528.174 381.859 531.956 378.974 533.603C376.089 535.253 365.471 536.605 363.767 538.312C362.535 539.544 360.487 544.501 377.346 544.037C389.323 543.707 395.104 544.785 396.389 542.753C397.674 540.72 394.531 527.75 394.531 527.75C394.531 527.75 390.808 528.411 384.843 528.174Z" fill="#454971"/>
<path d="M445.995 365.514C445.995 365.514 450.82 380.513 450.185 393.439C449.55 406.365 452.682 420.513 453.963 434.014C455.389 449.068 461.229 484.707 461.442 492.76C461.654 500.813 460.535 526.526 460.535 526.526L448.843 526.809C448.843 526.809 439.024 464.504 436.481 458.146C433.938 451.79 421.327 406.468 420.904 401.382C420.48 396.295 445.995 365.514 445.995 365.514Z" fill="#32344F"/>
<path d="M397.521 363.95C397.521 363.95 390.423 403.611 389.575 411.522C388.729 419.435 388.164 449.811 387.739 454.756C387.316 459.7 384.914 519.462 382.653 526.808H395.689C395.689 526.808 409.072 483.364 409.072 462.808C409.072 442.253 417.938 418.12 423.659 404.559C429.38 390.997 442.478 390.677 445.995 365.513C445.995 365.513 402.283 355.969 397.521 363.95Z" fill="#32344F"/>
<path d="M413.718 262.914C413.718 262.914 415.188 267.195 413.718 270.248C412.246 273.302 432.506 271.468 432.506 271.468C432.506 271.468 431.59 265.157 434.235 259.966C436.883 254.775 413.718 262.914 413.718 262.914Z" fill="#DBA585"/>
<path d="M446.934 368.781C446.934 368.781 439.648 376.264 396.87 367.616L397.521 363.95L446.153 365.78L446.934 368.781Z" fill="#343D57"/>
<path d="M410.652 271.241C410.652 271.241 403.17 272.003 401.031 272.411C398.894 272.818 384.504 269.837 381.553 269.531C378.599 269.227 366.012 260.601 365.604 259.584C365.196 258.565 357.946 240.207 357.539 236.236C357.131 232.265 350.476 234.316 351.047 237.052C352.113 242.169 353.485 254.592 354.237 258.192C355.047 262.08 357.222 270.885 358.445 271.97C359.667 273.053 371 281.674 382.095 285.34C393.192 289.005 401.545 294.4 401.545 294.4H456.23C456.23 294.4 477.501 263.996 477.96 259.415C478.418 254.834 463.103 224.387 460.046 220.57C456.993 216.751 452.577 221.815 452.577 221.815C452.577 221.815 461.728 248.665 462.949 252.483C464.171 256.299 452.305 273.073 449.047 273.124C445.789 273.172 437.424 272.104 433.71 271.954C429.994 271.801 426.074 270.17 426.074 270.17L410.652 271.241Z" fill="#DBA585"/>
<path d="M387.084 291.552C387.084 291.552 393.779 296 394.39 303.634C395.001 311.27 397.444 323.334 398.664 327.457C399.886 331.578 397.596 361.509 397.29 363.644C396.985 365.782 439.606 370.861 446.153 365.782C446.153 365.782 447.985 337.838 448.748 329.899C449.513 321.958 453.177 302.72 454.398 300.124C455.619 297.528 470.431 276.752 471.042 274.013C471.042 274.013 463.378 261.796 457.883 261.643C457.883 261.643 449.152 271.875 446.306 272.333C443.459 272.792 426.012 269.593 426.008 269.567C426.008 269.567 424.104 272.16 413.981 269.106C413.981 269.106 401.923 270.467 399.963 270.716C397.586 271.02 381.078 268.644 381.078 268.644C381.078 268.644 374.454 279.828 375.614 285.475L387.084 291.552Z" fill="#A535C5"/>
<path d="M357.922 238.622C357.922 238.622 356.427 231.546 358.227 229.514C359.25 228.358 361.714 225.295 361.939 224.844C362.163 224.394 364.807 222.876 364.807 222.146C364.807 221.414 362.22 220.514 359.97 222.595C357.72 224.676 356.314 225.126 355.415 224.902C354.515 224.677 353.22 217.196 353.109 215.338C352.996 213.484 352.279 208.589 351.118 208.927C349.958 209.264 350.014 211.401 350.014 211.401C350.014 211.401 348.664 207.688 347.764 208.419C346.865 209.152 346.977 210.952 346.977 210.952C346.977 210.952 345.29 208.871 344.839 210.389C344.389 211.908 344.839 213.258 344.839 213.258C344.839 213.258 343.096 212.301 342.984 214.664C342.87 217.026 343.491 223.945 344.727 226.419C345.965 228.894 350.596 235.369 351.15 237.898C351.701 240.426 357.922 238.622 357.922 238.622Z" fill="#DBA585"/>
<path d="M454.068 226.193C454.068 226.193 448.98 217.642 447.25 216.878C445.52 216.115 443.075 215.682 440.938 214.154C438.8 212.628 435.975 211.355 436.129 210.846C436.28 210.337 438.8 210.54 441.498 211.71C444.197 212.881 445.379 212.315 445.634 211.705C445.889 211.094 444.197 206.783 443.381 205.764C442.567 204.746 436.765 198.909 437.731 198.045C438.698 197.18 442.465 200.386 443.075 201.047C443.075 201.047 440.072 194.736 441.244 194.43C442.415 194.124 444.603 196.365 444.603 196.365C444.603 196.365 444.349 190.969 450.151 199.724C450.151 199.724 448.93 196.823 450.712 197.791C452.493 198.758 454.225 204.203 454.783 206.951C455.343 209.699 457.882 218.457 460.047 220.569C462.214 222.681 454.068 226.193 454.068 226.193Z" fill="#DBA585"/>
<path d="M434.235 259.967C434.235 259.967 431.555 260.203 425.853 258.235C420.153 256.267 419.727 246.298 418.495 247.479C415.979 249.889 413.604 248.225 412.653 246.801C412.653 246.801 415.436 243.135 414.147 241.371C412.856 239.607 410.758 238.32 410.758 238.32C410.758 238.32 414.768 218.994 433.014 227.797C454.393 238.112 434.235 259.967 434.235 259.967Z" fill="#0D0D0D"/>
<path d="M413.718 270.248L414.361 267.455C414.361 267.455 426.006 267.218 432.361 268.138L433.029 271.48C433.029 271.48 424.894 275.17 413.718 270.248Z" fill="#D3D6E6"/>
<path d="M416.59 245.035C417.648 243.277 421.56 242.092 422.02 247.071C422.375 250.931 415.028 255.147 414.962 251.55C414.893 247.955 415.885 246.205 416.59 245.035Z" fill="#DBA585"/>
<path d="M357.666 237.017C357.666 237.017 353.443 237.118 351.405 238.961C351.405 238.961 351.271 240.128 351.745 241.051C351.745 241.051 355.387 239.352 358.18 239.033C358.18 239.033 358.155 237.505 357.666 237.017Z" fill="#C75454"/>
<path d="M352.69 238.063C352.303 238.982 352.734 240.042 353.652 240.43C354.573 240.819 355.631 240.388 356.019 239.469C356.409 238.548 355.977 237.488 355.058 237.101C354.139 236.712 353.079 237.143 352.69 238.063Z" fill="#393D3F"/>
<path d="M435.618 181.542C431.506 170.044 420.516 162.982 408.934 163.33C406.13 163.414 403.292 163.932 400.508 164.927C392.07 167.946 386.021 174.666 383.535 182.604C381.813 188.106 381.803 194.193 383.895 200.04C384.102 200.62 384.328 201.192 384.57 201.752C385.67 204.285 387.113 206.576 388.828 208.59C396.015 217.038 407.941 220.609 419.004 216.655C433.289 211.545 440.726 195.825 435.618 181.542ZM416.69 210.18C408.395 213.148 399.454 210.47 394.064 204.136C392.781 202.626 391.697 200.909 390.874 199.008C390.691 198.589 390.522 198.16 390.364 197.724C388.798 193.341 388.807 188.777 390.097 184.654C391.961 178.7 396.495 173.662 402.822 171.401C404.909 170.653 407.038 170.264 409.14 170.202C417.821 169.94 426.062 175.234 429.146 183.855C432.975 194.563 427.399 206.351 416.69 210.18Z" fill="white"/>
<path d="M390.097 184.654L383.535 182.604C386.021 174.666 392.07 167.946 400.507 164.927C403.292 163.932 406.13 163.414 408.934 163.33L409.139 170.201C407.037 170.264 404.908 170.653 402.821 171.401C396.495 173.662 391.962 178.699 390.097 184.654Z" fill="#F57A00"/>
<path d="M390.874 199.008L384.57 201.752C384.328 201.192 384.102 200.621 383.894 200.04C381.803 194.193 381.813 188.106 383.535 182.604L390.097 184.654C388.807 188.777 388.798 193.341 390.364 197.724C390.522 198.159 390.692 198.589 390.874 199.008Z" fill="#A535C5"/>
<path d="M388.828 208.59C387.114 206.576 385.67 204.285 384.57 201.752L390.875 199.007C391.697 200.908 392.782 202.625 394.064 204.135L388.828 208.59Z" fill="#F57A00"/>
<path opacity="0.72" d="M328.218 367.824H235.972C227.755 367.824 221.096 361.165 221.096 352.949V260.704C221.096 252.49 227.755 245.83 235.97 245.83H328.216C336.431 245.83 343.092 252.49 343.092 260.705V352.95C343.091 361.165 336.432 367.824 328.218 367.824Z" fill="url(#paint14_linear_1379_4414)"/>
<path d="M234.486 278.975H233.998V341.653H234.486V278.975Z" fill="#7ECBE5"/>
<path d="M258.249 278.975H257.76V341.653H258.249V278.975Z" fill="#7ECBE5"/>
<path d="M282.01 278.975H281.521V341.653H282.01V278.975Z" fill="#7ECBE5"/>
<path d="M305.771 278.975H305.282V341.653H305.771V278.975Z" fill="#7ECBE5"/>
<path d="M329.532 278.975H329.043V341.653H329.532V278.975Z" fill="#7ECBE5"/>
<path d="M234.242 316.238C234.242 316.238 243.05 321.575 252.408 311.919C261.766 302.261 271.857 294.637 281.399 302.77C290.939 310.902 296.811 312.934 306.353 303.786C315.893 294.637 315.161 283.457 329.288 283.457V341.653H234.242V316.238Z" fill="url(#paint15_linear_1379_4414)"/>
<path d="M243.663 273.755H234.242V276.037H243.663V273.755Z" fill="#9AD4E6"/>
<path d="M263.908 273.755H258.003V276.037H263.908V273.755Z" fill="#9AD4E6"/>
<path d="M289.042 273.755H281.764V276.037H289.042V273.755Z" fill="#9AD4E6"/>
<path d="M316.742 273.755H305.527V276.037H316.742V273.755Z" fill="#9AD4E6"/>
<path d="M333.198 273.755H329.288V276.037H333.198V273.755Z" fill="#9AD4E6"/>
<path opacity="0.72" d="M281.521 350.364H234.486V355.855H281.521V350.364Z" fill="url(#paint16_linear_1379_4414)"/>
<path d="M210.114 353.609H9.88989V223.818H25.9028V121.11H26.9025V224.817H10.8883V352.611H210.114V353.609Z" fill="#B7C5FA"/>
<path d="M0.769531 171.848H52.0354V209.007V216.832L44.2093 209.007H0.769531V171.848Z" fill="#7103A4"/>
<path d="M436.123 139.003H400.683V1.5209H338.141V0.522461H401.681V138.004H436.123V139.003Z" fill="#B7C5FA"/>
<path d="M206.381 302.106H169.741V308.597H206.381V302.106Z" fill="url(#paint17_linear_1379_4414)"/>
<path d="M206.381 290.84H169.741V297.329H206.381V290.84Z" fill="url(#paint18_linear_1379_4414)"/>
<path d="M206.381 279.573H169.741V286.065H206.381V279.573Z" fill="url(#paint19_linear_1379_4414)"/>
<path opacity="0.72" d="M338.141 450.972V543.439C338.141 554.548 372.532 563.556 414.957 563.556C457.384 563.556 491.775 554.548 491.775 543.439V450.972H338.141Z" fill="url(#paint20_linear_1379_4414)"/>
<path d="M86.623 230.071C86.623 230.071 67.146 237.922 57.4404 241.523C57.4404 241.523 58.0641 243.745 59.7971 244.404C59.7971 244.404 74.88 239.12 87.7815 233.026C87.7815 233.026 87.557 231.002 86.623 230.071Z" fill="url(#paint21_linear_1379_4414)"/>
<path d="M85.8 229.025C85.8 229.025 88.6626 227.845 89.101 228.85C89.5407 229.855 93.3726 236.542 89.2431 238.219C89.2431 238.219 86.0079 231.723 85.8 229.025Z" fill="url(#paint22_linear_1379_4414)"/>
<defs>
<linearGradient id="paint0_linear_1379_4414" x1="39.5266" y1="177.813" x2="391.526" y2="177.813" gradientUnits="userSpaceOnUse">
<stop stop-color="#F57A00"/>
<stop offset="1" stop-color="#7103A4"/>
</linearGradient>
<linearGradient id="paint1_linear_1379_4414" x1="65.0535" y1="78.6696" x2="149.934" y2="78.6696" gradientUnits="userSpaceOnUse">
<stop stop-color="#D7E2FD"/>
<stop offset="1" stop-color="#F1FFFD"/>
</linearGradient>
<linearGradient id="paint2_linear_1379_4414" x1="97.9006" y1="67.3804" x2="117.255" y2="67.3804" gradientUnits="userSpaceOnUse">
<stop stop-color="#F57A00"/>
<stop offset="1" stop-color="#7103A4"/>
</linearGradient>
<linearGradient id="paint3_linear_1379_4414" x1="89.9529" y1="101.248" x2="125.032" y2="101.248" gradientUnits="userSpaceOnUse">
<stop stop-color="#F57A00"/>
<stop offset="1" stop-color="#7103A4"/>
</linearGradient>
<linearGradient id="paint4_linear_1379_4414" x1="174.163" y1="46.9578" x2="287.358" y2="46.9578" gradientUnits="userSpaceOnUse">
<stop stop-color="#D7E2FD"/>
<stop offset="1" stop-color="#F1FFFD"/>
</linearGradient>
<linearGradient id="paint5_linear_1379_4414" x1="174.163" y1="70.8868" x2="272.361" y2="70.8868" gradientUnits="userSpaceOnUse">
<stop stop-color="#D7E2FD"/>
<stop offset="1" stop-color="#F1FFFD"/>
</linearGradient>
<linearGradient id="paint6_linear_1379_4414" x1="174.163" y1="94.8161" x2="332.013" y2="94.8161" gradientUnits="userSpaceOnUse">
<stop stop-color="#D7E2FD"/>
<stop offset="1" stop-color="#F1FFFD"/>
</linearGradient>
<linearGradient id="paint7_linear_1379_4414" x1="73.7189" y1="172.585" x2="365.242" y2="172.585" gradientUnits="userSpaceOnUse">
<stop stop-color="#D7E2FD"/>
<stop offset="1" stop-color="#F1FFFD"/>
</linearGradient>
<linearGradient id="paint8_linear_1379_4414" x1="125.713" y1="173.582" x2="365.121" y2="173.582" gradientUnits="userSpaceOnUse">
<stop stop-color="#D7E2FD"/>
<stop offset="1" stop-color="#F1FFFD"/>
</linearGradient>
<linearGradient id="paint9_linear_1379_4414" x1="455.716" y1="220.723" x2="550" y2="220.723" gradientUnits="userSpaceOnUse">
<stop stop-color="#F57A00"/>
<stop offset="1" stop-color="#7103A4"/>
</linearGradient>
<linearGradient id="paint10_linear_1379_4414" x1="75.1542" y1="162.157" x2="120.087" y2="162.157" gradientUnits="userSpaceOnUse">
<stop stop-color="#D7E2FD"/>
<stop offset="1" stop-color="#F1FFFD"/>
</linearGradient>
<linearGradient id="paint11_linear_1379_4414" x1="151.697" y1="138.504" x2="196.629" y2="138.504" gradientUnits="userSpaceOnUse">
<stop stop-color="#D7E2FD"/>
<stop offset="1" stop-color="#F1FFFD"/>
</linearGradient>
<linearGradient id="paint12_linear_1379_4414" x1="232.962" y1="141.947" x2="277.893" y2="141.947" gradientUnits="userSpaceOnUse">
<stop stop-color="#D7E2FD"/>
<stop offset="1" stop-color="#F1FFFD"/>
</linearGradient>
<linearGradient id="paint13_linear_1379_4414" x1="371.243" y1="190.791" x2="448.268" y2="190.791" gradientUnits="userSpaceOnUse">
<stop stop-color="#F57A00"/>
<stop offset="1" stop-color="#7103A4"/>
</linearGradient>
<linearGradient id="paint14_linear_1379_4414" x1="221.096" y1="306.827" x2="343.092" y2="306.827" gradientUnits="userSpaceOnUse">
<stop stop-color="#F57A00"/>
<stop offset="1" stop-color="#7103A4"/>
</linearGradient>
<linearGradient id="paint15_linear_1379_4414" x1="234.242" y1="312.554" x2="329.288" y2="312.554" gradientUnits="userSpaceOnUse">
<stop stop-color="#D7E2FD"/>
<stop offset="1" stop-color="#F1FFFD"/>
</linearGradient>
<linearGradient id="paint16_linear_1379_4414" x1="234.486" y1="353.11" x2="281.521" y2="353.11" gradientUnits="userSpaceOnUse">
<stop stop-color="#7ECBE3"/>
<stop offset="0.2021" stop-color="#7ECBE3"/>
<stop offset="1" stop-color="#6076FA"/>
</linearGradient>
<linearGradient id="paint17_linear_1379_4414" x1="169.741" y1="305.352" x2="206.381" y2="305.352" gradientUnits="userSpaceOnUse">
<stop stop-color="#D7E2FD"/>
<stop offset="1" stop-color="#F1FFFD"/>
</linearGradient>
<linearGradient id="paint18_linear_1379_4414" x1="169.741" y1="294.084" x2="206.381" y2="294.084" gradientUnits="userSpaceOnUse">
<stop stop-color="#D7E2FD"/>
<stop offset="1" stop-color="#F1FFFD"/>
</linearGradient>
<linearGradient id="paint19_linear_1379_4414" x1="169.741" y1="282.819" x2="206.381" y2="282.819" gradientUnits="userSpaceOnUse">
<stop stop-color="#D7E2FD"/>
<stop offset="1" stop-color="#F1FFFD"/>
</linearGradient>
<linearGradient id="paint20_linear_1379_4414" x1="429.23" y1="530.634" x2="421.335" y2="451.767" gradientUnits="userSpaceOnUse">
<stop offset="0.153846" stop-color="#7103A4"/>
<stop offset="1" stop-opacity="0"/>
</linearGradient>
<linearGradient id="paint21_linear_1379_4414" x1="-912.084" y1="667.454" x2="-898.899" y2="661.695" gradientUnits="userSpaceOnUse">
<stop stop-color="#343556"/>
<stop offset="1" stop-color="#373D7A"/>
</linearGradient>
<linearGradient id="paint22_linear_1379_4414" x1="-911.03" y1="669.807" x2="-897.847" y2="664.048" gradientUnits="userSpaceOnUse">
<stop stop-color="#343556"/>
<stop offset="1" stop-color="#373D7A"/>
</linearGradient>
</defs>
</svg>
