<svg width="602" height="557" viewBox="0 0 602 557" fill="none" xmlns="http://www.w3.org/2000/svg">
<path opacity="0.8" d="M364.186 384.413L243.716 456.816C232.78 463.414 219.24 463.241 208.478 456.296L30.3777 342.743V184.22L31.94 183.525C44.7854 177.275 59.8875 178.143 72.0386 185.782L364.533 370.002C369.74 373.301 369.567 381.114 364.186 384.413Z" fill="url(#paint0_linear_1372_974)"/>
<g opacity="0.3">
<path d="M293.709 11.4595C295.271 10.4177 295.271 8.16055 293.709 7.29241L282.079 0.520899C280.864 -0.173615 279.301 -0.173615 277.566 0.868155L138.696 81.0845C134.877 83.3417 131.752 89.245 131.752 94.4539V392.227C131.752 394.831 132.62 396.741 134.009 397.783C134.183 397.956 134.356 397.956 134.53 397.956L146.334 404.728C147.896 405.596 149.806 404.554 149.806 402.818V391.185L277.739 317.219C281.558 314.962 284.683 309.059 284.683 303.85V17.1892L293.709 11.4595Z" fill="#121C24"/>
<path d="M150.5 404.381L289.196 324.164C293.015 321.907 296.139 316.004 296.139 310.795V13.0221C296.139 7.81327 293.015 5.5561 289.196 7.81327L150.5 88.0296C146.681 90.2868 143.556 96.1901 143.556 101.399V399.172C143.556 404.207 146.681 406.464 150.5 404.381Z" fill="white"/>
<path d="M291.105 13.0222V310.795C291.105 314.441 288.675 318.435 286.766 319.65L148.764 399.519C148.764 399.345 148.764 399.172 148.764 398.998V101.225C148.764 97.5792 151.194 93.5858 153.104 92.3704L204.833 62.5063C207.957 60.77 211.602 61.1173 214.727 62.6799C216.116 63.3744 217.852 63.2008 219.935 62.159C223.059 60.2491 225.837 56.4293 226.878 52.6095C227.572 50.3523 229.135 48.4424 231.218 47.227L291.105 12.6749C291.105 12.6749 291.105 12.8486 291.105 13.0222Z" fill="url(#paint1_linear_1372_974)"/>
<path d="M222.191 53.9984C222.191 55.3874 221.15 57.2973 219.935 57.9919C218.719 58.6864 217.678 58.1655 217.678 56.6028C217.678 55.2138 218.719 53.3039 219.935 52.6094C221.15 51.9149 222.191 52.6094 222.191 53.9984Z" fill="#121C24"/>
<path d="M291.105 13.0222V250.72C276.698 259.227 260.728 263.915 244.063 263.915C205.701 263.915 171.33 238.913 148.59 199.673V101.225C148.59 97.5792 151.021 93.5858 152.93 92.3704L204.833 62.5063C207.957 60.77 211.602 61.1173 214.727 62.6799C216.116 63.3744 217.852 63.2008 219.935 62.159C223.059 60.2491 225.837 56.4293 226.878 52.6095C227.572 50.3523 229.135 48.4424 231.218 47.227L291.105 12.6749C291.105 12.6749 291.105 12.8486 291.105 13.0222Z" fill="#F57A00"/>
</g>
<path d="M290.932 394.484L441.605 481.472" stroke="white" stroke-width="1.0531" stroke-miterlimit="10"/>
<path d="M358.284 50.005C359.846 48.9633 359.846 46.7061 358.284 45.8379L346.653 39.0664C345.438 38.3719 343.876 38.3719 342.14 39.4137L203.097 119.456C199.278 121.714 196.153 127.617 196.153 132.826V430.599C196.153 433.203 197.021 435.113 198.41 436.155C198.584 436.328 198.757 436.328 198.931 436.328L210.735 443.1C212.297 443.968 214.206 442.926 214.206 441.19V429.557L342.14 355.591C345.959 353.334 349.084 347.431 349.084 342.222V55.7348L358.284 50.005Z" fill="#121C24"/>
<path d="M215.074 442.753L353.77 362.536C357.589 360.279 360.714 354.376 360.714 349.167V51.3941C360.714 46.1852 357.589 43.928 353.77 46.1852L215.074 126.402C211.255 128.659 208.131 134.562 208.131 139.771V437.544C208.131 442.579 211.082 445.01 215.074 442.753Z" fill="#3E4F9A"/>
<path d="M355.68 51.394V349.167C355.68 352.813 353.25 356.806 351.34 358.022L213.338 437.891C213.338 437.717 213.338 437.544 213.338 437.37V139.771C213.338 136.125 215.769 132.131 217.678 130.916L269.407 101.052C272.532 99.3155 276.177 99.6627 279.301 101.225C280.69 101.92 282.6 101.746 284.509 100.704C287.634 98.7946 290.411 94.9747 291.453 91.1549C292.147 88.8978 293.709 86.9878 295.792 85.7724L355.68 51.0468C355.68 51.0468 355.68 51.2204 355.68 51.394Z" fill="url(#paint2_linear_1372_974)" fill-opacity="0.8"/>
<path d="M286.592 92.3704C286.592 93.7594 285.551 95.6693 284.335 96.3638C283.12 97.0583 282.079 96.5374 282.079 94.9748C282.079 93.5858 283.12 91.6759 284.335 90.9813C285.724 90.4605 286.592 90.9813 286.592 92.3704Z" fill="#121C24"/>
<path d="M355.68 51.3941V289.091C341.272 297.599 325.302 302.287 308.638 302.287C270.275 302.287 235.905 277.285 213.165 238.045V139.771C213.165 136.125 215.595 132.131 217.504 130.916L269.233 101.052C272.358 99.3156 276.003 99.6628 279.128 101.225C280.517 101.92 282.252 101.746 284.336 100.705C287.46 98.7947 290.237 94.9748 291.279 91.155C291.973 88.8979 293.536 86.9879 295.619 85.7725L355.506 51.2205C355.68 51.0469 355.68 51.2205 355.68 51.3941Z" fill="url(#paint3_linear_1372_974)"/>
<path d="M456.36 513.94C476.205 513.94 492.293 504.69 492.293 493.278C492.293 481.867 476.205 472.617 456.36 472.617C436.515 472.617 420.428 481.867 420.428 493.278C420.428 504.69 436.515 513.94 456.36 513.94Z" fill="url(#paint4_linear_1372_974)"/>
<path d="M377.899 443.447C373.906 445.704 367.657 445.704 363.665 443.447C359.672 441.19 359.672 437.544 363.665 435.287C367.657 433.029 373.906 433.029 377.899 435.287C381.718 437.544 381.718 441.19 377.899 443.447Z" fill="url(#paint5_linear_1372_974)"/>
<path d="M421.643 109.039C423.752 109.039 425.462 107.328 425.462 105.219C425.462 103.109 423.752 101.399 421.643 101.399C419.534 101.399 417.824 103.109 417.824 105.219C417.824 107.328 419.534 109.039 421.643 109.039Z" fill="white"/>
<path d="M166.991 168.072C169.1 168.072 170.81 166.362 170.81 164.253C170.81 162.143 169.1 160.433 166.991 160.433C164.882 160.433 163.172 162.143 163.172 164.253C163.172 166.362 164.882 168.072 166.991 168.072Z" fill="white"/>
<path d="M181.572 303.676C183.681 303.676 185.391 301.966 185.391 299.856C185.391 297.747 183.681 296.036 181.572 296.036C179.463 296.036 177.753 297.747 177.753 299.856C177.753 301.966 179.463 303.676 181.572 303.676Z" fill="white"/>
<path d="M60.5819 291.522C62.691 291.522 64.4008 289.812 64.4008 287.702C64.4008 285.593 62.691 283.883 60.5819 283.883C58.4727 283.883 56.7629 285.593 56.7629 287.702C56.7629 289.812 58.4727 291.522 60.5819 291.522Z" fill="white"/>
<path d="M89.2237 463.762C91.3328 463.762 93.0426 462.051 93.0426 459.942C93.0426 457.832 91.3328 456.122 89.2237 456.122C87.1146 456.122 85.4048 457.832 85.4048 459.942C85.4048 462.051 87.1146 463.762 89.2237 463.762Z" fill="white"/>
<path d="M438.307 118.936C438.307 120.325 437.266 121.366 435.877 121.366C434.488 121.366 433.447 120.325 433.447 118.936C433.447 117.547 434.488 116.505 435.877 116.505C437.266 116.331 438.307 117.547 438.307 118.936Z" fill="white"/>
<path d="M181.572 171.545C181.572 172.934 180.531 173.976 179.142 173.976C177.753 173.976 176.712 172.934 176.712 171.545C176.712 170.156 177.753 169.114 179.142 169.114C180.531 169.114 181.572 170.156 181.572 171.545Z" fill="white"/>
<path d="M77.0726 259.922C77.0726 261.311 76.0311 262.353 74.6424 262.353C73.2537 262.353 72.2122 261.311 72.2122 259.922C72.2122 258.533 73.2537 257.491 74.6424 257.491C76.0311 257.491 77.0726 258.533 77.0726 259.922Z" fill="white"/>
<path d="M174.802 329.894C174.802 331.283 173.761 332.325 172.372 332.325C170.983 332.325 169.942 331.283 169.942 329.894C169.942 328.505 170.983 327.463 172.372 327.463C173.761 327.463 174.802 328.679 174.802 329.894Z" fill="white"/>
<path d="M184.176 338.749C184.176 340.138 183.134 341.18 181.746 341.18C180.357 341.18 179.315 340.138 179.315 338.749C179.315 337.36 180.357 336.318 181.746 336.318C182.961 336.145 184.176 337.36 184.176 338.749Z" fill="white"/>
<path d="M81.9332 448.656C81.9332 450.045 80.8917 451.087 79.503 451.087C78.1143 451.087 77.0728 450.045 77.0728 448.656C77.0728 447.267 78.1143 446.225 79.503 446.225C80.8917 446.225 81.9332 447.44 81.9332 448.656Z" fill="white"/>
<path d="M157.443 443.794C157.443 445.183 156.402 446.225 155.013 446.225C153.625 446.225 152.583 445.183 152.583 443.794C152.583 442.405 153.625 441.364 155.013 441.364C156.228 441.364 157.443 442.405 157.443 443.794Z" fill="white"/>
<path d="M113.005 169.114C113.005 170.503 111.964 171.545 110.575 171.545C109.186 171.545 108.145 170.503 108.145 169.114C108.145 167.725 109.186 166.683 110.575 166.683C111.964 166.683 113.005 167.725 113.005 169.114Z" fill="white"/>
<path d="M383.28 355.938C383.28 357.327 382.239 358.369 380.85 358.369C379.461 358.369 378.42 357.327 378.42 355.938C378.42 354.549 379.461 353.508 380.85 353.508C382.065 353.508 383.28 354.549 383.28 355.938Z" fill="white"/>
<path d="M396.299 336.145C396.299 337.534 395.258 338.575 393.869 338.575C392.48 338.575 391.439 337.534 391.439 336.145C391.439 334.756 392.48 333.714 393.869 333.714C395.258 333.714 396.299 334.756 396.299 336.145Z" fill="white"/>
<path d="M346.306 347.257C346.306 348.646 345.265 349.688 343.876 349.688C342.487 349.688 341.446 348.646 341.446 347.257C341.446 345.868 342.487 344.826 343.876 344.826C345.265 344.653 346.306 345.868 346.306 347.257Z" fill="white"/>
<path d="M420.428 147.932C420.428 149.321 419.386 150.362 417.998 150.362C416.609 150.362 415.567 149.321 415.567 147.932C415.567 146.542 416.609 145.501 417.998 145.501C419.386 145.501 420.428 146.716 420.428 147.932Z" fill="white"/>
<path opacity="0.8" d="M155.881 186.477L99.8126 218.945C96.8616 220.682 94.9521 223.807 94.9521 227.28V314.441C94.9521 318.261 98.9447 320.518 102.243 318.608L158.311 286.14C161.262 284.403 163.172 281.278 163.172 277.806V190.644C163.172 186.998 159.179 184.567 155.881 186.477Z" fill="url(#paint6_linear_1372_974)"/>
<path opacity="0.8" d="M155.881 326.769L99.8126 359.237C96.8616 360.974 94.9521 364.099 94.9521 367.571V441.884C94.9521 445.704 98.9447 447.961 102.243 446.051L158.311 413.583C161.262 411.847 163.172 408.721 163.172 405.249V330.936C163.172 327.29 159.179 324.859 155.881 326.769Z" fill="url(#paint7_linear_1372_974)"/>
<path opacity="0.8" d="M385.363 87.6823L269.234 154.877C262.984 158.523 259.166 165.121 259.166 172.239V352.466C259.166 360.279 267.671 365.141 274.441 361.321L390.571 294.127C396.82 290.48 400.639 283.882 400.639 276.764V96.3637C400.639 88.5505 392.133 83.6889 385.363 87.6823Z" fill="#CA6200"/>
<path d="M382.759 134.215V123.45C382.759 119.977 378.94 117.894 375.989 119.63L364.88 126.054" stroke="white" stroke-width="1.0531" stroke-miterlimit="10" stroke-linecap="round"/>
<path d="M364.88 282.493L375.295 276.59C379.982 273.986 382.759 268.95 382.759 263.568V253.671" stroke="white" stroke-width="1.0531" stroke-miterlimit="10" stroke-linecap="round"/>
<path d="M277.045 314.615V325.38C277.045 328.852 280.864 330.936 283.815 329.199L294.924 322.775" stroke="white" stroke-width="1.0531" stroke-miterlimit="10" stroke-linecap="round"/>
<path d="M294.924 166.336L284.509 172.239C279.822 174.844 277.045 179.879 277.045 185.261V195.158" stroke="white" stroke-width="1.0531" stroke-miterlimit="10" stroke-linecap="round"/>
<path d="M374.08 186.303C373.907 205.229 370.782 223.46 366.442 240.128C354.465 285.966 307.423 314.094 294.577 283.188C289.37 270.86 285.898 255.06 285.898 235.093C285.898 206.965 305.687 172.76 329.989 158.696C354.812 144.112 374.427 157.481 374.08 186.303Z" fill="white"/>
<path d="M285.724 242.038L331.551 158.175L374.08 190.991L331.899 289.786L285.724 242.038Z" stroke="#F57A00" stroke-width="0.5265" stroke-miterlimit="10"/>
<path d="M331.551 158.175V289.786" stroke="#F57A00" stroke-width="0.5265" stroke-miterlimit="10"/>
<path d="M285.724 242.038L374.08 190.991" stroke="#F57A00" stroke-width="0.5265" stroke-miterlimit="10"/>
<path d="M290.064 239.607C290.064 242.385 288.155 245.511 285.898 246.9C283.641 248.289 281.732 247.073 281.732 244.469C281.732 241.691 283.641 238.565 285.898 237.176C288.155 235.787 290.064 237.003 290.064 239.607Z" fill="#3E4F9A"/>
<path d="M378.246 188.56C378.246 191.339 376.337 194.464 374.08 195.853C371.824 197.242 369.914 196.026 369.914 193.422C369.914 190.644 371.824 187.519 374.08 186.13C376.337 184.741 378.246 185.782 378.246 188.56Z" fill="#3E4F9A"/>
<path d="M335.717 155.745C335.717 158.523 333.808 161.648 331.551 163.037C329.295 164.426 327.385 163.211 327.385 160.606C327.385 157.828 329.295 154.703 331.551 153.314C333.808 151.925 335.717 152.967 335.717 155.745Z" fill="#3E4F9A"/>
<path d="M335.717 287.355C335.717 290.133 333.808 293.258 331.551 294.647C329.295 296.036 327.385 294.821 327.385 292.217C327.385 289.439 329.295 286.313 331.551 284.924C333.808 283.535 335.717 284.577 335.717 287.355Z" fill="#3E4F9A"/>
<path opacity="0.8" d="M400.639 96.3638L473.198 256.97V293.258L274.441 361.321V170.85L400.639 96.3638Z" fill="url(#paint8_linear_1372_974)"/>
<path d="M472.678 375.211C472.678 375.211 469.032 381.635 469.727 382.156C470.247 382.677 471.462 380.42 471.462 380.42C471.462 380.42 469.379 385.629 470.595 385.976C470.942 386.15 472.157 382.851 472.157 382.851C472.157 382.851 470.942 386.844 471.81 387.018C472.504 387.191 473.545 383.372 473.545 383.372C473.545 383.372 473.025 386.497 473.545 386.671C474.24 386.844 474.934 383.545 474.934 383.545C474.934 383.545 474.761 385.455 475.455 385.802C475.802 385.976 477.191 382.851 476.844 376.079L472.678 375.211Z" fill="white"/>
<path d="M472.504 375.385C472.504 375.385 474.761 335.103 484.308 337.013C496.459 339.444 477.017 376.6 477.017 376.6C477.017 376.6 475.108 377.468 472.504 375.385Z" fill="#A535C5"/>
<path d="M481.183 292.564C481.183 292.564 477.885 296.037 477.538 309.406C476.844 341.18 476.323 353.508 486.564 352.813C489.168 352.639 490.904 314.268 490.904 314.268C490.904 314.268 491.598 297.946 481.183 292.564Z" fill="#A535C5"/>
<path d="M475.108 483.208C475.108 483.208 476.844 492.41 472.851 493.278C467.991 494.147 453.062 482.687 456.534 479.562C459.832 476.437 472.331 482.166 472.331 482.166L475.108 483.208Z" fill="white"/>
<path d="M454.277 494.494C454.277 494.494 456.013 503.696 452.021 504.564C447.16 505.432 432.232 493.973 435.704 490.848C439.002 487.722 451.5 493.452 451.5 493.452L454.277 494.494Z" fill="white"/>
<path d="M465.387 288.05H456.534V300.551H465.387V288.05Z" fill="#F4F4F4"/>
<path d="M454.278 493.278C453.757 498.314 448.549 497.445 448.549 493.626C438.655 386.323 447.16 355.244 447.16 355.244L478.58 351.424C487.606 364.099 482.572 407.68 480.142 424.348C479.621 428.515 479.795 432.856 479.968 437.196C481.531 464.977 475.108 484.423 475.108 484.423C473.546 487.201 469.727 484.423 469.553 482.166L464.172 379.899C463.998 377.989 462.957 378.163 462.957 380.073L458.791 432.335C458.617 432.508 462.61 453.865 454.278 493.278Z" fill="#FFB196"/>
<path d="M478.233 350.556C478.233 350.556 487.433 362.536 485.002 378.51C482.572 394.484 485.697 419.834 485.697 419.834C485.697 419.834 473.372 441.537 442.3 420.354C442.3 420.354 439.523 368.44 447.16 355.244L478.233 350.556Z" fill="#1B1425"/>
<path d="M478.406 347.951C478.232 348.472 477.885 348.82 477.538 349.34C474.24 352.639 465.561 358.716 448.202 352.466C447.855 352.292 447.508 352.119 447.16 351.771V355.417C447.508 355.765 447.855 355.938 448.202 356.112C465.561 362.363 474.24 356.286 477.538 352.987C477.885 352.639 478.232 352.119 478.406 351.598V347.951Z" fill="#191C3A"/>
<path d="M456.534 296.21L465.387 294.127L479.274 292.39C482.746 291.869 485.176 296.905 485.349 302.114C485.87 312.184 479.1 346.389 479.1 346.389C478.927 347.778 478.406 349.167 477.538 350.035C474.24 353.334 465.561 359.411 448.202 353.16C447.16 352.813 446.292 351.771 446.119 350.556L439.696 310.1C439.349 308.017 440.217 305.933 441.953 304.718L456.534 296.21Z" fill="#1B1425"/>
<path d="M449.07 267.041C449.07 267.041 447.681 279.021 451.5 286.14C455.145 293.258 466.602 285.098 468.685 282.493C470.768 279.889 476.67 262.005 461.915 259.054C452.368 257.144 449.417 262.7 449.07 267.041Z" fill="white"/>
<path d="M461.742 277.285C461.742 277.285 457.576 272.77 456.881 266.52C456.881 266.52 456.013 265.652 448.896 269.471C448.896 269.471 442.126 268.082 446.64 261.484C451.153 254.887 466.081 248.462 470.942 256.97C470.942 256.97 485.002 257.317 479.621 272.423C472.504 292.217 461.915 287.008 460.353 281.799C458.964 276.764 461.742 277.285 461.742 277.285Z" fill="black"/>
<path d="M480.836 266.346C480.142 272.597 479.621 277.632 481.531 283.535C483.093 288.571 485.002 292.217 488.127 296.384C491.425 300.551 494.723 304.718 496.633 309.753C498.195 314.268 498.369 319.476 496.112 323.643C494.029 327.637 489.168 328.331 486.044 331.283C483.44 333.888 482.572 337.534 480.316 340.312C478.233 342.916 474.934 344.305 471.636 344.479C467.297 344.652 462.957 342.916 459.485 340.312C457.749 339.096 456.013 337.534 454.798 335.624C453.583 333.54 452.889 331.109 453.062 328.679C453.236 325.553 454.451 322.602 453.757 319.476C453.062 316.351 450.632 314.094 449.591 311.316C447.334 305.76 449.591 299.335 452.715 294.3C454.277 291.869 456.013 289.439 457.228 286.661C457.749 285.445 458.444 283.709 458.444 282.32C458.444 281.973 457.923 280.063 457.923 280.063C458.096 279.889 463.825 276.243 465.734 274.854C470.074 271.381 476.323 269.992 480.836 266.346Z" fill="black"/>
<path d="M459.138 274.333C459.138 274.333 461.915 270.86 463.13 273.465C464.346 276.069 461.395 280.41 457.749 280.236L459.138 274.333Z" fill="white"/>
<path d="M458.27 281.973C459.037 281.973 459.659 281.351 459.659 280.584C459.659 279.816 459.037 279.195 458.27 279.195C457.503 279.195 456.881 279.816 456.881 280.584C456.881 281.351 457.503 281.973 458.27 281.973Z" fill="#FFCA28"/>
<path d="M419.039 386.323C419.039 386.323 414.352 392.053 415.047 392.747C415.568 393.268 417.13 391.358 417.13 391.358C417.13 391.358 414.352 396.046 415.394 396.567C415.741 396.741 417.477 393.789 417.477 393.789C417.477 393.789 415.741 397.609 416.435 397.783C417.13 397.956 418.692 394.484 418.692 394.484C418.692 394.484 417.651 397.435 418.171 397.783C418.692 398.13 419.907 395.005 419.907 395.005C419.907 395.005 419.56 396.915 420.081 397.262C420.428 397.435 422.164 394.657 423.032 387.886L419.039 386.323Z" fill="white"/>
<path d="M418.692 386.497C418.692 386.497 427.545 347.083 436.572 350.556C448.202 354.897 422.858 388.407 422.858 388.407C422.858 388.407 421.122 388.928 418.692 386.497Z" fill="#A535C5"/>
<path d="M440.564 306.107C440.564 306.107 436.745 308.885 434.315 322.081C428.413 353.334 425.983 365.488 436.224 366.356C438.828 366.53 446.813 329.026 446.813 329.026C446.813 329.026 450.111 313.052 440.564 306.107Z" fill="#A535C5"/>
<path d="M176.712 226.238C176.712 229.016 174.802 232.315 172.372 233.704C169.942 235.093 168.032 234.051 168.032 231.273C168.032 228.495 169.942 225.196 172.372 223.807C174.802 222.418 176.712 223.46 176.712 226.238Z" stroke="white" stroke-width="1.0531" stroke-miterlimit="10"/>
<path d="M176.712 226.064L199.104 213.216C211.95 205.75 222.365 211.827 222.365 226.585C222.365 241.343 232.78 247.42 245.626 239.954L259.513 231.968" stroke="white" stroke-width="1.0531" stroke-miterlimit="10" stroke-linecap="round"/>
<path d="M264.026 229.537C264.026 231.099 262.984 232.836 261.596 233.704C260.207 234.398 259.166 233.877 259.166 232.315C259.166 230.752 260.207 229.016 261.596 228.148C262.811 227.28 264.026 227.974 264.026 229.537Z" stroke="white" stroke-width="1.0531" stroke-miterlimit="10" stroke-linecap="round"/>
<path d="M176.712 360.105C176.712 362.883 174.802 366.182 172.372 367.571C169.942 368.96 168.032 367.919 168.032 365.141C168.032 362.363 169.942 359.064 172.372 357.675C174.802 356.286 176.712 357.327 176.712 360.105Z" stroke="white" stroke-width="1.0531" stroke-miterlimit="10"/>
<path d="M176.538 361.321L198.931 348.472C211.776 341.006 222.191 323.122 222.191 308.364C222.191 293.606 232.607 275.548 245.452 268.256L259.339 260.269" stroke="white" stroke-width="1.0531" stroke-miterlimit="10" stroke-linecap="round"/>
<path d="M264.026 257.491C264.026 259.054 262.984 260.79 261.596 261.658C260.207 262.353 259.166 261.832 259.166 260.269C259.166 258.706 260.207 256.97 261.596 256.102C262.811 255.407 264.026 256.102 264.026 257.491Z" stroke="white" stroke-width="1.0531" stroke-miterlimit="10" stroke-linecap="round"/>
<path d="M106.756 253.324C108.318 247.073 111.096 240.996 114.394 235.614" stroke="white" stroke-width="1.0531" stroke-miterlimit="10" stroke-linecap="round"/>
<path d="M105.02 269.645C105.02 268.777 104.846 267.909 104.846 266.867C104.846 264.089 105.02 261.311 105.541 258.533" stroke="white" stroke-width="1.0531" stroke-miterlimit="10" stroke-linecap="round"/>
<path d="M147.722 221.376C151.194 225.022 153.277 231.099 153.277 238.913C153.277 240.302 153.277 241.691 153.104 242.906" stroke="white" stroke-width="1.0531" stroke-miterlimit="10" stroke-linecap="round"/>
<path d="M118.213 230.058C121.511 226.064 125.156 222.592 128.975 220.508C134.53 217.209 139.737 216.862 143.904 218.772" stroke="white" stroke-width="1.0531" stroke-miterlimit="10" stroke-linecap="round"/>
<path d="M143.904 229.19C146.334 231.968 147.722 236.482 147.722 242.212C147.722 242.733 147.722 243.253 147.722 243.601" stroke="white" stroke-width="1.0531" stroke-miterlimit="10" stroke-linecap="round"/>
<path d="M135.398 225.717C137.654 225.543 139.737 225.891 141.647 227.106" stroke="white" stroke-width="1.0531" stroke-miterlimit="10" stroke-linecap="round"/>
<path d="M129.149 227.801C118.907 233.704 110.575 249.851 110.575 263.568C110.575 267.909 109.707 272.597 107.797 277.458L106.929 279.715" stroke="white" stroke-width="1.0531" stroke-miterlimit="10" stroke-linecap="round"/>
<path d="M147.722 247.421C147.722 247.421 146.855 259.575 142.862 270.687" stroke="white" stroke-width="1.0531" stroke-miterlimit="10" stroke-linecap="round"/>
<path d="M111.269 285.445L113.352 279.715C115.609 273.638 116.65 267.735 116.65 262.353V256.102C116.65 248.289 122.031 238.913 128.801 235.093C135.571 231.273 140.952 234.398 140.952 242.038V247.594C140.952 255.928 139.043 265.131 135.571 274.333L132.967 281.278" stroke="white" stroke-width="1.0531" stroke-miterlimit="10" stroke-linecap="round"/>
<path d="M118.213 287.702L119.254 283.882C121.337 276.764 122.379 269.992 122.379 263.568V262.179V253.845C122.379 249.504 125.33 244.295 129.149 242.212C132.794 240.128 135.919 241.864 135.919 246.031C135.919 256.97 132.62 269.645 126.718 281.625L124.462 286.14" stroke="white" stroke-width="1.0531" stroke-miterlimit="10" stroke-linecap="round"/>
<path d="M128.802 248.289V257.317C128.802 260.616 128.454 263.915 127.76 267.214L127.066 270.687" stroke="white" stroke-width="1.0531" stroke-miterlimit="10" stroke-linecap="round"/>
<path d="M151.888 248.636L151.368 253.324" stroke="white" stroke-width="1.0531" stroke-miterlimit="10" stroke-linecap="round"/>
<path d="M154.839 374.517C154.839 374.517 143.904 399.172 130.364 406.985C116.824 414.798 105.888 402.818 105.888 402.818C105.888 402.818 116.824 378.163 130.364 370.349C143.904 362.536 154.839 374.517 154.839 374.517Z" stroke="white" stroke-width="1.0531" stroke-miterlimit="10" stroke-linecap="round"/>
<path d="M139.911 383.198C139.911 389.275 135.745 396.567 130.364 399.693C125.156 402.644 120.816 400.214 120.816 394.137C120.816 388.06 124.982 380.767 130.364 377.642C135.745 374.69 139.911 377.121 139.911 383.198Z" stroke="white" stroke-width="1.0531" stroke-miterlimit="10" stroke-linecap="round"/>
<path d="M139.217 379.552C138.002 376.774 135.398 375.732 132.1 376.774C131.058 378.336 130.364 380.246 130.364 381.983C130.364 384.934 132.447 386.15 135.051 384.761C136.96 383.719 138.522 381.635 139.217 379.552Z" stroke="white" stroke-width="1.0531" stroke-miterlimit="10" stroke-linecap="round"/>
<path d="M113.7 388.06L110.228 384.587" stroke="white" stroke-width="1.0531" stroke-miterlimit="10" stroke-linecap="round"/>
<path d="M107.797 398.477L103.284 397.436" stroke="white" stroke-width="1.0531" stroke-miterlimit="10" stroke-linecap="round"/>
<path d="M130.537 370.349V365.314" stroke="white" stroke-width="1.0531" stroke-miterlimit="10" stroke-linecap="round"/>
<path d="M121.511 376.947L119.081 373.648" stroke="white" stroke-width="1.0531" stroke-miterlimit="10" stroke-linecap="round"/>
<path d="M142.688 367.398L143.904 363.231" stroke="white" stroke-width="1.0531" stroke-miterlimit="10" stroke-linecap="round"/>
<path d="M152.409 371.565L154.319 367.745" stroke="white" stroke-width="1.0531" stroke-miterlimit="10" stroke-linecap="round"/>
<path d="M168.206 126.401V139.944" stroke="white" stroke-width="1.0531" stroke-miterlimit="10" stroke-linecap="round"/>
<path d="M174.976 133.173H161.436" stroke="white" stroke-width="1.0531" stroke-miterlimit="10" stroke-linecap="round"/>
<path d="M458.27 146.542V160.085" stroke="white" stroke-width="1.0531" stroke-miterlimit="10" stroke-linecap="round"/>
<path d="M465.04 153.314H451.5" stroke="white" stroke-width="1.0531" stroke-miterlimit="10" stroke-linecap="round"/>
<path d="M124.635 456.99V470.533" stroke="white" stroke-width="1.0531" stroke-miterlimit="10" stroke-linecap="round"/>
<path d="M131.405 463.762H117.865" stroke="white" stroke-width="1.0531" stroke-miterlimit="10" stroke-linecap="round"/>
<path d="M53.8118 386.323V393.095" stroke="white" stroke-width="1.0531" stroke-miterlimit="10" stroke-linecap="round"/>
<path d="M57.11 389.796H50.3401" stroke="white" stroke-width="1.0531" stroke-miterlimit="10" stroke-linecap="round"/>
<path d="M396.299 363.057V369.829" stroke="white" stroke-width="1.0531" stroke-miterlimit="10" stroke-linecap="round"/>
<path d="M399.771 366.356H393.001" stroke="white" stroke-width="1.0531" stroke-miterlimit="10" stroke-linecap="round"/>
<defs>
<linearGradient id="paint0_linear_1372_974" x1="332.041" y1="240.482" x2="51.9044" y2="320.834" gradientUnits="userSpaceOnUse">
<stop offset="0.153846" stop-color="#F57A00"/>
<stop offset="1" stop-opacity="0"/>
</linearGradient>
<linearGradient id="paint1_linear_1372_974" x1="148.764" y1="206.095" x2="291.105" y2="206.095" gradientUnits="userSpaceOnUse">
<stop stop-color="#F57A00"/>
<stop offset="1" stop-color="#7103A4"/>
</linearGradient>
<linearGradient id="paint2_linear_1372_974" x1="307.621" y1="762.564" x2="86.1555" y2="718.245" gradientUnits="userSpaceOnUse">
<stop stop-color="#7103A4"/>
<stop offset="1" stop-color="#3C0754"/>
</linearGradient>
<linearGradient id="paint3_linear_1372_974" x1="213.165" y1="176.717" x2="355.68" y2="176.717" gradientUnits="userSpaceOnUse">
<stop stop-color="#F57A00"/>
<stop offset="1" stop-color="#7103A4"/>
</linearGradient>
<linearGradient id="paint4_linear_1372_974" x1="420.428" y1="493.278" x2="492.293" y2="493.278" gradientUnits="userSpaceOnUse">
<stop stop-color="#F57A00"/>
<stop offset="1" stop-color="#7103A4"/>
</linearGradient>
<linearGradient id="paint5_linear_1372_974" x1="360.67" y1="439.367" x2="380.763" y2="439.367" gradientUnits="userSpaceOnUse">
<stop stop-color="#F57A00"/>
<stop offset="1" stop-color="#7103A4"/>
</linearGradient>
<linearGradient id="paint6_linear_1372_974" x1="94.9521" y1="252.554" x2="163.172" y2="252.554" gradientUnits="userSpaceOnUse">
<stop stop-color="#F57A00"/>
<stop offset="1" stop-color="#7103A4"/>
</linearGradient>
<linearGradient id="paint7_linear_1372_974" x1="94.9521" y1="386.421" x2="163.172" y2="386.421" gradientUnits="userSpaceOnUse">
<stop stop-color="#F57A00"/>
<stop offset="1" stop-color="#7103A4"/>
</linearGradient>
<linearGradient id="paint8_linear_1372_974" x1="373.98" y1="361.283" x2="373.98" y2="96.373" gradientUnits="userSpaceOnUse">
<stop stop-color="#F57A00"/>
<stop offset="1" stop-opacity="0"/>
</linearGradient>
</defs>
</svg>
