<svg width="584" height="493" viewBox="0 0 584 493" fill="none" xmlns="http://www.w3.org/2000/svg">
<path d="M0 380.869C0 380.869 265.552 300.275 494.912 60.0742L515.872 76.2854L533.6 0L451.344 19.9449L470.016 37.9273C470.016 37.9273 338.336 201.061 0 380.869Z" fill="url(#paint0_linear_1380_5501)"/>
<path d="M74.1238 452.158V489.17H20.9958V452.158H74.1238Z" stroke="url(#paint1_linear_1380_5501)" stroke-width="5"/>
<path d="M161.98 395.005V489.491H108.852V395.005H161.98Z" stroke="url(#paint2_linear_1380_5501)" stroke-width="5"/>
<path d="M253.692 326.926V489.511H200.564V326.926H253.692Z" stroke="url(#paint3_linear_1380_5501)" stroke-width="5"/>
<path d="M346.412 258.006V488.947H293.284V258.006H346.412Z" stroke="url(#paint4_linear_1380_5501)" stroke-width="5"/>
<path d="M442.444 192.449V489.495H389.316V192.449H442.444Z" stroke="url(#paint5_linear_1380_5501)" stroke-width="5"/>
<g clip-path="url(#clip0_1380_5501)">
<path d="M298.488 271.729C296.586 272.752 290.15 272.46 290.15 272.46C290.15 272.46 288.54 279.181 289.857 281.665C289.857 281.665 296.44 281.812 298.488 282.542C300.244 283.127 298.488 271.729 298.488 271.729Z" fill="#F7B799"/>
<path d="M305.071 287.218C303.023 287.949 302.146 287.218 302.146 287.218C302.146 287.218 299.22 287.803 298.927 286.049C298.927 286.049 296.733 286.341 296.586 283.711C296.586 283.711 295.124 282.834 295.416 281.812C295.709 280.789 296.148 280.35 297.903 279.766C299.512 279.181 304.779 271.144 305.657 270.268C306.388 269.537 309.753 268.222 310.923 267.784C312.093 267.491 317.36 271.291 324.089 270.998C324.089 270.998 326.723 273.629 325.552 279.474C325.552 279.474 319.993 279.327 317.067 283.127C314.142 286.926 305.071 287.218 305.071 287.218Z" fill="#F7B799"/>
<path opacity="0.2" d="M305.071 287.218C303.023 287.949 302.146 287.218 302.146 287.218C302.146 287.218 299.22 287.803 298.927 286.049C298.927 286.049 296.733 286.341 296.586 283.711C296.586 283.711 295.124 282.834 295.416 281.812C295.709 280.789 296.148 280.35 297.903 279.766C299.512 279.181 304.779 271.144 305.657 270.268C306.388 269.537 309.753 268.222 310.923 267.784C312.093 267.491 317.36 271.291 324.089 270.998C324.089 270.998 326.723 273.629 325.552 279.474C325.552 279.474 319.993 279.327 317.067 283.127C314.142 286.926 305.071 287.218 305.071 287.218Z" fill="#F7B799"/>
<path d="M296.586 272.752C299.22 271.729 302.145 267.784 303.608 267.93C305.218 268.076 305.803 268.66 307.119 268.953C308.436 269.245 309.314 269.245 310.484 269.975C311.654 270.706 313.556 271.583 313.556 272.167C313.556 272.606 310.192 273.921 306.242 272.313C306.242 272.313 304.486 273.629 303.755 273.921C303.755 273.921 304.34 278.012 297.757 279.766C297.757 279.766 293.66 275.236 296.586 272.752Z" fill="#F7B799"/>
<path d="M304.34 288.095C303.316 287.802 303.316 286.78 304.486 285.464C305.657 284.149 307.266 281.081 309.021 282.104C309.021 282.104 310.192 279.473 312.094 279.912C312.094 279.912 313.556 276.551 315.897 278.743C315.897 278.743 317.506 277.72 318.092 278.889C318.677 280.058 316.482 284.003 315.751 285.172C315.019 286.341 312.971 286.633 312.971 286.633C312.971 286.633 312.24 287.802 309.753 287.51C309.753 287.51 308.583 288.825 306.534 287.949C306.534 287.802 305.949 288.387 304.34 288.095Z" fill="#F7B799"/>
<path d="M289.272 271.583H292.49C292.49 271.583 292.929 280.204 291.905 282.688C291.905 282.688 289.272 282.688 288.248 281.958C287.224 281.373 289.272 271.583 289.272 271.583Z" fill="white"/>
<path d="M288.687 283.127C288.687 283.127 290.735 273.775 289.857 270.268C289.857 270.268 260.013 265.446 253.284 262.67C253.284 262.67 238.216 239.29 231.779 231.984C226.659 226.139 218.174 217.517 209.689 223.216C201.35 228.915 212.615 244.843 225.927 258.14C239.24 271.583 245.384 276.844 249.042 277.867C252.699 279.036 288.687 283.127 288.687 283.127Z" fill="#A535C5"/>
<path d="M289.711 277.282C286.346 276.99 253.43 273.337 250.358 272.606C245.677 271.437 219.198 249.665 211.444 240.751C214.955 246.45 220.368 252.587 226.074 258.286C239.386 271.729 245.53 276.99 249.188 278.013C252.845 279.035 288.833 283.273 288.833 283.273C288.833 283.273 288.833 281.081 289.711 277.282Z" fill="#7103A4"/>
<path d="M323.797 266.761L319.701 268.222C319.701 268.222 322.627 279.181 324.821 281.812L330.38 279.766L323.797 266.761Z" fill="white"/>
<path d="M383.045 471.043C384.947 472.796 401.771 469.874 402.502 472.065C403.234 474.111 404.55 480.102 403.234 483.171C403.234 483.171 403.965 483.901 403.38 485.509C402.795 487.116 398.552 487.701 392.993 487.847C387.58 487.993 354.811 491.792 353.055 486.093C352.47 484.194 351.446 479.956 355.542 480.395C359.638 480.833 368.855 478.641 371.049 477.326C373.244 476.157 377.779 474.111 379.681 472.358C381.582 470.896 382.314 470.312 383.045 471.043Z" fill="white"/>
<path d="M413.767 474.111C415.668 476.011 432.2 473.527 432.931 475.718C433.809 477.91 435.125 484.048 433.955 487.262C433.955 487.262 434.686 487.993 434.248 489.746C433.662 491.5 429.566 491.938 424.153 491.938C418.741 491.938 386.41 494.568 384.654 489.016C383.923 486.97 382.899 482.586 386.849 483.171C390.799 483.755 400.015 481.71 402.063 480.394C404.111 479.225 408.646 477.326 410.402 475.572C412.304 473.819 412.889 473.38 413.767 474.111Z" fill="white"/>
<path d="M410.987 299.2C411.133 310.306 406.745 333.832 406.452 336.462C406.159 339.092 405.282 358.088 406.159 378.107C407.037 398.126 405.72 454.969 404.404 473.672C404.404 473.672 395.919 477.033 379.534 472.065C379.534 472.065 383.777 413.323 380.851 396.519C377.779 379.715 373.975 314.836 373.536 298.47L410.987 299.2Z" fill="#1B1425"/>
<path d="M417.57 303C422.983 319.658 418.594 332.517 418.594 335.293C418.594 337.923 420.935 361.595 424.446 381.322C427.957 400.903 432.931 457.453 433.955 476.303C433.955 476.303 426.202 478.641 409.232 476.303C409.232 476.303 406.891 419.753 401.625 403.533C396.358 387.313 380.997 314.543 378.364 298.47L417.57 303Z" fill="#1B1425"/>
<path d="M365.783 177.333C366.807 176.164 368.562 173.972 367.684 172.073C367.099 170.904 366.953 171.196 367.831 167.835C369.586 161.698 375.584 159.652 376.608 158.483L377.193 159.652C378.803 156.876 380.851 154.538 383.484 154.1C389.336 153.077 397.821 158.629 401.478 162.575C405.135 166.52 401.185 174.119 396.943 182.009C393.871 187.562 396.65 192.53 397.236 193.991C395.919 194.43 383.338 206.704 383.338 206.704C383.338 206.704 381.729 203.343 380.851 200.859C380.558 200.129 379.973 199.983 379.388 199.106C378.949 198.375 379.095 196.329 378.51 195.453C378.364 195.307 378.364 195.16 378.217 195.014C377.047 194.722 375.877 194.722 374.853 194.722C372.951 194.722 369.294 195.453 367.977 194.43C366.66 193.407 367.538 190.484 367.392 189.754C367.392 189.023 366.368 189.023 365.636 188.293C364.759 187.562 366.075 186.393 366.075 186.393C365.783 186.101 364.612 184.932 365.344 184.347C366.222 183.617 367.246 182.74 364.759 181.425C362.564 180.256 364.32 179.233 365.783 177.333Z" fill="#F7B799"/>
<path d="M404.55 166.374C402.063 158.483 396.65 150.738 387.434 150.446C378.217 150.154 369.879 155.268 368.855 151.177C368.855 151.177 368.708 157.899 371.634 162.136C372.512 160.529 383.923 171.05 385.825 176.456C386.849 179.087 386.264 169.735 391.53 171.488C395.48 172.803 393.432 179.087 392.262 182.155C391.384 184.493 395.48 188.585 395.48 188.585L395.334 190.63L400.454 184.932C400.308 185.078 407.037 174.264 404.55 166.374Z" fill="black"/>
<path d="M398.698 190.776C398.991 191.507 399.43 192.238 399.43 192.238C405.135 194.868 415.815 206.85 416.107 220.147C416.254 227.307 415.815 244.112 416.546 261.939C417.131 276.99 418.302 285.465 419.911 293.355C421.228 300.223 423.714 316.735 423.714 316.735C423.714 316.735 413.62 322.726 392.7 322.726C375.438 322.726 372.512 320.973 372.512 320.973C372.512 320.973 370.025 269.391 370.025 257.555C370.025 234.175 371.488 227.015 378.803 212.257C379.388 210.211 398.26 189.753 398.698 190.776Z" fill="#A535C5"/>
<g opacity="0.3">
<path d="M390.506 183.616C390.506 183.616 391.969 191.215 379.095 196.621C379.095 196.183 378.949 195.745 378.803 195.452C378.656 195.306 378.656 195.16 378.51 195.014C377.34 194.722 376.169 194.722 375.145 194.722C374.999 194.722 389.628 191.215 390.506 183.616Z" fill="#F7B799"/>
</g>
<path d="M370.025 263.692C370.171 268.076 370.318 273.483 370.61 279.474C378.656 271.145 400.6 247.473 408.207 228.623C412.011 219.271 383.63 248.642 370.025 263.692Z" fill="#7103A4"/>
<path d="M402.648 196.768C397.967 197.79 386.117 205.681 380.997 218.102C377.047 227.6 362.418 249.372 362.418 249.372L322.626 265.884C322.626 265.884 323.651 274.067 328.186 281.52C328.186 281.52 364.027 271.145 368.709 270.268C374.707 269.099 410.548 226.285 410.548 226.285L402.648 196.768Z" fill="#A535C5"/>
<path d="M397.528 188.292C397.528 188.292 384.362 193.553 379.388 204.951C379.095 205.681 379.534 210.357 378.656 212.111C376.755 216.056 375.292 219.417 374.121 222.632C375.292 220.001 380.851 210.503 385.678 204.805C392.7 196.768 399.43 192.238 399.43 192.238C399.43 192.238 397.821 188.731 397.528 188.292Z" fill="white"/>
<path d="M217.003 363.641C218.174 368.025 221.1 385.706 219.198 388.482C217.296 391.259 212.322 403.095 214.809 422.383C217.296 441.672 217.589 452.631 216.711 457.453C215.979 461.837 213.346 467.243 214.078 470.458C214.809 473.527 231.486 484.778 242.751 482.44C242.751 482.44 237.338 478.933 231.047 470.75C224.318 462.129 229.146 439.187 230.316 430.274C231.486 421.36 241.288 392.574 240.41 386.29C239.532 379.715 239.532 374.893 237.923 345.083L217.003 363.641Z" fill="#F7B799"/>
<path d="M214.663 465.197C214.663 465.197 210.713 470.458 212.468 477.472C213.639 482.002 214.078 485.947 214.224 488.869C214.37 490.915 215.979 492.669 218.174 492.669H240.703C248.31 492.669 251.528 489.892 250.065 486.97C249.041 485.07 245.092 482.878 242.312 481.709C242.019 481.417 230.462 486.239 214.663 465.197Z" fill="white"/>
<path d="M210.713 346.983C215.979 365.979 219.344 376.646 217.15 381.03C215.394 384.537 211.005 398.565 210.713 433.05C210.713 441.818 208.372 454.823 209.396 465.928C209.396 465.928 220.222 472.211 233.534 469.143C233.534 469.143 231.925 419.461 237.192 403.533C242.458 387.606 244.067 367.733 242.897 343.915C242.458 335.001 243.19 318.343 237.484 319.658C228.122 321.85 210.713 346.983 210.713 346.983Z" fill="#1B1425"/>
<path d="M206.178 353.12C206.178 357.65 206.763 381.76 203.983 383.952C201.35 386.144 193.158 396.227 190.086 415.807C187.014 435.388 184.527 446.932 182.625 451.023C180.577 455.261 175.895 459.206 175.749 462.567C175.603 465.928 188.623 481.563 200.326 482.44C200.326 482.44 197.4 477.618 193.889 468.85C189.793 458.622 199.302 436.265 202.959 427.936C206.617 419.607 224.903 392.574 225.781 385.998C226.805 379.569 233.388 355.02 233.388 355.02L206.178 353.12Z" fill="#F7B799"/>
<path d="M177.797 457.453C177.797 457.453 172.384 461.545 172.238 468.851C172.092 473.673 171.36 477.618 170.629 480.541C170.19 482.586 171.36 484.632 173.262 485.217L195.352 491.646C202.667 493.838 206.763 491.938 206.032 488.724C205.593 486.532 202.374 483.317 199.887 481.417C199.887 481.271 187.16 482.586 177.797 457.453Z" fill="white"/>
<path d="M202.959 322.58C203.398 342.307 205.593 377.961 201.057 383.806C193.889 393.304 192.426 400.172 182.332 437.58C180.869 442.986 175.895 454.092 174.14 460.667C174.14 460.667 183.063 469.435 196.669 469.873C196.669 469.873 208.372 422.675 217.442 408.501C226.512 394.327 231.047 374.162 235.875 350.782C237.045 345.522 240.703 327.256 238.216 323.749C230.316 311.621 202.959 322.58 202.959 322.58Z" fill="#1B1425"/>
<path d="M236.607 172.95C238.509 174.119 240.703 177.918 241.142 180.987C241.581 184.201 241.288 184.347 240.849 185.37C240.118 187.124 241.873 188.585 242.897 189.608C244.36 191.215 246.262 192.53 244.068 193.553C241.727 194.868 242.459 195.745 243.336 196.33C243.921 196.768 242.897 197.791 242.605 198.083C242.605 198.083 243.775 199.106 243.044 199.837C242.312 200.567 241.434 200.567 241.434 201.152C241.434 201.882 242.312 204.366 240.996 205.389C239.825 206.412 236.314 205.828 234.559 205.681C233.096 205.681 230.316 206.412 228.707 207.873C227.829 208.604 229.146 210.211 228.414 210.796C224.757 214.303 220.222 215.326 214.517 208.312C212.322 205.681 215.394 198.814 215.687 198.668C215.833 198.375 227.683 181.717 227.683 181.717L236.607 172.95Z" fill="#F7B799"/>
<path d="M207.641 202.613C207.641 202.613 214.224 204.366 213.931 207.143C213.639 211.819 210.713 219.709 209.25 219.855C206.909 220.148 239.24 236.367 234.998 229.5C231.633 224.093 232.218 222.193 229.877 215.91C229.438 214.887 227.829 212.988 228.414 211.234C233.388 199.69 237.046 178.064 237.046 178.064L227.537 173.096C227.537 173.096 202.96 185.37 203.545 185.37C204.276 185.37 207.641 202.613 207.641 202.613Z" fill="#F7B799"/>
<path d="M237.777 174.119C237.484 171.488 230.755 164.182 220.953 163.744C211.152 163.305 204.422 168.42 200.619 179.233C200.619 179.233 198.571 185.516 200.326 191.215C201.935 196.183 206.617 201.736 210.42 205.243C212.615 207.435 213.493 209.627 213.493 209.627C215.248 209.334 221.539 200.713 221.246 197.645C221.246 197.06 219.052 199.836 218.759 197.352C218.466 194.284 215.98 192.822 215.98 192.822C215.98 192.822 214.517 190.923 215.687 188.731C216.857 186.539 219.929 186.831 220.661 187.562C221.392 188.293 222.416 189.315 222.416 189.315C222.416 189.315 225.342 187.708 225.635 185.955C225.927 184.347 225.489 181.571 227.39 180.84C229.292 180.11 231.633 179.233 234.266 177.187C236.899 175.434 237.777 174.119 237.777 174.119Z" fill="black"/>
<path d="M234.705 205.973C234.705 205.973 226.805 206.266 230.609 217.225C234.412 228.038 215.102 215.033 215.102 215.033L226.805 202.32L234.705 205.973Z" fill="#F7B799"/>
<g opacity="0.3">
<path d="M224.026 199.836C223.44 204.659 230.17 209.042 230.17 209.042C231.34 206.558 233.973 206.12 234.559 205.974H234.705C235.144 205.974 235.583 205.974 236.022 206.12C224.757 205.389 224.026 200.421 224.026 199.836Z" fill="#F7B799"/>
</g>
<path d="M205.154 173.096C204.422 168.42 201.935 165.351 197.839 166.374C193.597 167.397 189.208 169.881 188.623 177.333C188.038 185.516 197.254 189.754 201.204 184.64C205.008 179.671 205.154 173.096 205.154 173.096Z" fill="black"/>
<path d="M244.214 288.534C224.903 288.534 217.15 247.473 217.15 247.473L244.214 273.337C244.067 275.967 244.067 281.52 244.214 288.534Z" fill="url(#paint6_linear_1380_5501)"/>
<path d="M212.03 213.572L213.054 208.458C213.054 208.458 225.488 212.987 228.853 215.471C232.218 217.956 231.925 222.485 231.925 222.485L212.03 213.572Z" fill="white"/>
<path d="M202.228 293.356C201.789 301.539 199.448 322.142 198.717 331.056C198.863 331.056 209.25 335.147 244.506 333.686C244.506 331.786 244.506 329.741 244.506 327.549C244.506 308.553 244.068 277.574 244.068 272.752C245.092 234.614 231.925 222.486 231.925 222.486L213.2 212.695C213.2 212.695 197.985 221.317 198.571 249.811C198.863 260.478 203.252 272.606 202.228 293.356Z" fill="#A535C5"/>
<path d="M198.863 331.055C199.01 331.055 209.396 335.147 244.653 333.686C244.653 331.786 244.653 329.74 244.653 327.549C244.653 324.626 244.653 321.411 244.653 318.05L220.515 313.959C220.515 313.959 214.224 264.861 217.296 254.486C217.296 254.486 208.957 253.756 199.01 253.756C199.887 263.546 203.252 275.09 202.374 293.502C201.935 301.538 199.595 322.288 198.863 331.055Z" fill="#7103A4"/>
<path d="M228.268 352.974L185.258 346.691C184.38 346.545 183.941 345.814 183.941 344.937L188.33 315.713C188.476 314.836 189.208 314.397 190.086 314.397L233.096 320.681C233.973 320.827 234.412 321.558 234.412 322.434L230.17 351.659C229.877 352.536 229.146 353.12 228.268 352.974Z" fill="#434343"/>
<path d="M233.096 320.827L190.086 314.543C189.208 314.397 188.476 314.982 188.33 315.858L186.721 326.672C186.575 327.548 187.16 328.279 188.038 328.425L231.047 334.708C231.925 334.855 232.657 334.27 232.803 333.393L234.412 322.58C234.412 321.703 233.827 320.973 233.096 320.827Z" fill="#1C1C1C"/>
<path d="M210.859 215.471C199.741 221.462 197.839 241.481 195.645 265.738C193.45 289.994 193.158 289.702 195.791 301.1C198.424 312.498 205.3 334.855 204.422 338.654C203.691 342.453 203.106 349.321 207.494 351.367C213.346 354.143 221.1 352.828 219.783 351.659C218.174 350.051 215.687 347.129 215.394 345.375C215.248 344.353 220.514 350.782 221.392 348.882C221.538 348.736 220.514 347.421 219.783 346.106C218.466 343.914 217.003 341.43 216.272 340.846C213.639 339.092 212.322 337.339 211.298 333.686C210.274 330.032 208.811 297.447 207.494 289.994L220.222 242.212C220.368 242.358 226.659 225.262 210.859 215.471Z" fill="#F7B799"/>
<path d="M201.643 333.539L201.789 335.877C201.789 335.877 211.298 336.316 213.785 334.708L212.907 331.494L201.643 333.539Z" fill="white"/>
<path d="M200.765 333.832C200.765 333.832 209.25 334.416 214.224 332.517C214.224 332.517 210.713 295.255 208.372 287.511C208.372 287.511 221.246 245.281 222.124 236.221C223.001 227.307 217.003 215.325 212.176 213.572C212.176 213.572 201.35 216.787 196.376 241.481C191.549 266.176 190.524 283.419 190.817 286.195C191.11 288.972 200.765 333.832 200.765 333.832Z" fill="#A535C5"/>
</g>
<path d="M538.284 120.167V489H485.156V120.167H538.284Z" stroke="url(#paint7_linear_1380_5501)" stroke-width="5"/>
<path d="M181.152 95.624H123.856C118.304 95.624 113.792 100.108 113.792 105.66V133.136C113.792 138.673 118.288 143.173 123.856 143.173H142.24C147.056 146.412 154.048 151.135 157.264 153.416C161.664 156.528 161.504 149.715 161.664 143.173H181.136C186.688 143.173 191.2 138.689 191.2 133.136V105.644C191.216 100.108 186.704 95.624 181.152 95.624Z" fill="url(#paint8_linear_1380_5501)"/>
<path d="M135.867 122.183C137.86 120.195 137.86 116.972 135.867 114.984C133.874 112.997 130.642 112.997 128.649 114.984C126.656 116.972 126.656 120.195 128.649 122.183C130.642 124.17 133.874 124.17 135.867 122.183Z" fill="white"/>
<path d="M156.09 122.181C158.083 120.193 158.083 116.97 156.09 114.982C154.097 112.995 150.865 112.995 148.872 114.982C146.879 116.97 146.879 120.193 148.872 122.181C150.865 124.168 154.097 124.168 156.09 122.181Z" fill="white"/>
<path d="M173.737 123.287C176.341 122.212 177.578 119.234 176.499 116.637C175.42 114.04 172.435 112.806 169.83 113.882C167.226 114.958 165.989 117.936 167.068 120.533C168.147 123.13 171.133 124.363 173.737 123.287Z" fill="white"/>
<path d="M316.112 57.8721H373.408C378.96 57.8721 383.472 62.3557 383.472 67.9084V95.3845C383.472 100.921 378.976 105.421 373.408 105.421H355.024C350.208 108.66 343.216 113.383 340 115.665C335.6 118.776 335.76 111.963 335.6 105.421H316.128C310.576 105.421 306.064 100.937 306.064 95.3845V67.8924C306.048 62.3557 310.544 57.8721 316.112 57.8721Z" fill="url(#paint9_linear_1380_5501)"/>
<path d="M369.731 82.7645C370.81 80.1674 369.573 77.1898 366.969 76.114C364.365 75.0382 361.379 76.2715 360.3 78.8687C359.221 81.4659 360.458 84.4434 363.062 85.5192C365.667 86.595 368.652 85.3617 369.731 82.7645Z" fill="white"/>
<path d="M349.509 82.768C350.588 80.1708 349.351 77.1933 346.746 76.1175C344.142 75.0416 341.156 76.2749 340.078 78.8721C338.999 81.4693 340.236 84.4468 342.84 85.5226C345.444 86.5984 348.43 85.3651 349.509 82.768Z" fill="white"/>
<path d="M329.083 84.4365C331.077 82.4488 331.077 79.226 329.083 77.2383C327.09 75.2506 323.859 75.2506 321.865 77.2383C319.872 79.226 319.872 82.4488 321.865 84.4365C323.859 86.4242 327.09 86.4242 329.083 84.4365Z" fill="white"/>
<path d="M63.936 184.546C40.544 184.546 21.52 203.518 21.52 226.846C21.52 250.173 40.544 269.145 63.936 269.145C87.328 269.145 106.352 250.173 106.352 226.846C106.352 203.518 87.312 184.546 63.936 184.546ZM63.936 263.752C43.504 263.752 26.928 247.221 26.928 226.846C26.928 206.47 43.504 189.94 63.936 189.94C84.368 189.94 100.944 206.47 100.944 226.846C100.944 247.237 84.368 263.752 63.936 263.752Z" fill="url(#paint10_linear_1380_5501)"/>
<path d="M63.936 260.513C82.5812 260.513 97.696 245.44 97.696 226.846C97.696 208.252 82.5812 193.179 63.936 193.179C45.2909 193.179 30.176 208.252 30.176 226.846C30.176 245.44 45.2909 260.513 63.936 260.513Z" fill="url(#paint11_linear_1380_5501)"/>
<path d="M76.4322 228.25C77.2642 229.064 77.9042 230.005 78.3842 231.074C78.8482 232.143 79.0882 233.436 79.0882 234.919C79.0882 238.174 77.8402 240.903 75.3602 243.105C72.8642 245.307 69.7442 246.535 65.9522 246.791V255.551H63.3922V246.839C59.2802 246.759 55.9522 245.785 53.4082 243.903C50.8482 242.036 49.5842 239.706 49.5842 236.93C49.5842 235.701 49.8562 234.776 50.4002 234.122C50.9442 233.467 51.6962 233.148 52.6722 233.148C53.7762 233.148 54.6402 233.42 55.2482 233.978C55.8722 234.521 56.1762 235.175 56.1762 235.925C56.1762 236.483 55.9842 237.329 55.5842 238.462C55.1842 239.595 54.9442 240.36 54.8322 240.775C55.4402 241.844 56.4802 242.722 57.9682 243.376C59.4562 244.046 61.2642 244.381 63.3922 244.397V228.697C62.4802 228.362 61.6802 228.074 61.0082 227.835C60.3362 227.58 59.4402 227.229 58.3522 226.782C55.9682 225.809 54.0962 224.532 52.7522 222.953C51.4082 221.373 50.7362 219.315 50.7362 216.793C50.7362 213.81 51.9842 211.305 54.4642 209.246C56.9602 207.204 59.9362 206.135 63.3922 206.087V198.971H65.9522V206.087C68.0002 206.135 69.8242 206.422 71.3922 206.981C72.9762 207.539 74.2562 208.225 75.2482 209.055C76.2402 209.885 76.9922 210.794 77.5042 211.783C78.0162 212.773 78.2722 213.746 78.2722 214.671C78.2722 215.597 78.0482 216.395 77.6162 217.049C77.1842 217.703 76.4642 218.022 75.4722 218.022C74.4482 218.022 73.6162 217.767 72.9282 217.24C72.2562 216.73 71.9202 216.139 71.9202 215.501C71.9202 214.735 72.0002 213.969 72.1762 213.219C72.3362 212.469 72.4802 211.799 72.6082 211.225C72.5442 211.097 72.3362 210.874 71.9842 210.555C71.6322 210.236 71.2162 209.932 70.7362 209.677C70.2242 209.39 69.5362 209.135 68.6882 208.895C67.8402 208.672 66.9282 208.56 65.9522 208.56V222.968C66.7682 223.256 67.4402 223.511 67.9842 223.734C68.5282 223.958 69.2162 224.213 70.0162 224.532C71.2962 225.027 72.4802 225.569 73.5682 226.16C74.6402 226.702 75.6002 227.42 76.4322 228.25ZM63.3922 222.187V208.528C61.3762 208.528 59.6802 209.103 58.3202 210.236C56.9442 211.368 56.2722 212.773 56.2722 214.432C56.2722 216.235 56.7042 217.671 57.5522 218.74C58.4002 219.809 59.6962 220.703 61.4082 221.405C61.6642 221.516 61.9682 221.628 62.3362 221.772C62.7042 221.931 63.0562 222.075 63.3922 222.187ZM73.2162 237.441C73.2162 235.749 72.7682 234.265 71.8882 233.021C71.0082 231.776 69.5042 230.723 67.3922 229.893C67.1202 229.798 66.8642 229.702 66.6242 229.606C66.3842 229.526 66.1442 229.447 65.9202 229.351V244.349C68.3522 244.206 70.1762 243.52 71.3762 242.291C72.6082 241.063 73.2162 239.435 73.2162 237.441Z" fill="white"/>
<path d="M542.32 212.341C519.344 212.341 500.64 230.994 500.64 253.907C500.64 276.819 519.344 295.472 542.32 295.472C565.296 295.472 584 276.819 584 253.907C584 230.994 565.296 212.341 542.32 212.341ZM542.32 290.174C522.24 290.174 505.952 273.931 505.952 253.907C505.952 233.882 522.24 217.639 542.32 217.639C562.4 217.639 578.688 233.882 578.688 253.907C578.688 273.931 562.4 290.174 542.32 290.174Z" fill="url(#paint12_linear_1380_5501)"/>
<path d="M542.32 286.999C560.647 286.999 575.504 272.183 575.504 253.907C575.504 235.63 560.647 220.814 542.32 220.814C523.993 220.814 509.136 235.63 509.136 253.907C509.136 272.183 523.993 286.999 542.32 286.999Z" fill="url(#paint13_linear_1380_5501)"/>
<path d="M555.04 255.359C556.272 256.109 557.312 257.082 558.128 258.295C558.944 259.507 559.36 260.975 559.36 262.699C559.36 264.454 558.928 265.985 558.064 267.294C557.2 268.586 556.08 269.655 554.704 270.501C553.36 271.315 551.856 271.937 550.16 272.368C548.464 272.799 546.72 273.006 544.928 273.006H524.768V271.107C525.248 271.075 525.952 270.996 526.864 270.884C527.776 270.772 528.448 270.629 528.848 270.469C529.472 270.214 529.904 269.879 530.16 269.464C530.416 269.049 530.544 268.506 530.544 267.852V240.631C530.544 240.025 530.432 239.499 530.192 239.036C529.968 238.573 529.504 238.206 528.832 237.919C528.24 237.648 527.568 237.44 526.816 237.313C526.08 237.169 525.456 237.089 524.96 237.041V235.143H544.608C546.128 235.143 547.584 235.27 548.976 235.541C550.368 235.813 551.696 236.275 552.944 236.962C554.128 237.584 555.088 238.43 555.856 239.499C556.608 240.568 556.992 241.86 556.992 243.392C556.992 244.732 556.72 245.913 556.176 246.95C555.632 247.987 554.88 248.881 553.904 249.631C552.992 250.349 551.936 250.939 550.736 251.434C549.552 251.928 548.256 252.295 546.88 252.566V252.806C548.096 252.933 549.456 253.205 550.976 253.62C552.528 254.034 553.872 254.609 555.04 255.359ZM547.792 249.647C548.528 248.881 549.04 248.035 549.328 247.141C549.616 246.232 549.76 245.147 549.76 243.902C549.76 241.812 549.12 240.185 547.84 239.004C546.56 237.823 544.544 237.233 541.792 237.233C541.152 237.233 540.352 237.249 539.376 237.281C538.416 237.313 537.6 237.329 536.944 237.345V251.912H540.736C542.368 251.912 543.776 251.721 544.944 251.354C546.128 250.955 547.072 250.396 547.792 249.647ZM551.952 261.741C551.952 259.507 551.104 257.656 549.424 256.22C547.728 254.784 545.328 254.066 542.176 254.066C540.896 254.066 539.824 254.082 538.944 254.114C538.064 254.146 537.408 254.162 536.96 254.178V267.517C536.96 268.634 537.472 269.48 538.496 270.054C539.52 270.629 540.928 270.916 542.752 270.916C545.728 270.916 548.016 270.15 549.584 268.602C551.168 267.023 551.952 264.741 551.952 261.741Z" fill="white"/>
<path d="M541.456 228.266H537.472V236.132H541.456V228.266Z" fill="white"/>
<path d="M547.952 228.266H543.968V236.132H547.952V228.266Z" fill="white"/>
<path d="M541.456 271.825H537.472V279.691H541.456V271.825Z" fill="white"/>
<path d="M547.952 271.825H543.968V279.691H547.952V271.825Z" fill="white"/>
<defs>
<linearGradient id="paint0_linear_1380_5501" x1="0" y1="190.432" x2="533.6" y2="190.432" gradientUnits="userSpaceOnUse">
<stop stop-color="#F57A00"/>
<stop offset="1" stop-color="#7103A4"/>
</linearGradient>
<linearGradient id="paint1_linear_1380_5501" x1="18.4958" y1="470.664" x2="76.6238" y2="470.664" gradientUnits="userSpaceOnUse">
<stop stop-color="#F57A00"/>
<stop offset="1" stop-color="#7103A4"/>
</linearGradient>
<linearGradient id="paint2_linear_1380_5501" x1="106.352" y1="442.248" x2="164.48" y2="442.248" gradientUnits="userSpaceOnUse">
<stop stop-color="#F57A00"/>
<stop offset="1" stop-color="#7103A4"/>
</linearGradient>
<linearGradient id="paint3_linear_1380_5501" x1="198.064" y1="408.218" x2="256.192" y2="408.218" gradientUnits="userSpaceOnUse">
<stop stop-color="#F57A00"/>
<stop offset="1" stop-color="#7103A4"/>
</linearGradient>
<linearGradient id="paint4_linear_1380_5501" x1="290.784" y1="373.475" x2="348.912" y2="373.475" gradientUnits="userSpaceOnUse">
<stop stop-color="#F57A00"/>
<stop offset="1" stop-color="#7103A4"/>
</linearGradient>
<linearGradient id="paint5_linear_1380_5501" x1="386.816" y1="340.97" x2="444.944" y2="340.97" gradientUnits="userSpaceOnUse">
<stop stop-color="#F57A00"/>
<stop offset="1" stop-color="#7103A4"/>
</linearGradient>
<linearGradient id="paint6_linear_1380_5501" x1="230.607" y1="278.177" x2="230.059" y2="377.54" gradientUnits="userSpaceOnUse">
<stop stop-color="#007AC3"/>
<stop offset="1" stop-color="#0057A2"/>
</linearGradient>
<linearGradient id="paint7_linear_1380_5501" x1="482.656" y1="304.582" x2="540.784" y2="304.582" gradientUnits="userSpaceOnUse">
<stop stop-color="#F57A00"/>
<stop offset="1" stop-color="#7103A4"/>
</linearGradient>
<linearGradient id="paint8_linear_1380_5501" x1="113.792" y1="124.908" x2="191.2" y2="124.908" gradientUnits="userSpaceOnUse">
<stop stop-color="#F57A00"/>
<stop offset="1" stop-color="#7103A4"/>
</linearGradient>
<linearGradient id="paint9_linear_1380_5501" x1="306.064" y1="87.1563" x2="383.472" y2="87.1563" gradientUnits="userSpaceOnUse">
<stop stop-color="#F57A00"/>
<stop offset="1" stop-color="#7103A4"/>
</linearGradient>
<linearGradient id="paint10_linear_1380_5501" x1="21.52" y1="226.845" x2="106.352" y2="226.845" gradientUnits="userSpaceOnUse">
<stop stop-color="#F57A00"/>
<stop offset="1" stop-color="#7103A4"/>
</linearGradient>
<linearGradient id="paint11_linear_1380_5501" x1="30.176" y1="226.845" x2="97.696" y2="226.845" gradientUnits="userSpaceOnUse">
<stop stop-color="#F57A00"/>
<stop offset="1" stop-color="#7103A4"/>
</linearGradient>
<linearGradient id="paint12_linear_1380_5501" x1="500.64" y1="253.906" x2="584" y2="253.906" gradientUnits="userSpaceOnUse">
<stop stop-color="#F57A00"/>
<stop offset="1" stop-color="#7103A4"/>
</linearGradient>
<linearGradient id="paint13_linear_1380_5501" x1="509.136" y1="253.906" x2="575.504" y2="253.906" gradientUnits="userSpaceOnUse">
<stop stop-color="#F57A00"/>
<stop offset="1" stop-color="#7103A4"/>
</linearGradient>
<clipPath id="clip0_1380_5501">
<rect width="263.912" height="342.076" fill="white" transform="translate(170.482 150.446)"/>
</clipPath>
</defs>
</svg>
