<svg width="637" height="425" viewBox="0 0 637 425" fill="none" xmlns="http://www.w3.org/2000/svg">
<mask id="mask0_1377_3426" style="mask-type:luminance" maskUnits="userSpaceOnUse" x="0" y="0" width="637" height="425">
<path d="M636.5 0.666016V424.333H0.5V0.666016H636.5Z" fill="white" stroke="white"/>
</mask>
<g mask="url(#mask0_1377_3426)">
<path d="M343.725 404.364C334.638 393.917 326.059 382.706 320.878 369.881C315.697 357.056 314.254 342.192 319.519 329.452C320.284 327.499 321.473 325.46 323.426 324.866C325.974 324.102 328.522 325.97 330.306 327.839C334.213 331.915 337.27 336.587 340.073 341.428C349.671 357.82 356.55 375.826 360.542 394.426C361.476 398.928 362.666 407.251 357.654 410.139C352.474 413.027 346.868 407.931 343.725 404.364Z" fill="white"/>
<path d="M370.734 361.557C353.067 388.821 326.483 407.846 296.842 422.115C293.189 423.898 289.028 423.389 285.376 421.69C271.107 414.811 260.235 402.071 252.931 387.972C245.627 373.873 241.635 358.415 237.898 342.957C235.265 331.916 232.802 320.874 231.273 309.663C228.64 289.704 229.32 269.405 225.243 249.7C222.61 236.79 212.333 226.768 205.708 215.472C200.782 207.064 195.771 197.126 199.508 188.208C201.037 184.641 203.84 181.669 206.982 179.46C210.21 177.252 213.947 175.638 217.769 174.874C221.76 174.11 225.922 174.11 229.999 174.364C241.805 174.874 254.545 176.742 262.868 185.066C264.907 187.019 266.605 189.397 267.455 192.115C268.898 196.787 267.709 201.798 266.605 206.469C263.802 218.615 262.019 231.44 264.822 243.585C266.265 249.615 268.729 255.391 271.107 261.166C282.658 289.704 289.877 319.855 301.343 348.393C306.524 342.702 311.45 336.927 316.546 331.236C319.943 327.499 323.341 323.762 327.502 320.874C331.664 317.987 336.59 316.033 341.601 316.373C347.971 316.798 353.577 320.789 358.673 324.611C363.005 327.839 367.421 331.151 369.969 335.823C374.471 343.297 375.405 354.423 370.734 361.557Z" fill="#F0C49B"/>
<path d="M213.777 198.401C217.26 202.393 223.12 202.562 225.668 200.949C226.517 203.497 228.726 205.62 231.274 206.469C233.907 207.319 236.879 206.894 239.088 205.28C240.192 207.234 244.353 209.017 246.307 208.168C248.26 207.234 249.874 205.79 251.488 204.346C256.669 199.59 261.595 194.494 266.266 189.143C265.417 187.699 264.313 186.34 263.039 185.151C254.63 176.828 241.89 174.959 230.17 174.449C226.093 174.28 221.931 174.195 217.939 174.959C214.117 175.723 210.38 177.252 207.153 179.545C203.925 181.754 201.122 184.726 199.678 188.294C198.235 191.861 198.15 195.598 198.829 199.335C200.698 200.949 203.076 202.138 205.539 202.477C208.851 202.817 212.758 201.543 213.777 198.401Z" fill="#D5AC94"/>
<path d="M370.309 335.907C367.676 331.236 363.26 327.923 359.013 324.696C353.832 320.874 348.311 316.882 341.941 316.457C336.93 316.118 332.004 318.071 327.842 320.959C324.53 323.252 321.727 326.055 319.009 329.027C331.834 347.713 338.289 370.135 343.045 392.897C353.662 383.809 363.09 373.532 370.819 361.642C375.405 354.422 374.471 343.296 370.309 335.907Z" fill="#D5AC94"/>
<path d="M229.999 105.738C229.744 100.982 229.404 96.2257 229.999 91.4695C230.254 89.6859 230.593 87.8173 231.613 86.2885C232.632 84.7597 234.5 83.6556 236.284 83.9953C239.087 84.5049 240.276 87.8173 240.785 90.6201C245.457 114.317 244.013 139.457 252.591 162.049C254.884 167.994 257.857 173.855 258.791 180.14C259.725 186.51 258.282 193.729 253.101 197.466C248.175 201.033 241.295 200.609 235.774 198.231C234.076 197.466 232.377 196.532 231.103 195.173C228.555 192.54 227.791 188.633 227.451 184.981C226.771 178.101 227.196 171.137 228.725 164.342C229.829 159.246 232.802 154.83 232.632 149.564C232.122 135.04 230.933 120.347 229.999 105.738Z" fill="#F0C49B"/>
<path d="M253.186 163.322C249.194 160.01 244.353 157.462 239.172 157.037C238.068 156.952 236.879 156.867 236.114 156.103C235.52 155.508 235.35 154.659 235.18 153.81C234.161 148.714 233.227 143.702 232.208 138.606C232.377 142.259 232.547 145.911 232.717 149.648C232.887 154.914 229.914 159.33 228.81 164.426C227.366 171.221 226.857 178.185 227.536 185.065C227.876 188.717 228.64 192.539 231.188 195.257C232.462 196.616 234.161 197.55 235.86 198.315C241.38 200.778 248.345 201.202 253.186 197.55C258.367 193.728 259.896 186.509 258.877 180.224C257.942 174.363 255.309 168.928 253.186 163.322Z" fill="#D5AC94"/>
<path d="M257.433 174.363C256.583 173.684 255.819 172.92 254.97 172.24C253.356 170.881 251.742 169.437 249.874 168.503C245.627 166.295 240.531 166.21 235.86 167.144C235.265 163.662 234.756 160.18 233.991 156.782C233.651 155.253 233.227 153.64 232.462 152.281C231.868 156.442 229.66 160.18 228.725 164.426C227.281 171.221 226.772 178.185 227.451 185.065C227.791 188.717 228.555 192.539 231.103 195.257C232.377 196.616 234.076 197.55 235.775 198.315C241.295 200.778 248.26 201.202 253.101 197.55C258.282 193.728 259.811 186.509 258.792 180.224C258.537 178.185 258.027 176.317 257.433 174.363Z" fill="white"/>
<path d="M234.417 107.267C236.455 107.097 238.493 107.352 240.362 108.201" stroke="#191818" stroke-miterlimit="10" stroke-linecap="round" stroke-linejoin="round"/>
<path d="M234.756 110.239C236.285 109.645 238.153 109.815 239.597 110.749" stroke="#191818" stroke-miterlimit="10" stroke-linecap="round" stroke-linejoin="round"/>
<path d="M235.605 128.33C236.964 128.16 238.238 128.245 239.597 128.5" stroke="#191818" stroke-miterlimit="10" stroke-linecap="round" stroke-linejoin="round"/>
<path d="M235.605 130.454C237.134 130.539 238.578 130.708 240.107 130.793" stroke="#191818" stroke-miterlimit="10" stroke-linecap="round" stroke-linejoin="round"/>
<path d="M235.605 157.462C237.983 157.038 240.531 157.122 242.909 157.717" stroke="#191818" stroke-miterlimit="10" stroke-linecap="round" stroke-linejoin="round"/>
<path d="M316.971 353.403C316.716 346.693 315.952 340.068 314.848 333.528C310.601 338.285 306.354 343.126 302.023 347.967C305.93 363.51 308.393 381.346 308.223 395.445C315.527 382.535 317.481 368.181 316.971 353.403Z" fill="#D5AC94"/>
<path d="M245.372 255.645C245.032 247.916 245.202 238.573 251.912 234.667C242.06 237.894 231.528 239.168 221.166 238.573C223.119 242.141 224.648 245.793 225.413 249.785C229.489 269.489 228.81 289.788 231.443 309.748C232.887 320.959 235.435 332 238.068 343.041C241.635 358.075 245.627 373.108 252.506 386.867C249.789 375.316 248.09 363.425 247.156 351.62C244.608 319.685 246.901 287.58 245.372 255.645Z" fill="#D5AC94"/>
<path d="M196.79 175.298C194.497 176.572 193.733 179.63 194.242 182.178C194.752 184.726 196.366 186.934 198.064 188.973C199.848 191.096 201.717 193.134 204.01 194.748C205.029 195.428 206.133 196.107 207.407 196.277C208.596 196.532 209.955 196.277 210.889 195.428C212.758 193.814 212.163 190.841 211.399 188.548C209.53 183.367 204.689 170.797 196.79 175.298Z" fill="#F0C49B"/>
<path d="M211.399 188.548C209.87 184.386 206.473 175.383 201.037 174.449C203.245 181.414 207.067 187.784 212.163 193.05C212.333 191.606 211.909 189.992 211.399 188.548Z" fill="#D5AC94"/>
<path d="M210.719 161.624C208.426 161.624 205.963 162.388 204.604 164.172C203.16 166.04 202.991 168.673 203.245 171.051C203.925 176.487 206.473 181.498 209.445 186.169C211.399 189.312 213.777 192.539 217.344 193.728C219.128 194.323 221.251 194.323 222.695 193.134C224.394 191.605 224.309 188.972 224.054 186.679C223.29 180.988 221.931 175.468 219.977 170.117C217.939 164.681 217.005 161.708 210.719 161.624Z" fill="#F0C49B"/>
<path d="M222.696 193.134C224.395 191.605 224.31 188.972 224.055 186.679C223.29 180.988 221.931 175.467 219.978 170.117C218.449 166.04 217.6 163.407 214.542 162.303C215.392 173.004 218.109 183.536 222.611 193.303C222.526 193.218 222.611 193.134 222.696 193.134Z" fill="#D5AC94"/>
<path d="M217.259 165.785C217.174 170.032 218.448 174.109 219.722 178.101C222.016 185.32 224.309 192.709 228.556 198.994C229.32 200.098 230.084 201.203 231.273 201.797C232.462 202.477 233.991 202.561 235.01 201.712C235.775 201.118 236.115 200.183 236.369 199.249C238.578 190.756 233.821 182.177 233.057 173.429C232.632 168.163 233.652 162.728 232.632 157.462C232.462 156.443 232.123 155.339 231.443 154.489C230.424 153.215 228.556 152.706 226.857 152.875C220.487 153.725 217.344 159.925 217.259 165.785Z" fill="#F0C49B"/>
<path d="M269.493 196.701C270.767 193.899 270.257 190.586 268.814 187.953C267.37 185.235 265.161 183.112 262.868 181.074C259.98 178.441 257.008 175.978 253.95 173.6C252.252 172.241 250.383 170.967 248.345 170.287C245.966 169.523 243.503 169.608 241.04 169.863C235.01 170.287 229.065 171.052 223.204 172.156C221.506 172.495 219.637 172.92 218.618 174.279C217.429 175.808 217.684 178.016 218.618 179.715C220.571 183.112 224.648 184.556 228.47 185.575C232.802 186.679 237.133 187.529 241.635 188.038C243.418 191.351 242.654 195.343 241.89 198.995C241.125 202.477 240.446 205.874 239.681 209.357C239.087 212.074 238.492 214.877 238.662 217.68C238.832 220.483 239.936 223.371 242.06 225.154C245.287 227.787 250.128 227.278 253.61 225.069C257.093 222.861 259.471 219.294 261.424 215.642C264.737 209.441 266.52 203.156 269.493 196.701Z" fill="#F0C49B"/>
<path d="M246.647 187.953C246.477 186.764 246.137 185.659 245.373 184.81C243.929 183.281 241.635 183.196 239.512 183.111C232.208 182.857 224.989 181.413 218.194 179.035C218.279 179.289 218.364 179.544 218.534 179.714C220.487 183.111 224.564 184.555 228.386 185.575C232.717 186.679 237.049 187.528 241.551 188.038C243.334 191.35 242.57 195.342 241.805 198.994C241.041 202.476 240.361 205.874 239.597 209.356C239.342 210.46 239.087 211.564 238.918 212.668C240.701 206.978 243.164 201.457 245.288 195.851C246.137 193.388 246.986 190.671 246.647 187.953Z" fill="#D5AC94"/>
<path d="M637 458.042C658.403 396.21 637.255 331.236 646.003 266.347C646.597 262.016 647.107 257.344 644.984 253.522C642.096 248.256 635.641 246.558 629.865 245.114C604.98 239.084 581.793 230.93 559.031 219.124C543.064 220.313 527.266 214.538 511.298 215.132C502.041 215.472 492.698 217.765 483.95 220.738C456.686 229.911 429.508 239.084 402.244 248.256C399.271 249.276 395.959 250.55 394.515 253.352C393.496 255.391 393.666 257.769 393.836 260.062C394.77 269.66 396.469 279.172 398.252 288.6C404.282 321.979 410.313 355.272 416.428 388.651C419.146 403.684 421.949 418.803 426.96 433.241C429.423 440.291 436.557 443.603 442.587 447.935C460.423 460.59 481.317 468.404 502.72 472.65C536.354 479.275 606.848 474.519 637 458.042Z" fill="#A535C5"/>
<path opacity="0.5" d="M434.009 371.749C434.434 362.661 436.897 353.913 438.596 344.995C441.398 330.047 441.993 314.419 438.256 299.64C434.519 284.862 426.365 270.933 413.965 262.015C408.189 257.853 401.734 254.881 395.025 252.417C394.855 252.672 394.6 253.012 394.43 253.352C393.411 255.39 393.581 257.768 393.751 260.061C394.685 269.659 396.384 279.171 398.167 288.599C404.198 321.978 410.228 355.272 416.343 388.651C419.061 403.684 421.864 418.802 426.875 433.241C429.338 440.29 436.472 443.602 442.502 447.934C449.807 453.115 457.706 457.531 465.859 461.184C451.76 441.479 441.738 418.717 436.557 395.021C434.858 387.377 433.669 379.563 434.009 371.749Z" fill="white"/>
<g opacity="0.5">
<path d="M558.351 236.366C563.193 233.223 567.524 229.401 571.261 225.07C567.185 223.201 563.108 221.163 559.031 219.124C543.063 220.313 527.266 214.538 511.298 215.132C502.041 215.472 492.698 217.765 483.95 220.738C480.637 221.842 477.325 222.946 473.928 224.135C487.942 237.045 505.948 246.133 524.888 246.218C536.693 246.218 548.499 242.821 558.351 236.366Z" fill="url(#paint0_linear_1377_3426)"/>
</g>
<path opacity="0.5" d="M617.975 316.798C590.966 357.226 547.31 386.188 499.493 395.191C525.483 396.805 550.113 390.35 571.941 375.996C593.684 361.728 609.142 341.344 617.975 316.798Z" fill="white"/>
<path d="M396.893 250.04C387.211 259.977 377.104 269.66 366.657 278.917C350.944 292.931 338.629 308.219 323.341 324.527C334.807 334.973 341.007 348.902 347.037 363.171C351.709 374.297 356.465 385.509 358.164 397.484C358.758 401.816 358.928 406.572 356.465 410.224C370.309 402.495 382.455 391.709 394.94 381.857C405.726 373.278 416.853 364.36 423.477 352.3C427.724 344.571 429.932 335.908 430.867 327.159C433.33 303.633 426.025 279.257 411.077 260.996C407.425 256.325 402.754 250.465 396.893 250.04Z" fill="#A535C5"/>
<path opacity="0.5" d="M363.43 381.177C360.118 368.182 354.512 355.951 348.227 344.146C343.131 334.633 337.441 325.206 329.797 317.646C327.673 319.94 325.55 322.233 323.427 324.611C334.893 335.058 341.093 348.987 347.123 363.256C351.794 374.382 356.551 385.593 358.249 397.569C358.844 401.9 359.014 406.657 356.551 410.309C359.948 408.44 363.175 406.317 366.403 404.109C366.403 396.295 365.299 388.651 363.43 381.177Z" fill="url(#paint1_linear_1377_3426)"/>
<path d="M564.127 224.22C562.174 221.502 560.985 218.274 560.135 215.047C553.426 190.841 558.522 164.087 569.478 141.41C566.42 141.58 563.278 141.749 560.22 142.089C559.88 142.089 559.456 142.174 559.116 142.344C558.776 142.599 558.606 143.023 558.352 143.448C556.908 147.1 554.615 150.328 551.812 153.046C548.584 156.103 544.677 158.311 540.686 160.35C524.463 168.758 507.137 174.873 489.131 178.186C486.243 178.695 483.61 179.205 480.808 178.356C486.328 193.134 486.243 209.866 480.638 224.644C487.262 229.57 494.652 233.477 502.381 236.45C507.562 238.488 512.997 240.017 518.518 240.782C535.335 242.99 552.406 236.535 564.127 224.22Z" fill="#F0C49B"/>
<path d="M517.499 201.883C528.795 199.759 540.261 195.852 548.415 187.784C552.832 183.452 556.059 178.271 558.947 172.836C560.985 161.964 564.637 151.347 569.394 141.495C566.336 141.665 563.193 141.835 560.136 142.175C559.796 142.175 559.371 142.26 559.032 142.429C558.692 142.684 558.522 143.109 558.267 143.534C556.823 147.186 554.53 150.413 551.727 153.131C548.5 156.189 544.593 158.397 540.601 160.435C524.379 168.844 507.052 174.959 489.047 178.271C486.159 178.781 483.526 179.29 480.723 178.441C483.696 186.51 485.055 195.088 484.715 203.666C495.756 204.516 506.713 203.921 517.499 201.883Z" fill="#D5AC94"/>
<path d="M570.668 143.279C577.632 134.191 583.577 122.385 586.041 111.089C589.608 94.867 584.851 79.9187 576.698 65.48C573.131 59.195 568.884 53.0798 563.109 48.8331C557.333 44.5864 549.859 42.2083 543.149 44.5864C537.798 38.2164 528.116 34.5643 520.047 33.5451C511.894 32.5259 503.655 34.1396 495.926 36.9424C488.197 39.8302 480.808 43.822 474.183 48.7482C465.18 55.4579 457.876 65.2252 455.923 76.4364C453.375 90.96 459.745 105.229 463.227 119.498C472.994 122.385 483.186 122.895 493.293 124.084C519.453 127.057 545.697 134.531 570.668 143.279Z" fill="#0D0D0D"/>
<path d="M540.006 35.1582C541.96 38.6405 543.064 42.6323 542.979 46.6242C544.593 42.8022 547.226 39.4049 550.538 37.0267" stroke="#0D0D0D" stroke-width="1.5" stroke-miterlimit="10" stroke-linecap="round" stroke-linejoin="round"/>
<path d="M460.934 109.815C460.934 112.957 461.189 116.015 461.104 119.157C460.934 122.555 460.339 126.037 460.085 129.434C459.32 140.815 463.142 151.857 466.794 162.643C468.408 167.315 470.022 172.071 472.57 176.233C475.118 180.394 478.685 184.216 483.271 186.17C486.329 187.444 489.726 187.868 493.124 188.038C507.053 188.718 520.557 184.216 533.552 179.12C539.242 176.912 544.933 174.194 549.095 169.778C553.426 165.191 555.804 159.076 557.758 153.131C563.109 136.993 566.506 119.837 564.043 103.02C563.279 97.5843 561.835 92.3184 561.325 86.8827C560.816 82.1264 560.985 77.2003 559.711 72.6139C557.333 63.9507 550.199 57.0711 541.875 53.5039C533.637 49.9367 524.379 49.2572 515.376 49.8518C507.562 50.3614 499.664 51.8052 492.614 55.2026C480.893 60.8931 472.315 71.6796 466.539 83.3155C466.624 83.91 460.934 101.491 460.934 109.815Z" fill="#F0C49B"/>
<path d="M515.97 107.607C515.97 110.494 514.696 112.873 513.082 112.873C511.469 112.873 510.195 110.494 510.195 107.607C510.195 104.719 511.469 102.341 513.082 102.341C514.611 102.341 515.97 104.719 515.97 107.607Z" fill="#212121"/>
<path d="M483.101 100.132C484.12 104.889 483.526 110.07 481.572 114.486C480.553 116.779 479.194 118.818 477.75 120.941C476.561 122.725 475.372 124.423 474.098 126.122C473.504 126.886 472.909 127.736 472.909 128.67C472.824 130.114 473.928 131.303 474.947 132.322C477.241 134.53 479.619 136.824 481.912 139.032C478.939 138.182 476.391 136.654 474.098 134.7C471.89 132.832 469.512 130.708 469.087 127.821C468.662 125.103 470.106 122.555 471.465 120.177C475.457 113.382 479.109 107.012 483.101 100.132Z" fill="#D5AC94"/>
<path d="M507.477 96.0557C512.318 94.0173 518.349 95.1214 522.171 98.6886" stroke="#212121" stroke-width="1.5" stroke-miterlimit="10" stroke-linecap="round" stroke-linejoin="round"/>
<path d="M564.042 103.02C563.278 97.5843 561.834 92.3184 561.325 86.8827C560.815 82.1264 560.985 77.2003 559.711 72.6139C557.333 63.9507 550.198 57.0711 541.875 53.5039C533.636 49.9367 524.379 49.2572 515.376 49.8518C507.562 50.3614 499.663 51.8052 492.614 55.2026C480.893 60.8931 472.314 71.6796 466.539 83.3155C466.709 83.91 461.273 100.982 461.018 109.39C463.057 102.256 466.199 95.376 470.361 89.2608C469.172 93.6774 469.087 98.4336 470.191 102.935C475.372 93.7623 481.997 85.5238 489.811 78.4743C487.772 83.5703 486.753 89.006 486.923 94.5267C490.405 88.5814 496.605 84.6744 502.975 82.1264C509.345 79.4935 516.14 78.0496 522.595 75.6715C528.71 73.3783 534.571 70.3207 540.346 67.348C538.987 76.1811 539.582 85.4388 541.79 94.102C543.998 102.765 547.565 111.089 551.642 119.072C554.7 125.018 558.182 130.878 562.514 135.804C564.722 124.933 565.571 113.892 564.042 103.02Z" fill="#D5AC94"/>
<path d="M479.024 99.6226C474.183 97.5842 468.153 98.6883 464.331 102.256" stroke="#212121" stroke-width="1.5" stroke-miterlimit="10" stroke-linecap="round" stroke-linejoin="round"/>
<path d="M474.013 156.104C479.873 153.726 486.328 152.791 492.613 153.301C497.624 153.726 503.06 155 507.392 152.537" stroke="#212121" stroke-width="1.5" stroke-miterlimit="10" stroke-linecap="round" stroke-linejoin="round"/>
<path d="M481.742 148.63C482.931 148.12 484.29 148.035 485.479 148.46" stroke="#111111" stroke-width="1.5" stroke-miterlimit="10" stroke-linecap="round" stroke-linejoin="round"/>
<path d="M482.591 161.454C484.205 161.369 485.819 161.03 487.347 160.435" stroke="#111111" stroke-width="1.5" stroke-miterlimit="10" stroke-linecap="round" stroke-linejoin="round"/>
<path d="M475.797 110.409C475.797 113.297 474.523 115.675 472.909 115.675C471.295 115.675 470.021 113.297 470.021 110.409C470.021 107.521 471.295 105.143 472.909 105.143C474.523 105.143 475.797 107.521 475.797 110.409Z" fill="#212121"/>
<path opacity="0.3" d="M467.728 102.765C459.065 103.7 452.186 105.228 452.27 106.163H452.101L453.035 115.166C453.969 123.829 461.783 130.114 470.446 129.18C479.109 128.245 485.394 120.432 484.46 111.768L483.526 102.765C483.441 101.916 476.392 101.831 467.728 102.765Z" fill="black"/>
<g opacity="0.43">
<path opacity="0.5" d="M470.531 129.265C479.194 128.33 485.48 120.517 484.545 111.853L483.611 102.85C483.611 102.681 483.186 102.511 482.592 102.341C476.901 111.174 471.466 120.092 466.2 129.095C467.559 129.35 469.002 129.435 470.531 129.265Z" fill="#454545"/>
<path opacity="0.5" d="M467.728 102.765C467.049 102.85 466.369 102.935 465.69 103.02C462.038 109.305 458.725 115.675 455.583 122.215C456.857 124.169 458.555 125.782 460.594 127.056C465.35 118.648 470.276 110.409 475.372 102.256C473.079 102.256 470.531 102.511 467.728 102.765Z" fill="#454545"/>
</g>
<path d="M467.728 102.765C459.065 103.7 452.185 105.228 452.27 106.163H452.1L453.035 115.166C453.969 123.829 461.783 130.114 470.446 129.18C479.109 128.245 485.394 120.432 484.46 111.768L483.526 102.765C483.441 101.916 476.391 101.831 467.728 102.765Z" stroke="white" stroke-width="2" stroke-miterlimit="10" stroke-linecap="round" stroke-linejoin="round"/>
<path d="M481.912 139.032C479.619 136.824 477.241 134.53 474.948 132.322C473.929 131.303 472.824 130.114 472.909 128.67C472.994 127.736 473.589 126.886 474.098 126.122C475.372 124.423 476.562 122.725 477.751 120.941C479.194 118.903 480.553 116.779 481.573 114.486C483.526 109.985 484.121 104.889 483.101 100.132C484.885 101.746 486.074 103.615 486.838 105.823C488.622 111.259 488.622 117.289 487.603 122.979C486.584 128.67 483.951 133.681 481.912 139.032Z" fill="#F0C49B"/>
<path d="M487.008 130.114C484.036 129.179 480.808 130.623 477.751 130.199C476.052 129.944 474.523 129.179 472.994 128.245C472.994 128.33 472.909 128.5 472.909 128.67C472.824 130.114 473.929 131.303 474.948 132.322C477.071 134.36 479.194 136.399 481.233 138.437C481.573 137.163 482.337 136.059 483.441 135.38C484.97 134.36 487.008 134.19 488.622 134.955C489.471 135.38 490.236 135.974 491.17 136.059C491.34 133.426 489.471 130.878 487.008 130.114Z" fill="#D5AC94"/>
<path d="M483.101 100.132C484.121 104.889 483.526 110.07 481.573 114.486C480.553 116.779 479.194 118.818 477.751 120.941C476.562 122.725 475.372 124.423 474.098 126.122C473.504 126.886 472.909 127.736 472.909 128.67C472.824 130.114 473.929 131.303 474.948 132.322C477.241 134.53 479.619 136.824 481.912 139.032" stroke="#212121" stroke-width="1.5" stroke-miterlimit="10" stroke-linecap="round" stroke-linejoin="round"/>
<path d="M561.579 62.6762C559.116 59.2789 556.653 55.7966 553.256 53.2486C550.113 50.8705 546.376 49.5115 542.724 48.0677C538.223 46.369 533.636 44.6703 528.88 43.821C525.398 43.1415 521.746 42.9717 518.178 42.9717C509.175 43.0566 500.088 44.4155 491.764 47.8978C483.441 51.3801 475.882 56.9857 470.786 64.4598C463.991 74.4819 462.292 86.9671 463.906 99.0277C463.821 95.6303 465.095 92.3179 466.879 89.3453C468.662 86.4575 470.955 83.9095 473.249 81.3615C476.561 77.7943 479.958 74.397 483.186 70.7449C476.221 79.0683 471.975 89.3453 470.616 100.132C477.24 83.8246 492.189 70.8298 507.901 63.0159C499.238 69.7257 493.208 78.8135 489.301 89.0905C495.926 78.4738 507.392 70.7449 519.537 67.8571C514.017 70.1503 508.666 73.3778 503.994 77.1149C517.074 72.0189 531.853 70.7449 543.319 62.6762C542.809 76.0107 545.102 88.9206 549.943 101.406C548.754 95.8002 548.839 89.4302 550.453 83.8246C549.349 94.1015 551.642 104.463 554.19 114.401C555.379 119.242 556.738 124.168 559.796 128.075C560.9 129.519 562.598 130.878 564.382 130.368C565.401 130.028 566.166 129.009 566.59 127.99C567.355 126.121 567.525 124.083 567.61 122.045C568.459 102.34 573.13 78.8985 561.579 62.6762Z" fill="#0D0D0D"/>
<path opacity="0.5" d="M492.783 61.7432C484.204 64.2062 476.476 69.557 471.21 76.7764C466.963 82.6368 464.33 89.6013 463.566 96.8206C463.651 97.5001 463.736 98.2645 463.82 98.944C463.736 95.5466 465.01 92.2342 466.793 89.2616C468.577 86.3738 470.87 83.8258 473.163 81.2778C476.476 77.7106 479.873 74.3133 483.1 70.6612C482.421 71.4256 481.826 72.2749 481.232 73.1242C484.714 68.9625 488.451 65.0556 492.783 61.7432Z" fill="#0D0D0D"/>
<path opacity="0.5" d="M511.808 59.3643C509.26 59.7889 507.052 60.6383 504.589 61.4027C500.257 62.7616 496.52 65.3096 492.868 68.0275C490.405 69.896 488.027 71.8495 485.819 73.9728C479.024 80.6825 474.607 89.1759 470.955 98.0089C470.87 98.6884 470.785 99.3679 470.7 100.132C476.986 84.5895 490.915 72.0193 505.863 64.1205C507.901 62.4219 510.025 60.8931 512.233 59.3643C512.233 59.4492 511.723 59.3643 511.808 59.3643Z" fill="#0D0D0D"/>
<path opacity="0.5" d="M496.605 77.4549C494.396 80.0879 492.358 83.1455 490.489 86.2031C490.065 87.1373 489.64 88.1565 489.3 89.1757C495.585 79.1536 506.202 71.5945 517.668 68.452C522.849 66.1588 528.2 64.2903 533.041 61.4875C519.367 60.8929 505.523 66.9232 496.605 77.4549Z" fill="#0D0D0D"/>
<path opacity="0.5" d="M562.174 114.486C558.182 109.305 555.888 103.105 554.53 96.7349C553.171 90.3649 552.831 83.825 552.406 77.3701C551.557 79.6633 550.877 82.0414 550.453 84.5045C549.434 94.6116 551.727 104.719 554.19 114.571C555.379 119.412 556.738 124.338 559.795 128.245C560.9 129.689 562.598 131.048 564.382 130.538C565.401 130.199 566.165 129.179 566.59 128.16C567.354 126.292 567.524 124.253 567.609 122.215C567.609 121.62 567.694 120.941 567.694 120.261C565.741 118.478 563.787 116.609 562.174 114.486Z" fill="#0D0D0D"/>
<path opacity="0.5" d="M546.036 57.3257C535.08 66.6684 520.132 69.4712 507.392 75.9261C519.622 71.8493 532.872 70.0657 543.318 62.6765C542.809 75.7562 545.017 88.4113 549.603 100.642C546.036 86.4578 544.338 71.9342 546.036 57.3257Z" fill="#0D0D0D"/>
<path opacity="0.2" d="M556.737 66.2437C555.633 74.1425 555.548 82.2111 557.417 89.9401C559.285 97.669 563.362 105.058 569.562 109.984C564.381 104.634 563.362 96.5649 562.683 89.1757C563.787 94.3566 565.486 99.4526 568.458 103.784C571.431 108.116 575.932 111.598 581.113 112.702C570.157 105.228 563.023 91.9785 563.277 78.7289C560.984 84.5893 560.559 90.6195 562.428 96.6498C556.907 87.2222 555.294 77.0302 556.737 66.2437Z" fill="#4A3838"/>
<path opacity="0.2" d="M581.454 104.719C571.177 94.1021 565.741 78.899 567.015 64.2056C570.582 78.3894 573.555 92.3185 581.454 104.719Z" fill="#4A3838"/>
<path opacity="0.2" d="M479.534 52.9946C489.386 46.1999 500.937 42.3779 512.488 39.3203C507.052 41.6135 501.446 43.9916 497.539 48.4082C506.627 42.293 517.669 39.1504 528.625 39.5751C513.507 43.8218 498.219 48.4931 485.224 57.1563C489.046 52.4 493.548 48.2383 498.559 44.841C489.471 48.663 480.808 53.759 473.758 60.6386C466.709 67.5182 461.188 76.1814 458.725 85.6939C460.339 79.239 461.528 73.3786 465.18 67.6031C468.917 61.8277 473.928 56.9015 479.534 52.9946Z" fill="#4A3838"/>
<path opacity="0.2" d="M514.186 59.7041C520.386 57.5807 526.501 55.2026 532.532 52.6546C534.655 51.7203 536.778 50.7861 538.392 49.0874C533.211 51.1258 528.03 53.2491 522.849 55.2875C525.737 54.1834 529.304 49.6819 531.088 47.2189C529.304 46.8791 524.888 51.9751 523.359 53.1642C520.301 55.4574 517.329 57.6657 514.186 59.7041Z" fill="#4A3838"/>
<path opacity="0.2" d="M507.986 52.6544C501.955 55.8818 496.18 59.9586 492.613 65.7341C493.972 63.4409 498.049 61.4874 500.257 60.1285C503.06 58.3449 505.947 56.7312 508.835 55.1174C514.526 51.89 519.622 48.4077 524.293 43.9062C519.707 47.7283 513.252 49.8516 507.986 52.6544Z" fill="#4A3838"/>
<path opacity="0.3" d="M511.809 97.4998C503.145 98.4341 496.266 99.9629 496.351 100.897H496.181L497.115 109.9C498.049 118.563 505.863 124.848 514.526 123.914C523.19 122.98 529.475 115.166 528.54 106.503L527.606 97.4998C527.521 96.6505 520.387 96.5655 511.809 97.4998Z" fill="black"/>
<g opacity="0.43">
<path opacity="0.5" d="M511.809 97.4999C511.639 97.4999 511.469 97.4999 511.214 97.5848C507.392 104.379 503.91 111.344 500.767 118.563C501.787 119.752 502.976 120.772 504.25 121.621C508.326 113.297 512.828 105.059 517.584 97.0752C515.801 97.0752 513.847 97.2451 511.809 97.4999Z" fill="#454545"/>
<path opacity="0.5" d="M527.776 99.5381C522.934 107.522 518.433 115.675 514.271 123.999C514.356 123.999 514.441 123.999 514.526 123.999C523.189 123.065 529.474 115.251 528.54 106.588L527.776 99.5381Z" fill="#454545"/>
</g>
<path d="M511.809 97.4998C503.145 98.4341 496.266 99.9629 496.351 100.897H496.181L497.115 109.9C498.049 118.563 505.863 124.848 514.526 123.914C523.19 122.98 529.475 115.166 528.54 106.503L527.606 97.4998C527.521 96.6505 520.387 96.5655 511.809 97.4998Z" stroke="white" stroke-width="2" stroke-miterlimit="10" stroke-linecap="round" stroke-linejoin="round"/>
<path d="M482.336 103.614C485.904 99.7923 492.104 98.6881 496.775 101.066" stroke="white" stroke-width="2" stroke-miterlimit="10" stroke-linecap="round" stroke-linejoin="round"/>
<path d="M527.606 97.5845L577.377 120.771" stroke="white" stroke-width="2" stroke-miterlimit="10" stroke-linecap="round" stroke-linejoin="round"/>
<path d="M568.204 120.94C570.497 119.242 573.81 118.562 576.273 120.006C578.396 121.195 579.5 123.658 579.585 126.121C579.67 128.499 578.991 130.878 578.056 133.171C576.952 135.804 575.678 138.437 574.149 140.815C572.451 143.533 570.242 146.25 567.27 147.524C564.297 148.798 560.22 148.034 558.691 145.146C557.587 143.108 557.927 140.645 558.437 138.352C559.965 131.812 562.598 125.017 568.204 120.94Z" fill="#F0C49B"/>
<path d="M568.459 125.613C569.903 124.594 571.941 124.084 573.555 125.018C574.914 125.783 575.593 127.311 575.678 128.84C575.763 130.369 575.254 131.898 574.744 133.257C574.064 134.955 573.215 136.569 572.281 138.098C571.177 139.882 569.818 141.58 567.949 142.345C566.081 143.109 563.533 142.684 562.514 140.816C561.834 139.542 562.004 137.928 562.344 136.484C563.193 132.492 564.892 128.161 568.459 125.613Z" fill="#D5AC94"/>
</g>
<g opacity="0.5">
<path d="M435.029 97.3295V46.1147L387.721 20.5498L340.498 46.1147V97.3295L387.721 122.979L435.029 97.3295Z" fill="url(#paint2_linear_1377_3426)"/>
</g>
<path d="M426.79 92.9134V50.6166L387.72 29.3833L348.736 50.6166V92.9134L387.72 114.062L426.79 92.9134Z" stroke="url(#paint3_linear_1377_3426)" stroke-width="2" stroke-miterlimit="10" stroke-linecap="round"/>
<path d="M387.721 23.4376C389.316 23.4376 390.609 22.1447 390.609 20.5498C390.609 18.955 389.316 17.6621 387.721 17.6621C386.126 17.6621 384.833 18.955 384.833 20.5498C384.833 22.1447 386.126 23.4376 387.721 23.4376Z" fill="url(#paint4_linear_1377_3426)"/>
<path d="M387.721 126.207C389.316 126.207 390.609 124.914 390.609 123.319C390.609 121.724 389.316 120.431 387.721 120.431C386.126 120.431 384.833 121.724 384.833 123.319C384.833 124.914 386.126 126.207 387.721 126.207Z" fill="url(#paint5_linear_1377_3426)"/>
<path d="M435.029 49.5128C436.623 49.5128 437.916 48.2199 437.916 46.625C437.916 45.0302 436.623 43.7373 435.029 43.7373C433.434 43.7373 432.141 45.0302 432.141 46.625C432.141 48.2199 433.434 49.5128 435.029 49.5128Z" fill="url(#paint6_linear_1377_3426)"/>
<path d="M435.029 100.218C436.623 100.218 437.916 98.925 437.916 97.3301C437.916 95.7353 436.623 94.4424 435.029 94.4424C433.434 94.4424 432.141 95.7353 432.141 97.3301C432.141 98.925 433.434 100.218 435.029 100.218Z" fill="url(#paint7_linear_1377_3426)"/>
<path d="M343.386 46.625C343.386 48.2388 342.112 49.5128 340.498 49.5128C338.884 49.5128 337.61 48.2388 337.61 46.625C337.61 45.0113 338.884 43.7373 340.498 43.7373C342.112 43.7373 343.386 45.0113 343.386 46.625Z" fill="url(#paint8_linear_1377_3426)"/>
<path d="M343.386 97.3301C343.386 98.9439 342.112 100.218 340.498 100.218C338.884 100.218 337.61 98.9439 337.61 97.3301C337.61 95.7164 338.884 94.4424 340.498 94.4424C342.112 94.4424 343.386 95.7164 343.386 97.3301Z" fill="url(#paint9_linear_1377_3426)"/>
<g opacity="0.5">
<path d="M416.343 213.263V162.048L369.12 136.398L321.812 162.048V213.263L369.12 238.913L416.343 213.263Z" fill="url(#paint10_linear_1377_3426)"/>
</g>
<path d="M408.104 208.847V166.465L369.12 145.317L330.051 166.465V208.847L369.12 229.995L408.104 208.847Z" stroke="url(#paint11_linear_1377_3426)" stroke-width="2" stroke-miterlimit="10" stroke-linecap="round"/>
<path d="M372.008 136.399C372.008 138.013 370.734 139.287 369.12 139.287C367.506 139.287 366.232 138.013 366.232 136.399C366.232 134.785 367.506 133.511 369.12 133.511C370.734 133.511 372.008 134.785 372.008 136.399Z" fill="url(#paint12_linear_1377_3426)"/>
<path d="M372.008 239.168C372.008 240.782 370.734 242.056 369.12 242.056C367.506 242.056 366.232 240.782 366.232 239.168C366.232 237.555 367.506 236.281 369.12 236.281C370.734 236.281 372.008 237.555 372.008 239.168Z" fill="url(#paint13_linear_1377_3426)"/>
<path d="M416.343 165.362C417.938 165.362 419.231 164.069 419.231 162.474C419.231 160.879 417.938 159.586 416.343 159.586C414.748 159.586 413.455 160.879 413.455 162.474C413.455 164.069 414.748 165.362 416.343 165.362Z" fill="url(#paint14_linear_1377_3426)"/>
<path d="M419.231 213.264C419.231 214.877 417.957 216.151 416.343 216.151C414.729 216.151 413.455 214.877 413.455 213.264C413.455 211.65 414.729 210.376 416.343 210.376C417.957 210.291 419.231 211.65 419.231 213.264Z" fill="url(#paint15_linear_1377_3426)"/>
<path d="M321.813 165.362C323.407 165.362 324.7 164.069 324.7 162.474C324.7 160.879 323.407 159.586 321.813 159.586C320.218 159.586 318.925 160.879 318.925 162.474C318.925 164.069 320.218 165.362 321.813 165.362Z" fill="url(#paint16_linear_1377_3426)"/>
<path d="M324.785 213.264C324.785 214.877 323.511 216.151 321.897 216.151C320.283 216.151 319.009 214.877 319.009 213.264C319.009 211.65 320.283 210.376 321.897 210.376C323.426 210.291 324.785 211.65 324.785 213.264Z" fill="url(#paint17_linear_1377_3426)"/>
<g opacity="0.5">
<path d="M146.51 120.771V52.8244L83.8292 18.7661L21.0635 52.8244V120.771L83.8292 154.829L146.51 120.771Z" fill="url(#paint18_linear_1377_3426)"/>
</g>
<path d="M135.638 114.911V58.6847L83.8291 30.5718L31.9348 58.6847V114.911L83.8291 143.024L135.638 114.911Z" stroke="url(#paint19_linear_1377_3426)" stroke-width="2" stroke-miterlimit="10" stroke-linecap="round"/>
<path d="M83.8291 22.5883C85.9399 22.5883 87.6511 20.8772 87.6511 18.7663C87.6511 16.6555 85.9399 14.9443 83.8291 14.9443C81.7182 14.9443 80.0071 16.6555 80.0071 18.7663C80.0071 20.8772 81.7182 22.5883 83.8291 22.5883Z" fill="url(#paint20_linear_1377_3426)"/>
<path d="M83.8291 158.991C85.9399 158.991 87.6511 157.28 87.6511 155.169C87.6511 153.058 85.9399 151.347 83.8291 151.347C81.7182 151.347 80.0071 153.058 80.0071 155.169C80.0071 157.28 81.7182 158.991 83.8291 158.991Z" fill="url(#paint21_linear_1377_3426)"/>
<path d="M146.51 57.2412C148.621 57.2412 150.332 55.53 150.332 53.4192C150.332 51.3083 148.621 49.5972 146.51 49.5972C144.399 49.5972 142.688 51.3083 142.688 53.4192C142.688 55.53 144.399 57.2412 146.51 57.2412Z" fill="url(#paint22_linear_1377_3426)"/>
<path d="M146.51 124.593C148.621 124.593 150.332 122.882 150.332 120.771C150.332 118.66 148.621 116.949 146.51 116.949C144.399 116.949 142.688 118.66 142.688 120.771C142.688 122.882 144.399 124.593 146.51 124.593Z" fill="url(#paint23_linear_1377_3426)"/>
<path d="M21.0635 57.2412C23.1743 57.2412 24.8855 55.53 24.8855 53.4192C24.8855 51.3083 23.1743 49.5972 21.0635 49.5972C18.9526 49.5972 17.2415 51.3083 17.2415 53.4192C17.2415 55.53 18.9526 57.2412 21.0635 57.2412Z" fill="url(#paint24_linear_1377_3426)"/>
<path d="M21.0635 124.593C23.1743 124.593 24.8855 122.882 24.8855 120.771C24.8855 118.66 23.1743 116.949 21.0635 116.949C18.9526 116.949 17.2415 118.66 17.2415 120.771C17.2415 122.882 18.9526 124.593 21.0635 124.593Z" fill="url(#paint25_linear_1377_3426)"/>
<g opacity="0.5">
<path d="M164.006 280.021V211.989L101.241 177.931L38.5598 211.989V280.021L101.241 313.994L164.006 280.021Z" fill="url(#paint26_linear_1377_3426)"/>
</g>
<path d="M153.135 274.076V217.85L101.24 189.822L49.4309 217.85V274.076L101.24 302.189L153.135 274.076Z" stroke="url(#paint27_linear_1377_3426)" stroke-width="2" stroke-miterlimit="10" stroke-linecap="round"/>
<path d="M101.24 181.753C103.351 181.753 105.062 180.042 105.062 177.931C105.062 175.82 103.351 174.109 101.24 174.109C99.1291 174.109 97.418 175.82 97.418 177.931C97.418 180.042 99.1291 181.753 101.24 181.753Z" fill="url(#paint28_linear_1377_3426)"/>
<path d="M101.24 318.241C103.351 318.241 105.062 316.53 105.062 314.419C105.062 312.308 103.351 310.597 101.24 310.597C99.1291 310.597 97.418 312.308 97.418 314.419C97.418 316.53 99.1291 318.241 101.24 318.241Z" fill="url(#paint29_linear_1377_3426)"/>
<path d="M167.828 212.669C167.828 214.793 166.129 216.491 164.006 216.491C161.883 216.491 160.184 214.793 160.184 212.669C160.184 210.546 161.883 208.847 164.006 208.847C166.129 208.847 167.828 210.461 167.828 212.669Z" fill="url(#paint30_linear_1377_3426)"/>
<path d="M164.006 283.758C166.117 283.758 167.828 282.047 167.828 279.936C167.828 277.825 166.117 276.114 164.006 276.114C161.895 276.114 160.184 277.825 160.184 279.936C160.184 282.047 161.895 283.758 164.006 283.758Z" fill="url(#paint31_linear_1377_3426)"/>
<path d="M42.4665 212.669C42.4665 214.792 40.7678 216.491 38.6445 216.491C36.5212 216.491 34.8225 214.792 34.8225 212.669C34.8225 210.545 36.5212 208.847 38.6445 208.847C40.6829 208.762 42.4665 210.461 42.4665 212.669Z" fill="url(#paint32_linear_1377_3426)"/>
<path d="M38.5595 283.758C40.6704 283.758 42.3815 282.047 42.3815 279.936C42.3815 277.825 40.6704 276.114 38.5595 276.114C36.4487 276.114 34.7375 277.825 34.7375 279.936C34.7375 282.047 36.4487 283.758 38.5595 283.758Z" fill="url(#paint33_linear_1377_3426)"/>
<g opacity="0.5">
<path d="M214.202 388.141V333.699L164.006 306.521L113.811 333.699V388.141L164.006 415.405L214.202 388.141Z" fill="url(#paint34_linear_1377_3426)"/>
</g>
<path d="M164.006 309.579C165.695 309.579 167.064 308.21 167.064 306.521C167.064 304.832 165.695 303.463 164.006 303.463C162.318 303.463 160.949 304.832 160.949 306.521C160.949 308.21 162.318 309.579 164.006 309.579Z" fill="url(#paint35_linear_1377_3426)"/>
<path d="M164.006 418.718C165.695 418.718 167.064 417.349 167.064 415.66C167.064 413.971 165.695 412.603 164.006 412.603C162.318 412.603 160.949 413.971 160.949 415.66C160.949 417.349 162.318 418.718 164.006 418.718Z" fill="url(#paint36_linear_1377_3426)"/>
<path d="M217.26 334.293C217.26 335.992 215.901 337.351 214.202 337.351C212.503 337.351 211.145 335.992 211.145 334.293C211.145 332.595 212.503 331.236 214.202 331.236C215.901 331.236 217.26 332.51 217.26 334.293Z" fill="url(#paint37_linear_1377_3426)"/>
<path d="M217.26 388.142C217.26 389.84 215.901 391.199 214.202 391.199C212.503 391.199 211.145 389.84 211.145 388.142C211.145 386.443 212.503 385.084 214.202 385.084C215.901 385.084 217.26 386.443 217.26 388.142Z" fill="url(#paint38_linear_1377_3426)"/>
<path d="M116.868 334.293C116.868 335.992 115.509 337.351 113.811 337.351C112.112 337.351 110.753 335.992 110.753 334.293C110.753 332.595 112.112 331.236 113.811 331.236C115.509 331.151 116.868 332.51 116.868 334.293Z" fill="url(#paint39_linear_1377_3426)"/>
<path d="M116.868 388.141C116.868 389.84 115.509 391.199 113.811 391.199C112.112 391.199 110.753 389.84 110.753 388.141C110.753 386.443 112.112 385.084 113.811 385.084C115.509 384.999 116.868 386.443 116.868 388.141Z" fill="url(#paint40_linear_1377_3426)"/>
<path d="M244.014 225.07C244.098 225.07 244.183 224.985 244.268 224.985C244.098 224.9 243.844 224.985 244.014 225.07Z" fill="#F0C49B"/>
<g opacity="0.5">
<path d="M132.072 243.415C132.496 239.083 131.817 234.412 128.929 231.185C126.041 227.957 120.266 226.343 116.868 229.061C115 222.861 109.055 218.275 102.685 217.425C96.3146 216.576 89.6048 219.209 85.1034 223.795C80.517 228.382 78.0539 234.837 77.6292 241.292C74.147 240.357 69.9852 241.801 67.4372 244.434C64.8892 247.067 63.6152 250.719 63.6152 254.371C63.6152 256.58 64.0399 258.873 65.3139 260.741C67.5222 263.969 71.7688 265.158 75.6758 265.243L126.296 264.818C131.647 264.818 136.998 262.355 138.696 257.259C140.225 252.163 136.828 245.793 132.072 243.415Z" fill="white"/>
</g>
<path d="M356.04 187.444C356.04 183.027 357.229 178.951 359.353 175.468C357.824 174.704 356.38 173.855 355.021 172.835C351.284 176.573 348.991 181.753 348.991 187.444C348.991 188.378 349.076 189.397 349.161 190.332C351.369 189.652 353.662 189.143 356.04 188.718C356.04 188.293 356.04 187.869 356.04 187.444Z" stroke="white" stroke-width="2" stroke-miterlimit="10" stroke-linecap="round" stroke-linejoin="round"/>
<path d="M382.625 187.443C382.625 187.783 382.625 188.208 382.625 188.547C385.343 189.057 387.976 189.652 390.439 190.416C390.609 189.482 390.694 188.463 390.694 187.443C390.694 181.498 388.146 176.062 384.154 172.325C382.71 173.514 381.096 174.618 379.312 175.468C381.436 178.95 382.625 183.112 382.625 187.443Z" stroke="white" stroke-width="2" stroke-miterlimit="10" stroke-linecap="round" stroke-linejoin="round"/>
<path d="M369.29 177.762C365.722 177.762 362.41 176.998 359.437 175.554C357.314 179.036 356.125 183.113 356.125 187.529C356.125 187.954 356.125 188.294 356.125 188.718C360.287 187.954 364.703 187.529 369.29 187.529V177.762Z" stroke="white" stroke-width="2" stroke-miterlimit="10" stroke-linecap="round" stroke-linejoin="round"/>
<path d="M369.63 187.444C374.131 187.444 378.463 187.869 382.625 188.548C382.625 188.208 382.625 187.784 382.625 187.444C382.625 183.027 381.435 178.951 379.227 175.383C376.17 176.827 372.772 177.676 369.205 177.676V187.444C369.375 187.444 369.545 187.444 369.63 187.444Z" stroke="white" stroke-width="2" stroke-miterlimit="10" stroke-linecap="round" stroke-linejoin="round"/>
<path d="M369.29 166.465V166.55C369.29 166.55 369.375 166.55 369.375 166.465C369.29 166.465 369.29 166.465 369.29 166.465Z" stroke="white" stroke-width="2" stroke-miterlimit="10" stroke-linecap="round" stroke-linejoin="round"/>
<path d="M368.95 166.72C363.515 166.975 358.588 169.268 355.021 172.92C356.38 173.939 357.824 174.873 359.353 175.553C361.646 171.731 364.958 168.673 368.95 166.72Z" stroke="white" stroke-width="2" stroke-miterlimit="10" stroke-linecap="round" stroke-linejoin="round"/>
<path d="M379.312 175.468C381.096 174.619 382.71 173.6 384.154 172.326C380.416 168.844 375.405 166.635 369.885 166.635C369.8 166.635 369.8 166.635 369.715 166.635C373.707 168.589 377.019 171.646 379.312 175.468Z" stroke="white" stroke-width="2" stroke-miterlimit="10" stroke-linecap="round" stroke-linejoin="round"/>
<path d="M369.29 166.55C369.206 166.635 369.121 166.635 369.036 166.72C369.121 166.72 369.206 166.72 369.29 166.72V166.55Z" stroke="white" stroke-width="2" stroke-miterlimit="10" stroke-linecap="round" stroke-linejoin="round"/>
<path d="M369.715 166.635C369.63 166.55 369.46 166.55 369.375 166.465C369.375 166.465 369.29 166.465 369.29 166.55V166.72C369.375 166.635 369.545 166.635 369.715 166.635Z" stroke="white" stroke-width="2" stroke-miterlimit="10" stroke-linecap="round" stroke-linejoin="round"/>
<path d="M359.353 175.553C362.326 176.997 365.723 177.761 369.206 177.761V166.72C369.121 166.72 369.036 166.72 368.951 166.72C364.959 168.673 361.646 171.731 359.353 175.553Z" stroke="white" stroke-width="2" stroke-miterlimit="10" stroke-linecap="round" stroke-linejoin="round"/>
<path d="M369.29 177.761C372.857 177.761 376.255 176.912 379.312 175.468C377.019 171.731 373.707 168.673 369.715 166.72C369.545 166.72 369.375 166.72 369.29 166.72V177.761Z" stroke="white" stroke-width="2" stroke-miterlimit="10" stroke-linecap="round" stroke-linejoin="round"/>
<path d="M356.125 188.718C353.747 189.142 351.454 189.737 349.246 190.332C350.01 195.597 352.643 200.269 356.635 203.496C357.909 202.647 359.268 201.967 360.712 201.373C357.994 197.806 356.295 193.474 356.125 188.718Z" stroke="white" stroke-width="2" stroke-miterlimit="10" stroke-linecap="round" stroke-linejoin="round"/>
<path d="M377.953 201.458C379.567 202.137 381.096 202.987 382.54 203.921C386.701 200.693 389.589 195.937 390.439 190.416C387.976 189.652 385.343 189.057 382.625 188.548C382.37 193.389 380.671 197.806 377.953 201.458Z" stroke="white" stroke-width="2" stroke-miterlimit="10" stroke-linecap="round" stroke-linejoin="round"/>
<path d="M369.29 187.444V199.674C372.348 199.674 375.32 200.269 378.038 201.373C380.756 197.721 382.455 193.304 382.71 188.548C378.633 187.784 374.216 187.444 369.715 187.444C369.545 187.444 369.375 187.444 369.29 187.444Z" stroke="white" stroke-width="2" stroke-miterlimit="10" stroke-linecap="round" stroke-linejoin="round"/>
<path d="M369.29 187.444C364.703 187.444 360.287 187.869 356.125 188.633C356.38 193.389 358.078 197.721 360.711 201.373C363.344 200.354 366.232 199.759 369.29 199.759V187.444Z" stroke="white" stroke-width="2" stroke-miterlimit="10" stroke-linecap="round" stroke-linejoin="round"/>
<path d="M369.29 208.507C369.29 208.507 369.375 208.507 369.375 208.422C369.375 208.422 369.29 208.422 369.29 208.337V208.507Z" stroke="white" stroke-width="2" stroke-miterlimit="10" stroke-linecap="round" stroke-linejoin="round"/>
<path d="M360.712 201.373C359.268 201.967 357.909 202.647 356.635 203.496C360.033 206.299 364.364 208.082 369.036 208.252C365.723 206.638 362.835 204.26 360.712 201.373Z" stroke="white" stroke-width="2" stroke-miterlimit="10" stroke-linecap="round" stroke-linejoin="round"/>
<path d="M369.715 208.337C369.8 208.337 369.8 208.337 369.885 208.337C374.726 208.337 379.142 206.723 382.625 204.006C381.181 202.986 379.652 202.137 378.038 201.542C375.83 204.345 372.942 206.723 369.715 208.337Z" stroke="white" stroke-width="2" stroke-miterlimit="10" stroke-linecap="round" stroke-linejoin="round"/>
<path d="M369.29 208.253V208.423C369.29 208.423 369.375 208.423 369.375 208.508C369.46 208.423 369.63 208.423 369.715 208.338C369.545 208.338 369.375 208.338 369.29 208.253Z" stroke="white" stroke-width="2" stroke-miterlimit="10" stroke-linecap="round" stroke-linejoin="round"/>
<path d="M369.29 208.423V208.253C369.206 208.253 369.121 208.253 369.036 208.253C369.036 208.338 369.121 208.423 369.29 208.423Z" stroke="white" stroke-width="2" stroke-miterlimit="10" stroke-linecap="round" stroke-linejoin="round"/>
<path d="M360.711 201.372C362.919 204.26 365.722 206.638 369.035 208.252C369.12 208.252 369.204 208.252 369.289 208.252V199.674C366.232 199.759 363.344 200.353 360.711 201.372Z" stroke="white" stroke-width="2" stroke-miterlimit="10" stroke-linecap="round" stroke-linejoin="round"/>
<path d="M377.953 201.457C375.235 200.353 372.348 199.759 369.205 199.759V208.337C369.375 208.337 369.545 208.337 369.63 208.337C372.942 206.723 375.83 204.345 377.953 201.457Z" stroke="white" stroke-width="2" stroke-miterlimit="10" stroke-linecap="round" stroke-linejoin="round"/>
<path opacity="0.5" d="M184.136 382.451H143.962C139.885 382.451 136.573 379.139 136.573 375.062V350.176C136.573 346.1 139.885 342.787 143.962 342.787H184.136C188.212 342.787 191.525 346.1 191.525 350.176V374.977C191.525 379.139 188.212 382.451 184.136 382.451Z" fill="white"/>
<path d="M181.587 379.902H146.34C142.773 379.902 139.885 377.015 139.885 373.447V351.704C139.885 348.137 142.773 345.25 146.34 345.25H181.587C185.154 345.25 188.042 348.137 188.042 351.704V373.447C188.042 377.015 185.154 379.902 181.587 379.902Z" fill="white"/>
<path d="M158.794 375.621L148.602 368.901C148.434 368.789 148.303 368.649 148.21 368.481C148.117 368.295 148.07 368.099 148.07 367.893C148.07 367.632 148.117 367.427 148.21 367.277C148.322 367.109 148.453 366.988 148.602 366.913L158.822 360.165C159.027 360.035 159.214 359.941 159.382 359.885C159.55 359.811 159.727 359.811 159.914 359.885C160.101 359.941 160.297 360.128 160.502 360.445C160.707 360.725 160.819 360.968 160.838 361.173C160.875 361.36 160.838 361.537 160.726 361.705C160.633 361.855 160.474 361.995 160.25 362.125L151.318 367.893L160.278 373.689C160.483 373.82 160.633 373.96 160.726 374.109C160.838 374.259 160.875 374.436 160.838 374.641C160.819 374.847 160.707 375.089 160.502 375.369C160.297 375.649 160.101 375.827 159.914 375.901C159.746 375.976 159.569 375.976 159.382 375.901C159.214 375.845 159.018 375.752 158.794 375.621ZM150.142 409.621C149.937 409.752 149.741 409.845 149.554 409.901C149.367 409.976 149.181 409.976 148.994 409.901C148.826 409.827 148.649 409.649 148.462 409.369C148.257 409.089 148.135 408.847 148.098 408.641C148.061 408.436 148.098 408.259 148.21 408.109C148.322 407.96 148.481 407.82 148.686 407.689L157.618 401.893L148.686 396.125C148.481 395.995 148.322 395.855 148.21 395.705C148.117 395.537 148.079 395.36 148.098 395.173C148.135 394.968 148.257 394.725 148.462 394.445C148.667 394.128 148.854 393.941 149.022 393.885C149.209 393.811 149.386 393.811 149.554 393.885C149.741 393.941 149.937 394.035 150.142 394.165L160.362 400.913C160.511 400.988 160.633 401.109 160.726 401.277C160.838 401.427 160.894 401.632 160.894 401.893C160.894 402.099 160.838 402.295 160.726 402.481C160.633 402.649 160.511 402.789 160.362 402.901L150.142 409.621Z" fill="white"/>
<path opacity="0.5" d="M122.219 63.6111C115.085 62.0823 108.12 60.3836 101.241 57.8356C94.446 55.2876 87.9061 51.5505 82.8951 46.2847C77.884 51.6355 71.429 55.2876 64.5494 57.8356C57.7548 60.3836 50.7053 62.1672 43.5709 63.6111C43.2312 77.2004 46.1189 91.0445 52.9136 102.85C59.3685 114.061 69.6455 123.319 81.7909 127.736C81.7909 127.736 82.5553 128.16 82.8101 128.075C83.0649 128.16 83.8293 127.736 83.8293 127.736C95.9748 123.319 106.252 114.061 112.707 102.85C119.671 91.1295 122.559 77.2853 122.219 63.6111Z" fill="white"/>
<path d="M115.255 67.8577C109.394 66.6686 103.619 65.2247 98.0133 63.1014C92.4077 60.9781 87.0569 57.9205 82.9801 53.5889C78.9033 58.0054 73.5525 60.9781 67.9469 63.1014C62.3413 65.2247 56.5658 66.6686 50.7054 67.8577C50.4506 79.0689 52.8288 90.4499 58.4344 100.132C63.7852 109.39 72.1936 116.949 82.2157 120.601C82.2157 120.601 82.8102 120.941 83.065 120.856C83.3198 120.941 83.9144 120.601 83.9144 120.601C93.9365 116.949 102.345 109.39 107.696 100.132C113.131 90.4499 115.51 79.0689 115.255 67.8577Z" fill="url(#paint41_linear_1377_3426)"/>
<path d="M98.1833 81.2773H68.6265V104.124C68.6265 104.124 68.6265 104.379 68.6265 104.464C68.6265 105.738 75.2513 106.757 83.4049 106.757C91.5585 106.757 98.1833 105.738 98.1833 104.464C98.1833 104.379 98.1833 104.124 98.1833 104.124V81.2773Z" fill="white"/>
<path d="M98.1833 81.2776C98.1833 82.5516 91.5585 83.5708 83.4049 83.5708C75.2513 83.5708 68.6265 82.5516 68.6265 81.2776C68.6265 80.0036 75.2513 78.9844 83.4049 78.9844C91.5585 78.9844 98.1833 80.0036 98.1833 81.2776Z" fill="white"/>
<path d="M78.4788 81.1926C78.4788 81.6173 77.1198 81.957 75.5061 81.957C73.8924 81.957 72.5334 81.6173 72.5334 81.1926C72.5334 80.768 73.8924 80.4282 75.5061 80.4282C77.1198 80.4282 78.4788 80.768 78.4788 81.1926Z" fill="white"/>
<path d="M91.9829 81.957C93.6247 81.957 94.9556 81.6148 94.9556 81.1926C94.9556 80.7705 93.6247 80.4282 91.9829 80.4282C90.3412 80.4282 89.0103 80.7705 89.0103 81.1926C89.0103 81.6148 90.3412 81.957 91.9829 81.957Z" fill="white"/>
<path d="M85.0186 93.3378C85.6981 92.8282 86.1227 92.0638 86.1227 91.1295C86.1227 89.6007 84.9337 88.4116 83.4049 88.4116C81.8761 88.4116 80.687 89.6007 80.687 91.1295C80.687 91.9788 81.1117 92.8282 81.7911 93.3378L80.8569 98.3488C80.687 99.368 81.4514 100.387 82.5555 100.387H84.1693C85.2734 100.387 86.0378 99.453 85.8679 98.3488L85.0186 93.3378Z" fill="white"/>
<g opacity="0.46">
<path d="M83.4043 89.7705C82.6399 89.7705 82.0454 90.365 82.0454 91.1294C82.0454 91.5541 82.2153 91.9788 82.6399 92.2336C83.0646 92.5733 83.2345 93.0829 83.1495 93.5076L82.2153 98.5186C82.2153 98.6885 82.2153 98.7734 82.3002 98.8584C82.3851 98.9433 82.4701 99.0282 82.555 99.0282H84.1687C84.3386 99.0282 84.4235 98.9433 84.4235 98.8584C84.5085 98.7734 84.5085 98.6885 84.5085 98.5186L83.5742 93.5076C83.4893 92.998 83.6591 92.4884 84.0838 92.2336C84.4235 91.9788 84.6783 91.5541 84.6783 91.1294C84.7633 90.365 84.1687 89.7705 83.4043 89.7705Z" fill="white"/>
</g>
<path d="M83.8298 63.5264C83.7448 63.5264 83.7448 63.5264 83.6599 63.5264C83.575 63.5264 83.575 63.5264 83.49 63.5264C78.2242 63.6113 73.8926 68.0278 73.8926 73.4636V80.7678V81.787C74.4022 81.872 74.9967 81.9569 75.6762 81.9569C76.3556 81.9569 76.9502 81.872 77.4598 81.787V80.6829V73.3786C77.4598 69.8964 80.2626 67.0086 83.7448 66.9237C87.7367 67.0086 90.4546 69.8964 90.4546 73.3786V80.6829V81.787C90.9642 81.872 91.5587 81.9569 92.2382 81.9569C92.9176 81.9569 93.5122 81.872 94.0218 81.787V80.6829V73.3786C93.8519 68.0278 90.5395 63.6113 83.8298 63.5264Z" fill="white"/>
<path opacity="0.5" d="M92.1532 80.9377V73.2937C92.1532 68.7073 88.5011 65.0551 83.9147 64.9702C83.9147 64.9702 83.9147 64.9702 83.8297 64.9702C83.8297 64.9702 83.8297 64.9702 83.7448 64.9702C79.2433 65.0551 75.5063 68.7073 75.5063 73.2937V80.9377C74.9117 80.9377 74.3172 80.9377 73.7227 80.9377V81.787C74.2323 81.872 74.8268 81.9569 75.5063 81.9569C76.1857 81.9569 76.7803 81.872 77.2899 81.787V80.6829V73.3786C77.2899 69.8963 80.5173 67.0086 83.9996 66.9237C87.4819 67.0086 90.2847 69.8963 90.2847 73.3786V80.6829V81.787C90.7943 81.872 91.3888 81.9569 92.0683 81.9569C92.7477 81.9569 93.3423 81.872 93.8519 81.787V80.9377C93.3423 80.9377 92.7477 80.9377 92.1532 80.9377Z" fill="white"/>
<g opacity="0.5">
<path d="M302.617 149.563V81.5314L239.936 47.4731L177.17 81.5314V149.563L239.936 183.536L302.617 149.563Z" fill="url(#paint42_linear_1377_3426)"/>
</g>
<path d="M291.745 143.618V87.3923L239.936 59.3643L188.126 87.3923V143.618L239.936 171.731L291.745 143.618Z" stroke="url(#paint43_linear_1377_3426)" stroke-width="2" stroke-miterlimit="10" stroke-linecap="round"/>
<path d="M239.936 51.2959C242.047 51.2959 243.758 49.5847 243.758 47.4739C243.758 45.363 242.047 43.6519 239.936 43.6519C237.825 43.6519 236.114 45.363 236.114 47.4739C236.114 49.5847 237.825 51.2959 239.936 51.2959Z" fill="url(#paint44_linear_1377_3426)"/>
<path d="M239.936 187.784C242.047 187.784 243.758 186.072 243.758 183.962C243.758 181.851 242.047 180.14 239.936 180.14C237.825 180.14 236.114 181.851 236.114 183.962C236.114 186.072 237.825 187.784 239.936 187.784Z" fill="url(#paint45_linear_1377_3426)"/>
<path d="M302.617 85.9482C304.728 85.9482 306.439 84.237 306.439 82.1262C306.439 80.0154 304.728 78.3042 302.617 78.3042C300.506 78.3042 298.795 80.0154 298.795 82.1262C298.795 84.237 300.506 85.9482 302.617 85.9482Z" fill="url(#paint46_linear_1377_3426)"/>
<path d="M302.617 153.301C304.728 153.301 306.439 151.59 306.439 149.479C306.439 147.368 304.728 145.657 302.617 145.657C300.506 145.657 298.795 147.368 298.795 149.479C298.795 151.59 300.506 153.301 302.617 153.301Z" fill="url(#paint47_linear_1377_3426)"/>
<path d="M228.516 87.722C232.932 87.722 235.668 89.978 235.668 93.698C235.668 97.394 232.932 99.674 228.516 99.674H224.724V104.522H221.604V87.722H228.516ZM228.372 97.034C231.108 97.034 232.524 95.81 232.524 93.698C232.524 91.586 231.108 90.362 228.372 90.362H224.724V97.034H228.372ZM246.794 104.762C241.658 104.762 237.818 101.138 237.818 96.122C237.818 91.106 241.658 87.482 246.818 87.482C249.554 87.482 251.906 88.466 253.466 90.29L251.45 92.186C250.226 90.866 248.714 90.218 246.962 90.218C243.482 90.218 240.962 92.666 240.962 96.122C240.962 99.578 243.482 102.026 246.962 102.026C248.714 102.026 250.226 101.378 251.45 100.034L253.466 101.954C251.906 103.778 249.554 104.762 246.794 104.762ZM256.456 104.522V87.722H259.576V104.522H256.456ZM217.854 133.522V116.722H225.198C230.646 116.722 234.366 120.082 234.366 125.122C234.366 130.162 230.646 133.522 225.198 133.522H217.854ZM220.974 130.882H225.054C228.798 130.882 231.222 128.602 231.222 125.122C231.222 121.642 228.798 119.362 225.054 119.362H220.974V130.882ZM242.89 133.762C240.274 133.762 237.658 132.946 236.266 131.746L237.346 129.322C238.69 130.402 240.826 131.17 242.89 131.17C245.506 131.17 246.61 130.234 246.61 128.986C246.61 125.362 236.626 127.738 236.626 121.498C236.626 118.786 238.786 116.482 243.394 116.482C245.41 116.482 247.522 117.01 248.986 117.97L248.002 120.394C246.49 119.506 244.834 119.074 243.37 119.074C240.778 119.074 239.722 120.082 239.722 121.354C239.722 124.93 249.682 122.602 249.682 128.77C249.682 131.458 247.498 133.762 242.89 133.762ZM257.984 133.762C255.368 133.762 252.752 132.946 251.36 131.746L252.44 129.322C253.784 130.402 255.92 131.17 257.984 131.17C260.6 131.17 261.704 130.234 261.704 128.986C261.704 125.362 251.72 127.738 251.72 121.498C251.72 118.786 253.88 116.482 258.488 116.482C260.504 116.482 262.616 117.01 264.08 117.97L263.096 120.394C261.584 119.506 259.928 119.074 258.464 119.074C255.872 119.074 254.816 120.082 254.816 121.354C254.816 124.93 264.776 122.602 264.776 128.77C264.776 131.458 262.592 133.762 257.984 133.762Z" fill="white"/>
<path d="M177.17 85.9482C179.281 85.9482 180.992 84.237 180.992 82.1262C180.992 80.0154 179.281 78.3042 177.17 78.3042C175.059 78.3042 173.348 80.0154 173.348 82.1262C173.348 84.237 175.059 85.9482 177.17 85.9482Z" fill="url(#paint48_linear_1377_3426)"/>
<path d="M177.17 153.301C179.281 153.301 180.992 151.59 180.992 149.479C180.992 147.368 179.281 145.657 177.17 145.657C175.059 145.657 173.348 147.368 173.348 149.479C173.348 151.59 175.059 153.301 177.17 153.301Z" fill="url(#paint49_linear_1377_3426)"/>
<g opacity="0.5">
<path d="M293.105 293.695V236.025L239.936 207.148L186.683 236.025V293.695L239.936 322.572L293.105 293.695Z" fill="url(#paint50_linear_1377_3426)"/>
</g>
<path d="M283.847 288.684V241.037L239.936 217.17L195.941 241.037V288.684L239.936 312.551L283.847 288.684Z" stroke="url(#paint51_linear_1377_3426)" stroke-width="2" stroke-miterlimit="10" stroke-linecap="round"/>
<path d="M239.937 210.461C241.766 210.461 243.249 208.978 243.249 207.148C243.249 205.319 241.766 203.836 239.937 203.836C238.107 203.836 236.624 205.319 236.624 207.148C236.624 208.978 238.107 210.461 239.937 210.461Z" fill="url(#paint52_linear_1377_3426)"/>
<path d="M239.937 326.224C241.766 326.224 243.249 324.741 243.249 322.912C243.249 321.083 241.766 319.6 239.937 319.6C238.107 319.6 236.624 321.083 236.624 322.912C236.624 324.741 238.107 326.224 239.937 326.224Z" fill="url(#paint53_linear_1377_3426)"/>
<path d="M293.105 239.848C294.934 239.848 296.417 238.365 296.417 236.536C296.417 234.706 294.934 233.223 293.105 233.223C291.275 233.223 289.792 234.706 289.792 236.536C289.792 238.365 291.275 239.848 293.105 239.848Z" fill="url(#paint54_linear_1377_3426)"/>
<path d="M296.417 293.695C296.417 295.479 294.973 297.008 293.105 297.008C291.321 297.008 289.792 295.564 289.792 293.695C289.792 291.912 291.236 290.383 293.105 290.383C294.973 290.383 296.417 291.912 296.417 293.695Z" fill="url(#paint55_linear_1377_3426)"/>
<path d="M186.683 239.848C188.512 239.848 189.995 238.365 189.995 236.536C189.995 234.706 188.512 233.223 186.683 233.223C184.854 233.223 183.371 234.706 183.371 236.536C183.371 238.365 184.854 239.848 186.683 239.848Z" fill="url(#paint56_linear_1377_3426)"/>
<path d="M189.995 293.695C189.995 295.479 188.552 297.008 186.683 297.008C184.899 297.008 183.371 295.564 183.371 293.695C183.371 291.912 184.814 290.383 186.683 290.383C188.467 290.383 189.995 291.912 189.995 293.695Z" fill="url(#paint57_linear_1377_3426)"/>
<path d="M126.466 245.113C126.805 241.971 126.211 238.658 123.918 236.28C121.54 233.902 116.868 232.798 114.065 234.751C112.537 230.25 107.695 226.937 102.43 226.343C97.1637 225.748 91.7279 227.617 87.9909 230.929C84.2538 234.242 82.2154 238.913 81.8757 243.584C78.9879 242.905 75.6755 244.009 73.5522 245.878C71.4289 247.746 70.4097 250.464 70.4097 253.097C70.4097 254.711 70.7494 256.324 71.8535 257.683C73.6371 259.976 77.1194 260.911 80.2619 260.911L121.709 260.656C126.041 260.656 130.458 258.872 131.816 255.135C133.175 251.398 130.373 246.812 126.466 245.113Z" fill="white"/>
<path d="M107.016 242.906H105.063V233.648C105.063 232.544 104.213 231.694 103.109 231.694H99.6269C98.5228 231.694 97.6734 232.544 97.6734 233.648V242.906H95.72C93.9364 242.906 92.8322 244.859 93.6816 246.388L96.4844 251.314L99.2872 256.24C100.136 257.769 102.43 257.769 103.279 256.24L106.082 251.314L108.885 246.388C109.904 244.859 108.8 242.906 107.016 242.906Z" fill="white"/>
<path d="M188.042 351.704C188.042 348.137 185.154 345.25 181.587 345.25H146.34C142.773 345.25 139.885 348.137 139.885 351.704V352.044H188.042V351.704Z" fill="white"/>
<path d="M260.491 263.035C259.896 263.035 259.302 263.035 258.707 263.035C258.537 263.035 258.282 262.865 258.197 262.78C257.603 261.421 257.093 260.062 256.499 258.448C256.923 258.108 257.433 257.599 257.943 257.089C258.537 256.495 258.537 255.815 257.943 255.221C256.329 253.522 254.63 251.908 252.932 250.21C252.337 249.615 251.658 249.615 251.063 250.21C250.553 250.719 250.129 251.229 249.789 251.569C248.26 250.974 246.901 250.464 245.542 249.87C245.373 249.785 245.288 249.53 245.288 249.36C245.288 248.766 245.288 248.171 245.288 247.577C245.288 246.727 244.863 246.303 244.014 246.303C241.635 246.303 239.257 246.303 236.879 246.303C236.03 246.303 235.605 246.727 235.605 247.577C235.605 248.171 235.605 248.766 235.605 249.36C235.605 249.53 235.435 249.785 235.35 249.785C233.991 250.38 232.633 250.889 231.104 251.484C230.764 251.144 230.339 250.634 229.83 250.125C229.15 249.445 228.556 249.445 227.876 250.125C226.263 251.738 224.564 253.352 222.95 255.051C222.271 255.73 222.271 256.325 222.95 257.004C223.46 257.514 223.969 257.939 224.309 258.278C223.715 259.807 223.205 261.166 222.61 262.61C222.525 262.78 222.271 262.865 222.101 262.865C221.506 262.865 220.912 262.865 220.317 262.865C219.468 262.865 219.043 263.289 219.043 264.139C219.043 266.517 219.043 268.895 219.043 271.273C219.043 272.122 219.468 272.547 220.317 272.547C220.912 272.547 221.506 272.547 222.101 272.547C222.271 272.547 222.525 272.717 222.61 272.802C223.205 274.161 223.715 275.52 224.309 277.134C223.969 277.473 223.46 277.898 222.95 278.408C222.271 279.087 222.271 279.682 222.95 280.446C224.564 282.06 226.178 283.673 227.791 285.287C228.471 285.967 229.065 285.967 229.745 285.287C230.254 284.778 230.679 284.268 231.019 283.928C232.548 284.523 233.907 285.032 235.265 285.627C235.435 285.712 235.605 285.967 235.605 286.136C235.605 286.731 235.605 287.326 235.605 287.92C235.605 288.684 236.03 289.109 236.794 289.109C239.172 289.109 241.635 289.109 244.014 289.109C244.778 289.109 245.203 288.684 245.203 287.92C245.203 287.326 245.203 286.731 245.203 286.136C245.203 285.967 245.373 285.712 245.542 285.627C246.901 285.032 248.26 284.523 249.789 283.928C250.129 284.353 250.638 284.862 251.148 285.372C251.743 285.967 252.422 285.967 253.017 285.372C254.63 283.758 256.329 282.06 257.943 280.446C258.622 279.766 258.622 279.172 257.943 278.492C257.433 277.983 256.923 277.558 256.584 277.218C257.178 275.69 257.688 274.331 258.282 272.972C258.367 272.802 258.622 272.632 258.792 272.632C259.387 272.632 259.981 272.632 260.576 272.632C261.34 272.632 261.765 272.122 261.765 271.443C261.765 269.065 261.765 266.602 261.765 264.224C261.68 263.459 261.255 263.035 260.491 263.035ZM231.443 268.046C231.274 263.289 235.096 259.213 240.022 258.958C244.778 258.788 248.855 262.61 249.11 267.536C249.279 272.292 245.457 276.369 240.531 276.624C235.775 276.879 231.698 272.972 231.443 268.046Z" fill="white"/>
<path opacity="0.5" d="M240.276 255.56C233.481 255.56 227.961 261.081 227.961 267.875C227.961 274.67 233.481 280.191 240.276 280.191C247.071 280.191 252.591 274.67 252.591 267.875C252.591 261.081 247.071 255.56 240.276 255.56ZM240.531 276.708C235.775 276.878 231.698 273.056 231.443 268.13C231.273 263.374 235.095 259.297 240.021 259.042C244.778 258.872 248.854 262.694 249.109 267.621C249.364 272.377 245.457 276.454 240.531 276.708Z" fill="url(#paint58_linear_1377_3426)"/>
<path d="M386.859 80.1563C394.918 77.4852 399.285 68.7869 396.614 60.7279C393.943 52.669 385.245 48.3012 377.186 50.9723C369.127 53.6433 364.759 62.3417 367.43 70.4006C370.101 78.4595 378.8 82.8273 386.859 80.1563Z" fill="white"/>
<path d="M402.414 90.1949L380.501 69.8958C379.057 68.5369 378.972 66.3286 380.331 64.8847C381.69 63.4409 383.899 63.3559 385.342 64.7149L407.255 85.0139C408.699 86.3729 408.784 88.5811 407.425 90.025C406.151 91.4689 403.858 91.5538 402.414 90.1949Z" fill="white"/>
<path d="M385.781 76.8562C392.016 74.7948 395.4 68.0689 393.338 61.8335C391.277 55.5981 384.551 52.2144 378.316 54.2758C372.08 56.3372 368.696 63.0631 370.758 69.2985C372.819 75.5339 379.545 78.9176 385.781 76.8562Z" fill="url(#paint59_linear_1377_3426)"/>
<path d="M85.0184 93.3378C85.6978 92.8282 86.1225 92.0638 86.1225 91.1295C86.1225 89.6007 84.9334 88.4116 83.4046 88.4116C81.8758 88.4116 80.6868 89.6007 80.6868 91.1295C80.6868 91.9788 81.1114 92.8282 81.7909 93.3378L80.8566 98.3488C80.6868 99.368 81.4512 100.387 82.5553 100.387H84.169C85.2732 100.387 86.0376 99.453 85.8677 98.3488L85.0184 93.3378Z" fill="url(#paint60_linear_1377_3426)"/>
<path d="M340.498 129.434V120.092L331.835 115.42L323.256 120.092V129.434L331.835 134.106L340.498 129.434Z" fill="white"/>
<path d="M282.998 37.9618V28.6191L274.42 23.9478L265.757 28.6191V37.9618L274.42 42.6331L282.998 37.9618Z" fill="white"/>
<path d="M144.217 162.388V153.045L135.639 148.374L126.975 153.045V162.388L135.639 167.059L144.217 162.388Z" fill="white"/>
<path d="M83.8291 18.7661H88.9251" stroke="white" stroke-width="2" stroke-linecap="round" stroke-linejoin="round"/>
<path d="M98.6074 18.7661H229.32" stroke="white" stroke-width="2" stroke-linecap="round" stroke-linejoin="round" stroke-dasharray="11.4 11.4"/>
<path d="M234.161 18.7661H239.257V23.8621" stroke="white" stroke-width="2" stroke-linecap="round" stroke-linejoin="round"/>
<path d="M239.257 30.062V39.3197" stroke="white" stroke-width="2" stroke-linecap="round" stroke-linejoin="round" stroke-dasharray="7.27 7.27"/>
<path d="M239.257 42.3774V47.4734" stroke="white" stroke-width="2" stroke-linecap="round" stroke-linejoin="round"/>
<path d="M302.618 82.1268V77.0308" stroke="white" stroke-width="2" stroke-linecap="round" stroke-linejoin="round"/>
<path d="M302.618 68.6224V55.9673" stroke="white" stroke-width="2" stroke-linecap="round" stroke-linejoin="round" stroke-dasharray="9.94 9.94"/>
<path d="M302.618 51.7205V46.6245H307.714" stroke="white" stroke-width="2" stroke-linecap="round" stroke-linejoin="round"/>
<path d="M316.972 46.6245H330.816" stroke="white" stroke-width="2" stroke-linecap="round" stroke-linejoin="round" stroke-dasharray="10.86 10.86"/>
<path d="M335.402 46.6245H340.498" stroke="white" stroke-width="2" stroke-linecap="round" stroke-linejoin="round"/>
<path d="M38.5598 212.669V207.573" stroke="white" stroke-width="2" stroke-linecap="round" stroke-linejoin="round"/>
<path d="M38.5598 198.061V165.021" stroke="white" stroke-width="2" stroke-linecap="round" stroke-linejoin="round" stroke-dasharray="11.12 11.12"/>
<path d="M38.5598 160.265V155.169H43.6558" stroke="white" stroke-width="2" stroke-linecap="round" stroke-linejoin="round"/>
<path d="M55.3762 155.169H72.8725" stroke="white" stroke-width="2" stroke-linecap="round" stroke-linejoin="round" stroke-dasharray="13.75 13.75"/>
<path d="M78.7332 155.169H83.8292" stroke="white" stroke-width="2" stroke-linecap="round" stroke-linejoin="round"/>
<path d="M164.006 212.669V207.573" stroke="white" stroke-width="2" stroke-linecap="round" stroke-linejoin="round"/>
<path d="M164.006 198.57V167.06" stroke="white" stroke-width="2" stroke-linecap="round" stroke-linejoin="round" stroke-dasharray="10.6 10.6"/>
<path d="M164.006 162.559V157.463L168.337 154.83" stroke="white" stroke-width="2" stroke-linecap="round" stroke-linejoin="round"/>
<path d="M172.839 152.111L177.171 149.479" stroke="white" stroke-width="2" stroke-linecap="round" stroke-linejoin="round"/>
<path d="M293.104 293.695H298.2" stroke="white" stroke-width="2" stroke-linecap="round" stroke-linejoin="round"/>
<path d="M304.4 293.695H313.658" stroke="white" stroke-width="2" stroke-linecap="round" stroke-linejoin="round" stroke-dasharray="7.27 7.27"/>
<path d="M316.716 293.696H321.812V288.6" stroke="white" stroke-width="2" stroke-linecap="round" stroke-linejoin="round"/>
<path d="M321.812 278.577V223.371" stroke="white" stroke-width="2" stroke-linecap="round" stroke-linejoin="round" stroke-dasharray="11.82 11.82"/>
<path d="M321.812 218.36V213.264" stroke="white" stroke-width="2" stroke-linecap="round" stroke-linejoin="round"/>
<path d="M369.12 136.399H435.028V97.3301" stroke="white" stroke-width="2" stroke-miterlimit="10" stroke-linecap="round" stroke-linejoin="round" stroke-dasharray="12 12"/>
<path d="M38.5598 279.936V388.141H113.811" stroke="white" stroke-width="2" stroke-miterlimit="10" stroke-linecap="round" stroke-linejoin="round" stroke-dasharray="12 12"/>
<defs>
<linearGradient id="paint0_linear_1377_3426" x1="473.928" y1="230.654" x2="571.261" y2="230.654" gradientUnits="userSpaceOnUse">
<stop stop-color="#F57A00"/>
<stop offset="1" stop-color="#7103A4"/>
</linearGradient>
<linearGradient id="paint1_linear_1377_3426" x1="323.427" y1="363.977" x2="366.403" y2="363.977" gradientUnits="userSpaceOnUse">
<stop stop-color="#F57A00"/>
<stop offset="1" stop-color="#7103A4"/>
</linearGradient>
<linearGradient id="paint2_linear_1377_3426" x1="340.498" y1="71.7641" x2="435.029" y2="71.7641" gradientUnits="userSpaceOnUse">
<stop stop-color="#F57A00"/>
<stop offset="1" stop-color="#7103A4"/>
</linearGradient>
<linearGradient id="paint3_linear_1377_3426" x1="348.736" y1="71.7221" x2="426.79" y2="71.7221" gradientUnits="userSpaceOnUse">
<stop stop-color="#F57A00"/>
<stop offset="1" stop-color="#7103A4"/>
</linearGradient>
<linearGradient id="paint4_linear_1377_3426" x1="384.833" y1="20.5498" x2="390.609" y2="20.5498" gradientUnits="userSpaceOnUse">
<stop stop-color="#F57A00"/>
<stop offset="1" stop-color="#7103A4"/>
</linearGradient>
<linearGradient id="paint5_linear_1377_3426" x1="384.833" y1="123.319" x2="390.609" y2="123.319" gradientUnits="userSpaceOnUse">
<stop stop-color="#F57A00"/>
<stop offset="1" stop-color="#7103A4"/>
</linearGradient>
<linearGradient id="paint6_linear_1377_3426" x1="432.141" y1="46.625" x2="437.916" y2="46.625" gradientUnits="userSpaceOnUse">
<stop stop-color="#F57A00"/>
<stop offset="1" stop-color="#7103A4"/>
</linearGradient>
<linearGradient id="paint7_linear_1377_3426" x1="432.141" y1="97.3301" x2="437.916" y2="97.3301" gradientUnits="userSpaceOnUse">
<stop stop-color="#F57A00"/>
<stop offset="1" stop-color="#7103A4"/>
</linearGradient>
<linearGradient id="paint8_linear_1377_3426" x1="337.61" y1="46.625" x2="343.386" y2="46.625" gradientUnits="userSpaceOnUse">
<stop stop-color="#F57A00"/>
<stop offset="1" stop-color="#7103A4"/>
</linearGradient>
<linearGradient id="paint9_linear_1377_3426" x1="337.61" y1="97.3301" x2="343.386" y2="97.3301" gradientUnits="userSpaceOnUse">
<stop stop-color="#F57A00"/>
<stop offset="1" stop-color="#7103A4"/>
</linearGradient>
<linearGradient id="paint10_linear_1377_3426" x1="321.812" y1="187.655" x2="416.343" y2="187.655" gradientUnits="userSpaceOnUse">
<stop stop-color="#F57A00"/>
<stop offset="1" stop-color="#7103A4"/>
</linearGradient>
<linearGradient id="paint11_linear_1377_3426" x1="330.051" y1="187.656" x2="408.104" y2="187.656" gradientUnits="userSpaceOnUse">
<stop stop-color="#F57A00"/>
<stop offset="1" stop-color="#7103A4"/>
</linearGradient>
<linearGradient id="paint12_linear_1377_3426" x1="366.232" y1="136.399" x2="372.008" y2="136.399" gradientUnits="userSpaceOnUse">
<stop stop-color="#F57A00"/>
<stop offset="1" stop-color="#7103A4"/>
</linearGradient>
<linearGradient id="paint13_linear_1377_3426" x1="366.232" y1="239.168" x2="372.008" y2="239.168" gradientUnits="userSpaceOnUse">
<stop stop-color="#F57A00"/>
<stop offset="1" stop-color="#7103A4"/>
</linearGradient>
<linearGradient id="paint14_linear_1377_3426" x1="413.455" y1="162.474" x2="419.231" y2="162.474" gradientUnits="userSpaceOnUse">
<stop stop-color="#F57A00"/>
<stop offset="1" stop-color="#7103A4"/>
</linearGradient>
<linearGradient id="paint15_linear_1377_3426" x1="413.455" y1="213.262" x2="419.231" y2="213.262" gradientUnits="userSpaceOnUse">
<stop stop-color="#F57A00"/>
<stop offset="1" stop-color="#7103A4"/>
</linearGradient>
<linearGradient id="paint16_linear_1377_3426" x1="318.925" y1="162.474" x2="324.7" y2="162.474" gradientUnits="userSpaceOnUse">
<stop stop-color="#F57A00"/>
<stop offset="1" stop-color="#7103A4"/>
</linearGradient>
<linearGradient id="paint17_linear_1377_3426" x1="319.009" y1="213.262" x2="324.785" y2="213.262" gradientUnits="userSpaceOnUse">
<stop stop-color="#F57A00"/>
<stop offset="1" stop-color="#7103A4"/>
</linearGradient>
<linearGradient id="paint18_linear_1377_3426" x1="21.0635" y1="86.797" x2="146.51" y2="86.797" gradientUnits="userSpaceOnUse">
<stop stop-color="#F57A00"/>
<stop offset="1" stop-color="#7103A4"/>
</linearGradient>
<linearGradient id="paint19_linear_1377_3426" x1="31.9348" y1="86.7971" x2="135.638" y2="86.7971" gradientUnits="userSpaceOnUse">
<stop stop-color="#F57A00"/>
<stop offset="1" stop-color="#7103A4"/>
</linearGradient>
<linearGradient id="paint20_linear_1377_3426" x1="80.0071" y1="18.7663" x2="87.6511" y2="18.7663" gradientUnits="userSpaceOnUse">
<stop stop-color="#F57A00"/>
<stop offset="1" stop-color="#7103A4"/>
</linearGradient>
<linearGradient id="paint21_linear_1377_3426" x1="80.0071" y1="155.169" x2="87.6511" y2="155.169" gradientUnits="userSpaceOnUse">
<stop stop-color="#F57A00"/>
<stop offset="1" stop-color="#7103A4"/>
</linearGradient>
<linearGradient id="paint22_linear_1377_3426" x1="142.688" y1="53.4191" x2="150.332" y2="53.4191" gradientUnits="userSpaceOnUse">
<stop stop-color="#F57A00"/>
<stop offset="1" stop-color="#7103A4"/>
</linearGradient>
<linearGradient id="paint23_linear_1377_3426" x1="142.688" y1="120.771" x2="150.332" y2="120.771" gradientUnits="userSpaceOnUse">
<stop stop-color="#F57A00"/>
<stop offset="1" stop-color="#7103A4"/>
</linearGradient>
<linearGradient id="paint24_linear_1377_3426" x1="17.2415" y1="53.4191" x2="24.8855" y2="53.4191" gradientUnits="userSpaceOnUse">
<stop stop-color="#F57A00"/>
<stop offset="1" stop-color="#7103A4"/>
</linearGradient>
<linearGradient id="paint25_linear_1377_3426" x1="17.2415" y1="120.771" x2="24.8855" y2="120.771" gradientUnits="userSpaceOnUse">
<stop stop-color="#F57A00"/>
<stop offset="1" stop-color="#7103A4"/>
</linearGradient>
<linearGradient id="paint26_linear_1377_3426" x1="38.5598" y1="245.962" x2="164.006" y2="245.962" gradientUnits="userSpaceOnUse">
<stop stop-color="#F57A00"/>
<stop offset="1" stop-color="#7103A4"/>
</linearGradient>
<linearGradient id="paint27_linear_1377_3426" x1="49.4309" y1="246.005" x2="153.135" y2="246.005" gradientUnits="userSpaceOnUse">
<stop stop-color="#F57A00"/>
<stop offset="1" stop-color="#7103A4"/>
</linearGradient>
<linearGradient id="paint28_linear_1377_3426" x1="97.418" y1="177.931" x2="105.062" y2="177.931" gradientUnits="userSpaceOnUse">
<stop stop-color="#F57A00"/>
<stop offset="1" stop-color="#7103A4"/>
</linearGradient>
<linearGradient id="paint29_linear_1377_3426" x1="97.418" y1="314.419" x2="105.062" y2="314.419" gradientUnits="userSpaceOnUse">
<stop stop-color="#F57A00"/>
<stop offset="1" stop-color="#7103A4"/>
</linearGradient>
<linearGradient id="paint30_linear_1377_3426" x1="160.184" y1="212.669" x2="167.828" y2="212.669" gradientUnits="userSpaceOnUse">
<stop stop-color="#F57A00"/>
<stop offset="1" stop-color="#7103A4"/>
</linearGradient>
<linearGradient id="paint31_linear_1377_3426" x1="160.184" y1="279.936" x2="167.828" y2="279.936" gradientUnits="userSpaceOnUse">
<stop stop-color="#F57A00"/>
<stop offset="1" stop-color="#7103A4"/>
</linearGradient>
<linearGradient id="paint32_linear_1377_3426" x1="34.8225" y1="212.667" x2="42.4665" y2="212.667" gradientUnits="userSpaceOnUse">
<stop stop-color="#F57A00"/>
<stop offset="1" stop-color="#7103A4"/>
</linearGradient>
<linearGradient id="paint33_linear_1377_3426" x1="34.7375" y1="279.936" x2="42.3815" y2="279.936" gradientUnits="userSpaceOnUse">
<stop stop-color="#F57A00"/>
<stop offset="1" stop-color="#7103A4"/>
</linearGradient>
<linearGradient id="paint34_linear_1377_3426" x1="113.811" y1="360.962" x2="214.202" y2="360.962" gradientUnits="userSpaceOnUse">
<stop stop-color="#F57A00"/>
<stop offset="1" stop-color="#7103A4"/>
</linearGradient>
<linearGradient id="paint35_linear_1377_3426" x1="160.949" y1="306.521" x2="167.064" y2="306.521" gradientUnits="userSpaceOnUse">
<stop stop-color="#F57A00"/>
<stop offset="1" stop-color="#7103A4"/>
</linearGradient>
<linearGradient id="paint36_linear_1377_3426" x1="160.949" y1="415.66" x2="167.064" y2="415.66" gradientUnits="userSpaceOnUse">
<stop stop-color="#F57A00"/>
<stop offset="1" stop-color="#7103A4"/>
</linearGradient>
<linearGradient id="paint37_linear_1377_3426" x1="211.145" y1="334.293" x2="217.26" y2="334.293" gradientUnits="userSpaceOnUse">
<stop stop-color="#F57A00"/>
<stop offset="1" stop-color="#7103A4"/>
</linearGradient>
<linearGradient id="paint38_linear_1377_3426" x1="211.145" y1="388.142" x2="217.26" y2="388.142" gradientUnits="userSpaceOnUse">
<stop stop-color="#F57A00"/>
<stop offset="1" stop-color="#7103A4"/>
</linearGradient>
<linearGradient id="paint39_linear_1377_3426" x1="110.753" y1="334.291" x2="116.868" y2="334.291" gradientUnits="userSpaceOnUse">
<stop stop-color="#F57A00"/>
<stop offset="1" stop-color="#7103A4"/>
</linearGradient>
<linearGradient id="paint40_linear_1377_3426" x1="110.753" y1="388.139" x2="116.868" y2="388.139" gradientUnits="userSpaceOnUse">
<stop stop-color="#F57A00"/>
<stop offset="1" stop-color="#7103A4"/>
</linearGradient>
<linearGradient id="paint41_linear_1377_3426" x1="50.687" y1="87.2289" x2="115.273" y2="87.2289" gradientUnits="userSpaceOnUse">
<stop stop-color="#F57A00"/>
<stop offset="1" stop-color="#7103A4"/>
</linearGradient>
<linearGradient id="paint42_linear_1377_3426" x1="177.17" y1="115.504" x2="302.617" y2="115.504" gradientUnits="userSpaceOnUse">
<stop stop-color="#F57A00"/>
<stop offset="1" stop-color="#7103A4"/>
</linearGradient>
<linearGradient id="paint43_linear_1377_3426" x1="188.126" y1="115.547" x2="291.745" y2="115.547" gradientUnits="userSpaceOnUse">
<stop stop-color="#F57A00"/>
<stop offset="1" stop-color="#7103A4"/>
</linearGradient>
<linearGradient id="paint44_linear_1377_3426" x1="236.114" y1="47.4738" x2="243.758" y2="47.4738" gradientUnits="userSpaceOnUse">
<stop stop-color="#F57A00"/>
<stop offset="1" stop-color="#7103A4"/>
</linearGradient>
<linearGradient id="paint45_linear_1377_3426" x1="236.114" y1="183.962" x2="243.758" y2="183.962" gradientUnits="userSpaceOnUse">
<stop stop-color="#F57A00"/>
<stop offset="1" stop-color="#7103A4"/>
</linearGradient>
<linearGradient id="paint46_linear_1377_3426" x1="298.795" y1="82.1262" x2="306.439" y2="82.1262" gradientUnits="userSpaceOnUse">
<stop stop-color="#F57A00"/>
<stop offset="1" stop-color="#7103A4"/>
</linearGradient>
<linearGradient id="paint47_linear_1377_3426" x1="298.795" y1="149.479" x2="306.439" y2="149.479" gradientUnits="userSpaceOnUse">
<stop stop-color="#F57A00"/>
<stop offset="1" stop-color="#7103A4"/>
</linearGradient>
<linearGradient id="paint48_linear_1377_3426" x1="173.348" y1="82.1262" x2="180.992" y2="82.1262" gradientUnits="userSpaceOnUse">
<stop stop-color="#F57A00"/>
<stop offset="1" stop-color="#7103A4"/>
</linearGradient>
<linearGradient id="paint49_linear_1377_3426" x1="173.348" y1="149.479" x2="180.992" y2="149.479" gradientUnits="userSpaceOnUse">
<stop stop-color="#F57A00"/>
<stop offset="1" stop-color="#7103A4"/>
</linearGradient>
<linearGradient id="paint50_linear_1377_3426" x1="186.683" y1="264.86" x2="293.105" y2="264.86" gradientUnits="userSpaceOnUse">
<stop stop-color="#F57A00"/>
<stop offset="1" stop-color="#7103A4"/>
</linearGradient>
<linearGradient id="paint51_linear_1377_3426" x1="195.941" y1="264.86" x2="283.847" y2="264.86" gradientUnits="userSpaceOnUse">
<stop stop-color="#F57A00"/>
<stop offset="1" stop-color="#7103A4"/>
</linearGradient>
<linearGradient id="paint52_linear_1377_3426" x1="236.624" y1="207.148" x2="243.249" y2="207.148" gradientUnits="userSpaceOnUse">
<stop stop-color="#F57A00"/>
<stop offset="1" stop-color="#7103A4"/>
</linearGradient>
<linearGradient id="paint53_linear_1377_3426" x1="236.624" y1="322.912" x2="243.249" y2="322.912" gradientUnits="userSpaceOnUse">
<stop stop-color="#F57A00"/>
<stop offset="1" stop-color="#7103A4"/>
</linearGradient>
<linearGradient id="paint54_linear_1377_3426" x1="289.792" y1="236.536" x2="296.417" y2="236.536" gradientUnits="userSpaceOnUse">
<stop stop-color="#F57A00"/>
<stop offset="1" stop-color="#7103A4"/>
</linearGradient>
<linearGradient id="paint55_linear_1377_3426" x1="289.792" y1="293.695" x2="296.417" y2="293.695" gradientUnits="userSpaceOnUse">
<stop stop-color="#F57A00"/>
<stop offset="1" stop-color="#7103A4"/>
</linearGradient>
<linearGradient id="paint56_linear_1377_3426" x1="183.371" y1="236.536" x2="189.995" y2="236.536" gradientUnits="userSpaceOnUse">
<stop stop-color="#F57A00"/>
<stop offset="1" stop-color="#7103A4"/>
</linearGradient>
<linearGradient id="paint57_linear_1377_3426" x1="183.371" y1="293.695" x2="189.995" y2="293.695" gradientUnits="userSpaceOnUse">
<stop stop-color="#F57A00"/>
<stop offset="1" stop-color="#7103A4"/>
</linearGradient>
<linearGradient id="paint58_linear_1377_3426" x1="227.961" y1="267.875" x2="252.591" y2="267.875" gradientUnits="userSpaceOnUse">
<stop stop-color="#F57A00"/>
<stop offset="1" stop-color="#7103A4"/>
</linearGradient>
<linearGradient id="paint59_linear_1377_3426" x1="370.758" y1="69.2984" x2="393.338" y2="61.8334" gradientUnits="userSpaceOnUse">
<stop stop-color="#F57A00"/>
<stop offset="1" stop-color="#7103A4"/>
</linearGradient>
<linearGradient id="paint60_linear_1377_3426" x1="80.6868" y1="94.3994" x2="86.1225" y2="94.3994" gradientUnits="userSpaceOnUse">
<stop stop-color="#F57A00"/>
<stop offset="1" stop-color="#7103A4"/>
</linearGradient>
</defs>
</svg>
