<svg width="107" height="106" viewBox="0 0 107 106" fill="none" xmlns="http://www.w3.org/2000/svg">
<rect x="1.44789" y="0.660778" width="104.403" height="104.403" rx="52.2015" fill="#171717"/>
<rect x="1.44789" y="0.660778" width="104.403" height="104.403" rx="52.2015" stroke="#F57A00" stroke-width="1.32156"/>
<path d="M53 36C52.448 36 52 35.551 52 35H50C50 36.654 51.346 38 53 38V40H55V38H58V35C58 33.346 56.654 32 55 32H53C52.448 32 52 31.551 52 31V30H55C55.552 30 56 30.449 56 31H58C58 29.346 56.654 28 55 28V26H53V28H50V31C50 32.654 51.346 34 53 34H55C55.552 34 56 34.449 56 35V36H53Z" fill="#F57A00"/>
<path d="M81 68H80V48H83V42.414L64.965 32.314C64.608 26.569 59.834 22 54 22C48.166 22 43.392 26.569 43.035 32.314L25 42.414V48H28V68H27C24.794 68 23 69.794 23 72C23 74.206 24.794 76 27 76C27.732 76 28.409 75.788 29 75.444V84H79V75.444C79.6053 75.8039 80.2957 75.9959 81 76C83.206 76 85 74.206 85 72C85 69.794 83.206 68 81 68ZM78 68H74V48H78V68ZM50 48V68H36V48H50ZM52 48H56V68H52V48ZM58 48H72V68H58V48ZM78.168 42H60.305C61.535 41.1374 62.5753 40.032 63.3616 38.7519C64.148 37.4718 64.6637 36.0441 64.877 34.557L78.168 42ZM54 24C58.963 24 63 28.038 63 33C63 37.962 58.963 42 54 42C49.037 42 45 37.962 45 33C45 28.038 49.037 24 54 24ZM47.695 42H29.832L43.123 34.557C43.3363 36.0441 43.852 37.4718 44.6384 38.7519C45.4247 40.032 46.465 41.1374 47.695 42ZM27 44H81V46H27V44ZM30 48H34V68H30V48ZM43 82H37V77C37 75.346 38.346 74 40 74C41.654 74 43 75.346 43 77V82ZM57 82H51V77C51 75.346 52.346 74 54 74C55.654 74 57 75.346 57 77V82ZM71 82H65V77C65 75.346 66.346 74 68 74C69.654 74 71 75.346 71 77V82ZM81 74C79.897 74 79 73.103 79 72H77V82H73V77C73 74.243 70.757 72 68 72C65.243 72 63 74.243 63 77V82H59V77C59 74.243 56.757 72 54 72C51.243 72 49 74.243 49 77V82H45V77C45 74.243 42.757 72 40 72C37.243 72 35 74.243 35 77V82H31V72H29C29 73.103 28.103 74 27 74C25.897 74 25 73.103 25 72C25 70.897 25.897 70 27 70H81C82.103 70 83 70.897 83 72C83 73.103 82.103 74 81 74Z" fill="#F57A00"/>
<path d="M60 50V66H70V50H60ZM68 64H62V52H68V64ZM48 66V50H38V66H48ZM40 52H46V64H40V52Z" fill="#F57A00"/>
</svg>
