<svg width="105" height="105" viewBox="0 0 105 105" fill="none" xmlns="http://www.w3.org/2000/svg">
<rect x="0.660778" y="0.660778" width="103.678" height="103.678" rx="51.8392" fill="#171717"/>
<rect x="0.660778" y="0.660778" width="103.678" height="103.678" rx="51.8392" stroke="#F57A00" stroke-width="1.32156"/>
<path d="M37.8349 35.4726C32.7293 35.4726 28.5748 31.3181 28.5748 26.2125C28.5748 21.107 32.7293 16.9525 37.8349 16.9525C42.9405 16.9525 47.0949 21.107 47.0949 26.2125C47.0949 31.3181 42.9421 35.4726 37.8349 35.4726ZM37.8349 18.8887C33.7965 18.8887 30.5094 22.1742 30.5094 26.2142C30.5094 30.2541 33.7949 33.5396 37.8349 33.5396C41.8748 33.5396 45.1603 30.2525 45.1603 26.2125C45.1603 22.1726 41.8748 18.8887 37.8349 18.8887Z" fill="#F57A00"/>
<path d="M38.6652 30.4976H35.3474C34.8138 30.4976 34.3802 30.0639 34.3802 29.5303C34.3802 28.9967 34.8138 28.563 35.3474 28.563H38.6636C39.044 28.563 39.3552 28.2535 39.3552 27.8714C39.3552 27.491 39.0456 27.1798 38.6636 27.1798H37.0047C35.557 27.1798 34.3786 26.0014 34.3786 24.5537C34.3786 23.106 35.557 21.9275 37.0047 21.9275H40.3208C40.8544 21.9275 41.2881 22.3612 41.2881 22.8948C41.2881 23.4284 40.8544 23.8621 40.3208 23.8621H37.0047C36.6242 23.8621 36.3131 24.1716 36.3131 24.5537C36.3131 24.9341 36.6226 25.2453 37.0047 25.2453H38.6636C40.1113 25.2453 41.2897 26.4237 41.2897 27.8714C41.2897 29.3191 40.1129 30.4976 38.6652 30.4976Z" fill="#F57A00"/>
<path d="M37.8346 32.1564C37.301 32.1564 36.8673 31.7228 36.8673 31.1892V29.5303C36.8673 28.9967 37.301 28.563 37.8346 28.563C38.3682 28.563 38.8019 28.9967 38.8019 29.5303V31.1892C38.8019 31.7228 38.3698 32.1564 37.8346 32.1564ZM37.8346 23.8637C37.301 23.8637 36.8673 23.43 36.8673 22.8964V21.2375C36.8673 20.7039 37.301 20.2703 37.8346 20.2703C38.3682 20.2703 38.8019 20.7039 38.8019 21.2375V22.8964C38.8019 23.43 38.3698 23.8637 37.8346 23.8637ZM60.2237 35.4726C55.1181 35.4726 50.9637 31.3181 50.9637 26.2125C50.9637 21.107 55.1181 16.9525 60.2237 16.9525C65.3293 16.9525 69.4837 21.107 69.4837 26.2125C69.4837 31.3181 65.3293 35.4726 60.2237 35.4726ZM60.2237 18.8887C56.1854 18.8887 52.8982 22.1742 52.8982 26.2142C52.8982 30.2541 56.1837 33.5396 60.2237 33.5396C64.2621 33.5396 67.5492 30.2541 67.5492 26.2142C67.5492 22.1742 64.2637 18.8887 60.2237 18.8887ZM52.4855 87.7134C37.4735 87.7134 25.26 75.4999 25.26 60.4862C25.26 59.9526 25.6937 59.519 26.2273 59.519H78.7454C79.279 59.519 79.7126 59.9526 79.7126 60.4862C79.711 75.4999 67.4976 87.7134 52.4855 87.7134ZM27.2123 61.4551C27.7217 74.955 38.8631 85.7804 52.4855 85.7804C66.108 85.7804 77.2493 74.9566 77.7588 61.4551H27.2123Z" fill="#F57A00"/>
<path d="M65.3192 84.1474C64.9645 84.1474 64.6228 83.9523 64.4535 83.6122L62.3432 79.3916C62.2285 79.1592 62.0417 78.9701 61.8108 78.8525C61.5798 78.7348 61.317 78.6949 61.0616 78.7387L59.3785 79.0192C58.2791 79.1998 57.157 78.7839 56.4461 77.9311L54.8195 75.9772C54.6206 75.7386 54.3377 75.5856 54.0292 75.5499C53.7207 75.5142 53.4103 75.5985 53.1622 75.7853L50.5054 77.7779C49.9541 78.189 49.3028 78.4066 48.6192 78.4066C47.6584 78.4066 46.7621 77.9762 46.1608 77.2266C46.0483 77.0854 45.9057 76.9713 45.7433 76.8927C45.5809 76.814 45.4029 76.7727 45.2225 76.7719H45.2161C44.8501 76.7719 44.5099 76.9332 44.2778 77.2169L39.3882 83.193C39.0497 83.6057 38.4403 83.667 38.0276 83.3284C37.9292 83.2481 37.8477 83.1491 37.7876 83.0372C37.7276 82.9253 37.6902 82.8026 37.6776 82.6762C37.665 82.5498 37.6775 82.4222 37.7143 82.3006C37.7511 82.1791 37.8116 82.066 37.8922 81.9678L42.7817 75.9917C43.3831 75.2582 44.2697 74.8374 45.2177 74.8374H45.2354C46.1898 74.8422 47.0781 75.2727 47.6745 76.0175C47.7882 76.1596 47.9325 76.2743 48.0966 76.353C48.2607 76.4317 48.4404 76.4724 48.6225 76.4721C48.8852 76.4721 49.1367 76.3883 49.3495 76.2287L52.0047 74.2361C53.346 73.2317 55.2354 73.4526 56.3091 74.7374L57.9373 76.6913C58.0731 76.8532 58.2487 76.977 58.4469 77.0505C58.645 77.124 58.8589 77.1447 59.0674 77.1105L60.7488 76.83C62.1208 76.6011 63.4572 77.283 64.0779 78.5259L66.1881 82.7465C66.4267 83.2236 66.2333 83.8056 65.7561 84.0442C65.611 84.1152 65.4643 84.1474 65.3192 84.1474ZM76.8088 61.1795H61.8822C61.3486 61.1795 60.9149 60.7458 60.9149 60.2122V40.3106C60.9149 39.777 61.3486 39.3433 61.8822 39.3433H76.8088C77.3424 39.3433 77.7761 39.777 77.7761 40.3106V60.2122C77.7761 60.7458 77.3424 61.1795 76.8088 61.1795ZM62.8494 59.245H75.8415V41.2779H62.8494V59.245Z" fill="#F57A00"/>
<path d="M74.3217 41.2778H64.3701C63.8365 41.2778 63.4028 40.8441 63.4028 40.3105V36.9944C63.4028 36.4608 63.8365 36.0271 64.3701 36.0271H74.3217C74.8553 36.0271 75.289 36.4608 75.289 36.9944V40.3105C75.289 40.8441 74.8553 41.2778 74.3217 41.2778ZM65.3374 39.3433H73.3544V37.9617H65.3374V39.3433ZM61.8826 61.1794H48.6148C48.0812 61.1794 47.6476 60.7458 47.6476 60.2122V49.4319C47.6476 48.8983 48.0812 48.4646 48.6148 48.4646H61.8826C62.4162 48.4646 62.8499 48.8983 62.8499 49.4319V60.2122C62.8499 60.7458 62.4178 61.1794 61.8826 61.1794ZM49.5821 59.2449H60.9153V50.3992H49.5821V59.2449ZM37.0059 61.1794H27.8846C27.351 61.1794 26.9173 60.7458 26.9173 60.2122V45.2855C26.9173 44.7519 27.351 44.3183 27.8846 44.3183H37.0059C37.5396 44.3183 37.9732 44.7519 37.9732 45.2855V60.2122C37.9732 60.7458 37.5396 61.1794 37.0059 61.1794ZM28.8518 59.2449H36.0387V46.2528H28.8518V59.2449Z" fill="#F57A00"/>
<path d="M43.6398 61.1794H37.0059C36.4723 61.1794 36.0387 60.7458 36.0387 60.2122V52.7497C36.0387 52.216 36.4723 51.7824 37.0059 51.7824H43.6398C44.1734 51.7824 44.6071 52.216 44.6071 52.7497V60.2122C44.6071 60.7458 44.1734 61.1794 43.6398 61.1794ZM37.9732 59.2449H42.6726V53.7169H37.9732V59.2449ZM73.4915 47.9117H65.1987C64.6651 47.9117 64.2314 47.478 64.2314 46.9444V43.6283C64.2314 43.0947 64.6651 42.661 65.1987 42.661H73.4915C74.0251 42.661 74.4587 43.0947 74.4587 43.6283V46.9444C74.4587 47.478 74.0267 47.9117 73.4915 47.9117ZM66.1676 45.9771H72.5258V44.5955H66.1676V45.9771ZM73.4915 54.5456H65.1987C64.6651 54.5456 64.2314 54.1119 64.2314 53.5783V50.2621C64.2314 49.7285 64.6651 49.2949 65.1987 49.2949H73.4915C74.0251 49.2949 74.4587 49.7285 74.4587 50.2621V53.5783C74.4587 54.1119 74.0267 54.5456 73.4915 54.5456ZM66.1676 52.611H72.5258V51.2294H66.1676V52.611ZM57.7362 54.5456H52.7612C52.2276 54.5456 51.7939 54.1119 51.7939 53.5783C51.7939 53.0447 52.2276 52.611 52.7612 52.611H57.7362C58.2698 52.611 58.7035 53.0447 58.7035 53.5783C58.7035 54.1119 58.2714 54.5456 57.7362 54.5456ZM57.7362 57.8617H52.7612C52.2276 57.8617 51.7939 57.428 51.7939 56.8944C51.7939 56.3608 52.2276 55.9271 52.7612 55.9271H57.7362C58.2698 55.9271 58.7035 56.3608 58.7035 56.8944C58.7035 57.428 58.2714 57.8617 57.7362 57.8617ZM34.5184 46.2528H29.5434C29.0098 46.2528 28.5762 45.8191 28.5762 45.2855V41.9694C28.5762 41.4358 29.0098 41.0021 29.5434 41.0021H34.5184C35.0521 41.0021 35.4857 41.4358 35.4857 41.9694V45.2855C35.4857 45.8191 35.0521 46.2528 34.5184 46.2528ZM30.5107 44.3183H33.5512V42.9367H30.5107V44.3183ZM33.6898 51.2278H31.2007C30.6671 51.2278 30.2334 50.7941 30.2334 50.2605C30.2334 49.7269 30.6671 49.2933 31.2007 49.2933H33.6882C34.2218 49.2933 34.6555 49.7269 34.6555 50.2605C34.6555 50.7941 34.2234 51.2278 33.6898 51.2278ZM33.6898 54.5456H31.2007C30.6671 54.5456 30.2334 54.1119 30.2334 53.5783C30.2334 53.0447 30.6671 52.611 31.2007 52.611H33.6882C34.2218 52.611 34.6555 53.0447 34.6555 53.5783C34.6555 54.1119 34.2234 54.5456 33.6898 54.5456ZM69.2322 81.6824C68.8776 81.6824 68.5358 81.4873 68.3665 81.1472L65.497 75.408C65.2905 74.9992 65.1833 74.5474 65.1842 74.0893C65.1842 72.6851 66.1837 71.4664 67.5589 71.1907C67.7896 71.144 67.9972 71.019 68.1464 70.8368C68.2956 70.6547 68.3774 70.4266 68.3778 70.1912V68.363C68.3778 67.0363 69.2726 65.8643 70.5526 65.5128L78.2037 63.4251C78.223 63.4203 78.2408 63.4154 78.2601 63.4122C78.7825 63.3026 79.2983 63.6379 79.408 64.1602C79.516 64.6729 79.1984 65.1759 78.6922 65.2984L71.062 67.3797C70.8466 67.439 70.6565 67.5673 70.5208 67.7449C70.3852 67.9225 70.3114 68.1396 70.3108 68.363V70.1928C70.3108 71.597 69.3129 72.8141 67.9361 73.0882C67.3977 73.1962 67.1171 73.6734 67.1171 74.0893C67.1171 74.2473 67.1542 74.3988 67.2252 74.5423L70.0947 80.2815C70.3333 80.7586 70.1399 81.3406 69.6627 81.5792C69.5257 81.6485 69.3773 81.6824 69.2322 81.6824ZM35.5438 81.518C35.3987 81.518 35.2503 81.4857 35.1117 81.4148C34.6345 81.1762 34.4394 80.5942 34.6797 80.117L37.467 74.5423C37.5396 74.3988 37.575 74.2473 37.575 74.0893C37.575 73.6734 37.2929 73.1946 36.7545 73.0882C35.3793 72.8141 34.3798 71.5953 34.3798 70.1928V68.363C34.3798 67.9052 34.0703 67.5006 33.6286 67.3797L26.2676 65.3726C26.145 65.3391 26.0302 65.2819 25.9297 65.2041C25.8293 65.1263 25.7451 65.0294 25.6821 64.9191C25.6191 64.8088 25.5784 64.6871 25.5624 64.561C25.5464 64.435 25.5554 64.307 25.5889 64.1844C25.6223 64.0618 25.6796 63.947 25.7574 63.8465C25.8352 63.7461 25.932 63.6619 26.0424 63.5989C26.1527 63.5359 26.2744 63.4952 26.4004 63.4792C26.5265 63.4632 26.6545 63.4722 26.777 63.5057L34.1396 65.5144C35.4212 65.8643 36.316 67.0363 36.316 68.3647V70.1944C36.316 70.6781 36.6593 71.0988 37.1349 71.1939C38.5117 71.468 39.5112 72.6884 39.5112 74.0925C39.5112 74.5536 39.4064 74.9969 39.1984 75.4112L36.4111 80.986C36.3296 81.146 36.2055 81.2804 36.0524 81.3743C35.8994 81.4681 35.7233 81.5179 35.5438 81.518ZM61.8826 31.3262H61.054C58.2344 31.3262 55.9403 29.0321 55.9403 26.2125C55.9403 23.3929 58.2344 21.0989 61.054 21.0989H61.8826C62.4162 21.0989 62.8499 21.5325 62.8499 22.0661C62.8499 22.5998 62.4162 23.0334 61.8826 23.0334H61.054C59.3016 23.0334 57.8749 24.4601 57.8749 26.2125C57.8749 27.9649 59.3016 29.3916 61.054 29.3916H61.8826C62.4162 29.3916 62.8499 29.8253 62.8499 30.3589C62.8499 30.8925 62.4178 31.3262 61.8826 31.3262Z" fill="#F57A00"/>
<path d="M61.8826 27.1798H56.9076C56.374 27.1798 55.9403 26.7462 55.9403 26.2125C55.9403 25.6789 56.374 25.2453 56.9076 25.2453H61.8826C62.4162 25.2453 62.8499 25.6789 62.8499 26.2125C62.8499 26.7462 62.4178 27.1798 61.8826 27.1798ZM53.5915 44.1796C53.0578 44.1796 52.6242 43.746 52.6242 43.2124C52.6242 41.0021 50.8267 39.2046 48.6164 39.2046C46.4062 39.2046 44.6087 41.0021 44.6087 43.2124C44.6087 43.746 44.1751 44.1796 43.6414 44.1796C43.1078 44.1796 42.6742 43.746 42.6742 43.2124C42.6742 39.9349 45.3406 37.2701 48.6164 37.2701C51.8923 37.2701 54.5587 39.9365 54.5587 43.2124C54.5587 43.746 54.1251 44.1796 53.5915 44.1796Z" fill="#F57A00"/>
<path d="M50.2737 44.5939C49.7401 44.5939 49.3064 44.1603 49.3064 43.6267C49.3064 43.2462 48.9969 42.9351 48.6148 42.9351C48.2344 42.9351 47.9232 43.2446 47.9232 43.6267C47.9232 44.1603 47.4896 44.5939 46.956 44.5939C46.4223 44.5939 45.9887 44.1603 45.9887 43.6267C45.9887 42.179 47.1671 41.0005 48.6148 41.0005C50.0625 41.0005 51.241 42.179 51.241 43.6267C51.241 44.1603 50.8073 44.5939 50.2737 44.5939Z" fill="#F57A00"/>
<path d="M56.9073 43.7655C56.3737 43.7655 55.94 43.3318 55.94 42.7982C55.94 38.7599 52.6545 35.4728 48.6145 35.4728C44.5745 35.4728 41.289 38.7583 41.289 42.7982C41.289 43.3318 40.8554 43.7655 40.3218 43.7655C39.7882 43.7655 39.3545 43.3318 39.3545 42.7982C39.3545 37.6926 43.5089 33.5382 48.6145 33.5382C53.7201 33.5382 57.8745 37.6926 57.8745 42.7982C57.8745 43.3318 57.4409 43.7655 56.9073 43.7655ZM48.6145 47.0816C48.5516 47.0816 48.4888 47.0752 48.4259 47.0623C48.3646 47.051 48.3034 47.0317 48.2453 47.0075C48.1873 46.9833 48.1309 46.9543 48.0777 46.9188C48.0245 46.8833 47.9761 46.843 47.931 46.7979C47.7504 46.619 47.6472 46.3691 47.6472 46.1144C47.6474 45.9552 47.6868 45.7986 47.7619 45.6583C47.837 45.518 47.9454 45.3984 48.0777 45.3099C48.1309 45.2761 48.1873 45.2454 48.2453 45.2213C48.3034 45.1971 48.3646 45.1793 48.4259 45.1664C48.55 45.1406 48.679 45.1406 48.8031 45.1664C48.866 45.1793 48.9257 45.1971 48.9853 45.2213C49.1028 45.2699 49.2096 45.3411 49.2997 45.4308C49.4796 45.6129 49.5809 45.8584 49.5818 46.1144C49.5818 46.1772 49.5753 46.2417 49.5624 46.303C49.5512 46.3659 49.5318 46.4271 49.5076 46.4852C49.4834 46.5432 49.4544 46.5996 49.419 46.6512C49.3835 46.7044 49.3432 46.7544 49.2997 46.7979C49.2545 46.843 49.2046 46.8833 49.1514 46.9188C49.0998 46.9543 49.0433 46.9833 48.9853 47.0075C48.9257 47.0317 48.866 47.051 48.8031 47.0623C48.7419 47.0752 48.6774 47.0816 48.6145 47.0816Z" fill="#F57A00"/>
</svg>
