<svg width="106" height="105" viewBox="0 0 106 105" fill="none" xmlns="http://www.w3.org/2000/svg">
<rect x="0.660778" y="0.660778" width="104.403" height="103.678" rx="51.8392" fill="#171717"/>
<rect x="0.660778" y="0.660778" width="104.403" height="103.678" rx="51.8392" stroke="#F57A00" stroke-width="1.32156"/>
<path d="M52.9997 37.9496C54.5032 37.9496 55.7259 36.7265 55.7259 35.2233C55.7259 33.7197 54.5029 32.4966 52.9997 32.4966C51.4964 32.4966 50.2734 33.7197 50.2734 35.2233C50.2734 36.7265 51.4964 37.9496 52.9997 37.9496ZM52.9997 34.1958C53.5661 34.1958 54.0267 34.6569 54.0267 35.2233C54.0267 35.7892 53.5661 36.2504 52.9997 36.2504C52.4333 36.2504 51.9727 35.7897 51.9727 35.2233C51.9727 34.6569 52.4333 34.1958 52.9997 34.1958Z" fill="#F57A00"/>
<path d="M81.1504 75.3091H80.1234V72.4054C80.1234 71.9364 79.7428 71.5558 79.2738 71.5558H76.3699V68.652C76.3699 68.4267 76.2804 68.2106 76.1211 68.0513C75.9617 67.8919 75.7456 67.8024 75.5203 67.8024H74.4936V49.2097H75.5203C75.7456 49.2097 75.9617 49.1202 76.1211 48.9608C76.2804 48.8015 76.3699 48.5854 76.3699 48.3601V45.4563H79.2737C79.499 45.4563 79.7151 45.3668 79.8744 45.2075C80.0338 45.0482 80.1233 44.8321 80.1233 44.6067V40.8535C80.1233 40.6282 80.0338 40.4121 79.8744 40.2527C79.7151 40.0934 79.499 40.0039 79.2737 40.0039H77.6625L53.4837 23.2643C53.3416 23.166 53.1728 23.1133 53 23.1133C52.8272 23.1133 52.6584 23.166 52.5163 23.2643L28.3379 40.0039H26.7262C26.5009 40.0039 26.2848 40.0934 26.1255 40.2527C25.9661 40.4121 25.8766 40.6282 25.8766 40.8535V44.6067C25.8766 45.0758 26.2572 45.4563 26.7262 45.4563H29.6301V48.3601C29.6301 48.8291 30.0107 49.2097 30.4797 49.2097H31.5068V67.8025H30.4797C30.2544 67.8025 30.0383 67.8921 29.8789 68.0514C29.7196 68.2107 29.6301 68.4268 29.6301 68.6522V71.5558H26.7262C26.2572 71.5558 25.8766 71.9364 25.8766 72.4054V75.3091H24.8496C24.738 75.3091 24.6275 75.331 24.5244 75.3737C24.4213 75.4164 24.3276 75.479 24.2487 75.5579C24.1698 75.6368 24.1073 75.7305 24.0646 75.8336C24.0219 75.9367 24 76.0472 24 76.1587V79.9116C24 80.3811 24.3801 80.7612 24.8496 80.7612H81.1504C81.6199 80.7612 82 80.3811 82 79.9116V76.1586C82 75.9333 81.9105 75.7172 81.7512 75.5579C81.5918 75.3985 81.3757 75.309 81.1504 75.309V75.3091ZM74.6707 71.5558H66.9868V69.5017H74.6707V71.5558ZM68.8629 67.8024V49.2097H72.7941V67.8025L68.8629 67.8024ZM74.6708 47.5105H66.9867V45.4563H74.6707L74.6708 47.5105ZM66.1371 49.2097H67.1637V67.8025H66.1371C66.0255 67.8025 65.915 67.8244 65.8119 67.8671C65.7088 67.9098 65.6152 67.9724 65.5363 68.0513C65.4573 68.1302 65.3948 68.2239 65.3521 68.327C65.3094 68.4301 65.2875 68.5406 65.2875 68.6522V71.5558H58.5415V68.652C58.5415 68.4267 58.452 68.2106 58.2926 68.0513C58.1333 67.8919 57.9172 67.8024 57.6919 67.8024H56.6649V49.2097H57.6919C58.1609 49.2097 58.5415 48.8291 58.5415 48.3601V45.4563H65.2874V48.3601C65.2874 48.5854 65.3769 48.8015 65.5362 48.9608C65.6956 49.1202 65.9117 49.2097 66.137 49.2097H66.1371ZM49.1582 45.4563H56.8423V47.5105H49.1582V45.4563ZM51.0343 49.2097H54.9657V67.8025H51.0343V49.2097ZM56.8423 69.5018V71.5558H49.1582V69.5017L56.8423 69.5018ZM27.5758 41.703H42.4025C42.6279 41.703 42.844 41.6135 43.0033 41.4542C43.1626 41.2948 43.2521 41.0787 43.2521 40.8534C43.2521 40.3838 42.8721 40.0038 42.4025 40.0038H31.3231L53 24.9964L74.6775 40.0039H45.801C45.5756 40.0039 45.3595 40.0934 45.2002 40.2527C45.0409 40.4121 44.9514 40.6282 44.9514 40.8535C44.9514 41.0788 45.0409 41.2949 45.2002 41.4543C45.3595 41.6136 45.5756 41.7031 45.801 41.7031H78.4242V43.7571H27.5758V41.703ZM31.3293 45.4563H39.0138V47.5105H31.3293V45.4563ZM37.1372 49.2097V67.8025H33.2059V49.2097H37.1372ZM31.3293 69.5018H39.0138V71.5558H31.3293V69.5018ZM39.8635 67.8025H38.8364V49.2097H39.8635C40.3324 49.2097 40.7131 48.8291 40.7131 48.3601V45.4563H47.459V48.3601C47.459 48.5854 47.5485 48.8015 47.7078 48.9608C47.8671 49.1202 48.0832 49.2097 48.3086 49.2097H49.3352V67.8025H48.3087C48.1971 67.8025 48.0866 67.8244 47.9835 67.8671C47.8804 67.9098 47.7867 67.9724 47.7078 68.0513C47.6289 68.1302 47.5663 68.2239 47.5237 68.327C47.481 68.4301 47.459 68.5406 47.4591 68.6522V71.5558H40.7132V68.652C40.7132 68.4267 40.6237 68.2106 40.4643 68.0513C40.305 67.8919 40.0889 67.8024 39.8636 67.8024L39.8635 67.8025ZM27.5758 73.2549H78.4242V75.309H27.5758V73.2549ZM80.3008 79.0625H25.6992V77.0083H80.3008V79.0625Z" fill="#F57A00"/>
</svg>
