<svg width="692" height="506" viewBox="0 0 692 506" fill="none" xmlns="http://www.w3.org/2000/svg">
<path d="M682.138 427.197C680.674 408.062 682.87 393.309 681.259 363.511C681.113 355.915 680.82 347.589 680.381 340.286C678.624 315.746 674.818 307.421 674.525 302.6C674.525 302.6 673.94 264.476 672.329 210.723C671.597 185.453 664.278 177.857 658.422 164.419H588.739C580.98 197.431 578.785 269.589 578.931 303.769C579.077 321.151 580.395 410.545 580.541 416.534C580.688 424.13 580.249 431.141 577.321 434.354C571.026 441.074 561.071 449.838 551.556 455.096C552.727 458.018 567.073 458.456 571.758 456.119C579.224 452.467 591.082 443.265 593.717 441.512C606.453 433.04 603.086 421.939 603.086 421.939V421.062C603.232 416.826 617.579 354.747 618.457 340.432C619.189 328.016 617.579 306.982 617.579 306.982L625.63 254.397C625.63 254.397 630.607 285.51 635.585 306.69C639.684 323.926 646.418 353.432 650.956 374.612C655.348 399.152 661.789 416.534 662.96 428.804C663.253 431.725 666.62 460.501 667.938 467.074C669.255 473.647 683.748 473.793 684.626 462.546C684.919 455.096 682.284 430.703 682.138 427.197Z" fill="#FFB196"/>
<path d="M625.338 254.543L619.483 216.566C619.483 216.566 596.792 213.936 588.594 205.903C588.594 205.903 598.988 220.509 614.359 222.993L620.8 254.397L617.433 306.544L625.338 254.543Z" fill="#9A4A4D"/>
<path d="M541.455 463.86C541.016 463.86 540.723 468.535 543.066 470.433C545.847 472.624 553.752 475.984 563.853 474.085C573.954 472.186 579.225 468.681 583.177 465.029C587.13 461.377 592.546 456.119 597.084 454.804C601.33 453.636 605.868 451.444 607.186 449.984C608.503 448.523 607.917 442.68 607.917 442.68L541.455 463.86Z" fill="black"/>
<path d="M602.794 421.208C602.794 421.208 604.112 421.208 604.405 422.523C604.844 424.129 605.136 427.489 606.015 430.118C607.186 433.77 608.211 441.512 607.772 444.579C607.332 447.647 600.598 450.13 596.207 452.175C591.815 454.22 586.691 458.164 582.299 462.253C577.761 466.489 567.953 471.164 561.219 471.602C551.118 472.332 544.384 469.849 542.188 466.343C539.406 461.961 541.309 459.186 552.582 453.051C554.778 451.883 562.244 446.77 564.732 445.017C567.367 443.118 570.002 440.927 572.345 438.59C573.516 437.422 574.687 436.107 575.712 434.793C576.59 433.624 577.908 432.163 578.493 430.849C578.639 430.557 578.639 430.118 578.786 429.826C579.079 428.804 579.225 427.927 579.371 427.051C579.518 426.028 579.518 424.568 580.396 423.983C581.421 423.253 583.324 423.253 584.495 423.253C585.959 423.253 587.569 423.399 589.033 423.691C590.79 423.983 592.693 423.983 593.864 425.59C594.743 426.759 594.889 428.365 595.035 429.826C595.035 430.557 595.182 431.141 595.182 431.871C595.182 432.163 595.035 432.748 595.475 432.601C595.914 432.455 596.207 431.433 596.353 430.995C596.646 430.264 596.792 429.388 597.085 428.658C597.378 427.781 597.817 426.905 598.402 426.028C598.842 425.298 599.427 424.568 600.159 423.983C600.745 423.399 601.769 422.961 602.794 422.231V421.208Z" fill="#1B1425"/>
<path d="M550.824 453.928C565.463 454.074 570.587 462.984 571.612 468.681C568.098 470.141 564.292 471.31 561.364 471.456C551.263 472.186 544.09 469.849 541.894 466.197C539.112 462.107 540.576 458.456 550.824 453.928Z" fill="#FAFAFA"/>
<path d="M572.784 452.905C572.93 452.905 573.077 452.905 573.223 452.759C573.516 452.467 573.516 452.029 573.223 451.737C571.027 449.253 565.025 446.332 559.755 447.208C559.316 447.208 559.169 447.647 559.169 448.085C559.169 448.523 559.608 448.815 560.048 448.669C565.025 447.793 570.588 450.86 572.345 452.759C572.345 452.759 572.491 452.905 572.784 452.905Z" fill="#F0F0F0"/>
<path d="M578.785 448.815C578.931 448.815 579.078 448.815 579.224 448.669C579.517 448.377 579.517 447.939 579.224 447.647C577.028 445.164 571.026 442.242 565.756 443.119C565.317 443.119 565.17 443.557 565.17 443.995C565.17 444.433 565.609 444.725 566.049 444.579C571.026 443.703 576.589 446.77 578.346 448.669C578.346 448.669 578.638 448.815 578.785 448.815Z" fill="#F0F0F0"/>
<path d="M584.495 444.141C584.641 444.141 584.788 444.141 584.934 443.995C585.227 443.703 585.227 443.265 584.934 442.972C582.738 440.489 576.736 437.568 571.466 438.444C571.027 438.444 570.88 438.883 570.88 439.321C570.88 439.759 571.32 440.051 571.759 439.905C576.736 439.029 582.299 442.096 584.056 443.995C584.056 444.141 584.202 444.141 584.495 444.141Z" fill="#F0F0F0"/>
<path d="M589.911 439.613C590.057 439.613 590.204 439.613 590.35 439.467C590.643 439.175 590.643 438.736 590.35 438.444C587.276 434.939 580.835 433.04 575.565 433.916C575.125 433.916 574.979 434.354 574.979 434.793C574.979 435.231 575.418 435.377 575.857 435.377C580.688 434.647 586.69 436.399 589.325 439.467C589.472 439.467 589.765 439.613 589.911 439.613Z" fill="#F0F0F0"/>
<path d="M663.253 472.332C663.692 478.905 664.717 483.287 667.059 487.085C669.401 490.883 673.793 492.198 678.185 491.029C682.577 489.861 688.286 486.939 689.603 481.243C690.921 475.546 691.653 471.748 690.628 465.613L663.253 472.332Z" fill="black"/>
<path d="M681.847 424.714C683.75 424.86 684.189 433.624 685.214 442.534C686.385 452.029 689.167 455.826 690.192 463.568C691.363 472.478 689.899 476.422 686.825 481.681C683.75 487.085 672.771 492.344 667.354 484.602C662.963 478.321 662.816 471.456 663.109 462.546C663.548 453.343 662.963 447.062 662.523 440.197C662.231 433.624 660.767 426.905 662.231 426.174C662.377 427.197 662.523 428.366 662.67 429.388C662.816 430.557 662.816 431.725 663.255 432.894C663.402 433.332 663.841 433.916 663.987 433.04C664.134 432.455 663.987 431.871 663.987 431.433C663.695 428.95 665.012 428.804 665.598 428.658C667.062 428.219 672.771 427.489 674.088 427.489C675.552 427.343 680.383 427.197 680.969 427.927C681.408 428.512 681.408 429.388 681.554 430.557C681.701 431.871 681.994 432.894 681.994 432.455C682.14 431.433 681.847 428.95 681.847 428.366C681.847 427.781 681.701 427.051 681.701 426.467C681.994 425.882 681.994 425.298 681.847 424.714Z" fill="#1B1425"/>
<path d="M690.775 468.827C691.067 474.377 689.75 478.029 687.408 482.265C684.333 487.67 672.476 492.928 667.059 485.186C664.424 481.389 663.692 476.86 663.253 472.332C666.473 466.344 685.651 463.714 690.775 468.827Z" fill="#FAFAFA"/>
<path d="M667.206 462.692C667.353 462.692 667.353 462.692 667.499 462.692C667.645 462.692 676.136 459.186 684.334 461.085C684.627 461.231 685.066 460.939 685.212 460.647C685.359 460.209 685.066 459.916 684.773 459.77C675.99 457.725 667.353 461.377 667.06 461.523C666.767 461.669 666.621 462.107 666.767 462.4C666.621 462.546 666.913 462.692 667.206 462.692Z" fill="#F0F0F0"/>
<path d="M683.895 454.366C684.187 454.366 684.334 454.22 684.48 453.928C684.627 453.635 684.48 453.197 684.041 453.051C675.843 450.276 666.62 454.512 666.328 454.658C666.035 454.804 665.888 455.242 666.035 455.534C666.181 455.827 666.62 455.973 666.913 455.827C667.06 455.827 675.843 451.737 683.602 454.366C683.602 454.366 683.748 454.366 683.895 454.366Z" fill="#F0F0F0"/>
<path d="M683.602 448.085C683.895 448.085 684.041 447.939 684.187 447.647C684.334 447.354 684.187 446.916 683.748 446.77C674.672 443.557 666.035 448.085 665.742 448.231C665.449 448.377 665.303 448.815 665.449 449.107C665.596 449.399 666.035 449.546 666.328 449.399C666.328 449.399 674.818 445.017 683.163 447.939C683.309 448.085 683.455 448.085 683.602 448.085Z" fill="#F0F0F0"/>
<path d="M683.162 441.95C683.455 441.95 683.601 441.804 683.748 441.512C683.894 441.22 683.748 440.781 683.308 440.635C674.818 437.422 665.449 442.096 665.156 442.388C664.863 442.534 664.717 442.972 664.863 443.265C665.009 443.557 665.449 443.703 665.741 443.557C665.888 443.557 674.818 439.029 682.723 441.95C682.869 441.95 683.016 441.95 683.162 441.95Z" fill="#EBEBEB"/>
<path d="M660.033 164.711C668.231 179.756 674.38 192.026 675.258 236.577C676.136 281.128 675.99 293.69 676.136 299.095C676.283 304.499 679.503 314.14 682.138 340.578C684.92 367.163 681.699 398.714 681.699 398.714C681.699 398.714 679.796 402.95 669.695 403.826C660.326 404.702 655.641 401.197 655.641 401.197C655.641 401.197 642.759 349.488 639.245 333.567C635.732 317.645 625.338 265.061 625.338 265.061L620.946 308.005C620.946 308.005 622.118 322.173 619.19 345.544C616.262 368.915 607.186 400.759 607.186 400.759C607.186 400.759 601.476 402.511 593.425 402.511C585.373 402.365 579.81 399.152 579.81 399.152C579.81 399.152 578.346 322.466 578.346 296.027C578.346 269.735 581.128 205.172 583.616 165.003L660.033 164.711Z" fill="#1B1425"/>
<path d="M625.338 265.207L616.993 214.521C616.993 214.521 599.28 213.206 589.472 202.981C593.424 213.936 607.917 221.532 614.358 222.993L621.824 264.622L620.946 308.151L625.338 265.207Z" fill="black"/>
<path d="M643.051 172.015C645.393 175.812 647.296 179.902 648.76 184.138C650.37 188.374 651.541 192.61 652.566 196.992C653.591 201.374 654.469 205.756 655.055 210.139C655.64 214.521 656.079 219.049 655.933 223.431C654.908 219.049 653.884 214.813 652.859 210.431C651.834 206.195 650.956 201.813 649.931 197.577C648.906 193.341 647.881 188.959 646.71 184.723C645.686 180.633 644.514 176.397 643.051 172.015Z" fill="black"/>
<path d="M648.906 173.767C651.102 175.812 653.151 178.149 654.908 180.487C656.665 182.824 658.275 185.453 659.885 188.082C661.349 190.711 662.667 193.487 663.545 196.408C664.57 199.329 665.302 202.251 665.595 205.318L661.496 197.284C660.178 194.655 658.714 192.026 657.25 189.543C655.786 186.914 654.323 184.43 653.005 181.801C651.687 179.026 650.224 176.397 648.906 173.767Z" fill="black"/>
<path d="M639.246 227.083C641.149 240.959 642.905 254.69 644.662 268.566C646.419 282.443 648.322 296.173 650.811 309.904C653.446 323.488 656.081 337.219 658.423 350.949C660.912 364.68 663.254 378.41 665.303 392.287C662.083 378.702 659.155 365.118 656.227 351.387C653.299 337.803 650.664 324.072 647.883 310.342C645.394 296.611 643.637 282.735 642.32 268.858C641.149 254.836 640.124 240.959 639.246 227.083Z" fill="black"/>
<path d="M592.84 228.105L590.497 264.476C590.205 270.465 589.765 276.6 589.473 282.589C589.18 288.578 588.887 294.713 588.887 300.701C589.033 306.69 588.448 351.095 587.423 376.073C586.545 356.061 586.398 312.971 586.106 300.701C586.106 288.432 587.13 276.308 588.301 264.184C589.473 252.206 590.937 240.229 592.84 228.105Z" fill="black"/>
<path d="M602.355 88.1711C592.839 90.07 586.398 93.2835 580.835 102.778C575.272 112.272 555.363 154.34 555.363 154.34L581.274 165.88L600.159 130.677L602.355 88.1711Z" fill="#FFB196"/>
<path d="M671.012 189.251C667.938 175.52 664.132 160.183 663.839 157.116C661.497 139.587 664.571 130.823 665.742 123.082C668.231 106.43 663.4 92.4071 659.594 89.1935C659.594 89.1935 655.495 88.3171 650.664 87.1486C647.736 86.4182 646.711 86.2722 642.319 85.6879C632.511 84.3733 623.728 84.6654 620.068 85.1036C618.311 85.2497 609.674 86.7104 609.674 86.7104C607.039 87.2946 602.354 88.1711 602.354 88.1711C602.354 88.1711 596.499 92.9913 590.936 102.924C586.69 110.52 584.348 116.801 583.616 133.014C582.591 153.61 581.42 174.936 581.42 189.397C598.255 199.768 648.907 202.105 671.012 189.251Z" fill="#A535C5"/>
<path d="M547.163 133.745L548.774 132.138C549.213 131.846 549.798 131.7 550.53 131.846L570.879 136.52C572.636 136.958 574.539 138.565 575.271 140.318L590.203 178.296C590.495 179.172 590.495 179.902 590.056 180.341L588.3 181.947C587.86 182.239 587.275 182.386 586.543 182.239L566.194 177.565C564.438 177.127 562.535 175.52 561.803 173.767C558.875 166.318 549.798 143.239 546.871 135.79C546.431 134.767 546.578 134.037 547.163 133.745Z" fill="#455A64"/>
<path d="M571.172 139.149C572.196 139.88 573.075 140.902 573.514 141.924L588.446 179.902C588.739 180.779 588.739 181.363 588.3 181.801L589.91 180.341C590.349 179.902 590.495 179.318 590.056 178.296L575.124 140.318C574.831 139.441 573.953 138.419 573.075 137.688L571.172 139.149Z" fill="#455A64"/>
<path d="M588.446 179.902L573.514 141.924C572.928 140.318 570.879 138.565 569.122 138.127L548.774 133.452C547.017 133.014 546.139 134.037 546.871 135.79C549.798 143.239 558.875 166.318 561.803 173.767C562.388 175.374 564.438 177.127 566.194 177.565L586.543 182.24C588.153 182.532 589.032 181.509 588.446 179.902Z" fill="black"/>
<path d="M573.807 149.958L571.026 142.801C570.879 142.509 570.587 142.217 570.147 142.071L566.634 141.194C566.341 141.048 566.195 141.34 566.195 141.632C566.78 143.093 568.391 147.329 568.976 148.79C569.123 149.082 569.415 149.374 569.855 149.52L573.368 150.397C573.807 150.543 573.954 150.25 573.807 149.958Z" fill="#455A64"/>
<path d="M570.88 144.554C570.587 143.823 569.708 143.093 568.83 142.801C567.952 142.655 567.513 143.093 567.805 143.823C568.098 144.554 568.976 145.284 569.855 145.576C570.733 145.868 571.172 145.43 570.88 144.554Z" fill="black"/>
<path d="M572.196 148.205C571.903 147.475 571.025 146.745 570.147 146.453C569.268 146.307 568.829 146.745 569.122 147.475C569.415 148.205 570.293 148.936 571.171 149.228C572.05 149.374 572.489 148.936 572.196 148.205Z" fill="black"/>
<path d="M551.703 157.554C549.507 155.217 549.653 154.779 550.531 153.318C551.41 151.857 553.459 149.52 556.826 149.228C559.169 149.082 561.364 148.79 562.682 149.228C563.853 149.666 563.121 152.295 560.34 153.318C555.802 154.925 555.948 156.093 555.948 156.093C555.948 156.093 560.193 154.632 561.804 154.34C563.56 154.048 566.781 154.486 568.83 154.632C570.88 154.779 571.466 157.262 568.245 158.43C568.245 158.43 570.734 158.576 571.905 158.576C574.54 158.722 575.418 159.891 573.661 161.79C573.222 162.228 572.637 162.666 571.466 162.958C571.466 162.958 574.101 162.666 574.247 163.543C574.686 166.026 573.076 166.902 567.806 169.093C562.828 171.138 561.95 174.06 563.268 175.812C563.268 175.812 561.072 174.79 559.022 173.767C557.558 173.037 556.241 172.015 556.68 169.824C556.68 169.824 553.752 170.262 553.313 168.363C552.874 166.61 553.606 164.419 553.606 164.419C553.606 164.419 551.703 163.689 551.703 161.498C551.556 159.307 552.435 158.138 552.435 158.138L551.703 157.554Z" fill="#B16668"/>
<path d="M568.099 158.43C566.927 158.43 565.903 158.284 564.732 158.43C563.56 158.722 562.682 159.307 561.657 159.745C559.754 160.913 557.998 162.082 556.241 163.397C558.29 162.666 560.193 161.644 562.097 160.621C562.975 160.037 564 159.453 564.878 159.161C566.049 159.015 567.074 158.868 568.099 158.43Z" fill="#9A4A4D"/>
<path d="M571.466 162.958C570.295 162.812 568.977 162.812 567.953 163.25C566.782 163.543 565.757 164.127 564.732 164.711C562.683 165.88 560.633 167.194 558.876 168.655C561.072 167.779 563.122 166.61 565.171 165.588C567.074 164.419 568.977 163.25 571.466 162.958Z" fill="#9A4A4D"/>
<path d="M641.733 70.4967C641.294 71.8113 639.977 70.3507 638.806 71.2271C637.781 71.8113 636.463 71.5192 635.439 71.3731C634.853 71.2271 634.267 71.081 633.682 70.9349C630.608 69.9125 627.68 68.0136 625.191 65.9686C621.385 62.9011 617.871 59.2494 614.358 55.8898C610.845 52.5302 607.331 49.3167 604.257 45.665C602.793 43.9122 596.791 38.3616 594.595 34.5638C592.838 31.2042 593.57 27.9907 595.181 26.8221C590.789 27.8446 588.154 25.2154 588.007 22.8783C587.861 20.5412 589.764 18.3501 591.96 17.6198C591.521 18.4962 591.96 19.8108 592.985 20.249C594.01 20.6872 595.181 20.3951 595.913 19.6647C596.645 18.9344 597.084 17.9119 597.084 16.8894C597.23 15.5748 596.791 14.2602 596.205 13.0916C595.034 10.7545 596.352 8.1253 597.523 7.24889C598.694 6.37247 600.451 5.20392 608.21 6.2264C609.088 6.37247 610.259 5.93426 610.698 5.20392C610.991 4.76571 611.137 4.03536 611.284 3.45109C612.016 1.55219 613.919 0.383645 615.822 0.0915069C617.871 -0.200631 619.775 0.237574 621.678 0.967918C623.142 1.55219 624.459 2.13647 626.069 2.13647C628.119 2.13647 630.022 0.821852 632.072 0.821852C635.878 0.821852 636.756 4.91178 640.416 6.08033C642.173 6.66461 644.368 5.34998 647.15 8.41743C648.321 9.73205 647.735 11.777 648.614 13.3838C649.199 14.4063 650.224 15.2827 651.103 16.013C653.298 17.9119 653.591 21.8558 650.663 24.485C654.03 25.5075 657.251 29.4514 657.544 36.0245C657.69 39.6762 656.519 45.9571 654.909 49.1707C653.298 52.5302 642.905 66.9911 641.733 70.4967Z" fill="black"/>
<path d="M641.441 80.5755C641.441 77.8002 641.734 64.2157 641.734 64.2157C641.88 65.2382 646.857 68.0135 651.249 62.7551C655.787 57.3505 655.934 51.7999 653.299 48.2942C650.371 44.3504 643.783 44.6425 641.148 51.0695C637.342 50.9235 636.171 49.3167 637.635 43.0358C637.196 38.6537 632.218 37.3391 632.365 27.6985C619.775 19.3726 607.039 19.9569 599.28 26.53C597.962 30.4738 595.913 39.9683 596.206 50.6313C596.791 65.0922 600.598 72.1035 605.282 74.5866C608.356 76.1934 611.284 76.6316 616.701 76.1934L616.408 80.7215C616.261 83.0586 616.554 84.6654 614.358 85.3957C612.894 85.8339 609.381 86.5643 609.381 86.5643C609.381 86.5643 604.257 95.4745 618.457 96.3509C641.295 97.6655 650.371 87.0025 650.371 87.0025C650.371 87.0025 648.907 86.5643 645.394 85.3957C641.88 84.3733 641.587 83.2047 641.441 80.5755Z" fill="#FFB196"/>
<path d="M621.532 58.9572L612.895 61.7326C613.627 64.2157 616.116 65.5303 618.458 64.8C620.947 64.0697 622.264 61.4404 621.532 58.9572Z" fill="#ED9577"/>
<path d="M620.947 61.0022C618.605 61.0022 616.556 62.609 615.97 64.9461C616.702 65.2382 617.58 65.2382 618.459 64.9461C620.215 64.3618 621.386 62.9011 621.533 61.1483C621.386 61.0022 621.24 61.0022 620.947 61.0022Z" fill="#ED9577"/>
<path d="M600.743 38.7997L606.306 36.1705C605.574 34.5637 603.818 33.9795 602.207 34.7098C600.597 35.2941 600.011 37.193 600.743 38.7997Z" fill="black"/>
<path d="M627.826 39.5302L622.409 36.4627C623.288 34.856 625.044 34.4178 626.655 35.2942C628.119 36.0245 628.558 38.0695 627.826 39.5302Z" fill="black"/>
<path d="M607.039 43.3279C607.186 44.7886 606.161 45.9571 604.697 46.1032C603.233 46.2493 602.062 45.2268 601.916 43.9122C601.769 42.4515 602.794 41.2829 604.258 41.1368C605.722 40.8447 606.893 41.8672 607.039 43.3279Z" fill="black"/>
<path d="M625.631 43.7661C625.777 45.2268 624.753 46.3954 623.289 46.5414C621.825 46.6875 620.654 45.665 620.507 44.3504C620.361 42.8897 621.386 41.7212 622.85 41.5751C624.314 41.283 625.485 42.3055 625.631 43.7661Z" fill="black"/>
<path d="M605.281 52.9685L613.479 56.7663L615.09 41.1369L605.281 52.9685Z" fill="#FFB196"/>
<path d="M616.995 76.1934C626.803 75.1709 636.172 71.9574 638.368 67.5753C638.368 67.5753 638.368 72.3956 634.415 74.7327C628.853 77.9462 616.848 79.699 616.848 79.699L616.995 76.1934Z" fill="#FFB196"/>
<path d="M643.784 161.206L650.225 121.037C650.225 121.037 650.518 97.0813 659.594 89.1936C669.988 92.115 673.063 98.1038 675.844 104.677C679.357 113.003 679.065 121.037 675.99 142.363C673.355 160.475 670.281 172.015 667.5 178.588C664.279 186.768 656.959 187.498 644.37 186.914C631.78 186.329 623.875 185.161 606.454 182.824C598.11 181.655 593.718 179.902 586.691 177.711C583.178 176.689 581.275 175.666 579.225 174.352C577.176 172.891 575.272 171.138 574.101 168.947C573.809 168.509 573.662 168.071 573.369 167.779C573.077 167.487 572.637 167.194 572.345 166.902C571.613 166.318 570.881 165.88 570.442 165.149C569.856 164.419 569.563 163.543 569.27 162.666C569.124 162.228 568.978 161.936 568.685 161.498C568.392 161.06 568.099 160.767 567.807 160.475C567.075 159.599 566.196 158.868 565.757 157.846C565.318 156.824 565.903 156.093 565.903 156.093C565.903 156.093 564.732 155.217 564.293 154.779C563.708 154.34 563.268 153.756 562.829 153.172C562.683 152.88 562.536 152.734 562.536 152.441C562.536 152.295 562.683 152.149 562.829 152.003C564.732 150.25 567.221 150.981 569.417 151.711C574.98 153.902 578.054 156.385 583.91 157.846C587.13 158.722 587.862 158.868 589.033 158.43C590.497 157.408 584.788 152.149 584.349 147.621C584.056 145.43 586.106 142.655 588.009 145.138C591.815 150.543 595.035 151.857 597.817 154.925C600.598 157.992 603.233 159.891 609.236 161.79C615.384 164.419 643.784 161.206 643.784 161.206Z" fill="#FFB196"/>
<path d="M643.784 161.206C650.225 159.599 658.276 161.79 658.276 161.79C658.276 161.79 651.982 158.284 644.076 159.014L643.784 161.206Z" fill="#FFB196"/>
<path d="M565.904 156.385C567.075 157.408 568.246 158.284 569.563 159.015C570.735 159.891 572.052 160.621 573.223 161.498C573.809 161.936 574.394 162.374 575.126 162.812C575.712 163.251 576.444 163.543 577.029 163.835C578.347 164.565 579.664 165.149 581.128 165.734L579.225 164.565C578.64 164.127 577.908 163.835 577.322 163.397C576.737 162.958 576.005 162.666 575.419 162.228C574.833 161.79 574.248 161.352 573.516 160.913C572.198 160.037 571.027 159.307 569.71 158.576L565.904 156.385Z" fill="#FFB196"/>
<path d="M568.393 161.352C569.125 162.228 570.003 163.104 570.882 163.835C571.76 164.565 572.638 165.296 573.663 165.88C574.542 166.61 575.566 167.194 576.591 167.779C577.616 168.363 578.641 168.947 579.665 169.385C578.787 168.801 577.762 168.071 576.884 167.34L574.102 165.296L571.321 163.251C570.296 162.958 569.271 162.228 568.393 161.352Z" fill="#FFB196"/>
<path d="M280.027 486.409L47.3684 351.815C27.2517 340.168 27.2377 314.318 47.1162 302.614L278.36 168.035C290.674 160.766 308.633 160.597 321.465 168.007L554.068 302.516C574.185 314.164 574.213 340.069 554.194 351.759L323.076 486.283C310.679 493.552 292.789 493.734 280.027 486.409ZM280.265 171.291L49.0214 305.87C31.6084 316.129 31.6785 338.371 49.2596 348.546L281.918 483.139C293.574 489.833 310.006 489.58 321.185 483.027L552.303 348.503C569.828 338.273 569.786 315.974 552.177 305.786L319.574 171.277C307.919 164.527 291.416 164.709 280.265 171.291Z" fill="url(#paint0_linear_1131_48974)"/>
<path d="M543.617 333.586L524.285 344.841L312.499 468.053C306.419 471.646 296.571 471.646 290.505 468.109L77.1368 344.729L57.8746 333.586C51.7387 329.994 51.7388 324.338 57.7485 320.746L288.922 186.264C294.932 182.672 304.78 182.672 310.916 186.264L543.547 320.746C549.697 324.338 549.697 329.994 543.617 333.586Z" fill="black"/>
<path d="M524.327 344.841L490.832 364.375H490.776C314.544 466.889 312.639 468.138 311.995 468.306C311.995 468.362 311.939 468.362 311.939 468.362C305.831 471.646 296.389 471.534 290.505 468.138L246.517 442.653C229.09 432.577 309.445 479.027 77.1226 344.729C367.414 175.838 267.293 234.09 288.95 221.488C294.946 217.98 304.78 217.98 310.944 221.488C311.617 221.881 524.985 345.234 524.327 344.841Z" fill="#1D1D1D"/>
<path d="M312.653 417.07L308.408 440.45L294.385 448.617L294.441 427.665L312.653 417.07Z" fill="#F57A00"/>
<path d="M294.442 427.665L294.386 448.617L279.649 440.099L276.104 417.07L294.442 427.665Z" fill="url(#paint1_linear_1131_48974)"/>
<path d="M312.654 417.07L294.442 427.665L276.104 417.07L294.316 406.461L312.654 417.07Z" fill="#447DDC"/>
<path d="M161.498 330.106L157.253 353.485L143.23 361.653L143.286 340.715L161.498 330.106Z" fill="#F57A00"/>
<path d="M143.287 340.715L143.231 361.653L128.493 353.134L124.949 330.106L143.287 340.715Z" fill="url(#paint2_linear_1131_48974)"/>
<path d="M161.498 330.106L143.287 340.715L124.949 330.106L143.161 319.497L161.498 330.106Z" fill="#447DDC"/>
<path d="M476.725 321.63L472.466 344.995L458.443 353.163L458.499 332.225L476.725 321.63Z" fill="#F57A00"/>
<path d="M458.499 332.225L458.443 353.163L443.719 344.644L440.161 321.63L458.499 332.225Z" fill="url(#paint3_linear_1131_48974)"/>
<path d="M476.724 321.63L458.499 332.225L440.161 321.63L458.387 311.02L476.724 321.63Z" fill="#447DDC"/>
<path d="M319.714 220.309L124.109 319.581L124.053 337.936L294.302 436.394L477.328 329.839L477.384 311.498L319.714 220.309Z" fill="url(#paint4_linear_1131_48974)"/>
<path d="M477.383 311.498L477.327 329.839L294.302 436.394L294.358 418.053L477.383 311.498Z" fill="url(#paint5_linear_1131_48974)"/>
<path d="M294.358 418.053L294.302 436.394L124.053 337.936L124.109 319.581L294.358 418.053Z" fill="url(#paint6_linear_1131_48974)"/>
<path d="M477.383 311.498L294.358 418.053L124.108 319.581L307.134 213.026L477.383 311.498Z" fill="url(#paint7_linear_1131_48974)"/>
<path d="M467.605 88.4099L467.171 311.329L293.279 412.495L293.826 189.576L467.605 88.4099Z" fill="url(#paint8_linear_1131_48974)"/>
<path d="M467.662 88.4099L293.784 189.632L140.919 101.222L314.797 0L467.662 88.4099Z" fill="url(#paint9_linear_1131_48974)"/>
<path d="M457.967 151.658L457.897 176.862C457.897 177.606 457.407 178.349 456.426 178.925C454.465 180.062 451.271 180.076 449.282 178.925C448.287 178.349 447.797 177.592 447.797 176.834L447.867 151.63C447.867 152.388 448.904 150.956 449.884 151.518C451.873 152.668 454.521 153.258 456.482 152.121C457.449 151.56 457.953 152.402 457.967 151.658Z" fill="#CBDBF4"/>
<path d="M457.969 151.648C457.973 150.028 455.713 148.709 452.92 148.701C450.127 148.693 447.859 150 447.854 151.619C447.85 153.239 450.11 154.559 452.903 154.567C455.696 154.575 457.964 153.268 457.969 151.648Z" fill="#EBF2FF"/>
<path d="M457.967 253.203L457.897 278.407C457.897 279.151 457.407 279.895 456.426 280.47C454.465 281.607 451.271 281.621 449.282 280.47C448.287 279.895 447.797 279.137 447.797 278.379L447.867 253.175C447.867 253.933 448.455 253.694 449.45 254.27C451.439 255.421 454.493 255.07 456.454 253.933C457.421 253.372 457.953 253.961 457.967 253.203Z" fill="#CBDBF4"/>
<path d="M457.96 253.202C457.964 251.582 455.704 250.263 452.911 250.255C450.118 250.247 447.85 251.554 447.845 253.174C447.841 254.793 450.101 256.113 452.894 256.121C455.687 256.129 457.955 254.822 457.96 253.202Z" fill="white"/>
<path d="M446.143 116.505L445.821 301.099V301.323L304.822 383.432L305.046 219.748L305.257 198.628L446.143 116.505Z" fill="url(#paint10_linear_1131_48974)"/>
<path d="M446.185 116.505L305.284 198.585L305.088 219.734L445.807 301.127L446.185 116.505Z" fill="url(#paint11_linear_1131_48974)"/>
<path d="M465.308 89.6729L446.186 116.505L305.299 198.628L304.753 383.432L293.279 412.566L293.826 189.646L465.308 89.6729Z" fill="url(#paint12_linear_1131_48974)"/>
<path d="M293.798 189.66L293.251 412.58L140.443 324.17L140.877 101.25L293.798 189.66Z" fill="url(#paint13_linear_1131_48974)"/>
<path d="M151.384 317.855L151.776 120.195L282.857 195.975L282.352 393.621L151.384 317.855Z" fill="#881B7A" fill-opacity="0.9368"/>
<path d="M311.658 388.456L305.621 384.934L304.934 198.642L310.986 202.164L311.658 388.456Z" fill="url(#paint14_linear_1131_48974)"/>
<path d="M310.986 202.164L304.934 198.642L446.83 116.589L452.867 120.097L310.986 202.164Z" fill="#F57A00"/>
<path d="M452.868 120.097L452.77 306.839L311.659 388.456L310.986 202.164L452.868 120.097Z" fill="url(#paint15_linear_1131_48974)"/>
<path d="M13.369 415.681C12.3604 415.681 11.5338 414.895 11.4918 413.885C11.4498 412.846 12.2483 411.962 13.299 411.92L69.1382 409.478L111.095 385.411C111.991 384.892 113.154 385.201 113.672 386.113C114.191 387.011 113.868 388.176 112.972 388.681L70.6091 412.973C70.343 413.127 70.0488 413.211 69.7546 413.225C64.2912 413.464 9.99287 415.835 13.369 415.681Z" fill="#DBE6FA"/>
<path d="M144.954 502.21C144.421 501.312 144.716 500.162 145.598 499.628L166.836 486.9C167.2 486.676 167.62 486.605 168.012 486.647L221.82 492.822L255.932 469.92C256.786 469.344 257.963 469.569 258.537 470.439C259.126 471.309 258.888 472.474 258.019 473.049L223.333 496.344C222.955 496.597 222.521 496.709 222.072 496.653L168.208 490.479L147.517 502.884C146.635 503.403 145.486 503.095 144.954 502.21Z" fill="#DBE6FA"/>
<path d="M82.2363 492.247C81.1997 492.247 80.3591 491.405 80.3591 490.366V453.809C80.3591 453.108 80.7374 452.476 81.3538 452.14L156.553 411.878C157.464 411.387 158.613 411.738 159.103 412.65C159.593 413.576 159.243 414.713 158.332 415.204L84.1275 454.932V490.352C84.1135 491.405 83.273 492.247 82.2363 492.247Z" fill="#DBE6FA"/>
<path d="M3.22561 418.207C7.42827 420.691 14.2646 420.691 18.5513 418.207C22.7539 415.807 22.6699 411.85 18.4672 409.366C14.1805 406.896 7.34421 406.896 3.14156 409.366C-1.06109 411.85 -1.06109 415.807 3.22561 418.207Z" fill="url(#paint16_linear_1131_48974)"/>
<path d="M74.9374 496.527C78.9859 498.871 85.5141 498.871 89.5766 496.527C93.5972 494.183 93.5551 490.38 89.5066 488.051C85.458 485.707 78.9159 485.707 74.9094 488.051C70.8888 490.394 70.8888 494.197 74.9374 496.527Z" fill="url(#paint17_linear_1131_48974)"/>
<path d="M156.188 504.245C152.14 506.589 145.612 506.589 141.549 504.245C137.529 501.902 137.571 498.099 141.619 495.769C145.668 493.426 152.21 493.426 156.216 495.769C160.237 498.113 160.237 501.916 156.188 504.245Z" fill="url(#paint18_linear_1131_48974)"/>
<path d="M454.843 502.856L434.166 490.45L380.302 496.625C379.867 496.681 379.419 496.569 379.041 496.316L344.355 473.021C343.487 472.446 343.262 471.267 343.837 470.411C344.411 469.541 345.602 469.316 346.442 469.892L380.554 492.794L434.362 486.619C434.796 486.577 435.188 486.661 435.539 486.872L456.776 499.6C457.659 500.133 457.953 501.298 457.42 502.182C456.888 503.094 455.753 503.403 454.843 502.856Z" fill="#DBE6FA"/>
<path d="M520.152 492.247C519.116 492.247 518.275 491.405 518.275 490.366V454.946L444.07 415.218C443.16 414.727 442.81 413.59 443.3 412.664C443.79 411.752 444.953 411.401 445.85 411.892L521.049 452.154C521.665 452.476 522.044 453.122 522.044 453.823V490.38C522.03 491.405 521.203 492.247 520.152 492.247Z" fill="#DBE6FA"/>
<path d="M527.451 496.527C523.403 498.871 516.874 498.871 512.812 496.527C508.791 494.183 508.833 490.38 512.882 488.051C516.93 485.707 523.473 485.707 527.479 488.051C531.5 490.394 531.5 494.197 527.451 496.527Z" fill="url(#paint19_linear_1131_48974)"/>
<path d="M446.2 504.245C450.249 506.589 456.777 506.589 460.839 504.245C464.86 501.902 464.818 498.099 460.769 495.769C456.721 493.426 450.179 493.426 446.172 495.769C442.152 498.113 442.152 501.916 446.2 504.245Z" fill="url(#paint20_linear_1131_48974)"/>
<path d="M242.203 196.523L166.499 152.584C166.023 152.304 165.729 151.714 165.729 150.886C165.729 149.188 166.92 147.125 168.391 146.269L244.094 190.208C242.624 191.05 241.433 193.127 241.433 194.825C241.419 195.653 241.727 196.242 242.203 196.523Z" fill="white"/>
<path d="M244.08 190.208L244.094 196.34C242.623 197.182 241.418 196.509 241.418 194.825C241.418 193.127 242.623 191.05 244.08 190.208Z" fill="url(#paint21_linear_1131_48974)"/>
<path d="M242.203 218.302L166.499 174.364C166.023 174.083 165.729 173.494 165.729 172.666C165.729 170.968 166.92 168.905 168.391 168.049L244.094 211.987C242.624 212.829 241.433 214.906 241.433 216.604C241.419 217.446 241.727 218.022 242.203 218.302Z" fill="white"/>
<path d="M244.08 211.987L244.094 218.12C242.623 218.962 241.418 218.288 241.418 216.604C241.418 214.906 242.623 212.843 244.08 211.987Z" fill="url(#paint22_linear_1131_48974)"/>
<path d="M242.203 240.096L166.499 196.158C166.023 195.877 165.729 195.288 165.729 194.46C165.729 192.762 166.92 190.699 168.391 189.843L244.094 233.781C242.624 234.623 241.433 236.7 241.433 238.398C241.419 239.226 241.727 239.815 242.203 240.096Z" fill="white"/>
<path d="M244.08 233.781L244.094 239.914C242.623 240.756 241.418 240.082 241.418 238.398C241.418 236.686 242.623 234.623 244.08 233.781Z" fill="url(#paint23_linear_1131_48974)"/>
<path d="M242.203 261.876L166.499 217.937C166.023 217.657 165.729 217.067 165.729 216.239C165.729 214.541 166.92 212.478 168.391 211.622L244.094 255.561C242.624 256.403 241.433 258.48 241.433 260.178C241.419 261.006 241.727 261.595 242.203 261.876Z" fill="white"/>
<path d="M244.08 255.561L244.094 261.693C242.623 262.535 241.418 261.862 241.418 260.178C241.418 258.48 242.623 256.403 244.08 255.561Z" fill="url(#paint24_linear_1131_48974)"/>
<path d="M385.096 271.503C391.792 267.629 397.227 270.745 397.255 278.435C397.283 286.139 391.862 295.528 385.18 299.401C378.484 303.274 373.048 300.159 373.02 292.454C373.006 284.75 378.413 275.362 385.096 271.503Z" fill="#F57A00"/>
<path d="M393.052 273.552L399.37 277.228C397.549 276.162 395.013 276.316 392.212 277.93L385.894 274.253C388.695 272.639 391.231 272.485 393.052 273.552Z" fill="white"/>
<path d="M385.137 301.773L378.819 298.096C372.263 294.279 377.32 279.221 385.908 274.253L392.226 277.93C383.512 282.968 378.763 298.054 385.137 301.773Z" fill="white"/>
<path d="M385.136 301.772L378.818 298.096C377.025 297.043 375.891 294.812 375.891 291.64L382.209 295.317C382.223 298.489 383.343 300.72 385.136 301.772Z" fill="white"/>
<path d="M392.224 277.93C397.772 274.716 402.297 277.298 402.311 283.684C402.325 290.069 397.842 297.857 392.294 301.071C386.747 304.284 382.236 301.702 382.208 295.317C382.194 288.918 386.677 281.144 392.224 277.93Z" fill="#C4C2C0"/>
<path d="M403.335 309.631L403.279 329.222C403.279 331.102 399.427 331.846 397.353 330.639C396.667 330.246 396.317 329.727 396.331 329.208L396.387 309.617C396.387 311.512 400.253 312.269 402.341 311.049C402.985 310.656 403.321 310.136 403.335 309.631Z" fill="#DBDFE6"/>
<path d="M402.298 308.186C403.657 308.972 403.671 310.249 402.312 311.035C400.953 311.82 398.753 311.82 397.395 311.035C396.022 310.249 396.022 308.972 397.381 308.172C398.739 307.372 400.939 307.4 402.298 308.186Z" fill="#EBEEF4"/>
<path d="M413.6 294.04L429.71 300.173C430.187 300.355 430.551 300.846 430.677 301.618C431.083 304.032 428.968 307.344 427.245 306.684L411.135 300.552C411.625 300.734 412.227 300.594 412.844 300.089C414.062 299.092 414.833 297.029 414.581 295.472C414.441 294.714 414.09 294.223 413.6 294.04Z" fill="#DBDFE6"/>
<path d="M411.906 294.503C413.125 293.507 414.316 293.942 414.582 295.5C414.848 297.057 414.064 299.106 412.845 300.117C411.626 301.113 410.435 300.678 410.169 299.12C409.903 297.563 410.688 295.5 411.906 294.503Z" fill="#EBEEF4"/>
<path d="M410.379 276.976L425.214 264.416C425.536 264.149 426.097 264.149 426.783 264.5L411.948 277.06C411.261 276.709 410.701 276.695 410.379 276.976Z" fill="#DBDFE6"/>
<path d="M414.455 281.747C415.506 280.68 413.489 277.818 411.976 277.06L426.769 264.5C428.184 265.16 429.361 266.942 429.529 267.952C429.795 269.454 430.215 268.064 414.455 281.747Z" fill="#DBDFE6"/>
<path d="M411.949 277.06C413.209 277.705 414.428 279.263 414.68 280.54C414.932 281.817 414.12 282.322 412.859 281.677C411.598 281.031 410.38 279.474 410.127 278.197C409.875 276.919 410.688 276.414 411.949 277.06Z" fill="#EBEEF4"/>
<path d="M406.936 272.387L414.445 276.835C411.657 275.207 407.791 275.446 403.518 277.902L396.009 273.453C400.282 270.983 404.149 270.759 406.936 272.387Z" fill="#EBEEF4"/>
<path d="M392.689 314.332L385.18 309.884C375.388 304.186 382.658 281.186 396.009 273.453L403.518 277.902C390.209 285.606 382.939 308.649 392.689 314.332Z" fill="#EBEEF4"/>
<path d="M392.701 314.332L385.192 309.884C382.433 308.284 380.724 304.86 380.71 300.018L388.218 304.467C388.218 309.322 389.941 312.732 392.701 314.332Z" fill="#EBEEF4"/>
<path d="M403.515 277.902C411.991 272.99 418.897 276.934 418.925 286.701C418.953 296.468 412.103 308.354 403.613 313.266C395.124 318.177 388.232 314.234 388.204 304.467C388.19 294.7 395.04 282.814 403.515 277.902Z" fill="#CCD0D9"/>
<path d="M403.529 282.589C409.763 278.982 414.834 281.873 414.862 289.058C414.876 296.243 409.847 304.986 403.613 308.593C397.379 312.199 392.308 309.308 392.28 302.123C392.252 294.938 397.295 286.196 403.529 282.589Z" fill="#4F575F"/>
<path d="M403.543 285.41C408.418 282.589 412.396 284.848 412.41 290.476C412.424 296.089 408.488 302.937 403.599 305.758C398.724 308.579 394.745 306.319 394.731 300.692C394.717 295.079 398.668 288.23 403.543 285.41Z" fill="white"/>
<path d="M403.333 256.248L403.277 275.839C403.277 276.358 402.94 276.863 402.268 277.256C400.153 278.491 396.314 277.663 396.314 275.825L396.37 256.234C396.356 258.943 403.319 258.831 403.333 256.248Z" fill="#DBDFE6"/>
<path d="M402.296 254.803C403.655 255.589 403.669 256.866 402.31 257.652C400.951 258.438 398.752 258.438 397.393 257.652C396.02 256.866 396.02 255.589 397.379 254.789C398.738 253.989 400.937 254.017 402.296 254.803Z" fill="#EBEEF4"/>
<path d="M372.779 278.239L389.94 285.185C390.416 285.382 390.766 285.887 390.879 286.659C391.229 289.072 389.043 292.342 387.334 291.655L370.173 284.708C372.681 285.718 375.175 279.207 372.779 278.239Z" fill="#DBDFE6"/>
<path d="M371.073 278.66C372.306 277.691 373.497 278.154 373.721 279.712C373.945 281.27 373.132 283.319 371.9 284.287C370.653 285.269 369.476 284.792 369.252 283.235C369.014 281.677 369.826 279.642 371.073 278.66Z" fill="#EBEEF4"/>
<path d="M367.863 313.266L382.698 300.706C383.021 300.439 383.581 300.439 384.267 300.79L369.432 313.35C368.746 312.999 368.185 312.985 367.863 313.266Z" fill="#DBDFE6"/>
<path d="M386.734 305.505L371.885 318.065C372.991 317.167 371.17 314.234 369.461 313.378L384.254 300.818C386.118 301.688 387.827 304.635 386.734 305.505Z" fill="#DBDFE6"/>
<path d="M369.433 313.35C370.694 313.996 371.913 315.553 372.165 316.83C372.417 318.107 371.605 318.613 370.344 317.967C369.083 317.321 367.864 315.764 367.612 314.487C367.36 313.21 368.172 312.704 369.433 313.35Z" fill="#EBEEF4"/>
<path d="M381.827 238.202C376.518 234.918 374.739 234.581 372.694 231.999L378.801 235.563C379.67 236.644 380.679 237.542 381.827 238.202Z" fill="#E3DFDC"/>
<path d="M412.522 185.17C408.6 182.826 403.108 183.163 397.098 186.671C389.267 191.176 382.515 199.778 378.677 209.054L372.597 205.462C376.435 196.2 383.188 187.597 390.934 183.079C397.014 179.655 402.436 179.318 406.442 181.577L412.522 185.17Z" fill="white"/>
<path d="M347.478 227.143L341.356 223.579L372.609 205.504L378.731 209.068L347.478 227.143Z" fill="#EBF2FF"/>
<path d="M347.548 253.624L341.44 250.074L341.356 223.579L347.478 227.143L347.548 253.624Z" fill="#CBDBF4"/>
<path d="M397.07 186.685C409.047 179.753 418.867 185.324 418.909 199.119C418.951 212.942 409.187 229.768 397.21 236.686C389.421 241.191 382.626 240.419 378.802 235.563L347.548 253.638L347.478 227.143L378.732 209.068C382.542 199.792 389.281 191.19 397.07 186.685Z" fill="#DBE6FA"/>
<path d="M398.459 191.765C407.705 186.419 415.186 190.769 415.214 201.406C415.242 212.043 407.803 224.954 398.571 230.301C389.325 235.648 381.788 231.409 381.76 220.772C381.718 210.121 389.213 197.112 398.459 191.765Z" fill="url(#paint25_linear_1131_48974)"/>
<path d="M398.46 192.748C407.23 187.668 414.346 191.793 414.374 201.897C414.402 211.987 407.342 224.252 398.572 229.318C389.803 234.399 382.63 230.371 382.602 220.267C382.574 210.163 389.691 197.814 398.46 192.748Z" fill="white"/>
<path d="M398.458 197.996C404.705 194.376 409.777 197.323 409.805 204.522C409.819 211.721 404.789 220.463 398.542 224.07C392.294 227.691 387.18 224.814 387.152 217.615C387.138 210.416 392.21 201.603 398.458 197.996Z" fill="#BBCFEF"/>
<path d="M401.736 204.929C405.518 202.739 408.586 204.522 408.6 208.872C408.614 213.222 405.56 218.513 401.778 220.702C397.995 222.891 394.899 221.151 394.885 216.801C394.871 212.45 397.953 207.118 401.736 204.929Z" fill="white"/>
<path d="M398.783 193.449L398.797 196.031L398.082 196.438V193.856L398.783 193.449Z" fill="#4F575F"/>
<path d="M398.879 225.628L398.893 228.21L398.178 228.631L398.164 226.035L398.879 225.628Z" fill="#4F575F"/>
<path d="M391.174 200.031L392.295 201.631L391.762 202.276L390.641 200.676L391.174 200.031Z" fill="#4F575F"/>
<path d="M405.198 219.79L406.333 221.39L405.8 222.035L404.666 220.435L405.198 219.79Z" fill="#4F575F"/>
<path d="M385.572 209.475L387.533 209.644L387.169 210.528L385.222 210.359L385.572 209.475Z" fill="#4F575F"/>
<path d="M409.791 211.552L411.752 211.707L411.388 212.605L409.441 212.436L409.791 211.552Z" fill="#4F575F"/>
<path d="M413.56 201.939V202.697L411.305 203.988V203.245L413.56 201.939Z" fill="#4F575F"/>
<path d="M387.208 224.603L387.572 225.08L385.625 227.508L385.261 227.031L387.208 224.603Z" fill="#4F575F"/>
<path d="M411.349 194.572L411.699 195.049L409.752 197.463L409.401 196.986L411.349 194.572Z" fill="#4F575F"/>
<path d="M391.831 227.522L392.364 227.55L391.257 230.441L390.725 230.413L391.831 227.522Z" fill="#4F575F"/>
<path d="M405.717 191.625L406.249 191.653L405.128 194.558L404.596 194.516L405.717 191.625Z" fill="#4F575F"/>
<path d="M399.873 217.138L404.005 214.752L402.955 212.128C403.991 210.444 403.333 208.788 401.904 209.616C401.049 210.107 400.377 211.3 400.377 212.282C400.377 212.801 400.559 213.18 400.881 213.32L399.873 217.138Z" fill="white"/>
<path d="M404.02 214.738L402.969 212.128C403.894 210.57 403.487 209.026 402.198 209.475C402.619 210.037 402.268 211.187 401.89 211.791L402.941 214.415L404.02 214.738Z" fill="#3D4449"/>
<path d="M402.927 214.429L400.167 216.001L399.873 217.138L404.019 214.738L402.927 214.429Z" fill="#4F575F"/>
<path d="M401.877 211.791C402.256 211.187 402.62 210.037 402.2 209.475C402.116 209.503 402.032 209.546 401.933 209.602C401.093 210.107 400.407 211.3 400.421 212.268C400.421 212.787 400.589 213.166 400.897 213.321L400.182 215.987L402.928 214.415L401.877 211.791Z" fill="#181E1E"/>
<path d="M385.654 218.078V218.822L383.412 220.127V219.383L385.654 218.078Z" fill="#4F575F"/>
<path d="M359.99 223.579L360.046 242.145L353.602 245.864L353.56 227.298L359.99 223.579Z" fill="white"/>
<defs>
<linearGradient id="paint0_linear_1131_48974" x1="32.2439" y1="327.166" x2="569.182" y2="327.166" gradientUnits="userSpaceOnUse">
<stop stop-color="#F57A00"/>
<stop offset="1" stop-color="#7103A4"/>
</linearGradient>
<linearGradient id="paint1_linear_1131_48974" x1="276.104" y1="432.843" x2="294.442" y2="432.843" gradientUnits="userSpaceOnUse">
<stop stop-color="#F57A00"/>
<stop offset="1" stop-color="#7103A4"/>
</linearGradient>
<linearGradient id="paint2_linear_1131_48974" x1="124.949" y1="345.879" x2="143.287" y2="345.879" gradientUnits="userSpaceOnUse">
<stop stop-color="#F57A00"/>
<stop offset="1" stop-color="#7103A4"/>
</linearGradient>
<linearGradient id="paint3_linear_1131_48974" x1="440.161" y1="337.396" x2="458.499" y2="337.396" gradientUnits="userSpaceOnUse">
<stop stop-color="#F57A00"/>
<stop offset="1" stop-color="#7103A4"/>
</linearGradient>
<linearGradient id="paint4_linear_1131_48974" x1="124.053" y1="328.35" x2="477.384" y2="328.35" gradientUnits="userSpaceOnUse">
<stop stop-color="#F57A00"/>
<stop offset="1" stop-color="#7103A4"/>
</linearGradient>
<linearGradient id="paint5_linear_1131_48974" x1="294.302" y1="373.945" x2="477.383" y2="373.945" gradientUnits="userSpaceOnUse">
<stop stop-color="#F57A00"/>
<stop offset="1" stop-color="#7103A4"/>
</linearGradient>
<linearGradient id="paint6_linear_1131_48974" x1="124.053" y1="377.987" x2="294.358" y2="377.987" gradientUnits="userSpaceOnUse">
<stop stop-color="#F57A00"/>
<stop offset="1" stop-color="#7103A4"/>
</linearGradient>
<linearGradient id="paint7_linear_1131_48974" x1="124.108" y1="315.538" x2="477.383" y2="315.538" gradientUnits="userSpaceOnUse">
<stop stop-color="#F57A00"/>
<stop offset="1" stop-color="#7103A4"/>
</linearGradient>
<linearGradient id="paint8_linear_1131_48974" x1="293.279" y1="250.451" x2="467.605" y2="250.451" gradientUnits="userSpaceOnUse">
<stop stop-color="#F57A00"/>
<stop offset="1" stop-color="#7103A4"/>
</linearGradient>
<linearGradient id="paint9_linear_1131_48974" x1="140.919" y1="94.8151" x2="467.662" y2="94.8151" gradientUnits="userSpaceOnUse">
<stop stop-color="#F57A00"/>
<stop offset="1" stop-color="#7103A4"/>
</linearGradient>
<linearGradient id="paint10_linear_1131_48974" x1="304.822" y1="249.967" x2="446.143" y2="249.967" gradientUnits="userSpaceOnUse">
<stop stop-color="#F57A00"/>
<stop offset="1" stop-color="#7103A4"/>
</linearGradient>
<linearGradient id="paint11_linear_1131_48974" x1="305.088" y1="208.815" x2="446.185" y2="208.815" gradientUnits="userSpaceOnUse">
<stop stop-color="#F57A00"/>
<stop offset="1" stop-color="#7103A4"/>
</linearGradient>
<linearGradient id="paint12_linear_1131_48974" x1="293.279" y1="251.118" x2="465.308" y2="251.118" gradientUnits="userSpaceOnUse">
<stop stop-color="#F57A00"/>
<stop offset="1" stop-color="#7103A4"/>
</linearGradient>
<linearGradient id="paint13_linear_1131_48974" x1="140.443" y1="256.913" x2="293.798" y2="256.913" gradientUnits="userSpaceOnUse">
<stop stop-color="#F57A00"/>
<stop offset="1" stop-color="#7103A4"/>
</linearGradient>
<linearGradient id="paint14_linear_1131_48974" x1="304.934" y1="293.548" x2="311.658" y2="293.548" gradientUnits="userSpaceOnUse">
<stop stop-color="#F57A00"/>
<stop offset="1" stop-color="#7103A4"/>
</linearGradient>
<linearGradient id="paint15_linear_1131_48974" x1="310.986" y1="254.275" x2="452.868" y2="254.275" gradientUnits="userSpaceOnUse">
<stop stop-color="#F57A00"/>
<stop offset="1" stop-color="#7103A4"/>
</linearGradient>
<linearGradient id="paint16_linear_1131_48974" x1="0" y1="413.792" x2="21.6616" y2="413.792" gradientUnits="userSpaceOnUse">
<stop stop-color="#F57A00"/>
<stop offset="1" stop-color="#7103A4"/>
</linearGradient>
<linearGradient id="paint17_linear_1131_48974" x1="71.8975" y1="492.289" x2="92.5677" y2="492.289" gradientUnits="userSpaceOnUse">
<stop stop-color="#F57A00"/>
<stop offset="1" stop-color="#7103A4"/>
</linearGradient>
<linearGradient id="paint18_linear_1131_48974" x1="138.558" y1="500.007" x2="159.228" y2="500.007" gradientUnits="userSpaceOnUse">
<stop stop-color="#F57A00"/>
<stop offset="1" stop-color="#7103A4"/>
</linearGradient>
<linearGradient id="paint19_linear_1131_48974" x1="509.821" y1="492.289" x2="530.491" y2="492.289" gradientUnits="userSpaceOnUse">
<stop stop-color="#F57A00"/>
<stop offset="1" stop-color="#7103A4"/>
</linearGradient>
<linearGradient id="paint20_linear_1131_48974" x1="443.16" y1="500.007" x2="463.83" y2="500.007" gradientUnits="userSpaceOnUse">
<stop stop-color="#F57A00"/>
<stop offset="1" stop-color="#7103A4"/>
</linearGradient>
<linearGradient id="paint21_linear_1131_48974" x1="241.418" y1="193.455" x2="244.094" y2="193.455" gradientUnits="userSpaceOnUse">
<stop stop-color="#F57A00"/>
<stop offset="1" stop-color="#7103A4"/>
</linearGradient>
<linearGradient id="paint22_linear_1131_48974" x1="241.418" y1="215.235" x2="244.094" y2="215.235" gradientUnits="userSpaceOnUse">
<stop stop-color="#F57A00"/>
<stop offset="1" stop-color="#7103A4"/>
</linearGradient>
<linearGradient id="paint23_linear_1131_48974" x1="241.418" y1="237.029" x2="244.094" y2="237.029" gradientUnits="userSpaceOnUse">
<stop stop-color="#F57A00"/>
<stop offset="1" stop-color="#7103A4"/>
</linearGradient>
<linearGradient id="paint24_linear_1131_48974" x1="241.418" y1="258.808" x2="244.094" y2="258.808" gradientUnits="userSpaceOnUse">
<stop stop-color="#F57A00"/>
<stop offset="1" stop-color="#7103A4"/>
</linearGradient>
<linearGradient id="paint25_linear_1131_48974" x1="381.76" y1="211.044" x2="415.214" y2="211.044" gradientUnits="userSpaceOnUse">
<stop stop-color="#F57A00"/>
<stop offset="1" stop-color="#7103A4"/>
</linearGradient>
</defs>
</svg>
