<svg width="107" height="106" viewBox="0 0 107 106" fill="none" xmlns="http://www.w3.org/2000/svg">
<rect x="1.44789" y="0.660778" width="104.403" height="104.403" rx="52.2015" fill="#171717"/>
<rect x="1.44789" y="0.660778" width="104.403" height="104.403" rx="52.2015" stroke="#F57A00" stroke-width="1.32156"/>
<path d="M40.29 72.5001C40.0029 72.2864 39.8106 71.969 39.7542 71.6155C39.6979 71.2621 39.7818 70.9006 39.9883 70.6082C40.1947 70.3158 40.5072 70.1156 40.8591 70.0504C41.211 69.9852 41.5745 70.0601 41.872 70.2591C55.665 79.9701 75.089 70.1661 75.089 53.0001C75.0883 49.6865 74.3068 46.4198 72.8078 43.4646C71.3089 40.5094 69.1346 37.9491 66.4614 35.9911C63.7882 34.0331 60.6912 32.7326 57.4215 32.195C54.1519 31.6574 50.8015 31.8978 47.6421 32.8968C44.4827 33.8958 41.6031 35.6252 39.2369 37.9448C36.8707 40.2645 35.0843 43.1091 34.0227 46.248C32.9611 49.3869 32.654 52.7318 33.1265 56.0115C33.5989 59.2912 34.8376 62.4135 36.742 65.1251C36.9343 65.4228 37.0038 65.7834 36.936 66.1312C36.8683 66.479 36.6684 66.7871 36.3785 66.9908C36.0885 67.1945 35.7309 67.278 35.3807 67.2239C35.0305 67.1697 34.7148 66.982 34.5 66.7001C32.3464 63.6358 30.9453 60.107 30.4103 56.3999C29.8754 52.6929 30.2217 48.912 31.4212 45.3638C32.6206 41.8156 34.6394 38.6 37.3139 35.9779C39.9884 33.3558 43.2432 31.4009 46.8144 30.2718C50.3856 29.1427 54.1727 28.8712 57.8684 29.4793C61.5642 30.0874 65.0646 31.558 68.0858 33.7717C71.1069 35.9855 73.5638 38.8802 75.2572 42.221C76.9505 45.5618 77.8326 49.2547 77.832 53.0001C77.832 72.3511 55.93 83.5141 40.29 72.5001Z" fill="#F57A00"/>
<path d="M54 85C47.671 85 41.4841 83.1232 36.2218 79.607C30.9594 76.0908 26.8579 71.0931 24.4359 65.2459C22.0139 59.3986 21.3802 52.9645 22.6149 46.7571C23.8496 40.5497 26.8973 34.8479 31.3726 30.3726C35.8479 25.8973 41.5497 22.8496 47.7571 21.6149C53.9645 20.3802 60.3986 21.0139 66.2459 23.4359C72.0931 25.8579 77.0908 29.9594 80.607 35.2218C84.1232 40.4841 86 46.671 86 53C85.9905 61.484 82.616 69.6178 76.6169 75.6169C70.6178 81.616 62.484 84.9905 54 85ZM54 23.743C48.2135 23.743 42.557 25.4589 37.7457 28.6737C32.9344 31.8885 29.1845 36.4578 26.9701 41.8038C24.7557 47.1499 24.1763 53.0325 25.3052 58.7078C26.4341 64.3831 29.2205 69.5962 33.3122 73.6878C37.4038 77.7795 42.6169 80.5659 48.2922 81.6948C53.9675 82.8237 59.8502 82.2443 65.1962 80.0299C70.5422 77.8155 75.1115 74.0656 78.3263 69.2543C81.5411 64.443 83.257 58.7865 83.257 53C83.248 45.2433 80.1627 37.8069 74.6779 32.3221C69.1931 26.8373 61.7567 23.752 54 23.743Z" fill="#F57A00"/>
<path d="M57.0634 68.6649C56.6997 68.6643 56.3511 68.5196 56.0939 68.2624C55.8367 68.0053 55.692 67.6566 55.6914 67.2929V65.2509C55.6914 65.0732 55.6209 64.9028 55.4952 64.7771C55.3696 64.6515 55.1991 64.5809 55.0214 64.5809H50.9374C50.7597 64.5809 50.5893 64.6515 50.4637 64.7771C50.338 64.9028 50.2674 65.0732 50.2674 65.2509V67.2929C50.2724 67.4761 50.2406 67.6585 50.1739 67.8292C50.1072 67.9999 50.0069 68.1555 49.8791 68.2869C49.7513 68.4182 49.5984 68.5226 49.4295 68.5939C49.2607 68.6652 49.0792 68.7019 48.8959 68.7019C48.7127 68.7019 48.5312 68.6652 48.3624 68.5939C48.1935 68.5226 48.0406 68.4182 47.9128 68.2869C47.7849 68.1555 47.6847 67.9999 47.618 67.8292C47.5513 67.6585 47.5195 67.4761 47.5244 67.2929V65.2509C47.5242 65.0731 47.4534 64.9027 47.3276 64.7771C47.2018 64.6514 47.0312 64.5809 46.8534 64.5809H44.8124C44.6292 64.5858 44.4469 64.554 44.2761 64.4873C44.1054 64.4206 43.9498 64.3204 43.8184 64.1925C43.6871 64.0647 43.5827 63.9118 43.5114 63.743C43.4401 63.5741 43.4034 63.3927 43.4034 63.2094C43.4034 63.0261 43.4401 62.8447 43.5114 62.6758C43.5827 62.5069 43.6871 62.3541 43.8184 62.2262C43.9498 62.0984 44.1054 61.9981 44.2761 61.9314C44.4469 61.8647 44.6292 61.8329 44.8124 61.8379H46.8534C47.0312 61.8379 47.2018 61.7673 47.3276 61.6417C47.4534 61.5161 47.5242 61.3457 47.5244 61.1679V44.8319C47.5242 44.6541 47.4534 44.4837 47.3276 44.3581C47.2018 44.2324 47.0312 44.1619 46.8534 44.1619H44.8124C44.6292 44.1668 44.4469 44.135 44.2761 44.0683C44.1054 44.0016 43.9498 43.9014 43.8184 43.7735C43.6871 43.6457 43.5827 43.4928 43.5114 43.324C43.4401 43.1551 43.4034 42.9737 43.4034 42.7904C43.4034 42.6071 43.4401 42.4257 43.5114 42.2568C43.5827 42.0879 43.6871 41.9351 43.8184 41.8072C43.9498 41.6794 44.1054 41.5792 44.2761 41.5125C44.4469 41.4458 44.6292 41.4139 44.8124 41.4189H46.8534C47.0312 41.4189 47.2018 41.3483 47.3276 41.2227C47.4534 41.0971 47.5242 40.9267 47.5244 40.7489V38.7069C47.5195 38.5237 47.5513 38.3413 47.618 38.1706C47.6847 37.9999 47.7849 37.8442 47.9128 37.7129C48.0406 37.5815 48.1935 37.4771 48.3624 37.4059C48.5312 37.3346 48.7127 37.2979 48.8959 37.2979C49.0792 37.2979 49.2607 37.3346 49.4295 37.4059C49.5984 37.4771 49.7513 37.5815 49.8791 37.7129C50.0069 37.8442 50.1072 37.9999 50.1739 38.1706C50.2406 38.3413 50.2724 38.5237 50.2674 38.7069V40.7489C50.2674 40.9266 50.338 41.097 50.4637 41.2226C50.5893 41.3483 50.7597 41.4189 50.9374 41.4189H55.0214C55.1991 41.4189 55.3696 41.3483 55.4952 41.2226C55.6209 41.097 55.6914 40.9266 55.6914 40.7489V38.7069C55.6914 38.343 55.836 37.994 56.0933 37.7367C56.3506 37.4794 56.6996 37.3349 57.0634 37.3349C57.4273 37.3349 57.7763 37.4794 58.0336 37.7367C58.2909 37.994 58.4354 38.343 58.4354 38.7069V41.4649C58.4355 41.5913 58.4712 41.7151 58.5384 41.8221C58.6056 41.9291 58.7016 42.015 58.8154 42.0699C59.6732 42.4699 60.4317 43.0548 61.0367 43.7826C61.6417 44.5104 62.0782 45.3631 62.3148 46.2795C62.5513 47.1959 62.5822 48.1532 62.4051 49.0829C62.228 50.0126 61.8473 50.8916 61.2904 51.6569C61.2367 51.7313 61.1989 51.816 61.1794 51.9057C61.1598 51.9954 61.1589 52.0881 61.1767 52.1782C61.1945 52.2682 61.2307 52.3537 61.2829 52.4291C61.3352 52.5046 61.4024 52.5685 61.4804 52.6169C62.6087 53.3119 63.4953 54.3379 64.0194 55.555C64.5436 56.7721 64.6798 58.1211 64.4096 59.4184C64.1394 60.7158 63.4758 61.8983 62.5093 62.8049C61.5428 63.7115 60.3204 64.2981 59.0084 64.4849C58.8491 64.508 58.7035 64.5877 58.5983 64.7095C58.493 64.8313 58.4352 64.9869 58.4354 65.1479V67.2929C58.4349 67.6566 58.2902 68.0053 58.033 68.2624C57.7758 68.5196 57.4272 68.6643 57.0634 68.6649ZM50.9374 54.3719C50.7597 54.3719 50.5893 54.4425 50.4637 54.5681C50.338 54.6938 50.2674 54.8642 50.2674 55.0419V61.1679C50.2674 61.3456 50.338 61.516 50.4637 61.6416C50.5893 61.7673 50.7597 61.8379 50.9374 61.8379H58.0844C59.0745 61.8379 60.024 61.4446 60.7241 60.7445C61.4241 60.0444 61.8174 59.0949 61.8174 58.1049C61.8174 57.1148 61.4241 56.1653 60.7241 55.4653C60.024 54.7652 59.0745 54.3719 58.0844 54.3719H50.9374ZM50.9374 44.1619C50.7597 44.1619 50.5893 44.2325 50.4637 44.3581C50.338 44.4838 50.2674 44.6542 50.2674 44.8319V50.9579C50.2674 51.1356 50.338 51.306 50.4637 51.4316C50.5893 51.5573 50.7597 51.6279 50.9374 51.6279H56.0424C57.0325 51.6279 57.982 51.2346 58.6821 50.5345C59.3821 49.8344 59.7754 48.8849 59.7754 47.8949C59.7754 46.9048 59.3821 45.9553 58.6821 45.2553C57.982 44.5552 57.0325 44.1619 56.0424 44.1619H50.9374Z" fill="#F57A00"/>
</svg>
