<svg width="213" height="67" viewBox="0 0 213 67" fill="none" xmlns="http://www.w3.org/2000/svg">
<g clip-path="url(#clip0_226_57)">
<path fill-rule="evenodd" clip-rule="evenodd" d="M33.6784 18.4965C33.4279 18.7283 33.2236 18.9998 33.0654 19.3044L6.53265 17.3375L27.5281 5.15873C27.9698 5.49648 28.5169 5.7084 29.1102 5.74151L33.6784 18.4965ZM8.40477 31.6488C7.98289 32.1455 7.73239 32.7945 7.73239 33.5031C7.73239 34.2117 7.98948 34.8607 8.41136 35.3574L3.96837 44.1455V22.8541L8.40477 31.6488ZM5.03627 20.0395C5.18129 19.874 5.29995 19.6885 5.40542 19.4899L31.6217 21.4303L12.4391 31.311C11.9381 30.8872 11.2921 30.6289 10.5867 30.6289C10.5142 30.6289 10.4483 30.6289 10.3758 30.6355L5.03627 20.0395ZM5.40542 47.5031C5.30654 47.3044 5.1813 47.119 5.04286 46.9534L10.389 36.3574C10.4549 36.364 10.5208 36.364 10.5933 36.364C11.2921 36.364 11.9381 36.1124 12.4325 35.6885L31.5954 45.5627L5.40542 47.5031ZM26.4272 63.7614C26.4141 63.8806 26.4075 63.9998 26.4075 64.1256C26.4075 65.7084 27.6863 66.9998 29.2684 66.9998C30.8439 66.9998 32.1293 65.715 32.1293 64.1256C32.1293 64.0064 32.1227 63.8806 32.1095 63.7614C40.4682 58.9137 48.8268 54.066 57.1854 49.2183L49.664 36.1521L37.2447 44.0329C36.7832 43.7084 36.2163 43.5163 35.6099 43.5163C34.9111 43.5163 34.2651 43.768 33.7707 44.1918L13.4345 33.715C13.441 33.6422 13.441 33.5693 13.441 33.4965C13.441 33.4302 13.441 33.3574 13.4345 33.2912L33.7773 22.8144C34.2717 23.2316 34.9111 23.4766 35.6033 23.4766C36.1834 23.4766 36.7305 23.2978 37.1788 22.9998L49.6574 30.8408L57.1656 17.7746L32.0963 3.23157C32.1095 3.11237 32.1161 2.99316 32.1161 2.86734C32.1161 1.28455 30.8373 -0.00683594 29.2552 -0.00683594C27.6797 -0.00683594 26.3943 1.27793 26.3943 2.86734C26.3943 2.98654 26.4009 3.11237 26.4141 3.23157L4.58802 15.9004C4.1068 15.5362 3.50693 15.3177 2.86092 15.3177C1.27884 15.311 0 16.5958 0 18.1852C0 19.3773 0.718526 20.3971 1.74687 20.8342V46.172C0.718526 46.6091 0 47.6289 0 48.821C0 50.4038 1.27884 51.6951 2.86092 51.6951C3.51352 51.6951 4.1068 51.4766 4.58802 51.1124C11.8656 55.3177 19.1431 59.5428 26.4272 63.7614ZM29.1102 61.2581C28.5169 61.2912 27.9764 61.5031 27.5281 61.8408L6.53265 49.6554L33.0654 47.6885C33.2236 47.9932 33.4279 48.2647 33.6784 48.4965L29.1102 61.2581ZM39.4266 45.7283L53.5928 47.4435L48.8993 39.2713L38.4312 45.9137C38.4576 46.066 38.4708 46.225 38.4708 46.3839C38.4708 47.9203 37.271 49.172 35.7615 49.2514L31.3251 61.6422L52.2282 49.5163L39.1629 47.9336C39.3673 47.4567 39.486 46.9336 39.486 46.3773C39.486 46.1587 39.4662 45.9402 39.4266 45.7283ZM31.3251 5.35078L35.7615 17.7415C37.271 17.821 38.4708 19.0726 38.4708 20.6091C38.4708 20.7945 38.451 20.9733 38.4181 21.1455L48.8993 27.7283L53.5928 19.5561L39.4266 21.2713C39.4662 21.0594 39.486 20.8342 39.486 20.6091C39.486 20.0594 39.3739 19.5296 39.1629 19.0528L52.2282 17.47L31.3251 5.35078Z" fill="url(#paint0_linear_226_57)"/>
<path d="M74.0611 26.6353C76.276 26.6353 78.0888 25.7545 79.4929 23.993L82.3802 26.9797C80.0861 29.5757 77.3834 30.8671 74.2786 30.8671C71.1672 30.8671 68.6029 29.8804 66.5924 27.9069C64.5818 25.9334 63.5732 23.4433 63.5732 20.43C63.5732 17.4234 64.6016 14.9135 66.6517 12.9002C68.7018 10.887 71.2133 9.88037 74.1797 9.88037C77.4955 9.88037 80.2641 11.1453 82.4988 13.6817L79.6972 16.8737C78.2734 15.0923 76.5001 14.2049 74.3775 14.2049C72.6834 14.2049 71.2331 14.7612 70.0268 15.8737C68.8205 16.9863 68.2206 18.483 68.2206 20.3704C68.2206 22.2579 68.7875 23.7744 69.9279 24.9135C71.0617 26.0592 72.4395 26.6353 74.0611 26.6353Z" fill="white"/>
<path d="M96.0782 30.6354H91.5693V22.6221L84.5752 10.3506H89.4599L93.8237 17.9003L98.1876 10.3506H103.072L96.0782 22.6287V30.6354Z" fill="white"/>
<path d="M115.524 30.6354H106.685V10.3506H114.542C115.907 10.3506 117.087 10.5161 118.082 10.8473C119.077 11.1784 119.822 11.6221 120.323 12.185C121.226 13.2314 121.681 14.4102 121.681 15.7281C121.681 17.3175 121.167 18.4963 120.152 19.2711C119.803 19.5426 119.565 19.7082 119.427 19.781C119.288 19.8473 119.051 19.9599 118.702 20.1122C119.954 20.3837 120.95 20.9466 121.695 21.8075C122.433 22.6685 122.809 23.7347 122.809 25.0128C122.809 26.4234 122.327 27.6751 121.365 28.7546C120.244 30.0062 118.293 30.6354 115.524 30.6354ZM111.187 18.5625H113.323C114.575 18.5625 115.505 18.4301 116.111 18.1585C116.718 17.887 117.021 17.3042 117.021 16.4036C117.021 15.5029 116.744 14.9069 116.184 14.6155C115.623 14.3241 114.681 14.1784 113.349 14.1784H111.18V18.5625H111.187ZM111.187 26.8075H114.279C115.571 26.8075 116.54 26.6486 117.179 26.3307C117.825 26.0128 118.148 25.3837 118.148 24.4433C118.148 23.5029 117.805 22.887 117.12 22.5824C116.434 22.2844 115.34 22.132 113.843 22.132H111.187V26.8075Z" fill="white"/>
<path d="M164.76 17.0791C164.76 20.3307 163.481 22.4301 160.917 23.3771L166.032 30.6354H160.489L156.013 24.1652H152.895V30.6354H148.386V10.3506H156.046C159.183 10.3506 161.425 10.8804 162.763 11.9466C164.088 13.0062 164.76 14.7214 164.76 17.0791ZM159.328 19.4897C159.889 18.9863 160.166 18.1916 160.166 17.0923C160.166 15.9996 159.876 15.2512 159.295 14.8407C158.715 14.4367 157.707 14.2314 156.263 14.2314H152.881V20.238H156.177C157.72 20.2446 158.768 19.993 159.328 19.4897Z" fill="white"/>
<path d="M73.8438 49.5094L78.9855 36.5889H83.8702L75.7489 56.8803H71.9321L63.8174 36.5889H68.702L73.8438 49.5094Z" fill="white"/>
<path d="M100.864 56.8803L98.9855 52.4962H90.5214L88.6427 56.8803H83.8438L92.5715 36.5889H96.9354L105.663 56.8803H100.864ZM94.7667 42.6286L92.2221 48.5226H97.2782L94.7667 42.6286Z" fill="white"/>
<path d="M123.574 36.5889H128.083V56.8803H123.574L113.949 44.165V56.8803H109.44V36.5889H113.659L123.567 49.6485V36.5889H123.574Z" fill="white"/>
<path d="M143.046 40.5094V56.8803H138.537V40.5094H132.815V36.5889H148.768V40.5094H143.046Z" fill="white"/>
<path d="M166.422 56.8803L164.543 52.4962H156.079L154.2 56.8803H149.401L158.129 36.5889H162.493L171.221 56.8803H166.422ZM160.324 42.6286L157.78 48.5226H162.836L160.324 42.6286Z" fill="white"/>
<path d="M188.122 46.5491H192.657V53.7478C190.654 55.9928 187.878 57.112 184.338 57.112C181.372 57.112 178.88 56.1253 176.87 54.1518C174.859 52.1783 173.851 49.6882 173.851 46.6749C173.851 43.6683 174.879 41.1518 176.929 39.1385C178.979 37.1253 181.458 36.1187 184.352 36.1187C187.252 36.1187 189.77 37.0789 191.906 38.9928L189.566 42.3902C188.663 41.5955 187.826 41.0524 187.067 40.7478C186.309 40.4498 185.485 40.2975 184.596 40.2975C182.882 40.2975 181.438 40.8802 180.258 42.0524C179.085 43.2246 178.498 44.7677 178.498 46.6816C178.498 48.5955 179.058 50.1319 180.185 51.2842C181.313 52.4365 182.657 53.0127 184.213 53.0127C185.775 53.0127 187.074 52.7147 188.116 52.112V46.5491H188.122Z" fill="white"/>
<path d="M205.394 41.5689C203.258 41.5689 202.13 41.1782 201.135 40.8338C200.285 40.5358 199.612 40.304 198.109 40.304V36.5093C200.245 36.5093 201.372 36.9 202.368 37.2444C203.218 37.5424 203.891 37.7742 205.394 37.7742C206.896 37.7742 207.569 37.5424 208.419 37.2444C209.415 36.9 210.542 36.5093 212.678 36.5093V40.304C211.175 40.304 210.502 40.5358 209.652 40.8338C208.657 41.1782 207.529 41.5689 205.394 41.5689Z" fill="#F37803"/>
<path d="M202.625 48.6681H211.669V44.8071H202.625H198.116V56.88H213.001V52.8734H202.625V48.6681Z" fill="white"/>
<path d="M135.308 15.3306C133.172 15.3306 132.045 14.9399 131.049 14.5955C130.199 14.2975 129.526 14.0657 128.023 14.0657V10.271C130.159 10.271 131.286 10.6617 132.282 11.0061C133.132 11.3041 133.805 11.5359 135.308 11.5359C136.811 11.5359 137.483 11.3041 138.333 11.0061C139.329 10.6617 140.456 10.271 142.592 10.271V14.0657C141.089 14.0657 140.416 14.2975 139.566 14.5955C138.577 14.9399 137.45 15.3306 135.308 15.3306Z" fill="#F37803"/>
<path d="M132.539 22.4234H141.584V18.5625H132.539H128.037V30.6353H142.915V26.6353H132.539V22.4234Z" fill="white"/>
</g>
<defs>
<linearGradient id="paint0_linear_226_57" x1="5.88649" y1="11.0805" x2="50.7161" y2="55.7034" gradientUnits="userSpaceOnUse">
<stop stop-color="#F57A00"/>
<stop offset="1" stop-color="#7103A4"/>
</linearGradient>
<clipPath id="clip0_226_57">
<rect width="213" height="67" fill="white"/>
</clipPath>
</defs>
</svg>
