<svg width="25" height="20" viewBox="0 0 25 20" fill="none" xmlns="http://www.w3.org/2000/svg">
<path d="M0 0.538086H25V19.2881H0V0.538086Z" fill="#012169"/>
<path d="M2.92969 0.538086L12.4609 7.6084L21.9531 0.538086H25V2.95996L15.625 9.95215L25 16.9053V19.2881H21.875L12.5 12.2959L3.16406 19.2881H0V16.9443L9.33594 9.99121L0 3.03809V0.538086H2.92969Z" fill="white"/>
<path d="M16.5625 11.5146L25 17.7256V19.2881L14.4141 11.5146H16.5625ZM9.375 12.2959L9.60938 13.6631L2.10938 19.2881H0L9.375 12.2959ZM25 0.538086V0.655273L15.2734 7.99902L15.3516 6.28027L23.0469 0.538086H25ZM0 0.538086L9.33594 7.41309H6.99219L0 2.17871V0.538086Z" fill="#C8102E"/>
<path d="M9.41406 0.538086V19.2881H15.6641V0.538086H9.41406ZM0 6.78809V13.0381H25V6.78809H0Z" fill="white"/>
<path d="M0 8.07715V11.8271H25V8.07715H0ZM10.6641 0.538086V19.2881H14.4141V0.538086H10.6641Z" fill="#C8102E"/>
</svg>
