<svg width="106" height="105" viewBox="0 0 106 105" fill="none" xmlns="http://www.w3.org/2000/svg">
<rect x="0.660778" y="0.660778" width="104.403" height="103.678" rx="51.8392" fill="#171717"/>
<rect x="0.660778" y="0.660778" width="104.403" height="103.678" rx="51.8392" stroke="#F57A00" stroke-width="1.32156"/>
<path d="M59.25 32.1918H56.125V29.0668C56.125 28.7905 56.0152 28.5255 55.8199 28.3302C55.6245 28.1348 55.3596 28.0251 55.0833 28.0251H50.9166C50.6404 28.0251 50.3754 28.1348 50.1801 28.3302C49.9847 28.5255 49.875 28.7905 49.875 29.0668V32.1918H46.75C46.4737 32.1918 46.2088 32.3015 46.0134 32.4969C45.8181 32.6922 45.7083 32.9572 45.7083 33.2334V37.4001C45.7083 37.6764 45.8181 37.9413 46.0134 38.1367C46.2088 38.332 46.4737 38.4418 46.75 38.4418H49.875V41.5668C49.875 41.843 49.9847 42.108 50.1801 42.3033C50.3754 42.4987 50.6404 42.6084 50.9166 42.6084H55.0833C55.3596 42.6084 55.6245 42.4987 55.8199 42.3033C56.0152 42.108 56.125 41.843 56.125 41.5668V38.4418H59.25C59.5263 38.4418 59.7912 38.332 59.9866 38.1367C60.1819 37.9413 60.2917 37.6764 60.2917 37.4001V33.2334C60.2917 32.9572 60.1819 32.6922 59.9866 32.4969C59.7912 32.3015 59.5263 32.1918 59.25 32.1918ZM58.2083 36.3584H55.0833C54.807 36.3584 54.5421 36.4682 54.3467 36.6635C54.1514 36.8589 54.0416 37.1238 54.0416 37.4001V40.5251H51.9583V37.4001C51.9583 37.1238 51.8486 36.8589 51.6532 36.6635C51.4579 36.4682 51.1929 36.3584 50.9166 36.3584H47.7916V34.2751H50.9166C51.1929 34.2751 51.4579 34.1653 51.6532 33.97C51.8486 33.7746 51.9583 33.5097 51.9583 33.2334V30.1084H54.0416V33.2334C54.0416 33.5097 54.1514 33.7746 54.3467 33.97C54.5421 34.1653 54.807 34.2751 55.0833 34.2751H58.2083V36.3584ZM81.8854 37.7751C81.9065 37.5918 81.917 37.4075 81.9167 37.223C81.9116 36.2682 81.5804 35.3438 80.9779 34.603C80.3755 33.8622 79.5379 33.3496 78.6042 33.1501C77.548 32.949 76.4548 33.1567 75.5459 33.7311C74.637 34.3054 73.9802 35.2036 73.7083 36.2438L69.125 49.4314C69.0571 49.4583 68.991 49.4896 68.9271 49.5251L59.7187 54.921C58.3097 55.7486 57.1409 56.9296 56.328 58.3473C55.515 59.7649 55.086 61.3701 55.0833 63.0043V72.8168C54.807 72.8168 54.5421 72.9266 54.3467 73.1219C54.1514 73.3173 54.0416 73.5822 54.0416 73.8585V82.1918C54.0416 82.4681 54.1514 82.733 54.3467 82.9284C54.5421 83.1237 54.807 83.2335 55.0833 83.2335H69.6667C69.9429 83.2335 70.2079 83.1237 70.4032 82.9284C70.5986 82.733 70.7083 82.4681 70.7083 82.1918V73.8585C70.7083 73.5822 70.5986 73.3173 70.4032 73.1219C70.2079 72.9266 69.9429 72.8168 69.6667 72.8168V70.5251C69.6686 70.0852 69.7623 69.6505 69.9416 69.2487C70.121 68.847 70.3821 68.487 70.7083 68.1918L77.75 61.9314C78.5203 61.2574 79.0716 60.3687 79.3333 59.3793L83.8542 42.473C83.9507 42.12 83.9997 41.7557 84 41.3897C83.9959 40.6546 83.7984 39.9335 83.4272 39.299C83.056 38.6645 82.5242 38.1389 81.8854 37.7751ZM75.6979 36.8584C75.8258 36.3197 76.152 35.849 76.6115 35.5401C77.071 35.2312 77.63 35.1068 78.1771 35.1918C78.644 35.2895 79.0632 35.5446 79.3647 35.9143C79.6661 36.284 79.8316 36.746 79.8333 37.223V37.2438C78.9029 37.2611 78.0035 37.5818 77.2721 38.1572C76.5406 38.7326 76.0172 39.5311 75.7813 40.4314L72.875 49.4001C72.435 49.1914 71.9632 49.0576 71.4792 49.0043L75.6979 36.8584ZM68.625 81.1502H56.125V74.9001H68.625V81.1502ZM81.8438 41.9314L77.3125 58.848C77.1557 59.4359 76.8297 59.9647 76.375 60.3689L69.3229 66.6293C68.7772 67.1214 68.3405 67.7222 68.041 68.3932C67.7414 69.0641 67.5855 69.7903 67.5833 70.5251V72.8168H57.1667V63.0043C57.1718 61.7334 57.5066 60.4856 58.1384 59.3828C58.7701 58.28 59.6771 57.36 60.7708 56.7126L69.9688 51.3272C70.2059 51.189 70.468 51.0991 70.7401 51.0625C71.0121 51.026 71.2887 51.0435 71.5539 51.1142C71.8191 51.1848 72.0678 51.3072 72.2855 51.4743C72.5033 51.6413 72.6859 51.8498 72.8229 52.0876C73.0935 52.5689 73.1681 53.136 73.0313 53.671C72.9589 53.9351 72.8352 54.1824 72.6672 54.3986C72.4991 54.6149 72.2901 54.796 72.0521 54.9314L66.0833 58.3793C65.8566 58.5234 65.6943 58.7496 65.6304 59.0105C65.5665 59.2715 65.6059 59.5471 65.7403 59.7797C65.8748 60.0123 66.0939 60.1839 66.3519 60.2588C66.61 60.3336 66.8869 60.3059 67.125 60.1814L73.0938 56.7335C73.5708 56.4628 73.989 56.0994 74.3235 55.6647C74.658 55.2299 74.9022 54.7327 75.0417 54.2022C75.3252 53.1364 75.1754 52.0017 74.625 51.0459L74.5625 50.9522L77.7813 41.0251C77.9091 40.4864 78.2353 40.0157 78.6948 39.7068C79.1543 39.3979 79.7133 39.2735 80.2604 39.3584C80.7273 39.4562 81.1465 39.7113 81.448 40.081C81.7494 40.4507 81.9149 40.9127 81.9167 41.3897C81.9202 41.5729 81.8956 41.7556 81.8438 41.9314ZM50.9166 72.8168V63.0043C50.9139 61.3701 50.4849 59.7649 49.672 58.3473C48.859 56.9296 47.6903 55.7486 46.2812 54.921L37.0729 49.5147C37.0104 49.4834 36.9375 49.4626 36.875 49.4314L32.3229 36.3168C32.0583 35.2613 31.4015 34.3464 30.4862 33.7581C29.5708 33.1698 28.4657 32.9524 27.3958 33.1501C26.462 33.3496 25.6245 33.8622 25.022 34.603C24.4195 35.3438 24.0883 36.2682 24.0833 37.223C24.083 37.4075 24.0934 37.5918 24.1145 37.7751C23.4757 38.1389 22.944 38.6645 22.5728 39.299C22.2016 39.9335 22.004 40.6546 21.9999 41.3897C22.002 41.7549 22.0474 42.1186 22.1354 42.473L26.6666 59.3689C26.9256 60.3625 27.4772 61.2553 28.2499 61.9314L35.2812 68.1918C35.6107 68.4849 35.8747 68.8443 36.056 69.2463C36.2373 69.6484 36.3318 70.0841 36.3333 70.5251V72.8168C36.057 72.8168 35.7921 72.9266 35.5967 73.1219C35.4014 73.3173 35.2916 73.5822 35.2916 73.8585V82.1918C35.2916 82.4681 35.4014 82.733 35.5967 82.9284C35.7921 83.1237 36.057 83.2335 36.3333 83.2335H50.9166C51.1929 83.2335 51.4579 83.1237 51.6532 82.9284C51.8486 82.733 51.9583 82.4681 51.9583 82.1918V73.8585C51.9583 73.5822 51.8486 73.3173 51.6532 73.1219C51.4579 72.9266 51.1929 72.8168 50.9166 72.8168ZM26.1666 37.223C26.1679 36.7474 26.3319 36.2866 26.6313 35.9171C26.9307 35.5476 27.3475 35.2916 27.8124 35.1918C28.3746 35.1102 28.9468 35.2441 29.4143 35.5667C29.8818 35.8894 30.2101 36.3768 30.3333 36.9313L34.5208 49.0043C34.0367 49.0576 33.565 49.1914 33.125 49.4001L30.2395 40.4834C30.0047 39.5743 29.4802 38.7664 28.7453 38.1819C28.0105 37.5974 27.1053 37.2681 26.1666 37.2438V37.223ZM36.6666 66.6293L29.6249 60.3689C29.1677 59.9626 28.8414 59.4296 28.6874 58.8376L24.1458 41.9314C24.1027 41.7541 24.0817 41.5721 24.0833 41.3897C24.0846 40.9141 24.2485 40.4533 24.5479 40.0838C24.8473 39.7143 25.2641 39.4583 25.7291 39.3584C26.2873 39.2747 26.8565 39.4054 27.3223 39.7242C27.788 40.0431 28.1157 40.5265 28.2395 41.0772L31.4375 50.9522L31.375 51.0459C30.8245 52.0017 30.6747 53.1364 30.9583 54.2022C31.0978 54.7327 31.3419 55.2299 31.6765 55.6647C32.011 56.0994 32.4291 56.4628 32.9062 56.7335L38.875 60.1814C39.113 60.3059 39.39 60.3336 39.648 60.2588C39.9061 60.1839 40.1252 60.0123 40.2596 59.7797C40.3941 59.5471 40.4335 59.2715 40.3696 59.0105C40.3056 58.7496 40.1434 58.5234 39.9166 58.3793L33.9479 54.9314C33.7098 54.796 33.5008 54.6149 33.3328 54.3986C33.1648 54.1824 33.0411 53.9351 32.9687 53.671C32.8319 53.136 32.9065 52.5689 33.177 52.0876C33.3131 51.8503 33.4947 51.6421 33.7112 51.4749C33.9278 51.3077 34.1752 51.1848 34.4393 51.1132C34.7033 51.0416 34.9789 51.0228 35.2503 51.0577C35.5216 51.0926 35.7835 51.1807 36.0208 51.3168L45.2291 56.7126C46.3228 57.36 47.2299 58.28 47.8616 59.3828C48.4933 60.4856 48.8281 61.7334 48.8333 63.0043V72.8168H38.4166V70.5251C38.4149 69.7893 38.2581 69.0621 37.9566 68.3908C37.6551 67.7196 37.2155 67.1194 36.6666 66.6293ZM49.875 81.1502H37.375V74.9001H49.875V81.1502Z" fill="#F57A00"/>
<path d="M67.7361 23.9959C66.7691 23.0272 65.6205 22.2587 64.3562 21.7344C63.0918 21.2101 61.7364 20.9402 60.3677 20.9403C58.9989 20.9404 57.6436 21.2105 56.3793 21.735C55.115 22.2594 53.9665 23.0281 52.9996 23.997C52.0328 23.0281 50.8844 22.2594 49.6202 21.7349C48.3559 21.2105 47.0006 20.9405 45.6319 20.9405C44.2632 20.9405 42.9079 21.2105 41.6436 21.7349C40.3794 22.2594 39.231 23.0281 38.2642 23.997C36.3146 25.9508 35.2196 28.5983 35.2196 31.3584C35.2196 34.1186 36.3146 36.7661 38.2642 38.7199L52.2642 52.7199C52.4596 52.9152 52.7245 53.0249 53.0007 53.0249C53.2769 53.0249 53.5418 52.9152 53.7371 52.7199L67.7371 38.7199C69.6867 36.7657 70.7815 34.118 70.7813 31.3577C70.7811 28.5973 69.686 25.9498 67.7361 23.9959ZM52.9996 50.5105L39.7361 37.247C38.5716 36.0809 37.779 34.5958 37.4585 32.9794C37.1379 31.363 37.3038 29.6878 37.9352 28.1657C38.5665 26.6435 39.635 25.3427 41.0056 24.4277C42.3761 23.5127 43.9871 23.0246 45.635 23.0251C46.7297 23.0213 47.8142 23.2356 48.8252 23.6553C49.8362 24.0751 50.7535 24.6919 51.5236 25.4699L52.2632 26.2095C52.4585 26.4047 52.7234 26.5145 52.9996 26.5145C53.2758 26.5145 53.5407 26.4047 53.7361 26.2095L54.4778 25.4678C55.2511 24.6931 56.1696 24.0784 57.1808 23.6591C58.1919 23.2397 59.2758 23.0238 60.3705 23.0238C61.4651 23.0238 62.549 23.2397 63.5602 23.6591C64.5713 24.0784 65.4899 24.6931 66.2632 25.4678C67.8235 27.0303 68.7 29.1482 68.7 31.3563C68.7 33.5645 67.8235 35.6824 66.2632 37.2449L52.9996 50.5105Z" fill="#F57A00"/>
</svg>
