<svg xmlns="http://www.w3.org/2000/svg" width="106" height="105" viewBox="0 0 106 105" fill="none"><rect x="0.660778" y="0.660778" width="104.403" height="103.678" rx="51.8392" fill="#171717"></rect><rect x="0.660778" y="0.660778" width="104.403" height="103.678" rx="51.8392" stroke="#F57A00" stroke-width="1.32156"></rect><path d="M35.8752 47.2942C35.2266 47.2942 34.7002 47.8206 34.7002 48.4692C34.7002 49.1178 35.2266 49.6442 35.8752 49.6442C36.5238 49.6442 37.0502 49.1178 37.0502 48.4692C37.0502 47.8206 36.5238 47.2942 35.8752 47.2942ZM64.0752 49.6442H58.2002V43.7692C58.2002 43.1204 57.674 42.5942 57.0252 42.5942H49.9752C49.3264 42.5942 48.8002 43.1204 48.8002 43.7692V49.6442H42.9252C42.2764 49.6442 41.7502 50.1704 41.7502 50.8192V57.8692C41.7502 58.5181 42.2764 59.0442 42.9252 59.0442H48.8002V64.9192C48.8002 65.5681 49.3264 66.0942 49.9752 66.0942H57.0252C57.674 66.0942 58.2002 65.5681 58.2002 64.9192V59.0442H64.0752C64.724 59.0442 65.2502 58.5181 65.2502 57.8692V50.8192C65.2502 50.1704 64.724 49.6442 64.0752 49.6442ZM62.9002 56.6942H57.0252C56.3764 56.6942 55.8502 57.2204 55.8502 57.8692V63.7442H51.1502V57.8692C51.1502 57.2204 50.624 56.6942 49.9752 56.6942H44.1002V51.9942H49.9752C50.624 51.9942 51.1502 51.4681 51.1502 50.8192V44.9442H55.8502V50.8192C55.8502 51.4681 56.3764 51.9942 57.0252 51.9942H62.9002V56.6942Z" fill="#F57A00"></path><path d="M71.6391 29.052C69.7367 30.2872 67.5274 30.9399 65.25 30.9399C61.7671 30.9399 58.484 29.4073 56.2427 26.735H56.2426C55.5523 25.9121 54.5526 25.4399 53.5 25.4399C52.4474 25.4399 51.4477 25.9121 50.7573 26.7349C48.516 29.4072 45.2328 30.9398 41.75 30.9398C39.4726 30.9398 37.2633 30.2869 35.3609 29.0519C33.0376 27.544 30 29.3193 30 32.056V56.0226C30 61.3537 31.7101 66.5624 34.8149 70.689C42.4959 80.9019 52.6099 85.3212 53.0367 85.5044C53.1831 85.5672 53.3407 85.5996 53.5 85.5996C53.6593 85.5996 53.8169 85.5672 53.9633 85.5044C54.3901 85.3212 64.5041 80.9021 72.185 70.6903C75.29 66.5624 77 61.3532 77 56.0226V32.0561C77 29.3192 73.9617 27.544 71.6391 29.052ZM70.307 69.2777C63.9194 77.77 55.5414 82.1479 53.4993 83.1301C51.4563 82.1503 43.0946 77.7885 36.6929 69.2764C33.8923 65.5543 32.35 60.8475 32.35 56.0227V32.0561C32.35 31.1616 33.3371 30.5401 34.0812 31.0231C36.3656 32.506 39.0174 33.2899 41.75 33.2899C45.9295 33.2899 49.8689 31.4512 52.5578 28.2453C52.804 27.9516 53.1386 27.7899 53.5 27.7899C53.8614 27.7899 54.196 27.9516 54.4421 28.2453C57.1312 31.4511 61.0705 33.2899 65.25 33.2899C67.9826 33.2899 70.6343 32.506 72.9188 31.0231C73.6508 30.5475 74.65 31.1481 74.65 32.0561V56.0226C74.65 60.847 73.1077 65.5543 70.307 69.2777Z" fill="#F57A00"></path><path d="M71.8031 34.8427C71.6494 34.7342 71.472 34.6641 71.2856 34.6384C71.0993 34.6127 70.9096 34.6321 70.7323 34.695C68.9723 35.3208 67.1181 35.6405 65.2502 35.6401C61.2114 35.6401 57.3164 34.1492 54.2825 31.4419C54.0672 31.2497 53.7887 31.1436 53.5002 31.1436C53.2116 31.1436 52.9332 31.2497 52.7179 31.4419C49.6841 34.1492 45.789 35.6401 41.7502 35.6401C39.8823 35.6405 38.0281 35.3208 36.2681 34.695C36.0909 34.6322 35.9011 34.6128 35.7148 34.6386C35.5285 34.6643 35.3512 34.7343 35.1976 34.8428C35.044 34.9513 34.9186 35.0951 34.8321 35.2621C34.7456 35.429 34.7004 35.6143 34.7003 35.8024V43.7701C34.7003 44.4189 35.2265 44.9451 35.8753 44.9451C36.5241 44.9451 37.0503 44.4189 37.0503 43.7701V37.3906C38.5852 37.7892 40.1645 37.9907 41.7503 37.9902C46.0267 37.9902 50.1604 36.5294 53.5003 33.8565C56.8403 36.5294 60.9739 37.9902 65.2503 37.9902C66.8413 37.9902 68.416 37.789 69.9503 37.3906V56.023C69.9503 59.836 68.7432 63.5387 66.5506 66.4499C62.1075 72.3597 56.6809 76.019 53.5114 77.8206C50.3168 75.9954 44.8552 72.3083 40.4496 66.4518C38.2575 63.5389 37.0502 59.8351 37.0502 56.0229V53.17C37.0502 52.5211 36.524 51.9949 35.8752 51.9949C35.2264 51.9949 34.7002 52.5211 34.7002 53.17V56.0229C34.7002 60.3417 36.0752 64.5472 38.5717 67.8646C43.5127 74.4331 49.6967 78.4102 52.9431 80.1964C53.1162 80.2915 53.3104 80.3416 53.5079 80.3418C53.7054 80.3421 53.8997 80.2926 54.073 80.1979C57.2944 78.4373 63.443 74.4935 68.4282 67.8629C70.925 64.5475 72.3001 60.3427 72.3001 56.0229V35.8023C72.3001 35.6142 72.2549 35.4289 72.1684 35.2619C72.0819 35.0949 71.9566 34.9512 71.8031 34.8427Z" fill="#F57A00"></path></svg>