<svg width="1920" height="975" viewBox="0 0 1920 975" fill="none" xmlns="http://www.w3.org/2000/svg">
<g clip-path="url(#clip0_306_65)">
<rect width="1920" height="975" fill="#171717"/>
<g opacity="0.2" filter="url(#filter0_f_306_65)">
<circle cx="1430" cy="386" r="417" fill="#7103A4" fill-opacity="0.7"/>
</g>
<path d="M903.619 -207.525L900.139 -204.973C900.544 -205.213 900.947 -205.442 901.352 -205.681C902.656 -206.582 903.962 -207.487 905.269 -208.401C904.72 -208.106 904.169 -207.819 903.619 -207.525ZM881.197 -192.762C880.305 -192.085 879.407 -191.397 878.517 -190.724L878.894 -190.958L882.297 -193.387L881.197 -192.762ZM893.632 -202.214C891.671 -200.714 889.727 -199.255 887.769 -197.758C888.833 -198.371 889.901 -199.006 890.967 -199.623C892.902 -201.026 894.853 -202.471 896.796 -203.898C895.742 -203.339 894.686 -202.769 893.632 -202.214ZM858.513 -177.276C857.771 -176.701 857.041 -176.156 856.301 -175.584L856.32 -175.597C857.179 -176.227 858.047 -176.877 858.908 -177.513L858.513 -177.276ZM870.739 -186.845C868.994 -185.476 867.243 -184.093 865.503 -182.736C866.333 -183.239 867.163 -183.733 867.993 -184.238C869.988 -185.724 871.962 -187.16 873.963 -188.662C872.889 -188.06 871.813 -187.444 870.739 -186.845ZM883.721 -197.072C881.273 -195.122 878.848 -193.225 876.41 -191.299C877.744 -192.051 879.078 -192.808 880.413 -193.566C882.869 -195.424 885.334 -197.306 887.794 -199.177C886.436 -198.472 885.078 -197.773 883.721 -197.072ZM-256.653 68.6377L-255.597 68.6066C-254.849 68.4039 -254.102 68.2053 -253.354 68.005L-254.322 68.0753C-255.098 68.261 -255.876 68.4513 -256.653 68.6377ZM834.905 -160.709L834.138 -160.107C834.489 -160.371 834.837 -160.623 835.188 -160.887L834.905 -160.709ZM847.856 -170.956C846.245 -169.66 844.647 -168.394 843.045 -167.12C843.701 -167.534 844.354 -167.939 845.012 -168.354C846.729 -169.662 848.454 -170.992 850.17 -172.301C849.397 -171.846 848.63 -171.408 847.856 -170.956ZM860.656 -181.295C858.325 -179.413 855.992 -177.521 853.667 -175.65C855.019 -176.452 856.378 -177.275 857.733 -178.083C860.04 -179.869 862.364 -181.692 864.689 -183.515C863.344 -182.774 861.998 -182.032 860.656 -181.295ZM873.755 -191.981C870.98 -189.69 868.216 -187.423 865.464 -185.18C866.964 -186.01 868.462 -186.82 869.964 -187.656C872.832 -189.914 875.69 -192.144 878.561 -194.406C876.959 -193.588 875.356 -192.792 873.755 -191.981ZM-265.261 70.7211C-264.639 70.7288 -264.019 70.745 -263.396 70.7544L-260.106 69.8457C-260.702 69.8657 -261.296 69.8796 -261.893 69.9017C-263.016 70.1745 -264.139 70.4456 -265.261 70.7211ZM-270.742 70.6738L-269.524 70.6812L-267.265 70.1187L-268.315 70.1611C-269.125 70.3323 -269.933 70.4991 -270.742 70.6738ZM-275.811 70.6518L-275.64 70.6508L-274.923 70.494L-275.811 70.6518ZM824.289 -154.179C822.781 -152.966 821.265 -151.736 819.754 -150.513L822.087 -152.041C823.566 -153.192 825.066 -154.388 826.556 -155.56C825.799 -155.096 825.045 -154.642 824.289 -154.179ZM837.294 -164.817C835.105 -162.998 832.912 -161.17 830.746 -159.4C831.864 -160.089 832.991 -160.813 834.109 -161.508C836.468 -163.37 838.816 -165.21 841.177 -167.073C839.883 -166.325 838.585 -165.561 837.294 -164.817ZM850.585 -175.836L842.389 -169.04C843.949 -169.949 845.507 -170.845 847.069 -171.76C849.73 -173.888 852.416 -176.074 855.096 -178.246C853.589 -177.431 852.089 -176.644 850.585 -175.836ZM863.866 -187.015C860.818 -184.418 857.765 -181.812 854.753 -179.292C856.455 -180.212 858.161 -181.167 859.865 -182.099C863.007 -184.652 866.127 -187.156 869.281 -189.735C867.476 -188.83 865.67 -187.909 863.866 -187.015ZM-273.613 72.8041C-272.822 72.8509 -272.029 72.8925 -271.238 72.9427C-269.903 72.566 -268.567 72.1858 -267.232 71.813C-268.012 71.8039 -268.796 71.8045 -269.577 71.7966C-270.922 72.1332 -272.267 72.4647 -273.613 72.8041ZM-279.018 72.4922C-278.399 72.5236 -277.783 72.5615 -277.164 72.5958C-276.069 72.3175 -274.976 72.0422 -273.88 71.7677L-275.716 71.7664C-276.817 72.0082 -277.917 72.2476 -279.018 72.4922ZM-284.322 72.2451L-283.099 72.3021C-282.336 72.1295 -281.572 71.9558 -280.809 71.7868C-281.174 71.7888 -281.536 71.7888 -281.901 71.7914C-282.709 71.9449 -283.515 72.0922 -284.322 72.2451ZM-289.294 72.0456L-289.025 72.0555L-288.112 71.8757L-288.181 71.8766L-289.294 72.0456ZM800.443 -136.781C799.1 -135.67 797.75 -134.542 796.414 -133.447C796.867 -133.752 797.323 -134.067 797.775 -134.374C799.344 -135.613 800.902 -136.828 802.473 -138.072L800.443 -136.781ZM813.586 -147.663C811.458 -145.894 809.341 -144.153 807.214 -142.388C808.313 -143.091 809.403 -143.769 810.503 -144.476C812.671 -146.214 814.861 -147.999 817.043 -149.764C815.893 -149.071 814.735 -148.352 813.586 -147.663ZM826.973 -158.951C824.387 -156.749 821.794 -154.533 819.237 -152.388C820.656 -153.246 822.077 -154.115 823.498 -154.983C826.206 -157.184 828.89 -159.335 831.611 -161.566C830.062 -160.684 828.519 -159.823 826.973 -158.951ZM840.557 -170.478C837.482 -167.856 834.432 -165.283 831.366 -162.679C833.077 -163.654 834.788 -164.633 836.501 -165.62C839.531 -168.116 842.582 -170.655 845.63 -173.187C843.939 -172.29 842.246 -171.367 840.557 -170.478ZM854.191 -182.288C850.899 -179.415 847.595 -176.52 844.343 -173.731C846.16 -174.695 847.978 -175.668 849.796 -176.643C853.106 -179.406 856.422 -182.186 859.757 -185.002C857.902 -184.091 856.047 -183.19 854.191 -182.288ZM-281.785 74.8922C-280.909 74.9892 -280.035 75.092 -279.16 75.1921C-277.622 74.7513 -276.085 74.3172 -274.547 73.8815C-275.448 73.8279 -276.35 73.7735 -277.251 73.724C-278.762 74.1109 -280.274 74.503 -281.785 74.8922ZM-287.162 74.3316C-286.382 74.411 -285.601 74.4891 -284.822 74.5695C-283.487 74.2238 -282.154 73.8829 -280.82 73.5396C-281.616 73.4994 -282.412 73.4646 -283.207 73.4276C-284.525 73.7261 -285.844 74.0303 -287.162 74.3316ZM-292.421 73.8231C-291.78 73.8817 -291.136 73.9329 -290.495 73.9942C-289.404 73.7414 -288.313 73.4961 -287.223 73.246C-287.864 73.2204 -288.51 73.2029 -289.153 73.1792L-292.421 73.8231ZM-297.51 73.3727C-297.094 73.407 -296.681 73.4477 -296.266 73.4823C-295.477 73.3235 -294.691 73.1729 -293.903 73.0162L-295.088 72.979C-295.895 73.1103 -296.701 73.2383 -297.51 73.3727ZM-302.394 72.9973L-302.006 73.0267C-301.666 72.9687 -301.327 72.9077 -300.987 72.8509L-301.185 72.8463C-301.589 72.8987 -301.99 72.9451 -302.394 72.9973ZM776.546 -118.943C775.215 -117.827 773.922 -116.787 772.599 -115.685C772.888 -115.885 773.173 -116.074 773.463 -116.275C774.891 -117.42 776.332 -118.593 777.762 -119.744C777.358 -119.48 776.95 -119.205 776.546 -118.943ZM789.557 -129.943C787.598 -128.286 785.63 -126.612 783.681 -124.974C784.707 -125.651 785.731 -126.32 786.757 -127.002C788.823 -128.681 790.87 -130.327 792.949 -132.033C791.814 -131.323 790.691 -130.649 789.557 -129.943ZM803.322 -141.599C800.652 -139.314 798.028 -137.121 795.372 -134.862C796.794 -135.755 798.227 -136.682 799.653 -137.583C802.242 -139.717 804.847 -141.882 807.444 -144.034C806.069 -143.217 804.696 -142.407 803.322 -141.599ZM816.657 -153.157C813.743 -150.625 810.824 -148.081 807.935 -145.598C809.564 -146.566 811.181 -147.501 812.812 -148.479C815.793 -150.969 818.791 -153.488 821.801 -156.035C820.087 -155.077 818.369 -154.104 816.657 -153.157ZM830.72 -165.372C827.366 -162.433 824.053 -159.578 820.72 -156.679C822.541 -157.696 824.369 -158.733 826.193 -159.763C829.478 -162.543 832.772 -165.34 836.07 -168.145C834.285 -167.214 832.503 -166.293 830.72 -165.372ZM844.557 -177.648C841.037 -174.515 837.511 -171.369 834.026 -168.305C835.943 -169.303 837.855 -170.279 839.773 -171.288C843.246 -174.261 846.762 -177.319 850.277 -180.378C848.369 -179.458 846.463 -178.557 844.557 -177.648ZM-289.915 77.0119C-288.953 77.1693 -287.988 77.3184 -287.028 77.481C-285.36 76.9928 -283.694 76.5027 -282.025 76.0193C-283 75.9125 -283.975 75.8103 -284.951 75.7075C-286.605 76.1373 -288.261 76.5743 -289.915 77.0119ZM-295.127 76.1801C-294.25 76.3138 -293.374 76.4549 -292.499 76.5933C-291.002 76.1952 -289.506 75.7906 -288.009 75.3967C-288.888 75.3096 -289.764 75.2127 -290.643 75.1289C-292.138 75.4733 -293.633 75.8265 -295.127 76.1801ZM-300.304 75.4134C-299.529 75.5245 -298.758 75.6426 -297.985 75.7565C-296.679 75.446 -295.371 75.1326 -294.066 74.8254C-294.857 74.755 -295.646 74.6811 -296.437 74.6135C-297.725 74.8742 -299.015 75.149 -300.304 75.4134ZM-305.414 74.7131C-304.77 74.7987 -304.127 74.8829 -303.484 74.9715L-300.251 74.3025C-300.897 74.2527 -301.546 74.2051 -302.192 74.1563C-303.265 74.339 -304.34 74.5258 -305.414 74.7131ZM-310.363 74.0742C-309.91 74.13 -309.455 74.1787 -309.002 74.2359C-308.219 74.0973 -307.439 73.9661 -306.656 73.8308C-307.095 73.8011 -307.535 73.7775 -307.973 73.7503C-308.77 73.8587 -309.566 73.9629 -310.363 74.0742ZM-315.036 73.5198L-314.571 73.5739C-314.204 73.5211 -313.837 73.4646 -313.47 73.4128L-313.791 73.3938L-315.036 73.5198ZM751.806 -100.206C750.756 -99.3252 749.701 -98.4333 748.649 -97.5483C749.062 -97.8402 749.472 -98.125 749.885 -98.418C750.961 -99.2931 752.051 -100.193 753.135 -101.085C752.689 -100.785 752.251 -100.503 751.806 -100.206ZM765.522 -111.835C763.64 -110.213 761.766 -108.607 759.903 -107.022C760.729 -107.583 761.558 -108.153 762.385 -108.715C764.381 -110.36 766.386 -112.021 768.379 -113.662C767.425 -113.047 766.476 -112.447 765.522 -111.835ZM778.896 -123.377C776.392 -121.216 773.881 -119.042 771.386 -116.895C772.831 -117.832 774.285 -118.784 775.734 -119.731C778.182 -121.774 780.668 -123.891 783.147 -125.995C781.731 -125.125 780.309 -124.24 778.896 -123.377ZM792.752 -135.418C789.858 -132.877 786.989 -130.381 784.12 -127.886C785.665 -128.838 787.205 -129.777 788.753 -130.738L797.576 -138.204C795.964 -137.264 794.361 -136.348 792.752 -135.418ZM806.619 -147.674C803.368 -144.792 800.115 -141.911 796.883 -139.069C798.759 -140.162 800.648 -141.296 802.528 -142.403C805.653 -145.076 808.832 -147.855 811.996 -150.61C810.204 -149.627 808.41 -148.644 806.619 -147.674ZM820.794 -160.287C817.277 -157.13 813.787 -154.024 810.3 -150.926C812.157 -151.943 814.009 -152.938 815.869 -153.969C819.415 -157.042 822.947 -160.09 826.506 -163.188C824.6 -162.211 822.699 -161.252 820.794 -160.287ZM834.979 -173.11C831.246 -169.724 827.514 -166.344 823.81 -163.014C825.847 -164.053 827.891 -165.129 829.93 -166.183C833.548 -169.351 837.231 -172.648 840.9 -175.916C838.926 -174.981 836.952 -174.032 834.979 -173.11ZM-287.793 81.5224C-238.431 93.5029 -191.416 112.465 -143.512 131.798C32.2428 202.73 220.097 278.462 580.813 30.0949M-297.958 79.1531C-296.969 79.3711 -295.984 79.6026 -294.999 79.8277C-293.207 79.2947 -291.414 78.7633 -289.621 78.2374C-290.635 78.0708 -291.65 77.9064 -292.665 77.7442C-294.429 78.2112 -296.192 78.6758 -297.958 79.1531ZM-303.053 78.0648C-302.112 78.2628 -301.172 78.4629 -300.233 78.6664C-298.579 78.2155 -296.927 77.7725 -295.273 77.3323C-296.235 77.184 -297.202 77.0462 -298.167 76.9036C-299.795 77.2878 -301.424 77.6695 -303.053 78.0648ZM-308.091 77.0362C-307.216 77.2101 -306.338 77.3762 -305.465 77.555C-303.984 77.194 -302.501 76.8338 -301.022 76.4798C-301.908 76.353 -302.797 76.2346 -303.685 76.1123C-305.153 76.4176 -306.622 76.7244 -308.091 77.0362ZM-313.061 76.0699C-312.289 76.2147 -311.519 76.3628 -310.75 76.5113C-309.472 76.2359 -308.192 75.9497 -306.915 75.6809C-307.688 75.5788 -308.457 75.4695 -309.23 75.373C-310.505 75.5994 -311.784 75.8376 -313.061 76.0699ZM-317.987 75.1753C-317.347 75.288 -316.709 75.4086 -316.07 75.5238L-312.881 74.9392C-313.526 74.8632 -314.17 74.7829 -314.815 74.7094L-317.987 75.1753ZM-322.82 74.3581L-321.441 74.5855C-320.657 74.4656 -319.877 74.3557 -319.094 74.2404L-320.436 74.1004C-321.231 74.1879 -322.025 74.2678 -322.82 74.3581ZM-327.274 73.6391L-326.739 73.7189L-325.652 73.5887L-326.106 73.5489C-326.495 73.5761 -326.886 73.6107 -327.274 73.6391ZM727.365 -81.3756C726.47 -80.6081 725.565 -79.8258 724.675 -79.0666L724.913 -79.2397C726.03 -80.1597 727.139 -81.0618 728.256 -81.9829L727.365 -81.3756ZM740.945 -93.0237C739.014 -91.3692 737.083 -89.7162 735.149 -88.0515C736.098 -88.7109 737.065 -89.4058 738.017 -90.0686C739.881 -91.6242 741.771 -93.2291 743.649 -94.8116C742.747 -94.2151 741.844 -93.6159 740.945 -93.0237ZM754.37 -104.704C752.1 -102.704 749.821 -100.686 747.58 -98.7379C748.72 -99.4973 749.849 -100.228 750.991 -100.993C753.548 -103.153 756.08 -105.264 758.646 -107.439C757.225 -106.538 755.788 -105.598 754.37 -104.704ZM768.415 -117.049L759.84 -109.513C761.463 -110.546 763.091 -111.59 764.718 -112.633C767.462 -114.98 770.242 -117.395 773.014 -119.793C771.475 -118.864 769.951 -117.97 768.415 -117.049ZM782.377 -129.479C779.219 -126.638 776.062 -123.799 772.942 -121.029C774.65 -122.06 776.366 -123.12 778.078 -124.164C781.359 -127.004 784.6 -129.768 787.897 -132.64C786.056 -131.585 784.213 -130.521 782.377 -129.479ZM796.613 -142.285C793.145 -139.161 789.689 -136.051 786.234 -132.948C788.14 -134.039 790.044 -135.119 791.955 -136.224C795.323 -139.174 798.735 -142.206 802.139 -145.225C800.294 -144.231 798.456 -143.268 796.613 -142.285ZM810.962 -155.345C807.271 -151.957 803.589 -148.587 799.938 -145.276C801.895 -146.327 803.859 -147.412 805.82 -148.476C809.542 -151.776 813.238 -155.028 816.985 -158.373C814.977 -157.363 812.969 -156.341 810.962 -155.345ZM825.56 -168.77C821.65 -165.164 817.756 -161.584 813.866 -158.016C815.91 -159.037 817.954 -160.063 819.999 -161.099C823.807 -164.509 827.665 -168.016 831.516 -171.511C829.53 -170.587 827.545 -169.681 825.56 -168.77ZM-305.978 81.3552C-304.968 81.6423 -303.957 81.925 -302.949 82.2173C-301.065 81.6459 -299.182 81.0825 -297.299 80.5197C-298.344 80.2875 -299.391 80.0568 -300.438 79.8313C-302.284 80.3379 -304.132 80.8454 -305.978 81.3552ZM-310.868 79.9975C-309.899 80.2604 -308.928 80.5223 -307.96 80.7913C-306.209 80.3051 -304.459 79.8261 -302.708 79.3465C-303.702 79.1361 -304.691 78.9185 -305.686 78.7152C-307.414 79.1416 -309.141 79.566 -310.868 79.9975ZM-315.743 78.6951C-314.83 78.9315 -313.922 79.1798 -313.012 79.4227C-311.396 79.0171 -309.783 78.6217 -308.167 78.2248C-309.11 78.0385 -310.05 77.8473 -310.993 77.6666C-312.576 78.0076 -314.158 78.3442 -315.743 78.6951ZM-320.625 77.4694C-319.774 77.6783 -318.927 77.8933 -318.079 78.1088C-316.618 77.7819 -315.159 77.4661 -313.7 77.1507C-314.577 76.9867 -315.458 76.8297 -316.337 76.6702C-317.766 76.9332 -319.195 77.1967 -320.625 77.4694ZM-325.448 76.3171C-324.677 76.4969 -323.905 76.6713 -323.134 76.8557C-321.871 76.6129 -320.606 76.3612 -319.344 76.1241C-320.138 75.9864 -320.937 75.8611 -321.732 75.7272C-322.97 75.9171 -324.21 76.1225 -325.448 76.3171ZM-330.193 75.2338C-329.545 75.3772 -328.898 75.5175 -328.253 75.6631C-327.209 75.4952 -326.166 75.3335 -325.122 75.1667C-325.766 75.0638 -326.409 74.9574 -327.053 74.8569C-328.1 74.983 -329.145 75.1044 -330.193 75.2338ZM-334.815 74.2396C-334.356 74.3358 -333.9 74.4367 -333.441 74.5347C-332.675 74.437 -331.912 74.3415 -331.146 74.2488C-331.599 74.1819 -332.048 74.1117 -332.499 74.048C-333.271 74.1101 -334.042 74.1739 -334.815 74.2396ZM-339.179 73.3646L-338.603 73.4787L-337.474 73.3742L-337.976 73.3099L-339.179 73.3646ZM702.994 -62.2865L702.813 -62.1307L703.03 -62.3126L702.994 -62.2865ZM715.938 -73.5838C714.269 -72.1274 712.589 -70.6516 710.924 -69.2069C711.652 -69.7231 712.368 -70.2134 713.096 -70.7316C715.05 -72.3782 716.965 -73.9543 718.931 -75.6235C717.936 -74.9515 716.93 -74.2523 715.938 -73.5838ZM730.032 -85.885C727.667 -83.8046 725.342 -81.8031 722.98 -79.7304C724.176 -80.5447 725.368 -81.3534 726.566 -82.1746C728.838 -84.1141 731.13 -86.0919 733.41 -88.0475C732.278 -87.3093 731.162 -86.617 730.032 -85.885ZM743.792 -98.1543C741.03 -95.6794 738.261 -93.1906 735.529 -90.7673C737.051 -91.7636 738.593 -92.7988 740.119 -93.8031C742.933 -96.2359 745.732 -98.638 748.569 -101.111C746.973 -100.116 745.383 -99.1385 743.792 -98.1543ZM757.946 -110.805C754.793 -107.977 751.667 -105.198 748.516 -102.374C750.201 -103.426 751.869 -104.434 753.56 -105.499C756.718 -108.261 759.902 -111.068 763.08 -113.868C761.372 -112.852 759.652 -111.808 757.946 -110.805ZM772.177 -123.76C768.821 -120.683 765.453 -117.584 762.143 -114.586C763.961 -115.666 765.781 -116.754 767.606 -117.845C770.986 -120.837 774.364 -123.818 777.774 -126.861C775.903 -125.81 774.043 -124.8 772.177 -123.76ZM786.691 -137.034C783.001 -133.65 779.331 -130.307 775.646 -126.933C777.619 -128.04 779.597 -129.161 781.576 -130.284C785.196 -133.522 788.842 -136.812 792.492 -140.104C790.558 -139.083 788.62 -138.042 786.691 -137.034ZM801.303 -150.611C797.485 -147.034 793.656 -143.436 789.89 -139.958C791.864 -140.999 793.839 -142.041 795.818 -143.095C799.643 -146.556 803.471 -150.023 807.332 -153.547C805.321 -152.555 803.314 -151.589 801.303 -150.611ZM816.174 -164.506C812.1 -160.688 808.056 -156.923 803.992 -153.122C806.05 -154.132 808.107 -155.133 810.168 -156.156C814.157 -159.806 818.177 -163.511 822.201 -167.226C820.193 -166.311 818.183 -165.409 816.174 -164.506ZM-313.971 83.5916C-312.959 83.9459 -311.952 84.31 -310.942 84.6719C-308.991 84.0694 -307.038 83.4596 -305.086 82.8626C-306.129 82.5629 -307.172 82.2631 -308.215 81.9713C-310.133 82.5049 -312.052 83.0487 -313.971 83.5916ZM-318.667 81.97C-317.688 82.3002 -316.713 82.6443 -315.738 82.9814C-313.898 82.4599 -312.06 81.9303 -310.223 81.4149C-311.241 81.1356 -312.263 80.8664 -313.285 80.5931C-315.078 81.0454 -316.874 81.5091 -318.667 81.97ZM-323.39 80.417C-322.442 80.7238 -321.493 81.0313 -320.546 81.3453C-318.832 80.9032 -317.118 80.4613 -315.404 80.026C-316.387 79.7693 -317.373 79.5247 -318.358 79.2743C-320.034 79.6512 -321.713 80.033 -323.39 80.417ZM-328.11 78.9229C-327.201 79.2042 -326.289 79.4783 -325.383 79.7653C-323.81 79.4041 -322.239 79.0512 -320.668 78.6954C-321.591 78.4679 -322.513 78.2377 -323.438 78.0162C-324.994 78.3157 -326.551 78.6131 -328.11 78.9229ZM-332.777 77.5015C-331.944 77.7474 -331.113 78.0018 -330.282 78.254C-328.856 77.9678 -327.433 77.6906 -326.009 77.4146C-326.867 77.2145 -327.723 77.0082 -328.584 76.8132C-329.981 77.0386 -331.379 77.2682 -332.777 77.5015ZM-337.42 76.1629C-336.669 76.3737 -335.923 76.5956 -335.175 76.8094C-333.942 76.601 -332.706 76.3831 -331.473 76.1791C-332.242 76.0103 -333.013 75.8454 -333.784 75.6809C-334.995 75.8372 -336.208 76.0011 -337.42 76.1629ZM-342.05 74.9015C-341.404 75.0729 -340.758 75.2434 -340.114 75.42C-339.074 75.2783 -338.037 75.1455 -336.998 75.0068C-337.653 74.8743 -338.312 74.7497 -338.969 74.62C-339.996 74.7138 -341.02 74.8016 -342.05 74.9015ZM-346.473 73.7455C-345.996 73.867 -345.515 73.9788 -345.04 74.1013C-344.293 74.0246 -343.546 73.9389 -342.8 73.8661C-343.276 73.7758 -343.757 73.6969 -344.234 73.6091C-344.978 73.6491 -345.726 73.7024 -346.473 73.7455ZM-350.672 72.7062L-350.079 72.8533C-349.685 72.8267 -349.294 72.8056 -348.899 72.7804C-349.071 72.7517 -349.24 72.7191 -349.413 72.6896L-350.672 72.7062ZM677.425 -42.0547L675.046 -39.9961L675.236 -40.1362C676.095 -40.8593 676.977 -41.6213 677.843 -42.3547L677.425 -42.0547ZM691.18 -54.0511C689.724 -52.7572 688.258 -51.4452 686.82 -50.1852L688.232 -51.2024C689.872 -52.5986 691.519 -54.0046 693.151 -55.3885C692.489 -54.9324 691.841 -54.5049 691.18 -54.0511ZM705.004 -66.3104C702.751 -64.3153 700.488 -62.3014 698.238 -60.3104C699.544 -61.2182 700.861 -62.1539 702.172 -63.0685C704.299 -64.9054 706.469 -66.8139 708.629 -68.7035C707.415 -67.8958 706.214 -67.1124 705.004 -66.3104ZM719.162 -78.9255C716.379 -76.4191 713.636 -73.9852 710.873 -71.5156C712.285 -72.4603 713.698 -73.4114 715.113 -74.3647C717.929 -76.8219 720.753 -79.2901 723.568 -81.7469C722.099 -80.8057 720.627 -79.8568 719.162 -78.9255ZM733.076 -91.5579C730.067 -88.8208 727.052 -86.0734 724.064 -83.3751C725.78 -84.4756 727.486 -85.555 729.208 -86.6692C732.2 -89.3096 735.228 -92.0172 738.26 -94.7286C736.532 -93.6703 734.8 -92.6051 733.076 -91.5579ZM747.729 -104.884C744.271 -101.713 740.875 -98.6537 737.434 -95.5143C739.275 -96.6421 741.131 -97.8057 742.978 -98.9478C746.334 -101.944 749.693 -104.946 753.059 -107.959C751.278 -106.921 749.507 -105.909 747.729 -104.884ZM761.979 -118.112C758.421 -114.798 754.856 -111.474 751.335 -108.23C753.265 -109.353 755.187 -110.454 757.123 -111.593C760.689 -114.811 764.293 -118.096 767.904 -121.394C765.93 -120.306 763.948 -119.185 761.979 -118.112ZM776.957 -132.014C773.052 -128.366 769.213 -124.835 765.323 -121.215C767.335 -122.321 769.354 -123.444 771.373 -124.567C775.167 -128.03 778.967 -131.501 782.779 -134.998C780.835 -133.989 778.897 -133.01 776.957 -132.014ZM791.661 -145.943C787.691 -142.166 783.708 -138.371 779.791 -134.689C781.823 -135.737 783.851 -136.775 785.885 -137.839C789.836 -141.48 793.822 -145.187 797.819 -148.913C795.766 -147.919 793.712 -146.923 791.661 -145.943ZM806.845 -160.34C802.613 -156.313 798.428 -152.369 794.204 -148.352C796.302 -149.361 798.406 -150.402 800.507 -151.424C804.653 -155.291 808.806 -159.166 812.976 -163.078C810.933 -162.165 808.889 -161.241 806.845 -160.34ZM-321.98 85.8726C-320.974 86.3014 -319.971 86.7345 -318.97 87.1703C-316.941 86.532 -314.912 85.8999 -312.884 85.2725C-313.929 84.9018 -314.98 84.5408 -316.03 84.176C-318.014 84.738 -319.996 85.3002 -321.98 85.8726ZM-326.492 83.9962C-325.504 84.4016 -324.514 84.8005 -323.529 85.2137C-321.618 84.6581 -319.707 84.1111 -317.796 83.5665C-318.814 83.2187 -319.833 82.8702 -320.853 82.5314C-322.731 83.0148 -324.612 83.5015 -326.492 83.9962ZM-331.002 82.1815C-330.043 82.5599 -329.086 82.9382 -328.129 83.3246C-326.336 82.8494 -324.542 82.3762 -322.749 81.911C-323.737 81.5878 -324.722 81.2577 -325.713 80.943C-327.474 81.3491 -329.237 81.7659 -331.002 82.1815ZM-335.508 80.4275C-334.59 80.7758 -333.677 81.1392 -332.762 81.4936C-331.094 81.0975 -329.424 80.6956 -327.757 80.3069C-328.709 80.0087 -329.664 79.7145 -330.619 79.424C-332.248 79.7546 -333.878 80.0908 -335.508 80.4275ZM-340.071 78.743C-339.188 79.0639 -338.306 79.3926 -337.426 79.7195C-335.876 79.396 -334.327 79.0828 -332.779 78.7659C-333.696 78.4939 -334.617 78.2361 -335.537 77.9713C-337.048 78.2258 -338.557 78.4766 -340.071 78.743ZM-344.57 77.1512C-343.747 77.4366 -342.921 77.7166 -342.099 78.0094C-340.709 77.7605 -339.319 77.5183 -337.932 77.2806C-338.787 77.0402 -339.645 76.8053 -340.502 76.5709C-341.856 76.7575 -343.215 76.9565 -344.57 77.1512ZM-349.044 75.6299C-348.298 75.8773 -347.549 76.1219 -346.805 76.3741C-345.6 76.1979 -344.394 76.0214 -343.191 75.8494C-343.939 75.6503 -344.683 75.4432 -345.434 75.2501C-346.637 75.376 -347.839 75.4981 -349.044 75.6299ZM-353.449 74.1961C-352.831 74.3915 -352.219 74.5992 -351.602 74.7966C-350.589 74.6821 -349.579 74.5785 -348.568 74.4722C-349.212 74.313 -349.856 74.1493 -350.502 73.9926C-351.483 74.0572 -352.466 74.1262 -353.449 74.1961ZM-357.771 72.8804L-356.369 73.3053C-355.631 73.2476 -354.891 73.1905 -354.153 73.1362L-355.561 72.8157L-357.771 72.8804ZM-361.88 71.6792L-361.208 71.8671L-360.083 71.8247L-360.707 71.697L-361.88 71.6792ZM666.266 -34.1887C664.794 -32.877 663.328 -31.575 661.871 -30.2885L663.438 -31.4431C664.96 -32.7504 666.505 -34.0983 668.035 -35.4224C667.443 -35.0055 666.856 -34.6037 666.266 -34.1887ZM680.053 -46.4954C677.784 -44.4731 675.503 -42.4318 673.235 -40.4098C674.336 -41.1908 675.464 -42.0213 676.568 -42.8081C678.937 -44.8678 681.274 -46.8689 683.648 -48.9355C682.449 -48.1202 681.249 -47.3045 680.053 -46.4954ZM693.96 -59.0192C691.412 -56.7006 688.865 -54.3802 686.349 -52.1143C687.698 -53.037 689.03 -53.9248 690.384 -54.8556C693.011 -57.1662 695.676 -59.5459 698.331 -61.906C696.879 -60.9531 695.408 -59.9613 693.96 -59.0192ZM708.368 -72.1254C705.338 -69.3652 702.315 -66.6183 699.29 -63.868C700.921 -64.9396 702.556 -66.0209 704.192 -67.1044C707.229 -69.8069 710.237 -72.4559 713.28 -75.1658C711.632 -74.128 710.01 -73.1501 708.368 -72.1254ZM722.731 -85.3626C719.412 -82.2802 716.084 -79.1802 712.807 -76.1727C714.642 -77.3274 716.504 -78.5423 718.345 -79.7127C721.573 -82.6167 724.851 -85.6129 728.121 -88.5911C726.322 -87.5079 724.524 -86.4326 722.731 -85.3626ZM737.378 -98.9289C733.778 -95.573 730.233 -92.3157 726.654 -88.9967C728.529 -90.1237 730.392 -91.2201 732.274 -92.3618C735.907 -95.6665 739.517 -98.9283 743.157 -102.244C741.232 -101.142 739.297 -100.017 737.378 -98.9289ZM752.112 -112.811C748.328 -109.235 744.54 -105.652 740.798 -102.148C742.834 -103.31 744.882 -104.506 746.924 -105.684C750.576 -109.039 754.294 -112.515 757.998 -115.965C756.031 -114.902 754.073 -113.862 752.112 -112.811ZM767.078 -126.976C763.084 -123.171 759.125 -119.433 755.162 -115.687C757.169 -116.768 759.165 -117.821 761.177 -118.918C765.194 -122.651 769.192 -126.347 773.221 -130.099C771.174 -129.058 769.122 -128.002 767.078 -126.976ZM782.22 -141.486C778.054 -137.482 773.896 -133.49 769.767 -129.552C771.893 -130.628 774.027 -131.735 776.158 -132.827C780.182 -136.601 784.278 -140.504 788.362 -144.385C786.314 -143.414 784.267 -142.444 782.22 -141.486ZM797.548 -156.295C793.238 -152.109 788.941 -147.944 784.677 -143.84C786.741 -144.813 788.804 -145.778 790.87 -146.764C795.171 -150.846 799.447 -154.883 803.762 -158.989C801.689 -158.079 799.618 -157.19 797.548 -156.295ZM-329.976 88.2191C-328.985 88.7194 -327.993 89.217 -327.006 89.7259C-324.935 89.061 -322.864 88.4055 -320.793 87.7501C-321.818 87.3069 -322.84 86.8607 -323.869 86.4282C-325.904 87.0216 -327.939 87.6174 -329.976 88.2191ZM-334.284 86.0735C-333.311 86.5486 -332.342 87.0321 -331.374 87.5159C-329.398 86.9292 -327.424 86.3537 -325.451 85.7773C-326.461 85.3581 -327.474 84.9411 -328.489 84.5292C-330.42 85.04 -332.352 85.5513 -334.284 86.0735ZM-338.6 83.9947C-337.652 84.4422 -336.711 84.904 -335.766 85.3606C-333.889 84.8505 -332.013 84.3554 -330.137 83.8597C-331.133 83.4614 -332.136 83.077 -333.136 82.6871C-334.956 83.119 -336.777 83.5514 -338.6 83.9947ZM-342.942 81.9968C-342.013 82.4181 -341.084 82.8428 -340.158 83.2739C-338.404 82.8438 -336.649 82.4192 -334.897 82.0002C-335.868 81.6273 -336.844 81.2646 -337.819 80.9012C-339.525 81.2587 -341.234 81.6294 -342.942 81.9968ZM-347.3 80.0587C-346.392 80.4545 -345.481 80.8424 -344.576 81.2468C-342.959 80.8976 -341.341 80.5413 -339.727 80.1976C-340.652 79.8588 -341.576 79.5156 -342.503 79.1846C-344.102 79.4726 -345.7 79.7625 -347.3 80.0587ZM-351.645 78.1949C-350.788 78.553 -349.935 78.9181 -349.082 79.2827C-347.579 79.0024 -346.08 78.7339 -344.58 78.463C-345.466 78.1533 -346.348 77.8386 -347.237 77.5379C-348.705 77.7521 -350.173 77.9681 -351.645 78.1949ZM-355.955 76.4214C-355.16 76.74 -354.372 77.0734 -353.58 77.3987C-352.232 77.1878 -350.883 76.9738 -349.536 76.7719C-350.369 76.4952 -351.204 76.2245 -352.04 75.9559C-353.343 76.1051 -354.65 76.2654 -355.955 76.4214ZM-360.324 74.7202C-359.588 75.0017 -358.853 75.2846 -358.121 75.5725C-356.927 75.4258 -355.736 75.2883 -354.546 75.1466C-355.306 74.909 -356.073 74.6857 -356.835 74.4537C-357.997 74.5406 -359.158 74.6235 -360.324 74.7202ZM-364.552 73.1403C-363.924 73.3691 -363.294 73.5876 -362.668 73.8208C-361.703 73.7357 -360.735 73.6427 -359.772 73.5636C-360.41 73.3757 -361.05 73.1947 -361.689 73.0099C-362.642 73.0475 -363.598 73.0977 -364.552 73.1403ZM-368.7 71.6493C-368.234 71.8101 -367.772 71.9807 -367.306 72.1447C-366.582 72.1081 -365.859 72.0811 -365.134 72.0457C-365.597 71.9194 -366.055 71.7833 -366.519 71.6588C-367.247 71.6578 -367.971 71.6461 -368.7 71.6493ZM-372.62 70.3313L-371.959 70.5543L-370.859 70.5388L-371.491 70.3761C-371.866 70.3601 -372.244 70.3474 -372.62 70.3313ZM640.99 -13.8123C639.559 -12.5278 638.117 -11.2212 636.701 -9.96211C637.315 -10.4206 637.943 -10.9023 638.56 -11.3614C640.023 -12.6304 641.515 -13.9475 642.994 -15.2415L640.99 -13.8123ZM654.772 -26.1808L648.454 -20.5087C649.466 -21.2378 650.458 -21.9312 651.474 -22.6656C653.745 -24.6557 656.007 -26.6288 658.283 -28.6272C657.117 -27.8195 655.935 -26.9818 654.772 -26.1808ZM668.828 -38.9379C666.354 -36.6724 663.872 -34.3889 661.424 -32.1716C662.806 -33.1335 664.184 -34.0903 665.571 -35.0612C668.048 -37.2579 670.56 -39.5121 673.059 -41.7479C671.644 -40.7987 670.24 -39.8754 668.828 -38.9379ZM683.371 -52.2283C680.322 -49.4274 677.313 -46.6955 674.276 -43.9146C675.955 -45.0431 677.655 -46.2154 679.342 -47.3556C682.322 -50.0278 685.278 -52.6534 688.28 -55.3625C686.636 -54.3035 685.008 -53.2763 683.371 -52.2283ZM697.651 -65.4889C694.409 -62.4674 691.161 -59.4363 687.951 -56.4684C689.712 -57.6059 691.463 -58.7155 693.231 -59.866C696.523 -62.8488 699.841 -65.8743 703.155 -68.897C701.321 -67.7623 699.479 -66.6084 697.651 -65.4889ZM712.391 -79.2429C708.848 -75.9147 705.344 -72.6552 701.827 -69.3721C703.756 -70.5645 705.684 -71.751 707.62 -72.9603C711.081 -76.1293 714.562 -79.3337 718.06 -82.566C716.164 -81.446 714.279 -80.3473 712.391 -79.2429ZM727.209 -93.2563C723.423 -89.667 719.642 -86.0878 715.886 -82.5489C717.906 -83.739 719.951 -84.9887 721.978 -86.1968C725.717 -89.6543 729.459 -93.1189 733.213 -96.606C731.209 -95.4792 729.208 -94.3667 727.209 -93.2563ZM742.173 -107.52C738.244 -103.753 734.331 -100.012 730.442 -96.3147C732.501 -97.4677 734.55 -98.5885 736.615 -99.7581C740.473 -103.362 744.393 -107.076 748.302 -110.77C746.257 -109.683 744.211 -108.591 742.173 -107.52ZM757.448 -122.202C753.285 -118.187 749.147 -114.219 745.007 -110.245C747.116 -111.359 749.236 -112.512 751.349 -113.644C755.466 -117.529 759.553 -121.363 763.697 -125.299C761.612 -124.258 759.53 -123.227 757.448 -122.202ZM772.771 -137.108C768.516 -132.946 764.256 -128.774 760.055 -124.707C762.142 -125.743 764.224 -126.76 766.316 -127.811C770.51 -131.807 774.753 -135.885 778.996 -139.965C776.919 -138.998 774.847 -138.062 772.771 -137.108ZM788.38 -152.362C783.91 -147.971 779.501 -143.686 775.058 -139.34C777.187 -140.323 779.319 -141.32 781.451 -142.317C785.823 -146.524 790.206 -150.751 794.618 -155.027C792.539 -154.132 790.459 -153.244 788.38 -152.362ZM-337.974 90.6168C-337.01 91.1873 -336.054 91.7685 -335.096 92.3502C-332.976 91.6589 -330.856 90.96 -328.737 90.2757C-329.746 89.7598 -330.758 89.2534 -331.771 88.7463C-333.838 89.362 -335.905 89.9905 -337.974 90.6168ZM-342.082 88.218C-341.13 88.766 -340.182 89.3221 -339.234 89.8801C-337.211 89.2672 -335.188 88.6472 -333.166 88.0433C-334.165 87.5483 -335.167 87.0673 -336.168 86.5822C-338.138 87.1204 -340.11 87.6709 -342.082 88.218ZM-346.225 85.8847C-345.279 86.4096 -344.332 86.9328 -343.39 87.4675C-341.471 86.9327 -339.553 86.4041 -337.633 85.8757C-338.612 85.4085 -339.591 84.9423 -340.573 84.4837C-342.456 84.9469 -344.34 85.4103 -346.225 85.8847ZM-350.371 83.6217C-349.446 84.1169 -348.519 84.6115 -347.599 85.1182C-345.778 84.6569 -343.958 84.2113 -342.14 83.7653C-343.098 83.3237 -344.052 82.8771 -345.014 82.4452C-346.797 82.8323 -348.582 83.2215 -350.371 83.6217ZM-354.511 81.4324C-353.612 81.8959 -352.719 82.3733 -351.824 82.8468C-350.114 82.462 -348.405 82.0798 -346.697 81.707C-347.642 81.2888 -348.59 80.8754 -349.54 80.4676C-351.195 80.7795 -352.854 81.1094 -354.511 81.4324ZM-358.697 79.312C-357.822 79.7454 -356.953 80.1928 -356.083 80.6358C-354.489 80.3223 -352.894 80.0101 -351.301 79.7055C-352.213 79.3193 -353.132 78.9524 -354.047 78.5754C-355.597 78.8183 -357.144 79.056 -358.697 79.312ZM-362.872 77.2879C-362.039 77.6858 -361.206 78.0807 -360.377 78.4852C-358.908 78.2414 -357.445 78.011 -355.981 77.7791C-356.855 77.4263 -357.733 77.0828 -358.609 76.7379C-360.028 76.913 -361.451 77.1019 -362.872 77.2879ZM-367.058 75.3338C-366.264 75.6954 -365.469 76.0511 -364.679 76.4215C-363.377 76.2465 -362.073 76.0682 -360.772 75.9014C-361.571 75.5943 -362.367 75.2807 -363.169 74.9804C-364.465 75.0979 -365.759 75.2086 -367.058 75.3338ZM-371.173 73.482C-370.475 73.7865 -369.782 74.1048 -369.087 74.4155C-367.93 74.2993 -366.777 74.196 -365.624 74.0911C-366.362 73.823 -367.097 73.5524 -367.837 73.2907C-368.947 73.3474 -370.061 73.4162 -371.173 73.482ZM-375.297 71.7295C-374.686 71.9831 -374.08 72.2466 -373.471 72.5047C-372.52 72.4449 -371.567 72.3841 -370.618 72.3275C-371.245 72.1135 -371.876 71.9025 -372.505 71.6914C-373.436 71.705 -374.364 71.7121 -375.297 71.7295ZM-379.299 70.1079C-378.839 70.29 -378.377 70.4707 -377.919 70.6558C-377.214 70.6383 -376.508 70.6191 -375.805 70.6046C-376.29 70.4501 -376.781 70.3033 -377.269 70.1503C-377.943 70.1293 -378.624 70.1242 -379.299 70.1079ZM-383.064 68.6353C-382.827 68.725 -382.588 68.8072 -382.351 68.8982C-381.982 68.9038 -381.615 68.9147 -381.246 68.9206C-381.477 68.8529 -381.71 68.7914 -381.941 68.7232C-382.315 68.6946 -382.689 68.6623 -383.064 68.6353ZM615.394 7.04679C614.049 8.25733 612.69 9.48966 611.353 10.6877C611.876 10.2933 612.384 9.92423 612.908 9.52947C614.366 8.25675 615.851 6.93503 617.321 5.6405C616.681 6.10539 616.033 6.5849 615.394 7.04679ZM629.374 -5.54612C627.397 -3.75512 625.454 -2.02141 623.485 -0.240944C624.484 -0.972989 625.477 -1.68987 626.48 -2.42632C628.536 -4.24233 630.569 -6.02148 632.631 -7.84618C631.548 -7.08398 630.454 -6.30446 629.374 -5.54612ZM643.619 -18.5776C641.125 -16.2874 638.62 -13.9815 636.142 -11.7211C637.538 -12.7102 638.949 -13.7262 640.351 -14.7255C642.791 -16.904 645.259 -19.1319 647.717 -21.3381C646.342 -20.4019 644.989 -19.5048 643.619 -18.5776ZM658.081 -31.8823C655.079 -29.0987 652.113 -26.3797 649.134 -23.6345C650.773 -24.7557 652.433 -25.9165 654.08 -27.0512C657.04 -29.7221 659.992 -32.3814 662.976 -35.0958C661.342 -34.0187 659.71 -32.945 658.081 -31.8823ZM672.362 -45.1994C669.202 -42.2494 666.039 -39.2947 662.896 -36.3718C664.647 -37.5258 666.38 -38.6449 668.137 -39.8137C671.377 -42.769 674.634 -45.7498 677.887 -48.728C676.05 -47.5631 674.192 -46.3484 672.362 -45.1994ZM687.222 -59.1709C683.742 -55.8757 680.273 -52.5993 676.831 -49.3674C678.766 -50.5933 680.713 -51.8436 682.656 -53.0872C686.013 -56.1807 689.411 -59.3463 692.807 -62.5103C690.935 -61.3726 689.088 -60.2924 687.222 -59.1709ZM702.14 -73.3131C698.379 -69.7375 694.639 -66.1986 690.893 -62.6515C692.894 -63.8634 694.904 -65.098 696.911 -66.3296C700.667 -69.825 704.391 -73.2659 708.167 -76.7995C706.156 -75.6316 704.144 -74.4639 702.14 -73.3131ZM717.11 -87.6855C713.249 -83.9566 709.376 -80.2114 705.562 -76.5649C707.592 -77.7387 709.616 -78.8986 711.655 -80.0894C715.482 -83.688 719.352 -87.3628 723.222 -91.0317C721.181 -89.9077 719.145 -88.7936 717.11 -87.6855ZM732.455 -102.489C728.293 -98.4496 724.186 -94.506 720.053 -90.5198C722.177 -91.6835 724.322 -92.9057 726.453 -94.0887C730.507 -97.9375 734.559 -101.785 738.649 -105.696C736.582 -104.619 734.517 -103.55 732.455 -102.489ZM747.805 -117.493C743.564 -113.336 739.33 -109.189 735.131 -105.104C737.228 -106.19 739.32 -107.258 741.422 -108.362C745.627 -112.39 749.846 -116.447 754.084 -120.534C751.988 -119.507 749.898 -118.504 747.805 -117.493ZM763.382 -132.816C758.972 -128.455 754.589 -124.142 750.221 -119.854C752.373 -120.901 754.532 -121.975 756.688 -123.038C761.005 -127.211 765.361 -131.456 769.727 -135.717C767.612 -134.753 765.494 -133.766 763.382 -132.816ZM779.197 -148.502C774.643 -143.968 770.122 -139.492 765.603 -135.018C767.737 -135.985 769.875 -136.967 772.012 -137.949C776.53 -142.359 781.016 -146.717 785.562 -151.178C783.44 -150.282 781.318 -149.385 779.197 -148.502ZM-346.009 93.0679C-345.073 93.714 -344.14 94.3638 -343.21 95.0203C-341.047 94.301 -338.886 93.5909 -336.725 92.8828C-337.706 92.2954 -338.687 91.7088 -339.672 91.1303C-341.783 91.7697 -343.895 92.4141 -346.009 93.0679ZM-349.914 90.4205C-348.982 91.0447 -348.045 91.6601 -347.118 92.2942C-345.055 91.655 -342.993 91.0221 -340.932 90.3954C-341.9 89.8296 -342.867 89.2587 -343.841 88.705C-345.864 89.2707 -347.889 89.8426 -349.914 90.4205ZM-353.835 87.8359C-352.914 88.4323 -351.994 89.0313 -351.078 89.6396C-349.109 89.0764 -347.139 88.5138 -345.172 87.9611C-346.136 87.4182 -347.098 86.8753 -348.065 86.3438C-349.986 86.8319 -351.912 87.3377 -353.835 87.8359ZM-357.778 85.3105C-356.87 85.8788 -355.969 86.4647 -355.066 87.0451C-353.19 86.5549 -351.313 86.0685 -349.438 85.5875C-350.389 85.0711 -351.345 84.5672 -352.299 84.0616C-354.124 84.4724 -355.949 84.8857 -357.778 85.3105ZM-361.75 82.8733C-360.862 83.4118 -359.975 83.957 -359.09 84.505C-357.308 84.0878 -355.529 83.6887 -353.751 83.2868C-354.69 82.7953 -355.634 82.3154 -356.577 81.8349C-358.3 82.1737 -360.024 82.5222 -361.75 82.8733ZM-365.743 80.51C-364.864 81.0226 -363.984 81.5278 -363.108 82.0506C-361.454 81.7091 -359.799 81.3669 -358.148 81.0382C-359.057 80.5802 -359.966 80.1228 -360.879 79.6755C-362.498 79.9481 -364.12 80.2274 -365.743 80.51ZM-369.746 78.2214C-368.898 78.6979 -368.047 79.1727 -367.203 79.6583C-365.657 79.3862 -364.114 79.1244 -362.57 78.863C-363.447 78.4396 -364.321 78.0116 -365.203 77.5977C-366.716 77.8003 -368.23 78.0051 -369.746 78.2214ZM-373.726 76.0213C-372.921 76.4544 -372.125 76.9037 -371.324 77.3455C-369.905 77.1401 -368.486 76.9343 -367.069 76.739C-367.917 76.3492 -368.767 75.9654 -369.62 75.5837C-370.986 75.7236 -372.355 75.8735 -373.726 76.0213ZM-377.761 73.907C-377.001 74.2987 -376.245 74.6989 -375.489 75.0986C-374.197 74.9535 -372.91 74.8225 -371.621 74.6858C-372.421 74.3356 -373.23 74.002 -374.033 73.66C-375.275 73.7376 -376.516 73.8178 -377.761 73.907ZM-381.752 71.9031C-381.053 72.2485 -380.352 72.5861 -379.655 72.9374C-378.548 72.8526 -377.435 72.7586 -376.331 72.6814C-377.05 72.3842 -377.773 72.0941 -378.495 71.802C-379.579 71.8316 -380.664 71.8667 -381.752 71.9031ZM-385.695 69.9983C-385.099 70.2801 -384.499 70.5571 -383.905 70.8419C-382.977 70.8051 -382.055 70.7846 -381.13 70.756C-381.741 70.5158 -382.347 70.2658 -382.96 70.0315C-383.871 70.0173 -384.782 70.0054 -385.695 69.9983ZM-389.512 68.2364C-389.065 68.4358 -388.623 68.6487 -388.177 68.8514C-387.503 68.8534 -386.828 68.8508 -386.154 68.8554C-386.612 68.6874 -387.068 68.5137 -387.526 68.349C-388.189 68.3103 -388.849 68.2712 -389.512 68.2364ZM-393.22 66.6241L-392.534 66.9202C-392.195 66.9347 -391.853 66.9432 -391.515 66.9594L-392.219 66.7203C-392.551 66.684 -392.886 66.6594 -393.22 66.6241ZM589.56 28.3162C588.452 29.3123 587.336 30.326 586.23 31.3227C586.715 30.9534 587.193 30.5945 587.678 30.2225C588.867 29.177 590.077 28.0982 591.271 27.0426C590.706 27.4594 590.125 27.9013 589.56 28.3162ZM604.052 15.1811C602.137 16.9342 600.246 18.6531 598.348 20.3783C599.309 19.6642 600.276 18.9418 601.239 18.2231C603.217 16.4663 605.153 14.7773 607.142 13.0004C606.104 13.7424 605.087 14.4452 604.052 15.1811ZM618.255 2.12895C615.706 4.46755 613.15 6.82349 610.605 9.15908C611.992 8.16141 613.416 7.09938 614.808 6.09215C617.302 3.85177 619.813 1.57847 622.313 -0.672549C620.957 0.268382 619.606 1.19662 618.255 2.12895ZM632.53 -11.1042C629.736 -8.49104 626.939 -5.8719 624.178 -3.31487C625.705 -4.37858 627.205 -5.38929 628.738 -6.46396C631.618 -9.07907 634.526 -11.7418 637.439 -14.4129C635.806 -13.3172 634.156 -12.1884 632.53 -11.1042ZM647.177 -24.7911C643.995 -21.807 640.84 -18.8703 637.669 -15.9063C639.424 -17.086 641.178 -18.2654 642.941 -19.4606C646.112 -22.3698 649.266 -25.2513 652.45 -28.1838C650.687 -27.0411 648.933 -25.9189 647.177 -24.7911ZM661.913 -38.7482C658.459 -35.4623 655 -32.1649 651.585 -28.9433C653.507 -30.1881 655.46 -31.4939 657.39 -32.7551C660.74 -35.8599 664.13 -39.0369 667.515 -42.2027C665.639 -41.0341 663.781 -39.8994 661.913 -38.7482ZM676.846 -52.966C673.147 -49.4236 669.492 -45.9543 665.821 -42.4603C667.769 -43.6716 669.694 -44.8312 671.649 -46.0591C675.366 -49.5401 679.077 -53.0082 682.827 -56.5429C680.834 -55.354 678.831 -54.1378 676.846 -52.966ZM691.934 -67.5138C688.061 -63.7709 684.194 -60.0362 680.353 -56.3475C682.396 -57.5616 684.443 -58.7869 686.494 -60.0207C690.303 -63.6195 694.129 -67.2515 697.965 -70.8981C695.946 -69.7485 693.945 -68.6458 691.934 -67.5138ZM707.212 -82.3553C703.135 -78.3721 699.072 -74.4142 695.037 -70.5058C697.151 -71.7039 699.282 -72.9409 701.402 -74.1589C705.387 -77.9602 709.408 -81.8272 713.438 -85.7084C711.361 -84.5839 709.284 -83.4616 707.212 -82.3553ZM722.712 -97.5193C718.47 -93.355 714.257 -89.2411 710.039 -85.1201C712.148 -86.2544 714.251 -87.3754 716.366 -88.5281C720.578 -92.5848 724.765 -96.5967 729.005 -100.701C726.903 -99.6263 724.809 -98.577 722.712 -97.5193ZM738.272 -112.925C733.921 -108.595 729.556 -104.246 725.26 -100.014C727.404 -101.101 729.558 -102.225 731.706 -103.33C735.981 -107.484 740.312 -111.733 744.638 -115.976C742.516 -114.958 740.391 -113.927 738.272 -112.925ZM754.169 -128.734C749.624 -124.192 745.131 -119.74 740.62 -115.254C742.762 -116.275 744.906 -117.301 747.053 -118.338C751.514 -122.714 755.973 -127.081 760.472 -131.523C758.37 -130.583 756.27 -129.661 754.169 -128.734ZM770.105 -144.767C765.469 -140.088 760.845 -135.429 756.262 -130.839C758.382 -131.781 760.5 -132.702 762.623 -133.656C767.198 -138.179 771.795 -142.739 776.415 -147.338C774.311 -146.468 772.209 -145.625 770.105 -144.767ZM-354.061 95.5832C-353.155 96.305 -352.251 97.024 -351.349 97.7547C-349.157 97.0117 -346.967 96.2772 -344.775 95.546C-345.72 94.8821 -346.663 94.2178 -347.612 93.5679C-349.761 94.2348 -351.91 94.9034 -354.061 95.5832ZM-357.758 92.6753C-356.86 93.3707 -355.964 94.0743 -355.071 94.7794C-352.96 94.1117 -350.852 93.4562 -348.743 92.8025C-349.687 92.1619 -350.633 91.5299 -351.581 90.8988C-353.639 91.4857 -355.698 92.0724 -357.758 92.6753ZM-361.46 89.8428C-360.572 90.5083 -359.693 91.1941 -358.81 91.8707C-356.787 91.2767 -354.767 90.6965 -352.745 90.1173C-353.687 89.4971 -354.635 88.8954 -355.582 88.2874C-357.539 88.7985 -359.5 89.3185 -361.46 89.8428ZM-365.22 87.0821C-364.333 87.7266 -363.447 88.3749 -362.565 89.0295C-360.647 88.513 -358.728 87.9975 -356.813 87.4959C-357.742 86.9041 -358.675 86.3185 -359.61 85.7369C-361.478 86.1789 -363.349 86.6302 -365.22 87.0821ZM-369.012 84.382C-368.127 85.0033 -367.238 85.616 -366.358 86.2484C-364.54 85.8075 -362.723 85.3739 -360.908 84.9406C-361.819 84.3814 -362.728 83.8142 -363.645 83.2659C-365.433 83.6326 -367.22 83.9982 -369.012 84.382ZM-372.787 81.7751C-371.927 82.3575 -371.069 82.9459 -370.214 83.5395C-368.486 83.1671 -366.761 82.807 -365.039 82.4494C-365.945 81.9133 -366.853 81.3825 -367.764 80.8572C-369.435 81.1544 -371.111 81.4665 -372.787 81.7751ZM-376.595 79.2308C-375.751 79.7797 -374.918 80.351 -374.08 80.9105C-372.464 80.6109 -370.845 80.3048 -369.231 80.0139C-370.114 79.5126 -371.003 79.0273 -371.891 78.5377C-373.458 78.7655 -375.023 78.989 -376.595 79.2308ZM-380.435 76.792C-379.621 77.3019 -378.808 77.8185 -377.997 78.3399C-376.484 78.1043 -374.975 77.8841 -373.468 77.6624C-374.334 77.1925 -375.207 76.7327 -376.078 76.272C-377.527 76.4353 -378.982 76.6156 -380.435 76.792ZM-384.306 74.421C-383.508 74.9002 -382.705 75.3706 -381.911 75.8607C-380.547 75.6914 -379.179 75.5195 -377.818 75.3599C-378.629 74.9392 -379.44 74.5153 -380.256 74.1025C-381.605 74.2062 -382.952 74.3045 -384.306 74.421ZM-388.125 72.1664C-387.388 72.5905 -386.655 73.0169 -385.923 73.4492C-384.683 73.3378 -383.446 73.2361 -382.209 73.1384C-382.984 72.755 -383.756 72.3647 -384.535 71.9898C-385.727 72.039 -386.928 72.1093 -388.125 72.1664ZM-391.964 69.9901C-391.29 70.3624 -390.624 70.7522 -389.952 71.1307C-388.869 71.0727 -387.789 71.0225 -386.707 70.9705C-387.408 70.6424 -388.112 70.3166 -388.817 69.9953C-389.866 69.9931 -390.911 69.9814 -391.964 69.9901ZM-395.758 67.9651C-395.178 68.27 -394.6 68.5779 -394.022 68.8889C-393.13 68.8766 -392.236 68.855 -391.348 68.849C-391.958 68.5787 -392.574 68.3207 -393.187 68.0559C-394.043 68.0206 -394.901 67.9937 -395.758 67.9651ZM-399.499 66.0429C-399.045 66.2707 -398.588 66.4907 -398.134 66.7216C-397.459 66.7403 -396.789 66.7709 -396.116 66.794C-396.597 66.5947 -397.082 66.4094 -397.563 66.2149C-398.209 66.1574 -398.852 66.0955 -399.499 66.0429ZM-402.911 64.3486C-402.693 64.4523 -402.481 64.5647 -402.263 64.6702L-401.252 64.7416C-401.469 64.6584 -401.684 64.5674 -401.899 64.4844L-402.911 64.3486ZM564.228 49.3107L560.875 52.3439L562.118 51.3826C563.252 50.3791 564.398 49.3558 565.533 48.3514C565.095 48.6779 564.666 48.9854 564.228 49.3107ZM578.419 36.3443C576.529 38.0865 574.624 39.8487 572.749 41.5622C573.745 40.8135 574.763 40.0267 575.762 39.2735C577.647 37.5885 579.545 35.8787 581.447 34.1616C580.435 34.897 579.429 35.615 578.419 36.3443ZM592.739 23.1671C590.253 25.4687 587.811 27.697 585.338 29.9793C586.567 29.0827 587.765 28.2424 588.999 27.3379C591.579 25.0053 594.153 22.6889 596.741 20.3434C595.409 21.2819 594.066 22.2372 592.739 23.1671ZM606.85 9.98251C604.152 12.508 601.446 15.0495 598.769 17.5435C600.327 16.4412 601.877 15.358 603.441 14.2441C606.168 11.7521 608.933 9.19757 611.687 6.66268C610.079 7.7601 608.451 8.89756 606.85 9.98251ZM621.733 -3.9955C618.568 -1.00097 615.432 1.94268 612.294 4.89014C614.051 3.68907 615.83 2.4481 617.595 1.23016C620.689 -1.62413 623.766 -4.45058 626.884 -7.3457C625.155 -6.20653 623.455 -5.12349 621.733 -3.9955ZM636.484 -18.0137C633.035 -14.7302 629.588 -11.4498 626.156 -8.19867C628.041 -9.44321 629.939 -10.7124 631.833 -11.9746C635.245 -15.1523 638.676 -18.3664 642.107 -21.579C640.23 -20.3833 638.354 -19.1932 636.484 -18.0137ZM651.287 -32.2057C647.723 -28.7667 644.161 -25.3293 640.639 -21.9624C642.589 -23.201 644.522 -24.4086 646.48 -25.6652C650.057 -29.0307 653.673 -32.4615 657.292 -35.9002C655.295 -34.6798 653.276 -33.4092 651.287 -32.2057ZM666.654 -47.0318C662.746 -43.2433 658.885 -39.5354 655.001 -35.7889C657.057 -37.0423 659.13 -38.3353 661.195 -39.608C665.015 -43.2372 668.81 -46.8218 672.653 -50.4912C670.643 -49.3142 668.657 -48.1911 666.654 -47.0318ZM681.835 -61.8763C677.827 -57.9441 673.814 -54.0026 669.854 -50.1499C671.936 -51.363 674.015 -52.5735 676.104 -53.8065C680.069 -57.6064 684.084 -61.4921 688.093 -65.3706C686.007 -64.2046 683.914 -63.0228 681.835 -61.8763ZM697.394 -77.1624C693.179 -73.0008 689.005 -68.9039 684.83 -64.8069C686.947 -65.985 689.068 -67.1637 691.194 -68.3604C695.326 -72.357 699.462 -76.3627 703.634 -80.4265C701.547 -79.3197 699.474 -78.2521 697.394 -77.1624ZM713.021 -92.6733C708.663 -88.3344 704.317 -84.0205 699.999 -79.7472C702.146 -80.8789 704.303 -82.0397 706.458 -83.1904C710.758 -87.3873 715.074 -91.6115 719.41 -95.868C717.28 -94.8009 715.147 -93.7234 713.021 -92.6733ZM728.875 -108.536C724.396 -104.036 719.924 -99.5461 715.498 -95.1321C717.65 -96.2015 719.801 -97.2742 721.959 -98.3621C726.334 -102.669 730.761 -107.063 735.192 -111.461C733.082 -110.469 730.98 -109.514 728.875 -108.536ZM744.928 -124.686C740.283 -119.993 735.688 -115.387 731.077 -110.751C733.221 -111.752 735.364 -112.747 737.512 -113.766C742.111 -118.33 746.681 -122.845 751.315 -127.472C749.185 -126.537 747.055 -125.606 744.928 -124.686ZM761.041 -141.091C756.32 -136.267 751.59 -131.43 746.936 -126.717C749.09 -127.654 751.249 -128.626 753.407 -129.577C758.035 -134.207 762.721 -138.936 767.411 -143.668C765.287 -142.806 763.163 -141.941 761.041 -141.091ZM-362.118 98.1665C-361.254 98.9574 -360.395 99.7597 -359.536 100.562C-357.312 99.7949 -355.088 99.0224 -352.865 98.2635C-353.779 97.5239 -354.7 96.7992 -355.618 96.07C-357.784 96.7603 -359.951 97.4672 -362.118 98.1665ZM-365.609 95.0094C-364.748 95.7766 -363.891 96.5591 -363.034 97.3385C-360.897 96.6482 -358.759 95.9535 -356.622 95.2715C-357.531 94.5566 -358.446 93.8539 -359.359 93.1515C-361.442 93.7665 -363.525 94.3838 -365.609 95.0094ZM-369.146 91.9231C-368.28 92.6679 -367.416 93.4167 -366.557 94.1746C-364.507 93.5573 -362.458 92.9512 -360.41 92.3474C-361.313 91.6579 -362.218 90.9701 -363.126 90.2931C-365.132 90.8304 -367.137 91.3695 -369.146 91.9231ZM-372.685 88.9191C-371.827 89.637 -370.967 90.3508 -370.114 91.0798C-368.151 90.5371 -366.192 90.0069 -364.233 89.4788C-365.133 88.8145 -366.032 88.1458 -366.937 87.4941C-368.851 87.96 -370.768 88.4397 -372.685 88.9191ZM-376.259 85.9744C-375.405 86.6649 -374.556 87.3641 -373.708 88.0677C-371.839 87.5983 -369.968 87.1238 -368.102 86.6667C-368.997 86.0295 -369.897 85.3994 -370.797 84.7734C-372.616 85.1692 -374.436 85.5667 -376.259 85.9744ZM-379.846 83.113C-379.008 83.7682 -378.178 84.4405 -377.345 85.1085C-375.559 84.7069 -373.778 84.319 -371.996 83.9321C-372.886 83.3195 -373.786 82.7268 -374.681 82.127C-376.4 82.4482 -378.122 82.7759 -379.846 83.113ZM-383.485 80.3381C-382.652 80.9651 -381.818 81.5958 -380.99 82.2349C-379.316 81.9056 -377.644 81.5766 -375.974 81.2608C-376.847 80.6845 -377.723 80.1121 -378.602 79.5456C-380.228 79.8033 -381.855 80.0692 -383.485 80.3381ZM-387.144 77.6398C-386.323 78.2337 -385.501 78.8192 -384.685 79.4251C-383.119 79.1631 -381.554 78.914 -379.991 78.6637C-380.839 78.1243 -381.685 77.5758 -382.538 77.0478C-384.071 77.2383 -385.607 77.4346 -387.144 77.6398ZM-390.803 75.0321C-390.01 75.584 -389.222 76.1437 -388.435 76.7049C-386.98 76.5071 -385.524 76.309 -384.073 76.1247C-384.902 75.6211 -385.727 75.1199 -386.559 74.6278C-387.973 74.7593 -389.386 74.8917 -390.803 75.0321ZM-394.472 72.5187C-393.722 73.0196 -392.981 73.5403 -392.233 74.0516C-390.883 73.9131 -389.539 73.7908 -388.193 73.6661C-388.996 73.199 -389.808 72.7474 -390.617 72.2898C-391.899 72.3585 -393.185 72.4375 -394.472 72.5187ZM-398.189 70.1047C-397.469 70.5654 -396.75 71.0289 -396.034 71.4994C-394.836 71.4184 -393.633 71.3267 -392.439 71.257C-393.187 70.8415 -393.944 70.4451 -394.696 70.0404C-395.861 70.0605 -397.022 70.0761 -398.189 70.1047ZM-401.868 67.8071C-401.212 68.2081 -400.549 68.5981 -399.895 69.0075C-398.847 68.9753 -397.805 68.9584 -396.761 68.9398C-397.455 68.576 -398.148 68.2114 -398.845 67.8545C-399.849 67.8286 -400.861 67.8239 -401.868 67.8071ZM-405.518 65.6129C-404.947 65.9467 -404.378 66.2872 -403.808 66.6273C-402.95 66.6362 -402.095 66.6494 -401.239 66.6619C-401.821 66.3741 -402.397 66.0765 -402.981 65.7941C-403.828 65.7357 -404.67 65.6652 -405.518 65.6129ZM-409.051 63.6023C-408.626 63.8387 -408.206 64.0836 -407.783 64.3234C-407.166 64.3559 -406.544 64.3761 -405.928 64.4137C-406.371 64.2077 -406.813 64.0009 -407.255 63.7991C-407.852 63.7284 -408.453 63.6687 -409.051 63.6023ZM-412.517 61.726L-411.818 62.0976C-411.494 62.1288 -411.175 62.1701 -410.85 62.2039L-411.576 61.8927C-411.891 61.8402 -412.202 61.7789 -412.517 61.726ZM538.803 70.5678C537.569 71.6976 536.367 72.7735 535.142 73.8912L535.953 73.2562L539.894 69.752L538.803 70.5678ZM552.642 57.8252C550.749 59.5654 548.843 61.3283 546.951 63.0665C547.856 62.3781 548.751 61.7115 549.658 61.0187C551.605 59.2684 553.581 57.4671 555.542 55.693C554.577 56.4024 553.605 57.122 552.642 57.8252ZM566.775 44.7365C564.55 46.8189 562.33 48.8915 560.129 50.9327C561.332 50.0448 562.517 49.185 563.724 48.289C566.137 46.0961 568.523 43.9488 570.954 41.7255C569.569 42.7137 568.155 43.7579 566.775 44.7365ZM581.412 31.0389C578.665 33.6138 575.922 36.1798 573.178 38.7452C574.728 37.6334 576.289 36.5041 577.845 35.3791C580.499 32.9426 583.172 30.4731 585.833 28.0264C584.345 29.057 582.894 30.0178 581.412 31.0389ZM596.077 17.1628C592.957 20.1344 589.828 23.1245 586.746 26.0317C588.52 24.7994 590.337 23.487 592.117 22.2401C595.129 19.4464 598.18 16.5864 601.23 13.729C599.504 14.8873 597.795 16.0194 596.077 17.1628ZM610.933 3.03042C607.526 6.29022 604.175 9.46112 600.791 12.6828C602.602 11.4652 604.384 10.3079 606.203 9.07474C609.671 5.82711 613.11 2.62866 616.599 -0.65475C614.713 0.569039 612.81 1.82339 610.933 3.03042ZM625.819 -11.3308C622.251 -7.88066 618.68 -4.42821 615.145 -1.03303C617.111 -2.30719 619.077 -3.58413 621.051 -4.87592C624.554 -8.18899 628.099 -11.5693 631.638 -14.9416C629.693 -13.7243 627.756 -12.5297 625.819 -11.3308ZM641.081 -26.1403C637.216 -22.3677 633.374 -18.6346 629.548 -14.9286C631.612 -16.216 633.712 -17.5781 635.787 -18.8851C639.544 -22.4708 643.311 -26.0731 647.107 -29.7219C645.09 -28.5099 643.089 -27.3329 641.081 -26.1403ZM656.36 -41.0941C652.37 -37.1802 648.396 -33.2916 644.431 -29.4194C646.487 -30.6489 648.518 -31.8276 650.582 -33.0754C654.591 -36.936 658.612 -40.8163 662.647 -44.7209C660.555 -43.5178 658.445 -42.2781 656.36 -41.0941ZM671.911 -56.4679C667.767 -52.3509 663.613 -48.2179 659.523 -44.1895C661.65 -45.406 663.786 -46.645 665.921 -47.8813C669.95 -51.7942 674.038 -55.8079 678.12 -59.8091C676.039 -58.6696 673.984 -57.5894 671.911 -56.4679ZM687.645 -72.0982C683.285 -67.7452 678.983 -63.4884 674.658 -59.1952C676.799 -60.3616 678.946 -61.5371 681.096 -62.7242C685.407 -66.9476 689.698 -71.1378 694.045 -75.4225C691.911 -74.3135 689.773 -73.1889 687.645 -72.0982ZM703.474 -88.0159C699.027 -83.5314 694.579 -79.0461 690.18 -74.6466C692.333 -75.7594 694.489 -76.8767 696.648 -78.0075C701.001 -82.3076 705.401 -86.6858 709.801 -91.0673C707.686 -90.0281 705.586 -89.0382 703.474 -88.0159ZM719.478 -104.192C714.891 -99.5361 710.328 -94.9178 705.788 -90.3416C707.946 -91.3924 710.107 -92.4485 712.269 -93.5174C716.795 -98.0248 721.347 -102.579 725.921 -107.169C723.775 -106.18 721.621 -105.166 719.478 -104.192ZM735.737 -120.752C731.009 -115.922 726.306 -111.133 721.619 -106.374C723.784 -107.363 725.956 -108.379 728.122 -109.385C732.781 -114.062 737.447 -118.752 742.144 -123.494C740.008 -122.576 737.872 -121.657 735.737 -120.752ZM752.08 -137.55C747.278 -132.593 742.464 -127.624 737.723 -122.773C739.872 -123.69 742.02 -124.603 744.172 -125.534C748.879 -130.296 753.664 -135.187 758.44 -140.062C756.32 -139.22 754.199 -138.381 752.08 -137.55ZM734.99 -121.605C739.794 -126.515 744.657 -131.529 749.521 -136.537C553.051 -59.865 359.544 -33.4334 166.263 -7.03079C48.8924 9.00224 -68.3944 25.0287 -186.205 52.2928C-83.8162 32.3902 17.7611 21.7652 119.93 11.0824C319.233 -9.75909 520.794 -30.8517 734.99 -121.605ZM718.741 -105.05C723.466 -109.846 728.23 -114.705 733.005 -119.582C519.526 -29.6134 318.585 -8.6071 119.886 12.1713C12.1564 23.4365 -94.9129 34.6424 -202.958 56.7332C-108.008 41.0247 -14.2118 34.4879 80.4816 27.8968C282.513 13.837 488.63 -0.500463 718.741 -105.05ZM580.813 30.0949C584.102 26.9991 587.408 23.8796 590.735 20.7242C247.429 247.44 55.2533 183.549 -125.214 123.478C-177.249 106.158 -228.312 89.1699 -281.759 79.5884M-370.215 100.809C-369.391 101.672 -368.572 102.545 -367.755 103.421C-365.502 102.629 -363.249 101.847 -360.997 101.067C-361.869 100.256 -362.743 99.4491 -363.621 98.6512C-365.818 99.3635 -368.016 100.083 -370.215 100.809ZM-373.508 97.4146C-372.68 98.2587 -371.852 99.0978 -371.03 99.9537C-368.865 99.2372 -366.7 98.5263 -364.536 97.8234C-365.407 97.0355 -366.275 96.2436 -367.152 95.4691C-369.27 96.1085 -371.39 96.763 -373.508 97.4146ZM-376.829 94.082C-376.001 94.9028 -375.172 95.7215 -374.349 96.5547C-372.269 95.9124 -370.187 95.266 -368.11 94.6358C-368.978 93.8746 -369.846 93.1133 -370.719 92.3654C-372.754 92.9324 -374.79 93.5027 -376.829 94.082ZM-380.168 90.8222C-379.345 91.6109 -378.528 92.4123 -377.709 93.2153C-375.704 92.6441 -373.699 92.084 -371.696 91.5248C-372.568 90.7845 -373.446 90.0602 -374.324 89.3318C-376.271 89.8216 -378.218 90.3156 -380.168 90.8222ZM-383.535 87.6429C-382.716 88.4025 -381.904 89.1788 -381.09 89.9533C-379.172 89.4535 -377.258 88.9631 -375.344 88.4796C-376.217 87.7628 -377.096 87.0569 -377.975 86.3515C-379.825 86.7723 -381.681 87.2105 -383.535 87.6429ZM-386.963 84.5299C-386.139 85.2696 -385.315 86.0074 -384.496 86.7594C-382.68 86.3336 -380.864 85.9049 -379.052 85.4908C-379.907 84.8122 -380.763 84.1322 -381.624 83.4667C-383.401 83.8147 -385.18 84.1634 -386.963 84.5299ZM-390.383 81.5209C-389.572 82.2231 -388.761 82.9195 -387.956 83.6331C-386.227 83.2755 -384.502 82.9327 -382.777 82.5903C-383.629 81.9369 -384.479 81.2788 -385.339 80.6383C-387.016 80.9225 -388.701 81.2229 -390.383 81.5209ZM-393.854 78.5653C-393.05 79.2361 -392.251 79.918 -391.451 80.6009C-389.823 80.3107 -388.194 80.015 -386.569 79.7373C-387.408 79.1206 -388.25 78.5127 -389.094 77.9083C-390.68 78.1226 -392.263 78.3325 -393.854 78.5653ZM-397.316 75.7297C-396.539 76.3522 -395.77 76.9951 -394.998 77.6288C-393.457 77.3998 -391.919 77.1854 -390.384 76.9747C-391.222 76.3834 -392.071 75.8138 -392.915 75.2349C-394.377 75.3876 -395.849 75.5638 -397.316 75.7297ZM-400.859 72.9621C-400.089 73.5556 -399.319 74.1483 -398.554 74.7525C-397.139 74.5882 -395.726 74.4276 -394.314 74.2732C-395.115 73.733 -395.918 73.1992 -396.724 72.6695C-398.1 72.7628 -399.476 72.8547 -400.859 72.9621ZM-404.379 70.3151C-403.639 70.8597 -402.896 71.3955 -402.162 71.9508C-400.87 71.8453 -399.581 71.7444 -398.294 71.6521C-399.061 71.1582 -399.821 70.6535 -400.593 70.1695C-401.852 70.2103 -403.115 70.2627 -404.379 70.3151ZM-407.91 67.7549C-407.22 68.242 -406.534 68.7392 -405.849 69.2357C-404.679 69.1813 -403.514 69.1439 -402.347 69.1008C-403.075 68.6547 -403.802 68.2063 -404.533 67.7684C-405.657 67.7569 -406.782 67.7543 -407.91 67.7549ZM-411.44 65.3172C-410.808 65.7431 -410.182 66.1853 -409.555 66.6191C-408.546 66.6125 -407.533 66.5942 -406.526 66.5962C-407.188 66.2103 -407.855 65.8362 -408.52 65.4584C-409.494 65.4108 -410.464 65.3576 -411.44 65.3172ZM-414.955 63.016C-414.412 63.365 -413.868 63.714 -413.327 64.0698C-412.472 64.0986 -411.622 64.1396 -410.771 64.1801C-411.373 63.8489 -411.983 63.5389 -412.587 63.2145C-413.373 63.1385 -414.167 63.0853 -414.955 63.016ZM-418.404 60.8442C-417.965 61.113 -417.519 61.3691 -417.083 61.6421C-416.473 61.6903 -415.866 61.7454 -415.259 61.7952C-415.701 61.5668 -416.147 61.3419 -416.593 61.115C-417.198 61.0286 -417.797 60.9277 -418.404 60.8442ZM-421.59 58.9199C-421.381 59.0417 -421.177 59.172 -420.97 59.2943C-420.671 59.3329 -420.369 59.3653 -420.07 59.4039C-420.284 59.3014 -420.494 59.1912 -420.709 59.0893L-421.59 58.9199ZM774.994 -156.968C772.882 -156.198 770.773 -155.419 768.661 -154.659C763.696 -149.507 758.812 -144.49 753.899 -139.426C756.029 -140.264 758.16 -141.098 760.292 -141.952C765.186 -146.944 770.053 -151.895 774.994 -156.968ZM783.741 -160.18C781.644 -159.402 779.545 -158.631 777.447 -157.862C772.567 -152.849 767.748 -147.938 762.91 -142.996C765.056 -143.859 767.203 -144.746 769.35 -145.62C774.133 -150.45 778.915 -155.278 783.741 -160.18ZM792.547 -163.483C790.453 -162.69 788.359 -161.909 786.264 -161.128C781.502 -156.287 776.763 -151.486 772.045 -146.72C774.178 -147.594 776.311 -148.467 778.445 -149.354C783.115 -154.011 787.832 -158.748 792.547 -163.483ZM801.418 -166.877C799.313 -166.065 797.209 -165.245 795.105 -164.443C790.476 -159.792 785.825 -155.102 781.24 -150.528C783.369 -151.417 785.497 -152.309 787.628 -153.212C792.183 -157.695 796.817 -162.313 801.418 -166.877ZM810.337 -170.338C808.245 -169.517 806.152 -168.705 804.059 -167.895C799.503 -163.374 794.935 -158.828 790.425 -154.389C792.545 -155.292 794.668 -156.225 796.788 -157.14C801.283 -161.502 805.794 -165.892 810.337 -170.338ZM819.225 -173.859C817.18 -173.041 815.132 -172.234 813.084 -171.426C808.597 -167.031 804.162 -162.726 799.718 -158.41C801.833 -159.329 803.949 -160.239 806.064 -161.17C810.406 -165.321 814.835 -169.626 819.225 -173.859ZM828.256 -177.512C826.177 -176.664 824.098 -175.808 822.018 -174.97C817.753 -170.855 813.42 -166.612 809.198 -162.569C811.263 -163.486 813.328 -164.409 815.394 -165.337C819.652 -169.34 823.955 -173.43 828.256 -177.512ZM837.313 -181.229C835.257 -180.375 833.198 -179.53 831.14 -178.686C826.956 -174.709 822.735 -170.666 818.592 -166.765C820.654 -167.698 822.718 -168.654 824.782 -169.6C828.942 -173.443 833.113 -177.31 837.313 -181.229ZM846.432 -185.047C844.394 -184.184 842.351 -183.335 840.311 -182.483C836.243 -178.682 832.17 -174.873 828.142 -171.144C830.16 -172.076 832.178 -172.992 834.198 -173.934C838.269 -177.627 842.323 -181.282 846.432 -185.047ZM855.632 -188.986C853.597 -188.109 851.565 -187.226 849.528 -186.36C845.584 -182.741 841.664 -179.169 837.754 -175.619C839.766 -176.565 841.776 -177.519 843.789 -178.477C847.741 -181.988 851.647 -185.411 855.632 -188.986ZM864.735 -192.943C862.771 -192.08 860.806 -191.219 858.839 -190.366C855.014 -186.928 851.238 -183.584 847.446 -180.21C849.439 -181.167 851.436 -182.15 853.43 -183.117C857.197 -186.392 860.941 -189.614 864.735 -192.943ZM873.847 -196.971C871.978 -196.134 870.104 -195.317 868.234 -194.489C864.572 -191.272 860.978 -188.19 857.344 -185.027C859.261 -185.966 861.176 -186.887 863.094 -187.836C866.67 -190.864 870.246 -193.894 873.847 -196.971ZM883.063 -201.149C881.232 -200.314 879.4 -199.479 877.566 -198.654C874.139 -195.715 870.759 -192.874 867.349 -189.974C869.23 -190.913 871.109 -191.856 872.989 -192.806C876.333 -195.555 879.698 -198.354 883.063 -201.149ZM892.257 -205.383C890.494 -204.562 888.731 -203.734 886.966 -202.922C883.791 -200.275 880.638 -197.677 877.479 -195.065C879.306 -195.996 881.135 -196.958 882.963 -197.898C886.044 -200.351 889.159 -202.888 892.257 -205.383ZM901.391 -209.652C899.762 -208.881 898.131 -208.128 896.502 -207.364C893.642 -205.053 890.786 -202.751 887.94 -200.47C889.583 -201.325 891.226 -202.174 892.87 -203.037C895.698 -205.21 898.551 -207.445 901.391 -209.652ZM910.6 -214.068C909.103 -213.345 907.603 -212.629 906.104 -211.912C903.635 -209.986 901.158 -208.038 898.699 -206.135C900.093 -206.876 901.487 -207.612 902.882 -208.359C905.453 -210.256 908.019 -212.145 910.6 -214.068ZM919.478 -218.396C918.241 -217.788 917.006 -217.172 915.768 -216.569C913.809 -215.1 911.835 -213.591 909.881 -212.138C910.927 -212.705 911.973 -213.282 913.019 -213.853C915.173 -215.369 917.319 -216.862 919.478 -218.396ZM927.567 -222.385C926.912 -222.056 926.254 -221.736 925.599 -221.411C924.325 -220.499 923.042 -219.561 921.772 -218.656C922.26 -218.928 922.748 -219.209 923.237 -219.481L927.567 -222.385ZM-356.637 105.193C-359.001 106.058 -361.363 106.927 -363.727 107.806C-337.738 136.542 -314.326 171.22 -290.475 206.57C-244.067 275.351 -195.963 346.642 -123.861 381.217C-18.1597 431.903 139.372 403.667 419.215 173.204C148.765 387.922 -5.65477 409.072 -112.258 357.453C-180.905 324.212 -229.652 260.816 -276.793 199.506C-302.865 165.596 -328.451 132.335 -356.637 105.193ZM-348.198 102.11C-350.536 102.956 -352.873 103.817 -355.21 104.672C-327.115 131.818 -301.588 165 -275.578 198.828C-228.508 260.047 -179.831 323.352 -111.404 356.486C-1.71311 409.6 158.975 385.156 445.675 150.47C167.465 369.852 9.48476 386.66 -101.585 332.314C-165.968 300.811 -214.524 245.414 -261.599 191.705C-289.956 159.351 -317.778 127.614 -348.198 102.11ZM-339.786 99.1085C-342.098 99.928 -344.409 100.75 -346.72 101.582C-316.422 127.084 -288.686 158.728 -260.418 190.98C-213.404 244.619 -164.915 299.942 -100.723 331.35C13.5742 387.277 177.897 367.38 472.898 127.265C185.183 352.685 23.0707 364.148 -93.2356 306.596C-152.629 277.206 -200.023 229.839 -246.103 183.784C-276.857 153.046 -307.029 122.907 -339.786 99.1085ZM-331.398 96.1513C-333.688 96.9518 -335.977 97.7551 -338.266 98.5664C-305.663 122.363 -275.601 152.395 -244.963 183.017C-198.937 229.018 -151.6 276.329 -92.373 305.636C26.6954 364.555 194.034 350.798 496.151 107.445L497.475 106.266C200.109 336.886 34.0231 341.172 -88.0713 280.019C-141.471 253.273 -186.423 214.021 -230.272 175.731C-263.546 146.674 -296.187 118.182 -331.398 96.1513ZM-323.058 93.2483C-325.314 94.0271 -327.569 94.8178 -329.825 95.6043C-294.804 117.632 -262.305 145.996 -229.182 174.921C-185.383 213.167 -140.482 252.376 -87.2019 279.062C36.2936 340.916 205.064 335.462 510.267 94.8837C511.573 93.7144 512.848 92.5966 514.163 91.4167C209.383 322.921 40.5129 317.051 -87.5808 252.048C-133.54 228.726 -174.226 197.807 -214.068 167.529C-250.003 140.218 -285.254 113.436 -323.058 93.2483ZM-314.737 90.4191C-316.957 91.17 -319.176 91.9193 -321.396 92.6807C-283.83 112.869 -248.766 139.514 -213.023 166.677C-173.219 196.928 -132.571 227.817 -86.704 251.093C42.3944 316.607 213.1 321.823 523.735 82.7567C525.658 81.0189 527.593 79.2587 529.517 77.5205C129.565 374.16 -40.044 262.68 -197.428 159.162C-236.179 133.674 -274.195 108.684 -314.737 90.4191ZM-306.438 87.6276C-308.623 88.3561 -310.807 89.0892 -312.992 89.8258C-272.739 108.098 -234.955 132.939 -196.444 158.269C-38.2379 262.328 132.375 374.411 538.366 69.4941C540.451 67.5897 542.575 65.62 544.683 63.6746C159.022 342.384 -16.735 243.028 -180.303 150.6C-222.043 127.014 -262.99 103.883 -306.438 87.6276ZM-298.196 84.8978C-300.327 85.5997 -302.458 86.3068 -304.588 87.0148C-261.491 103.287 -220.828 126.253 -179.384 149.672C-15.0928 242.508 161.588 342.234 552.137 56.8078C554.88 54.2761 557.59 51.7991 560.349 49.2422C188.65 310.611 6.92971 223.328 -162.622 141.824C-207.559 120.223 -251.643 99.044 -298.196 84.8978ZM-289.952 82.22C-292.033 82.8898 -294.113 83.5581 -296.192 84.2376C-250.066 98.4158 -206.334 119.433 -161.767 140.858C8.37551 222.644 190.767 310.317 566.205 43.7724C569.286 40.9023 572.398 37.9779 575.503 35.0668C218.055 278.924 30.8786 203.494 -144.292 132.798C-192.643 113.284 -240.084 94.1477 -289.952 82.22ZM-273.58 77.0089C-275.508 77.6152 -277.433 78.2215 -279.36 78.8309C-226.532 88.4953 -175.996 105.315 -124.512 122.451C56.5143 182.708 249.361 246.781 595.437 16.2507C598.946 12.9204 602.458 9.58257 605.984 6.22393C276.777 216.112 80.1188 163.467 -105.261 113.822C-161.278 98.8199 -216.267 84.1015 -273.58 77.0089ZM-265.425 74.4785C-267.271 75.0444 -269.115 75.6076 -270.959 76.1831C-214.368 83.3954 -160.002 97.9428 -104.636 112.772C81.3059 162.568 278.625 215.365 610.26 2.14632C613.959 -1.39851 617.719 -5.04351 621.468 -8.67131C306.25 184.847 105.601 143.225 -84.2712 103.768C-144.628 91.2243 -203.899 78.9155 -265.425 74.4785ZM-257.319 71.9882C-259.022 72.5051 -260.724 73.034 -262.427 73.5562C-201.774 78.1654 -143.276 90.3203 -83.7219 102.696C106.678 142.264 307.912 184.049 625.142 -12.2182C629.099 -16.0442 633.045 -19.8519 637.038 -23.7372C335.778 153.807 131.823 122.777 -62.0407 93.2401C-127.166 83.3176 -191.154 73.5716 -257.319 71.9882ZM-249.204 69.5528C-250.772 70.0242 -252.339 70.4904 -253.907 70.9631C-188.787 72.7845 -125.728 82.3809 -61.5704 92.1566C132.824 121.774 337.384 152.884 640.384 -27.0125C644.432 -30.9613 648.512 -34.9618 652.597 -38.9723C365.383 122.916 158.914 102.067 -38.3119 82.1436C-108.701 75.0337 -177.915 68.0518 -249.204 69.5528ZM-241.127 67.1558C-242.503 67.5593 -243.879 67.9599 -245.256 68.368C-175.219 67.1886 -107.138 74.0616 -37.9187 81.0542C159.846 101.032 366.913 121.954 655.639 -41.9498C659.878 -46.1173 664.156 -50.3511 668.445 -54.6037C395.291 92.1171 187.142 81.0383 -12.7443 70.3611C-89.0192 66.2873 -164.096 62.2853 -241.127 67.1558ZM-233.085 64.7996C-234.187 65.119 -235.29 65.447 -236.393 65.7678C-160.905 61.3409 -87.2442 65.2684 -12.4299 69.264C188 79.9714 396.743 91.0832 671.189 -57.3287C675.569 -61.6705 679.937 -65.995 684.35 -70.3918C425.453 61.5458 216.755 59.6005 15.1095 57.7332C-67.8157 56.9649 -149.546 56.2115 -233.085 64.7996ZM-224.992 62.4774L-227.278 63.1306C-145.67 55.1511 -65.7282 55.8829 15.3531 56.6335C217.562 58.5068 426.882 60.4259 686.909 -72.9465C691.372 -77.4069 695.906 -81.9885 700.428 -86.547C456.093 31.0105 248.137 37.6325 45.8619 44.041C-44.6404 46.9082 -134.008 49.7408 -224.992 62.4774ZM-217.012 60.2087L-217.636 60.3821C-129.124 48.4983 -42.0803 45.7336 46.0361 42.9407C248.881 36.5132 457.442 29.8708 702.74 -88.8731C707.365 -93.5307 711.996 -98.2022 716.664 -102.935C487.366 0.646348 281.836 14.9708 80.3746 28.9914C-18.9547 35.9062 -117.297 42.7508 -217.012 60.2087ZM222.476 -29.5559C92.5501 -8.04739 -38.3252 13.6212 -169.206 47.3373C-57.1066 22.4001 54.5347 7.1453 166.251 -8.11372C360.141 -34.6009 554.258 -61.1319 751.339 -138.413C756.302 -143.524 761.241 -148.595 766.262 -153.802C588.668 -90.1807 406.525 -60.0228 222.476 -29.5559ZM-241.195 66.0629L-239.047 65.4337L-239.863 65.5198C-240.639 65.7231 -241.415 65.922 -242.191 66.1275L-241.195 66.0629ZM-249.242 68.4492C-248.157 68.1257 -247.069 67.7941 -245.983 67.4719C-246.539 67.5093 -247.093 67.5408 -247.648 67.5801L-251.025 68.4866L-249.242 68.4492ZM-257.302 70.8685C-255.934 70.4535 -254.565 70.0474 -253.198 69.6362C-253.991 69.6555 -254.786 69.6842 -255.581 69.7086C-256.926 70.0735 -258.274 70.4515 -259.62 70.8209C-258.847 70.8364 -258.074 70.8492 -257.302 70.8685ZM-265.373 73.3462L-260.738 71.9191L-263.426 71.8715C-264.976 72.2989 -266.527 72.7221 -268.079 73.1571C-267.178 73.22 -266.275 73.2806 -265.373 73.3462ZM-273.492 75.8622C-271.789 75.3288 -270.086 74.7985 -268.383 74.2717C-269.356 74.2055 -270.327 74.1333 -271.301 74.0726C-272.991 74.5517 -274.681 75.0287 -276.37 75.5116C-275.41 75.6248 -274.451 75.7443 -273.492 75.8622ZM-281.629 78.4276C-279.796 77.8458 -277.963 77.2709 -276.131 76.6937C-277.175 76.5692 -278.223 76.4543 -279.269 76.3346C-281.061 76.8509 -282.854 77.3768 -284.645 77.8986C-283.64 78.075 -282.633 78.2483 -281.629 78.4276ZM-289.775 81.0409C-287.863 80.4244 -285.951 79.7981 -284.038 79.1861C-285.082 79.0044 -286.126 78.8125 -287.173 78.6357C-289.077 79.1899 -290.981 79.7443 -292.887 80.3107C-291.848 80.5497 -290.812 80.7943 -289.775 81.0409ZM-297.981 83.7002C-295.968 83.0409 -293.956 82.3914 -291.943 81.7422C-293.023 81.4889 -294.105 81.2476 -295.187 81.0016C-297.149 81.5886 -299.111 82.1767 -301.073 82.7702C-300.041 83.077 -299.01 83.3883 -297.981 83.7002ZM-306.168 86.4135C-304.104 85.7276 -302.04 85.0427 -299.976 84.3618C-301.046 84.0404 -302.111 83.7168 -303.184 83.4042C-305.215 84.0224 -307.246 84.6521 -309.278 85.277C-308.24 85.6527 -307.202 86.0281 -306.168 86.4135ZM-314.42 89.1836C-312.293 88.4633 -310.166 87.7451 -308.039 87.0331C-309.097 86.6416 -310.159 86.2605 -311.22 85.8776C-313.304 86.5196 -315.387 87.162 -317.471 87.8166C-316.451 88.2653 -315.436 88.7263 -314.42 89.1836ZM-322.69 91.9935C-320.514 91.2458 -318.34 90.5121 -316.164 89.7765C-317.205 89.3123 -318.249 88.8512 -319.295 88.3963C-321.422 89.0695 -323.549 89.7428 -325.676 90.4244C-324.68 90.9459 -323.683 91.4656 -322.69 91.9935ZM-330.979 94.8751C-328.77 94.1039 -326.56 93.3324 -324.351 92.5684C-325.364 92.033 -326.376 91.4976 -327.392 90.9689C-329.557 91.667 -331.726 92.3757 -333.892 93.0814C-332.919 93.6749 -331.948 94.2707 -330.979 94.8751ZM-339.316 97.8063C-337.062 97.0067 -334.808 96.2122 -332.554 95.4243C-333.54 94.8113 -334.531 94.213 -335.522 93.615C-337.721 94.3316 -339.919 95.0502 -342.118 95.781C-341.181 96.4487 -340.249 97.1306 -339.316 97.8063ZM-347.673 100.789C-345.394 99.9686 -343.114 99.1578 -340.834 98.3485C-341.783 97.6637 -342.732 96.9804 -343.686 96.3071C-345.916 97.0519 -348.146 97.7999 -350.378 98.5563C-349.474 99.2965 -348.572 100.038 -347.673 100.789ZM-356.061 103.845C-353.76 103.002 -351.458 102.153 -349.157 101.319C-350.066 100.563 -350.974 99.8093 -351.887 99.0621C-354.143 99.8299 -356.398 100.612 -358.653 101.39C-357.787 102.202 -356.922 103.019 -356.061 103.845ZM-364.5 106.955C-362.163 106.086 -359.824 105.224 -357.487 104.367C-358.359 103.532 -359.237 102.714 -360.116 101.894C-362.396 102.681 -364.675 103.471 -366.955 104.273C-366.133 105.16 -365.317 106.057 -364.5 106.955ZM-608.302 221.781C-527.819 174.864 -446.944 137.716 -365.897 107.479C-366.722 106.573 -367.551 105.673 -368.383 104.779C-448.372 132.986 -528.739 168.941 -609.673 216.122L-610.367 215.272C-529.459 168.106 -449.128 132.146 -369.182 103.929C-370.008 103.045 -370.832 102.161 -371.664 101.291C-450.538 127.436 -530.359 162.17 -611.738 209.609L-612.433 208.758C-531.091 161.34 -451.316 126.603 -372.494 100.441C-373.325 99.5784 -374.16 98.7233 -374.997 97.8746C-452.729 121.92 -531.98 155.399 -613.804 203.1L-614.498 202.249C-532.716 154.574 -453.514 121.082 -375.837 97.0125C-376.675 96.1693 -377.522 95.3442 -378.366 94.5138C-454.931 116.416 -533.596 148.628 -615.868 196.59L-616.563 195.739C-534.347 147.812 -455.742 115.583 -379.246 93.6464C-380.077 92.8369 -380.91 92.0363 -381.747 91.2393C-457.126 110.953 -535.194 141.846 -617.934 190.079L-618.627 189.229C-535.964 141.039 -457.967 110.129 -382.666 90.3682C-383.498 89.5827 -384.328 88.7951 -385.166 88.0229C-459.332 105.506 -536.789 135.058 -619.999 183.566L-620.693 182.716C-537.581 134.265 -460.213 104.685 -386.14 87.142C-386.97 86.3851 -387.799 85.6282 -388.635 84.8855C-461.56 100.094 -538.379 128.272 -622.064 177.056L-622.758 176.206C-539.19 127.489 -462.467 99.275 -389.641 83.9918C-390.471 83.2614 -391.307 82.549 -392.145 81.832C-463.8 94.7167 -539.964 121.482 -624.129 170.547L-624.823 169.697C-540.803 120.716 -464.752 93.8984 -393.21 80.9132C-394.034 80.2146 -394.864 79.5323 -395.694 78.8485C-466.053 89.3628 -541.543 114.686 -626.195 164.034L-626.889 163.184C-542.418 113.941 -467.064 88.5555 -396.836 77.9122C-397.645 77.2534 -398.455 76.5944 -399.271 75.9491C-468.307 84.0442 -543.108 107.884 -628.259 157.525L-628.954 156.674C-544.038 107.172 -469.402 83.2352 -400.523 74.9737C-401.31 74.3606 -402.093 73.7387 -402.886 73.1368C-470.572 78.7575 -544.663 101.077 -630.324 151.014L-631.019 150.164C-545.646 100.395 -471.75 77.9644 -404.241 72.1296C-405.022 71.5467 -405.808 70.9702 -406.596 70.3993C-472.886 73.5054 -546.234 94.2783 -632.39 144.503L-633.083 143.654C-547.271 93.6289 -474.143 72.7112 -408.046 69.3399C-408.796 68.8062 -409.556 68.2953 -410.312 67.7728C-475.188 68.2989 -547.777 87.4615 -634.456 137.992L-635.149 137.141C-548.917 86.872 -476.598 67.5126 -411.953 66.6371C-412.663 66.1565 -413.377 65.6847 -414.093 65.215C-477.517 63.1156 -549.323 80.6487 -636.52 131.482L-637.214 130.631C-550.583 80.1297 -479.111 62.3569 -415.959 64.0039C-416.599 63.5938 -417.234 63.1714 -417.878 62.7676C-479.829 57.9724 -550.838 73.8202 -638.585 124.972L-639.279 124.121C-552.304 73.4186 -481.725 57.2279 -420.12 61.4117C-420.668 61.079 -421.214 60.7417 -421.764 60.4166C-482.198 52.8789 -552.369 66.9947 -640.651 118.459L-641.345 117.609C-554.084 66.7396 -484.455 52.1551 -424.448 58.8699C-424.884 58.6224 -425.322 58.3772 -425.76 58.133C-484.625 47.8197 -553.926 60.1879 -642.716 111.949L-643.41 111.099C-555.965 60.1234 -487.367 47.1459 -429.021 56.3549C-429.252 56.2331 -429.486 56.1152 -429.717 55.9953C-487.003 42.8056 -555.421 53.3459 -644.781 105.439L-645.475 104.589C-558.693 53.9997 -491.585 42.3575 -435.251 53.5235C-490.627 37.9959 -557.728 46.9772 -646.846 98.9281L-647.54 98.0789C-562.587 48.5553 -497.553 37.8092 -443.62 50.0637C-496.583 33.428 -561.618 41.5291 -648.911 92.4165L-649.605 91.5665C-566.545 43.1478 -503.556 33.2082 -451.934 46.3657C-502.577 28.8139 -565.575 36.1206 -650.976 85.9066L-651.671 85.0562C-557.45 30.1292 -490.355 26.4923 -437.067 50.8595C-434.123 51.9043 -431.227 53.0455 -428.355 54.2386C-425.334 55.2006 -422.337 56.2167 -419.384 57.3228C-416.316 58.1897 -413.285 59.1395 -410.279 60.1399C-407.057 60.9344 -403.858 61.7853 -400.695 62.7114C-397.451 63.3981 -394.235 64.1483 -391.043 64.9548C-387.611 65.5582 -384.206 66.2274 -380.825 66.9521C-377.377 67.4426 -373.948 67.9784 -370.544 68.5761C-366.906 68.9662 -363.295 69.4264 -359.699 69.9244C-355.934 70.2045 -352.183 70.5301 -348.457 70.9116C-344.698 71.0687 -340.954 71.2686 -337.228 71.5161C-333.26 71.552 -329.311 71.6471 -325.375 71.7721C-321.228 71.6797 -317.097 71.6318 -312.979 71.6259C-308.737 71.4015 -304.504 71.2092 -300.285 71.0633C-295.978 70.7076 -291.68 70.3793 -287.392 70.0937C-282.933 69.5936 -278.484 69.1214 -274.042 68.6885C-269.447 68.0407 -264.856 67.4209 -260.275 66.833C-255.526 66.0306 -250.782 65.2514 -246.042 64.5067C-241.304 63.5765 -236.57 62.6773 -231.84 61.7966C-226.778 60.6689 -221.719 59.5713 -216.662 58.4938C-211.551 57.2252 -206.441 55.9806 -201.332 54.7574C-59.755 16.0838 81.884 -7.3692 222.414 -30.6338C407.071 -61.2005 589.81 -91.4521 767.918 -155.528C850.879 -241.639 941.01 -339.724 1039.09 -451.146L1040.18 -450.624C942.635 -339.809 852.951 -242.199 770.338 -156.411C772.459 -157.177 774.579 -157.953 776.699 -158.73C857.714 -241.986 945.6 -336.818 1041.16 -444.638L1042.25 -444.112C947.239 -336.909 859.809 -242.554 779.153 -159.624C781.273 -160.405 783.392 -161.199 785.513 -161.989C864.577 -242.376 950.21 -333.939 1043.23 -438.129L1044.31 -437.597C951.874 -334.052 866.72 -242.98 788.037 -162.935C790.143 -163.725 792.252 -164.504 794.356 -165.305C871.464 -242.804 954.839 -331.089 1045.29 -431.621L1046.38 -431.086C956.527 -331.23 873.652 -243.448 796.953 -166.304C799.074 -167.114 801.192 -167.935 803.312 -168.755C878.43 -243.33 959.521 -328.311 1047.36 -425.112L1048.44 -424.572C961.225 -328.46 880.645 -243.984 805.954 -169.773C808.08 -170.602 810.205 -171.442 812.33 -172.28C885.437 -243.903 964.242 -325.587 1049.43 -418.606L1050.5 -418.06C965.984 -325.772 887.722 -244.603 815.078 -173.369C817.133 -174.184 819.19 -174.99 821.245 -175.815C892.4 -244.52 968.892 -322.795 1051.5 -412.097L1052.57 -411.545C970.655 -322.992 894.748 -245.28 824.081 -176.97C826.177 -177.818 828.273 -178.672 830.369 -179.53C899.497 -245.245 973.656 -320.139 1053.56 -405.59L1054.63 -405.033C975.431 -320.338 901.877 -246.018 833.255 -180.705C835.352 -181.569 837.446 -182.45 839.542 -183.325C906.632 -246.03 978.446 -317.521 1055.63 -399.084L1056.69 -398.519C980.253 -317.748 909.088 -246.865 842.54 -184.58C844.611 -185.451 846.685 -186.316 848.756 -187.197C913.804 -246.872 983.258 -314.939 1057.7 -392.575L1058.75 -392.004C985.107 -315.199 916.351 -247.779 851.891 -188.545C853.954 -189.428 856.017 -190.312 858.077 -191.206C921.055 -247.819 988.116 -312.419 1059.77 -386.069L1060.81 -385.49C989.986 -312.69 923.655 -248.757 861.297 -192.598C863.359 -193.498 865.42 -194.42 867.48 -195.33C928.37 -248.855 993.013 -309.952 1061.84 -379.561L1062.87 -378.975C994.929 -310.26 931.076 -249.87 870.861 -196.825C872.843 -197.708 874.825 -198.596 876.806 -199.489C935.647 -249.936 997.871 -307.467 1063.91 -373.057L1064.93 -372.46C999.92 -307.887 938.58 -251.081 880.535 -201.182C882.427 -202.041 884.321 -202.892 886.212 -203.761C942.989 -251.103 1002.77 -305.04 1065.98 -366.551L1066.99 -365.942C1004.91 -305.52 946.103 -252.367 890.218 -205.617C892.065 -206.474 893.911 -207.338 895.758 -208.203C950.433 -252.398 1007.74 -302.693 1068.05 -360.045L1069.05 -359.428C1009.94 -303.215 953.7 -253.755 900 -210.183C901.787 -211.027 903.57 -211.893 905.355 -212.746C957.921 -253.77 1012.73 -300.399 1070.12 -353.544L1071.11 -352.908C1015.08 -301.023 961.499 -255.332 910.067 -215.005C911.722 -215.803 913.377 -216.6 915.032 -217.407C965.472 -255.228 1017.77 -298.163 1072.2 -347.039L1073.17 -346.389C1020.31 -298.928 969.467 -257.068 920.376 -220.038C921.871 -220.776 923.369 -221.506 924.864 -222.25C973.14 -256.826 1022.88 -296.018 1074.27 -340.539L1075.22 -339.869C1025.69 -296.962 977.7 -259.024 931.067 -225.365C932.341 -226.006 933.616 -226.651 934.89 -227.298C980.952 -258.582 1028.06 -293.964 1076.35 -334.038L1077.27 -333.348C1031.3 -295.195 986.406 -261.331 942.456 -231.162C943.199 -231.545 943.942 -231.935 944.684 -232.32C988.625 -260.339 1033.18 -291.88 1078.43 -327.541L1079.32 -326.826C1037.8 -294.106 996.865 -264.858 956.454 -238.602C997.636 -263.033 1038.98 -290.346 1080.52 -321.046L1081.37 -320.296C1045.75 -293.977 1010.28 -270.147 974.94 -248.475C1011.08 -268.365 1046.98 -290.283 1082.61 -314.552L1083.4 -313.769C1041.05 -284.916 998.318 -259.369 955.248 -236.62C948.335 -232.531 941.424 -228.51 934.519 -224.581C927.259 -220.039 920.022 -215.627 912.794 -211.268C905.406 -206.435 898.041 -201.687 890.707 -197.061C883.02 -191.824 875.363 -186.681 867.754 -181.688C860.036 -176.27 852.378 -171.011 844.749 -165.831C837.069 -160.298 829.433 -154.875 821.848 -149.574C813.807 -143.632 805.817 -137.805 797.895 -132.134C789.58 -125.86 781.35 -119.774 773.172 -113.799C765.302 -107.763 757.494 -101.857 749.752 -96.0873C741.919 -89.9792 734.143 -83.9868 726.44 -78.1432C717.154 -70.7725 707.998 -63.6575 698.916 -56.6823C690.85 -50.2245 682.861 -43.9067 674.95 -37.7429C666.999 -31.2978 659.124 -24.9947 651.322 -18.8276C642.116 -11.2765 633 -3.89092 623.999 3.28785C615.446 10.3671 606.985 17.2828 598.624 24.0197C589.997 31.222 581.458 38.2695 573.032 45.1199C564.245 52.5164 555.546 59.7607 546.97 66.7911C538.425 74.0275 529.96 81.1271 521.615 88.0262C513.23 95.1777 504.932 102.183 496.741 109.008C488.344 116.225 480.057 123.257 471.86 130.142C158.588 401.292 -12.1969 436.135 -124.712 382.181C-197.07 347.482 -245.244 276.088 -291.719 207.207C-315.615 171.791 -339.067 137.054 -365.123 108.33C-446.206 138.559 -527.11 175.705 -607.608 222.632L-608.302 221.781Z" fill="url(#paint0_linear_306_65)" fill-opacity="0.41"/>
</g>
<defs>
<filter id="filter0_f_306_65" x="865" y="-179" width="1130" height="1130" filterUnits="userSpaceOnUse" color-interpolation-filters="sRGB">
<feFlood flood-opacity="0" result="BackgroundImageFix"/>
<feBlend mode="normal" in="SourceGraphic" in2="BackgroundImageFix" result="shape"/>
<feGaussianBlur stdDeviation="74" result="effect1_foregroundBlur_306_65"/>
</filter>
<linearGradient id="paint0_linear_306_65" x1="753.36" y1="626.83" x2="-219.968" y2="-319.395" gradientUnits="userSpaceOnUse">
<stop stop-color="#F37803"/>
<stop offset="1" stop-color="#5A310A"/>
</linearGradient>
<clipPath id="clip0_306_65">
<rect width="1920" height="975" fill="white"/>
</clipPath>
</defs>
</svg>
