<svg width="615" height="716" viewBox="0 0 615 716" fill="none" xmlns="http://www.w3.org/2000/svg">
<path fill-rule="evenodd" clip-rule="evenodd" d="M362.194 197.717C359.5 200.194 357.303 203.095 355.601 206.351L70.2553 185.333L296.051 55.1967C300.801 58.8057 306.685 61.0702 313.065 61.424L362.194 197.717ZM90.3891 338.257C85.8519 343.564 83.1579 350.499 83.1579 358.071C83.1579 365.643 85.9228 372.578 90.4599 377.885L42.6778 471.79V244.281L90.3891 338.257ZM54.1625 214.206C55.7222 212.436 56.9983 210.455 58.1326 208.332L340.076 229.066L133.776 334.648C128.388 330.119 121.44 327.359 113.855 327.359C113.075 327.359 112.366 327.359 111.586 327.429L54.1625 214.206ZM58.1326 507.668C57.0692 505.545 55.7222 503.564 54.2334 501.794L111.728 388.57C112.437 388.641 113.146 388.641 113.926 388.641C121.44 388.641 128.388 385.952 133.705 381.423L339.792 486.934L58.1326 507.668ZM284.212 681.396C284.07 682.67 283.999 683.943 283.999 685.288C283.999 702.201 297.752 716 314.767 716C331.71 716 345.534 702.272 345.534 685.288C345.534 684.014 345.463 682.67 345.322 681.396C435.214 629.596 525.107 577.796 615 525.996L534.111 386.377L400.548 470.587C395.585 467.12 389.488 465.067 382.966 465.067C375.451 465.067 368.504 467.757 363.187 472.285L144.481 360.335C144.552 359.557 144.552 358.778 144.552 358C144.552 357.292 144.552 356.514 144.481 355.806L363.258 243.856C368.575 248.314 375.451 250.933 382.895 250.933C389.134 250.933 395.018 249.022 399.839 245.837L534.04 329.623L614.787 190.004L345.18 34.6041C345.322 33.3303 345.393 32.0565 345.393 30.712C345.393 13.7992 331.639 0 314.625 0C297.681 0 283.857 13.7284 283.857 30.712C283.857 31.9858 283.928 33.3303 284.07 34.6041L49.3418 169.977C44.1666 166.085 37.7153 163.75 30.7677 163.75C13.7533 163.679 0 177.408 0 194.391C0 207.129 7.72738 218.027 18.7867 222.697V493.444C7.72738 498.115 0 509.012 0 521.75C0 538.663 13.7533 552.462 30.7677 552.462C37.7862 552.462 44.1666 550.127 49.3418 546.235C127.608 591.171 205.874 636.319 284.212 681.396ZM313.065 654.647C306.685 655.001 300.871 657.265 296.051 660.874L70.2553 530.667L355.601 509.649C357.303 512.905 359.5 515.806 362.194 518.283L313.065 654.647ZM424.013 488.703L576.363 507.031L525.887 419.707L413.308 490.684C413.592 492.312 413.734 494.01 413.734 495.709C413.734 512.126 400.831 525.501 384.597 526.35L336.885 658.751L561.688 529.18L421.178 512.268C423.375 507.173 424.651 501.582 424.651 495.638C424.651 493.303 424.439 490.967 424.013 488.703ZM336.885 57.2489L384.597 189.65C400.831 190.499 413.734 203.874 413.734 220.291C413.734 222.273 413.521 224.183 413.167 226.023L525.887 296.364L576.363 209.04L424.013 227.368C424.439 225.103 424.651 222.697 424.651 220.291C424.651 214.418 423.446 208.757 421.178 203.662L561.688 186.749L336.885 57.2489Z" fill="url(#paint0_linear_9_197)"/>
<defs>
<linearGradient id="paint0_linear_9_197" x1="63.3062" y1="118.473" x2="542.338" y2="598.374" gradientUnits="userSpaceOnUse">
<stop stop-color="#F57A00"/>
<stop offset="1" stop-color="#7103A4"/>
</linearGradient>
</defs>
</svg>
