<svg width="512" height="512" viewBox="0 0 512 512" fill="none" xmlns="http://www.w3.org/2000/svg">
<path d="M462.687 49.3008C435.048 21.6714 398.66 4.51563 359.759 0.773871C320.858 -2.96789 281.867 6.9374 249.469 28.792C217.071 50.6466 193.283 83.0895 182.182 120.56C171.082 158.031 173.36 198.196 188.627 234.171C124.977 289.863 64.9762 349.593 8.99656 412.991C2.49656 420.321 -0.633435 430.491 0.106565 440.861C1.23323 456.734 2.07657 472.307 2.63657 487.581C2.78095 493.312 5.12197 498.768 9.17564 502.822C13.2293 506.875 18.6856 509.216 24.4166 509.361C39.6566 509.881 55.2566 510.761 71.1266 511.881C81.4966 512.621 91.6666 509.481 99.0366 502.971C102.543 499.871 106.04 496.761 109.527 493.641C112.177 491.275 113.888 488.034 114.347 484.511C115.513 475.911 116.603 467.224 117.617 458.451C119.167 445.051 131.317 436.301 145.447 438.881C171.377 443.661 191.777 423.781 187.097 397.881V397.681C184.577 383.561 193.427 371.481 207.007 370.141C215.767 369.267 224.477 368.347 233.137 367.381C236.718 367.006 240.04 365.343 242.487 362.701C254.447 349.761 266.233 336.654 277.847 323.381C313.823 338.643 353.988 340.917 391.458 329.812C428.927 318.708 461.367 294.916 483.218 262.516C505.069 230.115 514.97 191.123 511.224 152.223C507.478 113.323 490.319 76.9363 462.687 49.3008ZM418.997 158.851C412.484 165.36 404.188 169.793 395.157 171.588C386.126 173.383 376.765 172.459 368.258 168.935C359.752 165.41 352.481 159.442 347.366 151.786C342.251 144.13 339.521 135.129 339.521 125.921C339.521 116.713 342.251 107.712 347.366 100.056C352.481 92.3992 359.752 86.4315 368.258 82.9069C376.765 79.3823 386.126 78.4591 395.157 80.254C404.188 82.0489 412.484 86.4813 418.997 92.9908C423.322 97.3146 426.754 102.448 429.095 108.098C431.436 113.749 432.641 119.805 432.641 125.921C432.641 132.037 431.436 138.093 429.095 143.743C426.754 149.393 423.322 154.527 418.997 158.851Z" fill="#F97316" fill-opacity="0.301961"/>
</svg>
