<svg width="512" height="512" viewBox="0 0 512 512" fill="none" xmlns="http://www.w3.org/2000/svg">
<path d="M463.747 48.2515C399.411 -16.0845 294.734 -16.0835 230.398 48.2525C186.453 92.1975 171.189 156.958 190.217 215.714L4.395 401.536C3.00137 402.929 1.89588 404.582 1.14175 406.402C0.387615 408.222 -0.00036373 410.173 2.5587e-07 412.142V497C2.5587e-07 505.291 6.709 512 15 512H99.858C103.842 512 107.651 510.418 110.463 507.605L131.674 486.379C133.273 484.78 134.489 482.84 135.233 480.704C135.976 478.568 136.226 476.292 135.966 474.046L133.329 451.253L164.911 448.279C168.388 447.955 171.642 446.426 174.111 443.957C176.579 441.488 178.108 438.234 178.432 434.757L181.406 403.175L204.199 405.826C208.432 406.397 212.695 404.976 215.903 402.135C217.482 400.726 218.745 399 219.611 397.069C220.477 395.138 220.925 393.046 220.927 390.929V363H248.349C252.333 363 256.142 361.418 258.954 358.605L297.421 320.647C356.161 339.69 419.802 325.576 463.747 281.602C528.083 217.267 528.083 112.587 463.747 48.2515ZM421.312 154.322C403.763 171.871 375.228 171.871 357.679 154.322C340.13 136.773 340.13 108.238 357.679 90.6885C375.228 73.1395 403.763 73.1395 421.312 90.6885C438.861 108.238 438.86 136.773 421.312 154.322Z" fill="#F57A00"/>
</svg>
