<svg width="363" height="487" viewBox="0 0 363 487" fill="none" xmlns="http://www.w3.org/2000/svg">
<path d="M309.591 188.754V128.338C309.591 57.6 252.078 0 181.248 0C110.51 0 52.9101 57.6 52.9101 128.343V188.759C23.296 191.232 0 216.228 0 246.436V318.464C0 411.049 75.264 486.4 167.849 486.4H194.647C287.232 486.4 362.496 411.049 362.496 318.464V246.441C362.496 216.233 339.205 191.232 309.591 188.754ZM108.462 128.338C112.451 31.8925 250.051 31.9181 254.039 128.338V188.503H108.462V128.338ZM160.942 344.151C130.99 324.613 145.603 276.849 181.253 277.166C216.899 276.864 231.531 324.588 201.559 344.151C199.255 345.687 197.806 348.421 197.806 351.237V381.189C197.253 402.99 165.274 403.036 164.695 381.189V351.232C164.695 348.416 163.246 345.687 160.942 344.151Z" fill="#F97316" fill-opacity="0.301961"/>
</svg>
