<svg width="384" height="512" viewBox="0 0 384 512" fill="none" xmlns="http://www.w3.org/2000/svg">
<path d="M373.333 192H341.333V149.333C341.333 66.99 274.344 0 192 0C109.656 0 42.667 66.99 42.667 149.333V192H10.667C9.26593 191.999 7.87842 192.274 6.58383 192.81C5.28923 193.346 4.11295 194.132 3.12224 195.122C2.13153 196.113 1.34585 197.289 0.810107 198.584C0.274366 199.878 -0.000918029 201.266 2.30002e-06 202.667V469.334C2.30002e-06 492.865 19.135 512 42.667 512H341.334C364.865 512 384 492.865 384 469.333V202.667C384.001 201.266 383.726 199.878 383.19 198.584C382.654 197.289 381.868 196.113 380.878 195.122C379.887 194.132 378.711 193.346 377.416 192.81C376.122 192.274 374.734 191.999 373.333 192ZM223.938 414.823C224.103 416.314 223.952 417.823 223.494 419.252C223.037 420.68 222.283 421.997 221.282 423.114C220.282 424.232 219.057 425.126 217.687 425.738C216.317 426.35 214.834 426.667 213.334 426.667H170.667C169.167 426.667 167.684 426.35 166.314 425.738C164.944 425.126 163.719 424.232 162.719 423.114C161.718 421.997 160.964 420.68 160.507 419.252C160.049 417.823 159.898 416.314 160.063 414.823L166.792 354.313C155.865 346.365 149.334 333.792 149.334 320C149.334 296.469 168.469 277.333 192.001 277.333C215.533 277.333 234.668 296.468 234.668 320C234.668 333.792 228.137 346.365 217.21 354.313L223.938 414.823ZM277.333 192H106.667V149.333C106.667 102.281 144.948 64 192 64C239.052 64 277.333 102.281 277.333 149.333V192Z" fill="#F57A00"/>
</svg>
