<svg width="29" height="29" viewBox="0 0 29 29" fill="none" xmlns="http://www.w3.org/2000/svg">
<path d="M23.8659 4.77185H4.77259C3.45993 4.77185 2.39786 5.84585 2.39786 7.15852L2.38593 21.4785C2.38593 22.7912 3.45993 23.8652 4.77259 23.8652H23.8659C25.1786 23.8652 26.2526 22.7912 26.2526 21.4785V7.15852C26.2526 5.84585 25.1786 4.77185 23.8659 4.77185ZM23.3886 9.84352L14.9517 15.1181C14.5699 15.3567 14.0687 15.3567 13.6868 15.1181L5.24993 9.84352C4.95159 9.65258 4.77259 9.33038 4.77259 8.98432C4.77259 8.18478 5.64373 7.70745 6.32393 8.12512L14.3193 13.1252L22.3146 8.12512C22.9948 7.70745 23.8659 8.18478 23.8659 8.98432C23.8659 9.33038 23.6869 9.65258 23.3886 9.84352Z" fill="#F57A00"/>
</svg>
