<svg width="29" height="29" viewBox="0 0 29 29" fill="none" xmlns="http://www.w3.org/2000/svg">
<path d="M22.9487 18.2101L19.9176 17.8641C19.1897 17.7805 18.4737 18.0311 17.9606 18.5443L15.7648 20.74C12.3877 19.0216 9.61916 16.265 7.90076 12.8759L10.1084 10.6683C10.6216 10.1551 10.8722 9.43913 10.7886 8.7112L10.4426 5.704C10.2994 4.49873 9.28502 3.5918 8.06782 3.5918H6.00336C4.65489 3.5918 3.53316 4.71353 3.61669 6.062C4.24916 16.2531 12.3996 24.3916 22.5788 25.0241C23.9272 25.1076 25.049 23.9859 25.049 22.6374V20.5729C25.0609 19.3677 24.154 18.3533 22.9487 18.2101Z" fill="#F57A00"/>
</svg>
