<svg width="107" height="106" viewBox="0 0 107 106" fill="none" xmlns="http://www.w3.org/2000/svg">
<rect x="1.44789" y="0.660778" width="104.403" height="104.403" rx="52.2015" fill="#171717"/>
<rect x="1.44789" y="0.660778" width="104.403" height="104.403" rx="52.2015" stroke="#F57A00" stroke-width="1.32156"/>
<path d="M70.9487 66.701C70.4744 66.7139 70.1561 66.139 70.4296 65.744L72.5411 62.4887L69.8511 62.4946C69.3713 62.5111 69.0553 61.923 69.3336 61.5319L72.2773 57.1026C72.3683 56.9657 72.5099 56.8706 72.671 56.8382C72.8321 56.8057 72.9995 56.8386 73.1363 56.9296C73.2732 57.0206 73.3683 57.1622 73.4007 57.3233C73.4331 57.4844 73.4002 57.6518 73.3093 57.7887L71.007 61.2528L73.6818 61.2469C74.1584 61.2306 74.4753 61.8121 74.2029 62.2037L71.469 66.4184C71.4128 66.5053 71.3357 66.5766 71.2449 66.626C71.154 66.6753 71.0522 66.7011 70.9487 66.701ZM79.1781 39.1977C78.7411 39.564 78.2323 39.8347 77.6844 39.9924C77.1364 40.1501 76.5615 40.1912 75.9967 40.1132C75.8291 40.4378 75.5986 40.7259 75.3186 40.9606C74.1089 41.9758 72.2671 41.7793 71.2129 40.523C70.1588 39.2667 70.2852 37.4188 71.4949 36.4037C71.7747 36.1687 72.0984 35.9917 72.4472 35.883C72.4684 35.3132 72.6088 34.7542 72.8592 34.242C73.1096 33.7297 73.4646 33.2756 73.9012 32.9089C75.6287 31.4594 78.2177 31.6906 79.6724 33.4245C81.1271 35.1583 80.9054 37.7482 79.1781 39.1977ZM74.5219 40.0113C74.7601 39.8114 74.9309 39.5436 75.0161 39.2366C75.0988 38.9135 75.461 38.7094 75.7802 38.8055C76.6898 39.0601 77.6621 38.8519 78.3813 38.2484C79.5853 37.2381 79.7386 35.4314 78.723 34.2211C77.7074 33.0108 75.9017 32.8479 74.6977 33.8582C73.9784 34.4618 73.6045 35.3832 73.6974 36.3231C73.7366 36.6543 73.4727 36.9754 73.1401 37.0009C72.8231 37.0314 72.5296 37.1531 72.2914 37.353C71.6053 37.9288 71.5472 38.9935 72.1621 39.7264C72.7772 40.4593 73.8358 40.5871 74.5219 40.0113Z" fill="#F57A00"/>
<path d="M82.3807 73.1948H80.9396L76.4768 50.1075V45.3625C76.4768 45.1981 76.4115 45.0405 76.2953 44.9243C76.1791 44.8081 76.0215 44.7428 75.8571 44.7428H67.8471C67.6828 44.7428 67.5252 44.8081 67.409 44.9243C67.2928 45.0405 67.2275 45.1981 67.2275 45.3625V50.0511L65.4187 59.4086L57.7893 34.7625H63.8731V36.8953C63.8731 37.2376 64.1505 37.515 64.4928 37.515C64.8351 37.515 65.1125 37.2376 65.1125 36.8953V34.1429C65.1125 33.9785 65.0472 33.8209 64.931 33.7047C64.8148 33.5885 64.6571 33.5232 64.4928 33.5232H57.4056L54.5927 24.4363C54.5536 24.3099 54.475 24.1994 54.3685 24.1209C54.262 24.0423 54.1331 24 54.0008 24C53.8685 24 53.7397 24.0423 53.6332 24.1209C53.5267 24.1994 53.4481 24.3099 53.4089 24.4363L50.596 33.5231H43.5089C43.3445 33.5231 43.1869 33.5884 43.0707 33.7046C42.9545 33.8208 42.8892 33.9784 42.8892 34.1428V36.8952C42.8892 37.2375 43.1666 37.5148 43.5089 37.5148C43.8512 37.5148 44.1285 37.2375 44.1285 36.8952V34.7625H50.2125L40.5411 66.0053H25.6209C25.2622 65.9973 24.9573 66.338 25.0049 66.6935L26.6464 81.4492C26.6633 81.6007 26.7354 81.7407 26.8491 81.8424C26.9627 81.9441 27.1098 82.0003 27.2623 82.0003H46.3773C46.5297 82.0003 46.6769 81.9441 46.7905 81.8424C46.9042 81.7407 46.9763 81.6007 46.9932 81.4492L48.6271 66.762L54.015 63.6167L63.5317 69.1709L62.7538 73.195H54.095C53.7527 73.195 53.4754 73.4724 53.4754 73.8147C53.4754 74.157 53.7527 74.4343 54.095 74.4343H82.3807C82.5451 74.4343 82.7027 74.369 82.8189 74.2528C82.9352 74.1366 83.0005 73.9789 83.0005 73.8146C83.0005 73.6502 82.9352 73.4925 82.8189 73.3763C82.7027 73.2601 82.5451 73.1948 82.3807 73.1948ZM75.2375 45.9821V49.4909H68.4668V45.9821H75.2375ZM62.9108 55.498L55.0727 49.9953L60.1123 46.4578L62.9108 55.498ZM58.9586 42.7308L54.8234 37.8311L56.7406 35.566L58.9586 42.7308ZM54.0127 36.8705L52.2337 34.7625H55.797L54.0127 36.8705ZM54.0008 26.715L56.1084 33.5232H51.8934L54.0008 26.715ZM51.2687 35.5408L53.2007 37.83L49.0375 42.7486L51.2687 35.5408ZM54.0114 38.7905L59.5422 45.3437L53.9943 49.2382L48.4581 45.3516L54.0114 38.7905ZM47.887 46.4651L52.9157 49.9953L45.0948 55.4852L47.887 46.4651ZM45.8228 80.7608H27.8169L26.3133 67.2445H47.3263L45.8228 80.7608ZM47.4645 66.0052H41.8381L44.3278 57.9626L52.7855 62.8989L47.4645 66.0052ZM54.0148 62.1814L45.1135 56.9863L53.9943 50.7524L62.8922 56.9989L54.0148 62.1814ZM55.2441 62.8989L63.6778 57.9755L64.92 61.9885L63.7809 67.8812L55.2441 62.8989ZM64.0159 73.1948L68.3585 50.7301H75.3349L79.6775 73.1948H64.0159Z" fill="#F57A00"/>
<path d="M38.2802 74.743H35.3588C35.0165 74.743 34.7392 74.4656 34.7392 74.1233C34.7392 73.781 35.0165 73.5037 35.3588 73.5037H38.2802C38.4445 73.5037 38.6021 73.569 38.7183 73.6852C38.8346 73.8014 38.8998 73.959 38.8998 74.1233C38.8998 74.2877 38.8346 74.4453 38.7183 74.5615C38.6021 74.6777 38.4445 74.743 38.2802 74.743ZM41.6276 54.7368C41.5423 54.7369 41.458 54.7194 41.3798 54.6853C41.3017 54.6513 41.2314 54.6014 41.1735 54.5388C39.2715 52.4914 36.6847 51.3102 33.8899 51.2126C31.0935 51.1152 28.4345 52.1124 26.396 54.0207C26.2757 54.1315 26.1166 54.1902 25.9532 54.1842C25.7898 54.1781 25.6355 54.1078 25.5237 53.9884C25.412 53.8691 25.352 53.7104 25.3567 53.547C25.3614 53.3836 25.4306 53.2287 25.549 53.116C27.8301 50.9808 30.8053 49.8654 33.9331 49.9741C37.0597 50.0832 39.9535 51.4047 42.0816 53.6952C42.4548 54.0704 42.1475 54.7546 41.6276 54.7368Z" fill="#F57A00"/>
<path d="M39.2613 56.9515C39.176 56.9517 39.0917 56.9342 39.0135 56.9001C38.9354 56.8661 38.8651 56.8162 38.8072 56.7536C37.4939 55.3399 35.7076 54.5242 33.7776 54.4568C31.8491 54.388 30.0107 55.0782 28.603 56.3958C28.4827 56.5066 28.3236 56.5654 28.1602 56.5593C27.9969 56.5533 27.8425 56.4829 27.7308 56.3636C27.619 56.2442 27.559 56.0856 27.5637 55.9221C27.5685 55.7587 27.6376 55.6038 27.756 55.4911C29.4062 53.9464 31.5596 53.1373 33.8209 53.2185C36.0825 53.2974 38.1758 54.2534 39.7151 55.9103C40.0885 56.2852 39.781 56.9694 39.2613 56.9515Z" fill="#F57A00"/>
<path d="M36.8951 59.1669C36.8098 59.167 36.7255 59.1495 36.6473 59.1155C36.5692 59.0814 36.4989 59.0315 36.441 58.969C35.7149 58.1873 34.7292 57.7366 33.6657 57.6994C32.6032 57.6632 31.5884 58.043 30.81 58.7714C30.6898 58.8822 30.5306 58.941 30.3673 58.9349C30.2039 58.9289 30.0495 58.8585 29.9378 58.7392C29.8261 58.6198 29.766 58.4612 29.7708 58.2977C29.7755 58.1343 29.8446 57.9794 29.9631 57.8667C30.9836 56.9115 32.3132 56.4116 33.7088 56.4608C35.1041 56.5097 36.3969 57.1007 37.3488 58.1255C37.7225 58.5005 37.415 59.1847 36.8951 59.1669ZM34.2553 59.7717C34.6303 60.1753 34.6083 60.8078 34.2061 61.1841C33.804 61.5605 33.1739 61.5385 32.7989 61.1348C32.4239 60.7312 32.4459 60.0987 32.8481 59.7224C33.2502 59.346 33.8803 59.368 34.2553 59.7717Z" fill="#F57A00"/>
<path d="M51.5474 74.299C51.8727 73.9955 51.8904 73.4858 51.587 73.1605C51.2835 72.8352 50.7738 72.8174 50.4484 73.1209C50.1231 73.4244 50.1054 73.9341 50.4089 74.2595C50.7123 74.5848 51.2221 74.6025 51.5474 74.299Z" fill="#F57A00"/>
<path d="M44.1128 40.2204C44.4382 39.9169 44.4559 39.4072 44.1524 39.0819C43.8489 38.7565 43.3392 38.7388 43.0139 39.0423C42.6885 39.3458 42.6708 39.8555 42.9743 40.1808C43.2778 40.5062 43.7875 40.5239 44.1128 40.2204Z" fill="#F57A00"/>
<path d="M65.0552 40.2204C65.3806 39.9169 65.3983 39.4072 65.0948 39.0819C64.7913 38.7565 64.2816 38.7388 63.9562 39.0423C63.6309 39.3458 63.6132 39.8555 63.9167 40.1808C64.2202 40.5062 64.7299 40.5239 65.0552 40.2204Z" fill="#F57A00"/>
</svg>
