<svg width="106" height="105" viewBox="0 0 106 105" fill="none" xmlns="http://www.w3.org/2000/svg">
<rect x="0.660778" y="0.660778" width="104.403" height="103.678" rx="51.8392" fill="#171717"/>
<rect x="0.660778" y="0.660778" width="104.403" height="103.678" rx="51.8392" stroke="#F57A00" stroke-width="1.32156"/>
<path d="M25.486 46.7533C24.8889 46.8501 24.3392 47.1377 23.9192 47.5731C23.4992 48.0084 23.2314 48.5681 23.156 49.1683C22.95 51.0355 22.948 52.9196 23.15 54.7872C23.2185 55.3965 23.4838 55.9668 23.9058 56.4117C24.3277 56.8565 24.8832 57.1516 25.488 57.2522L28.6699 57.7732C29.2808 60.3751 30.312 62.8601 31.7229 65.1301L29.8499 67.7461C29.1036 68.758 29.1217 70.1428 29.894 71.1351C30.4901 71.8644 31.1243 72.5617 31.7939 73.2241C32.408 73.8391 33.0869 74.4571 33.9019 75.142C34.3811 75.5105 34.967 75.7136 35.5714 75.7206C36.1759 75.7276 36.7663 75.5383 37.2539 75.181L39.8828 73.2951C42.1505 74.7057 44.6331 75.7372 47.2328 76.349L47.7548 79.536C47.8514 80.1333 48.139 80.6833 48.5743 81.1035C49.0097 81.5237 49.5694 81.7916 50.1698 81.867C50.7454 81.9317 51.323 81.976 51.9017 82H51.9867C52.5079 81.9996 53.0091 81.7991 53.3867 81.4399C53.581 81.2543 53.7355 81.0311 53.8409 80.7839C53.9462 80.5367 54.0003 80.2707 53.9997 80.002V71.988C53.9937 70.9172 53.1485 70.0394 52.0787 69.9931C42.5074 69.4934 35.0031 61.587 35.0031 52.0027C35.0031 42.4184 42.5074 34.5121 52.0787 34.0124C53.1502 33.9654 53.9959 33.085 53.9997 32.0124V24.0025C54.0004 23.7335 53.9464 23.4672 53.8408 23.2198C53.7353 22.9724 53.5804 22.7491 53.3856 22.5636C53.1913 22.3729 52.9595 22.2246 52.7049 22.128C52.4503 22.0314 52.1785 21.9887 51.9066 22.0025C51.3246 22.0255 50.7476 22.0675 50.1556 22.1275C49.5557 22.2048 48.9972 22.4751 48.5643 22.8975C48.1314 23.3199 47.8475 23.8716 47.7556 24.4695L47.2346 27.6534C44.6349 28.2656 42.1524 29.2975 39.8847 30.7084L37.2558 28.8264C36.7637 28.4666 36.1677 28.2772 35.5582 28.2869C34.9488 28.2967 34.3591 28.505 33.8788 28.8804C33.1538 29.4739 32.4599 30.1044 31.7999 30.7694C31.1196 31.4344 30.4792 32.1389 29.8819 32.8794C29.5105 33.3592 29.305 33.9467 29.2963 34.5534C29.2877 35.1601 29.4764 35.7532 29.8339 36.2434L31.7189 38.8754C30.3093 41.1452 29.2794 43.6298 28.6699 46.2313L25.486 46.7533ZM30.479 47.3112C31.0604 44.4868 32.1757 41.7994 33.765 39.3934C33.8762 39.2243 33.9336 39.0256 33.9295 38.8233C33.9254 38.621 33.86 38.4247 33.742 38.2603L31.4611 35.0754C31.3583 34.9398 31.3014 34.775 31.2987 34.6048C31.296 34.4347 31.3476 34.2682 31.4461 34.1294C31.9942 33.4501 32.5822 32.8039 33.207 32.1944C33.8139 31.5813 34.4514 30.9992 35.117 30.4504C35.2563 30.3441 35.4267 30.2866 35.602 30.2866C35.7772 30.2866 35.9476 30.3441 36.087 30.4504L39.267 32.7324C39.4316 32.8501 39.6279 32.9151 39.8302 32.9189C40.0325 32.9226 40.2312 32.8649 40.4 32.7534C42.8041 31.1635 45.4899 30.0478 48.313 29.4664C48.5112 29.4255 48.6924 29.3255 48.8326 29.1794C48.9728 29.0333 49.0653 28.8482 49.098 28.6484L49.7269 24.7974C49.749 24.6292 49.8244 24.4724 49.9421 24.3502C50.0598 24.228 50.2136 24.1467 50.381 24.1184C50.9193 24.0625 51.4592 24.0238 52 24.0024L51.978 32.0133C41.3316 32.5571 32.9802 41.3508 32.9861 52.011C32.9919 62.6713 41.3531 71.4558 52 71.9878L51.986 80.0018C51.4534 79.9796 50.9217 79.9386 50.392 79.8788C50.224 79.8542 50.0684 79.7758 49.9487 79.6554C49.829 79.5349 49.7516 79.3789 49.728 79.2107L49.098 75.3577C49.0653 75.158 48.9728 74.9728 48.8326 74.8268C48.6924 74.6807 48.5112 74.5806 48.313 74.5397C45.4899 73.9579 42.8041 72.8419 40.4 71.2518C40.2311 71.1404 40.0324 71.0829 39.8301 71.0868C39.6278 71.0907 39.4315 71.1559 39.267 71.2738L36.084 73.5578C35.9518 73.6606 35.7901 73.7185 35.6226 73.723C35.4551 73.7275 35.2906 73.6784 35.153 73.5828C34.418 72.9638 33.781 72.3828 33.207 71.8097C32.5939 71.2039 32.0121 70.5671 31.464 69.9018C31.359 69.7615 31.3022 69.591 31.3022 69.4158C31.3022 69.2405 31.359 69.07 31.464 68.9298L33.743 65.7478C33.8608 65.5833 33.926 65.387 33.93 65.1847C33.9339 64.9824 33.8764 64.7837 33.765 64.6148C32.1756 62.2091 31.0603 59.522 30.479 56.6979C30.4382 56.4998 30.3382 56.3187 30.1924 56.1785C30.0465 56.0384 29.8616 55.9457 29.662 55.9129L25.812 55.2818C25.6376 55.253 25.4774 55.1679 25.3559 55.0395C25.2344 54.9112 25.1582 54.7466 25.139 54.5709C24.9517 52.8508 24.9537 51.1155 25.145 49.3959C25.1692 49.2277 25.2473 49.0719 25.3676 48.9519C25.4878 48.8318 25.6437 48.7539 25.812 48.7299L29.6609 48.0999C29.8612 48.0671 30.0468 47.9741 30.193 47.8332C30.3391 47.6923 30.4389 47.5102 30.479 47.3112Z" fill="#F57A00"/>
<path d="M79.9995 49.0022C79.3813 49.0048 78.7789 49.1983 78.2749 49.5563C77.7708 49.9143 77.3896 50.4193 77.1835 51.0022H53.9998V48.0022H69.9996C71.6565 48.0022 72.9996 46.6591 72.9996 45.0022V39.8183C74.3771 39.3313 75.2034 37.9227 74.9563 36.4826C74.7092 35.0426 73.4606 33.99 71.9995 33.99C70.5385 33.99 69.2898 35.0426 69.0427 36.4826C68.7956 37.9227 69.6219 39.3313 70.9995 39.8183V45.0022C70.9995 45.5545 70.5518 46.0023 69.9994 46.0023H53.9998V43.0023H64.9996C65.5519 43.0023 65.9996 42.5546 65.9996 42.0022C65.9996 41.4499 65.5519 41.0022 64.9996 41.0022H53.9998V39.0022H59.9997C61.6566 39.0022 62.9998 37.6591 62.9998 36.0022V29.8184C64.3773 29.3314 65.2036 27.9228 64.9565 26.4827C64.7094 25.0427 63.4608 23.9901 61.9997 23.9901C60.5386 23.9901 59.29 25.0427 59.0429 26.4827C58.7958 27.9228 59.6221 29.3314 60.9997 29.8184V36.0024C60.9997 36.5546 60.552 37.0024 59.9996 37.0024H53.7357C53.5673 36.6894 53.3121 36.4316 53.0008 36.2599C52.6896 36.0882 52.3354 36.0099 51.9808 36.0345C43.5539 36.5682 36.9923 43.5585 36.9923 52.0023C36.9923 60.4461 43.5539 67.4364 51.9808 67.9702H52.0977C52.433 67.973 52.7626 67.8843 53.0512 67.7138C53.3398 67.5432 53.5765 67.2972 53.7357 67.0022H59.9996C60.5519 67.0022 60.9997 67.4499 60.9997 68.0023V74.1862C59.6221 74.6732 58.7958 76.0818 59.0429 77.5219C59.29 78.9619 60.5386 80.0146 61.9997 80.0146C63.4608 80.0146 64.7094 78.9619 64.9565 77.5219C65.2036 76.0818 64.3773 74.6732 62.9998 74.1862V68.0023C62.9998 66.3454 61.6567 65.0022 59.9997 65.0022H53.9998V63.0023H64.9996C65.5519 63.0023 65.9996 62.5546 65.9996 62.0023C65.9996 61.4501 65.5519 61.0023 64.9996 61.0023H53.9998V58.0024H69.9996C70.5519 58.0024 70.9997 58.4501 70.9997 59.0023V64.1862C69.6221 64.6732 68.7958 66.0818 69.0429 67.5219C69.29 68.9619 70.5386 70.0146 71.9997 70.0146C73.4608 70.0146 74.7094 68.9619 74.9565 67.5219C75.2036 66.0818 74.3773 64.6732 72.9998 64.1862V59.0023C72.9998 57.3455 71.6567 56.0024 69.9998 56.0024H53.9998V53.0022H77.1835C77.6945 54.4368 79.2007 55.2594 80.684 54.9141C82.1671 54.5688 83.1551 53.1654 82.98 51.6526C82.8048 50.14 81.5223 48.9995 79.9995 49.0022ZM71.9996 36.0024C72.5519 36.0024 72.9996 36.4501 72.9996 37.0024C72.9996 37.5548 72.5519 38.0025 71.9996 38.0025C71.4474 38.0025 70.9997 37.5548 70.9997 37.0024C70.9997 36.4501 71.4473 36.0024 71.9996 36.0024ZM61.9997 26.0025C62.552 26.0025 62.9998 26.4502 62.9998 27.0025C62.9998 27.5549 62.5521 28.0025 61.9997 28.0025C61.4474 28.0025 60.9998 27.5548 60.9998 27.0025C60.9998 26.4503 61.4474 26.0025 61.9997 26.0025ZM61.9997 78.002C61.4475 78.002 60.9998 77.5543 60.9998 77.0019C60.9998 76.4496 61.4475 76.0019 61.9997 76.0019C62.552 76.0019 62.9998 76.4496 62.9998 77.0019C62.9998 77.5543 62.552 78.002 61.9997 78.002ZM71.9996 68.0021C71.4474 68.0021 70.9997 67.5544 70.9997 67.002C70.9997 66.4497 71.4474 66.0021 71.9996 66.0021C72.5519 66.0021 72.9996 66.4498 72.9996 67.002C72.9996 67.5543 72.5519 68.0021 71.9996 68.0021ZM38.9999 52.0022C39.0083 44.6616 44.6786 38.571 51.9998 38.0384V65.9661C44.6786 65.4334 39.0083 59.3427 38.9999 52.0022ZM79.9995 53.0022C79.4473 53.0022 78.9995 52.5545 78.9995 52.0021C78.9995 51.4498 79.4472 51.0022 79.9995 51.0022C80.5519 51.0022 80.9996 51.4499 80.9996 52.0021C80.9996 52.5544 80.5518 53.0022 79.9995 53.0022Z" fill="#F57A00"/>
</svg>
