<svg width="70" height="68" viewBox="0 0 70 68" fill="none" xmlns="http://www.w3.org/2000/svg">
<path d="M14.9676 35.9915C14.9537 35.8575 14.9135 35.7276 14.8493 35.6092C14.7851 35.4908 14.6981 35.3863 14.5935 35.3015C14.4888 35.2167 14.3685 35.1535 14.2393 35.1153C14.1102 35.077 13.9747 35.0647 13.8408 35.0789C13.5704 35.1073 13.3223 35.242 13.1512 35.4533C12.98 35.6646 12.8998 35.9353 12.9282 36.2057C14.0962 47.3323 23.8175 56.0582 34.9998 56.0582C47.0874 56.0582 57.1933 45.9472 57.1933 33.8648C57.1933 21.7812 47.1026 11.6714 34.9998 11.6714C23.8195 11.6714 14.0965 20.3949 12.9282 31.5239C12.8998 31.7944 12.98 32.065 13.1512 32.2763C13.3223 32.4876 13.5704 32.6223 13.8408 32.6507C14.4048 32.7113 14.9086 32.3014 14.9676 31.7381C15.2498 29.0496 16.0484 26.5341 17.2589 24.2852H52.7152C55.9066 30.1636 55.9074 37.5648 52.7152 43.4446H17.2589C16.0483 41.1955 15.2498 38.68 14.9676 35.9915ZM33.9746 13.8434V22.2344H27.2204C28.8287 17.5441 31.3065 14.4759 33.9746 13.8434ZM36.0251 13.8434C38.6931 14.4759 41.1708 17.5441 42.7793 22.2344H36.0251V13.8434ZM29.157 14.5768C27.4989 16.3848 26.0901 18.9857 25.0609 22.2344H18.5279C21.0911 18.6013 24.8215 15.8801 29.157 14.5768ZM44.9386 22.2344C43.9118 18.9932 42.5072 16.3969 40.8541 14.5894C45.1729 15.9037 48.8813 18.6327 51.4371 22.2344H44.9386ZM36.0251 53.8861V45.4951H42.7793C41.1709 50.1852 38.6931 53.2536 36.0251 53.8861ZM33.9746 53.8861C31.3065 53.2536 28.8289 50.1853 27.2204 45.4951H33.9746V53.8861ZM40.8541 53.14C42.5072 51.3324 43.9118 48.7361 44.9386 45.4949H51.4371C48.8813 49.0967 45.1729 51.8258 40.8541 53.14ZM25.0611 45.4951C26.0901 48.7438 27.499 51.3447 29.1571 53.1527C24.8217 51.8493 21.0911 49.1282 18.5281 45.4951H25.0611Z" fill="#F57A00"/>
<path d="M69.0152 31.2119L65.1124 25.6646C64.7032 25.0823 64.493 24.4004 64.5044 23.6912L64.607 16.9078C64.6265 15.7689 64.2837 14.6532 63.6281 13.7217C62.9725 12.7902 62.0379 12.091 60.9592 11.7251L54.5405 9.53058C53.8721 9.30365 53.2935 8.86933 52.889 8.29081L48.986 2.74468C48.3322 1.81177 47.3991 1.11053 46.3212 0.74199C45.2433 0.373455 44.0762 0.356663 42.9881 0.694033L37.3215 2.44103C37.0648 2.5238 36.8511 2.70433 36.7266 2.94353C36.6021 3.18273 36.5769 3.46134 36.6563 3.71902C36.7358 3.97671 36.9135 4.19273 37.1511 4.3203C37.3887 4.44787 37.6669 4.47673 37.9256 4.40062L43.5919 2.65376C44.2663 2.44474 44.9896 2.4552 45.6576 2.68363C46.3256 2.91206 46.9039 3.34667 47.3091 3.92483L51.2118 9.47083C51.8714 10.409 52.7933 11.1008 53.8776 11.4713L60.2967 13.6659C60.965 13.8926 61.5441 14.3257 61.9504 14.9028C62.3566 15.48 62.569 16.1712 62.5569 16.8769L62.4544 23.6592C62.4358 24.8034 62.7748 25.9046 63.4353 26.8442L67.3382 32.3916C67.7453 32.9682 67.9588 33.6592 67.9481 34.3649C67.9374 35.0707 67.703 35.7548 67.2786 36.3189L63.2093 41.7455C62.5213 42.6612 62.1487 43.7516 62.1317 44.8981L62.0278 51.6818C62.0186 52.3874 61.7855 53.0718 61.3621 53.6364C60.9388 54.2009 60.347 54.6164 59.6723 54.8229L53.1892 56.8216C52.0922 57.1601 51.1499 57.8238 50.4648 58.7392L46.3952 64.1648C45.9725 64.7304 45.3812 65.1473 44.7064 65.3553C44.0316 65.5633 43.3082 65.5518 42.6404 65.3222L36.2218 63.128C35.139 62.7581 33.9874 62.7403 32.8908 63.0773L26.4084 65.0759C25.7341 65.285 25.0108 65.2746 24.3427 65.0462C23.6747 64.8177 23.0964 64.3831 22.6913 63.8048L18.7886 58.2588C18.129 57.3206 17.2071 56.6288 16.1228 56.2583L9.70373 54.0637C9.03536 53.837 8.45628 53.4039 8.05004 52.8268C7.6438 52.2497 7.4314 51.5584 7.4435 50.8527L7.54604 44.0704C7.56463 42.9262 7.22557 41.8251 6.56508 40.8854L2.66217 35.338C2.25511 34.7614 2.04157 34.0704 2.05228 33.3647C2.06299 32.6589 2.29741 31.9748 2.72178 31.4108L6.7908 25.9843C7.47877 25.0685 7.85147 23.9782 7.86842 22.8317L7.97233 16.048C7.98155 15.3424 8.21465 14.6579 8.63801 14.0934C9.06137 13.5288 9.6531 13.1134 10.3279 12.9068L16.8109 10.9082C17.908 10.5696 18.8502 9.90601 19.5353 8.99054L23.6049 3.56499C24.0276 2.99934 24.619 2.58248 25.2938 2.37447C25.9686 2.16646 26.6921 2.17803 27.3599 2.40753L32.8241 4.27497C32.9515 4.31853 33.0863 4.33656 33.2206 4.32804C33.355 4.31952 33.4864 4.28461 33.6073 4.22531C33.7282 4.16601 33.8362 4.08348 33.9252 3.98242C34.0142 3.88137 34.0824 3.76378 34.1259 3.63636C34.2139 3.37902 34.196 3.09729 34.0762 2.85315C33.9564 2.60901 33.7445 2.42246 33.4872 2.33452L28.0232 0.46708C25.8067 -0.290479 23.3721 0.459423 21.9647 2.33411L17.8941 7.76103C17.4699 8.32814 16.8863 8.73884 16.2066 8.94857L9.72424 10.9471C7.48561 11.6363 5.95764 13.6736 5.92195 16.0165L5.81805 22.8006C5.80929 23.5059 5.57549 24.1899 5.15072 24.753L1.08102 30.1806C0.39621 31.0907 0.0179176 32.1946 0.000620726 33.3334C-0.0166762 34.4723 0.327915 35.5872 0.984766 36.5176L4.88754 42.0649C5.29674 42.6472 5.50701 43.3291 5.49553 44.0383L5.39299 50.8217C5.37348 51.9606 5.71626 53.0763 6.37188 54.0078C7.02751 54.9393 7.96208 55.6385 9.04078 56.0044L15.4595 58.1989C16.1279 58.4258 16.7065 58.8602 17.111 59.4387L21.0139 64.9848C21.6676 65.9179 22.6007 66.6193 23.6787 66.9879C24.7566 67.3565 25.9238 67.3732 27.0119 67.0357L33.4938 65.0373C34.1678 64.8283 34.8908 64.8392 35.5582 65.0685L41.9767 67.2624C44.0679 67.9772 46.7057 67.1666 48.0353 65.3954L52.1058 59.9685C52.5301 59.4014 53.1137 58.9907 53.7934 58.7809L60.2757 56.7824C62.5144 56.0932 64.0423 54.0559 64.078 51.713L64.1819 44.9289C64.1907 44.2236 64.4245 43.5396 64.8493 42.9765L68.9191 37.549C69.6039 36.6389 69.9821 35.5349 69.9994 34.3961C70.0167 33.2573 69.6721 32.1423 69.0152 31.2119Z" fill="#F57A00"/>
<path d="M60.4393 32.6525C60.7102 32.6288 60.9606 32.4985 61.1354 32.2903C61.3102 32.082 61.3951 31.8128 61.3714 31.5419C60.798 24.9785 57.7982 18.8904 52.9243 14.3992C48.0211 9.88074 41.6554 7.39246 35 7.39246C20.4031 7.39246 8.52759 19.2678 8.52759 33.8648C8.52759 48.4617 20.4031 60.3372 35 60.3372C48.5184 60.3372 60.1939 49.6693 61.3716 36.1879C61.3952 35.917 61.3103 35.6478 61.1355 35.4396C60.9607 35.2313 60.7103 35.101 60.4394 35.0773C60.3053 35.0655 60.1701 35.0803 60.0416 35.1208C59.9132 35.1612 59.794 35.2266 59.6908 35.3132C59.5877 35.3998 59.5026 35.5059 59.4405 35.6254C59.3783 35.7449 59.3404 35.8754 59.3287 36.0096C58.2374 48.5012 47.5511 58.2866 35 58.2866C21.5338 58.2866 10.5782 47.331 10.5782 33.8649C10.5782 20.3988 21.5338 9.4431 35 9.4431C47.5511 9.4431 58.2374 19.2283 59.3286 31.7202C59.3779 32.2844 59.8745 32.7027 60.4393 32.6525Z" fill="#F57A00"/>
<path d="M22.8412 39.173V28.5567C22.8368 28.2876 22.7268 28.0311 22.535 27.8424C22.3432 27.6538 22.085 27.548 21.8159 27.548C21.5469 27.548 21.2886 27.6538 21.0968 27.8424C20.905 28.0311 20.795 28.2876 20.7906 28.5567V39.173C20.795 39.442 20.905 39.6985 21.0968 39.8872C21.2886 40.0759 21.5469 40.1816 21.8159 40.1816C22.085 40.1816 22.3432 40.0759 22.535 39.8872C22.7268 39.6985 22.8368 39.442 22.8412 39.173ZM30.1134 38.1476C28.9745 38.1476 27.8756 37.6851 27.1736 36.9107C26.99 36.7131 26.736 36.5957 26.4664 36.5841C26.1969 36.5725 25.9337 36.6676 25.7338 36.8487C25.5339 37.0299 25.4134 37.2825 25.3985 37.5519C25.3836 37.8213 25.4755 38.0856 25.6541 38.2877C26.7382 39.484 28.4053 40.1984 30.1134 40.1984C32.1706 40.1984 33.9634 38.846 34.2836 37.0525C34.5264 35.6924 33.8938 33.9101 31.39 32.9867C30.0369 32.4876 28.7809 31.9429 28.4492 31.7973C28.1387 31.5658 27.9883 31.1987 28.0452 30.8018C28.1184 30.2924 28.5132 29.8824 29.1012 29.7052C30.7579 29.2062 32.2625 30.4051 32.301 30.4361C32.5094 30.6095 32.7779 30.6933 33.0478 30.6693C33.3178 30.6452 33.5673 30.5153 33.7417 30.3079C33.9167 30.0997 34.0019 29.8306 33.9784 29.5596C33.9549 29.2887 33.8248 29.0382 33.6167 28.8632C33.5216 28.7832 31.2562 26.9138 28.5098 27.7417C27.1579 28.149 26.2021 29.2099 26.0155 30.5105C25.8415 31.7235 26.3669 32.8901 27.3869 33.5551C27.4322 33.5846 27.4798 33.6105 27.5291 33.6325C27.5902 33.6597 29.0433 34.3064 30.6805 34.9104C31.815 35.3289 32.3925 35.9782 32.265 36.6918C32.1372 37.4076 31.2975 38.1476 30.1134 38.1476ZM49.2094 33.8648C49.2094 30.3724 46.3683 27.5313 42.8761 27.5313C39.3839 27.5313 36.5427 30.3724 36.5427 33.8648C36.5427 37.3571 39.3839 40.1983 42.8761 40.1983C46.3683 40.1983 49.2094 37.3571 49.2094 33.8648ZM38.5932 33.8648C38.5932 31.5032 40.5145 29.5819 42.8759 29.5819C45.2373 29.5819 47.1588 31.5032 47.1588 33.8648C47.1588 36.2263 45.2375 38.1476 42.8759 38.1476C40.5144 38.1476 38.5932 36.2264 38.5932 33.8648Z" fill="#F57A00"/>
</svg>
