<svg width="86" height="61" viewBox="0 0 86 61" fill="none" xmlns="http://www.w3.org/2000/svg">
<path d="M83.6905 5.4879H30.1835C29.8196 5.4879 29.4706 5.63245 29.2133 5.88975C28.956 6.14704 28.8115 6.49601 28.8115 6.85988C28.8115 7.22375 28.956 7.57272 29.2133 7.83001C29.4706 8.08731 29.8196 8.23185 30.1835 8.23185H82.3186V49.3911H39.7873C39.7873 47.9356 39.2091 46.5398 38.1799 45.5106C37.1507 44.4814 35.7549 43.9032 34.2994 43.9032C32.8439 43.9032 31.448 44.4814 30.4189 45.5106C29.3897 46.5398 28.8115 47.9356 28.8115 49.3911H21.9516V8.23185H24.6956C25.0594 8.23185 25.4084 8.08731 25.6657 7.83001C25.923 7.57272 26.0675 7.22375 26.0675 6.85988C26.0675 6.49601 25.923 6.14704 25.6657 5.88975C25.4084 5.63245 25.0594 5.4879 24.6956 5.4879H21.9516C21.9501 4.03289 21.3714 2.63792 20.3425 1.60907C19.3137 0.580227 17.9187 0.00154349 16.4637 0H4.11593C3.02432 0 1.97741 0.433641 1.20553 1.20553C0.433641 1.97741 0 3.02432 0 4.11593C0 5.20754 0.433641 6.25444 1.20553 7.02633C1.97741 7.79821 3.02432 8.23185 4.11593 8.23185H13.7198V48.0192C13.7198 48.383 13.8643 48.732 14.1216 48.9893C14.3789 49.2466 14.7279 49.3911 15.0917 49.3911C15.4556 49.3911 15.8046 49.2466 16.0619 48.9893C16.3192 48.732 16.4637 48.383 16.4637 48.0192V6.85988C16.4637 6.49601 16.3192 6.14704 16.0619 5.88975C15.8046 5.63245 15.4556 5.4879 15.0917 5.4879H4.11593C3.75206 5.4879 3.40309 5.34336 3.14579 5.08606C2.8885 4.82876 2.74395 4.4798 2.74395 4.11593C2.74395 3.75206 2.8885 3.40309 3.14579 3.14579C3.40309 2.8885 3.75206 2.74395 4.11593 2.74395H16.4637C17.1912 2.74481 17.8886 3.03419 18.403 3.54859C18.9174 4.06299 19.2068 4.76043 19.2077 5.4879V56.251C19.2077 56.6149 19.0631 56.9638 18.8058 57.2211C18.5485 57.4784 18.1996 57.623 17.8357 57.623C17.4718 57.623 17.1228 57.4784 16.8656 57.2211C16.6083 56.9638 16.4637 56.6149 16.4637 56.251V53.5071C16.4637 53.1432 16.3192 52.7942 16.0619 52.5369C15.8046 52.2796 15.4556 52.1351 15.0917 52.1351C14.7279 52.1351 14.3789 52.2796 14.1216 52.5369C13.8643 52.7942 13.7198 53.1432 13.7198 53.5071V56.251C13.7198 57.3426 14.1534 58.3895 14.9253 59.1614C15.6972 59.9333 16.7441 60.3669 17.8357 60.3669C18.9273 60.3669 19.9742 59.9333 20.7461 59.1614C21.518 58.3895 21.9516 57.3426 21.9516 56.251V52.1351H30.1835C30.5473 52.1351 30.8963 51.9905 31.1536 51.7332C31.4109 51.4759 31.5554 51.127 31.5554 50.7631V49.3911C31.5554 48.6634 31.8445 47.9655 32.3591 47.4509C32.8737 46.9363 33.5717 46.6472 34.2994 46.6472C35.0271 46.6472 35.7251 46.9363 36.2397 47.4509C36.7542 47.9655 37.0433 48.6634 37.0433 49.3911V50.7631C37.0433 51.127 37.1879 51.4759 37.4452 51.7332C37.7025 51.9905 38.0515 52.1351 38.4153 52.1351H43.9032V54.879C43.9044 55.9703 44.3385 57.0165 45.1101 57.7881C45.8817 58.5597 46.9279 58.9937 48.0192 58.995H78.2026C79.2939 58.9937 80.34 58.5597 81.1117 57.7881C81.8833 57.0165 82.3173 55.9703 82.3186 54.879V52.1351H83.6905C84.0544 52.1351 84.4034 51.9905 84.6607 51.7332C84.918 51.4759 85.0625 51.127 85.0625 50.7631V6.85988C85.0625 6.49601 84.918 6.14704 84.6607 5.88975C84.4034 5.63245 84.0544 5.4879 83.6905 5.4879ZM79.5746 54.879C79.5742 55.2428 79.4296 55.5915 79.1723 55.8488C78.9151 56.106 78.5664 56.2506 78.2026 56.251H48.0192C47.6554 56.2506 47.3066 56.106 47.0494 55.8488C46.7922 55.5915 46.6475 55.2428 46.6472 54.879V52.1351H50.7631V53.5071C50.7631 53.8709 50.9076 54.2199 51.1649 54.4772C51.4222 54.7345 51.7712 54.879 52.1351 54.879C52.499 54.879 52.8479 54.7345 53.1052 54.4772C53.3625 54.2199 53.5071 53.8709 53.5071 53.5071V52.1351H56.251V53.5071C56.251 53.8709 56.3956 54.2199 56.6528 54.4772C56.9101 54.7345 57.2591 54.879 57.623 54.879C57.9869 54.879 58.3358 54.7345 58.5931 54.4772C58.8504 54.2199 58.995 53.8709 58.995 53.5071V52.1351H61.7389V53.5071C61.7389 53.8709 61.8835 54.2199 62.1408 54.4772C62.398 54.7345 62.747 54.879 63.1109 54.879C63.4748 54.879 63.8237 54.7345 64.081 54.4772C64.3383 54.2199 64.4829 53.8709 64.4829 53.5071V52.1351H67.2268V53.5071C67.2268 53.8709 67.3714 54.2199 67.6287 54.4772C67.8859 54.7345 68.2349 54.879 68.5988 54.879C68.9627 54.879 69.3116 54.7345 69.5689 54.4772C69.8262 54.2199 69.9708 53.8709 69.9708 53.5071V52.1351H72.7147V53.5071C72.7147 53.8709 72.8593 54.2199 73.1166 54.4772C73.3739 54.7345 73.7228 54.879 74.0867 54.879C74.4506 54.879 74.7995 54.7345 75.0568 54.4772C75.3141 54.2199 75.4587 53.8709 75.4587 53.5071V52.1351H79.5746V54.879Z" fill="#F57A00"/>
<path d="M41.1594 12.3477C41.1594 11.9838 41.0148 11.6348 40.7575 11.3775C40.5003 11.1203 40.1513 10.9757 39.7874 10.9757H26.0677C25.7038 10.9757 25.3548 11.1203 25.0975 11.3775C24.8402 11.6348 24.6957 11.9838 24.6957 12.3477V17.8356C24.6957 18.1995 24.8402 18.5484 25.0975 18.8057C25.3548 19.063 25.7038 19.2076 26.0677 19.2076H39.7874C40.1513 19.2076 40.5003 19.063 40.7575 18.8057C41.0148 18.5484 41.1594 18.1995 41.1594 17.8356V12.3477ZM38.4154 16.4636H27.4396V13.7197H38.4154V16.4636ZM41.1594 23.3235C41.1594 22.9596 41.0148 22.6107 40.7575 22.3534C40.5003 22.0961 40.1513 21.9515 39.7874 21.9515H34.2995C33.9356 21.9515 33.5867 22.0961 33.3294 22.3534C33.0721 22.6107 32.9275 22.9596 32.9275 23.3235C32.9275 23.6874 33.0721 24.0363 33.3294 24.2936C33.5867 24.5509 33.9356 24.6955 34.2995 24.6955H38.4154V27.4394H27.4396V24.6955H28.8116C29.1755 24.6955 29.5244 24.5509 29.7817 24.2936C30.039 24.0363 30.1836 23.6874 30.1836 23.3235C30.1836 22.9596 30.039 22.6107 29.7817 22.3534C29.5244 22.0961 29.1755 21.9515 28.8116 21.9515H26.0677C25.7038 21.9515 25.3548 22.0961 25.0975 22.3534C24.8402 22.6107 24.6957 22.9596 24.6957 23.3235V28.8114C24.6957 29.1753 24.8402 29.5242 25.0975 29.7815C25.3548 30.0388 25.7038 30.1834 26.0677 30.1834H39.7874C40.1513 30.1834 40.5003 30.0388 40.7575 29.7815C41.0148 29.5242 41.1594 29.1753 41.1594 28.8114V23.3235ZM39.7874 32.9273H26.0677C25.7038 32.9273 25.3548 33.0719 25.0975 33.3292C24.8402 33.5865 24.6957 33.9354 24.6957 34.2993V39.7872C24.6957 40.1511 24.8402 40.5 25.0975 40.7573C25.3548 41.0146 25.7038 41.1592 26.0677 41.1592H39.7874C40.1513 41.1592 40.5003 41.0146 40.7575 40.7573C41.0148 40.5 41.1594 40.1511 41.1594 39.7872V34.2993C41.1594 33.9354 41.0148 33.5865 40.7575 33.3292C40.5003 33.0719 40.1513 32.9273 39.7874 32.9273ZM38.4154 38.4152H27.4396V35.6713H38.4154V38.4152ZM48.0193 34.2993C47.6554 34.2993 47.3064 34.4438 47.0491 34.7011C46.7918 34.9584 46.6473 35.3074 46.6473 35.6713C46.6473 36.0351 46.7918 36.3841 47.0491 36.6414C47.3064 36.8987 47.6554 37.0433 48.0193 37.0433H49.3912V39.7872C49.3912 40.1511 49.5358 40.5 49.7931 40.7573C50.0504 41.0146 50.3993 41.1592 50.7632 41.1592H53.5072V42.5312C53.5072 42.895 53.6517 43.244 53.909 43.5013C54.1663 43.7586 54.5153 43.9031 54.8791 43.9031C55.243 43.9031 55.592 43.7586 55.8493 43.5013C56.1066 43.244 56.2511 42.895 56.2511 42.5312V41.1592H58.9951V42.5312C58.9951 42.895 59.1396 43.244 59.3969 43.5013C59.6542 43.7586 60.0032 43.9031 60.3671 43.9031C60.7309 43.9031 61.0799 43.7586 61.3372 43.5013C61.5945 43.244 61.739 42.895 61.739 42.5312V41.1592H64.483V42.5312C64.483 42.895 64.6275 43.244 64.8848 43.5013C65.1421 43.7586 65.4911 43.9031 65.855 43.9031C66.2188 43.9031 66.5678 43.7586 66.8251 43.5013C67.0824 43.244 67.2269 42.895 67.2269 42.5312V41.1592H69.9709V42.5312C69.9709 42.895 70.1154 43.244 70.3727 43.5013C70.63 43.7586 70.979 43.9031 71.3429 43.9031C71.7067 43.9031 72.0557 43.7586 72.313 43.5013C72.5703 43.244 72.7148 42.895 72.7148 42.5312V41.1592H75.4588C75.8227 41.1592 76.1716 41.0146 76.4289 40.7573C76.6862 40.5 76.8308 40.1511 76.8308 39.7872V37.0433H78.2027C78.5666 37.0433 78.9156 36.8987 79.1729 36.6414C79.4302 36.3841 79.5747 36.0351 79.5747 35.6713C79.5747 35.3074 79.4302 34.9584 79.1729 34.7011C78.9156 34.4438 78.5666 34.2993 78.2027 34.2993H76.8308V31.5553H78.2027C78.5666 31.5553 78.9156 31.4108 79.1729 31.1535C79.4302 30.8962 79.5747 30.5472 79.5747 30.1834C79.5747 29.8195 79.4302 29.4705 79.1729 29.2132C78.9156 28.9559 78.5666 28.8114 78.2027 28.8114H76.8308V26.0674H78.2027C78.5666 26.0674 78.9156 25.9229 79.1729 25.6656C79.4302 25.4083 79.5747 25.0593 79.5747 24.6955C79.5747 24.3316 79.4302 23.9826 79.1729 23.7253C78.9156 23.468 78.5666 23.3235 78.2027 23.3235H76.8308V20.5795H78.2027C78.5666 20.5795 78.9156 20.435 79.1729 20.1777C79.4302 19.9204 79.5747 19.5714 79.5747 19.2076C79.5747 18.8437 79.4302 18.4947 79.1729 18.2374C78.9156 17.9801 78.5666 17.8356 78.2027 17.8356H76.8308V15.0916C76.8308 14.7278 76.6862 14.3788 76.4289 14.1215C76.1716 13.8642 75.8227 13.7197 75.4588 13.7197H72.7148V12.3477C72.7148 11.9838 72.5703 11.6348 72.313 11.3775C72.0557 11.1203 71.7067 10.9757 71.3429 10.9757C70.979 10.9757 70.63 11.1203 70.3727 11.3775C70.1154 11.6348 69.9709 11.9838 69.9709 12.3477V13.7197H67.2269V12.3477C67.2269 11.9838 67.0824 11.6348 66.8251 11.3775C66.5678 11.1203 66.2188 10.9757 65.855 10.9757C65.4911 10.9757 65.1421 11.1203 64.8848 11.3775C64.6275 11.6348 64.483 11.9838 64.483 12.3477V13.7197H61.739V12.3477C61.739 11.9838 61.5945 11.6348 61.3372 11.3775C61.0799 11.1203 60.7309 10.9757 60.3671 10.9757C60.0032 10.9757 59.6542 11.1203 59.3969 11.3775C59.1396 11.6348 58.9951 11.9838 58.9951 12.3477V13.7197H56.2511V12.3477C56.2511 11.9838 56.1066 11.6348 55.8493 11.3775C55.592 11.1203 55.243 10.9757 54.8791 10.9757C54.5153 10.9757 54.1663 11.1203 53.909 11.3775C53.6517 11.6348 53.5072 11.9838 53.5072 12.3477V13.7197H50.7632C50.3993 13.7197 50.0504 13.8642 49.7931 14.1215C49.5358 14.3788 49.3912 14.7278 49.3912 15.0916V17.8356H48.0193C47.6554 17.8356 47.3064 17.9801 47.0491 18.2374C46.7918 18.4947 46.6473 18.8437 46.6473 19.2076C46.6473 19.5714 46.7918 19.9204 47.0491 20.1777C47.3064 20.435 47.6554 20.5795 48.0193 20.5795H49.3912V23.3235H48.0193C47.6554 23.3235 47.3064 23.468 47.0491 23.7253C46.7918 23.9826 46.6473 24.3316 46.6473 24.6955C46.6473 25.0593 46.7918 25.4083 47.0491 25.6656C47.3064 25.9229 47.6554 26.0674 48.0193 26.0674H49.3912V28.8114H48.0193C47.6554 28.8114 47.3064 28.9559 47.0491 29.2132C46.7918 29.4705 46.6473 29.8195 46.6473 30.1834C46.6473 30.5472 46.7918 30.8962 47.0491 31.1535C47.3064 31.4108 47.6554 31.5553 48.0193 31.5553H49.3912V34.2993H48.0193ZM52.1352 16.4636H74.0868V38.4152H52.1352V16.4636Z" fill="#F57A00"/>
<path d="M56.251 35.6712H69.9708C70.3346 35.6712 70.6836 35.5267 70.9409 35.2694C71.1982 35.0121 71.3427 34.6631 71.3427 34.2993V30.1833C71.3427 29.8195 71.1982 29.4705 70.9409 29.2132C70.6836 28.9559 70.3346 28.8114 69.9708 28.8114C69.6069 28.8114 69.2579 28.9559 69.0006 29.2132C68.7433 29.4705 68.5988 29.8195 68.5988 30.1833V32.9273H57.623V21.9515H68.5988V24.6954C68.5988 25.0593 68.7433 25.4083 69.0006 25.6656C69.2579 25.9229 69.6069 26.0674 69.9708 26.0674C70.3346 26.0674 70.6836 25.9229 70.9409 25.6656C71.1982 25.4083 71.3427 25.0593 71.3427 24.6954V20.5795C71.3427 20.2156 71.1982 19.8667 70.9409 19.6094C70.6836 19.3521 70.3346 19.2075 69.9708 19.2075H56.251C55.8871 19.2075 55.5382 19.3521 55.2809 19.6094C55.0236 19.8667 54.879 20.2156 54.879 20.5795V34.2993C54.879 34.6631 55.0236 35.0121 55.2809 35.2694C55.5382 35.5267 55.8871 35.6712 56.251 35.6712Z" fill="#F57A00"/>
</svg>
