<svg width="72" height="72" viewBox="0 0 72 72" fill="none" xmlns="http://www.w3.org/2000/svg">
<path d="M55.9186 11.2436H68.1545C69.7195 11.2436 71 12.524 71 14.0891V56.772C71 58.337 69.7195 59.6175 68.1545 59.6175H3.84552C2.28048 59.6175 1 58.3371 1 56.772V14.0889C1 12.5239 2.28048 11.2434 3.84552 11.2434H16.0814M24.6179 70.9998H47.3821M27.4745 70.9589L29.0797 59.6585M44.5255 70.9589L42.9203 59.6585M1.71138 53.2149H70.2885" stroke="#F57A00" stroke-width="2" stroke-miterlimit="22.9256" stroke-linecap="round" stroke-linejoin="round"/>
<path d="M48.8761 23.6926C48.8761 25.2576 47.5956 26.5381 46.0306 26.5381C44.4655 26.5381 43.185 25.2576 43.185 23.6926V18.0015C43.185 16.4365 44.4655 15.156 46.0306 15.156C47.5956 15.156 48.8761 16.4365 48.8761 18.0015M27.7451 15.681L26.9886 15.3677C25.5678 14.7794 23.9241 15.4601 23.3356 16.8808C22.7472 18.3015 23.4281 19.9452 24.8486 20.5336L25.6052 20.8469L26.3618 21.1602C27.7823 21.7487 28.4633 23.3924 27.8748 24.813C27.2865 26.2338 25.6426 26.9146 24.222 26.3261L23.4655 26.0128M35.3598 15.156C36.9249 15.156 38.2054 16.4365 38.2054 18.0014V23.6926C38.2054 25.2576 36.9249 26.5381 35.3598 26.5381C33.7948 26.5381 32.5144 25.2576 32.5144 23.6926V18.0014C32.5144 16.4365 33.7949 15.156 35.3598 15.156Z" stroke="#F57A00" stroke-width="2" stroke-miterlimit="22.9256" stroke-linecap="round" stroke-linejoin="round"/>
<path d="M23.195 4.1295V1M29.5974 4.1295V1M35.9998 4.1295V1M42.4021 4.1295V1M48.8045 4.1295V1M16.0814 30.4507H12.9513M16.0814 24.0483H12.9513M16.0814 17.646H12.9513M48.8048 37.5645V40.6944M42.4025 37.5645V40.6944M36.0001 37.5645V40.6944M29.5977 37.5645V40.6944M23.1954 37.5645V40.6945M59.0487 30.4507H55.9186M59.0487 17.646H55.9186M59.0487 24.0483H55.9186M16.7927 4.84088H55.2072V36.8531H16.7927V4.84088Z" stroke="#F57A00" stroke-width="2" stroke-miterlimit="22.9256" stroke-linecap="round" stroke-linejoin="round"/>
</svg>
