<svg width="393" height="301" viewBox="0 0 393 301" fill="none" xmlns="http://www.w3.org/2000/svg">
<g clip-path="url(#clip0_1131_42375)">
<path d="M164.201 45.0917L156.024 41.523C155.384 37.3694 154.104 33.3035 152.125 29.5008L156.635 21.7785C156.781 21.5152 156.752 21.1642 156.548 20.9302L149.594 12.7399C149.39 12.5059 149.07 12.4181 148.779 12.5351L140.486 15.8112C137.023 13.2664 133.241 11.3358 129.254 10.078L127.014 1.39042C126.926 1.09791 126.664 0.863902 126.344 0.834651L115.694 0.015618C115.374 -0.0136332 115.083 0.161874 114.967 0.454386L111.417 8.67396C107.285 9.31749 103.24 10.6045 99.4576 12.5936L91.7757 8.05969C91.5138 7.91343 91.1646 7.94268 90.9318 8.14744L82.7843 15.1385C82.5515 15.3432 82.4642 15.665 82.5806 15.9575L85.8396 24.2941C83.3081 27.775 81.3876 31.5776 80.1364 35.585L71.4942 37.8374C71.2032 37.9251 70.9705 38.1884 70.9414 38.5102L70.0975 49.2453C70.0684 49.5671 70.243 49.8596 70.534 49.9766L78.7106 53.5453C79.3507 57.6989 80.6311 61.7648 82.6097 65.5675L78.0995 73.2898C77.954 73.5531 77.9831 73.9041 78.1868 74.1381L85.1413 82.3284C85.345 82.5624 85.665 82.6502 85.956 82.5332L94.249 79.257C97.7117 81.8019 101.494 83.7325 105.481 84.9903L107.721 93.6779C107.809 93.9704 108.071 94.2044 108.362 94.2336L119.041 95.0819C119.361 95.1112 119.652 94.9357 119.768 94.6432L123.318 86.4236C127.45 85.7801 131.495 84.493 135.277 82.5039L142.959 87.0378C143.221 87.1841 143.57 87.1549 143.803 86.9501L151.951 79.9591C152.183 79.7543 152.271 79.4325 152.154 79.14L148.895 70.8035C151.427 67.3226 153.347 63.5199 154.599 59.5125L163.241 57.2602C163.532 57.1724 163.765 56.9091 163.794 56.6166L164.637 45.8815C164.667 45.5304 164.492 45.2379 164.201 45.0917ZM125.704 53.4575C124.133 55.6806 121.776 57.1724 119.099 57.6404C118.517 57.7282 117.935 57.7867 117.353 57.7867C115.258 57.7867 113.221 57.1432 111.504 55.9146C106.907 52.6385 105.83 46.2325 109.06 41.64C110.631 39.4169 112.988 37.9251 115.665 37.4571C118.342 36.9891 121.048 37.6034 123.26 39.1829C125.471 40.7625 126.955 43.1318 127.421 45.823C127.886 48.5141 127.275 51.2052 125.704 53.4575Z" fill="url(#paint0_linear_1131_42375)"/>
<path d="M127.421 45.7937C126.955 43.1026 125.471 40.7333 123.26 39.1537C121.048 37.5742 118.342 36.9599 115.665 37.4279C112.988 37.8959 110.631 39.3877 109.06 41.6108C105.83 46.2325 106.907 52.6385 111.504 55.8854C113.25 57.1139 115.287 57.7575 117.353 57.7575C117.935 57.7575 118.517 57.699 119.099 57.6112C121.776 57.1432 124.133 55.6514 125.704 53.4283C127.275 51.2052 127.886 48.5141 127.421 45.7937ZM124.569 52.6678C123.202 54.5983 121.194 55.8854 118.866 56.2949C116.538 56.7044 114.21 56.1486 112.29 54.8031C108.333 51.9657 107.372 46.4373 110.195 42.4591C111.562 40.5285 113.57 39.2415 115.898 38.832C116.393 38.7442 116.916 38.7149 117.411 38.7149C118.313 38.7149 119.215 38.8612 120.059 39.1245C120.903 39.3877 121.718 39.7972 122.474 40.353C124.395 41.7278 125.675 43.7461 126.082 46.0862C126.461 48.3678 125.937 50.7079 124.569 52.6678Z" fill="white"/>
<path d="M145.869 42.6345C144.56 34.9999 140.37 28.3014 134.084 23.826C127.77 19.3213 120.117 17.5955 112.523 18.9118C104.899 20.2281 98.2645 24.4403 93.7834 30.7585C84.5884 43.8338 87.6728 61.9988 100.68 71.2714C105.597 74.7815 111.388 76.6244 117.295 76.6244C118.924 76.6244 120.583 76.4781 122.241 76.1856C129.836 74.8985 136.5 70.6571 140.952 64.3389C145.433 57.9914 147.179 50.2691 145.869 42.6345ZM137.809 62.0573C133.939 67.5273 128.207 71.1836 121.601 72.3244C115.025 73.436 108.391 71.9442 102.92 68.0538C91.6593 60.039 88.9822 44.3311 96.9551 33.0109C100.825 27.5116 106.558 23.8845 113.163 22.7437C114.589 22.5097 116.014 22.3927 117.44 22.3927C120.001 22.3927 122.532 22.773 124.977 23.5627C127.392 24.3525 129.72 25.4933 131.844 27.0144C137.314 30.9048 140.922 36.6673 142.057 43.3073C143.163 49.918 141.65 56.5581 137.809 62.0573Z" fill="white"/>
<path d="M226.937 71.4761L222.863 69.6918C222.543 67.615 221.903 65.5966 220.913 63.6953L223.154 59.8342C223.241 59.6879 223.212 59.5417 223.125 59.3954L219.662 55.3295C219.575 55.2125 219.4 55.1832 219.255 55.2417L215.123 56.8798C213.406 55.5927 211.515 54.6567 209.507 54.0132L208.401 49.684C208.372 49.5378 208.227 49.4207 208.081 49.4207L202.756 49.0112C202.611 49.0112 202.465 49.099 202.378 49.216L200.603 53.3112C198.537 53.6329 196.529 54.2764 194.638 55.271L190.797 53.0186C190.651 52.9309 190.506 52.9601 190.389 53.0479L186.345 56.5288C186.228 56.6165 186.17 56.792 186.257 56.9383L187.887 61.092C186.607 62.8178 185.675 64.7191 185.035 66.7374L180.729 67.849C180.583 67.8782 180.467 68.0245 180.467 68.1707L180.06 73.5237C180.06 73.67 180.147 73.8162 180.263 73.904L184.337 75.6883C184.657 77.7651 185.297 79.7835 186.287 81.6848L184.046 85.5459C183.959 85.6922 183.988 85.8385 184.075 85.9555L187.538 90.0214C187.625 90.1384 187.8 90.1969 187.945 90.1091L192.077 88.4711C193.794 89.7581 195.685 90.6942 197.693 91.3377L198.799 95.6668C198.828 95.8131 198.973 95.9301 199.119 95.9301L204.444 96.3396C204.589 96.3396 204.735 96.2519 204.822 96.1349L206.597 92.0397C208.663 91.7179 210.671 91.0744 212.562 90.0799L216.403 92.3322C216.549 92.42 216.694 92.3907 216.84 92.303L220.884 88.8221C221.001 88.7343 221.03 88.5588 221.001 88.4126L219.371 84.2589C220.651 82.5331 221.583 80.6317 222.223 78.6134L226.529 77.5019C226.675 77.4726 226.791 77.3264 226.791 77.1801L227.199 71.8271C227.169 71.6809 227.082 71.5346 226.937 71.4761ZM207.703 75.6298C206.917 76.7413 205.753 77.4726 204.415 77.7066C204.124 77.7651 203.833 77.7944 203.542 77.7944C202.494 77.7944 201.476 77.4726 200.632 76.8583C198.333 75.2203 197.809 72.0319 199.41 69.7211C200.195 68.6095 201.359 67.8782 202.698 67.6442C204.036 67.4102 205.375 67.732 206.481 68.5218C207.586 69.3115 208.314 70.4816 208.547 71.8271C208.809 73.1727 208.488 74.5183 207.703 75.6298Z" fill="url(#paint1_linear_1131_42375)"/>
<path d="M208.576 71.8272C208.343 70.4817 207.615 69.3116 206.51 68.5218C205.404 67.732 204.065 67.4395 202.727 67.6443C201.388 67.8783 200.225 68.6096 199.439 69.7211C197.809 72.032 198.362 75.2203 200.661 76.8584C201.534 77.4727 202.552 77.7944 203.571 77.7944C203.862 77.7944 204.153 77.7652 204.444 77.7067C205.782 77.4727 206.946 76.7414 207.732 75.6299C208.488 74.5183 208.808 73.1728 208.576 71.8272ZM207.15 75.2496C206.481 76.2149 205.462 76.8584 204.298 77.0632C203.134 77.2679 201.97 77.0047 201.01 76.3026C199.031 74.8986 198.566 72.1197 199.963 70.1306C200.632 69.1653 201.65 68.5218 202.814 68.3171C203.076 68.2878 203.309 68.2586 203.571 68.2586C204.036 68.2586 204.473 68.3171 204.88 68.4633C205.317 68.6096 205.724 68.8143 206.073 69.0776C207.033 69.7504 207.674 70.7742 207.877 71.9442C208.11 73.1143 207.848 74.2843 207.15 75.2496Z" fill="white"/>
<path d="M217.771 70.2477C217.131 66.4451 215.036 63.1104 211.893 60.8581C208.75 58.6057 204.938 57.7575 201.127 58.401C197.315 59.0445 194.027 61.1506 191.786 64.3097C187.189 70.8327 188.731 79.9006 195.22 84.5223C197.664 86.2773 200.545 87.1841 203.513 87.1841C204.327 87.1841 205.171 87.0964 205.986 86.9794C209.769 86.3358 213.086 84.2298 215.327 81.0706C217.567 77.8823 218.411 74.0504 217.771 70.2477ZM213.755 79.9298C211.835 82.6502 208.954 84.493 205.666 85.0488C202.378 85.6046 199.09 84.8733 196.354 82.9135C190.739 78.906 189.4 71.0667 193.386 65.4213C195.307 62.6717 198.188 60.8581 201.476 60.3023C202.174 60.1853 202.902 60.1268 203.6 60.1268C204.88 60.1268 206.131 60.3316 207.354 60.7118C208.576 61.0921 209.711 61.6771 210.787 62.4376C213.522 64.3682 215.327 67.2641 215.879 70.5695C216.432 73.8748 215.676 77.1802 213.755 79.9298Z" fill="white"/>
<path opacity="0.79" d="M393 269.214L387.297 265.88L387.035 261.931L390.032 257.572L390.09 257.367L386.54 257.163C386.133 256.285 385.667 255.408 385.143 254.589L387.442 251.722C387.704 251.4 387.704 250.932 387.384 250.581L385.842 248.826C385.551 248.475 385.056 248.358 384.62 248.504L380.953 249.733C380.226 249.089 379.44 248.504 378.625 247.919L379.44 244.526C379.528 244.117 379.324 243.707 378.916 243.502L376.821 242.449C376.414 242.245 375.919 242.303 375.599 242.596L372.864 244.994C371.933 244.672 371.002 244.409 370.012 244.175L369.285 240.811C369.198 240.402 368.819 240.109 368.383 240.08L366.055 239.875C365.59 239.846 365.182 240.051 365.008 240.431L363.553 243.619C362.563 243.649 361.574 243.736 360.614 243.883L358.49 241.045C358.228 240.724 357.762 240.577 357.326 240.694L355.056 241.338C354.619 241.455 354.329 241.835 354.329 242.245L354.387 245.696C353.485 246.076 352.583 246.515 351.739 247.013L348.48 245.17C348.102 244.965 347.578 244.994 347.229 245.257L345.366 246.691C345.017 246.954 344.872 247.422 345.075 247.773L346.647 250.961C345.977 251.663 345.337 252.424 344.755 253.185L340.798 252.658C340.332 252.599 339.867 252.833 339.634 253.214L338.499 255.232C338.266 255.642 338.354 256.11 338.703 256.373L341.671 258.771C341.351 259.678 341.06 260.614 340.856 261.58L336.811 262.633C336.346 262.75 335.968 263.159 335.938 263.598L342.777 173.768H385.725L392.127 258.391L392.273 260.41L393 269.214Z" fill="url(#paint2_linear_1131_42375)"/>
<path opacity="0.79" d="M392.36 260.409L392.214 258.391L392.36 260.409Z" fill="#00C5B3"/>
<path d="M392.36 268.073L388.519 266.23C388.519 265.733 388.548 265.265 388.519 264.768C388.49 264.271 388.402 263.803 388.344 263.305L391.865 261.521C392.273 261.316 392.476 260.877 392.331 260.439L391.632 258.216C391.516 257.777 391.08 257.455 390.614 257.426L386.54 257.192C386.133 256.314 385.667 255.437 385.143 254.618L387.442 251.751C387.704 251.429 387.704 250.961 387.384 250.61L385.842 248.855C385.551 248.504 385.056 248.387 384.62 248.533L380.953 249.762C380.226 249.118 379.44 248.533 378.625 247.948L379.44 244.555C379.528 244.146 379.324 243.736 378.916 243.532L376.821 242.478C376.414 242.274 375.919 242.332 375.599 242.625L372.864 245.023C371.933 244.702 371.002 244.438 370.012 244.204L369.285 240.84C369.198 240.431 368.819 240.138 368.383 240.109L366.055 239.904C365.59 239.875 365.182 240.08 365.008 240.46L363.553 243.649C362.563 243.678 361.574 243.766 360.614 243.912L358.49 241.074C358.228 240.753 357.762 240.606 357.326 240.723L355.056 241.367C354.619 241.484 354.329 241.864 354.329 242.274L354.387 245.725C353.485 246.106 352.583 246.544 351.739 247.042L348.48 245.199C348.102 244.994 347.578 245.023 347.229 245.287L345.366 246.72C345.017 246.983 344.872 247.451 345.075 247.802L346.647 250.991C345.977 251.693 345.337 252.453 344.755 253.214L340.798 252.687C340.332 252.629 339.867 252.863 339.634 253.243L338.499 255.261C338.266 255.671 338.354 256.139 338.703 256.402L341.671 258.801C341.351 259.707 341.06 260.643 340.856 261.609L336.811 262.662C336.346 262.779 335.968 263.188 335.938 263.627L335.764 265.967C335.735 266.435 336.026 266.845 336.491 266.962L340.449 268.044C340.536 269.039 340.681 270.033 340.914 270.998L337.51 273.572C337.102 273.865 336.928 274.392 337.102 274.83L338.004 277.112C338.179 277.551 338.645 277.814 339.168 277.755L343.446 277.17C343.97 278.048 344.552 278.925 345.221 279.744L343.126 283.518C342.864 283.957 342.951 284.512 343.329 284.863L345.221 286.618C345.599 286.97 346.152 286.999 346.617 286.736L350.4 284.454C351.302 285.068 352.263 285.595 353.252 286.063L352.961 290.421C352.932 290.948 353.252 291.416 353.747 291.591L356.307 292.439C356.802 292.615 357.355 292.41 357.646 291.971L360.177 288.315C361.254 288.491 362.36 288.608 363.494 288.666L365.153 292.791C365.357 293.288 365.851 293.58 366.375 293.522L369.081 293.229C369.605 293.171 370.012 292.79 370.1 292.264L370.798 287.906C371.875 287.642 372.922 287.291 373.941 286.911L377.171 289.953C377.549 290.304 378.131 290.392 378.567 290.129L380.837 288.783C381.273 288.52 381.477 287.993 381.332 287.496L380.08 283.313C380.924 282.64 381.71 281.938 382.437 281.178L386.569 282.64C387.064 282.816 387.588 282.64 387.879 282.26L389.305 280.183C389.566 279.774 389.537 279.247 389.188 278.867L386.337 275.62C386.773 274.713 387.151 273.748 387.471 272.783L391.691 272.519C392.185 272.49 392.593 272.139 392.651 271.671L393 269.302C393.058 268.746 392.796 268.278 392.36 268.073ZM364.484 278.691C356.249 278.691 349.789 272.315 350.08 264.768C350.342 257.484 356.802 251.81 364.455 251.81C372.137 251.81 378.567 257.514 378.858 264.768C379.178 272.315 372.719 278.691 364.484 278.691Z" fill="#CA6200"/>
<path opacity="0.79" d="M309.081 178.185L307.975 177.541L307.917 176.781L308.499 175.932V175.903L307.801 175.874C307.713 175.698 307.626 175.523 307.539 175.377L307.975 174.821C308.034 174.762 308.034 174.674 307.975 174.587L307.684 174.236C307.626 174.177 307.539 174.148 307.452 174.177L306.724 174.411C306.579 174.294 306.433 174.177 306.259 174.06L306.433 173.387C306.462 173.3 306.404 173.241 306.317 173.183L305.909 172.978C305.822 172.949 305.735 172.949 305.677 173.007L305.153 173.475C304.978 173.417 304.775 173.358 304.6 173.329L304.454 172.656C304.425 172.568 304.367 172.51 304.28 172.51L303.814 172.481C303.727 172.481 303.64 172.51 303.611 172.598L303.32 173.212C303.116 173.212 302.941 173.241 302.738 173.27L302.33 172.715C302.272 172.656 302.185 172.627 302.097 172.656L301.661 172.773C301.574 172.802 301.516 172.861 301.516 172.949V173.621C301.341 173.709 301.166 173.768 300.992 173.885L300.352 173.534C300.264 173.504 300.177 173.504 300.119 173.563L299.77 173.826C299.711 173.885 299.682 173.972 299.711 174.031L300.032 174.645C299.886 174.792 299.77 174.938 299.653 175.084L298.868 174.996C298.78 174.996 298.693 175.026 298.635 175.113L298.402 175.523C298.344 175.611 298.373 175.698 298.431 175.757L299.013 176.225C298.955 176.4 298.897 176.576 298.868 176.781L298.082 176.985C297.995 177.015 297.907 177.073 297.907 177.19L299.246 159.639H307.626L308.877 176.166L308.906 176.576L309.081 178.185Z" fill="#F2C2F9"/>
<path opacity="0.79" d="M308.965 176.488L308.936 176.079L308.965 176.488Z" fill="#F2C2F9"/>
<path d="M308.965 177.98L308.208 177.629C308.208 177.541 308.208 177.424 308.208 177.336C308.208 177.249 308.179 177.132 308.179 177.044L308.877 176.693C308.965 176.664 308.994 176.576 308.965 176.488L308.819 176.049C308.79 175.962 308.703 175.903 308.615 175.903L307.83 175.845C307.743 175.669 307.655 175.494 307.568 175.347L308.004 174.792C308.063 174.733 308.063 174.645 308.004 174.558L307.713 174.206C307.655 174.148 307.568 174.119 307.481 174.148L306.753 174.382C306.608 174.265 306.462 174.148 306.288 174.031L306.462 173.358C306.491 173.27 306.433 173.212 306.346 173.153L305.938 172.949C305.851 172.919 305.764 172.919 305.706 172.978L305.182 173.446C305.007 173.387 304.804 173.329 304.629 173.3L304.484 172.627C304.454 172.539 304.396 172.481 304.309 172.481L303.843 172.451C303.756 172.451 303.669 172.481 303.64 172.568L303.349 173.183C303.145 173.183 302.97 173.212 302.767 173.241L302.359 172.685C302.301 172.627 302.214 172.598 302.127 172.627L301.69 172.744C301.603 172.773 301.545 172.832 301.545 172.919V173.592C301.37 173.68 301.195 173.738 301.021 173.855L300.381 173.504C300.293 173.475 300.206 173.475 300.148 173.534L299.799 173.797C299.741 173.855 299.711 173.943 299.741 174.002L300.061 174.616C299.915 174.762 299.799 174.909 299.682 175.055L298.897 174.967C298.809 174.967 298.722 174.996 298.664 175.084L298.431 175.494C298.373 175.581 298.402 175.669 298.46 175.728L299.042 176.196C298.984 176.371 298.926 176.547 298.897 176.751L298.111 176.956C298.024 176.985 297.936 177.044 297.936 177.161L297.907 177.629C297.907 177.717 297.966 177.804 298.053 177.834L298.838 178.038C298.868 178.243 298.897 178.419 298.926 178.623L298.257 179.121C298.169 179.179 298.14 179.267 298.169 179.355L298.344 179.793C298.373 179.881 298.46 179.94 298.577 179.91L299.42 179.793C299.537 179.969 299.624 180.144 299.77 180.291L299.362 181.022C299.304 181.11 299.333 181.227 299.391 181.285L299.77 181.636C299.828 181.695 299.944 181.724 300.032 181.666L300.759 181.227C300.934 181.344 301.108 181.461 301.312 181.549L301.254 182.397C301.254 182.485 301.312 182.602 301.399 182.631L301.894 182.806C301.981 182.836 302.097 182.806 302.156 182.719L302.65 182.017C302.854 182.046 303.087 182.075 303.291 182.075L303.611 182.894C303.64 182.982 303.756 183.04 303.843 183.04L304.367 182.982C304.484 182.982 304.542 182.894 304.571 182.806L304.716 181.958C304.92 181.9 305.124 181.841 305.327 181.753L305.968 182.338C306.055 182.397 306.142 182.426 306.229 182.368L306.666 182.104C306.753 182.046 306.782 181.958 306.753 181.841L306.52 181.022C306.695 180.905 306.84 180.759 306.986 180.613L307.801 180.905C307.888 180.934 308.004 180.905 308.063 180.817L308.324 180.408C308.383 180.32 308.383 180.232 308.295 180.144L307.743 179.501C307.83 179.325 307.888 179.15 307.975 178.945L308.79 178.887C308.877 178.887 308.965 178.828 308.965 178.711L309.023 178.243C309.11 178.097 309.052 178.009 308.965 177.98ZM303.523 180.057C301.923 180.057 300.643 178.799 300.701 177.336C300.759 175.903 302.01 174.792 303.523 174.792C305.007 174.792 306.288 175.903 306.346 177.336C306.375 178.799 305.124 180.057 303.523 180.057Z" fill="#7DE7FF"/>
<path d="M335.036 162.155C333.902 162.126 332.709 161.979 331.486 161.658C331.195 161.57 331.021 161.336 331.108 161.102C331.225 160.868 331.545 160.751 331.836 160.839C332.941 161.102 334.018 161.277 335.036 161.277C335.357 161.277 335.618 161.482 335.589 161.716C335.589 161.979 335.327 162.155 335.036 162.155ZM338.383 161.687C338.15 161.687 337.946 161.599 337.859 161.424C337.743 161.219 337.859 160.956 338.15 160.868C339.11 160.546 339.954 160.078 340.652 159.435C340.856 159.259 341.205 159.23 341.467 159.376C341.7 159.522 341.758 159.786 341.554 159.99C340.74 160.722 339.75 161.307 338.616 161.658C338.528 161.687 338.47 161.687 338.383 161.687ZM328.518 160.634C328.431 160.634 328.315 160.605 328.227 160.575L325.23 159.288C324.968 159.171 324.852 158.908 325.027 158.703C325.172 158.498 325.55 158.44 325.812 158.557L328.809 159.844C329.071 159.961 329.188 160.224 329.013 160.429C328.897 160.546 328.722 160.634 328.518 160.634ZM322.553 158.06C322.466 158.06 322.35 158.03 322.262 158.001L319.265 156.714C319.003 156.597 318.887 156.334 319.062 156.129C319.207 155.924 319.585 155.866 319.847 155.983L322.844 157.27C323.106 157.387 323.223 157.65 323.048 157.855C322.932 157.972 322.728 158.06 322.553 158.06ZM342.718 157.884C342.66 157.884 342.602 157.884 342.544 157.855C342.253 157.767 342.078 157.533 342.166 157.299C342.486 156.568 342.689 155.749 342.777 154.871C342.806 154.637 343.068 154.462 343.388 154.462C343.708 154.491 343.941 154.696 343.911 154.93C343.824 155.866 343.591 156.773 343.242 157.562C343.184 157.767 342.951 157.884 342.718 157.884ZM316.559 155.486C316.472 155.486 316.355 155.456 316.268 155.427L313.271 154.14C312.98 154.023 312.893 153.76 313.067 153.555C313.213 153.35 313.591 153.263 313.853 153.409L316.85 154.696C317.112 154.813 317.228 155.076 317.054 155.281C316.966 155.398 316.763 155.486 316.559 155.486ZM310.594 152.912C310.507 152.912 310.39 152.882 310.303 152.853L307.306 151.566C307.044 151.449 306.928 151.186 307.102 150.981C307.248 150.776 307.626 150.718 307.888 150.835L310.885 152.122C311.147 152.239 311.263 152.502 311.089 152.707C310.972 152.824 310.798 152.912 310.594 152.912ZM304.425 150.22C304.338 150.22 304.221 150.191 304.134 150.162L301.137 148.875C300.875 148.758 300.759 148.495 300.933 148.29C301.079 148.085 301.457 148.027 301.719 148.144L304.716 149.431C304.978 149.548 305.094 149.811 304.92 150.016C304.803 150.162 304.6 150.22 304.425 150.22ZM298.431 147.676C298.344 147.676 298.227 147.646 298.14 147.617L295.143 146.33C294.852 146.213 294.765 145.95 294.939 145.745C295.085 145.54 295.463 145.482 295.725 145.599L298.722 146.886C299.013 147.003 299.1 147.266 298.926 147.471C298.838 147.588 298.635 147.676 298.431 147.676ZM343.417 151.946C343.097 151.946 342.835 151.741 342.835 151.507V148.933C342.835 148.699 343.097 148.495 343.417 148.495C343.737 148.495 343.999 148.699 343.999 148.933V151.507C343.999 151.771 343.737 151.946 343.417 151.946ZM292.466 145.101C292.379 145.101 292.262 145.072 292.175 145.043L289.178 143.756C288.887 143.639 288.799 143.376 288.974 143.171C289.12 142.966 289.498 142.908 289.76 143.025L292.757 144.312C293.048 144.429 293.135 144.692 292.96 144.897C292.844 145.014 292.64 145.101 292.466 145.101ZM286.472 142.527C286.384 142.527 286.268 142.498 286.181 142.469L284.26 141.65C283.911 141.504 283.533 141.328 283.184 141.153C282.922 141.036 282.834 140.743 283.009 140.568C283.183 140.363 283.533 140.304 283.795 140.451C284.144 140.626 284.464 140.772 284.813 140.919L286.733 141.738C286.995 141.855 287.112 142.118 286.937 142.323C286.879 142.44 286.675 142.527 286.472 142.527ZM343.417 146.798C343.097 146.798 342.835 146.593 342.835 146.359V143.785C342.835 143.551 343.097 143.346 343.417 143.346C343.737 143.346 343.999 143.551 343.999 143.785V146.359C343.999 146.593 343.737 146.798 343.417 146.798ZM280.768 139.631C280.623 139.631 280.506 139.602 280.39 139.514C279.546 138.959 278.702 138.344 277.888 137.672C277.684 137.496 277.684 137.233 277.917 137.057C278.15 136.911 278.528 136.911 278.731 137.087C279.517 137.73 280.303 138.315 281.147 138.871C281.379 139.017 281.409 139.31 281.205 139.485C281.088 139.602 280.943 139.631 280.768 139.631ZM343.417 141.65C343.097 141.65 342.835 141.445 342.835 141.211V138.637C342.835 138.403 343.097 138.198 343.417 138.198C343.737 138.198 343.999 138.403 343.999 138.637V141.211C343.999 141.445 343.737 141.65 343.417 141.65ZM276.142 135.829C275.967 135.829 275.793 135.77 275.676 135.653C275.007 134.951 274.338 134.22 273.756 133.459C273.581 133.255 273.668 132.991 273.959 132.874C274.25 132.757 274.6 132.816 274.745 133.021C275.327 133.752 275.967 134.454 276.607 135.127C276.782 135.332 276.753 135.595 276.491 135.741C276.375 135.8 276.258 135.829 276.142 135.829ZM343.417 136.472C343.097 136.472 342.835 136.268 342.835 136.034V133.459C342.835 133.225 343.097 133.021 343.417 133.021C343.737 133.021 343.999 133.225 343.999 133.459V136.034C343.999 136.297 343.737 136.472 343.417 136.472ZM272.621 131.412C272.417 131.412 272.184 131.324 272.097 131.178C271.602 130.388 271.137 129.569 270.759 128.75C270.642 128.516 270.817 128.282 271.108 128.194C271.399 128.107 271.748 128.224 271.835 128.458C272.213 129.247 272.65 130.037 273.116 130.798C273.261 131.002 273.116 131.266 272.854 131.383C272.795 131.383 272.708 131.412 272.621 131.412ZM343.417 131.324C343.097 131.324 342.835 131.119 342.835 130.885V128.311C342.835 128.077 343.097 127.873 343.417 127.873C343.737 127.873 343.999 128.077 343.999 128.311V130.885C343.999 131.149 343.737 131.324 343.417 131.324ZM270.351 126.556C270.089 126.556 269.857 126.41 269.798 126.234C269.536 125.357 269.333 124.479 269.216 123.631C269.187 123.397 269.42 123.192 269.74 123.163C270.06 123.134 270.322 123.309 270.38 123.543C270.468 124.362 270.671 125.181 270.933 126.03C270.991 126.264 270.817 126.498 270.497 126.556C270.438 126.556 270.38 126.556 270.351 126.556ZM343.417 126.176C343.097 126.176 342.835 125.971 342.835 125.737V123.163C342.835 122.929 343.097 122.724 343.417 122.724C343.737 122.724 343.999 122.929 343.999 123.163V125.737C343.999 125.971 343.737 126.176 343.417 126.176ZM343.417 121.028C343.097 121.028 342.835 120.823 342.835 120.589V118.015C342.835 117.781 343.097 117.576 343.417 117.576C343.737 117.576 343.999 117.781 343.999 118.015V120.589C343.999 120.823 343.737 121.028 343.417 121.028ZM343.417 115.85C343.097 115.85 342.835 115.646 342.835 115.412V112.837C342.835 112.603 343.097 112.399 343.417 112.399C343.737 112.399 343.999 112.603 343.999 112.837V115.412C343.999 115.675 343.737 115.85 343.417 115.85ZM343.417 110.702C343.097 110.702 342.835 110.497 342.835 110.263V107.689C342.835 107.455 343.097 107.25 343.417 107.25C343.737 107.25 343.999 107.455 343.999 107.689V110.263C343.999 110.497 343.737 110.702 343.417 110.702ZM269.682 120.589C269.362 120.589 269.1 120.384 269.1 120.15V117.576C269.1 117.342 269.362 117.137 269.682 117.137C270.002 117.137 270.264 117.342 270.264 117.576V120.15C270.264 120.413 270.002 120.589 269.682 120.589ZM343.417 105.554C343.097 105.554 342.835 105.349 342.835 105.115V102.541C342.835 102.307 343.097 102.102 343.417 102.102C343.737 102.102 343.999 102.307 343.999 102.541V105.115C343.999 105.349 343.737 105.554 343.417 105.554ZM269.682 115.441C269.362 115.441 269.1 115.236 269.1 115.002V112.428C269.1 112.194 269.362 111.989 269.682 111.989C270.002 111.989 270.264 112.194 270.264 112.428V115.002C270.264 115.236 270.002 115.441 269.682 115.441ZM269.682 110.293C269.362 110.293 269.1 110.088 269.1 109.854V107.28C269.1 107.046 269.362 106.841 269.682 106.841C270.002 106.841 270.264 107.046 270.264 107.28V109.854C270.264 110.088 270.002 110.293 269.682 110.293ZM343.417 100.406C343.097 100.406 342.835 100.201 342.835 99.9669V98.8554C342.835 98.3873 342.806 97.9193 342.747 97.422C342.718 97.188 342.951 96.9833 343.271 96.954C343.562 96.9248 343.853 97.1003 343.911 97.3343C343.97 97.8316 343.999 98.3288 343.999 98.8261V99.9376C343.999 100.201 343.737 100.406 343.417 100.406ZM269.682 105.115C269.362 105.115 269.1 104.91 269.1 104.676V102.102C269.1 101.868 269.362 101.663 269.682 101.663C270.002 101.663 270.264 101.868 270.264 102.102V104.676C270.264 104.94 270.002 105.115 269.682 105.115ZM342.777 95.2867C342.515 95.2867 342.282 95.1405 342.224 94.965C341.991 94.1752 341.671 93.3561 341.263 92.5371C341.147 92.3031 341.322 92.0691 341.613 91.9813C341.904 91.8936 342.253 92.0106 342.34 92.2446C342.747 93.0929 343.068 93.9412 343.329 94.7602C343.388 94.9942 343.213 95.2282 342.893 95.2867C342.864 95.2867 342.806 95.2867 342.777 95.2867ZM269.682 99.9669C269.362 99.9669 269.1 99.7621 269.1 99.5281V96.954C269.1 96.72 269.362 96.5153 269.682 96.5153C270.002 96.5153 270.264 96.72 270.264 96.954V99.5281C270.264 99.7914 270.002 99.9669 269.682 99.9669ZM340.478 90.431C340.274 90.431 340.041 90.3433 339.954 90.197C339.488 89.4365 338.936 88.6759 338.354 87.9447C338.179 87.7399 338.295 87.4767 338.557 87.3596C338.819 87.2426 339.197 87.3011 339.343 87.5059C339.954 88.2664 340.507 89.027 340.972 89.8167C341.118 90.0215 340.972 90.2848 340.711 90.4018C340.652 90.4018 340.565 90.431 340.478 90.431ZM269.682 94.8187C269.362 94.8187 269.1 94.6139 269.1 94.3799V91.8058C269.1 91.5718 269.362 91.3671 269.682 91.3671C270.002 91.3671 270.264 91.5718 270.264 91.8058V94.3799C270.264 94.6139 270.002 94.8187 269.682 94.8187ZM336.986 85.9848C336.811 85.9848 336.637 85.9263 336.52 85.8093C335.851 85.1073 335.124 84.4638 334.396 83.8495C334.193 83.674 334.193 83.4107 334.425 83.2352C334.658 83.089 335.036 83.089 335.24 83.2645C335.997 83.908 336.753 84.5808 337.452 85.3121C337.626 85.5168 337.597 85.7801 337.335 85.9263C337.219 85.9556 337.102 85.9848 336.986 85.9848ZM269.682 89.6705C269.362 89.6705 269.1 89.4657 269.1 89.2317V86.6576C269.1 86.4236 269.362 86.2189 269.682 86.2189C270.002 86.2189 270.264 86.4236 270.264 86.6576V89.2317C270.264 89.4657 270.002 89.6705 269.682 89.6705ZM332.359 82.1822C332.214 82.1822 332.098 82.1529 331.981 82.0652C331.108 81.4802 330.206 80.9829 329.304 80.5441C329.042 80.4271 328.955 80.1346 329.13 79.9591C329.304 79.7543 329.653 79.6958 329.915 79.8421C330.846 80.3101 331.807 80.8366 332.709 81.4509C332.941 81.5972 332.97 81.8897 332.767 82.0652C332.679 82.1237 332.505 82.1822 332.359 82.1822ZM269.682 84.493C269.362 84.493 269.1 84.2883 269.1 84.0543V81.4802C269.1 81.2462 269.362 81.0414 269.682 81.0414C270.002 81.0414 270.264 81.2462 270.264 81.4802V84.0543C270.264 84.3175 270.002 84.493 269.682 84.493ZM326.656 79.2863C326.569 79.2863 326.452 79.2571 326.365 79.2278L323.368 77.9408C323.106 77.8238 322.99 77.5605 323.164 77.3557C323.31 77.151 323.688 77.0925 323.95 77.2095L326.947 78.4965C327.209 78.6135 327.325 78.8768 327.151 79.0816C327.034 79.2278 326.86 79.2863 326.656 79.2863ZM320.662 76.7122C320.575 76.7122 320.458 76.683 320.371 76.6537L317.374 75.3667C317.112 75.2497 316.996 74.9864 317.17 74.7816C317.316 74.5769 317.694 74.5184 317.956 74.6354L320.953 75.9224C321.215 76.0394 321.331 76.3027 321.157 76.5075C321.069 76.6537 320.866 76.7122 320.662 76.7122ZM269.682 79.3448C269.362 79.3448 269.1 79.1401 269.1 78.9061V76.332C269.1 76.0979 269.362 75.8932 269.682 75.8932C270.002 75.8932 270.264 76.0979 270.264 76.332V78.9061C270.264 79.1693 270.002 79.3448 269.682 79.3448ZM314.697 74.1674C314.61 74.1674 314.493 74.1381 314.406 74.1089L311.409 72.8218C311.147 72.7048 311.03 72.4415 311.205 72.2368C311.351 72.032 311.729 71.9735 311.991 72.0905L314.988 73.3776C315.25 73.4946 315.366 73.7579 315.191 73.9626C315.104 74.0796 314.901 74.1674 314.697 74.1674ZM308.732 71.5933C308.644 71.5933 308.528 71.564 308.441 71.5348L305.444 70.2477C305.182 70.1307 305.065 69.8674 305.24 69.6627C305.385 69.4579 305.764 69.3994 306.026 69.5164L309.023 70.8035C309.285 70.9205 309.401 71.1837 309.226 71.3885C309.11 71.5055 308.906 71.5933 308.732 71.5933ZM269.682 74.1966C269.362 74.1966 269.1 73.9919 269.1 73.7579V71.1837C269.1 70.9497 269.362 70.745 269.682 70.745C270.002 70.745 270.264 70.9497 270.264 71.1837V73.7579C270.264 73.9919 270.002 74.1966 269.682 74.1966ZM269.682 69.0484C269.362 69.0484 269.1 68.8437 269.1 68.6096V67.0593C269.1 66.6791 269.129 66.3281 269.158 66.0063C269.187 65.7723 269.478 65.5968 269.769 65.5968C270.089 65.626 270.322 65.8308 270.293 66.0648C270.264 66.3866 270.235 66.7083 270.235 67.0593V68.6096C270.264 68.8437 270.002 69.0484 269.682 69.0484ZM302.534 68.9022C302.446 68.9022 302.33 68.8729 302.243 68.8437L299.246 67.5566C298.984 67.4396 298.867 67.1763 299.042 66.9716C299.187 66.7668 299.566 66.7083 299.828 66.8253L302.825 68.1124C303.087 68.2294 303.203 68.4926 303.028 68.6974C302.941 68.8144 302.737 68.9022 302.534 68.9022ZM296.569 66.3281C296.481 66.3281 296.365 66.2988 296.278 66.2696L293.281 64.9825C293.019 64.8655 292.902 64.6022 293.077 64.3975C293.222 64.1927 293.601 64.1342 293.863 64.2512L296.86 65.5383C297.122 65.6553 297.238 65.9185 297.063 66.1233C296.947 66.2696 296.772 66.3281 296.569 66.3281ZM270.38 63.9587C270.322 63.9587 270.264 63.9587 270.206 63.9295C269.915 63.8417 269.74 63.6077 269.827 63.3737C270.235 62.4376 270.817 61.6479 271.544 60.9751C271.748 60.7996 272.097 60.7703 272.359 60.9166C272.621 61.0628 272.65 61.3261 272.446 61.5309C271.806 62.1159 271.311 62.8472 270.933 63.6662C270.846 63.8417 270.613 63.9587 270.38 63.9587ZM290.604 63.7539C290.516 63.7539 290.4 63.7247 290.313 63.6954L287.315 62.4084C287.024 62.2914 286.937 62.0281 287.112 61.8234C287.257 61.6186 287.636 61.5601 287.897 61.6771L290.895 62.9642C291.186 63.0812 291.273 63.3444 291.098 63.5492C290.982 63.6954 290.778 63.7539 290.604 63.7539ZM284.58 61.1798C284.493 61.1798 284.406 61.1506 284.318 61.1213L284.26 61.0921C283.242 60.6533 282.223 60.3023 281.234 60.0683C280.943 59.9806 280.768 59.7465 280.856 59.5125C280.943 59.2785 281.292 59.1615 281.583 59.2493C282.631 59.5125 283.736 59.8928 284.813 60.3608C285.075 60.4778 285.22 60.7411 285.046 60.9458C284.988 61.0921 284.784 61.1798 284.58 61.1798ZM274.687 60.1268C274.454 60.1268 274.25 60.0391 274.163 59.8635C274.047 59.6588 274.163 59.3955 274.454 59.3078C275.502 58.9568 276.636 58.7812 277.888 58.7812H278.062C278.382 58.7812 278.644 58.986 278.615 59.22C278.615 59.454 278.353 59.6295 278.033 59.6295H277.888C276.811 59.6295 275.822 59.7758 274.92 60.0683C274.832 60.0976 274.774 60.1268 274.687 60.1268Z" fill="#F57A00"/>
<path d="M336.899 106.665V106.899C335.415 107.982 333.989 109.035 332.505 110.117C324.968 102.102 316.268 97.0711 306.869 95.7255C298.024 94.4385 291.476 96.8956 287.024 102.102C285.686 100.727 284.406 99.4112 283.096 98.0656L283.038 97.8609C283.213 97.6854 283.416 97.5391 283.591 97.3344C285.22 95.316 287.257 93.6195 289.643 92.3324C292.146 90.9869 295.056 90.0801 298.198 89.7291C299.071 89.6121 300.002 89.6121 300.933 89.5536C303.465 89.4073 306.084 89.8168 308.79 90.2848C309.314 90.3726 309.837 90.4896 310.361 90.6066C310.943 90.7236 311.496 90.8406 312.078 90.9869C317.927 92.5957 323.63 95.4623 328.984 99.6745C331.777 101.781 334.28 104.296 336.899 106.665Z" fill="url(#paint3_linear_1131_42375)"/>
<path d="M310.39 130.622C308.703 129.686 307.364 128.516 306.957 126.703C306.52 124.772 307.597 123.339 309.459 123.456C311.409 123.573 313.562 125.24 314.289 127.171C315.017 129.189 314.173 130.768 312.282 130.915C312.078 130.944 311.903 130.944 311.7 130.973C311.263 130.856 310.827 130.739 310.39 130.622Z" fill="url(#paint4_linear_1131_42375)"/>
<path d="M328.169 113.306C326.889 114.3 325.638 115.265 324.387 116.201C314.726 105.876 301.283 103.74 294.881 110.322C293.63 108.976 292.408 107.631 291.156 106.285C298.082 97.4807 316.355 99.8208 328.169 113.306Z" fill="url(#paint5_linear_1131_42375)"/>
<path d="M320.662 119.156C319.527 120.033 318.421 120.911 317.316 121.788C310.827 116.494 307.393 115.763 302.592 118.542C301.37 117.196 300.177 115.88 298.926 114.534C303.087 109.854 313.737 111.433 320.662 119.156Z" fill="url(#paint6_linear_1131_42375)"/>
<path d="M322.67 229.023V238.208C322.67 246.106 320.08 254.033 314.871 261.463C309.663 268.892 301.864 275.883 291.476 281.909C249.866 306.041 182.446 306.041 140.835 281.909C120.001 269.828 109.613 253.974 109.642 238.149V229.023H128.498C132.106 225.981 136.179 223.056 140.835 220.365C145.2 217.849 149.826 215.568 154.686 213.578C159.254 211.706 163.997 210.068 168.915 208.635V212.964C168.915 226.771 180.03 237.945 193.765 237.945H238.576C252.31 237.945 263.426 226.771 263.426 212.964V208.635C268.809 210.185 274.018 211.999 278.964 214.105C283.329 215.948 287.519 218.025 291.476 220.335C296.132 223.056 300.206 225.952 303.814 228.994H322.67V229.023Z" fill="url(#paint7_linear_1131_42375)"/>
<path d="M322.67 229.023C322.67 244.848 312.282 260.673 291.476 272.724C249.866 296.857 182.446 296.857 140.835 272.724C120.03 260.644 109.642 244.819 109.642 229.023C109.642 213.198 120.03 197.373 140.835 185.322C149.303 180.408 158.818 176.517 168.973 173.592C168.915 174.031 168.915 174.47 168.915 174.909V212.964C168.915 226.771 180.03 237.945 193.765 237.945H238.576C252.31 237.945 263.426 226.771 263.426 212.964V174.879C263.426 174.441 263.397 174.002 263.368 173.563C273.523 176.488 283.038 180.379 291.506 185.293C312.282 197.373 322.67 213.198 322.67 229.023Z" fill="url(#paint8_linear_1131_42375)" fill-opacity="0.8"/>
<path d="M284.667 230.866C284.027 240.372 277.277 249.704 264.793 256.929C238.198 272.344 195.103 272.373 168.537 256.929C156.141 249.733 149.506 240.46 148.692 231.012C148.168 225.016 150.263 219.048 154.686 213.549C158.09 209.278 162.892 205.271 168.915 201.702V212.964C168.915 226.771 180.03 237.945 193.765 237.945H238.576C252.31 237.945 263.426 226.771 263.426 212.964V200.942C263.688 201.088 263.95 201.234 264.241 201.381C270.642 205.096 275.56 209.483 278.993 214.105C283.096 219.692 285.046 225.571 284.667 230.866Z" fill="url(#paint9_linear_1131_42375)"/>
<path d="M151.747 193.307C152.882 192.898 154.395 193.103 155.093 193.775C155.792 194.448 155.442 195.326 154.308 195.735C153.173 196.145 151.66 195.94 150.961 195.267C150.234 194.595 150.583 193.717 151.747 193.307Z" fill="#6EE8FC"/>
<path opacity="0.8" d="M143.716 197.227C144.676 196.701 146.189 196.73 147.091 197.286C147.993 197.841 147.935 198.719 146.975 199.245C146.015 199.772 144.502 199.743 143.6 199.187C142.697 198.631 142.727 197.754 143.716 197.227Z" fill="#6EE8FC"/>
<path opacity="0.6" d="M137.111 201.966C137.896 201.351 139.38 201.205 140.457 201.644C141.534 202.083 141.766 202.96 140.981 203.575C140.195 204.189 138.711 204.335 137.634 203.896C136.587 203.458 136.354 202.58 137.111 201.966Z" fill="#6EE8FC"/>
<path opacity="0.4" d="M132.251 207.348C132.804 206.646 134.23 206.354 135.423 206.675C136.616 206.997 137.169 207.816 136.616 208.518C136.063 209.22 134.637 209.513 133.444 209.191C132.222 208.869 131.698 208.05 132.251 207.348Z" fill="#6EE8FC"/>
<path opacity="0.2" d="M129.283 213.169C129.603 212.408 130.884 211.97 132.164 212.145C133.444 212.321 134.259 213.081 133.939 213.813C133.619 214.573 132.339 215.012 131.058 214.836C129.778 214.69 128.992 213.93 129.283 213.169Z" fill="#6EE8FC"/>
<path opacity="0.1" d="M128.585 219.897C128.003 219.195 128.498 218.376 129.691 218.025C130.884 217.674 132.309 217.966 132.891 218.668C133.473 219.37 132.979 220.189 131.786 220.54C130.593 220.891 129.167 220.599 128.585 219.897Z" fill="#6EE8FC"/>
<path d="M281.642 195.735C280.507 195.326 278.994 195.53 278.295 196.203C277.597 196.876 277.946 197.754 279.081 198.163C280.216 198.573 281.729 198.368 282.427 197.695C283.125 197.022 282.776 196.145 281.642 195.735Z" fill="#6EE8FC"/>
<path opacity="0.8" d="M289.673 199.655C288.712 199.128 287.199 199.158 286.297 199.713C285.395 200.269 285.453 201.147 286.414 201.673C287.374 202.2 288.887 202.17 289.789 201.615C290.691 201.059 290.633 200.181 289.673 199.655Z" fill="#6EE8FC"/>
<path opacity="0.6" d="M296.249 204.393C295.463 203.779 293.979 203.633 292.903 204.072C291.826 204.51 291.593 205.388 292.379 206.002C293.164 206.617 294.648 206.763 295.725 206.324C296.773 205.885 297.034 205.008 296.249 204.393Z" fill="#6EE8FC"/>
<path opacity="0.4" d="M301.108 209.776C300.555 209.074 299.13 208.781 297.936 209.103C296.743 209.425 296.191 210.244 296.743 210.946C297.296 211.648 298.722 211.94 299.915 211.619C301.137 211.297 301.661 210.478 301.108 209.776Z" fill="#6EE8FC"/>
<path opacity="0.2" d="M304.076 215.597C303.756 214.836 302.476 214.397 301.195 214.573C299.915 214.748 299.1 215.509 299.42 216.24C299.741 217.001 301.021 217.44 302.301 217.264C303.582 217.118 304.396 216.357 304.076 215.597Z" fill="#6EE8FC"/>
<path opacity="0.1" d="M304.775 222.325C305.356 221.623 304.862 220.803 303.669 220.452C302.476 220.101 301.05 220.394 300.468 221.096C299.886 221.798 300.381 222.617 301.574 222.968C302.767 223.319 304.193 223.027 304.775 222.325Z" fill="#6EE8FC"/>
<path opacity="0.79" d="M284.726 60.4194H148.633V228.877C148.633 228.994 148.633 229.14 148.633 229.257V229.988H148.663C148.663 230.34 148.663 230.691 148.692 231.042C149.506 240.46 156.141 249.762 168.537 256.958C195.132 272.373 238.227 272.373 264.793 256.958C277.277 249.704 283.998 240.373 284.667 230.895C284.697 230.603 284.667 230.31 284.697 230.018H284.726V60.4194Z" fill="url(#paint10_linear_1131_42375)"/>
<path d="M218.265 173.27C260.283 173.475 294.241 199.918 294.066 232.299C293.892 264.68 259.701 290.772 217.683 290.568C175.666 290.363 141.708 263.92 141.883 231.539C142.028 199.128 176.248 173.036 218.265 173.27Z" fill="url(#paint11_radial_1131_42375)"/>
<path d="M263.339 173.563C262.698 167.508 257.577 162.799 251.408 162.799H180.932C174.735 162.799 169.642 167.508 169.002 173.563C168.944 174.002 168.944 174.441 168.944 174.879V212.964C168.944 226.771 180.06 237.945 193.794 237.945H238.605C252.339 237.945 263.455 226.771 263.455 212.964V174.879C263.426 174.441 263.397 174.002 263.339 173.563ZM223.416 202.405C223.183 202.697 222.892 202.96 222.63 203.224V219.195H209.711V203.253C209.42 202.99 209.129 202.697 208.896 202.405C207.441 200.737 206.568 198.544 206.568 196.145C206.568 193.863 207.354 191.757 208.692 190.119C210.438 187.925 213.144 186.551 216.141 186.551C219.109 186.551 221.757 187.896 223.532 190.031C224.9 191.699 225.744 193.834 225.744 196.145C225.744 198.514 224.871 200.708 223.416 202.405Z" fill="url(#paint12_linear_1131_42375)"/>
<path d="M254.435 147.061V158.323H236.539V146.915C236.539 135.419 227.286 126.118 215.85 126.118H215.385C203.949 126.118 194.696 135.419 194.696 146.915V158.323H177.877V147.061C177.877 125.796 195.016 108.567 216.141 108.567C226.733 108.567 236.277 112.896 243.203 119.858C250.157 126.79 254.435 136.414 254.435 147.061Z" fill="url(#paint13_linear_1131_42375)"/>
<path d="M263.339 173.563C262.698 167.508 257.577 162.799 251.408 162.799H180.932C174.735 162.799 169.642 167.508 169.002 173.563C168.944 174.002 168.944 174.441 168.944 174.879V212.964C168.944 226.771 180.06 237.945 193.794 237.945H238.605C252.339 237.945 263.455 226.771 263.455 212.964V174.879C263.426 174.441 263.397 174.002 263.339 173.563ZM223.416 202.405C223.183 202.697 222.892 202.96 222.63 203.224V219.195H209.711V203.253C209.42 202.99 209.129 202.697 208.896 202.405C207.441 200.737 206.568 198.544 206.568 196.145C206.568 193.863 207.354 191.757 208.692 190.119C210.438 187.925 213.144 186.551 216.141 186.551C219.109 186.551 221.757 187.896 223.532 190.031C224.9 191.699 225.744 193.834 225.744 196.145C225.744 198.514 224.871 200.708 223.416 202.405Z" fill="url(#paint14_linear_1131_42375)"/>
<path d="M254.435 147.061V158.323H236.539V146.915C236.539 135.419 227.286 126.118 215.85 126.118H215.385C203.949 126.118 194.696 135.419 194.696 146.915V158.323H177.877V147.061C177.877 125.796 195.016 108.567 216.141 108.567C226.733 108.567 236.277 112.896 243.203 119.858C250.157 126.79 254.435 136.414 254.435 147.061Z" fill="url(#paint15_linear_1131_42375)"/>
<path d="M1.484 143.463C2.47334 142.527 3.78276 142.089 5.12127 142.206C19.4376 143.493 46.1788 136.56 63.6668 118.6C64.8889 117.342 67.1004 118.044 68.468 119.097C87.9056 133.694 120.117 136.706 131.291 137.35C133.59 137.467 135.481 139.281 135.714 141.591C145.869 240.314 81.9405 276.088 68.6717 282.406C67.2168 283.109 65.5291 282.992 64.1615 282.143C-1.92049 240.753 0.902039 186.931 -4.7076e-06 147.032C-0.0291029 145.687 0.523763 144.37 1.484 143.463Z" fill="url(#paint16_linear_1131_42375)"/>
<path d="M66.9258 275.211C66.6348 275.211 66.3438 275.123 66.082 274.977C40.7374 258.684 24.2097 239.232 15.5675 215.451C7.8565 194.243 7.47822 172.627 7.15814 153.555L7.09995 151.01C7.09995 150.601 7.24544 150.191 7.53642 149.869C7.8274 149.577 8.23477 149.401 8.67125 149.401C24.3552 149.401 47.9247 142.44 65.209 126.878C65.7328 126.41 66.5184 126.352 67.1295 126.732C86.1015 139.398 113.192 143.083 127.654 144.136C128.41 144.195 129.021 144.809 129.109 145.57C132.455 184.093 124.511 216.679 105.423 242.391C91.1646 261.609 74.2876 271.613 67.6824 275.035C67.3914 275.152 67.1586 275.211 66.9258 275.211ZM67.3332 274.479C73.9094 271.086 90.699 261.141 104.87 242.04C123.842 216.445 131.786 184.035 128.439 145.657C128.41 145.189 128.032 144.838 127.595 144.809C113.076 143.727 85.8687 140.041 66.7803 127.288C66.4311 127.054 65.9656 127.083 65.6455 127.375C48.2157 143.054 24.5007 150.045 8.70034 150.045C8.43846 150.045 8.20568 150.133 8.03109 150.337C7.8565 150.513 7.7692 150.747 7.7692 151.01L7.8274 153.555C8.14748 172.568 8.52576 194.126 16.2077 215.246C24.7916 238.881 41.2321 258.245 66.4311 274.45C66.693 274.596 67.0422 274.626 67.3332 274.479Z" fill="white"/>
<path d="M102.455 172.685H33.6957C33.1428 172.685 32.7064 172.247 32.7064 171.691V164.495C32.7064 163.939 33.1428 163.5 33.6957 163.5H102.455C103.008 163.5 103.444 163.939 103.444 164.495V171.691C103.444 172.247 103.008 172.685 102.455 172.685Z" fill="#7DE7FF"/>
<path d="M102.6 187.369H33.8121C33.2592 187.369 32.8228 186.931 32.8228 186.375V179.179C32.8228 178.623 33.2592 178.185 33.8121 178.185H102.571C103.124 178.185 103.56 178.623 103.56 179.179V186.375C103.59 186.931 103.153 187.369 102.6 187.369Z" fill="#7DE7FF"/>
<path d="M103.008 202.346H34.2486C33.6957 202.346 33.2592 201.907 33.2592 201.351V194.156C33.2592 193.6 33.6957 193.161 34.2486 193.161H103.008C103.56 193.161 103.997 193.6 103.997 194.156V201.351C103.997 201.907 103.56 202.346 103.008 202.346Z" fill="#7DE7FF"/>
<path d="M103.153 217.001H34.3649C33.8121 217.001 33.3756 216.562 33.3756 216.006V208.81C33.3756 208.255 33.8121 207.816 34.3649 207.816H103.124C103.677 207.816 104.113 208.255 104.113 208.81V216.006C104.142 216.562 103.706 217.001 103.153 217.001Z" fill="#7DE7FF"/>
</g>
<defs>
<linearGradient id="paint0_linear_1131_42375" x1="70.0944" y1="47.5483" x2="164.641" y2="47.5483" gradientUnits="userSpaceOnUse">
<stop stop-color="#F57A00"/>
<stop offset="1" stop-color="#7103A4"/>
</linearGradient>
<linearGradient id="paint1_linear_1131_42375" x1="180.06" y1="72.6752" x2="227.199" y2="72.6752" gradientUnits="userSpaceOnUse">
<stop stop-color="#F57A00"/>
<stop offset="1" stop-color="#7103A4"/>
</linearGradient>
<linearGradient id="paint2_linear_1131_42375" x1="364.515" y1="269.201" x2="364.515" y2="173.771" gradientUnits="userSpaceOnUse">
<stop stop-color="#7103A4"/>
<stop offset="1" stop-opacity="0"/>
</linearGradient>
<linearGradient id="paint3_linear_1131_42375" x1="283.038" y1="99.8202" x2="336.899" y2="99.8202" gradientUnits="userSpaceOnUse">
<stop stop-color="#F57A00"/>
<stop offset="1" stop-color="#7103A4"/>
</linearGradient>
<linearGradient id="paint4_linear_1131_42375" x1="306.86" y1="127.211" x2="314.549" y2="127.211" gradientUnits="userSpaceOnUse">
<stop stop-color="#F57A00"/>
<stop offset="1" stop-color="#7103A4"/>
</linearGradient>
<linearGradient id="paint5_linear_1131_42375" x1="291.156" y1="108.635" x2="328.169" y2="108.635" gradientUnits="userSpaceOnUse">
<stop stop-color="#F57A00"/>
<stop offset="1" stop-color="#7103A4"/>
</linearGradient>
<linearGradient id="paint6_linear_1131_42375" x1="298.926" y1="116.846" x2="320.662" y2="116.846" gradientUnits="userSpaceOnUse">
<stop stop-color="#F57A00"/>
<stop offset="1" stop-color="#7103A4"/>
</linearGradient>
<linearGradient id="paint7_linear_1131_42375" x1="109.642" y1="254.321" x2="322.67" y2="254.321" gradientUnits="userSpaceOnUse">
<stop stop-color="#F57A00"/>
<stop offset="1" stop-color="#7103A4"/>
</linearGradient>
<linearGradient id="paint8_linear_1131_42375" x1="250.745" y1="389.239" x2="76.3087" y2="216.892" gradientUnits="userSpaceOnUse">
<stop stop-color="#7103A4"/>
<stop offset="1" stop-color="#3C0754"/>
</linearGradient>
<linearGradient id="paint9_linear_1131_42375" x1="148.613" y1="234.721" x2="284.714" y2="234.721" gradientUnits="userSpaceOnUse">
<stop stop-color="#F57A00"/>
<stop offset="1" stop-color="#7103A4"/>
</linearGradient>
<linearGradient id="paint10_linear_1131_42375" x1="270.111" y1="105.468" x2="150.946" y2="124.138" gradientUnits="userSpaceOnUse">
<stop offset="0.153846" stop-color="#7103A4"/>
<stop offset="1" stop-opacity="0"/>
</linearGradient>
<radialGradient id="paint11_radial_1131_42375" cx="0" cy="0" r="1" gradientUnits="userSpaceOnUse" gradientTransform="translate(217.983 231.92) rotate(-23.1344) scale(72.0116 62.0015)">
<stop offset="1"/>
</radialGradient>
<linearGradient id="paint12_linear_1131_42375" x1="168.944" y1="200.371" x2="263.455" y2="200.371" gradientUnits="userSpaceOnUse">
<stop stop-color="#F57A00"/>
<stop offset="1" stop-color="#7103A4"/>
</linearGradient>
<linearGradient id="paint13_linear_1131_42375" x1="177.877" y1="133.445" x2="254.435" y2="133.445" gradientUnits="userSpaceOnUse">
<stop stop-color="#F57A00"/>
<stop offset="1" stop-color="#7103A4"/>
</linearGradient>
<linearGradient id="paint14_linear_1131_42375" x1="168.944" y1="200.371" x2="263.455" y2="200.371" gradientUnits="userSpaceOnUse">
<stop stop-color="#F57A00"/>
<stop offset="1" stop-color="#7103A4"/>
</linearGradient>
<linearGradient id="paint15_linear_1131_42375" x1="177.877" y1="133.445" x2="254.435" y2="133.445" gradientUnits="userSpaceOnUse">
<stop stop-color="#F57A00"/>
<stop offset="1" stop-color="#7103A4"/>
</linearGradient>
<linearGradient id="paint16_linear_1131_42375" x1="-0.00109863" y1="200.395" x2="136.802" y2="200.395" gradientUnits="userSpaceOnUse">
<stop stop-color="#F57A00"/>
<stop offset="1" stop-color="#7103A4"/>
</linearGradient>
<clipPath id="clip0_1131_42375">
<rect width="393" height="300" fill="white" transform="translate(0 0.015625)"/>
</clipPath>
</defs>
</svg>
