<svg width="334" height="287" viewBox="0 0 334 287" fill="none" xmlns="http://www.w3.org/2000/svg">
<g clip-path="url(#clip0_1131_41323)">
<path d="M147.496 6.7007C149.249 6.7007 150.671 5.28497 150.671 3.53858C150.671 1.79219 149.249 0.376465 147.496 0.376465C145.742 0.376465 144.32 1.79219 144.32 3.53858C144.32 5.28497 145.742 6.7007 147.496 6.7007Z" fill="url(#paint0_linear_1131_41323)"/>
<path d="M175.241 73.1804L175.619 20.8548L147.949 4.21606" stroke="url(#paint1_linear_1131_41323)" stroke-width="2" stroke-miterlimit="10"/>
<path d="M206.388 183.553L284.255 228.275L326.44 219.692" stroke="url(#paint2_linear_1131_41323)" stroke-width="2" stroke-miterlimit="10"/>
<path d="M326.138 223.306C327.891 223.306 329.313 221.89 329.313 220.144C329.313 218.397 327.891 216.982 326.138 216.982C324.384 216.982 322.962 218.397 322.962 220.144C322.962 221.89 324.384 223.306 326.138 223.306Z" fill="url(#paint3_linear_1131_41323)"/>
<path d="M315.402 241.3C317.156 241.3 318.578 239.884 318.578 238.138C318.578 236.391 317.156 234.976 315.402 234.976C313.649 234.976 312.227 236.391 312.227 238.138C312.227 239.884 313.649 241.3 315.402 241.3Z" fill="url(#paint4_linear_1131_41323)"/>
<path d="M192.024 191.835L283.348 244.387L315.705 238.062" stroke="url(#paint5_linear_1131_41323)" stroke-width="2" stroke-miterlimit="10"/>
<path d="M241.39 220.294L241.315 268.479" stroke="url(#paint6_linear_1131_41323)" stroke-width="2" stroke-miterlimit="10"/>
<path d="M241.39 235.427L220.373 248.076" stroke="url(#paint7_linear_1131_41323)" stroke-width="2" stroke-miterlimit="10"/>
<path d="M241.239 251.991L227.404 260.498" stroke="url(#paint8_linear_1131_41323)" stroke-width="2" stroke-miterlimit="10"/>
<path d="M227.404 263.811C229.158 263.811 230.579 262.395 230.579 260.649C230.579 258.903 229.158 257.487 227.404 257.487C225.651 257.487 224.229 258.903 224.229 260.649C224.229 262.395 225.651 263.811 227.404 263.811Z" fill="url(#paint9_linear_1131_41323)"/>
<path d="M240.937 271.716C242.69 271.716 244.112 270.301 244.112 268.554C244.112 266.808 242.69 265.392 240.937 265.392C239.183 265.392 237.761 266.808 237.761 268.554C237.761 270.301 239.183 271.716 240.937 271.716Z" fill="url(#paint10_linear_1131_41323)"/>
<path d="M220.374 251.539C222.127 251.539 223.549 250.123 223.549 248.377C223.549 246.631 222.127 245.215 220.374 245.215C218.62 245.215 217.198 246.631 217.198 248.377C217.198 250.123 218.62 251.539 220.374 251.539Z" fill="url(#paint11_linear_1131_41323)"/>
<path d="M174.938 205.613L194.821 217.358L194.292 249.28L166.093 266.07L166.622 281.654" stroke="url(#paint12_linear_1131_41323)" stroke-width="2" stroke-miterlimit="10"/>
<path d="M166.244 284.817C167.998 284.817 169.419 283.401 169.419 281.655C169.419 279.908 167.998 278.492 166.244 278.492C164.49 278.492 163.069 279.908 163.069 281.655C163.069 283.401 164.49 284.817 166.244 284.817Z" fill="url(#paint13_linear_1131_41323)"/>
<path d="M30.3155 238.364C32.0691 238.364 33.4907 236.948 33.4907 235.202C33.4907 233.455 32.0691 232.04 30.3155 232.04C28.5619 232.04 27.1403 233.455 27.1403 235.202C27.1403 236.948 28.5619 238.364 30.3155 238.364Z" fill="url(#paint14_linear_1131_41323)"/>
<path d="M149.31 198.988L100.548 227.221L58.4387 218.939L29.7107 235.277" stroke="url(#paint15_linear_1131_41323)" stroke-width="2" stroke-miterlimit="10"/>
<path d="M155.962 246.645C157.716 246.645 159.138 245.23 159.138 243.483C159.138 241.737 157.716 240.321 155.962 240.321C154.209 240.321 152.787 241.737 152.787 243.483C152.787 245.23 154.209 246.645 155.962 246.645Z" fill="url(#paint16_linear_1131_41323)"/>
<path d="M113.627 287.075C115.38 287.075 116.802 285.659 116.802 283.913C116.802 282.167 115.38 280.751 113.627 280.751C111.873 280.751 110.451 282.167 110.451 283.913C110.451 285.659 111.873 287.075 113.627 287.075Z" fill="url(#paint17_linear_1131_41323)"/>
<path d="M163.296 206.818L127.764 227.146L128.217 275.631L113.627 283.913" stroke="url(#paint18_linear_1131_41323)" stroke-width="2" stroke-miterlimit="10"/>
<path d="M143.11 218.864L155.736 227.146L155.887 243.408" stroke="url(#paint19_linear_1131_41323)" stroke-width="2" stroke-miterlimit="10"/>
<path d="M27.2915 207.42C29.0451 207.42 30.4667 206.004 30.4667 204.258C30.4667 202.512 29.0451 201.096 27.2915 201.096C25.5379 201.096 24.1163 202.512 24.1163 204.258C24.1163 206.004 25.5379 207.42 27.2915 207.42Z" fill="url(#paint20_linear_1131_41323)"/>
<path d="M84.1426 206.818C85.8962 206.818 87.3178 205.402 87.3178 203.656C87.3178 201.909 85.8962 200.493 84.1426 200.493C82.389 200.493 80.9674 201.909 80.9674 203.656C80.9674 205.402 82.389 206.818 84.1426 206.818Z" fill="url(#paint21_linear_1131_41323)"/>
<path d="M107.201 174.368L70.0054 196.127L42.1091 196.277L27.2159 204.559" stroke="url(#paint22_linear_1131_41323)" stroke-width="2" stroke-miterlimit="10"/>
<path d="M83.9914 187.469L97.9774 195.524L83.9914 203.806" stroke="url(#paint23_linear_1131_41323)" stroke-width="2" stroke-miterlimit="10"/>
<path d="M240.785 130.099L281.609 106.383L281.987 74.0086L310.715 57.4451" stroke="url(#paint24_linear_1131_41323)" stroke-width="2" stroke-miterlimit="10"/>
<path d="M310.413 60.1555C312.166 60.1555 313.588 58.7398 313.588 56.9934C313.588 55.247 312.166 53.8313 310.413 53.8313C308.659 53.8313 307.238 55.247 307.238 56.9934C307.238 58.7398 308.659 60.1555 310.413 60.1555Z" fill="url(#paint25_linear_1131_41323)"/>
<path d="M323.794 108.641C325.548 108.641 326.969 107.226 326.969 105.479C326.969 103.733 325.548 102.317 323.794 102.317C322.04 102.317 320.619 103.733 320.619 105.479C320.619 107.226 322.04 108.641 323.794 108.641Z" fill="url(#paint26_linear_1131_41323)"/>
<path d="M261.122 118.278L281.609 130.475L324.323 105.253" stroke="url(#paint27_linear_1131_41323)" stroke-width="2" stroke-miterlimit="10"/>
<path d="M127.461 121.064L67.2083 86.6573L80.4382 79.279L42.8651 57.4453" stroke="url(#paint28_linear_1131_41323)" stroke-width="2" stroke-miterlimit="10"/>
<path d="M42.2603 60.0803C44.0139 60.0803 45.4355 58.6646 45.4355 56.9182C45.4355 55.1718 44.0139 53.7561 42.2603 53.7561C40.5067 53.7561 39.0851 55.1718 39.0851 56.9182C39.0851 58.6646 40.5067 60.0803 42.2603 60.0803Z" fill="url(#paint29_linear_1131_41323)"/>
<path d="M57.3803 35.6116C59.1339 35.6116 60.5555 34.1959 60.5555 32.4495C60.5555 30.7031 59.1339 29.2874 57.3803 29.2874C55.6267 29.2874 54.2051 30.7031 54.2051 32.4495C54.2051 34.1959 55.6267 35.6116 57.3803 35.6116Z" fill="url(#paint30_linear_1131_41323)"/>
<path d="M56.6243 65.8023L57.1535 33.0518" stroke="url(#paint31_linear_1131_41323)" stroke-width="2" stroke-miterlimit="10"/>
<path d="M93.3658 101.564L120.582 85.9043L144.169 99.6068" stroke="url(#paint32_linear_1131_41323)" stroke-width="2" stroke-miterlimit="10"/>
<path d="M3.17519 189.125C4.9288 189.125 6.35038 187.709 6.35038 185.963C6.35038 184.216 4.9288 182.801 3.17519 182.801C1.42158 182.801 0 184.216 0 185.963C0 187.709 1.42158 189.125 3.17519 189.125Z" fill="url(#paint33_linear_1131_41323)"/>
<path d="M78.6238 158.558L44.8307 178.133L30.0887 170.152L2.8728 185.963" stroke="url(#paint34_linear_1131_41323)" stroke-width="2" stroke-miterlimit="10"/>
<path d="M21.7728 120.161C23.5264 120.161 24.9479 118.745 24.9479 116.999C24.9479 115.252 23.5264 113.836 21.7728 113.836C20.0191 113.836 18.5976 115.252 18.5976 116.999C18.5976 118.745 20.0191 120.161 21.7728 120.161Z" fill="url(#paint35_linear_1131_41323)"/>
<path d="M7.33318 95.6165C9.08679 95.6165 10.5084 94.2007 10.5084 92.4544C10.5084 90.708 9.08679 89.2922 7.33318 89.2922C5.57957 89.2922 4.15799 90.708 4.15799 92.4544C4.15799 94.2007 5.57957 95.6165 7.33318 95.6165Z" fill="url(#paint36_linear_1131_41323)"/>
<path d="M100.321 130.852L49.5935 100.284L21.924 116.848" stroke="url(#paint37_linear_1131_41323)" stroke-width="1.5" stroke-miterlimit="10" stroke-linecap="round" stroke-linejoin="round"/>
<path d="M35.6075 108.642L7.25757 92.7556" stroke="url(#paint38_linear_1131_41323)" stroke-width="1.5" stroke-miterlimit="10" stroke-linecap="round" stroke-linejoin="round"/>
<path d="M227.707 172.637L238.971 178.961L281.307 154.116L323.416 178.434" stroke="url(#paint39_linear_1131_41323)" stroke-width="2" stroke-miterlimit="10"/>
<path d="M323.567 181.521C325.321 181.521 326.742 180.105 326.742 178.359C326.742 176.612 325.321 175.197 323.567 175.197C321.814 175.197 320.392 176.612 320.392 178.359C320.392 180.105 321.814 181.521 323.567 181.521Z" fill="url(#paint40_linear_1131_41323)"/>
<path d="M330.825 164.43C332.578 164.43 334 163.014 334 161.268C334 159.522 332.578 158.106 330.825 158.106C329.071 158.106 327.65 159.522 327.65 161.268C327.65 163.014 329.071 164.43 330.825 164.43Z" fill="url(#paint41_linear_1131_41323)"/>
<path d="M300.509 164.731L318.502 153.363L330.976 161.042" stroke="url(#paint42_linear_1131_41323)" stroke-width="2" stroke-miterlimit="10"/>
<path d="M263.087 9.03469C264.841 9.03469 266.263 7.61896 266.263 5.87257C266.263 4.12618 264.841 2.71045 263.087 2.71045C261.334 2.71045 259.912 4.12618 259.912 5.87257C259.912 7.61896 261.334 9.03469 263.087 9.03469Z" fill="url(#paint43_linear_1131_41323)"/>
<path d="M238.744 51.9492L253.335 60.4568L226.422 76.5686" stroke="url(#paint44_linear_1131_41323)" stroke-width="2" stroke-miterlimit="10"/>
<path d="M212.511 67.0069L262.785 38.0208L232.167 21.0809L263.541 6.02319" stroke="url(#paint45_linear_1131_41323)" stroke-width="2" stroke-miterlimit="10"/>
<path d="M236.174 169.324V162.096C236.174 163.15 235.72 164.129 234.662 164.731L171.687 201.999C170.175 202.902 168.21 202.902 166.698 201.999L75.0706 149.297C74.0878 148.695 73.5586 147.716 73.5586 146.662L73.6342 154.266C73.5586 155.32 74.0878 156.449 75.1462 157.052L166.32 209.528C168.134 210.582 170.478 210.582 172.292 209.528L234.813 172.486C235.947 171.808 236.401 170.528 236.174 169.324Z" fill="url(#paint46_linear_1131_41323)" fill-opacity="0.8"/>
<path d="M75.0706 149.297L166.698 202.074C168.21 202.978 170.175 202.978 171.687 202.074L234.662 164.806C235.645 164.204 236.174 163.225 236.174 162.171C236.174 161.193 235.645 160.139 234.662 159.612L142.732 106.608C141.825 106.081 140.616 106.081 139.708 106.608L75.0706 144.102C74.0878 144.704 73.5586 145.683 73.5586 146.662C73.5586 147.641 74.0122 148.695 75.0706 149.297Z" fill="#353D9B"/>
<path d="M139.482 113.083L132.904 117.074L139.482 121.064L146.21 116.923L139.482 113.083Z" fill="url(#paint47_linear_1131_41323)"/>
<path d="M147.344 117.601L140.842 121.591L147.344 125.581L154.148 121.44L147.344 117.601Z" fill="url(#paint48_linear_1131_41323)"/>
<path d="M155.282 122.118L148.78 126.108L155.282 130.099L162.086 125.958L155.282 122.118Z" fill="url(#paint49_linear_1131_41323)"/>
<path d="M163.22 126.635L156.718 130.626L163.22 134.616L170.024 130.475L163.22 126.635Z" fill="url(#paint50_linear_1131_41323)"/>
<path d="M171.158 131.153L164.581 135.143L171.158 139.133L177.886 135.068L171.158 131.153Z" fill="url(#paint51_linear_1131_41323)"/>
<path d="M179.096 135.67L172.519 139.66L179.096 143.651L185.824 139.585L179.096 135.67Z" fill="url(#paint52_linear_1131_41323)"/>
<path d="M187.034 140.187L180.457 144.177L187.034 148.168L193.762 144.102L187.034 140.187Z" fill="url(#paint53_linear_1131_41323)"/>
<path d="M194.896 144.704L188.395 148.695L194.896 152.685L201.7 148.619L194.896 144.704Z" fill="url(#paint54_linear_1131_41323)"/>
<path d="M202.834 149.222L196.333 153.212L202.834 157.202L209.638 153.137L202.834 149.222Z" fill="url(#paint55_linear_1131_41323)"/>
<path d="M210.772 153.739L204.271 157.729L215.46 164.279L220.752 159.461L210.772 153.739Z" fill="url(#paint56_linear_1131_41323)"/>
<path d="M218.71 158.256L212.133 162.247L218.71 166.237L225.514 162.171L218.71 158.256Z" fill="url(#paint57_linear_1131_41323)"/>
<path d="M131.695 117.676L125.193 121.666L131.695 125.656L138.499 121.515L131.695 117.676Z" fill="url(#paint58_linear_1131_41323)"/>
<path d="M139.633 122.193L133.056 126.183L139.633 130.174L146.437 126.033L139.633 122.193Z" fill="url(#paint59_linear_1131_41323)"/>
<path d="M147.571 126.71L140.994 130.701L147.571 134.691L154.299 130.55L147.571 126.71Z" fill="url(#paint60_linear_1131_41323)"/>
<path d="M155.509 131.228L148.932 135.218L155.509 139.208L162.237 135.067L155.509 131.228Z" fill="url(#paint61_linear_1131_41323)"/>
<path d="M163.371 135.745L156.87 139.735L163.371 143.726L170.175 139.585L163.371 135.745Z" fill="url(#paint62_linear_1131_41323)"/>
<path d="M171.309 140.262L164.808 144.253L171.309 148.243L178.113 144.102L171.309 140.262Z" fill="url(#paint63_linear_1131_41323)"/>
<path d="M179.247 144.78L172.746 148.77L179.247 152.76L186.051 148.619L179.247 144.78Z" fill="url(#paint64_linear_1131_41323)"/>
<path d="M187.185 149.297L180.608 153.287L187.185 157.277L193.989 153.137L187.185 149.297Z" fill="url(#paint65_linear_1131_41323)"/>
<path d="M195.123 153.814L188.546 157.805L195.123 161.795L201.852 157.654L195.123 153.814Z" fill="url(#paint66_linear_1131_41323)"/>
<path d="M203.061 158.332L196.484 162.322L203.061 166.312L209.789 162.171L203.061 158.332Z" fill="url(#paint67_linear_1131_41323)"/>
<path d="M210.923 162.849L204.422 166.839L210.923 170.829L217.727 166.689L210.923 162.849Z" fill="url(#paint68_linear_1131_41323)"/>
<path d="M123.984 122.269L117.407 126.259L128.898 132.96L133.131 127.539L123.984 122.269Z" fill="url(#paint69_linear_1131_41323)"/>
<path d="M131.846 126.786L125.345 130.776L131.846 134.766L138.65 130.626L131.846 126.786Z" fill="url(#paint70_linear_1131_41323)"/>
<path d="M139.784 131.303L133.283 135.294L139.784 139.284L146.588 135.143L139.784 131.303Z" fill="url(#paint71_linear_1131_41323)"/>
<path d="M147.722 135.821L141.221 139.811L147.722 143.801L154.526 139.66L147.722 135.821Z" fill="url(#paint72_linear_1131_41323)"/>
<path d="M155.66 140.338L149.158 144.328L155.66 148.318L162.464 144.178L155.66 140.338Z" fill="url(#paint73_linear_1131_41323)"/>
<path d="M163.598 144.855L157.021 148.846L163.598 152.836L170.326 148.695L163.598 144.855Z" fill="url(#paint74_linear_1131_41323)"/>
<path d="M171.536 149.373L164.959 153.363L171.536 157.353L178.264 153.212L171.536 149.373Z" fill="url(#paint75_linear_1131_41323)"/>
<path d="M179.398 153.89L172.897 157.88L179.398 161.87L186.202 157.729L179.398 153.89Z" fill="url(#paint76_linear_1131_41323)"/>
<path d="M187.336 158.407L180.835 162.397L187.336 166.388L194.14 162.247L187.336 158.407Z" fill="url(#paint77_linear_1131_41323)"/>
<path d="M195.274 162.924L188.773 166.915L195.274 170.905L202.078 166.764L195.274 162.924Z" fill="url(#paint78_linear_1131_41323)"/>
<path d="M203.212 167.442L196.711 171.432L203.212 175.422L210.016 171.281L203.212 167.442Z" fill="url(#paint79_linear_1131_41323)"/>
<path d="M116.197 126.861L109.695 130.776L120.582 137.1L126.63 132.809L116.197 126.861Z" fill="url(#paint80_linear_1131_41323)"/>
<path d="M124.135 131.378L117.633 135.369L124.135 139.284L130.939 135.218L124.135 131.378Z" fill="url(#paint81_linear_1131_41323)"/>
<path d="M132.073 135.896L125.496 139.886L132.073 143.801L138.877 139.735L132.073 135.896Z" fill="url(#paint82_linear_1131_41323)"/>
<path d="M140.011 140.413L133.434 144.403L140.011 148.318L146.739 144.253L140.011 140.413Z" fill="url(#paint83_linear_1131_41323)"/>
<path d="M147.949 144.93L141.372 148.921L147.949 152.836L154.677 148.77L147.949 144.93Z" fill="url(#paint84_linear_1131_41323)"/>
<path d="M155.811 149.448L149.31 153.438L155.811 157.353L162.615 153.287L155.811 149.448Z" fill="url(#paint85_linear_1131_41323)"/>
<path d="M163.749 153.965L157.248 157.955L163.749 161.87L170.553 157.805L163.749 153.965Z" fill="url(#paint86_linear_1131_41323)"/>
<path d="M171.687 158.482L165.186 162.472L171.687 166.387L178.491 162.322L171.687 158.482Z" fill="url(#paint87_linear_1131_41323)"/>
<path d="M179.625 163L173.048 166.99L179.625 170.905L186.429 166.839L179.625 163Z" fill="url(#paint88_linear_1131_41323)"/>
<path d="M187.563 167.517L180.986 171.507L187.563 175.422L194.292 171.357L187.563 167.517Z" fill="url(#paint89_linear_1131_41323)"/>
<path d="M195.501 172.034L188.924 176.024L195.501 180.015L202.23 175.874L195.501 172.034Z" fill="url(#paint90_linear_1131_41323)"/>
<path d="M108.486 131.378L101.909 135.369L108.486 139.359L115.214 135.293L108.486 131.378Z" fill="url(#paint91_linear_1131_41323)"/>
<path d="M116.424 135.971L109.847 139.886L116.424 143.876L123.152 139.811L116.424 135.971Z" fill="url(#paint92_linear_1131_41323)"/>
<path d="M124.286 140.488L117.785 144.403L124.286 148.394L131.09 144.328L124.286 140.488Z" fill="url(#paint93_linear_1131_41323)"/>
<path d="M132.224 145.006L125.723 148.921L136.231 154.944L142.203 150.652L132.224 145.006Z" fill="url(#paint94_linear_1131_41323)"/>
<path d="M140.162 149.523L133.661 153.438L144.698 159.837L150.444 155.395L140.162 149.523Z" fill="url(#paint95_linear_1131_41323)"/>
<path d="M148.1 154.04L141.598 157.955L152.863 164.505L158.382 159.838L148.1 154.04Z" fill="url(#paint96_linear_1131_41323)"/>
<path d="M156.038 158.558L149.461 162.473L156.038 166.463L162.766 162.397L156.038 158.558Z" fill="url(#paint97_linear_1131_41323)"/>
<path d="M163.976 163.075L157.399 166.99L163.976 170.98L170.704 166.915L163.976 163.075Z" fill="url(#paint98_linear_1131_41323)"/>
<path d="M171.838 167.592L165.337 171.507L171.838 175.498L178.642 171.432L171.838 167.592Z" fill="url(#paint99_linear_1131_41323)"/>
<path d="M179.776 172.11L173.275 176.025L184.615 182.65L190.134 177.982L179.776 172.11Z" fill="url(#paint100_linear_1131_41323)"/>
<path d="M187.714 176.627L181.213 180.617L187.714 184.532L194.518 180.467L187.714 176.627Z" fill="url(#paint101_linear_1131_41323)"/>
<path d="M123.455 150.276L107.201 159.913L144.32 181.144L160.574 171.507L123.455 150.276Z" fill="url(#paint102_linear_1131_41323)" fill-opacity="0.8"/>
<path d="M142.732 27.6308C142.808 27.5555 142.959 27.4802 143.035 27.4802L142.732 27.6308Z" fill="url(#paint103_linear_1131_41323)" fill-opacity="0.8"/>
<path d="M242.222 76.6437L151.729 24.2428C150.444 23.4899 149.007 23.7158 147.949 24.4687L143.186 27.3296C144.169 26.8026 145.378 26.7273 146.512 27.4049L237.005 79.8058C238.669 80.7845 239.727 82.5162 239.727 84.4737L239.651 156.6C239.651 157.88 238.971 158.859 238.064 159.461L243.053 156.45C244.112 155.923 244.868 154.793 244.868 153.438L244.943 81.3115C244.943 79.354 243.885 77.6224 242.222 76.6437Z" fill="url(#paint104_linear_1131_41323)" fill-opacity="0.8"/>
<path d="M239.576 156.525L239.651 84.3983C239.651 82.4408 238.593 80.7092 236.93 79.7305L146.512 27.4049C145.378 26.7273 144.169 26.8026 143.186 27.3296C143.11 27.3296 143.035 27.4049 143.035 27.4049C142.959 27.4802 142.884 27.4802 142.808 27.5555C142.052 28.1578 141.447 29.0612 141.447 30.1906L141.069 102.468C141.069 104.275 142.052 106.006 143.64 106.91L234.511 159.235C235.645 159.913 237.005 159.762 237.988 159.16C238.971 158.859 239.576 157.805 239.576 156.525Z" fill="#4653B7"/>
<path d="M147.042 101.64L147.344 35.3103L233.906 84.4737L233.679 150.201L147.042 101.64Z" fill="url(#paint105_linear_1131_41323)"/>
<path d="M209.412 81.2363C193.914 78.0742 188.773 67.0821 188.773 67.0821C179.474 70.0183 168.21 60.532 168.21 60.532L165.337 61.8119C165.337 61.8119 166.395 62.8659 168.134 64.2211C171.687 66.9315 178.038 70.6206 184.237 68.5879C184.237 68.5879 189.378 79.58 204.876 82.7421C204.876 82.7421 205.102 95.3153 196.484 105.931C193.158 109.921 190.058 112.481 187.79 114.062C185.446 115.643 183.934 116.246 183.934 116.246L188.47 114.74C188.47 114.74 194.443 112.556 201.096 104.425C209.638 93.8095 209.412 81.2363 209.412 81.2363Z" fill="url(#paint106_linear_1131_41323)" fill-opacity="0.8"/>
<path d="M196.408 105.931C205.027 95.3905 204.8 82.742 204.8 82.742C189.302 79.5799 184.161 68.5877 184.161 68.5877C177.962 70.5452 171.612 66.8561 168.058 64.221C166.32 62.8658 165.261 61.8118 165.261 61.8118C163.976 96.2939 183.783 116.245 183.783 116.245C183.783 116.245 185.295 115.718 187.639 114.062C189.982 112.481 193.158 109.921 196.408 105.931ZM181.364 97.6491L181.44 89.2168C181.44 89.2168 179.247 87.4852 180.079 85.5277C180.91 83.5702 183.783 84.3983 184.993 86.2806C186.202 88.1628 186.202 90.7226 184.161 90.6473V99.3808L181.364 97.6491Z" fill="white"/>
<path d="M184.161 90.5722C186.202 90.6475 186.202 88.0876 184.993 86.2054C183.783 84.3232 180.91 83.495 180.079 85.4526C179.247 87.4101 181.44 89.1417 181.44 89.1417L181.364 97.574L184.161 99.2304V90.5722Z" fill="url(#paint107_linear_1131_41323)" fill-opacity="0.8"/>
<path d="M222.339 18.6715C221.432 7.9052 214.552 -0.451826 206.841 -9.44193e-05C205.934 0.0751941 205.102 0.225771 204.271 0.526926C202.834 0.903368 200.793 1.80683 199.735 2.25856C200.718 1.88212 201.7 1.65625 202.759 1.58097C210.394 1.05395 217.349 9.48627 218.181 20.4031C218.937 30.1153 214.704 38.4724 208.353 40.5052C212.133 39.677 214.477 38.5477 215.837 37.6442C220.676 34.7079 223.019 27.2544 222.339 18.6715Z" fill="url(#paint108_linear_1131_41323)" fill-opacity="0.8"/>
<path d="M204.8 41.1829C204.498 41.2581 204.346 41.2581 204.271 41.2581C204.422 41.2581 204.573 41.2581 204.8 41.1829Z" fill="url(#paint109_linear_1131_41323)" fill-opacity="0.8"/>
<path d="M204.8 41.1828C205.027 41.1828 205.254 41.1075 205.556 41.0322C205.329 41.1075 205.027 41.1828 204.8 41.1828Z" fill="url(#paint110_linear_1131_41323)" fill-opacity="0.8"/>
<path d="M218.181 20.4784C217.274 9.56153 210.394 1.12921 202.759 1.65623C201.7 1.73152 200.718 1.95738 199.735 2.33383C193.687 4.74306 189.68 12.8742 190.436 22.2853C191.268 33.0516 198.072 41.4086 205.556 41.1074C205.632 41.1074 205.783 41.1074 205.858 41.1074C206.69 41.0321 207.522 40.8816 208.353 40.6557C214.704 38.4723 218.937 30.1153 218.181 20.4784ZM192.855 22.21C192.099 13.0248 196.56 5.19479 202.683 4.81835C208.807 4.44191 214.477 11.5943 215.233 20.7795C215.989 29.9647 211.528 37.7947 205.405 38.1712C199.13 38.5476 193.536 31.3952 192.855 22.21Z" fill="#ED7308"/>
<path d="M205.56 38.0973C211.714 37.5369 216.018 29.6309 215.174 20.4388C214.33 11.2466 208.657 4.24918 202.504 4.80956C196.35 5.36994 192.046 13.2759 192.89 22.4681C193.734 31.6602 199.407 38.6577 205.56 38.0973Z" fill="url(#paint111_linear_1131_41323)" fill-opacity="0.8"/>
<path d="M195.501 19.4997C195.274 19.4997 195.123 19.3492 195.123 19.1233C195.123 18.9727 195.048 15.5094 197.391 10.9921C199.886 6.32424 202.759 7.00183 202.91 7.00183C203.137 7.07712 203.212 7.2277 203.137 7.45356C203.061 7.67943 202.91 7.75472 202.683 7.75472C202.608 7.75472 200.188 7.2277 197.996 11.3686C195.728 15.66 195.804 19.048 195.804 19.1233C195.879 19.2739 195.728 19.4997 195.501 19.4997Z" fill="url(#paint112_linear_1131_41323)"/>
<path d="M212.965 29.0614C212.738 29.0614 212.587 28.8355 212.587 28.6849C212.587 28.6096 213.191 22.7371 211.982 17.3916C210.772 12.1214 206.312 8.80875 206.236 8.73346C206.085 8.58288 206.009 8.35701 206.161 8.20644C206.312 8.05586 206.539 7.98057 206.69 8.13115C206.917 8.28173 211.453 11.6697 212.662 17.1658C213.872 22.6618 213.267 28.6096 213.267 28.6849C213.267 28.9108 213.116 29.0614 212.965 29.0614Z" fill="url(#paint113_linear_1131_41323)"/>
<path d="M197.316 24.243C197.164 24.243 196.938 24.0924 196.938 23.9418C196.182 15.2084 199.13 12.4227 199.281 12.2721C199.432 12.1215 199.659 12.1215 199.81 12.2721C199.962 12.4227 199.962 12.6486 199.81 12.7991C199.81 12.7991 197.013 15.5095 197.694 23.8666C197.694 24.0171 197.542 24.243 197.316 24.243Z" fill="url(#paint114_linear_1131_41323)"/>
<path d="M208.202 13.7026C208.051 13.7026 207.975 13.6273 207.899 13.5521C205.556 9.78763 202.456 11.0675 202.305 11.1428C202.154 11.2181 201.927 11.1428 201.851 10.917C201.776 10.7664 201.852 10.5405 202.003 10.4652C202.003 10.4652 205.783 8.88417 208.504 13.1756C208.58 13.3262 208.58 13.5521 208.353 13.7026C208.353 13.7026 208.277 13.7026 208.202 13.7026Z" fill="url(#paint115_linear_1131_41323)"/>
<path d="M200.34 19.9514H200.264C200.037 19.8761 199.962 19.7255 200.037 19.4996C200.113 19.3491 201.096 15.7352 203.515 15.9611C205.783 16.187 206.69 18.0692 206.69 18.1445C206.766 18.295 206.69 18.5209 206.539 18.5962C206.388 18.6715 206.161 18.5962 206.085 18.4456C206.085 18.3703 205.329 16.9398 203.515 16.714C201.776 16.4881 200.869 19.6502 200.869 19.7255C200.642 19.8761 200.491 19.9514 200.34 19.9514Z" fill="url(#paint116_linear_1131_41323)"/>
<path d="M198.828 21.8336C198.601 21.8336 198.45 21.6831 198.45 21.4572C198.45 21.2313 198.45 16.5634 200.793 14.3048C201.7 13.4766 202.759 13.0249 204.044 13.1002C204.271 13.1002 204.422 13.2507 204.422 13.4766C204.422 13.7025 204.271 13.853 204.044 13.853C202.986 13.7778 202.078 14.1542 201.322 14.8318C199.206 16.8646 199.13 21.3819 199.13 21.4572C199.13 21.6831 198.979 21.8336 198.828 21.8336Z" fill="url(#paint117_linear_1131_41323)"/>
<path d="M196.56 29.5884C196.408 29.5884 196.257 29.5131 196.257 29.3626C195.426 27.2545 195.048 22.6619 194.972 22.436C194.972 22.2101 195.123 22.0596 195.274 22.0596C195.501 22.0596 195.652 22.2101 195.652 22.3607C195.652 22.436 196.03 27.0286 196.862 29.0614C196.938 29.212 196.862 29.4378 196.635 29.5131C196.635 29.5884 196.635 29.5884 196.56 29.5884Z" fill="url(#paint118_linear_1131_41323)"/>
<path d="M199.584 34.2564C199.357 34.2564 199.206 34.0305 199.206 33.8799C199.206 33.8047 199.735 28.6097 199.432 23.5654C199.432 23.3395 199.583 23.189 199.81 23.189C200.037 23.189 200.188 23.3395 200.188 23.5654C200.491 28.685 199.962 33.9552 199.962 34.0305C199.886 34.1811 199.735 34.2564 199.584 34.2564Z" fill="url(#paint119_linear_1131_41323)"/>
<path d="M209.714 22.7371C209.563 22.7371 209.412 22.5865 209.336 22.436C208.58 17.241 206.236 15.133 206.236 15.0577C206.085 14.9071 206.085 14.6812 206.236 14.5307C206.388 14.3801 206.614 14.3801 206.766 14.5307C206.841 14.6059 209.336 16.8646 210.092 22.3607C210.092 22.5112 209.941 22.6618 209.714 22.7371Z" fill="url(#paint120_linear_1131_41323)"/>
<path d="M209.865 34.4068C209.789 34.4068 209.714 34.4068 209.638 34.3315C209.487 34.1809 209.487 33.9551 209.563 33.8045C209.563 33.8045 210.545 32.4493 211.15 26.3509C211.755 20.1773 209.185 15.4341 209.185 15.3588C209.109 15.2082 209.185 14.9824 209.336 14.8318C209.487 14.7565 209.714 14.8318 209.865 14.9824C209.941 15.2082 212.587 20.0267 211.906 26.3509C211.301 32.5999 210.243 34.0304 210.167 34.1809C210.016 34.3315 209.941 34.4068 209.865 34.4068Z" fill="url(#paint121_linear_1131_41323)"/>
<path d="M206.992 26.8027C206.765 26.8027 206.614 26.6521 206.614 26.4263C206.463 23.4147 205.631 20.4785 204.497 19.6503C204.271 19.4997 204.12 19.4244 203.893 19.4244C202.834 19.575 202.683 21.8336 202.759 22.5112C202.759 22.7371 202.608 22.8877 202.381 22.8877C202.154 22.8877 202.003 22.7371 202.003 22.5112C202.003 22.1348 201.927 18.9727 203.741 18.6715C204.119 18.5962 204.573 18.7468 204.951 19.048C206.161 20.0267 207.219 23.1136 207.295 26.351C207.295 26.6521 207.143 26.8027 206.992 26.8027Z" fill="url(#paint122_linear_1131_41323)"/>
<path d="M202.381 36.289H202.305C202.078 36.2137 202.003 35.9879 202.078 35.8373C203.061 32.7505 201.927 25.2216 201.927 25.1463C201.927 24.9204 202.003 24.7699 202.23 24.6946C202.456 24.6946 202.608 24.7699 202.683 24.9957C202.759 25.2969 203.817 32.7505 202.834 35.9879C202.683 36.1384 202.532 36.289 202.381 36.289Z" fill="url(#paint123_linear_1131_41323)"/>
<path d="M208.58 28.3085C208.353 28.3085 208.202 28.158 208.202 27.9321C208.353 24.243 207.219 20.328 207.219 20.328C207.143 20.1021 207.295 19.9515 207.446 19.8762C207.673 19.8009 207.824 19.9515 207.899 20.1021C207.975 20.2527 209.033 24.1677 208.882 27.9321C208.958 28.158 208.807 28.3085 208.58 28.3085Z" fill="url(#paint124_linear_1131_41323)"/>
<path d="M206.387 36.289C206.312 36.289 206.236 36.289 206.161 36.2137C206.01 36.0632 206.01 35.8373 206.161 35.6867C209.185 32.5246 209.487 27.1038 209.487 27.0285C209.487 26.8027 209.638 26.6521 209.865 26.6521C210.092 26.6521 210.243 26.8027 210.243 27.0285C210.243 27.2544 209.941 32.7505 206.765 36.1385C206.614 36.2137 206.539 36.289 206.387 36.289Z" fill="url(#paint125_linear_1131_41323)"/>
<path d="M203.968 37.1925C203.893 37.1925 203.893 37.1925 203.817 37.1925C203.59 37.1172 203.515 36.8913 203.59 36.7408C203.59 36.7408 204.195 34.9338 204.422 29.7389C204.649 24.544 203.968 22.5112 203.893 22.5112C203.817 22.2853 203.893 22.1348 204.12 22.0595C204.271 21.9842 204.498 22.0595 204.573 22.2853C204.573 22.3606 205.329 24.4687 205.102 29.8142C204.875 35.1597 204.271 36.8913 204.271 36.9666C204.271 37.1172 204.119 37.1925 203.968 37.1925Z" fill="url(#paint126_linear_1131_41323)"/>
<path d="M206.614 32.7506H206.539C206.312 32.6753 206.236 32.4495 206.312 32.2989C206.841 30.7178 206.614 27.7816 206.614 27.7063C206.614 27.4804 206.766 27.3298 206.917 27.3298C207.144 27.3298 207.295 27.4804 207.295 27.631C207.295 27.7816 207.522 30.7178 206.992 32.5247C206.917 32.6 206.766 32.7506 206.614 32.7506Z" fill="url(#paint127_linear_1131_41323)"/>
<path d="M198.298 32.5999C198.147 32.5999 197.996 32.4493 197.92 32.2987C197.316 27.7061 197.164 25.4475 197.164 25.4475C197.164 25.2216 197.316 25.071 197.542 25.071C197.769 25.071 197.92 25.2216 197.92 25.4475C197.92 25.4475 198.072 27.6309 198.676 32.2235C198.676 32.374 198.525 32.5246 198.298 32.5999Z" fill="url(#paint128_linear_1131_41323)"/>
<path d="M109.393 37.8701C109.015 37.9454 108.486 38.1713 107.957 38.3972L105.689 39.6018C105.915 39.5265 106.142 39.3759 106.369 39.3759C108.335 39.0748 110.3 41.484 110.829 44.872C111.207 47.5071 110.603 49.9163 109.393 50.9703L111.963 49.2387C113.4 48.3353 114.08 45.926 113.778 43.2156C113.249 40.0535 111.359 37.6443 109.393 37.8701Z" fill="url(#paint129_linear_1131_41323)" fill-opacity="0.8"/>
<path d="M108.637 51.5726L108.713 51.4973C108.713 51.4973 108.713 51.4973 108.637 51.5726Z" fill="url(#paint130_linear_1131_41323)" fill-opacity="0.8"/>
<path d="M126.479 22.5113C124.664 17.0905 119.599 10.9921 112.493 9.71224C110.149 9.33579 107.957 9.78752 105.991 10.691C105.991 10.691 101.455 12.8744 98.1286 17.5422C100.245 15.0577 104.555 10.9169 109.469 11.8203C116.121 12.9496 121.035 19.1986 122.85 24.9205C123.379 26.5769 123.152 28.6097 122.396 29.5884L124.74 27.6309L125.496 26.9533L126.176 26.2757C127.31 25.4475 127.008 24.1676 126.479 22.5113Z" fill="url(#paint131_linear_1131_41323)" fill-opacity="0.8"/>
<path d="M111.585 23.7913C110.3 23.4901 109.091 23.5654 107.805 23.9419C107.805 23.9419 100.472 27.4804 98.809 32.4495C98.809 32.3742 98.8846 32.2989 98.8846 32.2236C99.0358 31.9225 103.496 24.77 108.561 26.05C113.4 27.2546 116.575 32.9765 117.633 38.0208C117.936 39.376 117.709 40.7312 117.255 41.7853L119.523 39.6772L120.582 38.7737C121.716 37.7197 121.111 36.9668 120.809 35.1599C119.901 30.1908 116.726 25.1465 111.585 23.7913Z" fill="url(#paint132_linear_1131_41323)" fill-opacity="0.8"/>
<path d="M110.829 44.9474C110.3 41.5594 108.335 39.0749 106.369 39.4513C106.142 39.5266 105.915 39.6019 105.689 39.6772C104.101 40.5053 103.269 43.2157 103.723 46.2273C104.252 49.6153 106.218 52.0998 108.183 51.7233C108.335 51.7233 108.486 51.648 108.713 51.5728C108.713 51.5728 108.788 51.5728 108.788 51.4975C109.015 51.4222 109.242 51.2716 109.393 51.0457C110.603 49.9164 111.207 47.5825 110.829 44.9474Z" fill="url(#paint133_linear_1131_41323)"/>
<path d="M117.709 38.0208C116.651 32.9765 113.475 27.2545 108.637 26.0499C103.572 24.77 99.1114 31.9224 98.9602 32.2236C98.8846 32.2989 98.8846 32.3742 98.8846 32.4494C98.2042 33.8046 98.1286 35.988 98.809 37.4185C99.4894 38.9995 100.699 39.1501 101.531 37.7949C101.531 37.7196 104.933 32.4494 108.183 33.2776C111.585 34.1811 113.627 38.0961 114.156 40.5806C114.458 41.8605 115.063 42.764 115.743 42.9146C116.046 42.9898 116.348 42.9146 116.726 42.6887C117.029 42.4628 117.255 42.0864 117.482 41.6346C117.785 40.7312 117.936 39.3007 117.709 38.0208Z" fill="url(#paint134_linear_1131_41323)"/>
<path d="M122.925 24.9206C121.035 19.1986 116.197 12.9497 109.544 11.8203C104.555 10.9922 100.321 15.0578 98.2042 17.5423C97.3726 18.521 96.8434 19.2739 96.7678 19.4245C96.4654 19.8762 96.3142 20.4032 96.2386 21.0056C96.0874 22.1349 96.163 23.4148 96.6166 24.3935C97.297 25.9746 98.5066 26.2758 99.2626 25.0711C99.3382 24.9958 103.95 17.994 109.469 18.8975C115.063 19.8762 118.692 24.9958 119.75 28.2333C120.128 29.3626 120.733 29.9649 121.338 30.1155C121.716 30.1908 122.094 30.0402 122.396 29.6637C122.472 29.5885 122.472 29.5132 122.547 29.5132C123.228 28.5344 123.455 26.5016 122.925 24.9206Z" fill="url(#paint135_linear_1131_41323)"/>
<path d="M63.5039 151.255L63.3527 128.367C63.3527 127.313 62.8235 126.409 61.9163 125.882L40.5215 113.535C39.8411 113.159 39.0851 113.234 38.4803 113.535L33.7175 116.246C34.3223 115.869 35.1539 115.719 35.8343 116.17L57.2291 128.518C58.1363 129.045 58.6655 129.948 58.6655 131.002L58.8167 153.89C58.8167 154.944 58.2875 155.847 57.4559 156.299L61.5383 153.965C62.6723 153.589 63.5039 152.535 63.5039 151.255Z" fill="url(#paint136_linear_1131_41323)" fill-opacity="0.8"/>
<path d="M58.8167 153.89L58.6655 131.002C58.6655 129.948 58.1363 129.045 57.2291 128.518L35.8343 116.17C35.1539 115.794 34.3223 115.869 33.7175 116.246C33.1883 116.622 32.8103 117.149 32.8103 117.902V142.295C32.8103 143.35 33.3395 144.253 34.2467 144.78L45.3599 151.104L51.2567 159.085V154.417L54.5075 156.224C55.4903 156.826 56.6243 156.676 57.5315 156.149C58.2875 155.847 58.8167 154.944 58.8167 153.89Z" fill="url(#paint137_linear_1131_41323)"/>
<path d="M37.7999 137.176C38.969 137.176 39.9167 135.221 39.9167 132.809C39.9167 130.397 38.969 128.442 37.7999 128.442C36.6309 128.442 35.6831 130.397 35.6831 132.809C35.6831 135.221 36.6309 137.176 37.7999 137.176Z" fill="url(#paint138_linear_1131_41323)" fill-opacity="0.8"/>
<path d="M44.9819 141.543C46.151 141.543 47.0987 139.588 47.0987 137.176C47.0987 134.764 46.151 132.809 44.9819 132.809C43.8128 132.809 42.8651 134.764 42.8651 137.176C42.8651 139.588 43.8128 141.543 44.9819 141.543Z" fill="url(#paint139_linear_1131_41323)" fill-opacity="0.8"/>
<path d="M52.9955 145.533C54.1646 145.533 55.1123 143.578 55.1123 141.166C55.1123 138.754 54.1646 136.799 52.9955 136.799C51.8264 136.799 50.8787 138.754 50.8787 141.166C50.8787 143.578 51.8264 145.533 52.9955 145.533Z" fill="url(#paint140_linear_1131_41323)" fill-opacity="0.8"/>
<path d="M292.874 213.292V190.932C292.874 190.028 292.42 189.2 291.589 188.748L288.187 186.791V188.297L284.709 190.028L281.005 187.619L281.08 182.65L272.386 177.681V178.961L268.909 180.692L264.977 178.509L265.053 174.368C264.977 174.443 264.826 174.519 264.751 174.594L259.156 177.982C259.61 177.681 260.215 177.606 260.819 177.907L285.843 192.362C286.599 192.814 287.128 193.642 287.128 194.545V216.906C287.128 217.885 286.599 218.713 285.767 219.165L291.589 215.551C292.345 215.099 292.874 214.346 292.874 213.292Z" fill="black"/>
<path d="M287.128 216.906V194.546C287.128 193.642 286.675 192.814 285.843 192.362L260.819 177.907C260.29 177.606 259.61 177.681 259.156 177.982C258.778 178.283 258.476 178.66 258.476 179.262L258.325 202.526C258.325 203.43 258.778 204.258 259.534 204.71L283.197 219.09C284.029 219.617 284.936 219.541 285.692 219.165C286.523 218.713 287.128 217.885 287.128 216.906Z" fill="#ED7308"/>
<path d="M273.067 168.496C271.781 168.345 270.799 168.872 270.118 169.55C269.211 170.453 268.757 171.658 268.833 172.938L268.984 180.692L272.462 178.961V177.681L272.311 171.206C272.235 170.227 272.537 169.248 273.067 168.496Z" fill="#F57A00"/>
<path d="M273.142 164.054C278.888 164.882 283.348 170.604 284.709 176.928C284.86 177.681 284.936 178.434 284.936 179.111L284.709 190.028L288.187 188.297V186.791L288.413 177.38C288.413 176.627 288.338 175.874 288.187 175.196C286.826 168.947 282.365 163.15 276.62 162.322C275.108 162.096 273.823 162.397 272.764 162.924C270.421 163.828 268.833 164.882 268.531 165.032C269.74 164.279 271.252 163.752 273.142 164.054Z" fill="#F57A00"/>
<path d="M264.977 178.434L268.909 180.617L268.757 172.862C268.757 171.582 269.211 170.378 270.043 169.474C270.723 168.797 271.706 168.27 272.991 168.42C273.445 168.496 273.974 168.646 274.503 168.872C277.149 170.152 279.19 173.239 280.249 175.573C280.853 176.853 281.156 178.735 281.08 180.165L281.005 182.575L280.929 187.544L284.633 189.953L284.86 179.036C284.86 178.283 284.785 177.53 284.633 176.853C283.273 170.604 278.812 164.806 273.067 163.978C271.177 163.677 269.665 164.204 268.455 164.957C268.001 165.258 267.623 165.559 267.245 165.86C265.809 167.14 264.977 169.023 264.977 170.98V174.217V178.434Z" fill="#ED7308"/>
<path d="M270.496 196.503C270.496 196.503 268.077 194.621 268.984 192.437C269.967 190.329 273.067 191.158 274.352 193.266C275.713 195.298 275.713 198.084 273.445 198.009V207.57L270.345 205.763L270.496 196.503Z" fill="url(#paint141_linear_1131_41323)" fill-opacity="0.8"/>
</g>
<defs>
<linearGradient id="paint0_linear_1131_41323" x1="144.32" y1="3.53855" x2="150.671" y2="3.53855" gradientUnits="userSpaceOnUse">
<stop stop-color="#F57A00"/>
<stop offset="1" stop-color="#7103A4"/>
</linearGradient>
<linearGradient id="paint1_linear_1131_41323" x1="147.949" y1="38.6979" x2="175.619" y2="38.6979" gradientUnits="userSpaceOnUse">
<stop stop-color="#F57A00"/>
<stop offset="1" stop-color="#7103A4"/>
</linearGradient>
<linearGradient id="paint2_linear_1131_41323" x1="206.388" y1="205.914" x2="326.44" y2="205.914" gradientUnits="userSpaceOnUse">
<stop stop-color="#F57A00"/>
<stop offset="1" stop-color="#7103A4"/>
</linearGradient>
<linearGradient id="paint3_linear_1131_41323" x1="322.962" y1="220.144" x2="329.313" y2="220.144" gradientUnits="userSpaceOnUse">
<stop stop-color="#F57A00"/>
<stop offset="1" stop-color="#7103A4"/>
</linearGradient>
<linearGradient id="paint4_linear_1131_41323" x1="312.227" y1="238.138" x2="318.578" y2="238.138" gradientUnits="userSpaceOnUse">
<stop stop-color="#F57A00"/>
<stop offset="1" stop-color="#7103A4"/>
</linearGradient>
<linearGradient id="paint5_linear_1131_41323" x1="192.024" y1="218.111" x2="315.705" y2="218.111" gradientUnits="userSpaceOnUse">
<stop stop-color="#F57A00"/>
<stop offset="1" stop-color="#7103A4"/>
</linearGradient>
<linearGradient id="paint6_linear_1131_41323" x1="241.315" y1="244.386" x2="241.39" y2="244.386" gradientUnits="userSpaceOnUse">
<stop stop-color="#F57A00"/>
<stop offset="1" stop-color="#7103A4"/>
</linearGradient>
<linearGradient id="paint7_linear_1131_41323" x1="220.373" y1="241.751" x2="241.39" y2="241.751" gradientUnits="userSpaceOnUse">
<stop stop-color="#F57A00"/>
<stop offset="1" stop-color="#7103A4"/>
</linearGradient>
<linearGradient id="paint8_linear_1131_41323" x1="227.404" y1="256.244" x2="241.239" y2="256.244" gradientUnits="userSpaceOnUse">
<stop stop-color="#F57A00"/>
<stop offset="1" stop-color="#7103A4"/>
</linearGradient>
<linearGradient id="paint9_linear_1131_41323" x1="224.229" y1="260.649" x2="230.579" y2="260.649" gradientUnits="userSpaceOnUse">
<stop stop-color="#F57A00"/>
<stop offset="1" stop-color="#7103A4"/>
</linearGradient>
<linearGradient id="paint10_linear_1131_41323" x1="237.761" y1="268.554" x2="244.112" y2="268.554" gradientUnits="userSpaceOnUse">
<stop stop-color="#F57A00"/>
<stop offset="1" stop-color="#7103A4"/>
</linearGradient>
<linearGradient id="paint11_linear_1131_41323" x1="217.198" y1="248.377" x2="223.549" y2="248.377" gradientUnits="userSpaceOnUse">
<stop stop-color="#F57A00"/>
<stop offset="1" stop-color="#7103A4"/>
</linearGradient>
<linearGradient id="paint12_linear_1131_41323" x1="166.093" y1="243.633" x2="194.821" y2="243.633" gradientUnits="userSpaceOnUse">
<stop stop-color="#F57A00"/>
<stop offset="1" stop-color="#7103A4"/>
</linearGradient>
<linearGradient id="paint13_linear_1131_41323" x1="163.069" y1="281.655" x2="169.419" y2="281.655" gradientUnits="userSpaceOnUse">
<stop stop-color="#F57A00"/>
<stop offset="1" stop-color="#7103A4"/>
</linearGradient>
<linearGradient id="paint14_linear_1131_41323" x1="27.1403" y1="235.202" x2="33.4907" y2="235.202" gradientUnits="userSpaceOnUse">
<stop stop-color="#F57A00"/>
<stop offset="1" stop-color="#7103A4"/>
</linearGradient>
<linearGradient id="paint15_linear_1131_41323" x1="29.7107" y1="217.132" x2="149.31" y2="217.132" gradientUnits="userSpaceOnUse">
<stop stop-color="#F57A00"/>
<stop offset="1" stop-color="#7103A4"/>
</linearGradient>
<linearGradient id="paint16_linear_1131_41323" x1="152.787" y1="243.483" x2="159.138" y2="243.483" gradientUnits="userSpaceOnUse">
<stop stop-color="#F57A00"/>
<stop offset="1" stop-color="#7103A4"/>
</linearGradient>
<linearGradient id="paint17_linear_1131_41323" x1="110.451" y1="283.913" x2="116.802" y2="283.913" gradientUnits="userSpaceOnUse">
<stop stop-color="#F57A00"/>
<stop offset="1" stop-color="#7103A4"/>
</linearGradient>
<linearGradient id="paint18_linear_1131_41323" x1="113.627" y1="245.365" x2="163.296" y2="245.365" gradientUnits="userSpaceOnUse">
<stop stop-color="#F57A00"/>
<stop offset="1" stop-color="#7103A4"/>
</linearGradient>
<linearGradient id="paint19_linear_1131_41323" x1="143.11" y1="231.136" x2="155.887" y2="231.136" gradientUnits="userSpaceOnUse">
<stop stop-color="#F57A00"/>
<stop offset="1" stop-color="#7103A4"/>
</linearGradient>
<linearGradient id="paint20_linear_1131_41323" x1="24.1163" y1="204.258" x2="30.4667" y2="204.258" gradientUnits="userSpaceOnUse">
<stop stop-color="#F57A00"/>
<stop offset="1" stop-color="#7103A4"/>
</linearGradient>
<linearGradient id="paint21_linear_1131_41323" x1="80.9674" y1="203.656" x2="87.3178" y2="203.656" gradientUnits="userSpaceOnUse">
<stop stop-color="#F57A00"/>
<stop offset="1" stop-color="#7103A4"/>
</linearGradient>
<linearGradient id="paint22_linear_1131_41323" x1="27.2159" y1="189.464" x2="107.201" y2="189.464" gradientUnits="userSpaceOnUse">
<stop stop-color="#F57A00"/>
<stop offset="1" stop-color="#7103A4"/>
</linearGradient>
<linearGradient id="paint23_linear_1131_41323" x1="83.9914" y1="195.637" x2="97.9774" y2="195.637" gradientUnits="userSpaceOnUse">
<stop stop-color="#F57A00"/>
<stop offset="1" stop-color="#7103A4"/>
</linearGradient>
<linearGradient id="paint24_linear_1131_41323" x1="240.785" y1="93.7714" x2="310.715" y2="93.7714" gradientUnits="userSpaceOnUse">
<stop stop-color="#F57A00"/>
<stop offset="1" stop-color="#7103A4"/>
</linearGradient>
<linearGradient id="paint25_linear_1131_41323" x1="307.238" y1="56.9934" x2="313.588" y2="56.9934" gradientUnits="userSpaceOnUse">
<stop stop-color="#F57A00"/>
<stop offset="1" stop-color="#7103A4"/>
</linearGradient>
<linearGradient id="paint26_linear_1131_41323" x1="320.619" y1="105.479" x2="326.969" y2="105.479" gradientUnits="userSpaceOnUse">
<stop stop-color="#F57A00"/>
<stop offset="1" stop-color="#7103A4"/>
</linearGradient>
<linearGradient id="paint27_linear_1131_41323" x1="261.122" y1="117.864" x2="324.323" y2="117.864" gradientUnits="userSpaceOnUse">
<stop stop-color="#F57A00"/>
<stop offset="1" stop-color="#7103A4"/>
</linearGradient>
<linearGradient id="paint28_linear_1131_41323" x1="42.8651" y1="89.2544" x2="127.461" y2="89.2544" gradientUnits="userSpaceOnUse">
<stop stop-color="#F57A00"/>
<stop offset="1" stop-color="#7103A4"/>
</linearGradient>
<linearGradient id="paint29_linear_1131_41323" x1="39.0851" y1="56.9182" x2="45.4355" y2="56.9182" gradientUnits="userSpaceOnUse">
<stop stop-color="#F57A00"/>
<stop offset="1" stop-color="#7103A4"/>
</linearGradient>
<linearGradient id="paint30_linear_1131_41323" x1="54.2051" y1="32.4494" x2="60.5555" y2="32.4494" gradientUnits="userSpaceOnUse">
<stop stop-color="#F57A00"/>
<stop offset="1" stop-color="#7103A4"/>
</linearGradient>
<linearGradient id="paint31_linear_1131_41323" x1="56.6243" y1="49.4268" x2="57.1535" y2="49.4268" gradientUnits="userSpaceOnUse">
<stop stop-color="#F57A00"/>
<stop offset="1" stop-color="#7103A4"/>
</linearGradient>
<linearGradient id="paint32_linear_1131_41323" x1="93.3658" y1="93.7342" x2="144.169" y2="93.7342" gradientUnits="userSpaceOnUse">
<stop stop-color="#F57A00"/>
<stop offset="1" stop-color="#7103A4"/>
</linearGradient>
<linearGradient id="paint33_linear_1131_41323" x1="0" y1="185.963" x2="6.35038" y2="185.963" gradientUnits="userSpaceOnUse">
<stop stop-color="#F57A00"/>
<stop offset="1" stop-color="#7103A4"/>
</linearGradient>
<linearGradient id="paint34_linear_1131_41323" x1="2.8728" y1="172.26" x2="78.6238" y2="172.26" gradientUnits="userSpaceOnUse">
<stop stop-color="#F57A00"/>
<stop offset="1" stop-color="#7103A4"/>
</linearGradient>
<linearGradient id="paint35_linear_1131_41323" x1="18.5976" y1="116.999" x2="24.9479" y2="116.999" gradientUnits="userSpaceOnUse">
<stop stop-color="#F57A00"/>
<stop offset="1" stop-color="#7103A4"/>
</linearGradient>
<linearGradient id="paint36_linear_1131_41323" x1="4.15799" y1="92.4543" x2="10.5084" y2="92.4543" gradientUnits="userSpaceOnUse">
<stop stop-color="#F57A00"/>
<stop offset="1" stop-color="#7103A4"/>
</linearGradient>
<linearGradient id="paint37_linear_1131_41323" x1="21.924" y1="115.568" x2="100.321" y2="115.568" gradientUnits="userSpaceOnUse">
<stop stop-color="#F57A00"/>
<stop offset="1" stop-color="#7103A4"/>
</linearGradient>
<linearGradient id="paint38_linear_1131_41323" x1="7.25757" y1="100.698" x2="35.6075" y2="100.698" gradientUnits="userSpaceOnUse">
<stop stop-color="#F57A00"/>
<stop offset="1" stop-color="#7103A4"/>
</linearGradient>
<linearGradient id="paint39_linear_1131_41323" x1="227.707" y1="166.538" x2="323.416" y2="166.538" gradientUnits="userSpaceOnUse">
<stop stop-color="#F57A00"/>
<stop offset="1" stop-color="#7103A4"/>
</linearGradient>
<linearGradient id="paint40_linear_1131_41323" x1="320.392" y1="178.359" x2="326.742" y2="178.359" gradientUnits="userSpaceOnUse">
<stop stop-color="#F57A00"/>
<stop offset="1" stop-color="#7103A4"/>
</linearGradient>
<linearGradient id="paint41_linear_1131_41323" x1="327.65" y1="161.268" x2="334" y2="161.268" gradientUnits="userSpaceOnUse">
<stop stop-color="#F57A00"/>
<stop offset="1" stop-color="#7103A4"/>
</linearGradient>
<linearGradient id="paint42_linear_1131_41323" x1="300.509" y1="159.047" x2="330.976" y2="159.047" gradientUnits="userSpaceOnUse">
<stop stop-color="#F57A00"/>
<stop offset="1" stop-color="#7103A4"/>
</linearGradient>
<linearGradient id="paint43_linear_1131_41323" x1="259.912" y1="5.87254" x2="266.263" y2="5.87254" gradientUnits="userSpaceOnUse">
<stop stop-color="#F57A00"/>
<stop offset="1" stop-color="#7103A4"/>
</linearGradient>
<linearGradient id="paint44_linear_1131_41323" x1="226.422" y1="64.2588" x2="253.335" y2="64.2588" gradientUnits="userSpaceOnUse">
<stop stop-color="#F57A00"/>
<stop offset="1" stop-color="#7103A4"/>
</linearGradient>
<linearGradient id="paint45_linear_1131_41323" x1="212.511" y1="36.5147" x2="263.541" y2="36.5147" gradientUnits="userSpaceOnUse">
<stop stop-color="#F57A00"/>
<stop offset="1" stop-color="#7103A4"/>
</linearGradient>
<linearGradient id="paint46_linear_1131_41323" x1="181.308" y1="263.744" x2="91.5141" y2="138.949" gradientUnits="userSpaceOnUse">
<stop stop-color="#7103A4"/>
<stop offset="1" stop-color="#3C0754"/>
</linearGradient>
<linearGradient id="paint47_linear_1131_41323" x1="132.904" y1="117.074" x2="146.21" y2="117.074" gradientUnits="userSpaceOnUse">
<stop stop-color="#F57A00"/>
<stop offset="1" stop-color="#7103A4"/>
</linearGradient>
<linearGradient id="paint48_linear_1131_41323" x1="140.842" y1="121.591" x2="154.148" y2="121.591" gradientUnits="userSpaceOnUse">
<stop stop-color="#F57A00"/>
<stop offset="1" stop-color="#7103A4"/>
</linearGradient>
<linearGradient id="paint49_linear_1131_41323" x1="148.78" y1="126.108" x2="162.086" y2="126.108" gradientUnits="userSpaceOnUse">
<stop stop-color="#F57A00"/>
<stop offset="1" stop-color="#7103A4"/>
</linearGradient>
<linearGradient id="paint50_linear_1131_41323" x1="156.718" y1="130.626" x2="170.024" y2="130.626" gradientUnits="userSpaceOnUse">
<stop stop-color="#F57A00"/>
<stop offset="1" stop-color="#7103A4"/>
</linearGradient>
<linearGradient id="paint51_linear_1131_41323" x1="164.581" y1="135.143" x2="177.886" y2="135.143" gradientUnits="userSpaceOnUse">
<stop stop-color="#F57A00"/>
<stop offset="1" stop-color="#7103A4"/>
</linearGradient>
<linearGradient id="paint52_linear_1131_41323" x1="172.519" y1="139.66" x2="185.824" y2="139.66" gradientUnits="userSpaceOnUse">
<stop stop-color="#F57A00"/>
<stop offset="1" stop-color="#7103A4"/>
</linearGradient>
<linearGradient id="paint53_linear_1131_41323" x1="180.457" y1="144.177" x2="193.762" y2="144.177" gradientUnits="userSpaceOnUse">
<stop stop-color="#F57A00"/>
<stop offset="1" stop-color="#7103A4"/>
</linearGradient>
<linearGradient id="paint54_linear_1131_41323" x1="188.395" y1="148.695" x2="201.7" y2="148.695" gradientUnits="userSpaceOnUse">
<stop stop-color="#F57A00"/>
<stop offset="1" stop-color="#7103A4"/>
</linearGradient>
<linearGradient id="paint55_linear_1131_41323" x1="196.333" y1="153.212" x2="209.638" y2="153.212" gradientUnits="userSpaceOnUse">
<stop stop-color="#F57A00"/>
<stop offset="1" stop-color="#7103A4"/>
</linearGradient>
<linearGradient id="paint56_linear_1131_41323" x1="204.271" y1="159.009" x2="220.752" y2="159.009" gradientUnits="userSpaceOnUse">
<stop stop-color="#F57A00"/>
<stop offset="1" stop-color="#7103A4"/>
</linearGradient>
<linearGradient id="paint57_linear_1131_41323" x1="212.133" y1="162.247" x2="225.514" y2="162.247" gradientUnits="userSpaceOnUse">
<stop stop-color="#F57A00"/>
<stop offset="1" stop-color="#7103A4"/>
</linearGradient>
<linearGradient id="paint58_linear_1131_41323" x1="125.193" y1="121.666" x2="138.499" y2="121.666" gradientUnits="userSpaceOnUse">
<stop stop-color="#F57A00"/>
<stop offset="1" stop-color="#7103A4"/>
</linearGradient>
<linearGradient id="paint59_linear_1131_41323" x1="133.056" y1="126.183" x2="146.437" y2="126.183" gradientUnits="userSpaceOnUse">
<stop stop-color="#F57A00"/>
<stop offset="1" stop-color="#7103A4"/>
</linearGradient>
<linearGradient id="paint60_linear_1131_41323" x1="140.994" y1="130.701" x2="154.299" y2="130.701" gradientUnits="userSpaceOnUse">
<stop stop-color="#F57A00"/>
<stop offset="1" stop-color="#7103A4"/>
</linearGradient>
<linearGradient id="paint61_linear_1131_41323" x1="148.932" y1="135.218" x2="162.237" y2="135.218" gradientUnits="userSpaceOnUse">
<stop stop-color="#F57A00"/>
<stop offset="1" stop-color="#7103A4"/>
</linearGradient>
<linearGradient id="paint62_linear_1131_41323" x1="156.87" y1="139.735" x2="170.175" y2="139.735" gradientUnits="userSpaceOnUse">
<stop stop-color="#F57A00"/>
<stop offset="1" stop-color="#7103A4"/>
</linearGradient>
<linearGradient id="paint63_linear_1131_41323" x1="164.808" y1="144.253" x2="178.113" y2="144.253" gradientUnits="userSpaceOnUse">
<stop stop-color="#F57A00"/>
<stop offset="1" stop-color="#7103A4"/>
</linearGradient>
<linearGradient id="paint64_linear_1131_41323" x1="172.746" y1="148.77" x2="186.051" y2="148.77" gradientUnits="userSpaceOnUse">
<stop stop-color="#F57A00"/>
<stop offset="1" stop-color="#7103A4"/>
</linearGradient>
<linearGradient id="paint65_linear_1131_41323" x1="180.608" y1="153.287" x2="193.989" y2="153.287" gradientUnits="userSpaceOnUse">
<stop stop-color="#F57A00"/>
<stop offset="1" stop-color="#7103A4"/>
</linearGradient>
<linearGradient id="paint66_linear_1131_41323" x1="188.546" y1="157.804" x2="201.852" y2="157.804" gradientUnits="userSpaceOnUse">
<stop stop-color="#F57A00"/>
<stop offset="1" stop-color="#7103A4"/>
</linearGradient>
<linearGradient id="paint67_linear_1131_41323" x1="196.484" y1="162.322" x2="209.789" y2="162.322" gradientUnits="userSpaceOnUse">
<stop stop-color="#F57A00"/>
<stop offset="1" stop-color="#7103A4"/>
</linearGradient>
<linearGradient id="paint68_linear_1131_41323" x1="204.422" y1="166.839" x2="217.727" y2="166.839" gradientUnits="userSpaceOnUse">
<stop stop-color="#F57A00"/>
<stop offset="1" stop-color="#7103A4"/>
</linearGradient>
<linearGradient id="paint69_linear_1131_41323" x1="117.407" y1="127.614" x2="133.131" y2="127.614" gradientUnits="userSpaceOnUse">
<stop stop-color="#F57A00"/>
<stop offset="1" stop-color="#7103A4"/>
</linearGradient>
<linearGradient id="paint70_linear_1131_41323" x1="125.345" y1="130.776" x2="138.65" y2="130.776" gradientUnits="userSpaceOnUse">
<stop stop-color="#F57A00"/>
<stop offset="1" stop-color="#7103A4"/>
</linearGradient>
<linearGradient id="paint71_linear_1131_41323" x1="133.283" y1="135.293" x2="146.588" y2="135.293" gradientUnits="userSpaceOnUse">
<stop stop-color="#F57A00"/>
<stop offset="1" stop-color="#7103A4"/>
</linearGradient>
<linearGradient id="paint72_linear_1131_41323" x1="141.221" y1="139.811" x2="154.526" y2="139.811" gradientUnits="userSpaceOnUse">
<stop stop-color="#F57A00"/>
<stop offset="1" stop-color="#7103A4"/>
</linearGradient>
<linearGradient id="paint73_linear_1131_41323" x1="149.158" y1="144.328" x2="162.464" y2="144.328" gradientUnits="userSpaceOnUse">
<stop stop-color="#F57A00"/>
<stop offset="1" stop-color="#7103A4"/>
</linearGradient>
<linearGradient id="paint74_linear_1131_41323" x1="157.021" y1="148.845" x2="170.326" y2="148.845" gradientUnits="userSpaceOnUse">
<stop stop-color="#F57A00"/>
<stop offset="1" stop-color="#7103A4"/>
</linearGradient>
<linearGradient id="paint75_linear_1131_41323" x1="164.959" y1="153.363" x2="178.264" y2="153.363" gradientUnits="userSpaceOnUse">
<stop stop-color="#F57A00"/>
<stop offset="1" stop-color="#7103A4"/>
</linearGradient>
<linearGradient id="paint76_linear_1131_41323" x1="172.897" y1="157.88" x2="186.202" y2="157.88" gradientUnits="userSpaceOnUse">
<stop stop-color="#F57A00"/>
<stop offset="1" stop-color="#7103A4"/>
</linearGradient>
<linearGradient id="paint77_linear_1131_41323" x1="180.835" y1="162.397" x2="194.14" y2="162.397" gradientUnits="userSpaceOnUse">
<stop stop-color="#F57A00"/>
<stop offset="1" stop-color="#7103A4"/>
</linearGradient>
<linearGradient id="paint78_linear_1131_41323" x1="188.773" y1="166.915" x2="202.078" y2="166.915" gradientUnits="userSpaceOnUse">
<stop stop-color="#F57A00"/>
<stop offset="1" stop-color="#7103A4"/>
</linearGradient>
<linearGradient id="paint79_linear_1131_41323" x1="196.711" y1="171.432" x2="210.016" y2="171.432" gradientUnits="userSpaceOnUse">
<stop stop-color="#F57A00"/>
<stop offset="1" stop-color="#7103A4"/>
</linearGradient>
<linearGradient id="paint80_linear_1131_41323" x1="109.695" y1="131.981" x2="126.63" y2="131.981" gradientUnits="userSpaceOnUse">
<stop stop-color="#F57A00"/>
<stop offset="1" stop-color="#7103A4"/>
</linearGradient>
<linearGradient id="paint81_linear_1131_41323" x1="117.633" y1="135.331" x2="130.939" y2="135.331" gradientUnits="userSpaceOnUse">
<stop stop-color="#F57A00"/>
<stop offset="1" stop-color="#7103A4"/>
</linearGradient>
<linearGradient id="paint82_linear_1131_41323" x1="125.496" y1="139.848" x2="138.877" y2="139.848" gradientUnits="userSpaceOnUse">
<stop stop-color="#F57A00"/>
<stop offset="1" stop-color="#7103A4"/>
</linearGradient>
<linearGradient id="paint83_linear_1131_41323" x1="133.434" y1="144.366" x2="146.739" y2="144.366" gradientUnits="userSpaceOnUse">
<stop stop-color="#F57A00"/>
<stop offset="1" stop-color="#7103A4"/>
</linearGradient>
<linearGradient id="paint84_linear_1131_41323" x1="141.372" y1="148.883" x2="154.677" y2="148.883" gradientUnits="userSpaceOnUse">
<stop stop-color="#F57A00"/>
<stop offset="1" stop-color="#7103A4"/>
</linearGradient>
<linearGradient id="paint85_linear_1131_41323" x1="149.31" y1="153.4" x2="162.615" y2="153.4" gradientUnits="userSpaceOnUse">
<stop stop-color="#F57A00"/>
<stop offset="1" stop-color="#7103A4"/>
</linearGradient>
<linearGradient id="paint86_linear_1131_41323" x1="157.248" y1="157.917" x2="170.553" y2="157.917" gradientUnits="userSpaceOnUse">
<stop stop-color="#F57A00"/>
<stop offset="1" stop-color="#7103A4"/>
</linearGradient>
<linearGradient id="paint87_linear_1131_41323" x1="165.186" y1="162.435" x2="178.491" y2="162.435" gradientUnits="userSpaceOnUse">
<stop stop-color="#F57A00"/>
<stop offset="1" stop-color="#7103A4"/>
</linearGradient>
<linearGradient id="paint88_linear_1131_41323" x1="173.048" y1="166.952" x2="186.429" y2="166.952" gradientUnits="userSpaceOnUse">
<stop stop-color="#F57A00"/>
<stop offset="1" stop-color="#7103A4"/>
</linearGradient>
<linearGradient id="paint89_linear_1131_41323" x1="180.986" y1="171.469" x2="194.292" y2="171.469" gradientUnits="userSpaceOnUse">
<stop stop-color="#F57A00"/>
<stop offset="1" stop-color="#7103A4"/>
</linearGradient>
<linearGradient id="paint90_linear_1131_41323" x1="188.924" y1="176.024" x2="202.23" y2="176.024" gradientUnits="userSpaceOnUse">
<stop stop-color="#F57A00"/>
<stop offset="1" stop-color="#7103A4"/>
</linearGradient>
<linearGradient id="paint91_linear_1131_41323" x1="101.909" y1="135.369" x2="115.214" y2="135.369" gradientUnits="userSpaceOnUse">
<stop stop-color="#F57A00"/>
<stop offset="1" stop-color="#7103A4"/>
</linearGradient>
<linearGradient id="paint92_linear_1131_41323" x1="109.847" y1="139.924" x2="123.152" y2="139.924" gradientUnits="userSpaceOnUse">
<stop stop-color="#F57A00"/>
<stop offset="1" stop-color="#7103A4"/>
</linearGradient>
<linearGradient id="paint93_linear_1131_41323" x1="117.785" y1="144.441" x2="131.09" y2="144.441" gradientUnits="userSpaceOnUse">
<stop stop-color="#F57A00"/>
<stop offset="1" stop-color="#7103A4"/>
</linearGradient>
<linearGradient id="paint94_linear_1131_41323" x1="125.723" y1="149.975" x2="142.203" y2="149.975" gradientUnits="userSpaceOnUse">
<stop stop-color="#F57A00"/>
<stop offset="1" stop-color="#7103A4"/>
</linearGradient>
<linearGradient id="paint95_linear_1131_41323" x1="133.661" y1="154.68" x2="150.444" y2="154.68" gradientUnits="userSpaceOnUse">
<stop stop-color="#F57A00"/>
<stop offset="1" stop-color="#7103A4"/>
</linearGradient>
<linearGradient id="paint96_linear_1131_41323" x1="141.598" y1="159.273" x2="158.382" y2="159.273" gradientUnits="userSpaceOnUse">
<stop stop-color="#F57A00"/>
<stop offset="1" stop-color="#7103A4"/>
</linearGradient>
<linearGradient id="paint97_linear_1131_41323" x1="149.461" y1="162.51" x2="162.766" y2="162.51" gradientUnits="userSpaceOnUse">
<stop stop-color="#F57A00"/>
<stop offset="1" stop-color="#7103A4"/>
</linearGradient>
<linearGradient id="paint98_linear_1131_41323" x1="157.399" y1="167.028" x2="170.704" y2="167.028" gradientUnits="userSpaceOnUse">
<stop stop-color="#F57A00"/>
<stop offset="1" stop-color="#7103A4"/>
</linearGradient>
<linearGradient id="paint99_linear_1131_41323" x1="165.337" y1="171.545" x2="178.642" y2="171.545" gradientUnits="userSpaceOnUse">
<stop stop-color="#F57A00"/>
<stop offset="1" stop-color="#7103A4"/>
</linearGradient>
<linearGradient id="paint100_linear_1131_41323" x1="173.275" y1="177.38" x2="190.134" y2="177.38" gradientUnits="userSpaceOnUse">
<stop stop-color="#F57A00"/>
<stop offset="1" stop-color="#7103A4"/>
</linearGradient>
<linearGradient id="paint101_linear_1131_41323" x1="181.213" y1="180.58" x2="194.518" y2="180.58" gradientUnits="userSpaceOnUse">
<stop stop-color="#F57A00"/>
<stop offset="1" stop-color="#7103A4"/>
</linearGradient>
<linearGradient id="paint102_linear_1131_41323" x1="142.554" y1="207.052" x2="96.7173" y2="163.949" gradientUnits="userSpaceOnUse">
<stop stop-color="#7103A4"/>
<stop offset="1" stop-color="#3C0754"/>
</linearGradient>
<linearGradient id="paint103_linear_1131_41323" x1="142.933" y1="27.7572" x2="142.71" y2="27.5135" gradientUnits="userSpaceOnUse">
<stop stop-color="#7103A4"/>
<stop offset="1" stop-color="#3C0754"/>
</linearGradient>
<linearGradient id="paint104_linear_1131_41323" x1="210.587" y1="273.337" x2="69.411" y2="215.756" gradientUnits="userSpaceOnUse">
<stop stop-color="#7103A4"/>
<stop offset="1" stop-color="#3C0754"/>
</linearGradient>
<linearGradient id="paint105_linear_1131_41323" x1="147.042" y1="92.7549" x2="233.906" y2="92.7549" gradientUnits="userSpaceOnUse">
<stop stop-color="#F57A00"/>
<stop offset="1" stop-color="#7103A4"/>
</linearGradient>
<linearGradient id="paint106_linear_1131_41323" x1="194.531" y1="163.005" x2="134.349" y2="137.112" gradientUnits="userSpaceOnUse">
<stop stop-color="#7103A4"/>
<stop offset="1" stop-color="#3C0754"/>
</linearGradient>
<linearGradient id="paint107_linear_1131_41323" x1="183.816" y1="111.736" x2="174.655" y2="109.755" gradientUnits="userSpaceOnUse">
<stop stop-color="#7103A4"/>
<stop offset="1" stop-color="#3C0754"/>
</linearGradient>
<linearGradient id="paint108_linear_1131_41323" x1="214.784" y1="74.5153" x2="181.146" y2="64.2585" gradientUnits="userSpaceOnUse">
<stop stop-color="#7103A4"/>
<stop offset="1" stop-color="#3C0754"/>
</linearGradient>
<linearGradient id="paint109_linear_1131_41323" x1="204.621" y1="41.3213" x2="204.566" y2="41.1117" gradientUnits="userSpaceOnUse">
<stop stop-color="#7103A4"/>
<stop offset="1" stop-color="#3C0754"/>
</linearGradient>
<linearGradient id="paint110_linear_1131_41323" x1="205.301" y1="41.3092" x2="205.156" y2="40.9141" gradientUnits="userSpaceOnUse">
<stop stop-color="#7103A4"/>
<stop offset="1" stop-color="#3C0754"/>
</linearGradient>
<linearGradient id="paint111_linear_1131_41323" x1="211.744" y1="65.7057" x2="178.835" y2="57.034" gradientUnits="userSpaceOnUse">
<stop stop-color="#7103A4"/>
<stop offset="1" stop-color="#3C0754"/>
</linearGradient>
<linearGradient id="paint112_linear_1131_41323" x1="195.123" y1="13.2336" x2="203.165" y2="13.2336" gradientUnits="userSpaceOnUse">
<stop stop-color="#F57A00"/>
<stop offset="1" stop-color="#7103A4"/>
</linearGradient>
<linearGradient id="paint113_linear_1131_41323" x1="206.078" y1="18.5551" x2="213.418" y2="18.5551" gradientUnits="userSpaceOnUse">
<stop stop-color="#F57A00"/>
<stop offset="1" stop-color="#7103A4"/>
</linearGradient>
<linearGradient id="paint114_linear_1131_41323" x1="196.814" y1="18.201" x2="199.924" y2="18.201" gradientUnits="userSpaceOnUse">
<stop stop-color="#F57A00"/>
<stop offset="1" stop-color="#7103A4"/>
</linearGradient>
<linearGradient id="paint115_linear_1131_41323" x1="201.822" y1="11.9416" x2="208.549" y2="11.9416" gradientUnits="userSpaceOnUse">
<stop stop-color="#F57A00"/>
<stop offset="1" stop-color="#7103A4"/>
</linearGradient>
<linearGradient id="paint116_linear_1131_41323" x1="200.009" y1="17.9511" x2="206.72" y2="17.9511" gradientUnits="userSpaceOnUse">
<stop stop-color="#F57A00"/>
<stop offset="1" stop-color="#7103A4"/>
</linearGradient>
<linearGradient id="paint117_linear_1131_41323" x1="198.45" y1="17.4628" x2="204.422" y2="17.4628" gradientUnits="userSpaceOnUse">
<stop stop-color="#F57A00"/>
<stop offset="1" stop-color="#7103A4"/>
</linearGradient>
<linearGradient id="paint118_linear_1131_41323" x1="194.972" y1="25.824" x2="196.89" y2="25.824" gradientUnits="userSpaceOnUse">
<stop stop-color="#F57A00"/>
<stop offset="1" stop-color="#7103A4"/>
</linearGradient>
<linearGradient id="paint119_linear_1131_41323" x1="199.206" y1="28.7226" x2="200.282" y2="28.7226" gradientUnits="userSpaceOnUse">
<stop stop-color="#F57A00"/>
<stop offset="1" stop-color="#7103A4"/>
</linearGradient>
<linearGradient id="paint120_linear_1131_41323" x1="206.123" y1="18.5774" x2="210.092" y2="18.5774" gradientUnits="userSpaceOnUse">
<stop stop-color="#F57A00"/>
<stop offset="1" stop-color="#7103A4"/>
</linearGradient>
<linearGradient id="paint121_linear_1131_41323" x1="209.155" y1="24.6044" x2="212.018" y2="24.6044" gradientUnits="userSpaceOnUse">
<stop stop-color="#F57A00"/>
<stop offset="1" stop-color="#7103A4"/>
</linearGradient>
<linearGradient id="paint122_linear_1131_41323" x1="202.002" y1="22.7275" x2="207.295" y2="22.7275" gradientUnits="userSpaceOnUse">
<stop stop-color="#F57A00"/>
<stop offset="1" stop-color="#7103A4"/>
</linearGradient>
<linearGradient id="paint123_linear_1131_41323" x1="201.927" y1="30.4917" x2="203.25" y2="30.4917" gradientUnits="userSpaceOnUse">
<stop stop-color="#F57A00"/>
<stop offset="1" stop-color="#7103A4"/>
</linearGradient>
<linearGradient id="paint124_linear_1131_41323" x1="207.199" y1="24.0823" x2="208.902" y2="24.0823" gradientUnits="userSpaceOnUse">
<stop stop-color="#F57A00"/>
<stop offset="1" stop-color="#7103A4"/>
</linearGradient>
<linearGradient id="paint125_linear_1131_41323" x1="206.047" y1="31.4705" x2="210.243" y2="31.4705" gradientUnits="userSpaceOnUse">
<stop stop-color="#F57A00"/>
<stop offset="1" stop-color="#7103A4"/>
</linearGradient>
<linearGradient id="paint126_linear_1131_41323" x1="203.562" y1="29.6118" x2="205.145" y2="29.6118" gradientUnits="userSpaceOnUse">
<stop stop-color="#F57A00"/>
<stop offset="1" stop-color="#7103A4"/>
</linearGradient>
<linearGradient id="paint127_linear_1131_41323" x1="206.284" y1="30.0402" x2="207.343" y2="30.0402" gradientUnits="userSpaceOnUse">
<stop stop-color="#F57A00"/>
<stop offset="1" stop-color="#7103A4"/>
</linearGradient>
<linearGradient id="paint128_linear_1131_41323" x1="197.164" y1="28.8354" x2="198.676" y2="28.8354" gradientUnits="userSpaceOnUse">
<stop stop-color="#F57A00"/>
<stop offset="1" stop-color="#7103A4"/>
</linearGradient>
<linearGradient id="paint129_linear_1131_41323" x1="111.093" y1="61.9775" x2="99.2458" y2="57.9686" gradientUnits="userSpaceOnUse">
<stop stop-color="#7103A4"/>
<stop offset="1" stop-color="#3C0754"/>
</linearGradient>
<linearGradient id="paint130_linear_1131_41323" x1="108.687" y1="51.6358" x2="108.593" y2="51.5843" gradientUnits="userSpaceOnUse">
<stop stop-color="#7103A4"/>
<stop offset="1" stop-color="#3C0754"/>
</linearGradient>
<linearGradient id="paint131_linear_1131_41323" x1="117.22" y1="46.3819" x2="88.3173" y2="23.74" gradientUnits="userSpaceOnUse">
<stop stop-color="#7103A4"/>
<stop offset="1" stop-color="#3C0754"/>
</linearGradient>
<linearGradient id="paint132_linear_1131_41323" x1="113.668" y1="57.0433" x2="88.6393" y2="40.2462" gradientUnits="userSpaceOnUse">
<stop stop-color="#7103A4"/>
<stop offset="1" stop-color="#3C0754"/>
</linearGradient>
<linearGradient id="paint133_linear_1131_41323" x1="103.6" y1="45.5873" x2="110.941" y2="45.5873" gradientUnits="userSpaceOnUse">
<stop stop-color="#F57A00"/>
<stop offset="1" stop-color="#7103A4"/>
</linearGradient>
<linearGradient id="paint134_linear_1131_41323" x1="98.3349" y1="34.4197" x2="117.818" y2="34.4197" gradientUnits="userSpaceOnUse">
<stop stop-color="#F57A00"/>
<stop offset="1" stop-color="#7103A4"/>
</linearGradient>
<linearGradient id="paint135_linear_1131_41323" x1="96.1678" y1="20.9225" x2="123.218" y2="20.9225" gradientUnits="userSpaceOnUse">
<stop stop-color="#F57A00"/>
<stop offset="1" stop-color="#7103A4"/>
</linearGradient>
<linearGradient id="paint136_linear_1131_41323" x1="53.4471" y1="192.404" x2="11.2334" y2="176.508" gradientUnits="userSpaceOnUse">
<stop stop-color="#7103A4"/>
<stop offset="1" stop-color="#3C0754"/>
</linearGradient>
<linearGradient id="paint137_linear_1131_41323" x1="32.8103" y1="137.504" x2="58.8167" y2="137.504" gradientUnits="userSpaceOnUse">
<stop stop-color="#F57A00"/>
<stop offset="1" stop-color="#7103A4"/>
</linearGradient>
<linearGradient id="paint138_linear_1131_41323" x1="38.4873" y1="144.506" x2="32.0818" y2="142.817" gradientUnits="userSpaceOnUse">
<stop stop-color="#7103A4"/>
<stop offset="1" stop-color="#3C0754"/>
</linearGradient>
<linearGradient id="paint139_linear_1131_41323" x1="45.6693" y1="148.872" x2="39.2638" y2="147.184" gradientUnits="userSpaceOnUse">
<stop stop-color="#7103A4"/>
<stop offset="1" stop-color="#3C0754"/>
</linearGradient>
<linearGradient id="paint140_linear_1131_41323" x1="53.6829" y1="152.863" x2="47.2774" y2="151.174" gradientUnits="userSpaceOnUse">
<stop stop-color="#7103A4"/>
<stop offset="1" stop-color="#3C0754"/>
</linearGradient>
<linearGradient id="paint141_linear_1131_41323" x1="273.086" y1="221.301" x2="263.037" y2="219.129" gradientUnits="userSpaceOnUse">
<stop stop-color="#7103A4"/>
<stop offset="1" stop-color="#3C0754"/>
</linearGradient>
<clipPath id="clip0_1131_41323">
<rect width="334" height="287" fill="white"/>
</clipPath>
</defs>
</svg>
