<svg width="88" height="89" viewBox="0 0 88 89" fill="none" xmlns="http://www.w3.org/2000/svg">
<path d="M39.581 46.5978L45.7114 40.4667C45.8317 40.3466 45.9272 40.2038 45.9924 40.0467C46.0575 39.8896 46.091 39.7212 46.091 39.5511C46.091 39.381 46.0575 39.2126 45.9924 39.0555C45.9272 38.8984 45.8317 38.7556 45.7114 38.6355L42.4456 35.3697C43.1168 34.1395 43.6551 32.8412 44.0511 31.4969H48.667C49.0105 31.4969 49.34 31.3605 49.583 31.1175C49.8259 30.8746 49.9624 30.5451 49.9624 30.2016V21.5323C49.9624 21.1887 49.8259 20.8593 49.583 20.6163C49.34 20.3734 49.0105 20.2369 48.667 20.2369H44.0614C43.6651 18.8908 43.1251 17.5911 42.4508 16.3605L45.7114 13.0991C45.8317 12.9789 45.9272 12.8361 45.9924 12.6789C46.0576 12.5218 46.0911 12.3533 46.0911 12.1831C46.0911 12.013 46.0576 11.8445 45.9924 11.6873C45.9272 11.5301 45.8317 11.3874 45.7114 11.2671L39.581 5.13601C39.4608 5.01564 39.3181 4.92015 39.161 4.855C39.0038 4.78985 38.8354 4.75631 38.6653 4.75631C38.4953 4.75631 38.3268 4.78985 38.1697 4.855C38.0126 4.92015 37.8699 5.01564 37.7497 5.13601L34.4884 8.39809C33.2577 7.72372 31.9581 7.18372 30.6119 6.7874V2.18037C30.612 2.01023 30.5786 1.84175 30.5135 1.68454C30.4484 1.52734 30.353 1.3845 30.2327 1.26419C30.1124 1.14389 29.9696 1.04848 29.8124 0.983415C29.6552 0.918352 29.4867 0.884913 29.3166 0.88501H20.6465C20.4764 0.884913 20.3079 0.918352 20.1507 0.983415C19.9935 1.04848 19.8507 1.14389 19.7304 1.26419C19.6101 1.3845 19.5146 1.52734 19.4496 1.68454C19.3845 1.84175 19.3511 2.01023 19.3512 2.18037V6.79555C18.0072 7.19202 16.7092 7.73047 15.4792 8.40179L12.2141 5.13601C12.0939 5.01562 11.9511 4.92011 11.7939 4.85495C11.6367 4.78979 11.4683 4.75625 11.2981 4.75625C11.128 4.75625 10.9595 4.78979 10.8023 4.85495C10.6451 4.92011 10.5024 5.01562 10.3821 5.13601L4.251 11.2671C4.13061 11.3874 4.0351 11.5301 3.96994 11.6873C3.90478 11.8445 3.87124 12.013 3.87124 12.1831C3.87124 12.3533 3.90478 12.5218 3.96994 12.6789C4.0351 12.8361 4.13061 12.9789 4.251 13.0991L7.5153 16.3642C6.84402 17.5945 6.30558 18.8927 5.90906 20.2369H1.29536C1.12522 20.2368 0.956735 20.2703 0.799531 20.3353C0.642327 20.4004 0.49949 20.4958 0.379185 20.6161C0.25888 20.7364 0.163469 20.8793 0.0984054 21.0365C0.033342 21.1937 -9.70924e-05 21.3622 2.11748e-07 21.5323V30.2016C-9.70924e-05 30.3717 0.033342 30.5402 0.0984054 30.6974C0.163469 30.8546 0.25888 30.9974 0.379185 31.1177C0.49949 31.238 0.642327 31.3335 0.799531 31.3985C0.956735 31.4636 1.12522 31.497 1.29536 31.4969H5.90165C6.29817 32.8431 6.83842 34.1428 7.51308 35.3734L4.251 38.6355C4.13063 38.7556 4.03514 38.8984 3.96999 39.0555C3.90484 39.2126 3.8713 39.381 3.8713 39.5511C3.8713 39.7212 3.90484 39.8896 3.96999 40.0467C4.03514 40.2038 4.13063 40.3466 4.251 40.4667L10.3806 46.5978C10.6238 46.8404 10.9532 46.9767 11.2966 46.9767C11.6401 46.9767 11.9695 46.8404 12.2126 46.5978L15.474 43.3358C16.705 44.0102 18.0048 44.5504 19.3512 44.9472V49.5542C19.3512 49.8978 19.4877 50.2273 19.7306 50.4702C19.9735 50.7131 20.303 50.8496 20.6465 50.8496H29.3166C29.6601 50.8496 29.9896 50.7131 30.2325 50.4702C30.4754 50.2273 30.6119 49.8978 30.6119 49.5542V44.9383C31.9559 44.5418 33.2539 44.0034 34.4839 43.3321L37.7497 46.5978C37.9926 46.8406 38.322 46.9769 38.6653 46.9769C39.0087 46.9769 39.3381 46.8406 39.581 46.5978ZM35.6127 40.7969C35.407 40.5908 35.1378 40.4601 34.8486 40.426C34.5594 40.3918 34.2671 40.4563 34.0191 40.6088C32.4715 41.5604 30.7825 42.26 29.0153 42.6814C28.7325 42.7493 28.4807 42.9103 28.3004 43.1385C28.1201 43.3667 28.0218 43.6489 28.0212 43.9398V48.2552H21.9419V43.9516C21.9415 43.6605 21.843 43.378 21.6624 43.1497C21.4818 42.9214 21.2295 42.7606 20.9463 42.6933C19.1794 42.2707 17.4913 41.5682 15.9462 40.6125C15.6979 40.4594 15.4053 40.3946 15.1155 40.4284C14.8258 40.4622 14.5559 40.5928 14.3496 40.7991L11.2977 43.8487L7.00012 39.5496L10.0498 36.4992C10.2558 36.293 10.3863 36.0233 10.4202 35.7337C10.454 35.4441 10.3892 35.1516 10.2363 34.9033C9.28068 33.3573 8.57872 31.6683 8.15706 29.9003C8.08969 29.6171 7.92889 29.3648 7.70059 29.1842C7.4723 29.0036 7.18982 28.9051 6.89871 28.9047H2.59072V22.8269H6.90537C7.19624 22.8264 7.4785 22.7281 7.70675 22.5478C7.93499 22.3675 8.09594 22.1157 8.16372 21.8328C8.58472 20.0659 9.28433 18.3774 10.2363 16.8305C10.3886 16.5821 10.4529 16.2897 10.4188 16.0003C10.3847 15.711 10.2542 15.4415 10.0483 15.2354L7.00012 12.1828L11.2977 7.88513L14.3504 10.9377C14.5563 11.1437 14.8257 11.2742 15.1149 11.3083C15.4042 11.3424 15.6965 11.2781 15.9448 11.1257C17.4921 10.1742 19.1809 9.47465 20.9478 9.05317C21.2306 8.98528 21.4824 8.82429 21.6627 8.59607C21.843 8.36786 21.9413 8.08566 21.9419 7.79482V3.47573H28.0212V7.78298C28.0216 8.07409 28.1201 8.35657 28.3007 8.58486C28.4813 8.81316 28.7336 8.97396 29.0168 9.04133C30.7847 9.46284 32.4737 10.1645 34.0198 11.1198C34.2678 11.2734 34.5605 11.3386 34.8503 11.3047C35.14 11.2708 35.4098 11.1399 35.6157 10.9333L38.6653 7.88365L42.9637 12.1828L39.9141 15.2331C39.7081 15.4396 39.5776 15.7094 39.5438 15.9991C39.51 16.2888 39.5747 16.5814 39.7275 16.8298C40.6831 18.3755 41.3848 20.0643 41.806 21.8321C41.8734 22.1153 42.0342 22.3675 42.2625 22.5482C42.4908 22.7288 42.7733 22.8272 43.0644 22.8276H47.3716V28.9062H43.0562C42.7653 28.9068 42.483 29.0053 42.2548 29.1857C42.0266 29.3662 41.8656 29.6181 41.7979 29.901C41.3765 31.668 40.6769 33.3568 39.7253 34.9041C39.5727 35.1521 39.5083 35.4444 39.5424 35.7336C39.5765 36.0228 39.7072 36.292 39.9133 36.4977L42.9637 39.5511L38.6653 43.8487L35.6127 40.7969Z" fill="#F57A00"/>
<path d="M24.9819 14.6538C22.7641 14.6538 20.5961 15.3115 18.7521 16.5436C16.9081 17.7757 15.4708 19.527 14.6221 21.576C13.7734 23.625 13.5514 25.8796 13.984 28.0548C14.4167 30.23 15.4847 32.228 17.0529 33.7962C18.6211 35.3644 20.6191 36.4324 22.7943 36.8651C24.9695 37.2977 27.2241 37.0757 29.2731 36.227C31.3221 35.3783 33.0734 33.941 34.3055 32.097C35.5376 30.253 36.1953 28.085 36.1953 25.8672C36.192 22.8942 35.0095 20.044 32.9073 17.9418C30.8051 15.8396 27.9549 14.6571 24.9819 14.6538ZM24.9819 34.4913C23.2766 34.4913 21.6095 33.9856 20.1916 33.0382C18.7736 32.0908 17.6684 30.7442 17.0158 29.1687C16.3631 27.5932 16.1923 25.8596 16.5248 24.187C16.8574 22.5144 17.6785 20.978 18.8843 19.772C20.09 18.5661 21.6263 17.7447 23.2988 17.4119C24.9714 17.079 26.705 17.2495 28.2806 17.9019C29.8562 18.5543 31.203 19.6593 32.1507 21.0771C33.0983 22.4949 33.6043 24.1618 33.6046 25.8672C33.6018 28.1532 32.6925 30.3448 31.076 31.9613C29.4596 33.5777 27.2679 34.4871 24.9819 34.4898V34.4913ZM86.7047 58.2733H82.0976C81.7014 56.9271 81.1613 55.6275 80.4869 54.3969L83.7483 51.1348C83.8686 51.0146 83.9641 50.8719 84.0293 50.7148C84.0944 50.5577 84.128 50.3893 84.128 50.2192C84.128 50.0491 84.0944 49.8807 84.0293 49.7236C83.9641 49.5664 83.8686 49.4237 83.7483 49.3035L77.6179 43.1739C77.4977 43.0535 77.3549 42.958 77.1977 42.8929C77.0405 42.8277 76.872 42.7941 76.7019 42.7941C76.5317 42.7941 76.3633 42.8277 76.2061 42.8929C76.0489 42.958 75.9061 43.0535 75.7859 43.1739L72.5245 46.4345C71.294 45.7603 69.9947 45.22 68.6488 44.8231V40.216C68.6488 39.8725 68.5124 39.543 68.2694 39.3001C68.0265 39.0572 67.697 38.9207 67.3535 38.9207H58.6834C58.3399 38.9207 58.0104 39.0572 57.7675 39.3001C57.5246 39.543 57.3881 39.8725 57.3881 40.216V44.832C56.0438 45.2283 54.7455 45.7667 53.5153 46.4382L50.2503 43.1739C50.1301 43.0535 49.9874 42.958 49.8303 42.8929C49.6732 42.8277 49.5047 42.7942 49.3347 42.7942C49.1646 42.7942 48.9962 42.8277 48.839 42.8929C48.6819 42.958 48.5392 43.0535 48.419 43.1739L42.2879 49.3035C42.0452 49.5464 41.9088 49.8758 41.9088 50.2192C41.9088 50.5626 42.0452 50.8919 42.2879 51.1348L45.5544 54.4006C44.8829 55.6306 44.3446 56.9289 43.9489 58.2733H39.3315C38.988 58.2733 38.6585 58.4098 38.4156 58.6527C38.1727 58.8957 38.0362 59.2252 38.0362 59.5687V68.238C38.0362 68.5815 38.1727 68.911 38.4156 69.1539C38.6585 69.3969 38.988 69.5333 39.3315 69.5333H43.9386C44.3349 70.8795 44.8749 72.1792 45.5493 73.4098L42.2879 76.6711C42.0451 76.9142 41.9088 77.2436 41.9088 77.5871C41.9088 77.9307 42.0451 78.2601 42.2879 78.5031L48.419 84.6343C48.5392 84.7546 48.6819 84.8501 48.839 84.9153C48.9962 84.9804 49.1646 85.0139 49.3347 85.0139C49.5047 85.0139 49.6732 84.9804 49.8303 84.9153C49.9874 84.8501 50.1301 84.7546 50.2503 84.6343L53.5116 81.3774C54.7422 82.0519 56.0419 82.5919 57.3881 82.988V87.5951C57.388 87.7652 57.4214 87.9337 57.4865 88.0909C57.5516 88.2481 57.647 88.3909 57.7673 88.5113C57.8876 88.6316 58.0304 88.727 58.1876 88.792C58.3448 88.8571 58.5133 88.8905 58.6834 88.8904H67.3527C67.5229 88.8905 67.6914 88.8571 67.8486 88.792C68.0058 88.727 68.1486 88.6316 68.2689 88.5113C68.3892 88.3909 68.4846 88.2481 68.5497 88.0909C68.6147 87.9337 68.6482 87.7652 68.6481 87.5951V82.9799C69.9924 82.5834 71.2907 82.0447 72.5208 81.3729L75.7859 84.638C75.9061 84.7583 76.0489 84.8539 76.2061 84.919C76.3633 84.9842 76.5317 85.0177 76.7019 85.0177C76.872 85.0177 77.0405 84.9842 77.1977 84.919C77.3549 84.8539 77.4977 84.7583 77.6179 84.638L83.7483 78.5083C83.8687 78.3881 83.9642 78.2453 84.0293 78.0881C84.0945 77.931 84.128 77.7625 84.128 77.5923C84.128 77.4222 84.0945 77.2537 84.0293 77.0965C83.9642 76.9394 83.8687 76.7966 83.7483 76.6763L80.4832 73.4105C81.1546 72.1805 81.693 70.8825 82.0895 69.5385H86.7047C86.8748 69.5386 87.0433 69.5052 87.2005 69.4401C87.3577 69.3751 87.5005 69.2796 87.6208 69.1593C87.7411 69.039 87.8365 68.8962 87.9016 68.739C87.9667 68.5818 88.0001 68.4133 88 68.2432V59.5687C88.0001 59.3986 87.9667 59.2301 87.9016 59.0729C87.8365 58.9157 87.7411 58.7728 87.6208 58.6525C87.5005 58.5322 87.3577 58.4368 87.2005 58.3717C87.0433 58.3067 86.8748 58.2732 86.7047 58.2733ZM85.4093 66.9434H81.0946C80.8038 66.9438 80.5215 67.0421 80.2933 67.2224C80.065 67.4027 79.9041 67.6546 79.8363 67.9375C79.4148 69.7044 78.7152 71.3931 77.7637 72.9405C77.6115 73.1888 77.5472 73.4811 77.5813 73.7703C77.6154 74.0595 77.7459 74.3289 77.9517 74.5349L81.0051 77.5882L76.7067 81.8859L73.6541 78.8333C73.4479 78.6277 73.1786 78.4974 72.8894 78.4633C72.6003 78.4292 72.308 78.4933 72.0597 78.6453C70.512 79.5967 68.823 80.2962 67.0559 80.7178C66.773 80.7856 66.5212 80.9466 66.3409 81.1748C66.1606 81.4031 66.0623 81.6853 66.0618 81.9762V86.2908H59.9788V81.9836C59.9784 81.6925 59.8799 81.41 59.6993 81.1817C59.5187 80.9534 59.2664 80.7926 58.9832 80.7252C57.2154 80.3037 55.5263 79.602 53.9802 78.6467C53.7321 78.4933 53.4395 78.4282 53.1498 78.4621C52.8601 78.4959 52.5903 78.6268 52.3843 78.8333L49.3347 81.8829L45.0363 77.5875L48.0859 74.5371C48.2923 74.3309 48.423 74.061 48.4568 73.7713C48.4907 73.4815 48.4257 73.1888 48.2725 72.9405C47.3174 71.3946 46.616 69.7058 46.1947 67.9382C46.1273 67.655 45.9665 67.4027 45.7383 67.2221C45.51 67.0415 45.2275 66.943 44.9364 66.9426H40.6269V60.8641H44.9415C45.2325 60.8634 45.5148 60.765 45.743 60.5845C45.9712 60.4041 46.1321 60.1522 46.1999 59.8692C46.6213 58.1022 47.3209 56.4135 48.2725 54.8662C48.425 54.6181 48.4895 54.3259 48.4554 54.0367C48.4212 53.7475 48.2906 53.4782 48.0845 53.2725L45.0363 50.2192L49.3347 45.9215L52.3873 48.9742C52.5929 49.1805 52.8621 49.3113 53.1514 49.3455C53.4407 49.3796 53.733 49.315 53.9809 49.1622C55.5285 48.2106 57.2175 47.511 58.9847 47.0896C59.2675 47.0217 59.5193 46.8607 59.6996 46.6325C59.8799 46.4043 59.9782 46.1221 59.9788 45.8312V41.5158H66.0581V45.8231C66.0585 46.1142 66.157 46.3967 66.3376 46.625C66.5182 46.8533 66.7705 47.0141 67.0537 47.0814C68.8213 47.5034 70.5101 48.2054 72.056 49.1607C72.3042 49.3142 72.5969 49.3793 72.8868 49.3454C73.1766 49.3116 73.4465 49.1807 73.6526 48.9742L76.7023 45.9215L81.0006 50.2199L77.9502 53.2703C77.7441 53.4765 77.6135 53.7462 77.5797 54.0358C77.5458 54.3254 77.6107 54.618 77.7637 54.8662C78.7189 56.412 79.4204 58.1008 79.8415 59.8685C79.9087 60.1518 80.0694 60.4042 80.2977 60.585C80.5261 60.7658 80.8086 60.8643 81.0998 60.8648H85.4071L85.4093 66.9434Z" fill="#F57A00"/>
<path d="M63.0181 52.6899C60.8003 52.6899 58.6323 53.3475 56.7882 54.5797C54.9442 55.8118 53.507 57.5631 52.6583 59.6121C51.8095 61.661 51.5875 63.9157 52.0201 66.0909C52.4528 68.266 53.5208 70.2641 55.089 71.8323C56.6572 73.4005 58.6553 74.4685 60.8304 74.9011C63.0056 75.3338 65.2602 75.1117 67.3092 74.263C69.3582 73.4143 71.1095 71.9771 72.3416 70.1331C73.5738 68.289 74.2314 66.121 74.2314 63.9032C74.2281 60.9303 73.0456 58.0801 70.9434 55.9779C68.8412 53.8757 65.991 52.6932 63.0181 52.6899ZM63.0181 72.5274C61.3127 72.5274 59.6455 72.0217 58.2276 71.0742C56.8096 70.1267 55.7044 68.78 55.0518 67.2045C54.3991 65.6289 54.2284 63.8952 54.5611 62.2225C54.8938 60.5499 55.715 59.0135 56.9209 57.8076C58.1268 56.6017 59.6632 55.7805 61.3359 55.4478C63.0085 55.115 64.7422 55.2858 66.3178 55.9384C67.8934 56.5911 69.2401 57.6962 70.1875 59.1142C71.135 60.5322 71.6407 62.1993 71.6407 63.9047C71.6378 66.1905 70.7283 68.3819 69.1118 69.9981C67.4954 71.6143 65.3039 72.5233 63.0181 72.5259V72.5274ZM53.4087 12.9505C60.9349 15.1661 67.4347 19.9728 71.7577 26.5199C70.7209 27.4584 70.0653 28.7453 69.9157 30.1358C69.7662 31.5262 70.133 32.9231 70.9464 34.0606C71.7598 35.1982 72.9631 35.997 74.3272 36.305C75.6913 36.613 77.1211 36.4088 78.3444 35.7312C79.5677 35.0536 80.4992 33.9498 80.9616 32.63C81.424 31.3103 81.3851 29.8665 80.8522 28.5736C80.3193 27.2806 79.3297 26.2287 78.0716 25.618C76.8135 25.0073 75.3749 24.8805 74.0293 25.2616C69.3722 18.1196 62.3201 12.8732 54.1408 10.4656C53.9766 10.4139 53.8037 10.3954 53.6322 10.4113C53.4608 10.4271 53.2942 10.477 53.1423 10.558C52.9903 10.639 52.8561 10.7494 52.7473 10.8829C52.6385 11.0164 52.5575 11.1702 52.5089 11.3354C52.4603 11.5006 52.4451 11.6738 52.4642 11.8449C52.4833 12.016 52.5363 12.1816 52.6202 12.332C52.704 12.4823 52.817 12.6145 52.9525 12.7207C53.0881 12.8269 53.2426 12.905 53.4087 12.9505ZM78.6416 30.728C78.6416 31.3388 78.4604 31.9358 78.1211 32.4437C77.7818 32.9515 77.2995 33.3473 76.7352 33.5811C76.1709 33.8148 75.55 33.8759 74.951 33.7568C74.3519 33.6376 73.8017 33.3435 73.3698 32.9116C72.9379 32.4798 72.6438 31.9295 72.5246 31.3305C72.4055 30.7314 72.4666 30.1105 72.7004 29.5462C72.9341 28.9819 73.3299 28.4996 73.8377 28.1603C74.3456 27.821 74.9426 27.6399 75.5534 27.6399C76.3722 27.6406 77.1572 27.9663 77.7362 28.5452C78.3152 29.1242 78.6408 29.9092 78.6416 30.728ZM34.5912 76.8198C27.0664 74.6034 20.568 69.7968 16.246 63.2504C17.2828 62.3119 17.9383 61.025 18.0879 59.6345C18.2375 58.2441 17.8707 56.8472 17.0572 55.7097C16.2438 54.5721 15.0405 53.7733 13.6764 53.4653C12.3123 53.1573 10.8826 53.3615 9.65926 54.0391C8.43595 54.7167 7.50446 55.8205 7.04204 57.1403C6.57963 58.46 6.61857 59.9038 7.15145 61.1967C7.68434 62.4897 8.67397 63.5416 9.93203 64.1523C11.1901 64.763 12.6288 64.8898 13.9743 64.5087C18.6303 71.6502 25.6811 76.8965 33.8592 79.3047C33.9781 79.3398 34.1015 79.3575 34.2256 79.3572C34.5367 79.3566 34.8372 79.2439 35.0721 79.0399C35.307 78.836 35.4606 78.5542 35.5049 78.2463C35.5492 77.9383 35.4812 77.6247 35.3133 77.3628C35.1454 77.1009 34.8888 76.9081 34.5905 76.8198H34.5912ZM9.35838 59.0423C9.35867 58.4316 9.54004 57.8347 9.87954 57.327C10.219 56.8194 10.7015 56.4238 11.2658 56.1903C11.8301 55.9568 12.4509 55.8959 13.0499 56.0152C13.6488 56.1345 14.1989 56.4287 14.6307 56.8607C15.0624 57.2926 15.3564 57.8429 15.4754 58.4419C15.5945 59.0409 15.5332 59.6617 15.2994 60.2259C15.0657 60.7901 14.6698 61.2723 14.162 61.6116C13.6542 61.9508 13.0572 62.1319 12.4465 62.1319C11.6275 62.1311 10.8422 61.8053 10.2632 61.226C9.68421 60.6468 9.35877 59.8614 9.35838 59.0423Z" fill="#F57A00"/>
</svg>
