<svg width="72" height="79" viewBox="0 0 72 79" fill="none" xmlns="http://www.w3.org/2000/svg">
<path d="M54.0587 75.5656H49.0916L43.6919 63.6856C43.6377 63.0064 43.0703 62.4717 42.3772 62.4717H6.41971C4.80474 62.4717 3.49107 61.1577 3.49107 59.5429V53.5455H45.3094C45.6595 53.5455 45.9952 53.4064 46.2428 53.1589C46.4903 52.9113 46.6294 52.5756 46.6294 52.2255C46.6294 51.8754 46.4903 51.5397 46.2428 51.2921C45.9952 51.0446 45.6595 50.9055 45.3094 50.9055H10.7681L12.4746 44.1578C12.6327 43.5332 12.922 42.9494 13.3233 42.4453C13.7246 41.9412 14.2287 41.5285 14.8021 41.2345L21.4616 37.8213C22.8088 39.5459 24.5278 41.2111 26.6113 42.7938C28.894 44.5281 31.6115 45.5044 34.4697 45.6174C34.6552 45.6248 34.8409 45.6285 35.0266 45.6285C37.6794 45.6285 40.2642 44.8782 42.534 43.4443C45.3898 41.6396 47.3858 39.7212 48.7813 37.9L55.2875 41.2346C55.5991 41.3943 55.9613 41.4237 56.2945 41.3163C56.6277 41.2089 56.9046 40.9735 57.0642 40.6619C57.2239 40.3504 57.2533 39.9882 57.1458 39.655C57.0384 39.3218 56.8031 39.0449 56.4915 38.8852L50.2368 35.6794C51.9321 32.5994 52.013 30.1275 52.0035 29.5157L52.006 29.4903C53.5266 16.5538 47.6317 8.33849 42.4077 3.7206C40.2952 1.84972 37.5582 0.838562 34.7367 0.886649C31.9155 0.928429 29.2118 2.02321 27.1564 3.95609C22.5929 8.24116 17.2807 16.1543 17.8889 29.5182C17.8963 29.679 17.9335 29.8311 17.9926 29.9714C18.233 31.8931 18.8944 33.7847 19.9643 35.622L13.5979 38.8851C12.6907 39.3502 11.893 40.0033 11.258 40.8009C10.623 41.5984 10.1653 42.5222 9.91525 43.5105L8.04525 50.9055H3.4909V17.9921C3.4909 16.3771 4.80474 15.0631 6.41971 15.0631H14.3805C14.7306 15.0631 15.0664 14.924 15.3139 14.6765C15.5615 14.4289 15.7005 14.0932 15.7005 13.7431C15.7005 13.393 15.5615 13.0573 15.3139 12.8097C15.0664 12.5622 14.7306 12.4231 14.3805 12.4231H6.41971C3.34904 12.4231 0.851074 14.9214 0.851074 17.9921V59.5429C0.851074 62.6134 3.34904 65.1115 6.41971 65.1115H25.2385L20.4869 75.5656H15.5198C15.1697 75.5656 14.834 75.7046 14.5864 75.9522C14.3389 76.1997 14.1998 76.5355 14.1998 76.8856C14.1998 77.2357 14.3389 77.5714 14.5864 77.8189C14.834 78.0665 15.1697 78.2056 15.5198 78.2056H21.3296L21.3361 78.2059L21.3408 78.2056H48.2377L48.2424 78.2059L48.2489 78.2056H54.0587C54.4088 78.2056 54.7445 78.0665 54.9921 77.8189C55.2396 77.5714 55.3787 77.2357 55.3787 76.8856C55.3787 76.5355 55.2396 76.1997 54.9921 75.9522C54.7445 75.7046 54.4088 75.5656 54.0587 75.5656ZM20.586 27.2173C20.776 25.3931 21.9105 23.9999 23.2013 22.9845C23.5234 24.396 24.1487 26.6626 25.2309 28.9495C26.5874 31.816 28.2916 33.9224 30.276 35.2172C30.109 36.5657 29.4981 39.1835 27.9755 40.5122C24.2156 37.6011 19.9854 32.9829 20.586 27.2173ZM35.3858 34.1007C28.3687 34.1007 26.0006 23.6399 25.5931 21.5207C25.7413 21.4497 25.8906 21.381 26.0409 21.3148C28.8514 20.0782 32.2134 19.477 35.493 19.477C38.9132 19.477 42.2429 20.1317 44.7597 21.4021C43.1623 27.4505 40.6332 34.1007 35.3858 34.1007ZM30.2777 41.9429C31.8199 40.2399 32.4832 37.8709 32.7615 36.3695C33.6004 36.6154 34.4764 36.7407 35.3856 36.7407C36.0079 36.7421 36.6284 36.6757 37.2363 36.5427C37.5344 38.058 38.2122 40.3319 39.7152 41.9723C36.6753 43.3576 33.2516 43.3366 30.2777 41.9429ZM42.0722 40.5842C42.0676 40.5801 42.0636 40.5757 42.0588 40.5718C40.506 39.2816 39.935 36.7919 39.7395 35.5356C41.2496 34.6232 42.5955 33.1951 43.7646 31.2588C45.3062 28.7054 46.333 25.6358 47.0729 22.9622C48.9036 24.6183 49.6784 26.7455 49.3708 29.3003C49.3655 29.3446 49.3627 29.3863 49.3618 29.428C49.3614 29.4398 49.3621 29.4515 49.3623 29.4632C49.3623 29.484 49.3618 29.5043 49.363 29.5261C49.3737 29.7735 49.5272 35.4245 42.0724 40.5842H42.0722ZM28.9636 5.88047C32.2535 2.7915 37.2815 2.71318 40.6591 5.69867C44.2766 8.89641 48.2447 13.9974 49.3218 21.4582C48.8972 21.0275 48.4396 20.6305 47.9531 20.2711C41.9515 15.8201 31.3542 16.0929 24.9777 18.8983C23.3868 19.5981 22.0413 20.4462 20.9645 21.413C22.234 13.7755 25.7948 8.85575 28.9636 5.88047ZM28.1385 65.1115H41.44L46.1917 75.5656H23.3866L28.1385 65.1115Z" fill="#F57A00"/>
<path d="M32.1921 56.5587C31.842 56.5587 31.5062 56.6978 31.2587 56.9453C31.0111 57.1929 30.8721 57.5286 30.8721 57.8787C30.8721 58.2288 31.0111 58.5645 31.2587 58.8121C31.5062 59.0596 31.842 59.1987 32.1921 59.1987H37.3864C37.7364 59.1987 38.0722 59.0596 38.3197 58.8121C38.5673 58.5645 38.7064 58.2288 38.7064 57.8787C38.7064 57.5286 38.5673 57.1929 38.3197 56.9453C38.0722 56.6978 37.7364 56.5587 37.3864 56.5587H32.1921ZM55.7961 15.0633H63.1587C64.7737 15.0633 66.0876 16.3772 66.0876 17.992V43.4896C66.0876 43.8397 66.2266 44.1755 66.4742 44.423C66.7217 44.6706 67.0575 44.8096 67.4076 44.8096C67.7576 44.8096 68.0934 44.6706 68.3409 44.423C68.5885 44.1755 68.7276 43.8397 68.7276 43.4896V17.9922C68.7276 14.9215 66.2294 12.4233 63.1587 12.4233H55.7961C55.4461 12.4233 55.1103 12.5624 54.8628 12.81C54.6152 13.0575 54.4761 13.3933 54.4761 13.7433C54.4761 14.0934 54.6152 14.4292 54.8628 14.6767C55.1103 14.9243 55.4461 15.0633 55.7961 15.0633ZM70.4055 57.0476L64.185 46.2734C63.1903 44.5504 61.4084 43.5215 59.4186 43.5215C57.4289 43.5215 55.6469 44.5504 54.6521 46.2736L48.4318 57.0476C47.9342 57.9091 47.6855 58.8542 47.6855 59.7995C47.6855 60.7447 47.9344 61.6898 48.4318 62.5515C49.4267 64.2745 51.2085 65.3034 53.1982 65.3034H65.6389C67.6288 65.3034 69.4106 64.2747 70.4055 62.5515C70.9029 61.6898 71.1518 60.7447 71.1518 59.7995C71.1518 58.8544 70.9029 57.9093 70.4055 57.0476ZM68.1193 61.2315C67.6015 62.128 66.6744 62.6634 65.6389 62.6634H53.1982C52.1628 62.6634 51.2358 62.128 50.718 61.2315C50.4593 60.783 50.3298 60.2913 50.3298 59.7995C50.3298 59.3078 50.4591 58.8159 50.718 58.3676L56.9384 47.5936C57.4562 46.6969 58.3833 46.1615 59.4186 46.1615C60.454 46.1615 61.3811 46.6969 61.8988 47.5936L68.1193 58.3676C68.378 58.8159 68.5076 59.3078 68.5076 59.7995C68.5076 60.2913 68.378 60.7832 68.1193 61.2315Z" fill="#F57A00"/>
<path d="M59.4186 49.6306C59.0685 49.6306 58.7328 49.7697 58.4853 50.0172C58.2377 50.2648 58.0986 50.6005 58.0986 50.9506V53.891C58.0986 54.2411 58.2377 54.5769 58.4853 54.8244C58.7328 55.072 59.0685 55.211 59.4186 55.211C59.7687 55.211 60.1045 55.072 60.352 54.8244C60.5996 54.5769 60.7386 54.2411 60.7386 53.891V50.9506C60.7386 50.6005 60.5996 50.2648 60.352 50.0172C60.1045 49.7697 59.7687 49.6306 59.4186 49.6306ZM60.6383 58.8139C60.5722 58.6536 60.4747 58.5082 60.3514 58.3863C60.2916 58.3247 60.223 58.2701 60.1508 58.2226C60.0804 58.1751 60.003 58.1328 59.9238 58.1011C59.8446 58.0677 59.7601 58.0413 59.6774 58.0255C59.2479 57.9392 58.7921 58.08 58.4858 58.3863C58.4242 58.4461 58.3697 58.5147 58.3204 58.5869C58.2729 58.6573 58.2324 58.7347 58.2007 58.8139C58.1673 58.8949 58.1409 58.9776 58.125 59.0621C58.1074 59.1466 58.0986 59.2328 58.0986 59.3191C58.0986 59.4053 58.1074 59.4915 58.125 59.5778C58.1409 59.6623 58.1673 59.745 58.2007 59.8242C58.2324 59.9034 58.2729 59.9808 58.3204 60.0512C58.3697 60.1251 58.4242 60.192 58.4858 60.2536C58.7341 60.4996 59.0691 60.6381 59.4186 60.6391C59.7654 60.6391 60.1068 60.4983 60.3514 60.2536C60.4741 60.1305 60.5716 59.9847 60.6383 59.8242C60.67 59.745 60.6964 59.6623 60.7122 59.5778C60.7298 59.4915 60.7386 59.4053 60.7386 59.3191C60.7386 59.2328 60.7298 59.1466 60.7122 59.0621C60.6964 58.9776 60.67 58.8949 60.6383 58.8139Z" fill="#F57A00"/>
</svg>
