<svg width="81" height="81" viewBox="0 0 81 81" fill="none" xmlns="http://www.w3.org/2000/svg">
<path d="M69.5349 64.1964C68.2665 64.1956 67.0075 64.4151 65.8142 64.845C64.2534 60.5266 60.1729 57.6117 55.4713 57.6117C50.6591 57.6117 46.4781 60.7121 45.0156 65.1693C43.5969 64.5273 42.0575 64.1956 40.5003 64.1964C38.9429 64.1956 37.4033 64.5273 35.9844 65.1694C34.5221 60.7121 30.3413 57.6117 25.5292 57.6117C23.0266 57.6117 20.5768 58.4745 18.631 60.0411C17.0693 61.3012 15.8792 62.9618 15.1881 64.8457C13.9943 64.4153 12.7347 64.1956 11.4657 64.1964C5.39651 64.1964 0.458984 69.1337 0.458984 75.2024C0.458984 76.4443 1.12298 78.1691 4.28655 79.3339C6.19944 80.0381 8.74893 80.426 11.4654 80.426C14.1819 80.426 16.7314 80.0381 18.6443 79.3339C21.8078 78.1691 22.4718 76.4443 22.4718 75.2024C22.4718 74.6773 22.4324 74.1613 22.3609 73.6557C23.3879 73.7787 24.4562 73.8405 25.5234 73.8405C26.9267 73.8405 28.3246 73.7324 29.6217 73.5232C29.5363 74.0788 29.4935 74.6401 29.4936 75.2022C29.4936 76.4441 30.1576 78.169 33.3211 79.3337C35.234 80.0381 37.7835 80.426 40.5 80.426C43.2166 80.426 45.7661 80.0381 47.6789 79.3339C50.8424 78.1691 51.5064 76.4443 51.5064 75.2024C51.5064 74.6316 51.4626 74.0709 51.3785 73.5234C52.6754 73.7324 54.0729 73.8405 55.4766 73.8405C56.5436 73.8405 57.6121 73.7787 58.6392 73.6555C58.5661 74.1679 58.529 74.6848 58.5283 75.2024C58.5283 76.4443 59.1923 78.1691 62.3559 79.3339C64.2686 80.0381 66.8181 80.426 69.5348 80.426C72.2512 80.426 74.8007 80.0381 76.7136 79.3339C79.877 78.1693 80.541 76.4443 80.541 75.2024C80.541 69.1337 75.6037 64.1964 69.5349 64.1964ZM11.4654 78.1565C6.64783 78.1565 2.72852 76.8313 2.72852 75.2024C2.72852 70.3851 6.648 66.4658 11.4657 66.4658C16.283 66.4658 20.2023 70.385 20.2023 75.2024C20.2023 76.8313 16.283 78.1565 11.4654 78.1565ZM30.2942 71.0889C27.7316 71.6619 24.5047 71.7329 21.7459 71.2777C20.8775 69.0108 19.2812 67.1021 17.243 65.8399C18.421 62.2933 21.718 59.8813 25.5294 59.8813C29.5169 59.8813 32.958 62.5624 33.9685 66.3507C32.3309 67.5618 31.0595 69.2014 30.2942 71.0889ZM40.5 78.1565C35.6826 78.1565 31.7631 76.8313 31.7631 75.2024C31.7631 70.3851 35.6826 66.4658 40.5003 66.4658C45.3176 66.4658 49.2369 70.385 49.2369 75.2024C49.2369 76.8313 45.3176 78.1565 40.5 78.1565ZM59.2543 71.2775C56.4952 71.7327 53.2684 71.6619 50.7058 71.0889C49.9406 69.2013 48.6692 67.5617 47.0317 66.3506C48.0421 62.5622 51.4834 59.8813 55.4713 59.8813C59.2825 59.8813 62.5793 62.2933 63.7572 65.8401C61.719 67.1023 60.1229 69.0108 59.2543 71.2775ZM69.5346 78.1565C64.717 78.1565 60.7977 76.8313 60.7977 75.2024C60.7977 70.3851 64.7172 66.4658 69.5349 66.4658C74.3522 66.4658 78.2715 70.385 78.2715 75.2024C78.2715 76.8313 74.3522 78.1565 69.5346 78.1565ZM34.803 58.1394C34.803 61.2809 37.3588 63.8367 40.5003 63.8367C43.6418 63.8367 46.1977 61.2809 46.1977 58.1394C46.1977 54.9984 43.6418 52.4427 40.5003 52.4427C37.3588 52.4427 34.803 54.9984 34.803 58.1394ZM43.9281 58.1394C43.9281 60.0294 42.3905 61.5672 40.5003 61.5672C38.6101 61.5672 37.0725 60.0296 37.0725 58.1394C37.0725 56.2497 38.6103 54.7122 40.5003 54.7122C42.3904 54.7122 43.9281 56.2497 43.9281 58.1394ZM19.832 51.5545C19.832 54.696 22.3878 57.2518 25.5294 57.2518C28.6709 57.2518 31.2267 54.696 31.2267 51.5545C31.2267 48.4135 28.6709 45.8578 25.5294 45.8578C22.3878 45.8578 19.832 48.4135 19.832 51.5545ZM28.957 51.5545C28.957 53.4445 27.4194 54.9823 25.5292 54.9823C23.639 54.9823 22.1014 53.4445 22.1014 51.5545C22.1014 49.6648 23.6392 48.1274 25.5292 48.1274C27.4192 48.1274 28.957 49.665 28.957 51.5545ZM11.4657 63.8367C14.6072 63.8367 17.1631 61.2809 17.1631 58.1394C17.1631 55.5993 15.4914 53.4428 13.1906 52.7104C12.625 51.444 12.3463 50.0039 12.3698 48.4198L12.37 48.4029L12.3685 32.157C12.3685 29.17 14.7987 26.7398 17.7857 26.7398H41.912C44.899 26.7398 47.3292 29.17 47.3292 32.157C47.3292 35.1442 44.899 37.5744 41.912 37.5744H25.6125C25.3405 37.5743 25.0776 37.672 24.8716 37.8496C24.6655 38.0272 24.5302 38.2728 24.4901 38.5419C24.45 38.8109 24.5078 39.0854 24.6531 39.3153C24.7984 39.5452 25.0215 39.7153 25.2817 39.7946C31.1873 41.5943 34.1437 45.0722 34.0686 50.1322C34.0642 50.4331 34.1794 50.7234 34.389 50.9394C34.5987 51.1553 34.8855 51.2791 35.1864 51.2836L35.2036 51.2838C35.5015 51.2837 35.7875 51.1664 35.9997 50.9572C36.212 50.7481 36.3334 50.4638 36.3378 50.1659C36.4037 45.7333 34.5272 42.2329 30.8569 39.8441H41.912C44.8447 39.8441 47.3981 38.1925 48.6935 35.7712C49.1589 35.8588 49.6324 35.9043 50.1102 35.9043C52.2868 35.9043 54.2537 34.9934 55.6535 33.5344C56.3049 37.1175 59.4462 39.8437 63.2143 39.8437C65.3048 39.8437 67.2035 39.0046 68.5906 37.6458C68.5757 41.9139 68.5623 46.4098 68.5623 51.8604C68.5622 52.0851 68.5516 52.3096 68.5305 52.5333C65.8667 53.0094 63.8378 55.3412 63.8378 58.1394C63.8378 61.2809 66.3936 63.8367 69.5351 63.8367C72.6766 63.8367 75.2324 61.2809 75.2324 58.1394C75.2324 55.4335 73.3353 53.1638 70.8015 52.5863C70.821 52.3448 70.8311 52.1026 70.832 51.8602L70.9015 19.8492C70.9015 15.6106 67.4533 12.1624 63.2148 12.1624C61.038 12.1624 59.0711 13.0735 57.6713 14.5323C57.0201 10.9492 53.8787 8.223 50.1105 8.223C47.9337 8.223 45.967 9.13389 44.567 10.5929C43.9158 7.00977 40.7743 4.28358 37.0061 4.28358C34.8293 4.28358 32.8625 5.19447 31.4626 6.65329C30.8112 3.07019 27.6699 0.343994 23.9016 0.343994C19.6631 0.343994 16.2147 3.79222 16.2147 8.03073V24.632C12.7271 25.3593 10.0988 28.4567 10.0988 32.157L10.1003 48.3947C10.0794 49.858 10.2749 51.2317 10.6805 52.4981C7.90937 52.882 5.76839 55.2647 5.76839 58.1394C5.76839 61.2809 8.32437 63.8367 11.4657 63.8367ZM69.5349 54.7122C71.425 54.7122 72.9627 56.2497 72.9627 58.1394C72.9627 60.0294 71.4251 61.5672 69.5349 61.5672C67.6447 61.5672 66.1071 60.0296 66.1071 58.1394C66.1071 56.2497 67.6449 54.7122 69.5349 54.7122ZM57.7971 19.8493C57.7971 16.8623 60.2273 14.4321 63.2144 14.4321C66.2015 14.4321 68.6317 16.8623 68.6317 19.8493C68.6317 24.7081 68.6209 28.8085 68.608 32.6655C68.351 35.4152 66.0301 37.5744 63.2143 37.5744C60.2271 37.5744 57.7969 35.1442 57.7969 32.1571V19.8493H57.7971ZM44.6928 24.278V15.9097C44.6928 12.9227 47.123 10.4925 50.1102 10.4925C53.0972 10.4925 55.5274 12.9227 55.5274 15.9097V28.2174C55.5274 31.2044 53.0972 33.6346 50.1102 33.6346C49.8925 33.6346 49.6767 33.6173 49.4624 33.5915C49.5506 33.1264 49.5987 32.6472 49.5987 32.157C49.5987 28.8856 47.5438 26.0868 44.6576 24.9789C44.679 24.746 44.6928 24.5122 44.6928 24.278ZM31.5885 11.9702C31.5885 8.98313 34.0187 6.55295 37.0059 6.55295C39.9931 6.55295 42.4233 8.98313 42.4233 11.9702V24.278C42.4233 24.3482 42.4199 24.4184 42.4171 24.4886C42.249 24.4769 42.0805 24.4708 41.912 24.4701H31.5885V11.9702ZM18.4843 8.03073C18.4843 5.04371 20.9144 2.61353 23.9016 2.61353C26.8888 2.61353 29.319 5.04371 29.319 8.03073V24.4701H18.4843V8.03073ZM11.4657 54.7122C13.3558 54.7122 14.8935 56.2497 14.8935 58.1394C14.8935 60.0294 13.3559 61.5672 11.4657 61.5672C9.57553 61.5672 8.03792 60.0296 8.03792 58.1394C8.03792 56.2497 9.57569 54.7122 11.4657 54.7122ZM49.774 51.5545C49.774 54.696 52.3298 57.2518 55.4713 57.2518C58.6128 57.2518 61.1686 54.696 61.1686 51.5545C61.1686 48.4135 58.6128 45.8578 55.4713 45.8578C52.3298 45.8578 49.774 48.4135 49.774 51.5545ZM58.8991 51.5545C58.8991 53.4445 57.3615 54.9823 55.4713 54.9823C53.5811 54.9823 52.0435 53.4445 52.0435 51.5545C52.0435 49.6648 53.5813 48.1274 55.4713 48.1274C57.3613 48.1274 58.8991 49.665 58.8991 51.5545Z" fill="#F57A00"/>
</svg>
