<svg width="506" height="828" viewBox="0 0 506 828" fill="none" xmlns="http://www.w3.org/2000/svg">
<g opacity="0.2" filter="url(#filter0_f_1511_4383)">
<circle cx="394.509" cy="433.5" r="246.5" fill="url(#paint0_linear_1511_4383)" fill-opacity="0.8"/>
</g>
<path d="M421.763 83.3088L420.464 84.9802C420.564 84.7931 420.655 84.6076 420.754 84.42C421.192 83.8004 421.631 83.18 422.079 82.5577C421.972 82.8082 421.87 83.058 421.763 83.3088ZM414.901 93.8706C414.547 94.3021 414.185 94.7371 413.835 95.167L413.938 94.9911L415.148 93.3647L414.901 93.8706ZM419.841 87.857C419.053 88.8065 418.297 89.7444 417.512 90.6924C417.759 90.202 418.025 89.7074 418.275 89.2157C418.983 88.2882 419.724 87.3494 420.451 86.4157C420.25 86.8956 420.039 87.3777 419.841 87.857ZM407.464 104.624C407.159 104.984 406.878 105.336 406.575 105.695L406.581 105.686C406.902 105.273 407.238 104.855 407.564 104.441L407.464 104.624ZM412.569 98.6772C411.837 99.5262 411.095 100.38 410.372 101.225C410.587 100.84 410.794 100.456 411.011 100.07C411.777 99.1085 412.503 98.1617 413.281 97.1964C413.047 97.6893 412.8 98.1848 412.569 98.6772ZM418.049 92.3546C416.996 93.5492 415.984 94.7287 414.95 95.917C415.245 95.304 415.544 94.6909 415.845 94.0766C416.813 92.89 417.8 91.6969 418.777 90.5073C418.532 91.1237 418.291 91.739 418.049 92.3546ZM504.17 569.563L503.898 569.148C503.867 568.831 503.832 568.516 503.799 568.2L504.011 568.585C504.066 568.911 504.116 569.237 504.17 569.563ZM399.32 115.871L398.998 116.244C399.135 116.075 399.263 115.908 399.399 115.739L399.32 115.871ZM404.827 109.558C404.123 110.346 403.441 111.125 402.755 111.906C402.939 111.6 403.117 111.295 403.303 110.988C403.987 110.157 404.689 109.32 405.374 108.49C405.186 108.847 405.012 109.201 404.827 109.558ZM410.46 103.292C409.434 104.433 408.401 105.576 407.384 106.713C407.719 106.087 408.07 105.456 408.409 104.828C409.355 103.708 410.329 102.578 411.303 101.446C411.021 102.062 410.738 102.678 410.46 103.292ZM416.317 96.8671C415.052 98.2317 413.805 99.5889 412.576 100.939C412.894 100.251 413.194 99.5677 413.516 98.879C414.726 97.4824 415.913 96.0931 417.125 94.6947C416.847 95.4202 416.589 96.1429 416.317 96.8671ZM504.75 573.175C504.567 572.934 504.376 572.694 504.19 572.452L504.069 571.058C504.221 571.293 504.377 571.526 504.527 571.761C504.602 572.232 504.678 572.704 504.75 573.175ZM506.352 575.305L505.999 574.831L505.861 573.882L506.122 574.296C506.199 574.633 506.279 574.968 506.352 575.305ZM507.814 577.277L507.767 577.211L507.703 576.912L507.814 577.277ZM396.484 120.815C395.824 121.552 395.152 122.295 394.485 123.035L395.192 121.937C395.803 121.218 396.449 120.486 397.077 119.761C396.877 120.113 396.683 120.463 396.484 120.815ZM402.326 114.432C401.317 115.51 400.301 116.591 399.329 117.653C399.629 117.132 399.958 116.604 400.263 116.082C401.262 114.933 402.244 113.791 403.244 112.64C402.942 113.237 402.625 113.837 402.326 114.432ZM408.428 107.891L404.664 111.925C405.035 111.205 405.396 110.487 405.772 109.765C406.924 108.465 408.121 107.148 409.306 105.836C409.003 106.523 408.725 107.205 408.428 107.891ZM414.676 101.335C413.214 102.843 411.745 104.355 410.342 105.84C410.683 105.063 411.054 104.28 411.405 103.501C412.801 101.961 414.159 100.436 415.575 98.8882C415.277 99.7032 414.966 100.521 414.676 101.335ZM505.258 576.687C504.991 576.384 504.728 576.081 504.458 575.779C504.416 575.212 504.377 574.644 504.332 574.078C504.562 574.381 504.784 574.686 505.014 574.99C505.094 575.555 505.18 576.12 505.258 576.687ZM507.076 578.754C506.872 578.517 506.662 578.282 506.456 578.045C506.394 577.584 506.33 577.124 506.264 576.663L506.788 577.378C506.884 577.837 506.982 578.295 507.076 578.754ZM508.807 580.791L508.408 580.321C508.345 580.003 508.284 579.683 508.218 579.365C508.32 579.508 508.424 579.649 508.525 579.791C508.617 580.125 508.714 580.457 508.807 580.791ZM510.4 582.704L510.315 582.6L510.217 582.222L510.235 582.249L510.4 582.704ZM387.662 132.257C387.048 132.918 386.42 133.583 385.818 134.239C385.962 134.025 386.115 133.808 386.262 133.594C386.927 132.83 387.574 132.073 388.243 131.307L387.662 132.257ZM393.684 125.791C392.702 126.839 391.743 127.879 390.765 128.926C391.083 128.411 391.381 127.902 391.703 127.386C392.644 126.327 393.622 125.252 394.585 124.184C394.29 124.718 393.975 125.258 393.684 125.791ZM400 119.179C398.76 120.459 397.511 121.743 396.314 123.005C396.68 122.346 397.055 121.685 397.429 121.023C398.633 119.696 399.799 118.385 401.026 117.049C400.676 117.761 400.343 118.469 400 119.179ZM406.475 112.461C404.997 113.983 403.557 115.49 402.094 117.006C402.482 116.219 402.874 115.432 403.271 114.642C404.648 113.153 406.057 111.65 407.462 110.15C407.138 110.919 406.792 111.693 406.475 112.461ZM413.189 105.688C411.549 107.326 409.892 108.972 408.315 110.584C408.663 109.757 409.019 108.928 409.376 108.099C410.913 106.468 412.463 104.832 414.04 103.184C413.75 104.02 413.47 104.854 413.189 105.688ZM505.71 580.129C505.374 579.8 505.033 579.472 504.694 579.143C504.652 578.49 504.604 577.837 504.558 577.184C504.862 577.529 505.167 577.873 505.468 578.218C505.551 578.855 505.63 579.493 505.71 580.129ZM507.743 582.155C507.45 581.861 507.158 581.567 506.864 581.273C506.794 580.71 506.721 580.149 506.649 579.586C506.912 579.891 507.169 580.197 507.429 580.502C507.536 581.053 507.638 581.604 507.743 582.155ZM509.696 584.142C509.461 583.899 509.231 583.655 508.994 583.412C508.91 582.956 508.82 582.5 508.734 582.045C508.94 582.292 509.139 582.541 509.344 582.789L509.696 584.142ZM511.548 586.069C511.399 585.911 511.244 585.755 511.095 585.598C511.013 585.271 510.925 584.946 510.841 584.619L511.212 585.077C511.323 585.407 511.438 585.737 511.548 586.069ZM513.274 587.926L513.137 587.778C513.093 587.639 513.051 587.499 513.005 587.36L513.065 587.436C513.133 587.6 513.206 587.762 513.274 587.926ZM378.46 143.774C377.839 144.43 377.273 145.063 376.662 145.715C376.759 145.577 376.847 145.443 376.945 145.305C377.565 144.607 378.208 143.901 378.833 143.201C378.711 143.391 378.581 143.584 378.46 143.774ZM384.626 137.344C383.696 138.312 382.755 139.286 381.84 140.248C382.156 139.764 382.464 139.283 382.784 138.799C383.703 137.786 384.596 136.785 385.536 135.764C385.221 136.294 384.937 136.815 384.626 137.344ZM391.165 130.54C389.875 131.863 388.654 133.156 387.384 134.471C387.78 133.806 388.204 133.133 388.607 132.466C389.784 131.193 390.985 129.911 392.176 128.633C391.834 129.27 391.498 129.905 391.165 130.54ZM397.738 123.915C396.296 125.363 394.845 126.815 393.44 128.248C393.844 127.494 394.223 126.748 394.636 125.991C396.021 124.522 397.428 123.042 398.856 121.555C398.484 122.341 398.101 123.131 397.738 123.915ZM404.693 116.925C403.012 118.596 401.394 120.239 399.741 121.896C400.135 121.061 400.545 120.221 400.951 119.383C402.509 117.759 404.082 116.13 405.659 114.498C405.332 115.309 405.012 116.117 404.693 116.925ZM411.768 110.016C409.959 111.775 408.141 113.538 406.384 115.275C406.733 114.404 407.065 113.538 407.424 112.667C409.104 110.946 410.846 109.198 412.589 107.45C412.307 108.307 412.041 109.161 411.768 110.016ZM506.122 583.559C505.707 583.204 505.299 582.846 504.88 582.492C504.843 581.782 504.809 581.072 504.768 580.362C505.141 580.729 505.51 581.096 505.88 581.464C505.965 582.162 506.044 582.861 506.122 583.559ZM508.351 585.487C507.982 585.162 507.606 584.838 507.233 584.514C507.164 583.882 507.101 583.249 507.029 582.617C507.357 582.949 507.693 583.278 508.018 583.61C508.135 584.235 508.243 584.862 508.351 585.487ZM510.512 587.41C510.192 587.122 509.867 586.836 509.544 586.549C509.451 586.002 509.361 585.453 509.265 584.907C509.553 585.206 509.844 585.505 510.129 585.805C510.262 586.338 510.383 586.875 510.512 587.41ZM512.594 589.315C512.334 589.075 512.076 588.834 511.813 588.595L511.494 587.252C511.722 587.498 511.949 587.745 512.177 587.99C512.318 588.431 512.457 588.873 512.594 589.315ZM514.575 591.164C514.396 590.995 514.223 590.823 514.043 590.654C513.945 590.332 513.84 590.011 513.739 589.689C513.89 589.857 514.037 590.026 514.186 590.193C514.315 590.517 514.448 590.84 514.575 591.164ZM516.402 592.916L516.221 592.742C516.164 592.593 516.11 592.442 516.053 592.293L516.161 592.416L516.402 592.916ZM368.693 155.73C368.201 156.248 367.702 156.77 367.207 157.289C367.351 157.092 367.49 156.897 367.635 156.7C368.114 156.172 368.612 155.636 369.103 155.104C368.961 155.315 368.833 155.52 368.693 155.73ZM375.222 148.948C374.302 149.882 373.395 150.811 372.503 151.732C372.772 151.341 373.046 150.948 373.315 150.556C374.223 149.575 375.142 148.588 376.048 147.609C375.767 148.057 375.499 148.501 375.222 148.948ZM381.77 142.31C380.544 143.553 379.308 144.8 378.092 146.038C378.521 145.359 378.961 144.675 379.398 143.993C380.535 142.786 381.726 141.556 382.908 140.33C382.53 140.99 382.141 141.653 381.77 142.31ZM388.628 135.422C387.172 136.864 385.749 138.291 384.327 139.717C384.742 138.997 385.146 138.281 385.568 137.559L389.754 133.199C389.37 133.943 389.004 134.681 388.628 135.422ZM395.675 128.504C394.015 130.127 392.357 131.751 390.727 133.362C391.174 132.496 391.654 131.619 392.112 130.75C393.62 129.202 395.208 127.62 396.779 126.046C396.407 126.866 396.037 127.686 395.675 128.504ZM402.956 121.422C401.126 123.182 399.332 124.926 397.545 126.668C397.929 125.819 398.295 124.974 398.69 124.122C400.438 122.36 402.167 120.607 403.933 118.837C403.599 119.701 403.28 120.56 402.956 121.422ZM410.423 114.309C408.448 116.183 406.478 118.055 404.545 119.909C404.897 118.987 405.281 118.058 405.646 117.133C407.458 115.332 409.368 113.489 411.255 111.655C410.978 112.54 410.688 113.427 410.423 114.309ZM501.473 583.29C476.682 565.536 446.296 549.56 415.324 533.282C301.693 473.564 180.313 409.724 300.465 238.466M506.49 586.958C506.013 586.6 505.525 586.245 505.043 585.888C505.011 585.124 504.978 584.36 504.939 583.596C505.377 583.971 505.814 584.346 506.248 584.722C506.331 585.466 506.416 586.211 506.49 586.958ZM508.916 588.809C508.471 588.467 508.024 588.125 507.574 587.784C507.508 587.084 507.435 586.386 507.36 585.687C507.766 586.043 508.165 586.403 508.567 586.762C508.686 587.443 508.807 588.125 508.916 588.809ZM511.272 590.645C510.867 590.325 510.468 590.004 510.059 589.686C509.962 589.064 509.863 588.442 509.76 587.821C510.126 588.151 510.485 588.483 510.847 588.814C510.991 589.424 511.134 590.034 511.272 590.645ZM513.553 592.462C513.203 592.179 512.851 591.898 512.499 591.616C512.383 591.084 512.275 590.55 512.153 590.019C512.465 590.308 512.781 590.594 513.088 590.883C513.248 591.408 513.398 591.936 513.553 592.462ZM515.757 594.271C515.474 594.036 515.184 593.802 514.899 593.567L514.516 592.252C514.768 592.494 515.023 592.735 515.272 592.978L515.757 594.271ZM517.865 596.053L517.269 595.544C517.153 595.224 517.03 594.906 516.91 594.587L517.418 595.092C517.565 595.413 517.72 595.732 517.865 596.053ZM519.777 597.7L519.553 597.501L519.361 597.062L519.526 597.234C519.612 597.389 519.692 597.545 519.777 597.7ZM358.756 167.581C358.322 168.025 357.878 168.474 357.45 168.915L357.538 168.801C358.045 168.252 358.539 167.708 359.047 167.159L358.756 167.581ZM365.341 160.85C364.406 161.807 363.473 162.764 362.53 163.723C362.851 163.272 363.199 162.809 363.523 162.356C364.388 161.438 365.29 160.503 366.175 159.575C365.896 160.001 365.616 160.426 365.341 160.85ZM371.998 154.175C370.85 155.307 369.688 156.444 368.578 157.559C368.935 157.02 369.269 156.49 369.631 155.951C370.841 154.687 372.013 153.44 373.235 152.171C372.831 152.836 372.396 153.512 371.998 154.175ZM379.076 147.176L374.756 151.449C375.22 150.689 375.694 149.926 376.166 149.163C377.491 147.803 378.866 146.422 380.228 145.045C379.833 145.76 379.465 146.464 379.076 147.176ZM386.252 140.199C384.603 141.781 382.954 143.362 381.357 144.92C381.796 144.127 382.258 143.328 382.708 142.532C384.322 140.902 385.879 139.297 387.517 137.658C387.095 138.505 386.665 139.355 386.252 140.199ZM393.689 133.069C391.873 134.807 390.067 136.538 388.267 138.268C388.703 137.39 389.13 136.515 389.577 135.633C391.265 133.957 393.015 132.252 394.754 130.552C394.387 131.395 394.046 132.23 393.689 133.069ZM401.321 125.864C399.333 127.721 397.357 129.572 395.426 131.404C395.812 130.512 396.226 129.612 396.623 128.716C398.524 126.858 400.389 125.016 402.323 123.143C401.989 124.05 401.644 124.959 401.321 125.864ZM409.21 118.516C407.088 120.485 404.984 122.445 402.891 124.402C403.225 123.479 403.564 122.556 403.911 121.631C405.886 119.726 407.935 117.789 409.973 115.856C409.71 116.744 409.462 117.63 409.21 118.516ZM506.797 590.355C506.252 589.997 505.71 589.638 505.161 589.282C505.138 588.477 505.108 587.673 505.077 586.87C505.582 587.249 506.087 587.628 506.587 588.008C506.658 588.79 506.729 589.573 506.797 590.355ZM509.406 592.093C508.894 591.748 508.383 591.402 507.866 591.058C507.804 590.316 507.736 589.575 507.668 588.833C508.139 589.194 508.616 589.553 509.082 589.915C509.191 590.641 509.302 591.367 509.406 592.093ZM511.961 593.832C511.489 593.505 511.008 593.182 510.532 592.858C510.436 592.178 510.331 591.5 510.228 590.822C510.663 591.166 511.102 591.508 511.532 591.854C511.677 592.513 511.825 593.171 511.961 593.832ZM514.45 595.582C514.02 595.277 513.586 594.973 513.152 594.669C513.029 594.06 512.897 593.452 512.765 592.845C513.162 593.166 513.553 593.49 513.946 593.813C514.117 594.402 514.287 594.992 514.45 595.582ZM516.856 597.32C516.475 597.041 516.099 596.762 515.714 596.484C515.573 595.962 515.438 595.438 515.292 594.917C515.641 595.21 515.981 595.505 516.327 595.799C516.509 596.304 516.678 596.813 516.856 597.32ZM519.177 599.035C518.864 598.8 518.554 598.565 518.24 598.332C518.094 597.904 517.942 597.478 517.795 597.05C518.07 597.289 518.348 597.526 518.622 597.764C518.807 598.188 518.995 598.61 519.177 599.035ZM521.384 600.713C521.167 600.546 520.947 600.38 520.729 600.214C520.598 599.903 520.467 599.594 520.332 599.284C520.521 599.453 520.712 599.619 520.897 599.787C521.061 600.095 521.223 600.404 521.384 600.713ZM523.411 602.305L523.144 602.095L522.917 601.642L523.117 601.829L523.411 602.305ZM348.567 179.438L348.479 179.527L348.58 179.42L348.567 179.438ZM355.018 172.997C354.187 173.828 353.341 174.665 352.518 175.492C352.774 175.145 353.011 174.805 353.268 174.457C354.189 173.492 355.058 172.551 355.996 171.579C355.676 172.05 355.335 172.528 355.018 172.997ZM362.042 165.985C360.849 167.164 359.715 168.317 358.528 169.494C358.918 168.927 359.304 168.362 359.7 167.794C360.793 166.669 361.915 165.531 363.021 164.401C362.681 164.934 362.377 165.454 362.042 165.985ZM369.133 159.107C367.698 160.489 366.254 161.875 364.857 163.239C365.318 162.523 365.808 161.795 366.275 161.076C367.656 159.678 369.014 158.291 370.425 156.88C369.987 157.625 369.563 158.365 369.133 159.107ZM376.453 152.028C374.813 153.606 373.21 155.167 371.573 156.744C372.038 155.957 372.467 155.183 372.942 154.392C374.52 152.82 376.133 151.233 377.74 149.648C377.315 150.439 376.867 151.239 376.453 152.028ZM384.025 144.881C382.219 146.569 380.398 148.265 378.651 149.925C379.102 149.083 379.56 148.239 380.02 147.393C381.741 145.706 383.454 144.022 385.214 142.317C384.803 143.176 384.426 144.025 384.025 144.881ZM391.802 137.585C389.816 139.441 387.861 141.284 385.884 143.137C386.316 142.231 386.758 141.322 387.202 140.412C389.077 138.601 390.991 136.774 392.905 134.945C392.539 135.824 392.157 136.708 391.802 137.585ZM399.823 130.213C397.701 132.143 395.563 134.079 393.514 135.977C393.887 135.079 394.259 134.18 394.642 133.279C396.658 131.361 398.679 129.44 400.741 127.501C400.424 128.407 400.128 129.308 399.823 130.213ZM408.055 122.701C405.79 124.76 403.563 126.801 401.31 128.854C401.631 127.928 401.943 127.003 402.274 126.073C404.413 124.068 406.593 122.043 408.78 120.016C408.531 120.911 408.294 121.806 408.055 122.701ZM507.065 593.747C506.459 593.396 505.846 593.048 505.234 592.7C505.219 591.865 505.211 591.029 505.191 590.194C505.756 590.563 506.322 590.933 506.881 591.303C506.948 592.117 507.006 592.932 507.065 593.747ZM509.856 595.376C509.281 595.035 508.695 594.698 508.115 594.359C508.059 593.578 508.011 592.796 507.951 592.017C508.491 592.379 509.023 592.744 509.559 593.109C509.664 593.863 509.759 594.62 509.856 595.376ZM512.592 597.025C512.047 596.693 511.502 596.361 510.951 596.031C510.859 595.308 510.768 594.586 510.671 593.864C511.181 594.215 511.681 594.57 512.186 594.922C512.325 595.622 512.46 596.323 512.592 597.025ZM515.275 598.679C514.765 598.36 514.259 598.038 513.744 597.72C513.62 597.063 513.49 596.407 513.362 595.751C513.829 596.082 514.298 596.413 514.759 596.746C514.934 597.39 515.11 598.033 515.275 598.679ZM517.878 600.322C517.421 600.028 516.956 599.735 516.493 599.443C516.344 598.852 516.188 598.263 516.031 597.674C516.454 597.984 516.883 598.291 517.303 598.603C517.498 599.175 517.69 599.748 517.878 600.322ZM520.4 601.965C519.997 601.699 519.586 601.436 519.181 601.171C519.018 600.664 518.861 600.156 518.694 599.65C519.064 599.929 519.431 600.209 519.798 600.489C520.002 600.98 520.2 601.473 520.4 601.965ZM522.849 603.614C522.511 603.383 522.175 603.153 521.833 602.923C521.664 602.501 521.488 602.08 521.317 601.658C521.622 601.897 521.922 602.139 522.225 602.378C522.433 602.79 522.646 603.2 522.849 603.614ZM525.144 605.194C524.9 605.024 524.662 604.85 524.417 604.68C524.274 604.38 524.138 604.078 523.991 603.778C524.208 603.953 524.415 604.13 524.63 604.305C524.805 604.6 524.971 604.898 525.144 605.194ZM527.271 606.702L526.971 606.489C526.882 606.333 526.79 606.177 526.7 606.021C526.775 606.084 526.852 606.146 526.928 606.209L527.271 606.702ZM337.694 191.901L336.525 193.083L336.596 192.992C337.001 192.568 337.433 192.13 337.845 191.702L337.694 191.901ZM344.541 185.059C343.795 185.786 343.035 186.52 342.314 187.235L342.825 186.56C343.611 185.748 344.403 184.933 345.18 184.126C344.96 184.44 344.761 184.745 344.541 185.059ZM351.605 178.157C350.456 179.281 349.294 180.412 348.148 181.535C348.591 180.914 349.055 180.285 349.503 179.661C350.545 178.605 351.64 177.524 352.72 176.449C352.341 177.022 351.98 177.586 351.605 178.157ZM358.892 171.081C357.436 172.475 356.033 173.845 354.604 175.227C355.05 174.56 355.501 173.891 355.953 173.222C357.356 171.821 358.766 170.416 360.169 169.015C359.743 169.704 359.311 170.395 358.892 171.081ZM366.265 164.097C364.666 165.608 363.059 167.123 361.489 168.621C361.988 167.816 362.47 167.018 362.98 166.209C364.497 164.717 366.064 163.202 367.634 161.686C367.176 162.49 366.713 163.296 366.265 164.097ZM374.049 156.741C372.188 158.48 370.411 160.182 368.573 161.91C369.061 161.053 369.577 160.187 370.076 159.326C371.808 157.648 373.546 155.967 375.291 154.284C374.866 155.106 374.462 155.921 374.049 156.741ZM381.86 149.553C379.899 151.349 377.933 153.149 376.025 154.922C376.483 154.031 376.924 153.146 377.394 152.251C379.266 150.463 381.188 148.653 383.118 146.839C382.703 147.742 382.262 148.653 381.86 149.553ZM390.068 141.998C387.907 143.971 385.832 145.903 383.692 147.867C384.112 146.945 384.545 146.02 384.977 145.095C387.004 143.188 389.036 141.279 391.089 139.36C390.737 140.243 390.409 141.119 390.068 141.998ZM398.379 134.547C396.12 136.561 393.849 138.582 391.661 140.563C392.023 139.642 392.377 138.723 392.753 137.799C394.895 135.81 397.086 133.798 399.291 131.78C398.983 132.703 398.674 133.626 398.379 134.547ZM406.973 126.851C404.565 128.997 402.218 131.116 399.817 133.258C400.125 132.316 400.46 131.368 400.778 130.423C403.067 128.329 405.362 126.232 407.685 124.123C407.447 125.032 407.199 125.943 406.973 126.851ZM507.298 597.149C506.627 596.81 505.953 596.473 505.277 596.137C505.272 595.267 505.262 594.399 505.248 593.531C505.878 593.892 506.501 594.257 507.126 594.621C507.187 595.463 507.247 596.306 507.298 597.149ZM510.265 598.676C509.62 598.341 508.98 598.004 508.329 597.671C508.284 596.858 508.231 596.046 508.176 595.234C508.777 595.587 509.38 595.941 509.974 596.297C510.075 597.089 510.173 597.882 510.265 598.676ZM513.175 600.209C512.563 599.882 511.951 599.555 511.333 599.231C511.249 598.473 511.163 597.716 511.07 596.959C511.641 597.304 512.217 597.647 512.781 597.994C512.918 598.731 513.046 599.469 513.175 600.209ZM516.031 601.747C515.457 601.433 514.872 601.122 514.293 600.809C514.174 600.111 514.059 599.41 513.934 598.713C514.472 599.047 515.007 599.382 515.54 599.718C515.707 600.394 515.869 601.071 516.031 601.747ZM518.84 603.318C518.301 603.013 517.755 602.71 517.211 602.407C517.061 601.763 516.901 601.121 516.745 600.479C517.25 600.802 517.743 601.13 518.242 601.455C518.444 602.076 518.648 602.695 518.84 603.318ZM521.548 604.874C521.058 604.588 520.572 604.301 520.075 604.017C519.903 603.445 519.725 602.873 519.543 602.303C520.002 602.607 520.457 602.912 520.911 603.217C521.129 603.768 521.337 604.322 521.548 604.874ZM524.186 606.429C523.751 606.169 523.319 605.908 522.881 605.649C522.696 605.157 522.511 604.666 522.323 604.176C522.715 604.443 523.112 604.707 523.499 604.975C523.728 605.46 523.961 605.943 524.186 606.429ZM526.725 607.968C526.374 607.752 526.013 607.539 525.661 607.323C525.475 606.914 525.281 606.508 525.089 606.101C525.415 606.332 525.745 606.563 526.069 606.795C526.29 607.185 526.508 607.577 526.725 607.968ZM529.135 609.49L528.355 608.996C528.196 608.701 528.037 608.406 527.876 608.112L528.564 608.621L529.135 609.49ZM531.381 610.943L531.022 610.704L530.74 610.261L531.032 610.488L531.381 610.943ZM333.814 197.222C333.056 197.958 332.305 198.69 331.566 199.417L332.155 198.663C332.895 197.909 333.665 197.14 334.417 196.38C334.212 196.663 334.018 196.941 333.814 197.222ZM340.93 190.329C339.762 191.463 338.58 192.604 337.411 193.738C337.798 193.212 338.223 192.67 338.614 192.142C339.787 190.965 340.918 189.807 342.096 188.626C341.706 189.194 341.316 189.763 340.93 190.329ZM348.207 183.362C346.852 184.641 345.495 185.921 344.179 187.181C344.623 186.541 345.04 185.912 345.49 185.27C346.815 183.96 348.191 182.628 349.553 181.302C349.111 181.985 348.64 182.681 348.207 183.362ZM355.864 176.127C354.25 177.649 352.646 179.167 351.04 180.685C351.537 179.917 352.042 179.147 352.548 178.375C354.108 176.858 355.628 175.358 357.193 173.838C356.732 174.608 356.316 175.361 355.864 176.127ZM363.651 168.894C361.83 170.569 359.996 172.249 358.231 173.897C358.745 173.04 359.305 172.164 359.831 171.302C361.517 169.685 363.272 168.037 365.013 166.395C364.553 167.23 364.1 168.063 363.651 168.894ZM371.652 161.51C369.666 163.328 367.753 165.112 365.795 166.917C366.272 166.047 366.725 165.185 367.214 164.311C369.144 162.486 371.043 160.677 372.982 158.849C372.541 159.735 372.082 160.628 371.652 161.51ZM379.913 154.053C377.782 155.97 375.646 157.888 373.567 159.78C374.03 158.843 374.52 157.897 374.995 156.955C376.966 155.118 379.026 153.239 381.067 151.37C380.673 152.268 380.297 153.159 379.913 154.053ZM388.36 146.47C386.084 148.497 383.856 150.502 381.624 152.509C382.023 151.593 382.4 150.685 382.811 149.766C385.016 147.739 387.194 145.724 389.414 143.691C389.063 144.617 388.699 145.547 388.36 146.47ZM397.068 138.776C394.661 140.895 392.263 143.008 389.905 145.104C390.266 144.143 390.651 143.174 391.025 142.209C393.265 140.174 395.601 138.096 397.921 136.025C397.632 136.943 397.344 137.861 397.068 138.776ZM405.99 130.973C403.461 133.17 400.948 135.36 398.48 137.528C398.765 136.604 399.044 135.68 399.34 134.753C401.778 132.573 404.183 130.408 406.638 128.219C406.412 129.139 406.204 130.056 405.99 130.973ZM507.468 600.555C506.737 600.231 506.008 599.906 505.271 599.584C505.278 598.695 505.277 597.807 505.276 596.919C505.965 597.263 506.656 597.607 507.337 597.954C507.383 598.82 507.428 599.687 507.468 600.555ZM510.618 601.969C509.915 601.648 509.206 601.33 508.496 601.013C508.46 600.171 508.415 599.33 508.37 598.49C509.034 598.832 509.696 599.175 510.354 599.52C510.446 600.335 510.537 601.151 510.618 601.969ZM513.711 603.393C513.04 603.079 512.358 602.77 511.679 602.458C511.603 601.663 511.513 600.871 511.424 600.079C512.065 600.418 512.695 600.761 513.329 601.103C513.459 601.865 513.59 602.628 513.711 603.393ZM516.738 604.839C516.096 604.528 515.451 604.219 514.801 603.912C514.687 603.175 514.569 602.438 514.446 601.704C515.057 602.036 515.66 602.372 516.263 602.707C516.428 603.416 516.582 604.127 516.738 604.839ZM519.717 606.297C519.103 605.992 518.496 605.685 517.876 605.382C517.729 604.709 517.588 604.035 517.437 603.363C518.005 603.682 518.575 603.999 519.136 604.32C519.333 604.979 519.527 605.637 519.717 606.297ZM522.625 607.76C522.06 607.47 521.489 607.183 520.92 606.895C520.743 606.275 520.558 605.658 520.374 605.04C520.904 605.347 521.437 605.652 521.96 605.961C522.185 606.559 522.41 607.158 522.625 607.76ZM525.442 609.22C524.93 608.95 524.407 608.684 523.89 608.415C523.695 607.864 523.503 607.312 523.301 606.762C523.786 607.053 524.267 607.344 524.746 607.637C524.982 608.163 525.21 608.692 525.442 609.22ZM528.211 610.712C527.749 610.46 527.286 610.209 526.82 609.959C526.612 609.476 526.396 608.994 526.184 608.513C526.614 608.78 527.032 609.051 527.457 609.32C527.71 609.783 527.966 610.246 528.211 610.712ZM530.831 612.164C530.447 611.948 530.072 611.73 529.685 611.514C529.486 611.128 529.294 610.739 529.091 610.354C529.441 610.58 529.786 610.806 530.133 611.033C530.371 611.409 530.598 611.788 530.831 612.164ZM533.349 613.597C533.072 613.435 532.787 613.276 532.508 613.114C532.334 612.828 532.153 612.543 531.979 612.256C532.224 612.421 532.476 612.582 532.72 612.748C532.928 613.031 533.144 613.312 533.349 613.597ZM535.646 614.961L535.258 614.731L534.959 614.301L535.285 614.527C535.406 614.671 535.525 614.816 535.646 614.961ZM322.728 209.59C321.982 210.306 321.221 211.029 320.494 211.737C320.731 211.441 320.984 211.137 321.221 210.84C321.942 210.113 322.7 209.369 323.44 208.633L322.728 209.59ZM329.901 202.691L326.611 205.854C326.977 205.369 327.316 204.897 327.686 204.41C328.825 203.279 329.951 202.154 331.096 201.02C330.704 201.575 330.288 202.138 329.901 202.691ZM337.344 195.637C336.016 196.881 334.674 198.13 333.382 199.358C333.851 198.701 334.318 198.045 334.794 197.385C336.06 196.148 337.367 194.891 338.661 193.641C338.213 194.31 337.784 194.971 337.344 195.637ZM345.128 188.327C343.483 189.862 341.889 191.372 340.259 192.899C340.793 192.105 341.361 191.298 341.904 190.5C343.453 189.008 344.967 187.531 346.543 186.027C346.061 186.798 345.603 187.56 345.128 188.327ZM352.96 181.124C351.172 182.76 349.377 184.401 347.629 186.018C348.148 185.192 348.645 184.372 349.174 183.541C350.913 181.889 352.683 180.223 354.451 178.558C353.955 179.413 353.444 180.273 352.96 181.124ZM361.103 173.68C359.126 175.472 357.199 177.24 355.255 179.017C355.776 178.117 356.292 177.22 356.825 176.315C358.683 174.575 360.567 172.823 362.471 171.06C362.006 171.937 361.557 172.808 361.103 173.68ZM369.457 166.174C367.315 168.093 365.18 170.008 363.075 171.91C363.567 170.975 364.106 170.024 364.613 169.085C366.651 167.2 368.694 165.314 370.754 163.42C370.313 164.341 369.884 165.258 369.457 166.174ZM377.994 158.58C375.733 160.577 373.491 162.564 371.281 164.536C371.729 163.591 372.152 162.654 372.613 161.705C374.748 159.756 376.964 157.77 379.166 155.79C378.773 156.721 378.375 157.653 377.994 158.58ZM386.817 150.813C384.401 152.931 382.018 155.034 379.632 157.139C380.031 156.179 380.463 155.21 380.877 154.247C383.19 152.163 385.466 150.097 387.818 147.995C387.477 148.936 387.145 149.875 386.817 150.813ZM395.829 143C393.306 145.172 390.776 147.348 388.323 149.487C388.659 148.546 388.979 147.609 389.326 146.664C391.717 144.536 394.168 142.378 396.62 140.221C396.344 141.15 396.094 142.073 395.829 143ZM405.07 135.032C402.404 137.316 399.815 139.564 397.18 141.832C397.456 140.882 397.743 139.928 398.031 138.974C400.561 136.75 403.106 134.52 405.686 132.272C405.475 133.193 405.27 134.113 405.07 135.032ZM507.593 603.968C506.807 603.663 506.013 603.362 505.219 603.061C505.236 602.149 505.26 601.237 505.271 600.327C506.02 600.656 506.763 600.988 507.506 601.32C507.541 602.201 507.566 603.085 507.593 603.968ZM510.913 605.272C510.151 604.969 509.382 604.668 508.612 604.368C508.586 603.504 508.567 602.639 508.533 601.776C509.261 602.104 509.978 602.436 510.698 602.766C510.776 603.6 510.843 604.436 510.913 605.272ZM514.185 606.598C513.445 606.295 512.706 605.99 511.959 605.689C511.892 604.875 511.821 604.062 511.748 603.249C512.446 603.573 513.143 603.897 513.834 604.223C513.954 605.014 514.074 605.805 514.185 606.598ZM517.394 607.934C516.687 607.635 515.98 607.335 515.263 607.039C515.159 606.272 515.041 605.508 514.924 604.745C515.593 605.063 516.265 605.38 516.926 605.701C517.086 606.444 517.245 607.188 517.394 607.934ZM520.536 609.277C519.865 608.984 519.182 608.695 518.503 608.405C518.362 607.691 518.218 606.977 518.067 606.266C518.711 606.582 519.351 606.901 519.987 607.22C520.178 607.904 520.355 608.591 520.536 609.277ZM523.629 610.646C522.992 610.359 522.343 610.075 521.698 609.791C521.526 609.131 521.352 608.471 521.172 607.812C521.778 608.12 522.368 608.433 522.967 608.743C523.19 609.377 523.417 610.009 523.629 610.646ZM526.633 612.023C526.039 611.747 525.447 611.471 524.849 611.198C524.65 610.596 524.44 609.997 524.231 609.398C524.797 609.695 525.354 609.994 525.913 610.293C526.16 610.868 526.395 611.446 526.633 612.023ZM529.576 613.412C529.026 613.147 528.481 612.882 527.924 612.619C527.71 612.09 527.499 611.56 527.279 611.033C527.782 611.306 528.289 611.578 528.787 611.853C529.05 612.373 529.319 612.89 529.576 613.412ZM532.408 614.787C531.937 614.552 531.454 614.321 530.977 614.089C530.752 613.624 530.517 613.162 530.283 612.7C530.734 612.954 531.186 613.207 531.631 613.463C531.896 613.903 532.151 614.345 532.408 614.787ZM535.154 616.177C534.752 615.97 534.344 615.767 533.939 615.561C533.722 615.183 533.505 614.805 533.286 614.428C533.657 614.646 534.025 614.865 534.394 615.085C534.646 615.449 534.904 615.811 535.154 616.177ZM537.747 617.536C537.453 617.379 537.159 617.222 536.863 617.066C536.678 616.789 536.494 616.512 536.307 616.236C536.584 616.406 536.855 616.579 537.131 616.75C537.342 617.01 537.54 617.275 537.747 617.536ZM540.139 618.821C539.991 618.74 539.849 618.657 539.7 618.576C539.59 618.433 539.476 618.291 539.366 618.148C539.492 618.23 539.614 618.313 539.741 618.394C539.873 618.537 540.008 618.678 540.139 618.821ZM311.3 222.142C310.597 222.816 309.878 223.497 309.184 224.167C309.389 223.914 309.575 223.67 309.78 223.418C310.507 222.692 311.27 221.95 312.013 221.217C311.778 221.524 311.532 221.836 311.3 222.142ZM318.618 215.138C317.574 216.13 316.572 217.101 315.535 218.089C315.907 217.609 316.268 217.133 316.643 216.651C317.687 215.626 318.704 214.613 319.754 213.584C319.379 214.101 318.991 214.623 318.618 215.138ZM326.254 207.976C324.909 209.232 323.554 210.492 322.231 211.737C322.721 211.071 323.231 210.396 323.729 209.726C324.988 208.506 326.285 207.269 327.564 206.039C327.116 206.69 326.696 207.328 326.254 207.976ZM334.073 200.696C332.431 202.21 330.836 203.702 329.221 205.203C329.76 204.425 330.329 203.635 330.879 202.853C332.432 201.369 333.978 199.89 335.563 198.392C335.062 199.162 334.563 199.931 334.073 200.696ZM341.956 193.486C340.209 195.082 338.458 196.679 336.731 198.265C337.268 197.441 337.778 196.627 338.327 195.798C340.056 194.17 341.803 192.532 343.549 190.897C343.027 191.756 342.466 192.631 341.956 193.486ZM350.26 185.968C348.294 187.732 346.343 189.489 344.423 191.229C344.972 190.324 345.54 189.411 346.102 188.5C347.922 186.809 349.795 185.094 351.666 183.379C351.178 184.249 350.735 185.103 350.26 185.968ZM358.701 178.407C356.564 180.315 354.454 182.21 352.338 184.108C352.856 183.178 353.391 182.242 353.925 181.308C355.991 179.413 358.018 177.536 360.114 175.628C359.638 176.556 359.163 177.484 358.701 178.407ZM367.334 170.797C365.088 172.763 362.83 174.735 360.644 176.672C361.119 175.736 361.584 174.804 362.072 173.862C364.211 171.926 366.406 169.964 368.596 168.002C368.169 168.937 367.749 169.868 367.334 170.797ZM376.246 162.988C373.807 165.109 371.438 167.197 369.039 169.3C369.478 168.329 369.964 167.342 370.419 166.365C372.718 164.31 375.016 162.256 377.36 160.179C376.983 161.117 376.611 162.054 376.246 162.988ZM385.338 155.152C382.815 157.319 380.301 159.481 377.831 161.623C378.208 160.671 378.571 159.724 378.963 158.768C381.38 156.632 383.818 154.486 386.279 152.33C385.954 153.273 385.649 154.212 385.338 155.152ZM394.65 147.188C391.993 149.446 389.371 151.687 386.768 153.919C387.095 152.951 387.444 151.977 387.784 151.006C390.299 148.808 392.867 146.586 395.447 144.358C395.184 145.301 394.902 146.248 394.65 147.188ZM404.221 139.087C401.449 141.422 398.721 143.737 395.994 146.051C396.254 145.1 396.527 144.146 396.799 143.192C399.469 140.886 402.102 138.599 404.81 136.276C404.61 137.214 404.409 138.152 404.221 139.087ZM507.68 607.402C506.834 607.117 505.986 606.834 505.133 606.553C505.162 605.621 505.184 604.691 505.205 603.762C506.011 604.071 506.816 604.381 507.615 604.693C507.642 605.595 507.665 606.497 507.68 607.402ZM511.166 608.596C510.341 608.31 509.522 608.021 508.69 607.738C508.676 606.856 508.657 605.974 508.633 605.093C509.416 605.401 510.203 605.707 510.977 606.018C511.045 606.876 511.108 607.736 511.166 608.596ZM514.6 609.805C513.803 609.52 513.004 609.235 512.198 608.953C512.142 608.116 512.087 607.279 512.023 606.444C512.784 606.753 513.545 607.061 514.297 607.372C514.405 608.181 514.5 608.994 514.6 609.805ZM517.987 611.029C517.219 610.746 516.437 610.467 515.66 610.187C515.565 609.395 515.468 608.603 515.366 607.814C516.099 608.12 516.823 608.43 517.549 608.74C517.699 609.502 517.848 610.264 517.987 611.029ZM521.304 612.276C520.568 611.996 519.826 611.718 519.083 611.441C518.95 610.695 518.802 609.952 518.657 609.21C519.364 609.515 520.064 609.824 520.763 610.132C520.949 610.845 521.127 611.56 521.304 612.276ZM524.559 613.539C523.849 613.26 523.146 612.98 522.428 612.703C522.263 612.016 522.1 611.329 521.925 610.645C522.594 610.943 523.263 611.24 523.924 611.541C524.14 612.206 524.351 612.872 524.559 613.539ZM527.751 614.816C527.082 614.545 526.415 614.272 525.739 614.003C525.543 613.367 525.339 612.733 525.134 612.1C525.763 612.389 526.396 612.677 527.018 612.969C527.267 613.584 527.514 614.199 527.751 614.816ZM530.857 616.095C530.24 615.835 529.61 615.58 528.986 615.323C528.766 614.745 528.547 614.166 528.319 613.59C528.91 613.872 529.496 614.156 530.081 614.441C530.344 614.991 530.6 615.543 530.857 616.095ZM533.902 617.406C533.334 617.159 532.76 616.913 532.186 616.668C531.949 616.147 531.7 615.629 531.456 615.11C531.998 615.379 532.527 615.652 533.063 615.923C533.346 616.417 533.627 616.91 533.902 617.406ZM536.835 618.714C536.326 618.484 535.824 618.253 535.31 618.025C535.071 617.583 534.839 617.137 534.594 616.698C535.065 616.941 535.531 617.187 535.999 617.432C536.28 617.858 536.558 618.285 536.835 618.714ZM539.665 620.015C539.243 619.817 538.824 619.618 538.399 619.422C538.168 619.055 537.924 618.693 537.687 618.33C538.076 618.538 538.473 618.743 538.857 618.953C539.129 619.306 539.399 619.66 539.665 620.015ZM542.332 621.284C542.025 621.135 541.709 620.989 541.4 620.84C541.206 620.578 541.017 620.314 540.821 620.053C541.102 620.21 541.387 620.366 541.665 620.524C541.889 620.778 542.112 621.03 542.332 621.284ZM544.833 622.53L544.372 622.299C544.263 622.169 544.158 622.037 544.047 621.907L544.462 622.152C544.589 622.277 544.706 622.404 544.833 622.53ZM299.572 234.838C298.993 235.392 298.401 235.952 297.822 236.507C298.015 236.272 298.201 236.042 298.397 235.807C298.997 235.214 299.62 234.609 300.227 234.013C300.014 234.285 299.783 234.566 299.572 234.838ZM307.23 227.567C306.203 228.53 305.199 229.479 304.191 230.432C304.559 229.969 304.931 229.503 305.302 229.039C306.315 228.051 307.279 227.088 308.307 226.093C307.937 226.59 307.596 227.073 307.23 227.567ZM314.897 220.419C313.524 221.701 312.139 222.989 310.768 224.269C311.268 223.605 311.815 222.919 312.323 222.252C313.623 221.004 314.948 219.744 316.255 218.492C315.797 219.137 315.349 219.778 314.897 220.419ZM322.705 213.221C321.157 214.633 319.603 216.047 318.095 217.439C318.615 216.712 319.094 216.003 319.622 215.272C321.149 213.827 322.71 212.365 324.277 210.899C323.758 211.671 323.215 212.453 322.705 213.221ZM330.815 205.822C329.044 207.431 327.307 209.023 325.551 210.625C326.11 209.795 326.668 208.966 327.239 208.132C328.946 206.536 330.634 204.951 332.358 203.348C331.835 204.176 331.327 204.999 330.815 205.822ZM339.142 198.355C337.177 200.107 335.204 201.862 333.285 203.591C333.855 202.688 334.471 201.766 335.053 200.858C336.885 199.169 338.77 197.455 340.647 195.745C340.132 196.62 339.643 197.485 339.142 198.355ZM347.646 190.778C345.521 192.658 343.449 194.511 341.36 196.373C341.892 195.464 342.385 194.571 342.93 193.657C344.994 191.779 347.049 189.904 349.153 188.006C348.654 188.93 348.133 189.86 347.646 190.778ZM356.403 183.101C354.148 185.073 351.898 187.041 349.682 188.994C350.19 188.048 350.706 187.099 351.229 186.147C353.374 184.218 355.543 182.278 357.723 180.333C357.266 181.262 356.846 182.178 356.403 183.101ZM365.369 175.313C362.956 177.394 360.562 179.467 358.204 181.522C358.677 180.55 359.18 179.567 359.67 178.59C361.946 176.568 364.27 174.523 366.605 172.473C366.187 173.421 365.772 174.369 365.369 175.313ZM374.561 167.399C372.032 169.567 369.541 171.717 367.044 173.87C367.462 172.908 367.869 171.95 368.301 170.983C370.742 168.841 373.149 166.713 375.624 164.554C375.258 165.506 374.913 166.451 374.561 167.399ZM383.952 159.432C381.307 161.662 378.647 163.901 376.073 166.098C376.438 165.128 376.834 164.15 377.214 163.176C379.724 160.997 382.303 158.784 384.878 156.574C384.568 157.527 384.248 158.482 383.952 159.432ZM393.61 151.283C390.829 153.616 388.114 155.917 385.373 158.229C385.68 157.268 385.99 156.306 386.309 155.341C388.965 153.062 391.614 150.785 394.318 148.482C394.073 149.418 393.844 150.35 393.61 151.283ZM403.457 143.092C400.579 145.477 397.716 147.854 394.903 150.208C395.144 149.265 395.368 148.326 395.619 147.381C398.375 145.039 401.158 142.684 403.969 140.315C403.787 141.243 403.629 142.166 403.457 143.092ZM507.715 610.85C506.81 610.587 505.907 610.323 504.995 610.062C505.038 609.116 505.074 608.172 505.106 607.228C505.971 607.514 506.835 607.799 507.688 608.088C507.701 609.008 507.713 609.928 507.715 610.85ZM511.375 611.932C510.496 611.668 509.61 611.405 508.723 611.145C508.722 610.24 508.71 609.337 508.696 608.434C509.539 608.723 510.375 609.014 511.211 609.305C511.27 610.179 511.33 611.054 511.375 611.932ZM514.969 613.024C514.12 612.76 513.254 612.503 512.396 612.242C512.353 611.38 512.299 610.521 512.243 609.662C513.068 609.952 513.877 610.248 514.692 610.541C514.79 611.367 514.882 612.195 514.969 613.024ZM518.515 614.148C517.685 613.882 516.851 613.617 516.013 613.354C515.931 612.543 515.847 611.732 515.752 610.923C516.547 611.212 517.338 611.503 518.126 611.796C518.261 612.578 518.388 613.363 518.515 614.148ZM522.016 615.292C521.207 615.024 520.405 614.753 519.587 614.488C519.465 613.725 519.337 612.964 519.209 612.203C519.97 612.489 520.738 612.773 521.49 613.063C521.67 613.805 521.851 614.546 522.016 615.292ZM525.429 616.441C524.661 616.177 523.89 615.916 523.114 615.656C522.956 614.937 522.789 614.22 522.619 613.505C523.358 613.792 524.093 614.08 524.823 614.37C525.032 615.058 525.229 615.75 525.429 616.441ZM528.794 617.61C528.062 617.349 527.313 617.095 526.572 616.838C526.381 616.171 526.195 615.502 525.997 614.837C526.698 615.12 527.386 615.406 528.078 615.691C528.319 616.33 528.564 616.968 528.794 617.61ZM532.075 618.805C531.385 618.551 530.691 618.298 529.992 618.046C529.773 617.428 529.542 616.812 529.311 616.198C529.979 616.477 530.64 616.761 531.301 617.043C531.567 617.628 531.819 618.217 532.075 618.805ZM535.303 620.02C534.646 619.768 533.995 619.514 533.33 619.265C533.094 618.712 532.859 618.158 532.615 617.608C533.223 617.872 533.834 618.136 534.436 618.403C534.727 618.941 535.022 619.478 535.303 620.02ZM538.412 621.23C537.822 620.995 537.231 620.762 536.635 620.53C536.382 620.033 536.121 619.539 535.857 619.045C536.421 619.299 536.991 619.552 537.549 619.809C537.844 620.28 538.122 620.756 538.412 621.23ZM541.456 622.457C540.93 622.24 540.391 622.029 539.86 621.814C539.604 621.385 539.342 620.957 539.081 620.529C539.575 620.762 540.067 620.996 540.556 621.231C540.857 621.64 541.164 622.045 541.456 622.457ZM544.352 623.685C543.914 623.497 543.473 623.309 543.029 623.123C542.787 622.773 542.552 622.423 542.304 622.075C542.72 622.28 543.127 622.488 543.539 622.694C543.814 623.023 544.082 623.354 544.352 623.685ZM547.141 624.905C546.807 624.756 546.48 624.605 546.143 624.457C545.934 624.196 545.717 623.939 545.504 623.68C545.82 623.842 546.124 624.009 546.435 624.172C546.671 624.416 546.909 624.659 547.141 624.905ZM549.631 626.025C549.476 625.953 549.315 625.884 549.158 625.812L548.807 625.427C548.943 625.501 549.086 625.574 549.222 625.648L549.631 626.025ZM287.947 247.303L286.18 248.985L286.689 248.382C287.266 247.816 287.858 247.243 288.436 246.676C288.268 246.888 288.114 247.093 287.947 247.303ZM295.54 240.171C294.515 241.123 293.477 242.083 292.473 243.026C292.861 242.545 293.277 242.051 293.669 241.568C294.644 240.626 295.637 239.675 296.636 238.721C296.265 239.207 295.907 239.687 295.54 240.171ZM303.286 232.962C301.928 234.215 300.625 235.442 299.281 236.689C299.735 236.098 300.149 235.528 300.609 234.935C301.967 233.642 303.312 232.352 304.68 231.054C304.217 231.689 303.742 232.33 303.286 232.962ZM311.098 225.834C309.6 227.198 308.09 228.566 306.614 229.918C307.16 229.174 307.691 228.437 308.245 227.689C309.704 226.319 311.209 224.925 312.699 223.539C312.172 224.301 311.615 225.076 311.098 225.834ZM319.401 218.307C317.616 219.911 315.867 221.496 314.116 223.083C314.694 222.25 315.301 221.404 315.891 220.565C317.571 219.007 319.231 217.458 320.94 215.886C320.411 216.7 319.923 217.496 319.401 218.307ZM327.778 210.826C325.814 212.576 323.853 214.325 321.913 216.064C322.493 215.176 323.091 214.279 323.685 213.385C325.564 211.663 327.471 209.929 329.376 208.195C328.838 209.074 328.304 209.952 327.778 210.826ZM336.297 203.304C334.226 205.118 332.156 206.931 330.138 208.719C330.694 207.806 331.228 206.904 331.798 205.986C333.799 204.176 335.847 202.343 337.902 200.507C337.375 201.436 336.81 202.38 336.297 203.304ZM345.223 195.483C342.937 197.474 340.71 199.437 338.454 201.414C338.993 200.458 339.563 199.49 340.117 198.528C342.286 196.591 344.422 194.67 346.62 192.718C346.136 193.647 345.693 194.56 345.223 195.483ZM354.22 187.733C351.833 189.781 349.439 191.832 347.11 193.851C347.606 192.89 348.1 191.93 348.611 190.964C350.892 188.949 353.235 186.904 355.573 184.863C355.121 185.82 354.657 186.781 354.22 187.733ZM363.504 179.781C360.97 181.938 358.483 184.071 355.996 186.204C356.45 185.233 356.904 184.261 357.373 183.285C359.782 181.181 362.198 179.074 364.657 176.946C364.258 177.896 363.89 178.836 363.504 179.781ZM372.971 171.774C370.319 174.009 367.686 176.235 365.082 178.447C365.486 177.47 365.913 176.486 366.332 175.504C368.874 173.31 371.435 171.106 374.019 168.89C373.668 169.852 373.308 170.816 372.971 171.774ZM382.689 163.636C379.927 165.938 377.172 168.235 374.472 170.505C374.819 169.535 375.169 168.564 375.531 167.588C378.15 165.351 380.831 163.083 383.516 160.813C383.226 161.758 382.968 162.695 382.689 163.636ZM392.608 155.384C389.72 157.774 386.896 160.134 384.05 162.504C384.337 161.545 384.621 160.587 384.923 159.624C387.709 157.268 390.458 154.929 393.29 152.551C393.057 153.497 392.829 154.442 392.608 155.384ZM402.739 147.078C399.755 149.514 396.762 151.955 393.859 154.351C394.087 153.396 394.344 152.434 394.583 151.476C397.42 149.1 400.328 146.69 403.238 144.278C403.069 145.212 402.898 146.146 402.739 147.078ZM507.69 614.309C506.735 614.07 505.771 613.835 504.807 613.599C504.862 612.638 504.922 611.676 504.97 610.716C505.894 610.98 506.806 611.25 507.721 611.517C507.718 612.447 507.701 613.379 507.69 614.309ZM511.515 615.279C510.582 615.039 509.637 614.802 508.694 614.564C508.705 613.646 508.719 612.727 508.723 611.81C509.623 612.076 510.514 612.345 511.404 612.614C511.444 613.502 511.483 614.39 511.515 615.279ZM515.29 616.276C514.376 616.031 513.458 615.787 512.534 615.546C512.504 614.67 512.465 613.797 512.424 612.925C513.299 613.191 514.174 613.459 515.039 613.729C515.128 614.577 515.215 615.425 515.29 616.276ZM518.992 617.284C518.103 617.038 517.219 616.792 516.322 616.549C516.25 615.717 516.168 614.888 516.085 614.059C516.937 614.328 517.792 614.596 518.634 614.868C518.761 615.671 518.876 616.478 518.992 617.284ZM522.65 618.313C521.787 618.065 520.919 617.821 520.046 617.577C519.935 616.791 519.829 616.003 519.708 615.22C520.534 615.49 521.355 615.762 522.173 616.036C522.336 616.794 522.497 617.552 522.65 618.313ZM526.237 619.357C525.411 619.111 524.572 618.871 523.735 618.629C523.588 617.883 523.429 617.141 523.269 616.399C524.072 616.67 524.859 616.948 525.652 617.222C525.853 617.932 526.049 618.643 526.237 619.357ZM529.761 620.432C528.962 620.184 528.159 619.938 527.35 619.694C527.169 619.001 526.989 618.309 526.797 617.619C527.562 617.888 528.325 618.158 529.083 618.431C529.314 619.096 529.539 619.763 529.761 620.432ZM533.223 621.524C532.457 621.278 531.698 621.029 530.922 620.786C530.711 620.144 530.49 619.503 530.269 618.863C530.994 619.127 531.727 619.389 532.444 619.656C532.709 620.277 532.97 620.9 533.223 621.524ZM536.603 622.627C535.883 622.387 535.156 622.149 534.429 621.912C534.192 621.32 533.956 620.728 533.708 620.14C534.396 620.401 535.08 620.66 535.758 620.924C536.043 621.491 536.326 622.058 536.603 622.627ZM539.902 623.747C539.239 623.516 538.561 623.292 537.89 623.064C537.63 622.52 537.357 621.981 537.086 621.442C537.733 621.697 538.369 621.957 539.01 622.216C539.313 622.724 539.608 623.235 539.902 623.747ZM543.125 624.897C542.506 624.673 541.886 624.45 541.26 624.229C540.992 623.752 540.732 623.272 540.455 622.798C541.04 623.038 541.611 623.285 542.188 623.528C542.502 623.984 542.818 624.438 543.125 624.897ZM546.232 626.046C545.686 625.84 545.147 625.63 544.594 625.426C544.325 625.013 544.043 624.605 543.763 624.196C544.287 624.421 544.811 624.646 545.329 624.874C545.639 625.262 545.931 625.656 546.232 626.046ZM549.239 627.197C548.777 627.016 548.31 626.836 547.843 626.656C547.59 626.323 547.335 625.991 547.08 625.659C547.504 625.851 547.935 626.038 548.355 626.231C548.648 626.554 548.951 626.873 549.239 627.197ZM552.048 628.325C551.715 628.189 551.375 628.056 551.04 627.92C550.835 627.684 550.64 627.444 550.431 627.209C550.742 627.356 551.053 627.502 551.36 627.65C551.593 627.874 551.818 628.101 552.048 628.325ZM554.717 629.444L554.184 629.217C554.064 629.095 553.936 628.976 553.814 628.854L554.299 629.098C554.436 629.214 554.58 629.328 554.717 629.444ZM276.114 259.838C275.451 260.459 274.828 261.06 274.174 261.676L274.513 261.281L276.535 259.312L276.114 259.838ZM283.606 252.871C282.584 253.823 281.545 254.784 280.524 255.736C280.884 255.298 281.227 254.867 281.591 254.428C282.607 253.453 283.66 252.46 284.694 251.477C284.332 251.941 283.963 252.408 283.606 252.871ZM291.325 245.746C290.091 246.87 288.863 247.992 287.658 249.101C288.113 248.523 288.547 247.955 289.007 247.374C290.287 246.162 291.535 244.967 292.837 243.745C292.345 244.407 291.811 245.087 291.325 245.746ZM299.448 238.349C297.919 239.738 296.398 241.124 294.878 242.51C295.434 241.769 296.003 241.021 296.569 240.276C298 238.94 299.454 237.593 300.892 236.254C300.391 236.961 299.942 237.645 299.448 238.349ZM307.722 230.919C305.944 232.503 304.152 234.092 302.421 235.652C303.022 234.808 303.682 233.938 304.294 233.09C305.943 231.571 307.641 230.029 309.336 228.487C308.788 229.303 308.259 230.109 307.722 230.919ZM316.172 223.384C314.217 225.114 312.326 226.812 310.399 228.529C310.976 227.673 311.507 226.835 312.096 225.974C314.022 224.221 315.913 222.486 317.865 220.721C317.304 221.607 316.72 222.503 316.172 223.384ZM324.818 215.808C322.739 217.625 320.658 219.443 318.618 221.24C319.202 220.317 319.788 219.393 320.385 218.464C322.36 216.689 324.383 214.89 326.401 213.094C325.863 214.003 325.342 214.905 324.818 215.808ZM333.76 208.031C331.476 210.003 329.22 211.962 326.984 213.91C327.552 212.947 328.176 211.96 328.758 210.99C330.906 209.083 333.065 207.17 335.258 205.24C334.745 206.176 334.258 207.101 333.76 208.031ZM342.826 200.229C340.451 202.267 338.093 204.297 335.748 206.32C336.266 205.367 336.745 204.43 337.277 203.471C339.6 201.432 341.936 199.386 344.291 197.33C343.807 198.294 343.295 199.27 342.826 200.229ZM352.192 192.269C349.678 194.392 347.153 196.522 344.703 198.613C345.189 197.635 345.692 196.649 346.194 195.664C348.558 193.611 350.995 191.521 353.422 189.436C352.992 190.388 352.608 191.322 352.192 192.269ZM361.736 184.206C359.071 186.443 356.477 188.645 353.857 190.861C354.294 189.883 354.737 188.901 355.19 187.916C357.752 185.714 360.29 183.525 362.896 181.301C362.509 182.27 362.108 183.242 361.736 184.206ZM371.51 176.07C368.753 178.357 365.995 180.645 363.3 182.903C363.686 181.926 364.075 180.948 364.474 179.967C367.093 177.74 369.769 175.484 372.447 173.228C372.116 174.18 371.826 175.121 371.51 176.07ZM381.466 167.835C378.595 170.198 375.751 172.547 372.938 174.881C373.266 173.91 373.599 172.938 373.942 171.963C376.698 169.642 379.488 167.306 382.303 164.956C382.027 165.914 381.73 166.879 381.466 167.835ZM391.695 159.452C388.707 161.891 385.749 164.316 382.814 166.73C383.085 165.765 383.379 164.793 383.665 163.824C386.535 161.431 389.414 159.033 392.331 156.617C392.116 157.562 391.899 158.508 391.695 159.452ZM402.112 151.008C399.033 153.492 395.945 155.982 392.942 158.428C393.153 157.478 393.361 156.528 393.584 155.574C396.516 153.152 399.542 150.682 402.556 148.219C402.404 149.149 402.255 150.079 402.112 151.008ZM392.672 159.638C395.71 157.159 398.823 154.644 401.932 152.13C389.058 238.165 420.405 316.835 451.715 395.414C470.728 443.131 489.723 490.815 498.787 540.092C487.508 497.734 468.138 456.839 448.651 415.707C410.639 335.469 372.21 254.32 392.672 159.638ZM382.446 168.016C385.403 165.582 388.406 163.125 391.422 160.661C371.46 254.968 409.79 335.864 447.687 415.859C468.233 459.23 488.645 502.336 499.571 547.169C486.646 508.228 465.822 470.871 444.792 433.157C399.921 352.694 354.137 270.605 382.446 168.016ZM300.465 238.466C302.306 236.801 304.163 235.128 306.047 233.441C200.363 395.239 312.351 462.226 417.581 525.124C447.922 543.259 477.689 561.058 501.491 580.7M507.624 617.791C506.615 617.577 505.599 617.366 504.58 617.155C504.65 616.18 504.711 615.205 504.77 614.231C505.745 614.471 506.718 614.712 507.683 614.955C507.669 615.899 507.649 616.845 507.624 617.791ZM511.605 618.655C510.613 618.437 509.624 618.217 508.623 618.003C508.649 617.071 508.671 616.139 508.686 615.209C509.64 615.451 510.598 615.691 511.542 615.938C511.571 616.842 511.587 617.749 511.605 618.655ZM515.539 619.537C514.568 619.315 513.597 619.094 512.616 618.876C512.6 617.986 512.588 617.095 512.562 616.208C513.492 616.452 514.422 616.696 515.341 616.944C515.411 617.807 515.479 618.671 515.539 619.537ZM519.414 620.435C518.472 620.212 517.521 619.992 516.567 619.773C516.509 618.921 516.441 618.07 516.373 617.221C517.285 617.469 518.185 617.722 519.088 617.974C519.202 618.793 519.313 619.612 519.414 620.435ZM523.223 621.354C522.309 621.129 521.382 620.908 520.455 620.687C520.358 619.878 520.253 619.071 520.142 618.266C521.034 618.517 521.917 618.773 522.8 619.028C522.949 619.801 523.084 620.578 523.223 621.354ZM526.991 622.305C526.093 622.075 525.197 621.845 524.289 621.619C524.155 620.859 524.022 620.099 523.878 619.341C524.73 619.59 525.584 619.84 526.426 620.093C526.619 620.829 526.812 621.565 526.991 622.305ZM530.663 623.266C529.803 623.037 528.947 622.807 528.078 622.581C527.907 621.863 527.724 621.149 527.54 620.434C528.368 620.686 529.201 620.935 530.02 621.191C530.242 621.88 530.452 622.573 530.663 623.266ZM534.302 624.253C533.471 624.023 532.632 623.796 531.792 623.568C531.589 622.898 531.391 622.227 531.178 621.559C531.97 621.81 532.755 622.063 533.537 622.317C533.796 622.961 534.058 623.604 534.302 624.253ZM537.831 625.252C537.051 625.026 536.255 624.805 535.467 624.583C535.234 623.954 534.989 623.329 534.741 622.704C535.51 622.958 536.263 623.218 537.022 623.476C537.301 624.064 537.562 624.659 537.831 625.252ZM541.321 626.29C540.57 626.063 539.819 625.837 539.059 625.613C538.804 625.042 538.546 624.471 538.283 623.902C538.995 624.147 539.703 624.394 540.407 624.642C540.715 625.19 541.024 625.738 541.321 626.29ZM544.697 627.334C543.998 627.114 543.306 626.89 542.599 626.673C542.326 626.156 542.05 625.641 541.766 625.129C542.427 625.366 543.097 625.6 543.75 625.841C544.072 626.337 544.384 626.836 544.697 627.334ZM547.998 628.394C547.365 628.185 546.724 627.98 546.083 627.774C545.799 627.311 545.501 626.853 545.208 626.393C545.815 626.621 546.424 626.849 547.025 627.08C547.355 627.516 547.678 627.955 547.998 628.394ZM551.189 629.468C550.627 629.275 550.052 629.085 549.485 628.894C549.204 628.501 548.932 628.104 548.644 627.712C549.178 627.922 549.703 628.135 550.232 628.348C550.551 628.721 550.875 629.093 551.189 629.468ZM554.253 630.553C553.786 630.385 553.318 630.216 552.845 630.049C552.576 629.72 552.297 629.394 552.019 629.067C552.487 629.261 552.939 629.46 553.402 629.655C553.693 629.952 553.967 630.255 554.253 630.553ZM557.183 631.629C556.817 631.491 556.46 631.349 556.091 631.213C555.874 630.981 555.652 630.751 555.435 630.521C555.766 630.665 556.094 630.811 556.425 630.957C556.674 631.182 556.935 631.403 557.183 631.629ZM559.815 632.633C559.647 632.566 559.472 632.503 559.303 632.438C559.183 632.326 559.068 632.212 558.949 632.1C559.101 632.171 559.26 632.239 559.413 632.31L559.815 632.633ZM413.01 139.679C412.92 140.597 412.822 141.515 412.741 142.432C409.532 145.003 406.422 147.527 403.277 150.067C403.423 149.133 403.565 148.2 403.724 147.264C406.81 144.74 409.866 142.231 413.01 139.679ZM413.403 135.873C413.302 136.787 413.207 137.7 413.115 138.612C410.006 141.134 406.973 143.618 403.916 146.114C404.079 145.171 404.264 144.225 404.437 143.281C407.409 140.82 410.379 138.359 413.403 135.873ZM413.86 132.034C413.745 132.948 413.64 133.86 413.536 134.773C410.548 137.227 407.59 139.667 404.657 142.094C404.834 141.155 405.011 140.216 405.199 139.275C408.048 136.88 410.954 134.456 413.86 132.034ZM414.381 128.157C414.252 129.078 414.114 129.999 413.994 130.918C411.139 133.297 408.255 135.689 405.457 138.041C405.649 137.101 405.843 136.162 406.047 135.22C408.772 132.891 411.596 130.515 414.381 128.157ZM414.947 124.254C414.806 125.171 414.674 126.087 414.542 127.003C411.783 129.337 409.005 131.678 406.307 133.985C406.514 133.047 406.746 132.104 406.964 131.165C409.597 128.874 412.252 126.574 414.947 124.254ZM415.577 120.356C415.425 121.254 415.285 122.151 415.142 123.049C412.476 125.341 409.877 127.601 407.269 129.866C407.492 128.929 407.707 127.992 407.94 127.052C410.427 124.847 413.029 122.589 415.577 120.356ZM416.284 116.385C416.115 117.3 415.938 118.216 415.779 119.13C413.301 121.3 410.728 123.513 408.303 125.658C408.538 124.74 408.778 123.821 409.023 122.902C411.402 120.748 413.846 118.566 416.284 116.385ZM417.042 112.396C416.861 113.303 416.688 114.21 416.517 115.116C414.14 117.238 411.714 119.383 409.394 121.479C409.644 120.56 409.914 119.638 410.176 118.716C412.439 116.621 414.721 114.517 417.042 112.396ZM417.871 108.371C417.677 109.272 417.497 110.173 417.314 111.073C415.062 113.128 412.804 115.186 410.604 117.217C410.866 116.315 411.113 115.415 411.384 114.512C413.539 112.469 415.664 110.438 417.871 108.371ZM418.788 104.299C418.579 105.201 418.366 106.102 418.168 107.002C416.044 108.987 413.956 110.955 411.884 112.918C412.16 112.017 412.444 111.116 412.731 110.213C414.755 108.239 416.714 106.294 418.788 104.299ZM419.747 100.263C419.532 101.135 419.318 102.007 419.112 102.879C417.117 104.794 415.192 106.679 413.244 108.574C413.535 107.679 413.849 106.779 414.149 105.883C416.015 104.01 417.84 102.153 419.747 100.263ZM420.767 96.2145C420.548 97.0464 420.348 97.8773 420.138 98.7084C418.294 100.533 416.552 102.315 414.749 104.121C415.046 103.259 415.327 102.398 415.633 101.534C417.331 99.7662 419.031 97.9979 420.767 96.2145ZM421.893 92.1069C421.665 92.9238 421.437 93.7407 421.218 94.5572C419.557 96.2559 417.97 97.9241 416.34 99.6112C416.647 98.7625 416.958 97.9136 417.276 97.0637C418.79 95.4209 420.343 93.7637 421.893 92.1069ZM423.075 88.0008C422.84 88.7894 422.599 89.5787 422.373 90.3669C420.902 91.9312 419.468 93.4811 418.024 95.035C418.339 94.2079 418.682 93.3763 419.005 92.5479C420.329 91.044 421.718 89.5166 423.075 88.0008ZM424.305 83.9139C424.077 84.6442 423.866 85.3727 423.644 86.1019C422.384 87.5023 421.132 88.8995 419.896 90.2903C420.195 89.5446 420.489 88.7994 420.796 88.0523C421.941 86.6816 423.134 85.2935 424.305 83.9139ZM425.646 79.78C425.424 80.4527 425.209 81.1257 424.992 81.7982C423.966 82.9982 422.923 84.2044 421.916 85.3978C422.184 84.763 422.448 84.1288 422.721 83.4929C423.692 82.2567 424.655 81.0232 425.646 79.78ZM427.002 75.7856C426.808 76.3426 426.608 76.9 426.419 77.4568C425.659 78.402 424.867 79.3575 424.12 80.2985C424.33 79.8208 424.55 79.3419 424.765 78.8638C425.512 77.8369 426.24 76.8165 427.002 75.7856ZM428.279 72.1403C428.17 72.4362 428.071 72.7321 427.965 73.0278C427.509 73.637 427.033 74.2529 426.583 74.8596C426.688 74.6357 426.801 74.4108 426.906 74.1865L428.279 72.1403ZM499.828 613.042C499.724 614.07 499.617 615.098 499.501 616.128C466.331 609.552 428.564 604.716 390.068 599.791C315.168 590.209 237.533 580.276 186.005 556.454C110.465 521.53 90.9717 456.655 218.075 319.124C102.423 451.048 127.387 513.835 204.021 548.995C253.369 571.636 324.105 582.795 392.512 593.586C430.347 599.555 467.462 605.414 499.828 613.042ZM500.192 609.373C500.098 610.388 499.991 611.405 499.889 612.422C467.545 604.829 430.519 598.983 392.774 593.029C324.469 582.254 253.835 571.111 204.644 548.542C125.792 512.365 101.999 446.728 230.938 306.003C113.311 441.529 143.183 505.166 223.533 541.729C270.109 562.923 333.616 574.997 395.186 586.701C432.277 593.752 468.66 600.671 500.192 609.373ZM500.491 605.724C500.414 606.726 500.334 607.728 500.245 608.731C468.749 600.077 432.474 593.181 395.5 586.152C334.011 574.462 270.589 562.405 224.152 541.274C141.466 503.648 112.561 437.158 244.008 292.527C123.669 432.502 159.511 497.089 244.227 535.297C287.488 554.808 343.46 567.421 397.883 579.684C434.205 587.869 469.824 595.901 500.491 605.724ZM500.757 602.09C500.691 603.081 500.621 604.072 500.545 605.064C469.923 595.301 434.431 587.299 398.247 579.145C343.888 566.896 287.981 554.298 244.842 534.842C158.115 495.727 122.843 428.82 255.171 281.017L255.851 280.355C133.593 424.733 177.004 489.982 266.596 529.999C305.781 547.502 353.78 560.166 400.602 572.52C436.133 581.895 470.978 591.092 500.757 602.09ZM500.988 598.481C500.931 599.456 500.864 600.433 500.8 601.409C471.077 590.485 436.388 581.327 401.019 571.995C354.249 559.655 306.305 547.005 267.207 529.542C176.588 489.065 133.46 422.627 262.421 273.963C263.099 273.31 263.738 272.675 264.423 272.017C143.481 419.394 196.794 484.471 291.547 526.351C325.543 541.377 364.854 553.409 403.349 565.192C438.071 575.819 472.124 586.245 500.988 598.481ZM501.159 594.889C501.117 595.847 501.076 596.804 501.024 597.763C472.227 585.62 438.35 575.25 403.815 564.68C365.356 552.908 326.083 540.887 292.154 525.891C196.657 483.683 143.408 417.809 269.467 267.216C270.479 266.252 271.507 265.281 272.519 264.316C120.23 456.829 268.485 509.141 406.119 557.674C440.008 569.624 473.24 581.349 501.159 594.889ZM501.301 591.31C501.269 592.251 501.233 593.193 501.194 594.136C473.351 580.709 440.319 569.056 406.641 557.18C268.287 508.394 119.206 455.765 277.201 259.876C278.316 258.828 279.478 257.757 280.624 256.695C140.352 441.423 279.481 497.63 408.926 549.943C441.959 563.292 474.358 576.389 501.301 591.31ZM501.405 587.761C501.381 588.678 501.353 589.596 501.325 590.513C474.467 575.731 442.296 562.725 409.498 549.47C279.48 496.925 139.757 440.405 284.663 252.942C286.153 251.56 287.604 250.198 289.112 248.807C160.422 425.951 290.418 485.973 411.769 541.968C443.93 556.809 475.47 571.369 501.405 587.761ZM501.461 584.218C501.452 585.111 501.445 586.004 501.427 586.899C475.585 570.677 444.29 556.234 412.392 541.516C290.62 485.325 160.084 425.09 292.352 245.849C294.05 244.294 295.788 242.719 297.516 241.149C180.479 410.576 301.395 474.19 414.649 533.71C445.91 550.139 476.573 566.26 501.461 584.218ZM501.477 577.194C501.482 578.02 501.486 578.845 501.488 579.671C477.788 560.28 448.322 542.667 418.303 524.723C312.747 461.631 200.404 394.405 308.722 231.056C310.711 229.277 312.706 227.496 314.715 225.707C220.113 379.931 323.289 450.055 420.566 516.155C449.961 536.129 478.808 555.737 501.477 577.194ZM501.427 573.703C501.444 574.492 501.464 575.281 501.472 576.07C478.901 554.91 450.384 535.524 421.33 515.782C323.758 449.481 220.258 379.118 317.156 223.537C319.283 221.657 321.483 219.742 323.671 217.832C239.772 364.582 334.196 437.624 423.612 506.734C452.036 528.702 479.941 550.277 501.427 573.703ZM501.354 570.237C501.375 570.964 501.385 571.693 501.401 572.421C480.01 549.356 452.463 528.064 424.417 506.387C334.752 437.085 240.015 363.835 325.807 215.963C328.113 213.947 330.406 211.939 332.755 209.903C259.214 349.239 345.077 424.878 426.73 496.77C454.16 520.921 481.108 544.65 501.354 570.237ZM501.23 566.774C501.253 567.443 501.281 568.111 501.303 568.78C481.141 543.631 454.591 520.245 427.568 496.453C345.692 424.364 259.584 348.499 334.741 208.194C337.131 206.129 339.559 204.045 341.994 201.957C278.499 333.885 355.946 411.762 429.932 486.152C456.337 512.702 482.293 538.809 501.23 566.774ZM501.082 563.33C501.111 563.916 501.144 564.502 501.169 565.089C482.3 537.652 456.764 511.972 430.798 485.864C356.609 411.271 278.927 333.17 343.799 200.404C346.331 198.237 348.912 196.047 351.506 193.85C297.616 318.424 366.777 398.163 433.227 474.733C458.583 503.951 483.534 532.711 501.082 563.33ZM500.907 559.905C500.934 560.374 500.954 560.844 500.98 561.314C483.473 531.351 458.992 503.134 434.121 474.475C367.49 397.697 298.131 317.73 353.169 192.443C355.818 190.2 358.454 187.964 361.142 185.701C316.457 302.892 377.581 383.974 436.629 462.318C460.912 494.537 484.842 526.291 500.907 559.905ZM500.688 556.465L500.752 557.436C484.691 524.65 461.289 493.589 437.546 462.087C378.333 383.525 317.055 302.197 362.706 184.388C365.437 182.097 368.257 179.764 371.059 177.439C335.129 287.178 388.357 369.03 440.161 448.643C463.339 484.263 486.225 519.437 500.688 556.465ZM500.452 553.074L500.474 553.339C485.95 517.38 463.664 483.12 441.098 448.439C389.15 368.602 335.768 286.512 372.488 176.25C375.35 173.873 378.222 171.491 381.139 169.087C353.468 271.239 399.097 353.098 443.841 433.334C465.9 472.894 487.741 512.061 500.452 553.074ZM455.926 370.725C473.6 424.012 491.401 477.688 498.396 532.855C488.87 486.091 470.789 440.703 452.69 395.285C421.283 316.458 389.85 237.538 403.097 151.19C406.27 148.624 409.413 146.073 412.655 143.472C406.117 220.539 430.889 295.242 455.926 370.725ZM502.082 563.221L502.035 562.307L502.19 562.635C502.228 562.963 502.271 563.29 502.307 563.618L502.082 563.221ZM502.231 566.652C502.212 566.189 502.2 565.725 502.18 565.262C502.305 565.482 502.434 565.702 502.557 565.924L502.704 567.352L502.231 566.652ZM502.354 570.092C502.337 569.507 502.312 568.924 502.291 568.34C502.5 568.652 502.7 568.965 502.904 569.278C502.96 569.847 503.004 570.419 503.056 570.989C502.822 570.69 502.591 570.39 502.354 570.092ZM502.428 573.543L502.389 571.561L503.197 572.602C503.254 573.259 503.316 573.916 503.367 574.574C503.054 574.231 502.743 573.886 502.428 573.543ZM502.481 577.018C502.475 576.288 502.466 575.559 502.454 574.83C502.79 575.201 503.131 575.571 503.463 575.943C503.514 576.66 503.567 577.378 503.614 578.096C503.239 577.736 502.859 577.377 502.481 577.018ZM502.495 580.505C502.495 579.719 502.489 578.934 502.486 578.149C502.895 578.54 503.296 578.934 503.701 579.327C503.748 580.089 503.786 580.853 503.827 581.615C503.383 581.246 502.941 580.875 502.495 580.505ZM502.468 584.003C502.477 583.181 502.495 582.359 502.5 581.538C502.96 581.923 503.429 582.306 503.886 582.692C503.93 583.502 503.975 584.313 504.009 585.125C503.499 584.75 502.985 584.376 502.468 584.003ZM502.418 587.529C502.437 586.663 502.447 585.799 502.456 584.934C502.991 585.324 503.515 585.715 504.044 586.107C504.075 586.944 504.106 587.781 504.132 588.619C503.563 588.255 502.991 587.892 502.418 587.529ZM502.313 591.055C502.341 590.166 502.369 589.277 502.392 588.388C502.985 588.765 503.578 589.141 504.164 589.52C504.187 590.388 504.2 591.257 504.218 592.126C503.585 591.768 502.953 591.41 502.313 591.055ZM502.177 594.613C502.217 593.695 502.257 592.777 502.29 591.86C502.942 592.224 503.586 592.591 504.232 592.957C504.249 593.848 504.265 594.74 504.271 595.632C503.578 595.291 502.876 594.952 502.177 594.613ZM502.009 598.182C502.061 597.242 502.1 596.304 502.141 595.366C502.853 595.714 503.564 596.064 504.27 596.415C504.271 597.327 504.272 598.239 504.266 599.152C503.515 598.828 502.765 598.504 502.009 598.182ZM501.783 601.769C501.846 600.812 501.909 599.856 501.966 598.901C502.735 599.23 503.503 599.557 504.266 599.888C504.256 600.818 504.237 601.751 504.221 602.682C503.411 602.376 502.6 602.071 501.783 601.769ZM501.525 605.379C501.601 604.402 501.673 603.426 501.738 602.45C502.569 602.759 503.387 603.071 504.206 603.383C504.188 604.328 504.169 605.274 504.14 606.221C503.274 605.938 502.397 605.66 501.525 605.379ZM501.228 609.005C501.315 608.015 501.394 607.026 501.471 606.038C502.355 606.323 503.238 606.608 504.114 606.897C504.08 607.858 504.044 608.82 504 609.783C503.079 609.522 502.157 609.262 501.228 609.005ZM500.873 612.651C500.974 611.65 501.081 610.648 501.175 609.648C502.112 609.909 503.046 610.17 503.976 610.433C503.929 611.407 503.869 612.383 503.813 613.358C502.838 613.12 501.859 612.884 500.873 612.651ZM500.485 616.324C500.599 615.306 500.707 614.288 500.81 613.271C501.808 613.508 502.791 613.749 503.777 613.99C503.72 614.975 503.659 615.961 503.589 616.949C502.56 616.738 501.523 616.531 500.485 616.324ZM466.853 725.518C486.038 688.358 496.349 652.252 500.412 616.933C501.459 617.142 502.503 617.354 503.541 617.568C500.998 652.223 491.613 687.984 472.32 725.353L473.28 725.518C492.567 688.161 501.967 652.414 504.531 617.774C505.559 617.987 506.587 618.198 507.604 618.415C506.593 652.381 498.148 687.778 478.749 725.353L479.71 725.518C499.1 687.961 507.561 652.582 508.602 618.633C509.612 618.851 510.617 619.07 511.616 619.292C512.164 652.553 504.682 687.573 485.176 725.353L486.136 725.518C505.631 687.758 513.139 652.756 512.629 619.512C513.623 619.735 514.605 619.963 515.59 620.189C517.728 652.731 511.216 687.366 491.602 725.353L492.563 725.518C512.162 687.557 518.706 652.944 516.618 620.425C517.58 620.648 518.536 620.874 519.489 621.102C523.253 652.911 517.754 687.15 498.031 725.353L498.99 725.518C518.697 687.35 524.231 653.137 520.532 621.352C521.473 621.58 522.415 621.805 523.347 622.037C528.766 653.098 524.296 686.933 504.46 725.353L505.42 725.518C525.233 687.143 529.754 653.34 524.414 622.307C525.329 622.537 526.244 622.767 527.148 623C534.254 653.297 530.836 686.714 510.887 725.353L511.847 725.518C531.769 686.933 535.247 653.549 528.236 623.282C529.127 623.515 530.004 623.753 530.885 623.991C539.715 653.505 537.377 686.492 517.313 725.353L518.273 725.518C538.303 686.724 540.72 653.775 532.013 624.292C532.874 624.527 533.722 624.766 534.572 625.005C545.159 653.721 543.923 686.267 523.743 725.353L524.703 725.518C544.84 686.516 546.171 654.015 535.736 625.334C536.557 625.568 537.379 625.802 538.19 626.04C550.571 653.942 550.469 686.036 530.17 725.353L531.13 725.518C551.372 686.311 551.608 654.269 539.421 626.408C540.195 626.639 540.975 626.867 541.741 627.101C555.957 654.171 557.018 685.801 536.597 725.353L537.557 725.518C557.909 686.1 557.004 654.532 543.03 627.505C543.775 627.737 544.516 627.973 545.252 628.209C561.327 654.424 563.563 685.573 543.025 725.353L543.984 725.518C564.441 685.896 562.397 654.815 546.615 628.643C547.307 628.869 547.982 629.102 548.665 629.332C566.652 654.677 570.117 685.331 549.453 725.353L550.413 725.518C570.97 685.703 567.759 655.129 550.151 629.831C550.784 630.048 551.411 630.269 552.036 630.489C571.964 654.944 576.667 685.092 555.88 725.353L556.841 725.518C577.492 685.518 573.098 655.472 553.653 631.067C554.203 631.265 554.762 631.461 555.308 631.662C577.236 655.209 583.224 684.838 562.307 725.353L563.267 725.518C584.001 685.36 578.443 655.856 557.162 632.368C557.616 632.54 558.074 632.711 558.522 632.886C582.478 655.503 589.782 684.591 568.736 725.353L569.697 725.518C590.499 685.228 583.77 656.293 560.673 633.74C561.019 633.879 561.364 634.02 561.708 634.16C587.707 655.823 596.33 684.356 575.164 725.353L576.124 725.518C596.969 685.143 589.091 656.808 564.23 635.211C564.405 635.286 564.578 635.363 564.751 635.438C592.881 656.13 602.893 684.093 581.59 725.353L582.551 725.518C603.238 685.449 594.587 657.86 568.543 637.289C598.227 656.948 609.262 684.205 588.019 725.353L588.978 725.518C609.229 686.294 600.365 659.624 574.027 640.123C604.019 658.704 615.256 685.048 594.447 725.353L595.407 725.518C615.206 687.168 606.2 661.394 579.71 642.905C609.863 660.47 621.233 685.921 600.874 725.353L601.834 725.518C624.296 682.014 608.468 655.42 571.449 637.667C569.674 636.649 567.827 635.662 565.939 634.69C564.217 633.632 562.453 632.59 560.62 631.576C558.97 630.487 557.255 629.424 555.503 628.376C553.873 627.218 552.2 626.077 550.469 624.959C548.93 623.78 547.342 622.62 545.711 621.476C544.193 620.212 542.624 618.969 541.012 617.741C539.591 616.458 538.135 615.188 536.63 613.935C535.245 612.566 533.805 611.216 532.335 609.876C531.012 608.443 529.653 607.022 528.251 605.617C527.04 604.172 525.796 602.738 524.514 601.317C523.352 599.775 522.144 598.248 520.912 596.729C519.814 595.102 518.682 593.486 517.516 591.881C516.51 590.2 515.478 588.527 514.409 586.865C513.502 585.143 512.574 583.427 511.61 581.721C510.79 579.922 509.948 578.13 509.072 576.346C508.346 574.475 507.596 572.609 506.819 570.751C506.188 568.802 505.537 566.857 504.857 564.918C504.343 562.957 503.802 561.001 503.247 559.049C502.818 556.937 502.363 554.83 501.891 552.726C501.575 550.578 501.237 548.433 500.88 546.291C495.289 486.343 476.027 428.252 456.911 370.616C431.79 294.883 406.932 219.937 413.732 142.614C467.369 99.6433 529.707 52.3989 601.745 0.406982L600.966 0.046875C529.32 51.7552 467.282 98.7668 413.836 141.562C413.919 140.641 414.012 139.719 414.106 138.797C465.735 96.9373 525.794 50.9695 595.32 0.406982L594.537 0.046875C525.409 50.3195 465.649 96.0506 414.21 137.73C414.308 136.807 414.416 135.883 414.522 134.959C464.132 94.2147 521.9 49.5289 588.893 0.405823L588.106 0.0482788C521.528 48.8664 464.065 93.3051 414.652 133.859C414.762 132.94 414.86 132.022 414.98 131.104C462.557 91.4781 518.027 48.0774 582.466 0.404358L581.68 0.0490112C517.673 47.4023 462.512 90.5458 415.137 129.968C415.26 129.042 415.394 128.115 415.527 127.187C461.047 88.6985 514.202 46.5964 576.04 0.403198L575.249 0.0500488C513.852 45.9142 461.003 87.7547 415.688 126.032C415.826 125.101 415.976 124.169 416.123 123.237C459.567 85.8976 510.416 45.0935 569.616 0.401978L568.821 0.0513306C510.086 44.3917 459.545 84.9204 416.317 122.032C416.464 121.13 416.602 120.229 416.757 119.327C458.14 83.108 506.588 43.6266 563.189 0.400879L562.389 0.0523682C506.263 42.9152 458.153 82.0991 416.986 118.079C417.15 117.157 417.32 116.235 417.494 115.312C456.77 80.2529 502.85 42.0985 556.765 0.400146L555.961 0.0533447C502.524 41.3824 456.787 79.2299 417.726 114.043C417.905 113.118 418.099 112.194 418.288 111.269C455.444 77.3755 499.139 40.5557 550.34 0.397522L549.532 0.055542C498.829 39.8232 455.495 76.3155 418.56 109.945C418.752 109.031 418.938 108.116 419.139 107.2C454.16 74.477 495.454 38.9997 543.913 0.396057L543.101 0.0567017C495.161 38.2469 454.248 73.3721 419.456 105.811C419.661 104.898 419.867 103.985 420.083 103.072C452.946 71.5342 491.811 37.418 537.488 0.394043L536.672 0.0593262C491.523 36.656 453.047 70.4054 420.415 101.645C420.636 100.73 420.877 99.8135 421.107 98.8983C451.794 68.5558 488.205 35.8151 531.061 0.391418L530.242 0.0615234C487.936 35.0302 451.934 67.3761 421.486 97.3962C421.714 96.5145 421.946 95.6326 422.183 94.7501C450.693 65.5864 484.594 34.229 524.639 0.389954L523.812 0.0634766C484.387 33.3787 450.885 64.302 422.641 93.0878C422.874 92.2444 423.098 91.4013 423.34 90.5569C449.651 62.5814 481.023 32.6189 518.213 0.385925L517.379 0.0667725C480.846 31.7278 449.899 61.2119 423.865 88.7667C424.108 87.9411 424.358 87.1147 424.609 86.2883C448.695 59.5205 477.505 30.9748 511.789 0.383728L510.95 0.0692749C477.347 30.0523 448.982 58.08 425.177 84.3904C425.426 83.5897 425.696 82.788 425.953 81.9871C447.795 56.4333 474.026 29.311 505.367 0.379395L504.517 0.0740967C473.918 28.3205 448.178 54.8461 426.639 79.8719C426.884 79.1283 427.127 78.3846 427.38 77.6401C446.954 53.3107 470.587 27.625 498.942 0.374695L498.084 0.0780029C470.549 26.5397 447.468 51.5266 428.22 75.2325C428.456 74.5587 428.685 73.8849 428.927 73.2102C446.206 50.1252 467.21 25.9006 492.521 0.369995L491.651 0.0827026C467.257 24.6889 446.88 48.0767 429.956 70.4081C430.169 69.8324 430.384 69.2562 430.602 68.6794C445.559 46.8638 463.892 24.1337 486.099 0.363892L485.217 0.0896606C464.075 22.7195 446.473 44.3991 431.916 65.254C432.048 64.9171 432.186 64.5792 432.321 64.2425C444.951 43.6568 460.567 22.3976 479.678 0.355286L478.785 0.0977783C461.25 20.3229 446.66 39.8874 434.606 58.8796C444.804 39.8125 457.54 20.3261 473.259 0.345459L472.345 0.107788C458.87 17.2379 447.586 34.0047 438.203 50.4557C445.76 33.9134 455.207 17.216 466.839 0.33313L465.911 0.120361C452.08 20.191 441.323 39.9995 433.172 59.5945C431.471 62.7937 429.831 65.9836 428.27 69.16C426.262 72.5506 424.364 75.9159 422.51 79.2711C420.277 82.7471 418.114 86.2041 416.05 89.6335C413.541 93.2761 411.106 96.8956 408.792 100.478C406.128 104.155 403.589 107.789 401.114 111.402C398.335 115.078 395.644 118.724 393.048 122.335C390.005 126.203 387.051 130.036 384.218 133.824C380.957 137.84 377.839 141.799 374.807 145.724C371.632 149.537 368.555 153.31 365.583 157.039C362.332 160.847 359.17 164.618 356.12 168.341C352.15 172.871 348.373 177.318 344.701 181.719C341.203 185.661 337.809 189.554 334.531 193.399C331.012 197.294 327.599 201.142 324.287 204.944C320.133 209.464 316.102 213.93 312.223 218.324C308.307 222.532 304.511 226.684 300.847 230.775C296.841 235.026 292.949 239.225 289.201 243.355C285.067 247.693 281.044 251.978 277.178 256.189C273.118 260.413 269.158 264.589 265.344 268.694C261.315 272.845 257.392 276.944 253.6 280.98C249.516 285.144 245.566 289.242 241.723 293.287C87.635 448.874 104.973 519.729 185.383 556.904C237.095 580.811 314.842 590.758 389.851 600.354C428.418 605.289 466.25 610.134 499.429 616.736C495.384 652.068 485.082 688.185 465.893 725.353L466.853 725.518Z" fill="url(#paint1_linear_1511_4383)" fill-opacity="0.46"/>
<defs>
<filter id="filter0_f_1511_4383" x="0.0090332" y="38.9999" width="789" height="789" filterUnits="userSpaceOnUse" color-interpolation-filters="sRGB">
<feFlood flood-opacity="0" result="BackgroundImageFix"/>
<feBlend mode="normal" in="SourceGraphic" in2="BackgroundImageFix" result="shape"/>
<feGaussianBlur stdDeviation="74" result="effect1_foregroundBlur_1511_4383"/>
</filter>
<linearGradient id="paint0_linear_1511_4383" x1="474.558" y1="1093.77" x2="-141.108" y2="758.937" gradientUnits="userSpaceOnUse">
<stop stop-color="#7103A4"/>
<stop offset="1" stop-color="#3C0754"/>
</linearGradient>
<linearGradient id="paint1_linear_1511_4383" x1="-283.897" y1="244.987" x2="290.256" y2="953.963" gradientUnits="userSpaceOnUse">
<stop stop-color="#F37803"/>
<stop offset="1" stop-color="#5A310A"/>
</linearGradient>
</defs>
</svg>
