<svg width="442" height="881" viewBox="0 0 442 881" fill="none" xmlns="http://www.w3.org/2000/svg">
<g opacity="0.3">
<path d="M-74.5661 83.2619L-73.2669 84.9333C-73.3671 84.7462 -73.4584 84.5607 -73.5573 84.3731C-73.9946 83.7535 -74.4345 83.1331 -74.8824 82.5108C-74.7746 82.7613 -74.6731 83.0112 -74.5661 83.2619ZM-67.7037 93.8237C-67.35 94.2552 -66.9882 94.6902 -66.6384 95.1201L-66.7407 94.9442L-67.9507 93.3179L-67.7037 93.8237ZM-72.644 87.8101C-71.856 88.7596 -71.1002 89.6975 -70.3148 90.6455C-70.5623 90.1551 -70.8281 89.6605 -71.0777 89.1688C-71.7859 88.2413 -72.5272 87.3026 -73.2537 86.3688C-73.0529 86.8487 -72.8423 87.3309 -72.644 87.8101ZM-60.2668 104.577C-59.9624 104.937 -59.6808 105.289 -59.3781 105.648L-59.384 105.639C-59.7054 105.226 -60.0413 104.808 -60.3665 104.394L-60.2668 104.577ZM-65.3719 98.6304C-64.6403 99.4793 -63.8978 100.333 -63.1751 101.179C-63.3904 100.793 -63.5972 100.409 -63.8141 100.023C-64.5796 99.0616 -65.306 98.1149 -66.0843 97.1495C-65.8495 97.6425 -65.6028 98.1379 -65.3719 98.6304ZM-70.8519 92.3077C-69.7989 93.5023 -68.7867 94.6818 -67.7529 95.8701C-68.0484 95.2571 -68.3473 94.644 -68.6479 94.0297C-69.6155 92.8431 -70.6027 91.65 -71.5805 90.4604C-71.3346 91.0768 -71.0943 91.6921 -70.8519 92.3077ZM-156.973 569.516L-156.7 569.101C-156.669 568.784 -156.635 568.469 -156.602 568.153L-156.814 568.538C-156.869 568.864 -156.919 569.19 -156.973 569.516ZM-52.1234 115.824L-51.8011 116.197C-51.9378 116.028 -52.0656 115.861 -52.2023 115.692L-52.1234 115.824ZM-57.6297 109.511C-56.9258 110.299 -56.2443 111.078 -55.5578 111.86C-55.7425 111.553 -55.9195 111.248 -56.1055 110.941C-56.7899 110.11 -57.4922 109.274 -58.1774 108.443C-57.9893 108.8 -57.8152 109.154 -57.6297 109.511ZM-63.2626 103.245C-62.2372 104.386 -61.2038 105.529 -60.1869 106.667C-60.5219 106.04 -60.873 105.409 -61.2123 104.781C-62.1582 103.661 -63.1318 102.531 -64.1062 101.399C-63.8239 102.015 -63.5411 102.631 -63.2626 103.245ZM-69.1204 96.8202C-67.8548 98.1848 -66.6078 99.542 -65.3791 100.892C-65.6966 100.205 -65.9969 99.5209 -66.3191 98.8321C-67.5287 97.4355 -68.7159 96.0462 -69.928 94.6478C-69.6499 95.3733 -69.3917 96.096 -69.1204 96.8202ZM-157.553 573.128C-157.37 572.887 -157.179 572.647 -156.993 572.406L-156.872 571.011C-157.024 571.246 -157.18 571.479 -157.33 571.714C-157.405 572.186 -157.481 572.657 -157.553 573.128ZM-159.155 575.258L-158.802 574.784L-158.664 573.835L-158.925 574.249C-159.002 574.586 -159.082 574.921 -159.155 575.258ZM-160.617 577.23L-160.57 577.164L-160.506 576.865L-160.617 577.23ZM-49.2868 120.768C-48.6274 121.506 -47.9549 122.248 -47.2883 122.988L-47.9952 121.89C-48.6062 121.172 -49.2524 120.439 -49.8799 119.714C-49.6795 120.066 -49.4863 120.416 -49.2868 120.768ZM-55.1285 114.385C-54.1197 115.463 -53.1037 116.544 -52.1323 117.606C-52.4324 117.086 -52.7611 116.557 -53.0663 116.035C-54.0649 114.886 -55.0474 113.744 -56.0473 112.594C-55.7446 113.19 -55.4283 113.79 -55.1285 114.385ZM-61.231 107.844L-57.4671 111.878C-57.8382 111.158 -58.1987 110.44 -58.5753 109.718C-59.7267 108.418 -60.9236 107.102 -62.109 105.789C-61.8063 106.477 -61.5278 107.158 -61.231 107.844ZM-67.4794 101.288C-66.0168 102.796 -64.5478 104.308 -63.1445 105.793C-63.4863 105.016 -63.857 104.233 -64.2081 103.454C-65.6041 101.914 -66.9623 100.389 -68.3783 98.8414C-68.0803 99.6564 -67.7686 100.474 -67.4794 101.288ZM-158.061 576.64C-157.794 576.337 -157.531 576.034 -157.261 575.732C-157.219 575.165 -157.18 574.597 -157.135 574.031C-157.365 574.334 -157.587 574.639 -157.817 574.943C-157.897 575.508 -157.983 576.073 -158.061 576.64ZM-159.879 578.708C-159.675 578.47 -159.465 578.235 -159.259 577.998C-159.197 577.537 -159.132 577.077 -159.067 576.616L-159.591 577.331C-159.687 577.79 -159.785 578.248 -159.879 578.708ZM-161.61 580.744L-161.211 580.275C-161.148 579.956 -161.087 579.637 -161.021 579.319C-161.123 579.461 -161.226 579.602 -161.328 579.745C-161.42 580.078 -161.517 580.41 -161.61 580.744ZM-163.203 582.657L-163.118 582.553L-163.019 582.175L-163.038 582.202L-163.203 582.657ZM-40.4653 132.21C-39.851 132.871 -39.223 133.537 -38.621 134.192C-38.7653 133.978 -38.9178 133.761 -39.0647 133.547C-39.73 132.783 -40.377 132.026 -41.0457 131.26L-40.4653 132.21ZM-46.4871 125.744C-45.5055 126.792 -44.5455 127.832 -43.5677 128.879C-43.8861 128.364 -44.1842 127.855 -44.5056 127.339C-45.4473 126.28 -46.4251 125.205 -47.3876 124.137C-47.093 124.671 -46.7779 125.211 -46.4871 125.744ZM-52.8031 119.132C-51.5633 120.412 -50.3138 121.696 -49.1169 122.958C-49.4833 122.299 -49.8578 121.638 -50.2323 120.977C-51.436 119.65 -52.6023 118.338 -53.8289 117.002C-53.479 117.714 -53.1457 118.422 -52.8031 119.132ZM-59.2779 112.414C-57.8004 113.936 -56.3602 115.443 -54.8971 116.96C-55.2847 116.173 -55.6767 115.385 -56.0741 114.595C-57.4506 113.106 -58.8602 111.603 -60.2646 110.103C-59.9407 110.872 -59.5946 111.646 -59.2779 112.414ZM-65.9922 105.642C-64.3521 107.28 -62.6949 108.925 -61.1181 110.537C-61.4662 109.71 -61.8215 108.881 -62.179 108.052C-63.7156 106.421 -65.2661 104.785 -66.8426 103.137C-66.5535 103.973 -66.2733 104.807 -65.9922 105.642ZM-158.513 580.082C-158.177 579.753 -157.836 579.425 -157.497 579.097C-157.455 578.443 -157.407 577.79 -157.361 577.137C-157.665 577.482 -157.97 577.826 -158.271 578.172C-158.354 578.808 -158.433 579.446 -158.513 580.082ZM-160.546 582.109C-160.253 581.814 -159.961 581.52 -159.667 581.226C-159.597 580.663 -159.524 580.102 -159.452 579.539C-159.715 579.844 -159.972 580.15 -160.232 580.455C-160.339 581.006 -160.441 581.558 -160.546 582.109ZM-162.499 584.095C-162.264 583.852 -162.034 583.608 -161.797 583.365C-161.713 582.909 -161.623 582.454 -161.537 581.998C-161.743 582.245 -161.942 582.494 -162.147 582.742L-162.499 584.095ZM-164.351 586.022C-164.202 585.864 -164.047 585.708 -163.898 585.551C-163.816 585.224 -163.728 584.899 -163.644 584.573L-164.015 585.03C-164.126 585.36 -164.241 585.69 -164.351 586.022ZM-166.077 587.879L-165.94 587.731C-165.896 587.592 -165.854 587.452 -165.808 587.313L-165.868 587.389C-165.936 587.553 -166.009 587.715 -166.077 587.879ZM-31.2635 143.727C-30.6415 144.383 -30.0763 145.016 -29.4645 145.668C-29.5618 145.53 -29.6501 145.396 -29.7477 145.258C-30.368 144.56 -31.0108 143.854 -31.6362 143.154C-31.5144 143.344 -31.3836 143.537 -31.2635 143.727ZM-37.4288 137.297C-36.4994 138.266 -35.5576 139.239 -34.6431 140.201C-34.959 139.718 -35.2672 139.236 -35.5874 138.752C-36.5057 137.739 -37.3994 136.738 -38.3386 135.717C-38.0244 136.247 -37.7395 136.768 -37.4288 137.297ZM-43.9677 130.493C-42.6778 131.816 -41.4571 133.109 -40.1868 134.424C-40.5834 133.759 -41.0071 133.086 -41.4096 132.419C-42.5865 131.147 -43.7881 129.864 -44.979 128.586C-44.6372 129.223 -44.3014 129.858 -43.9677 130.493ZM-50.5414 123.868C-49.0987 125.317 -47.6479 126.768 -46.2426 128.201C-46.6472 127.447 -47.0255 126.701 -47.439 125.945C-48.824 124.475 -50.231 122.996 -51.6593 121.508C-51.2874 122.294 -50.9036 123.084 -50.5414 123.868ZM-57.4964 116.879C-55.8147 118.549 -54.1966 120.192 -52.5441 121.849C-52.9381 121.014 -53.3483 120.174 -53.7537 119.336C-55.3123 117.712 -56.8846 116.083 -58.4619 114.451C-58.1345 115.262 -57.8153 116.07 -57.4964 116.879ZM-64.5711 109.969C-62.7624 111.728 -60.944 113.491 -59.1866 115.228C-59.5365 114.358 -59.8681 113.492 -60.2273 112.62C-61.9065 110.899 -63.6485 109.151 -65.3922 107.403C-65.1103 108.26 -64.8441 109.114 -64.5711 109.969ZM-158.925 583.512C-158.51 583.157 -158.102 582.799 -157.683 582.445C-157.646 581.735 -157.612 581.026 -157.571 580.315C-157.944 580.682 -158.313 581.049 -158.683 581.417C-158.768 582.115 -158.847 582.814 -158.925 583.512ZM-161.154 585.441C-160.785 585.115 -160.409 584.792 -160.036 584.468C-159.967 583.835 -159.904 583.202 -159.832 582.57C-160.16 582.902 -160.496 583.231 -160.821 583.563C-160.938 584.188 -161.046 584.815 -161.154 585.441ZM-163.315 587.363C-162.995 587.075 -162.67 586.789 -162.347 586.502C-162.254 585.955 -162.164 585.406 -162.068 584.86C-162.356 585.159 -162.647 585.458 -162.932 585.758C-163.065 586.292 -163.186 586.828 -163.315 587.363ZM-165.397 589.268C-165.137 589.028 -164.879 588.787 -164.616 588.548L-164.297 587.205C-164.525 587.451 -164.752 587.698 -164.98 587.943C-165.121 588.384 -165.26 588.826 -165.397 589.268ZM-167.378 591.117C-167.199 590.948 -167.026 590.776 -166.846 590.607C-166.748 590.285 -166.643 589.965 -166.542 589.643C-166.693 589.81 -166.84 589.979 -166.989 590.146C-167.118 590.47 -167.251 590.793 -167.378 591.117ZM-169.205 592.87L-169.024 592.695C-168.967 592.546 -168.913 592.396 -168.856 592.246L-168.964 592.369L-169.205 592.87ZM-21.4961 155.683C-21.0044 156.201 -20.5047 156.723 -20.0101 157.242C-20.1544 157.045 -20.2933 156.85 -20.4385 156.653C-20.9174 156.125 -21.4145 155.59 -21.9062 155.057C-21.764 155.268 -21.6358 155.473 -21.4961 155.683ZM-28.0248 148.901C-27.1047 149.835 -26.1978 150.764 -25.3062 151.686C-25.5746 151.295 -25.8493 150.901 -26.1184 150.509C-27.0262 149.528 -27.9454 148.542 -28.8506 147.562C-28.5704 148.01 -28.3016 148.454 -28.0248 148.901ZM-34.5726 142.263C-33.3469 143.506 -32.1105 144.753 -30.8949 145.991C-31.3242 145.312 -31.7641 144.628 -32.2014 143.946C-33.3375 142.74 -34.5293 141.509 -35.7113 140.283C-35.3335 140.943 -34.9441 141.606 -34.5726 142.263ZM-41.4308 135.375C-39.9745 136.817 -38.5522 138.244 -37.1303 139.67C-37.5451 138.951 -37.9489 138.234 -38.3709 137.512L-42.5572 133.152C-42.173 133.896 -41.807 134.634 -41.4308 135.375ZM-48.4784 128.457C-46.8183 130.08 -45.1599 131.704 -43.5299 133.315C-43.977 132.449 -44.4572 131.572 -44.9149 130.703C-46.4234 129.155 -48.0113 127.573 -49.5823 125.999C-49.2103 126.819 -48.8397 127.639 -48.4784 128.457ZM-55.7594 121.375C-53.9286 123.136 -52.1352 124.879 -50.3482 126.621C-50.732 125.772 -51.098 124.927 -51.4933 124.075C-53.2413 122.313 -54.9697 120.56 -56.7364 118.79C-56.4023 119.654 -56.083 120.513 -55.7594 121.375ZM-63.2256 114.262C-61.2505 116.136 -59.2809 118.008 -57.3478 119.862C-57.6998 118.941 -58.0836 118.011 -58.4487 117.086C-60.2608 115.285 -62.1705 113.442 -64.0582 111.608C-63.7805 112.493 -63.491 113.38 -63.2256 114.262ZM-154.276 583.243C-129.485 565.489 -99.0986 549.513 -68.1274 533.236C45.5043 473.517 166.885 409.677 46.7322 238.419M-159.293 586.911C-158.816 586.553 -158.328 586.198 -157.846 585.842C-157.814 585.077 -157.781 584.313 -157.742 583.549C-158.18 583.924 -158.617 584.299 -159.051 584.675C-159.134 585.42 -159.219 586.164 -159.293 586.911ZM-161.719 588.762C-161.274 588.42 -160.827 588.078 -160.377 587.738C-160.311 587.037 -160.238 586.339 -160.163 585.64C-160.569 585.997 -160.968 586.356 -161.37 586.715C-161.489 587.396 -161.61 588.078 -161.719 588.762ZM-164.075 590.598C-163.67 590.279 -163.271 589.957 -162.862 589.639C-162.765 589.017 -162.666 588.395 -162.563 587.775C-162.929 588.104 -163.288 588.436 -163.65 588.767C-163.794 589.377 -163.937 589.987 -164.075 590.598ZM-166.356 592.415C-166.006 592.133 -165.654 591.851 -165.302 591.569C-165.186 591.037 -165.078 590.503 -164.956 589.972C-165.268 590.261 -165.584 590.547 -165.891 590.836C-166.051 591.361 -166.201 591.889 -166.356 592.415ZM-168.56 594.224C-168.277 593.989 -167.987 593.755 -167.702 593.52L-167.319 592.205C-167.571 592.447 -167.826 592.688 -168.075 592.931L-168.56 594.224ZM-170.668 596.006L-170.072 595.497C-169.956 595.177 -169.833 594.859 -169.713 594.54L-170.221 595.046C-170.368 595.366 -170.523 595.685 -170.668 596.006ZM-172.58 597.653L-172.356 597.455L-172.164 597.015L-172.329 597.187C-172.415 597.342 -172.495 597.498 -172.58 597.653ZM-11.5588 167.534C-11.1254 167.978 -10.6808 168.427 -10.2533 168.868L-10.3407 168.754C-10.8481 168.205 -11.3419 167.662 -11.8501 167.112L-11.5588 167.534ZM-18.1436 160.803C-17.2087 161.76 -16.2755 162.717 -15.3325 163.676C-15.6539 163.225 -16.0021 162.762 -16.326 162.31C-17.1909 161.391 -18.0927 160.456 -18.9779 159.529C-18.6994 159.954 -18.4187 160.38 -18.1436 160.803ZM-24.8014 154.128C-23.653 155.26 -22.4909 156.397 -21.3814 157.512C-21.7381 156.973 -22.0722 156.443 -22.434 155.904C-23.6436 154.64 -24.8163 153.393 -26.0378 152.124C-25.634 152.789 -25.1993 153.465 -24.8014 154.128ZM-31.8787 147.13L-27.5586 151.402C-28.0231 150.642 -28.4965 149.879 -28.9686 149.116C-30.2937 147.757 -31.6685 146.375 -33.0314 144.998C-32.6357 145.713 -32.2676 146.417 -31.8787 147.13ZM-39.0553 140.152C-37.4058 141.734 -35.7568 143.315 -34.16 144.873C-34.5994 144.081 -35.0613 143.281 -35.511 142.485C-37.1248 140.855 -38.6821 139.251 -40.3201 137.611C-39.8976 138.459 -39.468 139.308 -39.0553 140.152ZM-46.4922 133.023C-44.6763 134.76 -42.8697 136.491 -41.07 138.221C-41.5056 137.343 -41.9331 136.468 -42.3802 135.587C-44.0683 133.91 -45.8176 132.205 -47.557 130.506C-47.1898 131.348 -46.8489 132.183 -46.4922 133.023ZM-54.1244 125.817C-52.1357 127.674 -50.1601 129.525 -48.2291 131.357C-48.6147 130.465 -49.0291 129.565 -49.4256 128.67C-51.3269 126.811 -53.192 124.969 -55.1264 123.096C-54.7918 124.003 -54.4467 124.912 -54.1244 125.817ZM-62.013 118.469C-59.8906 120.438 -57.7872 122.398 -55.6937 124.355C-56.0282 123.433 -56.3666 122.509 -56.7139 121.584C-58.689 119.679 -60.7376 117.742 -62.7765 115.81C-62.5132 116.698 -62.2652 117.583 -62.013 118.469ZM-159.599 590.308C-159.055 589.95 -158.513 589.591 -157.964 589.235C-157.941 588.43 -157.911 587.627 -157.88 586.823C-158.385 587.202 -158.89 587.581 -159.39 587.961C-159.461 588.743 -159.532 589.526 -159.599 590.308ZM-162.209 592.046C-161.697 591.701 -161.186 591.355 -160.669 591.011C-160.607 590.269 -160.539 589.528 -160.471 588.786C-160.942 589.147 -161.419 589.506 -161.885 589.868C-161.994 590.594 -162.104 591.32 -162.209 592.046ZM-164.764 593.785C-164.292 593.458 -163.811 593.135 -163.335 592.811C-163.239 592.131 -163.134 591.453 -163.031 590.775C-163.466 591.119 -163.905 591.462 -164.335 591.807C-164.48 592.466 -164.628 593.124 -164.764 593.785ZM-167.253 595.536C-166.823 595.23 -166.389 594.927 -165.955 594.622C-165.832 594.013 -165.7 593.405 -165.568 592.798C-165.965 593.119 -166.356 593.443 -166.749 593.766C-166.92 594.355 -167.09 594.945 -167.253 595.536ZM-169.659 597.273C-169.278 596.994 -168.902 596.715 -168.517 596.437C-168.376 595.916 -168.241 595.391 -168.095 594.87C-168.444 595.163 -168.784 595.458 -169.13 595.752C-169.312 596.258 -169.481 596.766 -169.659 597.273ZM-171.98 598.988C-171.667 598.753 -171.357 598.518 -171.043 598.285C-170.897 597.857 -170.745 597.431 -170.598 597.004C-170.873 597.242 -171.151 597.479 -171.425 597.717C-171.61 598.141 -171.798 598.563 -171.98 598.988ZM-174.187 600.666C-173.97 600.499 -173.75 600.334 -173.532 600.167C-173.401 599.857 -173.27 599.547 -173.135 599.237C-173.324 599.406 -173.515 599.572 -173.7 599.74C-173.864 600.048 -174.026 600.357 -174.187 600.666ZM-176.214 602.258L-175.947 602.048L-175.72 601.595L-175.92 601.783L-176.214 602.258ZM-1.3703 179.391L-1.28198 179.48L-1.38345 179.373L-1.3703 179.391ZM-7.82089 172.95C-6.98956 173.781 -6.14377 174.618 -5.32138 175.445C-5.57739 175.098 -5.81351 174.758 -6.07123 174.41C-6.99213 173.445 -7.86121 172.505 -8.7991 171.532C-8.4794 172.003 -8.13846 172.481 -7.82089 172.95ZM-14.8451 165.938C-13.652 167.117 -12.518 168.27 -11.3309 169.447C-11.721 168.88 -12.1074 168.316 -12.5031 167.747C-13.5964 166.622 -14.7181 165.484 -15.8237 164.354C-15.4837 164.887 -15.1801 165.407 -14.8451 165.938ZM-21.9355 159.06C-20.5013 160.442 -19.0569 161.828 -17.6604 163.193C-18.1211 162.476 -18.6111 161.748 -19.0777 161.029C-20.4592 159.632 -21.8175 158.244 -23.2283 156.833C-22.7897 157.578 -22.3656 158.318 -21.9355 159.06ZM-29.2561 151.981C-27.6163 153.559 -26.0131 155.121 -24.3764 156.697C-24.8409 155.911 -25.2701 155.136 -25.7448 154.345C-27.3234 152.774 -28.9355 151.186 -30.5425 149.601C-30.1176 150.393 -29.6705 151.192 -29.2561 151.981ZM-36.828 144.834C-35.0222 146.522 -33.2008 148.218 -31.4537 149.878C-31.9046 149.036 -32.3627 148.192 -32.8225 147.346C-34.5442 145.659 -36.2569 143.975 -38.0168 142.27C-37.6062 143.129 -37.2292 143.978 -36.828 144.834ZM-44.6045 137.538C-42.6192 139.394 -40.6645 141.237 -38.6868 143.09C-39.1186 142.184 -39.561 141.275 -40.0051 140.365C-41.88 138.555 -43.7936 136.727 -45.708 134.898C-45.342 135.778 -44.9603 136.661 -44.6045 137.538ZM-52.6256 130.166C-50.5036 132.096 -48.3658 134.032 -46.3173 135.93C-46.6896 135.032 -47.0624 134.133 -47.4449 133.232C-49.4608 131.314 -51.4818 129.394 -53.5444 127.454C-53.2269 128.36 -52.9309 129.261 -52.6256 130.166ZM-60.8582 122.654C-58.5927 124.713 -56.3662 126.754 -54.1134 128.808C-54.4335 127.881 -54.7464 126.956 -55.0772 126.026C-57.2162 124.021 -59.3964 121.996 -61.5834 119.969C-61.3341 120.865 -61.0968 121.759 -60.8582 122.654ZM-159.868 593.7C-159.262 593.349 -158.649 593.002 -158.037 592.653C-158.022 591.818 -158.014 590.982 -157.994 590.147C-158.559 590.517 -159.125 590.886 -159.684 591.256C-159.751 592.07 -159.809 592.885 -159.868 593.7ZM-162.659 595.329C-162.084 594.988 -161.498 594.651 -160.918 594.313C-160.862 593.531 -160.814 592.75 -160.754 591.97C-161.294 592.332 -161.826 592.697 -162.362 593.062C-162.467 593.816 -162.562 594.573 -162.659 595.329ZM-165.395 596.978C-164.85 596.646 -164.305 596.314 -163.754 595.984C-163.662 595.261 -163.571 594.539 -163.474 593.817C-163.984 594.168 -164.484 594.523 -164.989 594.876C-165.127 595.575 -165.263 596.276 -165.395 596.978ZM-168.078 598.632C-167.568 598.313 -167.062 597.991 -166.547 597.673C-166.423 597.016 -166.293 596.36 -166.165 595.704C-166.632 596.036 -167.101 596.366 -167.562 596.699C-167.737 597.343 -167.913 597.986 -168.078 598.632ZM-170.681 600.275C-170.224 599.981 -169.759 599.688 -169.296 599.396C-169.147 598.805 -168.991 598.216 -168.834 597.627C-169.257 597.937 -169.686 598.244 -170.106 598.556C-170.301 599.128 -170.493 599.701 -170.681 600.275ZM-173.203 601.919C-172.8 601.652 -172.389 601.389 -171.984 601.124C-171.821 600.618 -171.664 600.109 -171.497 599.603C-171.867 599.882 -172.234 600.162 -172.601 600.442C-172.805 600.933 -173.003 601.427 -173.203 601.919ZM-175.652 603.567C-175.314 603.336 -174.978 603.106 -174.636 602.877C-174.467 602.454 -174.291 602.033 -174.12 601.611C-174.425 601.85 -174.725 602.092 -175.028 602.332C-175.236 602.743 -175.449 603.153 -175.652 603.567ZM-177.947 605.147C-177.703 604.977 -177.465 604.803 -177.22 604.633C-177.077 604.333 -176.941 604.031 -176.794 603.731C-177.011 603.906 -177.218 604.083 -177.433 604.258C-177.608 604.553 -177.774 604.851 -177.947 605.147ZM-180.074 606.655L-179.774 606.443C-179.685 606.286 -179.593 606.13 -179.503 605.974C-179.578 606.037 -179.655 606.099 -179.731 606.163L-180.074 606.655ZM9.50272 191.855L10.6724 193.036L10.6007 192.945C10.1965 192.521 9.76382 192.083 9.35242 191.655L9.50272 191.855ZM2.65558 185.012C3.40198 185.739 4.16153 186.473 4.8829 187.189L4.37213 186.513C3.58624 185.701 2.79355 184.886 2.01657 184.079C2.23737 184.393 2.43649 184.698 2.65558 185.012ZM-4.40768 178.11C-3.25922 179.235 -2.09674 180.365 -0.950806 181.488C-1.39362 180.867 -1.85812 180.238 -2.30563 179.614C-3.34796 178.558 -4.44254 177.477 -5.52307 176.402C-5.14392 176.975 -4.78302 177.54 -4.40768 178.11ZM-11.6952 171.034C-10.2389 172.428 -8.83606 173.798 -7.40692 175.18C-7.85275 174.513 -8.30362 173.844 -8.75623 173.175C-10.159 171.774 -11.5695 170.369 -12.9723 168.968C-12.546 169.657 -12.1138 170.348 -11.6952 171.034ZM-19.0675 164.051C-17.4686 165.562 -15.8619 167.076 -14.2919 168.574C-14.7907 167.769 -15.2735 166.971 -15.7829 166.162C-17.3 164.67 -18.8671 163.155 -20.4368 161.639C-19.9791 162.443 -19.5163 163.249 -19.0675 164.051ZM-26.8517 156.694C-24.9912 158.433 -23.2135 160.135 -21.3764 161.863C-21.8642 161.007 -22.38 160.14 -22.8789 159.279C-24.6112 157.601 -26.349 155.921 -28.094 154.237C-27.669 155.059 -27.2652 155.874 -26.8517 156.694ZM-34.6626 149.506C-32.7024 151.302 -30.7357 153.102 -28.8277 154.875C-29.2858 153.984 -29.7265 153.099 -30.1974 152.204C-32.0685 150.417 -33.9905 148.606 -35.9211 146.792C-35.5063 147.695 -35.0651 148.606 -34.6626 149.506ZM-42.8714 141.951C-40.7103 143.924 -38.6354 145.856 -36.4947 147.82C-36.9146 146.899 -37.3477 145.973 -37.7799 145.048C-39.8068 143.141 -41.8393 141.232 -43.8917 139.314C-43.5397 140.196 -43.2123 141.072 -42.8714 141.951ZM-51.1816 134.5C-48.9233 136.514 -46.6523 138.535 -44.4644 140.516C-44.8262 139.595 -45.1803 138.676 -45.556 137.752C-47.698 135.763 -49.8888 133.751 -52.0941 131.733C-51.7863 132.656 -51.4772 133.579 -51.1816 134.5ZM-59.7755 126.804C-57.3677 128.951 -55.0207 131.069 -52.6197 133.211C-52.9279 132.269 -53.2625 131.321 -53.5813 130.376C-55.8702 128.282 -58.1651 126.185 -60.4875 124.076C-60.2498 124.985 -60.0022 125.896 -59.7755 126.804ZM-160.101 597.102C-159.43 596.763 -158.756 596.426 -158.08 596.09C-158.075 595.22 -158.065 594.352 -158.051 593.484C-158.681 593.845 -159.304 594.21 -159.929 594.574C-159.99 595.417 -160.05 596.259 -160.101 597.102ZM-163.067 598.629C-162.423 598.294 -161.783 597.957 -161.132 597.624C-161.087 596.811 -161.034 595.999 -160.979 595.187C-161.58 595.541 -162.183 595.895 -162.777 596.25C-162.878 597.042 -162.976 597.835 -163.067 598.629ZM-165.978 600.162C-165.366 599.835 -164.754 599.509 -164.136 599.184C-164.052 598.426 -163.966 597.669 -163.873 596.912C-164.444 597.258 -165.02 597.6 -165.584 597.948C-165.721 598.684 -165.849 599.422 -165.978 600.162ZM-168.834 601.701C-168.26 601.386 -167.675 601.075 -167.096 600.763C-166.977 600.064 -166.862 599.363 -166.737 598.666C-167.275 599 -167.81 599.335 -168.343 599.672C-168.51 600.347 -168.672 601.024 -168.834 601.701ZM-171.643 603.271C-171.104 602.966 -170.558 602.663 -170.014 602.36C-169.864 601.717 -169.704 601.075 -169.548 600.432C-170.053 600.756 -170.546 601.083 -171.045 601.409C-171.247 602.029 -171.451 602.648 -171.643 603.271ZM-174.351 604.827C-173.861 604.541 -173.374 604.254 -172.878 603.97C-172.706 603.398 -172.527 602.826 -172.346 602.256C-172.805 602.56 -173.26 602.865 -173.714 603.17C-173.932 603.721 -174.14 604.275 -174.351 604.827ZM-176.988 606.382C-176.554 606.122 -176.122 605.861 -175.684 605.602C-175.499 605.11 -175.314 604.619 -175.126 604.129C-175.518 604.396 -175.915 604.66 -176.302 604.929C-176.531 605.413 -176.764 605.897 -176.988 606.382ZM-179.528 607.922C-179.177 607.705 -178.816 607.492 -178.464 607.276C-178.278 606.867 -178.084 606.461 -177.892 606.054C-178.218 606.285 -178.548 606.516 -178.872 606.748C-179.093 607.138 -179.311 607.53 -179.528 607.922ZM-181.938 609.443L-181.158 608.949C-180.999 608.655 -180.84 608.359 -180.679 608.065L-181.367 608.574L-181.938 609.443ZM-184.184 610.896L-183.825 610.657L-183.543 610.214L-183.835 610.441L-184.184 610.896ZM13.3833 197.175C14.1412 197.911 14.8919 198.643 15.6315 199.37L15.0417 198.616C14.3021 197.862 13.5323 197.094 12.78 196.334C12.9855 196.616 13.1791 196.894 13.3833 197.175ZM6.26703 190.282C7.43546 191.416 8.61746 192.557 9.78589 193.691C9.39868 193.165 8.97452 192.623 8.58307 192.095C7.40955 190.918 6.27933 189.76 5.10114 188.579C5.49133 189.147 5.8815 189.716 6.26703 190.282ZM-1.00983 183.315C0.345001 184.594 1.70154 185.874 3.01816 187.134C2.57449 186.494 2.1571 185.865 1.70749 185.223C0.382385 183.913 -0.99408 182.581 -2.35571 181.255C-1.91415 181.938 -1.4429 182.634 -1.00983 183.315ZM-8.66663 176.08C-7.0528 177.602 -5.44919 179.12 -3.84259 180.638C-4.33978 179.87 -4.8446 179.1 -5.3511 178.328C-6.91101 176.811 -8.43143 175.311 -9.99643 173.791C-9.53448 174.561 -9.11879 175.314 -8.66663 176.08ZM-16.4538 168.848C-14.6332 170.522 -12.7995 172.202 -11.0341 173.85C-11.5478 172.993 -12.1078 172.117 -12.6339 171.255C-14.3203 169.638 -16.0751 167.99 -17.8163 166.348C-17.3565 167.183 -16.9034 168.017 -16.4538 168.848ZM-24.4554 161.463C-22.4692 163.281 -20.5561 165.065 -18.5975 166.87C-19.0747 166 -19.5282 165.138 -20.0168 164.264C-21.9474 162.44 -23.8461 160.63 -25.7852 158.802C-25.344 159.688 -24.8855 160.581 -24.4554 161.463ZM-32.7155 154.006C-30.5846 155.923 -28.4485 157.842 -26.3698 159.733C-26.8326 158.796 -27.323 157.85 -27.7981 156.909C-29.769 155.071 -31.8286 153.192 -33.87 151.323C-33.4755 152.221 -33.1002 153.112 -32.7155 154.006ZM-41.1633 146.423C-38.8868 148.45 -36.6594 150.455 -34.4274 152.462C-34.8261 151.547 -35.2027 150.639 -35.6141 149.719C-37.8194 147.692 -39.997 145.677 -42.2167 143.644C-41.8656 144.57 -41.5017 145.5 -41.1633 146.423ZM-49.8705 138.729C-47.4636 140.848 -45.0665 142.962 -42.7083 145.057C-43.0688 144.096 -43.4544 143.127 -43.8276 142.162C-46.0681 140.128 -48.4036 138.049 -50.7235 135.978C-50.4348 136.896 -50.1474 137.814 -49.8705 138.729ZM-58.793 130.927C-56.2643 133.123 -53.7512 135.313 -51.2827 137.481C-51.5685 136.557 -51.847 135.634 -52.1433 134.707C-54.5812 132.526 -56.986 130.361 -59.4409 128.172C-59.2151 129.092 -59.007 130.009 -58.793 130.927ZM-160.271 600.508C-159.54 600.184 -158.811 599.859 -158.074 599.537C-158.081 598.648 -158.08 597.76 -158.079 596.872C-158.768 597.216 -159.459 597.56 -160.14 597.907C-160.186 598.773 -160.231 599.64 -160.271 600.508ZM-163.421 601.922C-162.718 601.601 -162.009 601.283 -161.299 600.966C-161.263 600.124 -161.218 599.283 -161.173 598.443C-161.837 598.785 -162.499 599.128 -163.157 599.473C-163.249 600.288 -163.34 601.104 -163.421 601.922ZM-166.514 603.347C-165.842 603.032 -165.161 602.723 -164.482 602.411C-164.406 601.617 -164.316 600.825 -164.227 600.032C-164.868 600.371 -165.498 600.714 -166.132 601.056C-166.262 601.818 -166.393 602.581 -166.514 603.347ZM-169.541 604.792C-168.899 604.482 -168.254 604.172 -167.604 603.865C-167.49 603.128 -167.372 602.392 -167.249 601.657C-167.86 601.989 -168.463 602.325 -169.066 602.66C-169.231 603.369 -169.385 604.08 -169.541 604.792ZM-172.52 606.25C-171.906 605.945 -171.299 605.638 -170.679 605.336C-170.532 604.662 -170.391 603.988 -170.24 603.316C-170.807 603.635 -171.378 603.952 -171.939 604.273C-172.136 604.932 -172.33 605.59 -172.52 606.25ZM-175.428 607.713C-174.863 607.423 -174.292 607.136 -173.723 606.849C-173.546 606.228 -173.361 605.611 -173.177 604.993C-173.707 605.3 -174.24 605.605 -174.763 605.914C-174.988 606.512 -175.212 607.111 -175.428 607.713ZM-178.245 609.173C-177.733 608.903 -177.21 608.637 -176.693 608.369C-176.498 607.817 -176.306 607.265 -176.104 606.715C-176.589 607.006 -177.07 607.297 -177.549 607.59C-177.785 608.116 -178.013 608.645 -178.245 609.173ZM-181.014 610.665C-180.552 610.413 -180.089 610.162 -179.623 609.912C-179.415 609.429 -179.199 608.948 -178.987 608.466C-179.417 608.733 -179.835 609.005 -180.26 609.273C-180.513 609.736 -180.769 610.199 -181.014 610.665ZM-183.634 612.117C-183.25 611.901 -182.875 611.683 -182.488 611.468C-182.289 611.081 -182.097 610.692 -181.894 610.307C-182.244 610.533 -182.589 610.76 -182.936 610.986C-183.174 611.362 -183.401 611.741 -183.634 612.117ZM-186.152 613.55C-185.875 613.388 -185.59 613.229 -185.311 613.068C-185.137 612.781 -184.956 612.496 -184.782 612.209C-185.027 612.374 -185.279 612.535 -185.522 612.701C-185.731 612.984 -185.947 613.265 -186.152 613.55ZM-188.449 614.914L-188.061 614.684L-187.762 614.254L-188.088 614.48C-188.209 614.624 -188.328 614.77 -188.449 614.914ZM24.4695 209.543C25.2146 210.259 25.9763 210.983 26.7027 211.69C26.4662 211.394 26.2128 211.09 25.9763 210.793C25.2545 210.066 24.4975 209.322 23.7574 208.586L24.4695 209.543ZM17.2963 202.644L20.5863 205.807C20.2203 205.323 19.8806 204.85 19.5108 204.364C18.3721 203.232 17.2457 202.107 16.1006 200.973C16.4934 201.528 16.9086 202.092 17.2963 202.644ZM9.85254 195.59C11.1806 196.834 12.5227 198.083 13.8151 199.311C13.3456 198.654 12.8794 197.999 12.403 197.338C11.1374 196.102 9.83008 194.844 8.53555 193.594C8.98431 194.263 9.41312 194.924 9.85254 195.59ZM2.06879 188.28C3.71359 189.815 5.30792 191.325 6.93829 192.852C6.40375 192.058 5.83609 191.251 5.29306 190.453C3.7442 188.961 2.23016 187.484 0.654114 185.98C1.13644 186.751 1.59451 187.513 2.06879 188.28ZM-5.76294 181.077C-3.97504 182.714 -2.18036 184.354 -0.431519 185.972C-0.950775 185.145 -1.44797 184.325 -1.97699 183.494C-3.71564 181.842 -5.48569 180.176 -7.25403 178.511C-6.75815 179.366 -6.24695 180.226 -5.76294 181.077ZM-13.9064 173.633C-11.9291 175.425 -10.0023 177.193 -8.0582 178.97C-8.57874 178.07 -9.0946 177.173 -9.6283 176.269C-11.4862 174.528 -13.3701 172.776 -15.2743 171.013C-14.809 171.89 -14.3598 172.761 -13.9064 173.633ZM-22.2603 166.127C-20.1179 168.046 -17.9831 169.961 -15.8776 171.863C-16.3701 170.928 -16.9094 169.977 -17.4163 169.038C-19.4539 167.154 -21.4969 165.267 -23.5566 163.373C-23.1163 164.294 -22.6875 165.211 -22.2603 166.127ZM-30.7973 158.533C-28.536 160.53 -26.2938 162.517 -24.0839 164.489C-24.5322 163.544 -24.9547 162.607 -25.4162 161.658C-27.551 159.709 -29.7673 157.723 -31.9687 155.743C-31.5755 156.674 -31.1781 157.607 -30.7973 158.533ZM-39.6204 150.766C-37.2037 152.885 -34.8214 154.987 -32.4349 157.092C-32.834 156.132 -33.2658 155.164 -33.6798 154.2C-35.9929 152.116 -38.269 150.05 -40.6212 147.948C-40.2802 148.889 -39.9482 149.828 -39.6204 150.766ZM-48.6321 142.953C-46.1092 145.125 -43.5788 147.301 -41.1256 149.44C-41.4618 148.499 -41.7815 147.562 -42.1288 146.617C-44.52 144.489 -46.9711 142.332 -49.4231 140.174C-49.1467 141.103 -48.8966 142.026 -48.6321 142.953ZM-57.8734 134.985C-55.2066 137.269 -52.6176 139.517 -49.9835 141.786C-50.259 140.835 -50.5465 139.881 -50.8344 138.927C-53.3644 136.703 -55.9085 134.473 -58.4891 132.225C-58.278 133.146 -58.073 134.066 -57.8734 134.985ZM-160.396 603.921C-159.61 603.616 -158.816 603.315 -158.022 603.014C-158.039 602.102 -158.063 601.19 -158.074 600.28C-158.823 600.609 -159.566 600.941 -160.309 601.273C-160.344 602.154 -160.369 603.038 -160.396 603.921ZM-163.716 605.225C-162.954 604.922 -162.185 604.621 -161.415 604.321C-161.389 603.457 -161.37 602.592 -161.336 601.729C-162.064 602.057 -162.781 602.389 -163.501 602.719C-163.579 603.553 -163.646 604.389 -163.716 605.225ZM-166.988 606.552C-166.248 606.248 -165.509 605.943 -164.762 605.642C-164.695 604.829 -164.624 604.016 -164.551 603.202C-165.249 603.526 -165.946 603.85 -166.636 604.176C-166.757 604.967 -166.877 605.758 -166.988 606.552ZM-170.197 607.887C-169.49 607.588 -168.783 607.288 -168.066 606.992C-167.962 606.225 -167.844 605.461 -167.727 604.698C-168.396 605.016 -169.068 605.333 -169.729 605.654C-169.889 606.397 -170.048 607.141 -170.197 607.887ZM-173.339 609.23C-172.668 608.937 -171.985 608.648 -171.306 608.358C-171.165 607.644 -171.021 606.931 -170.869 606.219C-171.514 606.535 -172.154 606.854 -172.79 607.174C-172.981 607.857 -173.158 608.544 -173.339 609.23ZM-176.432 610.599C-175.795 610.312 -175.146 610.028 -174.501 609.744C-174.329 609.084 -174.155 608.424 -173.975 607.766C-174.581 608.073 -175.171 608.386 -175.77 608.696C-175.993 609.33 -176.22 609.962 -176.432 610.599ZM-179.436 611.976C-178.842 611.7 -178.25 611.424 -177.652 611.151C-177.453 610.549 -177.243 609.95 -177.034 609.351C-177.599 609.648 -178.157 609.948 -178.716 610.247C-178.963 610.821 -179.198 611.399 -179.436 611.976ZM-182.379 613.365C-181.829 613.1 -181.284 612.835 -180.727 612.573C-180.513 612.043 -180.302 611.513 -180.082 610.986C-180.585 611.259 -181.092 611.531 -181.59 611.806C-181.853 612.326 -182.122 612.843 -182.379 613.365ZM-185.211 614.74C-184.74 614.505 -184.257 614.275 -183.78 614.042C-183.555 613.577 -183.32 613.115 -183.086 612.653C-183.537 612.907 -183.989 613.16 -184.434 613.416C-184.699 613.856 -184.954 614.298 -185.211 614.74ZM-187.957 616.13C-187.555 615.923 -187.147 615.72 -186.742 615.515C-186.525 615.137 -186.308 614.758 -186.089 614.381C-186.46 614.599 -186.828 614.818 -187.197 615.038C-187.449 615.402 -187.707 615.765 -187.957 616.13ZM-190.55 617.489C-190.256 617.332 -189.962 617.175 -189.666 617.019C-189.481 616.742 -189.297 616.465 -189.11 616.189C-189.387 616.359 -189.658 616.532 -189.934 616.703C-190.145 616.963 -190.343 617.228 -190.55 617.489ZM-192.942 618.774C-192.794 618.693 -192.652 618.61 -192.503 618.529C-192.393 618.386 -192.279 618.244 -192.169 618.101C-192.295 618.183 -192.417 618.266 -192.544 618.348C-192.676 618.49 -192.811 618.632 -192.942 618.774ZM35.8974 222.095C36.6005 222.769 37.3193 223.451 38.0135 224.12C37.8084 223.867 37.622 223.624 37.4169 223.371C36.6901 222.645 35.9271 221.903 35.1841 221.17C35.4189 221.477 35.6647 221.789 35.8974 222.095ZM28.579 215.091C29.623 216.083 30.6254 217.054 31.6622 218.042C31.2899 217.562 30.9294 217.086 30.5541 216.604C29.5101 215.579 28.4928 214.567 27.4428 213.537C27.8181 214.054 28.2062 214.576 28.579 215.091ZM20.943 207.93C22.2876 209.185 23.6432 210.446 24.9658 211.691C24.4759 211.024 23.9659 210.349 23.4684 209.679C22.2086 208.459 20.9124 207.222 19.6327 205.992C20.0815 206.643 20.501 207.281 20.943 207.93ZM13.1235 200.65C14.7662 202.164 16.3613 203.655 17.976 205.156C17.4368 204.378 16.8678 203.588 16.3184 202.806C14.7649 201.323 13.2195 199.843 11.6337 198.345C12.1351 199.115 12.6336 199.884 13.1235 200.65ZM5.24124 193.439C6.98837 195.035 8.73889 196.632 10.4665 198.218C9.92941 197.394 9.41864 196.58 8.87009 195.751C7.1412 194.123 5.3941 192.485 3.64822 190.85C4.17047 191.709 4.73132 192.584 5.24124 193.439ZM-3.06305 185.922C-1.09726 187.685 0.854492 189.442 2.77399 191.182C2.22501 190.277 1.65738 189.364 1.09482 188.453C-0.724915 186.762 -2.59772 185.047 -4.46927 183.332C-3.98141 184.202 -3.53815 185.056 -3.06305 185.922ZM-11.5041 178.361C-9.36674 180.268 -7.25662 182.163 -5.14053 184.061C-5.65851 183.132 -6.19388 182.195 -6.72757 181.261C-8.7944 179.366 -10.8214 177.489 -12.9166 175.581C-12.4411 176.509 -11.966 177.437 -11.5041 178.361ZM-20.1366 170.751C-17.8906 172.716 -15.6331 174.688 -13.4474 176.625C-13.9225 175.689 -14.387 174.757 -14.8752 173.815C-17.0143 171.879 -19.2093 169.917 -21.3993 167.956C-20.9717 168.89 -20.5518 169.821 -20.1366 170.751ZM-29.0493 162.941C-26.6101 165.062 -24.2414 167.15 -21.8417 169.254C-22.2811 168.282 -22.7672 167.295 -23.222 166.318C-25.521 164.263 -27.8193 162.209 -30.1634 160.132C-29.7855 161.07 -29.414 162.007 -29.0493 162.941ZM-38.1408 155.105C-35.6179 157.272 -33.1036 159.434 -30.6342 161.576C-31.0108 160.624 -31.3743 159.677 -31.7657 158.721C-34.1833 156.585 -36.6212 154.44 -39.0816 152.283C-38.7572 153.227 -38.452 154.165 -38.1408 155.105ZM-47.4534 147.142C-44.7964 149.399 -42.1743 151.641 -39.5712 153.872C-39.8977 152.904 -40.2471 151.93 -40.5872 150.959C-43.1024 148.761 -45.6698 146.539 -48.2504 144.311C-47.9867 145.254 -47.7048 146.202 -47.4534 147.142ZM-57.0242 139.041C-54.2522 141.376 -51.5239 143.691 -48.7968 146.004C-49.0567 145.053 -49.3297 144.099 -49.6022 143.145C-52.2724 140.839 -54.9048 138.552 -57.6127 136.229C-57.4131 137.167 -57.2123 138.105 -57.0242 139.041ZM-160.483 607.355C-159.637 607.07 -158.789 606.787 -157.936 606.506C-157.965 605.574 -157.987 604.644 -158.008 603.715C-158.814 604.024 -159.619 604.334 -160.418 604.646C-160.445 605.548 -160.468 606.451 -160.483 607.355ZM-163.969 608.549C-163.144 608.264 -162.325 607.974 -161.493 607.692C-161.479 606.809 -161.46 605.927 -161.436 605.046C-162.219 605.354 -163.006 605.66 -163.78 605.971C-163.848 606.829 -163.911 607.689 -163.969 608.549ZM-167.403 609.758C-166.606 609.473 -165.807 609.188 -165.001 608.907C-164.945 608.07 -164.89 607.233 -164.826 606.398C-165.587 606.706 -166.348 607.014 -167.1 607.325C-167.208 608.134 -167.303 608.947 -167.403 609.758ZM-170.79 610.982C-170.022 610.699 -169.24 610.42 -168.463 610.14C-168.368 609.348 -168.271 608.557 -168.169 607.767C-168.902 608.073 -169.626 608.383 -170.352 608.693C-170.502 609.455 -170.651 610.217 -170.79 610.982ZM-174.106 612.229C-173.371 611.949 -172.629 611.671 -171.886 611.394C-171.753 610.648 -171.605 609.905 -171.46 609.163C-172.167 609.468 -172.867 609.777 -173.566 610.085C-173.752 610.798 -173.93 611.513 -174.106 612.229ZM-177.362 613.492C-176.652 613.213 -175.949 612.933 -175.231 612.656C-175.066 611.969 -174.903 611.282 -174.728 610.598C-175.397 610.896 -176.066 611.194 -176.727 611.494C-176.943 612.159 -177.154 612.825 -177.362 613.492ZM-180.554 614.77C-179.885 614.498 -179.218 614.225 -178.542 613.956C-178.346 613.32 -178.142 612.687 -177.937 612.053C-178.566 612.342 -179.199 612.63 -179.821 612.922C-180.07 613.537 -180.317 614.152 -180.554 614.77ZM-183.66 616.048C-183.043 615.789 -182.413 615.534 -181.789 615.276C-181.569 614.698 -181.35 614.12 -181.122 613.543C-181.713 613.826 -182.299 614.109 -182.884 614.394C-183.147 614.944 -183.403 615.496 -183.66 616.048ZM-186.705 617.359C-186.137 617.112 -185.563 616.867 -184.989 616.621C-184.752 616.1 -184.503 615.582 -184.259 615.063C-184.801 615.332 -185.33 615.606 -185.866 615.876C-186.149 616.37 -186.43 616.863 -186.705 617.359ZM-189.637 618.667C-189.129 618.437 -188.627 618.206 -188.113 617.978C-187.874 617.536 -187.642 617.091 -187.397 616.651C-187.868 616.894 -188.334 617.14 -188.802 617.385C-189.083 617.811 -189.361 618.238 -189.637 618.667ZM-192.468 619.968C-192.046 619.77 -191.627 619.571 -191.202 619.375C-190.971 619.009 -190.727 618.647 -190.49 618.283C-190.879 618.491 -191.276 618.697 -191.66 618.906C-191.932 619.259 -192.202 619.613 -192.468 619.968ZM-195.134 621.238C-194.828 621.088 -194.512 620.942 -194.203 620.793C-194.009 620.531 -193.82 620.267 -193.624 620.006C-193.905 620.163 -194.19 620.319 -194.468 620.478C-194.692 620.731 -194.915 620.983 -195.134 621.238ZM-197.636 622.483L-197.175 622.253C-197.065 622.122 -196.961 621.99 -196.85 621.86L-197.265 622.105C-197.392 622.23 -197.509 622.358 -197.636 622.483ZM47.6255 234.791C48.2038 235.346 48.7956 235.906 49.3748 236.46C49.1816 236.225 48.9956 235.995 48.7999 235.76C48.2004 235.167 47.5771 234.562 46.9699 233.967C47.183 234.238 47.4141 234.519 47.6255 234.791ZM39.9665 227.52C40.9944 228.483 41.9982 229.432 43.0057 230.385C42.6384 229.923 42.2656 229.456 41.895 228.992C40.8819 228.004 39.9177 227.041 38.8898 226.046C39.26 226.543 39.601 227.026 39.9665 227.52ZM32.2999 220.373C33.6726 221.655 35.0584 222.942 36.4294 224.222C35.9293 223.558 35.3816 222.873 34.8742 222.206C33.5741 220.957 32.2494 219.697 30.9417 218.445C31.3998 219.09 31.8482 219.731 32.2999 220.373ZM24.4915 213.174C26.0404 214.586 27.5939 216 29.102 217.392C28.5823 216.665 28.1026 215.956 27.5749 215.225C26.0485 213.78 24.4873 212.318 22.9202 210.853C23.4386 211.624 23.9816 212.407 24.4915 213.174ZM16.3817 205.775C18.153 207.384 19.8896 208.976 21.6461 210.578C21.0873 209.749 20.5285 208.919 19.9579 208.085C18.2507 206.489 16.5634 204.904 14.8388 203.301C15.3623 204.129 15.8697 204.952 16.3817 205.775ZM8.05487 198.308C10.0198 200.06 11.9933 201.815 13.9115 203.544C13.3417 202.641 12.7261 201.719 12.144 200.811C10.312 199.122 8.42685 197.408 6.5502 195.698C7.06479 196.573 7.55389 197.438 8.05487 198.308ZM-0.449341 190.732C1.67566 192.611 3.74759 194.464 5.83737 196.326C5.30493 195.417 4.81244 194.524 4.26727 193.61C2.20255 191.732 0.147583 189.857 -1.95621 187.959C-1.45691 188.883 -0.935913 189.814 -0.449341 190.732ZM-9.20584 183.054C-6.9505 185.026 -4.70068 186.995 -2.4848 188.947C-2.99261 188.001 -3.50931 187.052 -4.03241 186.1C-6.17694 184.171 -8.34607 182.231 -10.5258 180.286C-10.069 181.215 -9.64909 182.131 -9.20584 183.054ZM-18.1717 175.266C-15.7588 177.347 -13.3646 179.42 -11.0069 181.475C-11.4799 180.503 -11.9834 179.52 -12.4725 178.543C-14.7487 176.521 -17.0733 174.476 -19.408 172.426C-18.9902 173.374 -18.5746 174.322 -18.1717 175.266ZM-27.3637 167.352C-24.8354 169.52 -22.3439 171.67 -19.8474 173.823C-20.2648 172.861 -20.672 171.903 -21.1042 170.936C-23.5447 168.794 -25.952 166.666 -28.4273 164.507C-28.0613 165.459 -27.7157 166.404 -27.3637 167.352ZM-36.7554 159.385C-34.1098 161.616 -31.4503 163.854 -28.8761 166.051C-29.2412 165.081 -29.6369 164.103 -30.0173 163.13C-32.527 160.95 -35.1059 158.738 -37.681 156.527C-37.371 157.48 -37.0513 158.435 -36.7554 159.385ZM-46.4132 151.236C-43.6318 153.569 -40.9171 155.87 -38.1764 158.182C-38.483 157.221 -38.7929 156.259 -39.1122 155.294C-41.7679 153.015 -44.4173 150.738 -47.1214 148.435C-46.8764 149.371 -46.6468 150.303 -46.4132 151.236ZM-56.26 143.045C-53.3822 145.43 -50.5189 147.807 -47.7056 150.161C-47.9472 149.218 -48.171 148.279 -48.4223 147.334C-51.1778 144.992 -53.9605 142.637 -56.7716 140.268C-56.5895 141.196 -56.4316 142.119 -56.26 143.045ZM-160.518 610.804C-159.613 610.54 -158.71 610.276 -157.798 610.015C-157.841 609.069 -157.877 608.125 -157.909 607.181C-158.774 607.467 -159.638 607.752 -160.491 608.041C-160.504 608.961 -160.516 609.881 -160.518 610.804ZM-164.178 611.885C-163.299 611.621 -162.413 611.359 -161.526 611.098C-161.525 610.193 -161.513 609.29 -161.499 608.388C-162.342 608.676 -163.178 608.967 -164.014 609.258C-164.073 610.133 -164.133 611.007 -164.178 611.885ZM-167.772 612.977C-166.923 612.713 -166.057 612.456 -165.199 612.195C-165.156 611.333 -165.102 610.475 -165.046 609.615C-165.871 609.905 -166.68 610.201 -167.495 610.494C-167.593 611.32 -167.685 612.149 -167.772 612.977ZM-171.318 614.101C-170.488 613.835 -169.654 613.57 -168.816 613.307C-168.734 612.496 -168.65 611.685 -168.555 610.876C-169.35 611.165 -170.141 611.456 -170.929 611.749C-171.064 612.531 -171.191 613.316 -171.318 614.101ZM-174.819 615.245C-174.01 614.977 -173.208 614.706 -172.39 614.441C-172.268 613.678 -172.14 612.917 -172.012 612.156C-172.773 612.442 -173.54 612.726 -174.293 613.016C-174.473 613.758 -174.654 614.499 -174.819 615.245ZM-178.232 616.394C-177.464 616.131 -176.693 615.869 -175.917 615.609C-175.759 614.89 -175.592 614.173 -175.422 613.458C-176.161 613.745 -176.896 614.033 -177.626 614.323C-177.835 615.011 -178.032 615.703 -178.232 616.394ZM-181.597 617.563C-180.865 617.302 -180.115 617.048 -179.375 616.791C-179.184 616.124 -178.998 615.455 -178.8 614.79C-179.501 615.073 -180.189 615.359 -180.881 615.644C-181.122 616.283 -181.367 616.921 -181.597 617.563ZM-184.878 618.758C-184.188 618.504 -183.494 618.251 -182.795 617.999C-182.576 617.381 -182.345 616.766 -182.114 616.151C-182.782 616.43 -183.443 616.714 -184.104 616.996C-184.37 617.581 -184.622 618.17 -184.878 618.758ZM-188.106 619.973C-187.449 619.722 -186.798 619.467 -186.133 619.218C-185.897 618.665 -185.662 618.111 -185.418 617.561C-186.026 617.825 -186.637 618.089 -187.239 618.356C-187.53 618.894 -187.825 619.431 -188.106 619.973ZM-191.215 621.183C-190.625 620.948 -190.034 620.715 -189.438 620.483C-189.184 619.986 -188.924 619.492 -188.66 618.998C-189.224 619.252 -189.794 619.505 -190.352 619.762C-190.647 620.233 -190.925 620.709 -191.215 621.183ZM-194.259 622.41C-193.733 622.193 -193.194 621.982 -192.663 621.767C-192.407 621.338 -192.145 620.91 -191.884 620.482C-192.378 620.715 -192.87 620.949 -193.359 621.184C-193.66 621.593 -193.967 621.998 -194.259 622.41ZM-197.155 623.638C-196.716 623.45 -196.276 623.262 -195.832 623.076C-195.59 622.727 -195.355 622.376 -195.107 622.029C-195.523 622.233 -195.93 622.441 -196.342 622.647C-196.617 622.976 -196.885 623.307 -197.155 623.638ZM-199.944 624.858C-199.61 624.709 -199.283 624.558 -198.946 624.41C-198.737 624.149 -198.52 623.892 -198.307 623.633C-198.623 623.795 -198.927 623.962 -199.238 624.125C-199.474 624.369 -199.712 624.612 -199.944 624.858ZM-202.434 625.978C-202.279 625.906 -202.118 625.837 -201.961 625.765L-201.61 625.38C-201.746 625.455 -201.889 625.527 -202.025 625.601L-202.434 625.978ZM59.25 247.257L61.0167 248.938L60.508 248.335C59.9306 247.769 59.3387 247.196 58.7608 246.63C58.929 246.841 59.0827 247.046 59.25 247.257ZM51.6569 240.124C52.6818 241.076 53.7203 242.036 54.724 242.979C54.3359 242.498 53.9198 242.004 53.5284 241.522C52.5531 240.579 51.5596 239.628 50.5606 238.674C50.9321 239.16 51.29 239.641 51.6569 240.124ZM43.9113 232.915C45.2686 234.169 46.5725 235.396 47.9159 236.642C47.4616 236.052 47.0485 235.481 46.5883 234.888C45.23 233.595 43.8846 232.306 42.517 231.007C42.9798 231.642 43.4549 232.283 43.9113 232.915ZM36.0995 225.787C37.5974 227.151 39.1072 228.519 40.5826 229.871C40.037 229.128 39.5063 228.39 38.9522 227.642C37.493 226.272 35.9882 224.879 34.498 223.492C35.0249 224.254 35.5819 225.029 36.0995 225.787ZM27.7961 218.26C29.5814 219.864 31.3298 221.449 33.0808 223.036C32.5034 222.203 31.8962 221.357 31.306 220.519C29.626 218.96 27.9663 217.412 26.2566 215.839C26.7864 216.653 27.2743 217.45 27.7961 218.26ZM19.4187 210.779C21.3828 212.529 23.3444 214.278 25.2842 216.017C24.7043 215.129 24.1057 214.232 23.5125 213.338C21.6329 211.616 19.7261 209.882 17.8206 208.148C18.359 209.027 18.8926 209.905 19.4187 210.779ZM10.9004 203.257C12.9711 205.071 15.0409 206.884 17.0589 208.672C16.5027 207.76 15.9695 206.857 15.3993 205.939C13.3982 204.129 11.3496 202.296 9.29507 200.46C9.82156 201.389 10.3867 202.333 10.9004 203.257ZM1.97366 195.437C4.26001 197.428 6.4874 199.39 8.74274 201.367C8.20352 200.411 7.6337 199.443 7.07962 198.481C4.91089 196.544 2.7753 194.623 0.577271 192.672C1.06128 193.6 1.50366 194.513 1.97366 195.437ZM-7.02267 187.686C-4.63571 189.734 -2.24194 191.785 0.0872803 193.804C-0.40863 192.843 -0.902832 191.883 -1.41446 190.917C-3.69485 188.902 -6.03809 186.857 -8.37622 184.816C-7.92404 185.773 -7.45956 186.735 -7.02267 187.686ZM-16.3073 179.734C-13.7734 181.891 -11.2863 184.024 -8.7991 186.157C-9.25339 185.186 -9.70728 184.214 -10.176 183.238C-12.5851 181.134 -15.0013 179.027 -17.4596 176.899C-17.0605 177.849 -16.6928 178.789 -16.3073 179.734ZM-25.7741 171.728C-23.1222 173.962 -20.489 176.189 -17.8846 178.4C-18.2888 177.423 -18.7164 176.439 -19.1354 175.457C-21.6765 173.263 -24.2375 171.059 -26.822 168.843C-26.4708 169.805 -26.1113 170.769 -25.7741 171.728ZM-35.4922 163.589C-32.7295 165.891 -29.9749 168.188 -27.275 170.459C-27.6219 169.488 -27.9722 168.517 -28.3339 167.542C-30.9527 165.305 -33.6343 163.036 -36.3185 160.766C-36.0289 161.711 -35.7708 162.648 -35.4922 163.589ZM-45.4108 155.338C-42.5233 157.728 -39.6985 160.087 -36.8526 162.457C-37.1404 161.498 -37.4236 160.54 -37.7259 159.577C-40.5116 157.221 -43.2607 154.882 -46.0931 152.504C-45.8604 153.45 -45.6316 154.395 -45.4108 155.338ZM-55.5416 147.031C-52.5581 149.467 -49.5653 151.908 -46.6616 154.304C-46.8896 153.349 -47.1469 152.387 -47.386 151.429C-50.2225 149.054 -53.1309 146.643 -56.0414 144.231C-55.8724 145.165 -55.7009 146.099 -55.5416 147.031ZM-160.493 614.263C-159.538 614.024 -158.574 613.788 -157.609 613.552C-157.665 612.591 -157.725 611.629 -157.773 610.669C-158.697 610.934 -159.609 611.203 -160.524 611.471C-160.521 612.4 -160.504 613.332 -160.493 614.263ZM-164.318 615.233C-163.385 614.992 -162.439 614.755 -161.497 614.517C-161.508 613.599 -161.522 612.68 -161.526 611.763C-162.426 612.029 -163.317 612.298 -164.207 612.568C-164.247 613.455 -164.286 614.343 -164.318 615.233ZM-168.093 616.229C-167.179 615.984 -166.261 615.74 -165.337 615.499C-165.307 614.623 -165.268 613.75 -165.227 612.878C-166.102 613.144 -166.977 613.412 -167.842 613.682C-167.931 614.53 -168.018 615.378 -168.093 616.229ZM-171.795 617.237C-170.906 616.991 -170.022 616.745 -169.125 616.502C-169.053 615.67 -168.971 614.841 -168.888 614.013C-169.74 614.281 -170.595 614.549 -171.437 614.821C-171.564 615.625 -171.679 616.431 -171.795 617.237ZM-175.453 618.266C-174.59 618.018 -173.722 617.774 -172.849 617.53C-172.738 616.744 -172.632 615.956 -172.511 615.173C-173.337 615.443 -174.158 615.715 -174.976 615.989C-175.139 616.747 -175.3 617.505 -175.453 618.266ZM-179.04 619.31C-178.214 619.064 -177.375 618.824 -176.538 618.582C-176.391 617.836 -176.232 617.095 -176.072 616.352C-176.875 616.623 -177.662 616.901 -178.455 617.175C-178.656 617.885 -178.852 618.596 -179.04 619.31ZM-182.564 620.385C-181.765 620.138 -180.962 619.891 -180.153 619.647C-179.972 618.954 -179.792 618.262 -179.6 617.572C-180.365 617.841 -181.128 618.111 -181.886 618.384C-182.117 619.049 -182.342 619.717 -182.564 620.385ZM-186.026 621.477C-185.26 621.231 -184.501 620.983 -183.725 620.739C-183.514 620.097 -183.293 619.457 -183.072 618.816C-183.797 619.08 -184.53 619.342 -185.246 619.609C-185.512 620.23 -185.773 620.853 -186.026 621.477ZM-189.406 622.581C-188.686 622.34 -187.959 622.102 -187.232 621.865C-186.995 621.273 -186.759 620.682 -186.511 620.093C-187.199 620.354 -187.883 620.613 -188.561 620.877C-188.846 621.444 -189.129 622.011 -189.406 622.581ZM-192.705 623.7C-192.042 623.469 -191.364 623.245 -190.693 623.017C-190.433 622.474 -190.16 621.934 -189.889 621.395C-190.536 621.65 -191.172 621.91 -191.813 622.169C-192.116 622.677 -192.411 623.188 -192.705 623.7ZM-195.928 624.85C-195.309 624.626 -194.689 624.403 -194.063 624.182C-193.795 623.705 -193.535 623.225 -193.258 622.751C-193.843 622.992 -194.414 623.238 -194.991 623.481C-195.305 623.937 -195.621 624.391 -195.928 624.85ZM-199.035 625.999C-198.489 625.793 -197.95 625.583 -197.397 625.379C-197.128 624.967 -196.846 624.558 -196.566 624.149C-197.09 624.374 -197.614 624.6 -198.132 624.827C-198.441 625.215 -198.734 625.609 -199.035 625.999ZM-202.042 627.15C-201.58 626.969 -201.113 626.789 -200.646 626.61C-200.393 626.276 -200.138 625.945 -199.883 625.613C-200.307 625.804 -200.738 625.992 -201.158 626.184C-201.451 626.507 -201.754 626.826 -202.042 627.15ZM-204.851 628.279C-204.518 628.142 -204.178 628.009 -203.843 627.874C-203.638 627.637 -203.443 627.397 -203.234 627.162C-203.545 627.309 -203.856 627.456 -204.163 627.603C-204.396 627.827 -204.621 628.054 -204.851 628.279ZM-207.52 629.397L-206.987 629.171C-206.867 629.048 -206.739 628.929 -206.617 628.807L-207.102 629.051C-207.239 629.167 -207.383 629.281 -207.52 629.397ZM71.0834 259.792C71.7457 260.412 72.369 261.013 73.0228 261.629L72.6841 261.234L70.6622 259.265L71.0834 259.792ZM63.5909 252.824C64.6133 253.777 65.6522 254.737 66.6733 255.689C66.3133 255.251 65.9698 254.821 65.6063 254.381C64.5903 253.406 63.5369 252.414 62.5035 251.43C62.8653 251.894 63.2342 252.362 63.5909 252.824ZM55.8716 245.699C57.1063 246.823 58.3337 247.945 59.5387 249.054C59.0844 248.476 58.6505 247.908 58.1902 247.327C56.9097 246.115 55.6623 244.92 54.3597 243.698C54.8522 244.36 55.3863 245.04 55.8716 245.699ZM47.7495 238.302C49.2775 239.691 50.7988 241.077 52.3192 242.463C51.763 241.722 51.1941 240.974 50.6277 240.229C49.1973 238.893 47.7427 237.546 46.3051 236.207C46.8061 236.915 47.2552 237.599 47.7495 238.302ZM39.4753 230.873C41.253 232.456 43.0447 234.045 44.7757 235.605C44.1749 234.761 43.5147 233.891 42.9029 233.043C41.2538 231.524 39.5564 229.982 37.8611 228.44C38.4092 229.256 38.9382 230.062 39.4753 230.873ZM31.0254 223.337C32.9801 225.067 34.8707 226.765 36.7979 228.482C36.2209 227.626 35.6898 226.789 35.1013 225.927C33.175 224.174 31.2844 222.439 29.3317 220.674C29.893 221.56 30.4768 222.456 31.0254 223.337ZM22.3789 215.761C24.4584 217.578 26.5393 219.396 28.579 221.193C27.9952 220.27 27.4093 219.346 26.8123 218.417C24.8372 216.642 22.8136 214.843 20.7956 213.047C21.334 213.956 21.8545 214.858 22.3789 215.761ZM13.4373 207.984C15.7215 209.956 17.9768 211.915 20.2126 213.863C19.645 212.9 19.0209 211.913 18.4388 210.943C16.2913 209.036 14.1319 207.123 11.9389 205.193C12.4523 206.129 12.9388 207.054 13.4373 207.984ZM4.37082 200.182C6.74634 202.22 9.10361 204.25 11.449 206.273C10.931 205.32 10.4517 204.383 9.91968 203.424C7.59723 201.385 5.26074 199.339 2.90646 197.284C3.3905 198.247 3.9021 199.223 4.37082 200.182ZM-4.9949 192.222C-2.48099 194.346 0.0444336 196.475 2.49423 198.567C2.00809 197.588 1.50455 196.602 1.00314 195.617C-1.3605 193.564 -3.79758 191.475 -6.22531 189.39C-5.7952 190.341 -5.41098 191.275 -4.9949 192.222ZM-14.5386 184.159C-11.8743 186.396 -9.28017 188.599 -6.65967 190.814C-7.09656 189.836 -7.54025 188.854 -7.99326 187.869C-10.5552 185.668 -13.0929 183.478 -15.6994 181.254C-15.3117 182.223 -14.9113 183.195 -14.5386 184.159ZM-24.3127 176.023C-21.5555 178.311 -18.7979 180.598 -16.1031 182.856C-16.4886 181.88 -16.8775 180.902 -17.2775 179.92C-19.8963 177.693 -22.5715 175.437 -25.2497 173.181C-24.9194 174.133 -24.629 175.074 -24.3127 176.023ZM-34.2695 167.788C-31.3981 170.151 -28.5538 172.5 -25.7406 174.834C-26.0692 173.863 -26.4017 172.891 -26.7451 171.916C-29.5007 169.596 -32.2905 167.259 -35.1063 164.909C-34.8295 165.868 -34.5331 166.833 -34.2695 167.788ZM-44.4976 159.405C-41.5102 161.845 -38.5522 164.269 -35.6171 166.684C-35.8884 165.718 -36.1818 164.746 -36.4675 163.778C-39.3376 161.384 -42.2172 158.986 -45.1344 156.57C-44.9187 157.516 -44.7022 158.462 -44.4976 159.405ZM-54.9149 150.961C-51.8355 153.445 -48.7476 155.935 -45.7454 158.381C-45.9564 157.431 -46.1644 156.481 -46.3869 155.528C-49.3195 153.105 -52.345 150.636 -55.3591 148.172C-55.2066 149.102 -55.0576 150.032 -54.9149 150.961ZM-45.4754 159.591C-48.5128 157.112 -51.6262 154.597 -54.7349 152.083C-41.8605 238.118 -73.2083 316.788 -104.518 395.367C-123.531 443.084 -142.526 490.768 -151.59 540.045C-140.311 497.687 -120.941 456.793 -101.454 415.66C-63.4422 335.422 -25.0133 254.273 -45.4754 159.591ZM-35.2486 167.969C-38.2062 165.535 -41.2092 163.078 -44.2254 160.614C-24.2634 254.921 -62.593 335.817 -100.489 415.812C-121.036 459.183 -141.448 502.29 -152.374 547.122C-139.449 508.181 -118.625 470.824 -97.5951 433.11C-52.7241 352.647 -6.93988 270.558 -35.2486 167.969ZM46.7322 238.419C44.8912 236.755 43.0337 235.081 41.1498 233.394C146.834 395.192 34.8461 462.18 -70.384 525.077C-100.725 543.213 -130.492 561.011 -154.294 580.653M-160.427 617.744C-159.418 617.53 -158.402 617.319 -157.383 617.108C-157.453 616.133 -157.514 615.158 -157.573 614.184C-158.548 614.424 -159.521 614.665 -160.486 614.908C-160.472 615.852 -160.452 616.798 -160.427 617.744ZM-164.408 618.608C-163.416 618.39 -162.427 618.17 -161.426 617.956C-161.452 617.024 -161.474 616.092 -161.489 615.162C-162.443 615.404 -163.401 615.645 -164.345 615.891C-164.374 616.795 -164.39 617.702 -164.408 618.608ZM-168.342 619.49C-167.371 619.269 -166.4 619.047 -165.419 618.829C-165.403 617.939 -165.391 617.048 -165.365 616.161C-166.295 616.405 -167.224 616.649 -168.144 616.897C-168.214 617.76 -168.282 618.624 -168.342 619.49ZM-172.217 620.388C-171.275 620.165 -170.323 619.945 -169.37 619.726C-169.312 618.874 -169.244 618.023 -169.176 617.174C-170.088 617.422 -170.988 617.675 -171.891 617.927C-172.005 618.746 -172.116 619.566 -172.217 620.388ZM-176.026 621.307C-175.112 621.082 -174.185 620.861 -173.258 620.64C-173.161 619.831 -173.056 619.024 -172.945 618.219C-173.837 618.471 -174.72 618.726 -175.603 618.981C-175.752 619.754 -175.887 620.531 -176.026 621.307ZM-179.794 622.258C-178.896 622.029 -178 621.799 -177.092 621.572C-176.958 620.812 -176.825 620.052 -176.681 619.294C-177.533 619.544 -178.387 619.793 -179.229 620.046C-179.422 620.782 -179.615 621.518 -179.794 622.258ZM-183.466 623.219C-182.606 622.99 -181.75 622.76 -180.881 622.534C-180.71 621.816 -180.527 621.102 -180.343 620.387C-181.171 620.639 -182.004 620.889 -182.823 621.144C-183.045 621.833 -183.255 622.527 -183.466 623.219ZM-187.105 624.206C-186.274 623.976 -185.435 623.749 -184.595 623.521C-184.392 622.851 -184.194 622.18 -183.981 621.512C-184.773 621.763 -185.558 622.016 -186.34 622.27C-186.599 622.915 -186.861 623.558 -187.105 624.206ZM-190.634 625.205C-189.854 624.979 -189.058 624.759 -188.27 624.536C-188.037 623.907 -187.792 623.282 -187.544 622.657C-188.313 622.911 -189.066 623.171 -189.825 623.429C-190.104 624.017 -190.365 624.612 -190.634 625.205ZM-194.124 626.243C-193.373 626.016 -192.622 625.79 -191.862 625.566C-191.607 624.995 -191.349 624.424 -191.086 623.855C-191.798 624.1 -192.505 624.347 -193.21 624.596C-193.518 625.143 -193.827 625.691 -194.124 626.243ZM-197.5 627.288C-196.801 627.067 -196.109 626.843 -195.402 626.626C-195.129 626.11 -194.853 625.595 -194.569 625.082C-195.23 625.319 -195.9 625.554 -196.553 625.795C-196.875 626.29 -197.187 626.789 -197.5 627.288ZM-200.801 628.347C-200.168 628.139 -199.527 627.933 -198.886 627.727C-198.602 627.265 -198.304 626.806 -198.011 626.346C-198.618 626.574 -199.227 626.802 -199.828 627.033C-200.158 627.469 -200.481 627.908 -200.801 628.347ZM-203.992 629.421C-203.43 629.228 -202.855 629.039 -202.288 628.848C-202.007 628.454 -201.735 628.057 -201.447 627.665C-201.981 627.875 -202.506 628.088 -203.035 628.301C-203.354 628.674 -203.678 629.046 -203.992 629.421ZM-207.056 630.506C-206.589 630.338 -206.121 630.169 -205.648 630.003C-205.379 629.673 -205.1 629.347 -204.822 629.02C-205.29 629.214 -205.742 629.413 -206.204 629.608C-206.496 629.905 -206.77 630.208 -207.056 630.506ZM-209.986 631.582C-209.62 631.444 -209.263 631.302 -208.894 631.166C-208.677 630.934 -208.455 630.704 -208.238 630.474C-208.569 630.618 -208.897 630.764 -209.227 630.91C-209.477 631.135 -209.738 631.356 -209.986 631.582ZM-212.618 632.586C-212.45 632.519 -212.275 632.456 -212.106 632.391C-211.986 632.279 -211.871 632.165 -211.752 632.053C-211.904 632.124 -212.063 632.192 -212.216 632.263L-212.618 632.586ZM-65.8134 139.632C-65.7234 140.55 -65.6253 141.468 -65.5442 142.385C-62.3353 144.956 -59.2253 147.48 -56.08 150.02C-56.2265 149.087 -56.3678 148.153 -56.5271 147.217C-59.6129 144.693 -62.6694 142.184 -65.8134 139.632ZM-66.2061 135.826C-66.1047 136.74 -66.0104 137.653 -65.9179 138.565C-62.8091 141.087 -59.7755 143.572 -56.7186 146.068C-56.8824 145.125 -57.0671 144.178 -57.2404 143.234C-60.2116 140.773 -63.1823 138.313 -66.2061 135.826ZM-66.663 131.987C-66.5475 132.901 -66.4431 133.813 -66.3386 134.726C-63.3513 137.18 -60.3928 139.62 -57.4599 142.048C-57.6369 141.108 -57.8135 140.17 -58.002 139.228C-60.8505 136.833 -63.7572 134.409 -66.663 131.987ZM-67.184 128.111C-67.0545 129.031 -66.9169 129.952 -66.7968 130.871C-63.9419 133.25 -61.0582 135.642 -58.2598 137.994C-58.4517 137.054 -58.6461 136.115 -58.8499 135.173C-61.5753 132.844 -64.3988 130.468 -67.184 128.111ZM-67.7504 124.207C-67.609 125.124 -67.4769 126.04 -67.3453 126.956C-64.586 129.29 -61.8084 131.632 -59.1098 133.938C-59.3165 133 -59.5492 132.058 -59.767 131.118C-62.4003 128.827 -65.0551 126.527 -67.7504 124.207ZM-68.3796 120.309C-68.228 121.207 -68.0875 122.105 -67.9448 123.002C-65.2789 125.294 -62.6796 127.555 -60.0723 129.82C-60.2948 128.882 -60.5096 127.945 -60.7431 127.006C-63.2303 124.8 -65.8321 122.543 -68.3796 120.309ZM-69.0873 116.338C-68.9183 117.253 -68.7413 118.169 -68.5821 119.083C-66.1039 121.253 -63.5309 123.467 -61.1061 125.611C-61.3405 124.693 -61.5808 123.774 -61.8258 122.855C-64.2052 120.701 -66.6494 118.519 -69.0873 116.338ZM-69.8448 112.35C-69.6635 113.256 -69.4911 114.163 -69.32 115.069C-66.9433 117.191 -64.5172 119.336 -62.1969 121.432C-62.4465 120.513 -62.7174 119.591 -62.9785 118.67C-65.2424 116.574 -67.524 114.47 -69.8448 112.35ZM-70.6744 108.324C-70.4799 109.225 -70.2999 110.126 -70.1165 111.026C-67.8646 113.081 -65.6067 115.139 -63.4074 117.17C-63.6689 116.268 -63.9164 115.369 -64.1873 114.465C-66.3416 112.422 -68.4666 110.391 -70.6744 108.324ZM-71.5906 104.252C-71.3822 105.154 -71.169 106.055 -70.9712 106.955C-68.847 108.94 -66.7586 110.909 -64.6871 112.871C-64.9626 111.97 -65.247 111.069 -65.5336 110.166C-67.5584 108.192 -69.517 106.247 -71.5906 104.252ZM-72.5498 100.216C-72.3345 101.088 -72.1209 101.96 -71.9154 102.832C-69.9199 104.748 -67.9949 106.632 -66.0469 108.527C-66.3382 107.632 -66.652 106.733 -66.9521 105.836C-68.8177 103.963 -70.6434 102.106 -72.5498 100.216ZM-73.5705 96.1677C-73.351 96.9995 -73.1514 97.8304 -72.9412 98.6616C-71.0973 100.486 -69.3548 102.268 -67.5521 104.074C-67.8488 103.212 -68.1304 102.351 -68.4361 101.487C-70.1339 99.7193 -71.8344 97.951 -73.5705 96.1677ZM-74.6956 92.0601C-74.4676 92.877 -74.24 93.6938 -74.0214 94.5103C-72.3604 96.209 -70.7734 97.8772 -69.143 99.5643C-69.4495 98.7156 -69.7612 97.8668 -70.0788 97.0168C-71.5928 95.374 -73.1459 93.7169 -74.6956 92.0601ZM-75.8776 87.9539C-75.6432 88.7425 -75.4021 89.5319 -75.1758 90.32C-73.7046 91.8843 -72.2712 93.4343 -70.8268 94.9881C-71.1423 94.1611 -71.4845 93.3295 -71.8085 92.501C-73.1319 90.9971 -74.5206 89.4697 -75.8776 87.9539ZM-77.108 83.8671C-76.88 84.5973 -76.6686 85.3259 -76.4465 86.0551C-75.1872 87.4554 -73.9348 88.8526 -72.6992 90.2435C-72.9981 89.4977 -73.2924 88.7525 -73.5989 88.0054C-74.7436 86.6347 -75.9366 85.2466 -77.108 83.8671ZM-78.4493 79.7332C-78.2268 80.4058 -78.0115 81.0788 -77.7946 81.7513C-76.7692 82.9514 -75.7265 84.1575 -74.7189 85.351C-74.9873 84.7161 -75.2513 84.082 -75.5243 83.446C-76.4945 82.2098 -77.4583 80.9763 -78.4493 79.7332ZM-79.8049 75.7387C-79.6113 76.2957 -79.4109 76.8531 -79.2216 77.4099C-78.4616 78.3551 -77.6698 79.3107 -76.9225 80.2516C-77.1331 79.7739 -77.353 79.295 -77.5678 78.8169C-78.3151 77.79 -79.0432 76.7696 -79.8049 75.7387ZM-81.0816 72.0934C-80.9729 72.3893 -80.8736 72.6852 -80.7679 72.9809C-80.3123 73.5901 -79.836 74.2061 -79.3863 74.8127C-79.4912 74.5888 -79.6041 74.364 -79.709 74.1396L-81.0816 72.0934ZM-152.631 612.995C-152.527 614.023 -152.42 615.051 -152.304 616.081C-119.134 609.506 -81.3665 604.669 -42.8714 599.744C32.0291 590.162 109.664 580.229 161.192 556.407C236.732 521.483 256.225 456.608 129.122 319.077C244.774 451.002 219.81 513.788 143.177 548.948C93.8279 571.589 23.0922 582.748 -45.3148 593.539C-83.1502 599.508 -120.265 605.367 -152.631 612.995ZM-152.995 609.326C-152.901 610.341 -152.794 611.358 -152.692 612.375C-120.348 604.782 -83.3217 598.936 -45.5773 592.983C22.7278 582.207 93.3618 571.064 142.553 548.496C221.405 512.318 245.198 446.682 116.259 305.956C233.886 441.482 204.014 505.119 123.664 541.682C77.0878 562.876 13.5812 574.95 -47.9893 586.655C-85.0795 593.706 -121.463 600.624 -152.995 609.326ZM-153.294 605.677C-153.217 606.679 -153.137 607.681 -153.048 608.684C-121.552 600.03 -85.2765 593.134 -48.3035 586.105C13.1863 574.415 76.6075 562.358 123.045 541.227C205.731 503.602 234.636 437.111 103.189 292.48C223.528 432.455 187.686 497.042 102.97 535.25C59.709 554.761 3.73654 567.374 -50.6858 579.637C-87.0079 587.822 -122.627 595.854 -153.294 605.677ZM-153.56 602.043C-153.494 603.034 -153.424 604.025 -153.348 605.018C-122.726 595.254 -87.2342 587.252 -51.0496 579.099C3.30859 566.849 59.2156 554.251 102.355 534.795C189.082 495.68 224.354 428.773 92.0265 280.97L91.3459 280.308C213.604 424.686 170.193 489.935 80.6007 529.952C41.416 547.455 -6.58325 560.12 -53.4052 572.473C-88.9359 581.848 -123.78 591.045 -153.56 602.043ZM-153.791 598.434C-153.734 599.409 -153.667 600.386 -153.603 601.362C-123.88 590.438 -89.1906 581.28 -53.8217 571.948C-7.0524 559.608 40.8925 546.958 79.9897 529.495C170.609 489.018 213.737 422.58 84.7756 273.917C84.0984 273.263 83.4585 272.628 82.7741 271.97C203.716 419.347 150.403 484.424 55.65 526.304C21.6537 541.33 -17.6566 553.362 -56.1518 565.145C-90.8737 575.772 -124.927 586.198 -153.791 598.434ZM-153.962 594.842C-153.92 595.8 -153.879 596.757 -153.827 597.716C-125.03 585.574 -91.153 575.203 -56.6184 564.633C-18.1585 552.861 21.1144 540.84 55.0432 525.844C150.54 483.636 203.789 417.762 77.7297 267.169C76.7179 266.206 75.6896 265.234 74.6778 264.269C226.967 456.782 78.7121 509.095 -58.9221 557.627C-92.8106 569.577 -126.043 581.302 -153.962 594.842ZM-154.104 591.263C-154.072 592.204 -154.036 593.146 -153.997 594.089C-126.154 580.662 -93.1218 569.009 -59.4435 557.133C78.9105 508.347 227.991 455.718 69.996 259.829C68.8811 258.781 67.7186 257.71 66.5735 256.648C206.845 441.376 67.7161 497.583 -61.7294 549.896C-94.7624 563.245 -127.161 576.342 -154.104 591.263ZM-154.208 587.714C-154.184 588.631 -154.156 589.549 -154.128 590.467C-127.27 575.684 -95.099 562.678 -62.3009 549.423C67.7169 496.879 207.441 440.358 62.5345 252.895C61.0443 251.513 59.5935 250.151 58.085 248.76C186.775 425.904 56.7785 485.926 -64.5715 541.921C-96.7332 556.762 -128.273 571.322 -154.208 587.714ZM-154.264 584.171C-154.255 585.064 -154.248 585.957 -154.23 586.852C-128.388 570.63 -97.0929 556.187 -65.1948 541.469C56.5768 485.279 187.113 425.043 54.8445 245.802C53.1467 244.247 51.4089 242.673 49.6813 241.103C166.718 410.529 45.8019 474.143 -67.4523 533.663C-98.7131 550.092 -129.376 566.213 -154.264 584.171ZM-154.28 577.147C-154.285 577.973 -154.289 578.798 -154.291 579.625C-130.591 560.233 -101.125 542.62 -71.1058 524.677C34.4504 461.584 146.793 394.358 38.475 231.009C36.4859 229.231 34.4912 227.449 32.4817 225.66C127.084 379.884 23.9077 450.008 -73.3688 516.109C-102.764 536.082 -131.611 555.691 -154.28 577.147ZM-154.23 573.657C-154.247 574.446 -154.267 575.234 -154.275 576.024C-131.704 554.863 -103.187 535.477 -74.1326 515.735C23.439 449.435 126.939 379.072 30.0408 223.49C27.9137 221.61 25.7139 219.695 23.5265 217.785C107.425 364.535 13.0008 437.577 -76.4151 506.687C-104.839 528.655 -132.744 550.23 -154.23 573.657ZM-154.157 570.19C-154.178 570.917 -154.188 571.646 -154.204 572.374C-132.813 549.309 -105.266 528.017 -77.2197 506.34C12.445 437.038 107.182 363.789 21.39 215.916C19.0842 213.901 16.7914 211.892 14.4423 209.856C87.9832 349.192 2.12018 424.831 -79.5332 496.723C-106.963 520.874 -133.911 544.603 -154.157 570.19ZM-154.033 566.727C-154.056 567.396 -154.084 568.064 -154.106 568.734C-133.944 543.584 -107.394 520.198 -80.3713 496.406C1.50455 424.317 87.6126 348.452 12.4565 208.147C10.0661 206.082 7.6384 203.998 5.20346 201.91C68.6977 333.838 -8.74857 411.715 -82.7354 486.105C-109.14 512.655 -135.096 538.762 -154.033 566.727ZM-153.885 563.283C-153.914 563.869 -153.947 564.455 -153.972 565.042C-135.103 537.605 -109.567 511.925 -83.6007 485.817C-9.41222 411.224 68.2701 333.123 3.39816 200.357C0.865997 198.19 -1.71463 196 -4.30881 193.803C49.5806 318.377 -19.58 398.116 -86.0297 474.686C-111.386 503.904 -136.337 532.664 -153.885 563.283ZM-153.71 559.858C-153.737 560.327 -153.757 560.798 -153.783 561.267C-136.276 531.305 -111.795 503.087 -86.9243 474.428C-20.2928 397.65 49.0665 317.683 -5.97229 192.397C-8.62079 190.154 -11.257 187.917 -13.9454 185.654C30.7401 302.845 -30.3842 383.928 -89.4318 462.271C-113.715 494.49 -137.645 526.244 -153.71 559.858ZM-153.491 556.418L-153.555 557.389C-137.493 524.603 -114.092 493.543 -90.3489 462.041C-31.1357 383.478 30.1423 302.15 -15.5087 184.341C-18.24 182.051 -21.0596 179.718 -23.8618 177.392C12.068 287.131 -41.1604 368.984 -92.9639 448.596C-116.142 484.216 -139.028 519.39 -153.491 556.418ZM-153.255 553.028L-153.277 553.292C-138.753 517.333 -116.467 483.073 -93.9013 448.392C-41.9527 368.555 11.4294 286.465 -25.2905 176.203C-28.1526 173.826 -31.0253 171.444 -33.9421 169.04C-6.27072 271.192 -51.8996 353.051 -96.6437 433.287C-118.703 472.847 -140.544 512.014 -153.255 553.028ZM-108.729 370.678C-126.403 423.965 -144.203 477.641 -151.199 532.808C-141.673 486.045 -123.592 440.656 -105.493 395.238C-74.0859 316.411 -42.6532 237.491 -55.9 151.143C-59.0728 148.577 -62.216 146.026 -65.4585 143.426C-58.9196 220.492 -83.6919 295.195 -108.729 370.678ZM-154.885 563.175L-154.838 562.26L-154.993 562.589C-155.031 562.916 -155.074 563.243 -155.11 563.571L-154.885 563.175ZM-155.034 566.605C-155.015 566.142 -155.003 565.678 -154.983 565.215C-155.108 565.436 -155.237 565.656 -155.36 565.877L-155.507 567.305L-155.034 566.605ZM-155.157 570.045C-155.14 569.461 -155.115 568.877 -155.094 568.293C-155.303 568.605 -155.503 568.918 -155.707 569.231C-155.763 569.8 -155.807 570.372 -155.859 570.942C-155.625 570.643 -155.394 570.343 -155.157 570.045ZM-155.231 573.496L-155.192 571.514L-156 572.555C-156.057 573.212 -156.119 573.869 -156.17 574.527C-155.857 574.184 -155.546 573.839 -155.231 573.496ZM-155.284 576.971C-155.278 576.241 -155.269 575.512 -155.257 574.784C-155.593 575.155 -155.934 575.524 -156.266 575.896C-156.317 576.614 -156.37 577.331 -156.417 578.049C-156.042 577.689 -155.662 577.33 -155.284 576.971ZM-155.298 580.459C-155.298 579.672 -155.292 578.887 -155.289 578.102C-155.698 578.494 -156.099 578.888 -156.504 579.281C-156.551 580.043 -156.589 580.806 -156.63 581.568C-156.186 581.199 -155.744 580.828 -155.298 580.459ZM-155.271 583.956C-155.28 583.134 -155.298 582.312 -155.303 581.491C-155.763 581.876 -156.232 582.259 -156.689 582.645C-156.733 583.455 -156.778 584.266 -156.812 585.078C-156.302 584.703 -155.788 584.329 -155.271 583.956ZM-155.221 587.482C-155.24 586.616 -155.25 585.752 -155.259 584.887C-155.794 585.277 -156.318 585.669 -156.847 586.06C-156.878 586.897 -156.909 587.734 -156.935 588.572C-156.366 588.208 -155.794 587.845 -155.221 587.482ZM-155.116 591.008C-155.144 590.119 -155.172 589.23 -155.195 588.341C-155.788 588.718 -156.381 589.094 -156.967 589.473C-156.99 590.341 -157.003 591.21 -157.021 592.079C-156.388 591.721 -155.756 591.363 -155.116 591.008ZM-154.98 594.566C-155.02 593.648 -155.059 592.73 -155.093 591.813C-155.745 592.177 -156.389 592.544 -157.035 592.91C-157.052 593.802 -157.068 594.693 -157.074 595.585C-156.381 595.244 -155.679 594.905 -154.98 594.566ZM-154.812 598.135C-154.864 597.195 -154.903 596.258 -154.944 595.319C-155.656 595.667 -156.367 596.017 -157.073 596.368C-157.074 597.28 -157.075 598.192 -157.069 599.105C-156.318 598.781 -155.568 598.457 -154.812 598.135ZM-154.586 601.722C-154.649 600.766 -154.712 599.809 -154.769 598.854C-155.538 599.183 -156.306 599.511 -157.069 599.841C-157.059 600.771 -157.04 601.704 -157.024 602.635C-156.214 602.329 -155.403 602.024 -154.586 601.722ZM-154.328 605.333C-154.404 604.356 -154.476 603.379 -154.541 602.403C-155.372 602.712 -156.19 603.024 -157.009 603.336C-156.991 604.282 -156.972 605.227 -156.943 606.174C-156.077 605.892 -155.2 605.613 -154.328 605.333ZM-154.031 608.958C-154.118 607.968 -154.197 606.98 -154.274 605.991C-155.158 606.276 -156.041 606.562 -156.917 606.85C-156.883 607.811 -156.847 608.773 -156.803 609.736C-155.882 609.475 -154.96 609.215 -154.031 608.958ZM-153.676 612.604C-153.777 611.603 -153.884 610.601 -153.978 609.602C-154.915 609.862 -155.849 610.123 -156.779 610.386C-156.732 611.36 -156.672 612.336 -156.616 613.311C-155.641 613.074 -154.662 612.838 -153.676 612.604ZM-153.288 616.277C-153.402 615.259 -153.51 614.241 -153.613 613.224C-154.611 613.461 -155.594 613.702 -156.58 613.943C-156.523 614.929 -156.462 615.914 -156.392 616.902C-155.363 616.691 -154.326 616.484 -153.288 616.277ZM-119.656 725.471C-138.841 688.311 -149.152 652.205 -153.215 616.886C-154.262 617.095 -155.306 617.307 -156.344 617.521C-153.801 652.176 -144.416 687.937 -125.123 725.306L-126.083 725.471C-145.37 688.114 -154.77 652.367 -157.334 617.727C-158.362 617.94 -159.39 618.152 -160.407 618.368C-159.396 652.334 -150.951 687.731 -131.552 725.306L-132.513 725.471C-151.903 687.914 -160.364 652.535 -161.405 618.587C-162.415 618.804 -163.42 619.024 -164.419 619.245C-164.967 652.506 -157.485 687.526 -137.979 725.306L-138.939 725.471C-158.434 687.711 -165.942 652.709 -165.432 619.465C-166.426 619.688 -167.408 619.916 -168.393 620.142C-170.531 652.684 -164.019 687.319 -144.405 725.306L-145.366 725.471C-164.964 687.511 -171.509 652.897 -169.421 620.378C-170.383 620.602 -171.339 620.827 -172.292 621.055C-176.056 652.864 -170.557 687.103 -150.834 725.306L-151.793 725.471C-171.5 687.303 -177.034 653.09 -173.335 621.306C-174.276 621.533 -175.218 621.759 -176.15 621.99C-181.569 653.051 -177.099 686.886 -157.263 725.306L-158.223 725.471C-178.036 687.096 -182.557 653.293 -177.217 622.26C-178.132 622.49 -179.047 622.72 -179.951 622.954C-187.057 653.25 -183.639 686.667 -163.69 725.306L-164.65 725.471C-184.572 686.886 -188.05 653.502 -181.039 623.235C-181.93 623.469 -182.807 623.706 -183.688 623.944C-192.518 653.458 -190.18 686.445 -170.116 725.306L-171.076 725.471C-191.106 686.677 -193.523 653.728 -184.816 624.245C-185.677 624.48 -186.525 624.719 -187.375 624.958C-197.962 653.674 -196.726 686.22 -176.546 725.306L-177.506 725.471C-197.643 686.469 -198.974 653.968 -188.539 625.287C-189.36 625.521 -190.182 625.755 -190.993 625.993C-203.374 653.895 -203.272 685.989 -182.972 725.306L-183.933 725.471C-204.175 686.264 -204.411 654.222 -192.224 626.361C-192.998 626.592 -193.778 626.82 -194.544 627.055C-208.76 654.124 -209.821 685.754 -189.4 725.306L-190.36 725.471C-210.712 686.053 -209.807 654.485 -195.833 627.458C-196.578 627.69 -197.319 627.926 -198.055 628.162C-214.13 654.377 -216.366 685.526 -195.828 725.306L-196.787 725.471C-217.243 685.85 -215.2 654.769 -199.418 628.596C-200.11 628.822 -200.785 629.056 -201.468 629.285C-219.455 654.63 -222.92 685.285 -202.256 725.306L-203.216 725.471C-223.773 685.656 -220.562 655.083 -202.954 629.784C-203.587 630.002 -204.214 630.222 -204.839 630.443C-224.767 654.898 -229.47 685.045 -208.683 725.306L-209.644 725.471C-230.295 685.472 -225.901 655.425 -206.456 631.02C-207.006 631.219 -207.565 631.414 -208.111 631.615C-230.039 655.163 -236.027 684.791 -215.11 725.306L-216.07 725.471C-236.804 685.313 -231.246 655.809 -209.965 632.321C-210.419 632.493 -210.877 632.664 -211.325 632.839C-235.281 655.456 -242.585 684.544 -221.539 725.306L-222.5 725.471C-243.301 685.181 -236.573 656.246 -213.476 633.693C-213.822 633.832 -214.167 633.973 -214.51 634.113C-240.51 655.776 -249.133 684.31 -227.967 725.306L-228.927 725.471C-249.772 685.096 -241.894 656.762 -217.033 635.164C-217.208 635.239 -217.381 635.316 -217.554 635.391C-245.684 656.083 -255.696 684.047 -234.393 725.306L-235.354 725.471C-256.041 685.402 -247.39 657.813 -221.346 637.242C-251.03 656.901 -262.065 684.158 -240.822 725.306L-241.781 725.471C-262.032 686.247 -253.168 659.577 -226.83 640.076C-256.822 658.657 -268.059 685.001 -247.25 725.306L-248.21 725.471C-268.009 687.121 -259.003 661.347 -232.513 642.858C-262.666 660.423 -274.036 685.874 -253.677 725.306L-254.637 725.471C-277.099 681.967 -261.271 655.373 -224.252 637.62C-222.477 636.602 -220.63 635.615 -218.742 634.643C-217.02 633.585 -215.256 632.543 -213.423 631.529C-211.773 630.441 -210.058 629.377 -208.306 628.329C-206.676 627.172 -205.003 626.03 -203.272 624.912C-201.733 623.733 -200.145 622.573 -198.514 621.429C-196.996 620.166 -195.427 618.922 -193.815 617.694C-192.394 616.411 -190.938 615.141 -189.433 613.888C-188.048 612.519 -186.608 611.169 -185.138 609.829C-183.815 608.396 -182.456 606.975 -181.054 605.57C-179.843 604.125 -178.599 602.691 -177.317 601.27C-176.155 599.728 -174.947 598.201 -173.715 596.683C-172.617 595.055 -171.485 593.44 -170.319 591.834C-169.313 590.153 -168.281 588.48 -167.212 586.818C-166.305 585.096 -165.377 583.38 -164.413 581.674C-163.593 579.875 -162.751 578.083 -161.875 576.299C-161.149 574.428 -160.399 572.562 -159.622 570.705C-158.991 568.755 -158.34 566.81 -157.66 564.871C-157.146 562.91 -156.605 560.954 -156.05 559.002C-155.621 556.89 -155.166 554.783 -154.694 552.68C-154.378 550.531 -154.04 548.386 -153.683 546.244C-148.092 486.296 -128.83 428.205 -109.714 370.569C-84.5929 294.836 -59.7352 219.89 -66.5352 142.567C-120.172 99.5964 -182.51 52.352 -254.548 0.360107L-253.769 0C-182.123 51.7084 -120.085 98.7199 -66.6388 141.515C-66.722 140.594 -66.815 139.672 -66.9088 138.75C-118.538 96.8904 -178.597 50.9227 -248.123 0.360107L-247.34 0C-178.212 50.2726 -118.452 96.0037 -67.0128 137.683C-67.1105 136.76 -67.2192 135.836 -67.3245 134.912C-116.935 94.1678 -174.703 49.4821 -241.696 0.358948L-240.909 0.00140381C-174.331 48.8195 -116.868 93.2582 -67.4548 133.812C-67.5648 132.894 -67.6633 131.975 -67.7826 131.057C-115.36 91.4312 -170.83 48.0305 -235.269 0.357483L-234.483 0.00213623C-170.476 47.3554 -115.315 90.499 -67.9402 129.921C-68.0633 128.995 -68.1966 128.068 -68.3295 127.141C-113.85 88.6517 -167.005 46.5496 -228.843 0.356323L-228.052 0.00317383C-166.655 45.8673 -113.806 87.7078 -68.4908 125.985C-68.6292 125.054 -68.7787 124.122 -68.9256 123.19C-112.37 85.8508 -163.219 45.0466 -222.419 0.355103L-221.624 0.00445557C-162.889 44.3448 -112.348 84.8735 -69.1204 121.985C-69.2669 121.084 -69.4045 120.182 -69.5599 119.28C-110.943 83.0612 -159.391 43.5797 -215.992 0.354004L-215.192 0.00549316C-159.066 42.8683 -110.956 82.0522 -69.7892 118.032C-69.9531 117.11 -70.1229 116.188 -70.2965 115.265C-109.573 80.206 -155.653 42.0516 -209.568 0.353271L-208.764 0.00646973C-155.327 41.3356 -109.59 79.183 -70.5288 113.996C-70.7075 113.072 -70.902 112.147 -71.0905 111.222C-108.247 77.3286 -151.942 40.5089 -203.143 0.350647L-202.335 0.00866699C-151.632 39.7764 -108.298 76.2686 -71.3626 109.899C-71.555 108.984 -71.7414 108.069 -71.9418 107.153C-106.963 74.4301 -148.257 38.9528 -196.716 0.349182L-195.904 0.00982666C-147.964 38.2001 -107.051 73.3252 -72.259 105.765C-72.464 104.852 -72.6703 103.939 -72.8856 103.025C-105.749 71.4873 -144.614 37.3712 -190.291 0.347168L-189.475 0.0124512C-144.326 36.6091 -105.85 70.3585 -73.218 101.598C-73.4388 100.684 -73.68 99.7666 -73.9101 98.8514C-104.597 68.509 -141.008 35.7682 -183.864 0.344543L-183.045 0.0146484C-140.739 34.9833 -104.737 67.3292 -74.2893 97.3493C-74.5173 96.4676 -74.7491 95.5858 -74.9864 94.7032C-103.496 65.5395 -137.397 34.1821 -177.442 0.343079L-176.615 0.0166016C-137.19 33.3318 -103.688 64.2551 -75.4441 93.041C-75.6768 92.1975 -75.901 91.3544 -76.1425 90.51C-102.454 62.5345 -133.826 32.572 -171.016 0.33905L-170.182 0.0198975C-133.649 31.6809 -102.702 61.165 -76.6682 88.7198C-76.9106 87.8942 -77.1607 87.0678 -77.4116 86.2415C-101.498 59.4736 -130.308 30.9279 -164.592 0.336853L-163.753 0.0223999C-130.15 30.0054 -101.785 58.0331 -77.9801 84.3435C-78.2289 83.5428 -78.4985 82.7411 -78.7558 81.9402C-100.598 56.3865 -126.829 29.2642 -158.17 0.33252L-157.32 0.0272217C-126.721 28.2736 -100.981 54.7992 -79.4415 79.825C-79.6865 79.0814 -79.9302 78.3378 -80.1828 77.5933C-99.7571 53.2639 -123.39 27.5781 -151.745 0.32782L-150.887 0.0311279C-123.352 26.4929 -100.271 51.4797 -81.0226 75.1856C-81.2591 74.5118 -81.4879 73.838 -81.7295 73.1633C-99.0085 50.0784 -120.013 25.8538 -145.324 0.32312L-144.454 0.0358276C-120.06 24.642 -99.6828 48.0298 -82.7587 70.3613C-82.9719 69.7855 -83.1871 69.2094 -83.4049 68.6326C-98.3615 46.817 -116.695 24.0868 -138.902 0.317017L-138.02 0.0427856C-116.878 22.6727 -99.2756 44.3522 -84.7186 65.2071C-84.8506 64.8702 -84.9894 64.5323 -85.1236 64.1956C-97.7539 43.6099 -113.37 22.3507 -132.481 0.308411L-131.588 0.0509033C-114.053 20.276 -99.4629 39.8405 -87.4091 58.8328C-97.607 39.7656 -110.343 20.2792 -126.062 0.298584L-125.148 0.0609131C-111.673 17.191 -100.389 33.9578 -91.0061 50.4089C-98.5632 33.8665 -108.01 17.1691 -119.642 0.286255L-118.714 0.0734863C-104.883 20.1441 -94.1263 39.9526 -85.9749 59.5476C-84.274 62.7468 -82.6335 65.9367 -81.0732 69.1132C-79.0654 72.5037 -77.1666 75.869 -75.3133 79.2242C-73.0801 82.7002 -70.9169 86.1572 -68.8534 89.5867C-66.3438 93.2292 -63.9088 96.8488 -61.5952 100.431C-58.931 104.108 -56.3925 107.742 -53.9172 111.355C-51.1383 115.031 -48.4469 118.677 -45.8506 122.288C-42.8077 126.156 -39.8544 129.99 -37.0212 133.778C-33.76 137.793 -30.6423 141.752 -27.6096 145.677C-24.4346 149.49 -21.3581 153.263 -18.3856 156.993C-15.1355 160.8 -11.9728 164.571 -8.92264 168.294C-4.95328 172.824 -1.17624 177.271 2.49637 181.672C5.99402 185.614 9.38809 189.508 12.6663 193.352C16.1852 197.247 19.5983 201.095 22.9104 204.897C27.0645 209.417 31.0955 213.883 34.974 218.277C38.8903 222.485 42.6864 226.637 46.3505 230.728C50.3564 234.98 54.2484 239.178 57.9958 243.308C62.1303 247.646 66.1532 251.932 70.0194 256.142C74.0792 260.366 78.0392 264.542 81.8532 268.647C85.8824 272.798 89.8051 276.897 93.597 280.933C97.6814 285.097 101.631 289.195 105.475 293.24C259.562 448.827 242.224 519.683 161.814 556.857C110.102 580.764 32.3552 590.711 -42.6544 600.308C-81.2209 605.242 -119.053 610.087 -152.232 616.69C-148.186 652.021 -137.885 688.138 -118.696 725.306L-119.656 725.471Z" fill="white" fill-opacity="0.46"/>
<g opacity="0.2" filter="url(#filter0_f_1511_4386)">
<circle cx="27.5" cy="466.453" r="266.5" fill="url(#paint0_linear_1511_4386)" fill-opacity="0.8"/>
</g>
</g>
<defs>
<filter id="filter0_f_1511_4386" x="-387" y="51.9531" width="829" height="829" filterUnits="userSpaceOnUse" color-interpolation-filters="sRGB">
<feFlood flood-opacity="0" result="BackgroundImageFix"/>
<feBlend mode="normal" in="SourceGraphic" in2="BackgroundImageFix" result="shape"/>
<feGaussianBlur stdDeviation="74" result="effect1_foregroundBlur_1511_4386"/>
</filter>
<linearGradient id="paint0_linear_1511_4386" x1="114.044" y1="1180.29" x2="-551.575" y2="818.295" gradientUnits="userSpaceOnUse">
<stop stop-color="#7103A4"/>
<stop offset="1" stop-color="#3C0754"/>
</linearGradient>
</defs>
</svg>
