<svg width="42" height="59" viewBox="0 0 42 59" fill="none" xmlns="http://www.w3.org/2000/svg">
<circle cx="20.8495" cy="20.8495" r="10.6466" fill="white"/>
<path d="M20.7422 0C9.29917 0 0 9.2994 0 20.7422C0 24.614 1.07191 28.3823 3.11144 31.6319L19.3361 58.1835C19.6129 58.6329 20.0277 58.9096 20.5118 58.9787C21.1684 59.0823 21.8947 58.8058 22.2749 58.149L38.5459 31.3552C40.4817 28.1749 41.4843 24.4759 41.4843 20.7422C41.4843 9.2994 32.1851 0 20.7422 0ZM20.7422 31.1132C14.9346 31.1132 10.3711 26.4117 10.3711 20.7422C10.3711 15.0379 15.0379 10.3711 20.7422 10.3711C26.4464 10.3711 31.1132 15.0379 31.1132 20.7422C31.1132 26.3771 26.619 31.1132 20.7422 31.1132Z" fill="#F57A00"/>
</svg>
