<svg width="112" height="81" viewBox="0 0 112 81" fill="none" xmlns="http://www.w3.org/2000/svg">
<path d="M101.933 7.35534C108.225 13.8259 112 20.8848 112 32.6495C112 53.2377 96.2697 71.473 74.2472 80.8848L68.5843 73.2377C89.3483 62.6495 93.7528 49.1201 95.0112 40.2965C91.8652 42.0612 87.4607 42.6495 83.0562 42.0612C71.7303 40.8848 62.9213 32.6495 62.9213 21.473C62.9213 16.1789 65.4382 10.8848 69.2135 6.76712C73.618 2.64947 78.6517 0.884761 84.9438 0.88476C91.8652 0.88476 98.1573 3.82593 101.933 7.35534ZM39.0112 7.35535C45.3034 13.8259 49.0787 20.8848 49.0787 32.6495C49.0787 53.2377 33.3483 71.473 11.3258 80.8848L5.66293 73.2377C26.427 62.6495 30.8314 49.1201 32.0899 40.2965C28.9438 42.0612 24.5393 42.6495 20.1348 42.0612C8.80899 40.8848 4.0274e-06 32.6495 3.19279e-06 21.473C2.79745e-06 16.1789 2.51686 10.8848 6.29214 6.76712C10.0674 2.64948 15.7303 0.884766 22.0225 0.884766C28.9438 0.884765 35.2359 3.82593 39.0112 7.35535Z" fill="url(#paint0_linear_1479_176)"/>
<defs>
<linearGradient id="paint0_linear_1479_176" x1="129" y1="-14.5" x2="8.89578e-06" y2="40.8852" gradientUnits="userSpaceOnUse">
<stop stop-color="#F57A00"/>
<stop offset="1" stop-color="#7103A4"/>
</linearGradient>
</defs>
</svg>
