<svg width="665" height="429" viewBox="0 0 665 429" fill="none" xmlns="http://www.w3.org/2000/svg">
<path d="M338.5 429C518.821 429 665 418.703 665 406C665 393.297 518.821 383 338.5 383C158.179 383 12 393.297 12 406C12 418.703 158.179 429 338.5 429Z" fill="#1B1B1B"/>
<path fill-rule="evenodd" clip-rule="evenodd" d="M94.7095 166.451C100.841 167.773 106.567 170.19 111.67 173.483C111.71 173.434 111.753 173.389 111.794 173.346L120.287 164.857C121.288 163.857 122.922 163.857 123.926 164.857L135.705 176.64C136.709 177.64 136.709 179.277 135.705 180.278L127.215 188.767L127.082 188.891C130.375 193.998 132.791 199.722 134.113 205.853L134.292 205.847H146.296C147.712 205.847 148.87 207.002 148.87 208.418V225.078C148.87 226.495 147.712 227.653 146.296 227.653H134.292C134.232 227.653 134.171 227.65 134.11 227.646C132.788 233.777 130.375 239.501 127.082 244.604C127.127 244.647 127.173 244.689 127.218 244.732L135.705 253.221C136.709 254.222 136.709 255.859 135.705 256.86L123.926 268.642C122.925 269.643 121.288 269.643 120.287 268.642L111.798 260.152L111.67 260.017C106.567 263.312 100.844 265.725 94.7125 267.05L94.719 267.226V279.233C94.719 280.648 93.5605 281.804 92.1445 281.804H75.484C74.0677 281.804 72.9095 280.648 72.9095 279.233V267.226C72.9095 267.166 72.9161 267.105 72.9181 267.047C66.7883 265.725 61.0635 263.309 55.9573 260.017C55.9189 260.065 55.8761 260.11 55.8332 260.152L47.3437 268.642C46.3435 269.643 44.7061 269.643 43.7027 268.642L31.923 256.86C30.9229 255.859 30.9229 254.222 31.923 253.221L40.4125 244.732L40.5462 244.607C37.254 239.501 34.8366 233.777 33.5144 227.647L33.339 227.653H21.3326C19.9163 227.653 18.7581 226.498 18.7581 225.082V208.42C18.7581 207.005 19.9166 205.847 21.3326 205.847H33.339C33.3968 205.847 33.4578 205.85 33.5144 205.853C34.8363 199.722 37.2537 193.998 40.5462 188.894C40.5 188.853 40.4554 188.81 40.4125 188.767L31.923 180.278C30.9196 179.277 30.9196 177.64 31.923 176.64L43.7027 164.857C44.7061 163.857 46.3403 163.857 47.3404 164.857L55.8299 173.346C55.8758 173.392 55.9186 173.434 55.9573 173.483C61.0605 170.19 66.785 167.774 72.9161 166.451C72.9128 166.394 72.9095 166.334 72.9095 166.273V154.266C72.9095 152.85 74.068 151.695 75.484 151.695H92.1445C93.5608 151.695 94.719 152.85 94.719 154.266V166.273C94.719 166.334 94.7158 166.394 94.7095 166.451ZM83.8155 184.004C65.7304 184.004 51.0702 198.664 51.0702 216.749C51.0702 234.836 65.7304 249.495 83.8155 249.495C101.898 249.495 116.559 234.835 116.559 216.749C116.559 198.664 101.898 184.004 83.8155 184.004Z" fill="url(#paint0_linear_1554_5)"/>
<path d="M92.3006 225.237C96.9894 220.548 96.9894 212.946 92.3007 208.257C87.6119 203.569 80.0099 203.569 75.3212 208.257C70.6324 212.946 70.6324 220.548 75.3212 225.237C80.0099 229.926 87.6119 229.926 92.3006 225.237Z" fill="url(#paint1_linear_1554_5)"/>
<path fill-rule="evenodd" clip-rule="evenodd" d="M82.561 347.998H334.88H337.502H589.821V346.761H337.502H334.88H82.561V347.998Z" fill="#3B3B3B"/>
<path fill-rule="evenodd" clip-rule="evenodd" d="M334.88 347.998H82.561V357.358C87.9571 357.522 92.3843 357.604 95.0103 357.604H334.88H337.503H577.372C579.998 357.604 584.422 357.522 589.822 357.358V347.998H337.503H334.88Z" fill="#4A454B"/>
<path fill-rule="evenodd" clip-rule="evenodd" d="M148.3 332.966H524.083V111.027H151.198C149.631 111.027 148.3 112.358 148.3 113.926V332.966Z" fill="url(#paint2_linear_1554_5)"/>
<path fill-rule="evenodd" clip-rule="evenodd" d="M148.3 332.966H524.083V111.027H151.198C149.631 111.027 148.3 112.358 148.3 113.926V332.966Z" fill="white" fill-opacity="0.22"/>
<path fill-rule="evenodd" clip-rule="evenodd" d="M141.989 346.53H534.434H535.635C537.141 346.53 538.372 345.299 538.372 343.795V330.239V110.001C538.372 102.849 532.521 97 525.371 97H151.694C142.51 97 135 104.514 135 113.695V330.239V344.514C135 345.623 135.906 346.53 137.013 346.53H141.989ZM524.578 330.239V332.734H148.795V330.239V113.695C148.795 112.127 150.127 110.796 151.694 110.796H524.578V330.239Z" fill="#1D1D1D"/>
<path fill-rule="evenodd" clip-rule="evenodd" d="M346.496 37.3708C374.044 51.4267 403.409 60.1291 434.308 62.2449L455.432 63.6909V106.949L455.414 107.373C452.23 192.633 422.692 267.872 348.296 314.85L336.19 322.49L324.086 314.85C249.69 267.872 220.149 192.633 216.966 107.373L216.95 106.949V63.6909L238.074 62.2449C268.973 60.1291 298.335 51.4267 325.887 37.3708L336.19 32.1138L346.496 37.3708Z" fill="url(#paint3_linear_1554_5)"/>
<path fill-rule="evenodd" clip-rule="evenodd" d="M336.19 307.158C403.646 267.026 439.098 200.21 442.545 106.709V75.5402C405.916 74.4889 370.463 64.8162 336.19 46.5248C301.916 64.8165 266.462 74.4889 229.833 75.5402V106.709C233.284 200.21 268.737 267.026 336.19 307.158Z" fill="white"/>
<path fill-rule="evenodd" clip-rule="evenodd" d="M336.19 57.5665C305.808 73.0664 273.542 82.5411 239.623 84.8644V106.528C242.555 185.062 268.846 253.155 336.19 295.679C403.533 253.155 429.823 185.062 432.758 106.528V84.8644C398.836 82.5411 366.57 73.0664 336.19 57.5665Z" fill="url(#paint4_linear_1554_5)"/>
<path fill-rule="evenodd" clip-rule="evenodd" d="M311.576 201.869H361.252C369.375 201.869 376.017 195.225 376.017 187.103V147.053C376.017 145.944 375.114 145.04 374.004 145.04H298.377C297.267 145.04 296.364 145.943 296.364 147.053V186.657C296.365 195.025 303.207 201.869 311.576 201.869Z" fill="white"/>
<path fill-rule="evenodd" clip-rule="evenodd" d="M311.397 143.387C311.397 129.75 322.554 118.595 336.19 118.595C349.828 118.595 360.981 129.75 360.981 143.387V144.703H365.73C366.952 144.703 368.143 144.831 369.295 145.073V143.387C369.295 125.162 354.415 110.282 336.19 110.282C317.964 110.282 303.083 125.162 303.083 143.387V145.179C304.398 144.867 305.769 144.703 307.176 144.703H311.397L311.397 143.387Z" fill="white"/>
<path fill-rule="evenodd" clip-rule="evenodd" d="M339.252 169.36L343.609 184.992H337.739H334.64H328.773L333.13 169.36C332.333 168.571 331.839 167.476 331.839 166.266C331.839 163.862 333.789 161.913 336.19 161.913C338.594 161.913 340.544 163.862 340.544 166.266C340.543 167.476 340.049 168.571 339.252 169.36Z" fill="url(#paint5_linear_1554_5)"/>
<path fill-rule="evenodd" clip-rule="evenodd" d="M390.205 294.914L410.106 313.203H513.194V311.975H410.582L390.553 293.572H390.205V294.914Z" fill="url(#paint6_linear_1554_5)"/>
<path fill-rule="evenodd" clip-rule="evenodd" d="M402.241 271.519H436.361L456.39 289.926H470.161V288.698H456.866L436.837 270.295H403.2C402.881 270.704 402.56 271.113 402.241 271.519Z" fill="url(#paint7_linear_1554_5)"/>
<path fill-rule="evenodd" clip-rule="evenodd" d="M417.126 249.493H481.055L492.965 238.668H531.72L543.899 250.847H582.318V249.62H544.408L532.229 237.44H492.491L480.585 248.267H417.835C417.602 248.676 417.362 249.086 417.126 249.493Z" fill="url(#paint8_linear_1554_5)"/>
<path fill-rule="evenodd" clip-rule="evenodd" d="M451.766 147.557H555.415V146.329H451.95L451.766 147.557Z" fill="url(#paint9_linear_1554_5)"/>
<path fill-rule="evenodd" clip-rule="evenodd" d="M467.578 190.419H521.044L529.976 210.449H576.55L583.588 189.61H653.794V188.382H582.711L575.675 209.221H530.768L521.835 189.195H467.578V190.419Z" fill="url(#paint10_linear_1554_5)"/>
<path fill-rule="evenodd" clip-rule="evenodd" d="M516.36 317.894C519.425 317.894 521.911 315.411 521.911 312.349C521.911 309.283 519.425 306.796 516.36 306.796C513.297 306.796 510.814 309.283 510.814 312.349C510.814 315.411 513.297 317.894 516.36 317.894Z" fill="url(#paint11_linear_1554_5)"/>
<path fill-rule="evenodd" clip-rule="evenodd" d="M474.139 294.077C477.201 294.077 479.688 291.594 479.688 288.529C479.688 285.464 477.201 282.98 474.139 282.98C471.073 282.98 468.59 285.464 468.59 288.529C468.591 291.594 471.073 294.077 474.139 294.077Z" fill="url(#paint12_linear_1554_5)"/>
<path fill-rule="evenodd" clip-rule="evenodd" d="M586.192 255.913C589.254 255.913 591.741 253.431 591.741 250.365C591.741 247.303 589.254 244.817 586.192 244.817C583.126 244.817 580.644 247.303 580.644 250.365C580.644 253.431 583.126 255.913 586.192 255.913Z" fill="url(#paint13_linear_1554_5)"/>
<path fill-rule="evenodd" clip-rule="evenodd" d="M659.382 194.534C662.444 194.534 664.93 192.051 664.93 188.985C664.93 185.921 662.444 183.437 659.382 183.437C656.316 183.437 653.833 185.921 653.833 188.985C653.833 192.051 656.316 194.534 659.382 194.534Z" fill="url(#paint14_linear_1554_5)"/>
<path fill-rule="evenodd" clip-rule="evenodd" d="M561.227 152.425C564.289 152.425 566.775 149.943 566.775 146.877C566.775 143.812 564.289 141.328 561.227 141.328C558.162 141.328 555.678 143.812 555.678 146.877C555.678 149.943 558.162 152.425 561.227 152.425Z" fill="url(#paint15_linear_1554_5)"/>
<path fill-rule="evenodd" clip-rule="evenodd" d="M275.492 294.914L255.587 313.203H152.499V311.975H255.111L275.144 293.572H275.492V294.914Z" fill="url(#paint16_linear_1554_5)"/>
<path fill-rule="evenodd" clip-rule="evenodd" d="M263.455 271.519H229.333L209.303 289.926H195.533V288.698H208.83L228.857 270.295H262.497C262.812 270.704 263.134 271.113 263.455 271.519Z" fill="url(#paint17_linear_1554_5)"/>
<path fill-rule="evenodd" clip-rule="evenodd" d="M248.568 249.493H184.639L172.729 238.668H133.974L121.794 250.847H83.3759V249.62H121.285L133.465 237.44H173.201L185.112 248.267H247.859C248.092 248.676 248.331 249.086 248.568 249.493Z" fill="url(#paint18_linear_1554_5)"/>
<path fill-rule="evenodd" clip-rule="evenodd" d="M213.927 147.557H110.279V146.329H213.745L213.927 147.557Z" fill="url(#paint19_linear_1554_5)"/>
<path fill-rule="evenodd" clip-rule="evenodd" d="M198.116 190.419H144.65L135.72 210.449H89.1431L82.1051 189.61H11.9028V188.382H82.982L90.0192 209.221H134.926L143.858 189.195H198.116V190.419Z" fill="url(#paint20_linear_1554_5)"/>
<path fill-rule="evenodd" clip-rule="evenodd" d="M149.334 317.894C146.268 317.894 143.786 315.411 143.786 312.349C143.786 309.283 146.268 306.796 149.334 306.796C152.396 306.796 154.882 309.283 154.882 312.349C154.882 315.411 152.396 317.894 149.334 317.894Z" fill="url(#paint21_linear_1554_5)"/>
<path fill-rule="evenodd" clip-rule="evenodd" d="M191.554 294.077C188.492 294.077 186.009 291.594 186.009 288.529C186.009 285.464 188.492 282.98 191.554 282.98C194.62 282.98 197.103 285.464 197.103 288.529C197.103 291.594 194.619 294.077 191.554 294.077Z" fill="url(#paint22_linear_1554_5)"/>
<path fill-rule="evenodd" clip-rule="evenodd" d="M79.5038 255.913C76.4384 255.913 73.9556 253.431 73.9556 250.365C73.9556 247.303 76.4381 244.817 79.5038 244.817C82.5662 244.817 85.0529 247.303 85.0529 250.365C85.0529 253.431 82.5659 255.913 79.5038 255.913Z" fill="url(#paint23_linear_1554_5)"/>
<path fill-rule="evenodd" clip-rule="evenodd" d="M6.31184 194.534C3.24944 194.534 0.763611 192.051 0.763611 188.985C0.763611 185.921 3.24944 183.437 6.31184 183.437C9.37723 183.437 11.863 185.921 11.863 188.985C11.8633 192.051 9.37752 194.534 6.31184 194.534Z" fill="url(#paint24_linear_1554_5)"/>
<path fill-rule="evenodd" clip-rule="evenodd" d="M104.466 152.425C101.404 152.425 98.9206 149.943 98.9206 146.877C98.9206 143.812 101.404 141.328 104.466 141.328C107.532 141.328 110.018 143.812 110.018 146.877C110.018 149.943 107.532 152.425 104.466 152.425Z" fill="url(#paint25_linear_1554_5)"/>
<path fill-rule="evenodd" clip-rule="evenodd" d="M537.041 392.884C536.671 394.827 536.216 396.792 536.167 399.094C537.234 400.567 538.814 401.707 540.609 402.469C542.513 403.275 544.654 403.66 546.692 403.578C548.705 403.496 550.606 402.953 552.052 401.91C553.101 401.153 553.914 400.122 554.35 398.806C553.422 396.183 551.837 393.042 550.597 391.69C550.139 390.376 549.511 389.349 548.778 388.57C544.884 384.434 537.277 387.302 537.041 392.884Z" fill="white"/>
<path fill-rule="evenodd" clip-rule="evenodd" d="M501.053 375.805C502.897 373.451 506.784 373.248 512.712 375.198C512.658 380.898 513.13 384.621 514.125 386.374C505.338 388.755 500.766 388.042 500.408 384.237C501.26 381.189 501.475 378.595 501.053 375.805Z" fill="#FCAB8D"/>
<path fill-rule="evenodd" clip-rule="evenodd" d="M504.704 398.439L505.984 398.724L515.431 396.225V393.524C507.181 396.247 499.92 397.978 493.701 398.581C487.786 399.157 482.805 398.709 478.799 397.126C478.845 397.641 478.929 398.181 479.05 398.748C484.742 401.168 493.314 400.97 504.704 398.439Z" fill="#202020"/>
<path fill-rule="evenodd" clip-rule="evenodd" d="M505.411 382.9C507.852 386.562 510.698 387.056 513.955 384.386C515.295 387.075 515.847 389.973 515.553 393.345C507.191 396.129 499.862 397.86 493.616 398.466C487.652 399.043 482.679 398.603 478.762 396.947C479.02 393.511 483.474 392.611 489.337 391.346C496.515 389.71 498.012 384.261 500.107 382.263C502.621 381.814 504.392 382.027 505.411 382.9Z" fill="white"/>
<path fill-rule="evenodd" clip-rule="evenodd" d="M478.799 397.126C478.72 397.065 478.708 397.005 478.763 396.947C482.68 398.603 487.652 399.043 493.617 398.466C499.862 397.86 507.191 396.129 515.553 393.345C515.572 393.43 515.532 393.49 515.431 393.524C507.182 396.247 499.92 397.978 493.701 398.581C487.786 399.157 482.805 398.709 478.799 397.126Z" fill="white"/>
<path fill-rule="evenodd" clip-rule="evenodd" d="M528.421 164.065C527.545 162.313 527.284 162.473 524.158 162.288C521.032 162.073 508.213 161.809 505.963 166.003C503.713 170.196 504.723 175.532 512.218 175.266C519.713 175.027 528.421 164.065 528.421 164.065Z" fill="#EADCED"/>
<path fill-rule="evenodd" clip-rule="evenodd" d="M494.593 238.286C494.542 239.599 492.258 244.543 492.228 245.763C491.837 259.215 492.189 264.449 492.179 267.981C492.174 271.844 494.499 316.038 497.3 325.704C499.226 332.302 499.541 350.652 499.168 362.361C498.905 370.593 496.573 375.962 497.3 383.642C497.467 384.185 508.78 386.699 516.165 386.777C516.165 386.777 517.378 380.104 517.509 374.422C518.069 350.515 518.403 343.914 516.327 328.169C515.565 322.423 517.312 287.364 517.327 281.562C517.336 277.244 525.083 322.362 528.821 335.901C528.821 335.901 534.976 364.519 533.376 376.978C531.948 388.196 535.291 391.092 535.291 391.092C535.291 391.092 548.336 394.333 552.647 389.943C552.89 386.083 552.89 382.536 552.055 375.55C551.024 366.848 549.839 346.907 547.793 333.487C545.279 316.933 544.83 286.934 543.915 269.549C543.024 252.16 537.914 243.789 535.995 240.314C534.06 236.834 494.593 238.289 494.593 238.286Z" fill="#1B1425"/>
<path fill-rule="evenodd" clip-rule="evenodd" d="M508.746 157.005C509.91 159.873 510.635 166.491 508.652 168.631C508.598 169.241 505.654 170.781 505.524 171.391C504.671 174.736 515.293 194.401 517.154 194.03C519.041 193.658 526.484 166.428 526.484 166.428C524.164 164.25 522.387 156.446 522.296 150.74C522.22 147.844 508.746 157.005 508.746 157.005Z" fill="#FCAB8D"/>
<path fill-rule="evenodd" clip-rule="evenodd" d="M506.411 168.499C505.502 177.44 510.062 187.03 512.645 186.775C514.965 185.59 527.578 167.947 528.429 166.045C529.136 166.831 533.551 170.715 533.551 170.715L536.57 250.429C522.657 251.696 509.229 251.939 497.039 249.549L497.837 171.758L506.411 168.499Z" fill="#F0E6F1"/>
<path fill-rule="evenodd" clip-rule="evenodd" d="M499.311 264.14C499.657 260.504 500.032 217.532 500.192 209.091C500.796 176.673 508.644 166.719 503.987 168.874C499.751 170.848 493.965 173.613 490.66 174.359C489.536 174.617 490.267 181.533 490.267 181.533C490.267 181.533 491.331 198.066 492.068 200.332C492.798 202.621 492.247 217.417 492.104 222.735C492.016 225.754 488.089 252.694 487.649 264.543C487.631 264.983 487.929 265.822 489.184 266.214C489.184 266.214 498.807 269.415 499.311 264.14Z" fill="#7103A4"/>
<path fill-rule="evenodd" clip-rule="evenodd" d="M525.152 268.002C525.616 272.711 543.987 268.206 544.842 268.121C546.097 267.996 546.967 266.832 546.958 266.341C546.765 251.36 541.792 227.65 541.631 221.003C541.498 215.692 543.98 203.882 544.742 201.596C545.484 199.312 549.714 171.897 547.613 171.472C541.655 170.272 541.397 170.651 530.886 166.066C530.886 166.066 524.009 202.039 524.464 229.108C524.516 232.492 523.4 250.135 525.152 268.002Z" fill="#7103A4"/>
<path fill-rule="evenodd" clip-rule="evenodd" d="M527.35 162.686C527.657 164.486 525.419 169.387 521.113 174.177C521.113 174.174 524.082 173.653 524.7 175.166C525.325 176.694 531.219 179.453 531.219 179.453C531.219 179.453 532.78 166.706 532.017 166.319C529.713 165.124 527.35 162.686 527.35 162.686Z" fill="white"/>
<path fill-rule="evenodd" clip-rule="evenodd" d="M500.763 179.39C502.564 174.926 506.851 174.809 507.621 175.599C508.379 176.382 505.459 165.676 507.003 164.881C504.241 166.524 502.959 168.754 502.959 168.754L500.763 179.39Z" fill="white"/>
<path fill-rule="evenodd" clip-rule="evenodd" d="M506.208 174.468C506.396 177.037 506.008 179.398 506.008 179.398C506.008 179.395 511.754 187.494 511.739 193.797C511.73 200.107 512.139 186.511 512.139 186.511C512.139 186.511 508.376 178.682 508.003 176.709C507.621 174.738 507.373 172.901 507.373 172.901L506.208 174.468Z" fill="white"/>
<path fill-rule="evenodd" clip-rule="evenodd" d="M521.86 173.125C522.214 172.847 519.222 176.13 516.662 180.208C515.119 182.664 512.424 185.723 512.139 186.511C511.848 187.294 511.736 195.477 511.736 195.477C511.736 195.477 512.221 190.153 514.25 187.3C516.266 184.447 522.136 175.991 523.093 176.478C524.055 176.973 523.779 172.191 524.837 171.801C525.895 171.409 521.86 173.125 521.86 173.125Z" fill="white"/>
<path fill-rule="evenodd" clip-rule="evenodd" d="M547.613 171.472C554.929 172.346 561.358 197.212 563.077 204.273C563.288 205.128 565.151 207.253 565.317 208.114C566.16 212.511 565.402 215.477 564.429 219.331C564.429 219.331 564.168 223.051 562.67 223.038C561.166 223.038 556.172 223.032 550.685 220.973C545.203 218.906 528.752 204.528 528.752 204.528C528.403 203.69 528.454 192.163 530.252 190.905C532.254 190.213 544.612 198.082 544.612 198.082C544.612 198.082 543.175 196.247 542.92 194.407C542.929 191.33 545.069 176.676 547.613 171.472Z" fill="#8D1AC2"/>
<path fill-rule="evenodd" clip-rule="evenodd" d="M515.823 185.717C515.231 185.921 513.4 186.032 512.194 187.47C510.544 189.423 509.001 191.538 509.349 192.418C509.901 193.837 513.243 189.479 513.243 189.479L515.895 188.992C515.895 188.992 513.676 189.995 512.182 191.557C510.678 193.136 510.22 194.834 510.708 195.992C511.093 196.933 512.255 194.67 513.728 193.582C514.914 192.694 515.426 192.784 515.426 192.784C515.423 192.784 514.525 193.421 513.595 194.303C512.551 195.304 511.366 195.938 511.427 196.99C511.46 198.021 513.473 196.602 515.259 195.538C516.641 194.719 518.021 194.946 518.021 194.946C518.021 194.946 516.599 195.086 515.286 195.85C513.909 196.653 512.567 197.663 512.906 198.426C513.279 199.254 514.853 198.196 516.651 197.59C518.015 197.12 519.692 197.636 520.465 197.335C521.936 196.795 522.688 197.124 523.048 195.28C523.106 194.946 523.005 194.539 522.975 193.918C522.951 193.536 523.491 192.642 523.354 191.477C523.263 190.562 522.232 189.643 522.326 189.034C522.672 186.914 521.257 187.012 520.887 186.645C520.25 186.035 520.11 184.265 515.823 185.717Z" fill="#FCAB8D"/>
<path fill-rule="evenodd" clip-rule="evenodd" d="M523.59 157.25C529.982 156.435 531.447 146.359 527.771 147.63C531.853 128.094 508.521 125.195 502.894 140.153C502.227 143.33 501.921 145.953 502.106 147.384C502.349 149.286 503.155 148.879 502.742 150.446C501.888 153.709 501.757 154.504 504.143 159.494C504.886 161.043 504.765 162.914 505.902 164.358C507.351 166.192 511.099 166.013 514.439 164.979C522.242 162.561 520.519 161.51 523.59 157.25Z" fill="#FCAB8D"/>
<path fill-rule="evenodd" clip-rule="evenodd" d="M518.9 147.714C518.652 147.562 518.399 147.423 518.145 147.292C517.89 147.162 517.633 147.038 517.373 146.919C516.854 146.683 516.323 146.468 515.786 146.274C515.517 146.173 515.244 146.089 514.974 145.998C514.698 145.916 514.425 145.828 514.146 145.759C513.588 145.613 513.025 145.483 512.427 145.413L512.354 145.4L512.291 145.413C512.07 145.443 511.854 145.483 511.642 145.54C511.43 145.592 511.221 145.658 511.017 145.734C510.611 145.883 510.226 146.076 509.862 146.298C509.499 146.516 509.159 146.772 508.844 147.05C508.532 147.332 508.241 147.635 508.001 147.983C508.383 147.811 508.753 147.648 509.125 147.489C509.492 147.335 509.862 147.19 510.229 147.062C510.596 146.929 510.963 146.816 511.33 146.722L511.878 146.601L512.154 146.555L512.427 146.519H512.291C512.812 146.592 513.357 146.701 513.898 146.81L515.538 147.15C516.089 147.262 516.641 147.372 517.203 147.469C517.76 147.565 518.325 147.656 518.9 147.714Z" fill="#202020"/>
<path fill-rule="evenodd" clip-rule="evenodd" d="M506.048 147.896C505.793 147.674 505.517 147.508 505.233 147.353C504.95 147.202 504.659 147.074 504.359 146.968C504.059 146.859 503.749 146.771 503.435 146.704C503.116 146.644 502.795 146.598 502.449 146.61H502.346L502.324 146.619L502.027 146.81L501.806 147.08L501.688 147.689L502.109 147.356L502.513 147.247L502.389 147.259C502.667 147.326 502.964 147.411 503.255 147.487C503.547 147.562 503.847 147.635 504.151 147.699C504.457 147.763 504.762 147.814 505.078 147.854C505.39 147.887 505.711 147.914 506.048 147.896Z" fill="#202020"/>
<path fill-rule="evenodd" clip-rule="evenodd" d="M506.036 155.067C506.757 154.557 507.324 153.708 507.533 153.029C506.796 153.864 506.014 154.652 505.142 154.619C504.798 155.328 506.011 156.098 507.376 156.353C506.515 155.952 505.808 155.309 506.036 155.067Z" fill="#FF7760"/>
<path fill-rule="evenodd" clip-rule="evenodd" d="M507.533 153.029C506.796 153.863 506.014 154.651 505.142 154.618C505.089 154.724 505.074 154.837 505.089 154.946C505.836 154.942 506.533 154.56 507.178 153.799C507.336 153.539 507.457 153.272 507.533 153.029Z" fill="#FF8C72"/>
<path fill-rule="evenodd" clip-rule="evenodd" d="M528.948 150.307C529.094 149.324 528.645 148.539 528.063 148.35C527.274 148.154 526.329 148.706 525.628 149.654C524.919 150.679 524.798 151.507 524.65 152.868C524.506 153.85 523.761 154.415 523.142 154.455C523.142 154.455 522.542 154.724 522.779 155.194C523.015 155.666 523.57 155.012 524.064 155.118C524.561 155.225 525.253 155.721 526.659 154.815C528.066 153.908 528.624 152.189 528.86 150.91L528.948 150.307Z" fill="#FF957B"/>
<path fill-rule="evenodd" clip-rule="evenodd" d="M525.253 154.136C525.51 153.703 525.55 153.005 525.482 152.538C525.406 152.022 525.1 151.698 525.513 151.158C525.783 150.807 526.231 150.953 526.398 151.28C526.58 151.634 526.608 152.083 526.525 152.559C526.486 152.793 526.426 153.024 526.362 153.25C526.335 153.356 526.223 153.584 526.256 153.687C526.32 153.888 526.438 153.536 526.477 153.427C526.608 153.06 526.705 152.62 526.732 152.232C526.783 151.565 526.456 151.137 526.58 150.47C526.856 148.97 528.13 148.717 528.705 149.527C528.83 149.955 528.857 150.504 528.836 151.037C528.845 150.995 528.854 150.953 528.86 150.91L528.948 150.307C529.094 149.324 528.645 148.539 528.063 148.35C527.274 148.154 526.329 148.706 525.628 149.654C524.919 150.679 524.798 151.507 524.65 152.868C524.543 153.584 524.121 154.075 523.661 154.306C524.076 154.818 524.813 154.873 525.253 154.136Z" fill="#FF8C72"/>
<path fill-rule="evenodd" clip-rule="evenodd" d="M526.659 154.815C527.933 153.993 528.508 152.508 528.784 151.285C527.429 154.666 525.177 155.2 524.625 155.281C525.083 155.397 525.707 155.428 526.659 154.815Z" fill="#FF7760"/>
<path fill-rule="evenodd" clip-rule="evenodd" d="M528.951 150.307C529.1 149.337 528.727 148.57 528.155 148.291C527.491 147.969 526.614 148.473 525.99 149.094C525.312 149.764 524.883 150.737 524.697 151.826C524.595 152.447 524.613 153.08 524.294 153.624C524 154.118 523.534 154.339 523.139 154.406C523.099 154.412 523.093 154.51 523.132 154.506C523.645 154.497 524.294 154.143 524.588 153.391C524.77 152.935 524.776 152.423 524.846 151.941C524.925 151.389 525.064 150.862 525.301 150.37C525.791 149.345 526.611 148.654 527.396 148.451C528.25 148.233 529.082 148.945 528.948 150.307C528.948 150.31 528.951 150.312 528.951 150.307Z" fill="#FF7760"/>
<path fill-rule="evenodd" clip-rule="evenodd" d="M521.442 138.512C519.485 138.588 518.779 141.277 515.335 140.277C515.335 140.277 517.294 140.125 518.076 139.203C518.076 139.203 516.511 139.125 515.413 139.816C514.319 140.507 513.301 141.353 511.187 140.662L510.639 140.431C510.639 140.431 509.543 140.583 508.837 140.277C508.837 140.277 510.639 140.122 511.266 139.125C511.266 139.125 508.213 140.507 506.724 140.583C505.238 140.659 506.411 140.659 506.411 140.659C506.411 140.659 504.22 141.89 505.16 143.042C505.16 143.042 504.374 141.966 504.923 140.738C504.923 140.738 503.661 142.581 502.488 142.657C502.488 142.657 502.647 143.387 502.41 144.385C502.176 145.386 502.019 146.844 502.331 147.845C502.643 148.843 502.612 149.763 502.376 150.686C502.376 150.686 502.331 148.997 501.627 148.572L501.079 148.535C501.079 148.535 501.197 148.305 501.273 147.921C501.351 147.535 501.312 146.653 501.158 146.038C501 145.422 500.609 144.27 500.573 142.849C500.573 142.849 499.633 142.578 499.32 141.39C499.32 141.39 500.494 142.581 501.667 141.772C501.667 141.772 499.836 141.39 499.523 140.083C499.523 140.083 497.664 138.633 498.01 137.269C498.01 137.269 498.271 137.97 499.132 138.315C497.525 136.584 498.158 135.017 498.756 134.522C498.756 134.522 498.026 135.813 499.665 137.036C499.665 137.036 499.444 135.511 500.778 134.628C502.106 133.743 501.991 132.896 502.303 132.205C502.619 131.515 503.947 131.478 503.947 131.478C503.947 131.478 504.496 129.48 507.003 129.325C507.003 129.325 505.787 129.786 505.629 131.132C505.629 131.132 507.039 129.94 508.409 129.634C509.78 129.328 510.562 128.752 511.424 128.406C512.285 128.061 513.891 128.867 513.891 128.867C513.891 128.867 513.694 127.099 511.779 127.37C511.779 127.37 514.086 126.448 515.808 129.097C515.808 129.097 517.218 128.37 515.144 126.793C515.144 126.793 516.905 126.793 517.648 128.522C517.648 128.522 517.806 127.755 517.297 127.024C517.297 127.024 518.351 127.178 518.821 128.37C518.821 128.37 518.588 127.755 518.861 127.218C518.861 127.218 519.059 127.909 519.801 128.406C520.544 128.907 522.463 129.943 523.949 130.559C523.949 130.559 524.771 130.868 525.123 131.48C525.123 131.48 525.829 131.405 526.299 132.175C526.299 132.175 527.942 132.326 528.412 133.827C528.412 133.827 527.824 132.942 526.69 133.136C526.69 133.136 528.215 133.827 529.037 135.02C529.859 136.208 529.741 137.938 529.741 137.938C529.741 137.938 529.468 136.747 528.724 136.247C528.724 136.247 529.701 137.975 529.701 139.166C529.701 140.358 529.152 141.549 529.152 141.549C529.152 141.549 529.349 142.627 528.761 143.433C528.761 143.433 527.939 145.391 527.979 146.543C528.015 147.695 528.301 147.226 528.356 147.52C527.733 147.111 524.914 148.32 525.12 149.233C525.141 149.482 525.004 149.751 524.844 150.27C524.844 150.27 524.14 151.153 523.71 152.959C523.71 152.959 523.591 153.341 522.34 153.42C522.34 153.42 523.477 150.576 522.809 146.043C522.809 146.043 521.715 145.237 521.403 144.237C521.403 144.237 521.248 142.893 521.403 141.586C521.559 140.28 521.442 138.512 521.442 138.512Z" fill="#202020"/>
<path fill-rule="evenodd" clip-rule="evenodd" d="M529.457 141.55C529.457 141.55 529.652 142.627 529.067 143.433C529.067 143.433 527.938 145.392 527.978 146.544C528.014 147.696 528.181 147.317 528.354 147.52C527.817 147.544 524.925 148.781 525.119 149.233C525.14 149.482 524.955 149.418 524.843 150.27C524.843 150.27 524.139 151.153 523.709 152.959C523.709 152.959 523.59 153.341 522.339 153.421C522.339 153.421 523.476 150.576 522.808 146.043C522.808 146.043 521.714 145.237 521.402 144.237C521.402 144.237 521.247 142.894 521.402 141.586C521.559 140.281 521.441 138.512 521.441 138.512C519.485 138.588 518.779 141.278 515.335 140.277C515.335 140.277 517.293 140.126 518.075 139.203C518.075 139.203 516.51 139.125 515.413 139.816C514.319 140.507 513.3 141.353 511.187 140.662L510.638 140.431C510.638 140.431 509.543 140.583 508.837 140.277C508.837 140.277 510.638 140.122 511.266 139.125C511.266 139.125 508.212 140.507 506.723 140.583C505.238 140.659 506.411 140.659 506.411 140.659C506.411 140.659 504.631 141.659 504.968 142.7C504.777 142.287 504.565 141.545 504.922 140.738C504.922 140.738 503.661 142.581 502.488 142.657C502.488 142.657 502.646 143.388 502.41 144.386C502.176 145.386 502.018 146.845 502.331 147.845C502.643 148.843 502.612 149.764 502.376 150.686C502.376 150.686 502.331 148.997 501.627 148.572L501.078 148.536C501.078 148.536 501.197 148.306 501.273 147.921C501.351 147.536 501.312 146.653 501.158 146.038C500.999 145.422 500.609 144.27 500.572 142.849C500.572 142.849 499.632 142.578 499.32 141.39C499.32 141.39 500.493 142.582 501.667 141.772C501.667 141.772 499.835 141.39 499.523 140.083C499.523 140.083 499.029 139.756 498.598 138.719C499.396 139.555 500.53 139.625 501.697 139.352C502.786 139.101 503.668 138.504 504.299 137.605C505.168 136.376 506.272 135.071 507.961 135.429C507.834 135.113 507.527 134.799 507.221 134.586C507.937 134.571 508.725 134.844 509.156 135.414C509.259 134.513 510.247 133.17 511.285 133.285C510.799 133.318 510.374 134.007 510.498 134.583C511.354 134.074 512.585 134.052 513.306 134.799C513.316 134.305 513.188 133.791 512.912 133.386C513.564 133.758 514.14 134.107 514.319 134.88C514.529 134.125 515.631 133.279 516.411 133.3C516.032 133.537 515.681 133.88 515.656 134.338C517.115 133.437 518.348 133.598 519.792 134.362C519.698 133.492 518.976 132.864 518.094 132.824C519.467 132.794 521.762 134.192 520.92 135.817C521.396 135.675 521.999 135.387 522.524 135.457C522.063 135.66 521.487 135.954 521.293 136.43C522.227 136.29 523.296 135.845 524.246 136.29C523.536 136.227 522.563 136.612 522.175 137.197C523.484 136.772 524.858 136.964 526.001 137.742C526.681 138.204 527.368 139.479 528.115 139.716C528.93 139.974 529.5 139.022 529.576 138.313C529.652 138.607 529.7 138.901 529.7 139.167C529.7 140.358 529.457 141.55 529.457 141.55Z" fill="#202020"/>
<path fill-rule="evenodd" clip-rule="evenodd" d="M502.709 150.461C502.764 150.98 502.904 151.52 502.904 151.52C502.904 151.52 503.486 151.707 504.492 151.54C504.831 151.483 505.223 151.386 505.656 151.229C505.844 150.118 505.891 149.594 505.891 149.594L505.678 149.163C505.678 149.163 505.43 149.105 505.12 149.042L504.526 148.957C503.919 148.92 503.309 149.014 502.743 149.245L502.728 149.251C502.728 149.251 502.652 149.852 502.709 150.461Z" fill="white"/>
<path fill-rule="evenodd" clip-rule="evenodd" d="M509.171 151.025C509.171 151.025 509.632 151.122 510.29 151.231C510.847 151.32 511.551 151.419 512.23 151.48C512.776 151.525 513.309 151.54 513.742 151.507C515.398 151.04 516.399 150.37 516.399 150.37C515.283 149.127 513.706 148.39 512.257 148.335C511.42 148.299 510.668 148.441 510.196 148.699L509.792 149.233C509.316 150.039 509.168 151.025 509.171 151.025Z" fill="white"/>
<path fill-rule="evenodd" clip-rule="evenodd" d="M509.771 150.013C509.835 150.492 510.025 150.916 510.29 151.231C510.847 151.32 511.551 151.419 512.23 151.48C512.678 151.085 512.931 150.379 512.833 149.615C512.767 149.102 512.551 148.654 512.257 148.335C511.42 148.299 510.668 148.441 510.196 148.699L509.792 149.233C509.746 149.476 509.735 149.743 509.771 150.013Z" fill="#590016"/>
<path fill-rule="evenodd" clip-rule="evenodd" d="M502.709 150.461C502.764 150.98 502.904 151.52 502.904 151.52C502.904 151.52 503.486 151.707 504.492 151.54C504.678 151.149 504.784 150.655 504.768 150.125C504.753 149.694 504.666 149.297 504.525 148.957C503.919 148.92 503.309 149.015 502.742 149.246L502.728 149.251C502.728 149.251 502.652 149.852 502.709 150.461Z" fill="#590016"/>
<path fill-rule="evenodd" clip-rule="evenodd" d="M516.399 150.37C515.935 150.037 515.456 149.745 514.959 149.49C514.461 149.233 513.955 149.003 513.437 148.826C513.176 148.735 512.912 148.663 512.652 148.611L512.257 148.563L511.848 148.545C511.576 148.545 511.303 148.557 511.032 148.593L510.629 148.663L510.238 148.782L510.258 148.767L509.792 149.233L510.129 148.633L510.131 148.63L510.152 148.618L510.544 148.405L510.965 148.26C511.25 148.182 511.544 148.139 511.838 148.121L512.278 148.112L512.732 148.16C513.026 148.212 513.312 148.299 513.588 148.397C514.137 148.603 514.649 148.882 515.128 149.206C515.601 149.537 516.05 149.915 516.399 150.37Z" fill="#202020"/>
<path fill-rule="evenodd" clip-rule="evenodd" d="M513.109 149.915C513.139 150.224 512.916 150.5 512.603 150.531C512.293 150.561 512.018 150.337 511.987 150.028C511.957 149.715 512.184 149.442 512.494 149.413C512.803 149.381 513.076 149.603 513.109 149.915Z" fill="white"/>
<path fill-rule="evenodd" clip-rule="evenodd" d="M505.132 150.231C505.132 150.497 504.917 150.713 504.65 150.713C504.383 150.713 504.165 150.497 504.165 150.231C504.168 149.961 504.383 149.748 504.65 149.748C504.92 149.748 505.132 149.961 505.132 150.231Z" fill="white"/>
<path fill-rule="evenodd" clip-rule="evenodd" d="M505.677 149.163C505.414 149.191 505.16 149.17 504.917 149.157C504.674 149.142 504.434 149.142 504.195 149.145C503.958 149.155 503.715 149.16 503.476 149.181C503.231 149.203 502.988 149.23 502.724 149.251C502.927 149.082 503.164 148.96 503.416 148.882C503.664 148.803 503.925 148.757 504.188 148.754C504.449 148.748 504.716 148.785 504.968 148.854C505.223 148.93 505.448 149.033 505.677 149.163Z" fill="#202020"/>
<path fill-rule="evenodd" clip-rule="evenodd" d="M509.726 162.019C509.726 162.019 508.646 162.149 508.258 162.062C508.258 162.062 508.946 162.753 509.726 162.019Z" fill="#FF957B"/>
<path fill-rule="evenodd" clip-rule="evenodd" d="M512.731 158.041C512.731 158.041 511.508 159.269 511.123 159.796C510.732 160.333 509.434 161.082 508.449 161.049C507.457 161.013 506.675 159.985 506.463 159.679C506.251 159.378 504.922 157.838 504.922 157.838L506.084 158.063L507.776 158.202L508.315 158.398L508.958 158.144L510.171 158.153L512.845 157.914L512.731 158.041Z" fill="#202020"/>
<path fill-rule="evenodd" clip-rule="evenodd" d="M510.814 159.927L511.202 159.563C511.202 159.563 510.159 159.451 509.553 159.56C508.946 159.675 508.019 159.557 507.591 159.484C507.163 159.415 506.527 159.545 506.53 159.706C506.536 159.866 507.137 160.376 507.137 160.376C507.137 160.376 507.803 160.563 508.037 160.567C508.27 160.567 509.204 160.567 509.471 160.522L510.814 159.927Z" fill="#EB003B"/>
<path fill-rule="evenodd" clip-rule="evenodd" d="M512.078 158.325C512.078 158.499 508.882 160.16 505.693 158.383L505.233 158.256L505.187 157.99L505.92 158.029L507.176 158.035L508.016 158.332L508.867 158.241L509.908 158.12L512.045 157.972L512.746 157.884L512.658 158.266L512.078 158.325Z" fill="white"/>
<path fill-rule="evenodd" clip-rule="evenodd" d="M510.901 159.53C510.901 159.53 509.708 160.254 508.758 160.218C507.809 160.182 507.069 159.715 506.793 159.448C506.515 159.178 506.648 160.254 506.648 160.254C506.648 160.254 507.145 160.839 507.525 160.943C507.903 161.046 508.789 161.049 509.194 161.013C509.598 160.98 510.056 160.74 510.186 160.672L510.901 159.53Z" fill="white"/>
<path fill-rule="evenodd" clip-rule="evenodd" d="M513.036 157.862C511.396 158.332 510.847 160.188 509.647 160.566C508.63 160.891 507.584 160.861 506.851 159.709C506.363 158.938 506.257 158.456 505.262 158.008L504.877 157.835C504.877 157.835 505.589 158.754 506.051 159.578C506.651 160.654 506.897 161.667 508.349 161.761C509.91 161.862 510.865 161.201 511.554 159.884C511.911 159.193 513.134 157.896 514.21 157.374L513.036 157.862Z" fill="#FF7760"/>
<path fill-rule="evenodd" clip-rule="evenodd" d="M513.04 157.866C512.212 158.154 511.633 158.747 511.063 159.414C510.589 159.966 510.141 160.46 509.398 160.667C508.564 160.897 507.718 160.819 507.069 160.106C506.72 159.727 506.499 159.261 506.153 158.887C505.768 158.474 505.647 158.307 505.168 158.038C505.132 158.017 505.156 157.957 505.196 157.972C506.011 158.278 506.308 158.793 506.803 159.517C507.133 160 507.467 160.396 508.034 160.591C508.536 160.763 509.043 160.664 509.519 160.527C510.438 160.178 511.086 159.054 511.874 158.438C512.218 158.171 512.603 157.965 513.036 157.859C513.04 157.859 513.043 157.866 513.04 157.866Z" fill="#C13A49"/>
<path fill-rule="evenodd" clip-rule="evenodd" d="M504.831 157.808C506.72 158.772 507.464 158.411 507.464 158.411L507.891 158.557C508.525 158.651 509.07 158.459 509.07 158.459C510.85 158.49 512.964 158.205 514.347 157.286C514.347 157.286 513.291 157.816 511.82 157.859C510.329 157.904 509.462 157.871 508.946 157.935C508.946 157.935 508.573 158.044 508.318 158.235C508.318 158.235 507.834 157.962 507.609 157.947C507.385 157.932 506.593 157.884 506.048 157.914C505.284 157.853 504.831 157.808 504.831 157.808Z" fill="#FF7760"/>
<path fill-rule="evenodd" clip-rule="evenodd" d="M509.07 158.459C509.07 158.459 508.525 158.651 507.891 158.557L507.464 158.411C507.464 158.411 506.054 158.49 504.831 157.808C504.831 157.808 504.914 157.801 505.565 157.877C506.15 158.186 507.5 158.234 507.5 158.234C507.5 158.234 507.882 158.441 508.318 158.459C508.753 158.474 509.225 158.22 509.225 158.22C509.225 158.22 510.316 158.22 511.156 158.156C511.666 158.12 512.303 157.92 512.721 157.771C513.704 157.608 514.347 157.286 514.347 157.286C512.964 158.205 510.85 158.49 509.07 158.459Z" fill="#FF7760"/>
<path fill-rule="evenodd" clip-rule="evenodd" d="M514.347 157.286C513.524 157.856 512.506 158.162 511.445 158.335C510.923 158.42 510.386 158.466 509.847 158.49C509.716 158.492 509.586 158.496 509.455 158.496C509.349 158.499 509.174 158.463 509.077 158.496C508.938 158.545 508.786 158.575 508.64 158.593C508.222 158.641 507.894 158.593 507.491 158.456C507.355 158.411 507.163 158.444 507.018 158.433C505.987 158.357 505.271 158.142 504.729 157.793C504.707 157.783 504.723 157.753 504.747 157.762C505.511 158.16 506.021 158.289 507.067 158.365C507.181 158.375 507.361 158.339 507.47 158.375C507.842 158.502 508.151 158.565 508.543 158.529C508.716 158.514 508.888 158.478 509.052 158.426C509.21 158.375 509.47 158.423 509.643 158.42C510.21 158.411 510.771 158.362 511.32 158.287C512.418 158.129 513.466 157.823 514.343 157.283C514.347 157.283 514.347 157.286 514.347 157.286Z" fill="#C13A49"/>
<path fill-rule="evenodd" clip-rule="evenodd" d="M508.798 160.94C507.606 160.982 507.1 160.303 507.039 160.649C506.976 160.994 507.598 161.703 508.859 161.597C509.741 161.525 510.331 161.185 510.838 160.533C511.032 160.282 511.326 159.669 511.212 159.742C510.453 160.212 509.989 160.897 508.798 160.94Z" fill="#FF8C72"/>
<path fill-rule="evenodd" clip-rule="evenodd" d="M505.051 157.402C504.666 157.623 504.532 157.884 504.645 158.184C504.646 157.932 504.787 157.671 505.051 157.402Z" fill="#C13A49"/>
<path fill-rule="evenodd" clip-rule="evenodd" d="M513.84 156.84C514.279 157.038 514.494 157.368 514.483 157.829C514.398 157.471 514.182 157.144 513.84 156.84Z" fill="#C13A49"/>
<path fill-rule="evenodd" clip-rule="evenodd" d="M524.855 163.842C520.764 166.615 515.392 168.177 508.74 168.529C509.277 167.889 509.601 166.901 509.762 165.749C511.226 165.757 512.879 165.46 514.44 164.979C517.876 163.914 519.464 163.113 520.429 162.189C521.529 161.13 521.817 159.912 523.109 157.944C523.421 159.494 523.809 160.985 524.258 162.295C524.449 162.844 524.646 163.362 524.855 163.842Z" fill="#ED9B7D"/>
<path fill-rule="evenodd" clip-rule="evenodd" d="M490.124 174.553C490.124 174.553 485.273 180.897 484.287 187.894C483.302 194.892 472.341 216.12 472.923 221.95C473.505 227.78 479.691 234.893 485.813 233.495C487.841 233.031 490.369 227.768 492.17 220.461C492.362 214.06 492.713 202.348 492.068 200.332C491.331 198.066 490.27 181.533 490.27 181.533C490.27 181.533 489.536 174.617 490.66 174.359L490.124 174.553Z" fill="#8D1AC2"/>
<path fill-rule="evenodd" clip-rule="evenodd" d="M493.58 221.442C493.59 221.415 493.601 221.394 493.613 221.373C493.613 221.37 493.61 221.367 493.61 221.361L493.58 221.442Z" fill="#E8A878"/>
<path fill-rule="evenodd" clip-rule="evenodd" d="M453.527 223.099L488.511 223.107L481.164 195.977L447.27 195.969L446.405 196.79L453.527 223.099Z" fill="#C599CE"/>
<path fill-rule="evenodd" clip-rule="evenodd" d="M453.715 225.576L505.205 225.639L505.208 223.535L453.715 223.474V225.576Z" fill="#D8BADE"/>
<path fill-rule="evenodd" clip-rule="evenodd" d="M453.504 223.065L487.683 223.107L480.479 196.508L446.745 196.465L446.393 196.802H446.391L453.504 223.065Z" fill="#DEC5E2"/>
<path d="M488.613 223.518L488.611 225.622L505.208 225.641L505.21 223.537L488.613 223.518Z" fill="#BE8FC6"/>
<path fill-rule="evenodd" clip-rule="evenodd" d="M477.804 224.026L484.218 224.032V223.11L477.804 223.102V224.026Z" fill="#C599CE"/>
<path fill-rule="evenodd" clip-rule="evenodd" d="M455.853 223.999L461.341 224.006V223.081L455.853 223.074V223.999Z" fill="#C599CE"/>
<path fill-rule="evenodd" clip-rule="evenodd" d="M480.255 196.845L446.393 196.802L446.745 196.465L480.48 196.508L487.683 223.107H487.365L480.255 196.845Z" fill="white"/>
<path fill-rule="evenodd" clip-rule="evenodd" d="M478.366 228.199C477.396 229.402 475.804 229.924 474.284 229.615C473.56 229.466 472.723 229.202 471.886 228.736C471.304 228.413 470.592 227.85 470.076 227.89C468.787 227.977 468.354 227.077 468.029 226.983C467.723 227.12 467.29 227.232 466.765 227.153C466.101 227.055 465.558 226.792 465.241 226.604H465.237C463.963 226.54 462.848 226.546 462.496 226.282C461.798 225.758 461.283 220.843 462.517 220.688C464.148 220.482 463.188 224.057 464.643 224.794C464.643 224.794 463.702 220.194 465.54 219.927C466.796 219.745 466.822 224.297 468.118 225.17C468.118 225.17 467.022 220.901 468.394 220.273C469.767 219.648 469.569 224.74 470.941 224.922C471.22 224.958 469.961 221.274 471.587 221.141C473.205 221.004 472.138 225.309 476.917 225.395C478.85 225.427 479.591 226.676 478.366 228.199Z" fill="#FCAB8D"/>
<path fill-rule="evenodd" clip-rule="evenodd" d="M536.147 399.4C536.188 400.115 536.165 400.889 536.307 401.683C536.974 403.047 538.538 403.933 540.397 404.678C544.648 406.382 550.548 405.97 553.338 403.66C554.49 402.705 555.236 401.619 555.002 400.145C554.947 399.869 554.526 399.242 554.441 398.927C554.117 399.73 553.671 400.473 553.152 401.04C551.521 402.817 549.302 403.562 546.667 403.701C544.499 403.79 542.276 403.278 540.245 402.417C538.699 401.761 537.244 400.561 536.147 399.4Z" fill="#202020"/>
<path fill-rule="evenodd" clip-rule="evenodd" d="M536.167 399.094C536.092 399.191 536.086 399.291 536.147 399.4C537.244 400.561 538.698 401.762 540.245 402.417C542.277 403.278 544.499 403.791 546.667 403.702C549.302 403.563 551.521 402.817 553.152 401.041C553.671 400.474 554.117 399.73 554.441 398.927C554.432 398.866 554.405 398.824 554.35 398.806C553.914 400.122 553.101 401.153 552.052 401.91C550.606 402.953 548.705 403.497 546.692 403.578C544.655 403.66 542.513 403.275 540.609 402.469C538.814 401.707 537.234 400.567 536.167 399.094Z" fill="white"/>
<path fill-rule="evenodd" clip-rule="evenodd" d="M499.66 250.02C507.439 251.292 515.686 251.568 524.218 251.251C524.248 252.778 524.291 254.35 524.352 255.949C516.065 256.265 507.697 256.035 499.58 254.764C499.607 253.294 499.632 251.699 499.66 250.02Z" fill="#707070"/>
<path fill-rule="evenodd" clip-rule="evenodd" d="M514.294 250.265L506.672 249.856C506.439 249.841 506.247 250.023 506.247 250.256V256.105C506.247 256.338 506.439 256.538 506.672 256.553L514.294 256.963C514.529 256.975 514.719 256.796 514.719 256.563V250.711C514.719 250.481 514.529 250.278 514.294 250.265Z" fill="#413D3E"/>
<path fill-rule="evenodd" clip-rule="evenodd" d="M530.822 191.611C529.457 190.996 529.072 204.267 530.77 204.297C533.623 202.927 533.306 192.391 530.822 191.611Z" fill="#72001C"/>
<path fill-rule="evenodd" clip-rule="evenodd" d="M519.391 185.463C521.101 185.405 523.866 187.81 527.568 190.575C528.502 191.265 531.131 192.596 531.926 193.194C534.121 195.531 532.756 203.163 531.065 202.666C528.314 201.854 525.71 198.666 525.079 198.894C521.398 200.241 517.675 196.693 516.978 195.592C516.105 194.212 519.391 185.463 519.391 185.463Z" fill="#FCAB8D"/>
<path fill-rule="evenodd" clip-rule="evenodd" d="M130.49 37.8288C132.619 37.8288 134.65 38.1777 136.508 38.8054C136.311 37.8321 136.205 36.8256 136.205 35.7978C136.205 26.9562 143.885 19.7919 153.358 19.7919C155.034 19.7919 156.66 20.0155 158.191 20.437C160.589 9.1226 171.049 0.608398 183.593 0.608398C197.903 0.608398 209.507 11.6992 209.507 25.3797C209.507 27.7328 209.164 30.007 208.525 32.1621C217.89 32.7952 225.261 39.3755 225.261 47.8673C225.261 56.3568 217.142 63.1094 212.148 64.5073C211.399 64.7168 210.377 64.704 209.179 64.5073H130.49C121.649 64.5073 114.482 58.5378 114.482 51.169C114.481 43.8015 121.649 37.8288 130.49 37.8288Z" fill="url(#paint26_linear_1554_5)"/>
<path fill-rule="evenodd" clip-rule="evenodd" d="M136.561 52.8398L155.073 34.3269L173.59 52.8398H162.687V83.7207C162.687 86.2259 160.637 88.275 158.133 88.275H152.014C149.509 88.275 147.46 86.2256 147.46 83.7207V52.8398H136.561ZM166.156 69.7589L184.669 88.275L203.185 69.7589H192.282V38.8812C192.282 36.3761 190.233 34.3269 187.728 34.3269H181.61C179.104 34.3269 177.055 36.3764 177.055 38.8812V69.7589H166.156Z" fill="#F57A00"/>
<path fill-rule="evenodd" clip-rule="evenodd" d="M134.174 353.516C133.113 356.048 132.279 358.54 131.239 361.206C128.403 368.449 127.618 374.162 128.362 381.863C128.534 383.676 129.135 385.134 129.314 386.947C129.486 388.684 129.38 390.738 129.914 392.341C130.672 394.604 135.42 398.351 131.651 400.115C131.887 401.179 132.252 402.128 132.475 402.571C133.601 404.815 135.199 407.188 133.868 409.639C132.282 412.558 127.704 411.973 125.208 411.031C118.889 408.651 120.842 397.678 120.923 391.999C120.171 392.799 119.899 393.466 119.469 394.494C117.547 394.331 117.034 394.515 117.016 392.09C117.006 390.364 117.173 388.573 117.064 386.835C116.836 383.311 116.024 381.305 117.322 377.793C118.593 374.377 118.27 371.46 117.704 367.945C117.143 364.441 116.833 361.048 116.646 357.461C116.57 356.024 116.446 354.735 116.315 353.516L134.174 353.516Z" fill="#FCAB8D"/>
<path fill-rule="evenodd" clip-rule="evenodd" d="M129.42 405.909C126.585 406.104 124.347 404.557 123.429 402.286C122.535 400.064 122.173 397.408 122.282 393.195C122.337 391.134 121.74 388.784 122.659 388.084C120.858 386.575 116.397 380.913 116.85 379.391C116.276 381.992 116.873 383.881 117.065 386.835C117.174 388.573 117.007 390.364 117.016 392.09C117.035 394.514 117.547 394.33 119.469 394.494C119.899 393.466 120.172 392.799 120.924 391.999C120.843 397.677 118.889 408.651 125.209 411.031C127.704 411.973 132.282 412.558 133.869 409.639C135.199 407.189 133.601 404.815 132.476 402.571C133.042 404.22 131.448 405.77 129.42 405.909Z" fill="white"/>
<path fill-rule="evenodd" clip-rule="evenodd" d="M133.089 398.287C133.061 396.416 130.457 394.024 129.914 392.396C129.744 391.887 129.638 391.328 129.568 390.75C129.572 393.278 130.269 396.401 131.651 400.115C132.685 399.631 133.08 398.996 133.089 398.287Z" fill="#3F0111"/>
<path fill-rule="evenodd" clip-rule="evenodd" d="M129.732 353.516C128.792 361.09 127.825 370.24 128.097 376.735C128.097 371.503 129.031 366.93 131.117 361.518C131.157 361.415 131.199 361.308 131.239 361.206C132.279 358.54 133.113 356.048 134.174 353.516H129.732Z" fill="#ED9B7D"/>
<path fill-rule="evenodd" clip-rule="evenodd" d="M122.658 388.084C122.983 382.726 117.825 368.049 116.506 355.473C116.56 356.106 116.61 356.767 116.643 357.461C116.646 357.482 116.646 357.501 116.646 357.519C116.837 361.082 117.146 364.46 117.704 367.945C117.987 369.695 118.208 371.297 118.201 372.885C118.201 374.508 117.968 376.117 117.322 377.851C117.094 378.464 116.934 379.031 116.822 379.565C116.706 381.302 120.922 386.626 122.658 388.084Z" fill="#ED9B7D"/>
<path fill-rule="evenodd" clip-rule="evenodd" d="M151.186 260.625C136.06 265.161 115.499 263.742 99.0477 258.752C96.2133 292.144 90.816 327.642 85.0764 371.545C95.7799 386.887 149.734 384.473 158.767 375.38C155.886 347.238 154.212 310.635 151.186 260.625Z" fill="#1B1425"/>
<path fill-rule="evenodd" clip-rule="evenodd" d="M141.287 153.835C139.856 148.423 138.392 143.005 132.824 139.107C128.322 135.962 123.098 135.501 118.25 137.306C104.521 142.421 109.321 154.558 99.6395 165.952C95.498 170.809 89.7914 172.956 86.5421 178.167C80.656 187.561 83.4372 204.031 95.835 214.327C126.197 239.556 147.769 201.742 148.67 193.237C149.346 186.914 142.206 157.319 141.287 153.835Z" fill="#202020"/>
<path fill-rule="evenodd" clip-rule="evenodd" d="M183.768 150.267C183.768 150.267 184.327 148.441 185.667 146.322C186.358 145.228 186.366 144.133 186.809 143.144C187.252 142.156 191.088 137.605 191.561 136.798C192.031 135.995 192.822 134.883 192.943 134.25C193.064 133.615 193.856 133 194.086 133.724C194.314 134.447 194.195 135.577 193.747 136.902C193.301 138.224 192.907 138.897 192.907 138.897C192.907 138.897 193.74 138.039 194.56 137.633C195.378 137.227 196.5 136.42 197.191 135.938C197.882 135.457 198.792 134.777 198.792 134.777C199.259 134.28 199.475 133.764 200.044 133.17C200.559 132.631 201.437 132.606 201.002 133.773C200.853 134.168 200.744 134.653 200.351 135.113C199.805 135.753 199.174 136.62 198.647 137.002C197.74 137.658 196.142 139.055 196.142 139.055L196.193 139.238C196.193 139.238 197.64 138.112 198.222 137.597C198.804 137.085 199.517 136.523 199.784 136.23C200.675 135.244 202.255 132.791 203.064 133.219C203.643 133.522 201.913 136.239 201.27 136.966C200.005 138.401 196.74 141.23 196.74 141.23C196.74 141.23 196.279 144.58 196.239 145.034C196.203 145.492 195.054 146.811 194.013 147.524C192.037 148.873 191.676 148.391 191.276 149.137C190.876 149.886 190.032 152.451 190.032 152.451C190.032 152.451 189.645 153.515 186.918 152.784C184.436 152.12 183.768 150.267 183.768 150.267Z" fill="#FCAB8D"/>
<path fill-rule="evenodd" clip-rule="evenodd" d="M195.799 141.584C196.045 141.083 199.486 139.755 200.086 139.383C200.689 139.006 201.839 137.641 202.044 137.314C202.588 136.45 203.521 136.353 203.227 137.244C202.955 138.066 201.444 140.031 200.956 140.637C200.468 141.244 196.59 143.348 196.59 143.348L195.799 141.584Z" fill="#FCAB8D"/>
<path fill-rule="evenodd" clip-rule="evenodd" d="M199.81 142.135C200.295 141.862 201.342 141.396 201.524 141.217C202.061 140.686 203.009 140.592 202.785 141.147C202.673 141.417 201.524 142.805 200.554 143.399C199.586 143.994 195.808 145.455 195.808 145.455L196.123 143.039C196.123 143.039 198.774 142.715 199.81 142.135Z" fill="#FCAB8D"/>
<path fill-rule="evenodd" clip-rule="evenodd" d="M196.211 144.767C195.505 145.97 194.517 146.683 193.337 147.244C192.251 147.76 191.618 148.105 190.263 148.626C190.242 148.636 190.217 148.648 190.193 148.657C190.202 148.648 190.215 148.639 190.226 148.63L190.178 148.663C190.162 148.669 190.147 148.675 190.132 148.681C190.142 148.681 190.15 148.681 190.16 148.679C191.085 149.17 192.025 148.557 193.031 148.072C193.968 147.62 195.153 146.82 195.781 145.858C196.045 145.455 196.287 145.195 196.211 144.767Z" fill="#ED9B7D"/>
<path fill-rule="evenodd" clip-rule="evenodd" d="M191.821 140.739L191.945 140.522C191.894 140.592 191.854 140.665 191.821 140.739Z" fill="#E8A878"/>
<path fill-rule="evenodd" clip-rule="evenodd" d="M191.702 143.115C191.864 142.429 191.499 141.462 191.821 140.74L191.7 140.95C191.336 141.638 191.491 142.411 191.396 143.126C191.294 143.903 190.329 145.155 189.838 145.704C190.542 145.416 191.439 144.258 191.702 143.115Z" fill="#ED9B7D"/>
<path fill-rule="evenodd" clip-rule="evenodd" d="M194.192 143.527C194.171 143.148 194.104 142.796 194.08 142.409C194.053 141.933 194.059 141.653 193.795 141.323C193.662 141.153 193.419 140.535 193.204 140.553C193.158 140.692 193.179 140.717 193.152 140.698L193.15 140.735C193.143 141.08 193.391 141.31 193.558 141.56C193.744 141.836 193.801 142.123 193.849 142.484C193.94 143.161 193.732 144.28 194.186 144.74C194.356 144.576 194.204 143.766 194.192 143.527Z" fill="#ED9B7D"/>
<path fill-rule="evenodd" clip-rule="evenodd" d="M139.046 188.671C139.046 188.671 141.611 195.104 145.789 195.101C146.135 195.101 146.493 195.055 146.863 194.959C159.888 191.545 171.871 184.799 176.368 181.981C177.589 181.214 178.192 180.541 178.192 180.541L173.163 170.169C164.272 174.995 155.741 176.363 147.888 178.519C145.705 179.119 143.388 179.15 141.081 179.401L140.241 186.474C139.477 187.782 139.046 188.671 139.046 188.671Z" fill="#8D1AC2"/>
<path fill-rule="evenodd" clip-rule="evenodd" d="M195.326 151.413C190.912 156.359 186.384 167.461 181.958 174.611C180.411 177.106 179.62 179.344 177.817 180.879C175.197 183.137 172.558 182.867 171.221 179.681L171.162 179.535C169.899 176.4 170.058 172.87 171.482 169.805C174.721 163.826 179.856 150.94 182.768 147.408C187.549 147.929 195.326 151.413 195.326 151.413Z" fill="#8D1AC2"/>
<path fill-rule="evenodd" clip-rule="evenodd" d="M148.803 177.713C147.485 176.227 145.85 177.873 143.743 176.79C141.963 176.151 138.446 177.266 135.929 176.673C135.86 176.527 135.794 176.415 135.726 176.318C123.829 175.914 113.581 176.182 108.565 178.246L108.456 178.401C106.334 178.798 99.282 179.644 98.3932 179.729C97.6541 179.798 96.486 180.132 95.9074 180.478C94.2943 181.427 93.827 183.113 93.1361 184.784C91.7927 188.037 90.538 191.266 89.3581 194.576C86.76 201.826 85.7075 209.422 83.0088 216.75C81.8997 219.77 79.5711 224.679 80.214 228.02C80.9597 231.873 85.1407 235.57 87.9879 239.733C90.1678 242.916 92.475 245.099 95.4281 248.931C95.9767 248.465 96.2196 248.262 96.8078 247.852C97.3564 251.245 95.8312 254.914 95.1489 258.125C94.8825 259.379 94.6066 260.653 94.3274 261.939C105.443 266.893 115.215 269.004 123.637 268.27C130.241 268.973 130.626 271.301 132.072 268.782C138.294 269.706 144.668 267.408 153.442 264.006C152.818 234.074 153.652 220.931 152.809 202.057C152.648 198.415 153.409 183.186 148.803 177.713ZM99.3731 232.943C97.9473 232.071 93.5662 227.034 92.8024 226.154C92.0356 225.278 92.505 223.793 93.0206 222.652C94.1148 220.246 98.2777 210.94 99.9184 206.78C101.783 217.071 100.358 228.674 99.3731 232.943Z" fill="#7103A4"/>
<path fill-rule="evenodd" clip-rule="evenodd" d="M130.851 183.197C130.899 181.024 128.737 176.673 128.862 174.498C128.352 166.397 128.598 164.296 127.964 163.608C127.673 163.29 118.463 160.388 117.874 161.297C117.352 162.101 117.344 165.073 116.955 174.45C116.904 176.673 116.561 178.501 115.916 180.329C115.594 181.245 115.115 182.555 116.155 184.335C121.657 188.544 129.135 188.958 130.851 183.197Z" fill="#FCAB8D"/>
<path fill-rule="evenodd" clip-rule="evenodd" d="M137.063 289.075C135.086 280.873 132.707 258.124 132.707 251.763C128.986 251.569 127.012 251.724 122.683 251.245C121.1 258.179 116.312 276.525 114.336 281.862C112.793 286.031 109.806 298.887 108.575 306.066C116.509 306.96 127.443 307.752 138.701 307.173L138.716 307.17C138.57 299.204 137.812 292.182 137.063 289.075Z" fill="black"/>
<path fill-rule="evenodd" clip-rule="evenodd" d="M132.733 253.794C132.7 253.009 132.679 252.32 132.679 251.763C129.281 251.601 126.607 251.656 122.662 251.241L122.655 251.244C122.522 251.829 122.364 252.505 122.188 253.242C125.485 253.652 129.565 253.743 132.733 253.794Z" fill="#8D1AC2"/>
<path fill-rule="evenodd" clip-rule="evenodd" d="M133.75 202.839C133.364 199.546 133.088 196.381 132.431 192.436C131.97 189.656 131.214 185.996 130.851 183.198C129.135 188.959 121.657 188.544 116.155 184.335C116.955 185.944 119.074 188.385 120.172 192.327C120.915 195.01 121.855 197.142 122.689 199.77C124.093 204.191 124.987 207.653 125.863 213.348C126.627 218.304 126.336 222.466 125.975 227.359C125.539 233.271 124.878 235.612 124.293 240.008C123.887 243.082 123.377 245.814 122.976 248.995C122.88 249.802 122.783 250.529 122.68 251.241C126.627 251.656 129.302 251.602 132.707 251.763C132.856 245.675 133.262 240.857 133.634 233.053C134.11 223.178 134.844 212.362 133.75 202.839Z" fill="white"/>
<path fill-rule="evenodd" clip-rule="evenodd" d="M125.915 251.778L125.86 253.304L125.988 253.443L129.78 253.573L129.917 253.449L129.975 251.917L129.848 251.781L126.052 251.648L125.915 251.778ZM125.966 254.07C125.542 254.056 125.212 253.704 125.227 253.282L125.281 251.75C125.296 251.329 125.651 250.999 126.073 251.015L129.866 251.15C130.29 251.162 130.621 251.517 130.605 251.942L130.55 253.47C130.535 253.894 130.181 254.222 129.76 254.206L125.966 254.07Z" fill="#202020"/>
<path fill-rule="evenodd" clip-rule="evenodd" d="M99.482 251.757C98.2838 250.532 97.3929 249.231 96.808 247.852C102.359 243.11 106.734 238.835 109.939 235.026C111.794 236.804 113.132 238.243 113.948 239.341C105.979 247.121 101.158 251.259 99.482 251.757Z" fill="#8D1AC2"/>
<path fill-rule="evenodd" clip-rule="evenodd" d="M148.461 255.822C149.61 254.756 150.522 253.576 151.198 252.281C147.405 246.921 144.492 242.164 142.46 238.013C140.692 239.547 139.401 240.805 138.58 241.793C143.882 250.453 147.175 255.128 148.461 255.822Z" fill="#8D1AC2"/>
<path fill-rule="evenodd" clip-rule="evenodd" d="M116.803 176.564C113.38 176.888 110.561 177.425 108.565 178.246L108.456 178.401C106.925 188.003 108.808 194.389 114.111 197.557C113.774 208.254 117.616 213.054 125.641 211.958C124.832 207.065 123.977 203.821 122.688 199.77C121.855 197.142 120.915 195.01 120.171 192.327C119.074 188.385 116.955 185.944 116.155 184.335C115.114 182.555 115.594 181.246 115.915 180.329C116.346 179.114 116.64 177.898 116.803 176.564Z" fill="#8D1AC2"/>
<path fill-rule="evenodd" clip-rule="evenodd" d="M135.726 176.318C133.434 176.24 131.199 176.187 129.056 176.166C129.568 178.45 130.887 181.491 130.851 183.198C131.214 185.996 131.97 189.656 132.43 192.436C133.088 196.381 133.364 199.546 133.749 202.839C134.029 205.277 134.189 207.799 134.265 210.367C141.996 211.198 143.528 205.707 138.858 193.897C141.044 191.273 140.068 185.53 135.929 176.673C135.86 176.527 135.793 176.415 135.726 176.318Z" fill="#8D1AC2"/>
<path fill-rule="evenodd" clip-rule="evenodd" d="M89.3581 194.576C86.76 201.826 85.7075 209.421 83.0088 216.749C81.8997 219.77 79.5711 224.678 80.214 228.02C80.9597 231.873 85.1407 235.569 87.9879 239.732C90.1678 242.916 92.475 245.099 95.4281 248.931C95.9767 248.465 96.2163 248.261 96.8078 247.852C100.279 244.887 103.29 242.104 105.843 239.501C104.348 238.028 102.192 235.842 99.3728 232.943C97.947 232.071 93.5659 227.034 92.8021 226.155C92.0353 225.278 92.5047 223.793 93.0203 222.652C94.1145 220.246 98.2774 210.94 99.9182 206.78C103.569 192.105 102.635 183.176 97.1135 179.993C96.6495 180.129 96.2012 180.302 95.9071 180.477C94.294 181.427 93.8267 183.113 93.1358 184.784C91.7927 188.036 90.538 191.266 89.3581 194.576Z" fill="#8D1AC2"/>
<path fill-rule="evenodd" clip-rule="evenodd" d="M117.577 165.281C111.067 164.45 109.575 154.191 113.316 155.485C109.157 135.587 132.928 132.63 138.658 147.866C140.725 153.227 138.707 154.181 139.471 157.441C140.705 162.707 137.223 168.744 133.771 172.568C132.285 174.214 130.484 173.953 127.103 172.867C123.229 171.627 120.13 168.841 117.577 165.281Z" fill="#FCAB8D"/>
<path fill-rule="evenodd" clip-rule="evenodd" d="M139.389 158.066C139.334 158.593 139.192 159.145 139.192 159.145C139.192 159.145 138.6 159.333 137.575 159.166C137.227 159.109 136.83 159.008 136.387 158.848C136.197 157.717 136.148 157.18 136.148 157.18L136.366 156.747C136.366 156.747 136.62 156.686 136.933 156.62L137.539 156.534C138.158 156.498 138.776 156.592 139.355 156.828L139.37 156.835C139.37 156.835 139.446 157.447 139.389 158.066Z" fill="white"/>
<path fill-rule="evenodd" clip-rule="evenodd" d="M132.913 158.59C132.913 158.59 132.455 158.732 131.797 158.912C131.239 159.058 130.539 159.23 129.853 159.357C129.307 159.461 128.768 159.53 128.326 159.539C126.6 159.233 125.518 158.654 125.518 158.654C126.525 157.283 128.05 156.377 129.511 156.174C130.357 156.055 131.13 156.123 131.64 156.337L132.101 156.835C132.664 157.605 132.913 158.59 132.913 158.59Z" fill="white"/>
<path fill-rule="evenodd" clip-rule="evenodd" d="M132.2 157.623C132.185 158.114 132.034 158.565 131.796 158.912C131.239 159.057 130.538 159.23 129.853 159.357C129.359 159.005 129.035 158.314 129.056 157.532C129.071 157.005 129.244 156.526 129.51 156.174C130.356 156.055 131.13 156.123 131.639 156.338L132.1 156.835C132.17 157.077 132.209 157.344 132.2 157.623Z" fill="#590016"/>
<path fill-rule="evenodd" clip-rule="evenodd" d="M139.388 158.066C139.334 158.593 139.192 159.145 139.192 159.145C139.192 159.145 138.6 159.333 137.575 159.166C137.385 158.765 137.276 158.266 137.294 157.722C137.306 157.286 137.397 156.88 137.539 156.534C138.159 156.498 138.776 156.592 139.355 156.828L139.37 156.835C139.37 156.835 139.446 157.447 139.388 158.066Z" fill="#590016"/>
<path fill-rule="evenodd" clip-rule="evenodd" d="M125.518 158.654C125.954 158.269 126.412 157.926 126.888 157.62C127.367 157.308 127.858 157.023 128.365 156.792C128.623 156.674 128.88 156.574 129.14 156.495L129.532 156.404L129.947 156.346C130.223 156.316 130.502 156.304 130.778 156.313L131.193 156.344L131.602 156.422L131.577 156.41L132.1 156.835L131.696 156.261V156.258L131.672 156.249L131.253 156.073L130.814 155.967C130.516 155.916 130.214 155.904 129.913 155.912L129.467 155.949L129.009 156.043C128.715 156.124 128.437 156.243 128.167 156.37C127.633 156.634 127.139 156.968 126.687 157.347C126.242 157.729 125.827 158.16 125.518 158.654Z" fill="#202020"/>
<path fill-rule="evenodd" clip-rule="evenodd" d="M122.625 155.585C123.444 155.243 124.42 154.848 125.06 154.63C125.936 154.466 132.594 154.949 132.594 154.949C133.034 154.836 133.521 154.703 133.892 154.597C134.141 154.527 134.295 154.299 134.295 154.06L134.25 153.835C134.086 153.465 133.667 153.281 133.285 153.408L132.161 153.79C132.161 153.79 128.386 153.293 125.837 153.481C124.147 154.005 122.938 154.691 122.625 155.585Z" fill="#202020"/>
<path fill-rule="evenodd" clip-rule="evenodd" d="M138.018 153.465L138.701 153.372C139.034 153.347 139.37 153.453 139.601 153.693C139.877 153.981 139.831 154.263 139.662 154.484C139.45 154.76 139.086 154.873 138.743 154.803C138.494 154.751 138.215 154.666 137.939 154.572C137.388 154.384 137.448 153.587 138.018 153.465Z" fill="#202020"/>
<path fill-rule="evenodd" clip-rule="evenodd" d="M128.807 157.862C128.807 158.178 129.062 158.435 129.38 158.435C129.696 158.435 129.953 158.178 129.953 157.862C129.953 157.544 129.696 157.289 129.38 157.289C129.062 157.289 128.81 157.544 128.807 157.862Z" fill="white"/>
<path fill-rule="evenodd" clip-rule="evenodd" d="M136.921 157.831C136.921 158.102 137.139 158.323 137.412 158.323C137.684 158.323 137.906 158.102 137.906 157.831C137.903 157.555 137.684 157.337 137.412 157.337C137.139 157.337 136.921 157.555 136.921 157.831Z" fill="white"/>
<path fill-rule="evenodd" clip-rule="evenodd" d="M136.366 156.747C136.633 156.774 136.893 156.749 137.139 156.738C137.388 156.723 137.63 156.723 137.873 156.726C138.116 156.734 138.36 156.744 138.607 156.765C138.856 156.783 139.104 156.813 139.37 156.835C139.167 156.662 138.925 156.538 138.671 156.458C138.415 156.377 138.149 156.331 137.883 156.328C137.615 156.323 137.346 156.359 137.088 156.429C136.83 156.504 136.6 156.61 136.366 156.747Z" fill="#202020"/>
<path fill-rule="evenodd" clip-rule="evenodd" d="M135.663 162.549C134.941 162.037 134.374 161.188 134.161 160.507C134.902 161.343 135.687 162.135 136.564 162.098C136.906 162.811 135.69 163.587 134.323 163.842C135.184 163.441 135.893 162.792 135.663 162.549Z" fill="#FF7760"/>
<path fill-rule="evenodd" clip-rule="evenodd" d="M134.161 160.507H134.165C134.902 161.343 135.687 162.135 136.564 162.098C136.615 162.207 136.63 162.32 136.615 162.429C135.867 162.425 135.166 162.043 134.517 161.279C134.359 161.016 134.237 160.752 134.161 160.507Z" fill="#FF8C72"/>
<path fill-rule="evenodd" clip-rule="evenodd" d="M112.034 158.438C111.889 157.438 112.343 156.638 112.941 156.446C113.741 156.246 114.706 156.807 115.418 157.775C116.143 158.818 116.267 159.664 116.418 161.049C116.564 162.049 117.322 162.622 117.952 162.665C117.952 162.665 118.565 162.938 118.322 163.417C118.081 163.896 117.516 163.232 117.013 163.341C116.506 163.447 115.804 163.954 114.369 163.029C112.935 162.107 112.368 160.358 112.125 159.054L112.034 158.438Z" fill="#FF957B"/>
<path fill-rule="evenodd" clip-rule="evenodd" d="M115.803 162.338C115.539 161.898 115.5 161.186 115.569 160.709C115.645 160.185 115.954 159.857 115.536 159.305C115.264 158.948 114.806 159.096 114.633 159.429C114.448 159.791 114.424 160.249 114.505 160.733C114.545 160.969 114.606 161.206 114.672 161.437C114.7 161.543 114.816 161.776 114.781 161.882C114.715 162.085 114.594 161.725 114.554 161.616C114.421 161.242 114.323 160.794 114.293 160.399C114.242 159.72 114.576 159.284 114.451 158.605C114.166 157.074 112.872 156.819 112.287 157.644C112.156 158.077 112.132 158.641 112.153 159.181C112.144 159.138 112.135 159.096 112.125 159.054L112.034 158.438C111.889 157.437 112.344 156.638 112.941 156.446C113.742 156.246 114.706 156.806 115.419 157.774C116.143 158.817 116.267 159.663 116.419 161.048C116.525 161.776 116.956 162.276 117.425 162.513C117 163.035 116.248 163.09 115.803 162.338Z" fill="#FF8C72"/>
<path fill-rule="evenodd" clip-rule="evenodd" d="M114.369 163.029C113.071 162.194 112.483 160.682 112.204 159.436C113.584 162.88 115.879 163.426 116.443 163.505C115.975 163.624 115.339 163.657 114.369 163.029Z" fill="#FF7760"/>
<path fill-rule="evenodd" clip-rule="evenodd" d="M112.034 158.438C111.882 157.45 112.262 156.671 112.844 156.385C113.52 156.058 114.414 156.57 115.052 157.202C115.739 157.886 116.179 158.878 116.367 159.988C116.473 160.618 116.452 161.264 116.779 161.816C117.076 162.32 117.552 162.546 117.952 162.614C117.995 162.619 117.998 162.717 117.959 162.717C117.438 162.705 116.779 162.347 116.476 161.58C116.294 161.116 116.288 160.595 116.215 160.104C116.134 159.542 115.994 159.003 115.754 158.502C115.255 157.46 114.417 156.752 113.62 156.549C112.746 156.326 111.901 157.053 112.037 158.438C112.037 158.441 112.034 158.441 112.034 158.438Z" fill="#FF7760"/>
<path fill-rule="evenodd" clip-rule="evenodd" d="M132.806 169.735C132.806 169.735 132.009 169.73 131.708 169.677C131.708 169.677 132.206 170.226 132.806 169.735Z" fill="#FF957B"/>
<path fill-rule="evenodd" clip-rule="evenodd" d="M134.091 167.073L133.85 168.465C133.85 168.465 132.715 168.717 132.452 168.717C132.188 168.72 130.687 168.198 130.687 168.198L129.798 167.704C129.798 167.704 128.998 167.068 128.947 166.97C128.896 166.876 128.62 166.41 128.541 166.316C128.465 166.222 128.162 165.918 128.162 165.918L128.344 165.825L129.192 166.17C129.192 166.17 131.215 166.67 131.32 166.67L134.091 167.073Z" fill="#EB003B"/>
<path fill-rule="evenodd" clip-rule="evenodd" d="M128.446 165.825C128.55 165.87 129.787 166.303 129.787 166.303C129.787 166.303 131.036 166.483 131.53 166.549C132.024 166.615 133.252 166.843 133.462 166.864C133.586 166.879 133.738 166.949 133.841 167.003C133.91 166.976 133.98 166.958 134.014 166.98C134.092 167.025 134.235 167.765 134.159 167.934C134.08 168.101 134.034 168.441 133.956 168.464L133.553 168.059L133.607 167.504C133.422 167.439 132.855 167.289 131.712 167.258C131.712 167.258 130.139 166.924 129.344 166.861C129.833 167.419 131.081 168.15 131.081 168.15L129.538 167.704C129.459 167.634 129.099 167.206 128.947 166.97C128.929 166.945 128.914 166.916 128.896 166.886C128.595 166.98 128.413 166.246 128.413 166.246L128.344 165.824C128.344 165.824 128.347 165.779 128.446 165.825Z" fill="#72001C"/>
<path fill-rule="evenodd" clip-rule="evenodd" d="M133.887 167.17C133.887 167.17 133.758 167.65 133.738 167.983C133.738 167.983 132.213 168.355 131.16 168.077C130.111 167.795 128.795 166.712 128.516 166.361C128.238 166.012 128.765 166.949 128.817 167.018C128.868 167.091 129.848 167.94 129.926 168.013C130.005 168.083 131.079 168.754 131.421 168.775C131.767 168.795 132.9 168.859 133.191 168.884C133.483 168.905 134.014 168.78 134.143 168.704C134.273 168.631 134.374 168.268 134.399 168.171C134.422 168.077 134.498 167.834 134.546 167.643C134.596 167.452 134.563 166.977 134.563 166.904C134.559 166.833 134.559 166.833 134.559 166.833L133.887 167.17Z" fill="#FF8C72"/>
<path fill-rule="evenodd" clip-rule="evenodd" d="M134.277 167.095C134.277 167.095 134.05 167.671 134.214 168.198C134.214 168.198 132.936 168.377 131.818 168.31C130.372 168.226 129.177 167.301 128.316 165.988L128.188 165.779L127.655 165.503L127.476 165.412C127.476 165.412 128.097 166.458 129.044 167.519C129.744 168.304 130.317 169.03 131.421 169.332C132.151 169.532 133.941 169.636 134.574 169.165C135.278 168.641 134.889 168.319 134.846 167.744C134.828 167.501 134.879 167.264 134.985 167.046C135.068 166.883 135.496 166.23 135.722 166.255L135.122 166.192L134.37 166.43L134.277 167.095Z" fill="#FF7760"/>
<path fill-rule="evenodd" clip-rule="evenodd" d="M134.802 168.605C134.802 168.605 134.929 168.241 134.086 168.343C133.241 168.446 132.213 168.477 131.37 168.41C130.53 168.343 130.55 168.78 131.185 169.114C131.818 169.451 134.556 169.702 134.802 168.605Z" fill="#FF8C72"/>
<path fill-rule="evenodd" clip-rule="evenodd" d="M134.381 168.729C134.381 168.729 134.432 168.559 133.455 168.613C132.479 168.668 131.633 168.699 131.606 168.893C131.581 169.087 132.242 169.35 133.304 169.248C134.362 169.142 134.359 168.972 134.381 168.729Z" fill="#FF957B"/>
<path fill-rule="evenodd" clip-rule="evenodd" d="M134.371 166.43L135.123 166.192L135.723 166.255C135.496 166.23 135.068 166.883 134.986 167.046C134.901 167.216 134.853 167.401 134.843 167.592C134.774 167.522 134.625 167.413 134.44 167.501C134.419 167.511 134.398 167.519 134.38 167.529C134.371 167.704 134.367 168.028 134.425 168.195L134.214 168.199C134.05 167.671 134.277 167.095 134.277 167.095L134.371 166.43ZM127.655 165.503L128.188 165.779L128.316 165.988C128.974 166.992 129.826 167.768 130.842 168.117L130.844 168.126C130.844 168.126 129.823 167.971 129.159 167.149C129.114 167.156 129.059 167.17 129.001 167.192C129.302 167.665 129.96 168.42 130.238 168.735C129.802 168.392 129.441 167.965 129.044 167.519C128.098 166.458 127.476 165.412 127.476 165.412L127.655 165.503Z" fill="#FF7760"/>
<path fill-rule="evenodd" clip-rule="evenodd" d="M135.153 166.425C135.153 166.425 134.847 166.876 134.486 167.144C134.486 167.144 133.049 167.416 131.032 167.098C129.028 166.782 128.034 165.757 128.034 165.757C128.034 165.757 130.153 166.207 130.568 166.203C130.985 166.2 132.725 166.258 132.855 166.255C132.986 166.255 134.393 166.266 134.393 166.266L135.153 166.425Z" fill="white"/>
<path fill-rule="evenodd" clip-rule="evenodd" d="M128.034 165.757C128.034 165.757 130.153 166.207 130.568 166.203C130.836 166.203 131.645 166.225 132.227 166.24L132.649 166.588C132.649 166.588 130.988 166.888 129.253 166.461C129.838 166.77 130.745 167.006 131.363 167.145C131.254 167.131 131.145 167.115 131.033 167.097C129.028 166.782 128.034 165.757 128.034 165.757Z" fill="#F0E6F1"/>
<path fill-rule="evenodd" clip-rule="evenodd" d="M127.225 165.161C127.301 165.227 127.349 165.321 127.425 165.391C127.828 165.758 128.547 166.034 129.089 166.215C129.707 166.422 130.384 166.582 131.06 166.601C132.024 166.616 132.988 166.538 133.952 166.531C134.477 166.524 135.05 166.521 135.569 166.352C136.19 166.158 136.545 165.733 136.815 165.194C136.815 165.194 136.362 165.803 135.765 165.903C135.171 166.003 134.544 166.007 134.08 166.152C134.08 166.152 133.321 165.945 131.893 166.051C130.802 166.134 129.738 166 128.656 165.775C127.577 165.551 127.225 165.161 127.225 165.161Z" fill="#FF7760"/>
<path fill-rule="evenodd" clip-rule="evenodd" d="M136.815 165.194C136.511 165.833 136.02 166.294 135.25 166.47C134.804 166.574 134.338 166.574 133.88 166.579C133.318 166.585 132.761 166.615 132.203 166.633C131.7 166.649 131.188 166.669 130.687 166.613C130.181 166.552 129.692 166.433 129.216 166.282C128.834 166.16 128.464 166.021 128.11 165.855C127.922 165.764 127.74 165.658 127.57 165.542C127.418 165.44 127.309 165.318 127.173 165.206C127.106 165.146 127.224 165.055 127.284 165.128C127.391 165.257 127.47 165.391 127.603 165.503C127.758 165.63 127.952 165.724 128.137 165.815C128.483 165.985 128.856 166.118 129.229 166.237C129.68 166.382 130.147 166.485 130.626 166.537C131.12 166.588 131.627 166.558 132.125 166.539C132.606 166.521 133.088 166.501 133.574 166.485C134.037 166.476 134.504 166.488 134.968 166.443C135.405 166.397 135.83 166.283 136.165 166.025C136.453 165.804 136.648 165.497 136.811 165.194C136.812 165.19 136.815 165.194 136.815 165.194Z" fill="#C13A49"/>
<path fill-rule="evenodd" clip-rule="evenodd" d="M139.144 142.766C136.724 139.75 134.859 140.376 133.801 141.259C125.169 136.35 119.459 143.344 119.459 143.344C118.296 150.446 113.105 154.448 113.105 154.448C113.105 154.448 116.045 156.537 122.695 154.658C131.2 152.253 133.728 144.612 134.065 143.442C135.026 144.327 136.23 144.858 137.245 146.841C138.449 149.199 139.198 150.564 139.443 154.536C139.443 154.536 142.773 147.292 139.144 142.766Z" fill="#202020"/>
<path fill-rule="evenodd" clip-rule="evenodd" d="M116.803 157.841C120.196 147.099 126.109 141.698 134.541 141.647C132.603 136.663 125.305 134.764 115.879 138.563C110.163 146.195 109.465 152.571 112.037 153.975C112.88 155.121 114.468 156.41 116.803 157.841Z" fill="#202020"/>
<path fill-rule="evenodd" clip-rule="evenodd" d="M117.076 171.403C120.539 172.146 124.462 173.462 129.056 176.166C129.038 176.081 129.02 176 129.001 175.914C128.895 175.387 128.838 174.905 128.862 174.498C128.838 174.108 128.813 173.728 128.792 173.364C128.28 173.232 127.719 173.065 127.103 172.867C123.229 171.624 120.13 168.841 117.577 165.281C117.495 165.273 117.413 165.26 117.331 165.245C117.255 166.737 117.182 168.738 117.076 171.403Z" fill="#ED9B7D"/>
<defs>
<linearGradient id="paint0_linear_1554_5" x1="18.7581" y1="216.749" x2="148.87" y2="216.749" gradientUnits="userSpaceOnUse">
<stop stop-color="#F57A00"/>
<stop offset="1" stop-color="#7103A4"/>
</linearGradient>
<linearGradient id="paint1_linear_1554_5" x1="75.3211" y1="225.237" x2="92.3006" y2="208.257" gradientUnits="userSpaceOnUse">
<stop stop-color="#F57A00"/>
<stop offset="1" stop-color="#7103A4"/>
</linearGradient>
<linearGradient id="paint2_linear_1554_5" x1="148.3" y1="221.995" x2="524.083" y2="221.995" gradientUnits="userSpaceOnUse">
<stop stop-color="#F57A00"/>
<stop offset="1" stop-color="#7103A4"/>
</linearGradient>
<linearGradient id="paint3_linear_1554_5" x1="216.95" y1="177.3" x2="455.432" y2="177.3" gradientUnits="userSpaceOnUse">
<stop stop-color="#F57A00"/>
<stop offset="1" stop-color="#7103A4"/>
</linearGradient>
<linearGradient id="paint4_linear_1554_5" x1="239.623" y1="176.622" x2="432.758" y2="176.622" gradientUnits="userSpaceOnUse">
<stop stop-color="#F57A00"/>
<stop offset="1" stop-color="#7103A4"/>
</linearGradient>
<linearGradient id="paint5_linear_1554_5" x1="328.773" y1="173.452" x2="343.609" y2="173.452" gradientUnits="userSpaceOnUse">
<stop stop-color="#F57A00"/>
<stop offset="1" stop-color="#7103A4"/>
</linearGradient>
<linearGradient id="paint6_linear_1554_5" x1="390.205" y1="303.387" x2="513.194" y2="303.387" gradientUnits="userSpaceOnUse">
<stop stop-color="#F57A00"/>
<stop offset="1" stop-color="#7103A4"/>
</linearGradient>
<linearGradient id="paint7_linear_1554_5" x1="402.241" y1="280.11" x2="470.161" y2="280.11" gradientUnits="userSpaceOnUse">
<stop stop-color="#F57A00"/>
<stop offset="1" stop-color="#7103A4"/>
</linearGradient>
<linearGradient id="paint8_linear_1554_5" x1="417.126" y1="244.144" x2="582.318" y2="244.144" gradientUnits="userSpaceOnUse">
<stop stop-color="#F57A00"/>
<stop offset="1" stop-color="#7103A4"/>
</linearGradient>
<linearGradient id="paint9_linear_1554_5" x1="451.766" y1="146.943" x2="555.415" y2="146.943" gradientUnits="userSpaceOnUse">
<stop stop-color="#F57A00"/>
<stop offset="1" stop-color="#7103A4"/>
</linearGradient>
<linearGradient id="paint10_linear_1554_5" x1="467.578" y1="199.415" x2="653.794" y2="199.415" gradientUnits="userSpaceOnUse">
<stop stop-color="#F57A00"/>
<stop offset="1" stop-color="#7103A4"/>
</linearGradient>
<linearGradient id="paint11_linear_1554_5" x1="510.814" y1="312.345" x2="521.911" y2="312.345" gradientUnits="userSpaceOnUse">
<stop stop-color="#F57A00"/>
<stop offset="1" stop-color="#7103A4"/>
</linearGradient>
<linearGradient id="paint12_linear_1554_5" x1="468.59" y1="288.529" x2="479.688" y2="288.529" gradientUnits="userSpaceOnUse">
<stop stop-color="#F57A00"/>
<stop offset="1" stop-color="#7103A4"/>
</linearGradient>
<linearGradient id="paint13_linear_1554_5" x1="580.644" y1="250.365" x2="591.741" y2="250.365" gradientUnits="userSpaceOnUse">
<stop stop-color="#F57A00"/>
<stop offset="1" stop-color="#7103A4"/>
</linearGradient>
<linearGradient id="paint14_linear_1554_5" x1="653.833" y1="188.986" x2="664.93" y2="188.986" gradientUnits="userSpaceOnUse">
<stop stop-color="#F57A00"/>
<stop offset="1" stop-color="#7103A4"/>
</linearGradient>
<linearGradient id="paint15_linear_1554_5" x1="555.678" y1="146.877" x2="566.775" y2="146.877" gradientUnits="userSpaceOnUse">
<stop stop-color="#F57A00"/>
<stop offset="1" stop-color="#7103A4"/>
</linearGradient>
<linearGradient id="paint16_linear_1554_5" x1="152.499" y1="303.387" x2="275.492" y2="303.387" gradientUnits="userSpaceOnUse">
<stop stop-color="#F57A00"/>
<stop offset="1" stop-color="#7103A4"/>
</linearGradient>
<linearGradient id="paint17_linear_1554_5" x1="195.533" y1="280.11" x2="263.455" y2="280.11" gradientUnits="userSpaceOnUse">
<stop stop-color="#F57A00"/>
<stop offset="1" stop-color="#7103A4"/>
</linearGradient>
<linearGradient id="paint18_linear_1554_5" x1="83.3759" y1="244.144" x2="248.568" y2="244.144" gradientUnits="userSpaceOnUse">
<stop stop-color="#F57A00"/>
<stop offset="1" stop-color="#7103A4"/>
</linearGradient>
<linearGradient id="paint19_linear_1554_5" x1="110.279" y1="146.943" x2="213.927" y2="146.943" gradientUnits="userSpaceOnUse">
<stop stop-color="#F57A00"/>
<stop offset="1" stop-color="#7103A4"/>
</linearGradient>
<linearGradient id="paint20_linear_1554_5" x1="11.9028" y1="199.415" x2="198.116" y2="199.415" gradientUnits="userSpaceOnUse">
<stop stop-color="#F57A00"/>
<stop offset="1" stop-color="#7103A4"/>
</linearGradient>
<linearGradient id="paint21_linear_1554_5" x1="143.786" y1="312.345" x2="154.882" y2="312.345" gradientUnits="userSpaceOnUse">
<stop stop-color="#F57A00"/>
<stop offset="1" stop-color="#7103A4"/>
</linearGradient>
<linearGradient id="paint22_linear_1554_5" x1="186.009" y1="288.529" x2="197.103" y2="288.529" gradientUnits="userSpaceOnUse">
<stop stop-color="#F57A00"/>
<stop offset="1" stop-color="#7103A4"/>
</linearGradient>
<linearGradient id="paint23_linear_1554_5" x1="73.9556" y1="250.365" x2="85.0529" y2="250.365" gradientUnits="userSpaceOnUse">
<stop stop-color="#F57A00"/>
<stop offset="1" stop-color="#7103A4"/>
</linearGradient>
<linearGradient id="paint24_linear_1554_5" x1="0.763611" y1="188.986" x2="11.863" y2="188.986" gradientUnits="userSpaceOnUse">
<stop stop-color="#F57A00"/>
<stop offset="1" stop-color="#7103A4"/>
</linearGradient>
<linearGradient id="paint25_linear_1554_5" x1="98.9206" y1="146.877" x2="110.018" y2="146.877" gradientUnits="userSpaceOnUse">
<stop stop-color="#F57A00"/>
<stop offset="1" stop-color="#7103A4"/>
</linearGradient>
<linearGradient id="paint26_linear_1554_5" x1="114.482" y1="32.6337" x2="225.261" y2="32.6337" gradientUnits="userSpaceOnUse">
<stop stop-color="#F57A00"/>
<stop offset="1" stop-color="#7103A4"/>
</linearGradient>
</defs>
</svg>
