<svg width="320" height="308" viewBox="0 0 320 308" fill="none" xmlns="http://www.w3.org/2000/svg">
<path d="M300.911 253.575H191.163C185.322 253.575 180.725 248.795 180.952 242.952L189.006 34.6088C189.232 28.7659 194.197 23.9858 200.039 23.9858H309.786C315.628 23.9858 320.224 28.7659 319.998 34.6088L311.944 242.952C311.717 248.794 306.753 253.575 300.911 253.575Z" fill="#407BFF"/>
<path d="M300.911 253.575H191.163C185.322 253.575 180.725 248.795 180.952 242.952L189.006 34.6088C189.232 28.7659 194.197 23.9858 200.039 23.9858H309.786C315.628 23.9858 320.224 28.7659 319.998 34.6088L311.944 242.952C311.717 248.794 306.753 253.575 300.911 253.575Z" fill="url(#paint0_linear_1270_1457)"/>
<path d="M290.409 249.349H193.598C188.475 249.349 184.444 245.157 184.642 240.033L192.185 44.921C192.384 39.7978 196.737 35.6052 201.86 35.6052H298.672C303.795 35.6052 307.826 39.7969 307.628 44.921L300.085 240.033C299.886 245.157 295.532 249.349 290.409 249.349Z" fill="#1B1425"/>
<path opacity="0.8" d="M246.962 238.277C249.522 235.766 249.638 231.733 247.222 229.271C244.806 226.808 240.772 226.847 238.212 229.359C235.652 231.87 235.535 235.903 237.952 238.366C240.368 240.828 244.402 240.789 246.962 238.277Z" fill="white"/>
<path d="M316.253 104.703L315.582 121.922L316.637 121.963L317.308 104.745L316.253 104.703Z" fill="#D9E5FF"/>
<path d="M316.723 91.4884L316.445 98.6021L317.501 98.6432L317.778 91.5296L316.723 91.4884Z" fill="#D9E5FF"/>
<path d="M244.319 189.453C222.602 189.453 205.618 171.785 206.457 150.068L207.756 116.478C207.733 116.478 207.712 116.481 207.689 116.481C207.289 116.481 206.916 116.441 206.56 116.38L205.257 150.067C204.392 172.445 221.895 190.652 244.273 190.652C255.743 190.652 266.294 185.862 273.979 178.184C273.694 177.906 273.45 177.594 273.239 177.261C265.774 184.765 255.496 189.453 244.319 189.453Z" fill="white"/>
<path d="M248.961 69.3669C228.421 69.3669 210.816 84.7076 207.39 104.53C207.636 104.504 207.889 104.487 208.152 104.487C208.307 104.487 208.454 104.5 208.602 104.509C212.002 85.3593 229.045 70.5668 248.915 70.5668C270.631 70.5668 287.616 88.2342 286.777 109.952L285.226 150.069C284.977 156.501 283.183 162.572 280.23 167.939C280.623 168.062 280.985 168.223 281.314 168.418C284.336 162.903 286.171 156.671 286.426 150.07L287.976 109.953C288.842 87.573 271.339 69.3669 248.961 69.3669Z" fill="white"/>
<path d="M248.643 77.5997C255.424 77.5997 261.676 79.5624 266.896 82.9385C267.069 82.5686 267.272 82.214 267.515 81.8844C262.126 78.4153 255.679 76.4009 248.69 76.4009C240.921 76.4009 233.63 78.8896 227.585 83.1014C227.796 83.4368 227.97 83.7962 228.107 84.1728C233.975 80.0425 241.075 77.5997 248.643 77.5997Z" fill="white"/>
<path d="M211.557 153.919C211.271 151.906 211.149 149.836 211.232 147.72L212.601 112.3C212.891 104.782 215.572 97.8202 219.871 92.1317C219.505 91.9544 219.175 91.7397 218.878 91.4944C214.457 97.3689 211.701 104.549 211.402 112.301L210.033 147.721C209.947 149.935 210.076 152.101 210.381 154.206C210.758 154.073 211.153 153.977 211.557 153.919Z" fill="white"/>
<path d="M276.122 89.8059C275.843 90.0992 275.53 90.3617 275.185 90.5917C279.739 96.5409 282.32 104.09 282.002 112.3L280.633 147.72C279.893 166.853 263.725 182.419 244.59 182.419C236.838 182.419 229.77 179.863 224.153 175.55C223.799 175.818 223.43 176.046 223.042 176.225C228.91 180.857 236.355 183.618 244.543 183.618C264.338 183.618 281.066 167.514 281.831 147.719L283.201 112.299C283.531 103.79 280.85 95.966 276.122 89.8059Z" fill="white"/>
<path d="M216.741 126.362L217.194 114.65C217.835 98.0989 231.82 84.6337 248.372 84.6337C262.754 84.6337 274.407 94.8023 276.797 108.326C277.172 108.26 277.564 108.219 277.982 108.219C277.991 108.219 277.998 108.22 278.007 108.22C275.581 94.0817 263.427 83.4348 248.419 83.4348C231.206 83.4348 216.662 97.4377 215.995 114.651L215.541 126.399C215.809 126.366 216.084 126.345 216.371 126.345C216.498 126.344 216.617 126.356 216.741 126.362Z" fill="white"/>
<path d="M257.356 172.698C253.51 174.419 249.28 175.386 244.863 175.386C228.311 175.386 215.366 161.921 216.006 145.37L216.278 138.321C216.154 138.328 216.034 138.34 215.906 138.34C215.618 138.34 215.346 138.318 215.08 138.286L214.806 145.369C214.141 162.582 227.603 176.585 244.816 176.585C249.476 176.585 253.937 175.551 257.984 173.712C257.737 173.399 257.53 173.059 257.356 172.698Z" fill="white"/>
<path d="M277.517 120.213C277.344 120.213 277.179 120.201 277.013 120.188L276.039 145.369C275.735 153.242 272.406 160.412 267.223 165.772C267.463 166.102 267.666 166.456 267.828 166.832C273.356 161.233 276.918 153.678 277.239 145.369L278.213 120.178C277.988 120.201 277.756 120.213 277.517 120.213Z" fill="white"/>
<path d="M258.839 92.7661C255.599 91.2941 251.984 90.468 248.146 90.468C233.515 90.468 221.153 102.371 220.588 117.001L219.581 143.021C219.521 144.585 219.605 146.115 219.809 147.606C220.154 147.29 220.536 147.013 220.945 146.778C220.809 145.548 220.73 144.3 220.78 143.021L221.786 117.001C222.327 103.032 234.131 91.6678 248.099 91.6678C251.728 91.6678 255.143 92.4489 258.213 93.8288C258.387 93.4551 258.593 93.0976 258.839 92.7661Z" fill="white"/>
<path d="M268.062 99.9199C267.832 100.264 267.567 100.585 267.266 100.874C270.724 105.258 272.689 110.878 272.453 117L271.447 143.02C270.922 156.613 259.725 167.707 246.252 168.297C246.127 168.724 245.958 169.14 245.745 169.536C260.086 169.185 272.089 157.429 272.647 143.02L273.653 117C273.903 110.499 271.78 104.539 268.062 99.9199Z" fill="white"/>
<path d="M243.079 99.2556C243.098 98.8378 243.157 98.4219 243.25 98.0127C240.155 98.6816 237.272 99.9859 234.756 101.795C235.135 101.994 235.474 102.233 235.776 102.507C237.967 100.995 240.437 99.8757 243.079 99.2556Z" fill="white"/>
<path d="M265.919 146.021C263.212 154.817 254.939 161.318 245.407 161.318C234.02 161.318 225.116 152.056 225.556 140.669L226.381 119.35C226.48 116.767 227.073 114.304 228.031 112.024C227.686 111.751 227.39 111.435 227.133 111.092C225.989 113.642 225.294 116.428 225.182 119.35L224.358 140.669C223.892 152.716 233.314 162.518 245.362 162.518C255.47 162.518 264.239 155.609 267.083 146.272C266.677 146.227 266.29 146.144 265.919 146.021Z" fill="white"/>
<path d="M267.677 119.35L267.506 123.777C267.817 123.725 268.131 123.678 268.453 123.678C268.54 123.678 268.622 123.701 268.708 123.705L268.877 119.35C269.251 109.687 263.256 101.482 254.654 98.6079C254.679 99.0324 254.667 99.4618 254.614 99.8873C262.537 102.716 268.025 110.361 267.677 119.35Z" fill="white"/>
<path d="M247.601 104.535C238.137 104.535 230.139 112.235 229.773 121.699L229.59 126.434C229.993 126.461 230.394 126.522 230.782 126.619L230.972 121.699C231.312 112.896 238.751 105.734 247.554 105.734C256.357 105.734 263.242 112.896 262.902 121.699L262.259 138.319C261.959 146.068 256.158 152.54 248.77 153.98C248.804 154.385 248.803 154.79 248.759 155.187C256.795 153.715 263.133 146.718 263.458 138.319L264.1 121.699C264.469 112.235 257.066 104.535 247.601 104.535Z" fill="white"/>
<path d="M236.395 118.615C236.657 118.615 236.907 118.631 237.15 118.658C239.202 115.152 243.015 112.768 247.284 112.768C248.585 112.768 249.82 113 250.968 113.407C251.101 113.023 251.268 112.652 251.471 112.3C250.183 111.836 248.795 111.569 247.33 111.569C242.388 111.569 238.007 114.465 235.826 118.643C236.012 118.627 236.199 118.615 236.395 118.615Z" fill="white"/>
<path d="M257.668 135.97C257.613 137.374 257.292 138.713 256.773 139.954C257.156 140.107 257.505 140.296 257.82 140.521C258.43 139.109 258.805 137.577 258.867 135.97L259.328 124.049C259.372 122.903 259.247 121.798 258.998 120.744C258.646 120.927 258.266 121.075 257.857 121.186C258.062 122.102 258.167 123.058 258.128 124.049L257.668 135.97Z" fill="white"/>
<path d="M248.579 146.934C247.73 147.135 246.852 147.253 245.951 147.253C239.73 147.253 234.865 142.192 235.105 135.97L235.313 130.58C234.888 130.543 234.492 130.464 234.122 130.354L233.904 135.97C233.638 142.853 239.021 148.452 245.903 148.452C246.926 148.452 247.921 148.314 248.882 148.081C248.746 147.712 248.645 147.326 248.579 146.934Z" fill="white"/>
<path d="M247.058 118.602C242.759 118.602 239.126 122.1 238.96 126.399L238.681 133.62C238.654 134.316 238.729 134.988 238.875 135.631C239.181 135.267 239.532 134.938 239.929 134.657C239.888 134.318 239.866 133.973 239.88 133.62L240.158 126.399C240.299 122.761 243.374 119.802 247.011 119.802C250.649 119.802 253.494 122.762 253.353 126.399L253.075 133.62C252.972 136.284 251.292 138.579 248.972 139.62C248.954 140.072 248.886 140.524 248.779 140.966C251.851 139.896 254.142 137.011 254.273 133.62L254.552 126.399C254.72 122.1 251.357 118.602 247.058 118.602Z" fill="white"/>
<path d="M267.204 32.4372H233.573C232.507 32.4372 231.669 31.5661 231.711 30.5005C231.752 29.4348 232.658 28.5637 233.722 28.5637H267.353C268.419 28.5637 269.257 29.4358 269.215 30.5005C269.174 31.5661 268.269 32.4372 267.204 32.4372Z" fill="#D9E5FF"/>
<path opacity="0.2" d="M214.594 66.0789C212.655 66.2379 210.646 66.2801 208.62 66.2159C207.928 66.0683 207.212 66.0156 206.471 66.0789C206.397 66.0789 206.323 66.0789 206.248 66.0894C200.675 65.709 194.949 64.6318 189.642 63.0899C189.088 62.9318 188.515 62.7411 187.93 62.5408L183.267 183.159L214.399 162.39C217.251 160.489 219.03 157.341 219.161 153.981L222.278 73.3362C222.445 69.0372 218.886 65.7205 214.594 66.0789Z" fill="black"/>
<path d="M207.095 57.0792C205.155 57.2393 203.152 57.2785 201.119 57.2182C200.435 57.0735 199.717 57.0179 198.974 57.0792C198.9 57.085 198.823 57.085 198.75 57.0907C193.178 56.717 187.452 55.6379 182.144 54.0921C176.309 52.394 168.718 48.3509 163.814 43.7031C162.497 42.4544 160.785 41.8305 159.049 41.8286V41.8276H150.929V41.8286C149.185 41.8257 147.415 42.4515 145.994 43.7069C140.739 48.3528 132.85 52.394 126.886 54.0921C121.459 55.6379 115.649 56.717 110.049 57.0907C109.975 57.085 109.899 57.085 109.826 57.0792C109.088 57.0179 108.365 57.0735 107.67 57.2182C105.631 57.2785 103.632 57.2393 101.705 57.0792C97.4385 56.7256 93.6273 60.0452 93.4615 64.3394L90.3441 144.985C90.2138 148.346 91.7509 151.491 94.4505 153.39L139.633 185.168C141.322 186.356 143.309 186.95 145.319 186.95H153.44C155.45 186.95 157.483 186.356 159.263 185.168L206.903 153.39C209.749 151.491 211.529 148.346 211.659 144.985L214.777 64.3394C214.943 60.0452 211.389 56.7246 207.095 57.0792Z" fill="#407BFF"/>
<path opacity="0.8" d="M207.095 57.0792C205.155 57.2393 203.152 57.2785 201.119 57.2182C200.435 57.0735 199.717 57.0179 198.974 57.0792C198.9 57.085 198.823 57.085 198.75 57.0907C193.178 56.717 187.452 55.6379 182.144 54.0921C176.309 52.394 168.718 48.3509 163.814 43.7031C162.497 42.4544 160.785 41.8305 159.049 41.8286V41.8276H150.929V41.8286C149.185 41.8257 147.415 42.4515 145.994 43.7069C140.739 48.3528 132.85 52.394 126.886 54.0921C121.459 55.6379 115.649 56.717 110.049 57.0907C109.975 57.085 109.899 57.085 109.826 57.0792C109.088 57.0179 108.365 57.0735 107.67 57.2182C105.631 57.2785 103.632 57.2393 101.705 57.0792C97.4385 56.7256 93.6273 60.0452 93.4615 64.3394L90.3441 144.985C90.2138 148.346 91.7509 151.491 94.4505 153.39L139.633 185.168C141.322 186.356 143.309 186.95 145.319 186.95H153.44C155.45 186.95 157.483 186.356 159.263 185.168L206.903 153.39C209.749 151.491 211.529 148.346 211.659 144.985L214.777 64.3394C214.943 60.0452 211.389 56.7246 207.095 57.0792Z" fill="white"/>
<path d="M95.5476 144.833L98.5289 67.7173C98.642 64.8031 101.096 62.4408 104.01 62.4427L105.73 62.4437C112.674 62.4437 120.42 61.2832 128.131 59.0848C133.723 57.4921 141.32 53.9415 147.293 49.2784C149.312 47.702 152.071 47.701 153.969 49.2765C159.588 53.9387 166.918 57.4911 172.393 59.0848C179.934 61.2822 187.591 62.4437 194.535 62.4437L196.155 62.4427C199.125 62.4408 201.439 64.8481 201.325 67.817L198.348 144.833C198.281 146.574 197.359 148.203 195.884 149.186L148.54 180.77C146.695 182 144.327 182 142.577 180.77L97.6741 149.186C96.2759 148.203 95.4805 146.574 95.5476 144.833Z" fill="url(#paint1_linear_1270_1457)"/>
<path opacity="0.2" d="M108.698 140.765L111.232 75.2076C117.692 74.7256 124.504 73.4923 131.247 71.5708C136.399 70.1027 143.451 67.1607 150.109 62.8933C156.443 67.1607 163.274 70.1027 168.316 71.5708C174.91 73.4923 181.627 74.7266 188.046 75.2076L185.511 140.765L146.087 167.064L108.698 140.765Z" fill="white"/>
<path opacity="0.2" d="M121.956 133.914L123.786 86.562C127.296 85.8979 130.829 85.0622 134.36 84.056C139.233 82.6674 144.496 80.5351 149.529 77.9438C154.366 80.5351 159.47 82.6674 164.239 84.056C167.692 85.0622 171.158 85.8998 174.614 86.562L172.784 133.914L146.697 151.316L121.956 133.914Z" fill="white"/>
<path d="M34.9814 59.9765C33.1913 63.6996 31.3753 67.5108 29.6311 71.2674C28.7639 73.1514 27.9282 75.0355 27.1242 76.9032C26.3623 78.7547 25.6043 80.6684 25.1462 82.2842C24.7294 83.5798 24.6632 85.6191 24.6057 87.6172C24.5799 89.6335 24.5808 91.714 24.6383 93.7973L24.9517 106.429L20.531 107.082C19.4184 102.893 18.5252 98.703 17.8324 94.4164C17.5085 92.2707 17.1865 90.1155 17.0082 87.8874C16.9143 86.771 16.8396 85.643 16.8185 84.4509C16.8127 83.85 16.8213 83.2434 16.8664 82.5755C16.8846 82.2516 16.9172 81.9018 16.9699 81.5242C17.0121 81.1361 17.0839 80.8706 17.1414 80.5381C17.6359 78.0129 18.3297 75.9229 19.0638 73.8031C19.8017 71.7139 20.6019 69.6795 21.4366 67.6727C23.1194 63.6574 24.921 59.7839 26.9277 55.9094L34.9814 59.9765Z" fill="#F9AC85"/>
<path d="M28.1256 108.177L24.4438 103.938L20.2876 104.148C18.3767 108.698 22.5377 111.601 22.5377 111.601L23.2747 114.095C23.5871 115.152 24.7763 115.65 25.7912 115.149L28.0988 114.007C28.7639 113.679 29.1846 112.993 29.1692 112.265L29.1395 110.835C29.1204 109.848 28.762 108.91 28.1256 108.177Z" fill="#F9AC85"/>
<path d="M16.4293 297.48C15.6885 297.167 14.9478 296.669 14.4418 296.292C14.3757 296.243 14.3459 296.158 14.3661 296.076C14.3862 295.994 14.4523 295.932 14.5347 295.915C14.8903 295.846 18.0288 295.269 18.7724 296.095C18.8903 296.225 19.0091 296.453 18.9104 296.8C18.7801 297.26 18.5213 297.562 18.1428 297.699C17.6617 297.873 17.0455 297.741 16.4293 297.48ZM15.1001 296.242C16.3699 297.117 17.4403 297.511 18.0125 297.304C18.2559 297.216 18.4188 297.017 18.5098 296.696C18.5597 296.522 18.5089 296.437 18.46 296.383C18.07 295.944 16.3613 296.049 15.1001 296.242Z" fill="white"/>
<path d="M14.4831 296.316C14.4505 296.303 14.4208 296.28 14.3988 296.249C14.3557 296.189 14.348 296.11 14.3777 296.041C14.4218 295.94 15.4673 293.587 16.6853 293.166C17.0092 293.054 17.3188 293.081 17.6024 293.246C18.0519 293.506 18.0471 293.867 18.004 294.057C17.7797 295.058 15.5468 296.21 14.5876 296.329C14.5512 296.335 14.5157 296.329 14.4831 296.316ZM17.3044 293.571C17.1482 293.505 16.9862 293.503 16.8099 293.564C16.0835 293.815 15.3236 295.063 14.9354 295.83C15.9704 295.53 17.4616 294.586 17.5986 293.977C17.6216 293.877 17.6178 293.745 17.3878 293.613C17.3609 293.597 17.3322 293.583 17.3044 293.571Z" fill="white"/>
<path d="M49.5084 25.4597C50.299 30.7103 52.0911 42.167 48.2703 45.5853C48.2703 45.5853 49.4624 50.9192 59.1912 51.1109C69.8889 51.3208 64.5424 45.9053 64.5424 45.9053C58.7667 44.3979 59.1126 40.073 60.3124 36.029L49.5084 25.4597Z" fill="#FF8B7B"/>
<path d="M71.4146 16.7564C71.3532 16.7429 71.2948 16.7152 71.244 16.672C71.0686 16.5264 71.0485 16.2628 71.198 16.0827C72.6978 14.2839 74.6115 14.4622 74.692 14.4708C74.9201 14.4928 75.0811 14.7008 75.0514 14.9308C75.0217 15.1598 74.8127 15.3266 74.5856 15.3036C74.5224 15.2978 73.0293 15.1742 71.8324 16.6097C71.726 16.7382 71.5631 16.7889 71.4146 16.7564Z" fill="black"/>
<path d="M73.4048 21.9216C73.4048 21.9216 74.2357 25.0917 75.3761 26.6912C74.3402 27.4779 72.8049 26.9269 72.8049 26.9269L73.4048 21.9216Z" fill="#FFA4A2"/>
<path d="M72.9198 20.6424C72.8345 21.3525 73.1393 21.9629 73.6002 22.007C74.0612 22.0511 74.5039 21.5106 74.5892 20.8005C74.6745 20.0904 74.3698 19.4799 73.9088 19.4359C73.4479 19.3918 73.0051 19.9323 72.9198 20.6424Z" fill="black"/>
<path d="M73.7009 19.4559L75.4537 19.1252C75.4537 19.1252 74.4245 20.3749 73.7009 19.4559Z" fill="black"/>
<path d="M81.4588 300.98L90.7966 298.033L89.8757 279.017L80.5388 281.963L81.4588 300.98Z" fill="#F9AC85"/>
<path d="M4.84229 294.19L13.2457 296.567L20.2836 277.104L11.8792 274.728L4.84229 294.19Z" fill="#F9AC85"/>
<path d="M14.3143 294.89L5.31095 291.085C4.98321 290.946 4.61522 291.067 4.42547 291.375L0.204091 298.225C-0.233859 298.936 0.0881381 299.919 0.849998 300.225C4.01339 301.496 5.60899 301.947 9.56778 303.62C12.0038 304.649 13.9032 307.769 19.2688 307.769C22.8912 307.769 23.5793 304.491 22.0901 304.013C15.4125 301.87 16.7523 298.67 15.4336 295.959C15.195 295.471 14.7935 295.093 14.3143 294.89Z" fill="#1B1425"/>
<path d="M94.1219 299.344C93.3063 299.344 92.4103 299.176 91.7816 299.028C91.7002 299.009 91.636 298.943 91.6187 298.861C91.6015 298.779 91.635 298.697 91.7031 298.651C91.9982 298.451 94.6211 296.721 95.6628 297.187C95.8277 297.261 96.0366 297.422 96.0979 297.775C96.1794 298.242 96.0749 298.616 95.7884 298.885C95.4232 299.228 94.8013 299.344 94.1219 299.344ZM92.3634 298.73C93.9091 299.037 95.0629 298.984 95.4961 298.577C95.6801 298.403 95.7424 298.16 95.6858 297.833C95.6552 297.657 95.5718 297.598 95.5028 297.569C94.9537 297.319 93.4338 298.07 92.3634 298.73Z" fill="white"/>
<path d="M91.8305 299.034C91.7941 299.034 91.7576 299.024 91.7241 299.005C91.6589 298.968 91.6168 298.899 91.6139 298.825C91.611 298.716 91.5392 296.177 92.4697 295.328C92.7169 295.102 93.0121 295.008 93.3456 295.049C93.8707 295.112 94.0241 295.442 94.0681 295.632C94.3001 296.626 92.7581 298.53 91.9321 299.007C91.9004 299.025 91.8659 299.034 91.8305 299.034ZM93.2143 295.457C93.0428 295.457 92.8933 295.518 92.7581 295.64C92.2023 296.147 92.0528 297.573 92.0327 298.418C92.8492 297.749 93.8027 296.319 93.6618 295.712C93.6388 295.612 93.5775 295.495 93.3101 295.462C93.2766 295.46 93.245 295.457 93.2143 295.457Z" fill="white"/>
<path d="M91.0514 297.803H81.1386C80.7783 297.803 80.4937 298.054 80.4544 298.406L79.5833 306.249C79.4932 307.062 80.2177 307.832 81.0495 307.818C84.5033 307.758 86.1621 307.555 90.5215 307.555C93.2028 307.555 97.13 307.834 100.834 307.834C104.456 307.834 104.614 304.172 103.061 303.841C96.0979 302.353 94.9374 300.303 92.5435 298.347C92.1123 297.993 91.5795 297.803 91.0514 297.803Z" fill="#1B1425"/>
<path opacity="0.2" d="M89.8749 279.022L90.3693 289.21L81.0085 291.773L80.5332 281.971L89.8749 279.022Z" fill="black"/>
<path opacity="0.2" d="M11.8757 274.733L20.283 277.111L16.6519 287.141L8.24463 284.764L11.8757 274.733Z" fill="black"/>
<path d="M30.9688 46.7C27.2956 47.5615 23.2524 60.8102 23.2524 60.8102L33.5112 71.667C33.5112 71.667 42.2309 59.1466 40.5222 54.6195C38.7445 49.9056 35.3109 45.6823 30.9688 46.7Z" fill="#407BFF"/>
<path d="M30.9688 46.7C27.2956 47.5615 23.2524 60.8102 23.2524 60.8102L33.5112 71.667C33.5112 71.667 42.2309 59.1466 40.5222 54.6195C38.7445 49.9056 35.3109 45.6823 30.9688 46.7Z" fill="#A535C5"/>
<path opacity="0.4" d="M36.6986 55.0018C38.5692 53.2758 39.8179 53.7627 40.6584 55.0976C41.4633 59.0037 36.0182 67.8422 33.976 70.9807C33.0848 67.2864 32.4686 58.9232 36.6986 55.0018Z" fill="black"/>
<path d="M77.9856 49.7406C78.4973 53.6007 78.1782 65.3534 70.7474 100.987L34.9122 100.284C36.1705 85.7243 36.5921 76.7401 30.9688 46.6998C30.9688 46.6998 38.5509 45.2154 46.2769 44.995C52.32 44.8225 57.2697 44.7276 62.549 45.3151C67.7364 45.892 73.4192 47.0257 75.9779 47.5661C77.0503 47.7933 77.8418 48.651 77.9856 49.7406Z" fill="#407BFF"/>
<path d="M77.9856 49.7406C78.4973 53.6007 78.1782 65.3534 70.7474 100.987L34.9122 100.284C36.1705 85.7243 36.5921 76.7401 30.9688 46.6998C30.9688 46.6998 38.5509 45.2154 46.2769 44.995C52.32 44.8225 57.2697 44.7276 62.549 45.3151C67.7364 45.892 73.4192 47.0257 75.9779 47.5661C77.0503 47.7933 77.8418 48.651 77.9856 49.7406Z" fill="#A535C5"/>
<path d="M49.4959 15.9535C48.9823 24.7231 48.5788 28.4289 52.4178 33.3201C58.1917 40.6771 69.0235 39.1112 72.1342 30.6042C74.9334 22.9473 75.3033 9.8922 67.2401 5.61716C59.2947 1.40441 50.0096 7.184 49.4959 15.9535Z" fill="#F9AC85"/>
<path d="M61.2853 100.801C61.2853 100.801 56.0846 164.738 49.2345 198.732C43.7022 226.19 18.6183 285.518 18.6183 285.518L7.6897 280.9C7.6897 280.9 20.2839 213.698 28.833 197.324C38.4439 140.966 22.901 121.746 34.9135 100.283L61.2853 100.801Z" fill="#1B1425"/>
<path opacity="0.4" d="M51.5391 135.793C47.6196 152.453 50.1553 167.59 52.8175 177.574C54.3815 166.873 55.8075 155.337 57.0111 144.541C55.3532 141.435 53.2718 138.498 51.5391 135.793Z" fill="black"/>
<path d="M70.7485 100.988C70.7485 100.988 84.3508 163.457 86.1026 190.166C87.9253 217.948 91.5813 283.797 91.5813 283.797L79.5755 287.017C79.5755 287.017 66.0825 219.156 67.1385 198.733C60.4572 169.753 37.0408 100.365 37.0408 100.365L70.7485 100.988Z" fill="#1B1425"/>
<path d="M93.3599 286.835L77.7758 289.47L76.2866 283.91L92.9651 281.075L93.3599 286.835Z" fill="#1B1425"/>
<path d="M20.5175 286.062L5.92139 281.934L6.73499 276.52L22.3431 280.357L20.5175 286.062Z" fill="#1B1425"/>
<path d="M34.4706 98.1729L32.7101 101.346C32.5731 101.592 32.8568 101.851 33.2708 101.86L70.852 102.597C71.175 102.604 71.45 102.451 71.4797 102.249L71.9474 99.0507C71.9799 98.8294 71.7078 98.6358 71.3551 98.6291L35.0666 97.9171C34.8002 97.9103 34.5587 98.0138 34.4706 98.1729Z" fill="white"/>
<path d="M39.1615 102.322L38.1898 102.303C37.9962 102.299 37.8534 102.197 37.8726 102.075L38.5156 97.9209C38.5348 97.7991 38.7082 97.7033 38.9018 97.7071L39.8735 97.7263C40.0671 97.7301 40.2099 97.8327 40.1907 97.9544L39.5477 102.109C39.5295 102.229 39.3551 102.326 39.1615 102.322Z" fill="#263238"/>
<path d="M62.7197 102.784L61.7479 102.765C61.5544 102.761 61.4116 102.659 61.4298 102.537L62.0728 98.3827C62.092 98.261 62.2654 98.1642 62.459 98.1681L63.4307 98.1872C63.6243 98.1911 63.7671 98.2936 63.7489 98.4153L63.1059 102.57C63.0867 102.692 62.9133 102.788 62.7197 102.784Z" fill="#263238"/>
<path d="M79.9485 54.2935C81.7079 58.0223 83.6591 61.8948 85.6744 65.5671C87.706 69.2403 89.8623 72.8685 92.2791 75.9983C92.5829 76.397 92.8896 76.7956 93.1406 77.0803C93.4157 77.3946 93.707 77.7127 94.0357 78.0204C94.6739 78.6471 95.3821 79.2681 96.1565 79.8536C97.7022 81.0237 99.4099 82.1411 101.208 83.1598C104.786 85.2087 108.701 87.0764 112.565 88.7257L111.394 93.0381C106.852 92.2628 102.536 91.0649 98.2216 89.3333C96.0827 88.444 93.9447 87.4511 91.868 86.1641C90.8263 85.5307 89.7952 84.8158 88.7861 84.005C88.2829 83.6026 87.7894 83.155 87.3035 82.6854C86.7889 82.1881 86.397 81.7444 86.0012 81.3026C85.1751 80.4152 84.4497 79.4991 83.6984 78.5858C83.0026 77.6553 82.2801 76.7286 81.6332 75.7808C80.2858 73.9025 79.0783 71.9705 77.9073 70.0232C75.5766 66.1008 73.546 62.1699 71.6917 57.9284L79.9485 54.2935Z" fill="#F9AC85"/>
<path d="M75.4546 47.4329C83.8552 49.2652 85.8897 62.4583 85.8897 62.4583L77.6147 72.098C77.6147 72.098 64.4791 59.6658 65.1288 52.8675C65.6108 47.8181 70.8758 46.4343 75.4546 47.4329Z" fill="#407BFF"/>
<path d="M75.4546 47.4329C83.8552 49.2652 85.8897 62.4583 85.8897 62.4583L77.6147 72.098C77.6147 72.098 64.4791 59.6658 65.1288 52.8675C65.6108 47.8181 70.8758 46.4343 75.4546 47.4329Z" fill="#A535C5"/>
<path d="M122.298 92.1423L119.974 89.3843C119.974 89.3843 112.461 87.6325 109.138 89.2626L108.109 92.3637L116.509 96.7125L118.255 97.53C119.094 97.9229 120.117 97.6373 120.671 96.8563L122.362 94.472C122.873 93.7513 122.848 92.794 122.298 92.1423Z" fill="#F9AC85"/>
<path d="M73.9982 64.3922C75.4663 60.4832 76.2799 55.73 75.9522 53.522C75.4558 57.5259 72.4132 63.0084 69.3494 67.0755C57.0744 72.1143 43.8803 69.8009 35.2813 64.6663C32.7667 59.5642 30.6757 51.5987 31.9962 46.8455C30.3796 49.2643 29.1865 55.867 29.9464 60.5254C27.3685 57.8843 25.8688 54.9269 25.8582 52.0108C25.8161 38.0136 42.7284 38.8694 42.9613 28.6538C43.1932 18.4382 39.0322 -2.45118 59.8631 2.01169C73.5114 1.36674 70.6594 13.3993 68.4304 20.7199C66.371 27.4818 87.0131 53.4166 73.9982 64.3922Z" fill="black"/>
<path d="M59.8639 2.01276C68.4005 -2.53827 77.0867 4.62225 72.6545 12.1306C68.711 11.9543 65.5256 14.4622 68.6066 19.4589C59.4499 13.6889 53.8504 2.51684 59.8639 2.01276Z" fill="black"/>
<path d="M68.8396 18.1287C69.9646 20.0127 70.1045 22.0549 69.9474 23.4195C69.6771 25.7712 67.841 25.7732 66.5434 24.3673C65.3753 23.1023 64.1783 20.0616 64.9296 18.2667C65.6704 16.4995 67.8333 16.4449 68.8396 18.1287Z" fill="#F9AC85"/>
<defs>
<linearGradient id="paint0_linear_1270_1457" x1="195.258" y1="61.976" x2="340.033" y2="164.253" gradientUnits="userSpaceOnUse">
<stop stop-color="#F57A00"/>
<stop offset="1" stop-color="#7103A4"/>
</linearGradient>
<linearGradient id="paint1_linear_1270_1457" x1="106.433" y1="70.2018" x2="195.533" y2="152.489" gradientUnits="userSpaceOnUse">
<stop stop-color="#F57A00"/>
<stop offset="1" stop-color="#7103A4"/>
</linearGradient>
</defs>
</svg>
