<svg width="220" height="262" viewBox="0 0 220 262" fill="none" xmlns="http://www.w3.org/2000/svg">
<path d="M111.41 86.6027H110.544V75.8054L91.1819 72.7427V60.4919H92.0471V71.9987L111.41 75.07V86.6027Z" fill="url(#paint0_linear_1267_9797)"/>
<path d="M112.145 86.6028C112.145 86.8338 112.077 87.0596 111.948 87.2517C111.82 87.4438 111.637 87.5935 111.424 87.6819C111.211 87.7703 110.976 87.7934 110.749 87.7483C110.523 87.7033 110.315 87.592 110.151 87.4287C109.988 87.2653 109.877 87.0572 109.832 86.8307C109.786 86.6041 109.81 86.3693 109.898 86.1558C109.986 85.9424 110.136 85.76 110.328 85.6317C110.52 85.5033 110.746 85.4348 110.977 85.4348C111.13 85.4348 111.282 85.465 111.424 85.5237C111.566 85.5824 111.694 85.6685 111.803 85.7769C111.911 85.8854 111.997 86.0141 112.056 86.1558C112.115 86.2975 112.145 86.4494 112.145 86.6028Z" fill="url(#paint1_linear_1267_9797)"/>
<path d="M16.4833 141.428H15.5576V130.103L34.9201 104.676V92.9617H35.8458V104.996L16.4833 130.415V141.428Z" fill="url(#paint2_linear_1267_9797)"/>
<path d="M16.0161 142.596C16.6612 142.596 17.1841 142.074 17.1841 141.428C17.1841 140.783 16.6612 140.26 16.0161 140.26C15.3711 140.26 14.8481 140.783 14.8481 141.428C14.8481 142.074 15.3711 142.596 16.0161 142.596Z" fill="url(#paint3_linear_1267_9797)"/>
<path d="M93.838 121.132H92.9728V110.326L73.6104 107.263V70.6404H74.4755V106.528L93.838 109.59V121.132Z" fill="url(#paint4_linear_1267_9797)"/>
<path d="M94.5733 121.131C94.5733 121.362 94.5048 121.588 94.3764 121.78C94.2481 121.972 94.0657 122.122 93.8523 122.21C93.6388 122.299 93.404 122.322 93.1774 122.277C92.9509 122.232 92.7427 122.121 92.5794 121.957C92.4161 121.794 92.3048 121.586 92.2597 121.359C92.2147 121.133 92.2378 120.898 92.3262 120.684C92.4146 120.471 92.5643 120.289 92.7564 120.16C92.9485 120.032 93.1743 119.963 93.4053 119.963C93.7151 119.963 94.0121 120.086 94.2312 120.305C94.4502 120.525 94.5733 120.822 94.5733 121.131Z" fill="#BA68C8"/>
<path d="M34.0546 155.66H33.1289V144.335L52.4914 118.917V82.8132H53.4171V119.228L34.0546 144.647V155.66Z" fill="url(#paint5_linear_1267_9797)"/>
<path d="M33.5876 156.828C34.2327 156.828 34.7556 156.305 34.7556 155.66C34.7556 155.015 34.2327 154.492 33.5876 154.492C32.9426 154.492 32.4197 155.015 32.4197 155.66C32.4197 156.305 32.9426 156.828 33.5876 156.828Z" fill="url(#paint6_linear_1267_9797)"/>
<path d="M59.8022 245.993C60.831 246.517 61.9695 246.791 63.1244 246.791C64.2794 246.791 65.4179 246.517 66.4467 245.993C68.2809 244.937 68.2809 243.215 66.4467 242.16C65.4179 241.635 64.2794 241.361 63.1244 241.361C61.9695 241.361 60.831 241.635 59.8022 242.16C57.994 243.207 57.994 244.928 59.8022 245.993Z" fill="white"/>
<path d="M63.1504 249.825C60.7994 249.874 58.4756 249.316 56.4021 248.207C54.516 247.126 53.4778 245.655 53.4778 244.063C53.4778 242.471 54.516 241.009 56.4021 239.919C58.4926 238.861 60.8029 238.31 63.1461 238.31C65.4892 238.31 67.7995 238.861 69.8901 239.919C71.7761 241.009 72.8143 242.515 72.8143 244.063C72.8143 245.612 71.7761 247.126 69.8901 248.207C67.8194 249.316 65.4985 249.873 63.1504 249.825ZM56.8346 247.463C58.7913 248.453 60.9533 248.969 63.1461 248.969C65.3388 248.969 67.5008 248.453 69.4575 247.463C71.0667 246.538 71.9491 245.326 71.9491 244.063C71.9491 242.8 71.084 241.598 69.4575 240.672C67.5008 239.682 65.3388 239.166 63.1461 239.166C60.9533 239.166 58.7913 239.682 56.8346 240.672C55.2254 241.598 54.343 242.8 54.343 244.063C54.343 245.326 55.2081 246.538 56.8346 247.463Z" fill="white"/>
<path d="M63.1504 244.496C63.0356 244.496 62.9256 244.45 62.8445 244.369C62.7634 244.288 62.7178 244.178 62.7178 244.063V76.8435C62.7178 76.7287 62.7634 76.6187 62.8445 76.5376C62.9256 76.4565 63.0356 76.4109 63.1504 76.4109C63.2651 76.4109 63.3751 76.4565 63.4562 76.5376C63.5374 76.6187 63.5829 76.7287 63.5829 76.8435V244.063C63.5829 244.178 63.5374 244.288 63.4562 244.369C63.3751 244.45 63.2651 244.496 63.1504 244.496Z" fill="url(#paint7_linear_1267_9797)"/>
<path opacity="0.8" d="M116.583 31.3097L116.315 31.154L116.151 31.0588L110.146 27.5981C110.146 27.4597 110.146 27.3213 110.146 27.1742C110.146 19.803 107.663 14.6466 103.753 12.4663L92.2115 5.80454C89.0363 3.97904 84.9008 4.14342 80.3759 6.75623C78.2831 8.00483 76.3658 9.52647 74.6745 11.2811C73.9305 10.5175 73.0899 9.85433 72.1741 9.30848L61.0567 2.88027C56.9731 0.172294 51.5398 0.232857 45.4836 3.70218C32.8608 11.0042 22.5999 30.5657 22.5999 47.4105C22.595 49.2785 22.7338 51.1441 23.0152 52.9908L21.4406 53.856C13.4032 58.4933 6.88843 70.9431 6.88843 81.6625C6.88843 87.5716 8.87832 91.7937 12.0102 93.6105L23.69 100.35C26.2336 101.804 29.5126 101.683 33.0944 99.6148L54.2565 87.3986L110.631 54.851C115.45 52.0651 119.36 44.5987 119.36 38.1705C119.378 34.8915 118.296 32.4517 116.583 31.3097Z" fill="#BA68C8"/>
<path d="M116.583 31.3097L116.315 31.154L116.151 31.0588L110.146 27.5981C110.146 27.4597 110.146 27.3213 110.146 27.1742C110.146 19.803 107.663 14.6466 103.753 12.4663L92.2115 5.80454C89.0363 3.97904 84.9008 4.14342 80.3759 6.75623C78.2831 8.00483 76.3658 9.52647 74.6745 11.2811C73.9305 10.5175 73.0899 9.85433 72.1741 9.30848L61.0567 2.88027C56.9731 0.172294 51.5398 0.232857 45.4836 3.70218C32.8608 11.0042 22.5999 30.5657 22.5999 47.4105C22.595 49.2785 22.7338 51.1441 23.0152 52.9908L21.4406 53.856C13.4032 58.4933 6.88843 70.9431 6.88843 81.6625C6.88843 87.5716 8.87832 91.7937 12.0102 93.6105L23.69 100.35C26.2336 101.804 29.5126 101.683 33.0944 99.6148L54.2565 87.3986L110.631 54.851C115.45 52.0651 119.36 44.5987 119.36 38.1705C119.378 34.8915 118.296 32.4517 116.583 31.3097Z" fill="url(#paint8_linear_1267_9797)"/>
<path d="M103.787 12.449C100.638 10.7186 96.5372 10.8917 92.073 13.4785C89.8612 14.7927 87.8458 16.4121 86.086 18.2888L75.4877 12.1375L74.4495 11.5405L74.709 11.2723C76.4003 9.51774 78.3176 7.9961 80.4105 6.74749C84.9353 4.15199 89.0622 3.9703 92.246 5.79581L103.787 12.449Z" fill="url(#paint9_linear_1267_9797)"/>
<path opacity="0.8" d="M74.709 11.2725C74.9772 11.5493 75.2368 11.8348 75.4877 12.1376L74.4495 11.5407L74.709 11.2725Z" fill="white"/>
<path d="M71.9145 9.13547C67.9347 6.91199 62.7696 7.17154 57.1287 10.4246C51.4878 13.6776 46.167 19.5781 42.1527 26.5427L30.5161 19.829C34.5305 12.8644 39.7648 7.02446 45.4922 3.71086C51.5051 0.250189 56.973 0.189628 61.0653 2.88895L71.9145 9.13547Z" fill="url(#paint10_linear_1267_9797)"/>
<path d="M34.7119 59.7133L33.1373 60.5785C27.6954 63.7191 22.937 70.4587 20.4539 77.8127L8.75684 71.1249C10.7467 65.2677 14.1641 59.8085 18.2304 56.2353L23.0148 52.991L34.7119 59.7133Z" fill="url(#paint11_linear_1267_9797)"/>
<path d="M110.648 31.6126L109.783 32.0971C110.016 30.4607 110.135 28.81 110.138 27.157C110.138 13.8334 102.031 7.69936 92.0296 13.4787C87.3923 16.1521 83.1703 20.9191 79.9605 26.5946C79.5106 10.5458 69.4573 3.31295 57.1114 10.4333C44.4799 17.7267 34.2449 37.2968 34.2449 54.133C34.2397 56.001 34.3785 57.8666 34.6602 59.7133L33.0856 60.5785C25.0482 65.2244 18.5334 77.6656 18.5334 88.385C18.5334 99.0958 25.0482 104.261 33.0856 99.6322L54.2477 87.416L110.622 54.8684C115.441 52.0825 119.352 44.6161 119.352 38.1879C119.378 31.7857 115.467 28.8354 110.648 31.6126Z" fill="#BA68C8"/>
<path opacity="0.7" d="M110.648 31.6126L109.783 32.0971C110.016 30.4607 110.135 28.81 110.138 27.157C110.138 13.8334 102.031 7.69936 92.0296 13.4787C87.3923 16.1521 83.1703 20.9191 79.9605 26.5946C79.5106 10.5458 69.4573 3.31295 57.1114 10.4333C44.4799 17.7267 34.2449 37.2968 34.2449 54.133C34.2397 56.001 34.3785 57.8666 34.6602 59.7133L33.0856 60.5785C25.0482 65.2244 18.5334 77.6656 18.5334 88.385C18.5334 99.0958 25.0482 104.261 33.0856 99.6322L54.2477 87.416L110.622 54.8684C115.441 52.0825 119.352 44.6161 119.352 38.1879C119.378 31.7857 115.467 28.8354 110.648 31.6126Z" fill="white"/>
<path d="M27.4447 98.3864C23.8542 98.3864 21.5442 94.4759 21.5442 88.4284C21.5442 78.8423 27.5225 67.2923 34.5996 63.2087L36.1829 62.2916C36.7041 61.9899 37.1218 61.5375 37.3813 60.994C37.6407 60.4505 37.7296 59.8412 37.6364 59.2462C37.3711 57.5549 37.241 55.8451 37.247 54.1331C37.247 38.2745 46.8418 19.8205 58.6254 13.0203C60.9052 11.5858 63.5214 10.7744 66.2129 10.667C72.5979 10.667 76.7334 16.801 77.0102 26.6726C77.0257 27.3248 77.255 27.9539 77.663 28.463C78.0709 28.9721 78.6348 29.3331 79.268 29.4904C79.9011 29.6477 80.5684 29.5926 81.1672 29.3336C81.7659 29.0746 82.263 28.626 82.5819 28.0569C85.6533 22.6236 89.5465 18.3583 93.5523 16.0483C95.2665 14.985 97.229 14.3885 99.2451 14.318C104.064 14.318 107.179 19.3706 107.179 27.1917C107.176 28.7084 107.069 30.2232 106.859 31.7252C106.781 32.2786 106.86 32.8427 107.088 33.353C107.316 33.8632 107.683 34.299 108.147 34.6105C108.611 34.9219 109.153 35.0964 109.712 35.114C110.271 35.1317 110.823 34.9916 111.306 34.71L112.171 34.2342C112.763 33.855 113.442 33.6318 114.143 33.5853C115.727 33.5853 116.427 35.9299 116.427 38.2486C116.427 43.6299 113.114 50.0841 109.186 52.3508L31.658 97.1146C30.4018 97.9048 28.9618 98.3549 27.4793 98.421L27.4447 98.3864Z" fill="url(#paint12_linear_1267_9797)"/>
<path d="M69.8553 34.7013C69.8553 34.3812 69.812 34.1822 69.6649 34.0957C69.5092 34.0178 68.5143 33.3863 68.3759 33.2997C68.2201 33.2219 67.9952 33.2997 67.7183 33.4814C66.3826 34.4429 64.8204 35.0416 63.1843 35.219C61.5481 35.3964 59.8939 35.1465 58.3831 34.4937C57.9994 34.1907 57.6511 33.8453 57.3449 33.4641L57.293 33.4036C57.2171 33.3114 57.1265 33.2325 57.0248 33.17L55.6925 32.2962H55.6492C55.3464 32.1404 55.0695 32.2962 54.8706 32.7201C52.0761 39.0358 46.3659 45.3256 42.6544 46.8223C42.3715 46.9392 42.1176 47.1163 41.9103 47.3414C41.6378 47.6161 41.48 47.9842 41.4691 48.371C41.1922 56.5987 45.2499 69.8964 53.6334 74.577C54.1279 74.9236 54.6421 75.2413 55.1734 75.5286C67.329 63.8142 69.5265 44.4518 69.8553 34.7013Z" fill="#BA68C8"/>
<path d="M69.6564 34.0785C69.5007 34.0007 69.2758 34.0785 68.9902 34.2602C65.7545 36.5702 61.2037 36.7 58.366 34.4679C59.8763 35.1179 61.5293 35.3655 63.1638 35.1866C64.7983 35.0077 66.3586 34.4083 67.6925 33.447C67.9693 33.248 68.1943 33.1874 68.35 33.2653C68.5058 33.3691 69.5007 34.0266 69.6564 34.0785Z" fill="white"/>
<path d="M56.9557 33.1096C56.6529 32.9538 56.3674 33.1096 56.1684 33.5335C53.3739 39.8492 47.6724 46.139 43.9522 47.6357C43.5139 47.8107 43.1521 48.1357 42.9313 48.5528L41.6335 47.7396C41.7046 47.5933 41.798 47.4591 41.9104 47.3416C42.1177 47.1165 42.3716 46.9393 42.6544 46.8225C46.366 45.3257 52.0761 39.036 54.8706 32.7202C55.0696 32.279 55.3465 32.1406 55.6493 32.2963H55.6926L56.2722 32.651L56.9557 33.1096Z" fill="white"/>
<path d="M53.6161 74.5684C45.2413 69.8792 41.1923 56.5902 41.5037 48.3711C41.51 48.1508 41.5662 47.9348 41.6681 47.7395L42.9659 48.5528C42.8629 48.7473 42.8094 48.9642 42.8101 49.1843C42.4987 56.9709 46.1238 69.2995 53.6161 74.5684Z" fill="white"/>
<path d="M56.7255 33.0499C56.8002 33.0494 56.8777 33.0693 56.956 33.1095C56.9574 33.117 56.9584 33.1245 56.9599 33.132C57.0486 33.191 57.1303 33.2605 57.1982 33.3429L57.2499 33.4035C59.8455 36.6736 65.2439 36.8641 68.9208 34.2687C69.2063 34.0697 69.4311 34.0092 69.5868 34.0871C69.8118 34.1822 69.8813 34.3812 69.8554 34.7013C69.5269 44.4424 67.332 63.7756 55.1816 75.4933C55.1782 75.5049 55.1761 75.5169 55.1728 75.5285C55.1671 75.5254 55.1618 75.5217 55.1562 75.5187C55.153 75.5217 55.1505 75.5254 55.1474 75.5285C46.5995 70.9604 42.4634 57.4894 42.7489 49.1837C42.7599 48.7971 42.9179 48.429 43.1903 48.1544C43.3945 47.9297 43.6456 47.7521 43.9257 47.6349C47.6459 46.1382 53.3566 39.849 56.1425 33.5333C56.296 33.1929 56.5007 33.0338 56.7255 33.0499Z" fill="#F57A00"/>
<path opacity="0.4" d="M61.238 37.643C64.145 38.5082 66.7838 37.2969 68.2978 36.5789C68.2978 36.5789 68.0556 53.7957 61.7485 64.7228C64.3873 56.0711 64.8458 54.1764 65.2092 47.7395C65.5725 41.3027 63.401 39.3041 61.238 37.643Z" fill="white"/>
<path d="M63.4445 42.8943C63.0357 42.7308 62.58 42.7292 62.1701 42.8899C61.7602 43.0507 61.427 43.3616 61.2383 43.7595L54.8793 58.8999L53.3653 57.4291C53.2092 57.2635 53.0213 57.1311 52.8127 57.04C52.6041 56.9489 52.3793 56.9009 52.1517 56.8989C51.9241 56.897 51.6985 56.9411 51.4884 57.0287C51.2783 57.1162 51.0881 57.2453 50.9293 57.4083C50.7704 57.5712 50.6461 57.7647 50.564 57.9769C50.4818 58.1891 50.4434 58.4158 50.4512 58.6433C50.4589 58.8707 50.5126 59.0943 50.609 59.3004C50.7053 59.5066 50.8424 59.6912 51.012 59.843L54.2997 63.0354C54.6174 63.3373 55.038 63.5074 55.4763 63.5113C55.5855 63.5236 55.6958 63.5236 55.8051 63.5113C56.0742 63.4578 56.3262 63.3391 56.5389 63.1657C56.7515 62.9922 56.9184 62.7693 57.0249 62.5163L64.3443 45.1005C64.5055 44.6875 64.502 44.2284 64.3346 43.8179C64.1672 43.4073 63.8486 43.0768 63.4445 42.8943Z" fill="#FAFAFA"/>
<path opacity="0.1" d="M58.6774 49.9023L54.8793 58.9347L53.3653 57.4639C53.2092 57.2983 53.0213 57.1659 52.8127 57.0748C52.6041 56.9837 52.3793 56.9357 52.1517 56.9337C51.9241 56.9318 51.6985 56.9759 51.4884 57.0634C51.2783 57.151 51.0881 57.2801 50.9293 57.4431C50.7704 57.606 50.6461 57.7994 50.564 58.0117C50.4818 58.2239 50.4434 58.4506 50.4512 58.6781C50.4589 58.9055 50.5126 59.1291 50.609 59.3352C50.7053 59.5414 50.8424 59.7259 51.012 59.8777L54.2997 63.0702C54.6174 63.3721 55.038 63.5422 55.4763 63.5461C55.5855 63.5584 55.6958 63.5584 55.8051 63.5461C56.0742 63.4926 56.3262 63.3739 56.5389 63.2005C56.7515 63.027 56.9184 62.804 57.0249 62.5511L58.2016 59.748C58.5309 56.4766 58.6897 53.1902 58.6774 49.9023Z" fill="black"/>
<path d="M72.6844 51.9871C72.6262 51.8943 72.6017 51.7843 72.6152 51.6756V44.5899C72.6124 44.4568 72.636 44.3245 72.6844 44.2005C72.7269 44.1047 72.7999 44.0257 72.892 43.9756L75.0809 42.6778C75.0906 42.6653 75.1031 42.6551 75.1173 42.6481C75.1316 42.6411 75.1472 42.6375 75.1631 42.6375C75.179 42.6375 75.1946 42.6411 75.2089 42.6481C75.2231 42.6551 75.2356 42.6653 75.2453 42.6778C75.289 42.8087 75.3066 42.9468 75.2972 43.0845V43.543C75.3018 43.6975 75.2843 43.8519 75.2453 44.0015C75.2206 44.0967 75.1622 44.1797 75.0809 44.2351L73.7745 44.9878V46.649L74.9338 45.9741C74.9444 45.9629 74.9571 45.9539 74.9712 45.9477C74.9854 45.9416 75.0006 45.9384 75.016 45.9384C75.0314 45.9384 75.0467 45.9416 75.0608 45.9477C75.075 45.9539 75.0877 45.9629 75.0982 45.9741C75.1411 46.1052 75.1587 46.2432 75.1501 46.3808V46.7355C75.1552 46.8929 75.1377 47.0502 75.0982 47.2027C75.087 47.2491 75.0666 47.2929 75.0384 47.3315C75.0102 47.3701 74.9747 47.4028 74.9338 47.4276L73.7745 48.1024V49.9539L75.0896 49.1926C75.0984 49.1801 75.11 49.1699 75.1236 49.1628C75.1371 49.1558 75.1522 49.1521 75.1674 49.1521C75.1827 49.1521 75.1977 49.1558 75.2113 49.1628C75.2248 49.1699 75.2365 49.1801 75.2453 49.1926C75.2882 49.3236 75.3058 49.4616 75.2972 49.5992V49.9539C75.3023 50.1113 75.2848 50.2686 75.2453 50.4211C75.2209 50.5118 75.1659 50.5913 75.0896 50.646L72.892 51.9178C72.7796 52.0303 72.7277 52.039 72.6844 51.9871Z" fill="white"/>
<path d="M75.9722 49.8591V42.5397C75.9795 42.4071 76.024 42.2792 76.1005 42.1706C76.1769 42.062 76.2824 41.9771 76.4048 41.9255L76.5951 41.813C76.6641 41.7666 76.7456 41.7424 76.8287 41.7438C76.8892 41.7438 76.9411 41.8043 76.9844 41.9082L78.3168 44.867C78.4166 45.1093 78.5005 45.3578 78.5677 45.6111C78.5314 45.324 78.5112 45.0352 78.5071 44.7459V41.0603C78.5127 40.9284 78.5555 40.8007 78.6305 40.692C78.7055 40.5834 78.8097 40.4981 78.931 40.446L79.1127 40.3422C79.3982 40.1778 79.5453 40.2124 79.5453 40.4547V47.774C79.536 47.9061 79.4908 48.0331 79.4145 48.1414C79.3383 48.2496 79.234 48.335 79.1127 48.3883L78.9743 48.4661C78.9013 48.5186 78.8133 48.5459 78.7234 48.544C78.6628 48.544 78.6109 48.4834 78.5763 48.3796L77.1921 45.2737C77.1042 45.0757 77.0347 44.8701 76.9844 44.6594V44.72C77.0202 44.9665 77.0404 45.215 77.045 45.464V49.2534C77.0376 49.3861 76.9932 49.5139 76.9167 49.6225C76.8402 49.7311 76.7348 49.8161 76.6124 49.8677L76.4394 49.9715C76.1106 50.1359 75.9722 50.1013 75.9722 49.8591Z" fill="white"/>
<path d="M80.4538 47.4971C80.3969 47.407 80.3725 47.3002 80.3846 47.1943V40.0826C80.3802 39.9494 80.4038 39.8168 80.4538 39.6933C80.4959 39.5949 80.5688 39.513 80.6615 39.4597L82.0717 38.6464C82.7206 38.2744 83.1878 38.335 83.4993 38.8194C83.8721 39.6828 84.0266 40.6248 83.9491 41.562C83.9846 42.6697 83.8325 43.7754 83.4993 44.8324C83.2575 45.59 82.7506 46.2351 82.0717 46.6492L80.6615 47.4625C80.5663 47.5403 80.4971 47.549 80.4538 47.4971ZM82.0371 45.2044C82.3297 44.9999 82.5314 44.6897 82.5995 44.3392C82.7352 43.6704 82.7932 42.9882 82.7725 42.3061C82.8049 41.6895 82.7466 41.0715 82.5995 40.4719C82.487 40.1605 82.2967 40.0739 82.0371 40.2297L81.5613 40.4979V45.5072L82.0371 45.2044Z" fill="white"/>
<path d="M84.6582 44.8409V37.6427C84.6538 37.5095 84.6774 37.3769 84.7274 37.2534C84.7735 37.1499 84.8526 37.0647 84.9524 37.0111L86.2415 36.2671C86.3887 36.1593 86.5632 36.0949 86.7452 36.0812C86.9271 36.0674 87.1093 36.1048 87.271 36.1892C87.5739 36.3623 87.7209 36.9419 87.7209 37.9196C87.7381 38.5072 87.6502 39.0932 87.4614 39.6499C87.3321 40.0412 87.136 40.4071 86.8817 40.7314C86.7266 40.9419 86.5328 41.121 86.3107 41.2591L85.8002 41.5533V44.2093C85.79 44.3445 85.7425 44.4743 85.6631 44.5842C85.5837 44.6942 85.4755 44.78 85.3504 44.8323L85.0995 44.9793C84.8053 45.1178 84.6582 45.0832 84.6582 44.8409ZM86.1896 39.8316C86.3243 39.7304 86.4265 39.5921 86.4837 39.4336C86.5815 39.1561 86.6255 38.8624 86.6135 38.5684C86.6427 38.3243 86.5975 38.077 86.4837 37.859C86.469 37.8349 86.4494 37.8141 86.426 37.7982C86.4027 37.7823 86.3762 37.7715 86.3484 37.7666C86.3206 37.7617 86.292 37.7627 86.2646 37.7697C86.2372 37.7767 86.2117 37.7894 86.1896 37.8071L85.7916 38.032V40.0825L86.1896 39.8316Z" fill="white"/>
<path d="M88.1106 39.2173C88.1106 36.4834 88.7595 34.7531 90.0572 34.0263C90.6888 33.6629 91.1733 33.7149 91.5021 34.1907C91.9154 35.0669 92.0857 36.038 91.9952 37.0025C92.0343 38.1505 91.8673 39.2962 91.5021 40.3853C91.2421 41.1193 90.7422 41.7442 90.0832 42.1589C88.7681 42.9029 88.1106 41.9224 88.1106 39.2173ZM90.4898 40.2036C90.6219 39.9072 90.7065 39.5919 90.7407 39.2692C90.7992 38.732 90.8252 38.1917 90.8186 37.6514C90.8276 37.1455 90.8016 36.6396 90.7407 36.1373C90.7296 35.8996 90.6415 35.6719 90.4898 35.4885C90.386 35.3933 90.2389 35.4019 90.0659 35.4885C89.8753 35.6003 89.7218 35.7658 89.6246 35.9643C89.4969 36.2652 89.4124 36.5827 89.3737 36.9073C89.3116 37.4414 89.2827 37.9789 89.2872 38.5165C89.2802 39.0226 89.3091 39.5286 89.3737 40.0306C89.3878 40.2703 89.4754 40.4999 89.6246 40.6881C89.6891 40.7339 89.7662 40.7586 89.8453 40.7586C89.9243 40.7586 90.0014 40.7339 90.0659 40.6881C90.2588 40.5684 90.4076 40.3893 90.4898 40.1777V40.2036Z" fill="white"/>
<path d="M92.6785 40.221V32.9017C92.6862 32.7681 92.7307 32.6392 92.807 32.5293C92.8834 32.4194 92.9886 32.3327 93.1111 32.2788L93.4225 32.0971C93.6994 31.9327 93.8465 31.9759 93.8465 32.2355V39.5462C93.8395 39.6788 93.7963 39.807 93.7215 39.9169C93.6468 40.0267 93.5433 40.1139 93.4225 40.1691L93.1111 40.3508C92.8082 40.5152 92.6785 40.4719 92.6785 40.221Z" fill="white"/>
<path d="M94.6077 39.0962V31.7855C94.614 31.6526 94.6581 31.5243 94.7347 31.4155C94.8113 31.3067 94.9173 31.222 95.0403 31.1713L95.2306 31.0588C95.2974 31.0071 95.3797 30.9796 95.4642 30.9809C95.5247 30.9809 95.5766 31.0501 95.6199 31.154L96.9523 34.1042C97.0519 34.3495 97.1357 34.6009 97.2032 34.8569V34.8136C97.1671 34.5266 97.1469 34.2377 97.1426 33.9484V30.2974C97.1492 30.1658 97.1924 30.0385 97.2673 29.93C97.3421 29.8215 97.4458 29.7361 97.5665 29.6832L97.7482 29.5793C98.0337 29.415 98.1808 29.4582 98.1808 29.7005V37.0111C98.1734 37.1438 98.129 37.2716 98.0525 37.3802C97.976 37.4888 97.8706 37.5738 97.7482 37.6254L97.6098 37.7119C97.5332 37.7567 97.4474 37.7834 97.3589 37.7898C97.2983 37.7898 97.2464 37.7292 97.2032 37.6168L95.7929 34.5541C95.7065 34.3555 95.6371 34.15 95.5853 33.9398V33.9917C95.6208 34.2382 95.641 34.4867 95.6459 34.7358V38.4992C95.6365 38.6313 95.5913 38.7584 95.5151 38.8666C95.4389 38.9749 95.3345 39.0602 95.2133 39.1135L95.0403 39.2173C94.7461 39.3817 94.6077 39.3384 94.6077 39.0962Z" fill="white"/>
<path d="M99.695 36.1548V29.9948L98.8731 30.4706C98.8634 30.4832 98.8509 30.4934 98.8367 30.5004C98.8224 30.5074 98.8067 30.511 98.7909 30.511C98.775 30.511 98.7593 30.5074 98.7451 30.5004C98.7308 30.4934 98.7184 30.4832 98.7087 30.4706C98.665 30.3398 98.6473 30.2016 98.6568 30.064V29.7006C98.6522 29.5461 98.6697 29.3917 98.7087 29.2421C98.7334 29.1469 98.7918 29.0639 98.8731 29.0085L101.694 27.382C101.771 27.33 101.832 27.382 101.867 27.382C101.91 27.5128 101.928 27.651 101.918 27.7886V28.1433C101.923 28.3007 101.906 28.458 101.867 28.6105C101.84 28.707 101.778 28.7902 101.694 28.8441L100.828 29.3199V35.4799C100.822 35.6128 100.778 35.7412 100.701 35.8499C100.625 35.9587 100.519 36.0434 100.396 36.0942L100.093 36.2759C99.8421 36.4403 99.695 36.397 99.695 36.1548Z" fill="white"/>
<path d="M74.5101 55.2228C74.4873 55.4446 74.4196 55.6595 74.3111 55.8544C74.2159 55.9063 73.9823 55.6727 73.4892 55.9582C73.2316 56.1258 73.0221 56.3575 72.881 56.6305C72.74 56.9035 72.6723 57.2085 72.6845 57.5155C72.6845 58.2163 73.0825 58.1644 73.5497 58.1644C74.0169 58.1644 74.735 58.1644 74.735 59.5054C74.7541 60.0322 74.6357 60.555 74.3915 61.0222C74.1473 61.4895 73.7856 61.8851 73.3421 62.1701C72.6153 62.594 72.053 62.4816 72.053 62.222C72.0758 61.9923 72.1497 61.7706 72.2693 61.5731C72.4471 61.6287 72.6347 61.6459 72.8196 61.6235C73.0046 61.6012 73.1826 61.5397 73.3421 61.4434C73.6022 61.2648 73.8137 61.0241 73.9572 60.743C74.1008 60.462 74.1718 60.1496 74.164 59.8341C74.164 59.0641 73.7054 59.0814 73.2209 59.0728C72.7365 59.0641 72.1308 59.0728 72.1308 57.801C72.1245 57.2859 72.249 56.7776 72.4926 56.3236C72.7362 55.8697 73.091 55.485 73.5238 55.2055C73.8266 55.0152 74.5101 54.8767 74.5101 55.2228Z" fill="white"/>
<path d="M78.4639 52.6795V52.8352C78.4639 53.0428 78.4639 53.1467 78.3341 53.1986L76.5173 54.2454V56.443L78.1524 55.4999C78.239 55.448 78.2736 55.4999 78.2736 55.7162V55.8719C78.2736 56.0709 78.2736 56.1834 78.1524 56.2353L76.5173 57.1783V59.523L78.3428 58.4674C78.4293 58.4155 78.4726 58.4674 78.4726 58.6837V58.8395C78.4726 59.0385 78.4293 59.1509 78.3428 59.2028L76.1539 60.466C76.0241 60.5352 75.9722 60.466 75.9722 60.2843V54.1243C75.9614 54.0475 75.9728 53.9693 76.005 53.8988C76.0372 53.8283 76.0888 53.7684 76.1539 53.7263L78.3341 52.4632C78.4293 52.4199 78.4639 52.4805 78.4639 52.6795Z" fill="white"/>
<path d="M82.8245 50.4127C82.8065 50.6542 82.7325 50.8882 82.6082 51.0962C82.4459 51.0505 82.2759 51.0393 82.1091 51.0631C81.9422 51.087 81.7822 51.1454 81.6392 51.2346C80.6356 51.8142 80.1684 52.8871 80.1684 54.7904C80.1684 56.6938 80.6356 57.2042 81.6132 56.6419C82.0414 56.3483 82.4062 55.9717 82.6861 55.5345C82.7726 55.5345 82.911 55.8113 82.911 55.9324C82.6633 56.5505 82.2031 57.0598 81.6132 57.3686C80.2463 58.1559 79.5974 57.4551 79.5974 55.1019C79.5974 52.7486 80.2896 51.2865 81.6306 50.5078C82.2448 50.1531 82.8245 50.1531 82.8245 50.4127Z" fill="white"/>
<path d="M87.4875 47.3586V51.745C87.5151 52.3851 87.3688 53.0207 87.0641 53.5843C86.7594 54.148 86.3078 54.6185 85.7572 54.9461C84.6498 55.5863 84.0269 55.1018 84.0269 53.7176V49.3312C84.0298 49.2541 84.0551 49.1795 84.0996 49.1165C84.1442 49.0536 84.2061 49.0049 84.2778 48.9764H84.321C84.5027 48.8726 84.5719 48.9072 84.5719 49.037V53.458C84.5719 54.3232 85.0651 54.626 85.7312 54.2453C86.0831 54.0117 86.3725 53.6957 86.5746 53.3248C86.7766 52.9539 86.8851 52.5393 86.8906 52.117V47.7046C86.8924 47.6273 86.9172 47.5522 86.9619 47.489C87.0066 47.4259 87.0691 47.3774 87.1415 47.3499H87.1847C87.4875 47.1942 87.4875 47.2288 87.4875 47.3586Z" fill="white"/>
<path d="M91.8564 46.3637C91.8665 47.1079 91.612 47.8315 91.1383 48.4055C91.3979 48.4055 91.5363 48.7429 91.7007 49.2706L92.1852 50.8885C92.1925 50.9285 92.1925 50.9696 92.1852 51.0096C92.1852 51.1048 92.1073 51.2086 91.9256 51.3124H91.865C91.7353 51.3817 91.6401 51.3817 91.6141 51.3124L91.1383 49.6946C90.948 49.0543 90.6971 49.0111 90.2039 49.2879L89.6416 49.6167V52.3852C89.6397 52.4626 89.6149 52.5377 89.5702 52.6009C89.5255 52.664 89.463 52.7125 89.3907 52.74H89.3388C89.1657 52.8351 89.0965 52.8005 89.0965 52.6708V46.5367C89.0857 46.4599 89.0971 46.3817 89.1293 46.3112C89.1614 46.2407 89.2131 46.1808 89.2782 46.1387L90.3337 45.5331C91.32 44.9708 91.8564 45.1524 91.8564 46.3637ZM89.6589 46.6578V48.9678L90.524 48.492C90.7742 48.2977 90.9762 48.0483 91.1142 47.7631C91.2523 47.478 91.3227 47.1649 91.32 46.8482C91.32 46.0695 90.9826 45.9138 90.4548 46.2079L89.6589 46.6578Z" fill="white"/>
<path d="M93.9415 43.647V49.9973C93.9392 50.0756 93.9142 50.1516 93.8697 50.216C93.8252 50.2805 93.763 50.3307 93.6907 50.3607H93.6387C93.4657 50.4645 93.3965 50.4299 93.3965 50.2915V43.9671C93.3987 43.891 93.4227 43.8171 93.4657 43.7542C93.5086 43.6914 93.5687 43.6421 93.6387 43.6124H93.6907C93.8724 43.4826 93.9415 43.5431 93.9415 43.647Z" fill="white"/>
<path d="M98.3281 41.2159V41.3716C98.3281 41.5706 98.3281 41.6744 98.1983 41.7263L97.0217 42.4098V48.2237C97.0177 48.3005 96.992 48.3746 96.9476 48.4374C96.9032 48.5002 96.8419 48.5491 96.7708 48.5784H96.7189C96.5459 48.6736 96.468 48.639 96.468 48.5092V42.7299L95.2654 43.422C95.1789 43.4739 95.1443 43.422 95.1443 43.2057V43.05C95.1443 42.851 95.1443 42.7386 95.2654 42.6953L98.1983 40.965C98.2935 40.9477 98.3281 41.0169 98.3281 41.2159Z" fill="white"/>
<path d="M102.057 38.7502C102.23 38.6636 102.299 38.6723 102.299 38.7502C102.294 38.8181 102.279 38.8851 102.256 38.9492L100.941 42.704V45.9657C100.935 46.0419 100.908 46.1152 100.864 46.1776C100.82 46.2401 100.76 46.2894 100.69 46.3204H100.638C100.465 46.4242 100.387 46.3896 100.387 46.2512V43.0154L99.0807 40.8093C99.0482 40.767 99.03 40.7155 99.0288 40.6622C99.0288 40.5584 99.1067 40.4545 99.323 40.3334L99.3922 40.2902C99.522 40.2209 99.6085 40.195 99.6604 40.2902L100.681 42.0205L101.737 39.0443C101.79 38.9134 101.888 38.806 102.014 38.7415L102.057 38.7502Z" fill="white"/>
<path d="M115.51 90.0201C113.883 89.1031 111.651 89.2415 109.177 90.669C104.202 93.5414 100.17 100.523 100.17 106.242C100.17 109.106 101.183 111.122 102.766 112.065L105.837 113.795C107.472 114.738 109.713 114.6 112.196 113.163C117.171 110.3 121.203 103.309 121.203 97.5904C121.203 94.7267 120.199 92.7108 118.607 91.7678L115.51 90.0201Z" fill="url(#paint13_linear_1267_9797)"/>
<path d="M103.242 108.024C103.242 113.769 107.274 116.096 112.24 113.215C117.206 110.334 121.246 103.361 121.246 97.6422C121.246 91.9234 117.214 89.5702 112.24 92.4512C107.265 95.3322 103.242 102.288 103.242 108.024Z" fill="#455A64"/>
<path d="M103.242 108.024C103.242 113.769 107.274 116.096 112.24 113.215C117.206 110.334 121.246 103.361 121.246 97.6422C121.246 91.9234 117.214 89.5702 112.24 92.4512C107.265 95.3322 103.242 102.288 103.242 108.024Z" fill="url(#paint14_linear_1267_9797)"/>
<path d="M116.903 102.703L113.442 96.803C112.767 95.6264 111.85 95.7129 111.4 96.9934L107.17 109.296C106.729 110.577 107.326 111.07 108.502 110.395L115.969 106.069C116.253 105.911 116.503 105.699 116.705 105.444C116.906 105.188 117.054 104.895 117.141 104.582C117.228 104.269 117.252 103.941 117.211 103.619C117.17 103.296 117.065 102.985 116.903 102.703ZM112.404 106.951C111.997 107.194 111.747 106.882 111.747 106.45C111.75 106.202 111.811 105.959 111.925 105.74C112.039 105.521 112.203 105.331 112.404 105.187C112.819 104.944 113.07 105.256 113.07 105.688C113.066 105.94 112.999 106.187 112.877 106.407C112.755 106.627 112.581 106.814 112.369 106.951H112.404ZM112.958 103.967C112.951 104.042 112.927 104.114 112.888 104.178C112.849 104.243 112.796 104.297 112.733 104.339L112.084 104.711C111.963 104.78 111.868 104.711 111.859 104.59L111.591 99.7273C111.592 99.6552 111.611 99.5846 111.646 99.5214C111.681 99.4581 111.73 99.4041 111.79 99.3639L113.018 98.6545C113.139 98.5853 113.226 98.6545 113.226 98.7756L112.958 103.967Z" fill="white"/>
<path d="M17.123 146.827C15.4965 145.91 13.2557 146.048 10.7813 147.476C5.8066 150.348 1.7749 157.33 1.7749 163.049C1.7749 165.912 2.78715 167.928 4.37041 168.871L7.44177 170.602C9.07694 171.545 11.3177 171.406 13.8008 169.97C18.7755 167.106 22.8072 160.116 22.8072 154.397C22.8072 151.533 21.8036 149.517 20.2117 148.574L17.123 146.827Z" fill="url(#paint15_linear_1267_9797)"/>
<path d="M4.84619 164.831C4.84619 170.576 8.87789 172.903 13.844 170.022C18.81 167.141 22.8504 160.168 22.8504 154.449C22.8504 148.73 18.8187 146.377 13.844 149.258C8.86924 152.139 4.84619 159.095 4.84619 164.831Z" fill="#455A64"/>
<path d="M4.84619 164.831C4.84619 170.576 8.87789 172.903 13.844 170.022C18.81 167.141 22.8504 160.168 22.8504 154.449C22.8504 148.73 18.8187 146.377 13.844 149.258C8.86924 152.139 4.84619 159.095 4.84619 164.831Z" fill="url(#paint16_linear_1267_9797)"/>
<path d="M9.82959 160.003V167.323C9.82959 168.231 10.4698 168.603 11.2571 168.188L16.4481 165.194C16.8633 164.923 17.2088 164.557 17.4568 164.127C17.7047 163.697 17.8482 163.215 17.8757 162.72V155.401L9.82959 160.003ZM14.7524 163.559L12.9442 164.597L13.3768 162.331C13.0134 162.287 12.875 161.881 12.875 161.465C12.8796 161.101 12.9698 160.743 13.1381 160.42C13.3064 160.097 13.5482 159.818 13.844 159.605C14.389 159.294 14.8216 159.605 14.8216 160.341C14.8152 160.84 14.665 161.326 14.389 161.742L14.7524 163.559Z" fill="white"/>
<path d="M11.0925 155.859C11.1348 154.98 11.387 154.124 11.828 153.362C12.2691 152.601 12.8861 151.956 13.6275 151.481C14.0049 151.246 14.4376 151.115 14.882 151.101C15.1704 151.097 15.4544 151.172 15.7039 151.317C16.0021 151.525 16.2395 151.808 16.3916 152.138C16.5437 152.468 16.605 152.833 16.5691 153.194V155.487L15.7039 156.006V153.194C15.7321 152.988 15.7054 152.778 15.6264 152.585C15.5474 152.392 15.419 152.223 15.254 152.096C15.1393 152.027 15.0068 151.994 14.8733 152C14.5885 152.016 14.3121 152.103 14.0687 152.251C13.4691 152.653 12.97 153.188 12.61 153.813C12.2499 154.439 12.0386 155.139 11.9923 155.859V158.152L11.1271 158.671L11.0925 155.859Z" fill="white"/>
<path d="M97.9469 124.514C96.3204 123.589 94.0882 123.727 91.6138 125.155C86.6391 128.027 82.6074 135.009 82.6074 140.728C82.6074 143.591 83.611 145.607 85.2029 146.55L88.283 148.281C89.9095 149.215 92.1589 149.077 94.6419 147.649C99.6167 144.777 103.648 137.795 103.648 132.076C103.648 129.212 102.645 127.196 101.053 126.253L97.9469 124.514Z" fill="url(#paint17_linear_1267_9797)"/>
<path d="M85.6702 142.518C85.6702 148.254 89.7019 150.59 94.6766 147.709C99.6513 144.828 103.683 137.855 103.683 132.136C103.683 126.418 99.6513 124.064 94.6766 126.945C89.7019 129.826 85.6702 136.774 85.6702 142.518Z" fill="#455A64"/>
<path d="M85.6702 142.518C85.6702 148.254 89.7019 150.59 94.6766 147.709C99.6513 144.828 103.683 137.855 103.683 132.136C103.683 126.418 99.6513 124.064 94.6766 126.945C89.7019 129.826 85.6702 136.774 85.6702 142.518Z" fill="url(#paint18_linear_1267_9797)"/>
<path d="M100.517 135.77L100.145 133.002C100.137 132.943 100.113 132.887 100.077 132.84C100.041 132.792 99.9922 132.756 99.937 132.733H99.8159C99.7411 132.734 99.6685 132.758 99.6083 132.803L98.6739 133.555C98.5604 133.086 98.3704 132.639 98.1115 132.232L98.5873 131.098L99.2103 128.927C99.2346 128.842 99.2246 128.751 99.1826 128.673C99.1405 128.596 99.0697 128.537 98.9853 128.511H98.8902C98.8182 128.514 98.7488 128.538 98.6914 128.581C98.634 128.625 98.5916 128.685 98.5701 128.754L97.9644 130.865L97.6097 131.73C97.5134 131.643 97.4091 131.564 97.2983 131.496C96.9765 131.301 96.6102 131.191 96.2341 131.176L96.7965 128.987C96.8175 128.901 96.8039 128.81 96.7586 128.734C96.7133 128.658 96.6399 128.603 96.5542 128.581H96.4764C96.4018 128.582 96.3296 128.606 96.2704 128.652C96.2111 128.697 96.1681 128.76 96.1476 128.832L95.5247 131.271C95.2645 131.335 95.0142 131.434 94.7806 131.566C94.6018 131.666 94.4285 131.776 94.2615 131.894L93.8549 130.406C93.8572 130.363 93.851 130.32 93.8366 130.279C93.8222 130.238 93.7999 130.201 93.771 130.169C93.742 130.136 93.707 130.11 93.668 130.092C93.6289 130.073 93.5866 130.062 93.5434 130.06H93.4569C93.4147 130.071 93.375 130.09 93.3404 130.117C93.3057 130.143 93.2766 130.177 93.2549 130.214C93.2331 130.252 93.2191 130.294 93.2137 130.337C93.2083 130.381 93.2116 130.425 93.2233 130.467L93.7078 132.249C93.0037 132.931 92.4188 133.727 91.9775 134.602L91.8131 134.386L91.3372 132.898C91.317 132.831 91.2758 132.772 91.2198 132.73C91.1638 132.688 91.0958 132.665 91.0258 132.664H90.922C90.8372 132.692 90.7669 132.752 90.7263 132.832C90.6858 132.911 90.6784 133.003 90.7057 133.088L91.2074 134.654L91.6314 135.312C91.2854 136.095 91.0244 136.913 90.8528 137.751H90.7749L89.6155 138.054C89.5544 138.072 89.4994 138.107 89.4566 138.154C89.4139 138.202 89.385 138.26 89.3733 138.322L88.8109 141.593C88.7982 141.681 88.8199 141.77 88.8714 141.843C88.923 141.915 89.0005 141.965 89.0878 141.982H89.1397C89.2186 141.983 89.2952 141.956 89.3556 141.905C89.416 141.854 89.456 141.783 89.4685 141.705L89.9962 138.651L90.7316 138.452C90.6731 138.854 90.6356 139.258 90.6191 139.663C90.5819 140.513 90.6931 141.362 90.9479 142.172C90.9155 142.191 90.8862 142.214 90.8614 142.242L89.7799 143.548C89.7479 143.602 89.731 143.663 89.731 143.725C89.731 143.788 89.7479 143.849 89.7799 143.903L90.8181 146.014C90.8469 146.069 90.8904 146.115 90.9439 146.147C90.9973 146.18 91.0586 146.196 91.121 146.196C91.1691 146.208 91.2198 146.208 91.268 146.196C91.3074 146.177 91.3427 146.151 91.3719 146.119C91.4011 146.086 91.4236 146.048 91.4381 146.007C91.4526 145.966 91.4588 145.923 91.4563 145.879C91.4539 145.836 91.4428 145.793 91.4237 145.754L90.4807 143.842L91.268 142.882C91.4919 143.34 91.8358 143.729 92.263 144.007C92.6069 144.216 93.0021 144.327 93.405 144.327C93.8879 144.315 94.3605 144.185 94.7806 143.946C96.2514 143.15 97.5665 141.204 98.3019 138.989L99.167 139.127L98.0942 142.06C98.0791 142.101 98.0723 142.144 98.0742 142.188C98.076 142.231 98.0865 142.274 98.105 142.314C98.1235 142.353 98.1497 142.388 98.182 142.418C98.2143 142.447 98.2521 142.469 98.2932 142.484C98.3303 142.492 98.3686 142.492 98.4057 142.484C98.4752 142.482 98.5426 142.46 98.5995 142.42C98.6565 142.38 98.7004 142.324 98.7258 142.259L99.9284 138.945C99.9497 138.902 99.9608 138.855 99.9608 138.807C99.9608 138.759 99.9497 138.712 99.9284 138.669C99.9043 138.625 99.8708 138.588 99.8304 138.56C99.7899 138.531 99.7436 138.512 99.6948 138.504L98.5268 138.314C98.7584 137.466 98.8948 136.596 98.9334 135.718C98.9467 135.256 98.9235 134.793 98.8642 134.334L99.5823 133.754L99.8765 135.943C99.887 136.023 99.9263 136.096 99.9868 136.148C100.047 136.201 100.125 136.229 100.205 136.229H100.248C100.336 136.212 100.415 136.166 100.473 136.099C100.51 136.053 100.533 135.999 100.541 135.941C100.549 135.883 100.54 135.824 100.517 135.77ZM95.1007 132.067C95.42 131.894 95.7758 131.799 96.1389 131.79C96.4174 131.789 96.6906 131.867 96.9262 132.015C97.0635 132.102 97.1887 132.207 97.2983 132.327C96.727 133.564 95.803 134.606 94.6422 135.32C94.2807 135.529 93.8741 135.648 93.4569 135.666C93.2656 135.67 93.0754 135.636 92.8973 135.567C92.7191 135.497 92.5565 135.393 92.4187 135.26C92.9681 133.948 93.9035 132.835 95.1007 132.067ZM91.3199 139.724C91.3779 138.4 91.6709 137.096 92.1851 135.874C92.5589 136.163 93.0189 136.319 93.4915 136.315C93.8382 136.31 94.181 136.243 94.5037 136.116L94.2788 143.384C94.0082 143.514 93.7138 143.588 93.4136 143.6C93.1351 143.602 92.862 143.524 92.6263 143.375C91.7352 142.856 91.2594 141.489 91.3199 139.724ZM94.9363 142.968L95.1526 135.788C96.2521 135.082 97.1472 134.101 97.7481 132.941C98.1118 133.792 98.2689 134.717 98.2067 135.64C98.1202 138.521 96.6926 141.636 94.9363 142.968Z" fill="white"/>
<path d="M38.1727 159.009C36.5462 158.083 34.3054 158.221 31.831 159.649C26.8649 162.521 22.8333 169.503 22.8333 175.222C22.8333 178.085 23.8368 180.101 25.4288 181.044L28.5088 182.775C30.1353 183.709 32.3847 183.571 34.8678 182.143C39.8425 179.271 43.8655 172.289 43.8655 166.57C43.8655 163.706 42.8706 161.691 41.27 160.748L38.1727 159.009Z" fill="url(#paint19_linear_1267_9797)"/>
<path d="M25.9304 177.013C25.9304 182.749 29.9621 185.076 34.9368 182.204C39.9116 179.331 43.9346 172.349 43.9346 166.631C43.9346 160.912 39.9116 158.559 34.9368 161.44C29.9621 164.321 25.9304 171.268 25.9304 177.013Z" fill="#455A64"/>
<path d="M25.9304 177.013C25.9304 182.749 29.9621 185.076 34.9368 182.204C39.9116 179.331 43.9346 172.349 43.9346 166.631C43.9346 160.912 39.9116 158.559 34.9368 161.44C29.9621 164.321 25.9304 171.268 25.9304 177.013Z" fill="url(#paint20_linear_1267_9797)"/>
<path d="M30.5332 179.228C30.572 179.183 30.6199 179.148 30.6737 179.124C30.7275 179.1 30.7858 179.088 30.8446 179.089C31.0209 179.09 31.1949 179.05 31.3538 178.974C31.5126 178.897 31.652 178.786 31.7617 178.648L37.8179 172.324C38.0474 172.055 38.1893 171.723 38.2245 171.372C38.2937 170.896 38.5792 170.463 38.8561 170.411C39.133 170.36 39.1503 170.541 39.1762 170.792C39.2022 171.043 39.2973 171.112 39.4358 171.095C39.5742 171.078 39.704 171.164 39.7472 171.363C39.7769 171.579 39.7589 171.798 39.6946 172.006C39.6304 172.214 39.5213 172.405 39.3752 172.566C39.2983 172.648 39.1932 172.697 39.0811 172.704C38.629 172.749 38.2126 172.969 37.9217 173.318L32.1164 179.375C31.8559 179.688 31.6908 180.069 31.6406 180.473C31.5714 180.949 31.2859 181.339 31.0004 181.425C30.7149 181.512 30.7149 181.287 30.6889 181.036C30.663 180.785 30.5678 180.707 30.438 180.724C30.3082 180.742 30.1698 180.646 30.1265 180.439C30.0989 180.219 30.1211 179.996 30.1915 179.787C30.2619 179.577 30.3787 179.386 30.5332 179.228Z" fill="white"/>
<path d="M37.8525 167.729C38.0411 166.832 38.154 165.92 38.1899 165.004C38.1899 163.274 37.1171 162.149 34.9369 163.404C33.9922 163.958 33.1998 164.739 32.6306 165.675C32.0614 166.611 31.7331 167.674 31.6752 168.768C31.695 169.554 31.8083 170.335 32.0126 171.095C32.0126 171.675 31.3984 172.375 31.6752 173.033C31.9521 173.69 32.4712 173.033 32.774 173.102C33.0768 173.171 33.1546 173.509 33.1546 174.261C33.1546 174.261 33.6305 174.763 34.9369 174.019C35.6912 173.598 36.3072 172.967 36.7105 172.202C36.6585 171.64 36.7955 171.077 37.0998 170.602C37.394 170.16 37.9131 170.247 38.1899 169.269C38.4668 168.292 37.8525 168.309 37.8525 167.729ZM32.9816 171.631C32.4798 171.588 32.4366 170.766 32.575 170.264C32.6486 170.027 32.7725 169.808 32.9383 169.623C33.104 169.438 33.3076 169.291 33.5353 169.191C34.2101 168.915 34.5649 169.512 34.3313 170.273C34.0977 171.034 33.3363 171.657 32.9816 171.631ZM35.456 171.943C35.3089 172.142 35.0321 172.168 34.9282 171.778C34.8244 172.289 34.5389 172.583 34.4005 172.548C34.2621 172.514 34.288 172.272 34.4005 171.822C34.513 171.372 34.9196 170.507 34.9196 170.507C35.1168 170.729 35.2881 170.972 35.43 171.233C35.5012 171.337 35.5421 171.458 35.5482 171.583C35.5543 171.708 35.5254 171.833 35.4646 171.943H35.456ZM36.8662 169.347C36.5202 169.78 35.7588 170.031 35.5252 169.546C35.4477 169.174 35.481 168.787 35.6209 168.433C35.7608 168.08 36.0013 167.775 36.3125 167.556C36.7451 167.228 37.1344 167.202 37.2729 167.556C37.3491 167.871 37.3529 168.199 37.2839 168.515C37.215 168.831 37.0751 169.128 36.8749 169.382L36.8662 169.347Z" fill="white"/>
<path d="M39.3404 174.183C39.2099 174.217 39.0961 174.297 39.0203 174.408C38.8066 174.725 38.4774 174.946 38.1032 175.023L32.047 175.654C31.8307 175.654 31.6837 175.49 31.6317 175.178C31.5712 174.78 31.2857 174.677 31.0002 174.945C30.8191 175.157 30.7074 175.42 30.6801 175.698C30.6578 175.917 30.5704 176.125 30.4292 176.295C30.2589 176.465 30.1494 176.687 30.1177 176.926C30.0398 177.402 30.2042 177.748 30.4897 177.696C30.6021 177.663 30.7018 177.597 30.7752 177.506C31.0654 177.13 31.4792 176.87 31.9432 176.77L37.6966 176.165C37.9475 176.165 38.1205 176.355 38.1811 176.71C38.2503 177.099 38.5358 177.194 38.8127 176.926C38.9932 176.711 39.102 176.445 39.1241 176.165C39.145 175.943 39.2359 175.734 39.3837 175.568C39.5466 175.39 39.6521 175.166 39.6865 174.928C39.7903 174.426 39.6259 174.08 39.3404 174.183Z" fill="white"/>
<path d="M20.281 196.901C20.2599 196.61 20.1707 196.327 20.0204 196.076C19.8701 195.825 19.6631 195.613 19.4158 195.457L18.7324 195.067C18.4739 194.935 18.1878 194.866 17.8975 194.866C17.6072 194.866 17.321 194.935 17.0626 195.067L0.987728 204.35C0.738112 204.504 0.529179 204.716 0.378587 204.967C0.227995 205.219 0.140173 205.503 0.122559 205.795V221.299C0.140173 221.592 0.227995 221.876 0.378587 222.127C0.529179 222.379 0.738112 222.59 0.987728 222.744L1.67122 223.142C1.92969 223.274 2.21582 223.343 2.50611 223.343C2.79639 223.343 3.08252 223.274 3.34099 223.142L19.4937 213.798C19.7569 213.683 19.9744 213.484 20.1122 213.232C20.25 212.98 20.3002 212.689 20.2551 212.405L20.281 196.901Z" fill="url(#paint21_linear_1267_9797)"/>
<path d="M0.183105 221.299C0.200719 221.592 0.288542 221.876 0.439134 222.127C0.589726 222.379 0.798659 222.59 1.04828 222.744L1.73175 223.142C1.96794 223.26 2.22629 223.327 2.49008 223.339C2.75388 223.351 3.01723 223.308 3.26311 223.211C2.86513 223.358 2.57097 223.133 2.57097 222.658V207.171C2.57413 206.866 2.6577 206.568 2.81322 206.306L0.459966 204.948C0.304449 205.21 0.220871 205.508 0.217706 205.813L0.183105 221.299Z" fill="url(#paint22_linear_1267_9797)"/>
<path d="M20.255 196.668C20.1512 196.313 19.831 196.201 19.4417 196.417L3.36686 205.709C3.11888 205.861 2.91581 206.076 2.77856 206.332L0.425293 204.974C0.566075 204.72 0.768389 204.506 1.01362 204.351L17.0885 195.059C17.3469 194.927 17.6331 194.858 17.9234 194.858C18.2136 194.858 18.4998 194.927 18.7582 195.059L19.4417 195.448C19.6532 195.585 19.8344 195.764 19.9742 195.974C20.1141 196.184 20.2096 196.42 20.255 196.668Z" fill="url(#paint23_linear_1267_9797)"/>
<path d="M4.18848 208.192C4.19506 208.102 4.22182 208.015 4.26676 207.937C4.31171 207.859 4.37366 207.793 4.44802 207.742L17.7284 200.077C17.8083 200.034 17.8974 200.012 17.9879 200.012C18.0784 200.012 18.1675 200.034 18.2475 200.077L18.5416 200.241C18.6174 200.29 18.6804 200.356 18.7255 200.435C18.7706 200.513 18.7966 200.601 18.8012 200.691V210.874C18.7966 210.964 18.7706 211.052 18.7255 211.13C18.6804 211.208 18.6174 211.275 18.5416 211.324L5.26128 218.989C5.18134 219.032 5.09223 219.054 5.00174 219.054C4.91124 219.054 4.82212 219.032 4.74218 218.989L4.44802 218.825C4.37366 218.774 4.31171 218.707 4.26676 218.63C4.22182 218.552 4.19506 218.465 4.18848 218.375V208.192Z" fill="#BA68C8"/>
<path d="M4.18848 208.192C4.19506 208.102 4.22182 208.015 4.26676 207.937C4.31171 207.859 4.37366 207.793 4.44802 207.742L17.7284 200.077C17.8083 200.034 17.8974 200.012 17.9879 200.012C18.0784 200.012 18.1675 200.034 18.2475 200.077L18.5416 200.241C18.6174 200.29 18.6804 200.356 18.7255 200.435C18.7706 200.513 18.7966 200.601 18.8012 200.691V210.874C18.7966 210.964 18.7706 211.052 18.7255 211.13C18.6804 211.208 18.6174 211.275 18.5416 211.324L5.26128 218.989C5.18134 219.032 5.09223 219.054 5.00174 219.054C4.91124 219.054 4.82212 219.032 4.74218 218.989L4.44802 218.825C4.37366 218.774 4.31171 218.707 4.26676 218.63C4.22182 218.552 4.19506 218.465 4.18848 218.375V208.192Z" fill="url(#paint24_linear_1267_9797)"/>
<path d="M5.40836 208.598L4.26634 207.941C4.22094 208.017 4.19426 208.103 4.18848 208.192V218.418C4.19506 218.508 4.22182 218.595 4.26676 218.673C4.31171 218.751 4.37366 218.817 4.44802 218.868L4.74218 219.032C4.82212 219.075 4.91124 219.097 5.00174 219.097C5.09223 219.097 5.18134 219.075 5.26128 219.032L5.40836 218.946V208.598Z" fill="#BA68C8"/>
<path d="M5.40836 208.598L4.26634 207.941C4.22094 208.017 4.19426 208.103 4.18848 208.192V218.418C4.19506 218.508 4.22182 218.595 4.26676 218.673C4.31171 218.751 4.37366 218.817 4.44802 218.868L4.74218 219.032C4.82212 219.075 4.91124 219.097 5.00174 219.097C5.09223 219.097 5.18134 219.075 5.26128 219.032L5.40836 218.946V208.598Z" fill="url(#paint25_linear_1267_9797)"/>
<path d="M18.8016 200.691V210.874C18.8014 210.966 18.7743 211.056 18.7238 211.134C18.6835 211.201 18.6306 211.259 18.568 211.307L5.28767 218.972C5.25937 218.986 5.22831 218.993 5.19684 218.993C5.16536 218.993 5.1343 218.986 5.106 218.972C5.07964 218.952 5.05871 218.926 5.04511 218.895C5.03151 218.865 5.02568 218.832 5.02813 218.799V208.659C5.02635 208.623 5.03343 208.586 5.04877 208.553C5.0641 208.52 5.08723 208.492 5.11616 208.469C5.1451 208.447 5.17898 208.433 5.21488 208.426C5.25079 208.42 5.28764 208.423 5.32229 208.434L10.9026 209.758L11.638 209.931C11.7243 209.95 11.8143 209.944 11.8972 209.913C11.9801 209.883 12.0523 209.829 12.1052 209.758L12.9704 208.581L18.6719 200.639C18.7238 200.501 18.8016 200.527 18.8016 200.691Z" fill="url(#paint26_linear_1267_9797)"/>
<path d="M18.542 211.324C18.6046 211.277 18.6575 211.218 18.6977 211.151C18.7431 211.075 18.7698 210.989 18.7756 210.9L12.9443 208.581L16.8809 212.293L18.542 211.324Z" fill="#BA68C8"/>
<path opacity="0.2" d="M18.542 211.324C18.6046 211.277 18.6575 211.218 18.6977 211.151C18.7431 211.075 18.7698 210.989 18.7756 210.9L12.9443 208.581L16.8809 212.293L18.542 211.324Z" fill="black"/>
<path d="M5.00201 218.842C4.99956 218.875 5.00539 218.908 5.01899 218.938C5.03259 218.969 5.05351 218.995 5.07987 219.015C5.10818 219.029 5.13924 219.036 5.17071 219.036C5.20219 219.036 5.23325 219.029 5.26155 219.015L9.83831 216.376L10.8765 209.784L5.00201 218.695V218.842Z" fill="#BA68C8"/>
<path opacity="0.2" d="M5.00201 218.842C4.99956 218.875 5.00539 218.908 5.01899 218.938C5.03259 218.969 5.05351 218.995 5.07987 219.015C5.10818 219.029 5.13924 219.036 5.17071 219.036C5.20219 219.036 5.23325 219.029 5.26155 219.015L9.83831 216.376L10.8765 209.784L5.00201 218.695V218.842Z" fill="black"/>
<path d="M18.7237 211.133C18.6835 211.201 18.6306 211.259 18.568 211.306L5.27031 218.98C5.24201 218.994 5.21094 219.001 5.17946 219.001C5.14799 219.001 5.11693 218.994 5.08862 218.98L11.4476 208.901C11.5761 208.7 11.772 208.551 12.0004 208.481C12.2287 208.412 12.4745 208.425 12.6935 208.521L18.7237 211.133Z" fill="url(#paint27_linear_1267_9797)"/>
<path opacity="0.3" d="M5.15771 208.417L11.2139 211.67C11.4314 211.766 11.6763 211.781 11.9037 211.711C12.131 211.641 12.3254 211.491 12.4511 211.289L18.7928 200.552L5.15771 208.417Z" fill="black"/>
<path d="M5.15771 208.417L11.2139 210.692C11.4251 210.77 11.6565 210.774 11.8702 210.703C12.084 210.632 12.2674 210.491 12.3905 210.303L18.7495 200.552L5.15771 208.417Z" fill="url(#paint28_linear_1267_9797)"/>
<path d="M23.7848 193.043L22.3832 192.238C22.0812 192.102 21.7486 192.048 21.419 192.082C21.0894 192.115 20.7745 192.235 20.5058 192.428C19.7308 192.934 19.0856 193.615 18.6227 194.416C18.1597 195.217 17.892 196.116 17.8411 197.04C17.8082 197.371 17.8628 197.705 17.9994 198.009C18.1361 198.313 18.35 198.575 18.6197 198.77L19.9348 199.514L20.1684 199.125C20.4355 199.061 20.6919 198.959 20.9297 198.822C21.7065 198.315 22.3521 197.631 22.8137 196.827C23.2754 196.022 23.54 195.12 23.5858 194.193C23.5859 193.966 23.5569 193.739 23.4993 193.519L23.7848 193.043Z" fill="#BA68C8"/>
<path d="M23.7848 193.043L22.3832 192.238C22.0812 192.102 21.7486 192.048 21.419 192.082C21.0894 192.115 20.7745 192.235 20.5058 192.428C19.7308 192.934 19.0856 193.615 18.6227 194.416C18.1597 195.217 17.892 196.116 17.8411 197.04C17.8082 197.371 17.8628 197.705 17.9994 198.009C18.1361 198.313 18.35 198.575 18.6197 198.77L19.9348 199.514L20.1684 199.125C20.4355 199.061 20.6919 198.959 20.9297 198.822C21.7065 198.315 22.3521 197.631 22.8137 196.827C23.2754 196.022 23.54 195.12 23.5858 194.193C23.5859 193.966 23.5569 193.739 23.4993 193.519L23.7848 193.043Z" fill="url(#paint29_linear_1267_9797)"/>
<path d="M21.8468 193.198C21.0718 193.704 20.4266 194.385 19.9637 195.186C19.5007 195.987 19.233 196.886 19.1821 197.81C19.1821 199.54 20.3761 200.198 21.8468 199.35C22.6219 198.844 23.267 198.164 23.73 197.362C24.193 196.561 24.4607 195.662 24.5116 194.738C24.5116 193.034 23.3263 192.351 21.8468 193.198Z" fill="url(#paint30_linear_1267_9797)"/>
<path d="M20.8951 195.872C20.8852 195.844 20.8852 195.813 20.8951 195.785C20.9019 195.745 20.9166 195.707 20.9384 195.673L21.7084 194.436L21.7776 194.323C21.8048 194.29 21.8369 194.261 21.8728 194.237L22.314 193.977C22.3235 193.969 22.3358 193.964 22.3486 193.964C22.3614 193.964 22.3737 193.969 22.3832 193.977C22.3925 194.002 22.3925 194.03 22.3832 194.055V197.818C22.3897 197.856 22.3897 197.894 22.3832 197.931C22.3671 197.962 22.3433 197.989 22.314 198.009L21.8468 198.277C21.8373 198.285 21.825 198.29 21.8122 198.29C21.7994 198.29 21.7871 198.285 21.7776 198.277C21.7776 198.277 21.7776 198.277 21.7776 198.208V195.439L21.345 196.123C21.345 196.123 21.345 196.183 21.2758 196.192C21.2066 196.201 21.2239 196.192 21.2066 196.192L20.8951 195.872Z" fill="white"/>
<path d="M150.55 116.778L148.638 113.17L150.178 108.715V105.99L145.454 108.715V111.44L147.487 114.961C147.52 115.015 147.568 115.057 147.625 115.082L150.55 116.778Z" fill="#BA68C8"/>
<path d="M150.55 116.778L148.638 113.17L150.178 108.715V105.99L145.454 108.715V111.44L147.487 114.961C147.52 115.015 147.568 115.057 147.625 115.082L150.55 116.778Z" fill="url(#paint31_linear_1267_9797)"/>
<path d="M161.831 84.317C161.805 83.8258 161.663 83.3479 161.416 82.9223C161.169 82.4968 160.825 82.1357 160.412 81.8686L159.262 81.2024C158.823 80.9804 158.339 80.8647 157.847 80.8647C157.356 80.8647 156.871 80.9804 156.433 81.2024L138.749 91.4287C138.338 91.6978 137.997 92.0595 137.752 92.4848C137.507 92.9101 137.365 93.387 137.338 93.8771V113.326C137.365 113.818 137.506 114.296 137.751 114.723C137.996 115.149 138.337 115.513 138.749 115.783L139.908 116.449C140.346 116.671 140.831 116.787 141.322 116.787C141.814 116.787 142.299 116.671 142.737 116.449L148.421 113.162L150.446 116.622C150.475 116.672 150.518 116.712 150.569 116.738C150.62 116.764 150.678 116.775 150.735 116.769C150.792 116.764 150.846 116.742 150.892 116.707C150.937 116.672 150.971 116.624 150.991 116.57L153.136 110.393L160.412 106.18C160.827 105.912 161.171 105.549 161.418 105.122C161.665 104.695 161.806 104.215 161.831 103.723V84.317Z" fill="url(#paint32_linear_1267_9797)"/>
<path d="M137.338 113.326C137.365 113.818 137.506 114.296 137.751 114.723C137.996 115.15 138.337 115.513 138.749 115.783L139.908 116.45C140.308 116.651 140.746 116.765 141.194 116.784C141.641 116.804 142.087 116.728 142.503 116.562C141.837 116.813 141.327 116.432 141.327 115.628V96.1786C141.347 95.6869 141.489 95.208 141.742 94.7857L137.762 92.4844C137.506 92.9049 137.363 93.3849 137.347 93.8773L137.338 113.326Z" fill="url(#paint33_linear_1267_9797)"/>
<path d="M161.753 83.9191C161.589 83.3135 161.044 83.1232 160.386 83.4952L142.72 93.7301C142.296 93.9854 141.95 94.35 141.716 94.7857L137.736 92.4843C137.972 92.0529 138.315 91.6894 138.731 91.4288L156.407 81.2025C156.847 80.9804 157.333 80.8647 157.826 80.8647C158.318 80.8647 158.804 80.9804 159.244 81.2025L160.395 81.8687C160.75 82.0988 161.054 82.3996 161.288 82.7524C161.522 83.1052 161.68 83.5024 161.753 83.9191Z" fill="url(#paint34_linear_1267_9797)"/>
<path d="M157.428 88.937C157.031 88.77 156.584 88.7674 156.185 88.9296C155.786 89.0917 155.467 89.4056 155.299 89.8022L149.157 104.415L147.695 102.987C147.38 102.713 146.973 102.569 146.556 102.587C146.139 102.604 145.745 102.781 145.455 103.081C145.165 103.382 145.001 103.782 144.998 104.199C144.994 104.616 145.151 105.019 145.436 105.323L148.603 108.403C148.907 108.698 149.313 108.862 149.736 108.862C149.843 108.875 149.95 108.875 150.056 108.862C150.316 108.81 150.559 108.696 150.764 108.528C150.97 108.361 151.131 108.146 151.233 107.901L158.302 91.0913C158.388 90.8928 158.434 90.679 158.437 90.4625C158.439 90.2459 158.399 90.0311 158.318 89.8304C158.236 89.6298 158.116 89.4474 157.963 89.294C157.81 89.1405 157.628 89.0192 157.428 88.937Z" fill="#FAFAFA"/>
<path d="M159.245 232.66L163.354 198.339L166.72 198.166L160.941 232.66C160.927 232.723 160.899 232.781 160.86 232.832C160.822 232.883 160.772 232.925 160.716 232.954C160.535 233.057 160.333 233.117 160.126 233.127C159.919 233.138 159.712 233.099 159.522 233.015C159.448 232.989 159.383 232.941 159.337 232.878C159.291 232.814 159.265 232.739 159.262 232.66H159.245Z" fill="url(#paint35_linear_1267_9797)"/>
<path d="M163.354 198.339L166.72 198.166L165.733 204.672C165.046 204.425 164.381 204.121 163.744 203.764C163.388 203.598 163.088 203.334 162.878 203.002L163.354 198.339Z" fill="#263238"/>
<path d="M208.023 193.304H211.389L216.286 225.713C216.285 225.793 216.261 225.871 216.216 225.937C216.171 226.003 216.108 226.054 216.035 226.085C215.85 226.178 215.645 226.227 215.438 226.227C215.23 226.227 215.026 226.178 214.841 226.085C214.783 226.057 214.731 226.017 214.69 225.968C214.648 225.918 214.617 225.861 214.598 225.799L208.023 193.304Z" fill="url(#paint36_linear_1267_9797)"/>
<path d="M211.388 193.304L212.755 202.345C211.956 202.974 211.085 203.505 210.16 203.928L208.006 193.304H211.388Z" fill="url(#paint37_linear_1267_9797)"/>
<path d="M181.73 244.167L184.897 209.266L188.254 209.093L183.426 244.159C183.416 244.222 183.391 244.282 183.353 244.335C183.316 244.387 183.267 244.431 183.21 244.461C183.028 244.565 182.825 244.624 182.616 244.634C182.407 244.645 182.199 244.606 182.007 244.522C181.933 244.496 181.869 244.448 181.823 244.385C181.776 244.321 181.75 244.246 181.748 244.167H181.73Z" fill="url(#paint38_linear_1267_9797)"/>
<path d="M184.525 214.293L184.94 209.266L188.297 209.093L187.622 214.518C186.587 214.704 185.522 214.626 184.525 214.293Z" fill="url(#paint39_linear_1267_9797)"/>
<path d="M189.656 182.628H193.021L197.918 215.037C197.916 215.116 197.891 215.194 197.847 215.26C197.803 215.326 197.74 215.377 197.667 215.409C197.482 215.502 197.277 215.551 197.07 215.551C196.863 215.551 196.658 215.502 196.473 215.409C196.415 215.379 196.363 215.338 196.321 215.287C196.28 215.237 196.249 215.178 196.231 215.115L189.656 182.628Z" fill="url(#paint40_linear_1267_9797)"/>
<path d="M217.713 156.128C218.475 158.012 218.928 160.008 219.054 162.037C219.443 166.57 217.912 181.235 216.986 187.793C215.654 198.746 214.019 198.763 211.64 200.606C207.556 203.755 195.807 209.941 191.931 211.472C184.897 214.241 179.152 209.967 174.87 207.856C170.941 205.87 167.149 203.624 163.519 201.134C162.446 200.355 161.892 199.559 161.901 198.737V196.678C161.901 195.623 162.827 194.481 164.799 193.217C168.433 190.864 181.558 183.207 186.636 180.387C186.643 180.383 186.65 180.381 186.658 180.381C186.665 180.381 186.673 180.383 186.679 180.387C190.599 178.008 192.952 161.855 195.66 153.264C195.72 153.082 195.772 152.909 195.833 152.736C195.893 152.563 195.928 152.468 195.98 152.338C196.144 151.871 196.326 151.473 196.508 151.049" fill="#BA68C8"/>
<path d="M161.91 196.678C161.91 195.622 162.835 194.48 164.808 193.217C168.442 190.864 181.566 183.207 186.645 180.387C186.651 180.383 186.659 180.381 186.666 180.381C186.674 180.381 186.681 180.383 186.688 180.387C190.607 178.008 192.96 161.855 195.668 153.264C195.832 152.729 196.022 152.204 196.239 151.689C196.239 151.646 196.239 151.611 196.239 151.577L196.395 151.222L196.473 151.049C196.899 150.073 197.514 149.191 198.281 148.453C198.54 148.207 198.831 147.998 199.146 147.83C199.588 147.58 200.513 147.069 200.738 146.965C203.403 145.373 206.89 147.285 211.233 149.665C213.932 151.144 216.242 152.909 217.644 156.188C218.406 158.073 218.859 160.068 218.985 162.097C219.374 166.631 217.843 181.295 216.917 187.853C215.585 198.806 213.949 198.823 211.57 200.666C207.487 203.815 195.738 210.001 191.862 211.533C184.828 214.301 179.083 210.027 174.801 207.916C170.872 205.93 167.08 203.684 163.45 201.194C162.377 200.415 161.823 199.619 161.832 198.798L161.91 196.678Z" fill="#BA68C8"/>
<path d="M161.91 196.678C161.91 195.622 162.835 194.48 164.808 193.217C168.442 190.864 181.566 183.207 186.645 180.387C186.651 180.383 186.659 180.381 186.666 180.381C186.674 180.381 186.681 180.383 186.688 180.387C190.607 178.008 192.96 161.855 195.668 153.264C195.832 152.729 196.022 152.204 196.239 151.689C196.239 151.646 196.239 151.611 196.239 151.577L196.395 151.222L196.473 151.049C196.899 150.073 197.514 149.191 198.281 148.453C198.54 148.207 198.831 147.998 199.146 147.83C199.588 147.58 200.513 147.069 200.738 146.965C203.403 145.373 206.89 147.285 211.233 149.665C213.932 151.144 216.242 152.909 217.644 156.188C218.406 158.073 218.859 160.068 218.985 162.097C219.374 166.631 217.843 181.295 216.917 187.853C215.585 198.806 213.949 198.823 211.57 200.666C207.487 203.815 195.738 210.001 191.862 211.533C184.828 214.301 179.083 210.027 174.801 207.916C170.872 205.93 167.08 203.684 163.45 201.194C162.377 200.415 161.823 199.619 161.832 198.798L161.91 196.678Z" fill="url(#paint41_linear_1267_9797)"/>
<path d="M174.878 205.814C170.95 203.828 167.158 201.582 163.527 199.092C161.088 197.362 161.313 195.51 164.808 193.244C169.661 190.094 189.439 178.873 189.439 178.873C189.439 178.873 214.451 193.633 213.37 196.358C212.288 199.083 196.819 207.51 191.94 209.431C184.906 212.199 179.161 207.925 174.878 205.814Z" fill="#BA68C8"/>
<path d="M174.878 205.814C170.95 203.828 167.158 201.582 163.527 199.092C161.088 197.362 161.313 195.51 164.808 193.244C169.661 190.094 189.439 178.873 189.439 178.873C189.439 178.873 214.451 193.633 213.37 196.358C212.288 199.083 196.819 207.51 191.94 209.431C184.906 212.199 179.161 207.925 174.878 205.814Z" fill="url(#paint42_linear_1267_9797)"/>
<path d="M199.233 147.805C201.829 146.42 205.289 148.298 209.52 150.616C212.228 152.104 214.538 153.869 215.94 157.166L217.73 156.127C216.329 152.848 214.019 151.084 211.32 149.604C206.994 147.225 203.49 145.278 200.825 146.905C200.583 147.043 199.657 147.554 199.233 147.805Z" fill="#BA68C8"/>
<path d="M199.233 147.805C201.829 146.42 205.289 148.298 209.52 150.616C212.228 152.104 214.538 153.869 215.94 157.166L217.73 156.127C216.329 152.848 214.019 151.084 211.32 149.604C206.994 147.225 203.49 145.278 200.825 146.905C200.583 147.043 199.657 147.554 199.233 147.805Z" fill="url(#paint43_linear_1267_9797)"/>
<path d="M186.688 180.378C186.688 180.378 189.24 181.243 198.342 185.682C202.071 187.507 204.528 189.359 208.023 191.565C213.171 194.801 212.782 197.206 212.782 197.206C215.377 195.086 217.886 170.498 217.263 163.049C217.133 160.918 216.636 158.825 215.792 156.863L215.585 156.422C215.533 156.327 215.489 156.231 215.429 156.136C215.411 156.088 215.388 156.041 215.36 155.998C215.152 155.635 214.936 155.288 214.711 154.96L214.538 154.717L214.356 154.484C214.304 154.406 214.235 154.337 214.174 154.259C214.114 154.181 214.071 154.138 214.019 154.077C213.732 153.736 213.423 153.415 213.093 153.117C213.019 153.035 212.938 152.96 212.851 152.892C212.339 152.441 211.796 152.027 211.224 151.655C211.138 151.592 211.049 151.534 210.956 151.482L210.601 151.257L210.298 151.075C210.039 150.919 209.771 150.772 209.503 150.625C206.267 148.852 203.507 147.329 201.206 147.329C200.145 147.324 199.12 147.716 198.333 148.428C196.603 149.924 195.738 153.074 195.668 153.255C192.96 161.846 190.581 177.999 186.688 180.378Z" fill="#BA68C8"/>
<path d="M186.688 180.378C186.688 180.378 189.24 181.243 198.342 185.682C202.071 187.507 204.528 189.359 208.023 191.565C213.171 194.801 212.782 197.206 212.782 197.206C215.377 195.086 217.886 170.498 217.263 163.049C217.133 160.918 216.636 158.825 215.792 156.863L215.585 156.422C215.533 156.327 215.489 156.231 215.429 156.136C215.411 156.088 215.388 156.041 215.36 155.998C215.152 155.635 214.936 155.288 214.711 154.96L214.538 154.717L214.356 154.484C214.304 154.406 214.235 154.337 214.174 154.259C214.114 154.181 214.071 154.138 214.019 154.077C213.732 153.736 213.423 153.415 213.093 153.117C213.019 153.035 212.938 152.96 212.851 152.892C212.339 152.441 211.796 152.027 211.224 151.655C211.138 151.592 211.049 151.534 210.956 151.482L210.601 151.257L210.298 151.075C210.039 150.919 209.771 150.772 209.503 150.625C206.267 148.852 203.507 147.329 201.206 147.329C200.145 147.324 199.12 147.716 198.333 148.428C196.603 149.924 195.738 153.074 195.668 153.255C192.96 161.846 190.581 177.999 186.688 180.378Z" fill="url(#paint44_linear_1267_9797)"/>
<path d="M161.909 198.737C161.909 199.602 162.454 200.355 163.527 201.134C167.155 203.622 170.945 205.868 174.869 207.856C177.102 208.955 179.723 210.633 182.717 211.602C189.897 207.398 202.295 200.044 205.341 197.604C206.976 196.297 207.936 194.143 208.542 191.894C209.148 189.429 209.439 186.897 209.407 184.358C211.119 183.784 212.65 182.77 213.845 181.417C215.645 179.427 216.19 175.058 216.908 160.41C216.681 159.191 216.309 158.003 215.801 156.872L215.593 156.43C215.593 156.335 215.489 156.24 215.437 156.145C215.419 156.096 215.396 156.05 215.368 156.007C215.16 155.635 214.944 155.297 214.719 154.968L214.546 154.726C214.486 154.648 214.434 154.57 214.364 154.493C214.309 154.414 214.248 154.339 214.183 154.268C214.138 154.201 214.086 154.14 214.027 154.086C213.743 153.743 213.434 153.422 213.101 153.126C213.025 153.046 212.944 152.971 212.859 152.901C212.347 152.449 211.804 152.036 211.233 151.663L210.973 151.49L210.61 151.265L210.315 151.092L209.511 150.634C206.275 148.86 203.515 147.346 201.214 147.346C200.234 147.343 199.283 147.672 198.515 148.281C198.452 148.327 198.394 148.379 198.341 148.436C197.749 148.998 197.252 149.652 196.871 150.374C196.819 150.487 196.758 150.591 196.706 150.694C196.703 150.72 196.703 150.746 196.706 150.772C196.655 150.862 196.609 150.954 196.568 151.049L196.516 151.153V151.222L196.429 151.395C196.334 151.612 196.256 151.81 196.187 151.992C196.187 151.992 196.187 152.087 196.127 152.122C196.066 152.157 196.023 152.416 195.98 152.537C195.936 152.658 195.98 152.615 195.936 152.65C195.893 152.684 195.936 152.736 195.936 152.771C195.933 152.8 195.933 152.829 195.936 152.857C195.936 152.857 195.936 152.927 195.936 152.953C195.936 152.978 195.936 153.03 195.936 153.065C195.932 153.091 195.932 153.117 195.936 153.143C195.936 153.203 195.936 153.247 195.893 153.264C193.185 161.864 190.832 178.008 186.913 180.378C186.913 180.378 186.913 180.378 186.913 180.43C181.817 183.242 168.744 190.899 165.067 193.252C163.103 194.524 162.169 195.666 162.169 196.713C161.909 197.059 161.918 198.408 161.909 198.737Z" fill="#E36A16"/>
<path d="M177.405 241.572C177.471 241.949 177.439 242.336 177.309 242.696C176.654 243.474 175.84 244.102 174.922 244.539C174.074 245.014 173.394 245.739 172.975 246.616C172.096 248.309 170.739 249.708 169.073 250.639C166.807 251.649 164.289 251.951 161.849 251.504C158.821 251.002 158.544 249.22 158.544 249.22C158.544 249.22 158.362 247.541 159.115 247.273C159.868 247.005 177.405 241.572 177.405 241.572Z" fill="white"/>
<path d="M177.785 239.495C177.813 240.207 177.683 240.916 177.405 241.572C176.54 242.817 174.429 243.25 173.243 244.954C172.058 246.659 170.648 249.28 166.685 250.145C162.723 251.011 159.712 249.773 158.959 248.657C158.207 247.541 158.873 246.468 161.39 245.058C164.064 243.57 167.213 239.634 167.213 239.634C168.251 238.293 168.684 236.519 169.255 234.944C169.315 234.789 169.402 234.607 169.566 234.607C169.731 234.607 169.852 234.841 169.956 235.005C170.146 235.246 170.416 235.412 170.717 235.472C171.06 235.591 171.409 235.689 171.764 235.766C172.473 235.929 173.199 236.01 173.927 236.009C174.045 235.989 174.166 235.994 174.282 236.024C174.399 236.054 174.507 236.108 174.602 236.182C174.665 236.267 174.711 236.365 174.735 236.47C174.758 236.574 174.76 236.682 174.74 236.787C174.722 237.054 174.688 237.32 174.636 237.583C174.607 237.711 174.607 237.844 174.636 237.972C174.673 238.061 174.735 238.137 174.816 238.189C174.896 238.242 174.99 238.269 175.086 238.267C175.281 238.265 175.471 238.205 175.631 238.094C175.953 237.936 176.236 237.709 176.458 237.427C176.679 237.145 176.834 236.817 176.912 236.467C176.912 236.467 176.912 236.06 176.981 235.697C177.211 235.816 177.385 236.021 177.465 236.268C177.543 236.571 177.517 236.891 177.569 237.202C177.7 237.96 177.772 238.726 177.785 239.495Z" fill="#BA68C8"/>
<path d="M177.785 239.495C177.813 240.207 177.683 240.916 177.405 241.572C176.54 242.817 174.429 243.25 173.243 244.954C172.058 246.659 170.648 249.28 166.685 250.145C162.723 251.011 159.712 249.773 158.959 248.657C158.207 247.541 158.873 246.468 161.39 245.058C164.064 243.57 167.213 239.634 167.213 239.634C168.251 238.293 168.684 236.519 169.255 234.944C169.315 234.789 169.402 234.607 169.566 234.607C169.731 234.607 169.852 234.841 169.956 235.005C170.146 235.246 170.416 235.412 170.717 235.472C171.06 235.591 171.409 235.689 171.764 235.766C172.473 235.929 173.199 236.01 173.927 236.009C174.045 235.989 174.166 235.994 174.282 236.024C174.399 236.054 174.507 236.108 174.602 236.182C174.665 236.267 174.711 236.365 174.735 236.47C174.758 236.574 174.76 236.682 174.74 236.787C174.722 237.054 174.688 237.32 174.636 237.583C174.607 237.711 174.607 237.844 174.636 237.972C174.673 238.061 174.735 238.137 174.816 238.189C174.896 238.242 174.99 238.269 175.086 238.267C175.281 238.265 175.471 238.205 175.631 238.094C175.953 237.936 176.236 237.709 176.458 237.427C176.679 237.145 176.834 236.817 176.912 236.467C176.912 236.467 176.912 236.06 176.981 235.697C177.211 235.816 177.385 236.021 177.465 236.268C177.543 236.571 177.517 236.891 177.569 237.202C177.7 237.96 177.772 238.726 177.785 239.495Z" fill="#1B1425"/>
<path d="M158.276 235.611C158.3 235.995 158.225 236.379 158.059 236.727C157.316 237.428 156.431 237.962 155.464 238.293C154.566 238.671 153.809 239.321 153.301 240.153C152.241 241.742 150.736 242.985 148.975 243.726C146.615 244.484 144.08 244.505 141.708 243.787C138.749 242.965 138.671 241.191 138.671 241.191C138.671 241.191 138.671 239.504 139.441 239.314C140.211 239.123 158.276 235.611 158.276 235.611Z" fill="white"/>
<path d="M158.881 233.604C158.826 234.311 158.619 234.998 158.276 235.619C157.272 236.77 155.135 236.978 153.768 238.535C152.401 240.092 150.714 242.558 146.7 242.965C142.685 243.371 139.778 241.84 139.181 240.646C138.585 239.452 139.32 238.466 141.976 237.332C144.796 236.138 148.352 232.574 148.352 232.574C149.529 231.345 150.152 229.632 150.896 228.127C150.965 227.98 151.078 227.807 151.233 227.824C151.389 227.842 151.493 228.084 151.579 228.265C151.743 228.527 151.994 228.72 152.289 228.811C152.617 228.968 152.955 229.103 153.301 229.217C153.987 229.454 154.698 229.611 155.421 229.684C155.541 229.681 155.662 229.701 155.775 229.744C155.887 229.787 155.991 229.852 156.078 229.935C156.176 230.124 156.201 230.343 156.147 230.549C156.102 230.813 156.039 231.073 155.957 231.328C155.91 231.452 155.892 231.585 155.905 231.717C155.931 231.81 155.985 231.893 156.059 231.955C156.133 232.017 156.224 232.055 156.321 232.064C156.515 232.077 156.709 232.038 156.883 231.951C157.212 231.821 157.508 231.62 157.749 231.361C157.99 231.102 158.17 230.792 158.276 230.454C158.276 230.454 158.362 230.056 158.475 229.702C158.694 229.846 158.849 230.069 158.907 230.325C158.925 230.639 158.925 230.953 158.907 231.268C158.959 232.046 158.951 232.827 158.881 233.604Z" fill="#BA68C8"/>
<path d="M158.881 233.604C158.826 234.311 158.619 234.998 158.276 235.619C157.272 236.77 155.135 236.978 153.768 238.535C152.401 240.092 150.714 242.558 146.7 242.965C142.685 243.371 139.778 241.84 139.181 240.646C138.585 239.452 139.32 238.466 141.976 237.332C144.796 236.138 148.352 232.574 148.352 232.574C149.529 231.345 150.152 229.632 150.896 228.127C150.965 227.98 151.078 227.807 151.233 227.824C151.389 227.842 151.493 228.084 151.579 228.265C151.743 228.527 151.994 228.72 152.289 228.811C152.617 228.968 152.955 229.103 153.301 229.217C153.987 229.454 154.698 229.611 155.421 229.684C155.541 229.681 155.662 229.701 155.775 229.744C155.887 229.787 155.991 229.852 156.078 229.935C156.176 230.124 156.201 230.343 156.147 230.549C156.102 230.813 156.039 231.073 155.957 231.328C155.91 231.452 155.892 231.585 155.905 231.717C155.931 231.81 155.985 231.893 156.059 231.955C156.133 232.017 156.224 232.055 156.321 232.064C156.515 232.077 156.709 232.038 156.883 231.951C157.212 231.821 157.508 231.62 157.749 231.361C157.99 231.102 158.17 230.792 158.276 230.454C158.276 230.454 158.362 230.056 158.475 229.702C158.694 229.846 158.849 230.069 158.907 230.325C158.925 230.639 158.925 230.953 158.907 231.268C158.959 232.046 158.951 232.827 158.881 233.604Z" fill="#1B1425"/>
<path d="M207.175 179.903L197.883 178.899L179.048 179.92C179.048 179.92 167.732 187.153 159.513 192.897C157.125 194.576 154.599 196.41 154.183 199.931C153.586 204.923 149.901 230.212 149.901 230.212C151.06 233.188 157.013 233.128 158.907 231.389C159.349 229.658 159.989 227.85 161.503 223.161C162.61 219.7 163.398 216.759 164.315 213.956C165.231 210.857 165.788 207.664 165.976 204.439L177.958 196.92C175.32 199.611 174.454 200.485 173.07 201.878C171.859 203.106 171.054 204.646 170.7 208.617C169.99 216.482 168.753 234.201 168.666 236.606C169.661 237.99 174.506 239.694 177.681 238.094C178.547 233.56 179.533 230.143 180.822 223.888C182.241 216.966 182.552 212.424 182.362 209.933C182.362 209.933 188.193 206.342 194.838 201.973C197.658 200.113 201.673 198.149 203.619 195.995C206.967 192.352 207.296 186.642 207.175 179.903Z" fill="#1B1425"/>
<path d="M177.967 196.938L184.733 189.255C183.461 188.702 182.317 187.893 181.37 186.88C180.424 185.866 179.695 184.669 179.23 183.363C179.23 183.363 179.654 187.801 182.31 189.748L179.144 194.074L165.985 204.456L177.967 196.938Z" fill="#263238"/>
<path d="M176.808 150.046C175.233 152.001 167.637 160.61 167.637 160.61C166.253 158.68 164.609 156.284 163.225 154.268C161.776 152.009 160.655 149.556 159.894 146.983C159.587 146.017 159.205 145.077 158.752 144.171C158.317 143.234 158.056 142.226 157.982 141.195C157.982 140.685 156.675 140.719 156.295 142.311C156.145 143.376 156.145 144.456 156.295 145.521C155.698 145.305 154.789 144.837 153.483 144.396C152.176 143.955 149.676 142.822 149.564 144.474C149.564 144.837 149.693 145.227 149.564 145.573C149.488 145.732 149.395 145.883 149.287 146.023C149.117 146.31 149.027 146.637 149.027 146.97C149.027 147.303 149.117 147.631 149.287 147.917C149.373 148.043 149.435 148.184 149.468 148.333C149.468 148.636 149.287 148.904 149.235 149.198C149.184 149.532 149.226 149.873 149.356 150.184C149.538 150.643 149.823 151.049 150.005 151.517C150.106 151.814 150.231 152.103 150.377 152.382C150.671 152.982 151.19 153.443 151.822 153.662C152.687 153.982 153.552 154.328 154.806 154.778C155.784 155.133 156.442 156.509 157.402 158.784C159.001 162.275 160.804 165.67 162.801 168.95C163.013 169.327 163.244 169.694 163.493 170.048C165.907 173.656 167.412 172.713 171.868 169.131C177.344 164.719 181.955 160.307 181.955 160.307L184.62 144.284C181.532 144.993 178.382 148.091 176.808 150.046Z" fill="#FFA89C"/>
<path d="M154.789 145.875C155.775 146.118 156.087 146.741 156.147 148.116C156.191 148.938 156.537 150.435 157.462 150.98C157.03 150.965 156.613 150.817 156.268 150.556C155.818 150.149 155.697 150.115 155.481 150.374C155.317 150.549 155.116 150.685 154.893 150.772C155.055 150.934 155.16 151.143 155.193 151.369C155.226 151.596 155.184 151.826 155.074 152.027C154.694 152.762 152.479 152.598 150.844 151.897C150.844 151.897 153.751 152.831 154.304 151.975C154.858 151.118 153.119 149.89 152.09 149.682C152.09 149.682 154.893 150.418 155.222 149.578C155.55 148.739 154.183 147.891 152.704 147.623C152.704 147.623 155.066 148.168 155.369 147.45C155.483 147.162 155.488 146.842 155.381 146.552C155.274 146.261 155.063 146.02 154.789 145.875Z" fill="#F28F8F"/>
<path d="M177.491 148.757C175.899 150.669 167.619 160.004 167.619 160.004L163.406 154.501C162.593 158.827 158.336 160.834 158.336 160.834C158.336 160.834 162.178 168.768 163.527 170.758C165.076 172.973 167.23 173.846 170.137 171.294C173.044 168.742 181.523 161.535 181.523 161.535L186.792 143.574C182.656 143.609 180.061 145.694 177.491 148.757Z" fill="#A535C5"/>
<path d="M179.628 153.645C180.865 146.273 183.746 143.721 187.769 143.513L196.81 143.237C198.722 143.808 204.804 145.027 207.4 145.91C209.995 146.792 209.693 153.125 208.94 157.001C208.187 160.877 208.62 162.071 208.577 168.482C208.447 174.694 207.711 182.835 207.192 187.092C201.456 190.44 184.36 188.39 178.754 180.672C178.754 175.282 179.074 171.398 179.308 167.582C179.706 160.748 179.213 156.084 179.628 153.645Z" fill="#1B1425"/>
<path d="M183.66 123.355C183.289 123.549 182.978 123.84 182.759 124.196C182.539 124.553 182.42 124.961 182.414 125.38C182.384 125.988 182.538 126.59 182.855 127.11C183.357 127.793 184.068 128.294 184.88 128.537C185.232 128.632 185.574 128.763 185.9 128.927C186.303 129.232 186.676 129.574 187.016 129.948C187.553 130.398 188.089 130.856 188.634 131.289C189.738 132.168 190.894 132.98 192.095 133.72C193.232 134.43 194.424 135.05 195.66 135.571C196.975 136.108 198.117 135.718 199.518 135.9L199.172 139.75C199.172 139.75 199.674 138.885 200.254 137.838C200.755 136.973 202.849 132.362 202.849 132.362C203.714 130.562 204.726 128.685 204.683 126.643C204.683 124.999 204.372 123.528 203.143 122.793C203.143 120.889 202.711 119.946 201.413 118.874C200.457 118.165 199.344 117.699 198.168 117.515C196.844 117.312 195.496 117.312 194.171 117.515C192.204 117.885 190.203 118.051 188.202 118.008C187.137 117.859 186.055 117.889 185.001 118.095C184.33 118.287 183.739 118.691 183.317 119.246C182.894 119.801 182.663 120.477 182.656 121.175C182.569 121.962 183.106 123.182 183.66 123.355Z" fill="black"/>
<path d="M196.438 123.398C196.438 124.609 197.468 126.772 199.12 128.33C198.812 129.659 198.73 131.031 198.878 132.387C198.908 132.692 199.002 132.987 199.155 133.252C199.23 133.378 199.332 133.486 199.453 133.568C199.574 133.65 199.711 133.705 199.856 133.728C200.245 133.772 200.41 133.538 200.548 133.235C200.736 132.849 200.95 132.476 201.188 132.119C201.288 131.958 201.41 131.812 201.552 131.686C201.786 131.463 202.074 131.302 202.387 131.219C202.7 131.136 203.029 131.133 203.344 131.21C203.659 131.288 203.949 131.444 204.187 131.663C204.426 131.882 204.605 132.158 204.709 132.465C205.488 134.438 203.844 136.964 202.391 137.31C199.908 137.907 199.441 136.211 199.441 136.211L199.19 144.335C198.42 146.368 194.535 148.228 191.481 147.718C188.427 147.208 189.474 145.391 190.763 144.179L190.711 141.35C189.615 141.421 188.515 141.343 187.441 141.117C186.177 140.823 185.174 139.594 184.715 137.656C183.997 133.941 183.997 130.124 184.715 126.409C185.26 124.134 186.558 122.654 187.259 122.334C187.259 122.827 187.579 124.064 190.045 124.48C192.701 124.869 194.518 124.108 196.438 123.398Z" fill="#FFA89C"/>
<path d="M190.711 141.307C192.565 141.317 194.405 140.979 196.135 140.312C197.04 139.679 197.76 138.816 198.22 137.812C198.132 139.019 197.624 140.158 196.784 141.03C194.941 142.622 190.728 142.467 190.728 142.467L190.711 141.307Z" fill="#F28F8F"/>
<path d="M193.635 127.698L195.625 128.641C195.748 128.369 195.759 128.059 195.657 127.778C195.556 127.497 195.349 127.267 195.08 127.136C194.949 127.074 194.806 127.04 194.662 127.036C194.517 127.031 194.373 127.056 194.238 127.108C194.103 127.161 193.98 127.24 193.876 127.341C193.773 127.443 193.691 127.564 193.635 127.698Z" fill="black"/>
<path d="M193.557 135.658L190.391 136.835C190.459 137.047 190.569 137.244 190.715 137.413C190.861 137.582 191.039 137.72 191.239 137.818C191.44 137.917 191.658 137.974 191.881 137.986C192.103 137.999 192.327 137.966 192.536 137.89C192.751 137.811 192.947 137.691 193.114 137.536C193.281 137.38 193.416 137.194 193.511 136.986C193.606 136.779 193.659 136.555 193.667 136.327C193.675 136.099 193.638 135.871 193.557 135.658Z" fill="#B16668"/>
<path d="M191.68 137.959C191.7 137.567 191.874 137.198 192.164 136.932C192.453 136.667 192.836 136.526 193.229 136.54C193.358 136.545 193.486 136.568 193.609 136.609C193.553 136.896 193.425 137.164 193.238 137.388C193.05 137.612 192.809 137.784 192.536 137.89C192.262 137.99 191.966 138.014 191.68 137.959Z" fill="#F28F8F"/>
<path d="M185.684 128.442L187.57 127.395C187.506 127.271 187.417 127.161 187.309 127.072C187.201 126.984 187.076 126.918 186.942 126.879C186.807 126.84 186.666 126.829 186.527 126.846C186.389 126.864 186.255 126.909 186.134 126.98C185.885 127.119 185.7 127.349 185.616 127.621C185.532 127.893 185.557 128.188 185.684 128.442Z" fill="black"/>
<path d="M190.711 134.784L187.752 133.815L191.1 128.373L190.711 134.784Z" fill="#F28F8F"/>
<path d="M187.821 130.363C187.821 130.534 187.771 130.701 187.676 130.843C187.581 130.986 187.445 131.097 187.287 131.162C187.129 131.228 186.955 131.245 186.787 131.211C186.62 131.178 186.465 131.095 186.344 130.974C186.223 130.853 186.141 130.699 186.108 130.532C186.074 130.364 186.091 130.19 186.157 130.032C186.222 129.874 186.333 129.738 186.476 129.643C186.618 129.548 186.785 129.498 186.956 129.498C187.186 129.498 187.406 129.589 187.568 129.751C187.73 129.913 187.821 130.133 187.821 130.363Z" fill="black"/>
<path d="M194.769 130.363C194.769 130.534 194.718 130.701 194.623 130.843C194.528 130.986 194.393 131.097 194.235 131.162C194.076 131.228 193.903 131.245 193.735 131.211C193.567 131.178 193.413 131.095 193.292 130.974C193.171 130.853 193.088 130.699 193.055 130.532C193.022 130.364 193.039 130.19 193.104 130.032C193.17 129.874 193.281 129.738 193.423 129.643C193.565 129.548 193.732 129.498 193.903 129.498C194.133 129.498 194.353 129.589 194.515 129.751C194.678 129.913 194.769 130.133 194.769 130.363Z" fill="black"/>
<path d="M213.629 155.037C213.681 149.483 212.098 147.251 206.708 145.694C205.263 145.979 202.789 151.447 202.884 157.045L201.102 173.059L188.427 178.587L191.533 185.716C191.533 185.716 202.728 183.311 206.872 181.711C209.156 180.845 210.048 179.764 211.337 173.569C212.632 167.469 213.4 161.269 213.629 155.037Z" fill="#A535C5"/>
<path d="M154.789 247.351C149.788 244.461 141.682 244.461 136.681 247.351C134.181 248.796 132.935 250.691 132.935 252.542V254.169C132.978 256.029 134.224 257.889 136.681 259.308C141.682 262.197 149.788 262.197 154.789 259.308C157.263 257.88 158.509 256.011 158.544 254.117V252.49C158.57 250.665 157.281 248.787 154.789 247.351Z" fill="white"/>
<path d="M136.681 257.811C131.68 254.921 131.68 250.241 136.681 247.351C141.682 244.461 149.788 244.461 154.789 247.351C159.79 250.241 159.799 254.921 154.789 257.811C149.78 260.701 141.682 260.701 136.681 257.811Z" fill="url(#paint45_linear_1267_9797)"/>
<path d="M147.53 251.088V215.755H143.94V251.088C143.933 251.261 143.978 251.431 144.069 251.577C144.16 251.724 144.293 251.84 144.45 251.91C144.844 252.111 145.28 252.215 145.722 252.215C146.164 252.215 146.6 252.111 146.994 251.91C147.156 251.844 147.294 251.73 147.39 251.583C147.486 251.436 147.535 251.264 147.53 251.088Z" fill="url(#paint46_linear_1267_9797)"/>
<path d="M175.337 183.112C158.968 173.656 132.424 173.656 116.055 183.112C107.871 187.836 103.787 194.031 103.787 200.225V201.428C103.787 207.614 107.871 213.808 116.055 218.541C132.424 227.989 158.968 227.989 175.337 218.541C183.521 213.808 187.614 207.614 187.605 201.428V200.217C187.614 194.031 183.521 187.836 175.337 183.112Z" fill="#1B1425"/>
<path d="M175.38 179.963C159.003 170.515 132.468 170.515 116.099 179.963C107.914 184.695 103.822 190.89 103.831 197.076V199.144C103.831 205.338 107.914 211.533 116.099 216.257C132.468 225.704 159.003 225.704 175.38 216.257C183.565 211.533 187.648 204.473 187.648 198.279C187.648 197.007 187.648 198.348 187.648 197.076C187.648 190.89 183.565 184.695 175.38 179.963Z" fill="#BA68C8"/>
<path opacity="0.4" d="M175.38 179.963C159.003 170.515 132.468 170.515 116.099 179.963C107.914 184.695 103.822 190.89 103.831 197.076V199.144C103.831 205.338 107.914 211.533 116.099 216.257C132.468 225.704 159.003 225.704 175.38 216.257C183.565 211.533 187.648 204.473 187.648 198.279C187.648 197.007 187.648 198.348 187.648 197.076C187.648 190.89 183.565 184.695 175.38 179.963Z" fill="white"/>
<path opacity="0.1" d="M175.38 179.963C159.003 170.515 132.468 170.515 116.099 179.963C107.914 184.695 103.822 190.89 103.831 197.076V199.144C103.831 205.338 107.914 211.533 116.099 216.257C132.468 225.704 159.003 225.704 175.38 216.257C183.565 211.533 187.648 204.473 187.648 198.279C187.648 197.007 187.648 198.348 187.648 197.076C187.648 190.89 183.565 184.695 175.38 179.963Z" fill="black"/>
<path d="M145.74 221.275C168.89 221.275 187.657 210.441 187.657 197.076C187.657 183.711 168.89 172.877 145.74 172.877C122.589 172.877 103.822 183.711 103.822 197.076C103.822 210.441 122.589 221.275 145.74 221.275Z" fill="#BA68C8"/>
<path d="M116.099 214.189C99.7298 204.741 99.7298 189.419 116.099 179.963C132.468 170.507 159.003 170.515 175.372 179.963C191.741 189.411 191.749 204.741 175.372 214.189C158.994 223.637 132.468 223.645 116.099 214.189Z" fill="url(#paint47_linear_1267_9797)"/>
<path opacity="0.1" d="M125.443 188.771C127.426 188.813 129.379 188.282 131.066 187.239C131.668 186.982 132.181 186.554 132.542 186.008C132.902 185.462 133.094 184.822 133.094 184.168C133.094 183.514 132.902 182.874 132.542 182.328C132.181 181.782 131.668 181.353 131.066 181.097C129.362 180.094 127.42 179.565 125.443 179.565C123.465 179.565 121.523 180.094 119.819 181.097C119.214 181.35 118.697 181.777 118.334 182.324C117.971 182.87 117.777 183.512 117.777 184.168C117.777 184.824 117.971 185.466 118.334 186.012C118.697 186.558 119.214 186.985 119.819 187.239C121.505 188.284 123.459 188.816 125.443 188.771Z" fill="#BA68C8"/>
<path opacity="0.05" d="M125.443 188.771C127.426 188.813 129.379 188.282 131.066 187.239C131.668 186.982 132.181 186.554 132.542 186.008C132.902 185.462 133.094 184.822 133.094 184.168C133.094 183.514 132.902 182.874 132.542 182.328C132.181 181.782 131.668 181.353 131.066 181.097C129.362 180.094 127.42 179.565 125.443 179.565C123.465 179.565 121.523 180.094 119.819 181.097C119.214 181.35 118.697 181.777 118.334 182.324C117.971 182.87 117.777 183.512 117.777 184.168C117.777 184.824 117.971 185.466 118.334 186.012C118.697 186.558 119.214 186.985 119.819 187.239C121.505 188.284 123.459 188.816 125.443 188.771Z" fill="black"/>
<path opacity="0.1" d="M139.796 184.877L156.598 175.178C156.743 175.093 156.909 175.048 157.078 175.048C157.246 175.048 157.412 175.093 157.558 175.178L186.705 192.006C186.738 192.025 186.764 192.052 186.783 192.085C186.802 192.117 186.811 192.154 186.811 192.192C186.811 192.229 186.802 192.266 186.783 192.299C186.764 192.332 186.738 192.359 186.705 192.378L169.748 202.172L139.796 184.877Z" fill="black"/>
<path d="M141.05 182.835V183.207C141.051 183.481 141.123 183.749 141.26 183.986C141.396 184.223 141.593 184.42 141.829 184.557L168.952 200.225C169.186 200.362 169.451 200.434 169.722 200.433C169.995 200.433 170.264 200.361 170.501 200.225L185.304 191.712C185.538 191.574 185.733 191.376 185.868 191.139C186.003 190.903 186.074 190.635 186.074 190.362V189.843C186.073 189.878 186.063 189.911 186.044 189.94C186.026 189.969 186 189.992 185.97 190.008L169.722 199.395L141.05 182.835Z" fill="#37474F"/>
<path d="M169.748 199.403V200.433C169.477 200.434 169.211 200.362 168.978 200.225L141.829 184.566C141.592 184.429 141.395 184.232 141.259 183.995C141.122 183.758 141.05 183.49 141.05 183.216V182.835L169.748 199.403Z" fill="#263238"/>
<path d="M141.05 182.835L157.142 173.535C157.283 173.454 157.443 173.412 157.605 173.412C157.768 173.412 157.927 173.454 158.068 173.535L185.996 189.662C186.026 189.68 186.051 189.706 186.069 189.737C186.086 189.768 186.096 189.803 186.096 189.839C186.096 189.875 186.086 189.91 186.069 189.941C186.051 189.972 186.026 189.998 185.996 190.016L169.748 199.403L141.05 182.835Z" fill="#455A64"/>
<path d="M169.895 198.036L178.581 193.027L153.188 178.371L144.468 183.354L169.895 198.036Z" fill="#37474F"/>
<path d="M144.468 183.354L144.796 183.545L153.197 178.752L178.244 193.217L178.581 193.027L153.197 178.371L144.468 183.354Z" fill="#263238"/>
<path d="M174.16 184.107L174.005 184.194L169.748 186.651L162.178 182.282L162.022 182.195L166.443 179.643L174.16 184.107Z" fill="#263238"/>
<path d="M174.004 184.194L169.748 186.651L162.177 182.282L166.443 179.833L174.004 184.194Z" fill="#37474F"/>
<path d="M168.39 184.445C169.108 184.323 170.336 186.668 171.772 186.365C173.556 185.985 175.392 185.924 177.197 186.184C178.616 186.521 180.182 187.637 181.947 187.663C183.606 187.578 185.248 187.287 186.835 186.798C188.565 186.409 189.82 186.071 191.541 185.734C191.979 184.042 191.785 182.249 190.996 180.69C190.56 179.728 189.838 178.925 188.929 178.388C188.929 178.388 187.302 178.925 184.464 179.66C182.157 180.356 179.667 180.107 177.543 178.968C177.162 178.752 176.764 178.553 176.375 178.362C175.933 178.201 175.469 178.107 174.999 178.086C173.97 177.982 173.053 177.99 171.928 177.826C171.855 177.804 171.777 177.804 171.703 177.826C171.513 177.939 171.556 178.215 171.66 178.406C171.924 178.876 172.321 179.259 172.802 179.504C173.283 179.73 173.777 179.926 174.281 180.093C173.909 180.108 173.539 180.154 173.174 180.231C171.582 180.447 169.506 181.814 168.052 182.827C166.599 183.839 167.68 184.566 168.39 184.445Z" fill="#FFA89C"/>
<path d="M175.051 179.427C175.753 179.523 176.427 179.761 177.033 180.127C176.122 180.016 175.201 180.016 174.29 180.127C173.785 179.964 173.29 179.767 172.811 179.539C172.388 179.322 172.027 179 171.764 178.605C172.464 179.28 174.065 179.375 175.051 179.427Z" fill="#F28F8F"/>
<path d="M169.315 199.628C169.058 199.729 168.781 199.77 168.505 199.749C168.23 199.728 167.963 199.645 167.723 199.507L140.695 183.934C140.466 183.797 140.27 183.611 140.121 183.39C139.971 183.168 139.872 182.917 139.83 182.653L136.871 165.004C136.863 164.903 136.863 164.802 136.871 164.701C136.874 164.211 137.07 163.741 137.416 163.395L165.491 179.582C165.663 179.684 165.81 179.822 165.923 179.986C166.037 180.151 166.114 180.337 166.149 180.534L169.315 199.628Z" fill="#37474F"/>
<path d="M169.748 199.403L169.566 199.507L169.315 199.628L166.114 180.534C166.079 180.338 166.002 180.151 165.889 179.987C165.776 179.823 165.628 179.685 165.457 179.582L137.365 163.36C137.48 163.254 137.604 163.158 137.737 163.075L165.881 179.323C166.054 179.423 166.204 179.56 166.319 179.725C166.434 179.889 166.512 180.077 166.547 180.274L169.748 199.403Z" fill="#455A64"/>
<path d="M165.854 179.946L166.287 179.695C166.422 179.863 166.511 180.062 166.547 180.274L169.748 199.403L169.566 199.507L169.315 199.628L166.114 180.534C166.077 180.32 165.987 180.118 165.854 179.946Z" fill="#263238"/>
<path d="M154.088 183.337C153.663 181.863 152.687 180.609 151.363 179.833C150.057 179.08 149.157 179.427 149.356 180.612C149.792 182.07 150.766 183.307 152.081 184.072C153.379 184.868 154.287 184.566 154.088 183.337Z" fill="#BA68C8"/>
<defs>
<linearGradient id="paint0_linear_1267_9797" x1="91.1819" y1="85.6486" x2="116.503" y2="77.6651" gradientUnits="userSpaceOnUse">
<stop stop-color="#F57A00"/>
<stop offset="1" stop-color="#7103A4"/>
</linearGradient>
<linearGradient id="paint1_linear_1267_9797" x1="109.809" y1="87.6854" x2="112.567" y2="86.5629" gradientUnits="userSpaceOnUse">
<stop stop-color="#F57A00"/>
<stop offset="1" stop-color="#7103A4"/>
</linearGradient>
<linearGradient id="paint2_linear_1267_9797" x1="15.5576" y1="139.657" x2="42.6913" y2="135.035" gradientUnits="userSpaceOnUse">
<stop stop-color="#F57A00"/>
<stop offset="1" stop-color="#7103A4"/>
</linearGradient>
<linearGradient id="paint3_linear_1267_9797" x1="14.8481" y1="142.511" x2="17.6061" y2="141.389" gradientUnits="userSpaceOnUse">
<stop stop-color="#F57A00"/>
<stop offset="1" stop-color="#7103A4"/>
</linearGradient>
<linearGradient id="paint4_linear_1267_9797" x1="73.6104" y1="119.287" x2="100.727" y2="114.865" gradientUnits="userSpaceOnUse">
<stop stop-color="#F57A00"/>
<stop offset="1" stop-color="#7103A4"/>
</linearGradient>
<linearGradient id="paint5_linear_1267_9797" x1="33.1289" y1="152.999" x2="60.696" y2="149.874" gradientUnits="userSpaceOnUse">
<stop stop-color="#F57A00"/>
<stop offset="1" stop-color="#7103A4"/>
</linearGradient>
<linearGradient id="paint6_linear_1267_9797" x1="32.4197" y1="156.743" x2="35.1776" y2="155.621" gradientUnits="userSpaceOnUse">
<stop stop-color="#F57A00"/>
<stop offset="1" stop-color="#7103A4"/>
</linearGradient>
<linearGradient id="paint7_linear_1267_9797" x1="62.7178" y1="238.354" x2="63.9084" y2="238.351" gradientUnits="userSpaceOnUse">
<stop stop-color="#F57A00"/>
<stop offset="1" stop-color="#7103A4"/>
</linearGradient>
<linearGradient id="paint8_linear_1267_9797" x1="6.88843" y1="97.6553" x2="135.019" y2="39.2125" gradientUnits="userSpaceOnUse">
<stop stop-color="#F57A00"/>
<stop offset="1" stop-color="#7103A4"/>
</linearGradient>
<linearGradient id="paint9_linear_1267_9797" x1="74.4495" y1="17.7881" x2="97.3986" y2="-2.20997" gradientUnits="userSpaceOnUse">
<stop stop-color="#F57A00"/>
<stop offset="1" stop-color="#7103A4"/>
</linearGradient>
<linearGradient id="paint10_linear_1267_9797" x1="30.5161" y1="25.6085" x2="70.2362" y2="-0.569997" gradientUnits="userSpaceOnUse">
<stop stop-color="#F57A00"/>
<stop offset="1" stop-color="#7103A4"/>
</linearGradient>
<linearGradient id="paint11_linear_1267_9797" x1="8.75684" y1="76.9056" x2="38.9995" y2="64.035" gradientUnits="userSpaceOnUse">
<stop stop-color="#F57A00"/>
<stop offset="1" stop-color="#7103A4"/>
</linearGradient>
<linearGradient id="paint12_linear_1267_9797" x1="21.5442" y1="95.2144" x2="130.94" y2="47.0734" gradientUnits="userSpaceOnUse">
<stop stop-color="#F57A00"/>
<stop offset="1" stop-color="#7103A4"/>
</linearGradient>
<linearGradient id="paint13_linear_1267_9797" x1="100.17" y1="113.483" x2="126.068" y2="104.599" gradientUnits="userSpaceOnUse">
<stop stop-color="#F57A00"/>
<stop offset="1" stop-color="#7103A4"/>
</linearGradient>
<linearGradient id="paint14_linear_1267_9797" x1="103.242" y1="113.602" x2="125.778" y2="106.494" gradientUnits="userSpaceOnUse">
<stop stop-color="#F57A00"/>
<stop offset="1" stop-color="#7103A4"/>
</linearGradient>
<linearGradient id="paint15_linear_1267_9797" x1="1.7749" y1="170.29" x2="27.6728" y2="161.406" gradientUnits="userSpaceOnUse">
<stop stop-color="#F57A00"/>
<stop offset="1" stop-color="#7103A4"/>
</linearGradient>
<linearGradient id="paint16_linear_1267_9797" x1="4.84619" y1="170.409" x2="27.382" y2="163.301" gradientUnits="userSpaceOnUse">
<stop stop-color="#F57A00"/>
<stop offset="1" stop-color="#7103A4"/>
</linearGradient>
<linearGradient id="paint17_linear_1267_9797" x1="82.6074" y1="147.963" x2="108.512" y2="139.07" gradientUnits="userSpaceOnUse">
<stop stop-color="#F57A00"/>
<stop offset="1" stop-color="#7103A4"/>
</linearGradient>
<linearGradient id="paint18_linear_1267_9797" x1="85.6702" y1="148.095" x2="108.215" y2="140.98" gradientUnits="userSpaceOnUse">
<stop stop-color="#F57A00"/>
<stop offset="1" stop-color="#7103A4"/>
</linearGradient>
<linearGradient id="paint19_linear_1267_9797" x1="22.8333" y1="182.457" x2="48.7294" y2="173.571" gradientUnits="userSpaceOnUse">
<stop stop-color="#F57A00"/>
<stop offset="1" stop-color="#7103A4"/>
</linearGradient>
<linearGradient id="paint20_linear_1267_9797" x1="25.9304" y1="182.586" x2="48.4653" y2="175.476" gradientUnits="userSpaceOnUse">
<stop stop-color="#F57A00"/>
<stop offset="1" stop-color="#7103A4"/>
</linearGradient>
<linearGradient id="paint21_linear_1267_9797" x1="0.122559" y1="222.302" x2="25.7389" y2="214.922" gradientUnits="userSpaceOnUse">
<stop stop-color="#F57A00"/>
<stop offset="1" stop-color="#7103A4"/>
</linearGradient>
<linearGradient id="paint22_linear_1267_9797" x1="0.183105" y1="222.669" x2="4.4023" y2="222.381" gradientUnits="userSpaceOnUse">
<stop stop-color="#F57A00"/>
<stop offset="1" stop-color="#7103A4"/>
</linearGradient>
<linearGradient id="paint23_linear_1267_9797" x1="0.425293" y1="205.913" x2="18.6829" y2="193.071" gradientUnits="userSpaceOnUse">
<stop stop-color="#F57A00"/>
<stop offset="1" stop-color="#7103A4"/>
</linearGradient>
<linearGradient id="paint24_linear_1267_9797" x1="4.18848" y1="218.358" x2="22.5115" y2="212.635" gradientUnits="userSpaceOnUse">
<stop stop-color="#F57A00"/>
<stop offset="1" stop-color="#7103A4"/>
</linearGradient>
<linearGradient id="paint25_linear_1267_9797" x1="4.18848" y1="218.689" x2="5.86399" y2="218.615" gradientUnits="userSpaceOnUse">
<stop stop-color="#F57A00"/>
<stop offset="1" stop-color="#7103A4"/>
</linearGradient>
<linearGradient id="paint26_linear_1267_9797" x1="5.02759" y1="218.319" x2="22.3806" y2="213.044" gradientUnits="userSpaceOnUse">
<stop stop-color="#F57A00"/>
<stop offset="1" stop-color="#7103A4"/>
</linearGradient>
<linearGradient id="paint27_linear_1267_9797" x1="5.08862" y1="218.615" x2="19.7952" y2="210.89" gradientUnits="userSpaceOnUse">
<stop stop-color="#F57A00"/>
<stop offset="1" stop-color="#7103A4"/>
</linearGradient>
<linearGradient id="paint28_linear_1267_9797" x1="5.15771" y1="210.381" x2="19.6125" y2="202.542" gradientUnits="userSpaceOnUse">
<stop stop-color="#F57A00"/>
<stop offset="1" stop-color="#7103A4"/>
</linearGradient>
<linearGradient id="paint29_linear_1267_9797" x1="17.8318" y1="199.242" x2="25.2394" y2="196.831" gradientUnits="userSpaceOnUse">
<stop stop-color="#F57A00"/>
<stop offset="1" stop-color="#7103A4"/>
</linearGradient>
<linearGradient id="paint30_linear_1267_9797" x1="19.1821" y1="199.467" x2="25.8542" y2="197.364" gradientUnits="userSpaceOnUse">
<stop stop-color="#F57A00"/>
<stop offset="1" stop-color="#7103A4"/>
</linearGradient>
<linearGradient id="paint31_linear_1267_9797" x1="145.454" y1="116.384" x2="152.217" y2="115.084" gradientUnits="userSpaceOnUse">
<stop stop-color="#F57A00"/>
<stop offset="1" stop-color="#7103A4"/>
</linearGradient>
<linearGradient id="paint32_linear_1267_9797" x1="137.338" y1="115.474" x2="168.636" y2="106.789" gradientUnits="userSpaceOnUse">
<stop stop-color="#F57A00"/>
<stop offset="1" stop-color="#7103A4"/>
</linearGradient>
<linearGradient id="paint33_linear_1267_9797" x1="137.338" y1="115.899" x2="144.394" y2="115.289" gradientUnits="userSpaceOnUse">
<stop stop-color="#F57A00"/>
<stop offset="1" stop-color="#7103A4"/>
</linearGradient>
<linearGradient id="paint34_linear_1267_9797" x1="137.736" y1="94.277" x2="159.874" y2="78.7323" gradientUnits="userSpaceOnUse">
<stop stop-color="#F57A00"/>
<stop offset="1" stop-color="#7103A4"/>
</linearGradient>
<linearGradient id="paint35_linear_1267_9797" x1="159.245" y1="231.851" x2="169.455" y2="230.963" gradientUnits="userSpaceOnUse">
<stop stop-color="#F57A00"/>
<stop offset="1" stop-color="#7103A4"/>
</linearGradient>
<linearGradient id="paint36_linear_1267_9797" x1="208.023" y1="225.024" x2="219.277" y2="223.875" gradientUnits="userSpaceOnUse">
<stop stop-color="#F57A00"/>
<stop offset="1" stop-color="#7103A4"/>
</linearGradient>
<linearGradient id="paint37_linear_1267_9797" x1="208.006" y1="203.54" x2="214.333" y2="202.388" gradientUnits="userSpaceOnUse">
<stop stop-color="#F57A00"/>
<stop offset="1" stop-color="#7103A4"/>
</linearGradient>
<linearGradient id="paint38_linear_1267_9797" x1="181.73" y1="243.337" x2="190.658" y2="242.67" gradientUnits="userSpaceOnUse">
<stop stop-color="#F57A00"/>
<stop offset="1" stop-color="#7103A4"/>
</linearGradient>
<linearGradient id="paint39_linear_1267_9797" x1="184.525" y1="214.415" x2="189.344" y2="213.075" gradientUnits="userSpaceOnUse">
<stop stop-color="#F57A00"/>
<stop offset="1" stop-color="#7103A4"/>
</linearGradient>
<linearGradient id="paint40_linear_1267_9797" x1="189.656" y1="214.348" x2="200.909" y2="213.199" gradientUnits="userSpaceOnUse">
<stop stop-color="#F57A00"/>
<stop offset="1" stop-color="#7103A4"/>
</linearGradient>
<linearGradient id="paint41_linear_1267_9797" x1="161.832" y1="210.024" x2="231.869" y2="185.334" gradientUnits="userSpaceOnUse">
<stop stop-color="#F57A00"/>
<stop offset="1" stop-color="#7103A4"/>
</linearGradient>
<linearGradient id="paint42_linear_1267_9797" x1="161.906" y1="209.186" x2="210.994" y2="176.485" gradientUnits="userSpaceOnUse">
<stop stop-color="#F57A00"/>
<stop offset="1" stop-color="#7103A4"/>
</linearGradient>
<linearGradient id="paint43_linear_1267_9797" x1="199.233" y1="156.769" x2="216.427" y2="144.85" gradientUnits="userSpaceOnUse">
<stop stop-color="#F57A00"/>
<stop offset="1" stop-color="#7103A4"/>
</linearGradient>
<linearGradient id="paint44_linear_1267_9797" x1="186.688" y1="195.383" x2="226.41" y2="185.442" gradientUnits="userSpaceOnUse">
<stop stop-color="#F57A00"/>
<stop offset="1" stop-color="#7103A4"/>
</linearGradient>
<linearGradient id="paint45_linear_1267_9797" x1="132.931" y1="259.438" x2="156.485" y2="242.841" gradientUnits="userSpaceOnUse">
<stop stop-color="#F57A00"/>
<stop offset="1" stop-color="#7103A4"/>
</linearGradient>
<linearGradient id="paint46_linear_1267_9797" x1="143.939" y1="250.883" x2="148.874" y2="250.685" gradientUnits="userSpaceOnUse">
<stop stop-color="#F57A00"/>
<stop offset="1" stop-color="#7103A4"/>
</linearGradient>
<linearGradient id="paint47_linear_1267_9797" x1="103.822" y1="219.509" x2="180.897" y2="165.182" gradientUnits="userSpaceOnUse">
<stop stop-color="#F57A00"/>
<stop offset="1" stop-color="#7103A4"/>
</linearGradient>
</defs>
</svg>
