<svg width="320" height="321" viewBox="0 0 320 321" fill="none" xmlns="http://www.w3.org/2000/svg">
<path d="M107.687 209.571H100.027C99.9243 209.571 99.826 209.531 99.7537 209.458L86.0458 195.75C85.9733 195.678 85.9326 195.58 85.9326 195.477V178.745C85.9326 178.532 86.1057 178.359 86.3189 178.359C86.5323 178.359 86.7052 178.532 86.7052 178.745V195.317L100.187 208.799H107.687C107.9 208.799 108.073 208.972 108.073 209.185C108.073 209.398 107.9 209.571 107.687 209.571Z" fill="url(#paint0_linear_1266_4828)"/>
<path d="M169.322 95.2719C169.109 95.2719 168.936 95.099 168.936 94.8854V85.5204L157.218 73.8028H122.604C122.391 73.8028 122.218 73.6299 122.218 73.4163C122.218 73.2027 122.391 73.03 122.604 73.03H157.378C157.48 73.03 157.579 73.0707 157.651 73.1432L169.595 85.0873C169.668 85.1598 169.708 85.2579 169.708 85.3605V94.8856C169.708 95.099 169.535 95.2719 169.322 95.2719Z" fill="url(#paint1_linear_1266_4828)"/>
<path d="M25.4857 159.628C27.6831 161.923 30.0361 164.08 32.5314 166.069L69.0999 192.812L105.668 166.069C124.309 151.203 135.016 127.052 132.111 105.209L123.971 54.5012L69.1001 42.3936L14.2286 54.5013L6.08937 105.209C3.57227 124.128 11.268 144.779 25.4857 159.628Z" fill="url(#paint2_linear_1266_4828)"/>
<path d="M19.8753 161.912C22.0726 164.207 24.4256 166.363 26.921 168.353L63.4895 195.095L100.058 168.353C118.699 153.487 129.406 129.335 126.5 107.493L118.361 56.785L63.4895 44.6772L8.61802 56.785L0.47877 107.493C-2.03833 126.411 5.65759 147.063 19.8753 161.912Z" fill="white"/>
<path d="M109.778 65.4453L116.643 108.221C119.094 126.646 110.062 147.02 94.3374 159.561L63.4898 182.119L32.6411 159.561C16.9168 147.02 7.88418 126.646 10.3355 108.221L17.2017 65.4453L63.4898 55.2314L109.778 65.4453Z" fill="url(#paint3_linear_1266_4828)"/>
<path d="M62.2657 121.956H41.3538L36.6573 135.017H29.8696L48.9302 85.1028H54.6896L73.7845 135.017H67.031L62.2657 121.956ZM43.3421 116.573H60.3116L51.8098 93.2276L43.3421 116.573Z" fill="white"/>
<path d="M87.5656 135.017H80.9834V85.103H87.5656V135.017Z" fill="white"/>
<path d="M93.3711 110.605C93.2723 110.605 93.1733 110.568 93.0978 110.492C92.9469 110.341 92.9469 110.097 93.0978 109.946L106.053 96.9904C106.126 96.9179 106.224 96.8772 106.326 96.8772H118.01C118.224 96.8772 118.397 97.0501 118.397 97.2637C118.397 97.4773 118.224 97.65 118.01 97.65H106.486L93.6442 110.492C93.5687 110.568 93.4699 110.605 93.3711 110.605Z" fill="white"/>
<path d="M93.5303 122.051C93.4315 122.051 93.3325 122.013 93.257 121.937C93.1061 121.787 93.1061 121.542 93.257 121.391L104.543 110.105C104.616 110.032 104.714 109.992 104.816 109.992H119.6C119.813 109.992 119.986 110.165 119.986 110.378C119.986 110.591 119.813 110.764 119.6 110.764H104.977L93.8033 121.937C93.7279 122.013 93.6291 122.051 93.5303 122.051Z" fill="white"/>
<path d="M93.7689 161.155C93.5554 161.155 93.3826 160.983 93.3826 160.769V134.938C93.3826 134.835 93.4233 134.737 93.4958 134.665L107.882 120.278C107.954 120.206 108.053 120.165 108.155 120.165H118.647C118.86 120.165 119.033 120.338 119.033 120.551C119.033 120.765 118.86 120.938 118.647 120.938H108.315L94.1555 135.098V160.769C94.1551 160.983 93.9821 161.155 93.7689 161.155Z" fill="white"/>
<path d="M94.325 98.3652C94.1116 98.3652 93.9386 98.1923 93.9386 97.9788V77.4739L84.5141 68.0492C84.4416 67.9768 84.4009 67.8787 84.4009 67.776V57.9205C84.4009 57.7069 84.5739 57.5342 84.7873 57.5342C85.0008 57.5342 85.1736 57.7071 85.1736 57.9205V67.6161L94.5981 77.0408C94.6706 77.1132 94.7113 77.2113 94.7113 77.314V97.9789C94.7113 98.1925 94.5383 98.3652 94.325 98.3652Z" fill="white"/>
<path d="M100.524 88.5099C100.426 88.5099 100.327 88.4721 100.251 88.3967C100.1 88.2457 100.1 88.0012 100.251 87.8503L109.312 78.7895C109.463 78.6385 109.707 78.6385 109.858 78.7895C110.009 78.9404 110.009 79.1849 109.858 79.3358L100.798 88.3967C100.722 88.4721 100.623 88.5099 100.524 88.5099Z" fill="white"/>
<path d="M81.1311 77.5415C81.0323 77.5415 80.9333 77.5038 80.8579 77.4283L70.7638 67.3339C70.6914 67.2614 70.6506 67.1633 70.6506 67.0606V54.1055C70.6506 53.8919 70.8237 53.7192 71.0369 53.7192C71.2503 53.7192 71.4234 53.8921 71.4234 54.1055V66.9008L81.4042 76.882C81.5552 77.0329 81.5552 77.2774 81.4042 77.4283C81.3289 77.5038 81.2301 77.5415 81.1311 77.5415Z" fill="white"/>
<path d="M70.8779 97.2526C70.6645 97.2526 70.4916 97.0797 70.4916 96.8663V83.5942L60.1928 73.2954C60.1203 73.2229 60.0796 73.1248 60.0796 73.0221V53.4695C60.0796 53.2559 60.2526 53.0833 60.4659 53.0833C60.6793 53.0833 60.8523 53.2561 60.8523 53.4695V72.862L71.1512 83.1609C71.2237 83.2334 71.2644 83.3315 71.2644 83.4342V96.8663C71.2644 97.0799 71.0913 97.2526 70.8779 97.2526Z" fill="white"/>
<path d="M49.8157 74.9978C49.6023 74.9978 49.4294 74.8249 49.4294 74.6115V54.5823C49.4294 54.3687 49.6025 54.1958 49.8157 54.1958C50.0291 54.1958 50.202 54.3687 50.202 54.5823V74.6113C50.202 74.8249 50.029 74.9978 49.8157 74.9978Z" fill="white"/>
<path d="M29.2298 110.129C29.0164 110.129 28.8435 109.956 28.8435 109.742V91.5412C28.8435 91.4385 28.8842 91.3404 28.9567 91.2679L40.3683 79.8564V57.6028C40.3683 57.3892 40.5413 57.2163 40.7545 57.2163C40.9678 57.2163 41.141 57.3892 41.141 57.6028V80.0166C41.141 80.1193 41.1003 80.2174 41.0278 80.2897L29.6163 91.7012V109.742C29.6163 109.956 29.4432 110.129 29.2298 110.129Z" fill="white"/>
<path d="M17.5464 88.9867H7.69073C7.47732 88.9867 7.30444 88.8139 7.30444 88.6005C7.30444 88.387 7.4775 88.2142 7.69073 88.2142H17.3865L32.7721 72.8283C32.923 72.6774 33.1675 72.6774 33.3184 72.8283C33.4693 72.9792 33.4693 73.2237 33.3184 73.3746L17.8197 88.8737C17.7472 88.946 17.6489 88.9867 17.5464 88.9867Z" fill="white"/>
<path d="M5.22662 121.335C5.12781 121.335 5.029 121.298 4.95353 121.222C4.8026 121.071 4.8026 120.827 4.95353 120.676L18.9083 106.721V96.0718C18.9083 95.8582 19.0814 95.6853 19.2946 95.6853C19.508 95.6853 19.6809 95.8582 19.6809 96.0718V106.881C19.6809 106.984 19.6402 107.082 19.5677 107.154L5.49953 121.222C5.42441 121.298 5.32543 121.335 5.22662 121.335Z" fill="white"/>
<path d="M13.8902 144.782C13.6768 144.782 13.5039 144.61 13.5039 144.396V126.274C13.5039 126.172 13.5446 126.074 13.6171 126.001L24.2677 115.351C24.4186 115.2 24.6631 115.2 24.814 115.351C24.9649 115.501 24.9649 115.746 24.814 115.897L14.2767 126.434V144.396C14.2765 144.61 14.1034 144.782 13.8902 144.782Z" fill="white"/>
<path d="M21.8384 154.002C21.625 154.002 21.4519 153.829 21.4519 153.616V131.838C21.4519 131.624 21.625 131.452 21.8384 131.452C22.0518 131.452 22.2247 131.624 22.2247 131.838V153.616C22.2247 153.829 22.0518 154.002 21.8384 154.002Z" fill="white"/>
<path d="M101.319 153.525C101.106 153.525 100.933 153.352 100.933 153.139V137.878C100.933 137.776 100.974 137.677 101.046 137.605L109.471 129.18C109.622 129.029 109.867 129.029 110.018 129.18C110.168 129.331 110.168 129.576 110.018 129.727L101.706 138.038V153.139C101.706 153.352 101.533 153.525 101.319 153.525Z" fill="white"/>
<path d="M77.316 167.196C77.1026 167.196 76.9297 167.023 76.9297 166.809V158.385C76.9297 158.282 76.9704 158.184 77.0429 158.111L84.401 150.753V141.375C84.401 141.162 84.574 140.989 84.7874 140.989C85.0008 140.989 85.1737 141.162 85.1737 141.375V150.913C85.1737 151.016 85.133 151.114 85.0605 151.187L77.7024 158.545V166.809C77.7023 167.023 77.5294 167.196 77.316 167.196Z" fill="white"/>
<path d="M66.2683 168.945C66.0549 168.945 65.8818 168.772 65.8818 168.558V153.854C65.8818 153.751 65.9226 153.653 65.995 153.581L75.771 143.805C75.922 143.654 76.1665 143.654 76.3174 143.805C76.4683 143.956 76.4683 144.2 76.3174 144.351L66.6546 154.014V168.558C66.6548 168.772 66.4817 168.945 66.2683 168.945Z" fill="white"/>
<path d="M56.8101 168.627C56.5967 168.627 56.4238 168.454 56.4238 168.24V142.647C56.4238 142.434 56.5969 142.261 56.8101 142.261C57.0235 142.261 57.1966 142.434 57.1966 142.647V168.24C57.1966 168.454 57.0235 168.627 56.8101 168.627Z" fill="white"/>
<path d="M29.9454 160.043C29.732 160.043 29.5591 159.87 29.5591 159.656V148.688C29.5591 148.585 29.5998 148.487 29.6723 148.415L35.3948 142.692C35.4673 142.62 35.5656 142.579 35.6681 142.579H49.9746C50.188 142.579 50.3609 142.752 50.3609 142.965C50.3609 143.179 50.1878 143.352 49.9746 143.352H35.828L30.3318 148.848V159.656C30.3318 159.87 30.1588 160.043 29.9454 160.043Z" fill="white"/>
<path d="M49.0208 167.037C48.8074 167.037 48.6343 166.864 48.6343 166.651V157.114L44.4097 152.89H37.8934C37.68 152.89 37.5071 152.717 37.5071 152.503C37.5071 152.29 37.6801 152.117 37.8934 152.117H44.5696C44.6721 152.117 44.7704 152.158 44.8429 152.23L49.2939 156.681C49.3663 156.753 49.4071 156.852 49.4071 156.954V166.651C49.4071 166.864 49.2342 167.037 49.0208 167.037Z" fill="white"/>
<path d="M107.865 225.219H215.899V182.501H107.865V225.219Z" fill="url(#paint4_linear_1266_4828)"/>
<path d="M215.899 225.605H107.865C107.652 225.605 107.479 225.432 107.479 225.219V182.5C107.479 182.287 107.652 182.114 107.865 182.114H215.899C216.112 182.114 216.285 182.287 216.285 182.5V225.219C216.285 225.432 216.113 225.605 215.899 225.605ZM108.252 224.832H215.513V182.887H108.252V224.832Z" fill="white"/>
<path d="M118.467 219.552C118.254 219.552 118.081 219.379 118.081 219.165V189.044C118.081 188.83 118.254 188.657 118.467 188.657C118.68 188.657 118.853 188.83 118.853 189.044V219.165C118.853 219.379 118.68 219.552 118.467 219.552Z" fill="white"/>
<path d="M127.15 219.552C126.937 219.552 126.764 219.379 126.764 219.165V189.044C126.764 188.83 126.937 188.657 127.15 188.657C127.363 188.657 127.536 188.83 127.536 189.044V219.165C127.536 219.379 127.363 219.552 127.15 219.552Z" fill="white"/>
<path d="M135.833 219.552C135.619 219.552 135.446 219.379 135.446 219.165V189.044C135.446 188.83 135.619 188.657 135.833 188.657C136.046 188.657 136.219 188.83 136.219 189.044V219.165C136.219 219.379 136.046 219.552 135.833 219.552Z" fill="white"/>
<path d="M144.516 219.552C144.303 219.552 144.13 219.379 144.13 219.165V189.044C144.13 188.83 144.303 188.657 144.516 188.657C144.73 188.657 144.902 188.83 144.902 189.044V219.165C144.902 219.379 144.729 219.552 144.516 219.552Z" fill="white"/>
<path d="M153.199 219.552C152.986 219.552 152.812 219.379 152.812 219.165V189.044C152.812 188.83 152.986 188.657 153.199 188.657C153.412 188.657 153.585 188.83 153.585 189.044V219.165C153.585 219.379 153.412 219.552 153.199 219.552Z" fill="white"/>
<path d="M161.882 219.552C161.668 219.552 161.495 219.379 161.495 219.165V189.044C161.495 188.83 161.668 188.657 161.882 188.657C162.095 188.657 162.268 188.83 162.268 189.044V219.165C162.268 219.379 162.095 219.552 161.882 219.552Z" fill="white"/>
<path d="M170.565 219.552C170.352 219.552 170.178 219.379 170.178 219.165V189.044C170.178 188.83 170.352 188.657 170.565 188.657C170.778 188.657 170.951 188.83 170.951 189.044V219.165C170.951 219.379 170.778 219.552 170.565 219.552Z" fill="white"/>
<path d="M179.248 219.552C179.035 219.552 178.862 219.379 178.862 219.165V189.044C178.862 188.83 179.035 188.657 179.248 188.657C179.462 188.657 179.635 188.83 179.635 189.044V219.165C179.635 219.379 179.462 219.552 179.248 219.552Z" fill="white"/>
<path d="M187.931 219.552C187.718 219.552 187.545 219.379 187.545 219.165V189.044C187.545 188.83 187.718 188.657 187.931 188.657C188.145 188.657 188.318 188.83 188.318 189.044V219.165C188.318 219.379 188.144 219.552 187.931 219.552Z" fill="white"/>
<path d="M196.614 219.552C196.401 219.552 196.228 219.379 196.228 219.165V189.044C196.228 188.83 196.401 188.657 196.614 188.657C196.827 188.657 197 188.83 197 189.044V219.165C197 219.379 196.827 219.552 196.614 219.552Z" fill="white"/>
<path d="M205.297 219.552C205.084 219.552 204.911 219.379 204.911 219.165V189.044C204.911 188.83 205.084 188.657 205.297 188.657C205.51 188.657 205.683 188.83 205.683 189.044V219.165C205.684 219.379 205.511 219.552 205.297 219.552Z" fill="white"/>
<path d="M88.3775 300.995H227.114V225.209H88.3775V300.995Z" fill="url(#paint5_linear_1266_4828)"/>
<path d="M227.114 301.382H88.3777C88.1643 301.382 87.9915 301.209 87.9915 300.995V225.21C87.9915 224.996 88.1645 224.823 88.3777 224.823H227.114C227.328 224.823 227.501 224.996 227.501 225.21V300.995C227.501 301.209 227.328 301.382 227.114 301.382ZM88.7642 300.609H226.728V225.596H88.7642V300.609Z" fill="white"/>
<path d="M101.992 290.643C101.779 290.643 101.606 290.47 101.606 290.256V236.819C101.606 236.605 101.779 236.432 101.992 236.432C102.206 236.432 102.379 236.605 102.379 236.819V290.256C102.379 290.47 102.206 290.643 101.992 290.643Z" fill="white"/>
<path d="M113.143 290.643C112.93 290.643 112.757 290.47 112.757 290.256V236.819C112.757 236.605 112.93 236.432 113.143 236.432C113.356 236.432 113.529 236.605 113.529 236.819V290.256C113.529 290.47 113.356 290.643 113.143 290.643Z" fill="white"/>
<path d="M124.294 290.643C124.081 290.643 123.907 290.47 123.907 290.256V236.819C123.907 236.605 124.081 236.432 124.294 236.432C124.507 236.432 124.68 236.605 124.68 236.819V290.256C124.68 290.47 124.507 290.643 124.294 290.643Z" fill="white"/>
<path d="M135.445 290.643C135.231 290.643 135.058 290.47 135.058 290.256V236.819C135.058 236.605 135.231 236.432 135.445 236.432C135.658 236.432 135.831 236.605 135.831 236.819V290.256C135.831 290.47 135.658 290.643 135.445 290.643Z" fill="white"/>
<path d="M146.595 290.643C146.382 290.643 146.209 290.47 146.209 290.256V236.819C146.209 236.605 146.382 236.432 146.595 236.432C146.808 236.432 146.981 236.605 146.981 236.819V290.256C146.981 290.47 146.808 290.643 146.595 290.643Z" fill="white"/>
<path d="M157.746 290.643C157.532 290.643 157.359 290.47 157.359 290.256V236.819C157.359 236.605 157.532 236.432 157.746 236.432C157.959 236.432 158.132 236.605 158.132 236.819V290.256C158.132 290.47 157.959 290.643 157.746 290.643Z" fill="white"/>
<path d="M168.897 290.643C168.683 290.643 168.51 290.47 168.51 290.256V236.819C168.51 236.605 168.684 236.432 168.897 236.432C169.11 236.432 169.283 236.605 169.283 236.819V290.256C169.283 290.47 169.11 290.643 168.897 290.643Z" fill="white"/>
<path d="M180.047 290.643C179.834 290.643 179.661 290.47 179.661 290.256V236.819C179.661 236.605 179.834 236.432 180.047 236.432C180.261 236.432 180.434 236.605 180.434 236.819V290.256C180.434 290.47 180.261 290.643 180.047 290.643Z" fill="white"/>
<path d="M191.198 290.643C190.985 290.643 190.812 290.47 190.812 290.256V236.819C190.812 236.605 190.985 236.432 191.198 236.432C191.411 236.432 191.585 236.605 191.585 236.819V290.256C191.584 290.47 191.411 290.643 191.198 290.643Z" fill="white"/>
<path d="M202.349 290.643C202.135 290.643 201.962 290.47 201.962 290.256V236.819C201.962 236.605 202.135 236.432 202.349 236.432C202.562 236.432 202.735 236.605 202.735 236.819V290.256C202.735 290.47 202.562 290.643 202.349 290.643Z" fill="white"/>
<path d="M213.5 290.643C213.286 290.643 213.113 290.47 213.113 290.256V236.819C213.113 236.605 213.286 236.432 213.5 236.432C213.713 236.432 213.886 236.605 213.886 236.819V290.256C213.886 290.47 213.713 290.643 213.5 290.643Z" fill="white"/>
<path d="M145.863 292.437H242.187V239.776H145.863V292.437Z" fill="url(#paint6_linear_1266_4828)"/>
<path d="M242.187 292.823H145.863C145.649 292.823 145.476 292.65 145.476 292.437V239.775C145.476 239.562 145.649 239.389 145.863 239.389H242.187C242.4 239.389 242.573 239.562 242.573 239.775V292.437C242.573 292.65 242.4 292.823 242.187 292.823ZM146.249 292.051H241.8V240.162H146.249V292.051Z" fill="white"/>
<path d="M155.316 285.361C155.102 285.361 154.929 285.188 154.929 284.975V247.843C154.929 247.629 155.102 247.456 155.316 247.456C155.529 247.456 155.702 247.629 155.702 247.843V284.975C155.702 285.188 155.529 285.361 155.316 285.361Z" fill="white"/>
<path d="M163.057 285.361C162.844 285.361 162.671 285.188 162.671 284.975V247.843C162.671 247.629 162.844 247.456 163.057 247.456C163.271 247.456 163.443 247.629 163.443 247.843V284.975C163.443 285.188 163.271 285.361 163.057 285.361Z" fill="white"/>
<path d="M170.799 285.361C170.585 285.361 170.413 285.188 170.413 284.975V247.843C170.413 247.629 170.586 247.456 170.799 247.456C171.012 247.456 171.185 247.629 171.185 247.843V284.975C171.185 285.188 171.012 285.361 170.799 285.361Z" fill="white"/>
<path d="M178.541 285.361C178.328 285.361 178.155 285.188 178.155 284.975V247.843C178.155 247.629 178.328 247.456 178.541 247.456C178.754 247.456 178.927 247.629 178.927 247.843V284.975C178.927 285.188 178.754 285.361 178.541 285.361Z" fill="white"/>
<path d="M186.283 285.361C186.07 285.361 185.897 285.188 185.897 284.975V247.843C185.897 247.629 186.07 247.456 186.283 247.456C186.497 247.456 186.669 247.629 186.669 247.843V284.975C186.67 285.188 186.497 285.361 186.283 285.361Z" fill="white"/>
<path d="M194.024 285.361C193.811 285.361 193.638 285.188 193.638 284.975V247.843C193.638 247.629 193.811 247.456 194.024 247.456C194.238 247.456 194.411 247.629 194.411 247.843V284.975C194.411 285.188 194.238 285.361 194.024 285.361Z" fill="white"/>
<path d="M201.767 285.361C201.553 285.361 201.38 285.188 201.38 284.975V247.843C201.38 247.629 201.553 247.456 201.767 247.456C201.98 247.456 202.153 247.629 202.153 247.843V284.975C202.153 285.188 201.98 285.361 201.767 285.361Z" fill="white"/>
<path d="M209.509 285.361C209.295 285.361 209.122 285.188 209.122 284.975V247.843C209.122 247.629 209.295 247.456 209.509 247.456C209.722 247.456 209.895 247.629 209.895 247.843V284.975C209.895 285.188 209.722 285.361 209.509 285.361Z" fill="white"/>
<path d="M217.25 285.361C217.037 285.361 216.864 285.188 216.864 284.975V247.843C216.864 247.629 217.037 247.456 217.25 247.456C217.464 247.456 217.637 247.629 217.637 247.843V284.975C217.637 285.188 217.464 285.361 217.25 285.361Z" fill="white"/>
<path d="M224.992 285.361C224.779 285.361 224.606 285.188 224.606 284.975V247.843C224.606 247.629 224.779 247.456 224.992 247.456C225.206 247.456 225.379 247.629 225.379 247.843V284.975C225.379 285.188 225.206 285.361 224.992 285.361Z" fill="white"/>
<path d="M232.734 285.361C232.521 285.361 232.348 285.188 232.348 284.975V247.843C232.348 247.629 232.521 247.456 232.734 247.456C232.948 247.456 233.12 247.629 233.12 247.843V284.975C233.121 285.188 232.948 285.361 232.734 285.361Z" fill="white"/>
<path d="M238.996 292.441H306.967V262.822H238.996V292.441Z" fill="url(#paint7_linear_1266_4828)"/>
<path d="M252.14 262.822H298.288V249.858H252.14V262.822Z" fill="url(#paint8_linear_1266_4828)"/>
<path d="M135.233 281.597V281.764C135.233 287.66 140.013 292.441 145.91 292.441H260.699C266.595 292.441 271.376 287.66 271.376 281.764V281.597H319.823L314.345 296.819C309.14 311.279 295.22 320.946 279.604 320.946H132.582C112.89 320.946 94.1451 312.647 81.1052 298.155L66.2058 281.597H135.233Z" fill="url(#paint9_linear_1266_4828)"/>
<path d="M312.964 301.271C305.991 313.386 294.415 320.946 281.752 320.946H130.27C113.629 320.946 96.9773 314.114 84.3542 301.49L312.964 301.271Z" fill="url(#paint10_linear_1266_4828)"/>
<path d="M263.069 308.267C263.703 306.736 262.977 304.982 261.446 304.348C259.916 303.714 258.161 304.441 257.527 305.971C256.894 307.501 257.62 309.256 259.151 309.89C260.681 310.524 262.435 309.797 263.069 308.267Z" fill="white"/>
<path d="M246.814 310.006C248.426 309.625 249.424 308.01 249.043 306.398C248.663 304.786 247.047 303.788 245.435 304.168C243.823 304.549 242.825 306.164 243.206 307.777C243.586 309.389 245.202 310.387 246.814 310.006Z" fill="white"/>
<path d="M234.743 308.267C235.377 306.737 234.65 304.982 233.12 304.349C231.589 303.715 229.835 304.441 229.201 305.972C228.567 307.502 229.294 309.257 230.824 309.89C232.354 310.524 234.109 309.798 234.743 308.267Z" fill="white"/>
<path d="M220.58 308.268C221.214 306.737 220.487 304.983 218.957 304.349C217.427 303.715 215.672 304.442 215.038 305.972C214.404 307.502 215.131 309.257 216.661 309.891C218.192 310.525 219.946 309.798 220.58 308.268Z" fill="white"/>
<path d="M206.417 308.268C207.05 306.737 206.324 304.983 204.793 304.349C203.263 303.715 201.509 304.442 200.875 305.972C200.241 307.503 200.967 309.257 202.498 309.891C204.028 310.525 205.783 309.798 206.417 308.268Z" fill="white"/>
<path d="M191.588 309.239C192.759 308.068 192.759 306.169 191.588 304.998C190.416 303.827 188.517 303.827 187.346 304.998C186.175 306.169 186.175 308.068 187.346 309.239C188.517 310.411 190.416 310.411 191.588 309.239Z" fill="white"/>
<path d="M305.286 290.994C303.737 290.994 302.477 289.734 302.477 288.185C302.477 286.636 303.737 285.376 305.286 285.376C306.835 285.376 308.095 286.636 308.095 288.185C308.095 289.734 306.835 290.994 305.286 290.994ZM305.286 286.149C304.164 286.149 303.25 287.063 303.25 288.185C303.25 289.308 304.164 290.221 305.286 290.221C306.409 290.221 307.322 289.308 307.322 288.185C307.322 287.063 306.409 286.149 305.286 286.149Z" fill="white"/>
<path d="M293.956 290.994C292.407 290.994 291.147 289.734 291.147 288.185C291.147 286.636 292.407 285.376 293.956 285.376C295.505 285.376 296.765 286.636 296.765 288.185C296.765 289.734 295.505 290.994 293.956 290.994ZM293.956 286.149C292.833 286.149 291.92 287.063 291.92 288.185C291.92 289.308 292.833 290.221 293.956 290.221C295.079 290.221 295.992 289.308 295.992 288.185C295.992 287.063 295.079 286.149 293.956 286.149Z" fill="white"/>
<path d="M282.626 290.994C281.077 290.994 279.817 289.734 279.817 288.185C279.817 286.636 281.077 285.376 282.626 285.376C284.174 285.376 285.434 286.636 285.434 288.185C285.434 289.734 284.175 290.994 282.626 290.994ZM282.626 286.149C281.503 286.149 280.59 287.063 280.59 288.185C280.59 289.308 281.503 290.221 282.626 290.221C283.748 290.221 284.662 289.308 284.662 288.185C284.662 287.063 283.748 286.149 282.626 286.149Z" fill="white"/>
<path d="M212.88 171.427H165.85L151.111 190.304V94.2808H212.88V171.427Z" fill="url(#paint11_linear_1266_4828)"/>
<path d="M196.094 136.189L160.982 136.177C160.879 136.177 160.781 136.136 160.708 136.064C160.636 135.991 160.595 135.893 160.595 135.79L160.605 107.509C160.605 107.406 160.646 107.308 160.718 107.236C160.791 107.163 160.889 107.122 160.992 107.122H160.992L196.104 107.134C196.318 107.134 196.49 107.308 196.49 107.521L196.481 135.802C196.481 136.016 196.308 136.189 196.094 136.189ZM161.369 135.404L195.708 135.416L195.718 107.908L161.378 107.896L161.369 135.404Z" fill="#8C7BFF"/>
<path d="M196.094 136.189L160.982 136.177C160.879 136.177 160.781 136.136 160.708 136.064C160.636 135.991 160.595 135.893 160.595 135.79L160.605 107.509C160.605 107.406 160.646 107.308 160.718 107.236C160.791 107.163 160.889 107.122 160.992 107.122H160.992L196.104 107.134C196.318 107.134 196.49 107.308 196.49 107.521L196.481 135.802C196.481 136.016 196.308 136.189 196.094 136.189ZM161.369 135.404L195.708 135.416L195.718 107.908L161.378 107.896L161.369 135.404Z" fill="white"/>
<path d="M196.094 136.189C196.008 136.189 195.922 136.159 195.852 136.103L178.543 122.152L161.224 136.092C161.108 136.185 160.949 136.202 160.815 136.139C160.681 136.075 160.595 135.939 160.595 135.791L160.605 107.509C160.605 107.36 160.691 107.225 160.825 107.16C160.959 107.096 161.118 107.115 161.234 107.208L178.543 121.16L195.862 107.22C195.978 107.127 196.137 107.109 196.271 107.172C196.405 107.237 196.491 107.373 196.491 107.521L196.481 135.802C196.481 135.951 196.395 136.087 196.261 136.151C196.208 136.176 196.151 136.189 196.094 136.189ZM179.159 121.656L195.708 134.995L195.718 108.328L179.159 121.656ZM161.378 108.317L161.369 134.983L177.927 121.656L161.378 108.317Z" fill="white"/>
<path d="M198.016 148.999H158.627C157.385 148.999 156.379 147.992 156.379 146.75C156.379 145.508 157.386 144.502 158.627 144.502H198.016C199.258 144.502 200.265 145.509 200.265 146.75C200.265 147.993 199.258 148.999 198.016 148.999Z" fill="white"/>
<path d="M198.016 156.734H158.627C157.385 156.734 156.379 155.727 156.379 154.485C156.379 153.243 157.386 152.236 158.627 152.236H198.016C199.258 152.236 200.265 153.243 200.265 154.485C200.265 155.727 199.258 156.734 198.016 156.734Z" fill="white"/>
<path d="M198.016 164.4H158.627C157.385 164.4 156.379 163.393 156.379 162.152C156.379 160.91 157.386 159.903 158.627 159.903H198.016C199.258 159.903 200.265 160.91 200.265 162.152C200.265 163.394 199.258 164.4 198.016 164.4Z" fill="white"/>
<path d="M313.052 11.0401H269.815C269.602 11.0401 269.429 10.8672 269.429 10.6538C269.429 10.4402 269.602 10.2673 269.815 10.2673H313.052C313.265 10.2673 313.438 10.4402 313.438 10.6538C313.438 10.8674 313.265 11.0401 313.052 11.0401Z" fill="white"/>
<path d="M313.052 28.7417H269.815C269.602 28.7417 269.429 28.5689 269.429 28.3553C269.429 28.1417 269.602 27.969 269.815 27.969H313.052C313.265 27.969 313.438 28.1419 313.438 28.3553C313.438 28.5689 313.265 28.7417 313.052 28.7417Z" fill="white"/>
<path d="M319.62 19.8909H269.815C269.602 19.8909 269.429 19.718 269.429 19.5045C269.429 19.2909 269.602 19.1182 269.815 19.1182H319.62C319.833 19.1182 320.006 19.291 320.006 19.5045C320.006 19.718 319.833 19.8909 319.62 19.8909Z" fill="white"/>
<path d="M261.774 31.1008H234.028C233.814 31.1008 233.641 30.9279 233.641 30.7145V3.88989C233.641 3.6763 233.814 3.50342 234.028 3.50342H261.774C261.987 3.50342 262.16 3.6763 262.16 3.88989V30.7145C262.16 30.9281 261.987 31.1008 261.774 31.1008ZM234.414 30.3281H261.388V4.27617H234.414V30.3281Z" fill="white"/>
<path d="M249.041 33.8948L231.287 12.3693L236.132 8.38044L248.362 23.2075L262.554 0.709961L267.865 4.05457L249.041 33.8948Z" fill="#F57A00"/>
<path d="M261.774 72.4041H234.028C233.814 72.4041 233.641 72.2312 233.641 72.0176V45.1932C233.641 44.9796 233.814 44.8069 234.028 44.8069H261.774C261.987 44.8069 262.16 44.9798 262.16 45.1932V72.0178C262.16 72.2314 261.987 72.4041 261.774 72.4041ZM234.414 71.6313H261.388V45.5796H234.414V71.6313Z" fill="white"/>
<path d="M249.041 75.1977L231.287 53.6725L236.132 49.6834L248.362 64.5107L262.554 42.0129L267.865 45.3576L249.041 75.1977Z" fill="#F57A00"/>
<path d="M306.097 52.7876H269.915C269.702 52.7876 269.529 52.6148 269.529 52.4012C269.529 52.1876 269.702 52.0149 269.915 52.0149H306.097C306.31 52.0149 306.483 52.1878 306.483 52.4012C306.483 52.6146 306.31 52.7876 306.097 52.7876Z" fill="white"/>
<path d="M291.642 61.6382H270.154C269.94 61.6382 269.767 61.4654 269.767 61.2519C269.767 61.0383 269.94 60.8655 270.154 60.8655H291.642C291.855 60.8655 292.028 61.0383 292.028 61.2519C292.028 61.4654 291.855 61.6382 291.642 61.6382Z" fill="white"/>
<path d="M319 92.6825H269.815C269.602 92.6825 269.429 92.5096 269.429 92.2962C269.429 92.0826 269.602 91.9099 269.815 91.9099H319C319.213 91.9099 319.386 92.0828 319.386 92.2962C319.386 92.5096 319.213 92.6825 319 92.6825Z" fill="white"/>
<path d="M289.518 110.383H269.815C269.602 110.383 269.429 110.211 269.429 109.997C269.429 109.784 269.602 109.611 269.815 109.611H289.518C289.731 109.611 289.904 109.784 289.904 109.997C289.904 110.211 289.731 110.383 289.518 110.383Z" fill="white"/>
<path d="M319.62 101.533H269.815C269.602 101.533 269.429 101.36 269.429 101.147C269.429 100.933 269.602 100.76 269.815 100.76H319.62C319.833 100.76 320.006 100.933 320.006 101.147C320.006 101.36 319.833 101.533 319.62 101.533Z" fill="white"/>
<path d="M261.774 112.743H234.028C233.814 112.743 233.641 112.571 233.641 112.357V85.5325C233.641 85.3189 233.814 85.146 234.028 85.146H261.774C261.987 85.146 262.16 85.3189 262.16 85.5325V112.357C262.16 112.571 261.987 112.743 261.774 112.743ZM234.414 111.971H261.388V85.9188H234.414V111.971Z" fill="white"/>
<path d="M249.041 115.537L231.287 94.0117L236.132 90.0228L248.362 104.85L262.554 82.3523L267.865 85.6969L249.041 115.537Z" fill="#F57A00"/>
<path d="M261.774 154.046H234.028C233.814 154.046 233.641 153.873 233.641 153.66V126.835C233.641 126.621 233.814 126.448 234.028 126.448H261.774C261.987 126.448 262.16 126.621 262.16 126.835V153.66C262.16 153.873 261.987 154.046 261.774 154.046ZM234.414 153.273H261.388V127.221H234.414V153.273Z" fill="white"/>
<path d="M249.041 156.84L231.287 135.314L236.132 131.325L248.362 146.153L262.554 123.655L267.865 126.999L249.041 156.84Z" fill="#F57A00"/>
<path d="M311.289 134.43H269.915C269.702 134.43 269.529 134.257 269.529 134.044C269.529 133.83 269.702 133.657 269.915 133.657H311.289C311.502 133.657 311.675 133.83 311.675 134.044C311.675 134.257 311.502 134.43 311.289 134.43Z" fill="white"/>
<path d="M291.642 143.281H270.154C269.94 143.281 269.767 143.108 269.767 142.895C269.767 142.681 269.94 142.508 270.154 142.508H291.642C291.855 142.508 292.028 142.681 292.028 142.895C292.028 143.108 291.855 143.281 291.642 143.281Z" fill="white"/>
<defs>
<linearGradient id="paint0_linear_1266_4828" x1="88.2117" y1="183.524" x2="108.724" y2="200.495" gradientUnits="userSpaceOnUse">
<stop stop-color="#F57A00"/>
<stop offset="1" stop-color="#7103A4"/>
</linearGradient>
<linearGradient id="paint1_linear_1266_4828" x1="127.107" y1="76.7104" x2="137.398" y2="102.339" gradientUnits="userSpaceOnUse">
<stop stop-color="#F57A00"/>
<stop offset="1" stop-color="#7103A4"/>
</linearGradient>
<linearGradient id="paint2_linear_1266_4828" x1="18.6863" y1="67.2833" x2="119.31" y2="166.346" gradientUnits="userSpaceOnUse">
<stop stop-color="#F57A00"/>
<stop offset="1" stop-color="#7103A4"/>
</linearGradient>
<linearGradient id="paint3_linear_1266_4828" x1="69.0016" y1="76.2274" x2="136.277" y2="109.343" gradientUnits="userSpaceOnUse">
<stop stop-color="#F57A00"/>
<stop offset="1" stop-color="#7103A4"/>
</linearGradient>
<linearGradient id="paint4_linear_1266_4828" x1="204.778" y1="218.15" x2="187.397" y2="166.883" gradientUnits="userSpaceOnUse">
<stop stop-color="#F57A00"/>
<stop offset="1" stop-color="#7103A4"/>
</linearGradient>
<linearGradient id="paint5_linear_1266_4828" x1="212.833" y1="288.455" x2="173.883" y2="205.29" gradientUnits="userSpaceOnUse">
<stop stop-color="#F57A00"/>
<stop offset="1" stop-color="#7103A4"/>
</linearGradient>
<linearGradient id="paint6_linear_1266_4828" x1="232.272" y1="283.723" x2="205.191" y2="225.952" gradientUnits="userSpaceOnUse">
<stop stop-color="#F57A00"/>
<stop offset="1" stop-color="#7103A4"/>
</linearGradient>
<linearGradient id="paint7_linear_1266_4828" x1="299.971" y1="287.54" x2="286.977" y2="252.762" gradientUnits="userSpaceOnUse">
<stop stop-color="#F57A00"/>
<stop offset="1" stop-color="#7103A4"/>
</linearGradient>
<linearGradient id="paint8_linear_1266_4828" x1="293.538" y1="260.677" x2="289.589" y2="244.281" gradientUnits="userSpaceOnUse">
<stop stop-color="#F57A00"/>
<stop offset="1" stop-color="#7103A4"/>
</linearGradient>
<linearGradient id="paint9_linear_1266_4828" x1="92.3122" y1="288.108" x2="99.1945" y2="339.845" gradientUnits="userSpaceOnUse">
<stop stop-color="#F57A00"/>
<stop offset="1" stop-color="#7103A4"/>
</linearGradient>
<linearGradient id="paint10_linear_1266_4828" x1="108.488" y1="304.527" x2="110.426" y2="330.71" gradientUnits="userSpaceOnUse">
<stop stop-color="#F57A00"/>
<stop offset="1" stop-color="#7103A4"/>
</linearGradient>
<linearGradient id="paint11_linear_1266_4828" x1="157.469" y1="110.17" x2="219.149" y2="156.446" gradientUnits="userSpaceOnUse">
<stop stop-color="#F57A00"/>
<stop offset="1" stop-color="#7103A4"/>
</linearGradient>
</defs>
</svg>
