<svg width="224" height="134" viewBox="0 0 224 134" fill="none" xmlns="http://www.w3.org/2000/svg">
<path d="M168.828 126.596H54.7217V54.3687C54.7217 52.1324 56.5346 50.3199 58.7704 50.3199H164.779C167.015 50.3199 168.828 52.1328 168.828 54.3687L168.828 126.596Z" fill="#99A3B0"/>
<path d="M55.9363 125.382V54.3688C55.9363 52.8059 57.2075 51.5347 58.7704 51.5347H164.779C166.341 51.5347 167.613 52.8059 167.613 54.3688V125.381H55.9363V125.382Z" fill="#373737"/>
<path d="M163.16 120.928V55.9885L60.3901 55.9885L60.3901 120.928L163.16 120.928Z" fill="url(#paint0_linear_1267_6808)"/>
<path d="M177.672 126.596H45.877V130.072H177.672V126.596Z" fill="#C7D2D7"/>
<path d="M171.473 133.548H52.0767C49.5463 133.548 47.1978 132.231 45.8774 130.073H177.673C176.352 132.231 174.004 133.548 171.473 133.548Z" fill="#99A3B0"/>
<path d="M120.429 128.334H103.122C102.162 128.334 101.383 127.556 101.383 126.596H122.167C122.167 127.556 121.389 128.334 120.429 128.334Z" fill="#AAB4BF"/>
<path d="M120.193 79.2352H103.357V85.901H120.193V79.2352Z" fill="#F57A00"/>
<path d="M109.129 82.8903V81.6061H102.269V82.8903V83.5989V97.6809H121.281V82.8903H109.129Z" fill="#7103A4"/>
<path d="M71.9958 61.8568H68.959V63.4763H71.9958V61.8568Z" fill="white"/>
<path d="M89.3043 61.8568H75.0322V63.4763H89.3043V61.8568Z" fill="white"/>
<path d="M67.6938 61.8568H66.6309V63.4763H67.6938V61.8568Z" fill="white"/>
<path d="M71.9958 66.3104H68.959V67.9299H71.9958V66.3104Z" fill="white"/>
<path d="M89.3043 66.3104H75.0322V67.9299H89.3043V66.3104Z" fill="white"/>
<path d="M67.6938 66.3104H66.6309V67.9299H67.6938V66.3104Z" fill="white"/>
<path d="M71.9958 70.7642H68.959V72.3837H71.9958V70.7642Z" fill="white"/>
<path d="M89.3043 70.7642H75.0322V72.3837H89.3043V70.7642Z" fill="white"/>
<path d="M67.6938 70.7642H66.6309V72.3837H67.6938V70.7642Z" fill="white"/>
<path d="M71.9958 75.2177H68.959V76.8371H71.9958V75.2177Z" fill="white"/>
<path d="M89.3043 75.2177H75.0322V76.8371H89.3043V75.2177Z" fill="white"/>
<path d="M67.6938 75.2177H66.6309V76.8371H67.6938V75.2177Z" fill="white"/>
<path d="M71.9957 79.6713H64.8091V81.2908H71.9957V79.6713Z" fill="white"/>
<path d="M93.3531 79.6713H75.0322V81.2908H93.3531V79.6713Z" fill="white"/>
<path d="M71.9956 84.1248H67.6936V85.7442H71.9956V84.1248Z" fill="white"/>
<path d="M95.3097 84.1248H75.0322V85.7442H95.3097V84.1248Z" fill="white"/>
<path d="M134.128 92.1726H131.091V93.7921H134.128V92.1726Z" fill="white"/>
<path d="M151.436 92.1726H137.164V93.7921H151.436V92.1726Z" fill="white"/>
<path d="M129.826 92.1726H128.763V93.7921H129.826V92.1726Z" fill="white"/>
<path d="M134.128 96.6263H131.091V98.2458H134.128V96.6263Z" fill="white"/>
<path d="M145.245 96.6263H137.164V98.2458H145.245V96.6263Z" fill="white"/>
<path d="M129.826 96.6263H128.763V98.2458H129.826V96.6263Z" fill="white"/>
<path d="M134.128 101.08H131.091V102.699H134.128V101.08Z" fill="white"/>
<path d="M154.793 101.08H137.164V102.699H154.793V101.08Z" fill="white"/>
<path d="M129.826 101.08H128.763V102.699H129.826V101.08Z" fill="white"/>
<path d="M134.128 105.534H131.091V107.153H134.128V105.534Z" fill="white"/>
<path d="M148.888 105.534H137.164V107.153H148.888V105.534Z" fill="white"/>
<path d="M129.826 105.534H128.763V107.153H129.826V105.534Z" fill="white"/>
<path d="M71.9958 93.032H68.959V94.6515H71.9958V93.032Z" fill="white"/>
<path d="M89.3043 93.032H75.0322V94.6515H89.3043V93.032Z" fill="white"/>
<path d="M67.6938 93.032H66.6309V94.6515H67.6938V93.032Z" fill="white"/>
<path d="M71.9958 97.4861H64.4043V99.1056H71.9958V97.4861Z" fill="white"/>
<path d="M91.7336 97.4861H75.0322V99.1056H91.7336V97.4861Z" fill="white"/>
<path d="M71.9958 106.393H68.959V108.013H71.9958V106.393Z" fill="white"/>
<path d="M89.3043 106.393H75.0322V108.013H89.3043V106.393Z" fill="white"/>
<path d="M67.6938 106.393H66.6309V108.013H67.6938V106.393Z" fill="white"/>
<path d="M71.9958 110.847H68.959V112.466H71.9958V110.847Z" fill="white"/>
<path d="M89.3043 110.847H75.0322V112.466H89.3043V110.847Z" fill="white"/>
<path d="M67.6938 110.847H66.6309V112.466H67.6938V110.847Z" fill="white"/>
<path d="M71.9958 115.301H68.959V116.92H71.9958V115.301Z" fill="white"/>
<path d="M89.3043 115.301H75.0322V116.92H89.3043V115.301Z" fill="white"/>
<path d="M67.6938 115.301H66.6309V116.92H67.6938V115.301Z" fill="white"/>
<path d="M130.07 64.9028H126.427V66.5223H130.07V64.9028Z" fill="white"/>
<path d="M151.782 64.9028H132.601V66.5223H151.782V64.9028Z" fill="white"/>
<path d="M155.932 64.9028H153.655V66.5223H155.932V64.9028Z" fill="white"/>
<path d="M130.07 69.4482H126.427V71.0677H130.07V69.4482Z" fill="white"/>
<path d="M151.782 69.4482H132.601V71.0677H151.782V69.4482Z" fill="white"/>
<path d="M155.932 69.4482H153.655V71.0677H155.932V69.4482Z" fill="white"/>
<path d="M130.07 73.9928H126.427V75.6123H130.07V73.9928Z" fill="white"/>
<path d="M145.683 73.9928H132.601V75.6123H145.683V73.9928Z" fill="white"/>
<path d="M130.07 78.5378H126.427V80.1573H130.07V78.5378Z" fill="white"/>
<path d="M142.191 78.5378H132.601V80.1573H142.191V78.5378Z" fill="white"/>
<path d="M94.3648 61.3679H93.96V76.0273H94.3648V61.3679Z" fill="white"/>
<path d="M107.929 87.3637H107.524V74.3994H103.282L99.3422 70.4602H96.491V70.0553H99.5101L103.449 73.9946H107.929V87.3637Z" fill="white"/>
<path d="M99.2064 95.8661H94.1628V95.4617H99.0389L102.978 91.522H107.726V91.9273H103.146L99.2064 95.8661Z" fill="white"/>
<path d="M102.192 111.859H93.7578V111.454H102.025L111.733 101.746V94.5171H112.138V101.914L102.192 111.859Z" fill="white"/>
<path d="M115.436 86.6889H115.031V75.6229L120.598 70.0553H123.246V70.4602H120.766L115.436 75.7903V86.6889Z" fill="white"/>
<path d="M126.426 101.332H122.083L116.431 95.6802V91.7247H116.836V95.5124L122.251 100.927H126.426V101.332Z" fill="white"/>
<path d="M126.629 90.3329H126.224V86.2842H130.467V86.6891H126.629V90.3329Z" fill="white"/>
<path d="M157.324 112.972H148.889V112.568H156.919V105.685H157.324V112.972Z" fill="white"/>
<path d="M147.809 86.2842H135.156V86.6891H147.809V86.2842Z" fill="white"/>
<path d="M154.793 86.2842H151.858V86.6891H154.793V86.2842Z" fill="white"/>
<path d="M101.634 60.4166C95.8883 58.1793 91.0111 54.3063 87.5307 49.216C84.0503 44.1261 82.2106 38.1763 82.2106 32.01V17.4058C82.2106 16.9188 82.5417 16.501 83.0161 16.3899L91.5233 14.3958V7.12601C91.5233 6.60778 91.9102 6.16336 92.4239 6.09221L111.775 3.4158V0.0625L91.9692 2.80206C89.8099 3.10075 88.2019 4.94653 88.2019 7.12639V11.7623L82.2582 13.1553C80.2846 13.618 78.8889 15.3782 78.8889 17.4055V32.0096C78.8889 45.9464 87.4417 58.4548 100.429 63.5116L111.775 67.9299V64.365L101.634 60.4166Z" fill="#7103A4"/>
<path d="M141.291 13.1557L135.347 11.7627V7.12601C135.347 4.94615 133.739 3.10037 131.58 2.80168L111.775 0.0625V3.4158L131.125 6.09221C131.639 6.16336 132.026 6.6074 132.026 7.12601V14.3958L140.533 16.3899C141.008 16.501 141.339 16.9188 141.339 17.4058V32.01C141.339 38.1763 139.499 44.1261 136.019 49.216C132.538 54.3063 127.662 58.1793 121.915 60.4166L111.775 64.365V67.9299L123.121 63.512C136.108 58.4552 144.66 45.9468 144.66 32.01V17.4058C144.66 15.3786 143.265 13.618 141.291 13.1557Z" fill="#B936FF"/>
<path d="M91.5238 7.12622V14.396L83.0167 16.3901C82.5426 16.5012 82.2112 16.919 82.2112 17.4061V32.0102C82.2112 38.1765 84.0509 44.1263 87.5313 49.2162C91.0117 54.3065 95.8885 58.1796 101.635 60.4169L111.775 64.3653V62.583V5.09248V3.41602L92.4244 6.09242C91.9108 6.16357 91.5238 6.60799 91.5238 7.12622Z" fill="#B936FF"/>
<path d="M111.775 62.583V64.3653L121.916 60.4169C127.662 58.1795 132.539 54.3065 136.019 49.2162C139.499 44.1263 141.339 38.1765 141.339 32.0102V17.4061C141.339 16.919 141.008 16.5012 140.533 16.3901L132.026 14.396V7.12622C132.026 6.60799 131.639 6.16357 131.126 6.09242L111.775 3.41602V5.09248V62.583Z" fill="#7103A4"/>
<path d="M126.225 29.5791H97.3252V48.8455H126.225V29.5791Z" fill="#D6F7EE"/>
<path d="M104.633 26.704H100.979V29.579H104.633V26.704Z" fill="#9DD3E4"/>
<path d="M122.072 26.704H118.418V29.579H122.072V26.704Z" fill="#9DD3E4"/>
<path d="M122.072 23.8489C122.072 18.0334 117.341 13.3024 111.526 13.3024C105.71 13.3024 100.979 18.0338 100.979 23.8489V26.7042H104.633V23.8489C104.633 20.0485 107.725 16.9563 111.526 16.9563C115.326 16.9563 118.418 20.0482 118.418 23.8489V26.7042H122.072V23.8489Z" fill="#D6F7EE"/>
<path d="M114.272 36.6655C114.272 35.2866 113.154 34.1683 111.775 34.1683C110.396 34.1683 109.278 35.2862 109.278 36.6655C109.278 37.5437 109.732 38.3146 110.418 38.7598L109.278 44.2556H114.272L113.132 38.7598C113.818 38.3146 114.272 37.5437 114.272 36.6655Z" fill="#252735"/>
<path opacity="0.6" d="M212.428 66.6475H144.408C143.067 66.6475 141.979 65.56 141.979 64.2183V41.545C141.979 40.2033 143.067 39.1157 144.408 39.1157H212.428C213.77 39.1157 214.857 40.2033 214.857 41.545V64.2183C214.857 65.56 213.77 66.6475 212.428 66.6475Z" fill="url(#paint1_linear_1267_6808)"/>
<g opacity="0.7">
<path d="M150.797 43.0634H148.443V44.6828H150.797V43.0634Z" fill="white"/>
<path d="M171.48 43.0634H152.644V44.6828H171.48V43.0634Z" fill="white"/>
<path d="M150.797 46.6738H148.443V48.2933H150.797V46.6738Z" fill="white"/>
<path d="M171.48 46.6738H152.644V48.2933H171.48V46.6738Z" fill="white"/>
<path d="M177.824 50.2839H152.644V51.9034H177.824V50.2839Z" fill="white"/>
<path d="M208.392 43.1649H183.424V45.999H208.392V43.1649Z" fill="white"/>
<path d="M208.392 48.0233H183.424V50.8574H208.392V48.0233Z" fill="white"/>
<path d="M152.644 57.5418C152.644 58.7017 151.704 59.6423 150.544 59.6423C149.384 59.6423 148.443 58.7017 148.443 57.5418C148.443 56.3819 149.384 55.4414 150.544 55.4414C151.704 55.4414 152.644 56.3819 152.644 57.5418Z" fill="#7103A4"/>
<path d="M159.527 57.5418C159.527 58.7017 158.587 59.6423 157.427 59.6423C156.267 59.6423 155.326 58.7017 155.326 57.5418C155.326 56.3819 156.267 55.4414 157.427 55.4414C158.587 55.4414 159.527 56.3819 159.527 57.5418Z" fill="#7103A4"/>
<path d="M166.41 57.5418C166.41 58.7017 165.469 59.6423 164.309 59.6423C163.15 59.6423 162.209 58.7017 162.209 57.5418C162.209 56.3819 163.15 55.4414 164.309 55.4414C165.47 55.4414 166.41 56.3819 166.41 57.5418Z" fill="#7103A4"/>
<path d="M152.644 61.681H148.443V63.3005H152.644V61.681Z" fill="white"/>
<path d="M159.527 61.681H155.327V63.3005H159.527V61.681Z" fill="white"/>
<path d="M166.41 61.681H162.209V63.3005H166.41V61.681Z" fill="white"/>
<path d="M173.292 61.681H169.092V63.3005H173.292V61.681Z" fill="white"/>
<path d="M180.175 61.681H175.975V63.3005H180.175V61.681Z" fill="white"/>
<path d="M202.926 55.3783H192.871V56.9978H202.926V55.3783Z" fill="white"/>
<path d="M202.926 58.4828H192.871V60.1023H202.926V58.4828Z" fill="white"/>
<path d="M202.926 61.5869H192.871V63.2064H202.926V61.5869Z" fill="white"/>
</g>
<path opacity="0.6" d="M221.121 113.735H158.162C156.821 113.735 155.733 112.648 155.733 111.306V88.6326C155.733 87.2909 156.821 86.2034 158.162 86.2034H221.121C222.463 86.2034 223.55 87.2909 223.55 88.6326V111.306C223.55 112.648 222.463 113.735 221.121 113.735Z" fill="url(#paint2_linear_1267_6808)"/>
<g opacity="0.7">
<path d="M176.764 108.12H168.613V107.715H176.359V99.9695H176.764V108.12Z" fill="white"/>
<path d="M160.868 99.9697H160.463V91.8193H168.613V92.2242H160.868V99.9697Z" fill="white"/>
<path d="M172.918 95.6658H164.31V104.274H172.918V95.6658Z" fill="white"/>
<path d="M192.131 91.0791H182.286V92.6986H192.131V91.0791Z" fill="white"/>
<path d="M202.995 94.1831H182.286V95.8026H202.995V94.1831Z" fill="white"/>
<path d="M202.995 97.2871H182.286V98.9066H202.995V97.2871Z" fill="white"/>
<path d="M197.732 100.392H182.286V102.011H197.732V100.392Z" fill="white"/>
<path d="M184.708 104.575H182.286V105.789H184.708V104.575Z" fill="white"/>
<path d="M195.91 104.575H186.538V105.789H195.91V104.575Z" fill="white"/>
<path d="M205.965 104.575H198.009V105.789H205.965V104.575Z" fill="white"/>
<path d="M184.708 107.443H182.286V108.657H184.708V107.443Z" fill="white"/>
<path d="M195.91 107.443H186.538V108.657H195.91V107.443Z" fill="white"/>
<path d="M202.996 107.443H198.009V108.657H202.996V107.443Z" fill="white"/>
<path d="M209.406 90.151H209.001V109.788H209.406V90.151Z" fill="white"/>
<path d="M212.679 91.4033H211.396V92.2131H212.679V91.4033Z" fill="white"/>
<path d="M218.819 91.4033H214.23V92.2131H218.819V91.4033Z" fill="white"/>
<path d="M212.679 93.2172H211.396V94.0269H212.679V93.2172Z" fill="white"/>
<path d="M218.819 93.2172H214.23V94.0269H218.819V93.2172Z" fill="white"/>
<path d="M212.679 95.0309H211.396V95.8406H212.679V95.0309Z" fill="white"/>
<path d="M218.819 95.0309H214.23V95.8406H218.819V95.0309Z" fill="white"/>
<path d="M212.679 98.6576H211.396V99.4673H212.679V98.6576Z" fill="white"/>
<path d="M218.819 98.6576H214.23V99.4673H218.819V98.6576Z" fill="white"/>
<path d="M212.679 100.471H211.396V101.281H212.679V100.471Z" fill="white"/>
<path d="M218.819 100.471H214.23V101.281H218.819V100.471Z" fill="white"/>
<path d="M212.679 102.285H211.396V103.095H212.679V102.285Z" fill="white"/>
<path d="M218.819 102.285H214.23V103.095H218.819V102.285Z" fill="white"/>
<path d="M212.679 105.912H211.396V106.722H212.679V105.912Z" fill="white"/>
<path d="M218.819 105.912H214.23V106.722H218.819V105.912Z" fill="white"/>
<path d="M212.679 107.725H211.396V108.535H212.679V107.725Z" fill="white"/>
<path d="M218.819 107.725H214.23V108.535H218.819V107.725Z" fill="white"/>
</g>
<path opacity="0.6" d="M12.6215 79.5497H68.2366C69.7346 79.5497 70.9492 78.3351 70.9492 76.8371V46.6335C70.9492 45.1355 69.7346 43.9209 68.2366 43.9209H12.6215C11.1236 43.9209 9.90894 45.1355 9.90894 46.6335V76.8371C9.90847 78.3351 11.1231 79.5497 12.6215 79.5497Z" fill="url(#paint3_linear_1267_6808)"/>
<g opacity="0.8">
<path d="M25.1361 60.4404C27.4648 60.4404 29.3527 58.5526 29.3527 56.2238C29.3527 53.895 27.4648 52.0072 25.1361 52.0072C22.8073 52.0072 20.9194 53.895 20.9194 56.2238C20.9194 58.5526 22.8073 60.4404 25.1361 60.4404Z" fill="white"/>
<path d="M31.4117 71.3373H18.8606V67.9972C18.8606 64.5314 21.6701 61.7214 25.1364 61.7214C28.6021 61.7214 31.4121 64.531 31.4121 67.9972L31.4117 71.3373Z" fill="white"/>
<path d="M16.6334 58.3479H16.2285V49.6429H24.3937V50.0478H16.6334V58.3479Z" fill="white"/>
<path d="M33.8752 74.0707H25.7104V73.6658H33.4703V65.3657H33.8752V74.0707Z" fill="white"/>
<path d="M22.2014 73.6658H16.4312V74.0707H22.2014V73.6658Z" fill="white"/>
<path d="M33.8753 52.0073H33.4704V50.0478H27.8699V49.6429H33.8753V52.0073Z" fill="white"/>
<path d="M33.8751 54.8385H33.4702V57.2005H33.8751V54.8385Z" fill="white"/>
<path d="M51.6577 49.8451H38.1267V51.4646H51.6577V49.8451Z" fill="white"/>
<path d="M64.6294 53.7589H38.1267V55.3784H64.6294V53.7589Z" fill="white"/>
<path d="M57.696 56.9978H38.1267V58.6173H57.696V56.9978Z" fill="white"/>
<path d="M39.9489 61.8568H38.1267V63.4763H39.9489V61.8568Z" fill="#7103A4"/>
<path d="M50.8126 61.8568H41.9392V63.4763H50.8126V61.8568Z" fill="white"/>
<path d="M39.9489 65.163H38.1267V66.7825H39.9489V65.163Z" fill="#7103A4"/>
<path d="M54.5241 65.163H41.9392V66.7825H54.5241V65.163Z" fill="white"/>
<path d="M39.9489 68.4692H38.1267V70.0887H39.9489V68.4692Z" fill="#7103A4"/>
<path d="M61.2048 68.4692H41.9392V70.0887H61.2048V68.4692Z" fill="white"/>
<path d="M39.9489 71.7759H38.1267V73.3954H39.9489V71.7759Z" fill="#7103A4"/>
<path d="M57.3258 71.7759H41.9392V73.3954H57.3258V71.7759Z" fill="white"/>
</g>
<path opacity="0.6" d="M2.42924 117.713H60.3942C61.7359 117.713 62.8235 116.626 62.8235 115.284V99.0215C62.8235 97.6798 61.7359 96.5923 60.3942 96.5923H2.42924C1.08755 96.5923 0 97.6798 0 99.0215V115.284C0 116.626 1.08755 117.713 2.42924 117.713Z" fill="url(#paint4_linear_1267_6808)"/>
<g opacity="0.8">
<path d="M12.5849 100.826H4.89233V108.519H12.5849V100.826Z" fill="white"/>
<path d="M23.449 100.084H20.1423V101.704H23.449V100.084Z" fill="white"/>
<path d="M35.5276 100.084H26.2156V101.704H35.5276V100.084Z" fill="white"/>
<path d="M57.9312 100.084H51.9087V101.704H57.9312V100.084Z" fill="#7103A4"/>
<path d="M57.9312 103.188H51.9087V104.807H57.9312V103.188Z" fill="#7103A4"/>
<path d="M57.9312 106.292H51.9087V107.912H57.9312V106.292Z" fill="#7103A4"/>
<path d="M57.9312 109.396H51.9087V111.016H57.9312V109.396Z" fill="#7103A4"/>
<path d="M57.9312 112.5H51.9087V114.119H57.9312V112.5Z" fill="#7103A4"/>
<path d="M41.1429 103.188H20.1423V104.807H41.1429V103.188Z" fill="white"/>
<path d="M36.641 106.359H20.1423V107.979H36.641V106.359Z" fill="white"/>
<path d="M42.748 109.531H20.1423V111.151H42.748V109.531Z" fill="white"/>
<path d="M45.0422 112.703H20.1423V114.322H45.0422V112.703Z" fill="white"/>
<path d="M17.3082 99.6956H16.9033V114.71H17.3082V99.6956Z" fill="white"/>
<path d="M48.8565 99.6956H48.4517V114.71H48.8565V99.6956Z" fill="white"/>
</g>
<defs>
<linearGradient id="paint0_linear_1267_6808" x1="111.775" y1="55.9885" x2="111.775" y2="120.928" gradientUnits="userSpaceOnUse">
<stop stop-color="#F57A00"/>
<stop offset="1" stop-color="#7103A4"/>
</linearGradient>
<linearGradient id="paint1_linear_1267_6808" x1="141.979" y1="52.8815" x2="214.857" y2="52.8815" gradientUnits="userSpaceOnUse">
<stop stop-color="#F57A00"/>
<stop offset="1" stop-color="#7103A4"/>
</linearGradient>
<linearGradient id="paint2_linear_1267_6808" x1="155.733" y1="99.9691" x2="223.55" y2="99.9691" gradientUnits="userSpaceOnUse">
<stop stop-color="#F57A00"/>
<stop offset="1" stop-color="#7103A4"/>
</linearGradient>
<linearGradient id="paint3_linear_1267_6808" x1="9.90894" y1="61.7351" x2="70.9492" y2="61.7351" gradientUnits="userSpaceOnUse">
<stop stop-color="#F57A00"/>
<stop offset="1" stop-color="#7103A4"/>
</linearGradient>
<linearGradient id="paint4_linear_1267_6808" x1="0" y1="107.153" x2="62.8235" y2="107.153" gradientUnits="userSpaceOnUse">
<stop stop-color="#F57A00"/>
<stop offset="1" stop-color="#7103A4"/>
</linearGradient>
</defs>
</svg>
