<svg width="244" height="193" viewBox="0 0 244 193" fill="none" xmlns="http://www.w3.org/2000/svg">
<path d="M200.907 73.8185L204.004 56.9966H205.899L202.802 73.8185H200.907ZM205.413 73.8185L208.51 56.9966H210.404L207.308 73.8185H205.413ZM211.976 63.5936H199.96V61.8028H211.976V63.5936ZM211.109 69.0815H199.082V67.2908H211.109V69.0815ZM220.814 70.4333C220.814 70.156 220.745 69.9057 220.606 69.6823C220.468 69.4513 220.202 69.2433 219.809 69.0584C219.424 68.8736 218.854 68.7041 218.099 68.5501C217.437 68.4037 216.828 68.2304 216.274 68.0302C215.727 67.8222 215.257 67.5719 214.864 67.2792C214.471 66.9865 214.167 66.6399 213.951 66.2394C213.736 65.8389 213.628 65.3767 213.628 64.853C213.628 64.3446 213.74 63.8632 213.963 63.4088C214.186 62.9543 214.506 62.5538 214.922 62.2072C215.338 61.8606 215.842 61.5872 216.435 61.3869C217.036 61.1867 217.706 61.0865 218.446 61.0865C219.493 61.0865 220.39 61.2637 221.138 61.618C221.892 61.9646 222.47 62.4383 222.871 63.0391C223.271 63.6321 223.471 64.3022 223.471 65.0494H220.687C220.687 64.7182 220.602 64.4101 220.433 64.1251C220.271 63.8324 220.025 63.5975 219.693 63.4203C219.362 63.2355 218.946 63.143 218.446 63.143C217.968 63.143 217.571 63.2201 217.256 63.3741C216.948 63.5205 216.716 63.713 216.562 63.9518C216.416 64.1906 216.343 64.4524 216.343 64.7374C216.343 64.9454 216.381 65.1341 216.458 65.3035C216.543 65.4653 216.682 65.6155 216.874 65.7541C217.067 65.8851 217.329 66.0083 217.66 66.1238C217.999 66.2394 218.423 66.3511 218.931 66.4589C219.886 66.6592 220.706 66.9172 221.392 67.233C222.085 67.5411 222.616 67.9416 222.986 68.4345C223.356 68.9198 223.541 69.536 223.541 70.2831C223.541 70.8377 223.421 71.346 223.183 71.8082C222.952 72.2626 222.613 72.6593 222.166 72.9982C221.719 73.3294 221.184 73.5874 220.56 73.7723C219.944 73.9571 219.251 74.0496 218.48 74.0496C217.348 74.0496 216.389 73.8493 215.603 73.4488C214.818 73.0405 214.221 72.5206 213.813 71.889C213.412 71.2498 213.212 70.5874 213.212 69.9018H215.904C215.935 70.4179 216.077 70.83 216.331 71.1381C216.593 71.4385 216.917 71.658 217.302 71.7966C217.695 71.9276 218.099 71.993 218.515 71.993C219.016 71.993 219.435 71.9276 219.774 71.7966C220.113 71.658 220.371 71.4731 220.548 71.2421C220.726 71.0033 220.814 70.7337 220.814 70.4333ZM232.992 70.4333C232.992 70.156 232.922 69.9057 232.784 69.6823C232.645 69.4513 232.379 69.2433 231.986 69.0584C231.601 68.8736 231.031 68.7041 230.276 68.5501C229.614 68.4037 229.006 68.2304 228.451 68.0302C227.904 67.8222 227.434 67.5719 227.041 67.2792C226.649 66.9865 226.344 66.6399 226.129 66.2394C225.913 65.8389 225.805 65.3767 225.805 64.853C225.805 64.3446 225.917 63.8632 226.14 63.4088C226.364 62.9543 226.683 62.5538 227.099 62.2072C227.515 61.8606 228.02 61.5872 228.613 61.3869C229.214 61.1867 229.884 61.0865 230.623 61.0865C231.671 61.0865 232.568 61.2637 233.315 61.618C234.07 61.9646 234.648 62.4383 235.048 63.0391C235.449 63.6321 235.649 64.3022 235.649 65.0494H232.864C232.864 64.7182 232.78 64.4101 232.61 64.1251C232.448 63.8324 232.202 63.5975 231.871 63.4203C231.54 63.2355 231.124 63.143 230.623 63.143C230.146 63.143 229.749 63.2201 229.433 63.3741C229.125 63.5205 228.894 63.713 228.74 63.9518C228.593 64.1906 228.52 64.4524 228.52 64.7374C228.52 64.9454 228.559 65.1341 228.636 65.3035C228.721 65.4653 228.859 65.6155 229.052 65.7541C229.244 65.8851 229.506 66.0083 229.837 66.1238C230.176 66.2394 230.6 66.3511 231.108 66.4589C232.063 66.6592 232.884 66.9172 233.569 67.233C234.262 67.5411 234.794 67.9416 235.164 68.4345C235.533 68.9198 235.718 69.536 235.718 70.2831C235.718 70.8377 235.599 71.346 235.36 71.8082C235.129 72.2626 234.79 72.6593 234.343 72.9982C233.897 73.3294 233.361 73.5874 232.737 73.7723C232.121 73.9571 231.428 74.0496 230.658 74.0496C229.525 74.0496 228.567 73.8493 227.781 73.4488C226.995 73.0405 226.398 72.5206 225.99 71.889C225.59 71.2498 225.389 70.5874 225.389 69.9018H228.081C228.112 70.4179 228.255 70.83 228.509 71.1381C228.771 71.4385 229.094 71.658 229.479 71.7966C229.872 71.9276 230.276 71.993 230.692 71.993C231.193 71.993 231.613 71.9276 231.952 71.7966C232.291 71.658 232.549 71.4731 232.726 71.2421C232.903 71.0033 232.992 70.7337 232.992 70.4333ZM241.137 56.0723V73.8185H238.341V56.0723H241.137Z" fill="white"/>
<path d="M207.059 8.8345H159.383C159.026 8.8345 158.738 8.54513 158.738 8.18875V1.53479C158.738 1.17785 159.027 0.889038 159.383 0.889038H207.049C207.41 0.889038 207.705 1.18404 207.705 1.54548V8.18875C207.705 8.54513 207.415 8.8345 207.059 8.8345Z" fill="#424242"/>
<path d="M207.705 4.72693H158.737V34.8328H207.705V4.72693Z" fill="#B83EFF"/>
<path d="M169.052 9.21228H196.901" stroke="#EDEDD9" stroke-width="0.562989" stroke-miterlimit="10" stroke-linecap="round" stroke-linejoin="round"/>
<path d="M169.052 13.4471H196.901" stroke="#EDEDD9" stroke-width="0.562989" stroke-miterlimit="10" stroke-linecap="round" stroke-linejoin="round"/>
<path d="M169.052 17.6814H196.901" stroke="#EDEDD9" stroke-width="0.562989" stroke-miterlimit="10" stroke-linecap="round" stroke-linejoin="round"/>
<path d="M169.052 21.916H196.901" stroke="#EDEDD9" stroke-width="0.562989" stroke-miterlimit="10" stroke-linecap="round" stroke-linejoin="round"/>
<path d="M163.25 7.41687L165.752 9.23533L163.25 11.1123" stroke="#EDEDD9" stroke-width="0.562989" stroke-miterlimit="10" stroke-linecap="round" stroke-linejoin="round"/>
<path d="M193.223 23.3838H145.548C145.191 23.3838 144.902 23.0944 144.902 22.7381V16.0841C144.902 15.7272 145.191 15.4384 145.548 15.4384H193.213C193.574 15.4384 193.87 15.7334 193.87 16.0948V22.7381C193.869 23.0944 193.58 23.3838 193.223 23.3838Z" fill="#424242"/>
<path d="M193.87 19.2762H144.902V49.3821H193.87V19.2762Z" fill="#F57A00"/>
<path d="M155.216 23.7616H183.066" stroke="#EDEDD9" stroke-width="0.562989" stroke-miterlimit="10" stroke-linecap="round" stroke-linejoin="round"/>
<path d="M155.216 27.9963H183.066" stroke="#EDEDD9" stroke-width="0.562989" stroke-miterlimit="10" stroke-linecap="round" stroke-linejoin="round"/>
<path d="M155.216 32.2307H183.066" stroke="#EDEDD9" stroke-width="0.562989" stroke-miterlimit="10" stroke-linecap="round" stroke-linejoin="round"/>
<path d="M155.216 36.4655H183.066" stroke="#EDEDD9" stroke-width="0.562989" stroke-miterlimit="10" stroke-linecap="round" stroke-linejoin="round"/>
<path d="M149.415 21.9662L151.918 23.7846L149.415 25.6616" stroke="#EDEDD9" stroke-width="0.562989" stroke-miterlimit="10" stroke-linecap="round" stroke-linejoin="round"/>
<path d="M110.303 12.8602C110.864 12.9389 111.412 13.0592 111.947 13.2128C111.415 14.2776 111.777 15.5607 112.758 16.1962L112.964 16.3153C114.097 16.8972 115.485 16.4539 116.076 15.329C116.515 15.6745 116.93 16.0494 117.317 16.452C116.336 17.1115 116.015 18.3955 116.544 19.4305L116.662 19.6356C117.349 20.6998 118.758 21.0126 119.831 20.3495C120.035 20.8615 120.208 21.3897 120.342 21.9344C119.173 22.0253 118.265 22.971 118.205 24.1239V24.3612C118.267 25.6155 119.314 26.5852 120.56 26.5643C120.481 27.1148 120.365 27.6536 120.213 28.1786C119.161 27.6937 117.919 28.0591 117.297 29.0194L117.177 29.2255C116.609 30.3351 117.021 31.6866 118.094 32.2977C117.755 32.7279 117.387 33.134 116.993 33.5145C116.322 32.5848 115.074 32.2883 114.062 32.8046L113.856 32.9237C112.813 33.5973 112.492 34.9661 113.105 36.0302C112.603 36.231 112.085 36.399 111.551 36.5321C111.419 35.3193 110.365 34.4046 109.131 34.4657L108.894 34.4901C107.771 34.661 106.929 35.6311 106.927 36.7792C106.382 36.7032 105.848 36.5912 105.327 36.4442C105.791 35.3995 105.424 34.175 104.473 33.5585L104.267 33.4393C103.16 32.8713 101.81 33.2808 101.197 34.3495C100.765 34.0131 100.356 33.6491 99.9734 33.2577C100.906 32.5868 101.205 31.3373 100.687 30.3241L100.569 30.118C99.8891 29.0647 98.5006 28.7477 97.4324 29.3846C97.2259 28.8784 97.0522 28.3554 96.9148 27.8163C98.071 27.7135 98.9667 26.7749 99.0261 25.6307V25.3925C98.9634 24.1287 97.9018 23.1539 96.6433 23.1893C96.7184 22.6332 96.8334 22.089 96.9822 21.5585C98.0409 22.0687 99.3049 21.7051 99.9343 20.7343L100.053 20.5282C100.634 19.3968 100.195 18.0117 99.073 17.4188C99.4158 16.9772 99.7853 16.5571 100.185 16.1669C100.843 17.1541 102.131 17.4788 103.169 16.9491L103.375 16.83C104.449 16.1366 104.759 14.7057 104.071 13.6298C104.587 13.4205 105.119 13.2438 105.669 13.1063C105.739 14.2965 106.695 15.2275 107.862 15.288H108.1C109.378 15.2244 110.364 14.1376 110.303 12.8602ZM108.179 16.2372C103.587 16.465 100.016 20.2573 100.011 24.8036L100.022 25.246C100.251 29.838 104.043 33.4089 108.589 33.4139L109.031 33.4032C113.623 33.1754 117.195 29.3824 117.199 24.8358L117.188 24.3944C116.96 19.8021 113.167 16.2311 108.621 16.2264L108.179 16.2372Z" fill="url(#paint0_linear_1267_6399)" stroke="white" stroke-width="0.562989"/>
<path d="M111.333 31.3436C114.932 29.8393 116.631 25.7017 115.127 22.102C113.622 18.5024 109.485 16.8037 105.885 18.3081C102.285 19.8124 100.587 23.95 102.091 27.5496C103.595 31.1493 107.733 32.8479 111.333 31.3436Z" fill="url(#paint1_linear_1267_6399)" stroke="white" stroke-width="0.562989" stroke-miterlimit="10" stroke-linecap="round" stroke-linejoin="round"/>
<path d="M83.3196 9.18848C83.998 9.2809 84.6616 9.42339 85.3069 9.61133L85.2952 9.63281C84.6774 10.838 85.0848 12.2993 86.1975 13.0205L86.429 13.1543C87.6342 13.7723 89.0964 13.3658 89.8176 12.2529L89.9514 12.0215C89.9556 12.0133 89.9581 12.0043 89.9622 11.9961C90.4937 12.4115 90.9942 12.865 91.4602 13.3525L91.4583 13.3545C90.2448 14.1381 89.8957 15.757 90.679 16.9707C91.4135 18.1085 92.8828 18.4864 94.0637 17.8838L94.2961 17.75C94.5436 18.365 94.7489 19.0021 94.9075 19.6592C93.5675 19.7388 92.5192 20.8164 92.4514 22.1318L92.4504 22.3994C92.5218 23.8313 93.7315 24.9355 95.1594 24.8828C95.0657 25.5468 94.9236 26.1963 94.7385 26.8281C93.544 26.2493 92.1165 26.659 91.4055 27.7549L91.2708 27.9873C90.6217 29.2533 91.105 30.8001 92.3479 31.4766C91.9405 31.9965 91.4967 32.4865 91.0198 32.9434C90.2702 31.8637 88.8425 31.5132 87.6877 32.1025L87.4553 32.2363C86.2647 33.0049 85.9087 34.5768 86.635 35.7822C86.0301 36.0269 85.4035 36.2292 84.7581 36.3877C84.6342 34.9962 83.4343 33.9388 82.0266 34.0088L81.76 34.0352C80.4767 34.2299 79.5198 35.3499 79.5432 36.666C78.8841 36.5765 78.2391 36.4401 77.6116 36.2607C78.1662 35.0732 77.7557 33.667 76.6702 32.9629L76.4377 32.8281C75.1748 32.1805 73.6309 32.6602 72.9524 33.8975C72.4303 33.4938 71.9375 33.0535 71.4778 32.5801C72.6349 31.7803 72.957 30.2029 72.1887 29.0127C71.4129 27.8113 69.8191 27.4587 68.6096 28.2119C68.3589 27.603 68.1501 26.9717 67.9866 26.3213C69.3146 26.2292 70.3499 25.1587 70.4163 23.8506V23.582C70.3442 22.1422 69.1208 21.0322 67.6809 21.0996C67.7691 20.4292 67.9058 19.7731 68.0872 19.1348C69.2898 19.743 70.7426 19.3352 71.4612 18.2266L71.5959 17.9951C72.214 16.7898 71.8066 15.3276 70.6936 14.6064L70.4622 14.4727H70.4612C70.4561 14.4701 70.4506 14.4683 70.4456 14.4658C70.8573 13.9316 71.3061 13.427 71.7903 12.958L71.7952 12.9668C72.5298 14.1047 73.999 14.4828 75.1799 13.8799L75.4114 13.7461C76.5493 13.0115 76.9273 11.5423 76.3245 10.3613L76.1907 10.1289L76.1672 10.0967C76.7892 9.84174 77.434 9.62967 78.0989 9.46582V9.49121C78.1708 10.9339 79.3985 12.0465 80.842 11.9746L80.8411 11.9736C82.1937 11.9068 83.2561 10.824 83.3245 9.5V9.23145L83.3196 9.18848ZM88.6741 20.8115C87.5432 16.9429 83.5677 14.6631 79.6897 15.5859L79.3157 15.6855C75.447 16.8159 73.1683 20.7915 74.0911 24.6699L74.1897 25.0449C75.3206 28.9134 79.2962 31.1923 83.1741 30.2695L83.5491 30.1699C87.542 29.0025 89.8412 24.8047 88.6741 20.8115Z" fill="url(#paint2_linear_1267_6399)" stroke="white" stroke-width="0.562989"/>
<path d="M173.72 52.4272V101.872C173.72 104.562 171.539 106.743 168.849 106.743H157.312" stroke="white" stroke-width="0.562989" stroke-miterlimit="10" stroke-linecap="round" stroke-linejoin="round" stroke-dasharray="2.25 2.25"/>
<path d="M112.483 109.037H46.2067C43.5167 109.037 41.3357 106.856 41.3357 104.166V80.1816" stroke="white" stroke-width="0.562989" stroke-miterlimit="10" stroke-linecap="round" stroke-linejoin="round" stroke-dasharray="2.25 2.25"/>
<path d="M159.161 118.938H208.606C211.296 118.938 213.477 121.119 213.477 123.809V155.518" stroke="white" stroke-width="0.562989" stroke-miterlimit="10" stroke-linecap="round" stroke-linejoin="round" stroke-dasharray="2.25 2.25"/>
<path d="M112.484 121.06H61.3417C58.6517 121.06 56.4707 123.241 56.4707 125.931V143.992" stroke="white" stroke-width="0.562989" stroke-miterlimit="10" stroke-linecap="round" stroke-linejoin="round" stroke-dasharray="2.25 2.25"/>
<path d="M94.5542 34.1307L94.7811 86.9639C94.7923 89.6538 96.9829 91.8253 99.6729 91.814L116.908 91.7329" stroke="white" stroke-width="0.562989" stroke-miterlimit="10" stroke-linecap="round" stroke-linejoin="round" stroke-dasharray="2.25 2.25"/>
<path d="M190.748 158.851H186.851V162.008H190.748V158.851Z" fill="url(#paint3_linear_1267_6399)"/>
<path d="M204.327 158.851H194.143V162.008H204.327V158.851Z" fill="url(#paint4_linear_1267_6399)"/>
<path d="M225.969 158.851H213.239V162.008H225.969V158.851Z" fill="url(#paint5_linear_1267_6399)"/>
<path d="M237.85 158.851H228.939V162.008H237.85V158.851Z" fill="url(#paint6_linear_1267_6399)"/>
<path d="M208.146 164.464H202.205V167.621H208.146V164.464Z" fill="url(#paint7_linear_1267_6399)"/>
<path d="M198.386 164.464H186.851V167.621H198.386V164.464Z" fill="url(#paint8_linear_1267_6399)"/>
<path d="M234.88 164.464H224.696V167.621H234.88V164.464Z" fill="url(#paint9_linear_1267_6399)"/>
<path d="M238.477 157.172C239.724 157.172 240.734 158.208 240.734 159.486V161.131C240.734 161.745 240.972 162.333 241.395 162.767L242.074 163.464L241.607 163.943C241.184 164.377 240.946 164.965 240.946 165.579V166.977C240.946 168.255 239.935 169.291 238.689 169.291H238.317" fill="url(#paint10_linear_1267_6399)"/>
<path d="M186.537 157.172C185.29 157.172 184.28 158.208 184.28 159.486V161.131C184.28 161.745 184.042 162.333 183.619 162.767L182.94 163.464L183.407 163.943C183.831 164.377 184.068 164.965 184.068 165.579V166.977C184.068 168.255 185.079 169.291 186.325 169.291H186.697" fill="url(#paint11_linear_1267_6399)"/>
<path d="M16.305 68.9617H5.11499V72.1189H16.305V68.9617Z" fill="url(#paint12_linear_1267_6399)"/>
<path d="M32.5663 68.9617H19.3958V72.1189H32.5663V68.9617Z" fill="url(#paint13_linear_1267_6399)"/>
<path d="M42.6082 68.9617H34.8289V72.1189H42.6082V68.9617Z" fill="url(#paint14_linear_1267_6399)"/>
<path d="M63.1026 68.9617H54.1917V72.1189H63.1026V68.9617Z" fill="url(#paint15_linear_1267_6399)"/>
<path d="M27.7565 74.5747H6.66528V77.7319H27.7565V74.5747Z" fill="url(#paint16_linear_1267_6399)"/>
<path d="M46.9932 74.5747H30.7268V77.7319H46.9932V74.5747Z" fill="url(#paint17_linear_1267_6399)"/>
<path d="M62.9771 74.5747H57.3191V77.7319H62.9771V74.5747Z" fill="url(#paint18_linear_1267_6399)"/>
<path d="M63.73 67.2834C64.9765 67.2834 65.9871 68.3193 65.9871 69.5973V71.2424C65.9871 71.856 66.2246 72.4449 66.648 72.8784L67.327 73.5748L66.8597 74.054C66.4363 74.488 66.1987 75.0763 66.1987 75.69V77.0879C66.1987 78.3659 65.1882 79.4018 63.9417 79.4018H63.5696" fill="url(#paint19_linear_1267_6399)"/>
<path d="M3.59694 67.2834C2.35048 67.2834 1.33991 68.3193 1.33991 69.5973V71.2424C1.33991 71.856 1.10233 72.4449 0.678965 72.8784L0 73.5748L0.46728 74.054C0.890647 74.488 1.12823 75.0763 1.12823 75.69V77.0879C1.12823 78.3659 2.13879 79.4018 3.38525 79.4018H3.75739" fill="url(#paint20_linear_1267_6399)"/>
<path d="M138.536 192.099H25.9899C23.7943 192.099 23.2972 191.002 24.8797 189.65L78.9638 146.001L193.621 144.278C193.621 145.375 193.157 146.42 192.344 147.157L145.377 189.65C143.795 191.002 140.732 192.099 138.536 192.099Z" fill="#1D1D1B"/>
<path d="M138.536 190.376H25.9899C23.7943 190.376 23.2972 189.28 24.8797 187.927L78.9638 144.279H193.621L145.377 187.927C143.795 189.28 140.732 190.376 138.536 190.376Z" fill="white"/>
<path d="M148.949 175.272H51.2629C49.7169 175.272 49.3667 174.5 50.4814 173.547L76.8051 151.05C77.9193 150.098 80.0761 149.325 81.622 149.325H179.308C180.854 149.325 181.205 150.097 180.09 151.05L153.767 173.547C152.652 174.5 150.495 175.272 148.949 175.272Z" fill="#E5DBFF"/>
<path d="M85.9696 151.226H80.8773C80.3926 151.226 80.2828 150.984 80.6324 150.685L83.8792 147.91C84.2288 147.611 84.905 147.369 85.3897 147.369H90.4819C90.9667 147.369 91.0765 147.611 90.7268 147.91L87.4801 150.685C87.1305 150.984 86.4543 151.226 85.9696 151.226Z" fill="#3B44B3"/>
<path d="M93.1219 151.226H88.6175C88.1327 151.226 88.0229 150.984 88.372 150.685L91.6188 147.91C91.9684 147.611 92.6445 147.369 93.1292 147.369H97.6337C98.1185 147.369 98.2282 147.611 97.8786 147.91L94.6319 150.685C94.2828 150.984 93.6067 151.226 93.1219 151.226Z" fill="#3B44B3"/>
<path d="M100.274 151.226H95.7697C95.2849 151.226 95.1752 150.984 95.5248 150.685L98.7715 147.91C99.1212 147.611 99.7973 147.369 100.282 147.369H104.787C105.271 147.369 105.381 147.611 105.031 147.91L101.785 150.685C101.435 150.984 100.759 151.226 100.274 151.226Z" fill="#3B44B3"/>
<path d="M107.426 151.226H102.922C102.437 151.226 102.327 150.984 102.676 150.685L105.923 147.91C106.273 147.611 106.949 147.369 107.433 147.369H111.938C112.423 147.369 112.532 147.611 112.183 147.91L108.936 150.685C108.588 150.984 107.911 151.226 107.426 151.226Z" fill="#3B44B3"/>
<path d="M114.579 151.226H110.074C109.589 151.226 109.48 150.984 109.829 150.685L113.076 147.91C113.425 147.611 114.102 147.369 114.586 147.369H119.091C119.576 147.369 119.685 147.611 119.336 147.91L116.089 150.685C115.74 150.984 115.064 151.226 114.579 151.226Z" fill="#3B44B3"/>
<path d="M121.731 151.226H117.227C116.742 151.226 116.632 150.984 116.982 150.685L120.229 147.91C120.578 147.611 121.254 147.369 121.739 147.369H126.244C126.728 147.369 126.838 147.611 126.488 147.91L123.242 150.685C122.892 150.984 122.216 151.226 121.731 151.226Z" fill="#3B44B3"/>
<path d="M128.884 151.226H124.379C123.894 151.226 123.785 150.984 124.134 150.685L127.381 147.91C127.731 147.611 128.407 147.369 128.891 147.369H133.396C133.881 147.369 133.99 147.611 133.641 147.91L130.394 150.685C130.044 150.984 129.368 151.226 128.884 151.226Z" fill="#3B44B3"/>
<path d="M136.036 151.226H131.531C131.046 151.226 130.937 150.984 131.286 150.685L134.533 147.91C134.883 147.611 135.559 147.369 136.043 147.369H140.548C141.033 147.369 141.142 147.611 140.793 147.91L137.546 150.685C137.197 150.984 136.52 151.226 136.036 151.226Z" fill="#3B44B3"/>
<path d="M143.188 151.226H138.683C138.199 151.226 138.089 150.984 138.439 150.685L141.685 147.91C142.035 147.611 142.711 147.369 143.196 147.369H147.7C148.185 147.369 148.295 147.611 147.945 147.91L144.698 150.685C144.349 150.984 143.673 151.226 143.188 151.226Z" fill="#3B44B3"/>
<path d="M150.34 151.226H145.836C145.351 151.226 145.241 150.984 145.591 150.685L148.837 147.91C149.187 147.611 149.863 147.369 150.348 147.369H154.852C155.337 147.369 155.447 147.611 155.097 147.91L151.851 150.685C151.502 150.984 150.825 151.226 150.34 151.226Z" fill="#3B44B3"/>
<path d="M157.493 151.226H152.988C152.503 151.226 152.394 150.984 152.743 150.685L155.99 147.91C156.34 147.611 157.016 147.369 157.501 147.369H162.005C162.49 147.369 162.6 147.611 162.25 147.91L159.003 150.685C158.654 150.984 157.977 151.226 157.493 151.226Z" fill="#3B44B3"/>
<path d="M164.645 151.226H160.141C159.656 151.226 159.546 150.984 159.896 150.685L163.142 147.91C163.492 147.611 164.168 147.369 164.653 147.369H169.157C169.642 147.369 169.752 147.611 169.402 147.91L166.155 150.685C165.806 150.984 165.13 151.226 164.645 151.226Z" fill="#3B44B3"/>
<path d="M175.268 151.226H166.988C166.504 151.226 166.394 150.984 166.743 150.685L169.99 147.91C170.339 147.611 171.015 147.369 171.5 147.369H179.779C180.264 147.369 180.374 147.611 180.025 147.91L176.778 150.685C176.429 150.984 175.752 151.226 175.268 151.226Z" fill="#3B44B3"/>
<path d="M84.3844 155.637H75.7161C75.2314 155.637 75.1216 155.395 75.4706 155.096L78.7174 152.321C79.067 152.023 79.7431 151.78 80.2279 151.78H88.8962C89.381 151.78 89.4907 152.022 89.1411 152.321L85.8944 155.096C85.5453 155.395 84.8692 155.637 84.3844 155.637Z" fill="#3B44B3"/>
<path d="M91.5364 155.637H87.0319C86.5472 155.637 86.4374 155.395 86.787 155.096L90.0337 152.321C90.3834 152.023 91.0595 151.78 91.5442 151.78H96.0487C96.5335 151.78 96.6432 152.022 96.2936 152.321L93.0469 155.096C92.6972 155.395 92.0211 155.637 91.5364 155.637Z" fill="#3B44B3"/>
<path d="M98.6887 155.637H94.1842C93.6995 155.637 93.5897 155.395 93.9393 155.096L97.1861 152.321C97.5357 152.023 98.2119 151.78 98.6966 151.78H103.201C103.686 151.78 103.796 152.022 103.446 152.321L100.199 155.096C99.8496 155.395 99.1734 155.637 98.6887 155.637Z" fill="#3B44B3"/>
<path d="M105.841 155.637H101.337C100.852 155.637 100.742 155.395 101.092 155.096L104.338 152.321C104.688 152.023 105.364 151.78 105.849 151.78H110.353C110.838 151.78 110.948 152.022 110.598 152.321L107.352 155.096C107.002 155.395 106.326 155.637 105.841 155.637Z" fill="#3B44B3"/>
<path d="M112.994 155.637H108.489C108.004 155.637 107.895 155.395 108.244 155.096L111.491 152.321C111.841 152.023 112.517 151.78 113.002 151.78H117.506C117.991 151.78 118.101 152.022 117.751 152.321L114.504 155.096C114.155 155.395 113.478 155.637 112.994 155.637Z" fill="#3B44B3"/>
<path d="M120.146 155.637H115.641C115.157 155.637 115.047 155.395 115.396 155.096L118.643 152.321C118.992 152.023 119.668 151.78 120.153 151.78H124.658C125.142 151.78 125.252 152.022 124.903 152.321L121.656 155.096C121.307 155.395 120.631 155.637 120.146 155.637Z" fill="#3B44B3"/>
<path d="M127.298 155.637H122.794C122.309 155.637 122.199 155.395 122.549 155.096L125.795 152.321C126.145 152.023 126.821 151.78 127.306 151.78H131.81C132.295 151.78 132.405 152.022 132.055 152.321L128.809 155.096C128.459 155.395 127.783 155.637 127.298 155.637Z" fill="#3B44B3"/>
<path d="M134.45 155.637H129.946C129.461 155.637 129.351 155.395 129.7 155.096L132.947 152.321C133.297 152.023 133.973 151.78 134.458 151.78H138.962C139.447 151.78 139.557 152.022 139.207 152.321L135.96 155.096C135.611 155.395 134.935 155.637 134.45 155.637Z" fill="#3B44B3"/>
<path d="M141.603 155.637H137.098C136.613 155.637 136.504 155.395 136.853 155.096L140.1 152.321C140.45 152.023 141.126 151.78 141.61 151.78H146.115C146.6 151.78 146.709 152.022 146.36 152.321L143.113 155.096C142.764 155.395 142.088 155.637 141.603 155.637Z" fill="#3B44B3"/>
<path d="M148.755 155.637H144.251C143.766 155.637 143.656 155.395 144.006 155.096L147.252 152.321C147.602 152.023 148.278 151.78 148.763 151.78H153.267C153.752 151.78 153.862 152.022 153.512 152.321L150.266 155.096C149.916 155.395 149.24 155.637 148.755 155.637Z" fill="#3B44B3"/>
<path d="M155.908 155.637H151.403C150.918 155.637 150.809 155.395 151.158 155.096L154.404 152.321C154.754 152.023 155.43 151.78 155.915 151.78H160.419C160.904 151.78 161.014 152.022 160.665 152.321L157.418 155.096C157.068 155.395 156.392 155.637 155.908 155.637Z" fill="#3B44B3"/>
<path d="M163.06 155.637H158.555C158.07 155.637 157.961 155.395 158.31 155.096L161.557 152.321C161.907 152.023 162.583 151.78 163.067 151.78H167.572C168.057 151.78 168.166 152.022 167.817 152.321L164.57 155.096C164.22 155.395 163.544 155.637 163.06 155.637Z" fill="#3B44B3"/>
<path d="M74.0613 164.459H65.393C64.9082 164.459 64.7985 164.217 65.1481 163.918L68.3948 161.143C68.7444 160.844 69.4206 160.602 69.9053 160.602H78.5737C79.0584 160.602 79.1682 160.844 78.8191 161.143L75.5724 163.918C75.2222 164.217 74.546 164.459 74.0613 164.459Z" fill="#3B44B3"/>
<path d="M81.2134 164.459H76.7089C76.2242 164.459 76.1144 164.217 76.464 163.918L79.7107 161.143C80.0604 160.844 80.7365 160.602 81.2212 160.602H85.7257C86.2105 160.602 86.3202 160.844 85.9706 161.143L82.7239 163.918C82.3742 164.217 81.6981 164.459 81.2134 164.459Z" fill="#3B44B3"/>
<path d="M88.3657 164.459H83.8612C83.3765 164.459 83.2667 164.217 83.6163 163.918L86.8631 161.143C87.2127 160.844 87.8889 160.602 88.3736 160.602H92.8781C93.3628 160.602 93.4726 160.844 93.123 161.143L89.8762 163.918C89.5272 164.217 88.8504 164.459 88.3657 164.459Z" fill="#3B44B3"/>
<path d="M95.5178 164.459H91.0133C90.5286 164.459 90.4188 164.217 90.7684 163.918L94.0152 161.143C94.3648 160.844 95.041 160.602 95.5257 160.602H100.03C100.515 160.602 100.625 160.844 100.276 161.143L97.0289 163.918C96.6792 164.217 96.0025 164.459 95.5178 164.459Z" fill="#3B44B3"/>
<path d="M102.67 164.459H98.1656C97.6808 164.459 97.571 164.217 97.9201 163.918L101.167 161.143C101.516 160.844 102.193 160.602 102.677 160.602H107.182C107.667 160.602 107.776 160.844 107.427 161.143L104.18 163.918C103.831 164.217 103.155 164.459 102.67 164.459Z" fill="#3B44B3"/>
<path d="M109.823 164.459H105.318C104.834 164.459 104.724 164.217 105.073 163.918L108.32 161.143C108.67 160.844 109.346 160.602 109.831 160.602H114.335C114.82 160.602 114.93 160.844 114.58 161.143L111.333 163.918C110.984 164.217 110.307 164.459 109.823 164.459Z" fill="#3B44B3"/>
<path d="M116.975 164.459H112.471C111.986 164.459 111.876 164.217 112.226 163.918L115.472 161.143C115.822 160.844 116.498 160.602 116.983 160.602H121.487C121.972 160.602 122.082 160.844 121.732 161.143L118.486 163.918C118.136 164.217 117.46 164.459 116.975 164.459Z" fill="#3B44B3"/>
<path d="M124.127 164.459H119.623C119.138 164.459 119.028 164.217 119.378 163.918L122.625 161.143C122.974 160.844 123.65 160.602 124.135 160.602H128.64C129.124 160.602 129.234 160.844 128.884 161.143L125.638 163.918C125.289 164.217 124.612 164.459 124.127 164.459Z" fill="#3B44B3"/>
<path d="M131.28 164.459H126.775C126.29 164.459 126.181 164.217 126.53 163.918L129.777 161.143C130.127 160.844 130.803 160.602 131.287 160.602H135.792C136.277 160.602 136.386 160.844 136.037 161.143L132.79 163.918C132.441 164.217 131.765 164.459 131.28 164.459Z" fill="#3B44B3"/>
<path d="M138.432 164.459H133.928C133.443 164.459 133.333 164.217 133.682 163.918L136.929 161.143C137.279 160.844 137.955 160.602 138.44 160.602H142.944C143.429 160.602 143.539 160.844 143.189 161.143L139.943 163.918C139.593 164.217 138.917 164.459 138.432 164.459Z" fill="#3B44B3"/>
<path d="M145.584 164.459H141.08C140.595 164.459 140.485 164.217 140.835 163.918L144.082 161.143C144.431 160.844 145.107 160.602 145.592 160.602H150.097C150.581 160.602 150.691 160.844 150.341 161.143L147.095 163.918C146.745 164.217 146.069 164.459 145.584 164.459Z" fill="#3B44B3"/>
<path d="M152.737 164.459H148.232C147.747 164.459 147.638 164.217 147.987 163.918L151.234 161.143C151.584 160.844 152.26 160.602 152.744 160.602H157.249C157.734 160.602 157.843 160.844 157.494 161.143L154.247 163.918C153.897 164.217 153.221 164.459 152.737 164.459Z" fill="#3B44B3"/>
<path d="M159.783 164.459H155.278C154.794 164.459 154.684 164.217 155.034 163.918L161.186 158.66C161.536 158.362 162.212 158.119 162.696 158.119H167.201C167.686 158.119 167.795 158.361 167.446 158.66L161.293 163.918C160.944 164.217 160.268 164.459 159.783 164.459Z" fill="#3B44B3"/>
<path d="M170.106 155.637H165.602C165.117 155.637 165.007 155.395 165.356 155.096L168.603 152.321C168.952 152.023 169.629 151.78 170.113 151.78H174.618C175.103 151.78 175.212 152.022 174.863 152.321L171.617 155.096C171.267 155.395 170.591 155.637 170.106 155.637Z" fill="#3B44B3"/>
<path d="M75.0589 160.048H70.5545C70.0697 160.048 69.96 159.806 70.309 159.507L73.5558 156.732C73.9048 156.434 74.5815 156.192 75.0663 156.192H79.5707C80.0555 156.192 80.1652 156.434 79.8162 156.732L76.5694 159.507C76.2198 159.806 75.5437 160.048 75.0589 160.048Z" fill="#3B44B3"/>
<path d="M82.2109 160.048H77.7064C77.2217 160.048 77.1119 159.806 77.4615 159.507L80.7083 156.732C81.0579 156.434 81.7341 156.192 82.2188 156.192H86.7233C87.208 156.192 87.3178 156.434 86.9682 156.732L83.7214 159.507C83.3718 159.806 82.6956 160.048 82.2109 160.048Z" fill="#3B44B3"/>
<path d="M89.3633 160.048H84.8588C84.3741 160.048 84.2643 159.806 84.6139 159.507L87.8606 156.732C88.2103 156.434 88.8864 156.192 89.3711 156.192H93.8756C94.3604 156.192 94.4701 156.434 94.1205 156.732L90.8738 159.507C90.5241 159.806 89.848 160.048 89.3633 160.048Z" fill="#3B44B3"/>
<path d="M96.5156 160.048H92.0111C91.5264 160.048 91.4166 159.806 91.7662 159.507L95.013 156.732C95.3626 156.434 96.0388 156.192 96.5235 156.192H101.028C101.513 156.192 101.622 156.434 101.273 156.732L98.0261 159.507C97.6771 159.806 97.0009 160.048 96.5156 160.048Z" fill="#3B44B3"/>
<path d="M103.668 160.048H99.1635C98.6787 160.048 98.569 159.806 98.9186 159.507L102.165 156.732C102.515 156.434 103.191 156.192 103.676 156.192H108.18C108.665 156.192 108.775 156.434 108.425 156.732L105.178 159.507C104.829 159.806 104.153 160.048 103.668 160.048Z" fill="#3B44B3"/>
<path d="M110.82 160.048H106.316C105.831 160.048 105.721 159.806 106.07 159.507L109.317 156.732C109.667 156.434 110.343 156.192 110.828 156.192H115.332C115.817 156.192 115.927 156.434 115.578 156.732L112.331 159.507C111.981 159.806 111.305 160.048 110.82 160.048Z" fill="#3B44B3"/>
<path d="M117.973 160.048H113.468C112.983 160.048 112.874 159.806 113.223 159.507L116.47 156.732C116.82 156.434 117.496 156.192 117.981 156.192H122.485C122.97 156.192 123.08 156.434 122.73 156.732L119.483 159.507C119.134 159.806 118.457 160.048 117.973 160.048Z" fill="#3B44B3"/>
<path d="M125.125 160.048H120.62C120.136 160.048 120.026 159.806 120.375 159.507L123.622 156.732C123.972 156.434 124.648 156.192 125.133 156.192H129.637C130.122 156.192 130.232 156.434 129.882 156.732L126.635 159.507C126.286 159.806 125.609 160.048 125.125 160.048Z" fill="#3B44B3"/>
<path d="M132.277 160.048H127.773C127.288 160.048 127.178 159.806 127.528 159.507L130.774 156.732C131.124 156.434 131.8 156.192 132.285 156.192H136.789C137.274 156.192 137.384 156.434 137.034 156.732L133.788 159.507C133.439 159.806 132.762 160.048 132.277 160.048Z" fill="#3B44B3"/>
<path d="M139.43 160.048H134.925C134.44 160.048 134.331 159.806 134.68 159.507L137.927 156.732C138.277 156.434 138.953 156.192 139.438 156.192H143.942C144.427 156.192 144.537 156.434 144.187 156.732L140.94 159.507C140.591 159.806 139.914 160.048 139.43 160.048Z" fill="#3B44B3"/>
<path d="M146.582 160.048H142.077C141.593 160.048 141.483 159.806 141.832 159.507L145.079 156.732C145.428 156.434 146.104 156.192 146.589 156.192H151.094C151.578 156.192 151.688 156.434 151.339 156.732L148.092 159.507C147.743 159.806 147.067 160.048 146.582 160.048Z" fill="#3B44B3"/>
<path d="M153.734 160.048H149.23C148.745 160.048 148.635 159.806 148.985 159.507L152.231 156.732C152.581 156.434 153.257 156.192 153.742 156.192H158.246C158.731 156.192 158.841 156.434 158.491 156.732L155.245 159.507C154.895 159.806 154.219 160.048 153.734 160.048Z" fill="#3B44B3"/>
<path d="M164.944 160.048H156.524C156.039 160.048 155.929 159.806 156.279 159.507L159.525 156.732C159.875 156.434 160.551 156.192 161.036 156.192H169.457C169.941 156.192 170.051 156.434 169.701 156.732L166.455 159.507C166.105 159.806 165.429 160.048 164.944 160.048Z" fill="#3B44B3"/>
<path d="M66.2154 168.87H60.2309C59.7461 168.87 59.6363 168.628 59.986 168.33L63.2327 165.555C63.5823 165.256 64.2585 165.014 64.7432 165.014H70.7278C71.2125 165.014 71.3223 165.256 70.9732 165.555L67.7265 168.33C67.3769 168.628 66.7002 168.87 66.2154 168.87Z" fill="#3B44B3"/>
<path d="M71.8879 168.87H68.9918C68.5071 168.87 68.3973 168.628 68.7469 168.33L71.9937 165.555C72.3428 165.256 73.0195 165.014 73.5042 165.014H76.4002C76.8849 165.014 76.9947 165.256 76.6451 165.555L73.3984 168.33C73.0487 168.628 72.3726 168.87 71.8879 168.87Z" fill="#3B44B3"/>
<path d="M79.0404 168.87H74.5359C74.0512 168.87 73.9414 168.628 74.2905 168.33L77.5372 165.555C77.8868 165.256 78.563 165.014 79.0477 165.014H83.5522C84.0369 165.014 84.1467 165.256 83.7971 165.555L80.5503 168.33C80.2018 168.628 79.5251 168.87 79.0404 168.87Z" fill="#3B44B3"/>
<path d="M86.1924 168.87H81.6879C81.2032 168.87 81.0934 168.628 81.443 168.33L84.6897 165.555C85.0394 165.256 85.7155 165.014 86.2003 165.014H90.7047C91.1895 165.014 91.2992 165.256 90.9496 165.555L87.7029 168.33C87.3538 168.628 86.6777 168.87 86.1924 168.87Z" fill="#3B44B3"/>
<path d="M93.3456 168.87H88.8411C88.3564 168.87 88.2466 168.628 88.5956 168.33L91.8424 165.555C92.1914 165.256 92.8682 165.014 93.3529 165.014H97.8574C98.3421 165.014 98.4519 165.256 98.1028 165.555L94.8561 168.33C94.5064 168.628 93.8303 168.87 93.3456 168.87Z" fill="#3B44B3"/>
<path d="M100.498 168.87H95.9931C95.5083 168.87 95.3986 168.628 95.7482 168.33L98.9949 165.555C99.344 165.256 100.021 165.014 100.505 165.014H105.01C105.495 165.014 105.604 165.256 105.255 165.555L102.008 168.33C101.658 168.628 100.982 168.87 100.498 168.87Z" fill="#3B44B3"/>
<path d="M107.65 168.87H103.145C102.661 168.87 102.551 168.628 102.9 168.33L106.147 165.555C106.496 165.256 107.172 165.014 107.657 165.014H112.162C112.646 165.014 112.756 165.256 112.406 165.555L109.16 168.33C108.811 168.628 108.135 168.87 107.65 168.87Z" fill="#3B44B3"/>
<path d="M114.802 168.87H110.297C109.813 168.87 109.703 168.628 110.052 168.33L113.299 165.555C113.649 165.256 114.325 165.014 114.81 165.014H119.314C119.799 165.014 119.909 165.256 119.559 165.555L116.312 168.33C115.963 168.628 115.286 168.87 114.802 168.87Z" fill="#3B44B3"/>
<path d="M121.955 168.87H117.45C116.965 168.87 116.856 168.628 117.205 168.33L120.452 165.555C120.802 165.256 121.478 165.014 121.962 165.014H126.467C126.952 165.014 127.061 165.256 126.712 165.555L123.465 168.33C123.115 168.628 122.439 168.87 121.955 168.87Z" fill="#3B44B3"/>
<path d="M129.107 168.87H124.603C124.118 168.87 124.008 168.628 124.357 168.33L127.604 165.555C127.953 165.256 128.63 165.014 129.114 165.014H133.619C134.104 165.014 134.213 165.256 133.864 165.555L130.618 168.33C130.268 168.628 129.592 168.87 129.107 168.87Z" fill="#3B44B3"/>
<path d="M136.259 168.87H131.754C131.27 168.87 131.16 168.628 131.509 168.33L134.756 165.555C135.105 165.256 135.781 165.014 136.266 165.014H140.771C141.255 165.014 141.365 165.256 141.016 165.555L137.769 168.33C137.42 168.628 136.744 168.87 136.259 168.87Z" fill="#3B44B3"/>
<path d="M154.622 168.87H138.907C138.422 168.87 138.312 168.628 138.662 168.33L141.909 165.555C142.258 165.256 142.935 165.014 143.419 165.014H159.134C159.619 165.014 159.728 165.256 159.379 165.555L156.132 168.33C155.782 168.628 155.106 168.87 154.622 168.87Z" fill="#3B44B3"/>
<path d="M59.5744 173.282H55.07C54.5852 173.282 54.4755 173.04 54.8251 172.741L58.0718 169.966C58.4214 169.667 59.0976 169.425 59.5823 169.425H64.0868C64.5715 169.425 64.6813 169.667 64.3317 169.966L61.0849 172.741C60.7353 173.04 60.0592 173.282 59.5744 173.282Z" fill="#3B44B3"/>
<path d="M66.7267 173.282H62.2222C61.7375 173.282 61.6277 173.04 61.9767 172.741L65.2235 169.966C65.5731 169.667 66.2493 169.425 66.734 169.425H71.2385C71.7232 169.425 71.833 169.667 71.4834 169.966L68.2366 172.741C67.8876 173.04 67.2114 173.282 66.7267 173.282Z" fill="#3B44B3"/>
<path d="M73.8789 173.282H69.3744C68.8897 173.282 68.7799 173.04 69.1295 172.741L72.3763 169.966C72.7259 169.667 73.402 169.425 73.8868 169.425H78.3912C78.876 169.425 78.9858 169.667 78.6361 169.966L75.3894 172.741C75.0403 173.04 74.3636 173.282 73.8789 173.282Z" fill="#3B44B3"/>
<path d="M81.0316 173.282H76.5271C76.0424 173.282 75.9326 173.04 76.2817 172.741L79.5284 169.966C79.878 169.667 80.5542 169.425 81.0389 169.425H85.5434C86.0281 169.425 86.1379 169.667 85.7883 169.966L82.5415 172.741C82.1925 173.04 81.5163 173.282 81.0316 173.282Z" fill="#3B44B3"/>
<path d="M138.192 173.282H133.688C133.203 173.282 133.093 173.04 133.443 172.741L136.69 169.966C137.039 169.667 137.716 169.425 138.2 169.425H142.705C143.189 169.425 143.299 169.667 142.95 169.966L139.703 172.741C139.354 173.04 138.677 173.282 138.192 173.282Z" fill="#3B44B3"/>
<path d="M116.793 173.282H83.6791C83.1944 173.282 83.0846 173.04 83.4342 172.741L86.681 169.966C87.03 169.667 87.7067 169.425 88.1915 169.425H121.305C121.79 169.425 121.9 169.667 121.551 169.966L118.304 172.741C117.954 173.04 117.278 173.282 116.793 173.282Z" fill="#3B44B3"/>
<path d="M123.945 173.282H119.441C118.956 173.282 118.846 173.04 119.195 172.741L122.442 169.966C122.792 169.667 123.468 169.425 123.953 169.425H128.457C128.942 169.425 129.052 169.667 128.702 169.966L125.455 172.741C125.106 173.04 124.43 173.282 123.945 173.282Z" fill="#3B44B3"/>
<path d="M133.717 171.092H129.212C128.728 171.092 128.618 170.85 128.967 170.551L129.653 169.966C130.002 169.667 130.678 169.425 131.163 169.425H135.668C136.152 169.425 136.262 169.667 135.912 169.966L135.227 170.551C134.878 170.85 134.202 171.092 133.717 171.092Z" fill="#3B44B3"/>
<path d="M131.107 173.323H126.602C126.117 173.323 126.008 173.081 126.357 172.783L127.348 171.936C127.697 171.637 128.374 171.395 128.859 171.395H133.363C133.848 171.395 133.958 171.637 133.608 171.936L132.618 172.783C132.268 173.081 131.591 173.323 131.107 173.323Z" fill="#3B44B3"/>
<path d="M149.46 173.282H141.039C140.554 173.282 140.445 173.04 140.794 172.741L144.041 169.966C144.391 169.667 145.067 169.425 145.552 169.425H153.972C154.457 169.425 154.567 169.667 154.217 169.966L150.97 172.741C150.621 173.04 149.945 173.282 149.46 173.282Z" fill="#3B44B3"/>
<path d="M101.555 187.505H68.1083C66.9232 187.505 66.6546 186.913 67.5093 186.183L76.7102 178.319C77.5648 177.589 79.2183 176.997 80.4034 176.997H113.851C115.036 176.997 115.304 177.589 114.45 178.319L105.249 186.183C104.394 186.913 102.741 187.505 101.555 187.505Z" fill="url(#paint21_linear_1267_6399)"/>
<path d="M193.473 144.279H79.061V69.7128C79.061 67.3505 80.9763 65.4352 83.3386 65.4352H189.196C191.559 65.4352 193.474 67.3505 193.474 69.7128V144.279H193.473Z" fill="#303030"/>
<path d="M189.601 71.0183H82.9333V141.713H189.601V71.0183Z" fill="url(#paint22_linear_1267_6399)"/>
<path d="M21.8481 153.166C21.8481 150.906 23.8299 149.074 26.2744 149.074C26.6392 149.074 26.9927 149.116 27.3317 149.193C27.2551 148.841 27.2146 148.477 27.2146 148.104C27.2146 145.067 29.8786 142.604 33.1648 142.604C34.887 142.604 36.4374 143.281 37.524 144.363C38.681 141.535 41.6355 139.525 45.099 139.525C49.434 139.525 52.973 142.674 53.1869 146.632C53.7921 146.439 54.4413 146.332 55.1174 146.332C58.3811 146.332 61.0271 148.778 61.0271 151.795C61.0271 154.812 58.3811 157.259 55.1174 157.259H55.1152H25.9861V157.249C23.6762 157.112 21.8481 155.337 21.8481 153.166Z" fill="url(#paint23_linear_1267_6399)"/>
<path d="M25.5794 150.595C24.6139 150.788 23.7745 151.453 23.4187 152.305C23.0629 153.157 23.2025 154.171 23.7767 154.913" fill="url(#paint24_linear_1267_6399)"/>
<path d="M25.5794 150.595C24.6139 150.788 23.7745 151.453 23.4187 152.305C23.0629 153.157 23.2025 154.171 23.7767 154.913" stroke="white" stroke-width="0.562989" stroke-miterlimit="10" stroke-linecap="round" stroke-linejoin="round"/>
<path d="M58.8815 152.636C58.7013 153.264 58.3911 153.851 57.9661 154.347L58.8815 152.636Z" fill="url(#paint25_linear_1267_6399)"/>
<path d="M58.8815 152.636C58.7013 153.264 58.3911 153.851 57.9661 154.347" stroke="white" stroke-width="0.562989" stroke-miterlimit="10" stroke-linecap="round" stroke-linejoin="round"/>
<path d="M56.772 148.044C58.2954 148.375 59.0932 149.786 59.0808 151.27L56.772 148.044Z" fill="url(#paint26_linear_1267_6399)"/>
<path d="M56.772 148.044C58.2954 148.375 59.0932 149.786 59.0808 151.27" stroke="white" stroke-width="0.562989" stroke-miterlimit="10" stroke-linecap="round" stroke-linejoin="round"/>
<path d="M44.1575 141.222C45.7749 140.91 47.5315 141.274 48.8505 142.195C50.1696 143.115 51.0287 144.577 51.147 146.101" fill="url(#paint27_linear_1267_6399)"/>
<path d="M44.1575 141.222C45.7749 140.91 47.5315 141.274 48.8505 142.195C50.1696 143.115 51.0288 144.577 51.147 146.101" stroke="white" stroke-width="0.562989" stroke-miterlimit="10" stroke-linecap="round" stroke-linejoin="round"/>
<path d="M166.032 113.439C169.869 97.5666 160.113 81.5891 144.242 77.7518C128.37 73.9144 112.392 83.6704 108.555 99.5423C104.717 115.414 114.473 131.392 130.345 135.229C146.217 139.066 162.195 129.31 166.032 113.439Z" fill="#F57A00"/>
<path d="M126.571 112.663C130.726 115.556 136.192 115.39 140.401 112.676C145.261 109.543 147.596 103.994 147.529 98.6403C147.461 93.2216 145.18 87.4065 140.073 84.3804C135.923 81.9213 130.627 81.9838 126.611 84.6664C120.445 88.7852 118.706 97.0122 120.409 103.536" stroke="black" stroke-width="1.68897" stroke-miterlimit="10" stroke-linecap="round" stroke-linejoin="round"/>
<path d="M149.861 130.595L117.855 130.792C116.018 130.803 114.52 129.324 114.509 127.487L114.356 102.594C114.344 100.757 115.824 99.2591 117.661 99.2478L149.667 99.0513C151.504 99.0401 153.002 100.52 153.013 102.357L153.166 127.25C153.178 129.086 151.697 130.584 149.861 130.595Z" fill="white"/>
<path d="M151.134 131.868L119.127 132.065C117.291 132.076 115.793 130.597 115.782 128.76L115.628 103.866C115.617 102.03 117.097 100.532 118.934 100.521L150.94 100.324C152.777 100.313 154.275 101.792 154.286 103.629L154.439 128.523C154.451 130.358 152.971 131.857 151.134 131.868Z" stroke="white" stroke-width="0.562989" stroke-miterlimit="10" stroke-linecap="round" stroke-linejoin="round"/>
<path d="M138.313 109.779C138.329 112.312 136.287 114.379 133.754 114.394C131.22 114.41 129.154 112.369 129.139 109.835C129.123 107.302 131.164 105.235 133.698 105.22C136.231 105.204 138.298 107.246 138.313 109.779Z" fill="#303030"/>
<path d="M136.411 122.744L130.877 122.778L131.591 111.71L135.562 111.685L136.411 122.744Z" fill="#303030"/>
<defs>
<linearGradient id="paint0_linear_1267_6399" x1="96.3201" y1="24.8202" x2="120.89" y2="24.8202" gradientUnits="userSpaceOnUse">
<stop stop-color="#F57A00"/>
<stop offset="1" stop-color="#7103A4"/>
</linearGradient>
<linearGradient id="paint1_linear_1267_6399" x1="102.091" y1="27.5496" x2="115.127" y2="22.102" gradientUnits="userSpaceOnUse">
<stop stop-color="#F57A00"/>
<stop offset="1" stop-color="#7103A4"/>
</linearGradient>
<linearGradient id="paint2_linear_1267_6399" x1="67.3586" y1="22.9264" x2="95.485" y2="22.9264" gradientUnits="userSpaceOnUse">
<stop stop-color="#F57A00"/>
<stop offset="1" stop-color="#7103A4"/>
</linearGradient>
<linearGradient id="paint3_linear_1267_6399" x1="186.851" y1="160.429" x2="190.748" y2="160.429" gradientUnits="userSpaceOnUse">
<stop stop-color="#F57A00"/>
<stop offset="1" stop-color="#7103A4"/>
</linearGradient>
<linearGradient id="paint4_linear_1267_6399" x1="194.143" y1="160.429" x2="204.327" y2="160.429" gradientUnits="userSpaceOnUse">
<stop stop-color="#F57A00"/>
<stop offset="1" stop-color="#7103A4"/>
</linearGradient>
<linearGradient id="paint5_linear_1267_6399" x1="213.239" y1="160.429" x2="225.969" y2="160.429" gradientUnits="userSpaceOnUse">
<stop stop-color="#F57A00"/>
<stop offset="1" stop-color="#7103A4"/>
</linearGradient>
<linearGradient id="paint6_linear_1267_6399" x1="228.939" y1="160.429" x2="237.85" y2="160.429" gradientUnits="userSpaceOnUse">
<stop stop-color="#F57A00"/>
<stop offset="1" stop-color="#7103A4"/>
</linearGradient>
<linearGradient id="paint7_linear_1267_6399" x1="202.205" y1="166.042" x2="208.146" y2="166.042" gradientUnits="userSpaceOnUse">
<stop stop-color="#F57A00"/>
<stop offset="1" stop-color="#7103A4"/>
</linearGradient>
<linearGradient id="paint8_linear_1267_6399" x1="186.851" y1="166.042" x2="198.386" y2="166.042" gradientUnits="userSpaceOnUse">
<stop stop-color="#F57A00"/>
<stop offset="1" stop-color="#7103A4"/>
</linearGradient>
<linearGradient id="paint9_linear_1267_6399" x1="224.696" y1="166.042" x2="234.88" y2="166.042" gradientUnits="userSpaceOnUse">
<stop stop-color="#F57A00"/>
<stop offset="1" stop-color="#7103A4"/>
</linearGradient>
<linearGradient id="paint10_linear_1267_6399" x1="238.317" y1="163.232" x2="242.074" y2="163.232" gradientUnits="userSpaceOnUse">
<stop stop-color="#F57A00"/>
<stop offset="1" stop-color="#7103A4"/>
</linearGradient>
<linearGradient id="paint11_linear_1267_6399" x1="182.94" y1="163.232" x2="186.697" y2="163.232" gradientUnits="userSpaceOnUse">
<stop stop-color="#F57A00"/>
<stop offset="1" stop-color="#7103A4"/>
</linearGradient>
<linearGradient id="paint12_linear_1267_6399" x1="5.11499" y1="70.5403" x2="16.305" y2="70.5403" gradientUnits="userSpaceOnUse">
<stop stop-color="#F57A00"/>
<stop offset="1" stop-color="#7103A4"/>
</linearGradient>
<linearGradient id="paint13_linear_1267_6399" x1="19.3958" y1="70.5403" x2="32.5663" y2="70.5403" gradientUnits="userSpaceOnUse">
<stop stop-color="#F57A00"/>
<stop offset="1" stop-color="#7103A4"/>
</linearGradient>
<linearGradient id="paint14_linear_1267_6399" x1="34.8289" y1="70.5403" x2="42.6082" y2="70.5403" gradientUnits="userSpaceOnUse">
<stop stop-color="#F57A00"/>
<stop offset="1" stop-color="#7103A4"/>
</linearGradient>
<linearGradient id="paint15_linear_1267_6399" x1="54.1917" y1="70.5403" x2="63.1026" y2="70.5403" gradientUnits="userSpaceOnUse">
<stop stop-color="#F57A00"/>
<stop offset="1" stop-color="#7103A4"/>
</linearGradient>
<linearGradient id="paint16_linear_1267_6399" x1="6.66528" y1="76.1533" x2="27.7565" y2="76.1533" gradientUnits="userSpaceOnUse">
<stop stop-color="#F57A00"/>
<stop offset="1" stop-color="#7103A4"/>
</linearGradient>
<linearGradient id="paint17_linear_1267_6399" x1="30.7268" y1="76.1533" x2="46.9932" y2="76.1533" gradientUnits="userSpaceOnUse">
<stop stop-color="#F57A00"/>
<stop offset="1" stop-color="#7103A4"/>
</linearGradient>
<linearGradient id="paint18_linear_1267_6399" x1="57.3191" y1="76.1533" x2="62.9771" y2="76.1533" gradientUnits="userSpaceOnUse">
<stop stop-color="#F57A00"/>
<stop offset="1" stop-color="#7103A4"/>
</linearGradient>
<linearGradient id="paint19_linear_1267_6399" x1="63.5696" y1="73.3425" x2="67.327" y2="73.3425" gradientUnits="userSpaceOnUse">
<stop stop-color="#F57A00"/>
<stop offset="1" stop-color="#7103A4"/>
</linearGradient>
<linearGradient id="paint20_linear_1267_6399" x1="0" y1="73.3425" x2="3.75739" y2="73.3425" gradientUnits="userSpaceOnUse">
<stop stop-color="#F57A00"/>
<stop offset="1" stop-color="#7103A4"/>
</linearGradient>
<linearGradient id="paint21_linear_1267_6399" x1="67.0095" y1="182.251" x2="114.95" y2="182.251" gradientUnits="userSpaceOnUse">
<stop stop-color="#F57A00"/>
<stop offset="1" stop-color="#7103A4"/>
</linearGradient>
<linearGradient id="paint22_linear_1267_6399" x1="82.9333" y1="106.365" x2="189.601" y2="106.365" gradientUnits="userSpaceOnUse">
<stop stop-color="#F57A00"/>
<stop offset="1" stop-color="#7103A4"/>
</linearGradient>
<linearGradient id="paint23_linear_1267_6399" x1="21.8481" y1="148.392" x2="61.0271" y2="148.392" gradientUnits="userSpaceOnUse">
<stop stop-color="#F57A00"/>
<stop offset="1" stop-color="#7103A4"/>
</linearGradient>
<linearGradient id="paint24_linear_1267_6399" x1="23.2241" y1="152.754" x2="25.5794" y2="152.754" gradientUnits="userSpaceOnUse">
<stop stop-color="#F57A00"/>
<stop offset="1" stop-color="#7103A4"/>
</linearGradient>
<linearGradient id="paint25_linear_1267_6399" x1="57.9661" y1="153.492" x2="58.8815" y2="153.492" gradientUnits="userSpaceOnUse">
<stop stop-color="#F57A00"/>
<stop offset="1" stop-color="#7103A4"/>
</linearGradient>
<linearGradient id="paint26_linear_1267_6399" x1="56.772" y1="149.657" x2="59.0809" y2="149.657" gradientUnits="userSpaceOnUse">
<stop stop-color="#F57A00"/>
<stop offset="1" stop-color="#7103A4"/>
</linearGradient>
<linearGradient id="paint27_linear_1267_6399" x1="44.1575" y1="143.607" x2="51.147" y2="143.607" gradientUnits="userSpaceOnUse">
<stop stop-color="#F57A00"/>
<stop offset="1" stop-color="#7103A4"/>
</linearGradient>
</defs>
</svg>
