<svg width="71" height="71" viewBox="0 0 71 71" fill="none" xmlns="http://www.w3.org/2000/svg">
<g clip-path="url(#clip0_809_7373)">
<path d="M60.5988 8.20145C46.7108 10.466 39.4413 4.20095 36.9621 1.40212C36.0078 0.328784 34.1796 0.327617 33.2253 1.40212C30.7449 4.20095 23.4848 10.4695 9.58743 8.20028C8.48027 8.02528 7.3766 8.59462 6.90993 9.59678C6.10727 11.3106 4.75977 15.2236 4.75977 22.1863C4.75977 59.4753 31.2828 69.4153 34.3056 70.4268C34.8162 70.598 35.3688 70.598 35.8794 70.4268C37.9433 69.7373 45.2081 66.9256 52.0658 59.7005C60.9313 50.359 65.4264 37.738 65.4264 22.1875C65.4264 15.2248 64.0801 11.3118 63.2774 9.59912C62.8108 8.59812 61.7164 8.02528 60.5988 8.20145ZM35.0488 68.2148C33.1144 67.5685 26.2999 64.9283 19.8144 58.0951C11.3736 49.2005 7.09427 37.1196 7.09427 22.1875C7.09427 15.6775 8.30293 12.125 9.02393 10.5861C9.05077 10.5255 9.1161 10.5021 9.17677 10.5021C9.1896 10.5021 9.20127 10.5021 9.21293 10.5056C24.2431 12.9568 32.2336 6.03845 34.9706 2.95145C35.0418 2.87212 35.1468 2.87328 35.2156 2.95145C37.9526 6.03845 45.9408 12.9615 60.9733 10.5068C61.0409 10.4905 61.1308 10.5161 61.1646 10.5885C61.8844 12.1261 63.0931 15.6786 63.0931 22.1886C63.0931 57.8443 38.0004 67.2605 35.0476 68.216L35.0488 68.2148Z" fill="#F57A00"/>
<path d="M58.6482 13.1624C57.3886 13.2871 56.1236 13.3506 54.8577 13.3526C45.5641 13.3526 39.3889 9.79078 35.8457 6.80295C35.6353 6.62559 35.369 6.52832 35.0938 6.52832C34.8186 6.52832 34.5523 6.62559 34.3419 6.80295C30.7987 9.79195 24.6236 13.3526 15.3299 13.3526C14.1037 13.3526 12.8274 13.2884 11.5394 13.1624C11.2622 13.1361 10.9846 13.2095 10.7567 13.3695C10.5287 13.5295 10.3653 13.7655 10.2957 14.0351C9.7194 16.2973 9.42773 19.0401 9.42773 22.1878C9.42773 36.504 13.4912 48.0446 21.5074 56.489C26.6069 61.8615 31.9374 64.4935 34.6604 65.5843C34.939 65.6959 35.2498 65.6959 35.5284 65.5843C38.2514 64.4923 43.5819 61.8615 48.6814 56.489C56.6964 48.0446 60.7611 36.5028 60.7611 22.1878C60.7611 19.0355 60.4694 16.2914 59.8931 14.0351C59.8237 13.7653 59.6603 13.5292 59.4323 13.3692C59.2043 13.2092 58.9255 13.1359 58.6482 13.1624ZM46.9886 54.8836C42.3359 59.786 37.3892 62.2686 35.0944 63.2405C32.7984 62.2686 27.8541 59.7871 23.2002 54.8836C15.6099 46.8873 11.7611 35.8868 11.7611 22.189C11.7611 19.7156 11.9594 17.4511 12.3386 15.5739C13.3524 15.6486 14.3557 15.6871 15.3299 15.6871C24.7041 15.6871 31.1581 12.2933 35.0932 9.19928C39.0284 12.2921 45.4824 15.6871 54.8566 15.6871C55.8319 15.6871 56.8341 15.6498 57.8491 15.5739C58.2271 17.4488 58.4254 19.7121 58.4254 22.189C58.4254 35.8868 54.5766 46.8873 46.9862 54.8836H46.9886Z" fill="#F57A00"/>
<path d="M50.2618 26.224C49.9524 26.224 49.6556 26.3469 49.4368 26.5657C49.218 26.7845 49.0951 27.0812 49.0951 27.3906V34.8456L44.2616 26.791C44.1302 26.5724 43.9308 26.4029 43.6939 26.3085C43.4571 26.214 43.1958 26.1998 42.95 26.2679C42.7043 26.3361 42.4876 26.4829 42.3332 26.6858C42.1789 26.8888 42.0952 27.1368 42.0951 27.3918V39.0585C42.0951 39.3679 42.218 39.6646 42.4368 39.8834C42.6556 40.1022 42.9524 40.2251 43.2618 40.2251C43.5712 40.2251 43.868 40.1022 44.0868 39.8834C44.3055 39.6646 44.4285 39.3679 44.4285 39.0585V31.6035L49.262 39.6581C49.3928 39.8776 49.5922 40.0479 49.8293 40.143C50.0664 40.238 50.3283 40.2525 50.5744 40.1843C50.8206 40.116 51.0376 39.9687 51.1919 39.7651C51.3462 39.5615 51.4293 39.3128 51.4285 39.0573V27.3906C51.4285 27.0812 51.3055 26.7845 51.0868 26.5657C50.868 26.3469 50.5712 26.224 50.2618 26.224ZM32.7618 39.0573V35.5573H35.0951C37.6688 35.5573 39.7618 33.4643 39.7618 30.8906C39.7618 28.317 37.6688 26.224 35.0951 26.224H31.5951C31.2857 26.224 30.989 26.3469 30.7702 26.5657C30.5514 26.7845 30.4285 27.0812 30.4285 27.3906V39.0573C30.4285 39.3667 30.5514 39.6635 30.7702 39.8823C30.989 40.101 31.2857 40.224 31.5951 40.224C31.9046 40.224 32.2013 40.101 32.4201 39.8823C32.6389 39.6635 32.7618 39.3667 32.7618 39.0573ZM32.7618 28.5573H35.0951C36.382 28.5573 37.4285 29.6038 37.4285 30.8906C37.4285 32.1775 36.382 33.224 35.0951 33.224H32.7618V28.5573ZM23.4285 40.224C23.943 40.224 24.398 39.8856 24.5461 39.3921L28.0461 27.7255C28.12 27.4337 28.0783 27.1246 27.9298 26.8628C27.7813 26.601 27.5375 26.4066 27.2491 26.3202C26.9608 26.2338 26.6502 26.2621 26.3823 26.3992C26.1143 26.5362 25.9095 26.7715 25.8108 27.0558L23.4285 34.9973L21.0461 27.0558C21.0022 26.909 20.9297 26.7723 20.8329 26.6536C20.7361 26.5348 20.6169 26.4362 20.482 26.3636C20.3471 26.2909 20.1993 26.2454 20.0468 26.2299C19.8944 26.2144 19.7404 26.229 19.5936 26.273C19.4469 26.3169 19.3102 26.3894 19.1914 26.4862C19.0726 26.583 18.9741 26.7022 18.9014 26.8371C18.8287 26.972 18.7833 27.1198 18.7677 27.2723C18.7522 27.4247 18.7668 27.5787 18.8108 27.7255L22.3108 39.3921C22.459 39.8856 22.914 40.224 23.4285 40.224ZM49.0951 43.724H21.0951C20.7857 43.724 20.489 43.8469 20.2702 44.0657C20.0514 44.2845 19.9285 44.5812 19.9285 44.8906C19.9285 45.2 20.0514 45.4968 20.2702 45.7156C20.489 45.9344 20.7857 46.0573 21.0951 46.0573H49.0951C49.4046 46.0573 49.7013 45.9344 49.9201 45.7156C50.1389 45.4968 50.2618 45.2 50.2618 44.8906C50.2618 44.5812 50.1389 44.2845 49.9201 44.0657C49.7013 43.8469 49.4046 43.724 49.0951 43.724ZM50.2618 20.3906H19.9285C19.619 20.3906 19.3223 20.5135 19.1035 20.7323C18.8847 20.9511 18.7618 21.2479 18.7618 21.5573C18.7618 21.8667 18.8847 22.1635 19.1035 22.3823C19.3223 22.601 19.619 22.724 19.9285 22.724H50.2618C50.5712 22.724 50.868 22.601 51.0868 22.3823C51.3055 22.1635 51.4285 21.8667 51.4285 21.5573C51.4285 21.2479 51.3055 20.9511 51.0868 20.7323C50.868 20.5135 50.5712 20.3906 50.2618 20.3906Z" fill="#F57A00"/>
</g>
<defs>
<clipPath id="clip0_809_7373">
<rect width="70" height="70" fill="white" transform="translate(0.09375 0.557617)"/>
</clipPath>
</defs>
</svg>
