<svg width="71" height="71" viewBox="0 0 71 71" fill="none" xmlns="http://www.w3.org/2000/svg">
<path fill-rule="evenodd" clip-rule="evenodd" d="M4.06305 48.7816C4.06305 43.0943 8.22572 38.3646 13.708 37.4159C14.1916 32.4495 16.9717 28.1412 20.9877 25.545V17.6121H7.09735C6.84253 17.6121 6.59815 17.5109 6.41797 17.3307C6.23779 17.1505 6.13656 16.9061 6.13656 16.6513V9.51051C4.40015 9.08008 3.11133 7.51002 3.11133 5.64129C3.11133 3.44137 4.89743 1.65527 7.09735 1.65527C9.29727 1.65527 11.0834 3.44137 11.0834 5.64129C11.0834 7.51002 9.79468 9.08008 8.05813 9.51051V15.6905H21.9485C22.2033 15.6905 22.4477 15.7918 22.6278 15.972C22.808 16.1521 22.9093 16.3965 22.9093 16.6513V24.4795C25.0125 23.4929 27.3645 22.9405 29.846 22.9405C29.927 22.9405 30.0077 22.9412 30.0884 22.9423V9.48031C28.4102 9.01049 27.1777 7.46871 27.1777 5.64129C27.1777 3.44137 28.9638 1.65527 31.1638 1.65527C33.3637 1.65527 35.1498 3.44137 35.1498 5.64129C35.1498 7.55092 33.804 9.14871 32.0099 9.53714V23.0824C34.2842 23.382 36.4692 24.1603 38.4207 25.3659V16.6513C38.4207 16.3965 38.5219 16.1521 38.7021 15.972C38.8823 15.7918 39.1267 15.6905 39.3815 15.6905H53.2718V9.51051C51.5354 9.08008 50.2466 7.51002 50.2466 5.64129C50.2466 3.44137 52.0327 1.65527 54.2326 1.65527C56.4325 1.65527 58.2186 3.44137 58.2186 5.64129C58.2186 7.51002 56.9299 9.08008 55.1934 9.51051V16.6513C55.1934 16.9061 55.0922 17.1505 54.912 17.3307C54.7318 17.5109 54.4874 17.6121 54.2326 17.6121H40.3423V26.7558C40.9439 27.2616 41.508 27.8105 42.0301 28.398C43.3423 27.9603 44.7166 27.7378 46.0998 27.7392C53.1222 27.7392 58.8177 33.3768 58.8177 40.3134C58.8177 40.4789 58.8144 40.6436 58.808 40.8076C63.5038 41.5923 67.0762 45.6331 67.0762 50.4951V50.4954C67.0762 55.9185 62.6314 60.3206 57.1413 60.3206H52.8747V60.7873C52.8747 62.493 51.4894 63.8783 49.7839 63.8783H41.8433C41.9569 65.5207 42.4383 67.1801 42.9782 67.9436C43.0799 68.0875 43.14 68.2565 43.1521 68.4322C43.1642 68.6079 43.1278 68.7835 43.0468 68.9399C42.9658 69.0964 42.8434 69.2275 42.693 69.3191C42.5425 69.4107 42.3698 69.4591 42.1937 69.4592H31.9707C31.7945 69.4592 31.6218 69.4108 31.4713 69.3192C31.3208 69.2276 31.1984 69.0965 31.1174 68.94C31.0365 68.7836 31.0001 68.6079 31.0122 68.4322C31.0243 68.2565 31.0846 68.0874 31.1863 67.9436C31.726 67.1804 32.1679 65.5203 32.2614 63.8783H24.3805C22.675 63.8783 21.2896 62.493 21.2896 60.7873V60.3206H15.7326C9.28533 60.3206 4.06443 55.1527 4.06305 48.7845M5.98462 48.7819C5.98462 54.0965 10.3522 58.3991 15.7326 58.3991H21.2896V43.7607C21.2896 42.0526 22.675 40.6698 24.3805 40.6698H50.3497C51.7438 40.6698 52.8747 41.8008 52.8747 43.1949V58.3991H57.1413C61.5637 58.3991 65.1547 54.8638 65.1547 50.4954C65.1547 50.7006 65.1547 50.7324 65.1547 50.4954V50.4951C65.1547 46.3167 61.8689 42.8996 57.713 42.6112C57.5833 42.6022 57.4569 42.567 57.3412 42.5077C57.2256 42.4485 57.1231 42.3664 57.0401 42.2664C56.9571 42.1664 56.8953 42.0506 56.8583 41.926C56.8214 41.8014 56.81 41.6706 56.8251 41.5415C56.872 41.1386 56.8962 40.7287 56.8962 40.3134C56.8962 34.4308 52.0552 29.6608 46.0998 29.6608C44.6816 29.6608 43.3267 29.9309 42.0854 30.4225C41.8956 30.4977 41.6869 30.5105 41.4894 30.459C41.2919 30.4075 41.1159 30.2945 40.987 30.1362C40.3335 29.3349 39.5951 28.6067 38.7847 27.9644C36.545 26.1886 33.8252 25.1233 30.9752 24.9056C30.6025 24.8767 30.226 24.8621 29.846 24.8621C27.1368 24.8621 24.6026 25.6075 22.4426 26.9024C18.4951 29.269 15.7962 33.4704 15.5697 38.3059C15.5589 38.5357 15.4661 38.754 15.308 38.9211C15.15 39.0883 14.9372 39.1931 14.7084 39.2167C9.80882 39.7209 5.98462 43.8085 5.98462 48.7786V48.7819ZM4.06305 48.7845V48.7816C4.06305 48.7816 4.0636 48.9872 4.06305 48.7845ZM7.09735 7.70574C8.23684 7.70574 9.1618 6.78065 9.1618 5.64129C9.1618 4.50194 8.23684 3.57684 7.09735 3.57684C5.95799 3.57684 5.0329 4.50194 5.0329 5.64129C5.0329 6.78065 5.95799 7.70574 7.09735 7.70574ZM54.2326 7.70574C55.3721 7.70574 56.2971 6.78065 56.2971 5.64129C56.2971 4.50194 55.3721 3.57684 54.2326 3.57684C53.0933 3.57684 52.1682 4.50194 52.1682 5.64129C52.1682 6.78065 53.0933 7.70574 54.2326 7.70574ZM24.3805 61.9567H49.7839C50.4291 61.9567 50.9532 61.4325 50.9532 60.7873V58.0705H23.2112V60.7873C23.2112 61.4325 23.7353 61.9567 24.3805 61.9567ZM34.1823 63.8783C34.111 65.1784 33.8394 66.4956 33.4783 67.5376H40.6721C40.2971 66.4955 40.0045 65.1779 39.9209 63.8783H34.1823ZM50.9532 56.1489V43.1949C50.9531 43.0349 50.8895 42.8814 50.7764 42.7682C50.6632 42.655 50.5097 42.5914 50.3497 42.5914H24.3805C24.0704 42.5914 23.773 42.7147 23.5537 42.9339C23.3345 43.1532 23.2112 43.4506 23.2112 43.7607V56.1489H50.9532ZM31.1638 3.57684C30.0244 3.57684 29.0993 4.50194 29.0993 5.64129C29.0993 6.78065 30.0244 7.70574 31.1638 7.70574C32.3031 7.70574 33.2282 6.78065 33.2282 5.64129C33.2282 4.50194 32.3031 3.57684 31.1638 3.57684Z" fill="#F57A00"/>
</svg>
