<svg width="71" height="71" viewBox="0 0 71 71" fill="none" xmlns="http://www.w3.org/2000/svg">
<g clip-path="url(#clip0_809_7368)">
<path d="M38.2758 68.297C38.849 67.7237 39.2409 67.0175 39.4243 66.2484C40.0589 66.5926 40.7694 66.7728 41.4913 66.7725C42.5995 66.7725 43.7077 66.3506 44.5514 65.5069C45.2372 64.8212 45.6634 63.9455 45.7831 62.9987C45.7584 63.1972 47.1019 63.1622 47.2363 63.1608C48.1903 63.1509 49.2768 62.8539 49.9369 62.126C50.3047 61.7205 50.5422 61.2189 50.7544 60.7197C50.8178 60.5706 51.3536 59.1518 51.2232 59.1267C51.4943 59.1792 51.7722 59.2064 52.0546 59.2064C53.2107 59.2064 54.2974 58.7562 55.1147 57.9387C56.8021 56.2513 56.8021 53.5058 55.1147 51.8184L54.7727 51.4763C55.9356 49.9791 56.4611 48.0473 56.1877 46.1525C56.1386 45.807 56.1704 45.4548 56.2805 45.1237C56.3906 44.7925 56.5761 44.4914 56.8224 44.2442L58.9297 42.1366L60.2666 43.4735C60.6907 43.8976 61.2545 44.1311 61.8542 44.1311C62.4538 44.1311 63.0176 43.8976 63.4417 43.4735L69.1653 37.75C70.0406 36.8746 70.0406 35.4503 69.1652 34.5749L54.0835 19.4936C53.6595 19.0695 53.0955 18.8359 52.4959 18.8359C51.8962 18.8359 51.3324 19.0695 50.9083 19.4936L45.1849 25.217C44.3096 26.0923 44.3094 27.5168 45.1849 28.3922L46.5217 29.729L45.3012 30.9494C45.0339 31.218 44.7028 31.4143 44.3388 31.5197C43.9748 31.6252 43.59 31.6363 43.2205 31.5521L39.7815 30.7779C37.6687 30.3023 35.5127 30.6007 33.658 31.5713C32.114 31.0136 30.4608 30.8895 28.8393 31.2168L26.9536 31.5973C26.5906 31.671 26.2151 31.6535 25.8605 31.5465C25.506 31.4395 25.1835 31.2463 24.9219 30.9841L23.667 29.7291L25.0038 28.3923C25.8791 27.5169 25.8791 26.0926 25.0037 25.2173L19.2805 19.4936C18.8565 19.0695 18.2926 18.8359 17.6929 18.8359C17.0933 18.8359 16.5294 19.0695 16.1053 19.4936L1.02375 34.575C0.148335 35.4504 0.148335 36.8749 1.02375 37.7502L6.74707 43.4735C6.95506 43.6826 7.20247 43.8484 7.47498 43.9613C7.74749 44.0742 8.03968 44.1319 8.33464 44.1311C8.93443 44.1311 9.49826 43.8976 9.92222 43.4735L11.2591 42.1366L13.3666 44.2443C13.6128 44.4916 13.7983 44.7926 13.9084 45.1237C14.0185 45.4548 14.0502 45.807 14.0011 46.1525C13.8644 47.099 13.8366 47.8455 14.0727 48.7045L11.8665 50.9106C10.246 52.5311 10.246 55.1679 11.8665 56.7882C12.4199 57.3426 13.1196 57.7281 13.8838 57.8999C13.2409 59.4141 13.5349 61.2346 14.7677 62.4673C15.5527 63.2523 16.5963 63.6846 17.7064 63.6846C18.0776 63.6846 18.4412 63.6353 18.7903 63.5415C18.9213 64.4185 19.3309 65.2302 19.9585 65.8567C20.7687 66.6669 21.833 67.0721 22.8974 67.0721C23.2258 67.0721 23.554 67.0333 23.8751 66.9562C23.994 67.8597 24.4081 68.6986 25.053 69.3424C25.8632 70.1526 26.9276 70.5579 27.9918 70.5579C29.0561 70.5579 30.1205 70.1528 30.9307 69.3424L32.0657 68.2074L32.1552 68.2968C32.9726 69.1143 34.0594 69.5645 35.2153 69.5645C36.3717 69.5646 37.4585 69.1144 38.2758 68.297ZM52.4959 21.081L67.5775 36.1626L61.854 41.8859L46.7724 26.8045L52.4959 21.081ZM39.2883 32.968L42.7272 33.7422C44.2379 34.0825 45.7937 33.6319 46.8888 32.5367L48.1091 31.3163L57.3419 40.5489L55.2345 42.6563C54.2385 43.652 53.764 45.079 53.9652 46.4731C54.1379 47.6694 53.8423 48.8873 53.1672 49.871L39.8345 36.5383C39.6395 36.3433 39.3795 36.2269 39.1042 36.2113C38.8289 36.1957 38.5575 36.282 38.3417 36.4537L34.5517 39.4699C34.3647 39.6187 34.2301 39.8233 34.1674 40.0539C34.1048 40.2845 34.1174 40.5291 34.2033 40.7521L34.5049 41.5343C34.8281 42.3686 34.8307 43.2932 34.5121 44.1293C34.1935 44.9655 33.5763 45.6539 32.7798 46.0616L32.5261 46.192L29.4127 40.0499C29.2517 39.7334 29.1951 39.374 29.251 39.0233C29.3069 38.6726 29.4725 38.3486 29.724 38.0978L33.046 34.776C34.6887 33.1338 37.0222 32.4579 39.2883 32.968ZM8.33478 41.8859L2.61132 36.1626L17.6928 21.0811L23.417 26.8036L8.33478 41.8859ZM13.4542 52.4983L16.4518 49.5007C16.8127 49.1398 17.2926 48.941 17.803 48.941C18.3133 48.941 18.7934 49.1398 19.1542 49.5007C19.8993 50.2458 19.8993 51.4583 19.1542 52.2032L16.1566 55.2008C15.4113 55.9461 14.1991 55.9459 13.4541 55.2008C12.7091 54.4557 12.7091 53.2434 13.4542 52.4983ZM16.3554 60.8798C16.1774 60.7028 16.0363 60.4922 15.9402 60.2603C15.8441 60.0284 15.795 59.7797 15.7957 59.5286C15.7957 59.0181 15.9944 58.5382 16.3554 58.1773L21.5463 52.9864C21.7237 52.8088 21.9343 52.668 22.1662 52.5721C22.3981 52.4763 22.6467 52.4271 22.8977 52.4276C23.387 52.4276 23.8763 52.6138 24.2488 52.9864C24.994 53.7315 24.994 54.9439 24.2488 55.6889L19.0579 60.8798C18.697 61.2408 18.2171 61.4395 17.7067 61.4395C17.1963 61.4395 16.7163 61.2408 16.3554 60.8798ZM21.5463 64.2692C21.1854 63.9083 20.9866 63.4284 20.9866 62.918C20.9866 62.4077 21.1854 61.9276 21.5463 61.5668L24.4958 58.6174C24.6731 58.4398 24.8838 58.2991 25.1157 58.2032C25.3476 58.1073 25.5961 58.0582 25.8471 58.0586C26.3364 58.0586 26.8257 58.2448 27.1983 58.6174C27.9434 59.3625 27.9434 60.5749 27.1983 61.3199L26.3955 62.1227L24.2488 64.2694C24.0718 64.4474 23.8612 64.5885 23.6293 64.6846C23.3974 64.7806 23.1487 64.8298 22.8977 64.8291C22.6466 64.8297 22.3979 64.7806 22.1659 64.6845C21.934 64.5884 21.7234 64.4472 21.5463 64.2692ZM30.6841 66.4143L29.3434 67.755C28.5981 68.5003 27.3859 68.5001 26.6409 67.755C25.896 67.0102 25.8959 65.7984 26.6402 65.0533L27.9825 63.7111C28.1598 63.5338 28.3703 63.3932 28.602 63.2975C28.8338 63.2017 29.0821 63.1526 29.3329 63.153C29.8223 63.153 30.3116 63.3393 30.6842 63.7118C31.4292 64.4568 31.4292 65.6692 30.6841 66.4143ZM33.3074 66.2738C33.7377 64.8527 33.3929 63.2453 32.2716 62.1241C31.6278 61.4792 30.7889 61.0651 29.8853 60.9463C30.2125 59.5852 29.8462 58.0899 28.786 57.0297C28.2264 56.4692 27.5174 56.0815 26.7436 55.9127C27.3567 54.4095 27.0546 52.6171 25.8364 51.3989C24.7762 50.3387 23.2809 49.9725 21.9198 50.2997C21.8009 49.3961 21.3868 48.5572 20.7419 47.9133C19.9568 47.1282 18.9133 46.6959 17.8031 46.6959C17.2271 46.6959 16.6694 46.8134 16.156 47.035C16.1703 46.8668 16.1932 46.6829 16.2235 46.4736C16.4247 45.0795 15.9503 43.6527 14.9544 42.6569L12.8469 40.5493L22.0797 31.3167L23.3346 32.5717C23.8577 33.096 24.5027 33.4825 25.2118 33.6966C25.9209 33.9106 26.672 33.9455 27.3979 33.7982L29.2836 33.4177C29.9549 33.2828 30.6429 33.2514 31.3236 33.3244L28.1369 36.5111C27.55 37.0961 27.1637 37.8521 27.0332 38.6704C26.9027 39.4887 27.0348 40.3273 27.4106 41.0659L30.524 47.2079C30.657 47.4723 30.8414 47.7076 31.0664 47.9C31.2913 48.0924 31.5523 48.2381 31.8341 48.3286C32.1155 48.4207 32.4124 48.4559 32.7074 48.4321C33.0025 48.4083 33.2899 48.3259 33.5528 48.1899L33.8066 48.0594C35.0965 47.3991 36.096 46.2843 36.6119 44.9301C37.1279 43.576 37.1237 42.0787 36.6003 40.7275L36.5952 40.7142L38.9561 38.8352L53.5274 53.4065C54.3394 54.2185 54.3394 55.5397 53.5274 56.3517C52.825 57.0542 51.7335 57.1382 50.9064 56.6068C50.2806 56.2049 48.1121 53.8929 47.5448 53.329L44.3663 50.17L44.1934 49.9981C43.7537 49.561 43.0429 49.5632 42.6058 50.003C42.1687 50.4429 42.1709 51.1535 42.6107 51.5906L48.3863 57.3309C48.5803 57.5238 48.7341 57.7533 48.8388 58.0061C48.9435 58.2589 48.9971 58.53 48.9963 58.8036C48.9963 59.3979 48.6683 59.9459 48.3105 60.3978C47.6022 61.292 46.1661 61.0012 45.4442 60.2794L39.1474 53.9329C38.9365 53.7269 38.6532 53.6122 38.3585 53.6133C38.0638 53.6144 37.7813 53.7314 37.5721 53.939C37.3629 54.1466 37.2437 54.4281 37.2402 54.7228C37.2367 55.0175 37.3492 55.3017 37.5535 55.5142L42.8924 60.8951C42.9149 60.9225 42.9387 60.9491 42.9643 60.9747C43.3576 61.368 43.5743 61.891 43.5743 62.4473C43.5743 63.0036 43.3576 63.5266 42.9643 63.9199C42.1523 64.7319 40.831 64.7319 40.0191 63.9199L34.4438 58.3446C34.2322 58.1397 33.9484 58.0262 33.6538 58.0286C33.3592 58.031 33.0773 58.1491 32.869 58.3574C32.6607 58.5657 32.5426 58.8476 32.5402 59.1422C32.5378 59.4368 32.6513 59.7206 32.8562 59.9322L36.6887 63.7647C37.5007 64.5767 37.5007 65.8979 36.6887 66.7099C36.2954 67.1033 35.7725 67.32 35.2161 67.32C34.6598 67.32 34.1369 67.1033 33.7435 66.7099L33.3074 66.2738Z" fill="#F57A00"/>
<path d="M35.8251 18.519V1.68021C35.8251 1.0602 35.3225 0.557617 34.7025 0.557617C34.0825 0.557617 33.5799 1.0602 33.5799 1.68021V18.519C33.5799 19.1391 34.0825 19.6416 34.7025 19.6416C35.3225 19.6416 35.8251 19.1391 35.8251 18.519ZM28.5764 21.8387C28.7956 22.0579 29.0829 22.1675 29.3702 22.1675C29.6574 22.1675 29.9448 22.0579 30.164 21.8387C30.2682 21.7345 30.3509 21.6107 30.4074 21.4745C30.4638 21.3383 30.4928 21.1923 30.4928 21.0449C30.4928 20.8975 30.4638 20.7515 30.4074 20.6153C30.3509 20.4791 30.2682 20.3554 30.164 20.2511L19.4994 9.58652C19.2877 9.3816 19.004 9.26808 18.7094 9.27047C18.4147 9.27285 18.1329 9.39094 17.9245 9.59927C17.7162 9.8076 17.5981 10.0895 17.5957 10.3841C17.5934 10.6787 17.7069 10.9624 17.9118 11.1741L28.5764 21.8387ZM40.8286 21.8387L51.4932 11.1741C51.6981 10.9624 51.8116 10.6787 51.8093 10.3841C51.8069 10.0895 51.6888 9.8076 51.4805 9.59927C51.2721 9.39094 50.9903 9.27285 50.6957 9.27047C50.401 9.26808 50.1173 9.3816 49.9056 9.58652L39.241 20.2511C39.1368 20.3554 39.0541 20.4791 38.9976 20.6153C38.9412 20.7515 38.9122 20.8975 38.9122 21.0449C38.9122 21.1923 38.9412 21.3383 38.9976 21.4745C39.0541 21.6107 39.1368 21.7345 39.241 21.8387C39.3451 21.9431 39.4689 22.0259 39.6051 22.0823C39.7413 22.1388 39.8874 22.1677 40.0348 22.1675C40.1823 22.1677 40.3283 22.1387 40.4645 22.0823C40.6007 22.0259 40.7245 21.9431 40.8286 21.8387Z" fill="#F57A00"/>
</g>
<defs>
<clipPath id="clip0_809_7368">
<rect width="70" height="70" fill="white" transform="translate(0.09375 0.557617)"/>
</clipPath>
</defs>
</svg>
