<svg width="71" height="71" viewBox="0 0 71 71" fill="none" xmlns="http://www.w3.org/2000/svg">
<mask id="mask0_809_7346" style="mask-type:luminance" maskUnits="userSpaceOnUse" x="0" y="0" width="71" height="71">
<path d="M0.09375 0.557617H70.0938V70.5576H0.09375V0.557617Z" fill="white"/>
</mask>
<g mask="url(#mask0_809_7346)">
<path d="M20.0548 1.92453L5.01562 16.9635C5.01562 39.978 8.86426 62.1624 35.0938 69.1904C61.3232 62.1624 65.1719 39.978 65.1719 16.9635L50.1328 1.92453H20.0548Z" stroke="#F57A00" stroke-width="3" stroke-miterlimit="22.926" stroke-linecap="round" stroke-linejoin="round"/>
<path d="M35.0937 61.3977C36.7881 61.3977 38.1699 60.0159 38.1699 58.3215C38.1699 56.6272 36.7881 55.2454 35.0937 55.2454C33.3994 55.2454 32.0176 56.6272 32.0176 58.3215C32.0176 60.0159 33.3994 61.3977 35.0937 61.3977Z" stroke="#F57A00" stroke-width="3" stroke-miterlimit="22.926" stroke-linecap="round" stroke-linejoin="round"/>
<path d="M21.8244 52.9895C23.5187 52.9895 24.9004 51.6077 24.9004 49.9133C24.9004 48.219 23.5187 46.8372 21.8244 46.8372C20.13 46.8372 18.748 48.219 18.748 49.9133C18.748 51.6077 20.13 52.9895 21.8244 52.9895Z" stroke="#F57A00" stroke-width="3" stroke-miterlimit="22.926" stroke-linecap="round" stroke-linejoin="round"/>
<path d="M48.3633 52.9895C50.0576 52.9895 51.4395 51.6077 51.4395 49.9133C51.4395 48.219 50.0576 46.8372 48.3633 46.8372C46.6689 46.8372 45.2871 48.219 45.2871 49.9133C45.2871 51.6077 46.6689 52.9895 48.3633 52.9895Z" stroke="#F57A00" stroke-width="3" stroke-miterlimit="22.926" stroke-linecap="round" stroke-linejoin="round"/>
<path d="M35.0938 54.7664V39.5909" stroke="#F57A00" stroke-width="3" stroke-miterlimit="22.926" stroke-linecap="round" stroke-linejoin="round"/>
<path d="M24.1953 47.542L27.0701 44.6671V39.7963" stroke="#F57A00" stroke-width="3" stroke-miterlimit="22.926" stroke-linecap="round" stroke-linejoin="round"/>
<path d="M46.0945 47.6445L43.1172 44.6671V39.7963" stroke="#F57A00" stroke-width="3" stroke-miterlimit="22.926" stroke-linecap="round" stroke-linejoin="round"/>
<path d="M35.0938 8.18164V8.18068" stroke="#F57A00" stroke-width="3" stroke-miterlimit="22.926" stroke-linecap="round" stroke-linejoin="round"/>
<path d="M24.1562 10.916V10.9151" stroke="#F57A00" stroke-width="3" stroke-miterlimit="22.926" stroke-linecap="round" stroke-linejoin="round"/>
<path d="M46.0312 10.916V10.9151" stroke="#F57A00" stroke-width="3" stroke-miterlimit="22.926" stroke-linecap="round" stroke-linejoin="round"/>
<path d="M35.0938 8.67505V16.5535" stroke="#F57A00" stroke-width="3" stroke-miterlimit="22.926" stroke-linecap="round" stroke-linejoin="round"/>
<path d="M24.1562 11.4094V16.5535" stroke="#F57A00" stroke-width="3" stroke-miterlimit="22.926" stroke-linecap="round" stroke-linejoin="round"/>
<path d="M46.0312 11.4094V16.5535" stroke="#F57A00" stroke-width="3" stroke-miterlimit="22.926" stroke-linecap="round" stroke-linejoin="round"/>
<path d="M22.4102 22.7061H25.1445C26.6484 22.7061 27.8789 23.9364 27.8789 25.4404V30.9092C27.8789 32.4131 26.6484 33.6436 25.1445 33.6436H22.4102V22.7061Z" stroke="#F57A00" stroke-width="3" stroke-miterlimit="22.926" stroke-linecap="round" stroke-linejoin="round"/>
<path d="M32.6641 33.6436V22.7061L38.1328 33.6436V22.7061" stroke="#F57A00" stroke-width="3" stroke-miterlimit="22.926" stroke-linecap="round" stroke-linejoin="round"/>
<path d="M47.4446 23.2107L46.7036 22.9096C45.312 22.3441 43.7018 22.9982 43.1254 24.3636C42.5489 25.7287 43.2159 27.3082 44.6075 27.8737L45.3486 28.1749L46.0896 28.476C47.4813 29.0413 48.1482 30.6209 47.5718 31.9861C46.9954 33.3514 45.3851 34.0056 43.9935 33.4401L43.2524 33.139" stroke="#F57A00" stroke-width="3" stroke-miterlimit="22.926" stroke-linecap="round" stroke-linejoin="round"/>
</g>
</svg>
