<svg xmlns="http://www.w3.org/2000/svg" width="80" height="63" viewBox="0 0 80 63" fill="none"><path d="M70.1837 40.9464C69.9242 40.7752 69.6074 40.7139 69.3028 40.7762C68.9983 40.8385 68.7309 41.0191 68.5594 41.2784L64.0979 48.0306L61.8023 45.8566C61.6883 45.7487 61.5539 45.6647 61.4069 45.6098C61.26 45.5548 61.1035 45.5299 60.9467 45.5366C60.7899 45.5432 60.6361 45.5813 60.4943 45.6485C60.3525 45.7158 60.2257 45.8108 60.1213 45.928C59.6941 46.4072 59.7607 47.1513 60.2263 47.5925L63.2196 50.4263C63.8952 51.0666 64.9841 50.9408 65.4968 50.1652L70.5151 42.5705C70.6862 42.3111 70.7475 41.9944 70.6853 41.6899C70.6232 41.3854 70.4428 41.118 70.1837 40.9464Z" fill="white"></path><path d="M78.5906 38.5114C76.3384 37.58 74.8053 35.4919 74.5898 33.0628C74.5025 32.0739 73.6578 31.305 72.6636 31.305H72.6501L56.5173 31.4197C56.4478 31.4203 56.3793 31.4245 56.3117 31.4319H47.0203V23.2984H67.0148V26.9117C67.0148 27.2225 67.1383 27.5206 67.358 27.7403C67.5778 27.9601 67.8759 28.0836 68.1867 28.0836C68.8342 28.0836 69.3586 27.5594 69.3586 26.9117V3.09078C69.3586 1.38672 67.9718 0 66.2676 0H3.09078C1.38672 0 0 1.38672 0 3.09078V51.6387C0 53.3434 1.38672 54.7301 3.09078 54.7301H49.577C49.8878 54.7301 50.1859 54.6067 50.4057 54.3869C50.6254 54.1671 50.7489 53.8691 50.7489 53.5583C50.7489 52.9108 50.2245 52.3864 49.577 52.3864H47.0203V44.2531H49.8504C51.0265 49.5083 54.4201 58.2973 64.1551 62.7729C64.3601 62.8666 64.583 62.9144 64.8083 62.9128C65.0337 62.9112 65.2559 62.8603 65.4595 62.7637C77.6098 56.9667 79.6532 44.5028 79.9903 40.8211C80.0812 39.8237 79.519 38.8953 78.5906 38.5114ZM44.6765 31.4319H24.682V23.2984H44.6765V31.4319ZM33.5078 41.9092H13.5125V33.7756H33.5078V41.9092ZM13.5125 12.8211H33.5078V20.9545H13.5125V12.8211ZM55.8459 12.8211V20.9545H35.8508V12.8211H55.8459ZM67.0147 20.9545H58.1897V12.8211H67.0147V20.9545ZM66.2679 2.34375C66.466 2.344 66.6558 2.42279 66.7958 2.56283C66.9359 2.70288 67.0146 2.89275 67.0148 3.09078V10.4773H47.0203V2.34375H66.2679ZM44.6765 2.34375V10.4773H24.682V2.34375H44.6765ZM2.34375 3.09078C2.34396 2.89272 2.42273 2.70283 2.56278 2.56278C2.70283 2.42273 2.89272 2.34396 3.09078 2.34375H22.3383V10.4773H2.34375V3.09078ZM2.34375 12.8211H11.1687V20.9545H2.34375V12.8211ZM2.34375 23.2983H22.3383V31.4319H2.34375V23.2983ZM2.34375 33.7756H11.1687V41.9092H2.34375V33.7756ZM22.3383 52.3865H3.09062C2.89244 52.3862 2.70247 52.3073 2.56244 52.1671C2.4224 52.0268 2.34375 51.8368 2.34375 51.6386V44.2526H22.3383V52.3865ZM44.6765 52.3865H24.682V44.253H44.6765V52.3865ZM35.8515 41.9092V33.7756H54.5348C54.179 35.9662 52.7386 37.8272 50.6739 38.7134C49.7547 39.1076 49.2078 40.0426 49.3133 41.0394C49.3401 41.2903 49.3756 41.582 49.4214 41.9092H35.8515ZM64.7912 60.4822C55.7123 56.1297 52.8576 47.5451 51.9684 42.9364C51.9623 42.8855 51.9527 42.8351 51.9397 42.7856C51.8183 42.1426 51.7217 41.4951 51.6498 40.8447C54.552 39.5775 56.5362 36.8897 56.9029 33.7603L72.2973 33.6505C72.7093 36.7742 74.7307 39.4336 77.652 40.6592C77.3321 44.057 75.4687 55.1739 64.7912 60.4822Z" fill="white"></path></svg>