<svg xmlns="http://www.w3.org/2000/svg" width="80" height="80" viewBox="0 0 80 80" fill="none"><path d="M15.8653 23.1569L38.7224 11.7283C39.1194 11.5297 39.5571 11.4263 40.001 11.4263C40.4449 11.4263 40.8826 11.5297 41.2796 11.7283L64.1367 23.1569C65.1024 23.6426 65.7139 24.6312 65.7139 25.714C65.7139 40.334 58.9253 54.174 47.0853 63.6826L41.7882 67.9397C41.2653 68.3626 40.6339 68.5712 39.9996 68.5712C39.3653 68.5712 38.7339 68.3626 38.211 67.9397L32.9139 63.6826C21.0739 54.1712 14.2853 40.3312 14.2853 25.714C14.2853 24.6312 14.8967 23.6426 15.8653 23.1569ZM36.4882 59.2283L39.9996 62.0483L43.5082 59.2312C53.5139 51.194 59.4482 39.694 59.9653 27.4626L39.9996 17.4797L20.0367 27.4597C20.5539 39.6912 26.4882 51.1883 36.4882 59.2283Z" fill="white"></path><path d="M43.6943 35.1229C44.23 34.5871 44.9566 34.2861 45.7143 34.2861C46.4719 34.2861 47.1985 34.5871 47.7343 35.1229C48.27 35.6586 48.571 36.3852 48.571 37.1429C48.571 37.9005 48.27 38.6271 47.7343 39.1629L42.02 44.8771C41.7553 45.1434 41.4405 45.3547 41.0939 45.4988C40.7472 45.643 40.3755 45.7172 40 45.7172C39.6245 45.7172 39.2528 45.643 38.9061 45.4988C38.5595 45.3547 38.2447 45.1434 37.98 44.8771L26.5514 33.4486C26.2862 33.1833 26.0757 32.8684 25.9322 32.5218C25.7886 32.1752 25.7147 31.8037 25.7147 31.4286C25.7147 31.0534 25.7886 30.6819 25.9322 30.3354C26.0757 29.9888 26.2862 29.6738 26.5514 29.4086C26.8167 29.1433 27.1316 28.9329 27.4782 28.7893C27.8248 28.6458 28.1963 28.5719 28.5714 28.5719C28.9466 28.5719 29.3181 28.6458 29.6646 28.7893C30.0112 28.9329 30.3262 29.1433 30.5914 29.4086L40 38.8171L43.6943 35.1229ZM2.85714 0H22.8571C23.6149 0 24.3416 0.301019 24.8774 0.836838C25.4133 1.37266 25.7143 2.09938 25.7143 2.85714C25.7143 3.6149 25.4133 4.34163 24.8774 4.87745C24.3416 5.41327 23.6149 5.71429 22.8571 5.71429H5.71429V22.8571C5.71429 23.6149 5.41327 24.3416 4.87745 24.8774C4.34163 25.4133 3.6149 25.7143 2.85714 25.7143C2.09938 25.7143 1.37265 25.4133 0.83683 24.8774C0.301018 24.3416 0 23.6149 0 22.8571V2.85714C0 2.09938 0.301018 1.37266 0.83683 0.836838C1.37265 0.301019 2.09938 0 2.85714 0ZM77.1429 25.7143C76.3851 25.7143 75.6584 25.4133 75.1226 24.8774C74.5867 24.3416 74.2857 23.6149 74.2857 22.8571V5.71429H57.1429C56.3851 5.71429 55.6584 5.41327 55.1226 4.87745C54.5867 4.34163 54.2857 3.6149 54.2857 2.85714C54.2857 2.09938 54.5867 1.37266 55.1226 0.836838C55.6584 0.301019 56.3851 0 57.1429 0H77.1429C77.9006 0 78.6273 0.301019 79.1632 0.836838C79.699 1.37266 80 2.09938 80 2.85714V22.8571C80 23.6149 79.699 24.3416 79.1632 24.8774C78.6273 25.4133 77.9006 25.7143 77.1429 25.7143ZM57.1429 74.2857H74.2857V57.1429C74.2857 56.3851 74.5867 55.6584 75.1226 55.1226C75.6584 54.5867 76.3851 54.2857 77.1429 54.2857C77.9006 54.2857 78.6273 54.5867 79.1632 55.1226C79.699 55.6584 80 56.3851 80 57.1429V77.1429C80 77.9006 79.699 78.6273 79.1632 79.1632C78.6273 79.699 77.9006 80 77.1429 80H57.1429C56.3851 80 55.6584 79.699 55.1226 79.1632C54.5867 78.6273 54.2857 77.9006 54.2857 77.1429C54.2857 76.3851 54.5867 75.6584 55.1226 75.1226C55.6584 74.5867 56.3851 74.2857 57.1429 74.2857ZM2.85714 54.2857C3.6149 54.2857 4.34163 54.5867 4.87745 55.1226C5.41327 55.6584 5.71429 56.3851 5.71429 57.1429V74.2857H22.8571C23.6149 74.2857 24.3416 74.5867 24.8774 75.1226C25.4133 75.6584 25.7143 76.3851 25.7143 77.1429C25.7143 77.9006 25.4133 78.6273 24.8774 79.1632C24.3416 79.699 23.6149 80 22.8571 80H2.85714C2.09938 80 1.37265 79.699 0.83683 79.1632C0.301018 78.6273 0 77.9006 0 77.1429V57.1429C0 56.3851 0.301018 55.6584 0.83683 55.1226C1.37265 54.5867 2.09938 54.2857 2.85714 54.2857Z" fill="white"></path></svg>