<svg xmlns="http://www.w3.org/2000/svg" width="80" height="80" viewBox="0 0 80 80" fill="none"><g clip-path="url(#clip0_275_149)"><path d="M29.0337 71.3799C28.8817 71.3162 28.7185 71.2831 28.5537 71.2825C28.3888 71.282 28.2254 71.3139 28.0729 71.3764C27.9204 71.439 27.7817 71.531 27.6647 71.6472C27.5477 71.7634 27.4548 71.9015 27.3913 72.0536L24.5362 74.9086C24.355 75.0986 24.1488 75.1886 23.8587 74.8911C23.5848 74.6133 23.2585 74.3926 22.8987 74.2417C22.5388 74.0909 22.1527 74.0129 21.7625 74.0124C20.9655 74.0117 20.2008 74.3271 19.636 74.8895C19.0713 75.4519 18.7526 76.2154 18.75 77.0124C18.75 77.2874 18.5375 77.4999 18.2625 77.4999H14.2375C14.1732 77.5007 14.1095 77.4887 14.05 77.4645C13.9904 77.4403 13.9364 77.4044 13.8909 77.3589C13.8455 77.3135 13.8096 77.2594 13.7854 77.1999C13.7612 77.1404 13.7492 77.0766 13.75 77.0124C13.75 75.3586 12.3988 74.0124 10.7375 74.0124C10.3454 74.0134 9.9575 74.0923 9.59616 74.2445C9.23482 74.3966 8.90727 74.6189 8.6325 74.8986C8.39 75.1486 8.20375 75.1511 7.94625 74.8911L5.09125 72.0374C5.04804 71.993 5.01434 71.9403 4.9922 71.8825C4.97006 71.8247 4.95996 71.763 4.9625 71.7011C4.9625 71.6261 4.97875 71.4861 5.10875 71.3599C5.38657 71.0859 5.60729 70.7596 5.75813 70.3998C5.90896 70.0399 5.98693 69.6538 5.9875 69.2636C5.9875 67.6024 4.64125 66.2511 2.9875 66.2511C2.92325 66.2519 2.85948 66.2399 2.79995 66.2157C2.74043 66.1915 2.68635 66.1556 2.64091 66.1102C2.59548 66.0647 2.5596 66.0107 2.5354 65.9512C2.5112 65.8916 2.49916 65.8279 2.5 65.7636V61.7386C2.5 61.4636 2.7125 61.2511 2.9875 61.2511C4.64125 61.2511 5.9875 59.8999 5.9875 58.2386C5.98641 57.8465 5.90752 57.4586 5.75539 57.0973C5.60326 56.7359 5.38091 56.4084 5.10125 56.1336C5.0564 56.0896 5.02079 56.0371 4.99654 55.9791C4.97228 55.9212 4.95986 55.8589 4.96 55.7961C4.96 55.7211 4.9775 55.5774 5.10875 55.4474L7.08375 53.4724C7.20314 53.357 7.29837 53.2191 7.36388 53.0666C7.42939 52.9141 7.46387 52.7501 7.46531 52.5841C7.46676 52.4181 7.43513 52.2535 7.37228 52.0999C7.30943 51.9463 7.21661 51.8067 7.09924 51.6894C6.98188 51.572 6.84231 51.4792 6.68869 51.4163C6.53507 51.3535 6.37047 51.3218 6.2045 51.3233C6.03852 51.3247 5.8745 51.3592 5.72199 51.4247C5.56949 51.4902 5.43156 51.5855 5.31625 51.7048L3.34875 53.6724C3.06627 53.949 2.84209 54.2795 2.68944 54.6443C2.53679 55.009 2.45878 55.4007 2.46 55.7961C2.46 56.5999 2.77625 57.3549 3.34125 57.9099C3.38652 57.952 3.42282 58.0028 3.44795 58.0593C3.47308 58.1158 3.48654 58.1768 3.4875 58.2386C3.4875 58.4361 3.3525 58.7511 2.9875 58.7511C2.19569 58.7521 1.43657 59.067 0.876555 59.6268C0.316541 60.1866 0.00132293 60.9455 0 61.7374L0 65.7624C0.000992312 66.5544 0.316065 67.3137 0.876114 67.8737C1.43616 68.4338 2.19547 68.7489 2.9875 68.7499C3.3525 68.7499 3.4875 69.0649 3.4875 69.2624C3.4875 69.3461 3.4625 69.4699 3.3575 69.5749C3.07212 69.8499 2.84563 70.1801 2.69177 70.5454C2.53792 70.9107 2.45992 71.3035 2.4625 71.6999C2.4625 72.5236 2.78125 73.2824 3.34125 73.8211L6.17125 76.6511C7.29625 77.7949 9.29625 77.7899 10.4087 76.6586C10.4509 76.6133 10.5017 76.577 10.5582 76.5519C10.6147 76.5268 10.6757 76.5133 10.7375 76.5124C10.935 76.5124 11.25 76.6474 11.25 77.0124C11.251 77.8044 11.5661 78.5637 12.1261 79.1237C12.6862 79.6838 13.4455 79.9989 14.2375 79.9999H18.2625C19.0545 79.9989 19.8138 79.6838 20.3739 79.1237C20.9339 78.5637 21.249 77.8044 21.25 77.0124C21.25 76.6474 21.565 76.5124 21.7625 76.5124C21.8463 76.5124 21.97 76.5374 22.075 76.6424C23.195 77.8049 25.2512 77.7724 26.3212 76.6586L29.1587 73.8211C29.3966 73.5928 29.5862 73.319 29.7163 73.0161C29.842 72.7085 29.8408 72.3637 29.7129 72.057C29.585 71.7504 29.3408 71.5069 29.0337 71.3799Z" fill="white"></path><path d="M11.4471 59.5538C11.3048 59.4719 11.1477 59.4188 10.9849 59.3977C10.8221 59.3766 10.6568 59.3877 10.4983 59.4306C10.3398 59.4734 10.1913 59.5471 10.0614 59.6474C9.93138 59.7477 9.82245 59.8726 9.74081 60.015C9.0885 61.1562 8.7472 62.4486 8.75101 63.763C8.75482 65.0775 9.10362 66.3679 9.76253 67.5053C10.4214 68.6426 11.3674 69.5871 12.5058 70.2443C13.6442 70.9014 14.9351 71.2482 16.2496 71.25C17.8379 71.2505 19.3854 70.7472 20.6696 69.8125C20.9298 69.6151 21.1025 69.3237 21.1507 69.0006C21.1988 68.6775 21.1185 68.3484 20.9271 68.0838C20.7356 67.8191 20.4481 67.6399 20.1262 67.5845C19.8043 67.5292 19.4734 67.602 19.2046 67.7875C18.279 68.4636 17.1495 68.8015 16.0047 68.7448C14.86 68.6882 13.7694 68.2403 12.9152 67.4761C12.061 66.7119 11.4949 65.6776 11.3117 64.5462C11.1284 63.4148 11.339 62.2548 11.9083 61.26C12.0734 60.9726 12.1175 60.6313 12.031 60.3114C11.9445 59.9914 11.7344 59.7189 11.4471 59.5538ZM76.2495 0H43.7496C41.6821 0 39.9996 1.6825 39.9996 3.75V26.25C39.9995 26.4763 40.0609 26.6984 40.1772 26.8925C40.2935 27.0867 40.4603 27.2456 40.6598 27.3523C40.8594 27.4591 41.0842 27.5097 41.3102 27.4987C41.5362 27.4877 41.7551 27.4156 41.9433 27.29L49.1283 22.5H76.2495C78.317 22.5 79.9995 20.8175 79.9995 18.75V3.75C79.9995 1.6825 78.317 0 76.2495 0ZM77.4995 18.75C77.4995 19.0815 77.3679 19.3995 77.1334 19.6339C76.899 19.8683 76.5811 20 76.2495 20H48.7496C48.5033 20 48.2621 20.0737 48.0558 20.21L42.4996 23.915V3.75C42.4996 3.41848 42.6312 3.10054 42.8657 2.86612C43.1001 2.6317 43.418 2.5 43.7496 2.5H76.2495C76.5811 2.5 76.899 2.6317 77.1334 2.86612C77.3679 3.10054 77.4995 3.41848 77.4995 3.75V18.75Z" fill="white"></path><path d="M50 6.24976H47.5C47.1685 6.24976 46.8505 6.38146 46.6161 6.61588C46.3817 6.8503 46.25 7.16824 46.25 7.49976V14.9998C46.25 15.3313 46.3817 15.6492 46.6161 15.8836C46.8505 16.1181 47.1685 16.2498 47.5 16.2498H50C52.7575 16.2498 55 14.0073 55 11.2498C55 8.49226 52.7575 6.24976 50 6.24976ZM50 13.7498H48.75V8.74976H50C51.3787 8.74976 52.5 9.87101 52.5 11.2498C52.5 12.6285 51.3787 13.7498 50 13.7498ZM63.75 6.24976C63.4185 6.24976 63.1005 6.38146 62.8661 6.61588C62.6317 6.8503 62.5 7.16824 62.5 7.49976V10.871L59.79 6.80601C59.6417 6.58193 59.425 6.41168 59.1722 6.32056C58.9193 6.22944 58.6439 6.2223 58.3867 6.30022C58.1295 6.37814 57.9043 6.53694 57.7446 6.75305C57.5848 6.96916 57.499 7.23103 57.5 7.49976V14.9998C57.5 15.3313 57.6317 15.6492 57.8661 15.8836C58.1005 16.1181 58.4185 16.2498 58.75 16.2498C59.0815 16.2498 59.3995 16.1181 59.6339 15.8836C59.8683 15.6492 60 15.3313 60 14.9998V11.6285L62.71 15.6935C62.8588 15.9167 63.0756 16.0861 63.3281 16.1767C63.5807 16.2672 63.8556 16.2741 64.1124 16.1964C64.3692 16.1186 64.5941 15.9602 64.754 15.7447C64.9138 15.5293 65.0001 15.2681 65 14.9998V7.49976C65 7.16824 64.8683 6.8503 64.6339 6.61588C64.3995 6.38146 64.0815 6.24976 63.75 6.24976ZM70.625 8.74976H72.5C72.8315 8.74976 73.1495 8.61807 73.3839 8.38365C73.6183 8.14923 73.75 7.83129 73.75 7.49976C73.75 7.16824 73.6183 6.8503 73.3839 6.61588C73.1495 6.38146 72.8315 6.24976 72.5 6.24976H70.625C68.9013 6.24976 67.5 7.65101 67.5 9.37476C67.5 11.0985 68.9013 12.4998 70.625 12.4998C70.7839 12.5098 70.9331 12.58 71.042 12.6961C71.151 12.8123 71.2117 12.9655 71.2117 13.1248C71.2117 13.284 71.151 13.4373 71.042 13.5534C70.9331 13.6695 70.7839 13.7397 70.625 13.7498H68.75C68.4185 13.7498 68.1005 13.8815 67.8661 14.1159C67.6317 14.3503 67.5 14.6682 67.5 14.9998C67.5 15.3313 67.6317 15.6492 67.8661 15.8836C68.1005 16.1181 68.4185 16.2498 68.75 16.2498H70.625C72.3487 16.2498 73.75 14.8485 73.75 13.1248C73.75 11.401 72.3487 9.99976 70.625 9.99976C70.4661 9.98971 70.3169 9.91948 70.208 9.80338C70.099 9.68727 70.0383 9.53401 70.0383 9.37476C70.0383 9.21552 70.099 9.06225 70.208 8.94615C70.3169 8.83004 70.4661 8.75982 70.625 8.74976Z" fill="white"></path><path d="M64.5412 24.37C64.4602 24.225 64.3511 24.0976 64.2202 23.9952C64.0894 23.8929 63.9395 23.8176 63.7792 23.7739C63.6189 23.7301 63.4516 23.7188 63.2869 23.7405C63.1222 23.7621 62.9634 23.8164 62.8199 23.9002C62.6765 23.9839 62.5511 24.0954 62.4512 24.2282C62.3514 24.3609 62.2789 24.5122 62.2382 24.6733C62.1975 24.8343 62.1893 25.0019 62.214 25.1662C62.2388 25.3304 62.2961 25.4881 62.3825 25.63C63.1912 27.0252 63.8787 28.4873 64.4375 30H52.4875C52.0223 28.2045 51.4256 26.4456 50.7025 24.7375C50.573 24.4322 50.3276 24.1908 50.0201 24.0664C49.7127 23.9421 49.3685 23.9449 49.0631 24.0744C48.7578 24.2038 48.5164 24.4493 48.392 24.7567C48.2677 25.0642 48.2705 25.4084 48.4 25.7137C48.9881 27.109 49.4858 28.5408 49.89 30H25.13C27.2738 22.345 31.8375 15.6025 38.2288 11.015C38.4427 10.8602 38.6022 10.6417 38.6844 10.3908C38.7666 10.1399 38.7673 9.86937 38.6864 9.61801C38.6056 9.36664 38.4472 9.14731 38.2341 8.9914C38.021 8.83548 37.7641 8.75099 37.5 8.75C20.2688 8.75 6.25 22.7688 6.25 40C6.25 57.23 20.2675 71.2487 37.4975 71.25H37.5025C54.7325 71.2487 68.75 57.23 68.75 40C68.75 34.3075 67.1187 28.785 64.5412 24.37ZM65.2525 32.5C65.91 34.93 66.25 37.4525 66.25 40C66.25 42.595 65.89 45.1063 65.2425 47.5H53.0263C53.9861 42.5467 53.9929 37.4558 53.0462 32.5H65.2525ZM50.5025 32.5C50.9975 34.9312 51.25 37.4375 51.25 40C51.25 42.5525 50.9762 45.0625 50.475 47.5H24.525C24.0132 45.0327 23.7535 42.5198 23.75 40C23.75 37.4475 24.025 34.9375 24.5275 32.5H50.5025ZM8.75 40C8.75 37.405 9.11 34.8937 9.7575 32.5H21.9738C21.5038 34.9438 21.25 37.4525 21.25 40C21.25 42.5475 21.5037 45.0563 21.975 47.5H9.75625C9.09077 45.0555 8.75241 42.5335 8.75 40ZM33.6438 11.5075C28.245 16.3863 24.3975 22.84 22.5312 30H10.5562C14.1975 20.225 23 12.94 33.6425 11.5075H33.6438ZM10.5575 50H22.53C24.3975 57.16 28.245 63.6125 33.6438 68.4925C23.0013 67.06 14.1988 59.775 10.5575 50ZM37.5 68.4463C31.4888 63.8775 27.1863 57.3613 25.125 50H49.875C47.8138 57.3613 43.5112 63.8775 37.5 68.4463ZM41.3562 68.4925C46.755 63.6137 50.6025 57.16 52.4688 50H64.4425C60.8013 59.775 51.9987 67.06 41.3562 68.4925Z" fill="white"></path></g><defs><clipPath id="clip0_275_149"><rect width="80" height="80" fill="white"></rect></clipPath></defs></svg>