<svg xmlns="http://www.w3.org/2000/svg" width="74" height="74" viewBox="0 0 74 74" fill="none"><path d="M22.5186 44.3131H18.319V46.4853H22.5186C24.3152 46.4853 25.7769 45.0236 25.7769 43.227C25.7769 41.4304 24.3152 39.9687 22.5186 39.9687H21.0704C20.4715 39.9687 19.9843 39.4815 19.9843 38.8826C19.9843 38.2836 20.4715 37.7965 21.0704 37.7965H25.2701V35.6243H21.0704C19.2739 35.6243 17.8121 37.086 17.8121 38.8826C17.8121 40.6791 19.2739 42.1409 21.0704 42.1409H22.5186C23.1175 42.1409 23.6047 42.6281 23.6047 43.227C23.6047 43.826 23.1175 44.3131 22.5186 44.3131ZM35.9139 46.5577V39.6067C35.9139 37.4108 34.1273 35.6243 31.9315 35.6243C29.7357 35.6243 27.9491 37.4108 27.9491 39.6067V46.5577H30.1213V44.4579H33.7417V46.5577H35.9139ZM30.1213 42.2857V39.6067C30.1213 38.6084 30.9333 37.7965 31.9315 37.7965C32.9297 37.7965 33.7417 38.6084 33.7417 39.6067V42.2857H30.1213ZM46.0509 46.5577V39.6067C46.0509 37.4108 44.2643 35.6243 42.0685 35.6243C39.8727 35.6243 38.0861 37.4108 38.0861 39.6067V46.5577H40.2583V44.4579H43.8787V46.5577H46.0509ZM40.2583 42.2857V39.6067C40.2583 38.6084 41.0703 37.7965 42.0685 37.7965C43.0667 37.7965 43.8787 38.6084 43.8787 39.6067V42.2857H40.2583ZM51.4814 37.7965H55.681V35.6243H51.4814C49.6848 35.6243 48.2231 37.086 48.2231 38.8826C48.2231 40.6791 49.6848 42.1409 51.4814 42.1409H52.9296C53.5285 42.1409 54.0157 42.6281 54.0157 43.227C54.0157 43.826 53.5285 44.3131 52.9296 44.3131H48.7299V46.4853H52.9296C54.7261 46.4853 56.1879 45.0236 56.1879 43.227C56.1879 41.4304 54.7261 39.9687 52.9296 39.9687H51.4814C50.8825 39.9687 50.3953 39.4815 50.3953 38.8826C50.3953 38.2836 50.8825 37.7965 51.4814 37.7965ZM3.18982 35.1499L1.18255 35.9799C2.63225 39.4883 5.31033 42.3484 8.71593 44.0254L9.67561 42.0766C6.74359 40.6328 4.43791 38.1704 3.18982 35.1499ZM35.2622 2.17221C40.9077 2.17221 46.3105 4.59292 50.0851 8.81367L50.5213 9.30112L51.1562 9.14371C52.672 8.76699 54.2562 8.75995 55.7754 9.12318C57.2945 9.4864 58.7042 10.2093 59.8857 11.2309L61.3066 9.58785C59.9455 8.41105 58.3357 7.55755 56.5978 7.09131C54.8599 6.62506 53.0391 6.55816 51.2717 6.89561C47.1106 2.50514 41.3126 0 35.2622 0C31.3491 0 27.5041 1.04063 24.1431 3.00924L25.2411 4.88357C28.2693 3.10988 31.7346 2.17221 35.2622 2.17221ZM2.17221 30.0006C2.17221 22.7002 8.08801 16.6706 15.3593 16.5595L16.1297 16.5478L16.3733 15.8166C17.6866 11.8724 20.1581 8.48292 23.5204 6.01485L22.2349 4.26376C18.7123 6.84971 16.0715 10.3486 14.5629 14.4177C10.7426 14.6608 7.18625 16.2852 4.47939 19.0402C1.59078 21.9797 0 25.8723 0 30.0006C0 31.273 0.153213 32.5389 0.455296 33.7628L2.56408 33.2424C2.30317 32.1815 2.1716 31.093 2.17221 30.0006ZM65.4538 18.4369C65.4057 15.8328 64.5412 13.3759 62.9462 11.3181L61.2294 12.6488C62.5734 14.3829 63.2838 16.4639 63.2838 18.6671C63.2838 18.8019 63.2801 18.9457 63.2723 19.1195L63.2365 19.9141L63.9831 20.1881C68.6752 21.9099 71.8278 26.4371 71.8278 31.4535C71.8278 36.3495 68.9094 40.7084 64.3926 42.5587L65.216 44.5689C70.552 42.383 74 37.2349 74 31.4535C74 25.791 70.5966 20.6557 65.4538 18.4369Z" fill="white"></path><path d="M13.4681 47.5713V34.5381C13.4681 33.5398 14.2801 32.7279 15.2783 32.7279H51.7921V30.5557H15.2783C13.0825 30.5557 11.2959 32.3422 11.2959 34.5381V47.5713C11.2959 49.7671 13.0825 51.5537 15.2783 51.5537H20.3468V49.3815H15.2783C14.2801 49.3815 13.4681 48.5695 13.4681 47.5713Z" fill="white"></path><path d="M58.7221 30.5557H53.9639V32.7279H58.7221C59.7203 32.7279 60.5323 33.5399 60.5323 34.5381V47.5714C60.5323 48.5696 59.7203 49.3816 58.7221 49.3816H22.5186V51.5538H29.542V55.6656L25.7769 59.4308V63.2908C24.1075 63.7649 22.8806 65.3021 22.8806 67.1214C22.8806 69.3172 24.6672 71.1038 26.863 71.1038C29.0588 71.1038 30.8454 69.3172 30.8454 67.1214C30.8454 65.3021 29.6185 63.7649 27.9491 63.2908V60.3305L31.7142 56.5653V51.5538H35.9139V66.1869C34.2444 66.6611 33.0176 68.1983 33.0176 70.0176C33.0176 72.2134 34.8041 74 37 74C39.1958 74 40.9824 72.2134 40.9824 70.0176C40.9824 68.1983 39.7555 66.6611 38.0861 66.1869V51.5538H42.2857V56.5652L46.0508 60.3304V63.2907C44.3814 63.7648 43.1546 65.302 43.1546 67.1213C43.1546 69.3171 44.9411 71.1037 47.1369 71.1037C49.3328 71.1037 51.1193 69.3171 51.1193 67.1213C51.1193 65.302 49.8925 63.7648 48.2231 63.2907V59.4306L44.4579 55.6655V51.5538H58.7221C60.9179 51.5538 62.7045 49.7672 62.7045 47.5714V34.5381C62.7045 32.3423 60.9179 30.5557 58.7221 30.5557ZM28.6732 67.1213C28.6732 68.1195 27.8612 68.9315 26.863 68.9315C25.8648 68.9315 25.0528 68.1195 25.0528 67.1213C25.0528 66.1231 25.8648 65.3111 26.863 65.3111C27.8612 65.3111 28.6732 66.1231 28.6732 67.1213ZM38.8101 70.0176C38.8101 71.0158 37.9982 71.8277 37 71.8277C36.0018 71.8277 35.1898 71.0158 35.1898 70.0176C35.1898 69.0194 36.0018 68.2074 37 68.2074C37.9982 68.2074 38.8101 69.0194 38.8101 70.0176ZM48.9471 67.1213C48.9471 68.1195 48.1352 68.9315 47.1369 68.9315C46.1387 68.9315 45.3268 68.1195 45.3268 67.1213C45.3268 66.1231 46.1387 65.3111 47.1369 65.3111C48.1352 65.3111 48.9471 66.1231 48.9471 67.1213ZM35.9139 11.3679H38.0861V23.6771H35.9139V11.3679ZM35.9139 25.8493H38.0861V28.0215H35.9139V25.8493ZM29.542 25.8493H31.7142V28.0215H29.542V25.8493ZM31.7142 20.4758L27.9491 16.7106V14.2641H25.7769V17.6102L29.542 21.3754V23.6771H31.7142V20.4758ZM42.2857 25.8493H44.4579V28.0215H42.2857V25.8493ZM44.4579 21.3754L48.2231 17.6102V14.2641H46.0508V16.7106L42.2857 20.4758V23.6771H44.4579V21.3754ZM35.9139 7.02344H38.0861V9.19565H35.9139V7.02344ZM25.7769 9.91972H27.9491V12.0919H25.7769V9.91972ZM46.0508 9.91972H48.2231V12.0919H46.0508V9.91972Z" fill="white"></path></svg>