<svg xmlns="http://www.w3.org/2000/svg" width="82" height="82" viewBox="0 0 82 82" fill="none"><path d="M79.2645 10.5095L79.2549 10.3285C79.2442 10.1091 79.1585 9.9 79.0122 9.73617C78.8659 9.57235 78.6677 9.46371 78.4509 9.4284C74.7289 8.8182 72.2657 6.72816 70.9236 3.03496C70.8561 2.84959 70.7332 2.68946 70.5717 2.5763C70.4101 2.46313 70.2176 2.4024 70.0203 2.40234H50.3852C49.9816 2.40234 49.6196 2.65539 49.4819 3.03496C48.1398 6.72656 45.6782 8.8182 41.9545 9.4284C41.7379 9.46399 41.5399 9.57271 41.3936 9.73648C41.2473 9.90024 41.1616 10.1092 41.1505 10.3285L41.1409 10.5095C41.008 13.1905 40.8863 15.6569 40.8334 17.9551H5.90977C3.97508 17.9535 2.40234 19.5263 2.40234 21.4609V60.8049C2.40234 62.738 3.97508 64.3107 5.90977 64.3107H32.8721V72.2161H29.3855C26.5219 72.2161 24.1804 74.455 24.0523 77.3154C24.025 77.9256 24.2348 78.483 24.6561 78.9234C25.0789 79.3654 25.625 79.5993 26.2368 79.5993H52.6594C53.2712 79.5993 53.8173 79.3654 54.2401 78.9234C54.6629 78.4814 54.8711 77.9256 54.8439 77.3154C54.7158 74.4566 52.3743 72.2161 49.5107 72.2161H46.0241V64.3107H72.9864C74.9195 64.3107 76.4938 62.738 76.4938 60.8049V35.425C76.9903 34.5057 77.4179 33.5655 77.7815 32.5966C80.0605 26.5283 79.7274 19.8081 79.2645 10.5095ZM52.9236 77.3987C52.9268 77.4836 52.9092 77.5316 52.85 77.5941C52.7923 77.655 52.7427 77.6758 52.6578 77.6758H26.2368C26.1519 77.6758 26.1039 77.655 26.0446 77.5941C25.9854 77.5332 25.9677 77.4836 25.9709 77.3987C26.0526 75.5697 27.5517 74.1363 29.3839 74.1363H49.5107C51.3429 74.1363 52.842 75.5697 52.9236 77.3987ZM44.1006 72.2145H34.7923V64.3091H44.1006V72.2145ZM72.9864 62.3889H5.90977C5.03531 62.3889 4.32422 61.6778 4.32422 60.8049V57.3632H74.5704V60.8049C74.5704 61.6778 73.8593 62.3889 72.9864 62.3889ZM74.5704 55.4397H4.32422V21.4609C4.32422 20.5865 5.03531 19.877 5.90977 19.877H40.811C40.795 24.6961 41.1938 28.7769 42.6288 32.5998C45.0087 38.9356 50.1161 44.1118 59.7079 49.9079C59.8574 49.999 60.0292 50.0472 60.2043 50.0472C60.3795 50.0472 60.5512 49.999 60.7008 49.9079C67.2032 45.9793 71.6411 42.3341 74.5704 38.4215V55.4397ZM75.9813 31.9223C73.8064 37.7136 69.0754 42.5295 60.2043 47.9604C51.3333 42.5295 46.6023 37.7136 44.4273 31.9223C42.3325 26.3457 42.6 19.9507 43.034 11.1773C46.8185 10.3397 49.5075 8.03824 51.0434 4.32422H69.3637C70.8996 8.03824 73.5902 10.3381 77.3731 11.1773C77.8087 19.9507 78.0762 26.3457 75.9813 31.9223ZM69.6167 17.4042C69.7967 17.5844 69.8978 17.8286 69.8978 18.0832C69.8978 18.3379 69.7967 18.5821 69.6167 18.7623L57.9654 30.4137C57.8762 30.5029 57.7704 30.5738 57.6539 30.6221C57.5373 30.6704 57.4124 30.6953 57.2863 30.6953C57.1601 30.6953 57.0352 30.6704 56.9187 30.6221C56.8022 30.5738 56.6963 30.5029 56.6072 30.4137L50.792 24.5984C50.612 24.4182 50.5109 24.174 50.5109 23.9193C50.5109 23.6647 50.612 23.4205 50.792 23.2403C51.1667 22.8655 51.7753 22.8655 52.1517 23.2403L57.2879 28.3765L68.2586 17.4058C68.3474 17.316 68.4531 17.2448 68.5696 17.1961C68.6861 17.1474 68.8111 17.1222 68.9373 17.1221C69.0636 17.1219 69.1886 17.1468 69.3052 17.1952C69.4218 17.2436 69.5277 17.3146 69.6167 17.4042Z" fill="white"></path></svg>