<svg xmlns="http://www.w3.org/2000/svg" width="57" height="68" viewBox="0 0 57 68" fill="none"><path d="M17.6822 21.4636L17.3672 21.7786V21.4242C17.3672 20.9588 16.9889 20.5805 16.5234 20.5805H8.22656C7.76109 20.5805 7.38281 20.9588 7.38281 21.4242V29.7211C7.38281 30.1866 7.76109 30.5648 8.22656 30.5648H16.5234C16.9889 30.5648 17.3672 30.1866 17.3672 29.7211V24.165L18.8761 22.6561C19.2052 22.327 19.2052 21.7927 18.8761 21.4622C18.5456 21.1345 18.0113 21.1331 17.6822 21.4636ZM15.6797 28.8759H9.07031V22.2666H15.6797V23.4647L13.4592 25.6852L12.0319 24.2578C11.7028 23.9287 11.1684 23.9287 10.8394 24.2578C10.5103 24.5869 10.5103 25.1213 10.8394 25.4517L12.863 27.4753C13.0219 27.6328 13.2356 27.7228 13.4592 27.7228C13.6828 27.7228 13.898 27.6342 14.0555 27.4753L15.6797 25.8511V28.8759ZM35.7553 23.5462C35.7553 24.0117 35.377 24.39 34.9116 24.39H21.2006C20.7352 24.39 20.3569 24.0117 20.3569 23.5462C20.3569 23.0808 20.7352 22.7025 21.2006 22.7025H34.9116C35.377 22.7025 35.7553 23.0794 35.7553 23.5462ZM17.6822 34.1184L17.3672 34.4334V34.0791C17.3672 33.6136 16.9889 33.2353 16.5234 33.2353H8.22656C7.76109 33.2353 7.38281 33.6136 7.38281 34.0791V42.3759C7.38281 42.8414 7.76109 43.2197 8.22656 43.2197H16.5234C16.9889 43.2197 17.3672 42.8414 17.3672 42.3759V36.8198L18.8761 35.3109C19.2052 34.9819 19.2052 34.4475 18.8761 34.117C18.5456 33.7894 18.0113 33.7894 17.6822 34.1184ZM15.6797 41.5322H9.07031V34.9228H15.6797V36.1209L13.4592 38.3414L12.0319 36.9141C11.7028 36.585 11.1684 36.585 10.8394 36.9141C10.5103 37.2431 10.5103 37.7775 10.8394 38.108L12.863 40.1316C13.0219 40.2891 13.2356 40.3791 13.4592 40.3791C13.6828 40.3791 13.898 40.2905 14.0555 40.1316L15.6797 38.5073V41.5322ZM17.6822 46.7733L17.3672 47.0883V46.7339C17.3672 46.2684 16.9889 45.8902 16.5234 45.8902H8.22656C7.76109 45.8902 7.38281 46.2684 7.38281 46.7339V55.0308C7.38281 55.4962 7.76109 55.8745 8.22656 55.8745H16.5234C16.9889 55.8745 17.3672 55.4962 17.3672 55.0308V49.4747L18.8761 47.9658C19.2052 47.6367 19.2052 47.1023 18.8761 46.7719C18.5456 46.4442 18.0113 46.4442 17.6822 46.7733ZM15.6797 54.187H9.07031V47.5777H15.6797V48.7758L13.4592 50.9963L12.0319 49.5689C11.7028 49.2398 11.1684 49.2398 10.8394 49.5689C10.5103 49.898 10.5103 50.4323 10.8394 50.7628L12.863 52.7864C13.0219 52.9439 13.2356 53.0339 13.4592 53.0339C13.6828 53.0339 13.898 52.9453 14.0555 52.7864L15.6797 51.1622V54.187ZM35.7553 35.5542C35.7553 36.0197 35.377 36.398 34.9116 36.398H21.2006C20.7352 36.398 20.3569 36.0197 20.3569 35.5542C20.3569 35.0887 20.7352 34.7105 21.2006 34.7105H34.9116C35.377 34.7105 35.7553 35.0887 35.7553 35.5542ZM29.5678 47.5622C29.5678 48.0277 29.1895 48.4059 28.7241 48.4059H21.1992C20.7337 48.4059 20.3555 48.0277 20.3555 47.5622C20.3555 47.0967 20.7337 46.7184 21.1992 46.7184H28.7241C29.1909 46.7184 29.5678 47.0967 29.5678 47.5622ZM20.3569 28.6903C20.3569 28.2248 20.7352 27.8466 21.2006 27.8466H31.1048C31.5703 27.8466 31.9486 28.2248 31.9486 28.6903C31.9486 29.1558 31.5703 29.5341 31.1048 29.5341H21.2006C20.7338 29.5341 20.3569 29.1558 20.3569 28.6903ZM31.9486 40.6983C31.9486 41.1637 31.5703 41.542 31.1048 41.542H21.2006C20.7352 41.542 20.3569 41.1637 20.3569 40.6983C20.3569 40.2328 20.7352 39.8545 21.2006 39.8545H31.1048C31.5703 39.8545 31.9486 40.2328 31.9486 40.6983ZM27.4795 52.7062C27.4795 53.1717 27.1012 53.55 26.6358 53.55H21.2006C20.7352 53.55 20.3569 53.1717 20.3569 52.7062C20.3569 52.2408 20.7352 51.8625 21.2006 51.8625H26.6358C27.1012 51.8625 27.4795 52.2408 27.4795 52.7062ZM56.5847 63.3431L44.9227 43.1437V14.3691C44.9227 11.122 42.2803 8.48109 39.0333 8.48109H34.8455C34.8244 6.25078 32.8613 4.44234 30.4523 4.44234H28.1152C27.6764 1.92656 25.3083 0 22.462 0C19.6158 0 17.2477 1.92656 16.8089 4.44234H14.4731C12.0628 4.44234 10.0997 6.25078 10.0786 8.48109H5.88938C2.64234 8.48109 0 11.122 0 14.3691V61.8933C0 65.1403 2.64234 67.7812 5.88938 67.7812H54.0211C55.1067 67.7812 56.0405 67.2427 56.5833 66.3019C57.1275 65.3625 57.1275 64.2839 56.5847 63.3431ZM11.7647 8.51625C11.7647 7.2 12.9797 6.12984 14.4717 6.12984H17.5795C18.045 6.12984 18.4233 5.75156 18.4233 5.28609C18.4233 3.30188 20.2345 1.6875 22.462 1.6875C24.6895 1.6875 26.5008 3.30188 26.5008 5.28609C26.5008 5.75156 26.8791 6.12984 27.3445 6.12984H30.4523C31.9458 6.12984 33.1594 7.2 33.1594 8.51625V10.132C33.1594 11.4483 31.9444 12.5184 30.4523 12.5184H14.4717C12.9783 12.5184 11.7647 11.4483 11.7647 10.132V8.51625ZM1.68891 61.8933V14.3691C1.68891 12.053 3.57328 10.1686 5.89078 10.1686H10.0786C10.0997 12.3989 12.0628 14.2073 14.4731 14.2073H30.4538C32.8641 14.2073 34.8272 12.3989 34.8469 10.1686H39.0347C41.3508 10.1686 43.2366 12.053 43.2366 14.3691V40.2216L42.217 38.4567C41.8219 37.7719 41.2172 37.3008 40.4986 37.0941V17.5359C40.4986 16.7288 39.8419 16.072 39.0347 16.072H5.88938C5.08219 16.072 4.42547 16.7288 4.42547 17.5359V61.8919C4.42547 62.6991 5.08219 63.3558 5.88938 63.3558H22.7152C22.2188 64.2234 22.185 65.2092 22.6125 66.0938H5.88938C3.57328 66.0938 1.68891 64.2094 1.68891 61.8933ZM23.6897 61.6683H6.11297V17.7595H38.8097V37.0941C38.0911 37.2994 37.4864 37.7705 37.0913 38.4553L23.6897 61.6683ZM55.1236 65.4581C54.8873 65.8673 54.4964 66.0938 54.0225 66.0938H25.2844C24.8105 66.0938 24.4209 65.8688 24.1833 65.4581C23.947 65.0489 23.947 64.5975 24.1833 64.1869L38.5523 39.2991C38.7886 38.8898 39.1795 38.6634 39.6534 38.6634C40.1273 38.6634 40.5169 38.8884 40.7545 39.2991L55.1236 64.1869C55.3598 64.5975 55.3598 65.0489 55.1236 65.4581ZM39.6534 45.3713C38.9194 45.3713 38.2092 45.6778 37.703 46.2122C37.2206 46.7227 36.9745 47.378 37.0125 48.06L37.4653 56.3288C37.5286 57.4861 38.4497 58.327 39.6534 58.327C40.8572 58.327 41.7783 57.4875 41.8416 56.3288L42.2944 48.06C42.3323 47.378 42.0863 46.7227 41.6039 46.2122C41.0977 45.6764 40.3875 45.3713 39.6534 45.3713ZM40.1569 56.2359C40.1372 56.5987 39.7983 56.6381 39.6534 56.6381C39.5086 56.6381 39.1697 56.5987 39.15 56.2359L38.6972 47.9672C38.6817 47.6775 38.835 47.4708 38.9278 47.3723C39.1163 47.1727 39.3806 47.0588 39.6534 47.0588C39.9263 47.0588 40.1906 47.1727 40.3791 47.3723C40.4719 47.4708 40.6266 47.6789 40.6097 47.9672L40.1569 56.2359ZM39.6534 59.9864C38.2978 59.9864 37.1967 61.0889 37.1967 62.4431C37.1967 63.7973 38.2992 64.9012 39.6534 64.9012C41.0077 64.9012 42.1102 63.7988 42.1102 62.4431C42.1102 61.0875 41.0091 59.9864 39.6534 59.9864ZM39.6534 63.2137C39.2288 63.2137 38.8842 62.8678 38.8842 62.4431C38.8842 62.0184 39.2302 61.6739 39.6534 61.6739C40.0767 61.6739 40.4227 62.0198 40.4227 62.4431C40.4229 62.5443 40.4032 62.6445 40.3646 62.738C40.3261 62.8315 40.2694 62.9165 40.198 62.9881C40.1265 63.0597 40.0416 63.1165 39.9482 63.1552C39.8548 63.1939 39.7546 63.2138 39.6534 63.2137Z" fill="white"></path></svg>