<svg xmlns="http://www.w3.org/2000/svg" width="66" height="66" viewBox="0 0 66 66" fill="none"><g clip-path="url(#clip0_275_276)"><path fill-rule="evenodd" clip-rule="evenodd" d="M1.94084 65.094H64.0585C64.2038 65.094 64.3474 65.0634 64.4801 65.0042C64.6128 64.9451 64.7315 64.8587 64.8286 64.7506C64.9257 64.6425 64.999 64.5152 65.0436 64.377C65.0883 64.2387 65.1033 64.0926 65.0878 63.9482C64.5196 58.6565 60.882 54.2832 55.9912 52.6473C57.8307 51.3182 59.0312 49.1551 59.0312 46.721C59.0312 42.6977 55.7514 39.4147 51.7283 39.4147C47.7014 39.4147 44.4221 42.6979 44.4221 46.721C44.4221 49.1551 45.6225 51.3184 47.4627 52.6476C45.5292 53.2941 43.7917 54.3684 42.3625 55.7578C40.9331 54.3682 39.1958 53.294 37.2626 52.6473C39.1021 51.3182 40.3026 49.1551 40.3026 46.721C40.3026 42.6977 37.0228 39.4147 32.9997 39.4147C28.9728 39.4147 25.6935 42.6979 25.6935 46.721C25.6935 49.1551 26.894 51.3185 28.7343 52.6476C26.8008 53.2942 25.0635 54.3684 23.6344 55.7578C22.2049 54.3681 20.4674 53.2938 18.5341 52.6473C20.3735 51.3182 21.574 49.155 21.574 46.721C21.574 42.6977 18.2943 39.4147 14.2711 39.4147C10.2442 39.4147 6.96486 42.6979 6.96486 46.721C6.96486 49.1551 8.16542 51.3185 10.0057 52.6476C5.11363 54.2837 1.4769 58.6571 0.911369 63.9487C0.895979 64.0931 0.911138 64.2391 0.955856 64.3773C1.00057 64.5155 1.07385 64.6427 1.17094 64.7507C1.26802 64.8587 1.38674 64.9451 1.51938 65.0042C1.65202 65.0634 1.79561 65.094 1.94084 65.094ZM51.7283 54.0272C57.1916 54.0272 61.755 57.8836 62.8466 63.0234H46.2274C45.8499 60.9071 44.9775 58.9622 43.734 57.3129C45.7872 55.2816 48.6109 54.0272 51.7283 54.0272ZM51.7283 51.9566C48.8425 51.9566 46.4927 49.6039 46.4927 46.721C46.4927 43.838 48.8425 41.4853 51.7283 41.4853C54.611 41.4853 56.9606 43.8382 56.9606 46.721C56.9606 49.6038 54.611 51.9566 51.7283 51.9566ZM32.9997 54.0272C38.463 54.0272 43.0264 57.8836 44.118 63.0234H21.8807C22.9697 57.8834 27.5334 54.0272 32.9997 54.0272ZM32.9997 51.9566C30.1139 51.9566 27.7641 49.6039 27.7641 46.721C27.7641 43.838 30.1139 41.4853 32.9997 41.4853C35.8824 41.4853 38.232 43.8382 38.232 46.721C38.232 49.6038 35.8824 51.9566 32.9997 51.9566ZM22.2629 57.313C21.0198 58.9623 20.148 60.9071 19.7716 63.0234H3.15226C4.24113 57.8834 8.80484 54.0272 14.2711 54.0272C17.3868 54.0272 20.2096 55.2816 22.2629 57.313ZM14.2711 51.9566C11.3854 51.9566 9.03545 49.6039 9.03545 46.721C9.03545 43.838 11.3854 41.4853 14.2711 41.4853C17.1538 41.4853 19.5034 43.8382 19.5034 46.721C19.5034 49.6038 17.1538 51.9566 14.2711 51.9566ZM43.2722 32.4789H49.2777C54.3353 32.4789 58.4723 28.3416 58.4723 23.2873C58.4723 19.7112 56.4029 16.5954 53.4039 15.0765L53.4042 14.9808C53.4042 7.20799 47.1048 0.905762 39.3319 0.905762C35.7587 0.905762 32.4941 2.23844 30.0114 4.43521C28.8063 4.0708 27.5541 3.88613 26.2951 3.88715C19.9261 3.88715 14.6471 8.53459 13.6571 14.6229C10.0242 15.9125 7.52703 19.3816 7.52703 23.2873C7.52703 28.3416 11.6641 32.4789 16.7216 32.4789H22.7271V35.3579C22.7271 36.5913 23.7272 37.5914 24.9606 37.5914H41.0359C42.2687 37.5914 43.2722 36.5905 43.2722 35.3579V32.4789ZM22.7271 30.4083H16.7216C12.8031 30.4083 9.59761 27.2031 9.59761 23.2873C9.59761 20.0791 11.7734 17.2522 14.8656 16.4129C15.0666 16.3584 15.2465 16.2444 15.3818 16.086C15.5171 15.9276 15.6014 15.7321 15.6238 15.525C16.2055 10.145 20.7596 5.95774 26.2951 5.95774C27.5296 5.95638 28.755 6.16827 29.9173 6.58409C30.0993 6.64927 30.296 6.66219 30.4849 6.62139C30.6739 6.58059 30.8476 6.48769 30.9865 6.35322C33.1465 4.26232 36.0905 2.97635 39.3319 2.97635C45.9612 2.97635 51.3336 8.3516 51.3336 14.9808C51.3336 15.2118 51.3284 15.4428 51.3151 15.6711C51.3025 15.8864 51.3575 16.1002 51.4724 16.2827C51.5872 16.4652 51.7562 16.6072 51.9556 16.6891C54.5546 17.7553 56.4017 20.3152 56.4017 23.2873C56.4017 27.2031 53.1962 30.4083 49.2777 30.4083H43.2722V22.5799C43.2722 21.3523 42.2687 20.3464 41.0359 20.3464H40.6005V18.6237C40.6005 14.4427 37.1792 11.0214 32.9982 11.0214C28.8172 11.0214 25.3988 14.4426 25.3988 18.6237V20.3464H24.9606C23.7272 20.3464 22.7271 21.3517 22.7271 22.5799V30.4083ZM24.9606 22.417H41.0359C41.1266 22.417 41.2017 22.4896 41.2017 22.5799V35.3579C41.2017 35.4485 41.1266 35.5208 41.0359 35.5208H24.9606C24.9174 35.5208 24.876 35.5036 24.8454 35.4731C24.8149 35.4425 24.7977 35.4011 24.7977 35.3579V22.5799C24.7977 22.5367 24.8149 22.4953 24.8454 22.4647C24.876 22.4342 24.9174 22.417 24.9606 22.417ZM38.5299 20.3464H37.5922V18.6237C37.5922 16.1008 35.5176 14.0268 32.9982 14.0268C30.479 14.0268 28.4043 16.1008 28.4043 18.6237V20.3464H27.4694V18.6237C27.4694 15.5816 29.9563 13.092 32.9982 13.092C36.0405 13.092 38.5299 15.5814 38.5299 18.6237V20.3464ZM30.4748 20.3464V18.6237C30.4748 17.2375 31.6142 16.0974 32.9982 16.0974C34.3824 16.0974 35.5216 17.2375 35.5216 18.6237V20.3464H30.4748ZM32.9982 23.374C31.1367 23.374 29.6276 24.8859 29.6276 26.7475C29.6265 27.2191 29.7248 27.6857 29.9159 28.1169C30.107 28.5481 30.3867 28.9342 30.7369 29.2502V32.3024C30.7369 33.5485 31.7573 34.5638 32.9982 34.5638C34.2444 34.5638 35.2597 33.5485 35.2597 32.3024L35.2596 29.2504C35.9426 28.6337 36.3718 27.7415 36.3718 26.7475C36.3718 24.8863 34.8594 23.374 32.9982 23.374ZM32.9982 25.4446C33.7171 25.4446 34.3012 26.0286 34.3012 26.7475C34.3012 27.2171 34.053 27.6276 33.6809 27.8569C33.5306 27.9497 33.4065 28.0793 33.3204 28.2335C33.2343 28.3878 33.1891 28.5615 33.1891 28.7381V32.3024C33.1891 32.4076 33.1035 32.4932 32.9982 32.4932C32.8936 32.4932 32.8075 32.4076 32.8075 32.3024V28.7381C32.8075 28.5615 32.7623 28.3878 32.6762 28.2335C32.5901 28.0793 32.4659 27.9497 32.3156 27.8569C32.1264 27.7403 31.9702 27.577 31.8621 27.3828C31.754 27.1885 31.6976 26.9698 31.6982 26.7475C31.6982 26.029 32.2798 25.4446 32.9982 25.4446Z" fill="white"></path></g><defs><clipPath id="clip0_275_276"><rect width="66" height="66" fill="white" transform="matrix(-1 0 0 1 66 0)"></rect></clipPath></defs></svg>