<svg xmlns="http://www.w3.org/2000/svg" width="80" height="80" viewBox="0 0 80 80" fill="none"><path fill-rule="evenodd" clip-rule="evenodd" d="M21.6624 52.1386H18.0627C9.05269 52.1386 1.68359 44.7652 1.68359 35.7553C1.68359 28.3202 6.70038 22.0027 13.5154 19.9558C13.954 9.60962 22.424 1.41699 32.808 1.41699C38.4009 1.41699 43.4395 3.79503 46.966 7.59582C48.5501 7.00899 50.263 6.68836 52.0502 6.68836C60.1394 6.68836 66.707 13.2557 66.707 21.345V21.3555C71.8144 24.1375 75.2993 29.5601 75.2993 35.7553C75.2993 42.8575 70.7179 48.9426 64.365 51.2013V63.5332H71.0784C71.5572 62.0397 72.958 60.9574 74.6096 60.9574C76.6555 60.9574 78.3167 62.6184 78.3167 64.6645C78.3167 66.7105 76.6555 68.3717 74.6096 68.3717C72.9335 68.3717 71.5158 67.257 71.0579 65.7293H63.267C62.9757 65.7293 62.6965 65.6136 62.4905 65.4077C62.2846 65.2018 62.1689 64.9225 62.1689 64.6313V51.812C61.0983 52.0296 60.0086 52.139 58.9161 52.1386H38.488V60.8518H52.0155C52.3067 60.8518 52.586 60.9675 52.792 61.1734C52.9979 61.3793 53.1136 61.6586 53.1136 61.9499V71.334C54.6248 71.8021 55.7239 73.2117 55.7239 74.876C55.7239 76.9219 54.0627 78.5831 52.0168 78.5831C49.9707 78.5831 48.3096 76.9219 48.3096 74.876C48.3096 73.2126 49.4074 71.8037 50.9175 71.3348V63.0479H38.488V65.5372C40.0246 65.9895 41.1478 67.4117 41.1478 69.094C41.1478 71.14 39.4866 72.8012 37.4406 72.8012C35.3947 72.8012 33.7335 71.14 33.7335 69.094C33.7335 67.4488 34.8074 66.0526 36.2919 65.5685V52.1386H23.8585V71.3339C25.37 71.8018 26.4693 73.2115 26.4693 74.876C26.4693 76.9219 24.8081 78.5831 22.7622 78.5831C20.7161 78.5831 19.055 76.9219 19.055 74.876C19.055 73.2128 20.1526 71.804 21.6624 71.335V63.0479H9.23293V71.3345C10.7435 71.8029 11.842 73.2121 11.842 74.876C11.842 76.9219 10.1808 78.5831 8.13489 78.5831C6.08877 78.5831 4.42775 76.9219 4.42775 74.876C4.42775 73.2121 5.5261 71.8029 7.03685 71.3345V61.9499C7.03685 61.6586 7.15253 61.3793 7.35846 61.1734C7.56438 60.9675 7.84367 60.8518 8.13489 60.8518H21.6624V52.1386ZM52.0155 73.3649C51.1821 73.3655 50.5057 74.0424 50.5057 74.876C50.5057 75.71 51.1827 76.387 52.0168 76.387C52.8507 76.387 53.5278 75.71 53.5278 74.876C53.5278 74.0419 52.8507 73.3649 52.0168 73.3649H52.0155ZM22.7605 73.3649C21.9272 73.3659 21.2511 74.0426 21.2511 74.876C21.2511 75.71 21.9281 76.387 22.7622 76.387C23.5961 76.387 24.2732 75.71 24.2732 74.876C24.2732 74.0419 23.5961 73.3649 22.7622 73.3649H22.7605ZM37.4406 67.583C36.6066 67.583 35.9296 68.26 35.9296 69.094C35.9296 69.9279 36.6066 70.6051 37.4406 70.6051C38.2747 70.6051 38.9517 69.9279 38.9517 69.094C38.9517 68.26 38.2747 67.583 37.4406 67.583ZM8.13489 73.3649C7.30085 73.3649 6.62383 74.0419 6.62383 74.876C6.62383 75.71 7.30085 76.387 8.13489 76.387C8.96877 76.387 9.64595 75.71 9.64595 74.876C9.64595 74.0419 8.96877 73.3649 8.13489 73.3649ZM45.8245 9.61542C42.6855 5.9417 38.0182 3.61307 32.808 3.61307C23.354 3.61307 15.6938 11.2775 15.6938 20.7991C15.6938 21.0449 15.6113 21.2836 15.4596 21.4769C15.3079 21.6703 15.0957 21.8072 14.8569 21.8656C8.58853 23.4013 3.87967 29.052 3.87967 35.7553C3.87967 43.5574 10.2607 49.9425 18.0627 49.9425H58.9161C66.7183 49.9425 73.1032 43.5575 73.1032 35.7553C73.1032 30.1704 69.8303 25.3128 65.1098 23.0015C64.9171 22.9071 64.7562 22.7584 64.6471 22.5736C64.538 22.3888 64.4854 22.1761 64.4958 21.9618C64.5059 21.7563 64.5109 21.5507 64.5109 21.345C64.5109 14.4678 58.9274 8.88444 52.0502 8.88444C50.2903 8.88444 48.615 9.24978 47.0966 9.90923C46.881 10.0028 46.6411 10.0248 46.4121 9.97195C46.1831 9.91906 45.9771 9.79409 45.8245 9.61542ZM52.1057 34.1699C50.2136 34.1699 49.2635 36.4628 50.6017 37.801C51.4034 38.6026 51.4034 39.9067 50.6017 40.7083L48.5418 42.7684C47.7401 43.5701 46.4361 43.5701 45.6343 42.7684C44.2961 41.4302 42.0033 42.3801 42.0033 44.2724C42.0033 45.4107 41.083 46.3273 39.9484 46.3273H37.0347C35.9001 46.3273 34.9798 45.4107 34.9798 44.2724C34.9798 42.3779 32.688 41.4291 31.3487 42.7684C30.5465 43.5706 29.2452 43.5706 28.4433 42.7687L26.3812 40.7083C25.5796 39.9067 25.5796 38.6026 26.3812 37.801C27.7195 36.4628 26.7707 34.1699 24.8773 34.1699C23.7427 34.1699 22.8224 33.2496 22.8224 32.115V29.2013C22.8224 28.0666 23.7427 27.1462 24.8773 27.1462C26.7707 27.1462 27.7195 24.8535 26.3812 23.5152C25.5791 22.713 25.5791 21.4118 26.3812 20.6096L28.443 18.5478C29.2452 17.7456 30.5465 17.7456 31.3487 18.5478C32.6869 19.886 34.9798 18.9371 34.9798 17.044C34.9798 15.9092 35.9001 14.9889 37.0347 14.9889H39.9484C41.083 14.9889 42.0033 15.9092 42.0033 17.044C42.0033 18.9371 44.2961 19.886 45.6343 18.5478C46.4361 17.7462 47.7401 17.7462 48.5418 18.5478L50.6017 20.6096C51.4039 21.4118 51.4039 22.713 50.6017 23.5152C49.2635 24.8535 50.2136 27.1462 52.1057 27.1462C53.2441 27.1462 54.1606 28.0666 54.1606 29.2013V32.115C54.1606 33.2496 53.2441 34.1699 52.1057 34.1699ZM25.0185 29.3403V31.9759C28.7256 32.0868 30.5744 36.5546 28.0318 39.2531L29.8972 41.1169C32.5981 38.5732 37.0629 40.422 37.1736 44.1312H39.8094C39.9203 40.4263 44.3881 38.5753 47.0866 41.1179L48.9512 39.2532C46.4086 36.5547 48.2596 32.0868 51.9645 31.9759V29.3403C48.2599 29.2294 46.4089 24.7626 48.9504 22.0639L47.0866 20.1985C44.3881 22.7411 39.9201 20.8921 39.8094 17.185H37.1736C37.0629 20.8918 32.5959 22.7408 29.8974 20.1993L28.0326 22.0639C30.5741 24.7626 28.7252 29.2294 25.0185 29.3403ZM38.4924 38.7582C34.0307 38.7582 30.3932 35.1186 30.3932 30.659C30.3932 26.1972 34.0307 22.5597 38.4924 22.5597C42.9521 22.5597 46.5915 26.1972 46.5915 30.659C46.5915 35.1186 42.9521 38.7582 38.4924 38.7582ZM38.4924 36.5621C41.7429 36.5621 44.3954 33.9094 44.3954 30.659C44.3954 27.4071 41.7429 24.7558 38.4924 24.7558C35.2405 24.7558 32.5893 27.4071 32.5893 30.659C32.5893 33.9094 35.2405 36.5621 38.4924 36.5621ZM74.6096 63.1535C73.7755 63.1535 73.0985 63.8305 73.0985 64.6645C73.0985 65.4984 73.7755 66.1756 74.6096 66.1756C75.4434 66.1756 76.1206 65.4984 76.1206 64.6645C76.1206 63.8305 75.4434 63.1535 74.6096 63.1535Z" fill="white"></path></svg>