<svg width="93" height="80" viewBox="0 0 93 80" fill="none" xmlns="http://www.w3.org/2000/svg">
<path d="M77.8937 56.9899V34.0268C77.8937 33.6879 77.759 33.3628 77.5194 33.1232C77.2797 32.8835 76.9547 32.7489 76.6158 32.7489C76.2769 32.7489 75.9518 32.8835 75.7122 33.1232C75.4725 33.3628 75.3379 33.6879 75.3379 34.0268V55.9558H9.00305V18.0224C9.00305 17.7902 9.05033 17.5689 9.13558 17.3674C9.39153 16.7631 9.99067 16.3381 10.6873 16.3381H62.11C62.2997 16.3381 62.487 16.2959 62.6583 16.2145C62.8296 16.1331 62.9807 16.0147 63.1005 15.8677C63.2204 15.7207 63.306 15.5488 63.3512 15.3646C63.3965 15.1804 63.4001 14.9885 63.362 14.8027C63.3026 14.5145 63.1456 14.2556 62.9175 14.0698C62.6894 13.8839 62.4042 13.7824 62.11 13.7824H10.6873C8.78782 13.7824 7.17605 15.038 6.63824 16.763C6.51128 17.1707 6.4469 17.5953 6.44729 18.0224V56.9899L0.417327 72.2245C-0.296826 74.0289 -0.0894442 75.9062 1.00132 77.5111C2.09208 79.1159 3.76154 79.9998 5.70192 79.9998H78.6389C80.5792 79.9998 82.2487 79.1159 83.3395 77.5113C84.4304 75.9064 84.6378 74.029 83.9236 72.2245L77.8937 56.9899ZM75.7472 58.5115L80.8552 71.4169H56.4576L53.569 66.9032C53.4534 66.7226 53.2943 66.574 53.1062 66.471C52.9181 66.3681 52.7071 66.3141 52.4927 66.3141H31.8485C31.634 66.3141 31.4231 66.3681 31.235 66.471C31.0469 66.574 30.8877 66.7226 30.7721 66.9032L27.8834 71.4169H3.4857L8.59376 58.5115H75.7472ZM53.4231 71.4169H30.9176L32.5477 68.87H51.7931L53.423 71.4169H53.4231ZM81.2257 76.0746C80.6167 76.9704 79.7221 77.4441 78.6389 77.4441H5.7021C4.61882 77.4441 3.7243 76.9704 3.1153 76.0746C2.6695 75.4186 2.49169 74.7038 2.58407 73.9726H81.7569C81.8493 74.7038 81.6714 75.4186 81.2257 76.0746ZM24.2078 36.147C24.2078 32.9006 25.0998 29.7123 26.7475 26.9457L26.1789 27.141C26.0202 27.1955 25.8523 27.2183 25.6848 27.2079C25.5173 27.1975 25.3534 27.1543 25.2027 27.0806C25.0519 27.0069 24.9171 26.9043 24.806 26.7785C24.6948 26.6528 24.6096 26.5063 24.5551 26.3476C24.5005 26.1889 24.4778 26.021 24.4882 25.8535C24.4985 25.686 24.5418 25.5222 24.6154 25.3714C24.6891 25.2206 24.7918 25.0858 24.9175 24.9747C25.0433 24.8636 25.1897 24.7783 25.3484 24.7238L29.9572 23.1405C30.1539 23.073 30.3641 23.0545 30.5696 23.0866C30.775 23.1187 30.9696 23.2005 31.1363 23.3248C31.303 23.4491 31.4369 23.6123 31.5263 23.8C31.6157 23.9878 31.6579 24.1945 31.6493 24.4023L31.4538 29.0918C31.4397 29.4304 31.2916 29.7495 31.0421 29.979C30.7927 30.2084 30.4623 30.3294 30.1237 30.3153C29.7851 30.3011 29.4659 30.153 29.2365 29.9036C29.007 29.6542 28.8861 29.3238 28.9002 28.9852L28.9298 28.2754C27.5243 30.6433 26.7638 33.3701 26.7638 36.147C26.7638 44.6423 33.6753 51.5538 42.1707 51.5538C50.666 51.5538 57.5775 44.6425 57.5775 36.147C57.5775 27.6514 50.666 20.7401 42.1707 20.7401C40.1547 20.7401 38.1954 21.1231 36.3468 21.8783C36.1915 21.9418 36.0251 21.9742 35.8573 21.9734C35.6895 21.9726 35.5234 21.9388 35.3687 21.8738C35.2139 21.8088 35.0735 21.714 34.9554 21.5948C34.8373 21.4755 34.7439 21.3341 34.6804 21.1788C34.5523 20.865 34.554 20.5133 34.6852 20.2008C34.8164 19.8883 35.0663 19.6408 35.38 19.5126C37.5369 18.6312 39.8217 18.1843 42.1707 18.1843C52.0753 18.1843 60.1333 26.2423 60.1333 36.147C60.1333 46.0516 52.0753 54.1096 42.1707 54.1096C32.266 54.1096 24.208 46.0516 24.208 36.147H24.2078ZM42.1705 23.3722C39.1717 23.3722 36.732 25.8118 36.732 28.8106V30.2603H35.9121C34.3175 30.2603 33.0201 31.5577 33.0201 33.1525V43.9141C33.0201 45.5087 34.3175 46.8061 35.9121 46.8061H48.4284C50.0232 46.8061 51.3207 45.5089 51.3207 43.9141V33.1525C51.3207 31.5579 50.0232 30.2603 48.4284 30.2603H47.6088V28.8106C47.6088 25.8118 45.1691 23.3722 42.1703 23.3722H42.1705ZM39.2878 28.8106C39.2878 27.2211 40.5808 25.9279 42.1705 25.9279C43.7602 25.9279 45.0532 27.2211 45.0532 28.8106V30.2603H39.2878V28.8106ZM48.7651 33.1525V43.9141C48.7651 44.0963 48.611 44.2504 48.4286 44.2504H35.9123C35.8235 44.2492 35.7387 44.2134 35.6759 44.1506C35.613 44.0878 35.5772 44.0029 35.5761 43.9141V33.1525C35.5761 32.9701 35.7301 32.8161 35.9123 32.8161H48.4286C48.611 32.8161 48.7651 32.9701 48.7651 33.1525ZM38.155 38.8736C38.0698 38.7282 38.0141 38.5674 37.9913 38.4004C37.9685 38.2335 37.9789 38.0636 38.022 37.9007C38.0651 37.7378 38.1399 37.585 38.2423 37.4511C38.3447 37.3172 38.4725 37.2049 38.6185 37.1206C38.7644 37.0364 38.9256 36.9818 39.0927 36.9601C39.2598 36.9384 39.4296 36.9499 39.5922 36.9941C39.7549 37.0382 39.9072 37.1141 40.0404 37.2174C40.1735 37.3206 40.285 37.4492 40.3683 37.5957L40.9727 38.6423L44.1758 35.4392C44.4155 35.1996 44.7405 35.0649 45.0795 35.065C45.4184 35.065 45.7434 35.1996 45.983 35.4393C46.2227 35.6789 46.3573 36.004 46.3573 36.3429C46.3573 36.6818 46.2226 37.0068 45.9829 37.2465L41.6024 41.6271C41.4637 41.7656 41.2951 41.8704 41.1095 41.9334C40.9239 41.9964 40.7264 42.0159 40.532 41.9903C40.3377 41.9648 40.1519 41.8948 39.9889 41.7859C39.826 41.677 39.6902 41.5321 39.5923 41.3624L38.1552 38.8734L38.155 38.8736ZM91.9681 20.821C91.8803 20.4936 91.6661 20.2146 91.3726 20.0451C91.0792 19.8757 90.7304 19.8297 90.403 19.9173L86.661 20.9201L85.6705 19.2046C86.0823 18.5249 86.3955 17.7902 86.6008 17.0225C87.1773 14.871 86.885 12.6299 85.778 10.7124C84.671 8.79481 82.8763 7.42127 80.7247 6.84458C79.9571 6.63841 79.1642 6.54222 78.3696 6.55888L77.4238 4.92064L80.163 2.18104C80.2817 2.06239 80.3758 1.92153 80.44 1.7665C80.5043 1.61146 80.5373 1.4453 80.5373 1.27749C80.5373 1.10968 80.5043 0.943512 80.44 0.788479C80.3758 0.633446 80.2817 0.492583 80.163 0.373934C79.9233 0.134402 79.5983 -0.000152588 79.2594 -0.000152588C78.9206 -0.000152588 78.5956 0.134402 78.3559 0.373934L75.3585 3.3713C75.035 3.69521 74.8273 4.11671 74.7675 4.57056C74.7078 5.02442 74.7992 5.48533 75.0277 5.88197L75.7096 7.06292C75.2614 7.22696 74.8282 7.42912 74.4145 7.66717L73.4855 8.20352L72.5961 7.69017L73.227 5.33595C73.2728 5.17313 73.2858 5.00284 73.2653 4.83496C73.2447 4.66709 73.1911 4.50495 73.1074 4.35797C73.0237 4.21098 72.9117 4.08207 72.7778 3.9787C72.644 3.87533 72.4909 3.79957 72.3275 3.75579C72.1642 3.71202 71.9937 3.70112 71.8261 3.72371C71.6585 3.7463 71.4971 3.80194 71.3511 3.8874C71.2052 3.97286 71.0776 4.08645 70.9759 4.22157C70.8742 4.35669 70.8003 4.51066 70.7585 4.67455L70.0331 7.38184C69.7943 8.27362 70.1758 9.21669 70.9608 9.69481C70.7506 9.83936 70.5472 9.9936 70.3512 10.157L69.6696 8.97627C69.4404 8.57994 69.0871 8.27017 68.6641 8.09491C68.2412 7.91965 67.7723 7.88865 67.33 8.00672L63.2351 9.10388C62.9088 9.19251 62.6309 9.40688 62.4623 9.70001C62.2937 9.99314 62.2482 10.3411 62.3357 10.6678C62.4232 10.9944 62.6366 11.273 62.9292 11.4426C63.2217 11.6122 63.5695 11.6589 63.8965 11.5726L67.6387 10.57L68.5837 12.2068C68.0167 13.1405 67.6377 14.1761 67.4682 15.2552L66.2606 15.9524C65.1433 16.5976 64.3211 17.6144 63.9193 18.8362L63.075 18.6099C62.7476 18.5222 62.3988 18.5681 62.1053 18.7375L58.9405 20.5648C58.647 20.7343 58.4328 21.0134 58.345 21.3408C58.2573 21.6682 58.3032 22.017 58.4727 22.3105C58.6421 22.604 58.9213 22.8182 59.2486 22.9059C59.576 22.9937 59.9248 22.9478 60.2184 22.7783L62.9247 21.2155L63.7391 21.434C63.8474 22.0147 64.0539 22.5726 64.3498 23.0839C64.6447 23.5957 65.0247 24.0535 65.4736 24.4375L65.2552 25.2523L62.5489 26.8148C62.2553 26.9842 62.0412 27.2633 61.9534 27.5907C61.8657 27.9181 61.9116 28.2669 62.0811 28.5604C62.2505 28.854 62.5296 29.0682 62.857 29.1559C63.1844 29.2436 63.5332 29.1977 63.8267 29.0282L66.9915 27.2011C67.285 27.0315 67.4992 26.7524 67.587 26.425L67.8128 25.5818C68.1628 25.6545 68.5202 25.6932 68.8799 25.6932C69.7647 25.6932 70.6614 25.4682 71.4814 24.9949L72.6909 24.2966C73.6495 24.6666 74.6681 24.8571 75.6957 24.8585C75.7587 24.8585 75.8217 24.854 75.8847 24.8525L76.8759 26.5696L74.1365 29.3092C73.9577 29.4879 73.836 29.7156 73.7867 29.9635C73.7374 30.2114 73.7626 30.4683 73.8594 30.7018C73.9561 30.9354 74.1199 31.1349 74.3301 31.2753C74.5403 31.4157 74.7874 31.4906 75.0402 31.4905C75.208 31.4907 75.3743 31.4578 75.5294 31.3935C75.6844 31.3293 75.8253 31.235 75.9438 31.1161L78.9413 28.1186C79.2647 27.7946 79.4722 27.3731 79.532 26.9192C79.5918 26.4654 79.5004 26.0046 79.272 25.6079L78.5447 24.3481C78.799 24.2556 79.0488 24.1508 79.2929 24.0339V24.0816C79.2935 24.5392 79.4448 24.9839 79.7235 25.347C80.0021 25.7101 80.3925 25.9712 80.8344 26.0902L83.5415 26.8157C83.8689 26.9032 84.2176 26.8572 84.5111 26.6878C84.8046 26.5183 85.0187 26.2393 85.1066 25.912C85.1943 25.5847 85.1484 25.2359 84.979 24.9424C84.8095 24.6489 84.5304 24.4347 84.2031 24.347L81.8487 23.7161V22.5868L82.7332 22.0762C83.1462 21.837 83.5379 21.5628 83.9041 21.2567L84.6303 22.5145C84.8596 22.9106 85.213 23.2202 85.6359 23.3953C86.0587 23.5705 86.5275 23.6016 86.9697 23.4837L91.0646 22.3864C91.3919 22.2986 91.671 22.0844 91.8404 21.7909C92.0099 21.4974 92.0558 21.1487 91.9681 20.8213V20.821ZM75.6922 9.88064C76.5605 9.37735 77.5462 9.11228 78.5498 9.11227C79.0536 9.11227 79.5617 9.17872 80.063 9.31308C81.1311 9.59933 82.0707 10.1691 82.8002 10.9557L70.1771 18.2438C69.8605 17.219 69.8368 16.1202 70.1232 15.0521C70.523 13.5599 71.4736 12.3165 72.8 11.5507L75.6924 9.88083L75.6922 9.88064ZM66.5629 21.8058C66.2091 21.1932 66.1162 20.4756 66.3013 19.785C66.4851 19.0991 66.9201 18.5277 67.5264 18.1734C67.6991 19.0401 68.0114 19.8938 68.4773 20.7007C68.9432 21.5075 69.5261 22.2049 70.1906 22.788C68.9196 23.5122 67.2951 23.074 66.5631 21.8058H66.5629ZM81.4551 19.8624L78.5629 21.5322C76.1913 22.9012 73.242 22.3865 71.4548 20.4573L84.0783 13.169C84.8554 15.6815 83.8267 18.493 81.4551 19.8624Z" fill="white"/>
</svg>
