<svg xmlns="http://www.w3.org/2000/svg" width="95" height="67" viewBox="0 0 95 67" fill="none"><path d="M61.7381 53.1876H33.2619C31.7021 53.1876 30.4376 51.9231 30.4376 50.3633V44.6371C30.4376 43.0772 31.7021 41.8128 33.2619 41.8128H61.7381C63.2979 41.8128 64.5624 43.0772 64.5624 44.6371V50.3633C64.5626 51.9231 63.2979 53.1876 61.7381 53.1876ZM61.7381 53.1876C63.2979 53.1876 64.5624 54.4521 64.5624 56.0119V61.7381C64.5624 63.2979 63.2979 64.5624 61.7381 64.5624H42.6602M36.2517 64.5626H33.2617C31.7019 64.5626 30.4374 63.2981 30.4374 61.7383V56.0121C30.4374 54.4522 31.7019 53.1878 33.2617 53.1878M36.125 36.125H38.9687M36.125 47.5H38.9687M36.125 58.875H38.9687M90.2206 44.657H92.084C92.3268 44.657 92.5596 44.5606 92.7313 44.3889C92.903 44.2172 92.9995 43.9843 92.9995 43.7415V39.8836C92.9995 39.6408 92.903 39.408 92.7313 39.2363C92.5596 39.0646 92.3268 38.9681 92.084 38.9681H80.7906C80.6692 38.9681 80.5528 38.9199 80.467 38.8341C80.3811 38.7482 80.3329 38.6318 80.3329 38.5104V35.4913C80.3329 34.6756 79.3467 34.2673 78.77 34.8439L70.5197 43.0941C69.943 43.6708 70.3515 44.657 71.1672 44.657H83.6289M43.8311 3.72643L47.0906 2.09667C47.2177 2.0331 47.3579 2 47.5 2C47.6421 2 47.7823 2.0331 47.9094 2.09667L58.1752 7.22965C58.3273 7.30568 58.4552 7.42256 58.5446 7.56718C58.6339 7.7118 58.6813 7.87846 58.6813 8.04847V15.0641C58.6813 21.5375 55.446 27.5829 50.0597 31.1736L48.0079 32.5416C47.8576 32.6419 47.6809 32.6954 47.5001 32.6954C47.3194 32.6954 47.1427 32.6419 46.9923 32.5416L44.9405 31.1736C42.2884 29.4056 40.1138 27.0101 38.6098 24.1999C37.1058 21.3896 36.3189 18.2515 36.3189 15.0641V8.04847C36.3189 7.87846 36.3663 7.7118 36.4557 7.56718C36.545 7.42256 36.6729 7.30568 36.825 7.22965L38.062 6.61115M92.0827 50.3439H71.1659C70.9231 50.3439 70.6902 50.4403 70.5185 50.612C70.3468 50.7837 70.2504 51.0166 70.2504 51.2594V55.1173C70.2504 55.3601 70.3468 55.5929 70.5185 55.7646C70.6902 55.9363 70.9231 56.0327 71.1659 56.0327H82.4592C82.5806 56.0327 82.697 56.081 82.7829 56.1668C82.8687 56.2527 82.917 56.3691 82.917 56.4905V59.5096C82.917 60.3253 83.9031 60.7336 84.4799 60.1571L92.7301 51.9068C93.3067 51.3299 92.8982 50.3439 92.0827 50.3439ZM23.8329 44.657H2.91606C2.67326 44.657 2.4404 44.5606 2.26871 44.3889C2.09702 44.2172 2.00057 43.9843 2.00057 43.7415V39.8836C2.00057 39.6408 2.09702 39.408 2.26871 39.2363C2.4404 39.0646 2.67326 38.9681 2.91606 38.9681H14.2094C14.3308 38.9681 14.4472 38.9199 14.5331 38.8341C14.6189 38.7482 14.6671 38.6318 14.6671 38.5104V35.4913C14.6671 34.6756 15.6533 34.2673 16.2301 34.8439L24.4803 43.0941C25.0569 43.6708 24.6484 44.657 23.8329 44.657ZM2.91734 50.3439H23.8342C24.077 50.3439 24.3098 50.4403 24.4815 50.612C24.6532 50.7837 24.7497 51.0166 24.7497 51.2594V55.1173C24.7497 55.3601 24.6532 55.5929 24.4815 55.7646C24.3098 55.9363 24.077 56.0327 23.8342 56.0327H12.5408C12.4194 56.0327 12.303 56.081 12.2171 56.1668C12.1313 56.2527 12.0831 56.3691 12.0831 56.4905V59.5096C12.0831 60.3253 11.0969 60.7336 10.5201 60.1571L2.26991 51.9066C1.69333 51.3299 2.10164 50.3439 2.91734 50.3439Z" stroke="white" stroke-width="3" stroke-miterlimit="10" stroke-linecap="round" stroke-linejoin="round"></path><path d="M43.7118 17.1905L46.4335 19.9123L51.8771 14.4688M61.738 41.8129C63.2978 41.8129 64.5623 40.5484 64.5623 38.9886V33.2624C64.5623 31.7025 63.2978 30.4381 61.738 30.4381H51.0892M43.9106 30.4379H33.2618C31.702 30.4379 30.4375 31.7024 30.4375 33.2622V38.9884C30.4375 40.5482 31.702 41.8127 33.2618 41.8127" stroke="white" stroke-width="3" stroke-miterlimit="10" stroke-linecap="round" stroke-linejoin="round"></path></svg>