<svg xmlns="http://www.w3.org/2000/svg" width="95" height="58" viewBox="0 0 95 58" fill="none"><path d="M23.9638 0.0649172L23.4793 0L23.047 0.215333L0.880333 11.2987L0 11.7388V47.0107L0.9595 47.4224L11.7563 52.0489L23.5125 57.0871L95 48.9646V9.75175L23.9638 0.0649172ZM9.5 47.6377L3.16667 44.9239V13.6958L9.5 10.5292V47.6377ZM22.1667 53.0654L12.6667 48.9947V8.94583L22.1667 4.19583V53.0654ZM91.8333 46.1367L25.3333 53.694V3.44692L91.8333 12.5162V46.1367Z" fill="white"></path><path d="M6.33431 22.2164C5.91438 22.2164 5.51166 22.3832 5.21472 22.6802C4.91779 22.9771 4.75098 23.3798 4.75098 23.7997V34.8831C4.75098 35.303 4.91779 35.7057 5.21472 36.0027C5.51166 36.2996 5.91438 36.4664 6.33431 36.4664C6.75424 36.4664 7.15696 36.2996 7.4539 36.0027C7.75083 35.7057 7.91764 35.303 7.91764 34.8831V23.7997C7.91764 23.3798 7.75083 22.9771 7.4539 22.6802C7.15696 22.3832 6.75424 22.2164 6.33431 22.2164ZM17.4176 22.2164C16.9977 22.2164 16.595 22.3832 16.2981 22.6802C16.0011 22.9771 15.8343 23.3798 15.8343 23.7997V36.4664C15.8343 36.8863 16.0011 37.2891 16.2981 37.586C16.595 37.8829 16.9977 38.0498 17.4176 38.0498C17.8376 38.0498 18.2403 37.8829 18.5372 37.586C18.8342 37.2891 19.001 36.8863 19.001 36.4664V23.7997C19.001 23.3798 18.8342 22.9771 18.5372 22.6802C18.2403 22.3832 17.8376 22.2164 17.4176 22.2164ZM87.2585 14.3093L30.2585 7.97592C30.0372 7.95143 29.8132 7.97388 29.6012 8.0418C29.3892 8.10973 29.1939 8.2216 29.0281 8.37012C28.8622 8.51864 28.7295 8.70046 28.6387 8.90373C28.5479 9.10699 28.501 9.32712 28.501 9.54975V47.5498C28.501 47.9697 28.6678 48.3724 28.9647 48.6693C29.2617 48.9663 29.6644 49.1331 30.0843 49.1331C30.1281 49.1355 30.172 49.1355 30.2157 49.1331L87.2157 44.3831C87.6125 44.35 87.9822 44.1687 88.2513 43.8753C88.5204 43.5819 88.669 43.1979 88.6677 42.7998V15.8831C88.6677 15.4933 88.5239 15.1172 88.2639 14.8268C88.0039 14.5364 87.6459 14.3521 87.2585 14.3093ZM38.001 45.3014L31.6676 45.8287V11.3183L38.001 12.0229V45.3014ZM47.501 44.5098L41.1676 45.037V12.3744L47.501 13.0774V44.5098ZM57.001 43.7181L50.6677 44.2453V13.4305L57.001 14.1335V43.7181ZM66.501 42.9264L60.1677 43.4537V14.4787L66.501 15.1833V42.9264ZM76.001 42.1348L69.6677 42.662V15.5348L76.001 16.2393V42.1348ZM85.501 41.3431L79.1677 41.8703V16.5972L85.501 17.3017V41.3431Z" fill="white"></path></svg>