<svg xmlns="http://www.w3.org/2000/svg" width="81" height="80" viewBox="0 0 81 80" fill="none"><path d="M50.5414 51.6131H58.2834C58.6256 51.6131 58.9538 51.4772 59.1958 51.2352C59.4377 50.9932 59.5737 50.665 59.5737 50.3228V45.1615C59.5737 44.8193 59.4377 44.4911 59.1958 44.2491C58.9538 44.0071 58.6256 43.8712 58.2834 43.8712H50.5414C50.1992 43.8712 49.871 44.0071 49.629 44.2491C49.387 44.4911 49.2511 44.8193 49.2511 45.1615V50.3228C49.2511 50.665 49.387 50.9932 49.629 51.2352C49.871 51.4772 50.1992 51.6131 50.5414 51.6131ZM51.8317 46.4518H56.993V49.0325H51.8317V46.4518ZM54.4124 54.1938C53.3916 54.1938 52.3937 54.4965 51.5449 55.0636C50.6962 55.6308 50.0346 56.4368 49.644 57.3799C49.2533 58.323 49.1511 59.3608 49.3503 60.362C49.5494 61.3632 50.041 62.2828 50.7628 63.0047C51.4846 63.7265 52.4043 64.218 53.4055 64.4172C54.4067 64.6163 55.4444 64.5141 56.3875 64.1235C57.3306 63.7328 58.1367 63.0713 58.7038 62.2225C59.271 61.3738 59.5737 60.3759 59.5737 59.3551C59.5737 57.9862 59.0299 56.6734 58.062 55.7055C57.094 54.7376 55.7813 54.1938 54.4124 54.1938ZM54.4124 61.9357C53.902 61.9357 53.403 61.7844 52.9787 61.5008C52.5543 61.2172 52.2235 60.8142 52.0282 60.3426C51.8329 59.8711 51.7818 59.3522 51.8813 58.8516C51.9809 58.351 52.2267 57.8912 52.5876 57.5303C52.9485 57.1694 53.4083 56.9236 53.9089 56.824C54.4095 56.7244 54.9284 56.7755 55.4 56.9709C55.8715 57.1662 56.2746 57.497 56.5581 57.9213C56.8417 58.3457 56.993 58.8447 56.993 59.3551C56.993 60.0395 56.7212 60.6959 56.2372 61.1799C55.7532 61.6638 55.0968 61.9357 54.4124 61.9357ZM16.993 32.2583C15.9664 32.2583 14.9818 32.6661 14.2559 33.3921C13.5299 34.118 13.1221 35.1026 13.1221 36.1293V42.5809H15.7027V40.0002H18.2834V42.5809H20.864V36.1293C20.864 35.1026 20.4562 34.118 19.7302 33.3921C19.0043 32.6661 18.0197 32.2583 16.993 32.2583ZM15.7027 37.4196V36.1293C15.7027 35.7871 15.8387 35.4589 16.0806 35.2169C16.3226 34.9749 16.6508 34.8389 16.993 34.8389C17.3353 34.8389 17.6635 34.9749 17.9054 35.2169C18.1474 35.4589 18.2834 35.7871 18.2834 36.1293V37.4196H15.7027Z" fill="white"></path><path d="M73.7671 0H29.8962C28.1857 0.00204885 26.5459 0.682428 25.3365 1.8919C24.127 3.10136 23.4466 4.74117 23.4446 6.45161V18.0645H1.50907C1.16686 18.0645 0.838659 18.2005 0.596677 18.4424C0.354694 18.6844 0.21875 19.0126 0.21875 19.3548V70.9677C0.21875 71.31 0.354694 71.6382 0.596677 71.8801C0.838659 72.1221 1.16686 72.2581 1.50907 72.2581H10.5413V78.7097C10.5413 79.0519 10.6773 79.3801 10.9193 79.6221C11.1612 79.8641 11.4894 80 11.8317 80H40.2188C40.561 80 40.8892 79.8641 41.1311 79.6221C41.3731 79.3801 41.5091 79.0519 41.5091 78.7097V72.2581H63.4446C63.7868 72.2581 64.115 72.1221 64.3569 71.8801C64.5989 71.6382 64.7349 71.31 64.7349 70.9677V41.2903H73.7671C75.4776 41.2883 77.1174 40.6079 78.3269 39.3984C79.5363 38.189 80.2167 36.5492 80.2188 34.8387V6.45161C80.2167 4.74117 79.5363 3.10136 78.3269 1.8919C77.1174 0.682428 75.4776 0.00204885 73.7671 0ZM29.8962 41.2903H35.0575V46.4516C35.0574 46.7068 35.133 46.9563 35.2747 47.1685C35.4164 47.3807 35.6179 47.5461 35.8536 47.6439C36.0101 47.7091 36.1782 47.7425 36.3478 47.7419C36.69 47.7419 37.0181 47.6059 37.26 47.3639L43.3336 41.2903H44.0897V49.0323H7.96069V25.8064H23.4446V34.8387C23.4466 36.5492 24.127 38.189 25.3365 39.3984C26.5459 40.6079 28.1857 41.2883 29.8962 41.2903ZM10.5413 61.9355H7.96069V56.7742H10.5413V61.9355ZM13.122 77.4193V56.7742H15.7026V69.6774C15.7026 70.0196 15.8386 70.3478 16.0805 70.5898C16.3225 70.8318 16.6507 70.9677 16.9929 70.9677C17.6774 70.9677 18.3338 71.2396 18.8177 71.7236C19.3017 72.2076 19.5736 72.864 19.5736 73.5484C19.5736 73.8906 19.7095 74.2188 19.9515 74.4608C20.1935 74.7028 20.5217 74.8387 20.8639 74.8387H31.1865C31.5287 74.8387 31.8569 74.7028 32.0989 74.4608C32.3409 74.2188 32.4768 73.8906 32.4768 73.5484C32.4768 72.864 32.7487 72.2076 33.2327 71.7236C33.7166 71.2396 34.373 70.9677 35.0575 70.9677C35.3997 70.9677 35.7279 70.8318 35.9699 70.5898C36.2118 70.3478 36.3478 70.0196 36.3478 69.6774V56.7742H38.9284V77.4193H13.122ZM18.2833 62.289C19.2481 63.3938 20.4381 64.2792 21.7734 64.8859C23.1088 65.4926 24.5585 65.8065 26.0252 65.8065C27.4919 65.8065 28.9416 65.4926 30.277 64.8859C31.6123 64.2792 32.8024 63.3938 33.7671 62.289V68.551C32.8753 68.7832 32.0616 69.2492 31.4099 69.9008C30.7582 70.5525 30.2923 71.3662 30.06 72.2581H21.9904C21.7581 71.3662 21.2922 70.5525 20.6405 69.9008C19.9888 69.2492 19.1751 68.7832 18.2833 68.551V62.289ZM26.0252 63.2258C24.1974 63.2224 22.4296 62.5731 21.0342 61.3925C19.6388 60.212 18.7055 58.5762 18.3994 56.7742H33.651C33.3449 58.5762 32.4116 60.212 31.0162 61.3925C29.6208 62.5731 27.853 63.2224 26.0252 63.2258ZM41.5091 56.7742H44.0897V61.9355H41.5091V56.7742ZM62.1542 69.6774H41.5091V64.5161H45.38C45.7223 64.5161 46.0505 64.3802 46.2924 64.1382C46.5344 63.8962 46.6704 63.568 46.6704 63.2258V55.4839C46.6704 55.1417 46.5344 54.8135 46.2924 54.5715C46.0505 54.3295 45.7223 54.1935 45.38 54.1935H6.67036C6.32815 54.1935 5.99995 54.3295 5.75797 54.5715C5.51598 54.8135 5.38004 55.1417 5.38004 55.4839V63.2258C5.38004 63.568 5.51598 63.8962 5.75797 64.1382C5.99995 64.3802 6.32815 64.5161 6.67036 64.5161H10.5413V69.6774H2.7994V20.6452H23.4446V23.2258H6.67036C6.32815 23.2258 5.99995 23.3617 5.75797 23.6037C5.51598 23.8457 5.38004 24.1739 5.38004 24.5161V50.3226C5.38004 50.6648 5.51598 50.993 5.75797 51.235C5.99995 51.477 6.32815 51.6129 6.67036 51.6129H45.38C45.7223 51.6129 46.0505 51.477 46.2924 51.235C46.5344 50.993 46.6704 50.6648 46.6704 50.3226V41.2903H62.1542V69.6774ZM77.6381 34.8387C77.6381 35.8654 77.2303 36.8499 76.5043 37.5759C75.7784 38.3018 74.7938 38.7097 73.7671 38.7097H42.7994C42.4572 38.7098 42.1291 38.8457 41.8871 39.0877L37.6381 43.3368V40C37.6381 39.6578 37.5022 39.3296 37.2602 39.0876C37.0182 38.8456 36.69 38.7097 36.3478 38.7097H29.8962C28.8695 38.7097 27.8849 38.3018 27.159 37.5759C26.433 36.8499 26.0252 35.8654 26.0252 34.8387V6.45161C26.0252 5.42497 26.433 4.44037 27.159 3.71443C27.8849 2.98848 28.8695 2.58065 29.8962 2.58065H73.7671C74.7938 2.58065 75.7784 2.98848 76.5043 3.71443C77.2303 4.44037 77.6381 5.42497 77.6381 6.45161V34.8387Z" fill="white"></path><path d="M45.3797 21.9356H58.2829C58.6251 21.9356 58.9533 21.7997 59.1953 21.5577C59.4373 21.3157 59.5732 20.9875 59.5732 20.6453V12.9034C59.5732 12.5611 59.4373 12.2329 59.1953 11.991C58.9533 11.749 58.6251 11.613 58.2829 11.613H56.9926V9.03238C56.9926 7.66352 56.4488 6.35073 55.4809 5.3828C54.5129 4.41487 53.2001 3.87109 51.8313 3.87109C50.4624 3.87109 49.1496 4.41487 48.1817 5.3828C47.2138 6.35073 46.67 7.66352 46.67 9.03238V11.613H45.3797C45.0374 11.613 44.7092 11.749 44.4673 11.991C44.2253 12.2329 44.0893 12.5611 44.0893 12.9034V20.6453C44.0893 20.9875 44.2253 21.3157 44.4673 21.5577C44.7092 21.7997 45.0374 21.9356 45.3797 21.9356ZM49.2506 9.03238C49.2506 8.34795 49.5225 7.69156 50.0065 7.20759C50.4904 6.72363 51.1468 6.45174 51.8313 6.45174C52.5157 6.45174 53.1721 6.72363 53.6561 7.20759C54.14 7.69156 54.4119 8.34795 54.4119 9.03238V11.613H49.2506V9.03238ZM46.67 14.1937H56.9926V19.355H46.67V14.1937ZM73.7668 23.2259H29.8958C29.5536 23.2259 29.2254 23.3619 28.9834 23.6039C28.7414 23.8458 28.6055 24.174 28.6055 24.5163V34.8388C28.6055 35.181 28.7414 35.5092 28.9834 35.7512C29.2254 35.9932 29.5536 36.1292 29.8958 36.1292H73.7668C74.109 36.1292 74.4372 35.9932 74.6792 35.7512C74.9211 35.5092 75.0571 35.181 75.0571 34.8388V24.5163C75.0571 24.174 74.9211 23.8458 74.6792 23.6039C74.4372 23.3619 74.109 23.2259 73.7668 23.2259ZM31.1861 25.8066H64.7345V33.5485H31.1861V25.8066ZM72.4764 33.5485H67.3151V25.8066H72.4764V33.5485Z" fill="white"></path><path d="M37.6385 27.0968H35.0579V28.3871H33.7676V30.9678H35.0579V32.2581H37.6385V30.9678H38.9289V28.3871H37.6385V27.0968ZM45.3805 27.0968H42.7998V28.3871H41.5095V30.9678H42.7998V32.2581H45.3805V30.9678H46.6708V28.3871H45.3805V27.0968ZM53.1224 27.0968H50.5418V28.3871H49.2514V30.9678H50.5418V32.2581H53.1224V30.9678H54.4127V28.3871H53.1224V27.0968ZM62.1547 28.3871H60.8644V27.0968H58.2837V28.3871H56.9934V30.9678H58.2837V32.2581H60.8644V30.9678H62.1547V28.3871ZM50.5418 15.4839H53.1224V18.0645H50.5418V15.4839Z" fill="white"></path></svg>