<svg xmlns="http://www.w3.org/2000/svg" width="64" height="64" viewBox="0 0 64 64" fill="none"><path d="M5.4375 0H58.5625C61.5375 0 63.875 2.3375 63.875 5.3125V43.5625C63.875 46.5375 61.5375 48.875 58.5625 48.875H39.65L41.35 57.375H43.6875C45.4938 57.375 46.875 58.7562 46.875 60.5625C46.875 62.3688 45.4938 63.75 43.6875 63.75H20.3125C18.5062 63.75 17.125 62.3688 17.125 60.5625C17.125 58.7562 18.5062 57.375 20.3125 57.375H22.65L24.35 48.875H5.4375C2.4625 48.875 0.125 46.5375 0.125 43.5625V5.3125C0.125 2.3375 2.4625 0 5.4375 0ZM58.5625 2.125H5.4375C3.63125 2.125 2.25 3.50625 2.25 5.3125V40.375H61.75V5.3125C61.75 3.50625 60.3688 2.125 58.5625 2.125ZM19.25 60.5625C19.25 61.2 19.675 61.625 20.3125 61.625H43.6875C44.325 61.625 44.75 61.2 44.75 60.5625C44.75 59.925 44.325 59.5 43.6875 59.5H20.3125C19.675 59.5 19.25 59.925 19.25 60.5625ZM24.775 57.375H39.225L37.525 48.875H26.475L24.775 57.375ZM5.4375 46.75H58.5625C60.3688 46.75 61.75 45.3688 61.75 43.5625V42.5H2.25V43.5625C2.25 45.3688 3.63125 46.75 5.4375 46.75Z" fill="white"></path><path d="M48.4686 30.3875C47.8311 31.5562 46.7686 32.3 45.4936 32.6188C44.5373 32.8313 43.5811 33.0438 42.6248 32.9375C41.2436 32.9375 39.8623 32.725 38.4811 32.4062C36.8873 36.0187 34.6561 38.25 31.9998 38.25C29.3436 38.25 27.1123 36.0187 25.5186 32.4062C24.1373 32.725 22.7561 32.8312 21.3748 32.9375C20.4186 32.9375 19.4623 32.8313 18.5061 32.6188C17.2311 32.3 16.1686 31.5562 15.5311 30.3875C14.2561 28.05 15.5311 24.65 18.6123 21.25C15.5311 17.85 14.2561 14.5562 15.5311 12.1125C16.1686 10.9437 17.2311 10.2 18.5061 9.88125C20.8435 9.35 23.2873 9.45625 25.5186 9.9875C27.1123 6.48125 29.4498 4.25 31.9998 4.25C34.5498 4.25 36.8873 6.48125 38.4811 10.0938C40.8186 9.45625 43.1561 9.45625 45.4936 9.9875C46.7686 10.3062 47.8311 11.05 48.4686 12.2188C49.7436 14.5562 48.4686 17.9563 45.3873 21.3563C48.4686 24.65 49.7436 27.9438 48.4686 30.3875ZM31.9998 36.125C33.4873 36.125 35.0811 34.5312 36.3561 31.875C34.8686 31.45 33.3811 30.9188 31.9998 30.2812C30.6186 30.9188 29.1311 31.45 27.6436 31.875C28.9186 34.5312 30.5123 36.125 31.9998 36.125ZM38.3748 21.25C38.3748 20.1875 38.2686 19.0187 38.1623 17.9562C37.0998 17.2125 36.0373 16.575 34.8686 15.9375C33.9123 15.4062 32.9561 14.9813 31.9998 14.45C31.0436 14.875 30.0873 15.4062 29.1311 15.9375C27.9623 16.575 26.8998 17.3187 25.8373 17.9562C25.6248 20.1875 25.6248 22.4188 25.8373 24.5438C26.8998 25.2875 27.9623 25.925 29.1311 26.5625C30.0873 27.0938 31.0436 27.625 31.9998 28.05C32.9561 27.625 33.9123 27.0938 34.8686 26.5625C36.0373 25.925 37.0998 25.1812 38.1623 24.5438C38.2686 23.4813 38.3748 22.3125 38.3748 21.25ZM40.4998 22.95C41.2436 22.4188 41.8811 21.8875 42.4123 21.25C41.7748 20.7188 41.1373 20.1875 40.4998 19.55V22.95ZM37.7373 15.1937L37.0998 12.6437C36.2498 12.8562 35.5061 13.175 34.6561 13.4937L35.9311 14.1313C36.5686 14.45 37.2061 14.7687 37.7373 15.1937ZM29.3436 13.3875C28.4936 13.0688 27.6436 12.8562 26.8998 12.5375C26.5811 13.3875 26.3685 14.2375 26.2623 15.0875C26.8998 14.7688 27.4311 14.3438 28.0686 14.025L29.3436 13.3875ZM23.4998 19.55C22.7561 20.0812 22.1186 20.6125 21.5873 21.25C22.2248 21.7812 22.8623 22.3125 23.4998 22.95V19.55ZM26.2623 27.3063L26.8998 29.8563C27.7498 29.6438 28.4936 29.325 29.3436 29.0062L28.0686 28.3688C27.4311 28.05 26.7936 27.7313 26.2623 27.3063ZM35.9311 28.475L34.6561 29.1125C35.5061 29.4312 36.3561 29.75 37.0998 29.9625C37.4186 29.1125 37.6311 28.2625 37.7373 27.4125C37.2061 27.7312 36.5686 28.05 35.9311 28.475ZM17.3373 29.325C17.7623 29.9625 18.3998 30.3875 19.0373 30.4938C20.9498 30.9188 22.8623 30.9188 24.7748 30.3875C24.3498 28.9 23.9248 27.3063 23.7123 25.7125C22.4373 24.7563 21.1623 23.8 19.9936 22.7375C17.6561 25.5 16.5936 27.9438 17.3373 29.325ZM21.4811 11.6875C20.7373 11.6875 19.8873 11.7938 19.1436 12.0063C18.3998 12.1125 17.7623 12.6437 17.4436 13.175C16.6998 14.5562 17.6561 17 20.2061 19.7625C21.3748 18.7 22.6498 17.6375 23.9248 16.7875C24.1373 15.1937 24.4561 13.6 24.9873 12.1125C23.7123 11.7937 22.5436 11.6875 21.4811 11.6875ZM31.9998 6.375C30.5123 6.375 28.9186 7.96875 27.6436 10.625C29.1311 11.05 30.6186 11.5813 31.9998 12.2188C33.3811 11.5813 34.8686 11.05 36.3561 10.625C35.0811 7.96875 33.4873 6.375 31.9998 6.375ZM46.6623 13.175C46.2373 12.5375 45.5998 12.1125 44.9623 12.0063C44.2186 11.7938 43.4748 11.6875 42.6248 11.6875C41.4561 11.6875 40.3936 11.7937 39.2248 12.1125C39.6498 13.6 40.0748 15.1937 40.2873 16.7875C41.5623 17.7437 42.8373 18.7 44.0061 19.7625C46.3436 17 47.4061 14.5562 46.6623 13.175ZM43.8998 22.7375C42.7311 23.8 41.4561 24.8625 40.1811 25.7125C39.9686 27.3063 39.6498 28.9 39.1186 30.3875C41.0311 30.8125 42.9436 30.9188 44.8561 30.4938C45.5998 30.3875 46.2373 29.8563 46.5561 29.325C47.4061 27.9438 46.3436 25.5 43.8998 22.7375Z" fill="white"></path><path d="M32 24.4375C30.1938 24.4375 28.8125 23.0562 28.8125 21.25C28.8125 19.4438 30.1938 18.0625 32 18.0625C33.8062 18.0625 35.1875 19.4438 35.1875 21.25C35.1875 23.0562 33.8062 24.4375 32 24.4375ZM32 20.1875C31.3625 20.1875 30.9375 20.6125 30.9375 21.25C30.9375 21.8875 31.3625 22.3125 32 22.3125C32.6375 22.3125 33.0625 21.8875 33.0625 21.25C33.0625 20.6125 32.6375 20.1875 32 20.1875ZM9.6875 5.3125H7.5625V7.4375H9.6875V5.3125ZM7.5625 7.4375H5.4375V9.5625H7.5625V7.4375ZM9.6875 9.5625H7.5625V11.6875H9.6875V9.5625ZM11.8125 7.4375H9.6875V9.5625H11.8125V7.4375ZM54.3125 30.8125H52.1875V32.9375H54.3125V30.8125ZM52.1875 32.9375H50.0625V35.0625H52.1875V32.9375ZM54.3125 35.0625H52.1875V37.1875H54.3125V35.0625ZM56.4375 32.9375H54.3125V35.0625H56.4375V32.9375ZM11.8125 18.0625H9.6875V20.1875H11.8125V18.0625ZM9.6875 20.1875H7.5625V22.3125H9.6875V20.1875ZM11.8125 22.3125H9.6875V24.4375H11.8125V22.3125ZM13.9375 20.1875H11.8125V22.3125H13.9375V20.1875ZM53.25 7.4375H51.125V9.5625H53.25V7.4375ZM58.5625 17H56.4375V19.125H58.5625V17ZM13.9375 35.0625H11.8125V37.1875H13.9375V35.0625Z" fill="white"></path></svg>