<svg xmlns="http://www.w3.org/2000/svg" width="58" height="64" viewBox="0 0 58 64" fill="none"><path d="M4.9506 39.0201V25.5002C2.15067 25.0301 0.000480652 22.5902 0.000480652 19.6502C0.000480652 16.3703 2.67036 13.7001 5.95055 13.7001C7.57055 13.7001 9.04054 14.3601 10.1104 15.41L22.9403 8.01015C22.7104 7.37013 22.5704 6.67021 22.5704 5.95007C22.5704 2.67013 25.2403 0 28.5105 0C31.7904 0 34.4606 2.66988 34.4606 5.95007C34.4606 6.66996 34.3205 7.37013 34.0807 8.01015L46.9104 15.4102C47.9904 14.3604 49.4604 13.7004 51.0804 13.7004C54.3604 13.7004 57.0205 16.3703 57.0205 19.6504C57.0205 22.5904 54.8806 25.0304 52.0806 25.5004V39.0303C54.9807 39.5203 57.0205 42.0002 57.0205 44.8803C57.0205 48.1602 54.3706 50.8204 51.0804 50.8204C49.3905 50.8204 47.7705 50.1304 46.5903 48.7703L34.0804 55.9901C34.3203 56.6401 34.4603 57.3301 34.4603 58.0602C34.4603 61.3301 31.7902 64.0003 28.5102 64.0003C25.2403 64.0003 22.5702 61.3304 22.5702 58.0602C22.5702 57.3303 22.7102 56.6401 22.9401 55.9901L10.4401 48.7603C9.35004 50.0203 7.74003 50.8204 5.95004 50.8204C2.6701 50.8204 -3.05176e-05 48.1602 -3.05176e-05 44.8803C0.000736237 41.94 2.15067 39.5001 4.9506 39.0201ZM5.95055 15.7003C3.77067 15.7003 2.00065 17.4703 2.00065 19.6502C2.00065 21.8201 3.77067 23.5901 5.94057 23.5901H5.96054C8.13044 23.5901 9.89047 21.8201 9.89047 19.6502C9.89047 17.47 8.12045 15.7003 5.95055 15.7003ZM23.9405 9.74023L11.2806 17.0502C11.6838 17.8575 11.8927 18.7478 11.8906 19.6502C11.8906 20.1602 11.8208 20.6601 11.7007 21.1401L16.1908 23.7301C18.6807 20.0301 22.8008 17.5202 27.5108 17.2002V11.8003C26.113 11.5618 24.8466 10.8311 23.9405 9.74023ZM23.8504 39.3301C23.7403 39.9401 24.2104 40.5 24.8304 40.5H32.1903C32.8104 40.5 33.2804 39.9401 33.1803 39.3301L32.1102 33.0201C33.2801 32.0101 33.9603 30.5302 33.9603 28.9501C33.9603 25.9502 31.5203 23.5 28.5205 23.5C25.5104 23.5 23.0704 25.95 23.0704 28.9501C23.0704 30.5302 23.7503 32.0101 24.9103 33.0201L23.8504 39.3301ZM28.5105 2.00017C26.3406 2.00017 24.5706 3.77019 24.5706 5.95007C24.5706 8.11997 26.3406 9.88999 28.5105 9.88999C30.6904 9.88999 32.4604 8.11997 32.4604 5.95007C32.4604 3.77019 30.6904 2.00017 28.5105 2.00017ZM33.0804 9.74023C32.1778 10.8349 30.9099 11.5665 29.5105 11.8003V17.2002C34.2504 17.5202 38.3805 20.0501 40.8704 23.7803L45.4504 21.5503C45.2504 20.9502 45.1303 20.3102 45.1303 19.6502C45.1303 18.7101 45.3602 17.8302 45.7404 17.0502L33.0804 9.74023ZM55.0203 19.6502C55.0203 17.47 53.2503 15.7003 51.0804 15.7003C48.9005 15.7003 47.1305 17.4703 47.1305 19.6502C47.1305 21.8201 48.9005 23.5901 51.0704 23.5901H51.0904C53.2603 23.5901 55.0203 21.8201 55.0203 19.6502ZM55.0203 44.88C55.0203 42.6799 53.2403 40.9401 51.0904 40.9401H51.0704C50.5534 40.9396 50.0413 41.0413 49.5636 41.2392C49.086 41.4372 48.6521 41.7275 48.287 42.0936C47.9218 42.4597 47.6326 42.8943 47.4358 43.3725C47.2391 43.8506 47.1387 44.363 47.1405 44.88C47.1405 50.0401 55.0203 50.06 55.0203 44.88ZM50.0805 39.03V25.5002C48.5905 25.25 47.3005 24.4503 46.4004 23.3103L41.8604 25.5304C42.8104 27.4903 43.3603 29.6702 43.3603 31.9904C43.3603 34.3405 42.8004 36.5604 41.8205 38.5303L46.4204 41.1902C47.3804 39.9801 48.6804 39.2702 50.0805 39.03ZM33.0804 54.26L45.5505 47.0602C45.2783 46.3657 45.1392 45.6262 45.1406 44.8803C45.1406 44.2103 45.2507 43.5603 45.4606 42.9403L40.8305 40.2704C38.3406 43.9704 34.2204 46.4803 29.5105 46.8003V52.2002C30.9405 52.4401 32.1906 53.1899 33.0804 54.26ZM28.5105 62.0001C30.6904 62.0001 32.4604 60.2301 32.4604 58.0602C32.4604 55.8803 30.6904 54.1103 28.5105 54.1103C26.3406 54.1103 24.5706 55.8803 24.5706 58.0602C24.5706 60.2301 26.3406 62.0001 28.5105 62.0001ZM23.9405 54.26C24.8307 53.1899 26.0905 52.4401 27.5105 52.2V46.8C22.8006 46.48 18.6807 43.9702 16.1905 40.2601L11.5604 42.94C11.7774 43.5638 11.889 44.2195 11.8904 44.88C11.8904 45.6501 11.7404 46.3799 11.4703 47.0499L23.9405 54.26ZM10.6006 41.18L15.2005 38.5201C14.2305 36.5501 13.6704 34.34 13.6704 31.9902C13.6704 29.6503 14.2303 27.4402 15.2005 25.4702L10.8705 22.9703C9.98033 24.2903 8.58049 25.2303 6.95051 25.5004V39.0203C8.42049 39.2702 9.70052 40.0602 10.6006 41.18ZM5.95055 48.8202C8.12045 48.8202 9.89047 47.0502 9.89047 44.8803C9.89047 42.7104 8.13044 40.9403 5.96054 40.9304L5.95055 40.9403C5.94057 40.9403 5.94057 40.9304 5.93058 40.9304C3.76068 40.9403 2.00065 42.7104 2.00065 44.8803C2.00065 47.0502 3.77067 48.8202 5.95055 48.8202Z" fill="white"></path><path d="M26.9799 32.7703L26.0199 38.5002H31.0099L30.0399 32.7703C29.98 32.3804 30.14 31.9902 30.47 31.7703C30.9303 31.4582 31.3068 31.0379 31.5666 30.5462C31.8264 30.0545 31.9615 29.5065 31.9599 28.9504C31.9599 27.0503 30.4198 25.5005 28.52 25.5005C26.6199 25.5005 25.0701 27.0503 25.0701 28.9504C25.0701 30.0904 25.63 31.1403 26.56 31.7703C26.7187 31.879 26.8427 32.0312 26.9171 32.2085C26.9916 32.3858 27.0134 32.5809 26.9799 32.7703Z" fill="white"></path></svg>