<svg xmlns="http://www.w3.org/2000/svg" width="93" height="80" viewBox="0 0 93 80" fill="none"><path fill-rule="evenodd" clip-rule="evenodd" d="M17.4739 23.5513C17.4753 19.825 18.9562 16.2518 21.5911 13.6169C24.226 10.982 27.7993 9.50108 31.5256 9.49962C31.769 9.49962 32.0026 9.40289 32.1747 9.23072C32.3469 9.05854 32.4436 8.82502 32.4436 8.58153C32.4436 8.33804 32.3469 8.10452 32.1747 7.93235C32.0026 7.76017 31.769 7.66345 31.5256 7.66345C22.757 7.66345 15.6377 14.7827 15.6377 23.5513C15.6377 23.7948 15.7344 24.0283 15.9066 24.2005C16.0788 24.3727 16.3123 24.4694 16.5558 24.4694C16.7993 24.4694 17.0328 24.3727 17.205 24.2005C17.3771 24.0283 17.4739 23.7948 17.4739 23.5513ZM64.4246 7.71292L64.4282 7.7679C64.4411 8.04277 64.5492 8.22786 64.6885 8.3543C64.7737 8.44073 64.8753 8.50937 64.9873 8.55621C65.0993 8.60306 65.2194 8.62718 65.3408 8.62718C65.4622 8.62718 65.5824 8.60306 65.6944 8.55621C65.8064 8.50937 65.908 8.44073 65.9932 8.3543C66.0742 8.27932 66.1392 8.1887 66.1843 8.08792C66.2293 7.98714 66.2534 7.87827 66.2553 7.7679C66.242 7.9887 66.1489 8.19714 65.9932 8.3543C65.722 8.60352 65.3408 8.62718 65.3408 8.62718C64.8351 6.79467 64.4246 7.20715 64.4246 7.71292ZM64.4282 7.76607V7.7679C64.4411 7.99513 64.5382 8.20404 64.6885 8.35613L64.7123 8.37629C64.5429 8.21684 64.4412 7.99837 64.4282 7.76607ZM73.6348 7.71292L73.6366 7.7679C73.6494 8.04277 73.7594 8.22786 73.8987 8.3543C74.0262 8.48359 74.1892 8.57208 74.3671 8.60853C74.545 8.64498 74.7297 8.62775 74.8978 8.55903C75.0659 8.4903 75.2098 8.37318 75.3112 8.22254C75.4125 8.07189 75.4669 7.89451 75.4673 7.71292C75.4673 6.85531 74.551 8.62734 74.551 8.62734C74.0453 6.79484 73.6348 7.20715 73.6348 7.71292ZM73.6366 7.76607V7.7679C73.6494 7.99513 73.7484 8.20404 73.8987 8.35613L73.9225 8.37629C73.7524 8.21714 73.65 7.99864 73.6366 7.76607Z" fill="white"></path><path fill-rule="evenodd" clip-rule="evenodd" d="M64.6238 7.82287V7.84119C64.6209 8.08326 64.5227 8.31443 64.3505 8.48458C64.1783 8.65472 63.9459 8.75013 63.7038 8.75011H61.5232C61.2938 8.75018 61.0729 8.83624 60.9039 8.99129C60.735 9.14634 60.6303 9.3591 60.6106 9.58757C60.6106 9.58757 60.0168 16.5584 60.0168 20.8923C60.0168 24.0003 61.6166 26.3935 63.5664 28.1326C66.3683 30.6284 69.8702 31.7389 69.8702 31.7389C70.051 31.7958 70.2448 31.7958 70.4255 31.7389C70.4255 31.7389 73.9274 30.6284 76.7293 28.1326C78.6791 26.3935 80.2789 24.0003 80.2789 20.8923C80.2789 16.5584 79.6852 9.58757 79.6852 9.58757C79.6658 9.35895 79.5613 9.14593 79.3922 8.9908C79.2232 8.83567 79.002 8.74976 78.7726 8.75011H76.5919C76.3479 8.75011 76.1139 8.6532 75.9414 8.48068C75.7689 8.30816 75.672 8.07417 75.672 7.8302C75.672 7.58719 75.5754 7.3523 75.4036 7.18047C75.2318 7.00864 74.9987 6.91211 74.7557 6.91211H65.54C65.298 6.91211 65.0657 7.00788 64.8941 7.17853C64.7224 7.34917 64.6252 7.58081 64.6238 7.82287ZM73.9952 8.74462H66.3005C66.1112 9.28209 65.7597 9.74755 65.2946 10.0768C64.8295 10.406 64.2737 10.5827 63.7038 10.5826H62.3679C62.214 12.5452 61.8494 17.526 61.8494 20.8923C61.8494 23.423 63.1981 25.349 64.7869 26.7637C66.8448 28.598 69.3242 29.5967 70.1488 29.8954C70.9697 29.5967 73.451 28.598 75.5107 26.7637C77.0977 25.349 78.4464 23.423 78.4464 20.8923C78.4464 17.526 78.0817 12.5452 77.9278 10.5826H76.5919C76.0221 10.5825 75.4664 10.4056 75.0013 10.0764C74.5363 9.74725 74.1848 9.28194 73.9952 8.74462ZM42.663 66.6867V69.9541C42.6635 70.959 43.0629 71.9226 43.7735 72.6332C44.4841 73.3438 45.4477 73.7432 46.4526 73.7437H46.4599C47.4646 73.7423 48.4276 73.3425 49.138 72.6321C49.8484 71.9218 50.2481 70.9587 50.2496 69.9541V66.6867C51.3384 65.8864 52.1467 64.7628 52.5593 63.476C52.9719 62.1893 52.9676 60.8051 52.5472 59.5208C52.1267 58.2366 51.3114 57.118 50.2177 56.3244C49.124 55.5309 47.8076 55.1029 46.4563 55.1016C45.105 55.1029 43.7886 55.5309 42.6949 56.3244C41.6011 57.118 40.7859 58.2366 40.3654 59.5208C39.9449 60.8051 39.9406 62.1893 40.3532 63.476C40.7658 64.7628 41.5741 65.8864 42.663 66.6867ZM44.4955 66.1993C44.4952 66.043 44.455 65.8895 44.3787 65.7532C44.3023 65.6168 44.1924 65.5023 44.0594 65.4205C43.2089 64.8983 42.5522 64.1128 42.1891 63.1834C41.826 62.2539 41.7762 61.2312 42.0475 60.2709C42.3188 59.3106 42.8962 58.4651 43.692 57.8629C44.4877 57.2608 45.4584 56.935 46.4563 56.935C47.4542 56.935 48.4248 57.2608 49.2206 57.8629C50.0164 58.4651 50.5938 59.3106 50.865 60.2709C51.1363 61.2312 51.0866 62.2539 50.7235 63.1834C50.3603 64.1128 49.7036 64.8983 48.8532 65.4205C48.7201 65.5023 48.6102 65.6168 48.5339 65.7532C48.4575 65.8895 48.4173 66.043 48.4171 66.1993V69.9541C48.4173 70.2112 48.3668 70.4658 48.2686 70.7033C48.1703 70.9409 48.0262 71.1567 47.8444 71.3385C47.6626 71.5203 47.4467 71.6644 47.2092 71.7627C46.9716 71.861 46.717 71.9114 46.4599 71.9112H46.4526C46.1954 71.9119 45.9406 71.8618 45.7028 71.7637C45.465 71.6656 45.249 71.5215 45.0671 71.3396C44.8852 71.1577 44.7411 70.9417 44.643 70.7039C44.5449 70.4661 44.4948 70.2113 44.4955 69.9541V66.1993Z" fill="white"></path><path fill-rule="evenodd" clip-rule="evenodd" d="M54.7364 13.993C54.3644 14.0663 53.9961 14.1506 53.6314 14.2459L52.301 14.6491L51.5918 14.9093C48.2438 7.1193 40.4996 1.65842 31.4892 1.65842C19.4203 1.65842 9.62187 11.4568 9.62187 23.5257L9.62371 23.8208C6.84019 25.8485 4.57559 28.5057 3.01476 31.5755C1.45392 34.6452 0.64108 38.0406 0.64258 41.4843C0.64258 53.5551 10.441 63.3535 22.5099 63.3535H28.9438V75.4187C28.9443 76.6336 29.4272 77.7986 30.2862 78.6576C31.1453 79.5167 32.3102 79.9995 33.5251 80H59.3855C60.6002 79.999 61.7649 79.5161 62.6239 78.6571C63.4828 77.7982 63.9658 76.6335 63.9668 75.4187V63.3535H76.3857C85.1524 63.3535 92.268 56.236 92.268 47.4711C92.268 40.3335 87.5475 34.2881 81.0622 32.2906C83.7249 29.6775 85.8084 26.214 85.8084 21.8197C85.8084 14.9038 84.8592 3.77863 84.8592 3.77863C84.8395 3.55016 84.7348 3.3374 84.5658 3.18235C84.3969 3.0273 84.1759 2.94124 83.9466 2.94118H80.4575C79.3452 2.94118 78.4417 2.04141 78.4362 0.930914L78.4326 0.844787C78.4146 0.615005 78.3107 0.40044 78.1415 0.243868C77.9724 0.0872956 77.7505 0.000219742 77.52 0H62.7756C62.5326 0 62.2996 0.0965338 62.1277 0.268365C61.9559 0.440196 61.8594 0.673249 61.8594 0.916254V0.919919C61.8594 2.03592 60.9541 2.94118 59.8381 2.94118H56.3472C56.1179 2.94124 55.8969 3.0273 55.728 3.18235C55.559 3.3374 55.4543 3.55016 55.4346 3.77863C55.4346 3.77863 55.0168 8.67693 54.7364 13.993ZM59.3855 50.5314H33.5251C32.7961 50.5314 32.0969 50.821 31.5814 51.3365C31.066 51.852 30.7764 52.5512 30.7764 53.2802V75.4187C30.7764 76.1481 31.0659 76.8463 31.5827 77.3612C32.0976 77.878 32.7976 78.1675 33.5251 78.1675H59.3855C60.113 78.1675 60.813 77.878 61.3279 77.3612C61.8447 76.8463 62.1342 76.1481 62.1342 75.4187V53.2802C62.1347 52.9191 62.064 52.5614 61.926 52.2277C61.788 51.894 61.5856 51.5908 61.3302 51.3354C61.0749 51.0801 60.7717 50.8777 60.438 50.7397C60.1042 50.6017 59.7466 50.5309 59.3855 50.5314ZM54.6429 15.886C54.4139 15.9373 54.1848 15.9941 53.9576 16.0564L53.2832 16.2544C52.6643 16.4503 52.0573 16.6822 51.4654 16.9489L51.4544 16.9525C49.3504 17.8998 47.4598 19.2628 45.8963 20.9596C44.3327 22.6564 43.1284 24.6519 42.356 26.8261C42.2692 27.0475 42.0997 27.2265 41.8834 27.3252C41.6671 27.424 41.4209 27.4347 41.1967 27.3553C40.9726 27.2758 40.7882 27.1123 40.6824 26.8994C40.5766 26.6864 40.5577 26.4406 40.6298 26.214C42.257 21.6336 45.5827 17.854 49.9187 15.657C46.8585 8.50651 39.7556 3.49093 31.4892 3.49093C20.4318 3.49093 11.4544 12.4684 11.4544 23.5257C11.4544 23.7695 11.458 24.0095 11.4672 24.2514C11.473 24.4046 11.44 24.5567 11.3715 24.6938C11.303 24.8308 11.201 24.9484 11.0751 25.0357C8.42034 26.8797 6.25151 29.3389 4.75389 32.2033C3.25628 35.0677 2.47441 38.2521 2.47509 41.4843C2.47509 52.5435 11.4525 61.521 22.5099 61.521H28.9438V53.2802C28.9443 52.0653 29.4272 50.9003 30.2862 50.0413C31.1453 49.1822 32.3102 48.6994 33.5251 48.6989H35.1634V45.1035C35.1634 42.5121 36.1928 40.0269 38.0252 38.1944C39.8576 36.362 42.3429 35.3326 44.9343 35.3326H47.9763C50.5677 35.3326 53.053 36.362 54.8854 38.1944C56.7178 40.0269 57.7472 42.5121 57.7472 45.1035V48.6989H59.3855C59.9872 48.6984 60.5832 48.8166 61.1392 49.0467C61.6953 49.2767 62.2005 49.6142 62.626 50.0397C63.0515 50.4652 63.3889 50.9704 63.619 51.5264C63.8491 52.0825 63.9672 52.6784 63.9668 53.2802V61.521H76.3857C80.1115 61.5195 83.6843 60.0388 86.3188 57.4043C88.9533 54.7697 90.4341 51.1969 90.4355 47.4711C90.4355 40.7568 85.715 35.1365 79.4148 33.7493C75.2055 37.134 70.4245 38.6494 70.4245 38.6494C70.2441 38.7081 70.0497 38.7081 69.8693 38.6494C69.8693 38.6494 64.3772 36.9067 59.9829 32.9925C56.9721 30.3079 54.4872 26.619 54.4872 21.8197C54.4872 20.0348 54.5495 17.9677 54.6429 15.886ZM36.9959 48.6989V45.1035C36.9956 44.061 37.2008 43.0286 37.5997 42.0653C37.9985 41.1021 38.5833 40.2269 39.3205 39.4897C40.0577 38.7525 40.9329 38.1678 41.8961 37.7689C42.8594 37.37 43.8918 37.1649 44.9343 37.1651H47.9763C49.0188 37.1649 50.0512 37.37 51.0145 37.7689C51.9777 38.1678 52.8529 38.7525 53.5901 39.4897C54.3273 40.2269 54.9121 41.1021 55.3109 42.0653C55.7098 43.0286 55.915 44.061 55.9147 45.1035V48.6989H36.9959ZM56.5268 14.8378C56.4024 17.1631 56.3333 19.4911 56.3197 21.8197C56.3197 26.0418 58.5535 29.2633 61.2033 31.6236C64.7327 34.77 69.0226 36.4138 70.1478 36.8096C71.2693 36.4138 75.561 34.77 79.0923 31.6236C81.7421 29.2633 83.9759 26.0418 83.9759 21.8197C83.9759 16.0986 83.3199 7.47297 83.1018 4.77369H80.4575C78.6433 4.77369 77.1223 3.52025 76.7119 1.83251H63.5819C63.3772 2.67109 62.897 3.41671 62.2182 3.94997C61.5394 4.48323 60.7013 4.77329 59.8381 4.77369H57.192C56.922 8.12504 56.7002 11.4801 56.5268 14.8378Z" fill="white"></path></svg>