<svg xmlns="http://www.w3.org/2000/svg" width="80" height="86" viewBox="0 0 80 86" fill="none"><path d="M18.464 86H61.5363C70.6124 86 76.3841 78.674 78.4469 75.5249C79.8627 73.3671 80.3341 70.7848 79.7637 68.3121L74.8272 46.9022C74.3357 44.6586 73.0103 42.6486 71.0845 41.226C68.149 39.1432 64.9576 37.3936 61.5778 36.0144C63.3264 34.4511 64.4051 32.3486 64.6128 30.0989C64.6128 13.6753 48.0962 3.48981 43.032 0.757903C42.1104 0.261412 41.0647 0 40.0001 0C38.9355 0 37.8898 0.261412 36.9681 0.757903C31.9056 3.48847 15.3874 13.674 15.3874 30.0989C15.5951 32.3486 16.6738 34.4511 18.4224 36.0144C15.0465 37.3934 11.8588 39.142 8.9265 41.2232C6.99757 42.6439 5.66885 44.6535 5.17455 46.8978L0.235164 68.318C-0.333413 70.7883 0.138004 73.3678 1.55203 75.5235C3.6163 78.674 9.38799 86 18.464 86ZM63.0748 74.5332C63.0748 76.1165 61.6973 77.4 59.9981 77.4H20.0023C18.303 77.4 16.9256 76.1165 16.9256 74.5332V51.5992C16.9256 50.0159 18.303 48.7324 20.0023 48.7324H59.9981C61.6973 48.7324 63.0748 50.0159 63.0748 51.5992V74.5332ZM16.9258 81.6999C16.9258 81.3198 17.0878 80.9552 17.3763 80.6864C17.6648 80.4176 18.056 80.2666 18.464 80.2666H61.5363C61.9443 80.2666 62.3356 80.4176 62.624 80.6864C62.9125 80.9552 63.0746 81.3198 63.0746 81.6999C63.0746 82.08 62.9125 82.4446 62.624 82.7134C62.3356 82.9822 61.9443 83.1332 61.5363 83.1332H18.464C18.262 83.1332 18.062 83.0962 17.8753 83.0242C17.6887 82.9521 17.5191 82.8466 17.3763 82.7135C17.2334 82.5804 17.1201 82.4223 17.0428 82.2484C16.9655 82.0745 16.9258 81.8881 16.9258 81.6999ZM18.4779 30.2206C18.6933 29.5886 20.1054 26.4236 26.817 24.4772L27.217 27.0945C27.5918 29.5133 28.9369 31.7097 30.9812 33.2408L33.5609 35.1587C37.3233 37.9664 42.6724 37.9664 46.4348 35.1587L49.0253 33.2337C51.0672 31.7021 52.4105 29.5065 52.7848 27.089L53.1818 24.4817C59.8211 26.4139 61.2778 29.5415 61.5194 30.2238C61.3532 31.3577 59.5197 38.8727 40.0001 40.1283C20.3761 38.8667 18.6255 31.2713 18.4779 30.2206ZM29.8167 23.7705C33.1729 23.1766 36.5843 22.8957 40.0003 22.932C43.4164 22.8953 46.8278 23.1767 50.1839 23.772L49.7393 26.6818C49.4778 28.3797 48.5357 29.9223 47.1027 30.999L44.5137 32.9225C41.8509 34.829 38.1451 34.829 35.4824 32.9225L32.9041 31.0061C31.469 29.9304 30.5251 28.3876 30.2628 26.6889L29.8167 23.7705ZM38.5096 3.23752C38.9627 2.9934 39.4769 2.86487 40.0003 2.86487C40.5237 2.86487 41.0378 2.9934 41.4909 3.23752C45.6259 5.4692 57.9984 13.0417 60.9104 24.9458C57.6369 22.502 51.4977 20.0652 40.0003 20.0652C28.5029 20.0652 22.3683 22.502 19.0948 24.9386C22.0222 13.0302 34.3762 5.46786 38.5096 3.23752ZM3.24404 68.9143L8.18361 47.497C8.52556 45.9129 9.45589 44.4918 10.811 43.4836C13.9497 41.2711 17.3871 39.4528 21.0347 38.0755C24.5989 40.359 30.4045 42.3972 39.8973 42.9992H40.1036C49.5964 42.4 55.4019 40.3618 58.9662 38.0771C62.6149 39.4553 66.0532 41.2746 69.1929 43.488C70.5474 44.4965 71.4771 45.9175 71.8187 47.5013L76.7551 68.9101C77.1591 70.6655 76.8255 72.4985 75.8229 74.0316C74.4215 76.1702 71.0648 80.5133 66.0854 82.315C66.1232 82.1118 66.1453 81.9063 66.1516 81.7001C66.1493 81.0738 65.9993 80.4557 65.7122 79.8895C65.4251 79.3233 65.0079 78.8228 64.4902 78.4234C65.5543 77.3705 66.1483 75.9796 66.1516 74.5333V51.5992C66.1516 48.4327 63.3967 45.8658 59.9985 45.8658H20.0023C16.604 45.8658 13.8491 48.4327 13.8491 51.5992V74.533C13.8523 75.9793 14.4464 77.3702 15.5105 78.4231C14.9928 78.8224 14.5756 79.3229 14.2885 79.8892C14.0014 80.4554 13.8514 81.0735 13.8491 81.6997C13.8555 81.9054 13.8776 82.1104 13.9153 82.3132C8.93587 80.5115 5.57925 76.1684 4.17622 74.0269C3.17546 72.4964 2.84189 70.6669 3.24404 68.9143Z" fill="white"></path><path d="M40.0005 53.0327C34.2713 52.8486 29.4592 57.0123 29.2324 62.3497C29.2528 63.8803 29.6862 65.3815 30.4927 66.7151C31.2991 68.0487 32.4528 69.1717 33.8473 69.9808V70.2331C33.8473 72.6079 35.9136 74.5332 38.4622 74.5332H41.5389C44.0875 74.5332 46.1538 72.6079 46.1538 70.2331V69.9808C47.5483 69.1717 48.7019 68.0486 49.5083 66.7151C50.3148 65.3815 50.7482 63.8803 50.7687 62.3497C50.5417 57.0123 45.7296 52.8486 40.0005 53.0327ZM43.9 67.8896C43.6518 68.0111 43.444 68.1935 43.299 68.417C43.1539 68.6406 43.0772 68.8969 43.0771 69.1581V70.2331C43.0771 70.4214 43.0373 70.6077 42.96 70.7816C42.8827 70.9555 42.7694 71.1135 42.6266 71.2466C42.4837 71.3797 42.3142 71.4853 42.1275 71.5573C41.9409 71.6294 41.7409 71.6664 41.5389 71.6664H38.4622C38.0543 71.6664 37.663 71.5154 37.3745 71.2466C37.086 70.9778 36.924 70.6133 36.924 70.2331V69.1581C36.9239 68.8969 36.8472 68.6406 36.7021 68.417C36.5571 68.1935 36.3493 68.0111 36.1011 67.8896C34.9865 67.3767 34.0439 66.5893 33.3754 65.6127C32.707 64.6361 32.3382 63.5077 32.3091 62.3497C32.5366 58.5962 35.9707 55.7164 40.0006 55.8995C44.0306 55.7164 47.4645 58.5962 47.6922 62.3497C47.663 63.5077 47.2942 64.6361 46.6257 65.6127C45.9572 66.5892 45.0146 67.3767 43.9 67.8896Z" fill="white"></path><path d="M36.9237 64.499C37.7732 64.499 38.4617 63.8574 38.4617 63.0659C38.4617 62.2744 37.7732 61.6328 36.9237 61.6328C36.0743 61.6328 35.3857 62.2744 35.3857 63.0659C35.3857 63.8574 36.0743 64.499 36.9237 64.499Z" fill="white"></path><path d="M43.0771 64.499C43.9265 64.499 44.6151 63.8574 44.6151 63.0659C44.6151 62.2744 43.9265 61.6328 43.0771 61.6328C42.2277 61.6328 41.5391 62.2744 41.5391 63.0659C41.5391 63.8574 42.2277 64.499 43.0771 64.499Z" fill="white"></path></svg>