<svg xmlns="http://www.w3.org/2000/svg" width="64" height="62" viewBox="0 0 64 62" fill="none"><path d="M11.3864 25.2559H9.30989C7.61989 25.2559 6.24414 26.6314 6.24414 28.3216V36.9189C6.24414 37.1052 6.31815 37.2839 6.4499 37.4156C6.58164 37.5473 6.76033 37.6214 6.94664 37.6214C7.13296 37.6214 7.31164 37.5473 7.44338 37.4156C7.57513 37.2839 7.64914 37.1052 7.64914 36.9189V32.1411H13.0474V36.9186C13.0474 37.1049 13.1214 37.2836 13.2531 37.4153C13.3849 37.5471 13.5636 37.6211 13.7499 37.6211C13.9362 37.6211 14.1149 37.5471 14.2466 37.4153C14.3784 37.2836 14.4524 37.1049 14.4524 36.9186V28.3216C14.4524 26.6314 13.0766 25.2559 11.3864 25.2559ZM7.64914 30.7359V28.3216C7.6496 27.8813 7.82472 27.4591 8.13607 27.1478C8.44743 26.8364 8.86958 26.6613 9.30989 26.6609H11.3864C11.8267 26.6613 12.2489 26.8364 12.5602 27.1478C12.8716 27.4591 13.0467 27.8813 13.0471 28.3216V30.7361L7.64914 30.7359ZM22.0476 37.6214C22.234 37.6214 22.4126 37.5473 22.5444 37.4156C22.6761 37.2839 22.7501 37.1052 22.7501 36.9189C22.7501 36.7325 22.6761 36.5539 22.5444 36.4221C22.4126 36.2904 22.234 36.2164 22.0476 36.2164H20.5026V26.6609H22.0476C22.2307 26.656 22.4046 26.5798 22.5324 26.4486C22.6602 26.3174 22.7316 26.1415 22.7316 25.9584C22.7316 25.7752 22.6602 25.5993 22.5324 25.4681C22.4046 25.3369 22.2307 25.2607 22.0476 25.2559H17.5536C17.3706 25.2607 17.1966 25.3369 17.0689 25.4681C16.9411 25.5993 16.8696 25.7752 16.8696 25.9584C16.8696 26.1415 16.9411 26.3174 17.0689 26.4486C17.1966 26.5798 17.3706 26.656 17.5536 26.6609H19.0979V36.2164H17.5536C17.3673 36.2164 17.1886 36.2904 17.0569 36.4221C16.9252 36.5539 16.8511 36.7325 16.8511 36.9189C16.8511 37.1052 16.9252 37.2839 17.0569 37.4156C17.1886 37.5473 17.3673 37.6214 17.5536 37.6214H22.0476Z" fill="white"></path><path d="M61.5478 9.46586C57.6791 9.46586 54.5328 6.31936 54.5328 2.45136C54.5328 1.33286 53.6221 0.422363 52.5038 0.422363H22.9278C21.8093 0.422363 20.8991 1.33236 20.8991 2.45136C20.8991 6.31936 17.7526 9.46586 13.8846 9.46586C12.7656 9.46586 11.8558 10.3756 11.8558 11.4946V17.2921H4.56856C2.24356 17.2931 0.351562 19.1846 0.351562 21.5101V41.3669C0.351562 43.6924 2.24331 45.5841 4.56856 45.5841H17.6961C22.2998 53.2591 29.1731 58.8741 37.0986 61.4091C37.5007 61.5377 37.9329 61.5377 38.3351 61.4091C53.1971 56.6556 63.5766 41.4056 63.5766 24.3241V11.4956C63.5766 10.3764 62.6661 9.46586 61.5478 9.46586ZM1.75656 41.3669V21.5101C1.75656 19.9596 3.01831 18.6981 4.56856 18.6981H24.4248C25.9753 18.6981 27.2371 19.9596 27.2371 21.5101V41.3669C27.2371 42.9174 25.9753 44.1791 24.4248 44.1791H4.56856C3.01831 44.1791 1.75656 42.9174 1.75656 41.3669ZM62.1716 24.3244C62.1716 40.8021 52.1933 55.5019 37.9078 60.0711C37.784 60.1114 37.6506 60.1116 37.5266 60.0719C30.1748 57.7199 23.7566 52.5979 19.3373 45.5841H24.4248C26.7501 45.5841 28.6421 43.6924 28.6421 41.3669V39.4809H34.9483L38.2191 43.6226C38.2849 43.7058 38.3687 43.7731 38.4642 43.8193C38.5597 43.8656 38.6645 43.8896 38.7706 43.8896H41.2316C41.5651 45.7766 43.2133 47.2154 45.1941 47.2154C47.4156 47.2154 49.2223 45.4084 49.2223 43.1871C49.2223 40.9659 47.4156 39.1591 45.1943 39.1591C43.2133 39.1591 41.5651 40.5979 41.2316 42.4846H39.1106L35.8398 38.3426C35.774 38.2594 35.6901 38.1922 35.5946 38.146C35.4991 38.0998 35.3944 38.0758 35.2883 38.0759H28.6421V32.1409H41.2316C41.5651 34.0279 43.2133 35.4666 45.1941 35.4666C47.4156 35.4666 49.2223 33.6599 49.2223 31.4386C49.2223 29.2174 47.4156 27.4096 45.1943 27.4096C43.2133 27.4096 41.5651 28.8491 41.2316 30.7361H28.6421V24.8011H35.2883C35.5033 24.8011 35.7063 24.7029 35.8398 24.5344L39.1106 20.3931H41.2316C41.5651 22.2801 43.2133 23.7189 45.1941 23.7189C47.4156 23.7189 49.2223 21.9119 49.2223 19.6906C49.2223 17.4694 47.4156 15.6619 45.1943 15.6619C43.2133 15.6619 41.5651 17.1011 41.2316 18.9881H38.7706C38.5556 18.9881 38.3526 19.0866 38.2191 19.2551L34.9483 23.3964H28.6421V21.5101C28.6421 19.1849 26.7501 17.2931 24.4248 17.2931H13.2608V11.4951C13.2609 11.3297 13.3266 11.171 13.4436 11.054C13.5605 10.937 13.7191 10.8712 13.8846 10.8711C18.5266 10.8711 22.3041 7.09461 22.3041 2.45186C22.3043 2.28647 22.37 2.12791 22.487 2.01094C22.6039 1.89396 22.7624 1.82813 22.9278 1.82786H52.5038C52.6692 1.82813 52.8277 1.89396 52.9447 2.01094C53.0616 2.12791 53.1274 2.28647 53.1276 2.45186C53.1276 7.09386 56.9051 10.8711 61.5476 10.8711C61.713 10.8713 61.8716 10.9371 61.9886 11.0541C62.1056 11.1711 62.1714 11.3297 62.1716 11.4951V24.3244ZM42.5718 43.1864C42.5718 41.7394 43.7486 40.5634 45.1951 40.5634C46.6416 40.5634 47.8181 41.7401 47.8181 43.1864C47.8181 44.6326 46.6413 45.8096 45.1951 45.8096C43.7488 45.8096 42.5718 44.6336 42.5718 43.1864ZM42.5718 31.4386C42.5718 29.9914 43.7486 28.8146 45.1951 28.8146C46.6416 28.8146 47.8181 29.9914 47.8181 31.4386C47.8181 32.8859 46.6413 34.0616 45.1951 34.0616C43.7488 34.0616 42.5718 32.8851 42.5718 31.4386ZM42.5718 19.6899C42.5718 18.2429 43.7486 17.0661 45.1951 17.0661C46.6416 17.0661 47.8181 18.2429 47.8181 19.6899C47.8181 21.1364 46.6413 22.3131 45.1951 22.3131C43.7488 22.3131 42.5718 21.1364 42.5718 19.6899Z" fill="white"></path></svg>