<svg xmlns="http://www.w3.org/2000/svg" width="72" height="78" viewBox="0 0 72 78" fill="none"><path d="M8.375 52.8126L5.4375 53.7626L2.9375 46.1126L0.5625 46.8876L3.0625 54.5251C3.2625 55.1626 3.7125 55.6876 4.3 55.9876C4.8875 56.2876 5.5625 56.3501 6.2125 56.1376L9.15 55.1876C10.525 57.7001 12.2125 60.0376 14.2 62.1501L12.3875 64.6501C11.9875 65.1876 11.825 65.8501 11.925 66.5001C12.025 67.1626 12.3875 67.7501 12.925 68.1501L18.9875 72.5501C19.5375 72.9501 20.2 73.1126 20.8625 73.0001C21.525 72.9001 22.1 72.5376 22.4875 72.0001L24.3125 69.5126C26.9125 70.7626 29.6625 71.6501 32.4875 72.1751V75.2626C32.4875 76.6376 33.6125 77.7626 34.9875 77.7626H42.4875C43.8625 77.7626 44.9875 76.6376 44.9875 75.2626V72.1751C47.8125 71.6501 50.5625 70.7501 53.175 69.5001L54.975 71.9876C55.3625 72.5376 55.9375 72.8876 56.6 73.0001C57.275 73.1126 57.9375 72.9501 58.475 72.5501L64.5375 68.1501C65.0875 67.7501 65.4375 67.1626 65.5375 66.5001C65.6375 65.8376 65.475 65.1876 65.0875 64.6501L63.2875 62.1376C65.2625 60.0501 66.9625 57.7126 68.325 55.1751L71.2625 56.1376C71.9 56.3376 72.575 56.2876 73.175 55.9876C73.775 55.6751 74.2125 55.1626 74.4125 54.5251L76.9125 46.8751L74.5375 46.1001L72.0375 53.7626L69.1 52.8001C67.975 52.4251 66.7375 52.9251 66.125 53.9876C64.8536 56.3209 63.2865 58.4804 61.4625 60.4126C60.625 61.3001 60.5375 62.6501 61.25 63.6001L63.0625 66.1001L57 70.5001L55.175 67.9876C54.8283 67.519 54.3295 67.1855 53.764 67.0441C53.1985 66.9028 52.6014 66.9623 52.075 67.2126C49.6625 68.3626 47.125 69.1876 44.5375 69.6751C43.35 69.9001 42.475 70.9251 42.475 72.1251V75.2126H34.975V72.1251C34.975 70.9251 34.1125 69.8876 32.9125 69.6751C30.3125 69.1876 27.775 68.3626 25.35 67.2001C24.25 66.7001 22.975 67.0126 22.2625 67.9876L20.45 70.4876L14.3875 66.0876L16.1875 63.6001C16.9125 62.6376 16.825 61.2876 15.975 60.4001C14.1449 58.4608 12.5735 56.2928 11.3 53.9501C10.7 52.9126 9.4625 52.4126 8.3375 52.7876L8.375 52.8126Z" fill="white"></path><path d="M38.75 65.25C50.2875 65.25 60.35 57.8625 63.7875 46.875L61.4 46.125C58.2875 56.0625 49.1875 62.75 38.7375 62.75C28.2875 62.75 19.1875 56.075 16.075 46.125L13.6875 46.875C17.125 57.8625 27.1875 65.25 38.725 65.25H38.75ZM0 41.5H77.5V44H0V41.5ZM72.5 39V21.5C72.5 20.8125 71.9375 20.25 71.25 20.25H61.25V1.5C61.25 0.8125 60.6875 0.25 60 0.25H45C44.3125 0.25 43.75 0.8125 43.75 1.5V14H33.75V9C33.75 8.625 33.5875 8.275 33.3 8.0375L25.8 1.7875C25.5757 1.59973 25.2925 1.49683 25 1.49683C24.7075 1.49683 24.4243 1.59973 24.2 1.7875L16.7 8.0375C16.4125 8.275 16.25 8.625 16.25 9V19H6.25C5.5625 19 5 19.5625 5 20.25V39H7.5V21.5H16.25V39H18.75V9.5875L25 4.375L31.25 9.5875V39H33.75V16.5H43.75V39H46.25V2.75H58.75V39H61.25V22.75H70V39H72.5Z" fill="white"></path><path d="M48.75 6.5H51.25V9H48.75V6.5ZM53.75 6.5H56.25V9H53.75V6.5ZM48.75 12.75H51.25V15.25H48.75V12.75ZM53.75 12.75H56.25V15.25H53.75V12.75ZM48.75 19H51.25V21.5H48.75V19ZM53.75 19H56.25V21.5H53.75V19ZM21.25 11.5H28.75V14H21.25V11.5ZM21.25 17.75H28.75V20.25H21.25V17.75Z" fill="white"></path></svg>