<svg xmlns="http://www.w3.org/2000/svg" width="62" height="74" viewBox="0 0 62 74" fill="none"><path d="M61.9999 68.5574V35.0443C61.9999 32.1848 59.6738 29.8586 56.8145 29.8586H55.3209V18.7679C55.3209 8.41943 46.9016 0 36.553 0C26.2043 0 17.7854 8.41928 17.7854 18.7679V29.8586H16.2918C13.4323 29.8586 11.1064 32.185 11.1064 35.0443V68.5574C11.1064 71.4169 13.4325 73.7428 16.2918 73.7428H56.8145C59.6738 73.7428 61.9999 71.4169 61.9999 68.5574ZM19.2314 18.7679C19.2314 9.21646 27.002 1.44588 36.553 1.44588C46.1045 1.44588 53.875 9.21646 53.875 18.7679V29.8586H48.6808V18.7679C48.6808 12.0804 43.2402 6.63983 36.553 6.63983C29.8659 6.63983 24.4255 12.0804 24.4255 18.7679V29.8586H19.2313V18.7679H19.2314ZM47.2347 18.7679V29.8586H25.8716V18.7679C25.8716 12.8779 30.6634 8.08571 36.553 8.08571C42.443 8.08571 47.2347 12.8779 47.2347 18.7679ZM56.8145 72.2969H16.2918C14.2298 72.2969 12.5523 70.6194 12.5523 68.5574V35.0443C12.5523 32.982 14.2298 31.3045 16.2918 31.3045H56.8145C58.8765 31.3045 60.554 32.982 60.554 35.0443V68.5574C60.554 70.6194 58.8765 72.2969 56.8145 72.2969Z" fill="white"></path><path d="M36.5499 36.375C28.0442 36.375 21.124 43.2948 21.124 51.8006C21.124 60.3064 28.0442 67.2265 36.5499 67.2265C45.0597 67.2265 51.9825 60.3064 51.9825 51.8006C51.9825 43.2948 45.0597 36.375 36.5499 36.375ZM36.5499 65.7806C28.8412 65.7806 22.5699 59.5093 22.5699 51.8006C22.5699 44.0922 28.8412 37.8209 36.5499 37.8209C44.2622 37.8209 50.5366 44.0922 50.5366 51.8006C50.5366 59.5093 44.2622 65.7806 36.5499 65.7806Z" fill="white"></path><path d="M34.8498 48.6088C35.0415 48.6088 35.2254 48.5326 35.361 48.397C35.4966 48.2614 35.5727 48.0775 35.5727 47.8858C35.5727 47.6941 35.4966 47.5102 35.361 47.3746C35.2254 47.239 35.0415 47.1629 34.8498 47.1629H29.705C29.61 47.1629 29.516 47.1816 29.4283 47.2179C29.3406 47.2542 29.2609 47.3075 29.1938 47.3746C29.1266 47.4417 29.0734 47.5214 29.0371 47.6092C29.0007 47.6969 28.982 47.7909 28.982 47.8858V51.2765C28.982 51.3714 29.0007 51.4654 29.0371 51.5531C29.0734 51.6408 29.1266 51.7205 29.1938 51.7877C29.2609 51.8548 29.3406 51.9081 29.4283 51.9444C29.516 51.9807 29.61 51.9994 29.705 51.9994H32.6307C33.4558 51.9994 34.1269 52.6708 34.1269 53.4959C34.1269 54.3209 33.4558 54.992 32.6307 54.992H29.705C29.5132 54.992 29.3294 55.0681 29.1938 55.2037C29.0582 55.3393 28.982 55.5232 28.982 55.7149C28.982 55.9066 29.0582 56.0905 29.1938 56.2261C29.3294 56.3617 29.5132 56.4378 29.705 56.4378H32.6307C34.2528 56.4378 35.5727 55.1179 35.5727 53.4959C35.5727 51.8733 34.2528 50.5535 32.6307 50.5535H30.4279V48.6088H34.8498ZM43.4004 51.1735H40.5649C40.3732 51.1735 40.1893 51.2496 40.0537 51.3852C39.9182 51.5208 39.842 51.7047 39.842 51.8964C39.842 52.0881 39.9182 52.272 40.0537 52.4076C40.1893 52.5432 40.3732 52.6193 40.5649 52.6193H42.6773V52.8791C42.6773 54.0441 41.7299 54.992 40.5649 54.992C39.4 54.992 38.4526 54.0441 38.4526 52.8791V50.7214C38.4526 49.5565 39.4 48.6086 40.5649 48.6086C41.3084 48.6086 41.9833 48.9881 42.3706 49.6239C42.4714 49.7853 42.6318 49.9004 42.817 49.9443C43.0021 49.9882 43.1971 49.9573 43.3597 49.8583C43.5222 49.7594 43.6392 49.6003 43.6852 49.4157C43.7312 49.231 43.7026 49.0357 43.6055 48.872C42.9538 47.8017 41.8172 47.1627 40.5649 47.1627C38.603 47.1627 37.0065 48.759 37.0065 50.7214V52.8791C37.0065 54.8416 38.6028 56.4378 40.5649 56.4378C42.5271 56.4378 44.1233 54.8416 44.1233 52.8791V51.8964C44.1234 51.8014 44.1047 51.7074 44.0684 51.6197C44.032 51.532 43.9788 51.4523 43.9116 51.3852C43.8445 51.318 43.7648 51.2648 43.6771 51.2284C43.5894 51.1921 43.4953 51.1734 43.4004 51.1735ZM12.7103 13.1328H12.7082C5.6946 13.1328 -0.000976562 18.8268 -0.000976562 25.842C-0.000976563 26.0338 0.0751895 26.2176 0.210767 26.3532C0.346344 26.4888 0.530226 26.565 0.721961 26.565C0.913696 26.565 1.09758 26.4888 1.23315 26.3532C1.36873 26.2176 1.4449 26.0338 1.4449 25.842C1.4449 19.6267 6.49306 14.5788 12.7081 14.5788H12.7101C12.9019 14.5789 13.0858 14.5027 13.2214 14.3671C13.357 14.2316 13.4332 14.0477 13.4332 13.8559C13.4333 13.6642 13.3571 13.4802 13.2215 13.3446C13.0859 13.209 12.902 13.1328 12.7103 13.1328Z" fill="white"></path><path d="M12.7104 18.7402H12.7097C8.7901 18.7402 5.60565 21.9226 5.60645 25.8432C5.60645 26.0349 5.68261 26.2188 5.81819 26.3544C5.95377 26.49 6.13765 26.5662 6.32938 26.5662C6.52112 26.5662 6.705 26.49 6.84058 26.3544C6.97615 26.2188 7.05232 26.0349 7.05232 25.8432C7.05232 22.7217 9.58825 20.1861 12.7097 20.1861H12.7104C12.9021 20.1861 13.086 20.1099 13.2216 19.9744C13.3571 19.8388 13.4333 19.6549 13.4333 19.4632C13.4333 19.2714 13.3571 19.0876 13.2216 18.952C13.086 18.8164 12.9021 18.7402 12.7104 18.7402ZM12.7104 24.3476C11.885 24.3476 11.2136 25.019 11.2136 25.844C11.2136 26.2432 11.5628 26.542 11.962 26.542C12.3612 26.542 12.7104 26.1928 12.7104 25.7936C12.9021 25.7936 13.086 25.7174 13.2216 25.5818C13.3572 25.4462 13.4334 25.2623 13.4334 25.0706C13.4334 24.8788 13.3572 24.6949 13.2216 24.5593C13.086 24.4237 12.9021 24.3476 12.7104 24.3476Z" fill="white"></path></svg>