<svg xmlns="http://www.w3.org/2000/svg" width="78" height="80" viewBox="0 0 78 80" fill="none"><path fill-rule="evenodd" clip-rule="evenodd" d="M5.17648 21.1735C6.35483 21.1735 7.31255 20.2148 7.31255 19.0365C7.31255 17.8581 6.35483 16.8995 5.17648 16.8995C3.99815 16.8995 3.04042 17.8581 3.04042 19.0365C3.04042 20.2148 3.99815 21.1735 5.17648 21.1735ZM5.17648 14.4757C7.69165 14.4757 9.73727 16.5213 9.73727 19.0365C9.73727 19.8542 9.52045 20.6222 9.14117 21.2862L15.1224 27.2674H20.4619C21.1308 27.2674 21.6742 27.8109 21.6742 28.4798C21.6742 29.1486 21.1308 29.6921 20.4619 29.6921H14.6196C14.2979 29.6921 13.9906 29.5648 13.7631 29.3362L7.42695 23.001C6.74129 23.3919 5.96557 23.5973 5.17629 23.5971C2.66208 23.5971 0.615517 21.5515 0.615517 19.0363C0.615707 16.5213 2.66227 14.4757 5.17648 14.4757ZM39.1088 2.42376C37.9305 2.42376 36.9718 3.38244 36.9718 4.56078C36.9718 5.73722 37.9305 6.6959 39.1088 6.6959C40.2862 6.6959 41.2449 5.73722 41.2449 4.56078C41.2447 3.38244 40.286 2.42376 39.1088 2.42376ZM40.3202 8.95434V13.4296C40.3202 14.1004 39.7777 14.642 39.1088 14.642C38.439 14.642 37.8965 14.1004 37.8965 13.4296V8.95434C35.9685 8.42341 34.548 6.65504 34.548 4.56078C34.548 2.04562 36.5936 0 39.1088 0C41.623 0 43.6696 2.04562 43.6696 4.56078C43.6696 6.65504 42.248 8.4236 40.3202 8.95434ZM75.177 19.0365C75.177 17.8581 74.2183 16.8995 73.04 16.8995C71.8617 16.8995 70.903 17.8581 70.903 19.0365C70.903 20.2148 71.8617 21.1735 73.04 21.1735C74.2183 21.1735 75.177 20.2148 75.177 19.0365ZM70.7882 23.0013L64.453 29.3366C64.3407 29.4495 64.2073 29.539 64.0603 29.6001C63.9133 29.6612 63.7557 29.6926 63.5965 29.6925H57.7816C57.1127 29.6925 56.5692 29.149 56.5692 28.4801C56.5692 27.8113 57.1127 27.2678 57.7816 27.2678H63.0939L69.0751 21.2864C68.6836 20.6013 68.4781 19.8257 68.479 19.0367C68.479 16.5215 70.5246 14.4759 73.0398 14.4759C75.555 14.4759 77.6006 16.5215 77.6006 19.0367C77.6006 21.5518 75.555 23.5975 73.0398 23.5975C72.2503 23.5975 71.4743 23.3921 70.7882 23.0013ZM6.22846 71.8078L7.84633 74.118C9.38534 76.3152 12.1747 77.5762 15.4988 77.5762H62.7177C66.0418 77.5762 68.8311 76.3152 70.3701 74.118L71.988 71.8078C72.0395 71.7339 72.091 71.629 72.0171 71.488C71.9519 71.3626 71.7877 71.2275 71.5223 71.2275H47.015L46.1255 73.3111C45.6937 74.3232 44.5981 74.9776 43.3332 74.9776H34.8834C33.6184 74.9776 32.5218 74.3232 32.0912 73.3111L31.2026 71.2275H6.6944C6.42894 71.2275 6.26476 71.3626 6.19958 71.488C6.12547 71.629 6.17697 71.7339 6.22846 71.8078ZM33.8383 71.2275H44.3784L43.8951 72.3612C43.8777 72.403 43.6977 72.5537 43.3332 72.5537H34.8834C34.5188 72.5537 34.339 72.403 34.3215 72.3612L33.8383 71.2275ZM65.5635 45.7391C65.5629 45.5007 65.4678 45.2722 65.299 45.1038C65.1302 44.9354 64.9016 44.8409 64.6631 44.8409H59.7136C59.5664 45.1113 59.4144 45.379 59.2575 45.6439L60.3348 47.7557C60.6054 48.2845 60.7011 48.8856 60.6081 49.4724C60.5152 50.0591 60.2383 50.6012 59.8175 51.0205L56.4419 54.397C56.0223 54.8174 55.4801 55.0937 54.8934 55.1863C54.3067 55.2789 53.7058 55.183 53.1771 54.9124L51.0644 53.8361C49.1435 54.9801 47.0674 55.8407 44.9004 56.3911L44.1682 58.6448C43.986 59.21 43.6289 59.7027 43.1486 60.0518C42.6682 60.4009 42.0893 60.5884 41.4955 60.5873H36.7208C36.1269 60.5884 35.5481 60.4009 35.0677 60.0518C34.5874 59.7027 34.2303 59.21 34.0481 58.6448L33.3159 56.3911C31.1489 55.8407 29.0728 54.9801 27.1519 53.8361L25.0392 54.9124C24.5105 55.1831 23.9096 55.2791 23.3228 55.1865C22.7361 55.0939 22.194 54.8175 21.7744 54.397L18.3978 51.0205C17.9775 50.6009 17.7009 50.0588 17.608 49.4722C17.5151 48.8856 17.6105 48.2846 17.8806 47.7557L18.9588 45.6439C18.8022 45.379 18.6505 45.1113 18.5037 44.8409H13.5511C13.313 44.8415 13.0849 44.9363 12.9165 45.1046C12.7482 45.2729 12.6533 45.5011 12.6526 45.7391V68.8036H65.5635V45.7391ZM63.3176 36.4416L60.4165 37.3847C60.216 37.45 60.036 37.5664 59.8942 37.7224C59.7523 37.8784 59.6536 38.0686 59.6075 38.2744C59.0811 40.639 58.1464 42.8937 56.8453 44.9372C56.7324 45.1152 56.6678 45.3196 56.6579 45.5301C56.648 45.7407 56.6931 45.9502 56.7889 46.138L58.1744 48.8574C58.2551 49.0169 58.2287 49.1803 58.1033 49.3066L54.7267 52.6822C54.6004 52.8086 54.4379 52.8348 54.2775 52.7531L51.559 51.3686C51.3714 51.2724 51.1618 51.2269 50.9511 51.2368C50.7405 51.2467 50.5361 51.3116 50.3583 51.425C48.3143 52.7259 46.0593 53.6606 43.6945 54.1872C43.4888 54.2327 43.2985 54.3312 43.1427 54.473C42.9868 54.6147 42.8707 54.7948 42.8059 54.9952L41.8638 57.8965C41.8064 58.0656 41.6732 58.1629 41.4953 58.1629H36.7206C36.5427 58.1629 36.4086 58.0656 36.3521 57.8965L35.41 54.9952C35.3453 54.7947 35.2293 54.6146 35.0734 54.4728C34.9175 54.3311 34.7272 54.2326 34.5214 54.1872C32.1567 53.6602 29.9018 52.7255 27.8576 51.425C27.6797 51.3121 27.4753 51.2475 27.2647 51.2376C27.0542 51.2277 26.8447 51.2728 26.6569 51.3686L23.9384 52.7531C23.778 52.8348 23.6146 52.8086 23.4873 52.6822L20.1126 49.3066C19.9863 49.1803 19.961 49.0169 20.0415 48.8574L21.427 46.138C21.5227 45.9501 21.5677 45.7406 21.5576 45.53C21.5476 45.3194 21.4828 45.1151 21.3696 44.9372C20.0691 42.8935 19.1344 40.6389 18.6074 38.2744C18.5616 38.0688 18.4632 37.8787 18.3217 37.7227C18.1802 37.5667 18.0005 37.4502 17.8004 37.3847L14.8993 36.4416C14.7292 36.3863 14.63 36.252 14.63 36.0741V34.8995H23.5057C24.1016 43.3288 30.8714 49.9995 39.1082 49.9995C47.3441 49.9995 54.1139 43.3288 54.7108 34.8995H63.5834V36.0741C63.584 36.252 63.4867 36.3861 63.3176 36.4416ZM41.8252 20.0953C43.9991 23.4194 45.2873 27.7527 45.4741 32.4748H52.2768C51.7673 26.3401 47.4496 21.3329 41.8252 20.0953ZM25.9397 32.4748H32.7424C32.93 27.7527 34.2174 23.4194 36.3913 20.0953C30.7669 21.3329 26.4492 26.3401 25.9397 32.4748ZM32.7424 34.8995C32.933 39.6237 34.224 43.9578 36.4038 47.2819C30.7736 46.0472 26.449 41.0392 25.9395 34.8995H32.7424ZM35.1711 34.8995H43.0433C42.8314 39.5721 41.4098 43.8997 39.1086 46.9009C36.8055 43.8997 35.3832 39.5723 35.1711 34.8995ZM35.1711 32.4748C35.3811 27.7964 36.8034 23.4622 39.1086 20.455C41.4129 23.4622 42.8352 27.7964 43.0452 32.4748H35.1711ZM45.4741 34.8995H52.2768C51.7673 41.0392 47.4427 46.0473 41.8115 47.2819C43.9923 43.958 45.2835 39.6237 45.4741 34.8995ZM6.69421 68.8037H10.2283V45.7391C10.2283 43.9065 11.7207 42.416 13.5514 42.416H17.3656C16.981 41.4594 16.6598 40.4786 16.4041 39.4799L14.1495 38.7477C13.5843 38.5652 13.0916 38.2079 12.7425 37.7274C12.3934 37.2469 12.2058 36.668 12.2068 36.0741V33.6872C12.2068 33.0164 12.7503 32.4748 13.4192 32.4748H23.5063C24.1022 24.0436 30.872 17.3749 39.1088 17.3749C47.3447 17.3749 54.1145 24.0434 54.7114 32.4748H64.7954C64.9547 32.4746 65.1124 32.5058 65.2596 32.5667C65.4068 32.6275 65.5405 32.7168 65.6532 32.8294C65.7658 32.942 65.8551 33.0758 65.9159 33.223C65.9768 33.3702 66.008 33.5279 66.0078 33.6872V36.0741C66.0078 37.2961 65.2271 38.3696 64.0672 38.7477L61.8126 39.4799C61.5568 40.4786 61.2356 41.4594 60.8511 42.416H64.6631C66.4959 42.416 67.9882 43.9065 67.9882 45.7391V68.8036H71.5223C72.652 68.8036 73.6652 69.4035 74.1678 70.3699C74.6451 71.2859 74.5724 72.3445 73.9743 73.1981L72.3565 75.5072C70.3555 78.3637 66.8439 80 62.7177 80H15.4988C11.3726 80 7.86097 78.3637 5.86001 75.5072L4.24213 73.1992C3.64413 72.3447 3.57135 71.2859 4.04869 70.3699C4.55131 69.4035 5.56451 68.8037 6.69421 68.8037Z" fill="white"></path></svg>