<svg xmlns="http://www.w3.org/2000/svg" width="78" height="78" viewBox="0 0 78 78" fill="none"><path d="M61.6695 71.9211L56.4571 77.1336C56.2226 77.368 55.9048 77.4996 55.5733 77.4996C55.2418 77.4996 54.924 77.368 54.6896 77.1336L51.5646 74.0086C51.3302 73.7742 51.1986 73.4563 51.1986 73.1249C51.1986 72.7934 51.3302 72.4755 51.5646 72.2411L56.7771 67.0286C57.0159 66.8028 57.3321 66.677 57.6608 66.677C57.9895 66.677 58.3057 66.8028 58.5445 67.0286L59.222 67.7061L61.1695 65.7586C59.7278 63.8675 59.0586 61.4992 59.2974 59.1332C59.5362 56.7672 60.6653 54.5803 62.4559 53.0155C64.2465 51.4507 66.5649 50.6248 68.9415 50.7051C71.3182 50.7853 73.5755 51.7658 75.2565 53.4479C76.9374 55.13 77.9163 57.3881 77.9949 59.7648C78.0735 62.1415 77.2459 64.4593 75.6798 66.2488C74.1137 68.0383 71.9261 69.1658 69.5599 69.403C67.1938 69.6401 64.8259 68.9692 62.9358 67.5261L60.9895 69.4736L61.6695 70.1536C61.9039 70.388 62.0355 70.7059 62.0355 71.0374C62.0355 71.3688 61.9039 71.6867 61.6695 71.9211ZM57.6583 69.6711L54.2133 73.1249L55.5733 74.4849L59.0183 71.0374L57.6583 69.6711ZM63.7546 64.9349C64.7137 65.893 65.9354 66.5453 67.2652 66.8093C68.595 67.0733 69.9731 66.9371 71.2255 66.4179C72.4779 65.8988 73.5483 65.02 74.3014 63.8926C75.0544 62.7653 75.4564 61.44 75.4564 60.0843C75.4564 58.7285 75.0544 57.4032 74.3014 56.2759C73.5483 55.1485 72.4779 54.2697 71.2255 53.7506C69.9731 53.2314 68.595 53.0953 67.2652 53.3592C65.9354 53.6232 64.7137 54.2755 63.7546 55.2336C63.1111 55.8676 62.6001 56.6232 62.2513 57.4565C61.9025 58.2897 61.7229 59.1841 61.7229 60.0874C61.7229 60.9907 61.9025 61.885 62.2513 62.7183C62.6001 63.5516 63.1111 64.3072 63.7546 64.9411V64.9349ZM5.47205 59.9999H6.97955C6.06402 59.2747 5.3969 58.2826 5.07079 57.1611C4.74467 56.0396 4.77572 54.8445 5.15963 53.7415C5.54354 52.6384 6.26127 51.6823 7.21322 51.0056C8.16517 50.329 9.30413 49.9655 10.4721 49.9655C11.64 49.9655 12.7789 50.329 13.7309 51.0056C14.6828 51.6823 15.4006 52.6384 15.7845 53.7415C16.1684 54.8445 16.1994 56.0396 15.8733 57.1611C15.5472 58.2826 14.8801 59.2747 13.9646 59.9999H15.4721C16.7981 59.9999 18.0699 60.5267 19.0076 61.4644C19.9453 62.402 20.4721 63.6738 20.4721 64.9999V76.2499C20.4721 76.5814 20.3404 76.8993 20.1059 77.1338C19.8715 77.3682 19.5536 77.4999 19.2221 77.4999H1.72205C1.39053 77.4999 1.07259 77.3682 0.838165 77.1338C0.603745 76.8993 0.472054 76.5814 0.472054 76.2499V64.9999C0.472054 63.6738 0.99884 62.402 1.93652 61.4644C2.8742 60.5267 4.14597 59.9999 5.47205 59.9999ZM10.4721 52.4999C9.85399 52.4999 9.24979 52.6832 8.73589 53.0265C8.22199 53.3699 7.82145 53.858 7.58493 54.429C7.3484 55 7.28652 55.6283 7.4071 56.2345C7.52768 56.8407 7.8253 57.3976 8.26234 57.8346C8.69938 58.2716 9.25621 58.5693 9.8624 58.6898C10.4686 58.8104 11.0969 58.7485 11.6679 58.512C12.239 58.2755 12.727 57.8749 13.0704 57.361C13.4138 56.8471 13.5971 56.243 13.5971 55.6249C13.5971 54.7961 13.2678 54.0012 12.6818 53.4152C12.0957 52.8291 11.3009 52.4999 10.4721 52.4999ZM2.97205 74.9999H17.9721V64.9999C17.9721 64.3368 17.7087 63.701 17.2398 63.2321C16.771 62.7633 16.1351 62.4999 15.4721 62.4999H5.47205C4.80901 62.4999 4.17313 62.7633 3.70428 63.2321C3.23544 63.701 2.97205 64.3368 2.97205 64.9999V74.9999ZM62.6208 16.1924C66.6028 20.31 69.4261 25.4066 70.8049 30.9663C72.1836 36.526 72.0688 42.3513 70.4721 47.8524L68.0745 47.1474C69.546 42.0706 69.6504 36.6953 68.3774 31.5652C67.1043 26.4351 64.4988 21.7322 60.8246 17.9324L62.6208 16.1924ZM23.6208 67.2836L24.8233 65.0924C29.2495 67.5148 34.2138 68.7854 39.2596 68.7874C42.0885 68.7928 44.9037 68.3933 47.6196 67.6011L48.3246 69.9999C45.3798 70.8595 42.3272 71.2931 39.2596 71.2874C33.7934 71.2855 28.4154 69.9087 23.6208 67.2836ZM7.70956 46.5549C7.07574 44.0144 6.75667 41.4057 6.75955 38.7874C6.74025 30.3946 9.99035 22.3243 15.8208 16.2874L17.6233 18.0211C12.2417 23.5927 9.24179 31.0412 9.25955 38.7874C9.25723 41.2 9.5511 43.6038 10.1346 45.9449L7.70956 46.5549ZM46.3608 52.3649L45.7546 52.0199C45.0303 52.5484 44.2445 52.987 43.4146 53.3261V53.9199C43.407 54.5444 43.152 55.1404 42.7056 55.5772C42.2592 56.014 41.6578 56.2559 41.0333 56.2499H37.4083C36.7838 56.2559 36.1824 56.014 35.736 55.5772C35.2896 55.1404 35.0346 54.5444 35.0271 53.9199V53.3249C34.204 52.9996 33.4342 52.5529 32.7433 51.9999L32.0808 52.3649C31.5384 52.6618 30.9029 52.7398 30.3048 52.5828C29.7067 52.4259 29.1914 52.046 28.8646 51.5211L27.0508 48.5211C26.8908 48.2573 26.7862 47.9636 26.7432 47.6581C26.7002 47.3525 26.7198 47.0414 26.8008 46.7436C26.8823 46.4396 27.0249 46.1554 27.2198 45.9083C27.4147 45.6611 27.6579 45.4562 27.9346 45.3061L28.4896 44.9999C28.3825 44.17 28.3825 43.3298 28.4896 42.4999L27.9333 42.1924C27.6567 42.0423 27.4135 41.8374 27.2186 41.5903C27.0236 41.3431 26.8811 41.0589 26.7996 40.7549C26.7183 40.4569 26.6986 40.1456 26.7416 39.8398C26.7845 39.534 26.8893 39.2401 27.0496 38.9761L28.8608 35.9761C29.1868 35.45 29.7023 35.069 30.301 34.9118C30.8997 34.7545 31.5358 34.8331 32.0783 35.1311L32.6846 35.4761C33.4088 34.9476 34.1946 34.509 35.0246 34.1699V33.5761C35.0331 32.9514 35.2892 32.3556 35.7366 31.9195C36.1839 31.4834 36.7861 31.2425 37.4108 31.2499H41.0358C41.6592 31.2455 42.259 31.4882 42.7041 31.9248C43.1491 32.3614 43.4032 32.9565 43.4108 33.5799V34.1749C44.2339 34.5002 45.0036 34.9468 45.6945 35.4999L46.357 35.1349C46.8995 34.838 47.5349 34.76 48.133 34.9169C48.7311 35.0738 49.2465 35.4537 49.5733 35.9786L51.3871 38.9786C51.547 39.2425 51.6517 39.5361 51.6947 39.8417C51.7376 40.1473 51.718 40.4584 51.637 40.7561C51.5555 41.0601 51.413 41.3444 51.2181 41.5915C51.0231 41.8386 50.7799 42.0435 50.5033 42.1936L49.9471 42.5011C50.0541 43.331 50.0541 44.1712 49.9471 45.0011L50.5033 45.3086C50.7799 45.4587 51.0231 45.6636 51.2181 45.9108C51.413 46.1579 51.5555 46.4421 51.637 46.7461C51.7183 47.0441 51.738 47.3554 51.695 47.6612C51.6521 47.967 51.5473 48.2609 51.3871 48.5249L49.5758 51.5249C49.2484 52.0488 48.733 52.4277 48.1353 52.5839C47.5375 52.7401 46.9026 52.6617 46.3608 52.3649ZM47.5345 43.7499C47.5345 43.3955 47.5086 43.0417 47.4571 42.6911C47.3977 42.2288 47.4797 41.7593 47.6923 41.3445C47.905 40.9297 48.2383 40.5891 48.6483 40.3674L49.1483 40.0949L47.4983 37.3649L46.9095 37.6886C46.499 37.9091 46.0342 38.0083 45.5695 37.9747C45.1047 37.941 44.6591 37.7759 44.2845 37.4986C43.7166 37.0819 43.0984 36.7384 42.4445 36.4761C42.0017 36.3092 41.6195 36.0125 41.3479 35.625C41.0762 35.2374 40.9278 34.7769 40.9221 34.3036V33.7499H37.5371V34.3036C37.5312 34.7767 37.3829 35.237 37.1115 35.6245C36.8402 36.0121 36.4583 36.3088 36.0158 36.4761C35.359 36.7384 34.7379 37.0824 34.1671 37.4999C33.7927 37.7775 33.3471 37.9429 32.8823 37.9768C32.4175 38.0106 31.9527 37.9116 31.5421 37.6911L30.9533 37.3674L29.3033 40.0974L29.8033 40.3699C30.2139 40.5913 30.5476 40.9321 30.7603 41.3472C30.9731 41.7624 31.0547 42.2323 30.9946 42.6949C30.9411 43.0441 30.9127 43.3966 30.9095 43.7499C30.9096 44.1042 30.9355 44.4581 30.9871 44.8086C31.0464 45.271 30.9644 45.7404 30.7518 46.1552C30.5391 46.57 30.2058 46.9107 29.7958 47.1324L29.2958 47.4049L30.9458 50.1349L31.5345 49.8111C31.9451 49.5908 32.4099 49.4917 32.8746 49.5253C33.3394 49.559 33.785 49.724 34.1596 50.0011C34.7276 50.4178 35.3457 50.7614 35.9996 51.0236C36.4424 51.1906 36.8246 51.4872 37.0962 51.8748C37.3679 52.2624 37.5163 52.7229 37.5221 53.1961V53.7499H40.9146V53.1961C40.9204 52.7231 41.0687 52.2628 41.3401 51.8752C41.6114 51.4877 41.9933 51.1909 42.4358 51.0236C43.09 50.7608 43.7086 50.4169 44.2771 49.9999C44.6514 49.7223 45.097 49.5569 45.5618 49.523C46.0266 49.4891 46.4914 49.5882 46.9021 49.8086L47.4908 50.1324L49.1408 47.4024L48.6408 47.1299C48.2302 46.9085 47.8965 46.5677 47.6838 46.1526C47.471 45.7374 47.3894 45.2675 47.4496 44.8049C47.503 44.4557 47.5314 44.1031 47.5345 43.7499Z" fill="white"></path><path d="M39.2222 48.75C38.2333 48.75 37.2666 48.4568 36.4443 47.9073C35.6221 47.3579 34.9812 46.577 34.6028 45.6634C34.2243 44.7498 34.1253 43.7445 34.3182 42.7745C34.5112 41.8046 34.9874 40.9137 35.6866 40.2145C36.3859 39.5152 37.2768 39.039 38.2467 38.8461C39.2166 38.6531 40.222 38.7522 41.1356 39.1306C42.0492 39.509 42.8301 40.1499 43.3795 40.9721C43.9289 41.7944 44.2222 42.7611 44.2222 43.75C44.2222 45.0761 43.6954 46.3479 42.7577 47.2855C41.82 48.2232 40.5483 48.75 39.2222 48.75ZM39.2222 41.25C38.7277 41.25 38.2444 41.3966 37.8332 41.6713C37.4221 41.946 37.1017 42.3365 36.9125 42.7933C36.7232 43.2501 36.6737 43.7528 36.7702 44.2377C36.8667 44.7227 37.1048 45.1681 37.4544 45.5178C37.804 45.8674 38.2495 46.1055 38.7344 46.202C39.2194 46.2984 39.7221 46.2489 40.1789 46.0597C40.6357 45.8705 41.0261 45.55 41.3008 45.1389C41.5755 44.7278 41.7222 44.2445 41.7222 43.75C41.7222 43.087 41.4588 42.4511 40.9899 41.9822C40.5211 41.5134 39.8852 41.25 39.2222 41.25ZM60.4722 5H54.2222V7.5H60.4722V5ZM57.9722 10H51.7222V12.5H57.9722V10Z" fill="white"></path><path d="M26.9959 4.21875C27.1131 4.07241 27.2617 3.9543 27.4306 3.87316C27.5996 3.79202 27.7847 3.74993 27.9722 3.75H34.2222V1.25C34.2222 0.918479 34.3539 0.600537 34.5883 0.366116C34.8227 0.131696 35.1406 0 35.4722 0H55.4722C55.8037 0 56.1216 0.131696 56.3561 0.366116C56.5905 0.600537 56.7222 0.918479 56.7222 1.25V3.75H54.2222V2.5H36.7222V21.25H44.4522C44.7067 20.5193 45.1824 19.886 45.8131 19.4378C46.4438 18.9896 47.1984 18.7488 47.9722 18.7488C48.7459 18.7488 49.5005 18.9896 50.1312 19.4378C50.762 19.886 51.2376 20.5193 51.4922 21.25H54.2222V13.75H56.7222V22.5C56.7222 22.8315 56.5905 23.1495 56.3561 23.3839C56.1216 23.6183 55.8037 23.75 55.4722 23.75H51.4922C51.2376 24.4807 50.762 25.114 50.1312 25.5622C49.5005 26.0104 48.7459 26.2512 47.9722 26.2512C47.1984 26.2512 46.4438 26.0104 45.8131 25.5622C45.1824 25.114 44.7067 24.4807 44.4522 23.75H32.7422C32.4876 24.4807 32.012 25.114 31.3812 25.5622C30.7505 26.0104 29.9959 26.2512 29.2222 26.2512C28.4484 26.2512 27.6938 26.0104 27.0631 25.5622C26.4324 25.114 25.9567 24.4807 25.7022 23.75H22.9722C22.6406 23.75 22.3227 23.6183 22.0883 23.3839C21.8539 23.1495 21.7222 22.8315 21.7222 22.5V11.25C21.722 10.966 21.8186 10.6905 21.9959 10.4688L26.9959 4.21875ZM47.9722 23.75C48.2194 23.75 48.4611 23.6767 48.6666 23.5393C48.8722 23.402 49.0324 23.2068 49.127 22.9784C49.2216 22.7499 49.2464 22.4986 49.1981 22.2561C49.1499 22.0137 49.0309 21.7909 48.8561 21.6161C48.6812 21.4413 48.4585 21.3223 48.216 21.274C47.9736 21.2258 47.7222 21.2505 47.4938 21.3451C47.2654 21.4398 47.0702 21.6 46.9328 21.8055C46.7955 22.0111 46.7222 22.2528 46.7222 22.5C46.7222 22.8315 46.8539 23.1495 47.0883 23.3839C47.3227 23.6183 47.6406 23.75 47.9722 23.75ZM30.4722 6.25H28.5722L25.5722 10H30.4722V6.25ZM29.2222 23.75C29.4694 23.75 29.7111 23.6767 29.9166 23.5393C30.1222 23.402 30.2824 23.2068 30.377 22.9784C30.4716 22.7499 30.4964 22.4986 30.4482 22.2561C30.3999 22.0137 30.2809 21.7909 30.1061 21.6161C29.9312 21.4413 29.7085 21.3223 29.466 21.274C29.2236 21.2258 28.9722 21.2505 28.7438 21.3451C28.5154 21.4398 28.3202 21.6 28.1828 21.8055C28.0455 22.0111 27.9722 22.2528 27.9722 22.5C27.9722 22.8315 28.1039 23.1495 28.3383 23.3839C28.5727 23.6183 28.8906 23.75 29.2222 23.75ZM24.2222 21.25H25.7022C25.9567 20.5193 26.4324 19.886 27.0631 19.4378C27.6938 18.9896 28.4484 18.7488 29.2222 18.7488C29.9959 18.7488 30.7505 18.9896 31.3812 19.4378C32.012 19.886 32.4876 20.5193 32.7422 21.25H34.2222V6.25H32.9722V11.25C32.9722 11.5815 32.8405 11.8995 32.6061 12.1339C32.3716 12.3683 32.0537 12.5 31.7222 12.5H24.2222V21.25Z" fill="white"></path></svg>