<svg xmlns="http://www.w3.org/2000/svg" width="81" height="80" viewBox="0 0 81 80" fill="none"><path d="M35.197 61.8908H46.6025C47.2521 61.8894 47.8771 61.6417 48.3512 61.1975C48.8252 60.7532 49.1131 60.1457 49.1566 59.4975L49.4075 55.6558C49.4092 55.6238 49.416 55.5245 49.5246 55.4647C49.5717 55.4403 49.6242 55.4286 49.6772 55.4305C49.7301 55.4324 49.7817 55.448 49.8269 55.4756C50.9722 56.1139 52.2715 56.3312 53.5903 56.1072C55.9709 55.7005 57.8791 53.7451 58.2303 51.3493C58.3964 50.2475 58.2369 49.1212 57.7713 48.1089C57.3966 47.2996 57.4244 46.3236 57.8446 45.4984C59.3079 42.6139 60.0122 39.4042 59.8909 36.1721C59.5179 26.0643 51.0109 17.8984 40.8947 17.8984H40.7423C30.3507 17.9826 21.896 26.5022 21.896 36.8904C21.896 39.9312 22.5924 42.8356 23.9675 45.5245C24.3886 46.3455 24.424 47.2836 24.0635 48.0331C23.5705 49.0638 23.398 50.2187 23.5684 51.3485C23.9195 53.7434 25.8277 55.7005 28.2092 56.1063C29.5254 56.3295 30.8282 56.1131 31.9734 55.4756C32.0184 55.4476 32.0698 55.4319 32.1227 55.43C32.1756 55.4281 32.2281 55.44 32.2749 55.4647C32.3844 55.5236 32.3903 55.623 32.3928 55.6558L32.6429 59.4975C32.6864 60.1457 32.9743 60.7532 33.4483 61.1975C33.9224 61.6417 34.5474 61.8894 35.197 61.8908ZM49.6602 53.6912C49.3222 53.691 48.9895 53.7755 48.6926 53.9371C48.4002 54.0962 48.1531 54.3271 47.9746 54.608C47.796 54.889 47.6919 55.2107 47.672 55.543L47.421 59.3847C47.3932 59.8141 47.0336 60.151 46.6025 60.151H35.197C34.7659 60.151 34.4063 59.8141 34.3785 59.3847L34.1275 55.543C34.1075 55.2106 34.0032 54.8888 33.8245 54.6079C33.6458 54.327 33.3986 54.0961 33.1061 53.9371C32.8016 53.7725 32.4602 53.6879 32.1141 53.6913C31.7679 53.6947 31.4283 53.7859 31.1271 53.9565C30.3286 54.4 29.4012 54.5538 28.5023 54.3918C26.8534 54.1114 25.5322 52.7556 25.2888 51.0958C25.1709 50.2941 25.2896 49.4958 25.6307 48.7868C26.2252 47.5506 26.1823 46.0339 25.5162 44.7321C24.2713 42.3061 23.6262 39.6171 23.6349 36.8904C23.6349 27.4538 31.3149 19.714 40.7566 19.6374C49.9979 19.5574 57.8126 27.0083 58.1528 36.2352C58.2637 39.1719 57.6243 42.0884 56.2951 44.7093C55.6341 46.0053 55.5962 47.5489 56.1932 48.8398C56.5168 49.5451 56.6272 50.3295 56.5107 51.0967C56.2665 52.7556 54.9452 54.1114 53.2972 54.3918C52.3985 54.554 51.4714 54.4001 50.6732 53.9565C50.3637 53.7831 50.0149 53.6918 49.6602 53.6912Z" fill="white"></path><path d="M44.7902 61.8904C45.2702 61.8904 45.6601 61.5005 45.6601 61.0205V57.5889C45.6601 57.3582 45.5685 57.137 45.4053 56.9738C45.2422 56.8107 45.0209 56.719 44.7902 56.719C44.5595 56.719 44.3383 56.8107 44.1751 56.9738C44.012 57.137 43.9203 57.3582 43.9203 57.5889V61.0205C43.9203 61.5005 44.3102 61.8904 44.7902 61.8904ZM40.9005 61.8904C41.3805 61.8904 41.7704 61.5005 41.7704 61.0205V57.5889C41.7704 57.3582 41.6788 57.137 41.5157 56.9738C41.3525 56.8107 41.1313 56.719 40.9005 56.719C40.6698 56.719 40.4486 56.8107 40.2854 56.9738C40.1223 57.137 40.0306 57.3582 40.0306 57.5889V61.0205C40.0306 61.5005 40.4205 61.8904 40.9005 61.8904ZM37.0109 61.8904C37.4909 61.8904 37.8808 61.5005 37.8808 61.0205V57.5889C37.8808 57.3582 37.7891 57.137 37.626 56.9738C37.4628 56.8107 37.2416 56.719 37.0109 56.719C36.7801 56.719 36.5589 56.8107 36.3957 56.9738C36.2326 57.137 36.141 57.3582 36.141 57.5889V61.0205C36.141 61.5005 36.5309 61.8904 37.0109 61.8904ZM32.9309 47.562H33.4058C34.9673 47.5602 36.4643 46.9391 37.5685 45.835C38.6726 44.7309 39.2937 43.2338 39.2955 41.6723C39.2948 40.9701 39.0156 40.2969 38.519 39.8004C38.0225 39.3038 37.3493 39.0246 36.6471 39.0239H31.8774C30.885 39.025 29.9335 39.4198 29.2318 40.1215C28.5301 40.8232 28.1353 41.7747 28.1342 42.7671C28.1356 44.0385 28.6413 45.2575 29.5404 46.1564C30.4395 47.0554 31.6594 47.5609 32.9309 47.562ZM36.6479 40.7637C36.8891 40.7637 37.1204 40.8595 37.291 41.0301C37.4616 41.2006 37.5574 41.432 37.5574 41.6732C37.556 42.7737 37.1182 43.8287 36.3398 44.6067C35.5615 45.3847 34.5063 45.8222 33.4058 45.8231H32.9309C32.1203 45.8224 31.3432 45.5001 30.7701 44.927C30.197 44.3539 29.8747 43.5768 29.874 42.7662C29.8749 42.2351 30.0864 41.726 30.4621 41.3506C30.8378 40.9752 31.3471 40.7642 31.8782 40.7637H36.6479ZM48.3953 47.562H48.8702C50.1417 47.5609 51.3607 47.0554 52.2598 46.1564C53.159 45.2575 53.6647 44.0385 53.666 42.7671C53.6649 41.7747 53.2702 40.8232 52.5684 40.1215C51.8667 39.4198 50.9153 39.025 49.9229 39.0239H45.1532C44.451 39.0246 43.7777 39.3038 43.2812 39.8004C42.7847 40.2969 42.5054 40.9701 42.5048 41.6723C42.5065 43.234 43.1277 44.7311 44.2321 45.8353C45.3364 46.9395 46.8336 47.5605 48.3953 47.562ZM49.9229 40.7637C50.4541 40.7642 50.9635 40.9753 51.3393 41.3509C51.715 41.7265 51.9264 42.2358 51.9271 42.7671C51.9271 44.4513 50.5561 45.8231 48.8702 45.8231H48.3944C47.2941 45.8217 46.2392 45.384 45.4612 44.6058C44.6832 43.8277 44.2457 42.7727 44.2445 41.6723C44.2445 41.4311 44.3404 41.1998 44.5109 41.0292C44.6815 40.8587 44.9128 40.7629 45.154 40.7629L49.9229 40.7637ZM39.5363 52.7485H42.2648C42.5948 52.7486 42.92 52.6683 43.212 52.5144C43.5041 52.3606 43.7542 52.1379 43.9408 51.8656C44.1274 51.5934 44.2449 51.2797 44.283 50.9518C44.3211 50.6239 44.2787 50.2917 44.1595 49.9839L43.3721 47.946C42.9805 46.9321 41.9869 46.2509 40.9005 46.2509C39.8142 46.2509 38.8205 46.933 38.429 47.9452L37.6416 49.9839C37.5222 50.2917 37.4796 50.624 37.5176 50.952C37.5557 51.2799 37.6731 51.5937 37.8597 51.866C38.0464 52.1383 38.2966 52.361 38.5888 52.5148C38.8809 52.6686 39.2062 52.7488 39.5363 52.7485ZM40.9005 47.9906C41.2736 47.9906 41.6163 48.2239 41.7502 48.5725L42.5376 50.6104C42.5553 50.6547 42.5616 50.7027 42.556 50.7501C42.5504 50.7974 42.5331 50.8426 42.5056 50.8816C42.4792 50.9211 42.4433 50.9534 42.4013 50.9756C42.3592 50.9978 42.3123 51.0092 42.2648 51.0087H39.5363C39.4889 51.0093 39.442 50.9981 39.4 50.976C39.3579 50.954 39.322 50.9218 39.2955 50.8824C39.268 50.8435 39.2507 50.7983 39.2451 50.7509C39.2395 50.7036 39.2458 50.6556 39.2635 50.6113L40.0509 48.5725C40.118 48.4016 40.2348 48.2548 40.3863 48.1511C40.5378 48.0473 40.7169 47.9914 40.9005 47.9906Z" fill="white"></path><path d="M40.9004 67.9999C56.3395 67.9999 68.9004 55.4391 68.9004 39.9999C68.9004 24.5608 56.3395 12 40.9004 12C25.4612 12 12.9004 24.5608 12.9004 39.9999C12.9004 55.4391 25.4612 67.9999 40.9004 67.9999ZM40.9004 13.7389C55.3804 13.7389 67.1614 25.52 67.1614 39.9999C67.1614 54.4799 55.3804 66.2609 40.9004 66.2609C26.4204 66.2609 14.6393 54.4799 14.6393 39.9999C14.6393 25.52 26.4204 13.7389 40.9004 13.7389Z" fill="white"></path><path d="M40.9006 13.7359C41.3806 13.7359 41.7705 13.3469 41.7705 12.8669V7.26687C41.7705 7.03616 41.6789 6.8149 41.5157 6.65176C41.3526 6.48862 41.1313 6.39697 40.9006 6.39697C40.6699 6.39697 40.4486 6.48862 40.2855 6.65176C40.1224 6.8149 40.0307 7.03616 40.0307 7.26687V12.8669C40.0307 13.3469 40.4206 13.7359 40.9006 13.7359Z" fill="white"></path><path d="M40.9004 8.13556C41.9787 8.13422 43.0125 7.70527 43.775 6.94278C44.5375 6.18029 44.9664 5.14652 44.9678 4.0682C44.9678 1.82484 43.1446 0 40.9004 0C38.6562 0 36.833 1.82484 36.833 4.06736C36.8339 5.14597 37.2627 6.18018 38.0252 6.94303C38.7878 7.70588 39.8218 8.13422 40.9004 8.13556ZM40.9004 1.73894C42.1846 1.73894 43.2297 2.78399 43.2297 4.0682C43.2297 5.35241 42.1846 6.39662 40.9004 6.39662C39.6162 6.39662 38.5711 5.35241 38.5711 4.0682C38.5711 2.78399 39.6162 1.73894 40.9004 1.73894ZM18.8288 11.3347C19.9074 11.3334 20.9415 10.9042 21.704 10.1413C22.4665 9.37848 22.8953 8.34428 22.8962 7.26567C22.8949 6.18735 22.4659 5.15358 21.7034 4.39109C20.9409 3.6286 19.9071 3.19965 18.8288 3.19831C17.7505 3.19965 16.7167 3.6286 15.9542 4.39109C15.1917 5.15358 14.7628 6.18735 14.7615 7.26567C14.7626 8.34413 15.1914 9.37812 15.9539 10.1408C16.7165 10.9035 17.7504 11.3325 18.8288 11.3339V11.3347ZM18.8288 4.93725C20.1122 4.93725 21.1572 5.98146 21.1572 7.26567C21.1572 8.54988 20.113 9.59493 18.828 9.59493C17.5429 9.59493 16.4996 8.55072 16.4996 7.26567C16.4996 5.98062 17.5446 4.93725 18.8288 4.93725Z" fill="white"></path><path d="M28.2998 16.8412C28.7798 16.8412 29.1697 16.4513 29.1697 15.9713V10.9186C29.1697 8.42518 27.1402 6.39655 24.6476 6.39655H22.0278C21.8019 6.40358 21.5876 6.49827 21.4303 6.66056C21.273 6.82285 21.185 7.04 21.185 7.26602C21.185 7.49205 21.273 7.7092 21.4303 7.87149C21.5876 8.03378 21.8019 8.12846 22.0278 8.13549H24.6476C25.3855 8.13616 26.0931 8.4296 26.6149 8.9514C27.1367 9.4732 27.4301 10.1807 27.4308 10.9186V15.9713C27.4308 16.4513 27.8198 16.8412 28.2998 16.8412ZM62.9727 11.3346C64.0513 11.3333 65.0853 10.9041 65.8479 10.1413C66.6104 9.37842 67.0391 8.34421 67.04 7.2656C67.0387 6.18728 66.6097 5.15351 65.8473 4.39102C65.0848 3.62853 64.051 3.19958 62.9727 3.19824C61.8943 3.19958 60.8606 3.62853 60.0981 4.39102C59.3356 5.15351 58.9066 6.18728 58.9053 7.2656C58.9064 8.34407 59.3353 9.37806 60.0978 10.1407C60.8603 10.9034 61.8942 11.3325 62.9727 11.3338V11.3346ZM62.9727 4.93719C64.2569 4.93719 65.3019 5.98139 65.3019 7.2656C65.3019 8.54981 64.2577 9.59486 62.9735 9.59486C61.6893 9.59486 60.6442 8.55065 60.6442 7.2656C60.6442 5.98055 61.6885 4.93719 62.9735 4.93719H62.9727Z" fill="white"></path><path d="M53.5018 16.8416C53.9818 16.8416 54.3709 16.4517 54.3709 15.9717V10.9191C54.3715 10.1811 54.665 9.47362 55.1868 8.95182C55.7086 8.43002 56.4161 8.13659 57.154 8.13592H59.7738C59.9997 8.12888 60.214 8.0342 60.3713 7.87191C60.5287 7.70962 60.6166 7.49247 60.6166 7.26644C60.6166 7.04042 60.5287 6.82327 60.3713 6.66098C60.214 6.49869 59.9997 6.404 59.7738 6.39697H57.154C54.6614 6.39697 52.6319 8.4256 52.6319 10.9191V15.9717C52.6319 16.4517 53.021 16.8416 53.5018 16.8416ZM68.034 40.8702H73.634C73.8647 40.8702 74.086 40.7785 74.2491 40.6154C74.4123 40.4522 74.5039 40.231 74.5039 40.0003C74.5039 39.7696 74.4123 39.5483 74.2491 39.3852C74.086 39.222 73.8647 39.1304 73.634 39.1304H68.034C67.8033 39.1304 67.582 39.222 67.4189 39.3852C67.2558 39.5483 67.1641 39.7696 67.1641 40.0003C67.1641 40.231 67.2558 40.4522 67.4189 40.6154C67.582 40.7785 67.8033 40.8702 68.034 40.8702Z" fill="white"></path><path d="M76.833 44.0671C79.0755 44.0671 80.9004 42.2431 80.9004 39.9997C80.9004 37.7564 79.0755 35.9324 76.833 35.9324C74.5897 35.9324 72.7648 37.7564 72.7648 39.9997C72.7648 42.2431 74.5905 44.0671 76.833 44.0671ZM76.833 37.6705C78.1164 37.6705 79.1614 38.7155 79.1614 39.9997C79.1614 41.2839 78.1164 42.329 76.8322 42.329C75.548 42.329 74.5038 41.2839 74.5038 39.9997C74.5038 38.7155 75.5488 37.6705 76.833 37.6705ZM73.6347 21.9956C74.713 21.9942 75.7468 21.5653 76.5093 20.8028C77.2718 20.0403 77.7007 19.0065 77.7021 17.9282C77.7007 16.8499 77.2718 15.8161 76.5093 15.0536C75.7468 14.2911 74.713 13.8622 73.6347 13.8608C72.5562 13.862 71.5222 14.2908 70.7596 15.0533C69.9969 15.8158 69.5678 16.8497 69.5665 17.9282C69.5678 19.0065 69.9968 20.0403 70.7593 20.8028C71.5218 21.5653 72.5564 21.9942 73.6347 21.9956ZM73.6347 15.5989C74.252 15.5996 74.8439 15.8451 75.2804 16.2817C75.7169 16.7182 75.9625 17.31 75.9631 17.9274C75.9631 19.2116 74.9189 20.2566 73.6347 20.2566C72.3505 20.2566 71.3054 19.2124 71.3054 17.9274C71.3063 17.31 71.5521 16.7181 71.9887 16.2816C72.4254 15.8451 73.0173 15.5996 73.6347 15.5989Z" fill="white"></path><path d="M64.9291 28.2689H69.9817C72.4752 28.2689 74.5038 26.2394 74.5038 23.7468V21.127C74.4968 20.9011 74.4021 20.6868 74.2398 20.5295C74.0775 20.3722 73.8604 20.2842 73.6344 20.2842C73.4083 20.2842 73.1912 20.3722 73.0289 20.5295C72.8666 20.6868 72.7719 20.9011 72.7649 21.127V23.7468C72.7642 24.4847 72.4708 25.1922 71.949 25.714C71.4272 26.2358 70.7197 26.5293 69.9817 26.5299H64.9291C64.7032 26.537 64.4889 26.6317 64.3316 26.794C64.1742 26.9562 64.0863 27.1734 64.0863 27.3994C64.0863 27.6254 64.1742 27.8426 64.3316 28.0049C64.4889 28.1672 64.7032 28.2619 64.9291 28.2689ZM73.6348 66.1391C74.7131 66.1378 75.7469 65.7088 76.5094 64.9463C77.2719 64.1839 77.7008 63.1501 77.7021 62.0718C77.7008 60.9934 77.2719 59.9597 76.5094 59.1972C75.7469 58.4347 74.7131 58.0057 73.6348 58.0044C72.5563 58.0055 71.5223 58.4344 70.7596 59.1969C69.997 59.9594 69.5679 60.9933 69.5666 62.0718C69.5679 63.1501 69.9969 64.1839 70.7594 64.9463C71.5218 65.7088 72.5565 66.1378 73.6348 66.1391ZM73.6348 59.7433C74.9181 59.7433 75.9632 60.7875 75.9632 62.0726C75.9632 63.3576 74.919 64.401 73.6348 64.401C72.3506 64.401 71.3055 63.3568 71.3055 62.0726C71.3055 60.7884 72.3497 59.7433 73.6348 59.7433Z" fill="white"></path><path d="M73.6349 59.7432C74.1149 59.7432 74.5039 59.3542 74.5039 58.8733V56.2535C74.5039 53.7609 72.4753 51.7314 69.9818 51.7314H64.9292C64.7033 51.7385 64.4889 51.8332 64.3316 51.9955C64.1743 52.1577 64.0863 52.3749 64.0863 52.6009C64.0863 52.8269 64.1743 53.0441 64.3316 53.2064C64.4889 53.3687 64.7033 53.4634 64.9292 53.4704H69.9818C70.7197 53.4711 71.4273 53.7645 71.9491 54.2863C72.4708 54.8081 72.7643 55.5156 72.765 56.2535V58.8733C72.765 59.3533 73.154 59.7432 73.6349 59.7432ZM40.9005 73.6034C41.3805 73.6034 41.7704 73.2143 41.7704 72.7343V67.1344C41.7704 66.9036 41.6788 66.6824 41.5156 66.5193C41.3525 66.3561 41.1312 66.2645 40.9005 66.2645C40.6698 66.2645 40.4486 66.3561 40.2854 66.5193C40.1223 66.6824 40.0306 66.9036 40.0306 67.1344V72.7343C40.0306 73.2143 40.4205 73.6034 40.9005 73.6034Z" fill="white"></path><path d="M40.9011 79.9999C41.9794 79.9985 43.0132 79.5696 43.7757 78.8071C44.5382 78.0446 44.9671 77.0108 44.9685 75.9325C44.9685 73.6892 43.1445 71.8643 40.9011 71.8643C38.6577 71.8643 36.8337 73.6892 36.8337 75.9317C36.8348 77.0101 37.2637 78.0441 38.0262 78.8068C38.7887 79.5695 39.8226 79.9985 40.9011 79.9999ZM40.9011 73.6033C42.1853 73.6033 43.2304 74.6475 43.2304 75.9317C43.2304 77.2159 42.1853 78.2609 40.9011 78.2609C39.6169 78.2609 38.5718 77.2159 38.5718 75.9317C38.5718 74.6475 39.6169 73.6033 40.9011 73.6033ZM62.9727 76.8016C64.051 76.8002 65.0848 76.3713 65.8473 75.6088C66.6097 74.8463 67.0387 73.8125 67.04 72.7342C67.0389 71.6558 66.6101 70.6218 65.8476 69.8591C65.085 69.0964 64.0511 68.6674 62.9727 68.666C61.8943 68.6674 60.8606 69.0963 60.0981 69.8588C59.3356 70.6213 58.9066 71.6551 58.9053 72.7334C58.9066 73.8117 59.3356 74.8455 60.0981 75.608C60.8606 76.3704 61.8943 76.7994 62.9727 76.8007V76.8016ZM62.9727 70.405C64.2569 70.405 65.3019 71.4492 65.3019 72.7342C65.3019 74.0193 64.2577 75.0626 62.9735 75.0626C61.6893 75.0626 60.6442 74.0184 60.6442 72.7342C60.6442 71.45 61.6885 70.405 62.9735 70.405H62.9727Z" fill="white"></path><path d="M57.1527 73.6031H59.7734C59.9993 73.5961 60.2136 73.5014 60.3709 73.3391C60.5282 73.1768 60.6162 72.9596 60.6162 72.7336C60.6162 72.5076 60.5282 72.2904 60.3709 72.1282C60.2136 71.9659 59.9993 71.8712 59.7734 71.8641H57.1536C56.4157 71.8635 55.7081 71.57 55.1863 71.0482C54.6645 70.5264 54.3711 69.8189 54.3704 69.081V64.0284C54.3634 63.8025 54.2687 63.5882 54.1064 63.4308C53.9441 63.2735 53.727 63.1855 53.501 63.1855C53.2749 63.1855 53.0578 63.2735 52.8955 63.4308C52.7332 63.5882 52.6385 63.8025 52.6315 64.0284V69.081C52.6315 71.5745 54.661 73.6031 57.1536 73.6031H57.1527ZM18.8285 76.8014C19.9069 76.8001 20.9406 76.3711 21.7031 75.6086C22.4656 74.8461 22.8946 73.8124 22.8959 72.734C22.8948 71.6556 22.4659 70.6216 21.7034 69.8589C20.9409 69.0962 19.907 68.6672 18.8285 68.6658C17.7502 68.6672 16.7164 69.0961 15.9539 69.8586C15.1915 70.6211 14.7625 71.6549 14.7612 72.7332C14.7625 73.8115 15.1915 74.8453 15.9539 75.6078C16.7164 76.3703 17.7502 76.7992 18.8285 76.8006V76.8014ZM18.8285 70.4048C20.1119 70.4048 21.157 71.449 21.157 72.734C21.157 74.0191 20.1127 75.0625 18.8277 75.0625C17.5426 75.0625 16.4993 74.0183 16.4993 72.734C16.4993 71.4498 17.5443 70.4048 18.8285 70.4048Z" fill="white"></path><path d="M22.028 73.6031H24.6478C27.1404 73.6031 29.1699 71.5744 29.1699 69.081V64.0283C29.1629 63.8024 29.0682 63.5881 28.9059 63.4308C28.7436 63.2735 28.5265 63.1855 28.3004 63.1855C28.0744 63.1855 27.8573 63.2735 27.695 63.4308C27.5327 63.5881 27.438 63.8024 27.431 64.0283V69.081C27.4303 69.8189 27.1369 70.5264 26.6151 71.0482C26.0933 71.57 25.3857 71.8635 24.6478 71.8641H22.028C21.8021 71.8712 21.5878 71.9658 21.4305 72.1281C21.2732 72.2904 21.1852 72.5076 21.1852 72.7336C21.1852 72.9596 21.2732 73.1768 21.4305 73.3391C21.5878 73.5014 21.8021 73.596 22.028 73.6031ZM8.16697 40.8697H13.767C13.9977 40.8697 14.2189 40.778 14.3821 40.6149C14.5452 40.4517 14.6369 40.2305 14.6369 39.9998C14.6369 39.7691 14.5452 39.5478 14.3821 39.3847C14.2189 39.2215 13.9977 39.1299 13.767 39.1299H8.16697C7.93626 39.1299 7.715 39.2215 7.55187 39.3847C7.38873 39.5478 7.29708 39.7691 7.29708 39.9998C7.29708 40.2305 7.38873 40.4517 7.55187 40.6149C7.715 40.778 7.93626 40.8697 8.16697 40.8697Z" fill="white"></path><path d="M4.96785 44.0673C7.21122 44.0673 9.03606 42.2433 9.03606 40C9.03606 37.7566 7.21122 35.9326 4.96869 35.9326C2.72532 35.9326 0.90048 37.7566 0.90048 40C0.90048 42.2433 2.72532 44.0673 4.96785 44.0673ZM4.96785 37.6707C6.25206 37.6707 7.29711 38.7158 7.29711 40C7.29711 41.2842 6.2529 42.3292 4.96869 42.3292C3.68448 42.3292 2.63943 41.2842 2.63943 40C2.63943 38.7158 3.68364 37.6707 4.96785 37.6707ZM8.16616 66.1389C9.24463 66.1377 10.2786 65.7089 11.0413 64.9464C11.804 64.1839 12.233 63.15 12.2344 62.0715C12.233 60.9932 11.8041 59.9594 11.0416 59.1969C10.2791 58.4344 9.24533 58.0055 8.167 58.0041C7.08868 58.0055 6.05491 58.4344 5.29242 59.1969C4.52993 59.9594 4.10098 60.9932 4.09964 62.0715C4.10098 63.1498 4.52993 64.1836 5.29242 64.9461C6.05491 65.7086 7.08784 66.1375 8.16616 66.1389ZM8.16616 59.7431C9.45037 59.7431 10.4954 60.7873 10.4954 62.0723C10.4954 63.3574 9.45122 64.4008 8.16616 64.4008C6.88111 64.4008 5.83774 63.3566 5.83774 62.0723C5.83774 60.7881 6.88195 59.7431 8.16616 59.7431Z" fill="white"></path><path d="M8.16632 59.7428C8.64632 59.7428 9.03622 59.3538 9.03622 58.8729V56.2532C9.03689 55.5152 9.33033 54.8077 9.85213 54.2859C10.3739 53.7641 11.0814 53.4707 11.8194 53.47H16.872C17.0979 53.463 17.3122 53.3683 17.4696 53.206C17.6269 53.0437 17.7148 52.8266 17.7148 52.6005C17.7148 52.3745 17.6269 52.1574 17.4696 51.9951C17.3122 51.8328 17.0979 51.7381 16.872 51.7311H11.8194C9.32591 51.7311 7.29727 53.7605 7.29727 56.2532V58.8729C7.29727 59.3529 7.68632 59.7428 8.16632 59.7428ZM8.16632 21.9956C9.24479 21.9944 10.2788 21.5656 11.0415 20.8031C11.8041 20.0406 12.2332 19.0067 12.2345 17.9282C12.2332 16.8499 11.8042 15.8161 11.0418 15.0536C10.2793 14.2911 9.24549 13.8622 8.16717 13.8608C7.08884 13.8622 6.05507 14.2911 5.29258 15.0536C4.53009 15.8161 4.10114 16.8499 4.0998 17.9282C4.10114 19.0065 4.53009 20.0403 5.29258 20.8028C6.05507 21.5653 7.088 21.9942 8.16632 21.9956ZM8.16632 15.5989C8.78373 15.5996 9.37567 15.8451 9.81233 16.2816C10.249 16.7181 10.4947 17.31 10.4956 17.9274C10.4956 19.2116 9.45138 20.2566 8.16632 20.2566C6.88127 20.2566 5.8379 19.2124 5.8379 17.9274C5.83857 17.31 6.0841 16.7182 6.52062 16.2817C6.95714 15.8451 7.54899 15.5996 8.16632 15.5989Z" fill="white"></path><path d="M11.8194 28.2689H16.872C17.0979 28.2619 17.3122 28.1672 17.4696 28.0049C17.6269 27.8426 17.7148 27.6254 17.7148 27.3994C17.7148 27.1734 17.6269 26.9562 17.4696 26.794C17.3122 26.6317 17.0979 26.537 16.872 26.5299H11.8194C11.0814 26.5293 10.3739 26.2358 9.85213 25.714C9.33033 25.1922 9.03689 24.4847 9.03622 23.7468V21.127C9.02919 20.9011 8.9345 20.6868 8.77221 20.5295C8.60992 20.3722 8.39277 20.2842 8.16675 20.2842C7.94072 20.2842 7.72357 20.3722 7.56128 20.5295C7.39899 20.6868 7.3043 20.9011 7.29727 21.127V23.7468C7.29727 26.2394 9.32591 28.2689 11.8194 28.2689Z" fill="white"></path></svg>