<svg xmlns="http://www.w3.org/2000/svg" width="81" height="80" viewBox="0 0 81 80" fill="none"><path d="M43.2328 5.74687H10.1297L10.9669 4.9101C11.2398 4.64665 11.4574 4.33152 11.6072 3.98309C11.7569 3.63466 11.8357 3.25991 11.839 2.88071C11.8423 2.5015 11.77 2.12544 11.6264 1.77446C11.4827 1.42348 11.2706 1.10462 11.0023 0.836471C10.734 0.568324 10.415 0.356265 10.0639 0.212668C9.71274 0.0690716 9.33651 -0.00318734 8.95714 0.000107829C8.57777 0.003403 8.20285 0.0821864 7.85427 0.231861C7.50568 0.381535 7.19041 0.599103 6.92685 0.871869L1.21252 6.58365C0.67688 7.11921 0.375977 7.84548 0.375977 8.60276C0.375977 9.36004 0.67688 10.0863 1.21252 10.6219L6.92685 16.3337C7.19157 16.5998 7.50632 16.811 7.85299 16.9551C8.19965 17.0992 8.57141 17.1734 8.94686 17.1734C9.32231 17.1734 9.69407 17.0992 10.0407 16.9551C10.3874 16.811 10.7021 16.5998 10.9669 16.3337C11.5025 15.7981 11.8034 15.0718 11.8034 14.3145C11.8034 13.5573 11.5025 12.831 10.9669 12.2954L10.1297 11.4587H43.2328C60.5615 11.4587 74.6616 25.5525 74.6616 42.8734C74.6616 60.1944 60.5615 74.2882 43.2328 74.2882C25.9041 74.2882 11.804 60.1944 11.804 42.8734C11.804 42.116 11.503 41.3896 10.9672 40.854C10.4314 40.3184 9.70463 40.0175 8.94686 40.0175C8.18909 40.0175 7.46236 40.3184 6.92654 40.854C6.39072 41.3896 6.0897 42.116 6.0897 42.8734C6.0897 63.3444 22.7527 80 43.2328 80C63.713 80 80.376 63.3444 80.376 42.8734C80.376 22.4024 63.713 5.74687 43.2328 5.74687Z" fill="white"></path><path d="M17.6147 48.6138C17.4176 49.3477 17.5233 50.1302 17.9062 50.7871L23.6719 60.6799C24.0512 61.3307 24.6724 61.8054 25.4001 62.0006C26.1279 62.1958 26.9033 62.0958 27.5577 61.7223L31.7863 59.3062C32.6863 59.9174 33.652 60.4628 34.6606 60.9312V65.7205C34.6606 66.478 34.9616 67.2044 35.4974 67.7399C36.0332 68.2755 36.76 68.5764 37.5177 68.5764H48.9464C49.7042 68.5764 50.4309 68.2755 50.9667 67.7399C51.5025 67.2044 51.8036 66.478 51.8036 65.7205V60.9312C52.8121 60.4628 53.775 59.9174 54.6779 59.3033L58.9065 61.7223C59.5608 62.0958 60.3363 62.1958 61.064 62.0006C61.7918 61.8054 62.4129 61.3307 62.7922 60.6799L68.558 50.7871C68.9379 50.1292 69.0409 49.3475 68.8442 48.6138C68.6476 47.88 68.1675 47.2544 67.5094 46.8745L63.3179 44.4756C63.4096 43.4094 63.4096 42.3374 63.3179 41.2713L67.5094 38.8723C67.8364 38.6853 68.123 38.4354 68.3529 38.1371C68.5828 37.8388 68.7514 37.498 68.8489 37.1343C68.9463 36.7706 68.9708 36.3912 68.9209 36.018C68.871 35.6447 68.7476 35.2851 68.558 34.9597L62.7922 25.0669C62.4129 24.4161 61.7918 23.9415 61.064 23.7462C60.3363 23.551 59.5608 23.651 58.9065 24.0245L54.6779 26.4435C53.7649 25.8249 52.8037 25.2805 51.8036 24.8156V20.0263C51.8036 19.2689 51.5025 18.5425 50.9667 18.0069C50.4309 17.4713 49.7042 17.1704 48.9464 17.1704H37.5177C36.76 17.1704 36.0332 17.4713 35.4974 18.0069C34.9616 18.5425 34.6606 19.2689 34.6606 20.0263V24.8156C33.652 25.284 32.6891 25.8323 31.7863 26.4435L27.5577 24.0245C26.903 23.6525 26.128 23.5534 25.4007 23.7485C24.6734 23.9436 24.0523 24.4173 23.6719 25.0669L17.9062 34.9597C17.5262 35.6176 17.4233 36.3993 17.6199 37.1331C17.8165 37.8668 18.2967 38.4924 18.9547 38.8723L23.1462 41.2713C23.0546 42.3374 23.0546 43.4094 23.1462 44.4756L18.9547 46.8745C18.6278 47.0613 18.3411 47.3109 18.1112 47.6089C17.8812 47.9069 17.7125 48.2503 17.6147 48.6138ZM29.0434 45.478C28.872 44.5641 28.792 43.713 28.792 42.8734C28.792 42.0338 28.8748 41.1827 29.0434 40.2688C29.1511 39.6865 29.0751 39.0851 28.8258 38.5478C28.5765 38.0106 28.1663 37.5641 27.6519 37.2702L24.2919 35.3481L27.1834 30.3903L30.5834 32.3352C31.6263 32.9292 32.9348 32.8121 33.8491 32.0353C35.2171 30.8947 36.7804 30.0113 38.4635 29.4279C39.0214 29.2323 39.5049 28.8685 39.8472 28.3866C40.1896 27.9048 40.3739 27.3286 40.3749 26.7376V22.8822H46.0892V26.7348C46.0896 27.3263 46.2737 27.903 46.6161 28.3854C46.9585 28.8679 47.4423 29.2321 48.0007 29.4279C49.7207 30.0305 51.315 30.9329 52.615 32.0353C53.5293 32.8121 54.8379 32.9292 55.8807 32.3352L59.2808 30.3903L62.1722 35.3481L58.8122 37.2702C58.2978 37.5641 57.8876 38.0106 57.6383 38.5478C57.389 39.0851 57.313 39.6865 57.4207 40.2688C57.5922 41.1827 57.6722 42.0338 57.6722 42.8734C57.6722 43.713 57.5893 44.5641 57.4207 45.478C57.313 46.0603 57.389 46.6617 57.6383 47.199C57.8876 47.7362 58.2978 48.1827 58.8122 48.4767L62.1722 50.3987L59.2808 55.3565L55.8807 53.4145C55.3717 53.1229 54.7853 52.9949 54.201 53.0481C53.6167 53.1012 53.063 53.3329 52.615 53.7115C51.2469 54.8519 49.6836 55.7352 48.0007 56.3189C47.4423 56.5147 46.9585 56.879 46.6161 57.3614C46.2737 57.8438 46.0896 58.4206 46.0892 59.012V62.8646H40.3749V59.012C40.3745 58.4206 40.1904 57.8438 39.848 57.3614C39.5056 56.879 39.0218 56.5147 38.4635 56.3189C36.7805 55.7352 35.2172 54.8519 33.8491 53.7115C33.4015 53.3324 32.8479 53.1003 32.2636 53.0466C31.6793 52.993 31.0927 53.1204 30.5834 53.4116L27.1834 55.3565L24.2919 50.3987L27.6519 48.4767C28.1663 48.1827 28.5765 47.7362 28.8258 47.199C29.0751 46.6617 29.1511 46.0603 29.0434 45.478Z" fill="white"></path><path d="M43.2326 51.4415C47.9584 51.4415 51.8041 47.5975 51.8041 42.8738C51.8041 38.1502 47.9584 34.3062 43.2326 34.3062C38.5069 34.3062 34.6611 38.1502 34.6611 42.8738C34.6611 47.5975 38.5069 51.4415 43.2326 51.4415ZM43.2326 40.0179C44.8069 40.0179 46.0898 41.3002 46.0898 42.8738C46.0898 44.4474 44.8069 45.7297 43.2326 45.7297C41.6583 45.7297 40.3755 44.4474 40.3755 42.8738C40.3755 41.3002 41.6583 40.0179 43.2326 40.0179Z" fill="white"></path></svg>