<svg xmlns="http://www.w3.org/2000/svg" width="59" height="80" viewBox="0 0 59 80" fill="none"><path d="M57.6562 14.0938H53.8125V6.40625C53.8105 4.70783 53.1349 3.07956 51.9339 1.87859C50.7329 0.67763 49.1047 0.00203444 47.4062 0H11.5312C9.83283 0.00203444 8.20456 0.67763 7.00359 1.87859C5.80263 3.07956 5.12703 4.70783 5.125 6.40625V14.0938H1.28125C0.941441 14.0938 0.615551 14.2287 0.37527 14.469C0.134989 14.7093 0 15.0352 0 15.375V55.0938C0 55.4336 0.134989 55.7594 0.37527 55.9997C0.615551 56.24 0.941441 56.375 1.28125 56.375H5.125V73.0312C5.12703 74.7297 5.80263 76.3579 7.00359 77.5589C8.20456 78.7599 9.83283 79.4355 11.5312 79.4375H47.4062C49.1047 79.4355 50.7329 78.7599 51.9339 77.5589C53.1349 76.3579 53.8105 74.7297 53.8125 73.0312V56.375H57.6562C57.9961 56.375 58.3219 56.24 58.5622 55.9997C58.8025 55.7594 58.9375 55.4336 58.9375 55.0938V15.375C58.9375 15.0352 58.8025 14.7093 58.5622 14.469C58.3219 14.2287 57.9961 14.0938 57.6562 14.0938ZM7.6875 6.40625C7.68852 5.38714 8.09381 4.41005 8.81443 3.68943C9.53505 2.96881 10.5121 2.56352 11.5312 2.5625H47.4062C48.4254 2.56352 49.4024 2.96881 50.1231 3.68943C50.8437 4.41005 51.249 5.38714 51.25 6.40625V14.0938H7.6875V6.40625ZM2.5625 16.6562H56.375V24.3438H2.5625V16.6562ZM51.25 73.0312C51.249 74.0504 50.8437 75.0274 50.1231 75.7481C49.4024 76.4687 48.4254 76.874 47.4062 76.875H11.5312C10.5121 76.874 9.53505 76.4687 8.81443 75.7481C8.09381 75.0274 7.68852 74.0504 7.6875 73.0312V66.625H51.25V73.0312ZM51.25 64.0625H7.6875V56.375H51.25V64.0625ZM56.375 53.8125H2.5625V26.9062H56.375V53.8125Z" fill="white"></path><path d="M52.5312 21.7812C53.2389 21.7812 53.8125 21.2076 53.8125 20.5C53.8125 19.7924 53.2389 19.2188 52.5312 19.2188C51.8236 19.2188 51.25 19.7924 51.25 20.5C51.25 21.2076 51.8236 21.7812 52.5312 21.7812Z" fill="white"></path><path d="M47.4062 21.7812C48.1139 21.7812 48.6875 21.2076 48.6875 20.5C48.6875 19.7924 48.1139 19.2188 47.4062 19.2188C46.6986 19.2188 46.125 19.7924 46.125 20.5C46.125 21.2076 46.6986 21.7812 47.4062 21.7812Z" fill="white"></path><path d="M42.2812 21.7812C42.9889 21.7812 43.5625 21.2076 43.5625 20.5C43.5625 19.7924 42.9889 19.2188 42.2812 19.2188C41.5736 19.2188 41 19.7924 41 20.5C41 21.2076 41.5736 21.7812 42.2812 21.7812Z" fill="white"></path><path d="M29.4688 75.5938C30.229 75.5938 30.9721 75.3683 31.6042 74.946C32.2363 74.5236 32.729 73.9233 33.0199 73.2209C33.3108 72.5186 33.387 71.7457 33.2386 71.0001C33.0903 70.2545 32.7242 69.5696 32.1867 69.0321C31.6491 68.4945 30.9642 68.1284 30.2186 67.9801C29.473 67.8318 28.7002 67.9079 27.9978 68.1988C27.2955 68.4898 26.6951 68.9824 26.2728 69.6145C25.8504 70.2466 25.625 70.9898 25.625 71.75C25.626 72.7691 26.0313 73.7462 26.7519 74.4668C27.4726 75.1874 28.4496 75.5927 29.4688 75.5938ZM29.4688 70.4688C29.7222 70.4688 29.9699 70.5439 30.1806 70.6847C30.3913 70.8255 30.5555 71.0256 30.6525 71.2597C30.7494 71.4938 30.7748 71.7514 30.7254 72C30.6759 72.2485 30.5539 72.4768 30.3747 72.656C30.1955 72.8352 29.9672 72.9572 29.7187 73.0066C29.4702 73.0561 29.2126 73.0307 28.9784 72.9337C28.7443 72.8367 28.5442 72.6725 28.4034 72.4618C28.2626 72.2511 28.1875 72.0034 28.1875 71.75C28.1875 71.4102 28.3225 71.0843 28.5628 70.844C28.803 70.6037 29.1289 70.4688 29.4688 70.4688ZM39.7188 73.0312H44.8438C45.1836 73.0312 45.5094 72.8963 45.7497 72.656C45.99 72.4157 46.125 72.0898 46.125 71.75C46.125 71.4102 45.99 71.0843 45.7497 70.844C45.5094 70.6037 45.1836 70.4688 44.8438 70.4688H39.7188C39.3789 70.4688 39.053 70.6037 38.8128 70.844C38.5725 71.0843 38.4375 71.4102 38.4375 71.75C38.4375 72.0898 38.5725 72.4157 38.8128 72.656C39.053 72.8963 39.3789 73.0312 39.7188 73.0312ZM14.0938 73.0312H19.2188C19.5586 73.0312 19.8845 72.8963 20.1247 72.656C20.365 72.4157 20.5 72.0898 20.5 71.75C20.5 71.4102 20.365 71.0843 20.1247 70.844C19.8845 70.6037 19.5586 70.4688 19.2188 70.4688H14.0938C13.7539 70.4688 13.428 70.6037 13.1878 70.844C12.9475 71.0843 12.8125 71.4102 12.8125 71.75C12.8125 72.0898 12.9475 72.4157 13.1878 72.656C13.428 72.8963 13.7539 73.0312 14.0938 73.0312ZM34.5938 5.125H24.3438C24.0039 5.125 23.678 5.25999 23.4378 5.50027C23.1975 5.74055 23.0625 6.06644 23.0625 6.40625C23.0625 6.74606 23.1975 7.07195 23.4378 7.31223C23.678 7.55251 24.0039 7.6875 24.3438 7.6875H34.5938C34.9336 7.6875 35.2595 7.55251 35.4997 7.31223C35.74 7.07195 35.875 6.74606 35.875 6.40625C35.875 6.06644 35.74 5.74055 35.4997 5.50027C35.2595 5.25999 34.9336 5.125 34.5938 5.125Z" fill="white"></path><path d="M39.7188 7.6875C40.4264 7.6875 41 7.11386 41 6.40625C41 5.69864 40.4264 5.125 39.7188 5.125C39.0111 5.125 38.4375 5.69864 38.4375 6.40625C38.4375 7.11386 39.0111 7.6875 39.7188 7.6875Z" fill="white"></path><path d="M18.9533 47.0307C19.1949 47.2641 19.5185 47.3932 19.8545 47.3903C20.1904 47.3874 20.5118 47.2526 20.7493 47.0151C20.9869 46.7775 21.1216 46.4562 21.1246 46.1202C21.1275 45.7843 20.9983 45.4606 20.7649 45.219L15.2645 39.7186L20.7649 34.2182C20.9983 33.9765 21.1275 33.6529 21.1246 33.3169C21.1216 32.981 20.9869 32.6596 20.7493 32.4221C20.5118 32.1845 20.1904 32.0498 19.8545 32.0469C19.5185 32.0439 19.1949 32.1731 18.9533 32.4065L12.547 38.8127C12.3068 39.053 12.1719 39.3788 12.1719 39.7186C12.1719 40.0583 12.3068 40.3841 12.547 40.6244L18.9533 47.0307ZM38.172 47.0307C38.4123 47.2709 38.7381 47.4058 39.0778 47.4058C39.4176 47.4058 39.7434 47.2709 39.9837 47.0307L46.3899 40.6244C46.6301 40.3841 46.7651 40.0583 46.7651 39.7186C46.7651 39.3788 46.6301 39.053 46.3899 38.8127L39.9837 32.4065C39.742 32.1731 39.4184 32.0439 39.0825 32.0469C38.7465 32.0498 38.4252 32.1845 38.1876 32.4221C37.9501 32.6596 37.8153 32.981 37.8124 33.3169C37.8095 33.6529 37.9386 33.9765 38.172 34.2182L43.6724 39.7186L38.172 45.219C37.9318 45.4592 37.7969 45.7851 37.7969 46.1248C37.7969 46.4646 37.9318 46.7904 38.172 47.0307ZM25.1199 49.8661C25.2746 49.9323 25.4409 49.9674 25.6091 49.9694C25.7774 49.9714 25.9444 49.9402 26.1007 49.8776C26.2569 49.815 26.3992 49.7223 26.5196 49.6047C26.64 49.487 26.736 49.3469 26.8022 49.1921L34.4897 31.2546C34.6179 30.9434 34.6185 30.5941 34.4913 30.2825C34.3641 29.9708 34.1193 29.7217 33.8099 29.589C33.5005 29.4564 33.1513 29.4508 32.8378 29.5736C32.5244 29.6963 32.2718 29.9375 32.1348 30.245L24.4473 48.1825C24.3134 48.4948 24.3091 48.8475 24.4352 49.1629C24.5614 49.4784 24.8077 49.7322 25.1199 49.8661Z" fill="white"></path></svg>