<svg xmlns="http://www.w3.org/2000/svg" width="92" height="92" viewBox="0 0 92 92" fill="none"><path d="M77.3386 66.0086C80.9895 64.1377 83.4954 60.338 83.4954 55.9615C83.4954 52.0767 81.5221 48.6443 78.5252 46.6136L83.5177 35.0319C83.9595 35.1205 84.4163 35.1677 84.8838 35.1677C88.7087 35.1677 91.8205 32.0559 91.8205 28.2311C91.8205 24.4062 88.7088 21.2944 84.8838 21.2944C82.7836 21.2944 80.9 22.2338 79.6269 23.7132L52.642 8.93514C52.8375 8.287 52.9368 7.61365 52.9367 6.93666C52.9367 3.11183 49.825 0 46.0002 0C42.1754 0 39.0635 3.11165 39.0635 6.93666C39.0635 7.63133 39.1674 8.30192 39.3582 8.93514L12.3733 23.7132C11.1002 22.234 9.21653 21.2944 7.11634 21.2944C3.29152 21.2944 0.179688 24.4061 0.179688 28.2311C0.179688 32.0561 3.29152 35.1677 7.11634 35.1677C7.58389 35.1677 8.04066 35.1205 8.48269 35.0319L13.4751 46.6135C10.4783 48.6443 8.50479 52.0767 8.50479 55.9615C8.50479 60.338 11.0109 64.1377 14.6616 66.0086C6.81968 68.1503 0.820094 75.0718 0.187414 83.5053C0.131172 84.2564 0.391359 85.0023 0.901133 85.5517C1.41091 86.1012 2.13523 86.4162 2.8883 86.4162H24.1579C24.0356 87.1199 23.9476 87.8291 23.8941 88.5414C23.8646 88.9372 23.9168 89.3351 24.0475 89.7099C24.1782 90.0847 24.3847 90.4287 24.654 90.7203C24.9247 91.0106 25.2522 91.2421 25.6162 91.4005C25.9802 91.5588 26.3729 91.6405 26.7698 91.6406H65.2302C66.0323 91.6406 66.8035 91.3052 67.3463 90.7201C67.6156 90.4284 67.822 90.0845 67.9526 89.7097C68.0833 89.3349 68.1355 88.9372 68.1059 88.5414C68.052 87.8228 67.9636 87.1138 67.8421 86.4162H89.1117C89.4846 86.4161 89.8534 86.3393 90.1954 86.1905C90.5373 86.0418 90.8449 85.8243 91.0992 85.5516C91.3522 85.2776 91.546 84.9546 91.6688 84.6025C91.7915 84.2505 91.8405 83.8769 91.8128 83.5051C91.1799 75.0718 85.1805 68.1503 77.3386 66.0086ZM80.6204 55.9615C80.6204 60.5985 76.8478 64.3711 72.2108 64.3711C67.5738 64.3711 63.8015 60.5985 63.8015 55.9615C63.8015 51.3245 67.574 47.5521 72.2108 47.5521C76.8478 47.552 80.6204 51.3245 80.6204 55.9615ZM84.8838 24.1694C87.1235 24.1694 88.9455 25.9914 88.9455 28.2311C88.9455 30.4707 87.1235 32.2927 84.8838 32.2927C82.6442 32.2927 80.8222 30.4707 80.8222 28.2311C80.8222 25.9914 82.6442 24.1694 84.8838 24.1694ZM46.0002 2.875C48.2398 2.875 50.0618 4.69703 50.0618 6.93666C50.0618 9.17628 48.2398 10.9983 46.0002 10.9983C43.7606 10.9983 41.9385 9.17628 41.9385 6.93666C41.9385 4.69703 43.7606 2.875 46.0002 2.875ZM3.05469 28.2311C3.05469 25.9914 4.87672 24.1694 7.11634 24.1694C9.35597 24.1694 11.178 25.9914 11.178 28.2311C11.178 30.4707 9.35597 32.2927 7.11634 32.2927C4.87672 32.2927 3.05469 30.4705 3.05469 28.2311ZM11.121 33.8894C12.8933 32.6314 14.053 30.5647 14.053 28.2309C14.053 27.5362 13.9491 26.8656 13.7583 26.2324L40.7432 11.4544C42.0163 12.9335 43.9 13.8731 46.0002 13.8731C48.1004 13.8731 49.984 12.9337 51.2571 11.4545L78.242 26.2326C78.0465 26.8807 77.9472 27.5541 77.9474 28.2311C77.9474 30.5648 79.1071 32.6316 80.8793 33.8896L75.9532 45.3175C74.7512 44.8932 73.4857 44.6767 72.211 44.6771C65.9888 44.6771 60.9266 49.7393 60.9266 55.9615C60.9266 60.3362 63.4306 64.1346 67.079 66.0062C63.5991 66.9508 60.4237 68.8489 57.902 71.5349C55.8823 70.2398 53.6453 69.2631 51.2656 68.6751C55.614 66.6741 58.6419 62.2788 58.6419 57.1868C58.6419 50.2162 52.9708 44.5451 46.0002 44.5451C39.0296 44.5451 33.3584 50.2162 33.3584 57.1868C33.3584 62.2788 36.3864 66.6743 40.7348 68.6751C38.3552 69.2631 36.1181 70.2398 34.0986 71.5349C31.5767 68.8489 28.4012 66.9508 24.9216 66.0062C28.57 64.1344 31.0741 60.336 31.0741 55.9613C31.0741 49.7391 26.0119 44.677 19.7895 44.677C18.5149 44.6766 17.2495 44.8931 16.0475 45.3174L11.121 33.8894ZM46 66.9534C40.6146 66.9534 36.2333 62.572 36.2333 57.1868C36.2333 51.8014 40.6146 47.4201 46 47.4201C51.3854 47.4201 55.7667 51.8014 55.7667 57.1868C55.7667 62.572 51.3852 66.9534 46 66.9534ZM11.3796 55.9615C11.3796 51.3245 15.1521 47.5521 19.7892 47.5521C24.4262 47.5521 28.1987 51.3247 28.1987 55.9615C28.1987 60.5985 24.4262 64.3711 19.7892 64.3711C15.1521 64.3711 11.3796 60.5985 11.3796 55.9615ZM3.0687 83.5412C3.80794 74.9218 11.1178 68.1968 19.7892 68.1968C24.3182 68.1968 28.607 70.0237 31.7648 73.2536C28.5838 75.9291 26.1519 79.4805 24.8623 83.5412H3.0687ZM26.7612 88.7647C26.7612 88.7647 26.7607 88.7622 26.7612 88.7563C27.512 78.7491 35.9627 70.9103 46 70.9103C56.0373 70.9103 64.488 78.7491 65.2302 88.7656L26.7612 88.7647ZM67.1375 83.5412C65.8479 79.4805 63.416 75.9291 60.235 73.2536C63.3929 70.0237 67.6816 68.1968 72.2108 68.1968C80.8817 68.1968 88.1912 74.9225 88.9313 83.5412H67.1375ZM39.5895 31.089H41.3211V40.9348C41.3211 42.1653 42.3222 43.1663 43.5527 43.1663H48.4472C49.6777 43.1663 50.6789 42.1653 50.6789 40.9348V31.089H52.4096C53.2933 31.089 54.0849 30.5952 54.4755 29.8003C54.8636 29.0104 54.7687 28.085 54.2281 27.3855L47.8184 19.0909C47.6046 18.8121 47.3292 18.5864 47.0138 18.4315C46.6985 18.2765 46.3516 18.1964 46.0002 18.1975H46C45.6486 18.1964 45.3016 18.2765 44.9862 18.4314C44.6707 18.5864 44.3953 18.8121 44.1814 19.0909L37.7719 27.3855C37.2312 28.0852 37.1364 29.0104 37.5245 29.8003C37.915 30.5954 38.7065 31.089 39.5895 31.089ZM46 21.4392L51.2352 28.214H49.2416C48.8603 28.214 48.4947 28.3654 48.2251 28.635C47.9555 28.9046 47.8041 29.2702 47.8041 29.6515V40.2913H44.1961V29.6515C44.1961 29.2702 44.0447 28.9046 43.7751 28.635C43.5055 28.3654 43.1399 28.214 42.7586 28.214H40.7648L46 21.4392ZM20.4461 40.956C20.4461 42.0789 21.3596 42.9924 22.4825 42.9924H26.1745C27.2974 42.9924 28.2109 42.0789 28.2109 40.956V33.8824H29.1633C29.9656 33.8824 30.6842 33.4345 31.0387 32.713C31.3914 31.9953 31.3055 31.1548 30.8144 30.5196L25.9798 24.2634C25.7856 24.0102 25.5356 23.8052 25.2492 23.6645C24.9629 23.5237 24.6479 23.451 24.3288 23.4519H24.3282C24.0092 23.4509 23.6941 23.5235 23.4078 23.6642C23.1214 23.8049 22.8713 24.0098 22.6771 24.263L17.8424 30.5196C17.3515 31.1548 17.2655 31.9952 17.618 32.713C17.9725 33.4346 18.6909 33.8826 19.4925 33.8826H20.4459L20.4461 40.956ZM24.3286 26.8279L27.5585 31.0074H26.7738C26.3925 31.0074 26.0269 31.1589 25.7573 31.4284C25.4877 31.698 25.3363 32.0637 25.3363 32.4449V40.1176H23.3213V32.4451C23.3213 32.0638 23.1698 31.6982 22.9002 31.4286C22.6307 31.159 22.265 31.0076 21.8838 31.0076H21.0991L24.3286 26.8279ZM62.8358 33.8824H63.7889V40.956C63.7889 42.0789 64.7024 42.9924 65.8255 42.9924H69.5175C70.6405 42.9924 71.5541 42.0789 71.5541 40.956V33.8824H72.5064C73.3087 33.8824 74.0271 33.4345 74.3818 32.713C74.7345 31.9953 74.6487 31.1549 74.1578 30.5194L69.3231 24.2632C69.1289 24.01 68.8789 23.805 68.5925 23.6643C68.3062 23.5235 67.9912 23.4508 67.6721 23.4517H67.6716C67.3525 23.4507 67.0375 23.5234 66.7511 23.6641C66.4647 23.8047 66.2146 24.0097 66.0204 24.2628L61.1857 30.5194C60.6948 31.1546 60.6088 31.995 60.9613 32.7128C61.3157 33.4345 62.0342 33.8824 62.8358 33.8824ZM67.6716 26.8279L70.9015 31.0074H70.1166C69.7353 31.0074 69.3697 31.1589 69.1001 31.4284C68.8305 31.698 68.6791 32.0637 68.6791 32.4449V40.1176H66.6639V32.4451C66.6639 32.0638 66.5124 31.6982 66.2428 31.4286C65.9733 31.159 65.6076 31.0076 65.2264 31.0076H64.4417L67.6716 26.8279Z" fill="white"></path></svg>