<svg xmlns="http://www.w3.org/2000/svg" width="80" height="81" viewBox="0 0 80 81" fill="none"><path d="M74.6678 69.3881C73.4887 69.3919 72.344 69.7869 71.413 70.5113C70.482 71.2356 69.8171 72.2484 69.5223 73.3913H65.3365C64.983 73.3913 64.6439 73.2507 64.3939 73.0005C64.1439 72.7502 64.0035 72.4108 64.0035 72.0569V62.7161H66.8562C67.1806 63.974 67.9522 65.0702 69.0264 65.7994C70.1005 66.5285 71.4034 66.8405 72.6909 66.6768C73.9784 66.5131 75.162 65.8849 76.02 64.9102C76.8779 63.9354 77.3512 62.6808 77.3512 61.3817C77.3512 60.0826 76.8779 58.828 76.02 57.8532C75.162 56.8784 73.9784 56.2503 72.6909 56.0866C71.4034 55.9229 70.1005 56.2349 69.0264 56.964C67.9522 57.6931 67.1806 58.7894 66.8562 60.0473H64.0035V40.0313H68.0026C71.1845 40.0313 74.2361 38.766 76.486 36.5137C78.736 34.2615 80 31.2068 80 28.0216C80 24.8365 78.736 21.7818 76.486 19.5295C74.2361 17.2773 71.1845 16.012 68.0026 16.012H65.2565C65.0286 13.929 64.2589 11.9422 63.0241 10.2501C61.7893 8.55794 60.1327 7.21966 58.2196 6.36884C56.3066 5.51803 54.204 5.18445 52.1219 5.40141C50.0398 5.61838 48.0509 6.37829 46.3539 7.60528C43.9914 4.60915 40.8213 2.35269 37.2184 1.10258C33.6155 -0.147534 29.7304 -0.339036 26.0223 0.550702C22.3141 1.44044 18.9379 3.37423 16.2927 6.12352C13.6475 8.8728 11.8439 12.3227 11.0949 16.0654C8.00258 16.3013 5.1219 17.7276 3.05798 20.0447C0.994052 22.3619 -0.0924991 25.3895 0.0265608 28.4917C0.145621 31.5938 1.46103 34.5291 3.69647 36.6809C5.93191 38.8327 8.91342 40.0336 12.0147 40.0313H16.0138V57.3785H13.1611C12.8367 56.1206 12.0651 55.0243 10.9909 54.2952C9.91678 53.5661 8.61386 53.2541 7.32639 53.4178C6.03892 53.5815 4.85528 54.2096 3.99735 55.1844C3.13942 56.1592 2.66609 57.4137 2.66609 58.7129C2.66609 60.012 3.13942 61.2666 3.99735 62.2414C4.85528 63.2161 6.03892 63.8443 7.32639 64.0079C8.61386 64.1716 9.91678 63.8597 10.9909 63.1306C12.0651 62.4014 12.8367 61.3052 13.1611 60.0473H16.0138V72.0569C16.0138 72.4108 15.8734 72.7502 15.6234 73.0005C15.3734 73.2507 15.0343 73.3913 14.6808 73.3913H10.495C10.1706 72.1334 9.39897 71.0372 8.32483 70.308C7.25069 69.5789 5.94777 69.2669 4.6603 69.4306C3.37283 69.5943 2.18919 70.2225 1.33126 71.1972C0.473328 72.172 0 73.4266 0 74.7257C0 76.0248 0.473328 77.2794 1.33126 78.2542C2.18919 79.229 3.37283 79.8571 4.6603 80.0208C5.94777 80.1845 7.25069 79.8725 8.32483 79.1434C9.39897 78.4142 10.1706 77.318 10.495 76.0601H14.6808C15.7405 76.0569 16.7558 75.6342 17.5051 74.8841C18.2544 74.134 18.6768 73.1176 18.6799 72.0569V60.0473H29.3443C30.404 60.0441 31.4193 59.6213 32.1686 58.8713C32.9179 58.1212 33.3403 57.1048 33.3434 56.0441V40.0313H38.6756V69.5749C37.419 69.8997 36.3239 70.6721 35.5955 71.7473C34.8671 72.8226 34.5554 74.1268 34.719 75.4156C34.8825 76.7044 35.51 77.8892 36.4838 78.748C37.4576 79.6068 38.7108 80.0807 40.0087 80.0807C41.3065 80.0807 42.5597 79.6068 43.5335 78.748C44.5073 77.8892 45.1348 76.7044 45.2983 75.4156C45.4619 74.1268 45.1502 72.8226 44.4218 71.7473C43.6934 70.6721 42.5983 69.8997 41.3417 69.5749V40.0313H46.6739V58.7129C46.677 59.7736 47.0994 60.79 47.8487 61.5401C48.598 62.2901 49.6134 62.7129 50.673 62.7161H61.3374V72.0569C61.3405 73.1176 61.7629 74.134 62.5122 74.8841C63.2615 75.6342 64.2768 76.0569 65.3365 76.0601H69.5223C69.7731 77.0247 70.289 77.8995 71.0115 78.5852C71.734 79.271 72.6342 79.7402 73.6097 79.9396C74.5852 80.139 75.5971 80.0605 76.5303 79.7132C77.4635 79.3658 78.2808 78.7635 78.8892 77.9745C79.4977 77.1856 79.8729 76.2417 79.9724 75.25C80.0718 74.2583 79.8915 73.2586 79.4518 72.3644C79.0122 71.4701 78.3308 70.7172 77.4852 70.1911C76.6395 69.665 75.6635 69.3868 74.6678 69.3881ZM72.0017 58.7129C72.529 58.7129 73.0445 58.8694 73.4829 59.1627C73.9214 59.4559 74.2631 59.8727 74.4649 60.3604C74.6667 60.848 74.7195 61.3847 74.6166 61.9023C74.5137 62.42 74.2598 62.8956 73.8869 63.2688C73.5141 63.6421 73.039 63.8962 72.5219 63.9992C72.0047 64.1022 71.4686 64.0493 70.9815 63.8473C70.4943 63.6453 70.0779 63.3033 69.785 62.8644C69.492 62.4255 69.3356 61.9095 69.3356 61.3817C69.3378 60.6745 69.6193 59.9969 70.1189 59.4969C70.6184 58.9969 71.2953 58.715 72.0017 58.7129ZM8.01558 61.3817C7.48827 61.3817 6.97281 61.2252 6.53438 60.9319C6.09594 60.6387 5.75422 60.2218 5.55243 59.7342C5.35064 59.2465 5.29784 58.7099 5.40071 58.1922C5.50359 57.6745 5.75751 57.199 6.13037 56.8258C6.50323 56.4525 6.97828 56.1983 7.49545 56.0954C8.01262 55.9924 8.54868 56.0452 9.03584 56.2472C9.52301 56.4492 9.93939 56.7913 10.2323 57.2302C10.5253 57.6691 10.6817 58.185 10.6817 58.7129C10.6796 59.42 10.398 60.0976 9.89846 60.5977C9.39892 61.0977 8.72202 61.3796 8.01558 61.3817ZM5.34949 77.3945C4.82218 77.3945 4.30672 77.238 3.86829 76.9447C3.42985 76.6515 3.08813 76.2347 2.88634 75.747C2.68455 75.2594 2.63175 74.7227 2.73463 74.205C2.8375 73.6874 3.09142 73.2118 3.46428 72.8386C3.83714 72.4653 4.31219 72.2112 4.82936 72.1082C5.34653 72.0052 5.88259 72.0581 6.36976 72.2601C6.85692 72.4621 7.27331 72.8041 7.56626 73.243C7.85921 73.6819 8.01558 74.1979 8.01558 74.7257C8.01347 75.4329 7.7319 76.1105 7.23237 76.6105C6.73283 77.1105 6.05593 77.3924 5.34949 77.3945ZM30.6773 56.0441C30.6773 56.398 30.5369 56.7374 30.2869 56.9876C30.0369 57.2379 29.6978 57.3785 29.3443 57.3785H18.6799V40.0313H30.6773V56.0441ZM42.6747 74.7257C42.6747 75.2535 42.5184 75.7695 42.2254 76.2084C41.9325 76.6473 41.5161 76.9894 41.0289 77.1914C40.5418 77.3934 40.0057 77.4462 39.4885 77.3432C38.9714 77.2403 38.4963 76.9861 38.1234 76.6128C37.7506 76.2396 37.4967 75.7641 37.3938 75.2464C37.2909 74.7287 37.3437 74.1921 37.5455 73.7044C37.7473 73.2167 38.089 72.7999 38.5275 72.5067C38.9659 72.2134 39.4813 72.0569 40.0087 72.0569C40.7151 72.059 41.392 72.3409 41.8915 72.8409C42.3911 73.341 42.6726 74.0185 42.6747 74.7257ZM61.3374 60.0473H50.673C50.3195 60.0473 49.9804 59.9067 49.7304 59.6564C49.4804 59.4062 49.34 59.0668 49.34 58.7129V40.0313H61.3374V60.0473ZM12.0147 37.3624C9.53989 37.3624 7.16644 36.3783 5.41648 34.6266C3.66651 32.8748 2.6834 30.499 2.6834 28.0216C2.6834 25.5443 3.66651 23.1684 5.41648 21.4167C7.16644 19.6649 9.53989 18.6808 12.0147 18.6808H12.1747C13.8125 18.7125 15.4132 19.1742 16.8169 20.0195C18.2205 20.8649 19.3778 22.0644 20.1729 23.498L22.5191 22.2036C21.6193 20.596 20.3653 19.2149 18.8523 18.1651C17.3394 17.1154 15.6073 16.4247 13.7877 16.1455C14.7132 12.0926 17.0619 8.5073 20.4063 6.04228C23.7506 3.57726 27.8681 2.39649 32.009 2.71498C36.15 3.03346 40.0389 4.83001 42.9678 7.77752C45.8967 10.725 47.6708 14.6274 47.9669 18.7742L50.6197 18.5874C50.3983 15.4849 49.4532 12.4776 47.8603 9.80704C49.5771 8.56314 51.6658 7.94131 53.7826 8.04386C55.8995 8.1464 57.9184 8.96722 59.5072 10.3713C61.0959 11.7753 62.1599 13.6789 62.5241 15.7688C62.8882 17.8587 62.5308 20.0105 61.5107 21.87L63.8302 23.1644C64.5961 21.7786 65.0809 20.2548 65.2565 18.6808H68.0026C70.4774 18.6808 72.8509 19.6649 74.6008 21.4167C76.3508 23.1684 77.3339 25.5443 77.3339 28.0216C77.3339 30.499 76.3508 32.8748 74.6008 34.6266C72.8509 36.3783 70.4774 37.3624 68.0026 37.3624H12.0147ZM74.6678 77.3945C74.1405 77.3945 73.6251 77.238 73.1866 76.9447C72.7482 76.6515 72.4065 76.2347 72.2047 75.747C72.0029 75.2594 71.9501 74.7227 72.053 74.205C72.1558 73.6874 72.4098 73.2118 72.7826 72.8386C73.1555 72.4653 73.6305 72.2112 74.1477 72.1082C74.6649 72.0052 75.2009 72.0581 75.6881 72.2601C76.1753 72.4621 76.5916 72.8041 76.8846 73.243C77.1776 73.6819 77.3339 74.1979 77.3339 74.7257C77.3318 75.4329 77.0502 76.1105 76.5507 76.6105C76.0512 77.1105 75.3743 77.3924 74.6678 77.3945Z" fill="white"></path><path d="M8.0157 28.0216C8.0157 26.9599 8.43703 25.9417 9.18702 25.1909C9.937 24.4402 10.9542 24.0184 12.0148 24.0184V21.3496C10.2471 21.3496 8.55178 22.0526 7.30181 23.3038C6.05184 24.5551 5.34961 26.2521 5.34961 28.0216C5.34961 29.7912 6.05184 31.4882 7.30181 32.7395C8.55178 33.9907 10.2471 34.6937 12.0148 34.6937H20.0131V32.0249H12.0148C10.9542 32.0249 9.937 31.6031 9.18702 30.8523C8.43703 30.1016 8.0157 29.0834 8.0157 28.0216ZM31.9972 22.5373C31.9643 22.2104 31.8109 21.9075 31.5668 21.6879C31.3228 21.4683 31.0056 21.3477 30.6775 21.3496H25.3453C25.0171 21.3477 24.7 21.4683 24.4559 21.6879C24.2119 21.9075 24.0584 22.2104 24.0256 22.5373L22.6925 34.5469L25.3319 34.8404L25.7985 30.6904H30.2242L30.6908 34.8404L33.3302 34.5469L31.9972 22.5373ZM26.0918 28.0216L26.545 24.0184H29.4777L29.931 28.0216H26.0918ZM45.341 21.3496H37.3427C36.9891 21.3496 36.6501 21.4902 36.4001 21.7405C36.1501 21.9907 36.0096 22.3301 36.0096 22.684V34.6937H38.6757V29.356H45.341C45.6945 29.356 46.0336 29.2155 46.2836 28.9652C46.5336 28.715 46.674 28.3756 46.674 28.0216V22.684C46.674 22.3301 46.5336 21.9907 46.2836 21.7405C46.0336 21.4902 45.6945 21.3496 45.341 21.3496ZM44.0079 26.6872H38.6757V24.0184H44.0079V26.6872ZM54.6723 24.0184V32.0249H57.3384V34.6937H49.3401V32.0249H52.0062V24.0184H49.3401V21.3496H57.3384V24.0184H54.6723Z" fill="white"></path></svg>