<svg xmlns="http://www.w3.org/2000/svg" width="80" height="73" viewBox="0 0 80 73" fill="none"><path d="M74.5842 0H5.41509C3.97935 0.00137371 2.60284 0.52709 1.58763 1.46178C0.572425 2.39648 0.00144814 3.66379 0 4.98563V59.6181C0.00153589 60.9399 0.572551 62.2072 1.58775 63.1418C2.60295 64.0764 3.97941 64.6021 5.41509 64.6035H60.6129L67.4783 70.9251C67.8742 71.2909 68.345 71.5807 68.8635 71.7777C69.3819 71.9748 69.9376 72.0753 70.4985 72.0733C71.0593 72.0752 71.6151 71.9748 72.1335 71.7777C72.6519 71.5806 73.1227 71.2908 73.5187 70.9251L74.3402 70.1686C75.14 69.4306 75.5892 68.4307 75.5892 67.3882C75.5892 66.3457 75.14 65.3457 74.3402 64.6077L74.3363 64.6039H74.5849C76.0206 64.6026 77.397 64.0769 78.4123 63.1423C79.4275 62.2076 79.9985 60.9404 80 59.6186V4.98563C79.9986 3.66369 79.4275 2.39628 78.4121 1.46157C77.3968 0.526857 76.0201 0.00121212 74.5842 0ZM5.41509 1.68675H74.5842C75.5342 1.68772 76.445 2.0356 77.1167 2.65405C77.7884 3.27251 78.1662 4.11102 78.1672 4.98563V12.736H1.83211V4.98563C1.83312 4.11102 2.21093 3.27251 2.88264 2.65405C3.55436 2.0356 4.46512 1.68772 5.41509 1.68675ZM56.9515 51.0322C57.1201 51.1878 57.2148 51.3986 57.2148 51.6184C57.2148 51.8382 57.1201 52.0491 56.9515 52.2046L54.0074 54.9153C53.8384 55.0706 53.6094 55.1577 53.3707 55.1577C53.132 55.1577 52.903 55.0706 52.7341 54.9153L49.7578 52.1753L49.1302 52.5712C44.9787 55.1836 39.9174 56.275 34.9377 55.6318C29.9579 54.9886 25.4182 52.6571 22.2078 49.0939C18.9973 45.5307 17.3472 40.9924 17.5806 36.3678C17.814 31.7432 19.9142 27.3654 23.4698 24.0916C27.0254 20.8179 31.7804 18.8841 36.8035 18.6689C41.8266 18.4537 46.756 19.9726 50.6265 22.9281C54.497 25.8837 57.0297 30.063 57.7286 34.6477C58.4276 39.2323 57.2424 43.8921 54.4052 47.7144L53.9752 48.2922L56.9515 51.0322ZM57.5414 54.0468L62.9075 58.9871L61.3739 60.3988L56.0079 55.4587L57.5414 54.0468ZM73.0447 68.9756L72.2232 69.732C71.7645 70.1509 71.1446 70.386 70.4985 70.386C69.8524 70.386 69.2325 70.1509 68.7738 69.732L61.4467 62.9862C61.4088 62.9503 61.3876 62.9023 61.3876 62.8522C61.3876 62.8022 61.4088 62.7542 61.4467 62.7183L65.4265 59.0544C65.4655 59.0195 65.5177 59.0001 65.5721 59.0001C65.6264 59.0001 65.6786 59.0195 65.7176 59.0544L73.0447 65.8002C73.5014 66.2216 73.7579 66.7926 73.7579 67.3879C73.7579 67.9832 73.5014 68.5541 73.0447 68.9756ZM74.5842 62.9166H72.504L67.0126 57.8609C66.6429 57.521 66.1455 57.3249 65.6232 57.3131C65.1009 57.3013 64.5936 57.4747 64.2063 57.7975L58.7439 52.7686C59.008 52.2946 59.1021 51.7558 59.0128 51.2296C58.9234 50.7033 58.6552 50.2166 58.2466 49.8395L56.3369 48.0812C59.239 43.8655 60.3502 38.8124 59.4576 33.8895C58.565 28.9666 55.7315 24.5197 51.4995 21.4004C47.2675 18.2811 41.9345 16.7086 36.5216 16.9839C31.1087 17.2592 25.9963 19.363 22.1633 22.8925C18.3303 26.422 16.0461 31.1292 15.748 36.1127C15.4498 41.0962 17.1588 46.0058 20.5476 49.9015C23.9364 53.7972 28.767 56.4052 34.1143 57.2261C39.4616 58.047 44.9499 57.0232 49.5284 54.3506L51.4379 56.1084C51.8475 56.4845 52.3761 56.7314 52.9477 56.8137C53.5193 56.8959 54.1045 56.8093 54.6192 56.5662L60.0816 61.5952C59.7416 61.9389 59.5537 62.3873 59.5547 62.8522C59.5547 62.874 59.5574 62.8955 59.5582 62.9173H5.41509C4.46515 62.9164 3.55441 62.5685 2.8827 61.9501C2.21099 61.3317 1.83316 60.4932 1.83211 59.6186V14.4226H78.1672V59.6181C78.1662 60.4927 77.7883 61.3312 77.1166 61.9496C76.4449 62.568 75.5342 62.9159 74.5842 62.9169V62.9166ZM27.4473 7.64518C27.4473 7.42153 27.5439 7.20705 27.7157 7.04892C27.8874 6.89079 28.1204 6.80196 28.3633 6.80196H70.1817C70.303 6.80045 70.4234 6.82116 70.536 6.86286C70.6486 6.90457 70.751 6.96644 70.8374 7.0449C70.9238 7.12336 70.9923 7.21683 71.0391 7.31989C71.086 7.42295 71.1101 7.53355 71.1101 7.64526C71.1101 7.75696 71.086 7.86756 71.0391 7.97062C70.9923 8.07368 70.9238 8.16715 70.8374 8.24561C70.751 8.32407 70.6486 8.38595 70.536 8.42765C70.4234 8.46936 70.303 8.49006 70.1817 8.48856H28.3633C28.1204 8.48852 27.8874 8.39965 27.7156 8.24149C27.5439 8.08334 27.4473 7.86884 27.4473 7.64518ZM20.6264 7.64518C20.6263 7.47829 20.6798 7.31508 20.7803 7.17619C20.8808 7.03729 21.0238 6.92893 21.1911 6.8648C21.3585 6.80067 21.5427 6.78364 21.7206 6.81587C21.8984 6.84809 22.0619 6.92813 22.1904 7.04586C22.3189 7.1636 22.4066 7.31375 22.4424 7.47735C22.4783 7.64095 22.4607 7.81066 22.3918 7.96504C22.3229 8.11942 22.2059 8.25154 22.0555 8.34472C21.9051 8.4379 21.7281 8.48795 21.5468 8.48856H21.5423C21.2994 8.48852 21.0665 8.39964 20.8947 8.24148C20.7229 8.08332 20.6264 7.86883 20.6264 7.64518ZM14.7638 7.64518C14.7635 7.47824 14.8171 7.31499 14.9176 7.17604C15.0181 7.0371 15.1611 6.9287 15.3285 6.86453C15.4959 6.80037 15.6801 6.78333 15.8581 6.81556C16.036 6.84778 16.1995 6.92784 16.328 7.0456C16.4565 7.16337 16.5443 7.31356 16.5801 7.4772C16.6159 7.64085 16.5983 7.8106 16.5294 7.96501C16.4605 8.11943 16.3434 8.25158 16.193 8.34476C16.0425 8.43794 15.8655 8.48798 15.6841 8.48856H15.6798C15.4369 8.48852 15.2039 8.39965 15.0321 8.24149C14.8603 8.08334 14.7638 7.86884 14.7638 7.64518ZM8.90127 7.64518C8.901 7.47824 8.9545 7.31497 9.05498 7.176C9.15547 7.03704 9.29844 6.92861 9.46583 6.86443C9.63323 6.80024 9.81753 6.78318 9.99545 6.81539C10.1734 6.8476 10.3369 6.92764 10.4655 7.0454C10.594 7.16316 10.6817 7.31335 10.7176 7.477C10.7534 7.64064 10.7358 7.8104 10.6669 7.96483C10.598 8.11925 10.4809 8.25141 10.3305 8.3446C10.18 8.43779 10.003 8.48783 9.82163 8.4884H9.81732C9.57435 8.48844 9.34132 8.39963 9.16947 8.2415C8.99761 8.08337 8.90102 7.86887 8.90094 7.64518H8.90127ZM50.4787 25.5017C47.5317 22.7885 43.654 21.1 39.5064 20.7239C35.3587 20.3478 31.1977 21.3074 27.7324 23.4392C24.2671 25.5709 21.7118 28.743 20.502 32.4148C19.2922 36.0867 19.5027 40.0311 21.0976 43.5761C22.6925 47.1211 25.5732 50.0473 29.2488 51.8561C32.9244 53.6648 37.1675 54.2443 41.2551 53.4957C45.3427 52.7472 49.022 50.7169 51.666 47.7508C54.31 44.7847 55.7551 41.0664 55.7551 37.2293C55.7531 32.8308 53.8554 28.6127 50.4787 25.5011V25.5017ZM49.1834 47.7636C46.5361 50.2009 43.0527 51.7177 39.3267 52.0556C35.6008 52.3935 31.8629 51.5315 28.75 49.6165C25.637 47.7015 23.3415 44.852 22.2547 41.5535C21.1679 38.255 21.357 34.7116 22.7898 31.5271C24.2225 28.3426 26.8103 25.7139 30.1121 24.0891C33.414 22.4642 37.2257 21.9437 40.8977 22.6161C44.5697 23.2886 47.8748 25.1125 50.2499 27.777C52.625 30.4415 53.9232 33.7818 53.9231 37.2287C53.9211 41.1796 52.2165 44.9685 49.1834 47.7636ZM32.3833 33.7766L27.6497 37.2287L32.3826 40.6808C32.5731 40.8197 32.6958 41.0225 32.7238 41.2447C32.7517 41.4669 32.6827 41.6903 32.5318 41.8656C32.381 42.0409 32.1606 42.1539 31.9193 42.1796C31.6779 42.2054 31.4354 42.1418 31.2449 42.0029L25.6057 37.8897C25.4975 37.8107 25.4101 37.7102 25.3499 37.5957C25.2898 37.4813 25.2586 37.3558 25.2586 37.2286C25.2586 37.1015 25.2898 36.9759 25.3499 36.8615C25.4101 36.747 25.4975 36.6465 25.6057 36.5675L31.2451 32.4544C31.4358 32.3182 31.6772 32.2567 31.9168 32.2834C32.1564 32.3102 32.3749 32.4229 32.5248 32.597C32.6747 32.7712 32.7438 32.9929 32.7172 33.2137C32.6906 33.4346 32.5703 33.6369 32.3826 33.7766H32.3833ZM50.1159 37.2287C50.1158 37.3558 50.0846 37.4813 50.0244 37.5958C49.9643 37.7103 49.8768 37.8107 49.7686 37.8897L44.1294 42.0037C44.0351 42.0725 43.927 42.1235 43.8113 42.1538C43.6956 42.1841 43.5745 42.1931 43.455 42.1804C43.3355 42.1676 43.2199 42.1333 43.1148 42.0795C43.0097 42.0256 42.9172 41.9532 42.8425 41.8663C42.7678 41.7795 42.7124 41.68 42.6795 41.5735C42.6465 41.467 42.6367 41.3555 42.6506 41.2455C42.6644 41.1355 42.7017 41.0291 42.7602 40.9323C42.8187 40.8355 42.8974 40.7503 42.9917 40.6816L47.7246 37.2287L42.9917 33.7766C42.8012 33.6377 42.6785 33.4348 42.6506 33.2126C42.6226 32.9904 42.6916 32.7671 42.8425 32.5918C42.9934 32.4165 43.2137 32.3035 43.455 32.2777C43.6964 32.252 43.9389 32.3155 44.1294 32.4544L49.7686 36.5675C49.8769 36.6465 49.9643 36.747 50.0245 36.8615C50.0846 36.976 50.1159 37.1015 50.1159 37.2287ZM41.3333 30.6882L35.867 44.3522C35.8254 44.4561 35.762 44.5515 35.6804 44.6329C35.5988 44.7142 35.5005 44.78 35.3913 44.8264C35.2821 44.8729 35.164 44.899 35.0438 44.9034C34.9236 44.9078 34.8036 44.8904 34.6908 44.8521C34.5779 44.8138 34.4743 44.7555 34.3859 44.6803C34.2975 44.6052 34.2261 44.5148 34.1757 44.4142C34.1252 44.3136 34.0968 44.2049 34.092 44.0942C34.0872 43.9836 34.1062 43.8731 34.1478 43.7692L39.6141 30.1053C39.6551 30.0008 39.7182 29.9047 39.7998 29.8227C39.8813 29.7407 39.9796 29.6743 40.0891 29.6274C40.1986 29.5805 40.317 29.554 40.4377 29.5494C40.5583 29.5448 40.6788 29.5622 40.7921 29.6006C40.9054 29.639 41.0094 29.6977 41.098 29.7732C41.1866 29.8488 41.2581 29.9397 41.3084 30.0408C41.3587 30.1418 41.3868 30.2511 41.3911 30.3622C41.3953 30.4733 41.3757 30.5841 41.3333 30.6882Z" fill="white"></path></svg>