<svg xmlns="http://www.w3.org/2000/svg" width="81" height="69" viewBox="0 0 81 69" fill="none"><path d="M6.26427 53.3352H75.6246C78.5886 53.3352 81 50.9238 81 47.9598V5.37542C81 2.41135 78.5886 0 75.6246 0H6.26427C3.3002 0 0.888847 2.41135 0.888847 5.37542V47.9598C0.888847 50.9238 3.3002 53.3352 6.26427 53.3352ZM75.6246 2.08081C77.4417 2.08081 78.9192 3.55833 78.9192 5.37542V47.9598C78.9192 49.7769 77.4417 51.2544 75.6246 51.2544H6.26427C4.44717 51.2544 2.96966 49.7769 2.96966 47.9598V5.37542C2.96966 3.55833 4.44717 2.08081 6.26427 2.08081H75.6246Z" fill="white"></path><path d="M1.92925 43.4534H79.9596C80.534 43.4534 81 42.9874 81 42.413C81 41.8386 80.534 41.3726 79.9596 41.3726H1.92925C1.35486 41.3726 0.888847 41.8386 0.888847 42.413C0.888847 42.9874 1.35486 43.4534 1.92925 43.4534ZM29.7673 63.026H52.1215C52.281 63.0261 52.4384 62.9895 52.5815 62.9191C52.7245 62.8487 52.8495 62.7464 52.9468 62.62C53.044 62.4936 53.1109 62.3465 53.1422 62.1902C53.1736 62.0338 53.1686 61.8724 53.1276 61.7183L50.5429 52.0277C50.4837 51.806 50.353 51.6101 50.1711 51.4703C49.9892 51.3305 49.7662 51.2547 49.5368 51.2546H32.3503C31.8788 51.2546 31.467 51.5707 31.3442 52.0277L28.7594 61.7183C28.6763 62.0307 28.7431 62.3631 28.94 62.6196C29.0378 62.746 29.1631 62.8483 29.3065 62.9188C29.4499 62.9892 29.6075 63.0259 29.7673 63.026ZM50.7669 60.9452H31.1202L33.1486 53.3354H48.7366L50.7669 60.9452Z" fill="white"></path><path d="M26.0899 68.1245H55.7992C57.7789 68.1245 59.3901 66.5133 59.3901 64.5337V63.0038C59.3901 61.8677 58.4653 60.9428 57.3291 60.9428H24.5618C23.4257 60.9428 22.5008 61.8677 22.5008 63.0038V64.5337C22.5008 66.5152 24.1102 68.1245 26.0899 68.1245ZM57.3074 63.0255V64.5355C57.3074 65.3682 56.6301 66.0455 55.7974 66.0455H26.0899C25.2572 66.0455 24.5799 65.3682 24.5799 64.5355V63.0255H57.3074ZM72.4963 48.3948H75.025C75.5994 48.3948 76.0654 47.9288 76.0654 47.3544C76.0654 46.78 75.5994 46.314 75.025 46.314H72.4963C71.9219 46.314 71.4559 46.78 71.4559 47.3544C71.4559 47.9288 71.9219 48.3948 72.4963 48.3948ZM65.1809 48.3948H67.7097C68.2841 48.3948 68.7501 47.9288 68.7501 47.3544C68.7501 46.78 68.2841 46.314 67.7097 46.314H65.1809C64.6065 46.314 64.1405 46.78 64.1405 47.3544C64.1405 47.9288 64.6065 48.3948 65.1809 48.3948ZM57.8656 48.3948H60.3943C60.9687 48.3948 61.4347 47.9288 61.4347 47.3544C61.4347 46.78 60.9687 46.314 60.3943 46.314H57.8656C57.2912 46.314 56.8252 46.78 56.8252 47.3544C56.8252 47.9288 57.2912 48.3948 57.8656 48.3948Z" fill="white"></path></svg>