<svg width="71" height="70" viewBox="0 0 71 70" fill="none" xmlns="http://www.w3.org/2000/svg">
<path d="M62.3555 25.661H60.0105C59.9687 23.2338 58.9999 20.9146 57.3026 19.179C56.2769 18.1079 55.0059 17.3026 53.5993 16.8327C52.1927 16.3627 50.6929 16.2422 49.2293 16.4816C47.0621 16.8712 45.096 17.9977 43.6641 19.6705C42.2322 21.3433 41.4224 23.4596 41.3718 25.661H39.0221C38.7127 25.661 38.416 25.7839 38.1972 26.0027C37.9784 26.2215 37.8555 26.5182 37.8555 26.8276V47.8276C37.8555 48.1371 37.9784 48.4338 38.1972 48.6526C38.416 48.8714 38.7127 48.9943 39.0221 48.9943H62.3555C62.6649 48.9943 62.9616 48.8714 63.1804 48.6526C63.3992 48.4338 63.5221 48.1371 63.5221 47.8276V26.8276C63.5221 26.5182 63.3992 26.2215 63.1804 26.0027C62.9616 25.7839 62.6649 25.661 62.3555 25.661ZM49.5851 18.787C50.6816 18.6073 51.8054 18.6975 52.8592 19.0498C53.913 19.4021 54.8651 20.0059 55.6331 20.8088C56.9033 22.1097 57.6337 23.8434 57.6771 25.661H43.7215C43.7652 24.0174 44.3712 22.4384 45.4382 21.1875C46.5053 19.9366 47.969 19.0893 49.5851 18.787ZM40.1888 46.661V41.9943H43.6888V39.661H40.1888V34.9943H43.6888V32.661H40.1888V27.9943H61.1888V32.661H57.6888V34.9943H61.1888V39.661H57.6888V41.9943H61.1888V46.661H40.1888Z" fill="#F57A00"/>
<path d="M50.6905 32.6626C49.5561 32.6612 48.4602 33.0738 47.6085 33.8231C46.7568 34.5723 46.2078 35.6067 46.0646 36.732C45.9214 37.8573 46.1938 38.9962 46.8307 39.9348C47.4676 40.8735 48.4253 41.5475 49.5238 41.8303V44.3293H51.8572V41.8303C52.9557 41.5475 53.9133 40.8735 54.5502 39.9348C55.1871 38.9962 55.4596 37.8573 55.3164 36.732C55.1732 35.6067 54.6242 34.5723 53.7725 33.8231C52.9208 33.0738 51.8249 32.6612 50.6905 32.6626ZM50.6905 39.6626C50.229 39.6626 49.7779 39.5258 49.3942 39.2694C49.0104 39.013 48.7114 38.6486 48.5348 38.2222C48.3582 37.7958 48.312 37.3267 48.402 36.8741C48.492 36.4214 48.7142 36.0057 49.0406 35.6794C49.3669 35.353 49.7827 35.1308 50.2353 35.0408C50.6879 34.9507 51.1571 34.9969 51.5834 35.1735C52.0098 35.3502 52.3742 35.6492 52.6306 36.0329C52.887 36.4167 53.0238 36.8678 53.0238 37.3293C53.0238 37.9481 52.778 38.5416 52.3404 38.9792C51.9028 39.4168 51.3093 39.6626 50.6905 39.6626Z" fill="#F57A00"/>
<path d="M70.2758 56.4438C70.1667 56.304 70.0273 56.1909 69.868 56.113C69.7087 56.0352 69.5338 55.9947 69.3565 55.9946H56.5231V53.6613H65.7631C66.3941 53.6729 67.0039 53.4337 67.4588 52.9963C67.9137 52.5589 68.1766 51.9589 68.1898 51.328V13.9946C68.1766 13.3637 67.9137 12.7637 67.4588 12.3263C67.0039 11.8889 66.3941 11.6497 65.7631 11.6613H56.5231V3.49463C56.5231 2.56637 56.1544 1.67613 55.498 1.01976C54.8416 0.363378 53.9514 -0.00537109 53.0231 -0.00537109H18.0231C17.0949 -0.00537109 16.2046 0.363378 15.5482 1.01976C14.8919 1.67613 14.5231 2.56637 14.5231 3.49463V11.6613H5.28312C4.65213 11.6497 4.04232 11.8889 3.5874 12.3263C3.13249 12.7637 2.86963 13.3637 2.85645 13.9946V51.328C2.86963 51.9589 3.13249 52.5589 3.5874 52.9963C4.04232 53.4337 4.65213 53.6729 5.28312 53.6613H14.5231V55.9946H1.68978C1.51257 55.9947 1.33769 56.0351 1.17843 56.1128C1.01917 56.1905 0.879709 56.3035 0.77063 56.4432C0.661551 56.5829 0.585723 56.7455 0.548901 56.9189C0.512078 57.0922 0.515229 57.2717 0.558115 57.4436L1.28262 60.3451C1.47226 61.1022 1.90951 61.7741 2.52485 62.2542C3.14019 62.7342 3.89833 62.9949 4.67878 62.9946H14.5231V66.4946C14.5231 67.4229 14.8919 68.3131 15.5482 68.9695C16.2046 69.6259 17.0949 69.9946 18.0231 69.9946H53.0231C53.9514 69.9946 54.8416 69.6259 55.498 68.9695C56.1544 68.3131 56.5231 67.4229 56.5231 66.4946V62.9946H66.3675C67.1481 62.9948 67.9063 62.734 68.5217 62.2537C69.1371 61.7734 69.5742 61.1012 69.7636 60.344L70.4881 57.4436C70.5309 57.2718 70.5341 57.0924 70.4973 56.9192C70.4605 56.746 70.3847 56.5834 70.2758 56.4438ZM23.8564 2.32796H47.1898V3.49463C47.1898 3.80405 47.0669 4.10079 46.8481 4.31959C46.6293 4.53838 46.3325 4.6613 46.0231 4.6613H25.0231C24.7137 4.6613 24.417 4.53838 24.1982 4.31959C23.9794 4.10079 23.8564 3.80405 23.8564 3.49463V2.32796ZM16.8564 3.49463C16.8564 3.18521 16.9794 2.88846 17.1982 2.66967C17.417 2.45088 17.7137 2.32796 18.0231 2.32796H21.5231V3.49463C21.5231 4.42289 21.8919 5.31313 22.5482 5.9695C23.2046 6.62588 24.0949 6.99463 25.0231 6.99463H46.0231C46.9514 6.99463 47.8416 6.62588 48.498 5.9695C49.1544 5.31313 49.5231 4.42289 49.5231 3.49463V2.32796H53.0231C53.3325 2.32796 53.6293 2.45088 53.8481 2.66967C54.0669 2.88846 54.1898 3.18521 54.1898 3.49463V11.6613H16.8564V3.49463ZM5.18978 51.328L5.28312 13.9946H65.8565L65.8658 51.293C65.8521 51.3056 65.8358 51.3153 65.8181 51.3213C65.8005 51.3273 65.7817 51.3296 65.7631 51.328H5.18978ZM16.8564 53.6613H54.1898V55.9946H40.1898C39.8804 55.9946 39.5836 56.1175 39.3648 56.3363C39.146 56.5551 39.0231 56.8519 39.0231 57.1613V58.328H32.0231V57.1613C32.0231 56.8519 31.9002 56.5551 31.6814 56.3363C31.4626 56.1175 31.1659 55.9946 30.8565 55.9946H16.8564V53.6613ZM3.54595 59.7781L3.18428 58.328H29.6898V59.4946C29.6898 59.804 29.8127 60.1008 30.0315 60.3196C30.2503 60.5384 30.547 60.6613 30.8565 60.6613H4.67878C4.4185 60.6615 4.16561 60.5748 3.96033 60.4147C3.75506 60.2547 3.6092 60.0306 3.54595 59.7781ZM54.1898 66.4946C54.1898 66.804 54.0669 67.1008 53.8481 67.3196C53.6293 67.5384 53.3325 67.6613 53.0231 67.6613H18.0231C17.7137 67.6613 17.417 67.5384 17.1982 67.3196C16.9794 67.1008 16.8564 66.804 16.8564 66.4946V62.9946H54.1898V66.4946ZM67.5003 59.777C67.4373 60.0297 67.2915 60.254 67.0862 60.4143C66.8809 60.5745 66.6279 60.6615 66.3675 60.6613H40.1898C40.4992 60.6613 40.796 60.5384 41.0147 60.3196C41.2335 60.1008 41.3565 59.804 41.3565 59.4946V58.328H67.862L67.5003 59.777Z" fill="#F57A00"/>
<path d="M20.3568 34.9933C22.2027 34.9933 24.0072 34.4459 25.5421 33.4204C27.077 32.3948 28.2732 30.9372 28.9796 29.2317C29.6861 27.5263 29.8709 25.6496 29.5108 23.8392C29.1506 22.0287 28.2617 20.3656 26.9564 19.0603C25.6511 17.755 23.9881 16.8661 22.1776 16.506C20.3671 16.1459 18.4905 16.3307 16.7851 17.0371C15.0796 17.7435 13.6219 18.9398 12.5964 20.4747C11.5708 22.0095 11.0234 23.814 11.0234 25.66C11.0262 28.1345 12.0104 30.5069 13.7602 32.2566C15.5099 34.0063 17.8823 34.9906 20.3568 34.9933ZM15.7414 30.91C17.0149 29.7833 18.6565 29.1613 20.3568 29.1613C22.0571 29.1613 23.6987 29.7833 24.9721 30.91C23.6994 32.0381 22.0575 32.661 20.3568 32.661C18.656 32.661 17.0142 32.0381 15.7414 30.91ZM20.3568 18.66C21.5806 18.6581 22.7834 18.9775 23.845 19.5864C24.9066 20.1952 25.7897 21.0721 26.406 22.1294C27.0224 23.1867 27.3503 24.3872 27.357 25.611C27.3638 26.8348 27.0491 28.0388 26.4444 29.1028C24.756 27.6349 22.5941 26.8265 20.3568 26.8265C18.1195 26.8265 15.9575 27.6349 14.2691 29.1028C13.6645 28.0388 13.3498 26.8348 13.3565 25.611C13.3633 24.3872 13.6912 23.1867 14.3075 22.1294C14.9239 21.0721 15.807 20.1952 16.8686 19.5864C17.9301 18.9775 19.133 18.6581 20.3568 18.66Z" fill="#F57A00"/>
<path d="M23.8555 23.3267C23.8555 22.6344 23.6502 21.9577 23.2656 21.3822C22.881 20.8066 22.3344 20.358 21.6949 20.0931C21.0553 19.8282 20.3516 19.7589 19.6727 19.8939C18.9937 20.029 18.3701 20.3623 17.8806 20.8518C17.3911 21.3413 17.0578 21.9649 16.9227 22.6438C16.7877 23.3228 16.857 24.0265 17.1219 24.6661C17.3868 25.3056 17.8354 25.8522 18.411 26.2368C18.9865 26.6214 19.6632 26.8267 20.3555 26.8267C21.2837 26.8267 22.174 26.4579 22.8303 25.8015C23.4867 25.1452 23.8555 24.2549 23.8555 23.3267ZM20.3555 24.4933C20.1247 24.4933 19.8992 24.4249 19.7073 24.2967C19.5154 24.1685 19.3659 23.9863 19.2776 23.7731C19.1893 23.5599 19.1662 23.3254 19.2112 23.0991C19.2562 22.8727 19.3674 22.6649 19.5305 22.5017C19.6937 22.3385 19.9016 22.2274 20.1279 22.1824C20.3542 22.1374 20.5888 22.1605 20.8019 22.2488C21.0151 22.3371 21.1973 22.4866 21.3255 22.6785C21.4537 22.8704 21.5221 23.0959 21.5221 23.3267C21.5221 23.6361 21.3992 23.9328 21.1804 24.1516C20.9616 24.3704 20.6649 24.4933 20.3555 24.4933Z" fill="#F57A00"/>
<path d="M7.52344 37.3267H26.1901V39.66H7.52344V37.3267Z" fill="#F57A00"/>
<path d="M28.5234 37.3267H33.1901V39.66H28.5234V37.3267Z" fill="#F57A00"/>
<path d="M7.52344 46.6626H26.1901V48.9959H7.52344V46.6626Z" fill="#F57A00"/>
<path d="M28.5234 46.6626H33.1901V48.9959H28.5234V46.6626Z" fill="#F57A00"/>
<path d="M7.52338 41.9946H19.19V44.328H7.52338V41.9946Z" fill="#F57A00"/>
<path d="M21.5232 41.9946H33.1899V44.328H21.5232V41.9946Z" fill="#F57A00"/>
</svg>
