<svg width="71" height="70" viewBox="0 0 71 70" fill="none" xmlns="http://www.w3.org/2000/svg">
<path d="M34.3255 6.99463C34.3255 6.68521 34.4484 6.38846 34.6672 6.16967C34.886 5.95088 35.1828 5.82796 35.4922 5.82796H52.9922C53.3016 5.82796 53.5983 5.95088 53.8171 6.16967C54.0359 6.38846 54.1588 6.68521 54.1588 6.99463C54.1588 7.30405 54.0359 7.60079 53.8171 7.81958C53.5983 8.03838 53.3016 8.16129 52.9922 8.16129H35.4922C35.1828 8.16129 34.886 8.03838 34.6672 7.81958C34.4484 7.60079 34.3255 7.30405 34.3255 6.99463ZM8.65885 8.16129C8.8896 8.16129 9.11516 8.09287 9.30702 7.96467C9.49887 7.83648 9.64841 7.65427 9.73671 7.44109C9.82501 7.22791 9.84812 6.99333 9.8031 6.76702C9.75808 6.54071 9.64697 6.33283 9.48381 6.16967C9.32065 6.00651 9.11277 5.89539 8.88646 5.85038C8.66015 5.80536 8.42557 5.82847 8.21239 5.91677C7.99921 6.00507 7.817 6.1546 7.6888 6.34646C7.56061 6.53832 7.49219 6.76388 7.49219 6.99463C7.49219 7.30405 7.6151 7.60079 7.83389 7.81958C8.05269 8.03838 8.34943 8.16129 8.65885 8.16129ZM14.4922 8.16129C14.7229 8.16129 14.9485 8.09287 15.1403 7.96467C15.3322 7.83648 15.4817 7.65427 15.57 7.44109C15.6583 7.22791 15.6814 6.99333 15.6364 6.76702C15.5914 6.54071 15.4803 6.33283 15.3171 6.16967C15.154 6.00651 14.9461 5.89539 14.7198 5.85038C14.4935 5.80536 14.2589 5.82847 14.0457 5.91677C13.8325 6.00507 13.6503 6.1546 13.5221 6.34646C13.3939 6.53832 13.3255 6.76388 13.3255 6.99463C13.3255 7.30405 13.4484 7.60079 13.6672 7.81958C13.886 8.03838 14.1828 8.16129 14.4922 8.16129ZM20.3255 8.16129C20.5563 8.16129 20.7818 8.09287 20.9737 7.96467C21.1655 7.83648 21.3151 7.65427 21.4034 7.44109C21.4917 7.22791 21.5148 6.99333 21.4698 6.76702C21.4247 6.54071 21.3136 6.33283 21.1505 6.16967C20.9873 6.00651 20.7794 5.89539 20.5531 5.85038C20.3268 5.80536 20.0922 5.82847 19.8791 5.91677C19.6659 6.00507 19.4837 6.1546 19.3555 6.34646C19.2273 6.53832 19.1588 6.76388 19.1588 6.99463C19.1588 7.30405 19.2818 7.60079 19.5006 7.81958C19.7193 8.03838 20.0161 8.16129 20.3255 8.16129ZM7.56627 28.7517L11.0663 19.4183C11.1496 19.1958 11.2988 19.0041 11.4941 18.8687C11.6893 18.7333 11.9213 18.6608 12.1588 18.6608C12.3964 18.6608 12.6284 18.7333 12.8236 18.8687C13.0189 19.0041 13.1681 19.1958 13.2514 19.4183L16.7514 28.7517C16.8601 29.0414 16.8491 29.3625 16.7211 29.6442C16.593 29.9259 16.3582 30.1452 16.0685 30.2539C15.7787 30.3625 15.4576 30.3516 15.1759 30.2235C14.8942 30.0954 14.6749 29.8607 14.5663 29.5709L13.9751 27.9946H10.3426L9.75143 29.5709C9.69764 29.7144 9.61612 29.8459 9.51151 29.9578C9.40691 30.0698 9.28127 30.1601 9.14178 30.2235C9.00229 30.2869 8.85167 30.3222 8.69853 30.3275C8.54539 30.3327 8.39271 30.3077 8.24923 30.2539C8.10575 30.2001 7.97427 30.1186 7.8623 30.0139C7.75033 29.9093 7.66006 29.7837 7.59664 29.6442C7.53322 29.5047 7.49789 29.3541 7.49268 29.201C7.48747 29.0478 7.51248 28.8952 7.56627 28.7517ZM11.2175 25.6613H13.1002L12.1588 23.1507L11.2175 25.6613ZM20.3255 30.328C20.0161 30.328 19.7193 30.205 19.5006 29.9862C19.2818 29.7675 19.1588 29.4707 19.1588 29.1613V19.828C19.1588 19.5185 19.2818 19.2218 19.5006 19.003C19.7193 18.7842 20.0161 18.6613 20.3255 18.6613H23.2422C24.3251 18.6613 25.3638 19.0915 26.1295 19.8573C26.8953 20.623 27.3255 21.6617 27.3255 22.7446C27.3255 23.8276 26.8953 24.8662 26.1295 25.632C25.3638 26.3977 24.3251 26.828 23.2422 26.828H21.4922V29.1613C21.4922 29.4707 21.3693 29.7675 21.1505 29.9862C20.9317 30.205 20.6349 30.328 20.3255 30.328ZM21.4922 24.4946H23.2422C23.7063 24.4946 24.1514 24.3102 24.4796 23.9821C24.8078 23.6539 24.9922 23.2088 24.9922 22.7446C24.9922 22.2805 24.8078 21.8354 24.4796 21.5072C24.1514 21.179 23.7063 20.9946 23.2422 20.9946H21.4922V24.4946ZM31.9922 29.1613V19.828C31.9922 19.5185 31.8693 19.2218 31.6505 19.003C31.4317 18.7842 31.1349 18.6613 30.8255 18.6613C30.5161 18.6613 30.2193 18.7842 30.0006 19.003C29.7818 19.2218 29.6588 19.5185 29.6588 19.828V29.1613C29.6588 29.4707 29.7818 29.7675 30.0006 29.9862C30.2193 30.205 30.5161 30.328 30.8255 30.328C31.1349 30.328 31.4317 30.205 31.6505 29.9862C31.8693 29.7675 31.9922 29.4707 31.9922 29.1613ZM33.1577 57.1613C33.1577 57.4707 33.0348 57.7674 32.816 57.9862C32.5972 58.205 32.3004 58.3279 31.991 58.3279H6.32552C4.77898 58.3261 3.29631 57.711 2.20274 56.6174C1.10918 55.5238 0.494009 54.0412 0.492188 52.4946V5.82796C0.494009 4.28142 1.10918 2.79875 2.20274 1.70518C3.29631 0.611617 4.77898 -0.0035494 6.32552 -0.00537109H55.3255C56.872 -0.0035494 58.3547 0.611617 59.4483 1.70518C60.5418 2.79875 61.157 4.28142 61.1588 5.82796V33.828C61.1588 34.1374 61.0359 34.4341 60.8171 34.6529C60.5983 34.8717 60.3016 34.9946 59.9922 34.9946C59.6827 34.9946 59.386 34.8717 59.1672 34.6529C58.9484 34.4341 58.8255 34.1374 58.8255 33.828V13.9946H2.82552V52.4946C2.82654 53.4226 3.19562 54.3122 3.85177 54.9684C4.50793 55.6245 5.39757 55.9936 6.32552 55.9946H31.991C32.3004 55.9946 32.5972 56.1175 32.816 56.3363C33.0348 56.5551 33.1577 56.8519 33.1577 57.1613ZM2.82552 5.82796V11.6613H58.8255V5.82796C58.8245 4.90002 58.4554 4.01037 57.7993 3.35421C57.1431 2.69806 56.2534 2.32898 55.3255 2.32796H6.32552C5.39757 2.32898 4.50793 2.69806 3.85177 3.35421C3.19562 4.01037 2.82654 4.90002 2.82552 5.82796ZM70.4922 49.7842V52.8712C70.4935 53.338 70.3542 53.7943 70.0925 54.1808C69.8307 54.5673 69.4587 54.866 69.0247 55.0379L66.1935 56.1704C65.9766 56.8206 65.7159 57.4553 65.4131 58.0702L66.6105 60.8673C66.7959 61.2954 66.8479 61.7695 66.7597 62.2276C66.6715 62.6857 66.4471 63.1066 66.116 63.4353L63.933 65.6184C63.6039 65.9489 63.1831 66.1727 62.7252 66.2609C62.2672 66.3491 61.7934 66.2975 61.3651 66.113L58.568 64.9149C57.9529 65.2181 57.318 65.4792 56.6676 65.6966L55.5355 68.5283C55.3637 68.9622 55.0651 69.3343 54.6787 69.5958C54.2922 69.8574 53.8359 69.9964 53.3692 69.9946H50.2818C49.815 69.9964 49.3585 69.8573 48.972 69.5955C48.5855 69.3337 48.287 68.9613 48.1155 68.5272L46.9838 65.6965C46.3335 65.4791 45.6986 65.218 45.0835 64.9148L42.2864 66.1129C41.8581 66.2976 41.3842 66.3492 40.9263 66.261C40.4683 66.1728 40.0474 65.9489 39.7184 65.6183L37.535 63.4355C37.2038 63.1066 36.9795 62.6856 36.8912 62.2273C36.803 61.769 36.855 61.2947 37.0405 60.8664L38.2379 58.0705C37.9351 57.4556 37.6744 56.8209 37.4575 56.1707L34.6263 55.0379C34.1922 54.8661 33.8201 54.5675 33.5583 54.181C33.2965 53.7945 33.1573 53.338 33.1588 52.8712V49.7847C33.1575 49.3179 33.2968 48.8616 33.5585 48.4751C33.8203 48.0886 34.1924 47.7899 34.6263 47.618L37.4575 46.4855C37.6747 45.8352 37.9358 45.2005 38.2392 44.5857L37.0406 41.7892C36.8553 41.361 36.8033 40.887 36.8913 40.4288C36.9793 39.9707 37.2032 39.5497 37.534 39.2206L39.7181 37.0377C40.0467 36.7065 40.4676 36.4822 40.9257 36.394C41.3838 36.3057 41.8579 36.3577 42.286 36.5431L45.0831 37.7412C45.6982 37.438 46.3331 37.1769 46.9835 36.9595L48.116 34.1277C48.2877 33.6938 48.5862 33.3218 48.9726 33.0602C49.3589 32.7986 49.8152 32.6596 50.2818 32.6613H53.3692C53.836 32.6595 54.2925 32.7986 54.679 33.0604C55.0655 33.3222 55.364 33.6946 55.5355 34.1287L56.668 36.9594C57.3184 37.1768 57.9533 37.4379 58.5684 37.7411L61.3655 36.543C61.7936 36.3578 62.2676 36.3059 62.7257 36.3941C63.1838 36.4823 63.6047 36.7065 63.9334 37.0376L66.1163 39.2205C66.4475 39.5494 66.6719 39.9704 66.7601 40.4288C66.8483 40.8871 66.7963 41.3613 66.6109 41.7896L65.4123 44.5855C65.7157 45.2003 65.9768 45.8351 66.1939 46.4854L69.0252 47.6184C69.459 47.7902 69.8311 48.0887 70.0927 48.4751C70.3544 48.8614 70.4936 49.3176 70.4922 49.7842ZM68.1588 49.7842L64.8138 48.4463C64.6498 48.3808 64.5029 48.279 64.3841 48.1484C64.2652 48.0178 64.1776 47.862 64.1279 47.6926C63.8746 46.8253 63.5297 45.9873 63.0991 45.1929C63.0142 45.0378 62.9657 44.8654 62.9572 44.6887C62.9487 44.5121 62.9805 44.3358 63.0501 44.1733L64.4663 40.8691L62.2834 38.6871L58.9793 40.1028C58.8171 40.1722 58.6413 40.204 58.4651 40.1957C58.2889 40.1874 58.1169 40.1393 57.9619 40.0549C57.1665 39.6244 56.3279 39.2792 55.4599 39.025C55.2907 38.9751 55.1351 38.8875 55.0047 38.7688C54.8742 38.6501 54.7724 38.5034 54.7068 38.3397L53.3682 34.9946H50.2818L48.9438 38.3397C48.8783 38.5034 48.7764 38.6501 48.646 38.7688C48.5156 38.8875 48.3599 38.9751 48.1908 39.025C47.3228 39.2792 46.4841 39.6244 45.6887 40.0549C45.5338 40.1393 45.3618 40.1874 45.1856 40.1957C45.0093 40.204 44.8335 40.1722 44.6714 40.1028L41.3676 38.6871L39.1847 40.8695L40.6009 44.1736C40.6705 44.3362 40.7023 44.5124 40.6938 44.6891C40.6853 44.8657 40.6368 45.0381 40.5519 45.1933C40.1213 45.9877 39.7764 46.8256 39.5231 47.693C39.4734 47.8623 39.3858 48.0182 39.2669 48.1488C39.1481 48.2793 39.0012 48.3812 38.8372 48.4466L35.4922 49.7842V52.8712L38.8372 54.2096C39.0012 54.2751 39.1481 54.3769 39.2669 54.5075C39.3858 54.6381 39.4734 54.7939 39.5231 54.9633C39.7763 55.8311 40.1212 56.6694 40.5519 57.4641C40.6363 57.6191 40.6845 57.7913 40.6928 57.9676C40.7011 58.1439 40.6693 58.3198 40.5997 58.4821L39.1847 61.7858L41.3676 63.9688L44.6717 62.5532C44.8338 62.4834 45.0097 62.4515 45.1859 62.4598C45.3622 62.4681 45.5342 62.5164 45.6891 62.601C46.4845 63.0315 47.3231 63.3767 48.1911 63.6309C48.3603 63.6808 48.5159 63.7684 48.6464 63.8871C48.7768 64.0058 48.8786 64.1525 48.9442 64.3162L50.2828 67.6613H53.3692L54.7072 64.3162C54.7727 64.1525 54.8746 64.0058 55.005 63.8871C55.1354 63.7684 55.2911 63.6808 55.4603 63.6309C56.3282 63.3767 57.1669 63.0315 57.9623 62.601C58.1171 62.5164 58.2892 62.4681 58.4654 62.4598C58.6417 62.4515 58.8175 62.4834 58.9796 62.5532L62.2837 63.9688L64.4667 61.7858L63.0516 58.4817C62.9821 58.3195 62.9502 58.1436 62.9585 57.9673C62.9668 57.7909 63.015 57.6188 63.0995 57.4638C63.5302 56.6691 63.875 55.8307 64.1282 54.9629C64.178 54.7936 64.2656 54.6377 64.3844 54.5071C64.5032 54.3766 64.6502 54.2747 64.8141 54.2093L68.1588 52.8712V49.7842ZM61.1588 51.3279C61.1588 53.1739 60.6114 54.9784 59.5859 56.5133C58.5603 58.0481 57.1027 59.2444 55.3972 59.9508C53.6918 60.6572 51.8152 60.8421 50.0047 60.4819C48.1942 60.1218 46.5311 59.2329 45.2258 57.9276C43.9206 56.6223 43.0316 54.9593 42.6715 53.1488C42.3114 51.3383 42.4962 49.4617 43.2026 47.7562C43.909 46.0508 45.1053 44.5931 46.6402 43.5676C48.175 42.542 49.9795 41.9946 51.8255 41.9946C54.3 41.9975 56.6723 42.9817 58.422 44.7314C60.1717 46.4812 61.156 48.8535 61.1588 51.3279ZM58.8255 51.3279C58.8255 49.9435 58.415 48.5901 57.6458 47.439C56.8766 46.2878 55.7834 45.3906 54.5043 44.8608C53.2252 44.331 51.8177 44.1924 50.4599 44.4625C49.102 44.7326 47.8547 45.3992 46.8758 46.3782C45.8968 47.3572 45.2301 48.6045 44.96 49.9623C44.6899 51.3202 44.8285 52.7276 45.3583 54.0067C45.8882 55.2858 46.7854 56.3791 47.9365 57.1482C49.0877 57.9174 50.441 58.3279 51.8255 58.3279C53.6814 58.3259 55.4607 57.5878 56.773 56.2754C58.0853 54.9631 58.8235 53.1838 58.8255 51.3279ZM8.65885 37.328H22.6588C22.9683 37.328 23.265 37.205 23.4838 36.9862C23.7026 36.7675 23.8255 36.4707 23.8255 36.1613C23.8255 35.8519 23.7026 35.5551 23.4838 35.3363C23.265 35.1175 22.9683 34.9946 22.6588 34.9946H8.65885C8.34943 34.9946 8.05269 35.1175 7.83389 35.3363C7.6151 35.5551 7.49219 35.8519 7.49219 36.1613C7.49219 36.4707 7.6151 36.7675 7.83389 36.9862C8.05269 37.205 8.34943 37.328 8.65885 37.328ZM31.9922 43.1613C31.9922 42.8519 31.8693 42.5551 31.6505 42.3363C31.4317 42.1175 31.1349 41.9946 30.8255 41.9946H8.65885C8.34943 41.9946 8.05269 42.1175 7.83389 42.3363C7.6151 42.5551 7.49219 42.8519 7.49219 43.1613C7.49219 43.4707 7.6151 43.7675 7.83389 43.9862C8.05269 44.205 8.34943 44.328 8.65885 44.328H30.8255C31.1349 44.328 31.4317 44.205 31.6505 43.9862C31.8693 43.7675 31.9922 43.4707 31.9922 43.1613ZM8.65885 48.9946C8.34943 48.9946 8.05269 49.1175 7.83389 49.3363C7.6151 49.5551 7.49219 49.8519 7.49219 50.1613C7.49219 50.4707 7.6151 50.7674 7.83389 50.9862C8.05269 51.205 8.34943 51.3279 8.65885 51.3279H22.6588C22.9683 51.3279 23.265 51.205 23.4838 50.9862C23.7026 50.7674 23.8255 50.4707 23.8255 50.1613C23.8255 49.8519 23.7026 49.5551 23.4838 49.3363C23.265 49.1175 22.9683 48.9946 22.6588 48.9946H8.65885ZM35.4922 36.1613C35.4922 35.8519 35.3693 35.5551 35.1505 35.3363C34.9317 35.1175 34.6349 34.9946 34.3255 34.9946H27.3255C27.0161 34.9946 26.7193 35.1175 26.5006 35.3363C26.2818 35.5551 26.1588 35.8519 26.1588 36.1613C26.1588 36.4707 26.2818 36.7675 26.5006 36.9862C26.7193 37.205 27.0161 37.328 27.3255 37.328H34.3255C34.6349 37.328 34.9317 37.205 35.1505 36.9862C35.3693 36.7675 35.4922 36.4707 35.4922 36.1613Z" fill="#F57A00"/>
</svg>
