<svg width="59" height="70" viewBox="0 0 59 70" fill="none" xmlns="http://www.w3.org/2000/svg">
<path d="M43.1484 69.9946H1.58594C0.981914 69.9946 0.492188 69.5049 0.492188 68.9009V1.08838C0.492188 0.484355 0.981914 -0.00537109 1.58594 -0.00537109H43.1484C43.7525 -0.00537109 44.2422 0.484355 44.2422 1.08838V18.5884C44.2422 19.1924 43.7525 19.6821 43.1484 19.6821C42.5444 19.6821 42.0547 19.1924 42.0547 18.5884V2.18213H2.67969V67.8071H43.1484C43.7525 67.8071 44.2422 68.2969 44.2422 68.9009C44.2422 69.5049 43.7525 69.9946 43.1484 69.9946Z" fill="#F57A00"/>
<path d="M43.1484 15.3071H1.58594C0.981914 15.3071 0.492188 14.8174 0.492188 14.2134C0.492188 13.6094 0.981914 13.1196 1.58594 13.1196H43.1484C43.7525 13.1196 44.2422 13.6094 44.2422 14.2134C44.2422 14.8174 43.7525 15.3071 43.1484 15.3071Z" fill="#F57A00"/>
<path d="M38.8203 6.48682H25.6953C25.0913 6.48682 24.6016 5.99709 24.6016 5.39307C24.6016 4.78904 25.0913 4.29932 25.6953 4.29932H38.8203C39.4243 4.29932 39.9141 4.78904 39.9141 5.39307C39.9141 5.99709 39.4243 6.48682 38.8203 6.48682Z" fill="#F57A00"/>
<path d="M38.8203 10.8618H25.6953C25.0913 10.8618 24.6016 10.3721 24.6016 9.76807C24.6016 9.16404 25.0913 8.67432 25.6953 8.67432H38.8203C39.4243 8.67432 39.9141 9.16404 39.9141 9.76807C39.9141 10.3721 39.4243 10.8618 38.8203 10.8618Z" fill="#F57A00"/>
<path d="M8.14832 10.9321C6.33898 10.9321 4.86707 9.46022 4.86707 7.65088C4.86707 5.84154 6.33898 4.36963 8.14832 4.36963C9.95765 4.36963 11.4296 5.84154 11.4296 7.65088C11.4296 9.46022 9.95765 10.9321 8.14832 10.9321ZM8.14832 6.55713C7.54525 6.55713 7.05457 7.04781 7.05457 7.65088C7.05457 8.25395 7.54525 8.74463 8.14832 8.74463C8.75138 8.74463 9.24207 8.25395 9.24207 7.65088C9.24207 7.04781 8.75138 6.55713 8.14832 6.55713Z" fill="#F57A00"/>
<path d="M16.8984 10.9321C15.0891 10.9321 13.6172 9.46022 13.6172 7.65088C13.6172 5.84154 15.0891 4.36963 16.8984 4.36963C18.7078 4.36963 20.1797 5.84154 20.1797 7.65088C20.1797 9.46022 18.7078 10.9321 16.8984 10.9321ZM16.8984 6.55713C16.2954 6.55713 15.8047 7.04781 15.8047 7.65088C15.8047 8.25395 16.2954 8.74463 16.8984 8.74463C17.5015 8.74463 17.9922 8.25395 17.9922 7.65088C17.9922 7.04781 17.5015 6.55713 16.8984 6.55713Z" fill="#F57A00"/>
<path d="M45.3344 47.9516C44.804 47.9516 44.3382 47.5651 44.2549 47.0245C44.1628 46.4276 44.572 45.869 45.1692 45.7768C51.4995 44.8001 56.2733 39.2244 56.2733 32.8071C56.2733 25.5699 50.3855 19.6821 43.1483 19.6821C42.5443 19.6821 42.0546 19.1924 42.0546 18.5884C42.0546 17.9844 42.5443 17.4946 43.1483 17.4946C51.5917 17.4946 58.4608 24.3638 58.4608 32.8071C58.4608 36.4854 57.1372 40.0413 54.7339 42.8197C52.3555 45.5691 49.0771 47.3871 45.5025 47.9385C45.4461 47.9472 45.39 47.9516 45.3344 47.9516Z" fill="#F57A00"/>
<path d="M43.1484 48.1196C42.3597 48.1196 41.5674 48.0587 40.793 47.9385C37.2195 47.3872 33.9411 45.5693 31.5628 42.8199C29.1595 40.0413 27.8359 36.4854 27.8359 32.8071C27.8359 24.3638 34.7051 17.4946 43.1484 17.4946C43.7525 17.4946 44.2422 17.9844 44.2422 18.5884C44.2422 19.1924 43.7525 19.6821 43.1484 19.6821C35.9112 19.6821 30.0234 25.5699 30.0234 32.8071C30.0234 39.2244 34.7972 44.8001 41.1277 45.7767C42.457 45.9831 43.8411 45.983 45.1682 45.7768C45.765 45.6843 46.3241 46.0929 46.4168 46.6898C46.5095 47.2867 46.1007 47.8458 45.5038 47.9385C44.7295 48.0587 43.9372 48.1196 43.1484 48.1196Z" fill="#F57A00"/>
<path d="M43.1484 69.9946C41.3392 69.9946 39.8672 68.5225 39.8672 66.7133V46.8577C39.8672 46.2536 40.3569 45.7639 40.9609 45.7639C41.565 45.7639 42.0547 46.2536 42.0547 46.8577V66.7133C42.0547 67.3164 42.5454 67.8071 43.1484 67.8071C43.7515 67.8071 44.2422 67.3164 44.2422 66.7133V46.8577C44.2422 46.2536 44.7319 45.7639 45.3359 45.7639C45.94 45.7639 46.4297 46.2536 46.4297 46.8577V66.7133C46.4297 68.5225 44.9576 69.9946 43.1484 69.9946Z" fill="#F57A00"/>
<path d="M30.0234 20.7759H6.09766C5.49363 20.7759 5.00391 20.2862 5.00391 19.6821C5.00391 19.0781 5.49363 18.5884 6.09766 18.5884H30.0234C30.6275 18.5884 31.1172 19.0781 31.1172 19.6821C31.1172 20.2862 30.6275 20.7759 30.0234 20.7759Z" fill="#F57A00"/>
<path d="M26.7422 26.2446H6.09766C5.49363 26.2446 5.00391 25.7549 5.00391 25.1509C5.00391 24.5469 5.49363 24.0571 6.09766 24.0571H26.7422C27.3462 24.0571 27.8359 24.5469 27.8359 25.1509C27.8359 25.7549 27.3462 26.2446 26.7422 26.2446Z" fill="#F57A00"/>
<path d="M24.5546 31.7134H5.96082C5.35679 31.7134 4.86707 31.2237 4.86707 30.6196C4.86707 30.0156 5.35679 29.5259 5.96082 29.5259H24.5546C25.1586 29.5259 25.6483 30.0156 25.6483 30.6196C25.6483 31.2237 25.1586 31.7134 24.5546 31.7134Z" fill="#F57A00"/>
<path d="M24.5546 37.1821H5.96082C5.35679 37.1821 4.86707 36.6924 4.86707 36.0884C4.86707 35.4844 5.35679 34.9946 5.96082 34.9946H24.5546C25.1586 34.9946 25.6483 35.4844 25.6483 36.0884C25.6483 36.6924 25.1586 37.1821 24.5546 37.1821Z" fill="#F57A00"/>
<path d="M26.7421 42.6509H5.96082C5.35679 42.6509 4.86707 42.1612 4.86707 41.5571C4.86707 40.9531 5.35679 40.4634 5.96082 40.4634H26.7421C27.3461 40.4634 27.8358 40.9531 27.8358 41.5571C27.8358 42.1612 27.3461 42.6509 26.7421 42.6509Z" fill="#F57A00"/>
<path d="M30.0233 48.1196H5.96082C5.35679 48.1196 4.86707 47.6299 4.86707 47.0259C4.86707 46.4219 5.35679 45.9321 5.96082 45.9321H30.0233C30.6273 45.9321 31.1171 46.4219 31.1171 47.0259C31.1171 47.6299 30.6273 48.1196 30.0233 48.1196Z" fill="#F57A00"/>
<path d="M35.4921 53.5884H5.96082C5.35679 53.5884 4.86707 53.0987 4.86707 52.4946C4.86707 51.8906 5.35679 51.4009 5.96082 51.4009H35.4921C36.0961 51.4009 36.5858 51.8906 36.5858 52.4946C36.5858 53.0987 36.0961 53.5884 35.4921 53.5884Z" fill="#F57A00"/>
<path d="M35.4921 59.0571H5.96082C5.35679 59.0571 4.86707 58.5674 4.86707 57.9634C4.86707 57.3594 5.35679 56.8696 5.96082 56.8696H35.4921C36.0961 56.8696 36.5858 57.3594 36.5858 57.9634C36.5858 58.5674 36.0961 59.0571 35.4921 59.0571Z" fill="#F57A00"/>
<path d="M35.4921 64.5259H5.96082C5.35679 64.5259 4.86707 64.0362 4.86707 63.4321C4.86707 62.8281 5.35679 62.3384 5.96082 62.3384H35.4921C36.0961 62.3384 36.5858 62.8281 36.5858 63.4321C36.5858 64.0362 36.0961 64.5259 35.4921 64.5259Z" fill="#F57A00"/>
<path d="M37.6799 38.148C37.4059 38.148 37.1317 38.0457 36.9193 37.8401L32.5323 33.593C32.3215 33.3888 32.2016 33.1087 32.1992 32.8153C32.1971 32.5219 32.3129 32.24 32.5207 32.0327L36.9077 27.6577C37.3355 27.2312 38.0278 27.232 38.4545 27.6599C38.881 28.0876 38.88 28.7802 38.4524 29.2066L34.8535 32.7956L38.4407 36.2684C38.8748 36.6885 38.886 37.381 38.4659 37.8151C38.2514 38.0367 37.9658 38.148 37.6799 38.148Z" fill="#F57A00"/>
<path d="M48.6017 38.148C48.3158 38.148 48.0302 38.0368 47.8157 37.815C47.3956 37.3809 47.4068 36.6886 47.8409 36.2683L51.4154 32.8078L47.8417 29.3554C47.4072 28.9357 47.3953 28.2433 47.815 27.8088C48.2349 27.3746 48.9274 27.3624 49.3617 27.7822L53.7488 32.0204C53.962 32.2263 54.0824 32.51 54.0825 32.8064C54.0826 33.1028 53.9625 33.3867 53.7494 33.5928L49.3624 37.84C49.1499 38.0458 48.8757 38.148 48.6017 38.148Z" fill="#F57A00"/>
<path d="M42.0561 39.4451C41.985 39.4451 41.9131 39.4381 41.8409 39.4238C41.2485 39.3055 40.864 38.7295 40.9823 38.1371L43.1698 27.1733C43.2881 26.5809 43.8648 26.1968 44.4565 26.3148C45.0489 26.4329 45.4333 27.009 45.3151 27.6014L43.1276 38.5652C43.0237 39.0852 42.5669 39.4451 42.0561 39.4451Z" fill="#F57A00"/>
</svg>
