<svg width="55" height="72" viewBox="0 0 55 72" fill="none" xmlns="http://www.w3.org/2000/svg">
<path d="M42.8594 5.5376H43.2819" stroke="#F57A00" stroke-width="2" stroke-miterlimit="10" stroke-linecap="round" stroke-linejoin="round"/>
<path d="M42.8594 9.48096H43.2819" stroke="#F57A00" stroke-width="2" stroke-miterlimit="10" stroke-linecap="round" stroke-linejoin="round"/>
<path d="M8.77696 9.76339C10.0215 9.76339 11.0305 8.75445 11.0305 7.50987C11.0305 6.26528 10.0215 5.25635 8.77696 5.25635C7.53237 5.25635 6.52344 6.26528 6.52344 7.50987C6.52344 8.75445 7.53237 9.76339 8.77696 9.76339Z" stroke="#F57A00" stroke-width="2" stroke-miterlimit="10" stroke-linecap="round" stroke-linejoin="round"/>
<path d="M15.5391 5.5376H25.3982" stroke="#F57A00" stroke-width="2" stroke-miterlimit="10" stroke-linecap="round" stroke-linejoin="round"/>
<path d="M15.5391 9.48096H32.4405" stroke="#F57A00" stroke-width="2" stroke-miterlimit="10" stroke-linecap="round" stroke-linejoin="round"/>
<path d="M32.4357 24.4033C31.2105 23.9516 30.0677 23.2773 29.0705 22.4017L26.3007 19.9692C25.5032 19.2687 24.31 19.2687 23.5124 19.9692L20.7425 22.4017C18.7869 24.1192 16.2731 25.0663 13.6702 25.0663H11.808C10.6412 25.0663 9.69531 26.0123 9.69531 27.179V33.2949C9.69531 38.903 12.1171 44.2378 16.3388 47.9293L23.5159 54.2051C24.3122 54.9014 25.5009 54.9014 26.2973 54.2051L33.4743 47.9293C36.1587 45.582 38.1139 42.5699 39.1829 39.2461" stroke="#F57A00" stroke-width="2" stroke-miterlimit="10" stroke-linejoin="round"/>
<path d="M24.9062 37.2485V41.7021" stroke="#F57A00" stroke-width="2" stroke-miterlimit="10" stroke-linecap="round" stroke-linejoin="round"/>
<path d="M24.9052 37.2483C26.1256 37.2483 27.115 36.2589 27.115 35.0385C27.115 33.818 26.1256 32.8286 24.9052 32.8286C23.6847 32.8286 22.6953 33.818 22.6953 35.0385C22.6953 36.2589 23.6847 37.2483 24.9052 37.2483Z" stroke="#F57A00" stroke-width="2" stroke-miterlimit="10" stroke-linecap="round" stroke-linejoin="round"/>
<path d="M10.113 63.7402C11.3965 63.7402 12.437 62.6997 12.437 61.4162C12.437 60.1328 11.3965 59.0923 10.113 59.0923C8.82953 59.0923 7.78906 60.1328 7.78906 61.4162C7.78906 62.6997 8.82953 63.7402 10.113 63.7402Z" stroke="#F57A00" stroke-width="2" stroke-miterlimit="10" stroke-linecap="round" stroke-linejoin="round"/>
<path d="M19.9724 63.7402C21.2559 63.7402 22.2963 62.6997 22.2963 61.4162C22.2963 60.1328 21.2559 59.0923 19.9724 59.0923C18.6889 59.0923 17.6484 60.1328 17.6484 61.4162C17.6484 62.6997 18.6889 63.7402 19.9724 63.7402Z" stroke="#F57A00" stroke-width="2" stroke-miterlimit="10" stroke-linecap="round" stroke-linejoin="round"/>
<path d="M29.8318 63.7402C31.1152 63.7402 32.1557 62.6997 32.1557 61.4162C32.1557 60.1328 31.1152 59.0923 29.8318 59.0923C28.5483 59.0923 27.5078 60.1328 27.5078 61.4162C27.5078 62.6997 28.5483 63.7402 29.8318 63.7402Z" stroke="#F57A00" stroke-width="2" stroke-miterlimit="10" stroke-linecap="round" stroke-linejoin="round"/>
<path d="M39.6911 63.7402C40.9746 63.7402 42.0151 62.6997 42.0151 61.4162C42.0151 60.1328 40.9746 59.0923 39.6911 59.0923C38.4077 59.0923 37.3672 60.1328 37.3672 61.4162C37.3672 62.6997 38.4077 63.7402 39.6911 63.7402Z" stroke="#F57A00" stroke-width="2" stroke-miterlimit="10" stroke-linecap="round" stroke-linejoin="round"/>
<path d="M39.2984 40.7725V39.7948C39.2984 39.2623 38.9777 38.7823 38.4857 38.5786L38.3078 38.5049C37.816 38.3013 37.2498 38.4138 36.8733 38.7903L36.182 39.4815C35.668 39.9956 34.8344 39.9956 34.3203 39.4815L32.615 37.7763C32.1009 37.2623 32.1009 36.4287 32.615 35.9146L33.3063 35.2234C33.6827 34.8469 33.7954 34.2807 33.5916 33.7889L33.518 33.611C33.3143 33.119 32.8341 32.7983 32.3018 32.7983H31.3242C30.5971 32.7983 30.0078 32.2089 30.0078 31.482V29.0703C30.0078 28.3432 30.5973 27.7539 31.3242 27.7539H32.3019C32.8343 27.7539 33.3144 27.4332 33.5181 26.9413L33.5918 26.7635C33.7954 26.2717 33.6829 25.7055 33.3064 25.329L32.6151 24.6377C32.1011 24.1237 32.1011 23.2901 32.6151 22.7761L34.3205 21.0707C34.8346 20.5566 35.6681 20.5566 36.1822 21.0707L36.8734 21.762C37.2499 22.1384 37.8161 22.2511 38.308 22.0473L38.4858 21.9737C38.9778 21.7699 39.2985 21.2899 39.2985 20.7575V19.7797C39.2985 19.0527 39.888 18.4634 40.6149 18.4634H43.0265C43.7536 18.4634 44.3429 19.0528 44.3429 19.7797V20.7575C44.3429 21.2899 44.6636 21.77 45.1556 21.9737L45.3333 22.0473C45.8251 22.251 46.3913 22.1384 46.7678 21.762L47.4591 21.0707C47.9732 20.5566 48.8067 20.5566 49.3208 21.0707L51.0261 22.7761C51.5402 23.2901 51.5402 24.1237 51.0261 24.6377L50.3349 25.329C49.9584 25.7055 49.8457 26.2717 50.0495 26.7637L50.1232 26.9415C50.327 27.4335 50.807 27.7542 51.3394 27.7542H52.317C53.044 27.7542 53.6333 28.3437 53.6333 29.0706V31.4823C53.6333 32.2093 53.0439 32.7986 52.317 32.7986H51.3394C50.807 32.7986 50.327 33.1193 50.1232 33.6113L50.0495 33.7892C49.8457 34.2811 49.9584 34.8473 50.3349 35.2238L51.0261 35.9151C51.5402 36.4292 51.5402 37.2627 51.0261 37.7768L49.3208 39.4821C48.8067 39.9962 47.9732 39.9962 47.4591 39.4821L46.7678 38.7908C46.3913 38.4144 45.8251 38.3017 45.3333 38.5055L45.1556 38.5792C44.6636 38.783 44.3429 39.263 44.3429 39.7953V40.7731C44.3429 41.5001 43.7534 42.0894 43.0265 42.0894H40.6149C39.8877 42.0889 39.2984 41.4996 39.2984 40.7725Z" stroke="#F57A00" stroke-width="2" stroke-miterlimit="10" stroke-linecap="round" stroke-linejoin="round"/>
<path d="M41.8229 34.5233C44.1695 34.5233 46.0717 32.6211 46.0717 30.2746C46.0717 27.9281 44.1695 26.0259 41.8229 26.0259C39.4764 26.0259 37.5742 27.9281 37.5742 30.2746C37.5742 32.6211 39.4764 34.5233 41.8229 34.5233Z" stroke="#F57A00" stroke-width="2" stroke-miterlimit="10" stroke-linecap="round" stroke-linejoin="round"/>
<path d="M40.4688 14.022H48.4265" stroke="#F57A00" stroke-width="2" stroke-miterlimit="10" stroke-linecap="round" stroke-linejoin="round"/>
<path d="M48.4251 20.6859V5.21998C48.4251 2.88632 46.5334 0.994629 44.1997 0.994629H5.60816C3.2745 0.994629 1.38281 2.88632 1.38281 5.21998V25.0087" stroke="#F57A00" stroke-width="2" stroke-miterlimit="10" stroke-linecap="round" stroke-linejoin="round"/>
<path d="M1.38281 29.938V66.769C1.38281 69.1026 3.2745 70.9943 5.60816 70.9943H44.1997C46.5334 70.9943 48.4251 69.1026 48.4251 66.769V39.8648" stroke="#F57A00" stroke-width="2" stroke-miterlimit="10" stroke-linecap="round" stroke-linejoin="round"/>
<path d="M30.2682 28.2871C28.7803 27.6605 27.3893 26.7979 26.1558 25.7146L24.9023 24.6138L23.6487 25.7146C20.9964 28.0442 17.6209 29.3684 14.1016 29.4695V33.2941C14.1016 36.3462 15.0303 39.2925 16.718 41.7656" stroke="#F57A00" stroke-width="2" stroke-miterlimit="10" stroke-linecap="round" stroke-linejoin="round"/>
<path d="M20.1016 45.3645L24.9017 49.5618L30.5662 44.6087C32.1968 43.1829 33.48 41.4401 34.3559 39.5125C34.3444 39.5018 34.3323 39.4922 34.321 39.481" stroke="#F57A00" stroke-width="2" stroke-miterlimit="10" stroke-linecap="round" stroke-linejoin="round"/>
<path d="M1.38281 14.022H35.5377" stroke="#F57A00" stroke-width="2" stroke-miterlimit="10" stroke-linecap="round" stroke-linejoin="round"/>
</svg>
