<svg width="74" height="84" viewBox="0 0 74 84" fill="none" xmlns="http://www.w3.org/2000/svg">
<path d="M19.6465 22.7227H11.9355C11.5875 22.7227 11.2536 22.8609 11.0075 23.1071C10.7613 23.3532 10.623 23.6871 10.623 24.0352V31.7461C10.623 32.0942 10.7613 32.428 11.0075 32.6742C11.2536 32.9203 11.5875 33.0586 11.9355 33.0586H19.6465C19.9946 33.0586 20.3284 32.9203 20.5746 32.6742C20.8207 32.428 20.959 32.0942 20.959 31.7461V24.0352C20.959 23.6871 20.8207 23.3532 20.5746 23.1071C20.3284 22.8609 19.9946 22.7227 19.6465 22.7227ZM18.334 30.4336H13.248V25.3477H18.334V30.4336ZM26.8652 24.0353C26.8652 23.6872 27.0035 23.3534 27.2497 23.1072C27.4958 22.8611 27.8296 22.7228 28.1777 22.7228H47.7832C48.1313 22.7228 48.4651 22.8611 48.7113 23.1072C48.9574 23.3534 49.0957 23.6872 49.0957 24.0353C49.0957 24.3834 48.9574 24.7173 48.7113 24.9634C48.4651 25.2095 48.1313 25.3478 47.7832 25.3478H28.1777C27.8296 25.3478 27.4958 25.2095 27.2497 24.9634C27.0035 24.7173 26.8652 24.3834 26.8652 24.0353ZM26.8652 31.7461C26.8652 31.398 27.0035 31.0642 27.2497 30.818C27.4958 30.5719 27.8296 30.4336 28.1777 30.4336H47.7832C48.1313 30.4336 48.4651 30.5719 48.7113 30.818C48.9574 31.0642 49.0957 31.398 49.0957 31.7461C49.0957 32.0942 48.9574 32.428 48.7113 32.6742C48.4651 32.9203 48.1313 33.0586 47.7832 33.0586H28.1777C27.8296 33.0586 27.4958 32.9203 27.2497 32.6742C27.0035 32.428 26.8652 32.0942 26.8652 31.7461ZM19.6465 40.2773H11.9355C11.5875 40.2773 11.2536 40.4156 11.0075 40.6618C10.7613 40.9079 10.623 41.2417 10.623 41.5898V49.3008C10.623 49.6489 10.7613 49.9827 11.0075 50.2289C11.2536 50.475 11.5875 50.6133 11.9355 50.6133H19.6465C19.9946 50.6133 20.3284 50.475 20.5746 50.2289C20.8207 49.9827 20.959 49.6489 20.959 49.3008V41.5898C20.959 41.2417 20.8207 40.9079 20.5746 40.6618C20.3284 40.4156 19.9946 40.2773 19.6465 40.2773ZM18.334 47.9883H13.248V42.9023H18.334V47.9883ZM26.8652 41.5898C26.8652 41.2417 27.0035 40.9079 27.2497 40.6618C27.4958 40.4156 27.8296 40.2773 28.1777 40.2773H47.7832C48.1313 40.2773 48.4651 40.4156 48.7113 40.6618C48.9574 40.9079 49.0957 41.2417 49.0957 41.5898C49.0957 41.9379 48.9574 42.2718 48.7113 42.5179C48.4651 42.7641 48.1313 42.9023 47.7832 42.9023H28.1777C27.8296 42.9023 27.4958 42.7641 27.2497 42.5179C27.0035 42.2718 26.8652 41.9379 26.8652 41.5898ZM26.8652 49.3008C26.8652 48.9527 27.0035 48.6188 27.2497 48.3727C27.4958 48.1266 27.8296 47.9883 28.1777 47.9883H47.7832C48.1313 47.9883 48.4651 48.1266 48.7113 48.3727C48.9574 48.6188 49.0957 48.9527 49.0957 49.3008C49.0957 49.6489 48.9574 49.9827 48.7113 50.2289C48.4651 50.475 48.1313 50.6133 47.7832 50.6133H28.1777C27.8296 50.6133 27.4958 50.475 27.2497 50.2289C27.0035 49.9827 26.8652 49.6489 26.8652 49.3008ZM19.6465 57.832H11.9355C11.5875 57.832 11.2536 57.9703 11.0075 58.2165C10.7613 58.4626 10.623 58.7964 10.623 59.1445V66.8555C10.623 67.2036 10.7613 67.5374 11.0075 67.7835C11.2536 68.0297 11.5875 68.168 11.9355 68.168H19.6465C19.9946 68.168 20.3284 68.0297 20.5746 67.7835C20.8207 67.5374 20.959 67.2036 20.959 66.8555V59.1445C20.959 58.7964 20.8207 58.4626 20.5746 58.2165C20.3284 57.9703 19.9946 57.832 19.6465 57.832ZM18.334 65.543H13.248V60.457H18.334V65.543ZM40.9005 59.1445C40.9005 59.4926 40.7622 59.8265 40.516 60.0726C40.2699 60.3188 39.9361 60.457 39.588 60.457H28.1777C27.8296 60.457 27.4958 60.3188 27.2497 60.0726C27.0035 59.8265 26.8652 59.4926 26.8652 59.1445C26.8652 58.7964 27.0035 58.4626 27.2497 58.2165C27.4958 57.9703 27.8296 57.832 28.1777 57.832H39.588C39.9361 57.832 40.2699 57.9703 40.516 58.2165C40.7622 58.4626 40.9005 58.7964 40.9005 59.1445ZM40.9005 66.8553C40.9005 67.2034 40.7622 67.5372 40.516 67.7834C40.2699 68.0295 39.9361 68.1678 39.588 68.1678H28.1777C27.8296 68.1678 27.4958 68.0295 27.2497 67.7834C27.0035 67.5372 26.8652 67.2034 26.8652 66.8553C26.8652 66.5072 27.0035 66.1734 27.2497 65.9272C27.4958 65.6811 27.8296 65.5428 28.1777 65.5428H39.588C39.9361 65.5428 40.2699 65.6811 40.516 65.9272C40.7622 66.1734 40.9005 66.5072 40.9005 66.8553ZM66.2852 63.8284C66.5325 64.0732 66.6725 64.4064 66.6742 64.7544C66.676 65.1025 66.5394 65.437 66.2945 65.6844L57.3549 74.7132C57.2333 74.8361 57.0885 74.9337 56.929 75.0005C56.7695 75.0672 56.5984 75.1018 56.4255 75.1022H56.4222C56.0742 75.1022 55.7403 74.9639 55.4941 74.7178L50.5227 69.7462C50.3996 69.6246 50.3018 69.4799 50.2348 69.3204C50.1679 69.1608 50.1331 68.9896 50.1326 68.8166C50.1321 68.6435 50.1658 68.4721 50.2317 68.3121C50.2977 68.1522 50.3946 68.0068 50.517 67.8845C50.6393 67.7621 50.7847 67.6652 50.9446 67.5992C51.1046 67.5332 51.276 67.4995 51.449 67.5C51.6221 67.5005 51.7933 67.5353 51.9528 67.6022C52.1124 67.6691 52.2571 67.767 52.3788 67.89L56.4175 71.9289L64.4291 63.8374C64.5504 63.7149 64.6946 63.6175 64.8535 63.5507C65.0124 63.484 65.1829 63.4492 65.3553 63.4484C65.5277 63.4475 65.6985 63.4806 65.858 63.5458C66.0176 63.611 66.1627 63.707 66.2852 63.8284ZM59.7188 54.61V13.125C59.7188 10.592 57.658 8.53125 55.125 8.53125H43.8047V5.57812C43.8047 5.23003 43.6664 4.89619 43.4203 4.65005C43.1741 4.40391 42.8403 4.26562 42.4922 4.26562H36.2334C35.1875 1.70937 32.6973 0 29.8594 0C27.0214 0 24.5313 1.7092 23.4854 4.26562H17.2266C16.8785 4.26562 16.5446 4.40391 16.2985 4.65005C16.0523 4.89619 15.9141 5.23003 15.9141 5.57812V8.53125H4.59375C2.06079 8.53125 0 10.592 0 13.125V73.5C0 76.033 2.06079 78.0938 4.59375 78.0938H46.6213C49.3096 81.6774 53.5917 84 58.4062 84C66.5254 84 73.1309 77.3945 73.1309 69.2754C73.1309 61.5986 67.2253 55.2763 59.7188 54.61ZM18.5391 6.89062H24.4369C24.7315 6.89062 25.0176 6.79151 25.249 6.60923C25.4804 6.42696 25.6438 6.17213 25.7129 5.88574C26.1758 3.96588 27.8809 2.625 29.8594 2.625C31.8378 2.625 33.5429 3.96588 34.0059 5.88574C34.0749 6.17213 34.2383 6.42696 34.4698 6.60923C34.7012 6.79151 34.9872 6.89062 35.2818 6.89062H41.1797V12.7969H18.5391V6.89062ZM4.59375 75.4688C3.50815 75.4688 2.625 74.5856 2.625 73.5V13.125C2.625 12.0394 3.50815 11.1562 4.59375 11.1562H15.9141V14.1094C15.9141 14.4575 16.0523 14.7913 16.2985 15.0375C16.5446 15.2836 16.8785 15.4219 17.2266 15.4219H42.4922C42.8403 15.4219 43.1741 15.2836 43.4203 15.0375C43.6664 14.7913 43.8047 14.4575 43.8047 14.1094V11.1562H55.125C56.2106 11.1562 57.0938 12.0394 57.0938 13.125V54.61C49.5871 55.2763 43.6816 61.5986 43.6816 69.2754C43.6816 71.4866 44.1725 73.585 45.0494 75.4688H4.59375ZM58.4062 81.375C51.7345 81.375 46.3066 75.9472 46.3066 69.2754C46.3066 62.6036 51.7345 57.1758 58.4062 57.1758C65.078 57.1758 70.5059 62.6036 70.5059 69.2754C70.5059 75.9472 65.078 81.375 58.4062 81.375Z" fill="#F57A00"/>
</svg>
