<svg width="88" height="89" viewBox="0 0 88 89" fill="none" xmlns="http://www.w3.org/2000/svg">
<path d="M44.3458 45.0056C43.9678 45.0056 43.6053 45.1557 43.3381 45.423C43.0708 45.6903 42.9207 46.0527 42.9207 46.4307V63.6776C42.9207 64.0556 43.0708 64.4181 43.3381 64.6853C43.6053 64.9526 43.9678 65.1027 44.3458 65.1027H49.7182C50.0962 65.1027 50.4587 64.9526 50.7259 64.6853C50.9932 64.4181 51.1433 64.0556 51.1433 63.6776V46.4307C51.1433 46.0527 50.9932 45.6903 50.7259 45.423C50.4587 45.1557 50.0962 45.0056 49.7182 45.0056H44.3458ZM48.2933 62.2525H45.771V47.8558H48.2933V62.2525ZM34.3701 49.5615C33.9921 49.5615 33.6296 49.7116 33.3624 49.9789C33.0951 50.2461 32.945 50.6086 32.945 50.9866V63.6776C32.945 64.0556 33.0951 64.4181 33.3624 64.6853C33.6296 64.9526 33.9921 65.1027 34.3701 65.1027H39.7425C40.1205 65.1027 40.4829 64.9526 40.7502 64.6853C41.0175 64.4181 41.1676 64.0556 41.1676 63.6776V50.9866C41.1676 50.6086 41.0175 50.2461 40.7502 49.9789C40.4829 49.7116 40.1205 49.5615 39.7425 49.5615H34.3701ZM38.3176 62.2525H35.7953V52.4117H38.3176V62.2525ZM61.119 63.6776V42.3321C61.119 41.9541 60.9689 41.5917 60.7016 41.3244C60.4344 41.0571 60.0719 40.907 59.6939 40.907H54.3213C53.9433 40.907 53.5809 41.0571 53.3136 41.3244C53.0463 41.5917 52.8962 41.9541 52.8962 42.3321V63.6776C52.8962 64.0556 53.0463 64.4181 53.3136 64.6853C53.5809 64.9526 53.9433 65.1027 54.3213 65.1027H59.6939C60.0719 65.1027 60.4344 64.9526 60.7016 64.6853C60.9689 64.4181 61.119 64.0556 61.119 63.6776ZM58.2688 62.2525H55.7464V43.7572H58.2688V62.2525ZM51.7655 31.8877L56.0583 32.1847C56.2688 32.1992 56.4735 32.2603 56.6576 32.3636C56.8416 32.4669 57.0004 32.6098 57.1225 32.7819C57.2446 32.954 57.3269 33.1511 57.3635 33.359C57.4002 33.5668 57.3902 33.7802 57.3343 33.9837L56.1951 38.133C56.1125 38.434 55.9333 38.6995 55.6852 38.8888C55.4371 39.0782 55.1338 39.1809 54.8217 39.1812C54.6939 39.1811 54.5667 39.1639 54.4435 39.1299C54.079 39.0298 53.7692 38.7891 53.5823 38.4607C53.3953 38.1322 53.3464 37.7429 53.4465 37.3784L53.5539 36.9873C48.3043 40.4624 42.6698 43.563 36.7544 46.2264C36.5709 46.3094 36.3718 46.3524 36.1703 46.3525C35.8442 46.3527 35.5279 46.241 35.2741 46.0362C35.0204 45.8313 34.8445 45.5456 34.776 45.2268C34.7074 44.908 34.7503 44.5753 34.8974 44.2842C35.0445 43.9932 35.287 43.7614 35.5844 43.6275C41.2839 41.0613 46.7148 38.0814 51.7786 34.7454L51.5689 34.731C51.3808 34.7199 51.1968 34.6717 51.0275 34.5891C50.8582 34.5065 50.7069 34.3911 50.5825 34.2496C50.458 34.1082 50.3629 33.9435 50.3025 33.765C50.2421 33.5866 50.2177 33.3979 50.2307 33.21C50.2437 33.022 50.2939 32.8385 50.3782 32.6701C50.4626 32.5016 50.5796 32.3516 50.7223 32.2286C50.865 32.1057 51.0307 32.0122 51.2098 31.9537C51.3889 31.8952 51.5778 31.8728 51.7655 31.8877ZM28.2314 17.18L29.6628 17.7308C29.8935 18.4872 30.197 19.2195 30.5691 19.9174L29.9462 21.32C29.8293 21.5832 29.7949 21.8757 29.8475 22.1588C29.9001 22.442 30.0372 22.7025 30.2408 22.9062L32.6724 25.3378C32.876 25.5414 33.1366 25.6786 33.4197 25.7312C33.7029 25.7839 33.9953 25.7495 34.2585 25.6326L35.6619 25.0093C36.3596 25.3813 37.0916 25.6848 37.8478 25.9155L38.3992 27.3475C38.5026 27.6163 38.6851 27.8474 38.9225 28.0104C39.1599 28.1734 39.4412 28.2607 39.7291 28.2606H43.1681C43.4561 28.2607 43.7373 28.1734 43.9747 28.0104C44.2122 27.8474 44.3946 27.6163 44.4981 27.3475L45.0491 25.9162C45.8055 25.6853 46.5378 25.3817 47.2357 25.0096L48.6383 25.6326C48.9015 25.7495 49.194 25.7839 49.4771 25.7313C49.7603 25.6787 50.0208 25.5416 50.2245 25.3379L52.6561 22.9064C52.8597 22.7027 52.9968 22.4421 53.0494 22.159C53.102 21.8759 53.0676 21.5834 52.9507 21.3202L52.3274 19.9169C52.6995 19.2193 53.003 18.4873 53.2338 17.7311L54.6658 17.18C54.9346 17.0765 55.1657 16.894 55.3287 16.6566C55.4917 16.4192 55.5789 16.138 55.5789 15.85V12.411C55.5789 12.123 55.4917 11.8418 55.3287 11.6044C55.1657 11.367 54.9346 11.1845 54.6658 11.0811L53.2343 10.5301C53.0036 9.77358 52.7 9.04127 52.3278 8.34343L52.9507 6.94078C53.0676 6.67758 53.102 6.38515 53.0494 6.102C52.9968 5.81886 52.8597 5.55829 52.6561 5.35464L50.2245 2.92288C50.0209 2.71919 49.7603 2.582 49.4771 2.5294C49.194 2.4768 48.9015 2.51126 48.6383 2.62824L47.235 3.25155C46.5373 2.87959 45.8053 2.57611 45.0491 2.34536L44.4979 0.91349C44.3946 0.644646 44.2122 0.413436 43.9748 0.250357C43.7374 0.0872768 43.4561 -1.29697e-05 43.1681 1.44541e-09H39.7291C39.4412 -2.48655e-06 39.1599 0.0872477 38.9225 0.250253C38.6851 0.413259 38.5026 0.64437 38.3992 0.913134L37.8478 2.34518C37.0916 2.57596 36.3596 2.87944 35.6619 3.25137L34.2585 2.62806C33.9953 2.51116 33.7029 2.47674 33.4198 2.52933C33.1366 2.58193 32.8761 2.71908 32.6724 2.9227L30.2408 5.35446C30.0372 5.55811 29.9001 5.81868 29.8475 6.10182C29.7949 6.38497 29.8293 6.67741 29.9462 6.9406L30.5693 8.34379C30.1973 9.04149 29.8937 9.77361 29.6629 10.5299L28.2313 11.0811C27.9625 11.1845 27.7314 11.367 27.5684 11.6044C27.4054 11.8418 27.3181 12.123 27.3181 12.411V15.85C27.3182 16.138 27.4054 16.4192 27.5685 16.6566C27.7315 16.894 27.9627 17.0765 28.2314 17.18ZM30.1683 13.3895L31.3604 12.9307C31.5765 12.8475 31.769 12.7129 31.9213 12.5387C32.0737 12.3644 32.1813 12.1556 32.2349 11.9304C32.4666 10.9562 32.8526 10.0252 33.3782 9.17284C33.4996 8.97572 33.5711 8.75199 33.5867 8.52101C33.6022 8.29002 33.5612 8.05873 33.4673 7.84714L32.9482 6.6782L33.996 5.63022L35.1649 6.14931C35.3764 6.24332 35.6077 6.28435 35.8387 6.26886C36.0696 6.25338 36.2933 6.18183 36.4904 6.06042C37.3429 5.53483 38.2739 5.14887 39.2482 4.91713C39.4734 4.86355 39.6821 4.75592 39.8563 4.60355C40.0306 4.45119 40.1651 4.25867 40.2482 4.04266L40.7077 2.8502H42.1896L42.6485 4.04248C42.7316 4.2585 42.8661 4.45101 43.0404 4.60337C43.2146 4.75574 43.4234 4.86337 43.6485 4.91696C44.6228 5.1487 45.5538 5.53467 46.4063 6.06024C46.6034 6.18164 46.8271 6.25317 47.058 6.26866C47.289 6.28415 47.5203 6.24312 47.7318 6.14913L48.9007 5.63004L49.9486 6.67785L49.4296 7.84625C49.3357 8.05783 49.2946 8.28913 49.3102 8.52012C49.3257 8.75111 49.3973 8.97484 49.5187 9.17195C50.0444 10.0247 50.4305 10.9559 50.6625 11.9304C50.716 12.1556 50.8236 12.3643 50.976 12.5386C51.1283 12.7129 51.3208 12.8474 51.5368 12.9305L52.7286 13.3892V14.8711L51.5363 15.33C51.3203 15.4131 51.1278 15.5476 50.9755 15.7218C50.8231 15.896 50.7155 16.1047 50.662 16.3299C50.43 17.3042 50.0439 18.2352 49.5183 19.0878C49.397 19.2849 49.3255 19.5086 49.31 19.7396C49.2946 19.9705 49.3355 20.2018 49.4295 20.4133L49.9486 21.5823L48.9007 22.6301L47.7323 22.1112C47.5208 22.0171 47.2895 21.9761 47.0585 21.9916C46.8275 22.0072 46.6037 22.0788 46.4066 22.2002C45.5539 22.7259 44.6226 23.112 43.648 23.3439C43.4229 23.3975 43.2141 23.5051 43.0399 23.6575C42.8657 23.8098 42.7312 24.0023 42.6481 24.2183L42.1894 25.4101H40.7075L40.2486 24.2178C40.1654 24.0018 40.0309 23.8093 39.8567 23.657C39.6825 23.5046 39.4738 23.397 39.2487 23.3433C38.2743 23.1114 37.3433 22.7254 36.4906 22.1999C36.2935 22.0785 36.0698 22.0071 35.8389 21.9916C35.608 21.9761 35.3768 22.0171 35.1653 22.111L33.9963 22.6302L32.9485 21.5824L33.4674 20.4142C33.5614 20.2026 33.6023 19.9713 33.5868 19.7403C33.5713 19.5093 33.4998 19.2855 33.3784 19.0883C32.8527 18.2355 32.4666 17.3043 32.2347 16.3297C32.1812 16.1045 32.0735 15.8958 31.9212 15.7215C31.7688 15.5473 31.5763 15.4128 31.3602 15.3296L30.1687 14.8709V13.3895H30.1683ZM41.4485 21.5529C45.5414 21.5529 48.8712 18.2233 48.8712 14.1304C48.8712 10.0375 45.5414 6.70777 41.4485 6.70777C37.3556 6.70777 34.0261 10.0377 34.0261 14.1306C34.0261 18.2233 37.3556 21.5529 41.4485 21.5529ZM41.4485 9.55815C43.9697 9.55815 46.021 11.6094 46.021 14.1306C46.021 16.6516 43.9697 18.7028 41.4485 18.7028C38.9274 18.7028 36.8763 16.6518 36.8763 14.1306C36.8763 11.6092 38.9272 9.55815 41.4485 9.55815ZM28.3574 48.4935C28.3574 40.6754 21.9968 34.3148 14.1787 34.3148C6.36058 34.3148 0 40.6754 0 48.4935C0 56.3116 6.36058 62.6722 14.1787 62.6722C21.9968 62.6722 28.3574 56.3116 28.3574 48.4935ZM2.88583 49.348C3.01812 49.5252 3.18992 49.669 3.38757 49.768C3.58521 49.8671 3.80323 49.9186 4.02431 49.9186H5.1252C5.50316 49.9186 5.86564 49.7685 6.1329 49.5012C6.40016 49.234 6.5503 48.8715 6.5503 48.4935C6.5503 48.1156 6.40016 47.7531 6.1329 47.4858C5.86564 47.2186 5.50316 47.0684 5.1252 47.0684H4.02431C3.80323 47.0684 3.58521 47.12 3.38757 47.219C3.18992 47.3181 3.01812 47.4619 2.88583 47.639C3.07181 45.1599 4.05798 42.9018 5.58782 41.1217C5.55779 41.3391 5.57854 41.5606 5.64845 41.7687C5.71836 41.9769 5.83553 42.166 5.99077 42.3212L6.76923 43.0995C6.9014 43.232 7.05844 43.3371 7.23135 43.4087C7.40426 43.4804 7.58962 43.5171 7.77678 43.5169C7.96398 43.5172 8.14939 43.4804 8.32234 43.4088C8.49529 43.3371 8.65235 43.2319 8.7845 43.0993C9.0517 42.8321 9.20179 42.4696 9.20175 42.0917C9.20172 41.7137 9.05157 41.3513 8.78432 41.0841L8.00586 40.3058C7.85059 40.1506 7.66151 40.0335 7.45343 39.9636C7.24535 39.8937 7.02392 39.8729 6.80646 39.9028C8.58677 38.373 10.8448 37.3866 13.3242 37.2007C13.147 37.333 13.0032 37.5048 12.9041 37.7025C12.805 37.9002 12.7534 38.1182 12.7534 38.3393V39.44C12.7534 39.818 12.9036 40.1805 13.1708 40.4477C13.4381 40.715 13.8005 40.8651 14.1785 40.8651C14.5565 40.8651 14.919 40.715 15.1862 40.4477C15.4535 40.1805 15.6036 39.818 15.6036 39.44V38.3393C15.6036 38.1182 15.552 37.9002 15.4529 37.7025C15.3538 37.5048 15.21 37.333 15.0329 37.2007C17.5122 37.3866 19.7704 38.373 21.5507 39.903C21.3332 39.8729 21.1117 39.8936 20.9036 39.9634C20.6954 40.0333 20.5063 40.1504 20.351 40.3056L19.5725 41.0839C19.3732 41.2832 19.2375 41.5371 19.1825 41.8135C19.1275 42.09 19.1557 42.3765 19.2635 42.6369C19.3714 42.8973 19.554 43.1199 19.7884 43.2765C20.0227 43.4331 20.2982 43.5167 20.5801 43.5167C20.7672 43.517 20.9526 43.4802 21.1255 43.4086C21.2984 43.337 21.4555 43.2319 21.5876 43.0993L22.3661 42.321C22.5213 42.1657 22.6385 41.9766 22.7084 41.7684C22.7783 41.5602 22.7991 41.3387 22.769 41.1211C24.299 42.9014 25.2854 45.1597 25.4712 47.639C25.3389 47.4619 25.167 47.318 24.9694 47.219C24.7717 47.1199 24.5536 47.0683 24.3325 47.0682H23.2318C22.8539 47.0682 22.4914 47.2184 22.2241 47.4856C21.9569 47.7529 21.8067 48.1154 21.8067 48.4933C21.8067 48.8713 21.9569 49.2338 22.2241 49.501C22.4914 49.7683 22.8539 49.9184 23.2318 49.9184H24.3325C24.5536 49.9184 24.7717 49.8669 24.9694 49.7678C25.1671 49.6687 25.3389 49.5248 25.4712 49.3477C25.2852 51.827 24.299 54.0853 22.769 55.8656C22.7991 55.648 22.7783 55.4265 22.7084 55.2183C22.6385 55.0101 22.5213 54.821 22.3661 54.6656L21.5876 53.8873C21.4558 53.7526 21.2986 53.6453 21.1251 53.5718C20.9515 53.4982 20.7651 53.4598 20.5766 53.4587C20.3881 53.4577 20.2013 53.494 20.027 53.5657C19.8527 53.6374 19.6943 53.7429 19.561 53.8762C19.4277 54.0095 19.3222 54.1679 19.2506 54.3422C19.179 54.5166 19.1426 54.7034 19.1437 54.8919C19.1448 55.0804 19.1832 55.2668 19.2568 55.4403C19.3304 55.6138 19.4377 55.771 19.5725 55.9028L20.351 56.6811C20.4831 56.8136 20.6402 56.9187 20.8131 56.9903C20.986 57.0619 21.1714 57.0987 21.3585 57.0985C21.4228 57.0985 21.4868 57.0926 21.5506 57.084C19.7703 58.6141 17.512 59.6002 15.0327 59.7862C15.2098 59.6539 15.3536 59.482 15.4527 59.2844C15.5518 59.0867 15.6034 58.8687 15.6034 58.6475V57.5468C15.6034 57.1689 15.4533 56.8064 15.186 56.5391C14.9188 56.2719 14.5563 56.1217 14.1783 56.1217C13.8004 56.1217 13.4379 56.2719 13.1706 56.5391C12.9034 56.8064 12.7532 57.1689 12.7532 57.5468V58.6475C12.7532 58.8687 12.8048 59.0867 12.9039 59.2844C13.003 59.4821 13.1468 59.6539 13.324 59.7862C10.8447 59.6002 8.58641 58.6141 6.80611 57.084C6.86988 57.0926 6.93383 57.0985 6.99796 57.0985C7.18512 57.0987 7.37048 57.062 7.5434 56.9903C7.71631 56.9187 7.87335 56.8136 8.00551 56.6811L8.78397 55.9028C8.91874 55.771 9.02604 55.6138 9.09965 55.4403C9.17325 55.2668 9.21171 55.0804 9.21278 54.8919C9.21385 54.7034 9.17752 54.5166 9.10589 54.3422C9.03426 54.1679 8.92876 54.0095 8.79549 53.8762C8.66222 53.7429 8.50383 53.6374 8.32949 53.5657C8.15516 53.494 7.96834 53.4577 7.77985 53.4587C7.59136 53.4598 7.40496 53.4982 7.23142 53.5718C7.05788 53.6453 6.90067 53.7526 6.76887 53.8873L5.99041 54.6656C5.83517 54.8209 5.71801 55.01 5.6481 55.2181C5.57819 55.4262 5.55743 55.6477 5.58747 55.8652C4.05798 54.0853 3.07181 51.8272 2.88583 49.348ZM12.7536 48.4935V43.6683C12.7536 43.2903 12.9037 42.9279 13.171 42.6606C13.4382 42.3933 13.8007 42.2432 14.1787 42.2432C14.5566 42.2432 14.9191 42.3933 15.1864 42.6606C15.4536 42.9279 15.6038 43.2903 15.6038 43.6683V47.6709L18.1129 49.1195C18.3847 49.2764 18.5972 49.5186 18.7173 49.8086C18.8373 50.0986 18.8583 50.4202 18.7769 50.7233C18.6955 51.0265 18.5163 51.2943 18.2672 51.4851C18.018 51.676 17.7128 51.7793 17.3989 51.7789C17.1492 51.7789 16.9039 51.7129 16.6878 51.5878L13.4661 49.7278C13.2495 49.6027 13.0696 49.4228 12.9445 49.2062C12.8194 48.9895 12.7536 48.7437 12.7536 48.4935ZM59.0364 82.1982C59.0987 82.3747 59.1256 82.5618 59.1156 82.7486C59.1057 82.9355 59.0589 83.1186 58.9782 83.2875C58.8974 83.4563 58.7842 83.6076 58.645 83.7327C58.5058 83.8578 58.3433 83.9542 58.1668 84.0165C54.0014 85.4865 49.6295 86.232 45.173 86.232C38.3616 86.232 31.6556 84.4508 25.7806 81.0808C20.0832 77.8128 15.2616 73.121 11.8374 67.5126C11.6405 67.1899 11.5799 66.8024 11.6687 66.435C11.7575 66.0676 11.9886 65.7506 12.3111 65.5536C12.6337 65.3567 13.0213 65.296 13.3886 65.3848C13.756 65.4737 14.073 65.7047 14.2701 66.0273C20.9048 76.894 32.4574 83.3816 45.1732 83.3816C49.3058 83.3816 53.3585 82.691 57.2185 81.3286C57.5749 81.203 57.9666 81.2241 58.3075 81.3871C58.6483 81.5502 58.9105 81.8419 59.0364 82.1982ZM58.0574 11.8314C58.2002 11.4815 58.4762 11.2026 58.8247 11.0562C59.1731 10.9098 59.5654 10.9078 59.9153 11.0506C67.0106 13.9469 73.0573 18.8322 77.4019 25.1782C81.8519 31.6784 84.2042 39.294 84.2042 47.2011C84.2042 50.9743 83.6663 54.7055 82.6055 58.2916C82.5182 58.5863 82.3381 58.8449 82.092 59.0289C81.8458 59.2129 81.5468 59.3125 81.2395 59.3127C81.0177 59.3128 80.799 59.2611 80.6007 59.1617C80.4024 59.0624 80.2301 58.9181 80.0973 58.7405C79.9646 58.5628 79.8752 58.3566 79.8362 58.1383C79.7972 57.9199 79.8097 57.6955 79.8726 57.4829C80.8558 54.1595 81.354 50.7003 81.354 47.201C81.354 32.4266 72.5161 19.2725 58.8382 13.6892C58.6649 13.6185 58.5072 13.5143 58.3742 13.3827C58.2412 13.2511 58.1354 13.0945 58.0629 12.922C57.9904 12.7495 57.9526 12.5644 57.9517 12.3772C57.9507 12.1901 57.9866 12.0046 58.0574 11.8314ZM10.0015 30.2588C12.7335 24.5972 16.8522 19.6167 21.9124 15.8557C22.216 15.6358 22.5941 15.5444 22.9647 15.6014C23.3353 15.6583 23.6685 15.859 23.8921 16.1599C24.1158 16.4608 24.2119 16.8377 24.1596 17.209C24.1073 17.5802 23.9108 17.9159 23.6127 18.1433C18.9202 21.6309 15.1013 26.2488 12.5685 31.4976C12.4872 31.6661 12.3734 31.817 12.2338 31.9416C12.0941 32.0662 11.9313 32.1621 11.7546 32.2237C11.5779 32.2854 11.3908 32.3117 11.2039 32.301C11.0171 32.2904 10.8342 32.243 10.6656 32.1617C10.4971 32.0803 10.3462 31.9666 10.2216 31.827C10.097 31.6873 10.0012 31.5245 9.93949 31.3478C9.87782 31.1711 9.85156 30.984 9.86221 30.7971C9.87285 30.6103 9.9202 30.4274 10.0015 30.2588ZM74.019 60.394C66.3098 60.394 60.0379 66.6659 60.0379 74.3751C60.0379 82.0844 66.3096 88.3563 74.019 88.3563C81.7281 88.3563 88 82.0844 88 74.3751C88 66.6659 81.7281 60.394 74.019 60.394ZM74.019 85.5061C67.8815 85.5061 62.8881 80.5127 62.8881 74.3751C62.8881 68.2376 67.8815 63.2442 74.019 63.2442C80.1566 63.2442 85.1498 68.2376 85.1498 74.3751C85.1498 80.5127 80.1566 85.5061 74.019 85.5061ZM79.4396 77.1427C79.5787 78.2886 79.2686 79.3377 78.543 80.1765C77.8299 81.0011 76.7191 81.5867 75.4441 81.8366V82.3206C75.4441 82.6986 75.294 83.0611 75.0267 83.3283C74.7595 83.5956 74.397 83.7457 74.019 83.7457C73.6411 83.7457 73.2786 83.5956 73.0113 83.3283C72.7441 83.0611 72.5939 82.6986 72.5939 82.3206V81.8126C70.6022 81.3633 69.0804 79.9915 68.6083 78.0975C68.5169 77.7308 68.5749 77.3427 68.7696 77.0188C68.9642 76.6948 69.2796 76.4614 69.6464 76.37C70.0131 76.2786 70.4012 76.3366 70.7251 76.5313C71.0491 76.726 71.2825 77.0414 71.3739 77.4081C71.699 78.7128 73.0664 79.1455 74.1489 79.12C75.0893 79.0976 75.9887 78.7728 76.3874 78.312C76.5833 78.0856 76.6519 77.8307 76.6102 77.4861C76.5623 77.0928 76.4506 76.1715 73.7996 75.7363C69.9609 75.1059 69.0634 73.0795 68.9863 71.4909C68.8819 69.3445 70.3255 67.5428 72.5938 66.963V66.4297C72.5938 66.0517 72.7439 65.6892 73.0112 65.422C73.2784 65.1547 73.6409 65.0046 74.0189 65.0046C74.3968 65.0046 74.7593 65.1547 75.0266 65.422C75.2938 65.6892 75.444 66.0517 75.444 66.4297V66.95C76.9118 67.3088 78.2967 68.2638 79.0293 70.009C79.1018 70.1815 79.1396 70.3667 79.1405 70.5538C79.1414 70.741 79.1054 70.9264 79.0347 71.0997C78.9639 71.2729 78.8597 71.4305 78.728 71.5635C78.5963 71.6965 78.4397 71.8022 78.2671 71.8746C77.9186 72.0209 77.5263 72.0227 77.1764 71.8798C76.8266 71.7369 76.5478 71.4608 76.4015 71.1124C75.8473 69.7924 74.4861 69.4544 73.3822 69.7042C73.113 69.7653 71.7738 70.1315 71.8331 71.3523C71.8488 71.6756 71.8905 72.5341 74.2613 72.9235C77.4204 73.4422 79.1629 74.8616 79.4396 77.1427Z" fill="#F57A00"/>
</svg>
