<svg width="78" height="78" viewBox="0 0 78 78" fill="none" xmlns="http://www.w3.org/2000/svg">
<path fill-rule="evenodd" clip-rule="evenodd" d="M54.2403 75.159C53.7994 76.6524 52.4155 77.7451 50.7812 77.7451H3.86084C1.87888 77.7451 0.254883 76.1275 0.254883 74.1391V12.2737C0.254883 10.2853 1.87245 8.6679 3.86084 8.6679H14.266V6.71104C14.266 6.41982 14.3817 6.14053 14.5876 5.93461C14.7936 5.72869 15.0728 5.613 15.3641 5.613H20.962C21.4828 2.56845 24.1316 0.254883 27.3211 0.254883C30.5103 0.254883 33.1628 2.56861 33.6842 5.613H39.2823C39.5736 5.613 39.8528 5.72869 40.0588 5.93461C40.2647 6.14053 40.3804 6.41982 40.3804 6.71104V8.6679H50.7812C52.7696 8.6679 54.3871 10.2853 54.3871 12.2737V38.4384C54.5466 38.3294 54.7049 38.2187 54.8621 38.1065C55.0483 37.9735 55.2715 37.9019 55.5004 37.9019H65.0822C65.311 37.9019 65.5341 37.9735 65.7203 38.1065C68.5882 40.1546 72.3791 42.0709 76.7338 42.4161C77.0091 42.438 77.2661 42.5627 77.4536 42.7656C77.641 42.9685 77.7451 43.2345 77.7451 43.5107V57.8012C77.7451 62.6955 75.2941 67.2135 71.882 70.7419C68.5194 74.2196 64.2353 76.7261 60.5757 77.7076C60.3893 77.7576 60.1931 77.7576 60.0067 77.7076C58.1766 77.2166 56.19 76.344 54.2403 75.159ZM14.266 10.864H3.86084C3.08343 10.864 2.45096 11.4963 2.45096 12.2737V74.1391C2.45096 74.9165 3.08594 75.549 3.86084 75.549H50.7812C51.5586 75.549 52.191 74.9165 52.191 74.1391V73.7854C51.1999 73.0567 50.258 72.2634 49.3714 71.4107V71.6314C49.3714 71.9226 49.2558 72.2019 49.0498 72.4078C48.8439 72.6137 48.5646 72.7294 48.2734 72.7294H6.36861C6.07739 72.7294 5.7981 72.6137 5.59218 72.4078C5.38626 72.2019 5.27057 71.9226 5.27057 71.6314V14.7816C5.27057 14.4904 5.38626 14.2111 5.59218 14.0052C5.7981 13.7993 6.07739 13.6836 6.36861 13.6836H14.266V10.864ZM38.1843 13.6836V7.80908H32.6792C32.388 7.80908 32.1087 7.69339 31.9028 7.48747C31.6968 7.28155 31.5812 7.00226 31.5812 6.71104C31.5812 4.35653 29.672 2.45096 27.3211 2.45096C24.9702 2.45096 23.0654 4.35684 23.0654 6.71104C23.0654 7.00226 22.9497 7.28155 22.7438 7.48747C22.5379 7.69339 22.2586 7.80908 21.9674 7.80908H16.4621V13.6836H38.1843ZM52.191 39.7935V12.2737C52.191 11.4963 51.5586 10.864 50.7812 10.864H40.3804V13.6836H48.2734C48.5646 13.6836 48.8439 13.7993 49.0498 14.0052C49.2558 14.2111 49.3714 14.4904 49.3714 14.7816V41.1194C50.3638 40.7324 51.3057 40.2817 52.191 39.7935ZM47.1754 69.0149C44.5816 65.7899 42.8373 61.9296 42.8373 57.8012V43.5107C42.8373 43.2345 42.9414 42.9685 43.1288 42.7656C43.3163 42.5627 43.5733 42.438 43.8486 42.4161C44.999 42.325 46.1103 42.1241 47.1754 41.8401V15.8797H7.46665V70.5333H47.1754V69.0149ZM45.0334 44.4993V57.8012C45.0334 62.1288 47.2627 66.0955 50.2798 69.2154C53.2594 72.2965 57.0202 74.5605 60.2914 75.5071C63.5633 74.5605 67.3241 72.2965 70.3034 69.2154C73.3203 66.0955 75.549 62.1288 75.549 57.8012V44.4993C71.3274 43.9479 67.6221 42.1106 64.7338 40.098H55.8486C52.9605 42.1106 49.255 43.9479 45.0334 44.4993ZM59.9633 73.7314C56.1521 72.5387 52.0779 69.631 49.432 65.9879C47.6201 63.4932 46.4803 60.6574 46.4803 57.7989V46.6965C46.4803 46.4394 46.5704 46.1904 46.7351 45.9931C46.8998 45.7957 47.1286 45.6623 47.3815 45.6163C50.477 45.0522 53.3874 43.7261 55.9961 41.9589C56.1778 41.8358 56.3924 41.7699 56.6119 41.7699H63.9725C64.1922 41.7699 64.4069 41.8358 64.5887 41.959C67.1953 43.7263 70.1056 45.0522 73.2011 45.6163C73.454 45.6624 73.6827 45.7957 73.8474 45.9931C74.012 46.1905 74.1022 46.4394 74.1023 46.6965V57.7989C74.1023 60.6583 72.9623 63.4941 71.1504 65.9888C68.5045 69.6318 64.4303 72.5387 60.6193 73.7314C60.4057 73.7983 60.1768 73.7983 59.9633 73.7314ZM60.2913 71.5285C63.6033 70.4008 67.0828 67.8522 69.3735 64.6983C70.9032 62.5921 71.9062 60.2128 71.9062 57.7989V47.5923C68.9562 46.9225 66.1689 45.6394 63.6389 43.9659H56.9456C54.4136 45.6394 51.6262 46.9225 48.6764 47.5923V57.7989C48.6764 60.2121 49.6794 62.5912 51.2089 64.6974C53.4998 67.8516 56.9791 70.4008 60.2913 71.5285ZM56.2085 59.7088H52.7605C52.4692 59.7088 52.1899 59.5932 51.984 59.3872C51.7781 59.1813 51.6624 58.902 51.6624 58.6108V52.6412C51.6624 52.35 51.7781 52.0707 51.984 51.8648C52.1899 51.6589 52.4692 51.5432 52.7605 51.5432H56.2085V48.0952C56.2085 47.804 56.3241 47.5247 56.5301 47.3188C56.736 47.1128 57.0153 46.9972 57.3065 46.9972H63.2761C63.5673 46.9972 63.8466 47.1128 64.0525 47.3188C64.2584 47.5247 64.3741 47.804 64.3741 48.0952V51.5432H67.8221C68.1133 51.5432 68.3926 51.6589 68.5985 51.8648C68.8045 52.0707 68.9201 52.35 68.9201 52.6412V58.6108C68.9201 58.902 68.8045 59.1813 68.5985 59.3872C68.3926 59.5932 68.1133 59.7088 67.8221 59.7088H64.3741V63.1568C64.3741 63.4481 64.2584 63.7274 64.0525 63.9333C63.8466 64.1392 63.5673 64.2549 63.2761 64.2549H57.3065C57.0153 64.2549 56.736 64.1392 56.5301 63.9333C56.3241 63.7274 56.2085 63.4481 56.2085 63.1568V59.7088ZM58.4045 58.6108V62.0588H62.178V58.6108C62.178 58.3196 62.2937 58.0403 62.4996 57.8344C62.7056 57.6285 62.9849 57.5128 63.2761 57.5128H66.7241V53.7393H63.2761C62.9849 53.7393 62.7056 53.6236 62.4996 53.4177C62.2937 53.2117 62.178 52.9325 62.178 52.6412V49.1932H58.4045V52.6412C58.4045 52.9325 58.2889 53.2117 58.0829 53.4177C57.877 53.6236 57.5977 53.7393 57.3065 53.7393H53.8585V57.5128H57.3065C57.5977 57.5128 57.877 57.6285 58.0829 57.8344C58.2889 58.0403 58.4045 58.3196 58.4045 58.6108ZM27.3211 8.12061C26.5429 8.12061 25.9115 7.48924 25.9115 6.71104C25.9115 5.93284 26.5429 5.29708 27.3211 5.29708C28.0991 5.29708 28.735 5.93284 28.735 6.71104C28.735 7.48924 28.0991 8.12061 27.3211 8.12061ZM21.1176 57.8235V65.1961C21.1176 65.4873 21.0019 65.7666 20.796 65.9725C20.5901 66.1784 20.3108 66.2941 20.0196 66.2941H12.647C12.3558 66.2941 12.0765 66.1784 11.8706 65.9725C11.6647 65.7666 11.549 65.4873 11.549 65.1961V57.8235C11.549 57.5323 11.6647 57.253 11.8706 57.0471C12.0765 56.8412 12.3558 56.7255 12.647 56.7255H20.0196C20.3108 56.7255 20.5901 56.8412 20.796 57.0471C21.0019 57.253 21.1176 57.5323 21.1176 57.8235ZM18.9216 58.9216H13.7451V64.098H18.9216V58.9216ZM21.1176 45.6405V53.013C21.1176 53.3042 21.0019 53.5835 20.796 53.7894C20.5901 53.9954 20.3108 54.111 20.0196 54.111H12.647C12.3558 54.111 12.0765 53.9954 11.8706 53.7894C11.6647 53.5835 11.549 53.3042 11.549 53.013V45.6405C11.549 45.3492 11.6647 45.0699 11.8706 44.864C12.0765 44.6581 12.3558 44.5424 12.647 44.5424H20.0196C20.3108 44.5424 20.5901 44.6581 20.796 44.864C21.0019 45.0699 21.1176 45.3492 21.1176 45.6405ZM18.9216 46.7385H13.7451V51.915H18.9216V46.7385ZM21.1176 33.4576V40.8301C21.1176 41.1213 21.0019 41.4006 20.796 41.6065C20.5901 41.8125 20.3108 41.9281 20.0196 41.9281H12.647C12.3558 41.9281 12.0765 41.8125 11.8706 41.6065C11.6647 41.4006 11.549 41.1213 11.549 40.8301V33.4576C11.549 33.1663 11.6647 32.887 11.8706 32.6811C12.0765 32.4752 12.3558 32.3595 12.647 32.3595H20.0196C20.3108 32.3595 20.5901 32.4752 20.796 32.6811C21.0019 32.887 21.1176 33.1663 21.1176 33.4576ZM18.9216 34.5556H13.7451V39.7321H18.9216V34.5556ZM25.5098 39.7843C24.9038 39.7843 24.4117 39.2922 24.4117 38.6863C24.4117 38.0803 24.9038 37.5882 25.5098 37.5882H40.098C40.704 37.5882 41.1961 38.0803 41.1961 38.6863C41.1961 39.2922 40.704 39.7843 40.098 39.7843H25.5098ZM25.5098 51.9412C24.9038 51.9412 24.4117 51.4491 24.4117 50.8431C24.4117 50.2372 24.9038 49.7451 25.5098 49.7451H40.098C40.704 49.7451 41.1961 50.2372 41.1961 50.8431C41.1961 51.4491 40.704 51.9412 40.098 51.9412H25.5098ZM25.5098 64.098C24.9038 64.098 24.4117 63.6059 24.4117 63C24.4117 62.394 24.9038 61.9019 25.5098 61.9019H40.098C40.704 61.9019 41.1961 62.394 41.1961 63C41.1961 63.6059 40.704 64.098 40.098 64.098H25.5098ZM21.1176 21.2745V28.647C21.1176 28.9383 21.0019 29.2176 20.796 29.4235C20.5901 29.6294 20.3108 29.7451 20.0196 29.7451H12.647C12.3558 29.7451 12.0765 29.6294 11.8706 29.4235C11.6647 29.2176 11.549 28.9383 11.549 28.647V21.2745C11.549 20.9833 11.6647 20.704 11.8706 20.4981C12.0765 20.2921 12.3558 20.1765 12.647 20.1765H20.0196C20.3108 20.1765 20.5901 20.2921 20.796 20.4981C21.0019 20.704 21.1176 20.9833 21.1176 21.2745ZM18.9216 22.3725H13.7451V27.549H18.9216V22.3725ZM25.5098 27.6274C24.9038 27.6274 24.4117 27.1354 24.4117 26.5294C24.4117 25.9234 24.9038 25.4314 25.5098 25.4314H40.098C40.704 25.4314 41.1961 25.9234 41.1961 26.5294C41.1961 27.1354 40.704 27.6274 40.098 27.6274H25.5098Z" fill="#F57A00"/>
</svg>
