<svg width="88" height="88" viewBox="0 0 88 88" fill="none" xmlns="http://www.w3.org/2000/svg">
<path d="M83.875 34.375H73.7937L71.8731 29.7385L79.0017 22.6102C79.1294 22.4825 79.2307 22.3309 79.2998 22.164C79.3689 21.9972 79.4045 21.8184 79.4045 21.6378C79.4045 21.4572 79.3689 21.2784 79.2998 21.1115C79.2307 20.9447 79.1294 20.7931 79.0017 20.6654L67.3344 8.99817C67.0766 8.74035 66.7269 8.5955 66.3622 8.5955C65.9976 8.5955 65.6479 8.74035 65.39 8.99817L58.2615 16.1267L53.625 14.2062V4.125C53.625 3.76033 53.4801 3.41059 53.2223 3.15273C52.9644 2.89487 52.6147 2.75 52.25 2.75H35.75C35.3853 2.75 35.0356 2.89487 34.7777 3.15273C34.5199 3.41059 34.375 3.76033 34.375 4.125V14.2062L29.7385 16.1267L22.61 8.99817C22.3521 8.74035 22.0024 8.5955 21.6378 8.5955C21.2731 8.5955 20.9234 8.74035 20.6656 8.99817L8.99835 20.6654C8.87063 20.7931 8.76932 20.9447 8.7002 21.1115C8.63108 21.2784 8.59551 21.4572 8.59551 21.6378C8.59551 21.8184 8.63108 21.9972 8.7002 22.164C8.76932 22.3309 8.87063 22.4825 8.99835 22.6102L16.1269 29.7385L14.2063 34.375H4.125C3.76033 34.375 3.41059 34.5199 3.15273 34.7777C2.89487 35.0356 2.75 35.3853 2.75 35.75V52.25C2.75 52.6147 2.89487 52.9644 3.15273 53.2223C3.41059 53.4801 3.76033 53.625 4.125 53.625H11.2712L8.86222 55.231C8.6739 55.3566 8.51949 55.5267 8.41269 55.7262C8.30589 55.9258 8.25001 56.1487 8.25 56.375V59.125C8.25 59.4897 8.39487 59.8394 8.65273 60.0973C8.91059 60.3551 9.26033 60.5 9.625 60.5H11V62.4173C11.002 65.1327 10.2642 67.7973 8.86583 70.125H8.25C7.88533 70.125 7.53559 70.2699 7.27773 70.5277C7.01987 70.7856 6.875 71.1353 6.875 71.5V73.1462C6.87558 73.6825 6.74346 74.2106 6.49041 74.6834C6.23736 75.1562 5.87125 75.559 5.42472 75.856C4.60119 76.4037 3.92598 77.1467 3.45929 78.0188C2.9926 78.8908 2.74893 79.8647 2.75 80.8538V83.875C2.75 84.2397 2.89487 84.5894 3.15273 84.8473C3.41059 85.1051 3.76033 85.25 4.125 85.25H52.25C52.6147 85.25 52.9644 85.1051 53.2223 84.8473C53.4801 84.5894 53.625 84.2397 53.625 83.875V73.7938L58.2615 71.8733L65.39 79.0018C65.6479 79.2597 65.9976 79.4045 66.3622 79.4045C66.7269 79.4045 67.0766 79.2597 67.3344 79.0018L79.0017 67.3346C79.1294 67.2069 79.2307 67.0553 79.2998 66.8885C79.3689 66.7216 79.4045 66.5428 79.4045 66.3622C79.4045 66.1816 79.3689 66.0028 79.2998 65.836C79.2307 65.6691 79.1294 65.5175 79.0017 65.3898L71.8731 58.2615L73.7937 53.625H83.875C84.2397 53.625 84.5894 53.4801 84.8473 53.2223C85.1051 52.9644 85.25 52.6147 85.25 52.25V35.75C85.25 35.3853 85.1051 35.0356 84.8473 34.7777C84.5894 34.5199 84.2397 34.375 83.875 34.375ZM66.3621 11.9149L76.0851 21.6379L69.6845 28.0381C67.2263 24.0991 63.9009 20.7737 59.9619 18.3155L66.3621 11.9149ZM5.5 37.125H15.125C15.3969 37.125 15.6628 37.0444 15.8889 36.8933C16.115 36.7422 16.2912 36.5275 16.3953 36.2763L19.019 29.9422C19.1231 29.6909 19.1504 29.4144 19.0973 29.1477C19.0443 28.8809 18.9133 28.6359 18.721 28.4436L11.9151 21.6379L21.6379 11.9149L28.4436 18.721C28.6358 18.9133 28.8808 19.0443 29.1476 19.0974C29.4143 19.1504 29.6908 19.123 29.942 19.0188L36.2761 16.3953C36.5274 16.2913 36.7422 16.1151 36.8933 15.8889C37.0444 15.6628 37.125 15.397 37.125 15.125V5.5H50.875V14.5386C48.6211 14.0134 46.3143 13.7488 44 13.75V16.5C59.1635 16.5 71.5 28.8363 71.5 44C71.4997 50.5788 69.1413 56.9395 64.8526 61.9283C60.564 66.9171 54.6292 70.2033 48.125 71.191V60.5C48.1244 60.3288 48.0917 60.1592 48.0288 60C50.5578 59.3631 52.8999 58.1358 54.8628 56.4187C56.8258 54.7016 58.3538 52.5436 59.3215 50.1218C60.2892 47.7 60.669 45.0832 60.4297 42.4862C60.1905 39.8892 59.339 37.3859 57.9452 35.1816C56.5514 32.9773 54.6549 31.1348 52.4113 29.8052C50.1676 28.4756 47.6408 27.6968 45.0379 27.5326C42.4351 27.3685 39.8304 27.8237 37.4375 28.8609C35.0446 29.8981 32.9317 31.4877 31.272 33.4995L33.3924 35.2505C34.8228 33.5155 36.6568 32.1577 38.7339 31.2962C40.8109 30.4346 43.0676 30.0956 45.3061 30.3089C47.5446 30.5221 49.6966 31.2811 51.5737 32.5193C53.4507 33.7575 54.9954 35.4371 56.0725 37.411C57.1496 39.3849 57.7261 41.5929 57.7516 43.8413C57.7771 46.0898 57.2508 48.3103 56.2187 50.3081C55.1867 52.3059 53.6805 54.0202 51.832 55.3006C49.9835 56.581 47.8492 57.3886 45.6161 57.6525L41.0855 53.625H48.125C48.4897 53.625 48.8394 53.4801 49.0973 53.2223C49.3551 52.9644 49.5 52.6147 49.5 52.25V48.125C49.5 47.9444 49.4645 47.7656 49.3954 47.5988C49.3263 47.432 49.225 47.2804 49.0973 47.1527L42.625 40.6806V37.125C42.625 36.7603 42.4801 36.4106 42.2223 36.1527C41.9644 35.8949 41.6147 35.75 41.25 35.75C39.8829 35.7487 38.5445 36.1428 37.3963 36.8848C36.248 37.6268 35.3388 38.685 34.7782 39.9319C32.7735 40.1723 30.9262 41.1385 29.5852 42.6481C28.2442 44.1576 27.5025 46.1059 27.5 48.125V64.625C27.5 64.7999 27.5334 64.9731 27.5983 65.1355L30.25 71.7647V73.1462C30.2506 73.6825 30.1185 74.2105 29.8655 74.6833C29.6124 75.1561 29.2464 75.559 28.7999 75.856C28.5863 75.999 28.382 76.1556 28.1884 76.3247C27.9942 76.1555 27.7893 75.999 27.5751 75.856C27.1286 75.559 26.7625 75.1562 26.5095 74.6833C26.2565 74.2105 26.1244 73.6825 26.125 73.1462V71.5C26.125 71.1353 25.9801 70.7856 25.7223 70.5277C25.4644 70.2699 25.1147 70.125 24.75 70.125H24.1342C22.7358 67.7973 21.998 65.1327 22 62.4173V60.5H23.375C23.7397 60.5 24.0894 60.3551 24.3473 60.0973C24.6051 59.8394 24.75 59.4897 24.75 59.125V56.375C24.75 56.1486 24.6941 55.9258 24.5872 55.7262C24.4804 55.5267 24.326 55.3565 24.1376 55.231L21.1154 53.2161C22.053 52.3668 22.7381 51.2753 23.0953 50.0616C23.4524 48.848 23.4678 47.5594 23.1397 46.3376C22.8116 45.1158 22.1527 44.0082 21.2356 43.1368C20.3185 42.2654 19.1787 41.6639 17.9418 41.3986C16.7048 41.1332 15.4187 41.2144 14.2248 41.633C13.031 42.0517 11.9759 42.7916 11.1756 43.7714C10.3752 44.7511 9.86075 45.9327 9.68876 47.186C9.51678 48.4394 9.69395 49.7159 10.2008 50.875H5.5V37.125ZM49.5753 75.856C48.9066 75.4111 48.4263 74.7345 48.2271 73.9564C49.1198 73.8314 50.0025 73.6671 50.875 73.4635V77.0308C50.5014 76.5778 50.0636 76.182 49.5753 75.856ZM32.5559 70.125L30.25 64.3601V48.125C30.2516 46.6668 30.8316 45.2688 31.8627 44.2377C32.8938 43.2066 34.2918 42.6266 35.75 42.625C36.0386 42.625 36.3199 42.5342 36.554 42.3655C36.7882 42.1968 36.9633 41.9586 37.0545 41.6848L37.125 41.4731C37.3379 40.8323 37.6973 40.25 38.1747 39.7724C38.6521 39.2948 39.2343 38.9352 39.875 38.7221V41.25C39.875 41.4306 39.9106 41.6094 39.9797 41.7762C40.0487 41.943 40.15 42.0946 40.2777 42.2223L46.75 48.6944V50.875H37.9916L35.2885 48.4722L33.4615 50.5278L45.375 61.1175V70.125H32.5559ZM12.375 48.125C12.375 47.3092 12.6169 46.5116 13.0702 45.8333C13.5235 45.1549 14.1677 44.6262 14.9214 44.314C15.6752 44.0018 16.5046 43.9201 17.3048 44.0793C18.1049 44.2384 18.8399 44.6313 19.4168 45.2082C19.9937 45.7851 20.3866 46.5201 20.5457 47.3203C20.7049 48.1204 20.6232 48.9498 20.311 49.7036C19.9988 50.4573 19.4701 51.1016 18.7917 51.5548C18.1134 52.0081 17.3159 52.25 16.5 52.25C15.4064 52.2488 14.3579 51.8138 13.5845 51.0405C12.8112 50.2671 12.3762 49.2186 12.375 48.125ZM11 57.1108L14.1663 55H18.8337L22 57.1108V57.75H11V57.1108ZM13.75 62.4173V60.5H19.25V62.4173C19.2481 65.0865 19.8505 67.7216 21.0119 70.125H11.9881C13.1495 67.7216 13.7519 65.0865 13.75 62.4173ZM27.5 82.5H5.5V80.8538C5.49941 80.3175 5.63151 79.7895 5.88452 79.3167C6.13754 78.8438 6.50362 78.441 6.95011 78.144C7.77368 77.5963 8.44892 76.8533 8.91564 75.9813C9.38236 75.1092 9.62605 74.1353 9.625 73.1462V72.875H23.375V73.1462C23.3739 74.1353 23.6176 75.1092 24.0843 75.9812C24.551 76.8533 25.2262 77.5963 26.0497 78.144C26.4963 78.441 26.8624 78.8438 27.1154 79.3166C27.3685 79.7894 27.5006 80.3175 27.5 80.8538V82.5ZM30.25 82.5V80.8538C30.2498 80.0733 30.0974 79.3003 29.8014 78.5782C29.9603 78.4155 30.1358 78.27 30.3251 78.144C31.1487 77.5963 31.8239 76.8533 32.2906 75.9813C32.7574 75.1092 33.0011 74.1353 33 73.1462V72.875H45.375V73.1462C45.374 74.1353 45.6176 75.1092 46.0844 75.9813C46.5511 76.8533 47.2263 77.5963 48.0499 78.144C48.4964 78.441 48.8625 78.8438 49.1155 79.3167C49.3685 79.7895 49.5006 80.3175 49.5 80.8538V82.5H30.25ZM76.0849 66.3621L66.3621 76.0851L59.9723 69.6951C63.913 67.2389 67.2387 63.9125 69.6941 59.9713L76.0849 66.3621ZM82.5 50.875H73.4618C74.5129 46.3519 74.5128 41.648 73.4614 37.125H82.5V50.875Z" fill="#F57A00"/>
</svg>
