<svg width="79" height="80" viewBox="0 0 79 80" fill="none" xmlns="http://www.w3.org/2000/svg">
<path d="M15.8134 49.1156C14.277 47.5794 11.9909 47.2391 10.1226 48.0946V34.1016C10.1226 31.3109 7.85211 29.0404 5.06137 29.0404C2.27064 29.0404 0 31.3109 0 34.1016V53.9253C0 55.2727 0.527828 56.5425 1.48603 57.5007L12.8057 68.8202V78.6738C12.8057 78.9017 12.8963 79.1203 13.0574 79.2815C13.2186 79.4426 13.4372 79.5332 13.6651 79.5332H30.2911C30.519 79.5332 30.7376 79.4426 30.8987 79.2815C31.0599 79.1203 31.1505 78.9017 31.1505 78.6738V64.8088C31.1504 64.5809 31.0599 64.3623 30.8988 64.201L15.8134 49.1156ZM29.4317 77.8144H14.5245V68.4642C14.5244 68.2363 14.4339 68.0177 14.2728 67.8565L2.70153 56.2852C2.06783 55.6515 1.71892 54.8134 1.71892 53.9252V34.1016C1.71892 32.2586 3.21836 30.7592 5.06155 30.7592C6.90456 30.7592 8.404 32.2586 8.404 34.1016V49.3887C6.68783 51.3749 6.77067 54.3884 8.65562 56.2733L15.4773 63.095C15.6453 63.2628 15.8651 63.3467 16.0851 63.3467C16.3051 63.3467 16.5249 63.2628 16.6928 63.095C16.854 62.9339 16.9445 62.7153 16.9445 62.4874C16.9445 62.2595 16.854 62.0409 16.6928 61.8797L9.87113 55.058C8.56797 53.7548 8.5678 51.6342 9.87113 50.3309C11.1745 49.0276 13.2952 49.0276 14.5984 50.3309L29.432 65.1647V77.8144H29.4317ZM73.6268 29.0404C70.8361 29.0404 68.5656 31.3109 68.5656 34.1016V48.0943C67.9026 47.7922 67.1823 47.6367 66.4538 47.6383C65.0985 47.6383 63.8275 48.1631 62.8748 49.1156L47.7893 64.2012C47.7095 64.281 47.6462 64.3758 47.603 64.4801C47.5599 64.5843 47.5377 64.6961 47.5377 64.809V78.674C47.5377 78.9019 47.6282 79.1205 47.7894 79.2816C47.9506 79.4428 48.1692 79.5333 48.3971 79.5333H65.0229C65.2508 79.5333 65.4694 79.4428 65.6306 79.2816C65.7917 79.1205 65.8823 78.9019 65.8823 78.674V68.8204L77.202 57.5007C78.1602 56.5423 78.688 55.2727 78.688 53.9253V34.1016C78.688 31.3109 76.4175 29.0404 73.6268 29.0404ZM76.9692 53.9253C76.9692 54.8136 76.6203 55.6516 75.9866 56.2853L64.4151 67.8567C64.3353 67.9365 64.272 68.0312 64.2289 68.1355C64.1857 68.2398 64.1635 68.3515 64.1635 68.4644V77.8146H49.2565V65.1649L64.0901 50.3311C64.7182 49.703 65.5576 49.3572 66.4536 49.3572C67.3496 49.3572 68.1892 49.7031 68.817 50.3313C69.4451 50.9593 69.791 51.7987 69.791 52.6947C69.791 53.5907 69.4452 54.4301 68.817 55.0582L61.9953 61.8799C61.8342 62.0411 61.7436 62.2597 61.7436 62.4876C61.7437 62.7155 61.8342 62.9341 61.9954 63.0953C62.1566 63.2565 62.3752 63.347 62.6031 63.347C62.8311 63.347 63.0497 63.2564 63.2108 63.0952L70.0324 56.2735C70.9851 55.321 71.5098 54.0498 71.5098 52.6947C71.5098 51.4648 71.0763 50.305 70.2842 49.3887V34.102C70.2842 32.2589 71.7836 30.7595 73.6266 30.7595C75.4696 30.7595 76.9691 32.2589 76.9691 34.102V53.9253H76.9692ZM24.1359 23.4842C25.1675 24.0531 25.822 25.137 25.844 26.3131C25.8658 27.4898 25.2519 28.5977 24.2416 29.2044C22.9802 29.9617 22.4799 31.4953 23.0517 32.8507C23.707 34.4018 24.5803 35.8514 25.6453 37.1557C26.5765 38.2947 28.166 38.5692 29.4248 37.8078C30.4336 37.1981 31.6998 37.173 32.7298 37.7424C33.7593 38.3115 34.4118 39.3967 34.4326 40.5748C34.4584 42.0421 35.5338 43.2414 36.9894 43.4265C37.7254 43.52 38.4644 43.5668 39.2024 43.5668C40.1471 43.5668 41.0902 43.4901 42.0224 43.3375C43.4735 43.0996 44.5051 41.8599 44.4751 40.3897C44.451 39.2109 45.0624 38.1013 46.0709 37.4936C47.0795 36.886 48.3462 36.864 49.3771 37.4363C50.6627 38.1501 52.2409 37.8174 53.1295 36.6457C54.1482 35.3014 54.967 33.8167 55.5603 32.2378C56.0771 30.8642 55.5194 29.3531 54.2341 28.6446C53.2025 28.0759 52.548 26.9918 52.526 25.8155C52.5042 24.6389 53.1181 23.531 54.1284 22.9242C55.3898 22.1668 55.8901 20.6333 55.3183 19.2779C54.9911 18.5033 54.6091 17.753 54.1753 17.0327C53.7413 16.3125 53.2566 15.6242 52.7247 14.973C51.7937 13.8339 50.204 13.5598 48.9452 14.3209C47.9365 14.9303 46.6702 14.9554 45.6402 14.3862C44.6107 13.8171 43.9582 12.7319 43.9374 11.554C43.9118 10.0867 42.8364 8.88738 41.3806 8.7021C39.7075 8.48861 38.0122 8.5186 36.3476 8.79113C34.8965 9.029 33.8649 10.2687 33.895 11.739C33.919 12.9177 33.3077 14.0273 32.2991 14.6351C31.2905 15.2428 30.024 15.2646 28.9929 14.6925C27.7073 13.9787 26.129 14.3112 25.2405 15.4831C24.2218 16.8273 23.403 18.312 22.8097 19.8908C22.2929 21.2644 22.8506 22.7756 24.1359 23.4842ZM24.4183 20.4962C24.9533 19.0725 25.6915 17.7337 26.61 16.5216C26.7845 16.2883 27.0379 16.1266 27.3229 16.0666C27.6079 16.0066 27.9051 16.0523 28.1588 16.1953C29.726 17.0652 31.6522 17.0315 33.186 16.1073C34.7196 15.1832 35.6496 13.496 35.6132 11.7041C35.6054 11.4129 35.7038 11.1289 35.89 10.905C36.0763 10.6811 36.3377 10.5327 36.6254 10.4874C38.1263 10.2418 39.6549 10.2148 41.1635 10.4073C41.4522 10.4422 41.7184 10.5809 41.9125 10.7974C42.1066 11.0139 42.2155 11.2935 42.2189 11.5843C42.2503 13.3749 43.2427 15.025 44.8085 15.8906C46.3751 16.7565 48.3008 16.7189 49.8341 15.7919C50.0825 15.6397 50.3777 15.583 50.6648 15.6325C50.9518 15.682 51.2111 15.8343 51.3941 16.0609C52.3553 17.238 53.1435 18.5462 53.7348 19.9462C53.8498 20.2138 53.8633 20.5142 53.773 20.7912C53.6826 21.0681 53.4945 21.3027 53.2438 21.4511C51.7079 22.3734 50.7745 24.0581 50.8078 25.8478C50.8411 27.6369 51.8361 29.2853 53.4045 30.1499C53.6599 30.2887 53.8563 30.5157 53.957 30.7884C54.0577 31.0612 54.0559 31.3613 53.9519 31.6328C53.417 33.0565 52.6788 34.3952 51.7603 35.6074C51.5858 35.8406 51.3324 36.0023 51.0474 36.0623C50.7624 36.1224 50.4653 36.0766 50.2116 35.9336C48.6444 35.0638 46.718 35.0975 45.1842 36.0215C43.6506 36.9456 42.7206 38.6328 42.757 40.4247C42.7648 40.7159 42.6664 40.9999 42.4801 41.2238C42.2939 41.4477 42.0325 41.5961 41.7448 41.6414C40.2439 41.8871 38.7153 41.9141 37.2066 41.7215C36.918 41.6865 36.6518 41.5479 36.4577 41.3314C36.2636 41.1149 36.1547 40.8353 36.1513 40.5445C36.1199 38.7539 35.1275 37.1038 33.5617 36.2382C32.8188 35.8283 31.9841 35.6136 31.1357 35.6143C30.2195 35.6136 29.3205 35.8635 28.5361 36.3368C28.2878 36.4891 27.9925 36.5457 27.7055 36.4962C27.4185 36.4467 27.1593 36.2945 26.9763 36.0679C26.015 34.8909 25.2268 33.5827 24.6355 32.1828C24.5205 31.9151 24.5069 31.6147 24.5973 31.3377C24.6877 31.0608 24.8758 30.8262 25.1266 30.6779C26.6625 29.7556 27.5959 28.0709 27.5626 26.281C27.5292 24.4921 26.5344 22.8436 24.966 21.9789C24.7104 21.8403 24.5139 21.6134 24.4132 21.3406C24.3124 21.0678 24.3142 20.7677 24.4183 20.4962ZM37.6143 32.3961C38.1319 32.5249 38.6632 32.5903 39.1966 32.5907C40.3683 32.5907 41.5221 32.2725 42.5516 31.6522C44.0442 30.753 45.0973 29.3264 45.5166 27.635C45.9362 25.9437 45.672 24.1903 44.7728 22.6977C42.9165 19.6165 38.8996 18.6203 35.8182 20.4764C32.7372 22.3328 31.7408 26.3497 33.5971 29.4309C34.4965 30.9236 35.9231 31.9767 37.6143 32.3961ZM36.7053 21.9487C37.451 21.4981 38.3058 21.2601 39.177 21.2605C40.8074 21.2605 42.3997 22.0893 43.3006 23.5846C43.963 24.6839 44.1576 25.9754 43.8486 27.2211C43.5395 28.4669 42.764 29.5175 41.6647 30.1798C40.5653 30.8422 39.2738 31.0366 38.0282 30.7277C36.7825 30.4187 35.7318 29.6432 35.0695 28.5439C33.7021 26.2748 34.436 23.3159 36.7053 21.9487ZM27.3326 5.55679C27.2624 5.46839 27.2104 5.36704 27.1794 5.25852C27.1484 5.14999 27.1391 5.03643 27.152 4.92431C27.1649 4.81219 27.1997 4.70371 27.2545 4.60506C27.3093 4.50641 27.3831 4.41952 27.4715 4.34936C33.818 -0.687949 42.6664 -0.802417 49.109 3.88221L48.7467 1.98797C48.7048 1.7645 48.7532 1.53355 48.8813 1.3457C49.0094 1.15784 49.2067 1.02839 49.43 0.985693C49.6533 0.942995 49.8844 0.990529 50.0728 1.11789C50.2611 1.24524 50.3913 1.44204 50.4348 1.66519L51.2083 5.71027C51.2503 5.92993 51.205 6.15731 51.082 6.34411C50.9591 6.53092 50.7682 6.66245 50.5498 6.71075L46.5286 7.60055C46.308 7.64483 46.0788 7.60081 45.8902 7.47795C45.7017 7.35509 45.5689 7.16319 45.5203 6.94347C45.4716 6.72374 45.5111 6.49372 45.6303 6.30279C45.7494 6.11187 45.9386 5.97528 46.1574 5.92236L48.3273 5.44232C42.4858 1.03665 34.352 1.08254 28.5398 5.69566C28.3613 5.83731 28.1339 5.90226 27.9075 5.87622C27.6811 5.85017 27.4743 5.73527 27.3326 5.55679ZM50.8986 47.7793C47.6307 50.373 43.6984 51.6619 39.7738 51.6619C36.0766 51.6619 32.3862 50.5189 29.261 48.2466L29.6233 50.1408C29.6652 50.3643 29.6168 50.5952 29.4887 50.7831C29.3606 50.9709 29.1634 51.1004 28.94 51.1431C28.7167 51.1858 28.4856 51.1383 28.2973 51.0109C28.1089 50.8835 27.9787 50.6867 27.9352 50.4636L27.1616 46.4185C27.1196 46.1989 27.1649 45.9715 27.2878 45.7847C27.4107 45.5979 27.6017 45.4663 27.82 45.418L31.8412 44.5282C32.0638 44.479 32.2967 44.5202 32.4889 44.6427C32.6811 44.7653 32.8167 44.9592 32.8659 45.1817C32.9152 45.4043 32.874 45.6372 32.7514 45.8294C32.6289 46.0216 32.435 46.1572 32.2125 46.2064L30.0425 46.6865C35.8841 51.092 44.0177 51.0464 49.8298 46.433C49.9182 46.3628 50.0196 46.3107 50.1281 46.2797C50.2366 46.2487 50.3501 46.2394 50.4622 46.2523C50.5743 46.2652 50.6828 46.3001 50.7814 46.3549C50.8801 46.4097 50.9669 46.4834 51.0371 46.5718C51.1073 46.6602 51.1594 46.7615 51.1904 46.87C51.2215 46.9786 51.2308 47.0921 51.218 47.2042C51.2051 47.3164 51.1703 47.4249 51.1155 47.5235C51.0607 47.6222 50.9869 47.7091 50.8986 47.7793Z" fill="#F57A00"/>
</svg>
