<svg width="70" height="71" viewBox="0 0 70 71" fill="none" xmlns="http://www.w3.org/2000/svg">
<path fill-rule="evenodd" clip-rule="evenodd" d="M67.9412 69.5391H2.05882C1.90473 69.5391 1.75238 69.5067 1.61165 69.4439C1.47093 69.3812 1.34499 69.2895 1.24202 69.1749C1.13905 69.0603 1.06135 68.9253 1.01399 68.7786C0.96662 68.632 0.950642 68.4771 0.96709 68.3239C1.56978 62.7115 5.42787 58.0731 10.615 56.3381C8.66407 54.9285 7.39076 52.6343 7.39076 50.0526C7.39076 45.7855 10.8693 42.3035 15.1363 42.3035C19.4073 42.3035 22.8853 45.7857 22.8853 50.0526C22.8853 52.6343 21.6122 54.9286 19.6604 56.3384C21.7111 57.0241 23.5539 58.1634 25.0697 59.6371C26.5857 58.1633 28.4284 57.024 30.4787 56.3381C28.5277 54.9285 27.2544 52.6343 27.2544 50.0526C27.2544 45.7855 30.733 42.3035 35 42.3035C39.271 42.3035 42.749 45.7857 42.749 50.0526C42.749 52.6343 41.4757 54.9288 39.5239 56.3384C41.5745 57.0242 43.4172 58.1634 44.9329 59.6371C46.449 58.1632 48.2918 57.0238 50.3422 56.3381C48.3914 54.9285 47.1181 52.6341 47.1181 50.0526C47.1181 45.7855 50.5965 42.3035 54.8637 42.3035C59.1346 42.3035 62.6127 45.7857 62.6127 50.0526C62.6127 52.6343 61.3393 54.9288 59.3876 56.3384C64.5761 58.0737 68.4332 62.7121 69.033 68.3244C69.0494 68.4776 69.0333 68.6325 68.9859 68.779C68.9384 68.9256 68.8607 69.0605 68.7577 69.175C68.6548 69.2896 68.5289 69.3812 68.3882 69.4439C68.2475 69.5067 68.0952 69.5391 67.9412 69.5391ZM15.1363 57.8016C9.34184 57.8016 4.50195 61.8917 3.34421 67.343H20.9706C21.371 65.0985 22.2962 63.0357 23.6151 61.2864C21.4374 59.132 18.4427 57.8016 15.1363 57.8016ZM15.1363 55.6056C18.197 55.6056 20.6892 53.1103 20.6892 50.0526C20.6892 46.9949 18.197 44.4996 15.1363 44.4996C12.0788 44.4996 9.58684 46.9951 9.58684 50.0526C9.58684 53.1101 12.0788 55.6056 15.1363 55.6056ZM35 57.8016C29.2055 57.8016 24.3656 61.8917 23.2079 67.343H46.7928C45.6378 61.8916 40.7975 57.8016 35 57.8016ZM35 55.6056C38.0606 55.6056 40.5529 53.1103 40.5529 50.0526C40.5529 46.9949 38.0606 44.4996 35 44.4996C31.9425 44.4996 29.4505 46.9951 29.4505 50.0526C29.4505 53.1101 31.9425 55.6056 35 55.6056ZM46.3875 61.2865C47.706 63.0359 48.6305 65.0985 49.0298 67.343H66.6563C65.5015 61.8916 60.6612 57.8016 54.8637 57.8016C51.5591 57.8016 48.5652 59.132 46.3875 61.2865ZM54.8637 55.6056C57.9242 55.6056 60.4166 53.1103 60.4166 50.0526C60.4166 46.9949 57.9242 44.4996 54.8637 44.4996C51.8062 44.4996 49.3142 46.9951 49.3142 50.0526C49.3142 53.1101 51.8062 55.6056 54.8637 55.6056ZM24.1048 34.9473H17.7354C12.3713 34.9473 7.98356 30.5593 7.98356 25.1987C7.98356 21.4059 10.1784 18.1012 13.3591 16.4902L13.3589 16.3888C13.3589 8.14487 20.04 1.46069 28.284 1.46069C32.0737 1.46069 35.5363 2.87414 38.1693 5.20405C39.4475 4.81755 40.7756 4.62169 42.1109 4.62277C48.8659 4.62277 54.4648 9.55187 55.5148 16.0092C59.368 17.3769 62.0164 21.0563 62.0164 25.1987C62.0164 30.5593 57.6287 34.9473 52.2646 34.9473H45.8952V38.0008C45.8952 39.309 44.8344 40.3697 43.5263 40.3697H26.4767C25.1692 40.3697 24.1048 39.3082 24.1048 38.0008V34.9473ZM45.8952 32.7512H52.2646C56.4205 32.7512 59.8204 29.3519 59.8204 25.1987C59.8204 21.7961 57.5127 18.7978 54.2331 17.9077C54.0199 17.8498 53.8291 17.729 53.6856 17.561C53.5422 17.393 53.4527 17.1856 53.4289 16.966C52.812 11.2599 47.9818 6.81885 42.1109 6.81885C40.8016 6.8174 39.5019 7.04215 38.2691 7.48316C38.0761 7.5523 37.8676 7.566 37.6672 7.52272C37.4667 7.47945 37.2824 7.38092 37.1351 7.2383C34.8442 5.02067 31.7218 3.65677 28.284 3.65677C21.253 3.65677 15.555 9.35779 15.555 16.3888C15.555 16.6338 15.5604 16.8788 15.5746 17.1209C15.5879 17.3492 15.5295 17.576 15.4077 17.7695C15.2859 17.9631 15.1067 18.1138 14.8952 18.2006C12.1387 19.3314 10.1796 22.0465 10.1796 25.1987C10.1796 29.3519 13.5794 32.7512 17.7354 32.7512H24.1048V24.4484C24.1048 23.1464 25.1692 22.0795 26.4767 22.0795H26.9385V20.2524C26.9385 15.8181 30.5672 12.1894 35.0015 12.1894C39.4359 12.1894 43.0615 15.818 43.0615 20.2524V22.0795H43.5263C44.8344 22.0795 45.8952 23.1457 45.8952 24.4484V32.7512ZM43.5263 24.2756H26.4767C26.3805 24.2756 26.3009 24.3526 26.3009 24.4484V38.0008C26.3009 38.0969 26.3805 38.1736 26.4767 38.1736H43.5263C43.5721 38.1736 43.616 38.1554 43.6484 38.123C43.6808 38.0906 43.699 38.0467 43.6991 38.0008V24.4484C43.699 24.4026 43.6808 24.3587 43.6484 24.3263C43.616 24.2939 43.5721 24.2757 43.5263 24.2756ZM29.1345 22.0795H30.1291V20.2524C30.1291 17.5766 32.3294 15.377 35.0015 15.377C37.6734 15.377 39.8739 17.5766 39.8739 20.2524V22.0795H40.8654V20.2524C40.8654 17.0259 38.2278 14.3854 35.0015 14.3854C31.7749 14.3854 29.1345 17.0258 29.1345 20.2524V22.0795ZM37.6778 22.0795V20.2524C37.6778 18.7823 36.4694 17.573 35.0015 17.573C33.5334 17.573 32.3252 18.7823 32.3252 20.2524V22.0795H37.6778ZM35.0015 25.2906C36.9759 25.2906 38.5764 26.8942 38.5764 28.8686C38.5776 29.3688 38.4734 29.8637 38.2707 30.321C38.068 30.7783 37.7713 31.1878 37.3999 31.5229V34.7601C37.3999 36.0817 36.3176 37.1586 35.0015 37.1586C33.6799 37.1586 32.603 36.0817 32.603 34.7601C32.603 34.7601 32.603 31.5231 32.6031 31.5232C31.8787 30.8691 31.4235 29.9228 31.4235 28.8686C31.4235 26.8946 33.0275 25.2906 35.0015 25.2906ZM35.0015 27.4867C34.2391 27.4867 33.6196 28.1061 33.6196 28.8686C33.6196 29.3667 33.8829 29.802 34.2775 30.0453C34.4369 30.1436 34.5685 30.2811 34.6598 30.4447C34.7511 30.6083 34.7991 30.7925 34.799 30.9798V34.7601C34.799 34.8717 34.8899 34.9626 35.0015 34.9626C35.1125 34.9626 35.2038 34.8717 35.2038 34.7601V30.9798C35.2038 30.7925 35.2518 30.6083 35.3431 30.4447C35.4344 30.2811 35.5661 30.1436 35.7255 30.0453C35.9262 29.9215 36.0918 29.7484 36.2065 29.5424C36.3211 29.3363 36.381 29.1043 36.3804 28.8686C36.3804 28.1065 35.7635 27.4867 35.0015 27.4867Z" fill="#F57A00"/>
</svg>
