<svg width="70" height="71" viewBox="0 0 70 71" fill="none" xmlns="http://www.w3.org/2000/svg">
<path d="M68.9062 36.5938H64.8484L37.7891 19.5564C41.0666 18.0092 42.4694 14.098 40.9221 10.8205C40.4715 9.86599 39.7974 9.03425 38.9568 8.39585C38.1163 7.75744 37.1342 7.3312 36.0938 7.15328V3.78125H39.375C39.6651 3.78125 39.9433 3.66602 40.1484 3.4609C40.3535 3.25578 40.4688 2.97758 40.4688 2.6875C40.4688 2.39742 40.3535 2.11922 40.1484 1.9141C39.9433 1.70898 39.6651 1.59375 39.375 1.59375H30.625C30.3349 1.59375 30.0567 1.70898 29.8516 1.9141C29.6465 2.11922 29.5312 2.39742 29.5312 2.6875C29.5312 2.97758 29.6465 3.25578 29.8516 3.4609C30.0567 3.66602 30.3349 3.78125 30.625 3.78125H33.9062V8.15625C33.9062 8.44633 34.0215 8.72453 34.2266 8.92965C34.4317 9.13477 34.7099 9.25 35 9.25C37.4162 9.25 39.375 11.2088 39.375 13.625C39.375 16.0412 37.4162 18 35 18C32.5838 18 30.625 16.0412 30.625 13.625C30.625 13.3349 30.5098 13.0567 30.3046 12.8516C30.0995 12.6465 29.8213 12.5312 29.5312 12.5312C29.2412 12.5312 28.963 12.6465 28.7579 12.8516C28.5527 13.0567 28.4375 13.3349 28.4375 13.625C28.4392 14.8698 28.7949 16.0884 29.463 17.1386C30.1311 18.1888 31.0842 19.0274 32.2109 19.5564L5.15156 36.5938H1.09375C0.803669 36.5938 0.52547 36.709 0.320352 36.9141C0.115234 37.1192 0 37.3974 0 37.6875L0 68.3125C0 68.6026 0.115234 68.8808 0.320352 69.0859C0.52547 69.291 0.803669 69.4062 1.09375 69.4062H68.9062C69.1963 69.4062 69.4745 69.291 69.6796 69.0859C69.8848 68.8808 70 68.6026 70 68.3125V37.6875C70 37.3974 69.8848 37.1192 69.6796 36.9141C69.4745 36.709 69.1963 36.5938 68.9062 36.5938ZM35 20.3866L60.7403 36.5938H9.25969L35 20.3866ZM67.8125 67.2188H2.1875V38.7812H67.8125V67.2188Z" fill="#F57A00"/>
<path d="M35 39.875C34.7099 39.875 34.4317 39.9902 34.2266 40.1954C34.0215 40.4005 33.9062 40.6787 33.9062 40.9688V65.0312C33.9062 65.3213 34.0215 65.5995 34.2266 65.8046C34.4317 66.0098 34.7099 66.125 35 66.125C35.2901 66.125 35.5683 66.0098 35.7734 65.8046C35.9785 65.5995 36.0938 65.3213 36.0938 65.0312V40.9688C36.0938 40.6787 35.9785 40.4005 35.7734 40.1954C35.5683 39.9902 35.2901 39.875 35 39.875ZM29.5312 39.875C29.2412 39.875 28.963 39.9902 28.7579 40.1954C28.5527 40.4005 28.4375 40.6787 28.4375 40.9688V65.0312C28.4375 65.3213 28.5527 65.5995 28.7579 65.8046C28.963 66.0098 29.2412 66.125 29.5312 66.125C29.8213 66.125 30.0995 66.0098 30.3046 65.8046C30.5098 65.5995 30.625 65.3213 30.625 65.0312V40.9688C30.625 40.6787 30.5098 40.4005 30.3046 40.1954C30.0995 39.9902 29.8213 39.875 29.5312 39.875ZM24.0625 39.875C23.7724 39.875 23.4942 39.9902 23.2891 40.1954C23.084 40.4005 22.9688 40.6787 22.9688 40.9688V65.0312C22.9688 65.3213 23.084 65.5995 23.2891 65.8046C23.4942 66.0098 23.7724 66.125 24.0625 66.125C24.3526 66.125 24.6308 66.0098 24.8359 65.8046C25.041 65.5995 25.1562 65.3213 25.1562 65.0312V40.9688C25.1562 40.6787 25.041 40.4005 24.8359 40.1954C24.6308 39.9902 24.3526 39.875 24.0625 39.875ZM18.5938 39.875C18.3037 39.875 18.0255 39.9902 17.8204 40.1954C17.6152 40.4005 17.5 40.6787 17.5 40.9688V65.0312C17.5 65.3213 17.6152 65.5995 17.8204 65.8046C18.0255 66.0098 18.3037 66.125 18.5938 66.125C18.8838 66.125 19.162 66.0098 19.3671 65.8046C19.5723 65.5995 19.6875 65.3213 19.6875 65.0312V40.9688C19.6875 40.6787 19.5723 40.4005 19.3671 40.1954C19.162 39.9902 18.8838 39.875 18.5938 39.875ZM13.125 39.875C12.8349 39.875 12.5567 39.9902 12.3516 40.1954C12.1465 40.4005 12.0312 40.6787 12.0312 40.9688V65.0312C12.0312 65.3213 12.1465 65.5995 12.3516 65.8046C12.5567 66.0098 12.8349 66.125 13.125 66.125C13.4151 66.125 13.6933 66.0098 13.8984 65.8046C14.1035 65.5995 14.2188 65.3213 14.2188 65.0312V40.9688C14.2188 40.6787 14.1035 40.4005 13.8984 40.1954C13.6933 39.9902 13.4151 39.875 13.125 39.875ZM7.65625 39.875C7.36617 39.875 7.08797 39.9902 6.88285 40.1954C6.67773 40.4005 6.5625 40.6787 6.5625 40.9688V65.0312C6.5625 65.3213 6.67773 65.5995 6.88285 65.8046C7.08797 66.0098 7.36617 66.125 7.65625 66.125C7.94633 66.125 8.22453 66.0098 8.42965 65.8046C8.63477 65.5995 8.75 65.3213 8.75 65.0312V40.9688C8.75 40.6787 8.63477 40.4005 8.42965 40.1954C8.22453 39.9902 7.94633 39.875 7.65625 39.875ZM40.4688 39.875C40.1787 39.875 39.9005 39.9902 39.6954 40.1954C39.4902 40.4005 39.375 40.6787 39.375 40.9688V65.0312C39.375 65.3213 39.4902 65.5995 39.6954 65.8046C39.9005 66.0098 40.1787 66.125 40.4688 66.125C40.7588 66.125 41.037 66.0098 41.2421 65.8046C41.4473 65.5995 41.5625 65.3213 41.5625 65.0312V40.9688C41.5625 40.6787 41.4473 40.4005 41.2421 40.1954C41.037 39.9902 40.7588 39.875 40.4688 39.875ZM45.9375 39.875C45.6474 39.875 45.3692 39.9902 45.1641 40.1954C44.959 40.4005 44.8438 40.6787 44.8438 40.9688V65.0312C44.8438 65.3213 44.959 65.5995 45.1641 65.8046C45.3692 66.0098 45.6474 66.125 45.9375 66.125C46.2276 66.125 46.5058 66.0098 46.7109 65.8046C46.916 65.5995 47.0312 65.3213 47.0312 65.0312V40.9688C47.0312 40.6787 46.916 40.4005 46.7109 40.1954C46.5058 39.9902 46.2276 39.875 45.9375 39.875ZM51.4062 39.875C51.1162 39.875 50.838 39.9902 50.6329 40.1954C50.4277 40.4005 50.3125 40.6787 50.3125 40.9688V65.0312C50.3125 65.3213 50.4277 65.5995 50.6329 65.8046C50.838 66.0098 51.1162 66.125 51.4062 66.125C51.6963 66.125 51.9745 66.0098 52.1796 65.8046C52.3848 65.5995 52.5 65.3213 52.5 65.0312V40.9688C52.5 40.6787 52.3848 40.4005 52.1796 40.1954C51.9745 39.9902 51.6963 39.875 51.4062 39.875ZM56.875 39.875C56.5849 39.875 56.3067 39.9902 56.1016 40.1954C55.8965 40.4005 55.7812 40.6787 55.7812 40.9688V65.0312C55.7812 65.3213 55.8965 65.5995 56.1016 65.8046C56.3067 66.0098 56.5849 66.125 56.875 66.125C57.1651 66.125 57.4433 66.0098 57.6484 65.8046C57.8535 65.5995 57.9688 65.3213 57.9688 65.0312V40.9688C57.9688 40.6787 57.8535 40.4005 57.6484 40.1954C57.4433 39.9902 57.1651 39.875 56.875 39.875ZM62.3438 39.875C62.0537 39.875 61.7755 39.9902 61.5704 40.1954C61.3652 40.4005 61.25 40.6787 61.25 40.9688V65.0312C61.25 65.3213 61.3652 65.5995 61.5704 65.8046C61.7755 66.0098 62.0537 66.125 62.3438 66.125C62.6338 66.125 62.912 66.0098 63.1171 65.8046C63.3223 65.5995 63.4375 65.3213 63.4375 65.0312V40.9688C63.4375 40.6787 63.3223 40.4005 63.1171 40.1954C62.912 39.9902 62.6338 39.875 62.3438 39.875Z" fill="#F57A00"/>
</svg>
