<svg width="70" height="71" viewBox="0 0 70 71" fill="none" xmlns="http://www.w3.org/2000/svg">
<path fill-rule="evenodd" clip-rule="evenodd" d="M35.8064 24.2986C35.8064 24.7435 35.4436 25.1054 34.9987 25.1054C34.7848 25.1051 34.5798 25.02 34.4285 24.8688C34.2772 24.7175 34.1922 24.5125 34.1919 24.2986C34.192 24.0845 34.277 23.8793 34.4283 23.7279C34.5795 23.5765 34.7847 23.4912 34.9987 23.4909C35.2128 23.4912 35.4181 23.5764 35.5695 23.7278C35.7209 23.8792 35.8061 24.0845 35.8064 24.2986ZM43.5555 34.3307C43.5555 33.9329 43.5281 33.536 43.4742 33.1436H47.8294V35.5725L45.1967 36.4287C45.0556 36.4743 44.9279 36.5542 44.825 36.6611C44.7222 36.7681 44.6474 36.8988 44.6073 37.0416C44.3947 37.7962 44.093 38.5227 43.7085 39.2059C43.6361 39.3356 43.5967 39.4812 43.5938 39.6297C43.5909 39.7782 43.6245 39.9252 43.6917 40.0577L44.9495 42.5254L43.1936 44.2813L40.7258 43.0236C40.5934 42.9563 40.4464 42.9226 40.2979 42.9255C40.1493 42.9285 40.0038 42.9679 39.8741 43.0404C39.1908 43.4241 38.4646 43.7258 37.7105 43.9392C37.5675 43.979 37.4366 44.0538 37.3295 44.1566C37.2224 44.2595 37.1425 44.3873 37.0969 44.5286L36.2407 47.1613H33.7578L32.9015 44.5286C32.8556 44.3874 32.7756 44.2597 32.6685 44.1569C32.5615 44.0541 32.4307 43.9793 32.2878 43.9392C31.5335 43.7263 30.8072 43.4246 30.1242 43.0404C29.9945 42.9678 29.849 42.9283 29.7004 42.9253C29.5519 42.9224 29.4049 42.9561 29.2724 43.0236L26.8047 44.2813L25.0479 42.5254L26.3057 40.0577C26.373 39.9252 26.4066 39.7782 26.4036 39.6296C26.4005 39.481 26.3609 39.3355 26.2882 39.2059C25.9048 38.5224 25.6036 37.7959 25.3908 37.0416C25.3505 36.8989 25.2757 36.7683 25.1729 36.6614C25.07 36.5545 24.9425 36.4746 24.8014 36.4287L22.1687 35.5725V33.1436H26.5238C26.4694 33.537 26.4419 33.9336 26.4416 34.3307C26.4416 39.1205 30.3481 42.8875 34.9984 42.8875C39.649 42.8875 43.5555 39.1212 43.5555 34.3307ZM44.5868 25.1869C45.0317 25.1869 45.3936 25.5496 45.3936 25.9945C45.3933 26.2084 45.3082 26.4135 45.157 26.5647C45.0057 26.716 44.8007 26.8011 44.5868 26.8013C44.1418 26.8013 43.7791 26.4393 43.7791 25.9945C43.7795 25.7804 43.8647 25.5753 44.0161 25.4239C44.1675 25.2725 44.3727 25.1873 44.5868 25.1869ZM24.6047 25.9945C24.6047 25.5496 24.9666 25.1869 25.4115 25.1869C25.8564 25.1869 26.2183 25.5496 26.2183 25.9945C26.2181 26.2084 26.133 26.4135 25.9817 26.5647C25.8305 26.716 25.6254 26.8011 25.4115 26.8013C25.1976 26.8011 24.9925 26.716 24.8413 26.5647C24.69 26.4135 24.605 26.2084 24.6047 25.9945ZM32.388 24.2986C32.388 25.4218 33.0998 26.3815 34.0968 26.7495V41.0204C33.7004 40.9678 33.3095 40.8798 32.9288 40.7574V30.0454C32.9287 29.8911 32.8891 29.7393 32.8138 29.6046C32.7384 29.4699 32.6298 29.3567 32.4983 29.2758L27.972 26.504C28.2923 24.895 27.0588 23.383 25.4115 23.383C23.9705 23.383 22.8001 24.5541 22.8001 25.9944C22.8001 28.168 25.3166 29.3918 27.0282 28.0423L31.1249 30.5503V39.8569C28.8096 38.228 27.7054 35.2967 28.5013 32.4872C28.664 31.913 28.2294 31.3396 27.6329 31.3396H21.8572C21.7621 31.3396 21.6686 31.354 21.578 31.3837C21.2248 31.4977 20.917 31.7209 20.6988 32.0212C20.4807 32.3215 20.3636 32.6833 20.3644 33.0544V35.6066C20.3644 36.3709 20.8519 37.0416 21.578 37.2774L23.797 37.9983C23.9832 38.5681 24.2133 39.1226 24.4853 39.6568L23.4245 41.7367C23.2555 42.0671 23.1957 42.4426 23.2538 42.8091C23.3119 43.1756 23.4849 43.5143 23.7478 43.7762L25.5524 45.5815C25.8146 45.8444 26.1535 46.0173 26.5204 46.0753C26.8872 46.1332 27.2629 46.0732 27.5934 45.9039L29.6733 44.8445C30.2073 45.1156 30.7612 45.3454 31.3303 45.5319L32.052 47.7518C32.166 48.1049 32.3893 48.4127 32.6896 48.6307C32.9899 48.8487 33.3517 48.9657 33.7228 48.9647H36.275C36.6461 48.9659 37.008 48.849 37.3083 48.6309C37.6086 48.4129 37.8318 48.105 37.9457 47.7518L38.6666 45.5319C39.2361 45.3454 39.7906 45.1156 40.3252 44.8445L42.405 45.9039C42.7353 46.0732 43.1108 46.1332 43.4774 46.0753C43.844 46.0173 44.1827 45.8444 44.4447 45.5815L46.25 43.7762C46.5129 43.5143 46.6859 43.1756 46.7438 42.809C46.8018 42.4424 46.7417 42.0669 46.5724 41.7367L45.513 39.6568C45.7842 39.1226 46.014 38.5684 46.2004 37.999L48.4202 37.2773C48.7734 37.1633 49.0813 36.9401 49.2993 36.6398C49.5173 36.3394 49.6342 35.9776 49.6332 35.6065V33.0543C49.6332 32.2907 49.1466 31.6193 48.4202 31.3835C48.3301 31.3541 48.2359 31.3392 48.1411 31.3394H42.3654C41.7663 31.3394 41.3339 31.9118 41.4961 32.487C42.2903 35.3009 41.1918 38.2242 38.8732 39.8568V30.5501L42.9699 28.0422C44.678 29.3911 47.198 28.169 47.198 25.9942C47.198 24.5539 46.0262 23.3828 44.5866 23.3828C42.9429 23.3828 41.7049 24.8898 42.0262 26.5038L37.4998 29.2757C37.3682 29.3565 37.2596 29.4696 37.1842 29.6043C37.1089 29.7391 37.0694 29.8909 37.0695 30.0453V40.7572C36.6887 40.8796 36.2978 40.9677 35.9013 41.0203V26.7497C36.8968 26.3816 37.6101 25.4219 37.6101 24.2987C37.6101 22.8584 36.439 21.6873 34.9987 21.6873C33.5592 21.6871 32.388 22.8582 32.388 24.2986ZM51.8827 20.786L34.9987 11.9227L18.1149 20.786V38.8486C18.1149 44.0426 20.3605 48.3644 24.61 51.3501L34.9987 58.6467L45.3876 51.3501C49.6363 48.3644 51.8827 44.0428 51.8827 38.8486V20.786ZM34.579 10.1052L16.7931 19.4422C16.6476 19.5188 16.5258 19.6336 16.4409 19.7743C16.3559 19.915 16.311 20.0763 16.311 20.2407V38.8486C16.311 44.6196 18.8517 49.5085 23.5735 52.8252L34.4809 60.487C34.6327 60.5935 34.8137 60.6506 34.9991 60.6506C35.1846 60.6506 35.3656 60.5935 35.5174 60.487L46.4248 52.8252C51.1439 49.5102 53.6873 44.6161 53.6873 38.8486V20.2408C53.6873 20.0762 53.6423 19.9148 53.557 19.774C53.4717 19.6333 53.3495 19.5186 53.2036 19.4424L35.4177 10.1052C35.2882 10.0378 35.1444 10.0025 34.9984 10.0025C34.8524 10.0025 34.7085 10.0378 34.579 10.1052ZM55.6584 38.8548V18.497L34.9987 7.65117L14.3391 18.497V38.8548C14.3391 45.2381 17.2166 50.7735 22.4396 54.4428L34.9987 63.2642L47.5587 54.4428C52.7815 50.7735 55.6584 45.2381 55.6584 38.8548ZM56.9794 17.1524L35.4177 5.83369C35.2883 5.76589 35.1444 5.73047 34.9984 5.73047C34.8523 5.73047 34.7084 5.76589 34.579 5.83369L13.0189 17.1524C12.8732 17.2288 12.7511 17.3436 12.6659 17.4844C12.5806 17.6251 12.5354 17.7864 12.5352 17.951V38.8548C12.5352 45.8434 15.6843 51.9029 21.4022 55.919L34.4807 65.1062C34.6326 65.2126 34.8135 65.2698 34.999 65.2698C35.1845 65.2698 35.3654 65.2126 35.5173 65.1062L48.5958 55.919C54.3138 51.9029 57.4628 45.8436 57.4628 38.8548V17.951C57.4625 17.7865 57.4173 17.6252 57.3321 17.4845C57.2469 17.3438 57.125 17.229 56.9794 17.1524Z" fill="#F57A00"/>
</svg>
