<svg width="70" height="71" viewBox="0 0 70 71" fill="none" xmlns="http://www.w3.org/2000/svg">
<g clip-path="url(#clip0_1131_46018)">
<path d="M64.7722 7.06233C33.2722 0.084201 35.1316 0.499826 34.7597 0.499826L5.22845 7.06233C4.98172 7.11789 4.76187 7.25724 4.60633 7.45666C4.45078 7.65608 4.36915 7.90324 4.37533 8.15608V29.8561C4.41587 38.983 7.38276 47.8562 12.84 55.1719C18.2973 62.4877 25.9572 67.8601 34.6941 70.4998C34.8946 70.5547 35.1061 70.5547 35.3066 70.4998C44.0435 67.8601 51.7034 62.4877 57.1606 55.1719C62.6179 47.8562 65.5848 38.983 65.6253 29.8561V8.15608C65.6315 7.90324 65.5499 7.65608 65.3943 7.45666C65.2388 7.25724 65.0189 7.11789 64.7722 7.06233ZM63.4378 29.8561C63.399 38.456 60.6214 46.82 55.5081 53.7348C50.3948 60.6496 43.2115 65.7556 35.0003 68.3123C26.7891 65.7556 19.6059 60.6496 14.4925 53.7348C9.37921 46.82 6.60168 38.456 6.56283 29.8561V9.03108L35.0003 2.68733L63.4378 9.03108V29.8561Z" fill="#F57A00"/>
<path d="M11.791 12.3562C11.5442 12.4117 11.3244 12.5511 11.1688 12.7505C11.0133 12.9499 10.9316 13.1971 10.9378 13.4499V29.8562C10.9561 37.2216 13.2389 44.4032 17.4767 50.4274C21.7146 56.4515 27.7024 61.0268 34.6285 63.5327C34.8688 63.6196 35.1319 63.6196 35.3722 63.5327C42.2982 61.0268 48.2861 56.4515 52.5239 50.4274C56.7618 44.4032 59.0446 37.2216 59.0628 29.8562V13.4499C59.069 13.1971 58.9874 12.9499 58.8318 12.7505C58.6763 12.5511 58.4564 12.4117 58.2097 12.3562C33.6113 6.88742 35.1206 7.1718 34.7597 7.24836L11.791 12.3562ZM56.8753 14.303V29.8562C56.8595 36.7043 54.7576 43.385 50.8496 49.0086C46.9416 54.6321 41.4131 58.9316 35.0003 61.3343C28.5876 58.9316 23.059 54.6321 19.151 49.0086C15.2431 43.385 13.1412 36.7043 13.1253 29.8562V14.303L35.0003 9.43586L56.8753 14.303Z" fill="#F57A00"/>
<path d="M22.9694 38.7809C23.9428 38.7809 24.0632 37.5778 26.2507 36.2762C26.1911 37.3404 26.2498 38.4078 26.4257 39.459C25.3443 40.0032 24.4431 40.8479 23.83 41.8917C23.2169 42.9355 22.9181 44.134 22.9694 45.3434C22.9694 45.6335 23.0846 45.9117 23.2898 46.1168C23.4949 46.3219 23.7731 46.4372 24.0632 46.4372C24.3532 46.4372 24.6314 46.3219 24.8366 46.1168C25.0417 45.9117 25.1569 45.6335 25.1569 45.3434C25.1108 44.5884 25.2743 43.8353 25.6295 43.1674C25.9847 42.4996 26.5176 41.9429 27.1694 41.559C27.8951 43.0151 29.0124 44.24 30.3957 45.0962C31.7791 45.9524 33.3738 46.406 35.0007 46.406C36.6275 46.406 38.2222 45.9524 39.6056 45.0962C40.9889 44.24 42.1062 43.0151 42.8319 41.559C43.482 41.9448 44.0136 42.5018 44.3685 43.1692C44.7234 43.8366 44.8881 44.5888 44.8444 45.3434C44.8444 45.6335 44.9596 45.9117 45.1648 46.1168C45.3699 46.3219 45.6481 46.4372 45.9382 46.4372C46.2282 46.4372 46.5064 46.3219 46.7115 46.1168C46.9167 45.9117 47.0319 45.6335 47.0319 45.3434C47.0832 44.134 46.7844 42.9355 46.1713 41.8917C45.5582 40.8479 44.657 40.0032 43.5757 39.459C43.7513 38.4078 43.81 37.3404 43.7507 36.2762C45.9382 37.5669 46.0475 38.7809 47.0319 38.7809C47.2379 38.782 47.44 38.725 47.6149 38.6163C47.7899 38.5076 47.9306 38.3517 48.0209 38.1666C48.1112 37.9815 48.1474 37.7746 48.1252 37.5698C48.1031 37.365 48.0237 37.1706 47.896 37.009C46.7756 35.6507 45.3571 34.5691 43.7507 33.8481V31.6606C44.7655 31.323 45.639 30.657 46.2332 29.7677C46.8274 28.8784 47.1084 27.8165 47.0319 26.7497C47.0319 26.4596 46.9167 26.1814 46.7115 25.9763C46.5064 25.7712 46.2282 25.6559 45.9382 25.6559C45.6481 25.6559 45.3699 25.7712 45.1648 25.9763C44.9596 26.1814 44.8444 26.4596 44.8444 26.7497C44.9287 27.2959 44.8362 27.8548 44.5804 28.3447C44.3246 28.8347 43.9189 29.23 43.4225 29.4731C43.1637 28.8448 42.7621 28.2853 42.2495 27.8392C41.7369 27.393 41.1274 27.0724 40.4694 26.9028C40.5042 25.4684 39.9739 24.0779 38.9928 23.0309C40.4694 19.6403 37.1882 19.5856 37.1882 21.2809C37.177 21.4245 37.1551 21.5671 37.1225 21.7075C36.4508 21.4247 35.7294 21.2791 35.0007 21.2791C34.2719 21.2791 33.5505 21.4247 32.8788 21.7075C32.8463 21.5671 32.8243 21.4245 32.8132 21.2809C32.8132 19.5856 29.5319 19.6403 31.0085 23.0309C30.0274 24.0779 29.4971 25.4684 29.5319 26.9028C28.8739 27.0724 28.2644 27.393 27.7518 27.8392C27.2392 28.2853 26.8376 28.8448 26.5788 29.4731C26.1242 29.2475 25.7466 28.8923 25.4936 28.4524C25.2406 28.0125 25.1234 27.5076 25.1569 27.0012C25.1569 25.12 22.9694 25.3715 22.9694 26.7497C22.8808 27.824 23.1562 28.8969 23.7514 29.7956C24.3466 30.6944 25.2269 31.3667 26.2507 31.7044V33.8919C24.6442 34.6128 23.2257 35.6945 22.1053 37.0528C21.9901 37.2145 21.9211 37.4046 21.9056 37.6026C21.8902 37.8006 21.929 37.999 22.0178 38.1766C22.1066 38.3543 22.2421 38.5043 22.4098 38.6108C22.5774 38.7173 22.7709 38.7761 22.9694 38.7809ZM38.2819 26.7497H31.7194C31.7194 25.8794 32.0651 25.0448 32.6805 24.4295C33.2958 23.8141 34.1304 23.4684 35.0007 23.4684C35.8709 23.4684 36.7055 23.8141 37.3208 24.4295C37.9362 25.0448 38.2819 25.8794 38.2819 26.7497ZM28.4382 31.1247C28.4382 30.5445 28.6686 29.9881 29.0789 29.5779C29.4891 29.1676 30.0455 28.9372 30.6257 28.9372H39.3757C39.9558 28.9372 40.5122 29.1676 40.9224 29.5779C41.3327 29.9881 41.5632 30.5445 41.5632 31.1247V37.6872C41.5616 39.2369 41.0116 40.736 40.0107 41.9191C39.0098 43.1022 37.6224 43.8929 36.0944 44.1512V32.2184C36.0944 31.9283 35.9792 31.6501 35.774 31.445C35.5689 31.2399 35.2907 31.1247 35.0007 31.1247C34.7106 31.1247 34.4324 31.2399 34.2273 31.445C34.0221 31.6501 33.9069 31.9283 33.9069 32.2184V44.1512C32.3789 43.8929 30.9915 43.1022 29.9906 41.9191C28.9897 40.736 28.4397 39.2369 28.4382 37.6872V31.1247Z" fill="#F57A00"/>
</g>
<defs>
<clipPath id="clip0_1131_46018">
<rect width="70" height="70" fill="white" transform="translate(0 0.5)"/>
</clipPath>
</defs>
</svg>
