<svg width="183" height="34" viewBox="0 0 183 34" fill="none" xmlns="http://www.w3.org/2000/svg">
<g clip-path="url(#clip0_1557_397)">
<path d="M70.5634 8.95149L52.851 8.91977L54.3173 5.19781C51.6933 4.24365 48.9765 3.5512 45.6972 3.06223C42.418 2.57301 38.5757 2.28775 34.7612 2.2243C30.947 2.16086 27.1605 2.31922 23.9781 2.69023C20.7951 3.06124 18.216 3.64464 15.9599 4.37302C13.7037 5.1014 11.7703 5.97476 10.0539 7.00179C6.62827 9.03377 3.98505 11.834 2.42625 14.4209C1.65333 15.7042 1.17771 16.897 0.934043 18.0346C0.447697 20.3184 0.873935 22.4539 2.17934 24.6817C2.84401 25.7999 3.74786 26.9224 4.88341 27.9606C6.01897 28.9987 7.38672 29.9529 8.99415 30.7777C10.6018 31.6027 12.4494 32.2989 14.6442 32.8223C16.839 33.3457 19.3807 33.6969 22.4193 33.8228C25.4578 33.9485 28.9934 33.8488 32.3445 33.5125C35.6952 33.176 38.8615 32.602 41.9636 31.7839L41.3708 33.2379H61.4234L63.598 27.3301C63.8172 26.7348 64.0674 26.1476 64.3058 25.7162C64.544 25.2847 64.7607 25.0051 64.9869 24.7841C65.2068 24.5673 65.4637 24.3911 65.7456 24.2636C66.0417 24.1268 66.3971 24.0158 66.8764 23.9382C67.3558 23.8606 67.9589 23.8237 68.56 23.8237H72.8213C73.1042 24.8517 73.5711 25.8274 74.2639 26.7831C74.957 27.7387 75.8761 28.6751 77.0089 29.543C78.1417 30.4106 79.488 31.2101 81.0301 31.859C82.5724 32.508 84.3103 33.0067 86.4285 33.3517C88.5467 33.6971 91.0448 33.8892 93.685 33.8615C96.3255 33.8337 99.1084 33.5861 101.342 33.2297C103.576 32.8733 105.261 32.4089 106.595 31.8607C107.93 31.3125 108.915 30.681 109.763 29.8949C111.834 31.0082 114.04 31.8624 116.73 32.5333C119.419 33.204 122.591 33.6912 125.886 33.8912C129.182 34.0912 132.6 34.0035 135.422 33.7172C138.244 33.4312 140.469 32.9465 142.211 32.3351C143.951 31.7239 145.208 30.9861 146.289 30.0374L145.206 33.1123H165.708L170.461 20.247H178.475L182.595 9.0759H174.619L178.111 0L156.119 3.87512L154.17 8.91927H147.569L147.432 9.56785C144.914 8.7899 142.334 8.21295 139.552 7.81641C136.77 7.41963 133.787 7.20327 131.102 7.23624C128.417 7.26895 126.031 7.55074 123.996 7.94628C121.961 8.34182 120.278 8.85137 118.981 9.42683C117.684 10.0021 116.772 10.6434 116.001 11.3879C115.24 12.119 114.606 12.9699 114.124 13.9062C113.506 12.9577 112.702 12.1364 111.563 11.3694C110.424 10.6023 108.951 9.88929 107.084 9.25583C105.217 8.62262 102.957 8.06871 100.465 7.7728C97.9734 7.47663 95.2493 7.43822 92.6226 7.60427C89.9958 7.77007 87.4661 8.14058 85.3329 8.67392C83.1997 9.20725 81.4628 9.90441 79.8464 10.8192L80.5026 8.98247C78.4522 8.6645 76.4018 8.34678 74.6844 8.43451C72.9672 8.52224 71.5828 9.01593 70.1983 9.50912L70.5634 8.95149ZM69.2822 9.63972L67.9753 11.6355C69.825 10.6697 71.6746 9.70366 73.5828 9.38817C75.4907 9.07243 77.4576 9.40726 79.4244 9.74208L78.4175 12.526C81.2334 10.7173 84.3944 9.46004 88.1375 8.78519C91.8806 8.11034 96.2058 8.01765 100.003 8.41617C103.8 8.81469 107.069 9.70466 109.3 10.8494C111.531 11.9941 112.724 13.3941 113.385 14.2063C114.045 15.0182 114.171 15.2427 114.241 15.4893C114.745 13.7795 115.81 12.2435 117.446 11.0781C119.082 9.91284 121.289 9.11828 124.37 8.59015C127.45 8.06226 131.403 7.8008 135.506 8.07813C139.609 8.35545 143.861 9.17107 147.954 10.4707L148.135 9.60949H154.649L156.629 4.48653L177.022 0.893191L173.608 9.76637H181.599L177.988 19.5565H169.974L165.222 32.4223H146.189L148.054 27.1241C146.639 29.1212 144.651 30.6922 141.949 31.7058C139.247 32.7192 135.831 33.175 131.841 33.2694C127.851 33.3641 123.285 33.0971 119.451 32.4099C115.616 31.7227 112.513 30.6153 109.654 29.0446C108.874 29.8538 107.942 30.5098 106.669 31.0758C105.396 31.6419 103.784 32.1182 101.587 32.4895C99.3905 32.8607 96.6103 33.1271 93.9469 33.1683C91.284 33.2092 88.7375 33.0245 86.5929 32.6788C84.4482 32.3333 82.7054 31.827 81.1705 31.1673C79.6359 30.5078 78.3093 29.6949 77.2124 28.8223C76.1155 27.9496 75.2478 27.0175 74.6128 26.0664C73.9778 25.1154 73.5755 24.1454 73.3683 23.1335H68.5607C67.902 23.1335 67.2408 23.1754 66.7066 23.2666C66.1724 23.3575 65.7651 23.4889 65.4187 23.6532C64.7288 23.9962 64.2662 24.391 63.7242 25.3315C63.4546 25.8094 63.1807 26.4475 62.9423 27.0956L60.9356 32.5472H42.4036L43.1458 30.7261C40.216 31.6027 37.2136 32.2352 33.9452 32.6409C30.6769 33.0466 27.1418 33.225 24.0357 33.1779C20.9293 33.1311 18.2519 32.8582 15.9604 32.404C13.6691 31.9497 11.7641 31.3142 10.1127 30.5519C8.46167 29.7896 7.06424 28.9006 5.89576 27.9241C3.58649 25.9898 2.15963 23.7382 1.65333 21.6239C1.40168 20.5771 1.36876 19.5588 1.55582 18.4891C1.74287 17.4192 2.14966 16.298 2.85049 15.072C3.55108 13.8462 4.54522 12.5156 5.75958 11.2638C6.97395 10.0122 8.40779 8.83897 10.0479 7.81716C11.688 6.79509 13.5341 5.92421 15.6908 5.19012C17.8476 4.45604 20.3148 3.85827 23.364 3.46322C26.4135 3.06842 30.0452 2.8766 33.8037 2.90361C37.5628 2.93063 41.4486 3.17697 44.7507 3.62258C48.0529 4.06818 50.7715 4.71305 53.4054 5.61367L51.8319 9.60825L69.2822 9.63972Z" fill="#36378D"/>
<path d="M146.617 12.2142C144.952 11.7495 143.259 11.3929 140.883 11.0169C138.508 10.6409 135.45 10.2456 132.477 10.2114C129.503 10.1772 126.615 10.5044 124.156 11.036C121.696 11.5676 119.665 12.3034 118.418 13.3257C117.17 14.348 116.706 15.6571 116.742 16.891C116.779 18.125 117.316 19.2839 118.247 20.1012C119.177 20.9188 120.5 21.3944 122.063 21.7451C123.625 22.0958 125.426 22.3216 127.014 22.5136C128.602 22.7055 129.975 22.8636 130.993 23.0636C132.011 23.2633 132.674 23.5047 132.901 23.9226C133.129 24.3404 132.922 24.9342 132.132 25.2732C131.341 25.6123 129.968 25.6965 128.352 25.6708C126.738 25.645 124.881 25.5092 123.265 25.2621C121.649 25.015 120.272 24.6566 119.158 24.2824C118.045 23.9084 117.194 23.5188 116.395 23.0403L113.671 28.1553C114.881 28.7719 116.157 29.2564 117.838 29.6961C119.519 30.1357 121.606 30.531 124.055 30.8094C126.503 31.0874 129.313 31.2488 132.091 31.1501C134.87 31.0515 137.615 30.6926 139.887 29.9449C142.158 29.1972 143.955 28.0604 145.005 26.7798C146.054 25.499 146.356 24.0742 145.946 22.7892C145.535 21.504 144.413 20.3587 142.72 19.5872C141.027 18.8157 138.762 18.4177 136.765 18.1265C134.767 17.8353 133.038 17.6509 131.775 17.5091C130.513 17.3674 129.717 17.2682 129.318 16.9257C128.919 16.5832 128.918 15.9969 129.358 15.5498C129.8 15.1027 130.683 14.7946 132.014 14.7302C133.345 14.6657 135.123 14.8449 136.804 15.0665C138.486 15.2883 140.073 15.5522 141.39 15.8313C142.706 16.1101 143.754 16.4038 144.779 16.7644L146.617 12.2142Z" fill="#36378D"/>
<path d="M42.2676 28.4371C39.4049 29.216 36.4781 29.7516 33.0448 30.1152C29.6114 30.4785 25.6718 30.6696 21.8763 30.4433C18.0808 30.2168 14.43 29.5729 11.463 28.2131C8.49605 26.8529 6.21322 24.7766 4.99786 22.8026C3.78275 20.8284 3.6351 18.9565 4.28455 17.0167C4.93401 15.0767 6.37983 13.0687 8.85196 11.2053C11.3241 9.34179 14.8223 7.62307 18.622 6.51352C22.422 5.40422 26.5237 4.90434 30.3327 4.79033C34.1419 4.67658 37.6583 4.9487 40.9395 5.315C44.2207 5.68179 47.2667 6.14276 50.2821 6.75392L47.146 14.5676C45.5925 13.8581 43.9519 13.3517 41.6423 12.9193C39.3328 12.4868 36.3539 12.1287 33.2198 12.2107C30.0858 12.2927 26.7963 12.8154 24.6382 13.9364C22.4801 15.0573 21.4528 16.7773 21.5698 18.2836C21.6867 19.7899 22.9477 21.0834 25.1537 21.7954C27.3595 22.5074 30.5105 22.6383 33.151 22.5164C35.7915 22.3947 37.9217 22.0202 39.8666 21.5602C41.8117 21.1 43.5715 20.5538 45.2767 19.8707L42.2676 28.4371Z" fill="#CA3132"/>
<path d="M45.467 30.2886H59.2471L61.0211 25.205C61.4733 23.9091 62.1764 22.6697 63.6853 21.9274C65.1939 21.1857 67.3453 20.8962 68.9854 20.7515C70.6256 20.6067 71.7544 20.6067 72.8687 20.749L76.2584 11.5864C74.8862 11.402 73.4793 11.4875 72.0621 11.8763C70.645 12.2654 69.2179 12.9574 67.8905 13.8054C66.5613 14.6532 65.3398 15.657 64.2522 16.7951L65.8678 11.9626H52.3729L45.467 30.2886Z" fill="#36378D"/>
<path d="M112.594 21.6907C113.136 20.2136 113.101 18.5316 112.392 16.914C111.683 15.2961 110.299 13.7429 107.734 12.5801C105.17 11.4175 101.424 10.6455 97.695 10.391C93.9656 10.1362 90.2524 10.3987 86.8854 11.2998C83.5184 12.2007 80.4978 13.7405 78.4978 15.8996C76.4978 18.0585 75.5187 20.8372 76.0736 23.1254C76.6288 25.4139 78.7178 27.2124 81.5007 28.4796C84.2836 29.7463 87.7598 30.4816 91.4875 30.6462C95.2151 30.8107 99.1939 30.4048 102.152 29.7059C105.11 29.007 107.048 28.0149 108.665 26.6174L100.429 23.1656C99.5466 23.8741 98.5176 24.3894 97.1054 24.7698C95.6938 25.15 93.8985 25.3956 92.5126 25.2166C91.1271 25.0377 90.1507 24.4342 89.6436 23.7487C89.1366 23.0632 89.0992 22.2964 89.4047 21.691L112.594 21.6907ZM92.7413 15.4721C93.801 14.9578 95.0922 14.739 96.3714 14.7757C97.6511 14.8121 98.9186 15.1048 99.7718 15.6391C100.626 16.1737 101.065 16.9507 101.126 17.768H90.324C90.8528 16.7963 91.6815 15.9866 92.7413 15.4721ZM158.686 6.31464L173.036 3.64746L170.042 11.8374H177.883L175.84 17.2032H168.081L163.47 29.8177H149.816L154.577 17.2032H147.915L150.038 11.8374H156.602L158.686 6.31464Z" fill="#383E93"/>
</g>
<defs>
<clipPath id="clip0_1557_397">
<rect width="182" height="34" fill="white" transform="translate(0.666687)"/>
</clipPath>
</defs>
</svg>
