<svg width="111" height="111" viewBox="0 0 111 111" fill="none" xmlns="http://www.w3.org/2000/svg">
<path d="M98.3615 48.4885C97.5262 46.3027 95.8076 44.3469 93.724 42.9376C87.7039 39.1219 78.525 38.8439 72.3128 42.2953C68.9235 44.0209 66.7056 47.4339 66.0143 50.9428C64.7565 56.7142 65.0829 63.5786 69.5284 67.9024C74.7228 72.4467 82.2695 73.4533 88.9905 71.5838C89.3074 71.5263 90.3251 71.2674 91.0164 70.9031L91.2181 70.8168C93.3016 69.954 95.2891 68.5447 96.7773 66.6273C100.215 61.6228 100.445 54.1257 98.3615 48.4885ZM87.4255 61.4407C87.1951 62.5336 86.4557 63.6649 85.294 64.0771C83.4409 64.892 80.9445 64.6619 79.2259 63.7128C77.7857 62.7062 77.6032 61.0284 77.4208 59.437C77.2768 56.302 77.0559 52.9849 77.9297 50.1183C78.621 48.3447 80.5221 47.8845 82.2407 47.7503C84.0458 47.7503 85.8029 48.0283 86.9166 49.476C87.6079 50.521 87.5695 51.8823 87.7039 53.1095C87.6559 55.7172 87.8864 58.8042 87.4255 61.4407Z" fill="black"/>
<path d="M32.5052 64.2691C30.9786 64.1733 29.2599 64.3075 27.7813 64.1253L27.8293 48.1628L27.9253 48.0286L32.5148 47.9807C32.5628 45.3922 32.6109 42.6119 32.4668 40.2535L15.0018 40.2056L12.1214 40.2535C12.0734 42.6599 12.0734 45.4785 12.1214 47.9328C13.696 47.9807 15.1746 47.9328 16.7109 48.0766V63.5309L16.6628 64.1637L12.0734 64.2596C11.9773 66.8001 11.9773 69.2544 12.0734 71.7567H32.5052V64.2691Z" fill="black"/>
<path d="M83.9402 75.1775C81.9911 77.9578 79.5427 80.6326 76.8543 82.7226C76.7583 82.8664 76.4799 82.8088 76.3935 82.6746C75.2317 81.946 73.9835 81.3612 72.8697 80.6326C74.358 78.859 75.7886 77.0853 76.9023 75.1296H75.4621C74.31 76.8169 73.1002 78.5905 71.5735 80.0861C69.5284 79.2712 67.685 78.5426 65.5918 77.9961L65.3614 77.8236C65.6878 76.9032 66.2831 76.0404 66.4752 75.1296H65.227L63.9788 77.5839C61.2424 76.9895 58.2371 76.6731 55.4527 76.4909C55.3087 76.0883 55.5007 75.4939 55.3087 75.12H54.1085C54.0125 75.6665 54.2429 76.0787 53.9645 76.5389C51.0937 76.6731 48.3092 76.9895 45.6208 77.5455L44.363 75.1296C43.9022 75.1296 43.3933 75.0433 43.0668 75.1775L44.2286 77.8619L44.0942 77.9961C42.0011 78.5905 39.9752 79.3191 37.9781 80.134L37.7957 80.0382C36.4995 78.6289 35.2417 77.0854 34.2239 75.5418C33.9935 74.7653 33.0621 75.2159 32.5533 75.1296C33.667 77.1333 35.1457 78.9069 36.6243 80.7284C35.3761 81.4571 34.1279 82.272 32.8221 82.8664C30.0377 80.7764 27.4549 78.0441 25.5058 75.1775C24.9489 75.0912 24.5841 75.1296 24.0176 75.1775C27.3589 80.3641 32.5437 84.9084 37.9685 87.5928C37.9685 87.5928 37.9685 87.5544 38.0165 87.5544C38.0549 87.5544 38.1509 87.6407 38.0549 87.6887C41.7226 89.4623 45.6112 90.7374 49.7302 91.2838C63.9596 93.1437 77.536 87.1039 85.4092 75.1871C85.0156 75.1296 84.4107 75.1296 83.9402 75.1775ZM64.6221 79.2712L64.7565 79.1753C66.7536 79.6259 68.6547 80.2683 70.4118 81.1311C68.9235 82.8088 67.0224 84.2661 65.2654 85.4932C64.1996 86.126 63.1339 86.8162 62.0201 87.3627L60.0326 86.4999L60.167 86.1835C61.8473 83.9497 63.3259 81.6776 64.6221 79.2712ZM55.4911 77.9003C58.1315 77.9482 60.7815 78.2262 63.2299 78.811L63.2779 78.9452C61.9817 81.3995 60.359 83.7676 58.602 85.9918C57.8147 86.0876 57.0754 85.7712 56.288 85.7233L55.5007 85.6274C55.3951 82.9526 55.3471 80.5846 55.4911 77.9003ZM46.5522 78.7152C48.9621 78.2646 51.4585 77.9003 54.0605 77.9003L54.1085 85.5891C53.1292 85.8096 52.0634 85.8096 51.1417 86.0397C49.2406 83.8059 47.6659 81.39 46.3217 78.8973L46.5522 78.7152ZM39.0918 81.179C40.9065 80.3162 42.798 79.6739 44.7471 79.1753L44.9391 79.2233C46.2833 81.7255 47.9444 84.0839 49.615 86.4519C48.9717 86.8162 48.1748 87.0367 47.5315 87.4106C44.4687 85.9151 41.5498 83.8155 39.0918 81.3133V81.179ZM45.0639 88.9542C41.1658 87.9475 37.5556 86.2218 34.2143 83.8634V83.7196C35.3281 83.0389 36.4418 82.3103 37.642 81.8118C40.2824 84.4099 43.0188 86.3657 45.9857 88.2255C45.7649 88.494 45.3904 88.772 45.0639 88.9542ZM62.2601 89.539C57.3538 90.5936 51.881 90.6319 46.965 89.4527C46.869 89.2226 47.1955 89.1747 47.3395 89.05C51.6505 86.2698 58.3715 86.2698 62.5866 89.2705C62.721 89.539 62.3465 89.4527 62.2601 89.539ZM66.7056 88.2735L64.5261 88.9542C64.1516 88.772 63.8348 88.494 63.5083 88.2255L63.6043 88.0913C66.5712 86.3656 69.2596 84.2757 71.804 81.7734C73.0522 82.272 74.2619 82.9622 75.3757 83.7292C72.7833 85.7712 69.7685 87.1326 66.7056 88.2735Z" fill="black"/>
<path d="M25.4192 36.7563C26.533 35.2127 27.7812 33.7076 29.1734 32.2599C30.3736 31.1191 31.4873 30.0357 32.7931 29.2112C34.0029 29.9878 35.3471 30.6301 36.4993 31.3587C35.0591 33.1228 33.5804 34.906 32.5147 36.8138C32.8411 36.9576 33.446 36.9097 33.9069 36.8138C35.0687 35.1361 36.3168 33.4487 37.7955 31.9531C39.783 32.6818 41.7321 33.4487 43.7772 33.9952L43.9596 34.1773L42.7978 36.8138C43.3067 36.9097 43.6331 36.8617 44.142 36.8138C44.5549 36.0468 44.8813 35.184 45.3422 34.4074C48.0306 35.0018 50.863 35.3182 53.7339 35.4045C54.1083 35.7305 53.8299 36.4111 53.9643 36.8138H55.2125C55.3469 36.3632 55.1645 35.8551 55.3469 35.4524C58.0353 35.3086 60.8581 35.0402 63.4601 34.3978L63.6906 34.4458L64.9387 36.8042C65.3612 36.8042 65.9085 36.9001 66.2349 36.7083L65.0732 34.0815L65.1692 33.9856C67.2911 33.4391 69.2882 32.6242 71.3333 31.8093C72.7735 33.3049 74.1177 35.0785 75.3275 36.8042C75.8364 36.8042 76.3453 36.8521 76.7197 36.7083C76.1628 35.7113 75.4619 34.7142 74.7226 33.8418C74.1177 32.979 73.4744 32.212 72.6775 31.3971V31.167L75.9228 29.3071L76.3933 29.1249C79.2161 31.2629 81.7221 33.8514 83.7096 36.7179C84.2664 36.7179 84.7273 36.9097 85.1978 36.6796C78.9857 27.4089 68.7409 21.4457 57.6705 20.5829L57.6225 20.6691L57.5264 20.5829C56.2783 20.4486 54.742 20.4007 53.3978 20.5349C52.8889 20.4966 52.284 20.5349 51.6792 20.5829C40.5607 21.4361 30.3159 27.1308 23.9214 36.8138C24.4015 36.7563 24.9487 36.9384 25.4192 36.7563ZM44.6509 32.7585L44.4685 32.7968C42.5674 32.2983 40.7143 31.7039 38.9572 30.9369L39.0437 30.6589C41.5976 28.2525 44.2764 26.2488 47.2433 24.7053C47.9442 24.9833 48.6355 25.2038 49.3268 25.5298L49.1924 25.8845C47.4257 28.0704 46.0431 30.4288 44.6509 32.7585ZM53.8683 33.9856C52.5721 34.1678 51.4199 33.9473 50.1141 33.8418C48.8659 33.6596 47.2913 33.5254 46.0431 33.1132C47.3873 30.6205 48.962 28.2142 50.863 25.99L53.8299 26.3926C53.9643 28.7511 53.8683 31.4834 53.8683 33.9856ZM55.3085 34.0335C55.2125 31.6176 55.2605 28.9332 55.3085 26.431C56.2398 26.2968 57.2576 26.153 58.1793 26.0283C59.9844 28.3005 61.7511 30.6205 62.9609 33.1132C60.4549 33.7076 57.9009 34.0335 55.3085 34.0335ZM70.0947 30.841C68.2801 31.608 66.427 32.3366 64.4395 32.7585C62.9993 30.3521 61.4342 27.9362 59.658 25.6161C60.3109 25.2614 61.0982 24.9833 61.7895 24.6286C64.8043 26.1242 67.7232 28.2621 70.1811 30.7164L70.0947 30.841ZM64.161 23.0659C68.0592 24.0726 71.7174 25.7886 75.0491 28.1567L74.9531 28.3388L71.7558 30.1124H71.5253C69.0674 27.6677 66.1965 25.5298 63.2777 23.8425C63.3737 23.5261 63.8346 23.296 64.161 23.0659ZM62.308 22.6153V22.7112C58.2753 25.6161 51.7368 25.8941 47.4833 23.2097C47.2433 23.0276 46.7824 22.9413 46.7344 22.6249C51.6504 21.484 57.44 21.3882 62.308 22.6153ZM34.0317 28.2525C36.9505 26.1146 40.1958 24.5231 43.6235 23.4302C43.7676 23.2864 43.854 23.1522 44.0364 23.1522V23.2481C44.4109 23.3343 44.6893 22.9221 45.0062 23.2001C45.2846 23.4302 45.611 23.6124 45.8415 23.8425C42.9706 25.6065 40.1382 27.7061 37.5458 30.2466C36.2976 29.796 35.1359 29.1154 34.0221 28.3388V28.2525H34.0317Z" fill="black"/>
<path d="M53.9165 64.6226C49.5574 65.8114 44.8335 64.9006 41.6842 61.6218C41.3194 61.1616 41.0793 60.6248 40.7145 60.1742L34.4639 60.2221C34.3679 63.9035 34.3199 68.1314 34.4639 71.7745L41.4154 71.7266L41.5114 69.5407C42.2987 69.9051 43.086 70.3556 43.8734 70.7679C48.6933 72.7716 54.8958 73.2222 59.6773 70.7679C63.1531 68.8601 65.0061 65.1786 64.4973 61.2192C63.9884 57.3556 60.2822 53.8563 56.5281 52.9072L45.2944 49.6667L44.459 49.2545C44.0846 48.9381 43.8542 48.5354 43.9502 48.0273C44.8335 46.5317 46.869 46.9823 48.3956 47.0207C51.6409 47.4809 54.9726 48.5642 56.8737 51.5266C58.9092 51.5266 61.2712 51.565 63.4987 51.4787C63.5947 47.7493 63.4603 44.4801 63.4027 40.7028C61.3192 40.6549 58.7652 40.6549 56.6817 40.7507C56.5857 41.2876 56.7681 42.0642 56.5377 42.6106L54.4061 41.4698C49.3078 39.3318 42.1739 39.1113 37.5364 42.4285C34.5216 44.6047 33.5998 48.5259 34.3871 51.9772C34.992 55.2464 38.1413 57.6623 41.1561 58.7936C45.2752 60.2509 49.5862 61.2959 53.7628 62.7052C54.1757 62.8873 54.7326 63.2996 54.6462 63.7981C54.6654 64.2103 54.2429 64.45 53.9165 64.6226Z" fill="black"/>
<path d="M10.1139 75.0938L10.3443 75.6114C10.3827 75.7073 10.3347 75.8223 10.2291 75.8702L3.55672 78.7461C3.46071 78.7845 3.34551 78.7557 3.3071 78.6503L3.07669 78.1326C3.03829 78.0367 3.07669 77.9313 3.18229 77.8834L9.86431 75.0075C9.94112 74.9691 10.0659 74.9883 10.1139 75.0938Z" fill="black"/>
<path d="M8.1363 69.7064L8.28991 70.1761C8.32831 70.2815 8.27071 70.4062 8.1651 70.4349L4.9297 71.5277C3.94084 71.8633 3.74882 72.2946 3.99844 73.0424C4.13285 73.4546 4.44967 73.8572 4.82409 74.2311L8.96195 72.8411C9.05796 72.8027 9.19237 72.8602 9.22117 72.9657L9.38438 73.445C9.41318 73.5409 9.35557 73.6559 9.24997 73.6942L4.24805 75.3814C4.14245 75.4198 4.02724 75.3718 3.98884 75.2568L3.82563 74.7679C3.78723 74.6624 3.85443 74.5474 3.96004 74.5187L4.14245 74.4516C3.67202 74.0202 3.3744 73.6367 3.18239 73.0615C2.77916 71.8824 3.336 71.1155 4.64168 70.665L7.86748 69.5817C7.97309 69.5434 8.0979 69.6009 8.1363 69.7064Z" fill="black"/>
<path d="M7.21443 65.8523C7.29123 66.044 7.37764 66.3028 7.41604 66.4945C7.63685 67.4244 7.50244 67.9133 6.39837 68.1817L2.88455 69.0157L3.00936 70.0127C3.02856 70.1277 2.99016 70.2236 2.87495 70.2428L2.60614 70.3099C2.50053 70.3386 2.40452 70.2715 2.37572 70.1661L2.14531 69.1883L1.15645 69.4183C1.06044 69.4471 0.954833 69.3896 0.91643 69.2841L0.714818 68.7856C0.714818 68.7761 0.714818 68.7665 0.705217 68.7569C0.686016 68.6802 0.743619 68.5843 0.839626 68.5652L1.93409 68.3063L1.67488 67.2231C1.65568 67.1176 1.72288 67.0026 1.82849 66.9738L2.17411 66.8972C2.27972 66.8684 2.39492 66.9355 2.42373 67.0505L2.68294 68.1338L6.18716 67.2998C6.744 67.1752 6.792 67.0122 6.69599 66.6096L6.56158 66.0536C6.53278 65.9098 6.55198 65.8331 6.65759 65.8043L7.01281 65.718C7.08962 65.6893 7.16642 65.7276 7.21443 65.8523Z" fill="black"/>
<path d="M3.91185 61.2125L4.38228 64.6348L4.52629 64.6156C5.74556 64.443 6.12959 63.9062 5.99518 62.9668C5.91838 62.3724 5.76477 61.6247 5.63036 61.1646C5.63036 61.1454 5.62076 61.1358 5.62076 61.1166C5.61116 61.0399 5.63996 60.9441 5.74556 60.9345L6.09119 60.8865C6.22559 60.8674 6.3024 60.8961 6.3504 61.0591C6.54241 61.6247 6.68642 62.1807 6.78243 62.8709C6.94564 64.05 6.55201 65.2675 4.6415 65.5359L3.71984 65.6605C2.25095 65.8714 1.21408 65.1812 1.01247 63.7241C0.810855 62.2286 1.64611 61.3467 3.0958 61.1454L3.65263 61.0687C3.78704 61.0303 3.89265 61.0879 3.91185 61.2125ZM3.23021 62.0369C2.06853 62.1999 1.68451 62.6983 1.80932 63.5995C1.93413 64.4814 2.50056 64.9032 3.60463 64.7498L3.70064 64.7402L3.32621 62.0273L3.23021 62.0369Z" fill="black"/>
<path d="M1.29087 57.6523C1.31007 58.1316 1.46368 58.5534 1.7997 59.0519L6.11997 58.8314C6.22557 58.8314 6.33118 58.9177 6.33118 59.0327L6.35998 59.5408C6.35998 59.6462 6.27358 59.7421 6.15837 59.7421L0.897244 60.0201C0.782036 60.0201 0.686031 59.9434 0.686031 59.838L0.657229 59.3586C0.647628 59.2436 0.734033 59.1573 0.849241 59.1478L1.07005 59.1382C0.686031 58.6397 0.52282 58.1795 0.494019 57.7098C0.494019 57.566 0.542022 57.4893 0.67643 57.4797L1.09886 57.4606C1.21406 57.4318 1.28127 57.5085 1.29087 57.6523Z" fill="black"/>
<path d="M6.36968 52.2737L6.35048 52.7721C6.35048 52.8872 6.24487 52.9734 6.13926 52.9734L2.74065 52.8297C1.70379 52.7913 1.36777 53.1268 1.33896 53.9129C1.31976 54.3443 1.46377 54.8332 1.68459 55.3221L6.03366 55.4946C6.13926 55.4946 6.23527 55.6001 6.23527 55.7055L6.21607 56.204C6.21607 56.3095 6.11046 56.3957 6.00486 56.3861L0.743727 56.1848C0.62852 56.1848 0.542114 56.089 0.542114 55.9835L0.561315 55.4659C0.561315 55.3508 0.657321 55.2741 0.772529 55.2837L0.964541 55.2933C0.666922 54.7086 0.532514 54.2484 0.561315 53.6349C0.609318 52.3983 1.40617 51.871 2.77905 51.9285L6.16807 52.0628C6.28327 52.0628 6.36968 52.1586 6.36968 52.2737Z" fill="black"/>
<path d="M7.04176 47.2343L6.96496 47.704C6.94576 47.819 6.84015 47.8957 6.73454 47.8765L6.50413 47.8478C6.71534 48.375 6.85935 48.9214 6.77295 49.487C6.64814 50.3498 6.14891 51.0879 4.87203 50.9058L4.74722 50.8866C3.64315 50.7237 3.19192 50.0047 3.45114 48.1833L3.56635 47.426L3.16312 47.3685C2.29907 47.2438 1.96305 47.4931 1.84784 48.2888C1.74223 48.9502 1.72303 49.4487 1.69423 49.8609C1.69423 49.8801 1.69423 49.8897 1.68463 49.9088C1.66543 50.0047 1.62703 50.091 1.49262 50.0718L1.13739 50.0239C1.02219 50.0047 0.974184 49.928 0.974184 49.7842C0.964584 49.3528 0.974184 48.8735 1.07979 48.1833C1.291 46.7741 2.08785 46.3044 3.29753 46.477L6.85935 47.0042C6.97456 47.0138 7.06096 47.1192 7.04176 47.2343ZM4.21919 47.5219L4.10398 48.2792C3.92157 49.5158 4.15198 49.8801 4.87203 49.9855L4.99683 50.0047C5.72648 50.1101 5.9761 49.8034 6.0625 49.209C6.12971 48.7393 6.0529 48.2983 5.86089 47.7711L4.21919 47.5219Z" fill="black"/>
<path d="M7.95365 43.4265C7.93444 43.6278 7.89604 43.8962 7.84804 44.0879C7.62723 45.0082 7.2816 45.3917 6.17754 45.1329L2.66372 44.2988L2.31809 45.2479C2.27969 45.3533 2.20289 45.4204 2.08768 45.4013L1.81886 45.3342C1.70366 45.3054 1.65565 45.2095 1.68446 45.1041L1.91487 44.1263L0.926008 43.8962C0.820401 43.8771 0.762797 43.7812 0.772398 43.6662L0.8108 43.1293C0.8108 43.1197 0.820401 43.1102 0.820401 43.1006C0.839602 43.0239 0.926008 42.9664 1.02201 42.9951L2.11648 43.2539L2.3757 42.1707C2.4045 42.0653 2.51971 41.9886 2.62531 42.0173L2.97094 42.1036C3.07654 42.1324 3.14375 42.2378 3.12454 42.3528L2.86533 43.4361L6.36955 44.2701C6.92638 44.3947 7.04159 44.2797 7.12799 43.8771L7.2624 43.3211C7.2912 43.1773 7.34881 43.1197 7.45441 43.1485L7.80964 43.2348C7.91524 43.2252 7.96325 43.2827 7.95365 43.4265Z" fill="black"/>
<path d="M2.16461 39.7939L2.01099 40.2924C1.97258 40.3979 1.85736 40.465 1.75175 40.4267L0.96443 40.187C0.858814 40.1582 0.791604 40.0336 0.83001 39.9281L0.983633 39.42C1.02204 39.3146 1.13726 39.2475 1.24287 39.2858L2.03019 39.5255C2.13581 39.5734 2.19341 39.6885 2.16461 39.7939ZM8.44395 41.7401L8.29993 42.2099C8.27113 42.3153 8.14631 42.3824 8.04069 42.3441L3.00954 40.8102C2.90392 40.7718 2.83671 40.6568 2.87512 40.5513L3.01914 40.0719C3.05754 39.9665 3.17276 39.8994 3.27838 39.9377L8.30954 41.4812C8.41515 41.5196 8.48236 41.6346 8.44395 41.7401Z" fill="black"/>
<path d="M9.72048 38.3846C9.16365 39.7938 7.94437 40.1389 6.53308 39.5733L5.80344 39.2857C4.39215 38.7297 3.74891 37.6369 4.31534 36.2373C4.87218 34.8281 6.09146 34.4734 7.50274 35.0294L8.23239 35.317C9.64368 35.8826 10.2773 36.985 9.72048 38.3846ZM7.16672 35.873C6.18746 35.48 5.40981 35.6238 5.05459 36.5249C4.69937 37.4164 5.1602 38.0491 6.13946 38.4422L6.8691 38.7297C7.84837 39.1228 8.62601 38.979 8.98124 38.0875C9.33646 37.1959 8.87563 36.5537 7.89637 36.1606L7.16672 35.873Z" fill="black"/>
<path d="M12.8792 31.7093L12.6488 32.1406C12.6008 32.2461 12.4663 32.2749 12.3703 32.2269L9.37496 30.626C8.4533 30.1275 8.01167 30.2905 7.63725 30.9807C7.43564 31.3642 7.34923 31.8722 7.33003 32.3995L11.1703 34.4605C11.2567 34.5084 11.3047 34.6427 11.2567 34.7385L11.0167 35.1795C10.9687 35.2753 10.8438 35.3041 10.7382 35.2562L6.09156 32.7637C5.98595 32.7158 5.94755 32.5912 6.00515 32.4953L6.24517 32.0448C6.30277 31.9489 6.41798 31.9202 6.52358 31.9681L6.69639 32.064C6.68679 31.4121 6.7732 30.9232 7.05161 30.3959C7.63725 29.3031 8.58771 29.1785 9.79739 29.8304L12.7928 31.4313C12.8888 31.4792 12.9272 31.6038 12.8792 31.7093Z" fill="black"/>
<path d="M15.6638 27.514L15.395 27.907C15.3278 28.0029 15.2029 28.0221 15.1069 27.955L14.9245 27.8304C14.8861 28.3959 14.7709 28.9424 14.4445 29.4217C13.9453 30.1502 13.1772 30.5912 12.1116 29.8626L12.0059 29.7955C11.0843 29.1628 10.9979 28.3193 12.0347 26.8046L12.4668 26.1719L12.1212 25.9419C11.4107 25.453 10.9883 25.5297 10.5371 26.1911C10.153 26.7471 9.91301 27.1785 9.7114 27.5332C9.7018 27.5524 9.6922 27.5524 9.6826 27.5715C9.6346 27.6482 9.54819 27.7057 9.44258 27.629L9.14497 27.4277C9.04896 27.3606 9.03936 27.2648 9.10656 27.1401C9.28897 26.7471 9.50979 26.3253 9.90341 25.7501C10.7099 24.571 11.6315 24.5039 12.6396 25.1941L15.6158 27.2264C15.7022 27.2935 15.731 27.4181 15.6638 27.514ZM13.0044 26.5362L12.5724 27.1689C11.8715 28.1946 11.9099 28.626 12.5148 29.0382L12.6204 29.1053C13.2348 29.5271 13.59 29.345 13.9357 28.8561C14.2045 28.463 14.3293 28.0413 14.3869 27.4757L13.0044 26.5362Z" fill="black"/>
<path d="M17.0367 25.7868L16.7007 26.2086C16.6335 26.2853 16.5183 26.2949 16.4223 26.2278L10.6715 21.6264C10.5947 21.5593 10.5659 21.4538 10.6331 21.358L10.9691 20.9362C11.0364 20.8595 11.142 20.8403 11.238 20.917L16.9887 25.5184C17.0751 25.5759 17.1135 25.7005 17.0367 25.7868Z" fill="black"/>
<path d="M21.5493 21.0634C20.3685 22.1658 18.8612 22.2809 17.2963 20.6129L16.3842 19.6446C14.8193 17.9766 15.0209 16.4812 16.2114 15.3692C17.4019 14.2572 18.8996 14.1613 20.4645 15.8293L21.3765 16.7975C22.9318 18.4655 22.7302 19.961 21.5493 21.0634ZM19.7636 16.4812C18.5732 15.2158 17.6131 15.2158 16.7874 15.9923C15.9618 16.7592 15.8946 17.737 17.0755 19.0024L17.9875 19.9706C19.178 21.236 20.1477 21.2264 20.9733 20.4499C21.7894 19.683 21.8566 18.7148 20.6757 17.4494L19.7636 16.4812Z" fill="black"/>
<path d="M23.2397 13.1228C22.8652 13.4104 22.5964 13.7747 22.3756 14.3307L25.0062 17.7625C25.0734 17.8392 25.0542 17.983 24.9678 18.0501L24.5645 18.3569C24.4877 18.424 24.3533 18.4048 24.2861 18.3089L21.0891 14.1389C21.0123 14.0527 21.0315 13.928 21.1179 13.8609L21.502 13.5638C21.598 13.4967 21.7132 13.5158 21.7804 13.6117L21.9148 13.7842C22.1068 13.1899 22.3948 12.7969 22.7692 12.5093C22.8844 12.423 22.9804 12.423 23.0477 12.5284L23.3069 12.864C23.3741 12.9406 23.3549 13.0269 23.2397 13.1228Z" fill="black"/>
<path d="M27.9253 10.015L27.6469 10.2739C27.9061 10.341 28.2134 10.5135 28.511 10.9833L28.559 11.0504C29.1639 12.0091 28.9143 12.9103 27.5701 13.7636C27.1092 14.0608 26.7635 14.1758 26.4467 14.2333C26.3411 14.3963 26.3411 14.5401 26.4179 14.6647C26.5139 14.8181 26.6291 14.8469 26.8691 14.7702L28.3766 14.2813C29.3655 13.9553 30.3449 13.6773 30.8633 14.4922L30.9114 14.5593C31.4394 15.3934 31.209 16.2562 29.788 17.167C28.415 18.049 27.4452 17.9148 26.9076 17.0615L26.8595 16.9848C26.5523 16.5055 26.5523 15.9302 26.7059 15.5372L26.6291 15.5468C26.2739 15.6043 25.9762 15.3934 25.7938 15.1249V15.1153C25.6402 14.8852 25.5922 14.5593 25.7458 14.2621C25.3137 14.1854 24.9873 13.9553 24.6992 13.5143L24.6512 13.4376C24.1615 12.661 24.1039 11.6256 25.6018 10.6669L27.5028 9.45895C27.6085 9.39184 27.7525 9.4206 27.8293 9.52606L27.9733 9.75615C28.0501 9.86161 28.0117 9.92872 27.9253 10.015ZM27.7621 11.4627C27.4356 10.945 26.9364 10.6861 25.9954 11.2805C25.0161 11.9037 25.1025 12.4693 25.4097 12.9582L25.4577 13.0253C25.6978 13.4088 26.197 13.8019 27.1956 13.1596C28.1365 12.5652 28.1365 12.0475 27.8005 11.5298L27.7621 11.4627ZM30.1048 14.9811C29.884 14.636 29.5191 14.6743 28.6166 14.9811L27.474 15.355C27.3588 15.7289 27.3204 16.0645 27.6181 16.515L27.6661 16.5917C27.9733 17.0711 28.4534 17.1957 29.4231 16.5822C30.4121 15.9494 30.4601 15.5276 30.1528 15.0482L30.1048 14.9811Z" fill="black"/>
<path d="M34.809 12.1054L34.377 12.3163C34.2714 12.3642 34.1466 12.3259 34.0986 12.2204L34.0026 12.0191C33.6858 12.4984 33.3209 12.9202 32.7929 13.179C32.0057 13.5625 31.1128 13.5817 30.5464 12.4217L30.4888 12.3163C29.9991 11.3193 30.3352 10.5237 31.9769 9.71841L32.6585 9.38289L32.4761 9.00903C32.0921 8.23254 31.6888 8.09834 30.9688 8.45303C30.364 8.7502 29.9415 9.00903 29.5863 9.21993C29.5671 9.22951 29.5575 9.2391 29.5383 9.24869C29.4519 9.28703 29.3559 9.3062 29.2983 9.18158L29.1351 8.85565C29.0871 8.7502 29.1255 8.66392 29.2407 8.58723C29.5863 8.33799 29.9895 8.06958 30.6136 7.75323C31.9001 7.12054 32.7353 7.51357 33.2825 8.60641L34.8762 11.837C34.9626 11.9232 34.9146 12.0479 34.809 12.1054ZM32.9657 9.94848L32.2841 10.284C31.1608 10.84 30.988 11.233 31.3144 11.8945L31.372 11.9999C31.6984 12.671 32.1017 12.6901 32.6393 12.4217C33.0713 12.2108 33.3785 11.8945 33.705 11.4343L32.9657 9.94848Z" fill="black"/>
<path d="M39.9459 10.1393L39.4755 10.3119C39.3699 10.3502 39.2451 10.2927 39.2163 10.1873L38.0546 7.00463C37.6994 6.02684 37.2578 5.8447 36.5185 6.11311C36.1153 6.26649 35.7121 6.58284 35.3472 6.96629L36.8353 11.0596C36.8737 11.1555 36.8161 11.2897 36.7105 11.3184L36.2305 11.491C36.1345 11.5293 36.0097 11.4718 35.9809 11.3664L34.176 6.41987C34.1376 6.31442 34.1856 6.19939 34.2912 6.16104L34.7808 5.9789C34.8864 5.94056 34.992 5.99808 35.0304 6.10353L35.0976 6.28566C35.5201 5.78718 35.9041 5.49001 36.4801 5.27911C37.6418 4.85731 38.429 5.39414 38.9091 6.68829L40.0707 9.87092C40.0995 9.97637 40.0515 10.101 39.9459 10.1393Z" fill="black"/>
<path d="M40.3689 3.20409L39.86 3.33831C39.7544 3.36707 39.6295 3.29996 39.6103 3.1945L39.3895 2.39877C39.3607 2.29332 39.4279 2.17827 39.5335 2.14951L40.0424 2.0057C40.148 1.97694 40.2728 2.04405 40.292 2.14951L40.5129 2.94524C40.5417 3.06028 40.4745 3.17533 40.3689 3.20409ZM42.0779 9.56033L41.5978 9.68496C41.4922 9.71372 41.377 9.64661 41.3482 9.54115L39.9656 4.46958C39.9368 4.36413 39.9944 4.24908 40.1096 4.22032L40.5897 4.09569C40.6953 4.06693 40.8105 4.13404 40.8393 4.23949L42.2219 9.30148C42.2507 9.41652 42.1835 9.53157 42.0779 9.56033Z" fill="black"/>
<path d="M47.0126 8.47781L43.95 9.08174C43.518 9.16802 43.2779 8.92836 43.2203 8.64077L43.1819 8.44905C43.1243 8.17105 43.1531 7.9985 43.2875 7.74925L45.2653 3.98186C45.2749 3.9531 45.2941 3.91476 45.2845 3.886C45.2749 3.83807 45.2461 3.81889 45.1693 3.83807L42.7019 4.31738C42.5867 4.33655 42.4811 4.26945 42.4523 4.15441L42.3851 3.80931C42.3659 3.70386 42.4331 3.58883 42.5483 3.56965L45.5341 2.98489C45.9469 2.89862 46.1389 3.06158 46.1965 3.36834L46.2445 3.61758C46.2829 3.82848 46.2445 3.99145 46.1197 4.22152L44.1036 8.07519C44.0748 8.12312 44.0652 8.17105 44.0748 8.19981C44.0844 8.24774 44.1036 8.2765 44.1708 8.26691L46.8494 7.73967C46.9646 7.71091 47.0702 7.7876 47.0894 7.90263L47.1566 8.24774C47.195 8.35319 47.1182 8.45864 47.0126 8.47781Z" fill="black"/>
<path d="M51.8423 7.97717L51.3623 8.02511C51.2471 8.03469 51.1511 7.94842 51.1415 7.83338L51.1222 7.60331C50.6518 7.93883 50.1622 8.19766 49.5862 8.25518C48.7125 8.33187 47.8772 8.02511 47.762 6.75014L47.7524 6.62551C47.6468 5.51351 48.2421 4.90958 50.0758 4.73702L50.8342 4.66992L50.7958 4.25771C50.719 3.39495 50.3926 3.12654 49.5862 3.19364C48.9141 3.25116 48.4245 3.34702 48.0213 3.42371C48.0021 3.42371 47.9925 3.42371 47.9732 3.4333C47.8772 3.44288 47.7908 3.41412 47.7716 3.27992L47.7428 2.92522C47.7332 2.81019 47.7908 2.74309 47.9444 2.71433C48.3573 2.59929 48.8277 2.49384 49.5189 2.43633C50.9494 2.3117 51.5927 2.97316 51.6983 4.18102L52.0247 7.76628C52.0343 7.87173 51.9575 7.96759 51.8423 7.97717ZM50.8918 5.3122L50.1334 5.38889C48.8853 5.50392 48.5877 5.81068 48.6549 6.53924L48.6645 6.66386C48.7317 7.402 49.0965 7.56497 49.6918 7.50745C50.1622 7.45952 50.575 7.27738 51.0454 6.97062L50.8918 5.3122Z" fill="black"/>
<path d="M55.7983 7.93484C55.5871 7.9636 55.3183 7.99236 55.1263 7.99236C54.1758 8.01153 53.715 7.76229 53.6958 6.63111L53.6478 3.02668L52.6397 2.93082C52.5245 2.92123 52.4381 2.85413 52.4381 2.74868V2.47068C52.4381 2.35565 52.5149 2.28854 52.6301 2.27896L53.6382 2.25978L53.619 1.25323C53.619 1.14778 53.6862 1.07109 53.8014 1.04233L54.339 0.956055C54.3486 0.956055 54.3678 0.956055 54.3678 0.956055C54.4542 0.956055 54.5214 1.02316 54.5214 1.12861L54.5406 2.2502L55.6543 2.23103C55.7695 2.23103 55.8655 2.3173 55.8655 2.43234L55.8751 2.78703C55.8751 2.90206 55.7791 2.99793 55.6735 2.99793L54.5598 3.0171L54.6174 6.62153C54.627 7.18711 54.7711 7.27339 55.1839 7.2638L55.7599 7.25422C55.9039 7.25422 55.9807 7.29256 55.9807 7.39801V7.76229C55.9807 7.84856 55.9327 7.90608 55.7983 7.93484Z" fill="black"/>
<path d="M57.6034 8.03064L57.1041 8.00188C56.9889 8.00188 56.9025 7.89643 56.9121 7.78138L57.2194 2.52766C57.229 2.41261 57.325 2.32633 57.4402 2.33591L57.9395 2.36468C58.0547 2.37426 58.1411 2.47013 58.1315 2.58518L57.8242 7.82932C57.8146 7.95395 57.7186 8.03064 57.6034 8.03064ZM58.0067 1.46349L57.4786 1.43473C57.3634 1.43473 57.277 1.32927 57.2866 1.21422L57.3346 0.389735C57.3442 0.27469 57.4402 0.188406 57.5554 0.197993L58.0835 0.226755C58.1987 0.236342 58.2851 0.332212 58.2755 0.447258L58.2275 1.27175C58.2179 1.38679 58.1219 1.47308 58.0067 1.46349Z" fill="black"/>
<path d="M61.1653 8.4517C59.658 8.25039 59.0244 7.14797 59.226 5.65252L59.3316 4.87603C59.5332 3.37099 60.4357 2.47947 61.943 2.69037C63.4503 2.89168 64.0935 3.9941 63.8919 5.48955L63.7863 6.26604C63.5751 7.76149 62.663 8.65301 61.1653 8.4517ZM62.9798 5.36493C63.1239 4.32003 62.7974 3.60106 61.8278 3.46685C60.8869 3.34223 60.3781 3.93658 60.2245 4.99107L60.1189 5.76755C59.9749 6.81245 60.2917 7.53142 61.2613 7.66563C62.2118 7.79025 62.7302 7.1959 62.8742 6.14142L62.9798 5.36493Z" fill="black"/>
<path d="M68.4048 9.90021L67.9248 9.77559C67.8096 9.74683 67.752 9.63179 67.7712 9.52634L68.6064 6.23826C68.8657 5.23171 68.6064 4.82909 67.8384 4.63736C67.416 4.53191 66.9071 4.57026 66.3887 4.68529L65.3134 8.90324C65.2846 9.00869 65.1694 9.07579 65.0638 9.05662L64.5742 8.932C64.4686 8.90324 64.411 8.79779 64.4302 8.68275L65.7359 3.58287C65.7647 3.46784 65.8703 3.40074 65.9759 3.42949L66.4751 3.55411C66.5903 3.57329 66.6479 3.68832 66.6191 3.80336L66.5711 3.99508C67.1951 3.82253 67.6848 3.79377 68.28 3.94715C69.4801 4.25391 69.8353 5.13585 69.4897 6.47792L68.6448 9.766C68.6256 9.86186 68.52 9.92897 68.4048 9.90021Z" fill="black"/>
<path d="M77.1611 5.57673L76.7002 5.38501C76.249 5.20287 76.0666 5.27956 75.8458 5.79722L75.5578 6.48743L76.5658 6.89964C76.6714 6.94757 76.7194 7.05301 76.6714 7.14888L76.5178 7.52274C76.4794 7.6186 76.3738 7.64736 76.2682 7.60902L75.2698 7.19681L73.4744 11.5394C73.436 11.6352 73.3112 11.6928 73.2152 11.6544L72.7448 11.4627C72.6392 11.4243 72.5912 11.2901 72.6296 11.1943L74.4345 6.84212L73.5512 6.35322C73.4456 6.30529 73.3976 6.19984 73.436 6.10398L73.5416 5.84515C73.58 5.74929 73.6857 5.71094 73.7913 5.74929L74.7225 6.13274L75.0009 5.45211C75.4234 4.42638 76.0474 4.33052 76.8827 4.67563C77.1419 4.78108 77.2859 4.87694 77.3915 4.95363C77.4875 5.03032 77.5451 5.09742 77.5163 5.1837L77.3819 5.50004C77.3531 5.60549 77.2667 5.61508 77.1611 5.57673Z" fill="black"/>
<path d="M76.9118 13.4737C75.5677 12.7643 75.3469 11.5277 76.0477 10.1856L76.4125 9.49543C77.123 8.15336 78.2654 7.62611 79.6095 8.33549C80.9536 9.03529 81.184 10.2815 80.4736 11.6236L80.1088 12.3234C79.4079 13.6559 78.2558 14.1735 76.9118 13.4737ZM79.6767 11.2018C80.1664 10.2719 80.0992 9.48584 79.2447 9.03529C78.3999 8.59432 77.7182 8.97777 77.219 9.91722L76.8542 10.617C76.3645 11.5469 76.4221 12.333 77.2862 12.7835C78.131 13.2341 78.8223 12.841 79.3215 11.9016L79.6767 11.2018Z" fill="black"/>
<path d="M84.4485 12.115C84.0453 11.8658 83.6228 11.7316 83.018 11.7124L80.6755 15.336C80.6179 15.4223 80.4834 15.4606 80.397 15.3935L79.965 15.1251C79.8786 15.0676 79.8498 14.943 79.917 14.8471L82.7588 10.4374C82.826 10.3416 82.9412 10.3128 83.0372 10.3703L83.4404 10.6292C83.5364 10.6867 83.5556 10.8113 83.4884 10.9072L83.3732 11.0893C84.0069 11.0605 84.4773 11.2139 84.8613 11.4632C84.9861 11.5399 85.0149 11.6357 84.9477 11.7412L84.7173 12.0959C84.6597 12.1821 84.5637 12.1917 84.4485 12.115Z" fill="black"/>
<path d="M85.8509 19.5118C85.3036 19.0421 84.9484 18.6298 84.6507 18.2847C84.5355 18.1505 84.5547 18.1025 84.6219 18.0163L84.8908 17.7095C84.9676 17.6232 85.0636 17.6328 85.1308 17.6999C85.1404 17.7095 85.15 17.7191 85.1596 17.7191C85.4861 18.0642 86.0429 18.5723 86.4078 18.8791C87.3487 19.6844 87.9248 19.531 88.3953 18.9845C88.7313 18.6011 88.6929 18.1792 88.3665 17.1342L88.0016 16.0221C87.6656 14.958 87.6464 14.2581 88.1841 13.635C89.0002 12.6858 90.0563 12.8392 91.2469 13.865C91.7078 14.2677 92.2647 14.8238 92.5239 15.1305C92.5911 15.2168 92.6103 15.3031 92.5431 15.3798L92.2551 15.7154C92.1879 15.792 92.0918 15.792 92.015 15.7249C92.0054 15.7154 92.0054 15.7154 91.9958 15.7058C91.6694 15.3894 91.1413 14.8909 90.69 14.4978C89.8835 13.8075 89.3938 13.6829 88.8946 14.2485C88.5777 14.6224 88.6449 15.0538 88.933 15.9263L89.2786 16.9808C89.7203 18.2943 89.6723 19.0037 89.125 19.6269C88.4817 20.3555 87.3871 20.8349 85.8509 19.5118Z" fill="black"/>
<path d="M90.2002 23.5867C90.037 23.462 89.8354 23.2799 89.6914 23.1457C89.029 22.4651 88.8849 21.9762 89.701 21.1805L92.274 18.6593L91.6499 17.8637C91.5731 17.7774 91.5635 17.6719 91.6499 17.5953L91.8515 17.4035C91.9283 17.3268 92.0435 17.3364 92.1204 17.4131L92.8212 18.1225L93.5412 17.4131C93.618 17.3364 93.7237 17.3364 93.8197 17.4035L94.2517 17.7295C94.2517 17.7295 94.2613 17.7391 94.2709 17.7486C94.3285 17.8062 94.3285 17.9116 94.2517 17.9787L93.4452 18.7648L94.2325 19.5604C94.3093 19.6371 94.3093 19.7713 94.2325 19.8576L93.9829 20.1069C93.9061 20.1835 93.7717 20.1835 93.6852 20.1069L92.9076 19.3112L90.3346 21.8324C89.9314 22.2254 89.9698 22.3884 90.2578 22.6856L90.6611 23.0978C90.7571 23.2032 90.7859 23.2799 90.7091 23.3566L90.4498 23.6058C90.3922 23.6634 90.3058 23.6634 90.2002 23.5867Z" fill="black"/>
<path d="M93.1956 27.1387L92.898 26.7649C92.8212 26.6786 92.8404 26.5444 92.9268 26.4773L93.0996 26.3335C92.562 26.1322 92.0628 25.8638 91.7076 25.4228C91.1507 24.7422 90.9395 23.8794 91.938 23.0646L92.034 22.9879C92.898 22.2881 93.7429 22.4319 94.9046 23.8602L95.3846 24.4546L95.711 24.1957C96.383 23.6493 96.4214 23.2275 95.9222 22.6044C95.4998 22.0868 95.1542 21.7225 94.8566 21.4349C94.847 21.4157 94.8374 21.4062 94.8277 21.3966C94.7701 21.3199 94.7317 21.2336 94.8373 21.1473L95.1158 20.9173C95.2022 20.8406 95.2982 20.8597 95.4038 20.9652C95.7302 21.2432 96.0758 21.5787 96.5175 22.1155C97.4199 23.2275 97.2279 24.1382 96.287 24.8955L93.4933 27.1675C93.3973 27.2442 93.2725 27.225 93.1956 27.1387ZM94.8854 24.8668L94.4053 24.282C93.6181 23.3138 93.1956 23.2371 92.6292 23.6973L92.5332 23.774C91.9572 24.2437 92.0244 24.6367 92.4084 25.1064C92.706 25.4707 93.09 25.7104 93.6085 25.9213L94.8854 24.8668Z" fill="black"/>
<path d="M96.2105 31.6361L95.9417 31.2239C95.8745 31.128 95.9033 31.0034 95.9993 30.9363L98.8507 29.0958C99.7243 28.5302 99.8011 28.0604 99.3787 27.4086C99.1483 27.0443 98.745 26.728 98.2842 26.4595L94.6264 28.8273C94.54 28.8849 94.4056 28.8657 94.3384 28.7698L94.06 28.348C94.0023 28.2618 94.0311 28.1275 94.1272 28.07L98.5434 25.2133C98.6394 25.1558 98.7642 25.1654 98.8218 25.2613L99.1003 25.6926C99.1675 25.7885 99.1291 25.9131 99.0331 25.9706L98.8699 26.0761C99.4459 26.3828 99.8299 26.68 100.166 27.1977C100.838 28.233 100.492 29.1245 99.3403 29.8722L96.4889 31.7128C96.4025 31.7607 96.2777 31.732 96.2105 31.6361Z" fill="black"/>
<path d="M98.7455 36.2947C98.3519 35.777 98.0254 35.2401 97.7374 34.6745C97.0557 33.3035 97.6318 32.2202 99.0144 31.5299L99.6769 31.2039C101.127 30.4849 102.269 30.7438 102.941 32.0859C103.085 32.3736 103.277 32.8146 103.393 33.2076L105.111 32.3544C105.207 32.3064 105.323 32.3448 105.371 32.4407L105.601 32.9104C105.649 32.9967 105.611 33.1118 105.505 33.1597L99.0432 36.381C98.9376 36.4481 98.8607 36.4481 98.7455 36.2947ZM102.721 33.5528C102.625 33.2172 102.394 32.7379 102.24 32.4407C101.789 31.5299 101.079 31.5203 100.09 32.0092L99.4272 32.3448C98.4191 32.8433 97.9966 33.409 98.4575 34.3197C98.6111 34.6361 98.8607 35.0771 99.0528 35.3743L102.721 33.5528Z" fill="black"/>
<path d="M100.512 41.1046L100.349 40.6636C100.311 40.5582 100.368 40.4335 100.474 40.3952L100.685 40.3185C100.243 39.9542 99.8593 39.5516 99.6577 39.0052C99.3601 38.1808 99.4273 37.2988 100.647 36.8483L100.762 36.8099C101.808 36.4169 102.547 36.8387 103.191 38.5546L103.46 39.2736L103.844 39.1298C104.66 38.8231 104.832 38.4492 104.554 37.6919C104.324 37.0592 104.112 36.6182 103.93 36.2444C103.92 36.2252 103.92 36.2156 103.911 36.1964C103.882 36.1101 103.882 36.0143 104.007 35.9664L104.343 35.8417C104.448 35.8034 104.535 35.8417 104.602 35.9759C104.813 36.3498 105.044 36.7716 105.284 37.4235C105.783 38.7655 105.303 39.5612 104.17 39.983L100.791 41.2388C100.675 41.2675 100.56 41.21 100.512 41.1046ZM102.845 39.4941L102.576 38.7751C102.144 37.6056 101.77 37.3947 101.079 37.6535L100.963 37.6919C100.263 37.9507 100.205 38.3437 100.407 38.9093C100.57 39.3599 100.858 39.6954 101.28 40.0693L102.845 39.4941Z" fill="black"/>
<path d="M106.292 43.2991C106.167 42.8486 105.927 42.4555 105.495 42.0433L101.329 43.1937C101.223 43.2224 101.098 43.1553 101.079 43.0499L100.945 42.561C100.916 42.4555 100.983 42.3501 101.098 42.3213L106.177 40.9217C106.282 40.893 106.398 40.9409 106.426 41.0559L106.551 41.5257C106.58 41.6311 106.513 41.7366 106.407 41.7749L106.196 41.8324C106.676 42.235 106.935 42.6568 107.06 43.0978C107.099 43.2416 107.06 43.3279 106.935 43.3566L106.532 43.4621C106.417 43.5004 106.33 43.4429 106.292 43.2991Z" fill="black"/>
<path d="M102.519 49.16C102.279 48.5561 102.116 47.9521 102 47.3289C101.722 45.8142 102.576 44.9321 104.093 44.6541L104.823 44.5199C106.417 44.2227 107.444 44.7883 107.723 46.2647C107.78 46.5811 107.838 47.0605 107.848 47.4727L109.739 47.118C109.835 47.0988 109.941 47.1659 109.97 47.2714L110.066 47.7891C110.085 47.8945 110.018 47.9904 109.912 48.0096L102.807 49.3326C102.653 49.3518 102.576 49.3326 102.519 49.16ZM107.089 47.6069C107.089 47.2618 106.993 46.7249 106.935 46.4085C106.753 45.4115 106.071 45.2006 104.986 45.4115L104.257 45.5457C103.143 45.747 102.596 46.1785 102.778 47.1851C102.845 47.5302 102.96 48.0192 103.057 48.3643L107.089 47.6069Z" fill="black"/>
<path d="M102.634 51.3373L102.586 50.8388C102.576 50.7238 102.653 50.6279 102.768 50.6087L108.011 50.0623C108.126 50.0527 108.222 50.1294 108.241 50.2444L108.289 50.7429C108.299 50.858 108.212 50.9539 108.107 50.973L102.874 51.5195C102.759 51.5291 102.653 51.4524 102.634 51.3373ZM109.201 50.6663L109.144 50.139C109.134 50.0239 109.221 49.928 109.326 49.9089L110.152 49.8226C110.267 49.813 110.363 49.8897 110.382 50.0047L110.43 50.532C110.44 50.6471 110.363 50.7525 110.248 50.7621L109.422 50.8484C109.307 50.8676 109.211 50.7813 109.201 50.6663Z" fill="black"/>
<path d="M102.903 56.3894L102.807 53.2739C102.788 52.8233 103.066 52.6316 103.354 52.622H103.556C103.844 52.6124 103.998 52.67 104.238 52.8329L107.636 55.3924C107.665 55.4116 107.694 55.4308 107.732 55.4308C107.771 55.4308 107.809 55.402 107.799 55.3253L107.723 52.8137C107.723 52.6987 107.809 52.6028 107.924 52.6028L108.279 52.5933C108.395 52.5933 108.491 52.6795 108.491 52.7946L108.587 55.8334C108.596 56.2552 108.404 56.4182 108.097 56.4278L107.847 56.4373C107.627 56.4469 107.473 56.3798 107.271 56.2169L103.786 53.6094C103.738 53.5711 103.7 53.5615 103.671 53.5615C103.623 53.5615 103.594 53.5711 103.594 53.6477L103.681 56.3702C103.681 56.4853 103.594 56.5811 103.479 56.5811L103.124 56.5907C103.009 56.6003 102.903 56.5044 102.903 56.3894Z" fill="black"/>
<path d="M102.634 61.305L102.673 60.8257C102.682 60.7107 102.778 60.6244 102.893 60.634L103.114 60.6531C102.865 60.1355 102.682 59.6082 102.721 59.0331C102.778 58.1511 103.22 57.3842 104.506 57.4705L104.631 57.4801C105.745 57.5568 106.254 58.247 106.129 60.078L106.081 60.8353L106.494 60.864C107.358 60.9216 107.684 60.6531 107.732 59.8479C107.78 59.1769 107.77 58.688 107.761 58.2662C107.761 58.247 107.761 58.2374 107.761 58.2182C107.77 58.1224 107.809 58.0361 107.934 58.0457L108.299 58.0744C108.414 58.084 108.471 58.1607 108.471 58.3045C108.519 58.7263 108.548 59.2056 108.5 59.9054C108.395 61.3338 107.636 61.861 106.417 61.7747L102.826 61.5255C102.711 61.5255 102.625 61.42 102.634 61.305ZM105.428 60.7969L105.476 60.0396C105.562 58.7934 105.313 58.4483 104.583 58.3908L104.458 58.3812C103.719 58.3333 103.498 58.6688 103.45 59.2631C103.421 59.7329 103.527 60.1738 103.767 60.6819L105.428 60.7969Z" fill="black"/>
<path d="M102.029 65.199C102.029 64.9881 102.058 64.7196 102.087 64.5279C102.231 63.5885 102.548 63.1763 103.671 63.3584L107.233 63.9144L107.502 62.9462C107.53 62.8407 107.607 62.764 107.713 62.7832L107.991 62.8312C108.106 62.8503 108.164 62.9366 108.145 63.0516L107.991 64.039L108.99 64.1924C109.095 64.2116 109.162 64.2978 109.162 64.4033V64.9497C109.162 64.9593 109.162 64.9689 109.162 64.9785C109.143 65.0552 109.066 65.1223 108.961 65.1031L107.847 64.9305L107.674 66.033C107.655 66.148 107.55 66.2247 107.434 66.2055L107.089 66.148C106.973 66.1288 106.897 66.0234 106.916 65.9083L107.089 64.8059L103.527 64.2499C102.97 64.1636 102.864 64.2883 102.797 64.7005L102.711 65.2661C102.682 65.4099 102.634 65.477 102.538 65.4578L102.183 65.4003C102.087 65.3907 102.029 65.3332 102.029 65.199Z" fill="black"/>
<path d="M101.674 66.9441L101.78 66.4647C101.809 66.3497 101.914 66.2826 102.029 66.3113L107.176 67.4522C107.291 67.481 107.358 67.5864 107.329 67.7015L107.224 68.1808C107.195 68.2863 107.089 68.363 106.974 68.3342L101.828 67.1933C101.722 67.1646 101.645 67.0495 101.674 66.9441ZM108.107 68.3917L108.222 67.874C108.241 67.7686 108.357 67.6919 108.472 67.7206L109.278 67.9028C109.384 67.922 109.461 68.037 109.432 68.1521L109.317 68.6602C109.288 68.7752 109.182 68.8423 109.067 68.8136L108.261 68.6314C108.145 68.6122 108.078 68.4972 108.107 68.3917Z" fill="black"/>
<path d="M100.685 70.3566C101.127 68.9091 102.307 68.4681 103.767 68.9091L104.516 69.1391C105.965 69.5801 106.695 70.6154 106.253 72.0629C105.812 73.5105 104.621 73.961 103.172 73.5201L102.423 73.29C100.973 72.8394 100.243 71.7945 100.685 70.3566ZM103.431 72.6477C104.439 72.9545 105.207 72.7532 105.485 71.8233C105.764 70.903 105.255 70.3087 104.247 70.0019L103.498 69.7718C102.49 69.4651 101.731 69.6664 101.443 70.5867C101.165 71.5069 101.664 72.1109 102.682 72.4272L103.431 72.6477Z" fill="black"/>
<path d="M98.0926 77.2186L98.2942 76.7681C98.3422 76.6626 98.467 76.6147 98.5726 76.6626L101.683 78.0143C102.634 78.4361 103.066 78.2443 103.383 77.5254C103.555 77.1227 103.594 76.6147 103.575 76.0874L99.5807 74.3427C99.4847 74.3044 99.4271 74.1798 99.4751 74.0743L99.6767 73.6142C99.7151 73.5183 99.8399 73.4704 99.9455 73.5183L104.765 75.6177C104.871 75.6656 104.919 75.7711 104.871 75.8765L104.669 76.3463C104.621 76.4517 104.506 76.4901 104.4 76.4421L104.218 76.3654C104.285 77.0077 104.247 77.4966 103.997 78.0622C103.507 79.1934 102.566 79.3947 101.318 78.8483L98.2078 77.487C98.0926 77.4487 98.0446 77.3241 98.0926 77.2186Z" fill="black"/>
<path d="M42.9325 110.124C41.7419 110.124 40.8778 109.99 40.3401 109.865C40.1289 109.818 40.0521 109.731 40.0521 109.578V108.437C40.0521 108.255 40.1481 108.159 40.2921 108.159C40.3209 108.159 40.3305 108.159 40.3593 108.159C40.993 108.264 41.9819 108.341 42.7597 108.341C43.9214 108.341 44.4015 107.881 44.4015 106.424V106.328C44.0559 106.395 43.403 106.491 42.8461 106.491C41.0698 106.491 39.5912 105.733 39.5912 103.557V103.461C39.5912 101.467 40.801 100.125 43.0669 100.125C45.1888 100.125 46.6002 101.371 46.6002 103.989V106.002C46.6002 108.964 45.1792 110.124 42.9325 110.124ZM44.4015 103.979C44.4015 102.196 43.835 101.822 43.0669 101.822C42.3372 101.822 41.7899 102.157 41.7899 103.452V103.548C41.7899 104.631 42.4236 104.919 43.2013 104.919C43.5374 104.919 44.0943 104.842 44.4015 104.784V103.979Z" fill="black"/>
<path d="M51.4488 110.125C49.2117 110.125 47.9059 108.85 47.9059 105.696V104.565C47.9059 101.41 49.2117 100.116 51.4488 100.116C53.686 100.116 55.0013 101.401 55.0013 104.565V105.696C55.0013 108.84 53.686 110.125 51.4488 110.125ZM52.7546 104.555C52.7546 102.475 52.1881 101.976 51.4488 101.976C50.7095 101.976 50.1622 102.475 50.1622 104.555V105.686C50.1622 107.767 50.7191 108.246 51.4488 108.246C52.1881 108.246 52.7546 107.767 52.7546 105.686V104.555Z" fill="black"/>
<path d="M59.8119 110.125C57.5747 110.125 56.2689 108.85 56.2689 105.696V104.565C56.2689 101.41 57.5747 100.116 59.8119 100.116C62.0586 100.116 63.374 101.401 63.374 104.565V105.696C63.374 108.84 62.0586 110.125 59.8119 110.125ZM61.1176 104.555C61.1176 102.475 60.5512 101.976 59.8119 101.976C59.0821 101.976 58.5253 102.475 58.5253 104.555V105.686C58.5253 107.767 59.0821 108.246 59.8119 108.246C60.5512 108.246 61.1176 107.767 61.1176 105.686V104.555Z" fill="black"/>
<path d="M67.2816 108.13V102.473L65.5629 103.212C65.4957 103.24 65.4477 103.25 65.4093 103.25C65.3133 103.25 65.2653 103.183 65.2653 103.077V101.582C65.2653 101.486 65.3037 101.438 65.3997 101.4L67.7808 100.278C67.8769 100.24 67.9537 100.23 68.0881 100.23H69.2787C69.4227 100.23 69.5283 100.335 69.5283 100.479V108.139H71.2758C71.4198 108.139 71.5446 108.245 71.5446 108.389V109.74C71.5446 109.884 71.4198 110.009 71.2758 110.009H65.5341C65.3901 110.009 65.2653 109.884 65.2653 109.74V108.389C65.2653 108.245 65.3901 108.139 65.5341 108.139H67.2816V108.13Z" fill="black"/>
</svg>
