<svg width="109" height="110" viewBox="0 0 109 110" fill="none" xmlns="http://www.w3.org/2000/svg">
<path d="M54.5527 16.1758C75.5846 16.1957 92.6168 33.2613 92.5969 54.2933C92.5769 75.3252 75.5114 92.3576 54.4795 92.3376C33.4742 92.3176 16.4508 75.292 16.4353 54.2844C16.4154 33.2569 33.4432 16.1957 54.4706 16.1758C54.4972 16.1758 54.5239 16.1758 54.5527 16.1758ZM41.7508 73.8101C50.0074 70.8753 59.0248 70.8731 67.2836 73.8057L68.4704 69.3402C69.0184 69.3402 69.5197 69.3269 70.0255 69.3446C70.5468 69.3025 71.0703 69.3313 71.5827 69.4356C71.2256 71.2879 70.7753 73.1224 70.2296 74.9282C71.636 75.7046 73.0335 76.4078 74.3623 77.2241C75.6911 78.0383 76.9488 78.9567 78.2332 79.8285C93.6728 65.68 92.71 41.6156 78.1734 28.6517C75.7199 30.5816 73.0468 32.2165 70.2096 33.5187C70.7486 35.4286 71.2633 37.2588 71.6027 39.1466H68.4416C68.2486 38.3857 68.0733 37.6581 67.8804 36.9371C67.714 36.1829 67.4944 35.4442 67.2193 34.7232C58.9805 37.6425 49.9874 37.6381 41.7508 34.7099L40.5595 39.1887C40.0116 39.1887 39.5058 39.1909 39.0023 39.1887C38.4876 39.1843 37.973 39.1754 37.3607 39.1665L38.796 33.5031C35.9654 32.2054 33.3012 30.5749 30.8588 28.6406C15.5169 42.6315 16.1625 66.6937 30.8588 79.8595C33.3189 77.9273 35.9965 76.2902 38.8359 74.9836C38.2658 73.1358 37.7933 71.2568 37.4228 69.3602H40.5751L41.7508 73.8101ZM66.19 31.7507C66.1722 31.6264 66.1456 31.5044 66.1124 31.3824C65.1452 28.7759 63.8186 26.318 62.1748 24.0775C61.1167 22.6067 59.7813 21.3556 58.244 20.395C56.0989 19.0041 53.3592 18.9287 51.1409 20.1998C49.7145 21.0006 48.4568 22.0699 47.4385 23.3499C45.8014 25.373 44.4682 27.6246 43.4766 30.0315C43.2437 30.5705 43.0307 31.1184 42.7823 31.7263C50.349 34.4415 58.6211 34.4504 66.19 31.7507ZM42.82 76.7627C42.8732 76.9446 42.8954 77.0511 42.9331 77.1487C43.836 79.5667 45.0428 81.8582 46.5246 83.9723C47.494 85.3676 48.6808 86.601 50.0406 87.6214C52.8956 89.7044 55.9924 89.7311 58.8762 87.7013C59.8633 86.9959 60.7551 86.164 61.5293 85.2301C63.4992 82.7921 65.052 80.0436 66.1234 77.0977C66.1545 76.9846 66.1745 76.8692 66.1856 76.7538C58.6278 74.0652 50.3756 74.0697 42.82 76.7627ZM63.4238 87.9653C67.8981 86.8384 72.0929 84.7997 75.7399 81.9736C73.7367 80.4163 71.5628 79.092 69.2624 78.025C68.3884 79.8063 67.5853 81.5432 66.6936 83.2336C65.773 84.9195 64.6771 86.5056 63.4238 87.9653ZM45.6439 87.9786C44.3795 86.5367 43.277 84.9572 42.3586 83.2713C41.4491 81.5676 40.6483 79.8085 39.7743 78.0227C37.4716 79.092 35.2955 80.4163 33.2923 81.9736C36.9526 84.8019 41.1563 86.8472 45.6439 87.9786ZM69.147 30.4751C70.8307 29.9072 75.0544 27.2896 75.6423 26.4555C72.0109 23.6604 67.8426 21.644 63.3971 20.5304C65.9637 23.4696 67.7229 26.8526 69.147 30.4751ZM45.5818 20.5548C41.1319 21.6728 36.9592 23.7003 33.3278 26.5065C34.6322 27.72 38.6695 30.1424 39.9029 30.4485C41.225 26.8548 43.1439 23.5096 45.5818 20.5548Z" fill="black"/>
<path d="M74.806 102.91C74.8127 104.064 74.5664 105.204 74.0851 106.253C73.1778 108.278 71.2035 109.614 68.9874 109.703C68.1954 109.776 67.3968 109.712 66.6293 109.51C64.6594 109.019 63.0911 107.531 62.4944 105.59C61.8954 103.844 61.8865 101.95 62.4677 100.199C63.1887 97.8257 65.3116 96.1531 67.7873 96.0089C69.1116 95.8647 70.4492 96.1309 71.6183 96.7698C73.18 97.6505 74.2648 99.1833 74.5753 100.949C74.704 101.59 74.7328 102.256 74.806 102.91ZM66.5494 102.837L66.6604 102.846C66.6604 103.352 66.6271 103.86 66.667 104.363C66.6737 105.246 66.8622 106.116 67.2194 106.923C67.4235 107.378 67.8716 107.675 68.3685 107.688C68.892 107.724 69.3822 107.424 69.5908 106.943C69.7682 106.59 69.8969 106.215 69.9723 105.827C70.2718 104.068 70.3051 102.273 70.0699 100.505C69.9923 99.942 69.8436 99.3874 69.6307 98.8595C69.4665 98.3603 68.9962 98.0254 68.4705 98.0342C67.9248 98.0143 67.4257 98.3315 67.2105 98.8306C67.0619 99.1013 66.9598 99.3941 66.9088 99.698C66.7668 100.743 66.6648 101.79 66.5494 102.837Z" fill="black"/>
<path d="M60.8329 102.905C60.9061 104.077 60.6754 105.246 60.1651 106.302C59.2201 108.363 57.1682 109.689 54.9033 109.711C53.8895 109.787 52.8713 109.625 51.9285 109.241C50.3313 108.584 49.1113 107.251 48.5988 105.603C48.0088 103.879 47.991 102.011 48.5456 100.275C49.2599 97.7967 51.4982 96.0686 54.0759 96.002C56.0923 95.9022 57.8625 96.4546 59.2379 98.0118C60.1807 99.1055 60.7375 100.476 60.824 101.918C60.855 102.242 60.8329 102.575 60.8329 102.905ZM56.3607 103.025C56.3008 102.094 56.2986 101.384 56.1988 100.692C56.1145 100.084 55.9681 99.4848 55.7618 98.908C55.6043 98.3801 55.114 98.0207 54.5639 98.0251C53.9916 98.0007 53.4703 98.3579 53.2861 98.9014C53.0843 99.3406 52.9534 99.8109 52.9001 100.29C52.8181 101.714 52.7693 103.145 52.7892 104.571C52.7737 105.39 52.96 106.202 53.3283 106.934C53.6167 107.586 54.3798 107.881 55.0342 107.593C55.307 107.471 55.5311 107.26 55.6664 106.992C55.8771 106.63 56.0169 106.233 56.0768 105.818C56.2121 104.815 56.2831 103.808 56.3563 103.025H56.3607Z" fill="black"/>
<path d="M23.3232 99.0918C23.3964 99.1228 23.4741 99.145 23.5517 99.1628C24.3193 99.1517 24.9515 99.7661 24.9626 100.534C24.9626 100.58 24.9626 100.627 24.9581 100.671C25.0225 101.57 24.4102 102.375 23.5295 102.555C23.2256 102.606 22.9151 102.621 22.6067 102.601C21.6351 102.579 20.8387 101.825 20.7611 100.855C20.5814 99.6064 21.0428 98.3531 21.9878 97.5168C22.9861 96.6294 24.2549 96.1059 25.5881 96.0305C27.1964 95.8087 28.8336 96.1325 30.2377 96.9489C31.7884 97.8362 32.547 99.6575 32.0834 101.383C31.8571 102.273 31.2737 103.029 30.4707 103.473C29.5545 104.005 28.574 104.416 27.5536 104.7C26.8171 104.926 26.0695 105.126 25.3486 105.396C24.672 105.587 24.0908 106.026 23.7203 106.625C23.8645 106.59 24.0065 106.548 24.1462 106.497C25.333 105.938 26.6796 105.816 27.9484 106.153C28.3522 106.264 28.7626 106.352 29.1752 106.421C30.0692 106.554 30.4263 106.259 30.5328 105.341C30.5483 105.21 30.555 105.079 30.5749 104.864C31.2604 104.817 31.9481 104.819 32.6335 104.873C32.7134 106.073 32.7134 107.224 32.1255 108.293C31.5776 109.294 30.6326 109.616 29.5833 109.706C28.5696 109.773 27.5514 109.651 26.582 109.345C25.9475 109.163 25.3153 108.959 24.6698 108.826C24.0331 108.695 23.3743 108.613 22.9772 109.314H20.7877C20.6923 108.316 20.8787 107.308 21.3312 106.412C21.8991 105.383 22.7199 104.516 23.7159 103.892C24.459 103.38 25.2399 102.921 25.9985 102.433C26.2803 102.26 26.5531 102.071 26.8127 101.867C27.3806 101.425 27.6978 100.736 27.6645 100.017C27.6778 99.358 27.2874 98.7568 26.6796 98.4995C25.5504 97.9737 24.2084 98.2089 23.3232 99.0918Z" fill="black"/>
<path d="M37.5249 96.366C37.5515 96.7897 37.5715 97.1269 37.5959 97.5484C37.6824 97.4796 37.7667 97.402 37.8421 97.3199C38.6584 96.2041 39.7987 95.9423 41.072 96.1641C41.7153 96.3061 42.3497 96.4902 42.9709 96.7121C43.348 96.8274 43.7229 96.9583 44.0955 97.0892C44.4039 97.2134 44.7544 97.1402 44.9895 96.9073L45.2114 96.3926H46.8795C46.9971 96.7564 46.9794 97.1491 46.8285 97.4996C46.4403 98.3847 46.0565 99.2742 45.604 100.126C45.025 101.213 44.3595 102.256 43.7672 103.336C42.9243 104.969 42.4784 106.774 42.4606 108.611C42.4518 108.826 42.4385 109.042 42.4251 109.294H38.1593C38.0551 108.8 38.0395 108.29 38.1127 107.788C38.2392 105.898 39.0577 104.121 40.4154 102.799C41.3116 101.918 42.2432 101.076 43.155 100.213C43.3591 100.017 43.5476 99.8066 43.856 99.4872C43.5942 99.5471 43.4833 99.5604 43.379 99.5959C42.4673 99.8688 41.5023 99.9087 40.5706 99.7157C40.0737 99.6203 39.5724 99.5515 39.0688 99.5138C38.3767 99.4295 37.7489 99.922 37.6646 100.614C37.6646 100.621 37.6624 100.627 37.6624 100.632C37.6003 100.956 37.5604 101.282 37.5426 101.612C37.5227 101.825 37.5227 102.043 37.5094 102.291H35.2245V96.3926C35.6038 96.3838 35.9698 96.3705 36.3359 96.3638C36.7041 96.3638 37.0812 96.366 37.5249 96.366Z" fill="black"/>
<path d="M78.2353 98.0521C79.462 97.8569 80.6821 97.6728 81.3054 96.395H84.6152C84.6263 96.639 84.6418 96.872 84.644 97.1071C84.6462 100.102 84.6462 103.099 84.644 106.094C84.644 106.249 84.6396 106.402 84.644 106.557C84.6662 107.232 84.8747 107.456 85.5624 107.498C85.8885 107.518 86.2168 107.502 86.5784 107.502C86.6494 108.077 86.6671 108.656 86.6338 109.232C86.1081 109.363 79.3311 109.408 78.2464 109.292V107.582C78.8542 107.387 79.5596 107.68 80.2473 107.229C80.336 106.994 80.3937 106.75 80.4203 106.502C80.4381 104.41 80.4314 102.316 80.4292 100.224C80.4159 100.115 80.3937 100.009 80.3604 99.9044H78.2331L78.2353 98.0521Z" fill="black"/>
<path d="M54.1112 0.197266L55.0829 4.16142L55.2248 4.1592L56.3007 0.259379H58.9583V6.99866H57.31V2.22704C56.7111 3.76877 56.3495 5.37484 55.8593 6.97647H54.3419L53.1684 2.12721L53.0287 2.13165C53.022 2.52429 53.0132 2.91693 53.0087 3.30958C53.0043 3.70222 53.0021 4.10374 52.9976 4.50082C52.9932 4.92008 52.9999 5.33935 52.9821 5.75861C52.9644 6.14904 52.92 6.53946 52.8823 6.98978L51.416 6.90992C51.2718 6.42855 51.2762 1.21326 51.4182 0.197266H54.1112Z" fill="black"/>
<path d="M88.4996 21.3916L87.0577 20.1005L87.6456 15.7149L87.5302 15.6661L85.1034 18.3236L83.6792 17.0104L88.2623 11.957L89.6842 13.2836L89.0742 17.6759L89.1829 17.7358L91.6385 15.056L93.0849 16.3515L88.4996 21.3916Z" fill="black"/>
<path d="M25.7746 12.7557L23.6761 9.89851L25.2289 8.73389L29.2773 14.2087L27.7201 15.38L23.381 13.8737C24.122 14.994 24.8784 15.9168 25.5927 16.935L24.0421 18.093L19.987 12.6182L21.5443 11.4646L25.6615 12.891L25.7746 12.7557Z" fill="black"/>
<path d="M104.445 56.868C103.669 57.7442 102.974 58.1746 101.368 58.7602V56.5219L103.527 55.4172C103.864 55.2974 104.123 55.0201 104.223 54.6741C104.234 54.541 104.237 54.4079 104.225 54.2726H101.537C101.466 53.5804 101.464 52.8839 101.528 52.1918C103.797 52.1119 106.025 52.3337 108.298 52.3049C108.298 52.9704 108.309 53.5605 108.296 54.1505C108.278 54.8782 108.238 55.6035 108.205 56.3289C108.198 56.4598 108.196 56.5929 108.176 56.7238C108.032 57.7132 107.504 58.2877 106.659 58.3765C105.727 58.5739 104.802 58.0215 104.532 57.1098C104.507 57.0366 104.481 56.9589 104.445 56.868ZM106.592 56.2291C106.958 55.6989 107.009 55.3129 106.839 54.3901L105.596 54.308C105.448 54.7029 105.417 55.131 105.51 55.5437C105.65 56.2513 105.816 56.3622 106.592 56.2291Z" fill="black"/>
<path d="M42.8247 1.39063C44.0248 1.19098 45.1473 1.0002 46.2742 0.822734C46.6424 0.756185 47.0151 0.718473 47.3878 0.7096C48.1908 0.647487 48.9228 1.16879 49.1291 1.94521C49.3998 2.74602 49.107 3.62892 48.4126 4.11029C48.2928 4.19459 48.1686 4.27001 48.0266 4.36096C49.0293 4.93329 49.473 5.41689 50.4623 7.00743C50.083 7.07841 49.7259 7.1494 49.3665 7.21151C48.9983 7.27584 48.63 7.3313 48.2196 7.39785C47.7116 6.74566 47.197 6.08904 46.6868 5.4302C46.4583 5.03312 45.9636 4.87562 45.5466 5.06861L45.9592 7.76387L43.9316 8.10328L42.8247 1.39063ZM47.1925 2.96342C47.1304 2.42215 46.8886 2.13377 46.4561 2.1626C45.9858 2.14708 45.5177 2.24468 45.0918 2.44655L45.338 3.76202C46.09 3.64666 46.8243 3.71543 47.1925 2.96342Z" fill="black"/>
<path d="M34.6569 6.0129C34.668 3.70584 36.7776 2.73643 38.5389 2.69207C40.7329 2.63661 41.7977 4.59761 41.8598 6.55639C41.9263 8.73035 40.043 9.8018 37.9245 9.87279C35.8969 9.94156 34.7589 8.02936 34.6569 6.0129ZM39.8367 6.84255C39.8078 6.13713 39.5771 5.45388 39.1734 4.8749C38.8052 4.38021 38.1507 4.19831 37.5806 4.43345C37.0127 4.61314 36.6378 5.15219 36.6645 5.7467C36.6933 6.47653 36.9484 7.17974 37.3943 7.75651C37.7537 8.23345 38.3948 8.39316 38.936 8.14471C39.5106 7.98277 39.8877 7.43707 39.8367 6.84255Z" fill="black"/>
<path d="M85.2233 11.3153C85.1457 12.7949 84.3071 14.1282 83.0072 14.838C82.3328 15.1929 81.5409 15.2484 80.8244 14.9933C79.9969 14.7404 79.2538 14.2679 78.6726 13.629C77.9871 12.9103 77.7276 11.8854 77.9894 10.9249C78.2023 10.0154 78.697 9.19903 79.4024 8.58677C80.2143 7.82811 81.3878 7.59962 82.4238 7.99892C83.2667 8.27621 84.0121 8.78864 84.5733 9.47632C85.0103 9.98876 85.241 10.6432 85.2233 11.3153ZM83.2978 11.0536C83.2978 10.0952 82.1842 9.15688 81.2525 9.73587C80.4606 10.2062 79.9393 11.0247 79.8505 11.9409C79.7529 12.9081 80.9087 13.7311 81.7472 13.2874C82.5724 12.8149 83.1425 11.9941 83.2978 11.0536Z" fill="black"/>
<path d="M4.49202 64.2034C2.75064 64.2034 1.63704 63.3715 1.25549 61.7588C1.10908 61.1843 1.06028 60.5898 1.1113 59.9975C1.27767 58.4957 2.04743 57.6704 3.51596 57.3C4.13265 57.1314 4.77596 57.0848 5.4104 57.1624C6.56393 57.2756 7.53556 58.0697 7.87274 59.1789C8.12563 59.8888 8.21436 60.6452 8.13006 61.395C8.04133 62.4554 7.37362 63.3782 6.39756 63.7975C5.80305 64.0836 5.15086 64.2234 4.49202 64.2034ZM5.00001 59.17C4.40329 59.1545 3.81099 59.2898 3.28082 59.5649C2.79944 59.8644 2.55321 60.4323 2.66191 60.9891C2.7218 61.5592 3.15881 62.0184 3.72448 62.1049C4.42325 62.238 5.14421 62.1515 5.79196 61.8609C6.32435 61.6523 6.65266 61.1133 6.59499 60.5432C6.55506 59.6492 6.00713 59.1745 5.00001 59.17Z" fill="black"/>
<path d="M108.205 49.6451C107.719 49.7272 107.293 49.8048 106.865 49.8669C105.951 50 105.035 50.1398 104.119 50.2529C102.797 50.4193 101.379 49.8226 101.051 48.1921C100.913 47.5466 100.845 46.89 100.845 46.2311C100.807 45.244 101.433 44.3522 102.375 44.0549C103.067 43.842 103.777 43.6889 104.496 43.598C105.386 43.4515 106.282 43.3517 107.176 43.2319C107.433 43.8708 107.54 44.5607 107.484 45.2462C106.544 45.3837 105.59 45.519 104.634 45.6588C104.219 45.7187 103.799 45.7497 103.394 45.8407C102.755 45.925 102.304 46.5106 102.389 47.1495C102.406 47.2915 102.451 47.4268 102.52 47.5532C102.668 47.988 103.101 48.2631 103.558 48.2099C104.128 48.1633 104.693 48.0856 105.261 48.008C105.98 47.9104 106.699 47.795 107.418 47.6974C107.58 47.6863 107.741 47.6863 107.906 47.6952L108.205 49.6451Z" fill="black"/>
<path d="M100.412 34.2678L98.9393 31.3152L97.6904 31.9319L99.2942 35.184L97.9943 35.8473C97.9322 35.7718 97.8767 35.6898 97.8257 35.6077C97.0315 34.0083 96.2418 32.4089 95.4077 30.7274L101.53 27.7104L104.013 32.7505L102.764 33.3827L101.166 30.2149L100.155 30.7052L101.599 33.66L100.412 34.2678Z" fill="black"/>
<path d="M98.7575 26.6981L97.6439 25.2851C98.0099 24.411 97.9167 23.832 97.3799 23.5193C97.0827 23.3462 96.9496 23.395 96.5968 23.8387L96.8919 24.7327C97.0716 25.2762 97.2845 25.8108 97.4221 26.3632C97.6439 27.0575 97.4332 27.8162 96.8874 28.2998C96.3129 28.8477 95.4766 29.0207 94.7312 28.7479C94.4406 28.648 94.17 28.4972 93.9304 28.3042C93.1562 27.672 92.5883 26.8246 92.2977 25.8685C92.0227 24.9545 92.3843 23.9674 93.1851 23.4438L94.3386 24.8968C94.0302 25.3427 93.7263 25.793 93.9837 26.3521C94.1256 26.758 94.4784 27.0531 94.9043 27.1174C95.4966 26.8889 95.6474 26.6493 95.501 26.0836C95.4123 25.7442 95.237 25.427 95.1549 25.0876C95.0041 24.5397 94.8998 23.9785 94.8422 23.4128C94.7623 22.2859 95.9713 21.525 96.9806 21.7978C97.218 21.8511 97.442 21.9465 97.6461 22.0774C98.6377 22.7606 99.3232 23.8054 99.5539 24.9878C99.667 25.5801 99.4008 26.1125 98.7575 26.6981Z" fill="black"/>
<path d="M4.02131 66.2548L4.67349 68.025C4.17881 68.3955 3.91039 68.8369 4.19212 69.4514C4.35627 69.8108 4.47828 69.8818 4.97075 69.8662C5.32568 69.5934 5.22807 69.2074 5.22364 68.8369C5.19258 68.1581 5.20145 67.4771 5.2436 66.8005C5.39888 65.1789 7.34213 64.6842 8.50009 65.5693C8.74854 65.7535 8.95929 65.9819 9.12566 66.2415C9.72461 67.1776 9.98859 68.2912 9.87323 69.3982C9.76675 70.2766 9.15672 70.7536 8.34925 71.1307L7.67932 69.3627C8.75076 68.4376 8.73745 67.5104 7.66822 67.0356C7.08037 67.2087 6.96723 67.324 6.94727 67.8831C6.93174 68.3223 6.97833 68.7659 6.95836 69.2052C6.95393 69.6222 6.90734 70.0393 6.81639 70.4474C6.59012 71.3725 5.65843 71.9404 4.73117 71.7163C4.51599 71.6631 4.31413 71.5699 4.13223 71.4412C3.89265 71.2837 3.68856 71.0797 3.52662 70.8423C2.91215 69.9417 2.63486 68.8525 2.74134 67.7655C2.83673 67.0556 3.33585 66.4633 4.02131 66.2548Z" fill="black"/>
<path d="M66.9643 8.5161L64.8924 8.1168C64.8259 7.68201 64.7726 7.32042 64.7149 6.94109L62.3657 6.49298L61.7446 7.52894L59.7237 7.12964L63.5015 0.931641L65.7176 1.35312C66.1679 3.70233 66.5628 6.05154 66.9643 8.5161ZM64.5574 5.46368C64.5486 4.63403 64.4155 3.81103 64.1648 3.01909L63.0445 5.14868L64.5574 5.46368Z" fill="black"/>
<path d="M11.1247 33.1384C10.7631 33.0541 10.3926 32.9987 10.0399 32.8811C9.18363 32.5927 8.38503 32.1513 7.68626 31.5789C6.77009 30.9578 6.44622 29.7577 6.9276 28.7595C7.07844 28.3712 7.28253 28.003 7.5332 27.6703C8.02566 26.9604 8.90412 26.6254 9.74486 26.8251C10.9383 27.0691 12.0408 27.6303 12.9415 28.4511C13.811 29.1033 14.0595 30.299 13.5204 31.244C13.3341 31.6411 13.1012 32.0137 12.8261 32.3554C12.4046 32.8589 11.7813 33.1473 11.1247 33.1384ZM11.382 31.4059C11.8678 31.4237 12.134 31.2928 12.2604 30.9866C12.4091 30.6495 12.3092 30.2546 12.0164 30.0306C11.189 29.3029 10.2063 28.775 9.14148 28.4844C8.78876 28.369 8.40499 28.5221 8.22975 28.8504C8.06781 29.1255 8.09665 29.4715 8.30295 29.7133C8.36507 29.8043 8.44049 29.8841 8.527 29.9529C9.29011 30.5474 10.1442 31.0177 11.0537 31.346C11.1601 31.3771 11.2711 31.397 11.382 31.4059Z" fill="black"/>
<path d="M102.371 40.5763V42.2733C101.259 42.5595 100.104 42.016 99.6133 40.9778C99.2895 40.35 99.0987 39.6601 99.0543 38.9547C98.9523 37.8211 99.5335 36.7386 100.534 36.1973C101.306 35.7159 102.204 35.4719 103.116 35.4985C103.877 35.4985 104.602 35.8224 105.108 36.3903C105.853 37.2222 106.242 38.3136 106.191 39.4294C106.146 40.3034 105.665 41.0954 104.913 41.5413L104.006 39.9729C104.09 39.8775 104.165 39.7999 104.234 39.7178C104.724 39.1788 104.684 38.3469 104.148 37.8566C103.861 37.5949 103.473 37.4729 103.087 37.5239C102.462 37.6415 101.856 37.8433 101.284 38.1228C100.771 38.3469 100.51 38.9192 100.676 39.4538C100.762 39.9951 101.188 40.4166 101.73 40.5009C101.918 40.5364 102.116 40.5452 102.371 40.5763Z" fill="black"/>
<path d="M8.12538 39.1887C6.88534 39.0578 5.70519 38.5986 4.70029 37.8599C4.02593 37.3918 3.71092 36.5577 3.90835 35.7614C4.00374 35.2889 4.15237 34.8297 4.35202 34.3927C4.73579 33.5075 5.67192 32.9973 6.62358 33.1548C7.79041 33.2613 8.91066 33.6673 9.87563 34.3328C10.7985 34.8563 11.2044 35.9721 10.8339 36.9659C10.7519 37.261 10.6432 37.5516 10.5145 37.8288C10.0797 38.7716 9.32105 39.1953 8.12538 39.1887ZM8.58013 37.4761C9.11253 37.4717 9.39425 37.2942 9.51626 36.957C9.63827 36.6354 9.5207 36.2716 9.23454 36.0808C9.03489 35.9078 8.81306 35.7636 8.5757 35.6504C8.05217 35.4264 7.51312 35.229 6.97407 35.0404C6.7234 34.9561 6.46608 34.8984 6.20431 34.8629C5.80058 34.7875 5.39684 35.0027 5.23491 35.3798C5.10624 35.7059 5.20385 35.9987 5.56765 36.296C5.71628 36.4269 5.88487 36.5333 6.06678 36.6132C6.74114 36.8772 7.41995 37.1279 8.10319 37.3696C8.26069 37.4162 8.42263 37.4495 8.58679 37.4717L8.58013 37.4761Z" fill="black"/>
<path d="M3.03673 50.3857L2.72395 52.1138C1.38186 51.8387 0.782917 51.1133 0.816192 49.7779C0.829502 49.2277 0.907144 48.682 1.04912 48.1496C1.29091 47.1225 2.32021 46.4837 3.3473 46.7255C3.62237 46.7898 3.87969 46.914 4.09931 47.0893C4.59843 47.4908 5.00882 47.9899 5.30607 48.5578C5.56118 48.9638 5.81629 49.3697 6.11132 49.8422C6.43076 49.3453 6.28657 48.8728 6.35756 48.438C6.43076 47.9855 6.4596 47.5263 6.51728 46.985L7.99467 47.0649C7.82165 48.9815 7.65749 50.8161 7.4889 52.7216C6.83671 52.5863 6.23999 52.2602 5.77192 51.7855C5.33269 51.2952 4.95114 50.7517 4.56072 50.2215C4.32557 49.9021 4.12149 49.5605 3.89966 49.2344C3.82645 49.1257 3.74216 49.0214 3.6512 48.926C3.41163 48.6244 3.01455 48.4935 2.64187 48.5911C2.32021 48.7064 2.1006 49.0037 2.08951 49.3453C2.0762 49.7335 2.31578 50.0862 2.6818 50.2149C2.78162 50.2548 2.87701 50.3058 3.03673 50.3857Z" fill="black"/>
<path d="M32.833 7.63558L33.4431 8.79133L31.105 10.0558L32.3783 12.5225L30.5593 13.4942L27.3893 7.46033L31.9723 5.05566L32.6511 6.28684L29.9226 7.74649L30.4772 8.85122L32.833 7.63558Z" fill="black"/>
<path d="M99.7336 74.85L97.1271 73.7098L97.9479 71.8286L100.588 72.9489L105.259 72.1214L104.348 74.1911L101.657 74.5594L103.216 76.7733L102.316 78.8651L99.7336 74.85Z" fill="black"/>
<path d="M70.5913 9.81508L68.6503 9.15402L70.2786 4.33581C69.6707 3.92986 68.9431 3.86997 68.2732 3.51725L68.7967 2.00879L74.8416 4.06518L74.3181 5.60248L72.2662 4.93698L70.5913 9.81508Z" fill="black"/>
<path d="M100.183 64.9143L105.172 66.2187L105.754 64.1445L107.318 64.5549L105.709 70.7108L104.123 70.3248L104.656 68.2329L99.6733 66.9041L100.183 64.9143Z" fill="black"/>
<path d="M2.96524 45.028L1.49228 44.6775L2.69683 39.3291L3.8925 39.5909C4.99501 41.3944 6.74526 42.712 8.78389 43.2733L8.38903 45.0324C6.54561 44.4579 4.93511 43.3066 3.79267 41.7471C3.42 42.8651 3.3113 43.9343 2.96524 45.028Z" fill="black"/>
<path d="M12.8527 23.8097C12.7218 24.4664 12.6131 25.0254 12.4956 25.5822C12.4578 25.6953 12.4068 25.8062 12.3469 25.9105L11.1712 25.0498C11.4973 24.0493 11.6326 23.0577 11.0803 22.0839L11.9964 20.835L17.5666 24.9411L16.4708 26.454L12.8527 23.8097Z" fill="black"/>
<path d="M22.8398 19.1837L21.4179 20.7055L16.7328 15.7786L18.168 14.2856L22.8398 19.1837Z" fill="black"/>
<path d="M75.498 11.9404L73.6346 11.0442L76.5384 4.89502L78.4195 5.76904L75.498 11.9404Z" fill="black"/>
<path d="M11.0003 71.6108L11.8166 73.5119L5.56764 76.2117L4.74908 74.3128L11.0003 71.6108Z" fill="black"/>
<path d="M100.84 61.6843L101.135 59.6855C103.38 59.9562 105.576 60.2934 107.85 60.635L107.573 62.6426C105.304 62.3631 103.099 62.0392 100.84 61.6843Z" fill="black"/>
<path d="M84.0543 54.286C84.0743 56.0584 83.6794 57.8131 82.9053 59.4059C81.9114 61.3513 80.2411 62.8664 78.2069 63.665C76.7295 64.2507 75.1633 64.5768 73.575 64.6345C71.7249 64.7809 69.8637 64.579 68.0891 64.0422C64.2492 62.811 61.9488 60.2222 61.3632 56.1893C61.0726 54.3525 61.1901 52.4758 61.707 50.6901C62.4856 47.9659 64.5109 45.7765 67.1663 44.7849C69.4423 43.9197 71.8957 43.618 74.3137 43.9086C75.7024 44.0018 77.0644 44.3323 78.3422 44.8825C81.3702 46.1314 83.4842 48.9265 83.8613 52.1808C83.9634 52.8773 83.9922 53.585 84.0543 54.286ZM76.5121 54.286C76.4499 53.3432 76.4189 52.3937 76.3146 51.4554C76.237 50.3972 75.9508 49.3679 75.4717 48.4207C74.9415 47.367 73.8456 46.717 72.6677 46.7592C71.4676 46.6993 70.3407 47.3448 69.7861 48.4118C69.3957 49.155 69.1428 49.9602 69.0363 50.7921C68.7258 52.8418 68.688 54.9226 68.9254 56.9812C68.9986 57.9262 69.2249 58.8557 69.5953 59.7275C70.3096 61.3979 72.2462 62.1743 73.9166 61.46C74.6509 61.145 75.2454 60.5749 75.5915 59.8562C75.7955 59.4169 75.9553 58.96 76.0639 58.4875C76.3634 57.1054 76.5121 55.699 76.5121 54.286Z" fill="black"/>
<path d="M55.2491 51.0867C55.1182 50.7251 55.0184 50.4345 54.9119 50.1462C54.1887 48.2029 52.7335 47.2135 50.7237 46.9984C49.9584 46.8808 49.1753 46.9229 48.4278 47.1226C47.9375 47.2646 47.4961 47.5352 47.1478 47.9101C46.4313 48.702 46.5089 49.5938 47.4184 50.1484C47.9486 50.4612 48.5209 50.6985 49.1154 50.8538C50.3666 51.1976 51.6466 51.4461 52.9021 51.7833C54.3618 52.136 55.7549 52.7172 57.0326 53.5069C58.4058 54.361 59.2864 55.8229 59.3974 57.4356C59.6303 59.0727 59.1711 60.732 58.1285 62.0164C57.3365 62.9459 56.3072 63.6425 55.1493 64.0307C53.6009 64.552 51.9616 64.7605 50.3311 64.6429C48.4122 64.5387 46.5333 64.0528 44.803 63.2143C44.7276 63.1788 44.6433 63.1566 44.5147 63.1123L43.7782 64.1482H41.1783V56.9586C41.6264 56.8899 42.0834 56.8721 42.5359 56.9032C42.9751 56.8921 43.4144 56.901 43.9091 56.901C44 57.1383 44.0799 57.3602 44.1708 57.5776C45.0759 59.7338 46.5954 61.1779 48.9402 61.6282C49.7188 61.8079 50.5285 61.7902 51.2983 61.5772C51.7198 61.453 52.1124 61.2533 52.4607 60.9849C53.1328 60.5057 53.2903 59.5718 52.8134 58.8997C52.7158 58.7621 52.596 58.6423 52.4585 58.5447C51.8928 58.1277 51.265 57.7994 50.5995 57.5731C49.3107 57.125 47.9819 56.7967 46.682 56.3819C45.7747 56.109 44.8829 55.7874 44.0111 55.4191C42.354 54.6826 41.1406 53.4847 40.7724 51.6635C40.1845 48.7553 41.4068 46.2264 44.0732 44.82C45.2156 44.2365 46.4734 43.9104 47.7534 43.8594C50.1825 43.6797 52.6204 44.1212 54.8321 45.1416C54.9119 45.1793 54.9962 45.2059 55.1404 45.2614L55.6795 44.3608H58.4169V51.0712C57.9089 51.0756 57.3898 51.0845 56.8729 51.0867C56.3405 51.0889 55.8126 51.0867 55.2491 51.0867Z" fill="black"/>
<path d="M38.8538 61.3271V64.0312H27.2897V61.3271C27.6469 61.3271 27.9952 61.3337 28.339 61.3249C28.5808 61.3249 28.8226 61.3049 29.0622 61.265C29.4282 61.2295 29.721 60.9411 29.7632 60.5751C29.8164 60.2933 29.8519 60.0094 29.8652 59.7254C29.8719 56.0652 29.8719 52.4028 29.8652 48.7425C29.863 47.447 29.5546 47.152 28.2591 47.1298C27.953 47.1254 27.6447 47.1298 27.2897 47.1298V44.439H38.774C38.9248 45.313 38.9381 46.207 38.8117 47.0854C38.652 47.101 38.4834 47.1209 38.3126 47.132C38.1418 47.1431 37.9598 47.132 37.7824 47.1364C36.6022 47.1786 36.3227 47.4315 36.3227 48.5961C36.3116 52.3451 36.3116 56.094 36.3227 59.843C36.3272 61.0454 36.6089 61.3049 37.8179 61.3271C38.1462 61.3315 38.4723 61.3271 38.8538 61.3271Z" fill="black"/>
</svg>
