<svg width="184" height="93" viewBox="0 0 184 93" fill="none" xmlns="http://www.w3.org/2000/svg">
<path fill-rule="evenodd" clip-rule="evenodd" d="M10.9169 68.0117L10.1434 68.5406C9.71659 68.0471 9.20543 67.6734 8.60683 67.4193C8.00822 67.1653 7.35236 67.0373 6.6382 67.0373C5.85637 67.0373 5.1318 67.2049 4.46553 67.537C3.79926 67.8722 3.2829 68.322 2.91645 68.8852C2.54903 69.4504 2.35773 70.1121 2.36677 70.7862C2.36677 71.8502 2.77695 72.7382 3.59625 73.4503C4.41556 74.1624 5.45036 74.5184 6.69754 74.5184C8.06964 74.5184 9.21896 74.0364 10.1424 73.0724L10.9159 73.5961C10.4159 74.1685 9.78971 74.6168 9.08675 74.9057C8.35593 75.2149 7.54079 75.369 6.63924 75.369C4.92463 75.369 3.57231 74.8599 2.58227 73.8407C1.75255 72.9818 1.33717 71.9428 1.33717 70.7268C1.33717 69.4474 1.83896 68.3698 2.84565 67.4953C3.85131 66.6219 5.11098 66.1867 6.62571 66.1867C7.54079 66.1867 8.36634 66.3449 9.10341 66.6656C9.84047 66.9862 10.4464 67.435 10.9169 68.0117ZM12.4139 66.4032H13.4029V75.1504H12.4139V66.4032ZM15.3174 75.1504V66.4032H15.5298L22.027 73.0693V66.4032H23.016V75.1504H22.7911L16.3262 68.5468V75.1504H15.3174ZM25.0773 66.4032H30.6979V67.2538H26.0663V70.0054H30.6583V70.8559H26.0663V74.2998H30.6583V75.1504H25.0773V66.4032ZM31.6203 75.1504L33.0195 66.4032H33.1777L37.1722 73.5867L41.1178 66.4032H41.2739L42.6648 75.1504H41.7081L40.7545 68.8966L37.3002 75.1504H37.0306L33.5306 68.8571L32.5676 75.1504H31.6203ZM48.2615 66.4032L52.8327 75.1504H51.7636L50.2551 72.2812H45.9847L44.4648 75.1504H43.3925L48.0241 66.4032H48.2615ZM48.1251 68.2366L46.4334 71.4306H49.8053L48.1251 68.2366ZM64.8693 71.9251L65.5408 72.5623C65.1423 72.8611 64.7362 73.1496 64.3228 73.4274C64.583 73.645 64.9256 73.9459 65.3513 74.3311C65.6876 74.634 65.9801 74.9078 66.229 75.1504H64.862L63.5639 73.9667C62.7498 74.5455 62.0877 74.9245 61.5775 75.1015C61.0579 75.2813 60.5116 75.3717 59.9618 75.369C59.2071 75.369 58.6033 75.1764 58.1462 74.7912C57.6903 74.4071 57.4612 73.9271 57.4612 73.3504C57.4612 72.9162 57.6132 72.4821 57.9193 72.0459C58.2243 71.6097 58.8479 71.0589 59.788 70.3927C59.2622 69.8097 58.9239 69.3797 58.774 69.1038C58.6335 68.8621 58.5562 68.5889 58.5491 68.3095C58.5491 67.8712 58.7365 67.5078 59.1123 67.2205C59.5464 66.8863 60.0868 66.7187 60.7332 66.7187C61.1403 66.7187 61.512 66.7936 61.8472 66.9394C62.1834 67.0872 62.4406 67.285 62.6175 67.5328C62.7935 67.7816 62.883 68.044 62.883 68.322C62.883 68.6166 62.7664 68.9289 62.5363 69.26C62.3052 69.5931 61.8503 70.0168 61.1705 70.5332L62.6581 71.9241L63.6315 72.8038C64.151 72.4519 64.5633 72.1583 64.8693 71.9251ZM60.4355 71.0527C59.611 71.6097 59.0707 72.0521 58.8135 72.3822C58.5574 72.7111 58.4304 73.0151 58.4304 73.2962C58.4304 73.6262 58.5866 73.9219 58.9031 74.1759C59.2185 74.43 59.6047 74.558 60.0618 74.558C60.4084 74.558 60.7489 74.4935 61.081 74.3644C61.6056 74.1593 62.2032 73.8199 62.8747 73.342L61.3287 71.9324C61.0622 71.6825 60.7645 71.39 60.4355 71.0527ZM60.5646 69.8804C61.0487 69.5494 61.412 69.2246 61.6567 68.9039C61.8284 68.677 61.9138 68.475 61.9138 68.3001C61.9138 68.096 61.8024 67.9211 61.5817 67.7723C61.361 67.6244 61.0674 67.5505 60.6999 67.5505C60.3512 67.5505 60.068 67.6265 59.8494 67.7785C59.6287 67.9305 59.5194 68.1096 59.5194 68.3178C59.5192 68.4775 59.5655 68.6337 59.6526 68.7675C59.8681 69.1069 60.1721 69.4765 60.5646 69.8804ZM79.9968 68.0117L79.2223 68.5406C78.804 68.0531 78.2784 67.6693 77.6867 67.4193C77.0629 67.1597 76.3927 67.0297 75.7171 67.0373C74.964 67.0311 74.2201 67.2023 73.5454 67.537C72.8781 67.8722 72.3618 68.322 71.9964 68.8852C71.629 69.4504 71.4377 70.1121 71.4467 70.7862C71.4467 71.8502 71.8569 72.7382 72.6762 73.4503C73.4955 74.1624 74.5303 74.5184 75.7785 74.5184C77.1506 74.5184 78.2989 74.0364 79.2233 73.0724L79.9979 73.5961C79.4979 74.168 78.8721 74.6163 78.1698 74.9057C77.439 75.2149 76.6228 75.369 75.7212 75.369C74.0066 75.369 72.6543 74.8599 71.6643 73.8407C70.8335 72.9818 70.4192 71.9428 70.4192 70.7268C70.4192 69.4474 70.922 68.3698 71.9277 67.4953C72.9333 66.6219 74.194 66.1867 75.7087 66.1867C76.6228 66.1867 77.4483 66.3449 78.1854 66.6656C78.8889 66.9616 79.5104 67.4235 79.9968 68.0117ZM86.3098 66.1867C87.7912 66.1867 89.0321 66.6281 90.0305 67.511C91.0288 68.3948 91.5285 69.4828 91.5285 70.7737C91.5285 72.0532 91.0299 73.1401 90.0336 74.0312C89.0363 74.9234 87.8224 75.369 86.3899 75.369C84.9387 75.369 83.7144 74.9245 82.715 74.0375C81.7166 73.1494 81.218 72.0761 81.218 70.8153C81.218 69.9752 81.4449 69.1954 81.8999 68.4802C82.357 67.7608 83.0002 67.1784 83.7613 66.7947C84.5489 66.3882 85.4235 66.1796 86.3098 66.1867ZM86.3535 67.0362C85.632 67.0362 84.9481 67.2059 84.3026 67.5411C83.6862 67.8524 83.1641 68.3225 82.79 68.9029C82.4281 69.4734 82.2393 70.1366 82.2465 70.8122C82.2465 71.8512 82.6484 72.7288 83.451 73.443C84.2537 74.1593 85.2208 74.5174 86.3545 74.5174C87.1103 74.5174 87.8099 74.3529 88.4543 74.0219C89.0698 73.7182 89.5901 73.2515 89.9586 72.6726C90.3199 72.1021 90.5 71.4681 90.5 70.7695C90.5 70.0762 90.3209 69.4484 89.9586 68.8873C89.5984 68.3261 89.0914 67.8774 88.4366 67.5401C87.7926 67.2077 87.0782 67.0349 86.3535 67.0362ZM92.7424 75.1504L94.1416 66.4032H94.2977L98.2954 73.5867L102.24 66.4032H102.396L103.787 75.1504H102.831L101.878 68.8966L98.4234 75.1504H98.1528L94.6538 68.8571L93.6898 75.1504H92.7424ZM105.404 66.4032H106.396V71.6711C106.396 72.2968 106.408 72.6861 106.434 72.8402C106.483 73.1838 106.597 73.4711 106.774 73.7033C106.953 73.9344 107.226 74.127 107.593 74.2852C107.963 74.4404 108.333 74.5195 108.707 74.5195C109.031 74.5195 109.341 74.457 109.639 74.3352C109.937 74.2124 110.185 74.0427 110.387 73.8251C110.586 73.6075 110.733 73.3441 110.826 73.036C110.893 72.8142 110.926 72.3603 110.926 71.6711V66.4032H111.916V71.6826C111.916 72.4634 111.831 73.0943 111.658 73.5752C111.488 74.0583 111.144 74.4758 110.63 74.8339C110.115 75.1899 109.493 75.369 108.761 75.369C107.968 75.369 107.287 75.2004 106.722 74.863C106.156 74.5268 105.776 74.0802 105.587 73.5253C105.465 73.1859 105.404 72.5706 105.404 71.6826V66.4032ZM113.984 75.1504V66.4032H114.195L120.694 73.0693V66.4032H121.683V75.1504H121.459L114.993 68.5468V75.1504H113.984ZM123.586 66.4032H124.576V75.1504H123.586V66.4032ZM135.594 68.0117L134.82 68.5406C134.395 68.0471 133.883 67.6734 133.284 67.4193C132.685 67.1653 132.03 67.0373 131.315 67.0373C130.562 67.0312 129.817 67.2024 129.142 67.537C128.474 67.8722 127.958 68.322 127.593 68.8852C127.226 69.4508 127.035 70.1122 127.044 70.7862C127.044 71.8502 127.453 72.7382 128.272 73.4503C129.092 74.1624 130.127 74.5184 131.375 74.5184C132.747 74.5184 133.896 74.0364 134.82 73.0724L135.594 73.5961C135.093 74.1678 134.467 74.616 133.764 74.9057C133.034 75.2149 132.219 75.369 131.315 75.369C129.603 75.369 128.25 74.8599 127.259 73.8407C126.43 72.9818 126.015 71.9428 126.015 70.7268C126.015 69.4474 126.517 68.3698 127.524 67.4953C128.529 66.6219 129.789 66.1867 131.304 66.1867C132.219 66.1867 133.045 66.3449 133.783 66.6656C134.486 66.9619 135.107 67.4237 135.594 68.0117ZM141.247 66.4032L145.82 75.1504H144.749L143.241 72.2812H138.972L137.451 75.1504H136.38L141.01 66.4032H141.247ZM141.111 68.2366L139.421 71.4306H142.792L141.111 68.2366ZM146.613 67.2538V66.4032H151.759L147.688 74.2998H151.562V75.1504H146.177L150.271 67.2538H146.613ZM153.062 66.4032H154.052V75.1504H153.062V66.4032ZM160.624 66.1867C162.107 66.1867 163.346 66.6281 164.345 67.511C165.343 68.3938 165.843 69.4828 165.843 70.7737C165.843 72.0532 165.343 73.1401 164.346 74.0312C163.35 74.9234 162.136 75.369 160.702 75.369C159.252 75.369 158.027 74.9245 157.028 74.0375C156.03 73.1505 155.53 72.0761 155.53 70.8153C155.53 69.9752 155.758 69.1954 156.213 68.4802C156.67 67.7613 157.313 67.179 158.074 66.7947C158.862 66.3883 159.737 66.1797 160.624 66.1867ZM160.667 67.0362C159.945 67.0362 159.261 67.2059 158.617 67.5411C158 67.8521 157.478 68.3222 157.104 68.9029C156.742 69.4731 156.553 70.1366 156.562 70.8122C156.562 71.8512 156.963 72.7288 157.765 73.443C158.567 74.1593 159.534 74.5174 160.667 74.5174C161.424 74.5174 162.122 74.3529 162.768 74.0219C163.383 73.7182 163.903 73.2515 164.272 72.6726C164.634 72.1021 164.813 71.4681 164.813 70.7695C164.813 70.0762 164.634 69.4484 164.272 68.8873C163.912 68.3261 163.404 67.8774 162.751 67.5401C162.107 67.2077 161.392 67.0349 160.667 67.0362ZM167.493 75.1504V66.4032H167.706L174.202 73.0693V66.4032H175.19V75.1504H174.967L168.501 68.5468V75.1504H167.493ZM177.253 66.4032H182.872V67.2538H178.243V70.0054H182.834V70.8559H178.243V74.2998H182.834V75.1504H177.253V66.4032ZM0.854126 84.5159H1.42774V85.2634C1.65469 84.9802 1.91496 84.7668 2.20957 84.6273C2.50315 84.4868 2.83212 84.417 3.19441 84.417C3.82737 84.417 4.36975 84.6252 4.81949 85.0406C5.27026 85.456 5.49513 85.9557 5.49513 86.5387C5.49513 87.1342 5.27234 87.6423 4.82573 88.0587C4.38016 88.4741 3.84194 88.6834 3.2121 88.6834C2.85815 88.6834 2.5323 88.6157 2.23456 88.4814C1.93682 88.3471 1.66823 88.1472 1.42774 87.8807V90.069H0.854126V84.5159ZM3.14756 84.9219C2.65202 84.9219 2.23456 85.0791 1.89622 85.3935C1.73222 85.5416 1.60198 85.7232 1.51432 85.926C1.42667 86.1288 1.38365 86.348 1.38818 86.5689C1.38818 86.876 1.46314 87.153 1.61513 87.3987C1.76609 87.6433 1.98262 87.838 2.26371 87.9827C2.54583 88.1274 2.84253 88.1982 3.15693 88.1982C3.46404 88.1982 3.75241 88.1253 4.02412 87.9806C4.2948 87.8349 4.51029 87.6329 4.67062 87.3726C4.82759 87.1285 4.9114 86.8446 4.91214 86.5544C4.91214 86.267 4.83302 85.9943 4.67374 85.7371C4.51446 85.48 4.3 85.279 4.03037 85.1364C3.76074 84.9938 3.46612 84.9219 3.14756 84.9219ZM6.13641 84.5159H6.71107V85.1093C6.88493 84.8761 7.06919 84.7012 7.26179 84.5878C7.45542 84.4732 7.65635 84.416 7.86664 84.416C8.02384 84.416 8.19249 84.4639 8.37259 84.5555L8.07381 84.9927C7.97845 84.9506 7.87607 84.9265 7.7719 84.9219C7.56887 84.9266 7.37394 85.0026 7.22119 85.1364C7.04421 85.2801 6.90991 85.5029 6.81622 85.8048C6.74543 86.0359 6.71003 86.5044 6.71003 87.2092V88.5845H6.13537V84.5159H6.13641ZM10.7618 84.417C11.4458 84.417 12.0121 84.644 12.4618 85.0958C12.871 85.5081 13.075 85.9974 13.075 86.5606C13.075 87.128 12.8585 87.6235 12.4264 88.0462C11.9944 88.4699 11.4385 88.6823 10.7608 88.6823C10.0799 88.6823 9.52295 88.4699 9.09091 88.0462C8.65888 87.6235 8.44234 87.128 8.44234 86.5606C8.44234 85.9995 8.64743 85.5112 9.05552 85.0989C9.50733 84.645 10.0757 84.417 10.7618 84.417ZM10.7597 84.9313C10.286 84.9313 9.87899 85.0916 9.53961 85.4123C9.19814 85.7329 9.02845 86.1202 9.02845 86.5752C9.02845 86.8677 9.10549 87.1405 9.26165 87.3935C9.41572 87.6475 9.62706 87.8432 9.89044 87.9796C10.1549 88.1181 10.4443 88.1868 10.7608 88.1868C11.0762 88.1868 11.3666 88.1181 11.63 87.9796C11.89 87.8464 12.1078 87.6435 12.2588 87.3935C12.415 87.1405 12.492 86.8677 12.492 86.5752C12.492 86.1192 12.3213 85.7319 11.9798 85.4123C11.6384 85.0927 11.2303 84.9313 10.7597 84.9313ZM18.3667 82.9512V88.5834H17.792V87.8849C17.5694 88.1387 17.2955 88.3424 16.9883 88.4824C16.6803 88.6174 16.347 88.6852 16.0108 88.6813C15.4133 88.6929 14.8353 88.4685 14.4024 88.0566C13.9578 87.6402 13.7361 87.1322 13.7361 86.5367C13.7361 85.9526 13.9599 85.4539 14.4086 85.0385C14.8462 84.6274 15.4271 84.4036 16.0274 84.4149C16.3918 84.4149 16.7208 84.4868 17.0164 84.6284C17.31 84.7699 17.5703 84.9834 17.792 85.2665V82.9491H18.3667V82.9512ZM16.0722 84.9219C15.7568 84.9219 15.4632 84.9927 15.1956 85.1354C14.9281 85.278 14.7147 85.4789 14.5564 85.7361C14.4018 85.9807 14.3196 86.264 14.3191 86.5533C14.3191 86.8386 14.3982 87.1113 14.5585 87.3716C14.7178 87.6319 14.9322 87.8338 15.2019 87.9796C15.4705 88.1243 15.7599 88.1972 16.0691 88.1972C16.3803 88.1972 16.675 88.1264 16.954 87.9817C17.233 87.837 17.4474 87.6433 17.5973 87.3976C17.7472 87.1519 17.8232 86.875 17.8232 86.5679C17.8232 86.1004 17.6546 85.709 17.3183 85.3925C16.98 85.0791 16.5657 84.9219 16.0722 84.9219ZM19.3682 84.5159H19.9418V86.4138C19.9418 86.8761 19.9699 87.1957 20.024 87.3695C20.1063 87.6183 20.2635 87.8161 20.4956 87.9598C20.7278 88.1035 21.0047 88.1764 21.3253 88.1764C21.646 88.1764 21.9187 88.1056 22.1436 87.9661C22.3554 87.8377 22.5184 87.6425 22.6069 87.4112C22.6641 87.254 22.6933 86.9219 22.6933 86.4138V84.5159H23.2669V86.5096C23.2669 87.0686 23.1961 87.4913 23.0514 87.7755C22.9083 88.058 22.6829 88.2903 22.4049 88.4418C22.1165 88.6011 21.7553 88.6823 21.3212 88.6823C20.8871 88.6823 20.5248 88.6011 20.2343 88.4418C19.9525 88.2908 19.7247 88.0557 19.5826 87.7693C19.439 87.483 19.3671 87.051 19.3671 86.4742V84.5159H19.3682ZM23.9706 84.5159H27.227L24.6942 88.1285H27.1469V88.5845H23.7333L26.2651 84.9709H23.9706V84.5159ZM27.8787 82.8544C28.0099 82.8544 28.1224 82.896 28.2171 82.9803C28.2607 83.018 28.2957 83.0646 28.3197 83.1169C28.3437 83.1693 28.3561 83.2262 28.3561 83.2838C28.3561 83.3414 28.3437 83.3983 28.3197 83.4507C28.2957 83.5031 28.2607 83.5496 28.2171 83.5873C28.1248 83.6714 28.0036 83.7169 27.8787 83.7143C27.7554 83.7167 27.636 83.6712 27.5456 83.5873C27.5015 83.5499 27.4661 83.5035 27.4418 83.4511C27.4175 83.3986 27.4049 83.3416 27.4049 83.2838C27.4049 83.226 27.4175 83.169 27.4418 83.1166C27.4661 83.0641 27.5015 83.0177 27.5456 82.9803C27.6363 82.8971 27.7556 82.852 27.8787 82.8544ZM27.5935 84.5159H28.1682V88.5834H27.5935V84.5159ZM31.2486 84.417C31.9336 84.417 32.5 84.644 32.9497 85.0958C33.3588 85.5081 33.5618 85.9974 33.5618 86.5606C33.5618 87.128 33.3463 87.6235 32.9143 88.0462C32.4823 88.4699 31.9274 88.6823 31.2476 88.6823C30.5667 88.6823 30.0108 88.4699 29.5788 88.0462C29.1457 87.6235 28.9302 87.128 28.9302 86.5606C28.9302 85.9995 29.1343 85.5112 29.5423 85.0989C29.9942 84.645 30.5615 84.417 31.2486 84.417ZM31.2476 84.9313C30.7739 84.9313 30.3669 85.0916 30.0254 85.4123C29.685 85.7329 29.5153 86.1202 29.5153 86.5752C29.5153 86.8677 29.5934 87.1405 29.7485 87.3935C29.9036 87.6475 30.1139 87.8432 30.3773 87.9796C30.6407 88.1181 30.9311 88.1868 31.2476 88.1868C31.563 88.1868 31.8535 88.1181 32.1169 87.9796C32.3813 87.8422 32.5916 87.6475 32.7457 87.3935C32.9008 87.1405 32.9789 86.8677 32.9789 86.5752C32.9789 86.1192 32.8092 85.7319 32.4656 85.4123C32.139 85.0974 31.7012 84.9245 31.2476 84.9313ZM34.4103 84.5159H34.9839V85.2447C35.2129 84.9657 35.467 84.7564 35.746 84.6211C36.025 84.4837 36.3289 84.416 36.6569 84.416C36.99 84.416 37.2857 84.493 37.5439 84.6481C37.802 84.8022 37.9925 85.0104 38.1154 85.2718C38.2382 85.5331 38.3007 85.9412 38.3007 86.4929V88.5845H37.726V86.6491C37.726 86.1817 37.7042 85.8693 37.6615 85.7132C37.5938 85.4446 37.4658 85.2426 37.2784 85.1073C37.0889 84.9709 36.8443 84.9032 36.5413 84.9032C36.1947 84.9032 35.8834 85.0084 35.6096 85.2166C35.3476 85.4081 35.1568 85.6813 35.0672 85.9932C35.0131 86.1941 34.985 86.5627 34.985 87.0968V88.5865H34.4113L34.4103 84.5159ZM43.0593 87.2373L43.5413 87.4695C43.4017 87.7281 43.2161 87.9591 42.9938 88.1514C42.7872 88.3256 42.5499 88.4597 42.2942 88.547C42.011 88.6415 41.714 88.6876 41.4155 88.6834C40.6899 88.6834 40.1225 88.4658 39.7124 88.0327C39.3032 87.5986 39.0992 87.1082 39.0992 86.5616C39.0992 86.0474 39.272 85.5882 39.6187 85.1864C40.058 84.6742 40.6462 84.4181 41.3822 84.4181C42.1411 84.4181 42.747 84.6815 43.1999 85.2062C43.5216 85.5778 43.685 86.0411 43.6902 86.596H39.6822C39.6926 87.0645 39.8581 87.4497 40.1787 87.7495C40.4973 88.0483 40.8929 88.1993 41.3624 88.1993C41.5883 88.1993 41.8101 88.1628 42.0235 88.092C42.239 88.0212 42.4212 87.9265 42.5711 87.8089C42.721 87.6912 42.8834 87.5007 43.0593 87.2373ZM43.0562 86.139C42.9971 85.8949 42.8828 85.6677 42.722 85.4748C42.5624 85.2985 42.3644 85.1614 42.1432 85.0739C41.9035 84.9724 41.6457 84.9206 41.3853 84.9219C40.9481 84.9219 40.5733 85.049 40.2589 85.304C40.0299 85.4893 39.856 85.7673 39.7384 86.139H43.0562ZM50.3967 87.2373L50.8787 87.4695C50.739 87.7284 50.553 87.9595 50.33 88.1514C50.1236 88.3258 49.8863 88.46 49.6304 88.547C49.347 88.6416 49.0496 88.6877 48.7508 88.6834C48.0251 88.6834 47.4588 88.4658 47.0497 88.0327C46.6405 87.5986 46.4375 87.1082 46.4375 86.5616C46.4375 86.0474 46.6093 85.5882 46.956 85.1864C47.3953 84.6742 47.9835 84.4181 48.7195 84.4181C49.4785 84.4181 50.0843 84.6815 50.5372 85.2062C50.8589 85.5778 51.0223 86.0411 51.0275 86.596H47.0195C47.0309 87.0645 47.1954 87.4497 47.5161 87.7495C47.8357 88.0483 48.2302 88.1993 48.7008 88.1993C48.9257 88.1993 49.1474 88.1628 49.3608 88.092C49.5763 88.0212 49.7585 87.9265 49.9084 87.8089C50.0583 87.6912 50.2228 87.5007 50.3967 87.2373ZM50.3946 86.139C50.3347 85.895 50.2201 85.6678 50.0594 85.4748C49.8997 85.2985 49.7017 85.1614 49.4805 85.0739C49.2408 84.9724 48.983 84.9207 48.7226 84.9219C48.2864 84.9219 47.9106 85.049 47.5962 85.304C47.3662 85.4893 47.1933 85.7673 47.0757 86.139H50.3946ZM53.9924 84.5159H54.5661V85.2634C54.792 84.9802 55.0522 84.7668 55.3469 84.6273C55.6415 84.4868 55.9704 84.417 56.3338 84.417C56.9667 84.417 57.507 84.6252 57.9588 85.0406C58.4086 85.456 58.6334 85.9557 58.6334 86.5387C58.6334 87.1342 58.4096 87.6423 57.9641 88.0587C57.5185 88.4741 56.9803 88.6834 56.3504 88.6834C55.9954 88.6834 55.6696 88.6157 55.3718 88.4814C55.0646 88.3396 54.7905 88.1349 54.5671 87.8807V90.069H53.9935L53.9924 84.5159ZM56.2859 84.9219C55.7903 84.9219 55.3739 85.0791 55.0345 85.3935C54.6952 85.71 54.5255 86.1015 54.5255 86.5689C54.5255 86.876 54.6025 87.153 54.7535 87.3987C54.9034 87.6433 55.1199 87.838 55.4031 87.9827C55.6842 88.1274 55.9819 88.1982 56.2942 88.1982C56.6013 88.1982 56.8907 88.1253 57.1624 87.9806C57.4331 87.8349 57.6486 87.6329 57.81 87.3726C57.9703 87.1124 58.0505 86.8396 58.0505 86.5544C58.0505 86.267 57.9703 85.9943 57.811 85.7371C57.6551 85.4825 57.4332 85.2749 57.1687 85.1364C56.8968 84.9927 56.5934 84.919 56.2859 84.9219ZM61.5911 84.417C62.275 84.417 62.8424 84.644 63.2921 85.0958C63.7013 85.5081 63.9064 85.9974 63.9064 86.5606C63.9064 87.128 63.6898 87.6235 63.2578 88.0462C62.8258 88.4699 62.2709 88.6823 61.5911 88.6823C60.9102 88.6823 60.3543 88.4699 59.9223 88.0462C59.4902 87.6235 59.2737 87.128 59.2737 86.5606C59.2737 85.9995 59.4788 85.5112 59.8869 85.0989C60.3376 84.645 60.905 84.417 61.5911 84.417ZM61.59 84.9313C61.1164 84.9313 60.7093 85.0916 60.3699 85.4123C60.0285 85.7329 59.8588 86.1202 59.8588 86.5752C59.8588 86.8677 59.9358 87.1405 60.092 87.3935C60.246 87.6475 60.4574 87.8432 60.7208 87.9796C60.9852 88.1181 61.2746 88.1868 61.5911 88.1868C61.9065 88.1868 62.197 88.1181 62.4603 87.9796C62.7203 87.8464 62.9381 87.6435 63.0891 87.3935C63.2443 87.1405 63.3223 86.8677 63.3223 86.5752C63.3223 86.1192 63.1506 85.7319 62.8101 85.4123C62.4826 85.0976 62.0442 84.9247 61.59 84.9313ZM66.99 84.9605L66.6214 85.3082C66.3164 85.0375 66.0176 84.9011 65.7261 84.9011C65.5518 84.8973 65.3821 84.9577 65.2493 85.0708C65.1884 85.1165 65.1389 85.1756 65.1044 85.2434C65.0699 85.3113 65.0515 85.3862 65.0505 85.4623C65.0505 85.5934 65.1057 85.7194 65.2139 85.8381C65.3222 85.9599 65.5512 86.1036 65.9 86.267C66.3247 86.469 66.6131 86.6637 66.7661 86.8511C66.9122 87.0311 66.9914 87.2563 66.99 87.4882C66.99 87.8203 66.8619 88.1035 66.6068 88.3346C66.3508 88.5657 66.0312 88.6813 65.647 88.6813C65.3909 88.6813 65.1483 88.6292 64.9151 88.5282C64.6928 88.4333 64.4951 88.2887 64.3374 88.1056L64.6976 87.7318C64.988 88.0358 65.2972 88.1878 65.6231 88.1878C65.8353 88.1934 66.0423 88.122 66.206 87.9869C66.2796 87.9314 66.3395 87.8597 66.381 87.7774C66.4226 87.6951 66.4446 87.6043 66.4455 87.5121C66.4461 87.3635 66.3895 87.2203 66.2872 87.1124C66.18 86.9989 65.9416 86.8542 65.5689 86.6793C65.1692 86.4908 64.8964 86.3055 64.7527 86.1213C64.6107 85.9426 64.5343 85.7207 64.5362 85.4925C64.533 85.3467 64.5623 85.2021 64.6221 85.0692C64.6819 84.9363 64.7706 84.8184 64.8818 84.7241C65.1119 84.5211 65.4034 84.4181 65.7553 84.4181C66.1634 84.417 66.5756 84.5992 66.99 84.9605ZM68.3079 83.0116H68.8815V84.5159H69.7914V84.9709H68.8815V88.5845H68.3079V84.9709H67.5271V84.5159H68.3079V83.0116ZM70.0538 86.2878H72.3003V86.7428H70.0538V86.2878ZM72.9999 84.5159H73.5736V85.2634C73.8005 84.9802 74.0608 84.7668 74.3543 84.6273C74.65 84.4868 74.979 84.417 75.3413 84.417C75.9732 84.417 76.5145 84.6252 76.9663 85.0406C77.415 85.456 77.6409 85.9557 77.6409 86.5387C77.6409 87.1342 77.4171 87.6423 76.9715 88.0587C76.5249 88.4741 75.9867 88.6834 75.3569 88.6834C75.0019 88.6834 74.6771 88.6157 74.3783 88.4814C74.0712 88.3393 73.7971 88.1347 73.5736 87.8807V90.069H72.9999V84.5159ZM75.2944 84.9219C74.7989 84.9219 74.3814 85.0791 74.042 85.3935C73.878 85.5416 73.7478 85.7232 73.6601 85.926C73.5725 86.1288 73.5295 86.348 73.534 86.5689C73.534 86.876 73.61 87.153 73.7609 87.3987C73.9119 87.6433 74.1284 87.838 74.4106 87.9827C74.6917 88.1274 74.9894 88.1982 75.3017 88.1982C75.6088 88.1982 75.8982 88.1253 76.1699 87.9806C76.4406 87.8349 76.6561 87.6329 76.8164 87.3726C76.9767 87.1124 77.0569 86.8396 77.0569 86.5544C77.0569 86.267 76.9778 85.9943 76.8185 85.7371C76.6592 85.48 76.4458 85.279 76.1751 85.1364C75.904 84.9926 75.6013 84.9188 75.2944 84.9219ZM78.2822 84.5159H78.8558V85.1093C79.0297 84.8761 79.2129 84.7012 79.4076 84.5878C79.6012 84.4732 79.8011 84.416 80.0125 84.416C80.1707 84.416 80.3383 84.4639 80.5184 84.5555L80.2207 84.9927C80.1249 84.9506 80.0222 84.9266 79.9177 84.9219C79.7147 84.9268 79.5199 85.0027 79.367 85.1364C79.19 85.2801 79.0547 85.5029 78.962 85.8048C78.8923 86.0359 78.8569 86.5044 78.8569 87.2092V88.5845H78.2833V84.5159H78.2822ZM82.9076 84.417C83.5916 84.417 84.159 84.644 84.6087 85.0958C85.0168 85.5081 85.2219 85.9974 85.2219 86.5606C85.2219 87.128 85.0053 87.6235 84.5743 88.0462C84.1423 88.4699 83.5864 88.6823 82.9076 88.6823C82.2268 88.6823 81.6698 88.4699 81.2378 88.0462C80.8057 87.6235 80.5902 87.128 80.5902 86.5606C80.5902 85.9995 80.7932 85.5112 81.2034 85.0989C81.6531 84.645 82.2215 84.417 82.9076 84.417ZM82.9055 84.9313C82.4329 84.9313 82.0248 85.0916 81.6844 85.4123C81.344 85.7329 81.1743 86.1202 81.1743 86.5752C81.1743 86.8677 81.2523 87.1405 81.4075 87.3935C81.5626 87.6475 81.7718 87.8432 82.0363 87.9796C82.3007 88.1181 82.5911 88.1868 82.9055 88.1868C83.222 88.1868 83.5114 88.1181 83.7758 87.9796C84.0392 87.8422 84.2495 87.6475 84.4046 87.3935C84.5598 87.1405 84.6378 86.8677 84.6378 86.5752C84.6378 86.1192 84.4671 85.7319 84.1256 85.4123C83.7982 85.0975 83.3597 84.9246 82.9055 84.9313ZM90.5125 82.9512V88.5834H89.9389V87.8849C89.6994 88.1503 89.4319 88.3502 89.1341 88.4824C88.8265 88.6174 88.4936 88.6852 88.1576 88.6813C87.5602 88.6929 86.9822 88.4685 86.5492 88.0566C86.1047 87.6402 85.8829 87.1322 85.8829 86.5367C85.8829 85.9526 86.1068 85.4539 86.5555 85.0385C86.9932 84.6277 87.574 84.4039 88.1743 84.4149C88.5397 84.4149 88.8676 84.4868 89.1633 84.6284C89.4589 84.7699 89.7182 84.9834 89.9399 85.2665V82.9491H90.5125V82.9512ZM88.219 84.9219C87.9026 84.9219 87.61 84.9927 87.3425 85.1354C87.0739 85.278 86.8615 85.4789 86.7022 85.7361C86.5484 85.981 86.4665 86.2641 86.4659 86.5533C86.4659 86.8386 86.545 87.1113 86.7043 87.3716C86.8646 87.6319 87.0791 87.8338 87.3487 87.9796C87.6173 88.1243 87.9067 88.1972 88.2149 88.1972C88.5251 88.1972 88.8218 88.1264 89.0998 87.9817C89.3788 87.837 89.5932 87.6433 89.7431 87.3976C89.8941 87.1519 89.9691 86.875 89.9691 86.5679C89.9691 86.1004 89.8004 85.709 89.4631 85.3925C89.1258 85.0791 88.7115 84.9219 88.219 84.9219ZM91.515 84.5159H92.0886V86.4138C92.0886 86.8761 92.1167 87.1957 92.1719 87.3695C92.2531 87.6183 92.4103 87.8161 92.6425 87.9598C92.8746 88.1045 93.1516 88.1764 93.4722 88.1764C93.7928 88.1764 94.0656 88.1056 94.2894 87.9661C94.5018 87.8384 94.6649 87.6429 94.7527 87.4112C94.8099 87.254 94.8401 86.9219 94.8401 86.4138V84.5159H95.4137V86.5096C95.4137 87.0686 95.3429 87.4913 95.1982 87.7755C95.0555 88.0582 94.83 88.2906 94.5518 88.4418C94.2634 88.6011 93.9032 88.6823 93.468 88.6823C93.0329 88.6823 92.6716 88.6011 92.3822 88.4418C92.1001 88.2909 91.8719 88.0558 91.7295 87.7693C91.5858 87.483 91.515 87.051 91.515 86.4742V84.5159ZM96.1154 84.5159H99.3729L96.8389 88.1285H99.2937V88.5845H95.8791L98.4109 84.9709H96.1154V84.5159ZM100.024 82.8544C100.156 82.8544 100.269 82.896 100.361 82.9803C100.405 83.0178 100.44 83.0643 100.464 83.1167C100.488 83.1691 100.501 83.2261 100.501 83.2838C100.501 83.3415 100.488 83.3985 100.464 83.4509C100.44 83.5033 100.405 83.5498 100.361 83.5873C100.269 83.6721 100.148 83.7177 100.024 83.7143C99.9008 83.7167 99.782 83.6712 99.6925 83.5873C99.6485 83.5498 99.6133 83.5033 99.5891 83.4509C99.5649 83.3985 99.5524 83.3415 99.5524 83.2838C99.5524 83.2261 99.5649 83.1691 99.5891 83.1167C99.6133 83.0643 99.6485 83.0178 99.6925 82.9803C99.7824 82.8972 99.901 82.8521 100.024 82.8544ZM99.7403 84.5159H100.314V88.5834H99.7403V84.5159ZM103.394 84.417C104.077 84.417 104.645 84.644 105.097 85.0958C105.506 85.5081 105.709 85.9974 105.709 86.5606C105.709 87.128 105.493 87.6235 105.062 88.0462C104.629 88.4699 104.074 88.6823 103.394 88.6823C102.714 88.6823 102.157 88.4699 101.725 88.0462C101.292 87.6235 101.076 87.128 101.076 86.5606C101.076 85.9995 101.281 85.5112 101.69 85.0989C102.14 84.645 102.709 84.417 103.394 84.417ZM103.392 84.9313C102.919 84.9313 102.512 85.0916 102.172 85.4123C101.831 85.7329 101.66 86.1202 101.66 86.5752C101.66 86.8677 101.739 87.1405 101.894 87.3935C102.048 87.6475 102.261 87.8432 102.523 87.9796C102.788 88.1181 103.078 88.1868 103.393 88.1868C103.709 88.1868 103.999 88.1181 104.264 87.9796C104.524 87.8464 104.741 87.6435 104.893 87.3935C105.046 87.1483 105.128 86.8646 105.127 86.5752C105.127 86.1192 104.956 85.7319 104.615 85.4123C104.273 85.0927 103.864 84.9313 103.392 84.9313ZM106.556 84.5159H107.13V85.2447C107.36 84.9657 107.614 84.7564 107.892 84.6211C108.175 84.4829 108.487 84.4126 108.803 84.416C109.134 84.416 109.431 84.493 109.69 84.6481C109.948 84.8033 110.137 85.0104 110.261 85.2718C110.383 85.5331 110.444 85.9412 110.444 86.4929V88.5845H109.871V86.6491C109.871 86.1817 109.85 85.8693 109.807 85.7132C109.739 85.4446 109.611 85.2426 109.423 85.1073C109.234 84.9709 108.988 84.9032 108.685 84.9032C108.339 84.9032 108.028 85.0084 107.753 85.2166C107.491 85.4073 107.3 85.6809 107.212 85.9932C107.157 86.1941 107.129 86.5627 107.129 87.0968V88.5865H106.555L106.556 84.5159ZM115.204 87.2373L115.686 87.4695C115.53 87.7516 115.347 87.9785 115.14 88.1514C114.933 88.3254 114.696 88.4595 114.44 88.547C114.156 88.6416 113.858 88.6877 113.559 88.6834C112.836 88.6834 112.268 88.4658 111.857 88.0327C111.448 87.5986 111.243 87.1082 111.243 86.5616C111.243 86.0474 111.418 85.5882 111.763 85.1864C112.203 84.6742 112.79 84.4181 113.528 84.4181C114.285 84.4181 114.891 84.6815 115.344 85.2062C115.665 85.5778 115.83 86.0411 115.834 86.596H111.828C111.836 87.0645 112.003 87.4497 112.325 87.7495C112.644 88.0483 113.039 88.1993 113.508 88.1993C113.734 88.1993 113.956 88.1628 114.169 88.092C114.385 88.0212 114.568 87.9265 114.718 87.8089C114.867 87.6891 115.029 87.5007 115.204 87.2373ZM115.202 86.139C115.142 85.8953 115.029 85.6682 114.869 85.4748C114.709 85.2987 114.51 85.1616 114.289 85.0739C114.049 84.9722 113.791 84.9204 113.53 84.9219C113.093 84.9219 112.719 85.049 112.404 85.304C112.176 85.4893 112.001 85.7673 111.885 86.139H115.202ZM123.104 85.3571L122.65 85.6153C122.259 85.1406 121.724 84.9011 121.048 84.9011C120.506 84.9011 120.06 85.0604 119.701 85.379C119.343 85.6965 119.164 86.0838 119.164 86.5377C119.164 86.8334 119.248 87.1113 119.412 87.3726C119.577 87.6339 119.8 87.8359 120.087 87.9806C120.375 88.1243 120.695 88.1972 121.053 88.1972C121.703 88.1972 122.236 87.9588 122.649 87.484L123.103 87.7568C122.891 88.0504 122.606 88.2773 122.249 88.4398C121.862 88.6059 121.445 88.6882 121.025 88.6813C120.321 88.6813 119.738 88.4772 119.276 88.0702C118.812 87.661 118.58 87.1665 118.58 86.5814C118.58 86.1889 118.688 85.8235 118.905 85.4872C119.121 85.151 119.419 84.8876 119.797 84.6981C120.175 84.5086 120.6 84.4149 121.068 84.4149C121.361 84.4149 121.646 84.4566 121.92 84.5367C122.167 84.6069 122.401 84.7147 122.615 84.8564C122.809 84.9896 122.971 85.1541 123.104 85.3571ZM124.202 82.8544C124.332 82.8544 124.446 82.896 124.539 82.9803C124.583 83.0181 124.619 83.065 124.643 83.1179C124.666 83.1708 124.678 83.2283 124.678 83.2864C124.678 83.3437 124.666 83.4004 124.642 83.4525C124.618 83.5045 124.583 83.5506 124.539 83.5873C124.447 83.6715 124.326 83.717 124.202 83.7143C124.079 83.7165 123.959 83.671 123.869 83.5873C123.825 83.5498 123.79 83.5033 123.765 83.4509C123.741 83.3985 123.729 83.3415 123.729 83.2838C123.729 83.2261 123.741 83.1691 123.765 83.1167C123.79 83.0643 123.825 83.0178 123.869 82.9803C123.959 82.8971 124.079 82.852 124.202 82.8544ZM123.917 84.5159H124.49V88.5834H123.917V84.5159ZM125.463 84.5159H126.036V85.2447C126.266 84.9657 126.52 84.7564 126.798 84.6211C127.082 84.4829 127.394 84.4126 127.709 84.416C128.04 84.416 128.338 84.493 128.596 84.6481C128.854 84.8033 129.046 85.0104 129.168 85.2718C129.292 85.5331 129.353 85.9412 129.353 86.4929V88.5845H128.777V86.6491C128.777 86.1817 128.757 85.8693 128.714 85.7132C128.645 85.4446 128.517 85.2426 128.33 85.1073C128.14 84.9709 127.895 84.9032 127.592 84.9032C127.246 84.9032 126.935 85.0084 126.66 85.2166C126.397 85.4075 126.206 85.681 126.117 85.9932C126.064 86.1941 126.036 86.5627 126.036 87.0968V88.5865H125.463V84.5159ZM134.11 87.2373L134.594 87.4695C134.454 87.7284 134.268 87.9595 134.045 88.1514C133.838 88.3258 133.6 88.46 133.343 88.547C133.06 88.6417 132.763 88.6878 132.465 88.6834C131.739 88.6834 131.172 88.4658 130.763 88.0327C130.353 87.5986 130.15 87.1082 130.15 86.5616C130.15 86.0474 130.321 85.5882 130.669 85.1864C131.108 84.6742 131.695 84.4181 132.431 84.4181C133.19 84.4181 133.796 84.6815 134.249 85.2062C134.571 85.5778 134.735 86.0411 134.742 86.596H130.732C130.745 87.0645 130.909 87.4497 131.231 87.7495C131.549 88.0483 131.943 88.1993 132.415 88.1993C132.641 88.1993 132.862 88.1628 133.076 88.092C133.291 88.0212 133.472 87.9265 133.624 87.8089C133.772 87.6891 133.935 87.5007 134.11 87.2373ZM134.107 86.139C134.047 85.8951 133.933 85.6681 133.772 85.4748C133.613 85.2983 133.415 85.1611 133.195 85.0739C132.955 84.9727 132.698 84.921 132.438 84.9219C131.998 84.9219 131.625 85.049 131.309 85.304C131.081 85.4893 130.906 85.7673 130.791 86.139H134.107ZM135.588 84.5159H136.161V85.2186C136.327 84.9909 136.536 84.7977 136.776 84.6502C137.066 84.4951 137.371 84.416 137.691 84.416C137.906 84.416 138.111 84.4545 138.305 84.5326C138.501 84.6096 138.659 84.7117 138.781 84.8407C138.903 84.9678 139.011 85.152 139.1 85.3904C139.292 85.0719 139.527 84.8293 139.812 84.6637C140.099 84.4993 140.404 84.416 140.734 84.416C141.039 84.416 141.312 84.4878 141.545 84.6294C141.778 84.771 141.954 84.9677 142.067 85.2228C142.181 85.4758 142.238 85.8579 142.238 86.3649V88.5834H141.663V86.3628C141.663 85.9276 141.629 85.6278 141.561 85.4654C141.493 85.3019 141.376 85.1708 141.212 85.0708C141.047 84.9709 140.851 84.9209 140.622 84.9209C140.354 84.918 140.091 84.9945 139.866 85.1409C139.641 85.2872 139.465 85.4968 139.359 85.7433C139.252 85.9922 139.2 86.4086 139.2 86.9906V88.5824H138.627V86.5002C138.627 86.0099 138.592 85.6767 138.525 85.5018C138.459 85.3258 138.335 85.1769 138.175 85.0791C137.997 84.9706 137.792 84.9156 137.584 84.9209C137.317 84.9209 137.069 84.9938 136.839 85.1395C136.607 85.2853 136.438 85.481 136.327 85.7277C136.218 85.9734 136.163 86.3524 136.163 86.8594V88.5824H135.589L135.588 84.5159ZM147.662 84.5159V88.5834H147.088V87.8849C146.849 88.1503 146.58 88.3502 146.282 88.4824C145.983 88.6157 145.657 88.6813 145.304 88.6813C144.674 88.6813 144.137 88.4731 143.689 88.0566C143.476 87.8657 143.306 87.6312 143.191 87.369C143.076 87.1068 143.018 86.823 143.022 86.5367C143.022 85.9526 143.248 85.4539 143.695 85.0385C144.135 84.6273 144.717 84.4036 145.32 84.4149C145.684 84.4149 146.015 84.4847 146.31 84.6252C146.606 84.7658 146.865 84.9782 147.088 85.2613V84.5138H147.662V84.5159ZM145.364 84.9219C145.047 84.9219 144.754 84.9927 144.484 85.1354C144.215 85.278 144.002 85.4789 143.843 85.7361C143.685 85.9932 143.605 86.266 143.605 86.5533C143.605 86.8386 143.684 87.1113 143.844 87.3716C144.005 87.6319 144.218 87.8338 144.489 87.9796C144.76 88.1213 145.061 88.1955 145.367 88.1959C145.673 88.1962 145.975 88.1228 146.246 87.9817C146.512 87.8513 146.736 87.649 146.893 87.3976C147.044 87.1519 147.119 86.875 147.119 86.5679C147.119 86.1004 146.948 85.709 146.611 85.3925C146.273 85.0791 145.856 84.9219 145.364 84.9219ZM149.252 83.0116H149.825V84.5159H150.736V84.9709H149.825V88.5845H149.252V84.9709H148.469V84.5159H149.252V83.0116ZM153.475 84.417C154.158 84.417 154.723 84.644 155.175 85.0958C155.584 85.5081 155.789 85.9974 155.789 86.5606C155.789 87.128 155.572 87.6235 155.141 88.0462C154.71 88.4699 154.153 88.6823 153.475 88.6823C152.794 88.6823 152.235 88.4699 151.804 88.0462C151.373 87.6235 151.158 87.128 151.158 86.5606C151.158 85.9995 151.361 85.5112 151.77 85.0989C152.219 84.645 152.788 84.417 153.475 84.417ZM153.471 84.9313C152.997 84.9313 152.59 85.0916 152.251 85.4123C151.912 85.7329 151.741 86.1202 151.741 86.5752C151.741 86.8677 151.818 87.1405 151.975 87.3935C152.127 87.6475 152.339 87.8432 152.604 87.9796C152.868 88.1181 153.157 88.1868 153.472 88.1868C153.79 88.1868 154.078 88.1181 154.342 87.9796C154.607 87.8422 154.816 87.6475 154.972 87.3935C155.126 87.1405 155.204 86.8677 155.204 86.5752C155.204 86.1192 155.034 85.7319 154.692 85.4123C154.351 85.0927 153.943 84.9313 153.471 84.9313ZM160.475 84.5159H161.049V87.7516C161.049 88.3211 160.994 88.7375 160.884 89.0009C160.737 89.373 160.459 89.6791 160.104 89.8629C159.732 90.0649 159.286 90.1648 158.766 90.1648C158.386 90.1648 158.042 90.1159 157.737 90.017C157.434 89.917 157.187 89.7859 156.995 89.6193C156.803 89.4527 156.626 89.2081 156.468 88.8885H157.091C157.259 89.1571 157.479 89.3559 157.746 89.486C158.014 89.6141 158.345 89.6807 158.74 89.6807C159.13 89.6807 159.459 89.6151 159.728 89.4829C159.996 89.3517 160.189 89.1872 160.303 88.9873C160.419 88.7885 160.476 88.4647 160.476 88.0181V87.8089C160.259 88.0574 159.989 88.2535 159.685 88.3825C159.371 88.5162 159.034 88.5842 158.693 88.5824C158.292 88.584 157.896 88.4883 157.54 88.3034C157.198 88.1351 156.908 87.8762 156.702 87.5548C156.508 87.2413 156.405 86.879 156.408 86.5099C156.41 86.1407 156.516 85.7797 156.715 85.4685C156.92 85.1447 157.203 84.8876 157.564 84.6992C157.917 84.5116 158.31 84.414 158.71 84.4149C159.043 84.4149 159.354 84.4774 159.642 84.6023C159.929 84.7262 160.208 84.9313 160.476 85.2207L160.475 84.5159ZM158.781 84.9219C158.458 84.9219 158.157 84.9938 157.881 85.1374C157.602 85.2811 157.386 85.4789 157.228 85.7319C157.07 85.9849 156.992 86.2587 156.992 86.5523C156.992 86.9999 157.154 87.3685 157.48 87.66C157.806 87.9515 158.229 88.0972 158.749 88.0972C159.274 88.0972 159.697 87.9525 160.016 87.6631C160.336 87.3747 160.496 86.9937 160.496 86.5221C160.496 86.215 160.421 85.9412 160.274 85.7017C160.124 85.4566 159.907 85.2586 159.65 85.1302C159.382 84.9911 159.083 84.9196 158.781 84.9219ZM161.85 84.5159H162.424V85.1093C162.599 84.8761 162.784 84.7012 162.975 84.5878C163.157 84.4765 163.367 84.4171 163.581 84.416C163.737 84.416 163.905 84.4639 164.087 84.5555L163.788 84.9927C163.693 84.9507 163.591 84.9267 163.487 84.9219C163.283 84.9262 163.088 85.0022 162.934 85.1364C162.757 85.2801 162.623 85.5029 162.531 85.8048C162.46 86.0359 162.423 86.5044 162.423 87.2092V88.5845H161.849V84.5159H161.85ZM168.799 84.5159V88.5834H168.224V87.8849C168 88.1393 167.725 88.343 167.417 88.4824C167.12 88.6157 166.792 88.6813 166.439 88.6813C165.81 88.6813 165.272 88.4731 164.827 88.0566C164.613 87.8658 164.443 87.6314 164.327 87.3692C164.212 87.107 164.154 86.8231 164.157 86.5367C164.157 85.9526 164.383 85.4539 164.832 85.0385C165.271 84.6273 165.853 84.4036 166.455 84.4149C166.819 84.4149 167.15 84.4847 167.445 84.6252C167.742 84.7658 168 84.9782 168.224 85.2613V84.5138H168.799V84.5159ZM166.5 84.9219C166.194 84.919 165.892 84.9923 165.621 85.1354C165.35 85.278 165.137 85.4789 164.979 85.7361C164.821 85.9932 164.74 86.266 164.74 86.5533C164.74 86.8386 164.82 87.1113 164.982 87.3716C165.14 87.6319 165.356 87.8338 165.626 87.9796C165.895 88.1243 166.185 88.1972 166.495 88.1972C166.806 88.1972 167.103 88.1264 167.382 87.9817C167.647 87.8513 167.871 87.649 168.028 87.3976C168.179 87.1519 168.254 86.875 168.254 86.5679C168.254 86.1004 168.085 85.709 167.748 85.3925C167.411 85.0791 166.994 84.9219 166.5 84.9219ZM171.724 82.9574V83.4613C171.551 83.3876 171.367 83.346 171.179 83.3385C171.082 83.3354 170.985 83.3565 170.898 83.3999C170.823 83.4415 170.778 83.4884 170.758 83.5415C170.739 83.5967 170.73 83.7372 170.73 83.9683V84.5159H171.664V84.9709H170.73L170.725 88.5845H170.15V84.9709H169.568V84.5159H170.15V83.885C170.15 83.5967 170.18 83.3895 170.239 83.2656C170.299 83.1417 170.397 83.0417 170.54 82.9678C170.681 82.8908 170.853 82.8544 171.052 82.8544C171.24 82.8544 171.464 82.8887 171.724 82.9574ZM172.498 82.8544C172.631 82.8544 172.742 82.896 172.836 82.9803C172.88 83.0181 172.915 83.065 172.939 83.1179C172.963 83.1708 172.975 83.2283 172.974 83.2864C172.975 83.3437 172.963 83.4004 172.939 83.4525C172.915 83.5045 172.88 83.5506 172.836 83.5873C172.744 83.6717 172.623 83.7173 172.498 83.7143C172.375 83.7169 172.255 83.6713 172.165 83.5873C172.121 83.5506 172.086 83.5045 172.062 83.4525C172.038 83.4004 172.026 83.3437 172.027 83.2864C172.026 83.2283 172.038 83.1708 172.062 83.1179C172.086 83.065 172.121 83.0181 172.165 82.9803C172.256 82.8971 172.375 82.852 172.498 82.8544ZM172.214 84.5159H172.788V88.5834H172.214V84.5159ZM178.074 85.3571L177.62 85.6153C177.228 85.1406 176.693 84.9011 176.018 84.9011C175.477 84.9011 175.028 85.0604 174.67 85.379C174.314 85.6965 174.135 86.0838 174.135 86.5377C174.135 86.8334 174.216 87.1113 174.381 87.3726C174.545 87.6339 174.771 87.8359 175.057 87.9806C175.343 88.1243 175.665 88.1972 176.021 88.1972C176.674 88.1972 177.207 87.9588 177.619 87.484L178.073 87.7568C177.86 88.0504 177.574 88.2773 177.217 88.4398C176.831 88.6064 176.414 88.6887 175.993 88.6813C175.291 88.6813 174.708 88.4772 174.244 88.0702C173.783 87.661 173.549 87.1665 173.549 86.5814C173.549 86.1889 173.658 85.8235 173.874 85.4872C174.091 85.151 174.388 84.8876 174.766 84.6981C175.144 84.5086 175.568 84.4149 176.039 84.4149C176.331 84.4149 176.615 84.4566 176.888 84.5367C177.163 84.6179 177.394 84.7262 177.584 84.8564C177.779 84.9896 177.94 85.1541 178.074 85.3571ZM183.399 84.5159V88.5834H182.826V87.8849C182.584 88.1503 182.315 88.3502 182.017 88.4824C181.72 88.6157 181.392 88.6813 181.039 88.6813C180.409 88.6813 179.872 88.4731 179.426 88.0566C179.212 87.8661 179.042 87.6317 178.926 87.3695C178.811 87.1072 178.753 86.8232 178.757 86.5367C178.757 85.9526 178.983 85.4539 179.432 85.0385C179.871 84.6273 180.453 84.4036 181.055 84.4149C181.419 84.4149 181.75 84.4847 182.047 84.6252C182.341 84.7658 182.6 84.9782 182.826 85.2613V84.5138H183.399V84.5159ZM181.099 84.9219C180.782 84.9219 180.489 84.9927 180.219 85.1354C179.952 85.278 179.737 85.4789 179.578 85.7361C179.42 85.9932 179.34 86.266 179.34 86.5533C179.34 86.8386 179.419 87.1113 179.58 87.3716C179.74 87.6319 179.955 87.8338 180.226 87.9796C180.497 88.1215 180.798 88.1958 181.103 88.1961C181.409 88.1965 181.71 88.1229 181.981 87.9817C182.247 87.8513 182.471 87.649 182.628 87.3976C182.779 87.1519 182.854 86.875 182.854 86.5679C182.854 86.1004 182.685 85.709 182.348 85.3925C182.01 85.0791 181.593 84.9219 181.099 84.9219Z" fill="black"/>
<path d="M0.60498 80.041H183.567V80.2378H0.60498V80.041ZM0.60498 92.2643H183.567V92.4611H0.60498V92.2643Z" fill="black"/>
<path fill-rule="evenodd" clip-rule="evenodd" d="M177.833 9.44902C177.833 10.539 177.895 11.629 177.85 12.719C177.809 13.6945 177.266 13.7497 176.03 13.7476C173.103 13.7476 170.176 13.7122 167.248 13.7174C165.183 13.7226 161.628 13.1709 160.717 15.6705C159.827 18.1139 161.622 19.8921 163.465 21.2465C165.783 22.9518 168.182 24.578 170.656 26.1177C175.264 28.9838 180.429 31.5615 182.569 36.8564C184.82 42.4116 182.872 47.8461 178.194 51.4003C176.15 52.9525 173.092 55.7416 161.968 55.7416C159.753 55.7416 157.537 55.7301 155.321 55.7197C154.15 55.7135 147.929 55.7624 147.854 55.6875C143.586 51.418 139.735 47.134 135.488 42.8468C138.031 42.8468 139.599 42.7927 142.137 42.7927C142.728 42.7927 146.996 42.7958 149.237 42.4012C153.411 41.6673 149.226 36.4286 147.301 34.8534C141.119 29.7886 131.409 26.0407 129.898 17.2561C129.126 12.7701 130.939 8.23825 134.124 5.06504C137.369 1.82833 142.288 1.47957 146.606 1.25053C157.149 0.698764 167.263 0.912184 177.809 0.912184C177.809 0.914266 177.833 6.57565 177.833 9.44902Z" fill="black"/>
<path fill-rule="evenodd" clip-rule="evenodd" d="M146.796 31.0081C149.55 32.7675 154.623 37.7293 153.454 41.4897C151.999 46.2058 145.802 45.3906 141.909 45.3906L141.661 45.3708L148.812 52.8312L164.47 52.8749C171.353 53.104 174.96 50.5544 176.493 49.3155C180.005 46.4837 181.615 42.2549 179.93 37.8272C178.322 33.6077 174.446 31.5557 170.987 29.2716C170.987 29.2716 164.802 25.3343 161.872 23.0366C154.804 17.4929 157.405 11.3734 164.81 11.185C168.063 11.1027 175.159 11.1725 175.159 11.1725C175.159 8.66035 175.137 3.5903 175.137 3.5903C165.646 3.5903 156.543 3.40187 147.053 3.88597C143.165 4.08482 138.739 4.3909 135.819 7.22055L136.004 7.03003C133.42 9.60669 131.949 13.2827 132.576 16.9234C133.801 24.0537 141.677 27.1207 146.796 31.0081Z" fill="black"/>
<path fill-rule="evenodd" clip-rule="evenodd" d="M90.3517 1.09964L90.3476 20.447L109.03 1.09131H133.309L113.243 23.6567L143.845 55.6209L109.533 55.6157L90.3476 36.8732L90.3923 55.3606L62.7077 55.3731L62.5828 1.09131L90.3517 1.09964Z" fill="black"/>
<path fill-rule="evenodd" clip-rule="evenodd" d="M137.049 52.5199L108.632 23.656L127.11 3.53617H110.323L87.3195 27.8797L87.2695 3.63403H65.2607L65.3117 52.7687H87.3195V29.916L110.47 52.5199H137.049ZM57.1343 52.3117C57.1291 52.9468 57.3102 52.9468 56.6294 52.9468H45.9773C38.4162 52.9468 30.4022 52.9936 23.3137 50.1379C19.6752 48.6711 16.22 46.6462 13.2571 44.0653C10.3214 41.5084 8.48497 38.1874 6.93901 34.6196C6.40344 33.3924 5.94381 32.1335 5.56274 30.8499C5.26084 29.8317 5.08906 28.7094 5.03909 28.5293C4.98392 28.3263 4.87877 27.4966 4.7882 26.4576C4.67369 25.151 4.57583 23.5134 4.61539 22.3703C4.75176 18.3184 5.79073 14.4841 8.17265 11.16C10.5827 7.79938 14.4658 5.36326 18.4312 4.28991C22.6412 3.15097 27.1073 3.48203 31.4235 3.45288C40.01 3.40499 57.0364 3.41748 57.0364 3.41748V10.2938C57.0364 10.9164 56.9906 10.9164 56.5357 10.9164L56.5763 10.9247C50.3039 10.9247 44.0316 10.9028 37.7593 10.9101C34.6809 10.9112 32.072 12.4915 30.6864 15.2806C29.2935 18.0894 29.6859 21.7623 29.8504 24.8012C30.2033 31.3132 32.2969 38.2519 37.5021 42.5433C40.1589 44.6941 43.5985 45.0471 46.8726 45.0481C50.3362 45.0491 53.6759 45.0543 57.1405 45.0908C57.1426 45.0908 57.1572 48.8106 57.1343 52.3117Z" fill="black"/>
<path fill-rule="evenodd" clip-rule="evenodd" d="M60.001 11.3201V0.835449C60.001 0.835449 41.235 0.835449 31.774 0.886462C27.0185 0.918735 22.0953 0.554359 17.4533 1.81094C13.084 2.99256 8.8032 5.67958 6.14852 9.38166C3.52195 13.0462 1.82608 17.4084 1.67409 21.8746C1.63141 23.1333 1.73655 24.9385 1.86356 26.3783C1.96663 27.5245 2.0801 28.4375 2.14152 28.6603C2.1967 28.8592 2.38513 30.096 2.71931 31.2193C2.91919 31.896 3.36996 33.3764 4.23611 35.3722C5.93927 39.3054 8.39199 43.2136 11.6297 46.0307C14.8944 48.8729 18.689 51.006 22.7002 52.6228C30.5122 55.7721 39.4788 55.4337 47.8124 55.4337H59.5523C60.3029 55.4337 60.103 55.4337 60.1093 54.731C60.1343 50.8749 60.129 46.5242 60.129 42.668C56.0231 42.6306 51.912 42.6306 47.8499 42.6306C45.0317 42.6306 42.6644 42.3734 40.2127 40.9607C37.0823 38.764 34.8305 35.114 33.6905 31.5722C32.46 27.7442 32.4361 24.0046 32.5485 20.0121C32.6516 16.3621 34.5036 13.6365 38.3003 13.6365C42.6738 13.6365 46.8609 13.597 50.9241 13.649C52.9042 13.674 54.7853 13.649 56.7175 13.649H59.4513C59.9521 13.649 60.0031 13.649 60.0031 12.5955C60.001 12.1738 60.001 11.9208 60.001 11.3201Z" fill="black"/>
</svg>
