<svg width="104" height="120" viewBox="0 0 104 120" fill="none" xmlns="http://www.w3.org/2000/svg">
<g clip-path="url(#clip0_1480_349)">
<path d="M0.641968 33.2753V86.6992C0.641968 88.8523 1.77191 90.8443 3.61549 91.9311L49.2096 118.653C51.0532 119.739 53.313 119.739 55.1566 118.653L100.751 91.9311C102.594 90.8443 103.724 88.8523 103.724 86.6992V33.2753C103.724 31.1223 102.594 29.1302 100.751 28.0437L55.1566 1.3418C53.313 0.255208 51.0532 0.255208 49.2096 1.3418L3.61549 28.0437C1.77191 29.1302 0.641968 31.1223 0.641968 33.2753Z" fill="url(#paint0_linear_1480_349)"/>
<path d="M6.7872 36.8772V83.1176C6.7872 85.2706 7.91714 87.2627 9.76073 88.3492L49.2095 111.469C51.0531 112.556 53.313 112.556 55.1566 111.469L94.6054 88.3492C96.449 87.2627 97.5789 85.2706 97.5789 83.1176V36.8772C97.5789 34.7242 96.449 32.7321 94.6054 31.6454L55.1566 8.54541C53.313 7.45882 51.0531 7.45882 49.2095 8.54541L9.76073 31.6454C7.91714 32.7321 6.7872 34.7242 6.7872 36.8772Z" fill="url(#paint1_linear_1480_349)"/>
<path d="M103.724 44.3223H0.641968V78.449H103.724V44.3223Z" fill="url(#paint2_linear_1480_349)"/>
<path d="M49.5069 93.1387L49.7051 94.2855L52.0047 93.5813L49.5069 93.1387Z" fill="white"/>
<path d="M51.9053 91.4683L51.0331 91.9512L53.0551 93.2791L51.9053 91.4683Z" fill="white"/>
<path d="M53.551 92.9778L55.6126 92.4949L55.0377 91.7905L53.551 92.9778Z" fill="white"/>
<path d="M51.7668 91.267C51.2315 91.267 50.7954 90.8241 50.7954 90.2809C50.7954 89.7376 51.2315 89.2949 51.7668 89.2949C52.302 89.2949 52.7381 89.7376 52.7381 90.2809C52.7381 90.8241 52.302 91.267 51.7668 91.267ZM51.7668 89.8181C51.5091 89.8181 51.3108 90.0193 51.3108 90.2809C51.3108 90.5424 51.5091 90.7436 51.7668 90.7436C52.0245 90.7436 52.2227 90.5424 52.2227 90.2809C52.2425 90.0193 52.0245 89.8181 51.7668 89.8181Z" fill="white"/>
<path d="M49.3879 99.2751C48.8527 99.2751 48.4166 98.8324 48.4166 98.2892C48.4166 97.7459 48.8527 97.3032 49.3879 97.3032C49.9232 97.3032 50.3593 97.7459 50.3593 98.2892C50.3593 98.8324 49.9232 99.2751 49.3879 99.2751ZM49.3879 97.8264C49.1302 97.8264 48.932 98.0276 48.932 98.2892C48.932 98.5507 49.1302 98.7519 49.3879 98.7519C49.6456 98.7519 49.8439 98.5507 49.8439 98.2892C49.8637 98.0478 49.6456 97.8264 49.3879 97.8264Z" fill="white"/>
<path d="M59.6365 93.36C59.1013 93.36 58.6652 92.9174 58.6652 92.374C58.6652 91.8308 59.1013 91.3882 59.6365 91.3882C60.1717 91.3882 60.6079 91.8308 60.6079 92.374C60.6079 92.9174 60.1717 93.36 59.6365 93.36ZM59.6365 91.9113C59.3788 91.9113 59.1806 92.1125 59.1806 92.374C59.1806 92.6357 59.3788 92.8369 59.6365 92.8369C59.8942 92.8369 60.0925 92.6357 60.0925 92.374C60.0925 92.1326 59.8942 91.9113 59.6365 91.9113Z" fill="white"/>
<path d="M54.2249 105.694C53.6897 105.694 53.2535 105.252 53.2535 104.709C53.2535 104.165 53.6897 103.723 54.2249 103.723C54.7601 103.723 55.1962 104.165 55.1962 104.709C55.1764 105.252 54.7403 105.694 54.2249 105.694ZM54.2249 104.246C53.9672 104.246 53.769 104.447 53.769 104.709C53.769 104.97 53.9672 105.171 54.2249 105.171C54.4826 105.171 54.6808 104.97 54.6808 104.709C54.6808 104.447 54.4628 104.246 54.2249 104.246Z" fill="white"/>
<path d="M55.7116 85.7538C55.1764 85.7538 54.7403 85.3111 54.7403 84.7678C54.7403 84.2246 55.1764 83.7817 55.7116 83.7817C56.2469 83.7817 56.683 84.2246 56.683 84.7678C56.683 85.3111 56.2469 85.7538 55.7116 85.7538ZM55.7116 84.3051C55.4539 84.3051 55.2557 84.5063 55.2557 84.7678C55.2557 85.0294 55.4539 85.2306 55.7116 85.2306C55.9694 85.2306 56.1676 85.0294 56.1676 84.7678C56.1676 84.5063 55.9694 84.3051 55.7116 84.3051Z" fill="white"/>
<path d="M55.0379 85.4717L52.3419 89.496C52.441 89.5565 52.5203 89.657 52.5797 89.7577L55.3154 85.6729C55.2163 85.6124 55.1171 85.5522 55.0379 85.4717Z" fill="white"/>
<path d="M46.8705 106.962C46.3353 106.962 45.8992 106.519 45.8992 105.976C45.8992 105.433 46.3353 104.99 46.8705 104.99C47.4058 104.99 47.8419 105.433 47.8419 105.976C47.8419 106.519 47.4058 106.962 46.8705 106.962ZM46.8705 105.513C46.6128 105.513 46.4146 105.715 46.4146 105.976C46.4146 106.238 46.6128 106.439 46.8705 106.439C47.1282 106.439 47.3265 106.238 47.3265 105.976C47.3265 105.715 47.1282 105.513 46.8705 105.513Z" fill="white"/>
<path d="M47.8024 105.715L53.3927 105.212C53.3332 105.112 53.2936 104.991 53.2737 104.89L47.6439 105.413C47.7033 105.474 47.7628 105.594 47.8024 105.715Z" fill="white"/>
<path d="M47.4058 105.171L49.2097 99.2555C49.0908 99.2355 48.9917 99.1952 48.8926 99.1348L47.0886 105.03C47.2076 105.071 47.3265 105.111 47.4058 105.171Z" fill="white"/>
<path d="M52.0244 89.3354V88.7719C52.0244 87.0212 53.2139 85.5523 54.7997 85.1499C54.7601 85.0292 54.7204 84.9084 54.7204 84.7877C54.7204 84.7475 54.7204 84.6872 54.7403 84.647C52.8967 85.0896 51.509 86.7798 51.509 88.7719V89.3554C51.5883 89.3354 51.6676 89.3152 51.7667 89.3152C51.8659 89.2952 51.9452 89.3152 52.0244 89.3354Z" fill="white"/>
<path d="M56.6634 84.627C56.6634 84.6672 56.6832 84.7277 56.6832 84.7679C56.6832 84.8886 56.6634 85.0294 56.6039 85.1301C58.2096 85.5325 59.3792 87.0014 59.3792 88.752V91.4282C59.4585 91.4082 59.5378 91.388 59.6369 91.388C59.7162 91.388 59.8154 91.4082 59.8946 91.4282V88.772C59.8946 86.76 58.507 85.0696 56.6634 84.627Z" fill="white"/>
<path d="M53.3725 105.191L52.5399 106.036C51.8461 106.741 50.9144 107.123 49.9431 107.123C49.1501 107.123 48.377 106.862 47.7625 106.379C47.6832 106.54 47.5841 106.68 47.4453 106.781C48.159 107.324 49.0312 107.626 49.9629 107.626C51.073 107.626 52.1237 107.183 52.9166 106.379L53.7492 105.534C53.5708 105.453 53.4518 105.332 53.3725 105.191Z" fill="white"/>
<path d="M48.9122 99.1551C48.7734 99.0747 48.6346 98.9339 48.5553 98.793L46.9893 100.383C45.6809 101.711 45.4232 103.683 46.1964 105.272C46.3153 105.152 46.4739 105.071 46.6325 105.031C45.9585 103.642 46.1964 101.892 47.3263 100.745L48.9122 99.1551Z" fill="white"/>
<path d="M59.3791 93.3196V95.8146C59.3791 96.4384 59.2403 97.022 58.9628 97.5452C58.8042 96.7201 58.4077 95.9756 57.813 95.3719C57.6742 95.2312 57.5355 95.1105 57.3769 94.9897V88.7519C57.3769 87.8061 56.6236 87.0415 55.6919 87.0415C54.7602 87.0415 54.0069 87.8061 54.0069 88.7519V90.8444C54.0069 90.9854 54.1258 91.1061 54.2646 91.1061C54.4034 91.1061 54.5223 90.9854 54.5223 90.8444V88.7719C54.5223 88.108 55.0575 87.5847 55.6919 87.5847C56.3461 87.5847 56.8615 88.128 56.8615 88.7719V94.6878C56.247 94.3457 55.5531 94.1647 54.8395 94.1647C54.7205 94.1647 54.6214 94.1647 54.5025 94.1847V93.9635C54.5025 93.8225 54.3835 93.7018 54.2448 93.7018C54.106 93.7018 53.9871 93.8225 53.9871 93.9635V94.4664V95.8548C53.9871 96.358 54.2051 96.8409 54.6016 97.1628C54.899 97.4042 55.2756 97.5452 55.6522 97.5652C55.8703 97.7866 55.9892 98.0883 55.9892 98.4105C55.9892 98.7324 55.8703 99.0341 55.6522 99.2556L55.3351 99.5775C54.4034 99.497 53.5311 99.0543 52.8968 98.33C52.3219 97.6659 51.9849 96.8006 51.9651 95.8951V94.064C51.9651 93.9232 51.8461 93.8025 51.7074 93.8025C51.5686 93.8025 51.4497 93.9232 51.4497 94.064V95.7946L49.8043 97.4647C49.9431 97.5452 50.0818 97.6659 50.1611 97.8269L51.5091 96.4587C51.6083 97.183 51.9056 97.8871 52.3615 98.4707L48.6942 102.193C48.377 102.515 48.1986 102.938 48.1986 103.401C48.1986 103.864 48.377 104.286 48.6942 104.608C49.0114 104.93 49.4277 105.111 49.8836 105.111C50.3395 105.111 50.7558 104.93 51.073 104.608L55.6126 99.9999L56.0091 99.5975C56.3262 99.2756 56.5047 98.8531 56.5047 98.3903C56.5047 97.9274 56.3262 97.5049 56.0091 97.183C55.9694 97.1428 55.9298 97.1226 55.8901 97.0823C55.5928 96.8409 55.2161 96.7001 54.8395 96.6799C54.6214 96.4585 54.4827 96.1567 54.4827 95.8348V94.6676C55.3549 94.5871 56.2271 94.8288 56.9408 95.3317C57.1192 95.4524 57.2778 95.5934 57.4165 95.7341C58.0905 96.4182 58.4672 97.3238 58.487 98.2896V98.3702C58.487 99.3763 58.1104 100.302 57.4165 101.006L54.6412 103.823C54.7998 103.904 54.9188 104.024 54.9981 104.185L57.7734 101.368C58.5663 100.564 59.0024 99.497 59.0024 98.3702C59.0024 98.3702 59.0024 98.3702 59.0024 98.35C59.5575 97.6054 59.8548 96.7404 59.8548 95.7946V93.2994C59.7755 93.3196 59.6962 93.3396 59.5971 93.3396C59.5575 93.3598 59.4584 93.3396 59.3791 93.3196ZM50.7757 104.226C50.5576 104.447 50.2603 104.568 49.9431 104.568C49.6259 104.568 49.3285 104.447 49.1105 104.226C48.8924 104.004 48.7735 103.703 48.7735 103.38C48.7735 103.059 48.8924 102.757 49.1105 102.535L52.758 98.8329C53.3527 99.4365 54.106 99.839 54.9386 99.9999L50.7757 104.226Z" fill="white"/>
<path d="M58.4475 97.5651C58.4079 97.3439 58.3286 97.1224 58.2493 96.9212L54.5621 95.6133C54.5423 95.6133 54.5423 95.6133 54.5225 95.6133V95.8145C54.5225 95.8749 54.5225 95.9152 54.5423 95.9554L58.2295 97.2634L54.5621 103.803C54.6018 103.823 54.6612 103.843 54.7009 103.883L54.6811 103.863L55.2361 103.3L58.4475 97.5651Z" fill="white"/>
<path d="M55.6916 97.5456C55.6322 97.5253 55.5925 97.5253 55.5331 97.5253L54.3635 99.095L52.0243 94.6479V95.3723L54.0265 99.1552C54.2049 99.2559 54.3833 99.3162 54.5815 99.3766L55.8304 97.7065C55.7908 97.6461 55.7511 97.5858 55.6916 97.5456Z" fill="white"/>
<path d="M58.9827 91.6694L57.3969 90.2407V90.7036L58.7845 91.9511C58.8241 91.8504 58.8836 91.7499 58.9827 91.6694Z" fill="white"/>
<path d="M58.9234 93.0376L57.6547 95.2109C57.7142 95.2711 57.7737 95.3114 57.8331 95.3718C57.853 95.392 57.8728 95.4323 57.9124 95.4523L59.2208 93.2388C59.1018 93.1986 59.0027 93.1181 58.9234 93.0376Z" fill="white"/>
<path d="M23.7363 72.272C21.7936 72.272 20.0887 71.9299 18.6614 71.2457C17.2341 70.5616 16.0447 69.6359 15.113 68.4891C14.1813 67.3421 13.4875 66.1146 13.0315 64.8067C12.5756 63.4987 12.3575 62.231 12.3575 61.0035V60.3396C12.3575 58.9915 12.5954 57.6633 13.0712 56.3353C13.547 55.0073 14.2606 53.7999 15.2121 52.7133C16.1637 51.6268 17.3531 50.7615 18.7804 50.1177C20.2077 49.4738 21.8531 49.1519 23.7561 49.1519C25.6394 49.1519 27.3045 49.4738 28.7318 50.1177C30.1591 50.7615 31.3485 51.6268 32.3199 52.7133C33.2714 53.7999 33.9851 55.0073 34.4608 56.3353C34.9366 57.6633 35.1745 59.0115 35.1745 60.3396V61.0035C35.1745 62.231 34.9366 63.4987 34.4807 64.8067C34.0247 66.1146 33.3111 67.3421 32.3794 68.4891C31.4477 69.6359 30.2582 70.5414 28.831 71.2457C27.3838 71.9299 25.679 72.272 23.7363 72.272ZM23.7363 68.3279C24.8464 68.3279 25.8376 68.1267 26.7297 67.7243C27.6217 67.3219 28.375 66.7787 28.9895 66.0542C29.6041 65.35 30.0798 64.525 30.4168 63.6194C30.734 62.7139 30.9124 61.7481 30.9124 60.7218C30.9124 59.6353 30.7538 58.6493 30.4168 57.7237C30.0798 56.7982 29.6041 55.9933 28.9895 55.309C28.375 54.6249 27.6217 54.0816 26.7495 53.6994C25.8773 53.317 24.8861 53.136 23.776 53.136C22.6857 53.136 21.7143 53.317 20.8223 53.6994C19.9301 54.0816 19.1768 54.6049 18.5623 55.309C17.9478 55.9933 17.472 56.7982 17.135 57.7237C16.8178 58.6493 16.6394 59.6353 16.6394 60.7218C16.6394 61.7481 16.798 62.7139 17.135 63.6194C17.4522 64.525 17.9279 65.35 18.5623 66.0542C19.1768 66.7585 19.9301 67.3219 20.8223 67.7243C21.6747 68.1267 22.646 68.3279 23.7363 68.3279Z" fill="white"/>
<path d="M46.3944 72.272C44.5112 72.272 42.8856 71.9701 41.5773 71.3465C40.2491 70.7226 39.2579 69.8775 38.5839 68.7708C37.9099 67.6843 37.5729 66.4366 37.5729 65.0684H41.6764C41.6764 65.652 41.835 66.2153 42.1522 66.7585C42.4693 67.3019 42.9848 67.7445 43.6786 68.0867C44.3724 68.4286 45.2843 68.5898 46.4142 68.5898C47.4649 68.5898 48.3173 68.4489 49.0111 68.1469C49.7049 67.8452 50.2005 67.4428 50.5573 66.9599C50.8943 66.4768 51.0727 65.9134 51.0727 65.2898C51.0727 64.525 50.7556 63.9214 50.1014 63.4385C49.4472 62.9756 48.4362 62.6739 47.0486 62.5531L45.1653 62.372C43.1037 62.191 41.4385 61.5269 40.2095 60.4001C38.9804 59.2731 38.3659 57.764 38.3659 55.9129C38.3659 54.5044 38.6831 53.297 39.3372 52.2909C39.9914 51.2849 40.9033 50.5001 42.0729 49.9567C43.2425 49.4135 44.6301 49.1318 46.1962 49.1318C47.8415 49.1318 49.249 49.4135 50.4384 49.9969C51.6278 50.5805 52.5397 51.3854 53.1939 52.4519C53.8282 53.4982 54.1454 54.7459 54.1454 56.1543H50.0023C50.0023 55.5707 49.8635 55.0275 49.586 54.5244C49.3085 54.0213 48.8922 53.5989 48.3173 53.2769C47.7424 52.955 47.0288 52.794 46.1565 52.794C45.3239 52.794 44.6499 52.9348 44.0949 53.2367C43.5596 53.5184 43.1433 53.9006 42.8658 54.3837C42.5883 54.8464 42.4495 55.3695 42.4495 55.9329C42.4495 56.6172 42.6874 57.2006 43.183 57.7237C43.6786 58.2269 44.4517 58.5288 45.5222 58.6093L47.3856 58.7902C48.9516 58.911 50.2996 59.2329 51.4494 59.7763C52.5992 60.3196 53.511 61.044 54.1652 61.9695C54.8194 62.8951 55.1366 64.0018 55.1366 65.3098C55.1366 66.6982 54.7797 67.9055 54.0661 68.952C53.3524 69.9983 52.3415 70.8233 51.0331 71.4067C49.7446 71.9903 48.1785 72.272 46.3944 72.272Z" fill="white"/>
<path d="M58.9823 71.7088V49.7959H63.0858V71.7088H58.9823ZM62.5109 53.3978V49.7959H72.0658V53.3978H62.5109ZM62.5109 62.3721V58.7704H71.5306V62.3721H62.5109ZM62.5109 71.7088V68.1069H72.3037V71.7088H62.5109Z" fill="white"/>
<path d="M76.6054 71.7089V49.6553H80.808V71.7291H76.6054V71.7089ZM80.2133 64.9882V61.3059H84.4159C85.2485 61.3059 85.9423 61.145 86.537 60.8028C87.1119 60.4609 87.5678 59.998 87.885 59.3944C88.2022 58.7907 88.3607 58.1066 88.3607 57.3621C88.3607 56.5572 88.2022 55.8529 87.885 55.2693C87.5678 54.6657 87.1119 54.2028 86.537 53.8809C85.9621 53.5589 85.2485 53.3779 84.4159 53.3779H80.2133V49.6955H84.059C85.863 49.6955 87.4092 49.9974 88.6779 50.6011C89.9466 51.2047 90.918 52.0498 91.592 53.1767C92.266 54.2833 92.603 55.6114 92.603 57.1608V57.6437C92.603 59.1529 92.266 60.4609 91.592 61.5676C90.918 62.6944 89.9466 63.5395 88.6779 64.1431C87.4092 64.7467 85.863 65.0486 84.059 65.0486H80.2133V64.9882Z" fill="white"/>
<path fill-rule="evenodd" clip-rule="evenodd" d="M33.648 32.1088C33.648 33.3967 33.7471 34.6644 33.9256 35.9319L34.322 38.6485C33.9652 38.7088 33.6282 38.749 33.2516 38.749C32.8749 38.749 32.5379 38.7088 32.1811 38.6485L32.5776 35.9319C32.756 34.6644 32.8551 33.3967 32.8551 32.1088V26.3942C32.9939 26.3942 33.1326 26.374 33.2714 26.374C33.4102 26.374 33.5489 26.374 33.6877 26.3942V32.1088H33.648ZM29.5446 37.5016L31.1304 34.3625C31.2494 34.121 31.3089 33.8594 31.3089 33.5979V26.696C28.8904 27.521 27.1261 29.835 27.1261 32.5716C27.1459 34.5839 28.0974 36.3748 29.5446 37.5016ZM35.1744 33.5979C35.1744 33.8594 35.2339 34.121 35.3529 34.3625L36.9387 37.5016C38.4057 36.3748 39.3374 34.5839 39.3374 32.5716C39.3374 29.835 37.5929 27.521 35.1546 26.696V33.5979H35.1744Z" fill="white"/>
<path d="M76.9624 30.5589V30.418H77.6364V30.5589H76.9624ZM77.2201 31.3033V30.5187H77.3589V31.3033H77.2201ZM77.7752 31.3033V30.4382H77.9139V31.3033H77.7752ZM78.1915 31.3033L77.8148 30.4382H77.9734L78.2311 31.0821L78.4888 30.4382H78.6474L78.2708 31.3033H78.1915ZM78.5285 31.3033V30.4382H78.6672V31.3033H78.5285Z" fill="white"/>
<path d="M46.3352 28.7881C44.0555 28.7881 42.3903 30.438 42.3903 32.732V32.8125C42.3903 35.1265 44.0158 36.7563 46.3352 36.7563C48.6545 36.7563 50.2603 35.1265 50.2603 32.7924V32.7119C50.2603 30.3978 48.6347 28.7881 46.3352 28.7881ZM43.996 32.732C43.996 31.0821 44.8881 30.0558 46.3352 30.0558C47.7823 30.0558 48.6545 31.1021 48.6545 32.732V32.8125C48.6545 34.4423 47.7427 35.5088 46.355 35.5088C44.9674 35.5088 43.996 34.4021 43.996 32.8327V32.732Z" fill="white"/>
<path d="M57.4162 28.4862C57.1585 28.4058 56.9603 28.3857 56.6431 28.3857C55.414 28.3857 54.7004 29.0899 54.7004 30.3376V30.9612H52.5594V30.2771C52.5594 29.6535 52.9361 29.5125 53.2334 29.5125C53.4713 29.5125 53.6695 29.573 53.7885 29.6132C53.8083 29.6132 53.8281 29.6132 53.848 29.6132C53.8678 29.593 53.8678 29.593 53.8678 29.573V28.5667C53.8678 28.5467 53.848 28.5265 53.8281 28.5065C53.5704 28.426 53.3722 28.4058 53.0748 28.4058C51.826 28.4058 51.1321 29.0899 51.1321 30.3576V36.6155C51.1321 36.6559 51.152 36.6759 51.1916 36.6759H52.4801C52.5198 36.6759 52.5396 36.6559 52.5396 36.6155V32.0277H54.6805V36.5752C54.6805 36.6157 54.7004 36.6357 54.74 36.6357H56.0285C56.0682 36.6357 56.088 36.6157 56.088 36.5752V32.0277H57.2973C57.3369 32.0277 57.3567 32.0077 57.3567 31.9675V31.0015C57.3567 30.9612 57.3369 30.9412 57.2973 30.9412H56.088V30.2771C56.088 29.6535 56.4647 29.5125 56.762 29.5125C57.0197 29.5125 57.218 29.573 57.3369 29.6132C57.3567 29.6132 57.3765 29.6132 57.3964 29.6132C57.4162 29.6132 57.4162 29.593 57.4162 29.573V28.5667C57.4558 28.5265 57.4558 28.5065 57.4162 28.4862Z" fill="white"/>
<path d="M61.2424 31.9876C59.9341 31.8066 59.6962 31.5047 59.6962 30.9211C59.6962 30.3377 60.1719 29.9755 60.9649 29.9755C61.8371 29.9755 62.2534 30.2975 62.3922 31.062C62.3922 31.0823 62.412 31.1023 62.4516 31.1023H63.76C63.7798 31.1023 63.7996 31.1023 63.7996 31.0823C63.8195 31.062 63.8195 31.062 63.8195 31.042C63.6609 29.5529 62.6895 28.7681 60.9649 28.7681C59.3592 28.7681 58.2292 29.6938 58.2292 31.0218C58.2292 32.3498 59.0023 33.0541 60.9847 33.3158C62.3129 33.537 62.5309 33.8389 62.5309 34.4223C62.5309 35.0864 61.9759 35.5291 61.1433 35.5291C59.8548 35.5291 59.5772 34.8852 59.4979 34.1809C59.4979 34.1609 59.4781 34.1206 59.4385 34.1206H58.0706C58.0508 34.1206 58.031 34.1206 58.031 34.1406C58.031 34.1609 58.0112 34.1609 58.0112 34.1809C58.0905 35.3279 58.705 36.7163 61.1433 36.7163C62.8085 36.7163 64.0177 35.69 64.0177 34.3016C64.0375 32.712 62.9671 32.2291 61.2424 31.9876Z" fill="white"/>
<path d="M69.5482 31.5044C69.0725 31.0618 68.4183 30.8203 67.665 30.8203C65.98 30.8203 64.8104 32.0276 64.8104 33.7582V33.8386C64.8104 35.569 65.98 36.7362 67.7047 36.7362C69.1914 36.7362 70.1628 36.0519 70.3412 34.8649C70.3412 34.8447 70.3412 34.8247 70.3214 34.8247C70.3015 34.8044 70.3015 34.8044 70.2817 34.8044H69.0328C69.013 34.8044 68.9734 34.8247 68.9734 34.8447C68.8742 35.388 68.4579 35.6495 67.7443 35.6495C66.8522 35.6495 66.317 35.1064 66.2575 34.1203H70.3015C70.3412 34.1203 70.361 34.1001 70.361 34.0599V33.6777C70.361 32.7519 70.0835 32.0075 69.5482 31.5044ZM66.2972 33.1545C66.436 32.3495 66.9315 31.8868 67.665 31.8868C68.4579 31.8868 68.8941 32.3093 68.9535 33.1545H66.2972Z" fill="white"/>
<path d="M76.7839 34.4633C76.7641 34.443 76.7641 34.443 76.7442 34.443H75.5548C75.5152 34.443 75.4954 34.4633 75.4954 34.5035C75.4359 35.1876 74.9205 35.6503 74.2068 35.6503C73.2553 35.6503 72.7201 34.9864 72.7201 33.8594V33.779C72.7201 32.6924 73.2949 32.0083 74.187 32.0083C74.9006 32.0083 75.3169 32.3503 75.4161 33.0144C75.4161 33.0346 75.4359 33.0748 75.4755 33.0748H76.7244C76.7442 33.0748 76.7641 33.0748 76.7641 33.0546C76.7839 33.0346 76.7839 33.0346 76.7839 33.0144C76.6451 31.6461 75.6936 30.8613 74.1672 30.8613C72.4822 30.8613 71.2729 32.1088 71.2729 33.8192V33.8997C71.2729 35.6303 72.4425 36.7973 74.1672 36.7973C75.6738 36.7973 76.7244 35.912 76.8235 34.5437C76.8037 34.5035 76.8037 34.4833 76.7839 34.4633Z" fill="white"/>
</g>
<defs>
<linearGradient id="paint0_linear_1480_349" x1="52.1829" y1="118.923" x2="52.1829" y2="17.2244" gradientUnits="userSpaceOnUse">
<stop stop-color="#37693B"/>
<stop offset="1" stop-color="#339933"/>
</linearGradient>
<linearGradient id="paint1_linear_1480_349" x1="52.1829" y1="135.153" x2="52.1829" y2="47.1496" gradientUnits="userSpaceOnUse">
<stop stop-color="#339933"/>
<stop offset="1" stop-color="#37693B"/>
</linearGradient>
<linearGradient id="paint2_linear_1480_349" x1="52.1831" y1="36.9975" x2="52.1831" y2="93.1133" gradientUnits="userSpaceOnUse">
<stop stop-color="#339933"/>
<stop offset="1" stop-color="#37693B"/>
</linearGradient>
<clipPath id="clip0_1480_349">
<rect width="103.082" height="118.941" fill="white" transform="translate(0.641968 0.526855)"/>
</clipPath>
</defs>
</svg>
