<svg width="202" height="181" viewBox="0 0 202 181" fill="none" xmlns="http://www.w3.org/2000/svg">
<g clip-path="url(#clip0_1262_3342)">
<path d="M50.2645 75.6154L36.4653 85.3167L50.2645 95.0181L64.0637 85.3167L50.2645 75.6154Z" stroke="url(#paint0_linear_1262_3342)" stroke-width="0.5521" stroke-miterlimit="10" stroke-linecap="round" stroke-linejoin="round"/>
<path d="M50.2645 87.3125L40.4554 94.1866L50.2645 101.116L60.129 94.1866L50.2645 87.3125Z" stroke="url(#paint1_linear_1262_3342)" stroke-width="0.5521" stroke-miterlimit="10" stroke-linecap="round" stroke-linejoin="round"/>
<path d="M50.2645 97.7899L45.6094 101.116L50.2645 104.387L54.9751 101.116L50.2645 97.7899Z" stroke="url(#paint2_linear_1262_3342)" stroke-width="0.5521" stroke-miterlimit="10" stroke-linecap="round" stroke-linejoin="round"/>
<path d="M49.7648 87.9607V89.0105L31.9777 76.5193V75.4685L49.7648 87.9607Z" fill="url(#paint3_linear_1262_3342)" stroke="url(#paint4_linear_1262_3342)"/>
<path d="M68.6063 76.5193L50.7645 89.0125V87.9607L68.6063 75.4666V76.5193Z" fill="url(#paint5_linear_1262_3342)" stroke="url(#paint6_linear_1262_3342)"/>
<path d="M68.2335 74.5061L50.2648 87.0891L32.3468 74.5061L50.2648 61.9231L68.2335 74.5061Z" fill="url(#paint7_linear_1262_3342)" stroke="url(#paint8_linear_1262_3342)"/>
<path opacity="0.8" d="M65.5752 74.5054L50.2646 85.2046L35.0068 74.5054L50.2646 63.7534L65.5752 74.5054Z" fill="white" stroke="url(#paint9_linear_1262_3342)"/>
<path d="M49.5439 78.8307C49.156 79.0525 48.2139 79.1079 47.438 78.609C46.3296 77.8329 44.0575 76.3915 44.0575 76.1698C44.0575 76.0035 44.0575 75.6708 44.0575 75.6708V74.9502V74.6176H47.7151C47.7151 74.6176 47.7151 74.8393 47.7151 74.9502C47.7151 75.1165 47.7151 75.6154 47.9922 75.8926C48.3801 76.2806 48.6018 76.5024 49.2668 77.1676C49.9873 77.8329 50.0427 78.5535 49.5439 78.8307Z" fill="#252525"/>
<path d="M47.8259 75.1164C47.8259 75.2827 47.1609 75.8371 46.0526 76.0588C45.2767 76.2251 44.1129 75.7816 44.1129 75.5599C44.1129 74.0631 44.8334 64.2509 44.7225 61.1464C44.5008 55.9354 44.39 41.7437 44.39 41.7437L50.9294 39.249C50.9294 39.249 51.2619 41.2447 50.8185 45.2916C50.3752 49.6156 50.5415 55.381 50.0427 59.1507C49.5439 62.6986 47.8259 71.7902 47.8259 75.1164Z" fill="#1B1425"/>
<path d="M55.9725 74.4512C55.5846 74.673 54.6425 74.7284 53.8666 74.2295C52.7582 73.4533 50.4861 72.012 50.4861 71.7903C50.4861 71.6239 50.4861 71.2913 50.4861 71.2913V70.5707V70.238H54.1437C54.1437 70.238 54.1437 70.4598 54.1437 70.5707C54.1437 70.737 54.1437 71.2359 54.4208 71.5131C54.8087 71.9011 55.0304 72.1229 55.6954 72.7881C56.4159 73.4534 56.4713 74.174 55.9725 74.4512Z" fill="#252525"/>
<path d="M54.3099 70.5152C54.2545 71.0696 53.4787 71.5685 52.5366 71.8457C51.8161 72.0674 50.2644 71.7902 50.2644 71.4576C50.2644 69.9608 50.9848 59.8714 50.8186 56.767C50.5969 51.556 50.8186 39.1936 50.8186 39.1936L57.0254 35.0359C57.0254 35.0359 57.0254 42.9079 56.1388 49.7265C55.7508 53.3299 54.6425 67.189 54.3099 70.5152Z" fill="#1B1425"/>
<path d="M46.8285 11.6417L53.5341 11.4753L52.3149 22.5072L46.8285 11.6417Z" fill="#928CBE"/>
<path d="M53.5341 11.4753L52.3704 22.4518V37.9185C52.3704 37.9185 52.3704 40.0805 54.0329 39.5816C56.028 38.9718 57.0809 37.087 57.0809 36.2554C57.3026 30.8781 57.3026 30.989 57.3026 21.5648V14.1363L53.5341 11.4753Z" fill="#A535C5"/>
<path d="M52.3149 22.5071L46.8285 11.6416C44.5563 13.2493 41.6191 15.1895 41.6191 15.1895L43.7805 24.6692L44.9442 32.3748C44.9442 32.3748 44.2792 38.4728 43.9467 41.9099C43.7805 43.6839 48.8789 43.6284 51.0957 41.6882C52.0932 40.8566 52.3149 39.1381 52.3149 37.6967C52.3149 34.0934 52.3149 22.5071 52.3149 22.5071Z" fill="#A535C5"/>
<path d="M52.3148 3.93603C51.816 3.65885 50.9848 3.54797 50.3752 3.54797C48.4909 3.54797 47.2163 5.32194 47.2163 7.15134V9.64598C47.2163 10.8656 49.821 12.8613 51.4281 13.1385C51.7606 13.1939 51.9269 13.1385 52.0377 13.083C52.2594 12.9722 52.4811 12.6396 52.4811 12.5287C52.6473 12.1961 52.7027 11.5308 52.7027 11.5308L52.3148 3.93603Z" fill="#E39E76"/>
<path d="M50.3751 0C48.0476 0 46.4404 2.16202 46.4404 4.43492V6.09801C46.4404 8.70352 50.2089 12.0851 52.481 12.0851C53.6448 12.0851 53.8665 10.6992 54.3098 9.25789C54.6423 8.20459 54.5315 5.26646 54.5315 3.99142C54.5315 1.66309 52.6473 0 50.3751 0Z" fill="#F5BB95"/>
<path d="M47.2718 6.98501C47.6043 7.65025 47.5489 8.31548 47.1609 8.48179C46.773 8.6481 46.2188 8.31548 45.8863 7.65024C45.5538 6.98501 45.6092 6.31977 45.9971 6.15346C46.3851 5.93172 46.9393 6.31977 47.2718 6.98501Z" fill="#F5BB95"/>
<path d="M47.2164 9.646C47.2164 9.646 47.3273 10.5884 48.3802 11.3645C49.4332 12.1961 51.2066 13.4711 52.0933 13.0831L50.209 14.6353C50.209 14.6353 46.8285 12.4178 46.8285 11.3645C46.8285 10.4775 46.7731 10.0341 47.2164 9.646Z" fill="#B2AFD4"/>
<path d="M52.7029 12.0851C52.7029 12.0851 52.592 12.8058 52.0933 13.1384L53.3125 13.97L53.5896 11.4753C53.5341 11.4753 53.2016 11.9743 52.7029 12.0851Z" fill="#B2AFD4"/>
<path d="M49.156 3.54792L46.9947 2.10657C46.6068 2.82724 46.4406 3.60335 46.4406 4.4349V6.09799V6.15343C47.2164 6.43061 47.4381 7.4839 47.4381 7.4839L48.0477 7.04041V6.04256C48.879 5.93168 49.5994 4.4349 49.8765 3.8251C49.4331 3.65879 49.156 3.54792 49.156 3.54792Z" fill="#252525"/>
<path d="M54.5871 4.21317C54.5871 4.1023 54.5871 4.04686 54.5871 3.99142C54.5871 1.66309 52.7028 0 50.3753 0C48.879 0 47.6598 0.720674 46.9948 2.10658L49.1561 3.54793C49.1561 3.54793 52.0378 4.93384 54.5871 4.21317Z" fill="#252525"/>
<path d="M52.4811 14.5243V13.4156L52.0378 13.1384L50.6523 14.3026L51.5945 15.1341L52.4811 14.5243Z" fill="#2A2333"/>
<path d="M51.5945 15.1341L51.0403 19.9016L52.3149 22.5071L52.7583 18.682L52.4812 14.5243L51.5945 15.1341Z" fill="#2A2333"/>
<path d="M48.5464 22.0637L45.4984 12.5286L46.3851 11.9188L52.3149 22.5072L48.5464 22.0637Z" fill="#2A2333"/>
<path d="M52.3149 22.5072L55.5292 17.5179L54.5317 12.1406L53.5341 11.4753L52.3149 22.5072Z" fill="#2A2333"/>
<path d="M52.3149 22.5071L48.9344 21.731L45.4984 12.5286L46.8285 11.6416L52.3149 22.5071Z" fill="#A535C5"/>
<path d="M52.3149 22.5072L55.0859 17.407L54.4763 12.1406C54.4763 12.1406 54.0329 11.7525 53.4787 11.5308L52.3149 22.5072Z" fill="#A535C5"/>
<path d="M46.219 39.6924C49.6549 39.637 47.4936 37.5304 46.7731 37.475C45.9419 37.475 45.0552 37.1424 44.501 36.7543C44.2793 36.588 44.2239 36.3108 44.501 36.3108L44.5564 35.5901C44.3347 35.4793 43.9468 35.3684 43.6143 35.2575C42.5059 34.9249 41.7301 34.426 41.2867 35.0912C40.3446 36.5326 43.3372 39.7479 46.219 39.6924Z" fill="#F5BB95"/>
<path d="M41.1758 37.5859C41.1758 37.5859 36.6869 33.7608 32.6414 30.7672C31.8655 30.2128 31.5885 28.328 32.1426 27.5519C33.4727 25.7779 37.7399 19.569 41.1204 15.5222C43.5034 12.6949 45.9972 13.3601 46.8285 14.2471C48.4356 16.0211 46.3852 17.4624 44.2793 19.9016C42.3396 22.1745 39.9566 25.5562 38.1832 28.2725C37.9062 28.6606 37.9062 29.2704 38.1832 29.5476C40.6217 31.8759 43.8359 34.9249 43.8359 34.9249C43.8359 34.9249 43.1709 37.0869 41.1758 37.5859Z" fill="#A535C5"/>
<path d="M68.7742 23.3941L57.2472 14.1362V20.1788L66.0033 27.2192C67.0562 27.9953 68.4971 27.7182 69.273 26.6649C70.0488 25.6116 69.8272 24.1702 68.7742 23.3941Z" fill="#A535C5"/>
<path d="M57.3026 30.8226C56.028 31.7096 55.7509 32.9847 55.7509 32.9847C55.5846 33.4836 55.4184 34.4814 55.6954 35.8673C55.7509 36.0891 55.9171 36.2554 56.1388 36.2554C56.1942 36.2554 56.1942 36.2554 56.2496 36.2554C56.4159 36.2 56.5821 36.0891 56.5821 35.9228C56.6376 36.1445 56.8038 36.3108 57.0255 36.3108C57.0809 36.3108 57.0809 36.3108 57.1363 36.3108C57.3026 36.2554 57.4688 36.1445 57.4688 35.9782C57.5242 36.2 57.6905 36.3108 57.9122 36.3108C57.9676 36.3108 57.9676 36.3108 58.023 36.3108C58.1893 36.2554 58.3555 36.1445 58.3555 35.9782C58.4109 36.2 58.5772 36.3663 58.7989 36.3663C58.8543 36.3663 58.8543 36.3663 58.9097 36.3663C59.1314 36.3108 59.2976 36.0891 59.2422 35.8119C59.076 34.9804 59.076 34.3151 59.1314 33.8162C59.1868 33.4836 59.2422 33.2064 59.3531 33.0401L57.3026 30.8226Z" fill="#F5BB95"/>
<path d="M69.3284 24.0593C68.6079 23.1169 67.2779 22.8952 66.3358 23.6159L56.9701 30.8226L59.9073 33.4835L68.9405 27.1083C69.8272 26.3322 70.0488 25.0018 69.3284 24.0593Z" fill="#A535C5"/>
<path d="M113.885 102.225L47.9369 148.459L86.231 175.512L152.401 129.333L113.885 102.225Z" stroke="url(#paint10_linear_1262_3342)" stroke-width="0.6212" stroke-miterlimit="10" stroke-linecap="round" stroke-linejoin="round"/>
<path d="M113.885 87.756L47.9369 133.99L86.231 161.043L152.401 114.864L113.885 87.756Z" stroke="url(#paint11_linear_1262_3342)" stroke-width="3.1061" stroke-miterlimit="10" stroke-linecap="round" stroke-linejoin="round"/>
<path d="M113.885 94.9626L47.9369 141.252L86.231 168.305L152.401 122.071L113.885 94.9626Z" stroke="url(#paint12_linear_1262_3342)" stroke-width="1.8637" stroke-miterlimit="10" stroke-linecap="round" stroke-linejoin="round"/>
<path d="M113.885 80.4938L47.9369 126.783L86.231 153.836L152.401 105.884L113.885 80.4938Z" stroke="url(#paint13_linear_1262_3342)" stroke-width="4.3485" stroke-miterlimit="10" stroke-linecap="round" stroke-linejoin="round"/>
<path d="M86.5081 142.305L47.9369 115.142V112.425L86.5081 139.534V142.305Z" fill="url(#paint14_linear_1262_3342)"/>
<path d="M86.5081 142.305L152.401 96.0714V93.2441L86.5081 139.534V142.305Z" fill="url(#paint15_linear_1262_3342)"/>
<path d="M113.885 66.1357L47.9369 112.425L86.5081 139.534L152.401 93.2996L113.885 66.1357Z" fill="url(#paint16_linear_1262_3342)"/>
<path opacity="0.8" d="M114.328 68.7412L51.6499 112.758L86.0647 136.928L148.743 92.9669L114.328 68.7412Z" fill="#3A3469"/>
<path d="M70.7139 36.5326V77.3339L115.769 45.7351V5.26648L70.7139 36.5326Z" fill="url(#paint17_linear_1262_3342)"/>
<path d="M89.8332 124.067C98.7002 117.802 116.268 105.385 125.135 99.3421C129.679 96.2377 129.679 92.0245 129.679 89.2527C129.679 81.4916 129.679 63.5302 129.679 55.9908C129.679 53.3853 128.903 51.6113 128.903 51.6113C119.205 58.43 84.4576 82.6557 84.4576 82.6557C84.4576 82.6557 84.4576 115.807 84.4576 126.229C84.4576 126.229 86.5081 126.395 89.8332 124.067Z" fill="url(#paint18_linear_1262_3342)"/>
<path d="M80.9663 125.453C78.5279 123.79 75.2582 121.572 73.0969 119.965C70.2705 117.913 70.7139 115.585 70.7139 113.977C70.7139 106.272 70.7139 86.4809 70.7139 77.5556C70.7139 74.7838 71.4343 73.5088 71.4343 73.5088L84.4022 82.6004C84.4022 82.6004 84.4022 116.583 84.4022 126.173C84.4576 126.229 82.9059 126.728 80.9663 125.453Z" fill="url(#paint19_linear_1262_3342)"/>
<path d="M115.935 41.3002C115.935 41.3002 122.641 46.234 126.132 48.5069C127.85 49.6156 128.848 51.6113 128.848 51.6113C117.764 59.3725 84.4576 82.7112 84.4576 82.7112C84.4576 82.7112 73.7065 75.1718 71.4343 73.6196C71.4343 73.6196 71.9331 72.4 73.5956 71.125C84.3468 63.253 115.935 41.3002 115.935 41.3002Z" fill="url(#paint20_linear_1262_3342)"/>
<path d="M101.139 90.4169C101.139 86.3701 105.129 80.0503 108.398 77.7774C111.723 75.5045 115.714 76.1698 115.714 80.1612C115.714 83.0439 113.885 86.7027 111.613 89.4745C111.723 93.6322 111.834 95.7388 111.945 99.8966C109.34 101.726 107.955 102.613 105.24 104.553V93.854C102.967 94.3529 101.139 93.2442 101.139 90.4169Z" fill="white"/>
<path d="M114.162 46.3449C113.552 46.7329 113.996 46.4557 113.442 46.8438C112.555 47.4536 111.446 49.5602 113.663 51.2233C114.661 51.9994 115.603 52.1657 116.49 52.1657C118.706 52.2211 120.313 50.6689 120.313 50.6689C120.313 50.6689 123.14 48.6732 119.759 46.3449C117.653 44.8481 115.492 45.5133 114.162 46.3449Z" fill="url(#paint21_linear_1262_3342)"/>
<path d="M81.0771 71.4577C80.4675 71.8457 80.9109 71.5685 80.3567 71.9566C79.47 72.5664 78.3616 74.673 80.5783 76.3361C81.5759 77.1122 82.518 77.2785 83.4047 77.2785C85.6214 77.3339 87.2286 75.7817 87.2286 75.7817C87.2286 75.7817 90.0549 73.786 86.6744 71.4577C84.513 69.9609 82.3517 70.6261 81.0771 71.4577Z" fill="url(#paint22_linear_1262_3342)"/>
<path d="M83.4046 77.2784C85.2335 77.2784 86.7297 76.5023 86.7297 75.5045V54.8267C86.7297 44.2383 91.7174 36.2555 101.582 31.0999C104.02 29.8248 109.895 28.2726 112.333 29.8803C112.666 30.102 113.663 30.7673 113.552 33.6499C113.552 33.7054 113.552 33.7608 113.552 33.8717C113.552 38.7501 113.608 43.6285 113.608 48.5069V50.7798C113.608 51.445 114.938 52.1657 116.933 52.1657C118.54 52.1657 120.202 51.0016 120.202 50.8352V48.4515C120.202 43.6285 120.147 38.7501 120.147 33.9271C120.424 28.4389 117.986 25.6671 115.935 24.3366C110.227 20.6778 101.249 23.8377 98.5339 25.2236C86.4527 31.4879 80.135 41.6882 80.135 54.8267V75.3382C80.0795 77.1121 83.4046 77.2784 83.4046 77.2784Z" fill="url(#paint23_linear_1262_3342)"/>
<path d="M183.213 148.958L197.012 158.659L183.213 168.361L169.359 158.659L183.213 148.958Z" stroke="url(#paint24_linear_1262_3342)" stroke-width="0.5521" stroke-miterlimit="10" stroke-linecap="round" stroke-linejoin="round"/>
<path d="M183.213 160.655L193.022 167.529L183.213 174.458L173.349 167.529L183.213 160.655Z" stroke="url(#paint25_linear_1262_3342)" stroke-width="0.5521" stroke-miterlimit="10" stroke-linecap="round" stroke-linejoin="round"/>
<path d="M183.213 171.132L187.868 174.459L183.213 177.729L178.503 174.459L183.213 171.132Z" stroke="url(#paint26_linear_1262_3342)" stroke-width="0.5521" stroke-miterlimit="10" stroke-linecap="round" stroke-linejoin="round"/>
<path d="M201.5 149.861L183.713 162.353V161.302L201.5 148.811V149.861Z" fill="url(#paint27_linear_1262_3342)" stroke="url(#paint28_linear_1262_3342)"/>
<path d="M182.713 161.302V162.355L164.871 149.861V148.809L182.713 161.302Z" fill="url(#paint29_linear_1262_3342)" stroke="url(#paint30_linear_1262_3342)"/>
<path d="M201.13 147.849L183.212 160.432L165.243 147.849L183.212 135.266L201.13 147.849Z" fill="url(#paint31_linear_1262_3342)" stroke="url(#paint32_linear_1262_3342)"/>
<path opacity="0.8" d="M198.471 147.849L183.213 158.602L167.9 147.849L183.212 137.096L198.471 147.849Z" fill="white" stroke="url(#paint33_linear_1262_3342)"/>
<path d="M151.015 72.2891C150.904 72.5109 150.904 72.788 150.904 73.0652C150.96 73.3424 150.738 73.5641 150.516 73.5641H150.461C150.239 73.5641 150.018 73.3978 150.018 73.1761C149.962 72.6217 150.073 72.1228 150.295 71.7347C150.461 71.9565 150.738 72.1782 151.015 72.2891Z" fill="#BC7860"/>
<path d="M150.128 71.6239C150.35 71.8456 150.572 72.0674 150.849 72.2337C150.849 72.2337 150.793 72.2337 150.793 72.2891C150.461 72.5109 150.35 72.9544 150.405 73.4533C150.461 73.7305 150.239 73.9522 150.017 73.9522H149.962C149.74 73.9522 149.519 73.7859 149.519 73.5642C149.352 72.7326 149.574 72.0674 150.128 71.6239Z" fill="#D0856B"/>
<path d="M149.851 71.4575L149.907 71.4021C149.962 71.4575 149.962 71.513 150.018 71.5684C150.184 71.7347 150.35 71.901 150.572 72.0673C150.516 72.1228 150.405 72.1228 150.35 72.1782C150.018 72.4 149.907 72.8434 149.962 73.3424C150.018 73.6196 149.796 73.8413 149.574 73.8413H149.519C149.297 73.8413 149.075 73.675 149.075 73.4532C148.965 72.6217 149.242 71.901 149.851 71.4575Z" fill="#E19D7E"/>
<path d="M149.297 71.4575C149.353 71.4575 149.353 71.4021 149.408 71.4021C149.685 71.5684 149.907 71.7347 150.018 71.7902C150.128 71.8456 150.239 71.901 150.35 72.0119C150.184 72.0673 150.018 72.1228 149.851 72.2336C149.519 72.4554 149.408 72.8989 149.463 73.3978C149.519 73.675 149.297 73.8967 149.075 73.8967H149.02C148.798 73.8967 148.577 73.7304 148.577 73.5087C148.41 72.6217 148.688 71.901 149.297 71.4575Z" fill="#EFAC8A"/>
<path d="M148.078 70.0162C148.189 69.7945 148.466 69.6836 148.687 69.7945C148.687 69.7945 150.683 70.8478 151.348 71.1249C151.68 71.2358 152.401 71.4576 152.678 71.6239C153.066 71.7902 154.063 72.5109 154.063 72.5109L157.222 74.1185L154.673 75.6707C154.673 75.6707 153.786 75.1164 153.453 74.9501C152.955 74.6174 152.29 74.2294 151.015 74.3403C150.683 74.3957 149.962 74.3957 149.796 74.3957C149.519 74.3957 149.352 74.174 149.352 73.8968C149.352 73.6196 149.574 73.4533 149.851 73.4533C150.35 73.3978 150.627 73.3978 150.96 73.3978C151.348 73.3978 151.403 72.8435 151.237 72.6772C150.738 72.2337 150.35 72.0674 150.018 71.8456C149.574 71.5684 148.244 70.6815 148.244 70.6815C148.022 70.5151 147.967 70.238 148.078 70.0162Z" fill="#F5BB95"/>
<path d="M183.878 152.616C184.266 152.838 185.208 152.894 185.984 152.395C187.092 151.619 189.365 150.177 189.365 149.956C189.365 149.789 189.365 149.457 189.365 149.457V148.736V148.403H185.707C185.707 148.403 185.707 148.625 185.707 148.736C185.707 148.902 185.707 149.401 185.43 149.678C185.042 150.066 184.82 150.288 184.155 150.953C183.49 151.619 183.379 152.339 183.878 152.616Z" fill="#1B1425"/>
<path d="M185.651 148.847C185.651 149.013 186.317 149.567 187.425 149.789C188.201 149.955 189.365 149.512 189.365 149.29C189.365 147.793 188.644 137.981 188.755 134.821C188.977 129.61 189.087 115.419 189.087 115.419L182.548 112.924C182.548 112.924 182.216 114.92 182.659 118.967C183.102 123.291 182.936 129.056 183.435 132.826C183.878 136.429 185.651 145.576 185.651 148.847Z" fill="#1B1425"/>
<path d="M177.45 148.237C177.838 148.459 178.78 148.514 179.555 148.015C180.664 147.239 182.936 145.798 182.936 145.576C182.936 145.41 182.936 145.077 182.936 145.077V144.356V144.024H179.278C179.278 144.024 179.278 144.246 179.278 144.356C179.278 144.523 179.278 145.022 179.001 145.299C178.613 145.687 178.392 145.909 177.727 146.574C177.062 147.239 177.006 147.96 177.45 148.237Z" fill="#1B1425"/>
<path d="M179.168 144.246C179.223 144.8 179.999 145.299 180.941 145.576C181.661 145.798 183.213 145.521 183.213 145.188C183.213 143.691 182.493 133.602 182.659 130.497C182.881 125.286 182.659 112.924 182.659 112.924L176.452 108.766C176.452 108.766 176.452 116.638 177.339 123.457C177.727 127.116 178.835 140.975 179.168 144.246Z" fill="#1B1425"/>
<path d="M186.372 85.5938L179.666 85.4829L180.83 96.4593L186.372 85.5938Z" fill="#928CBE"/>
<path d="M179.666 85.4829L180.83 96.4593V111.926C180.83 111.926 180.83 114.088 179.167 113.589C177.172 112.979 176.009 111.095 176.119 110.263C176.618 105.329 177.117 98.455 177.117 98.455L175.51 89.9178L177.394 84.3187L179.666 85.4829Z" fill="#A535C5"/>
<path d="M180.83 96.4593L186.372 85.5938C188.644 87.2014 189.365 87.7003 189.365 87.7003V98.6213L188.201 106.327C188.201 106.327 188.866 112.425 189.198 115.862C189.365 117.636 184.266 117.581 182.049 115.64C181.052 114.809 180.83 113.09 180.83 111.649C180.83 108.046 180.83 96.4593 180.83 96.4593Z" fill="#A535C5"/>
<path d="M180.83 77.8882C181.329 77.611 182.16 77.5001 182.77 77.5001C184.654 77.5001 185.929 79.2741 185.929 81.1035V83.5981C185.929 84.8177 183.324 86.8134 181.717 87.0906C181.384 87.1461 181.218 87.0906 181.107 87.0352C180.885 86.9243 180.664 86.5917 180.664 86.4808C180.498 86.1482 180.442 85.483 180.442 85.483L180.83 77.8882Z" fill="#E39E76"/>
<path d="M182.825 73.9521C185.153 73.9521 186.76 76.1142 186.76 78.3871V79.9947C186.76 82.6002 182.991 85.9819 180.719 85.9819C179.555 85.9819 179.334 84.5959 178.89 83.1546C178.558 82.1013 178.669 79.1632 178.669 77.8881C178.613 75.6152 180.498 73.9521 182.825 73.9521Z" fill="#F5BB95"/>
<path d="M185.984 83.6536C185.984 83.6536 185.873 84.596 184.82 85.3721C183.767 86.2036 181.994 87.4787 181.107 87.0906L182.991 88.6428C182.991 88.6428 186.372 86.4254 186.372 85.3721C186.372 84.4297 186.372 83.9862 185.984 83.6536Z" fill="#0B0B0B"/>
<path d="M180.498 86.0373C180.498 86.0373 180.608 86.758 181.107 87.0906L179.888 87.9221L179.611 85.4275C179.666 85.4829 179.999 85.9264 180.498 86.0373Z" fill="#0B0B0B"/>
<path d="M180.719 88.5319V87.4232L181.107 87.0906L182.493 88.2547L181.606 89.1417L180.719 88.5319Z" fill="#2A2333"/>
<path d="M181.606 89.1417L182.16 93.9092L180.83 96.4593L180.387 92.6896L180.719 88.5319L181.606 89.1417Z" fill="#2A2333"/>
<path d="M184.599 96.0159L187.647 86.5363L186.815 85.9265L180.83 96.4594L184.599 96.0159Z" fill="#2A2333"/>
<path d="M180.83 96.4593L177.616 91.47L178.613 86.0927L179.666 85.4829L180.83 96.4593Z" fill="#2A2333"/>
<path d="M180.83 96.4594L184.266 95.6833L187.647 86.5363L186.372 85.5939L180.83 96.4594Z" fill="#A535C5"/>
<path d="M180.83 96.4593L178.004 91.3592L178.613 86.0927C178.613 86.0927 179.057 85.7047 179.611 85.4829L180.83 96.4593Z" fill="#A535C5"/>
<path d="M182.548 73.7304C179.666 73.8413 179.168 75.449 177.948 76.0033C177.283 76.336 176.563 75.9479 176.563 75.9479C176.729 77.0012 177.948 77.999 180.22 77.999C181.883 77.999 182.77 77.3893 184.044 78.2208C184.765 78.6643 185.319 79.2187 185.097 81.2698H185.818C185.873 81.2698 186.316 81.4915 186.649 80.8263C188.644 76.8349 186.095 73.6196 182.548 73.7304Z" fill="#2B2B2B"/>
<path d="M185.873 80.9372C185.541 81.6024 185.596 82.2676 185.984 82.4339C186.372 82.6003 186.926 82.2676 187.259 81.6024C187.591 80.9372 187.536 80.2719 187.148 80.1056C186.76 79.9393 186.206 80.2719 185.873 80.9372Z" fill="#F5BB95"/>
<path d="M153.287 75.8371L175.455 89.9179L177.339 84.2634L155.504 72.8435C155.504 72.8435 154.174 72.8435 153.453 73.7305C152.844 74.562 153.287 75.8371 153.287 75.8371Z" fill="#A535C5"/>
<path d="M190.473 119.188C190.473 119.188 191.193 123.512 189.032 123.956V119.355L190.473 119.188Z" fill="#F5BB95"/>
<path d="M188.145 86.8135C188.145 86.8135 188.644 87.2015 189.365 87.7005C190.307 88.3657 191.138 90.0288 191.138 91.4701C191.138 94.9626 191.138 119.798 191.138 119.798C191.138 119.798 189.919 120.02 189.198 119.466C188.312 118.8 188.09 117.636 188.09 117.636V86.8135H188.145Z" fill="#A535C5"/>
<path d="M187.979 117.525L188.145 97.4573L188.312 117.525C188.312 117.636 188.256 117.692 188.145 117.692C188.035 117.692 187.979 117.636 187.979 117.525Z" fill="#0E0542"/>
<path d="M180.83 96.4594C180.886 97.7898 180.941 99.1203 180.941 100.451C180.996 101.781 180.941 103.112 180.996 104.442L180.941 108.434C180.941 109.764 180.886 111.095 180.83 112.425C180.775 111.095 180.719 109.764 180.719 108.434L180.664 104.442C180.664 103.112 180.664 101.781 180.719 100.451C180.719 99.1203 180.775 97.7898 180.83 96.4594Z" fill="#2A2333"/>
<path d="M18.7867 152.062L4.98755 161.764L18.7867 171.465L32.5859 161.764L18.7867 152.062Z" stroke="url(#paint34_linear_1262_3342)" stroke-width="0.5521" stroke-miterlimit="10" stroke-linecap="round" stroke-linejoin="round"/>
<path d="M18.7868 163.704L8.97778 170.633L18.7868 177.508L28.6513 170.633L18.7868 163.704Z" stroke="url(#paint35_linear_1262_3342)" stroke-width="0.5521" stroke-miterlimit="10" stroke-linecap="round" stroke-linejoin="round"/>
<path d="M18.7867 174.237L14.1316 177.563L18.7867 180.834L23.4973 177.563L18.7867 174.237Z" stroke="url(#paint36_linear_1262_3342)" stroke-width="0.5521" stroke-miterlimit="10" stroke-linecap="round" stroke-linejoin="round"/>
<path d="M18.2871 164.408V165.457L0.5 152.966V151.915L18.2871 164.408Z" fill="#30338C" stroke="url(#paint37_linear_1262_3342)"/>
<path d="M37.074 152.965L19.2869 165.457V164.407L37.074 151.915V152.965Z" fill="url(#paint38_linear_1262_3342)" stroke="url(#paint39_linear_1262_3342)"/>
<path d="M36.7031 150.953L18.7861 163.536L0.869141 150.953L18.7861 138.37L36.7031 150.953Z" fill="url(#paint40_linear_1262_3342)" stroke="url(#paint41_linear_1262_3342)"/>
<path opacity="0.8" d="M34.0977 150.952L18.7871 161.651L3.5293 150.952L18.7871 140.2L34.0977 150.952Z" fill="white" stroke="url(#paint42_linear_1262_3342)"/>
<path d="M18.6207 155.721C18.2328 155.943 17.2907 155.998 16.5148 155.499C15.4064 154.723 13.1343 153.282 13.1343 153.06C13.1343 152.894 13.1343 152.561 13.1343 152.561V151.84V151.508H16.7919C16.7919 151.508 16.7919 151.73 16.7919 151.84C16.7919 152.007 16.7919 152.506 17.069 152.783C17.4569 153.171 17.6786 153.393 18.3436 154.058C19.064 154.668 19.1195 155.444 18.6207 155.721Z" fill="#383838"/>
<path d="M16.9027 151.951C16.9027 152.118 16.2377 152.672 15.1293 152.894C14.3535 153.06 13.1897 152.617 13.1897 152.395C13.1897 150.898 13.9101 141.086 13.7993 137.981C13.5776 132.77 13.4668 118.579 13.4668 118.579L20.0062 116.084C20.0062 116.084 20.3387 118.08 19.8953 122.127C19.452 126.451 19.6182 132.216 19.1195 135.986C18.6207 139.534 16.9027 148.625 16.9027 151.951Z" fill="#1B1425"/>
<path d="M25.0492 151.342C24.6612 151.563 23.7191 151.619 22.9433 151.12C21.8349 150.344 19.5627 148.902 19.5627 148.681C19.5627 148.514 19.5627 148.182 19.5627 148.182V147.461V147.128H23.2204C23.2204 147.128 23.2204 147.35 23.2204 147.461C23.2204 147.627 23.2204 148.126 23.4975 148.403C23.8854 148.792 24.1071 149.013 24.7721 149.678C25.4925 150.344 25.5479 151.064 25.0492 151.342Z" fill="#383838"/>
<path d="M23.3866 147.35C23.3312 147.905 22.5553 148.403 21.6132 148.681C20.8928 148.902 19.3411 148.625 19.3411 148.293C19.3411 146.796 20.0615 136.706 19.8952 133.602C19.6736 128.391 19.8952 116.029 19.8952 116.029L26.1021 111.871C26.1021 111.871 26.1021 119.743 25.2154 126.562C24.8275 130.165 23.7191 144.079 23.3866 147.35Z" fill="#1B1425"/>
<path d="M16.1823 88.6983L22.8879 88.532L21.7241 99.5638L16.1823 88.6983Z" fill="#928CBE"/>
<path d="M22.8879 88.532L21.7241 99.5084V114.975C21.7241 114.975 21.7241 117.137 23.3867 116.638C25.3817 116.028 26.4347 114.144 26.4347 113.312C26.6564 107.935 26.6564 108.046 26.6564 98.6214V91.1929L22.8879 88.532Z" fill="#2A2333"/>
<path d="M21.7241 99.5638L16.1822 88.6982C13.9101 90.3059 10.9729 92.2462 10.9729 92.2462L13.1342 101.781L14.298 109.487C14.298 109.487 13.633 115.585 13.3005 119.022C13.1342 120.796 18.2327 120.741 20.4494 118.8C21.447 117.969 21.6686 116.25 21.6686 114.809C21.7241 111.15 21.7241 99.5638 21.7241 99.5638Z" fill="#2A2333"/>
<path d="M21.6687 80.9927C21.1699 80.7155 20.3386 80.6046 19.729 80.6046C17.8448 80.6046 16.5702 82.3786 16.5702 84.208V86.7026C16.5702 87.9222 19.1749 89.9179 20.782 90.1951C21.1145 90.2506 21.2808 90.1951 21.3916 90.1397C21.6133 90.0288 21.8349 89.6962 21.8349 89.5853C22.0012 89.2527 22.0566 88.5875 22.0566 88.5875L21.6687 80.9927Z" fill="#E39E76"/>
<path d="M19.729 77.0566C17.4014 77.0566 15.7943 79.2187 15.7943 81.4916V83.0992C15.7943 85.7047 19.5628 89.0863 21.8349 89.0863C22.9987 89.0863 23.2204 87.7004 23.6637 86.2591C23.9962 85.2058 23.8854 82.2677 23.8854 80.9926C23.8854 78.7197 22.0566 77.0566 19.729 77.0566Z" fill="#F5BB95"/>
<path d="M16.3901 87C16.3901 87 16.501 87.9424 17.5539 88.7185C18.6069 89.5501 20.3803 90.8251 21.267 90.4371L19.3827 91.9893C19.3827 91.9893 16.0022 89.7718 16.0022 88.7185C16.0022 87.7761 15.9468 87.3326 16.3901 87Z" fill="white"/>
<path d="M22.0566 89.1418C22.0566 89.1418 21.9458 89.8625 21.447 90.1951L22.6662 91.0266L22.9433 88.532C22.8879 88.532 22.5554 89.0309 22.0566 89.1418Z" fill="white"/>
<path d="M21.8349 91.5811V90.4724L21.447 90.1952L20.0615 91.3594L20.9482 92.2463L21.8349 91.5811Z" fill="#2A2333"/>
<path d="M20.9482 92.2463L20.394 97.0138L21.7241 99.5639L22.112 95.7942L21.8349 91.5811L20.9482 92.2463Z" fill="#2A2333"/>
<path d="M17.9002 99.1205L14.8522 89.6408L15.7389 88.9756L21.7241 99.564L17.9002 99.1205Z" fill="#A535C5"/>
<path d="M21.7241 99.5638L24.9384 94.5746L23.8854 89.1972L22.8879 88.532L21.7241 99.5638Z" fill="#A535C5"/>
<path d="M21.7241 99.5639L18.2881 98.7878L14.8522 89.6408L16.1822 88.6984L21.7241 99.5639Z" fill="#A535C5"/>
<path d="M21.5441 99.8059L24.3704 94.7057L23.7608 89.4393C23.7608 89.4393 23.3175 89.0512 22.7633 88.8295L21.5441 99.8059Z" fill="#A535C5"/>
<path d="M31.2006 104.83C29.7597 100.118 27.0996 92.8007 26.6008 91.4148V107.99L28.6513 108.6C30.7572 109.21 32.0318 107.436 31.2006 104.83Z" fill="#A535C5"/>
<path d="M28.5405 108.6L18.8977 105.828L19.6181 103.389L29.4272 105.385L28.5405 108.6Z" fill="#A535C5"/>
<path d="M24.1624 106.604C24.1624 106.604 26.2129 104.276 26.6008 104.83C26.6008 104.83 26.49 104.054 26.1021 103.5C25.6033 102.835 24.8829 102.835 24.107 103.389C23.3312 103.943 22.8324 104.276 22.8324 104.276L24.1624 106.604Z" fill="#F5BB95"/>
<path d="M24.1625 106.715C24.1625 106.715 20.1724 109.265 17.0135 110.651C16.1268 111.039 15.1847 110.485 14.6859 109.653C12.8017 106.438 8.58991 94.0758 10.9729 92.1909C12.9125 90.6941 14.298 94.5747 15.1847 97.6791C15.7943 99.952 16.9027 104.387 17.346 105.607C17.5123 106.05 17.7339 106.161 18.1219 106.05C20.4494 105.163 23.1095 103.666 23.1095 103.666C23.1095 103.666 24.495 104.72 24.1625 106.715Z" fill="#A535C5"/>
<path d="M19.5627 103.666C19.3411 103.611 17.2352 103.001 15.0738 103.056C14.8522 103.056 14.6859 103.223 14.6859 103.444C14.6859 103.666 14.8522 103.777 15.0738 103.833C15.2955 103.833 16.1268 103.999 16.3485 103.999C16.2376 104.054 16.1268 104.054 16.0714 104.11C15.9051 104.221 15.7943 104.387 15.9051 104.609C16.016 104.775 16.1822 104.886 16.4039 104.775C16.4593 104.775 16.4593 104.775 16.5147 104.72C16.4593 104.775 16.4039 104.775 16.3485 104.83C16.1822 104.941 16.1822 105.163 16.293 105.329C16.3485 105.44 16.4593 105.496 16.5701 105.496C16.6256 105.496 16.7364 105.496 16.7918 105.44C16.8472 105.385 16.9026 105.385 16.9581 105.329C16.9026 105.385 16.8472 105.44 16.7918 105.496C16.681 105.662 16.681 105.884 16.8472 105.995C16.9026 106.05 17.0135 106.105 17.0689 106.105C17.1797 106.105 17.2906 106.05 17.346 105.995C17.5122 105.828 17.6231 105.717 17.7893 105.606C17.6785 105.662 17.6231 105.773 17.5123 105.828C17.4014 105.995 17.4014 106.216 17.5123 106.327C17.5677 106.383 17.6785 106.438 17.7339 106.438C17.8448 106.438 17.9556 106.383 18.011 106.327C18.2881 106.05 18.6206 105.884 18.9531 105.717L19.5627 103.666Z" fill="#F5BB95"/>
<path d="M18.5652 81.4916C19.8398 80.6601 20.7265 81.2699 22.389 81.2699C24.6612 81.2699 25.8804 80.272 26.0467 79.2187C26.0467 79.2187 25.3262 79.6068 24.6612 79.2742C23.442 78.7198 22.9432 77.0567 20.0615 77.0013C16.7918 76.8904 14.3534 79.6622 15.628 83.1547C15.9605 83.1547 16.4039 83.4873 16.6809 84.0417C16.958 84.6515 16.958 85.2613 16.6809 85.483C17.9001 87.4233 20.2831 89.1418 21.9457 89.1418C22.9432 89.1418 23.3866 87.9777 23.7745 86.5363C23.8853 86.0928 23.9408 85.4276 23.9408 85.4276C23.9408 85.4276 23.8299 85.1504 21.8903 85.2613C21.1144 85.3167 20.2831 85.483 19.5627 85.7602C18.8423 86.0374 18.3435 85.5939 18.1218 85.3722C17.7339 84.8732 17.5122 84.5406 17.4568 84.2634C17.1243 83.0993 17.8447 81.9351 18.5652 81.4916ZM20.1169 86.6472C20.5602 86.4255 21.1144 86.2037 21.8349 86.1483C22.4445 86.0928 23.0541 86.0928 23.3311 86.0928C23.6082 86.0928 23.4974 86.4255 23.2757 86.7026C22.4999 87.7559 21.3361 87.5896 20.1169 87.1461C19.8398 86.9798 19.9506 86.7026 20.1169 86.6472Z" fill="#2B2B2B"/>
<path d="M16.6255 84.0417C16.958 84.7069 16.9026 85.3721 16.5147 85.5384C16.1268 85.7047 15.5726 85.3721 15.2401 84.7069C14.9076 84.0417 14.963 83.3764 15.3509 83.2101C15.7388 83.0438 16.293 83.3764 16.6255 84.0417Z" fill="#F5BB95"/>
</g>
<defs>
<linearGradient id="paint0_linear_1262_3342" x1="36.4653" y1="85.3166" x2="64.0637" y2="85.3166" gradientUnits="userSpaceOnUse">
<stop stop-color="#F57A00"/>
<stop offset="1" stop-color="#7103A4"/>
</linearGradient>
<linearGradient id="paint1_linear_1262_3342" x1="40.4554" y1="94.2143" x2="60.129" y2="94.2143" gradientUnits="userSpaceOnUse">
<stop stop-color="#F57A00"/>
<stop offset="1" stop-color="#7103A4"/>
</linearGradient>
<linearGradient id="paint2_linear_1262_3342" x1="45.6094" y1="101.088" x2="54.9751" y2="101.088" gradientUnits="userSpaceOnUse">
<stop stop-color="#F57A00"/>
<stop offset="1" stop-color="#7103A4"/>
</linearGradient>
<linearGradient id="paint3_linear_1262_3342" x1="35.7537" y1="84.9677" x2="45.894" y2="79.5562" gradientUnits="userSpaceOnUse">
<stop stop-color="#30338C"/>
<stop offset="0.7415" stop-color="#6A65A7"/>
<stop offset="1" stop-color="#7A75B1"/>
</linearGradient>
<linearGradient id="paint4_linear_1262_3342" x1="31.4777" y1="82.2399" x2="50.2645" y2="82.2399" gradientUnits="userSpaceOnUse">
<stop stop-color="#F57A00"/>
<stop offset="1" stop-color="#7103A4"/>
</linearGradient>
<linearGradient id="paint5_linear_1262_3342" x1="59.6801" y1="90.1694" x2="59.6801" y2="80.1833" gradientUnits="userSpaceOnUse">
<stop stop-color="#9186BB"/>
<stop offset="1" stop-color="#C7C4E1"/>
</linearGradient>
<linearGradient id="paint6_linear_1262_3342" x1="50.2645" y1="82.2399" x2="69.1068" y2="82.2399" gradientUnits="userSpaceOnUse">
<stop stop-color="#F57A00"/>
<stop offset="1" stop-color="#7103A4"/>
</linearGradient>
<linearGradient id="paint7_linear_1262_3342" x1="31.8264" y1="74.9245" x2="67.7932" y2="74.0785" gradientUnits="userSpaceOnUse">
<stop stop-color="#786FAD"/>
<stop offset="1" stop-color="#B2B3D7"/>
</linearGradient>
<linearGradient id="paint8_linear_1262_3342" x1="31.4777" y1="74.5065" x2="69.1067" y2="74.5065" gradientUnits="userSpaceOnUse">
<stop stop-color="#F57A00"/>
<stop offset="1" stop-color="#7103A4"/>
</linearGradient>
<linearGradient id="paint9_linear_1262_3342" x1="34.1377" y1="74.4787" x2="66.4466" y2="74.4787" gradientUnits="userSpaceOnUse">
<stop stop-color="#F57A00"/>
<stop offset="1" stop-color="#7103A4"/>
</linearGradient>
<linearGradient id="paint10_linear_1262_3342" x1="47.9369" y1="138.868" x2="152.401" y2="138.868" gradientUnits="userSpaceOnUse">
<stop stop-color="#F57A00"/>
<stop offset="1" stop-color="#7103A4"/>
</linearGradient>
<linearGradient id="paint11_linear_1262_3342" x1="47.9369" y1="124.399" x2="152.401" y2="124.399" gradientUnits="userSpaceOnUse">
<stop stop-color="#F57A00"/>
<stop offset="1" stop-color="#7103A4"/>
</linearGradient>
<linearGradient id="paint12_linear_1262_3342" x1="47.9369" y1="131.633" x2="152.401" y2="131.633" gradientUnits="userSpaceOnUse">
<stop stop-color="#F57A00"/>
<stop offset="1" stop-color="#7103A4"/>
</linearGradient>
<linearGradient id="paint13_linear_1262_3342" x1="47.9369" y1="117.165" x2="152.401" y2="117.165" gradientUnits="userSpaceOnUse">
<stop stop-color="#F57A00"/>
<stop offset="1" stop-color="#7103A4"/>
</linearGradient>
<linearGradient id="paint14_linear_1262_3342" x1="57.1315" y1="132.74" x2="77.0782" y2="122.095" gradientUnits="userSpaceOnUse">
<stop stop-color="#30338C"/>
<stop offset="0.7415" stop-color="#6A65A7"/>
<stop offset="1" stop-color="#7A75B1"/>
</linearGradient>
<linearGradient id="paint15_linear_1262_3342" x1="119.443" y1="142.93" x2="119.443" y2="111.3" gradientUnits="userSpaceOnUse">
<stop stop-color="#9186BB"/>
<stop offset="1" stop-color="#C7C4E1"/>
</linearGradient>
<linearGradient id="paint16_linear_1262_3342" x1="48.6824" y1="104.053" x2="149.037" y2="101.692" gradientUnits="userSpaceOnUse">
<stop stop-color="#786FAD"/>
<stop offset="1" stop-color="#B2B3D7"/>
</linearGradient>
<linearGradient id="paint17_linear_1262_3342" x1="111.424" y1="69.8602" x2="79.2721" y2="19.4019" gradientUnits="userSpaceOnUse">
<stop stop-color="#E195BF"/>
<stop offset="0.0146219" stop-color="#D58BB3"/>
<stop offset="0.0899948" stop-color="#955E78"/>
<stop offset="0.1709" stop-color="#643F4C"/>
<stop offset="0.2553" stop-color="#43262D"/>
<stop offset="0.3442" stop-color="#260D11"/>
<stop offset="0.4388" stop-color="#020000"/>
<stop offset="0.5412"/>
<stop offset="0.6553"/>
<stop offset="0.7904"/>
<stop offset="1"/>
</linearGradient>
<linearGradient id="paint18_linear_1262_3342" x1="84.4576" y1="88.921" x2="129.679" y2="88.921" gradientUnits="userSpaceOnUse">
<stop stop-color="#F57A00"/>
<stop offset="1" stop-color="#7103A4"/>
</linearGradient>
<linearGradient id="paint19_linear_1262_3342" x1="70.6886" y1="99.9119" x2="84.4037" y2="99.9119" gradientUnits="userSpaceOnUse">
<stop stop-color="#F57A00"/>
<stop offset="1" stop-color="#7103A4"/>
</linearGradient>
<linearGradient id="paint20_linear_1262_3342" x1="71.4343" y1="62.0055" x2="128.848" y2="62.0055" gradientUnits="userSpaceOnUse">
<stop stop-color="#F57A00"/>
<stop offset="1" stop-color="#7103A4"/>
</linearGradient>
<linearGradient id="paint21_linear_1262_3342" x1="112.366" y1="48.8108" x2="121.42" y2="48.8108" gradientUnits="userSpaceOnUse">
<stop stop-color="#F57A00"/>
<stop offset="1" stop-color="#7103A4"/>
</linearGradient>
<linearGradient id="paint22_linear_1262_3342" x1="79.2811" y1="73.9236" x2="88.3353" y2="73.9236" gradientUnits="userSpaceOnUse">
<stop stop-color="#F57A00"/>
<stop offset="1" stop-color="#7103A4"/>
</linearGradient>
<linearGradient id="paint23_linear_1262_3342" x1="80.1343" y1="49.9547" x2="120.202" y2="49.9547" gradientUnits="userSpaceOnUse">
<stop stop-color="#F57A00"/>
<stop offset="1" stop-color="#7103A4"/>
</linearGradient>
<linearGradient id="paint24_linear_1262_3342" x1="169.359" y1="158.659" x2="197.012" y2="158.659" gradientUnits="userSpaceOnUse">
<stop stop-color="#F57A00"/>
<stop offset="1" stop-color="#7103A4"/>
</linearGradient>
<linearGradient id="paint25_linear_1262_3342" x1="173.349" y1="167.557" x2="193.022" y2="167.557" gradientUnits="userSpaceOnUse">
<stop stop-color="#F57A00"/>
<stop offset="1" stop-color="#7103A4"/>
</linearGradient>
<linearGradient id="paint26_linear_1262_3342" x1="178.503" y1="174.431" x2="187.868" y2="174.431" gradientUnits="userSpaceOnUse">
<stop stop-color="#F57A00"/>
<stop offset="1" stop-color="#7103A4"/>
</linearGradient>
<linearGradient id="paint27_linear_1262_3342" x1="197.713" y1="158.317" x2="187.573" y2="152.905" gradientUnits="userSpaceOnUse">
<stop stop-color="#30338C"/>
<stop offset="0.7415" stop-color="#6A65A7"/>
<stop offset="1" stop-color="#7A75B1"/>
</linearGradient>
<linearGradient id="paint28_linear_1262_3342" x1="183.213" y1="155.582" x2="202" y2="155.582" gradientUnits="userSpaceOnUse">
<stop stop-color="#F57A00"/>
<stop offset="1" stop-color="#7103A4"/>
</linearGradient>
<linearGradient id="paint29_linear_1262_3342" x1="173.787" y1="163.518" x2="173.787" y2="153.533" gradientUnits="userSpaceOnUse">
<stop stop-color="#9186BB"/>
<stop offset="1" stop-color="#C7C4E1"/>
</linearGradient>
<linearGradient id="paint30_linear_1262_3342" x1="164.371" y1="155.582" x2="183.213" y2="155.582" gradientUnits="userSpaceOnUse">
<stop stop-color="#F57A00"/>
<stop offset="1" stop-color="#7103A4"/>
</linearGradient>
<linearGradient id="paint31_linear_1262_3342" x1="201.641" y1="148.274" x2="165.674" y2="147.428" gradientUnits="userSpaceOnUse">
<stop stop-color="#786FAD"/>
<stop offset="1" stop-color="#B2B3D7"/>
</linearGradient>
<linearGradient id="paint32_linear_1262_3342" x1="164.371" y1="147.849" x2="202" y2="147.849" gradientUnits="userSpaceOnUse">
<stop stop-color="#F57A00"/>
<stop offset="1" stop-color="#7103A4"/>
</linearGradient>
<linearGradient id="paint33_linear_1262_3342" x1="167.031" y1="147.849" x2="199.34" y2="147.849" gradientUnits="userSpaceOnUse">
<stop stop-color="#F57A00"/>
<stop offset="1" stop-color="#7103A4"/>
</linearGradient>
<linearGradient id="paint34_linear_1262_3342" x1="4.98755" y1="161.764" x2="32.5859" y2="161.764" gradientUnits="userSpaceOnUse">
<stop stop-color="#F57A00"/>
<stop offset="1" stop-color="#7103A4"/>
</linearGradient>
<linearGradient id="paint35_linear_1262_3342" x1="8.97778" y1="170.606" x2="28.6513" y2="170.606" gradientUnits="userSpaceOnUse">
<stop stop-color="#F57A00"/>
<stop offset="1" stop-color="#7103A4"/>
</linearGradient>
<linearGradient id="paint36_linear_1262_3342" x1="14.1316" y1="177.535" x2="23.4973" y2="177.535" gradientUnits="userSpaceOnUse">
<stop stop-color="#F57A00"/>
<stop offset="1" stop-color="#7103A4"/>
</linearGradient>
<linearGradient id="paint37_linear_1262_3342" x1="0" y1="158.687" x2="18.7868" y2="158.687" gradientUnits="userSpaceOnUse">
<stop stop-color="#F57A00"/>
<stop offset="1" stop-color="#7103A4"/>
</linearGradient>
<linearGradient id="paint38_linear_1262_3342" x1="28.1982" y1="166.613" x2="28.1982" y2="156.627" gradientUnits="userSpaceOnUse">
<stop stop-color="#9186BB"/>
<stop offset="1" stop-color="#C7C4E1"/>
</linearGradient>
<linearGradient id="paint39_linear_1262_3342" x1="18.7869" y1="158.687" x2="37.5737" y2="158.687" gradientUnits="userSpaceOnUse">
<stop stop-color="#F57A00"/>
<stop offset="1" stop-color="#7103A4"/>
</linearGradient>
<linearGradient id="paint40_linear_1262_3342" x1="0.343926" y1="151.368" x2="36.3124" y2="150.522" gradientUnits="userSpaceOnUse">
<stop stop-color="#786FAD"/>
<stop offset="1" stop-color="#B2B3D7"/>
</linearGradient>
<linearGradient id="paint41_linear_1262_3342" x1="0" y1="150.953" x2="37.5737" y2="150.953" gradientUnits="userSpaceOnUse">
<stop stop-color="#F57A00"/>
<stop offset="1" stop-color="#7103A4"/>
</linearGradient>
<linearGradient id="paint42_linear_1262_3342" x1="2.66016" y1="150.926" x2="34.9691" y2="150.926" gradientUnits="userSpaceOnUse">
<stop stop-color="#F57A00"/>
<stop offset="1" stop-color="#7103A4"/>
</linearGradient>
<clipPath id="clip0_1262_3342">
<rect width="202" height="181" fill="white"/>
</clipPath>
</defs>
</svg>
