<svg width="226" height="215" viewBox="0 0 226 215" fill="none" xmlns="http://www.w3.org/2000/svg">
<path d="M11.8584 17.0464H16.1934C16.553 17.0464 16.8445 17.3382 16.8447 17.6978V18.6821C16.8447 19.1129 17.0892 19.4969 17.4619 19.687L17.6289 19.7563C18.0625 19.8972 18.4875 20.0626 18.9014 20.2534L19.3115 20.4526C19.6923 20.6463 20.1458 20.611 20.4863 20.3657L20.624 20.2485L21.3203 19.5522C21.5429 19.3296 21.8869 19.3013 22.1396 19.4683L22.2412 19.5522L25.3076 22.6177C25.5303 22.8404 25.5578 23.1842 25.3906 23.437L25.3076 23.5386L24.6113 24.2349C24.3068 24.5394 24.2094 24.9828 24.3379 25.3804L24.4062 25.5474V25.5483C24.6132 25.9543 24.7963 26.3718 24.9541 26.7993L25.1035 27.23V27.231C25.2549 27.6944 25.6844 28.0141 26.1768 28.0142H27.1611C27.5204 28.0142 27.8125 28.3059 27.8125 28.6655V33.0005C27.8124 33.3594 27.5211 33.6516 27.1602 33.6528H26.1768C25.746 33.6528 25.362 33.8973 25.1719 34.27L25.1035 34.437C24.9622 34.8708 24.7952 35.2947 24.6045 35.7085L24.4062 36.1196C24.2127 36.5003 24.2481 36.953 24.4932 37.2935L24.6104 37.4321L25.3066 38.1284C25.5291 38.3509 25.5574 38.694 25.3906 38.9468L25.3066 39.0493L22.2412 42.1147C21.9868 42.3691 21.5747 42.3691 21.3203 42.1147L20.624 41.4185C20.3195 41.114 19.876 41.0166 19.4785 41.145L19.3115 41.2144C18.9049 41.4214 18.4863 41.6034 18.0586 41.7612L17.6279 41.9116C17.1643 42.063 16.8447 42.4924 16.8447 42.9849V43.9692C16.8446 44.3288 16.552 44.6206 16.1924 44.6206H11.8574C11.4978 44.6206 11.2062 44.3288 11.2061 43.9692V42.9849C11.2061 42.5541 10.9616 42.1701 10.5889 41.98L10.4219 41.9116C9.98787 41.7703 9.56323 41.6034 9.14941 41.4126L8.74023 41.2144H8.73926C8.35859 41.0208 7.90589 41.0562 7.56543 41.3013L7.42676 41.4185L6.73047 42.1147C6.50794 42.3372 6.16485 42.3655 5.91211 42.1987L5.80957 42.1147L2.74414 39.0493C2.52152 38.8267 2.49315 38.4828 2.66016 38.23L2.74414 38.1284L3.44043 37.4321C3.74467 37.1278 3.84268 36.6843 3.71387 36.2866L3.64453 36.1187C3.43755 35.7122 3.25543 35.2942 3.09766 34.8667L2.94727 34.436C2.79592 33.9724 2.36653 33.6528 1.87402 33.6528H0.889648C0.529892 33.6527 0.238292 33.3609 0.238281 33.0015V28.6665C0.238281 28.3075 0.529979 28.0153 0.889648 28.0151H1.87402C2.36614 28.0151 2.79739 27.6959 2.94824 27.231L2.94727 27.23C3.08853 26.7964 3.25569 26.3722 3.44629 25.9585L3.64453 25.5483C3.83806 25.1673 3.8028 24.7141 3.55762 24.3735L3.44043 24.2349L2.74414 23.5386C2.52171 23.316 2.49342 22.9729 2.66016 22.7202L2.74414 22.6177L5.80957 19.5522C6.03218 19.3296 6.37611 19.3013 6.62891 19.4683L6.73047 19.5522L7.42676 20.2485C7.73119 20.5529 8.17534 20.651 8.57324 20.522L8.74023 20.4526C9.14699 20.2455 9.56475 20.0625 9.99219 19.9048L10.4229 19.7563V19.7554C10.8865 19.604 11.2061 19.1746 11.2061 18.6821V17.6978C11.2062 17.3382 11.4988 17.0464 11.8584 17.0464ZM14.0254 25.0562C12.5743 25.0562 11.1788 25.5966 10.1084 26.5659L9.89941 26.7651C8.80449 27.8595 8.18945 29.3443 8.18945 30.8921C8.1895 32.3435 8.73015 33.7387 9.69922 34.8091L9.89941 35.019C10.9937 36.1138 12.4778 36.7289 14.0254 36.729C15.5732 36.729 17.058 36.1133 18.1523 35.019C19.2466 33.9248 19.8618 32.4404 19.8613 30.8921L19.8545 30.6021C19.7876 29.2559 19.2561 27.9741 18.3516 26.9751L18.1523 26.7651C17.058 25.6708 15.5732 25.0562 14.0254 25.0562Z" fill="url(#paint0_linear_1262_3340)" stroke="white" stroke-width="0.476893"/>
<path d="M35.7639 9.68077V7.90462C35.7639 7.46642 35.4087 7.1113 34.9705 7.1113H34.9494C34.6181 7.1113 34.3189 6.90713 34.2076 6.59491C34.1349 6.3902 34.0512 6.18983 33.9584 5.99326C33.8167 5.69407 33.8835 5.33786 34.118 5.10383L34.1305 5.09134C34.4422 4.77912 34.4427 4.27684 34.1327 3.96733L32.8767 2.71137C32.5667 2.40186 32.0649 2.40186 31.7549 2.71137L31.7402 2.72603C31.5062 2.96007 31.15 3.0274 30.8508 2.88567C30.6542 2.79282 30.4539 2.7092 30.2492 2.63644C29.9369 2.52512 29.7328 2.22593 29.7328 1.8947V1.87678C29.7328 1.43587 29.3776 1.0802 28.9394 1.0802H27.1633C26.7251 1.0802 26.37 1.43532 26.37 1.87352V1.89416C26.37 2.22539 26.1658 2.52458 25.8536 2.6359C25.6489 2.70866 25.4485 2.79228 25.2519 2.88513C24.9527 3.02686 24.5965 2.96007 24.3625 2.72603L24.35 2.71354C24.0383 2.40186 23.5355 2.40132 23.226 2.71137L21.97 3.96733C21.6605 4.27684 21.6605 4.77911 21.97 5.08917L21.9847 5.10383C22.2187 5.33786 22.2861 5.69407 22.1443 5.99326C22.0515 6.18983 21.9679 6.3902 21.8951 6.59491C21.7838 6.90713 21.4846 7.1113 21.1534 7.1113H21.1354C20.6945 7.1113 20.3389 7.46642 20.3389 7.90462V9.68077C20.3389 10.119 20.694 10.4741 21.1322 10.4741H21.1528C21.4841 10.4741 21.7832 10.6783 21.8946 10.9905C21.9673 11.1952 22.0509 11.3961 22.1438 11.5921C22.2855 11.8913 22.2187 12.2475 21.9842 12.4816L21.9717 12.4941C21.66 12.8057 21.6594 13.3086 21.9695 13.6181L23.2255 14.874C23.535 15.1835 24.0372 15.1835 24.3473 14.874L24.362 14.8594C24.596 14.6253 24.9522 14.558 25.2514 14.6997C25.4474 14.7926 25.6483 14.8762 25.853 14.949C26.1653 15.0603 26.3694 15.3595 26.3694 15.6907V15.7086C26.3694 16.1495 26.7245 16.5052 27.1627 16.5052H28.9389C29.3771 16.5052 29.7322 16.1501 29.7322 15.7119V15.6912C29.7322 15.36 29.9364 15.0608 30.2486 14.9495C30.4533 14.8767 30.6542 14.7931 30.8503 14.7003C31.1494 14.5585 31.5057 14.6253 31.7397 14.8594L31.7522 14.8719C32.0639 15.1835 32.5667 15.1841 32.8762 14.874L34.1321 13.6181C34.4417 13.3086 34.4417 12.8063 34.1321 12.4962L34.1175 12.4816C33.8835 12.2475 33.8161 11.8913 33.9578 11.5921C34.0507 11.3956 34.1343 11.1952 34.2071 10.9905C34.3184 10.6783 34.6176 10.4741 34.9488 10.4741H34.9667C35.4082 10.4736 35.7639 10.1184 35.7639 9.68077ZM30.2274 11.0019C29.6502 11.5791 28.8672 11.9033 28.0511 11.9033C27.2344 11.9033 26.452 11.5791 25.8748 11.0019C25.2975 10.4247 24.9734 9.64168 24.9734 8.82555C24.9734 8.00942 25.2975 7.22642 25.8748 6.64921C26.452 6.072 27.235 5.74783 28.0511 5.74783C28.8672 5.74783 29.6502 6.072 30.2274 6.64921C30.8046 7.22642 31.1288 8.00942 31.1288 8.82555C31.1294 9.64168 30.8052 10.4247 30.2274 11.0019Z" stroke="white" stroke-width="0.476893" stroke-miterlimit="10"/>
<path d="M221.601 26.5392H198.399C195.265 26.5392 193.386 23.0564 195.106 20.4369L206.708 2.77642C208.264 0.407859 211.737 0.407859 213.293 2.77642L224.894 20.4369C226.615 23.0564 224.736 26.5392 221.601 26.5392Z" fill="#F57A00"/>
<path d="M208.832 16.1457L208.421 8.13109H210.955L210.527 16.1457H208.832ZM209.688 20.2387C208.883 20.2387 208.301 19.6393 208.301 18.9029C208.301 18.1665 208.883 17.5842 209.688 17.5842C210.476 17.5842 211.041 18.1665 211.041 18.9029C211.041 19.6393 210.476 20.2387 209.688 20.2387Z" fill="white"/>
<path d="M38.1388 52.2372H37.3694" stroke="url(#paint1_linear_1262_3340)" stroke-width="0.473125" stroke-linecap="round" stroke-linejoin="round"/>
<path d="M34.2695 52.2372H3.22079C1.97298 52.2372 0.961914 53.2488 0.961914 54.4961V102.031" stroke="url(#paint2_linear_1262_3340)" stroke-width="0.473125" stroke-linecap="round" stroke-linejoin="round" stroke-dasharray="1.36 2.72"/>
<path d="M0.96167 103.581V104.351" stroke="url(#paint3_linear_1262_3340)" stroke-width="0.473125" stroke-linecap="round" stroke-linejoin="round"/>
<path d="M46.3185 67.1833H120.257C122.298 67.1833 123.952 65.5294 123.952 63.4888V13.3509C123.952 11.3103 122.297 9.65576 120.257 9.65576H46.3185C44.2779 9.65576 42.6239 11.3097 42.6239 13.3503V63.4882C42.6234 65.5294 44.2779 67.1833 46.3185 67.1833Z" fill="#DBDFFF"/>
<path d="M52.1142 51.2875H114.461C115.694 51.2875 116.693 50.2884 116.693 49.0558V27.9722C116.693 26.7396 115.694 25.7405 114.461 25.7405H52.1142C50.8816 25.7405 49.8824 26.7396 49.8824 27.9722V49.0553C49.8824 50.2884 50.8816 51.2875 52.1142 51.2875Z" fill="url(#paint4_linear_1262_3340)"/>
<path d="M42.6235 19.7556H123.952V13.3509C123.952 11.3103 122.297 9.65576 120.257 9.65576H46.3187C44.2781 9.65576 42.6241 11.3097 42.6241 13.3503L42.6235 19.7556Z" fill="url(#paint5_linear_1262_3340)"/>
<path d="M63.243 15.0457C63.243 16.3255 64.2807 17.3632 65.5606 17.3632C66.8404 17.3632 67.8781 16.3255 67.8781 15.0457C67.8781 13.7658 66.8404 12.7281 65.5606 12.7281C64.2802 12.7287 63.243 13.7658 63.243 15.0457Z" fill="white"/>
<path d="M55.2908 15.0457C55.2908 16.3255 56.3284 17.3632 57.6078 17.3632C58.8876 17.3632 59.9253 16.3255 59.9253 15.0457C59.9253 13.7658 58.8876 12.7281 57.6078 12.7281C56.3279 12.7287 55.2908 13.7658 55.2908 15.0457Z" fill="#E8F4FF"/>
<path d="M47.338 15.0457C47.338 16.3255 48.3757 17.3632 49.6555 17.3632C50.9354 17.3632 51.9731 16.3255 51.9731 15.0457C51.9731 13.7658 50.9354 12.7281 49.6555 12.7281C48.3757 12.7281 47.338 13.7658 47.338 15.0457Z" fill="#CEDFFD"/>
<path d="M67.2734 43.9158L63.9573 53.8641L61.7924 51.6986L57.5918 55.8987L55.2905 53.5975L59.4906 49.3968L57.3251 47.2319L67.2734 43.9158Z" fill="#0F1E36"/>
<path d="M159.027 196.763H121.714C120.744 205.872 111.036 210.863 104.73 213.109C103.888 213.409 103.864 214.562 104.709 214.562H145.252C145.308 214.562 145.361 214.557 145.413 214.544C146.704 214.239 163.029 210.059 159.027 196.763Z" fill="#404040"/>
<path d="M155.245 196.763H109.144C106.923 205.872 96.5302 210.863 89.9148 213.109C89.0325 213.409 88.85 214.562 89.6949 214.562H136.575C136.622 214.562 136.663 214.559 136.708 214.55C138.033 214.302 158.728 210.171 155.245 196.763Z" fill="#1C1C1C"/>
<path d="M204.985 199.788H59.5004C57.2377 199.788 52.6646 197.954 52.6743 195.691L55.8829 90.1631C55.8927 87.9004 57.7351 86.0662 59.9978 86.0662H204.009C206.272 86.0662 209.557 88.5384 209.548 90.8011L209.1 195.691C209.09 197.954 207.247 199.788 204.985 199.788Z" fill="#404040"/>
<path d="M202.948 199.15H56.5481C54.2854 199.15 52.4588 197.316 52.4685 195.053L52.9165 90.1631C52.9263 87.9004 54.7681 86.0662 57.0314 86.0662H203.431C205.694 86.0662 207.52 87.9004 207.511 90.1631L207.063 195.053C207.053 197.316 205.211 199.15 202.948 199.15Z" fill="#4653B7"/>
<path d="M202.948 199.15H56.5481C54.2854 199.15 52.4588 197.316 52.4685 195.053L52.5424 177.773H207.137L207.063 195.053C207.053 197.316 205.211 199.15 202.948 199.15Z" fill="#1C1C1C"/>
<path d="M57.9376 172.814L58.2851 91.4402H202.132L201.784 172.814H57.9376Z" fill="url(#paint6_linear_1262_3340)"/>
<path d="M186.301 166.332H106.506C104.148 166.332 102.236 164.42 102.236 162.062V119.525C102.236 117.167 104.148 115.255 106.506 115.255H186.301C188.659 115.255 190.571 117.167 190.571 119.525V162.062C190.571 164.42 188.659 166.332 186.301 166.332Z" fill="#F57A00"/>
<path d="M95.2726 166.332H74.1885C72.9168 166.332 71.8856 165.301 71.8856 164.029V117.558C71.8856 116.286 72.9168 115.255 74.1885 115.255H95.2726C96.5443 115.255 97.5755 116.286 97.5755 117.558V164.029C97.5755 165.301 96.5443 166.332 95.2726 166.332Z" fill="white"/>
<path d="M186.439 102.783H76.0179C73.7357 102.783 71.8851 104.633 71.8851 106.916C71.8851 109.198 73.7351 111.049 76.0179 111.049H186.438C188.72 111.049 190.571 109.198 190.571 106.916C190.571 104.633 188.721 102.783 186.439 102.783Z" fill="white"/>
<path d="M153.211 76.1494H66.0212C61.4747 76.1494 57.7888 72.4635 57.7888 67.9169V66.7218C57.7888 62.1753 61.4747 58.4894 66.0212 58.4894H153.211V76.1494Z" fill="#4A0EB8"/>
<path d="M89.5823 65.4952C90.5874 65.4952 91.2601 66.0887 91.2601 67.2441V69.6578H90.8644V67.2758C90.8644 66.342 90.3658 65.8513 89.5269 65.8513C88.5536 65.8513 87.96 66.4765 87.96 67.4578V69.6578H87.5643V63.7858H87.96V66.3894C88.2449 65.8276 88.8147 65.4952 89.5823 65.4952ZM94.7726 69.1197L94.9388 69.3967C94.7331 69.5945 94.4007 69.6895 94.092 69.6895C93.364 69.6895 92.9683 69.2621 92.9683 68.5657V65.8671H92.2085V65.5268H92.9683V64.6247H93.364V65.5268H94.6777V65.8671H93.364V68.5262C93.364 69.0564 93.6251 69.3492 94.1316 69.3492C94.3769 69.3492 94.6064 69.2701 94.7726 69.1197ZM97.8176 69.1197L97.9838 69.3967C97.778 69.5945 97.4456 69.6895 97.137 69.6895C96.4089 69.6895 96.0132 69.2621 96.0132 68.5657V65.8671H95.2535V65.5268H96.0132V64.6247H96.4089V65.5268H97.7226V65.8671H96.4089V68.5262C96.4089 69.0564 96.6701 69.3492 97.1766 69.3492C97.4219 69.3492 97.6514 69.2701 97.8176 69.1197ZM101.161 65.4952C102.324 65.4952 103.202 66.3578 103.202 67.5923C103.202 68.8348 102.324 69.6895 101.161 69.6895C100.433 69.6895 99.8153 69.3334 99.4829 68.7161V71.1931H99.0872V65.5268H99.4671V66.5002C99.7916 65.8671 100.417 65.4952 101.161 65.4952ZM101.137 69.3334C102.087 69.3334 102.807 68.629 102.807 67.5923C102.807 66.5556 102.087 65.8513 101.137 65.8513C100.187 65.8513 99.475 66.5556 99.475 67.5923C99.475 68.629 100.187 69.3334 101.137 69.3334ZM105.472 69.6895C104.792 69.6895 104.143 69.46 103.818 69.1593L104 68.8427C104.317 69.1118 104.879 69.3413 105.488 69.3413C106.358 69.3413 106.707 69.0326 106.707 68.5657C106.707 67.3628 103.969 68.2492 103.969 66.6269C103.969 66.0017 104.491 65.4952 105.535 65.4952C106.058 65.4952 106.628 65.6535 106.952 65.8988L106.77 66.2153C106.422 65.9621 105.971 65.8434 105.528 65.8434C104.72 65.8434 104.364 66.1758 104.364 66.6189C104.364 67.8614 107.102 66.983 107.102 68.5578C107.102 69.2305 106.525 69.6895 105.472 69.6895ZM108.159 66.1679C107.977 66.1679 107.827 66.0175 107.827 65.8276C107.827 65.6376 107.977 65.4952 108.159 65.4952C108.341 65.4952 108.492 65.6376 108.492 65.8276C108.492 66.0175 108.341 66.1679 108.159 66.1679ZM108.159 69.6895C107.977 69.6895 107.827 69.5391 107.827 69.3492C107.827 69.1593 107.977 69.0168 108.159 69.0168C108.341 69.0168 108.492 69.1593 108.492 69.3492C108.492 69.5391 108.341 69.6895 108.159 69.6895ZM109.11 70.4492L111.722 62.9944H112.086L109.474 70.4492H109.11ZM111.143 70.4492L113.754 62.9944H114.118L111.507 70.4492H111.143Z" fill="white"/>
<path d="M91.2601 69.6578V69.8944C91.3907 69.8944 91.4966 69.7885 91.4966 69.6578H91.2601ZM90.8644 69.6578H90.6278C90.6278 69.7885 90.7337 69.8944 90.8644 69.8944V69.6578ZM87.96 69.6578V69.8944C88.0907 69.8944 88.1966 69.7885 88.1966 69.6578H87.96ZM87.5643 69.6578H87.3278C87.3278 69.7885 87.4337 69.8944 87.5643 69.8944V69.6578ZM87.5643 63.7858V63.5492C87.4337 63.5492 87.3278 63.6552 87.3278 63.7858H87.5643ZM87.96 63.7858H88.1966C88.1966 63.6552 88.0907 63.5492 87.96 63.5492V63.7858ZM87.96 66.3894H87.7235C87.7235 66.4989 87.7986 66.5941 87.905 66.6195C88.0115 66.645 88.1215 66.5941 88.171 66.4964L87.96 66.3894ZM89.5823 65.4952V65.7317C90.0388 65.7317 90.3921 65.8657 90.6311 66.1039C90.8696 66.3417 91.0235 66.7123 91.0235 67.2441H91.2601H91.4966C91.4966 66.6205 91.3142 66.1167 90.9651 65.7688C90.6165 65.4214 90.131 65.2586 89.5823 65.2586V65.4952ZM91.2601 67.2441H91.0235V69.6578H91.2601H91.4966V67.2441H91.2601ZM91.2601 69.6578V69.4213H90.8644V69.6578V69.8944H91.2601V69.6578ZM90.8644 69.6578H91.1009V67.2758H90.8644H90.6278V69.6578H90.8644ZM90.8644 67.2758H91.1009C91.1009 66.7685 90.9651 66.346 90.681 66.0496C90.3956 65.7519 89.9924 65.6147 89.5269 65.6147V65.8513V66.0879C89.9003 66.0879 90.1659 66.196 90.3395 66.3771C90.5144 66.5595 90.6278 66.8493 90.6278 67.2758H90.8644ZM89.5269 65.8513V65.6147C88.9883 65.6147 88.5309 65.789 88.2085 66.122C87.887 66.4541 87.7235 66.9195 87.7235 67.4578H87.96H88.1966C88.1966 67.0148 88.3298 66.6769 88.5484 66.4511C88.7661 66.2262 89.0922 66.0879 89.5269 66.0879V65.8513ZM87.96 67.4578H87.7235V69.6578H87.96H88.1966V67.4578H87.96ZM87.96 69.6578V69.4213H87.5643V69.6578V69.8944H87.96V69.6578ZM87.5643 69.6578H87.8009V63.7858H87.5643H87.3278V69.6578H87.5643ZM87.5643 63.7858V64.0224H87.96V63.7858V63.5492H87.5643V63.7858ZM87.96 63.7858H87.7235V66.3894H87.96H88.1966V63.7858H87.96ZM87.96 66.3894L88.171 66.4964C88.409 66.027 88.8883 65.7317 89.5823 65.7317V65.4952V65.2586C88.7411 65.2586 88.0808 65.6281 87.749 66.2825L87.96 66.3894ZM94.7726 69.1197L94.9755 68.998C94.9391 68.9373 94.8774 68.8961 94.8074 68.8857C94.7374 68.8753 94.6664 68.8968 94.6139 68.9443L94.7726 69.1197ZM94.9388 69.3967L95.1028 69.5672C95.1823 69.4908 95.1984 69.3695 95.1417 69.275L94.9388 69.3967ZM92.9683 65.8671H93.2048C93.2048 65.7365 93.0989 65.6306 92.9683 65.6306V65.8671ZM92.2085 65.8671H91.972C91.972 65.9978 92.0779 66.1037 92.2085 66.1037V65.8671ZM92.2085 65.5268V65.2903C92.0779 65.2903 91.972 65.3962 91.972 65.5268H92.2085ZM92.9683 65.5268V65.7634C93.0989 65.7634 93.2048 65.6575 93.2048 65.5268H92.9683ZM92.9683 64.6247V64.3881C92.8376 64.3881 92.7317 64.494 92.7317 64.6247H92.9683ZM93.364 64.6247H93.6005C93.6005 64.494 93.4946 64.3881 93.364 64.3881V64.6247ZM93.364 65.5268H93.1274C93.1274 65.6575 93.2333 65.7634 93.364 65.7634V65.5268ZM94.6777 65.5268H94.9142C94.9142 65.3962 94.8083 65.2903 94.6777 65.2903V65.5268ZM94.6777 65.8671V66.1037C94.8083 66.1037 94.9142 65.9978 94.9142 65.8671H94.6777ZM93.364 65.8671V65.6306C93.2333 65.6306 93.1274 65.7365 93.1274 65.8671H93.364ZM94.7726 69.1197L94.5698 69.2414L94.736 69.5184L94.9388 69.3967L95.1417 69.275L94.9755 68.998L94.7726 69.1197ZM94.9388 69.3967L94.7748 69.2262C94.6278 69.3675 94.3635 69.4529 94.092 69.4529V69.6895V69.9261C94.4379 69.9261 94.8383 69.8215 95.1028 69.5672L94.9388 69.3967ZM94.092 69.6895V69.4529C93.7744 69.4529 93.5608 69.3607 93.4261 69.2232C93.2906 69.0849 93.2048 68.87 93.2048 68.5657H92.9683H92.7317C92.7317 68.9579 92.8438 69.3048 93.0881 69.5543C93.3333 69.8046 93.6816 69.9261 94.092 69.9261V69.6895ZM92.9683 68.5657H93.2048V65.8671H92.9683H92.7317V68.5657H92.9683ZM92.9683 65.8671V65.6306H92.2085V65.8671V66.1037H92.9683V65.8671ZM92.2085 65.8671H92.4451V65.5268H92.2085H91.972V65.8671H92.2085ZM92.2085 65.5268V65.7634H92.9683V65.5268V65.2903H92.2085V65.5268ZM92.9683 65.5268H93.2048V64.6247H92.9683H92.7317V65.5268H92.9683ZM92.9683 64.6247V64.8612H93.364V64.6247V64.3881H92.9683V64.6247ZM93.364 64.6247H93.1274V65.5268H93.364H93.6005V64.6247H93.364ZM93.364 65.5268V65.7634H94.6777V65.5268V65.2903H93.364V65.5268ZM94.6777 65.5268H94.4411V65.8671H94.6777H94.9142V65.5268H94.6777ZM94.6777 65.8671V65.6306H93.364V65.8671V66.1037H94.6777V65.8671ZM93.364 65.8671H93.1274V68.5262H93.364H93.6005V65.8671H93.364ZM93.364 68.5262H93.1274C93.1274 68.8269 93.2014 69.0989 93.3839 69.2969C93.5695 69.4981 93.8327 69.5858 94.1316 69.5858V69.3492V69.1126C93.9241 69.1126 93.8034 69.0539 93.7318 68.9762C93.6571 68.8952 93.6005 68.7556 93.6005 68.5262H93.364ZM94.1316 69.3492V69.5858C94.4261 69.5858 94.7151 69.4907 94.9313 69.2951L94.7726 69.1197L94.6139 68.9443C94.4977 69.0494 94.3277 69.1126 94.1316 69.1126V69.3492ZM97.8176 69.1197L98.0204 68.998C97.984 68.9373 97.9223 68.8961 97.8523 68.8857C97.7823 68.8753 97.7113 68.8968 97.6589 68.9443L97.8176 69.1197ZM97.9838 69.3967L98.1477 69.5672C98.2272 69.4908 98.2434 69.3695 98.1866 69.275L97.9838 69.3967ZM96.0132 65.8671H96.2498C96.2498 65.7365 96.1439 65.6306 96.0132 65.6306V65.8671ZM95.2535 65.8671H95.0169C95.0169 65.9978 95.1229 66.1037 95.2535 66.1037V65.8671ZM95.2535 65.5268V65.2903C95.1229 65.2903 95.0169 65.3962 95.0169 65.5268H95.2535ZM96.0132 65.5268V65.7634C96.1439 65.7634 96.2498 65.6575 96.2498 65.5268H96.0132ZM96.0132 64.6247V64.3881C95.8826 64.3881 95.7767 64.494 95.7767 64.6247H96.0132ZM96.4089 64.6247H96.6455C96.6455 64.494 96.5396 64.3881 96.4089 64.3881V64.6247ZM96.4089 65.5268H96.1724C96.1724 65.6575 96.2783 65.7634 96.4089 65.7634V65.5268ZM97.7226 65.5268H97.9592C97.9592 65.3962 97.8533 65.2903 97.7226 65.2903V65.5268ZM97.7226 65.8671V66.1037C97.8533 66.1037 97.9592 65.9978 97.9592 65.8671H97.7226ZM96.4089 65.8671V65.6306C96.2783 65.6306 96.1724 65.7365 96.1724 65.8671H96.4089ZM97.8176 69.1197L97.6147 69.2414L97.7809 69.5184L97.9838 69.3967L98.1866 69.275L98.0204 68.998L97.8176 69.1197ZM97.9838 69.3967L97.8198 69.2262C97.6728 69.3675 97.4084 69.4529 97.137 69.4529V69.6895V69.9261C97.4828 69.9261 97.8832 69.8215 98.1477 69.5672L97.9838 69.3967ZM97.137 69.6895V69.4529C96.8193 69.4529 96.6058 69.3607 96.4711 69.2232C96.3356 69.0849 96.2498 68.87 96.2498 68.5657H96.0132H95.7767C95.7767 68.9579 95.8887 69.3048 96.1331 69.5543C96.3783 69.8046 96.7266 69.9261 97.137 69.9261V69.6895ZM96.0132 68.5657H96.2498V65.8671H96.0132H95.7767V68.5657H96.0132ZM96.0132 65.8671V65.6306H95.2535V65.8671V66.1037H96.0132V65.8671ZM95.2535 65.8671H95.4901V65.5268H95.2535H95.0169V65.8671H95.2535ZM95.2535 65.5268V65.7634H96.0132V65.5268V65.2903H95.2535V65.5268ZM96.0132 65.5268H96.2498V64.6247H96.0132H95.7767V65.5268H96.0132ZM96.0132 64.6247V64.8612H96.4089V64.6247V64.3881H96.0132V64.6247ZM96.4089 64.6247H96.1724V65.5268H96.4089H96.6455V64.6247H96.4089ZM96.4089 65.5268V65.7634H97.7226V65.5268V65.2903H96.4089V65.5268ZM97.7226 65.5268H97.486V65.8671H97.7226H97.9592V65.5268H97.7226ZM97.7226 65.8671V65.6306H96.4089V65.8671V66.1037H97.7226V65.8671ZM96.4089 65.8671H96.1724V68.5262H96.4089H96.6455V65.8671H96.4089ZM96.4089 68.5262H96.1724C96.1724 68.8269 96.2464 69.0989 96.4289 69.2969C96.6144 69.4981 96.8776 69.5858 97.1766 69.5858V69.3492V69.1126C96.969 69.1126 96.8484 69.0539 96.7767 68.9762C96.7021 68.8952 96.6455 68.7556 96.6455 68.5262H96.4089ZM97.1766 69.3492V69.5858C97.4711 69.5858 97.7601 69.4907 97.9763 69.2951L97.8176 69.1197L97.6589 68.9443C97.5427 69.0494 97.3727 69.1126 97.1766 69.1126V69.3492ZM99.4829 68.7161L99.6912 68.6039C99.6398 68.5085 99.5302 68.4602 99.4251 68.4867C99.32 68.5132 99.2464 68.6077 99.2464 68.7161H99.4829ZM99.4829 71.1931V71.4297C99.6136 71.4297 99.7195 71.3238 99.7195 71.1931H99.4829ZM99.0872 71.1931H98.8507C98.8507 71.3238 98.9566 71.4297 99.0872 71.4297V71.1931ZM99.0872 65.5268V65.2903C98.9566 65.2903 98.8507 65.3962 98.8507 65.5268H99.0872ZM99.4671 65.5268H99.7037C99.7037 65.3962 99.5978 65.2903 99.4671 65.2903V65.5268ZM99.4671 66.5002H99.2305C99.2305 66.6095 99.3054 66.7046 99.4116 66.7302C99.5178 66.7558 99.6278 66.7054 99.6776 66.6081L99.4671 66.5002ZM101.161 65.4952V65.7317C102.19 65.7317 102.966 66.4854 102.966 67.5923H103.202H103.439C103.439 66.2301 102.458 65.2586 101.161 65.2586V65.4952ZM103.202 67.5923H102.966C102.966 68.7066 102.191 69.4529 101.161 69.4529V69.6895V69.9261C102.457 69.9261 103.439 68.963 103.439 67.5923H103.202ZM101.161 69.6895V69.4529C100.515 69.4529 99.98 69.1403 99.6912 68.6039L99.4829 68.7161L99.2746 68.8282C99.6506 69.5264 100.351 69.9261 101.161 69.9261V69.6895ZM99.4829 68.7161H99.2464V71.1931H99.4829H99.7195V68.7161H99.4829ZM99.4829 71.1931V70.9566H99.0872V71.1931V71.4297H99.4829V71.1931ZM99.0872 71.1931H99.3238V65.5268H99.0872H98.8507V71.1931H99.0872ZM99.0872 65.5268V65.7634H99.4671V65.5268V65.2903H99.0872V65.5268ZM99.4671 65.5268H99.2305V66.5002H99.4671H99.7037V65.5268H99.4671ZM99.4671 66.5002L99.6776 66.6081C99.9595 66.0581 100.501 65.7317 101.161 65.7317V65.4952V65.2586C100.333 65.2586 99.6236 65.6761 99.2566 66.3923L99.4671 66.5002ZM101.137 69.3334V69.5699C102.222 69.5699 103.043 68.7546 103.043 67.5923H102.807H102.57C102.57 68.5035 101.951 69.0968 101.137 69.0968V69.3334ZM102.807 67.5923H103.043C103.043 66.4301 102.222 65.6147 101.137 65.6147V65.8513V66.0879C101.951 66.0879 102.57 66.6811 102.57 67.5923H102.807ZM101.137 65.8513V65.6147C100.05 65.6147 99.2385 66.4316 99.2385 67.5923H99.475H99.7116C99.7116 66.6796 100.324 66.0879 101.137 66.0879V65.8513ZM99.475 67.5923H99.2385C99.2385 68.7531 100.05 69.5699 101.137 69.5699V69.3334V69.0968C100.324 69.0968 99.7116 68.505 99.7116 67.5923H99.475ZM103.818 69.1593L103.613 69.0413C103.558 69.1369 103.576 69.2578 103.657 69.3328L103.818 69.1593ZM104 68.8427L104.153 68.6625C104.1 68.617 104.029 68.5976 103.96 68.6097C103.89 68.6217 103.83 68.6639 103.795 68.7248L104 68.8427ZM106.952 65.8988L107.157 66.0167C107.217 65.9134 107.19 65.782 107.095 65.7101L106.952 65.8988ZM106.77 66.2153L106.631 66.4067C106.685 66.4461 106.754 66.4607 106.819 66.4467C106.885 66.4327 106.942 66.3915 106.975 66.3333L106.77 66.2153ZM105.472 69.6895V69.4529C104.831 69.4529 104.247 69.2342 103.979 68.9858L103.818 69.1593L103.657 69.3328C104.038 69.6858 104.752 69.9261 105.472 69.9261V69.6895ZM103.818 69.1593L104.023 69.2772L104.205 68.9606L104 68.8427L103.795 68.7248L103.613 69.0413L103.818 69.1593ZM104 68.8427L103.847 69.023C104.209 69.3307 104.826 69.5778 105.488 69.5778V69.3413V69.1047C104.931 69.1047 104.424 68.8928 104.153 68.6625L104 68.8427ZM105.488 69.3413V69.5778C105.944 69.5778 106.305 69.4982 106.558 69.3231C106.826 69.1379 106.943 68.8666 106.943 68.5657H106.707H106.47C106.47 68.7318 106.413 68.8483 106.289 68.9341C106.15 69.0301 105.902 69.1047 105.488 69.1047V69.3413ZM106.707 68.5657H106.943C106.943 68.3664 106.885 68.1957 106.774 68.0563C106.667 67.9214 106.522 67.8311 106.373 67.7664C106.085 67.6416 105.706 67.5835 105.382 67.5213C105.036 67.4548 104.737 67.3819 104.524 67.2457C104.422 67.1805 104.345 67.104 104.292 67.0108C104.24 66.9179 104.205 66.7953 104.205 66.6269H103.969H103.732C103.732 66.864 103.782 67.0686 103.88 67.2424C103.977 67.4159 104.114 67.5458 104.269 67.6445C104.569 67.8359 104.954 67.9208 105.293 67.9859C105.654 68.0552 105.959 68.1025 106.185 68.2005C106.292 68.2472 106.362 68.2977 106.404 68.3509C106.443 68.3997 106.47 68.4643 106.47 68.5657H106.707ZM103.969 66.6269H104.205C104.205 66.3857 104.303 66.1719 104.506 66.0127C104.714 65.8498 105.049 65.7317 105.535 65.7317V65.4952V65.2586C104.977 65.2586 104.529 65.3938 104.214 65.6404C103.895 65.8908 103.732 66.2429 103.732 66.6269H103.969ZM105.535 65.4952V65.7317C106.023 65.7317 106.538 65.8822 106.809 66.0875L106.952 65.8988L107.095 65.7101C106.717 65.4248 106.092 65.2586 105.535 65.2586V65.4952ZM106.952 65.8988L106.747 65.7809L106.565 66.0974L106.77 66.2153L106.975 66.3333L107.157 66.0167L106.952 65.8988ZM106.77 66.2153L106.909 66.024C106.512 65.7354 106.009 65.6068 105.528 65.6068V65.8434V66.08C105.932 66.08 106.331 66.1888 106.631 66.4067L106.77 66.2153ZM105.528 65.8434V65.6068C105.096 65.6068 104.749 65.695 104.504 65.8738C104.249 66.0595 104.128 66.3265 104.128 66.6189H104.364H104.601C104.601 66.4682 104.657 66.3474 104.783 66.2561C104.917 66.158 105.152 66.08 105.528 66.08V65.8434ZM104.364 66.6189H104.128C104.128 66.8213 104.185 66.9951 104.294 67.138C104.4 67.2771 104.544 67.3716 104.694 67.4399C104.983 67.5717 105.363 67.633 105.688 67.696C106.036 67.7633 106.336 67.834 106.55 67.9665C106.653 68.0298 106.729 68.1033 106.78 68.192C106.831 68.2801 106.866 68.3965 106.866 68.5578H107.102H107.339C107.339 68.3254 107.288 68.1248 107.189 67.9547C107.091 67.7851 106.953 67.6592 106.799 67.5639C106.5 67.3793 106.115 67.2968 105.778 67.2315C105.419 67.162 105.114 67.1114 104.89 67.0093C104.783 66.9606 104.713 66.9076 104.67 66.8507C104.629 66.7977 104.601 66.7272 104.601 66.6189H104.364ZM107.102 68.5578H106.866C106.866 68.8178 106.758 69.0294 106.544 69.184C106.321 69.3443 105.968 69.4529 105.472 69.4529V69.6895V69.9261C106.029 69.9261 106.491 69.8052 106.82 69.5678C107.158 69.3247 107.339 68.9705 107.339 68.5578H107.102ZM108.159 66.1679V65.9313C108.111 65.9313 108.063 65.8905 108.063 65.8276H107.827H107.59C107.59 66.1445 107.843 66.4044 108.159 66.4044V66.1679ZM107.827 65.8276H108.063C108.063 65.7719 108.104 65.7317 108.159 65.7317V65.4952V65.2586C107.85 65.2586 107.59 65.5033 107.59 65.8276H107.827ZM108.159 65.4952V65.7317C108.214 65.7317 108.255 65.7719 108.255 65.8276H108.492H108.728C108.728 65.5033 108.468 65.2586 108.159 65.2586V65.4952ZM108.492 65.8276H108.255C108.255 65.8905 108.207 65.9313 108.159 65.9313V66.1679V66.4044C108.475 66.4044 108.728 66.1445 108.728 65.8276H108.492ZM108.159 69.6895V69.4529C108.111 69.4529 108.063 69.4121 108.063 69.3492H107.827H107.59C107.59 69.6661 107.843 69.9261 108.159 69.9261V69.6895ZM107.827 69.3492H108.063C108.063 69.2936 108.104 69.2534 108.159 69.2534V69.0168V68.7803C107.85 68.7803 107.59 69.0249 107.59 69.3492H107.827ZM108.159 69.0168V69.2534C108.214 69.2534 108.255 69.2936 108.255 69.3492H108.492H108.728C108.728 69.0249 108.468 68.7803 108.159 68.7803V69.0168ZM108.492 69.3492H108.255C108.255 69.4121 108.207 69.4529 108.159 69.4529V69.6895V69.9261C108.475 69.9261 108.728 69.6661 108.728 69.3492H108.492ZM109.11 70.4492L108.887 70.371C108.862 70.4434 108.873 70.5235 108.917 70.5861C108.962 70.6486 109.033 70.6858 109.11 70.6858V70.4492ZM111.722 62.9944V62.7579C111.621 62.7579 111.532 62.8214 111.498 62.9162L111.722 62.9944ZM112.086 62.9944L112.309 63.0726C112.334 63.0003 112.323 62.9201 112.279 62.8576C112.234 62.795 112.162 62.7579 112.086 62.7579V62.9944ZM109.474 70.4492V70.6858C109.575 70.6858 109.664 70.6223 109.697 70.5274L109.474 70.4492ZM109.11 70.4492L109.333 70.5274L111.945 63.0726L111.722 62.9944L111.498 62.9162L108.887 70.371L109.11 70.4492ZM111.722 62.9944V63.231H112.086V62.9944V62.7579H111.722V62.9944ZM112.086 62.9944L111.862 62.9162L109.251 70.371L109.474 70.4492L109.697 70.5274L112.309 63.0726L112.086 62.9944ZM109.474 70.4492V70.2127H109.11V70.4492V70.6858H109.474V70.4492ZM111.143 70.4492L110.919 70.371C110.894 70.4434 110.905 70.5235 110.95 70.5861C110.994 70.6486 111.066 70.6858 111.143 70.6858V70.4492ZM113.754 62.9944V62.7579C113.654 62.7579 113.564 62.8214 113.531 62.9162L113.754 62.9944ZM114.118 62.9944L114.342 63.0726C114.367 63.0003 114.356 62.9201 114.311 62.8576C114.267 62.795 114.195 62.7579 114.118 62.7579V62.9944ZM111.507 70.4492V70.6858C111.607 70.6858 111.697 70.6223 111.73 70.5274L111.507 70.4492ZM111.143 70.4492L111.366 70.5274L113.977 63.0726L113.754 62.9944L113.531 62.9162L110.919 70.371L111.143 70.4492ZM113.754 62.9944V63.231H114.118V62.9944V62.7579H113.754V62.9944ZM114.118 62.9944L113.895 62.9162L111.283 70.371L111.507 70.4492L111.73 70.5274L114.342 63.0726L114.118 62.9944ZM111.507 70.4492V70.2127H111.143V70.4492V70.6858H111.507V70.4492Z" fill="white"/>
<path d="M174.148 104.025C163.713 102.894 154.167 97.7255 147.483 89.4937C141.625 82.2777 138.591 73.176 138.591 63.882V33.9334C138.591 33.8965 138.618 33.8655 138.655 33.8606C151.274 32.3261 163.461 27.8903 174.117 20.9361C174.141 20.9204 174.172 20.9204 174.197 20.9361C184.85 27.8903 197.038 32.3261 209.66 33.8606C209.697 33.865 209.724 33.8959 209.724 33.9334V63.8825C209.724 73.1754 206.69 82.2761 200.834 89.4915C194.151 97.725 184.602 102.894 174.166 104.026C174.16 104.027 174.154 104.027 174.148 104.025Z" fill="#BAC6FC"/>
<path d="M174.168 97.9849C174.161 97.986 174.153 97.986 174.146 97.9849C166.294 96.9423 159.055 93.1745 153.685 87.3187C147.951 81.065 144.792 72.9483 144.792 64.4628V39.2861C144.792 39.2508 144.817 39.2209 144.851 39.2144C155.125 37.208 165.076 33.4722 174.121 28.2197C174.143 28.2067 174.171 28.2067 174.193 28.2197C183.236 33.4727 193.186 37.208 203.463 39.2144C203.497 39.2209 203.522 39.2513 203.522 39.2861V64.4628C203.522 72.9477 200.364 81.0645 194.629 87.3187C189.26 93.1739 182.021 96.9423 174.168 97.9849Z" fill="url(#paint7_linear_1262_3340)"/>
<path d="M162.997 77.8587L171.99 85.1898L188.263 70.9567" stroke="white" stroke-width="4.05545" stroke-miterlimit="10" stroke-linecap="round" stroke-linejoin="round"/>
<path d="M152.229 57.7488C151.844 57.2747 151.651 56.8524 151.651 56.4821C151.651 56.0969 151.97 55.5932 152.607 54.9709C152.977 54.6154 153.37 54.4376 153.785 54.4376C154.199 54.4376 154.777 54.808 155.518 55.5487C155.725 55.8006 156.022 56.045 156.407 56.2821C156.792 56.5043 157.148 56.6154 157.474 56.6154C158.851 56.6154 159.54 56.0524 159.54 54.9265C159.54 54.5857 159.348 54.3042 158.962 54.082C158.592 53.845 158.125 53.6746 157.562 53.5709C156.999 53.4672 156.392 53.3042 155.74 53.082C155.088 52.8449 154.481 52.5709 153.918 52.2597C153.355 51.9486 152.881 51.4597 152.496 50.793C152.125 50.1115 151.94 49.2967 151.94 48.3485C151.94 47.0448 152.422 45.9114 153.385 44.9484C154.362 43.9706 155.688 43.4817 157.362 43.4817C158.251 43.4817 159.059 43.6002 159.785 43.8373C160.525 44.0595 161.037 44.2892 161.318 44.5262L161.874 44.9484C162.333 45.3781 162.563 45.741 162.563 46.0373C162.563 46.3337 162.385 46.7411 162.029 47.2596C161.525 48.0004 161.007 48.3707 160.474 48.3707C160.162 48.3707 159.777 48.2226 159.318 47.9263C159.274 47.8967 159.185 47.8226 159.051 47.7041C158.933 47.5855 158.822 47.4892 158.718 47.4152C158.407 47.2226 158.007 47.1263 157.518 47.1263C157.044 47.1263 156.644 47.2448 156.318 47.4818C156.007 47.7041 155.851 48.0226 155.851 48.4374C155.851 48.8374 156.036 49.1634 156.407 49.4152C156.792 49.6671 157.266 49.8374 157.829 49.9263C158.392 50.0152 159.007 50.156 159.674 50.3486C160.34 50.5264 160.955 50.7486 161.518 51.0153C162.081 51.2819 162.548 51.7486 162.918 52.4153C163.303 53.0672 163.496 53.8746 163.496 54.8376C163.496 55.8006 163.303 56.6524 162.918 57.3932C162.533 58.1192 162.029 58.6821 161.407 59.0821C160.207 59.8673 158.925 60.2599 157.562 60.2599C156.866 60.2599 156.207 60.1785 155.585 60.0155C154.962 59.8377 154.459 59.6229 154.073 59.371C153.288 58.8969 152.74 58.4377 152.429 57.9932L152.229 57.7488ZM165.185 57.7488C164.8 57.2747 164.607 56.8524 164.607 56.4821C164.607 56.0969 164.926 55.5932 165.563 54.9709C165.933 54.6154 166.326 54.4376 166.741 54.4376C167.155 54.4376 167.733 54.808 168.474 55.5487C168.681 55.8006 168.978 56.045 169.363 56.2821C169.748 56.5043 170.104 56.6154 170.43 56.6154C171.807 56.6154 172.496 56.0524 172.496 54.9265C172.496 54.5857 172.304 54.3042 171.919 54.082C171.548 53.845 171.081 53.6746 170.518 53.5709C169.956 53.4672 169.348 53.3042 168.696 53.082C168.044 52.8449 167.437 52.5709 166.874 52.2597C166.311 51.9486 165.837 51.4597 165.452 50.793C165.081 50.1115 164.896 49.2967 164.896 48.3485C164.896 47.0448 165.378 45.9114 166.341 44.9484C167.318 43.9706 168.644 43.4817 170.318 43.4817C171.207 43.4817 172.015 43.6002 172.741 43.8373C173.482 44.0595 173.993 44.2892 174.274 44.5262L174.83 44.9484C175.289 45.3781 175.519 45.741 175.519 46.0373C175.519 46.3337 175.341 46.7411 174.985 47.2596C174.482 48.0004 173.963 48.3707 173.43 48.3707C173.119 48.3707 172.733 48.2226 172.274 47.9263C172.23 47.8967 172.141 47.8226 172.007 47.7041C171.889 47.5855 171.778 47.4892 171.674 47.4152C171.363 47.2226 170.963 47.1263 170.474 47.1263C170 47.1263 169.6 47.2448 169.274 47.4818C168.963 47.7041 168.807 48.0226 168.807 48.4374C168.807 48.8374 168.993 49.1634 169.363 49.4152C169.748 49.6671 170.222 49.8374 170.785 49.9263C171.348 50.0152 171.963 50.156 172.63 50.3486C173.296 50.5264 173.911 50.7486 174.474 51.0153C175.037 51.2819 175.504 51.7486 175.874 52.4153C176.259 53.0672 176.452 53.8746 176.452 54.8376C176.452 55.8006 176.259 56.6524 175.874 57.3932C175.489 58.1192 174.985 58.6821 174.363 59.0821C173.163 59.8673 171.881 60.2599 170.518 60.2599C169.822 60.2599 169.163 60.1785 168.541 60.0155C167.918 59.8377 167.415 59.6229 167.03 59.371C166.244 58.8969 165.696 58.4377 165.385 57.9932L165.185 57.7488ZM181.83 56.7487H187.875C188.364 56.7487 188.719 56.808 188.941 56.9265C189.164 57.0302 189.312 57.2006 189.386 57.4377C189.46 57.6747 189.497 57.9932 189.497 58.3932C189.497 58.7784 189.46 59.0895 189.386 59.3266C189.312 59.5636 189.186 59.7266 189.008 59.8155C188.727 59.9636 188.341 60.0377 187.852 60.0377H179.852C178.815 60.0377 178.208 59.7562 178.03 59.1933C177.941 58.9562 177.897 58.5784 177.897 58.0599V45.704C177.897 45.3633 177.904 45.1114 177.919 44.9484C177.948 44.7706 178.023 44.5706 178.141 44.3484C178.349 43.9484 178.926 43.7484 179.874 43.7484C180.912 43.7484 181.526 44.0225 181.719 44.5706C181.793 44.8225 181.83 45.2077 181.83 45.7262V56.7487Z" fill="white"/>
<path d="M11.5676 131.883L14.3114 133.118C14.3114 133.118 15.2188 135.242 15.6423 135.732C16.0658 136.222 16.8065 137.336 16.3303 138.79C15.8541 140.243 14.7431 142.994 14.7431 142.994C14.7431 142.994 12.8632 140.088 12.6656 138.79C12.4679 137.492 12.4679 136.487 12.0449 135.481C11.6208 134.476 11.5676 131.883 11.5676 131.883Z" fill="#FEB8A6"/>
<path d="M14.1855 90.2554C11.7051 92.0456 4.27413 107.645 1.42718 114.351C0.872232 115.658 0.682725 119.374 1.60528 121.335C4.37241 127.22 10.6104 136.593 10.6104 136.593C10.6104 136.593 13.0479 135.54 14.3115 133.118L9.11497 118.907C9.11497 118.907 18.2205 108.881 20.2394 104.351C23.4241 97.2041 14.1855 90.2554 14.1855 90.2554Z" fill="#A535C5"/>
<path d="M65.0847 74.0616C65.0847 74.0616 66.4096 70.8634 66.7153 70.2232C67.021 69.583 68.6739 67.4653 69.2289 67.127C69.7838 66.7887 71.0778 66.5199 71.1457 66.6801C71.2136 66.8408 71.8434 67.1645 72.0818 67.6629C72.3392 68.201 72.2963 68.6083 72.8322 69.7926C73.1819 70.5647 72.3723 71.6969 71.693 72.5298C71.0137 73.3628 70.7308 73.7695 69.7458 74.2387C68.7614 74.7078 67.7992 75.8041 67.7199 75.9757L65.0847 74.0616Z" fill="#FEB8A6"/>
<path d="M13.6348 210.248V214.5H19.5269C19.5269 214.5 19.4242 212.819 17.6253 212.251L17.5959 210.248H13.6348Z" fill="white"/>
<path d="M34.0201 210.248V214.5H39.461C39.461 214.5 38.9848 212.825 37.4541 212.374L37.4405 210.248H34.0201Z" fill="white"/>
<path d="M16.5528 128.904C16.5528 128.904 13.5505 142.427 13.4984 156.956C13.4463 171.484 13.2964 210.236 13.2964 210.236H18.532C18.532 210.236 24.4138 172.937 26.6129 163.597C28.8121 154.258 32.0022 126.932 32.0022 126.932L16.5528 128.904Z" fill="#1B1425"/>
<path d="M26.4486 143.744C26.4486 143.744 28.8117 165.881 29.0317 170.239C29.2516 174.597 33.2415 210.214 33.2415 210.214C33.2415 210.214 38.1074 210.363 38.1074 210.214C38.1074 210.066 39.7966 172.417 40.4683 161.677C41.1406 150.937 39.6435 140.348 39.6587 138.616C39.6886 135.222 36.6201 126.829 36.6201 126.829L30.1025 128.904L26.4486 143.744Z" fill="#1B1425"/>
<path d="M28.4347 65.6401C29.6684 65.9616 30.6182 67.5922 30.6182 67.5922C30.6182 67.5922 31.6151 69.4705 32.3188 70.9148C33.0226 72.3587 34.6668 73.1661 34.6287 73.6141C34.5913 74.0621 33.7127 74.3308 33.8838 74.8901C34.0548 75.4489 34.3078 77.1333 34.6478 78.2448C34.9877 79.3558 33.9185 79.8575 32.9047 80.255C31.8909 80.6524 30.6068 81.3073 30.5134 81.8595C30.4205 82.4123 31.5939 87.4188 31.5939 87.4188L18.3132 88.7421C18.3132 88.7421 23.0829 86.4365 23.0753 86.0575C23.058 85.1393 22.9543 83.3495 22.452 81.853C21.7423 79.7386 20.8811 77.2077 20.8811 77.2077C20.8811 77.2077 19.9439 72.4287 22.257 69.7126C24.5702 66.9971 28.4347 65.6401 28.4347 65.6401Z" fill="#FEB8A6"/>
<path d="M27.0909 68.6713C27.2619 68.5974 29.4996 67.8291 30.584 67.0004C31.6684 66.1718 31.6005 65.2835 31.1987 64.9696C30.3956 64.3419 28.3566 64.5287 25.7231 64.1986C23.0895 63.8684 18.6966 65.2118 18.1808 68.9504C18.1808 68.9504 15.5923 71.0523 16.1407 73.4171C16.6892 75.7818 17.457 76.5372 19.0436 77.7692C20.6482 79.0154 22.4515 81.8531 22.4515 81.8531C22.4515 81.8531 23.8633 81.5355 25.1963 81.0403C26.5294 80.545 27.1968 78.158 27.4628 77.0286C27.4628 77.0286 25.0269 76.1142 25.0698 74.4417C25.1127 72.7693 27.0702 73.1885 27.7881 73.523C28.3566 73.7879 29.284 74.9869 29.284 74.9869L30.1871 74.7979C30.1871 74.7979 29.2895 73.6517 28.9767 72.4864C28.8551 72.0335 28.9056 70.6733 28.766 70.2954C28.2659 68.9466 27.0909 68.6713 27.0909 68.6713Z" fill="#202020"/>
<path d="M21.0221 87.2299C21.0221 87.2299 22.322 87.7544 24.8703 87.4189C29.3055 86.8346 30.6782 86.063 30.6782 86.063L40.0064 86.2259C40.0064 86.2259 39.8153 99.2269 39.9972 104.572C40.1791 109.917 40.771 133.441 40.9534 135.222C40.9534 135.222 38.6571 139.099 26.8072 138.769C19.923 138.578 14.9562 136.59 14.9562 136.59C14.9562 136.59 13.5075 116.153 13.2848 111.476C13.0622 106.799 12.6061 92.4107 14.1862 90.2555C15.0024 89.1413 21.0221 87.2299 21.0221 87.2299Z" fill="#A535C5"/>
<path d="M36.8898 86.1944C36.8898 86.1944 30.3396 96.5299 38.2718 96.8139C45.7207 97.0805 56.3075 94.3595 56.3075 94.3595L69.0333 77.7312C69.0333 77.7312 66.7032 73.3329 65.1133 73.2998L52.8774 85.6645C52.8774 85.6645 47.2009 86.3856 36.8898 86.1944Z" fill="#A535C5"/>
<path d="M69.4136 67.6402C69.601 67.4762 69.229 67.1276 69.229 67.1276C69.229 67.1276 70.5137 66.1192 71.5205 65.3232C72.5266 64.5277 73.3694 63.4509 73.9308 63.2169C74.4923 62.9828 74.6329 63.4276 74.4923 63.755C74.3517 64.0824 71.9516 66.4923 71.6839 67.1015C71.4162 67.7107 71.6839 68.9971 71.6839 68.9971L69.7883 68.3651L69.4136 67.6402Z" fill="#FEB8A6"/>
<path d="M157.393 136.325H155.687V131.814C155.687 126.775 151.587 122.675 146.547 122.675C141.507 122.675 137.407 126.775 137.407 131.814V136.325H135.413C134.163 136.325 133.15 137.338 133.15 138.589V145.659C133.15 152.978 139.084 158.912 146.403 158.912C153.723 158.912 159.657 152.978 159.657 145.659V138.589C159.657 137.339 158.644 136.325 157.393 136.325ZM140.317 131.814C140.317 128.379 143.112 125.584 146.547 125.584C149.983 125.584 152.777 128.379 152.777 131.814V136.325H140.317V131.814H140.317ZM147.854 147.14V151.369C147.854 152.071 147.285 152.64 146.583 152.64H146.224C145.522 152.64 144.953 152.071 144.953 151.369V147.14C143.811 146.562 143.058 145.33 143.196 143.935C143.344 142.443 144.545 141.225 146.035 141.06C147.981 140.845 149.628 142.362 149.628 144.264C149.628 145.521 148.905 146.608 147.854 147.14Z" fill="white"/>
<path d="M132.646 29.2837H95.3757C93.3237 29.2837 91.6599 27.6199 91.6599 25.5679V8.15935C91.6599 6.10735 93.3237 4.4436 95.3757 4.4436H132.646C134.698 4.4436 136.361 6.10735 136.361 8.15935V25.5685C136.361 27.6199 134.698 29.2837 132.646 29.2837Z" fill="url(#paint8_linear_1262_3340)"/>
<path d="M113.466 13.1289H99.179C98.5812 13.1289 98.0968 12.6445 98.0968 12.0467C98.0968 11.4488 98.5812 10.9645 99.179 10.9645H113.466C114.064 10.9645 114.549 11.4488 114.549 12.0467C114.549 12.6445 114.064 13.1289 113.466 13.1289Z" fill="white"/>
<path d="M127.932 16.8147H98.4861C98.2711 16.8147 98.0968 16.6404 98.0968 16.4253C98.0968 16.2103 98.2711 16.036 98.4861 16.036H127.932C128.147 16.036 128.322 16.2103 128.322 16.4253C128.322 16.6404 128.147 16.8147 127.932 16.8147Z" fill="white"/>
<path d="M127.932 19.4254H98.4861C98.2711 19.4254 98.0968 19.2511 98.0968 19.0361C98.0968 18.821 98.2711 18.6467 98.4861 18.6467H127.932C128.147 18.6467 128.322 18.821 128.322 19.0361C128.322 19.2511 128.147 19.4254 127.932 19.4254Z" fill="white"/>
<path d="M115.633 22.0361H98.3953C98.2302 22.0361 98.0961 21.902 98.0961 21.7369V21.5566C98.0961 21.3916 98.2302 21.2574 98.3953 21.2574H115.633C115.798 21.2574 115.932 21.3916 115.932 21.5566V21.7369C115.932 21.902 115.798 22.0361 115.633 22.0361Z" fill="white"/>
<path d="M142.239 10.9644H143.009" stroke="url(#paint9_linear_1262_3340)" stroke-width="0.473125" stroke-linecap="round" stroke-linejoin="round"/>
<path d="M146.112 10.9644H195.761" stroke="url(#paint10_linear_1262_3340)" stroke-width="0.473125" stroke-linecap="round" stroke-linejoin="round" stroke-dasharray="1.36 2.73"/>
<path d="M197.313 10.9644H198.083" stroke="url(#paint11_linear_1262_3340)" stroke-width="0.473125" stroke-linecap="round" stroke-linejoin="round"/>
<defs>
<linearGradient id="paint0_linear_1262_3340" x1="0" y1="30.8334" x2="28.0508" y2="30.8334" gradientUnits="userSpaceOnUse">
<stop stop-color="#F57A00"/>
<stop offset="1" stop-color="#7103A4"/>
</linearGradient>
<linearGradient id="paint1_linear_1262_3340" x1="37.3694" y1="52.7372" x2="38.1388" y2="52.7372" gradientUnits="userSpaceOnUse">
<stop stop-color="#F57A00"/>
<stop offset="1" stop-color="#7103A4"/>
</linearGradient>
<linearGradient id="paint2_linear_1262_3340" x1="0.961914" y1="77.134" x2="34.2695" y2="77.134" gradientUnits="userSpaceOnUse">
<stop stop-color="#F57A00"/>
<stop offset="1" stop-color="#7103A4"/>
</linearGradient>
<linearGradient id="paint3_linear_1262_3340" x1="0.96167" y1="103.966" x2="1.96167" y2="103.966" gradientUnits="userSpaceOnUse">
<stop stop-color="#F57A00"/>
<stop offset="1" stop-color="#7103A4"/>
</linearGradient>
<linearGradient id="paint4_linear_1262_3340" x1="49.8824" y1="38.5139" x2="116.693" y2="38.5139" gradientUnits="userSpaceOnUse">
<stop stop-color="#F57A00"/>
<stop offset="1" stop-color="#7103A4"/>
</linearGradient>
<linearGradient id="paint5_linear_1262_3340" x1="42.6235" y1="14.7056" x2="123.952" y2="14.7056" gradientUnits="userSpaceOnUse">
<stop stop-color="#F57A00"/>
<stop offset="1" stop-color="#7103A4"/>
</linearGradient>
<linearGradient id="paint6_linear_1262_3340" x1="57.9376" y1="132.126" x2="202.132" y2="132.126" gradientUnits="userSpaceOnUse">
<stop stop-color="#F57A00"/>
<stop offset="1" stop-color="#7103A4"/>
</linearGradient>
<linearGradient id="paint7_linear_1262_3340" x1="144.792" y1="63.0975" x2="203.522" y2="63.0975" gradientUnits="userSpaceOnUse">
<stop stop-color="#F57A00"/>
<stop offset="1" stop-color="#7103A4"/>
</linearGradient>
<linearGradient id="paint8_linear_1262_3340" x1="91.6599" y1="16.8635" x2="136.361" y2="16.8635" gradientUnits="userSpaceOnUse">
<stop stop-color="#F57A00"/>
<stop offset="1" stop-color="#7103A4"/>
</linearGradient>
<linearGradient id="paint9_linear_1262_3340" x1="142.239" y1="11.4644" x2="143.009" y2="11.4644" gradientUnits="userSpaceOnUse">
<stop stop-color="#F57A00"/>
<stop offset="1" stop-color="#7103A4"/>
</linearGradient>
<linearGradient id="paint10_linear_1262_3340" x1="146.112" y1="11.4644" x2="195.761" y2="11.4644" gradientUnits="userSpaceOnUse">
<stop stop-color="#F57A00"/>
<stop offset="1" stop-color="#7103A4"/>
</linearGradient>
<linearGradient id="paint11_linear_1262_3340" x1="197.313" y1="11.4644" x2="198.083" y2="11.4644" gradientUnits="userSpaceOnUse">
<stop stop-color="#F57A00"/>
<stop offset="1" stop-color="#7103A4"/>
</linearGradient>
</defs>
</svg>
