<svg width="215" height="143" viewBox="0 0 215 143" fill="none" xmlns="http://www.w3.org/2000/svg">
<path d="M142.142 84.2013C142.098 84.2013 142.054 84.1845 142.021 84.1511L134.442 76.5858C134.409 76.5536 134.391 76.5098 134.391 76.4643V1.52008C134.391 1.42521 134.468 1.34839 134.563 1.34839C134.658 1.34839 134.735 1.42529 134.735 1.52008V76.3931L142.264 83.908C142.331 83.9751 142.331 84.0839 142.264 84.1509C142.23 84.1845 142.186 84.2013 142.142 84.2013Z" fill="black"/>
<path d="M128.252 92.8705C128.157 92.8705 128.08 92.7936 128.08 92.6988V5.36854C128.08 5.27368 128.157 5.19678 128.252 5.19678C128.347 5.19678 128.424 5.27368 128.424 5.36854V92.6988C128.424 92.7937 128.347 92.8705 128.252 92.8705Z" fill="black"/>
<path d="M115.63 74.2417C115.535 74.2417 115.458 74.1648 115.458 74.07V13.0523C115.458 12.9574 115.535 12.8806 115.63 12.8806C115.725 12.8806 115.802 12.9575 115.802 13.0523V74.07C115.802 74.1648 115.725 74.2417 115.63 74.2417Z" fill="black"/>
<path d="M140.874 64.6711C140.779 64.6711 140.703 64.5942 140.703 64.4994V5.36871C140.703 5.27385 140.779 5.19702 140.874 5.19702C140.969 5.19702 141.046 5.27393 141.046 5.36871V64.4993C141.046 64.5942 140.969 64.6711 140.874 64.6711Z" fill="black"/>
<path d="M147.186 75.8368C147.09 75.8368 147.014 75.7599 147.014 75.6651V13.0523C147.014 12.9574 147.09 12.8806 147.186 12.8806C147.281 12.8806 147.357 12.9575 147.357 13.0523V75.6651C147.357 75.7599 147.28 75.8368 147.186 75.8368Z" fill="black"/>
<path d="M121.941 64.6713C121.846 64.6713 121.769 64.5944 121.769 64.4996V9.08064L114.477 3.71748C114.401 3.66119 114.384 3.55368 114.44 3.4774C114.497 3.40096 114.604 3.38472 114.681 3.44094L122.043 8.85554C122.087 8.88787 122.113 8.93924 122.113 8.99381V64.4996C122.113 64.5944 122.036 64.6713 121.941 64.6713Z" fill="black"/>
<path d="M122.118 65.3645C123.083 65.3645 123.864 64.5843 123.864 63.6218C123.864 62.6594 123.083 61.8792 122.118 61.8792C121.154 61.8792 120.372 62.6594 120.372 63.6218C120.372 64.5843 121.154 65.3645 122.118 65.3645Z" fill="url(#paint0_linear_1267_6152)"/>
<path d="M142.62 86.2781C143.584 86.2781 144.366 85.4978 144.366 84.5354C144.366 83.5729 143.584 82.7927 142.62 82.7927C141.656 82.7927 140.874 83.5729 140.874 84.5354C140.874 85.4978 141.656 86.2781 142.62 86.2781Z" fill="url(#paint1_linear_1267_6152)"/>
<path d="M142.62 86.4499C141.563 86.4499 140.702 85.5911 140.702 84.5355C140.702 83.4799 141.563 82.6211 142.62 82.6211C143.678 82.6211 144.538 83.4799 144.538 84.5355C144.538 85.5911 143.678 86.4499 142.62 86.4499ZM142.62 82.9645C141.752 82.9645 141.046 83.6693 141.046 84.5355C141.046 85.4017 141.752 86.1064 142.62 86.1064C143.488 86.1064 144.194 85.4017 144.194 84.5355C144.194 83.6693 143.488 82.9645 142.62 82.9645Z" fill="black"/>
<path d="M115.637 76.1799C116.601 76.1772 117.38 75.3948 117.378 74.4324C117.375 73.4699 116.591 72.6919 115.627 72.6946C114.663 72.6973 113.883 73.4797 113.886 74.4421C113.889 75.4046 114.673 76.1826 115.637 76.1799Z" fill="url(#paint2_linear_1267_6152)"/>
<path d="M115.63 76.3534C114.572 76.3534 113.712 75.4947 113.712 74.4391C113.712 73.3835 114.572 72.5247 115.63 72.5247C116.687 72.5247 117.547 73.3835 117.547 74.4391C117.547 75.4948 116.687 76.3534 115.63 76.3534ZM115.63 72.8681C114.762 72.8681 114.056 73.5728 114.056 74.4391C114.056 75.3053 114.762 76.01 115.63 76.01C116.498 76.01 117.204 75.3053 117.204 74.4391C117.204 73.5728 116.498 72.8681 115.63 72.8681Z" fill="black"/>
<path d="M134.568 3.65853C135.532 3.65603 136.312 2.87378 136.309 1.91133C136.307 0.948884 135.523 0.170697 134.559 0.173201C133.595 0.175705 132.815 0.957951 132.818 1.9204C132.82 2.88285 133.604 3.66104 134.568 3.65853Z" fill="url(#paint3_linear_1267_6152)"/>
<path d="M134.563 3.82879C133.506 3.82879 132.645 2.97003 132.645 1.91444C132.645 0.858841 133.506 0 134.563 0C135.621 0 136.481 0.858841 136.481 1.91444C136.481 2.97003 135.621 3.82879 134.563 3.82879ZM134.563 0.343458C133.695 0.343458 132.989 1.04818 132.989 1.91444C132.989 2.78062 133.695 3.48534 134.563 3.48534C135.431 3.48534 136.137 2.78062 136.137 1.91444C136.137 1.04818 135.431 0.343458 134.563 0.343458Z" fill="black"/>
<path d="M114.585 5.14769C115.549 5.14499 116.329 4.36259 116.326 3.40014C116.323 2.43769 115.539 1.65966 114.575 1.66235C113.611 1.66505 112.831 2.44746 112.834 3.4099C112.837 4.37235 113.621 5.15039 114.585 5.14769Z" fill="url(#paint4_linear_1267_6152)"/>
<path d="M114.579 5.32171C113.521 5.32171 112.661 4.46287 112.661 3.40728C112.661 2.35168 113.521 1.49292 114.579 1.49292C115.636 1.49292 116.497 2.35168 116.497 3.40728C116.497 4.46295 115.636 5.32171 114.579 5.32171ZM114.579 1.83638C113.711 1.83638 113.005 2.5411 113.005 3.40728C113.005 4.27354 113.711 4.97825 114.579 4.97825C115.447 4.97825 116.153 4.27354 116.153 3.40728C116.153 2.5411 115.447 1.83638 114.579 1.83638Z" fill="black"/>
<path d="M93.8708 50.0331C93.8268 50.0331 93.7828 50.0163 93.7492 49.9828C93.6821 49.9158 93.6821 49.807 93.7492 49.7399L95.388 48.1042C95.4202 48.0721 95.464 48.054 95.5095 48.054H161.943C162.038 48.054 162.115 48.1309 162.115 48.2256C162.115 48.3205 162.038 48.3974 161.943 48.3974H95.5807L93.9922 49.983C93.9587 50.0164 93.9148 50.0331 93.8708 50.0331Z" fill="black"/>
<path d="M97.4027 69.773H92.8837C92.7886 69.773 92.7118 69.6961 92.7118 69.6013C92.7118 69.5065 92.7887 69.4295 92.8837 69.4295H97.3316L112.394 54.4037C112.426 54.3716 112.47 54.3535 112.515 54.3535H157.353C157.399 54.3535 157.442 54.3716 157.475 54.4037L168.793 65.7014C168.86 65.7685 168.86 65.8772 168.793 65.9443C168.726 66.0114 168.617 66.0113 168.55 65.9444L157.282 54.6969H112.586L97.5243 69.7227C97.4921 69.755 97.4483 69.773 97.4027 69.773Z" fill="black"/>
<path d="M186.916 29.4978H85.4461C85.3902 29.4978 85.3378 29.4706 85.3056 29.425L75.8246 15.9897C75.7699 15.9121 75.7885 15.805 75.8661 15.7504C75.9435 15.6957 76.0512 15.7143 76.1057 15.7918L85.5353 29.1544H186.845L199.86 16.1634C199.927 16.0965 200.036 16.0964 200.103 16.1635C200.17 16.2305 200.17 16.3393 200.103 16.4064L187.038 29.4476C187.005 29.4797 186.962 29.4978 186.916 29.4978Z" fill="black"/>
<path d="M84.5515 41.2571C84.5075 41.2571 84.4637 41.2404 84.4301 41.2071C84.363 41.1401 84.3628 41.0313 84.4298 40.9642L89.8962 35.4864C89.9284 35.4542 89.9722 35.4359 90.0179 35.4359H111.346L151.422 35.7974H188.182L195.821 28.1723C195.888 28.1054 195.997 28.1053 196.064 28.1724C196.131 28.2394 196.131 28.3482 196.064 28.4152L188.375 36.0906C188.343 36.1226 188.299 36.1408 188.253 36.1408H151.421L111.344 35.7793H90.0892L84.6731 41.2066C84.6397 41.2403 84.5957 41.2571 84.5515 41.2571Z" fill="black"/>
<path d="M195.067 61.1388C195.023 61.1388 194.979 61.122 194.946 61.0886L175.92 42.0974H105.638C105.543 42.0974 105.466 42.0205 105.466 41.9257C105.466 41.8308 105.543 41.7539 105.638 41.7539H175.991C176.037 41.7539 176.081 41.772 176.113 41.8041L195.189 60.8455C195.256 60.9126 195.256 61.0213 195.189 61.0884C195.155 61.122 195.111 61.1388 195.067 61.1388Z" fill="black"/>
<path d="M161.932 23.1979H100.48C100.385 23.1979 100.308 23.121 100.308 23.0262C100.308 22.9313 100.385 22.8545 100.48 22.8545H161.858L168.24 16.1662C168.305 16.0976 168.414 16.0951 168.482 16.1603C168.551 16.2258 168.554 16.3345 168.488 16.4032L162.056 23.1447C162.024 23.1786 161.979 23.1979 161.932 23.1979Z" fill="black"/>
<path d="M168.637 17.6333C169.601 17.6333 170.383 16.8531 170.383 15.8906C170.383 14.9282 169.601 14.1479 168.637 14.1479C167.673 14.1479 166.891 14.9282 166.891 15.8906C166.891 16.8531 167.673 17.6333 168.637 17.6333Z" fill="url(#paint5_linear_1267_6152)"/>
<path d="M200.176 18.0276C201.141 18.0276 201.922 17.2474 201.922 16.2849C201.922 15.3225 201.141 14.5422 200.176 14.5422C199.212 14.5422 198.431 15.3225 198.431 16.2849C198.431 17.2474 199.212 18.0276 200.176 18.0276Z" fill="url(#paint6_linear_1267_6152)"/>
<path d="M200.176 18.1992C199.119 18.1992 198.258 17.3404 198.258 16.2848C198.258 15.2292 199.119 14.3704 200.176 14.3704C201.234 14.3704 202.094 15.2292 202.094 16.2848C202.094 17.3404 201.234 18.1992 200.176 18.1992ZM200.176 14.7138C199.308 14.7138 198.602 15.4185 198.602 16.2848C198.602 17.151 199.308 17.8557 200.176 17.8557C201.044 17.8557 201.75 17.151 201.75 16.2848C201.75 15.4185 201.044 14.7138 200.176 14.7138Z" fill="black"/>
<path d="M196.199 30.0364C197.163 30.0364 197.945 29.2561 197.945 28.2937C197.945 27.3312 197.163 26.551 196.199 26.551C195.235 26.551 194.453 27.3312 194.453 28.2937C194.453 29.2561 195.235 30.0364 196.199 30.0364Z" fill="url(#paint7_linear_1267_6152)"/>
<path d="M169.862 65.6713C169.864 64.7089 169.084 63.9272 168.119 63.9255C167.155 63.9238 166.372 64.7026 166.37 65.665C166.369 66.6275 167.149 67.4091 168.113 67.4109C169.077 67.4126 169.86 66.6338 169.862 65.6713Z" fill="url(#paint8_linear_1267_6152)"/>
<path d="M168.124 67.5864C167.066 67.5864 166.206 66.7276 166.206 65.672C166.206 64.6164 167.066 63.7576 168.124 63.7576C169.181 63.7576 170.041 64.6164 170.041 65.672C170.041 66.7276 169.181 67.5864 168.124 67.5864ZM168.124 64.101C167.256 64.101 166.55 64.8057 166.55 65.672C166.55 66.5382 167.256 67.2429 168.124 67.2429C168.991 67.2429 169.697 66.5382 169.697 65.672C169.697 64.8057 168.991 64.101 168.124 64.101Z" fill="black"/>
<path d="M101.715 23.028C101.717 22.0656 100.937 21.2839 99.9724 21.2822C99.0081 21.2805 98.2251 22.0593 98.2234 23.0217C98.2216 23.9842 99.0019 24.7658 99.9661 24.7675C100.93 24.7693 101.713 23.9905 101.715 23.028Z" fill="url(#paint9_linear_1267_6152)"/>
<path d="M99.9719 24.9409C98.9144 24.9409 98.0541 24.0821 98.0541 23.0265C98.0541 21.9709 98.9144 21.1121 99.9719 21.1121C101.029 21.1121 101.89 21.9709 101.89 23.0265C101.89 24.0821 101.029 24.9409 99.9719 24.9409ZM99.9719 21.4555C99.104 21.4555 98.398 22.1602 98.398 23.0265C98.398 23.8927 99.104 24.5974 99.9719 24.5974C100.84 24.5974 101.546 23.8927 101.546 23.0265C101.546 22.1602 100.84 21.4555 99.9719 21.4555Z" fill="black"/>
<path d="M131.44 62.8824L128.4 61.2198C113.135 52.8711 109.717 37.4557 108.258 20.1622L109.388 19.9861C119.693 19.2678 124.738 17.544 131.44 10.0168C139.439 17.2566 147.078 19.899 154.569 19.899L154.643 19.9143C153.26 37.3449 149.78 52.9026 134.383 61.2813L131.44 62.8824Z" fill="url(#paint10_linear_1267_6152)"/>
<path d="M125.057 54.8834C125.001 54.8834 124.946 54.8657 124.899 54.8292C120.561 51.4604 117.45 46.9745 115.387 41.1152C113.314 35.2252 112.548 28.5505 112.113 23.3935C112.102 23.2588 112.197 23.1382 112.331 23.1174L113.26 22.9725C113.268 22.9713 113.275 22.9705 113.282 22.97C121.362 22.4068 125.646 21.1541 131.259 14.8496C131.305 14.7983 131.369 14.7673 131.438 14.7636C131.509 14.7598 131.574 14.7838 131.625 14.83C137.624 20.2588 143.794 22.8977 150.49 22.8977C150.508 22.8977 150.525 22.8995 150.542 22.9031L150.603 22.9156C150.743 22.9444 150.833 23.0807 150.804 23.22C150.775 23.3592 150.638 23.4494 150.499 23.4201L150.464 23.4129C143.717 23.4061 137.501 20.7793 131.472 15.3853C125.825 21.6548 121.468 22.9152 113.329 23.4832L112.648 23.5894C113.812 37.1508 116.416 47.5876 125.216 54.4225C125.328 54.5097 125.348 54.6716 125.261 54.7839C125.21 54.8493 125.134 54.8834 125.057 54.8834Z" fill="white"/>
<path d="M131.452 58.7945C131.361 58.7945 131.272 58.7458 131.226 58.66C131.157 58.5351 131.204 58.3786 131.329 58.3106L133.751 56.9926C142.571 52.1934 147.399 44.2065 149.407 31.0959C149.429 30.9553 149.562 30.8588 149.701 30.8802C149.842 30.9017 149.939 31.0331 149.917 31.1737C147.882 44.459 142.973 52.5614 133.998 57.4451L131.575 58.763C131.536 58.7843 131.494 58.7945 131.452 58.7945Z" fill="white"/>
<path d="M138.859 34.3025H124.042C123.485 34.3025 123.034 34.7522 123.034 35.307V39.7383C123.034 43.5218 126.112 46.5888 129.91 46.5888H132.992C136.789 46.5888 139.867 43.5217 139.867 39.7383V35.307C139.867 34.7522 139.416 34.3025 138.859 34.3025Z" fill="white"/>
<path d="M137.458 33.1291C137.116 33.1291 136.839 32.8531 136.839 32.5126V30.4312C136.839 27.9938 134.849 26.0108 132.402 26.0108H130.499C128.053 26.0108 126.062 27.9938 126.062 30.4312V32.5126C126.062 32.8531 125.785 33.1291 125.443 33.1291C125.102 33.1291 124.825 32.8531 124.825 32.5126V30.4312C124.825 27.3139 127.37 24.7778 130.499 24.7778H132.402C135.531 24.7778 138.076 27.3139 138.076 30.4312V32.5126C138.077 32.8531 137.799 33.1291 137.458 33.1291Z" fill="white"/>
<path d="M132.969 38.4265C132.969 37.5908 132.289 36.9133 131.451 36.9133C130.612 36.9133 129.932 37.5908 129.932 38.4265C129.932 38.9991 130.251 39.4974 130.722 39.7543V42.671C130.722 43.0718 131.048 43.3968 131.451 43.3968C131.853 43.3968 132.179 43.0718 132.179 42.671V39.7543C132.65 39.4974 132.969 38.9991 132.969 38.4265Z" fill="url(#paint11_linear_1267_6152)"/>
<path d="M190.71 13.5676C191.737 12.8173 192.874 12.9754 193.107 13.0128C193.073 12.8531 193.033 12.6182 193.017 12.3328C192.869 9.72778 194.965 7.22418 197.139 6.01532C197.922 5.57989 200.135 4.52304 202.844 5.15804C207.07 6.14836 208.599 10.3383 208.706 10.6459C209.036 10.5687 209.38 10.5278 209.734 10.5278C212.22 10.5278 214.234 12.54 214.234 15.0223C214.234 17.5045 212.22 19.5168 209.734 19.5168H192.706C190.842 19.1869 189.515 17.7806 189.438 16.2526C189.392 15.3515 189.774 14.2515 190.71 13.5676Z" fill="url(#paint12_linear_1267_6152)"/>
<path d="M199.208 69.5737C203.967 69.5737 207.825 65.7204 207.825 60.967C207.825 56.2137 203.967 52.3604 199.208 52.3604C194.448 52.3604 190.59 56.2137 190.59 60.967C190.59 65.7204 194.448 69.5737 199.208 69.5737Z" fill="url(#paint13_linear_1267_6152)"/>
<path d="M199.201 69.7501C197.915 69.7501 196.635 69.4646 195.438 68.8974C193.318 67.8919 191.716 66.1216 190.928 63.9128C190.14 61.7039 190.261 59.3209 191.267 57.2027C192.274 55.0844 194.047 53.4845 196.258 52.6977C198.47 51.9108 200.856 52.0314 202.976 53.0368C205.097 54.0423 206.699 55.8126 207.487 58.0214C209.113 62.5811 206.722 67.6122 202.157 69.2365C201.193 69.5796 200.195 69.7501 199.201 69.7501ZM199.199 52.5316C198.261 52.5316 197.307 52.689 196.374 53.0212C191.987 54.5819 189.689 59.4161 191.252 63.7975C192.482 67.2464 195.743 69.4023 199.215 69.4026C200.154 69.4026 201.108 69.2451 202.041 68.913C206.428 67.3522 208.726 62.5179 207.163 58.1366C205.933 54.6877 202.671 52.5316 199.199 52.5316Z" fill="white"/>
<path d="M192.705 66.4702C192.605 66.4702 192.506 66.4627 192.41 66.4471C192.316 66.4321 192.252 66.3439 192.267 66.2502C192.282 66.1566 192.37 66.0927 192.464 66.108C193.166 66.2214 193.949 65.8112 194.182 65.3698C194.424 64.9124 194.338 64.3225 193.978 63.967C193.897 63.8869 193.801 63.8143 193.7 63.7376C193.475 63.5665 193.242 63.3897 193.139 63.1037C192.958 62.6024 193.314 62.0543 193.759 61.772C194.024 61.6038 194.317 61.4997 194.601 61.399C194.757 61.344 194.917 61.2871 195.067 61.2213C196.469 60.6051 197.317 58.9292 196.997 57.4062C196.697 55.9834 195.501 54.7539 193.948 54.2738C193.858 54.2458 193.807 54.1497 193.835 54.0591C193.863 53.9686 193.959 53.9174 194.05 53.9458C195.72 54.4622 197.009 55.7926 197.333 57.3356C197.686 59.0116 196.751 60.8565 195.205 61.5358C195.044 61.6066 194.877 61.6656 194.716 61.7227C194.438 61.8213 194.175 61.9145 193.943 62.062C193.622 62.2658 193.344 62.6595 193.462 62.9876C193.531 63.1779 193.714 63.317 193.908 63.4641C194.013 63.5442 194.123 63.6269 194.22 63.7227C194.685 64.1821 194.797 64.9421 194.487 65.5301C194.197 66.0793 193.427 66.4702 192.705 66.4702Z" fill="white"/>
<path d="M204.033 68.2051C204.026 68.2051 204.018 68.2047 204.01 68.2035C202.296 67.9653 200.391 67.1214 199.038 66.0011C198.225 65.3282 197.823 64.6418 197.843 63.9608C197.863 63.2787 198.33 62.6185 199.033 62.2785C199.579 62.0141 200.264 61.9286 201.067 62.0238C201.463 62.0709 201.855 62.1543 202.234 62.2349C202.492 62.2897 202.759 62.3464 203.021 62.3903C203.308 62.4384 203.665 62.4696 203.877 62.2839C204.132 62.0604 204.08 61.6073 203.915 61.2574C203.863 61.1471 203.803 61.0396 203.74 60.9259C203.58 60.6379 203.415 60.3401 203.381 59.9927C203.301 59.1611 204.016 58.4976 204.73 58.2956C205.387 58.1096 206.472 58.3204 207.19 58.4599L207.39 58.4984C207.483 58.5161 207.544 58.6059 207.526 58.6991C207.509 58.7922 207.42 58.8536 207.325 58.8358L207.125 58.7972C206.439 58.6638 205.402 58.4624 204.823 58.626C204.235 58.7925 203.663 59.3369 203.723 59.9597C203.75 60.236 203.891 60.4902 204.041 60.7593C204.104 60.873 204.169 60.9906 204.226 61.1112C204.43 61.5433 204.52 62.1774 204.104 62.5422C203.783 62.8233 203.327 62.7897 202.965 62.7292C202.695 62.684 202.424 62.6266 202.163 62.5709C201.791 62.4918 201.406 62.4101 201.026 62.3649C200.289 62.2774 199.669 62.3522 199.182 62.5875C198.603 62.8679 198.202 63.4238 198.187 63.9707C198.17 64.5405 198.531 65.1347 199.258 65.7366C200.564 66.8184 202.403 67.6333 204.057 67.8634C204.151 67.8764 204.217 67.9632 204.204 68.0571C204.192 68.143 204.118 68.2051 204.033 68.2051Z" fill="white"/>
<path d="M203.163 56.366C202.587 56.366 202.012 56.0789 201.692 55.5909C201.562 55.3918 201.475 55.1701 201.39 54.9557C201.267 54.6409 201.15 54.3437 200.914 54.1586C200.688 53.9813 200.369 53.9287 200.057 53.8983L199.952 53.8885C199.639 53.8596 199.316 53.8298 199.018 53.6837C198.626 53.4909 198.257 53.1822 198.497 52.3551C198.523 52.2641 198.619 52.2116 198.71 52.2381C198.801 52.2644 198.854 52.3597 198.827 52.4509C198.635 53.1127 198.932 53.2585 199.17 53.3755C199.411 53.4936 199.689 53.5194 199.984 53.5465L200.091 53.5566C200.454 53.592 200.831 53.6567 201.126 53.8884C201.436 54.1313 201.576 54.4867 201.711 54.8303C201.792 55.0377 201.869 55.2336 201.98 55.403C202.312 55.9101 203.021 56.1506 203.594 55.9511C204.17 55.75 204.626 55.0453 204.57 54.4429C204.561 54.3485 204.631 54.2648 204.725 54.2559C204.818 54.2467 204.904 54.3165 204.912 54.411C204.983 55.169 204.431 56.0227 203.707 56.2752C203.531 56.3366 203.347 56.366 203.163 56.366Z" fill="white"/>
<path d="M128.252 104.484C133.037 104.484 136.916 100.609 136.916 95.8293C136.916 91.0497 133.037 87.175 128.252 87.175C123.466 87.175 119.587 91.0497 119.587 95.8293C119.587 100.609 123.466 104.484 128.252 104.484Z" fill="url(#paint14_linear_1267_6152)"/>
<path d="M128.252 104.655C123.379 104.655 119.415 100.696 119.415 95.8292C119.415 90.9625 123.379 87.0032 128.252 87.0032C133.124 87.0032 137.089 90.9625 137.089 95.8292C137.089 100.696 133.124 104.655 128.252 104.655ZM128.252 87.3466C123.569 87.3466 119.759 91.1518 119.759 95.8292C119.759 100.506 123.569 104.312 128.252 104.312C132.935 104.312 136.745 100.506 136.745 95.8292C136.745 91.1518 132.935 87.3466 128.252 87.3466Z" fill="black"/>
<path d="M127.993 101.904C127.969 101.904 127.944 101.903 127.919 101.902C127.187 101.862 126.624 101.234 126.664 100.502C126.664 100.499 126.664 100.495 126.664 100.492C126.292 100.365 125.937 100.195 125.605 99.984C125.603 99.9864 125.6 99.9887 125.597 99.9911C125.333 100.228 124.99 100.348 124.637 100.328C124.282 100.309 123.956 100.153 123.719 99.8882C123.229 99.3425 123.276 98.5007 123.822 98.0115C123.824 98.0092 123.827 98.0068 123.83 98.0046C123.656 97.6525 123.525 97.2813 123.44 96.8972C123.437 96.8971 123.433 96.8969 123.43 96.8967C123.075 96.8774 122.749 96.7211 122.512 96.4567C122.274 96.1923 122.155 95.8515 122.174 95.4971C122.194 95.1426 122.35 94.8169 122.614 94.5799C122.879 94.343 123.22 94.2228 123.575 94.2425C123.579 94.2427 123.582 94.2429 123.586 94.2432C123.712 93.8706 123.883 93.5159 124.094 93.185C124.091 93.1823 124.089 93.1797 124.086 93.177C123.597 92.6314 123.643 91.7895 124.189 91.3004C124.454 91.0635 124.794 90.9441 125.15 90.9629C125.505 90.9823 125.831 91.1386 126.068 91.403C126.07 91.4055 126.073 91.4083 126.075 91.4109C126.427 91.2371 126.799 91.1067 127.183 91.0217C127.183 91.0183 127.183 91.0149 127.183 91.0115C127.203 90.6567 127.359 90.3309 127.624 90.0939C127.888 89.8571 128.229 89.7378 128.585 89.7566C129.317 89.7965 129.88 90.4244 129.84 91.1562C129.84 91.1598 129.84 91.1633 129.84 91.1669C130.212 91.2931 130.567 91.4634 130.899 91.6744C130.901 91.672 130.904 91.6697 130.907 91.6672C131.171 91.4304 131.512 91.3093 131.867 91.3301C132.222 91.3495 132.548 91.5058 132.785 91.7702C133.274 92.3158 133.228 93.1577 132.682 93.647C132.679 93.6493 132.677 93.6516 132.674 93.6539C132.848 94.006 132.978 94.3772 133.064 94.7612C133.067 94.7613 133.071 94.7615 133.074 94.7617C133.429 94.7811 133.755 94.9374 133.992 95.2017C134.229 95.4661 134.349 95.8069 134.33 96.1614C134.31 96.5159 134.154 96.8415 133.889 97.0785C133.625 97.3155 133.283 97.4354 132.929 97.4159C132.925 97.4158 132.922 97.4156 132.918 97.4152C132.791 97.7877 132.621 98.1426 132.41 98.4734C132.412 98.476 132.415 98.4786 132.417 98.4813C132.906 99.0269 132.86 99.8689 132.314 100.358C132.05 100.595 131.709 100.714 131.354 100.695C130.999 100.676 130.673 100.52 130.436 100.256C130.433 100.253 130.431 100.25 130.429 100.248C130.076 100.421 129.705 100.552 129.321 100.637C129.321 100.64 129.32 100.644 129.32 100.647C129.301 101.002 129.144 101.327 128.88 101.564C128.634 101.785 128.321 101.904 127.993 101.904ZM127.938 101.559C128.201 101.573 128.454 101.484 128.65 101.309C128.846 101.133 128.962 100.891 128.977 100.629C128.979 100.588 128.978 100.548 128.975 100.508C128.97 100.422 129.03 100.345 129.115 100.328C129.563 100.243 129.994 100.092 130.396 99.8783C130.473 99.8374 130.568 99.8606 130.618 99.9315C130.641 99.9641 130.665 99.9961 130.692 100.026C130.868 100.222 131.11 100.338 131.373 100.353C131.633 100.367 131.889 100.278 132.085 100.102C132.49 99.7397 132.524 99.1152 132.161 98.7105C132.134 98.6804 132.105 98.653 132.075 98.627C132.01 98.5698 131.997 98.4729 132.046 98.4011C132.302 98.025 132.5 97.6132 132.634 97.1771C132.659 97.0941 132.743 97.043 132.829 97.0584C132.867 97.0654 132.907 97.0708 132.948 97.073C133.211 97.0878 133.464 96.9986 133.66 96.8228C133.856 96.6471 133.972 96.4056 133.986 96.1427C134.001 95.8798 133.912 95.6271 133.736 95.431C133.56 95.235 133.318 95.1191 133.055 95.1046C133.015 95.1024 132.975 95.1036 132.935 95.1061C132.851 95.1135 132.771 95.0523 132.755 94.967C132.669 94.519 132.518 94.0881 132.304 93.6862C132.264 93.6097 132.287 93.5149 132.358 93.4652C132.39 93.4424 132.422 93.4184 132.452 93.3913C132.857 93.0284 132.892 92.404 132.529 91.9993C132.353 91.8033 132.111 91.6874 131.848 91.6729C131.585 91.6592 131.332 91.7475 131.136 91.9232C131.105 91.9504 131.078 91.9793 131.052 92.009C130.995 92.0743 130.898 92.0868 130.826 92.0381C130.449 91.7822 130.037 91.5846 129.601 91.4509C129.518 91.4254 129.467 91.3423 129.482 91.257C129.489 91.218 129.495 91.1785 129.497 91.1379C129.526 90.595 129.109 90.1293 128.566 90.0996C128.303 90.0853 128.05 90.174 127.853 90.3498C127.657 90.5255 127.541 90.767 127.527 91.03C127.525 91.0704 127.526 91.1104 127.528 91.1502C127.534 91.2366 127.474 91.3137 127.389 91.33C126.941 91.4154 126.51 91.5669 126.107 91.7802C126.03 91.821 125.936 91.7979 125.886 91.727C125.863 91.6943 125.839 91.6625 125.811 91.6321C125.636 91.4362 125.394 91.3203 125.131 91.3059C124.869 91.2916 124.615 91.3804 124.419 91.5561C124.014 91.9189 123.98 92.5433 124.343 92.9479C124.37 92.9783 124.399 93.0056 124.428 93.0316C124.494 93.0887 124.506 93.1857 124.458 93.2574C124.202 93.6335 124.004 94.0453 123.87 94.4814C123.844 94.5644 123.761 94.6155 123.675 94.6001C123.636 94.5933 123.597 94.5877 123.556 94.5855C123.295 94.5705 123.04 94.6599 122.844 94.8357C122.648 95.0114 122.532 95.2529 122.517 95.5159C122.503 95.7788 122.592 96.0315 122.768 96.2275C122.944 96.4236 123.185 96.5395 123.448 96.5538C123.489 96.5561 123.529 96.5548 123.568 96.5523C123.655 96.5444 123.732 96.6061 123.749 96.6915C123.834 97.1396 123.986 97.5705 124.199 97.9723C124.24 98.049 124.217 98.1439 124.146 98.1935C124.113 98.2161 124.082 98.24 124.051 98.2671C123.646 98.6301 123.612 99.2545 123.975 99.6592C124.151 99.8553 124.393 99.9712 124.656 99.9855C124.917 99.9996 125.172 99.911 125.368 99.7353C125.398 99.7081 125.425 99.6792 125.452 99.6495C125.509 99.5841 125.605 99.5715 125.678 99.6204C126.055 99.8764 126.467 100.074 126.903 100.208C126.986 100.233 127.037 100.316 127.021 100.402C127.015 100.44 127.009 100.48 127.007 100.521C126.977 101.064 127.395 101.529 127.938 101.559ZM128.253 98.1504C128.211 98.1504 128.168 98.1492 128.125 98.1469C126.846 98.0769 125.862 96.9804 125.932 95.7025C125.966 95.0835 126.239 94.5146 126.701 94.1008C127.164 93.687 127.758 93.4785 128.379 93.5117C129.658 93.5815 130.642 94.678 130.572 95.9561C130.504 97.1909 129.477 98.1504 128.253 98.1504ZM128.144 97.8039C129.232 97.8624 130.168 97.0261 130.228 95.9373C130.288 94.8484 129.45 93.9141 128.36 93.8546C127.832 93.8265 127.324 94.004 126.931 94.3565C126.537 94.7091 126.304 95.1938 126.275 95.7212C126.216 96.81 127.054 97.7443 128.144 97.8039Z" fill="white"/>
<path d="M147.185 90.5831C151.899 90.5831 155.72 86.7665 155.72 82.0584C155.72 77.3503 151.899 73.5337 147.185 73.5337C142.472 73.5337 138.65 77.3503 138.65 82.0584C138.65 86.7665 142.472 90.5831 147.185 90.5831Z" fill="url(#paint15_linear_1267_6152)"/>
<path d="M147.186 90.7547C142.385 90.7547 138.479 86.8535 138.479 82.0583C138.479 77.2631 142.385 73.3618 147.186 73.3618C151.987 73.3618 155.893 77.2631 155.893 82.0583C155.893 86.8535 151.986 90.7547 147.186 90.7547ZM147.186 73.7053C142.574 73.7053 138.823 77.4524 138.823 82.0583C138.823 86.6641 142.574 90.4112 147.186 90.4112C151.797 90.4112 155.549 86.6641 155.549 82.0583C155.549 77.4524 151.797 73.7053 147.186 73.7053Z" fill="black"/>
<path d="M142.449 85.4715C142.404 85.4715 142.36 85.4536 142.328 85.4217C142.295 85.3896 142.277 85.346 142.277 85.3004L142.255 78.8619C142.254 78.7672 142.331 78.69 142.426 78.6896L151.921 78.6458C151.962 78.6509 152.011 78.6634 152.043 78.6956C152.076 78.7277 152.094 78.7713 152.094 78.8169L152.116 85.2553C152.117 85.3501 152.04 85.4272 151.945 85.4276L142.45 85.4715C142.449 85.4715 142.449 85.4715 142.449 85.4715ZM142.599 79.0324L142.62 85.1274L151.772 85.085L151.751 78.9901L142.599 79.0324Z" fill="white"/>
<path d="M147.194 82.8736C147.157 82.8736 147.119 82.8613 147.088 82.8367L142.667 79.3575C142.592 79.2988 142.58 79.1908 142.638 79.1163C142.697 79.0418 142.805 79.029 142.88 79.0877L147.192 82.4814L151.415 79.0175C151.489 78.9573 151.597 78.968 151.657 79.0413C151.718 79.1146 151.707 79.2228 151.634 79.283L147.304 82.8345C147.272 82.8606 147.233 82.8736 147.194 82.8736Z" fill="white"/>
<path d="M151.506 84.9758C151.457 84.9758 151.407 84.9544 151.373 84.9131L148.641 81.5927C148.581 81.5195 148.592 81.4113 148.665 81.3511C148.738 81.2908 148.847 81.3015 148.907 81.3747L151.639 84.695C151.699 84.7682 151.689 84.8765 151.615 84.9367C151.584 84.9629 151.545 84.9758 151.506 84.9758Z" fill="white"/>
<path d="M142.833 84.9759C142.794 84.9759 142.755 84.9631 142.724 84.9369C142.65 84.8767 142.64 84.7684 142.7 84.6953L145.432 81.375C145.492 81.3017 145.601 81.291 145.674 81.3513C145.747 81.4115 145.758 81.5198 145.698 81.593L142.965 84.9133C142.932 84.9545 142.882 84.9759 142.833 84.9759Z" fill="white"/>
<path d="M71.6116 21.3618C76.3254 21.3618 80.1466 17.551 80.1466 12.8502C80.1466 8.14939 76.3254 4.33862 71.6116 4.33862C66.8979 4.33862 63.0767 8.14939 63.0767 12.8502C63.0767 17.551 66.8979 21.3618 71.6116 21.3618Z" fill="url(#paint16_linear_1267_6152)"/>
<path d="M71.6119 21.5333C66.8109 21.5333 62.905 17.638 62.905 12.85C62.905 8.06206 66.8109 4.16675 71.6119 4.16675C76.4129 4.16675 80.3188 8.06206 80.3188 12.85C80.3188 17.638 76.4128 21.5333 71.6119 21.5333ZM71.6119 4.51013C67.0005 4.51013 63.2489 8.2514 63.2489 12.8499C63.2489 17.4485 67.0005 21.1898 71.6119 21.1898C76.2233 21.1898 79.9749 17.4485 79.9749 12.8499C79.9748 8.2514 76.2233 4.51013 71.6119 4.51013Z" fill="black"/>
<path d="M71.6761 12.0255C73.1569 12.0255 74.3574 10.8284 74.3574 9.35162C74.3574 7.87487 73.1569 6.67773 71.6761 6.67773C70.1953 6.67773 68.9949 7.87487 68.9949 9.35162C68.9949 10.8284 70.1953 12.0255 71.6761 12.0255Z" fill="white"/>
<path d="M71.6762 12.7776C69.0735 12.7776 66.86 12.7354 66.0355 15.0488C66.86 17.3622 69.0736 19.0191 71.6762 19.0191C74.2787 19.0191 76.4923 17.3622 77.3168 15.0488C76.4923 12.7355 74.2788 12.7776 71.6762 12.7776Z" fill="white"/>
<path d="M146.197 124.572C147.345 123.515 147.913 122.611 150.168 118.219C152.666 113.353 154.842 109.341 157.638 104.718C159.716 101.284 163.305 99.041 167.307 98.6896C177.101 97.8296 187.273 97.6921 193.814 97.7185C198.372 97.737 202.554 100.255 204.685 104.28C208.523 111.53 211.579 119.658 213.738 126.229C215.815 132.549 211.117 139.191 204.458 139.218C194.259 139.259 171.776 139.218 171.776 139.218L166.672 122.357L158.757 133.775C156.393 137.185 153.852 139.208 153.852 139.208C153.852 139.208 145.974 139.203 144.681 139.2C143.998 137.01 143.056 134.546 141.741 131.94C141.011 130.494 140.253 129.177 139.502 127.987C141.346 127.556 143.934 126.656 146.197 124.572Z" fill="#B936FF"/>
<path d="M171.776 139.389C171.703 139.389 171.634 139.341 171.612 139.267L166.61 122.747L158.899 133.872C156.548 137.264 153.984 139.322 153.959 139.342C153.928 139.366 153.891 139.379 153.852 139.379C153.852 139.379 153.852 139.379 153.852 139.379C153.852 139.379 145.974 139.374 144.681 139.371C144.606 139.371 144.54 139.322 144.517 139.251C143.742 136.766 142.756 134.332 141.587 132.017C140.91 130.675 140.16 129.35 139.357 128.078C139.327 128.031 139.322 127.973 139.343 127.921C139.364 127.87 139.409 127.832 139.463 127.819C142.09 127.205 144.316 126.07 146.081 124.445C147.217 123.399 147.769 122.515 150.015 118.14C152.792 112.732 154.958 108.818 157.491 104.63C159.592 101.157 163.256 98.8728 167.292 98.5183C177.003 97.6657 187.075 97.5195 193.815 97.5467C198.451 97.5655 202.674 100.115 204.837 104.2C208.062 110.292 211.112 117.686 213.902 126.175C214.778 128.844 214.514 131.678 213.158 134.156C211.818 136.603 209.536 138.396 206.897 139.077C206.805 139.101 206.711 139.046 206.688 138.954C206.664 138.862 206.719 138.768 206.811 138.745C209.359 138.087 211.562 136.355 212.856 133.991C214.166 131.598 214.422 128.86 213.575 126.282C210.792 117.811 207.75 110.436 204.533 104.36C202.43 100.387 198.323 97.9084 193.814 97.8901C187.081 97.8625 177.02 98.0088 167.322 98.8604C163.395 99.2053 159.83 101.428 157.786 104.807C155.256 108.988 153.094 112.897 150.321 118.297C148.051 122.719 147.489 123.616 146.314 124.698C144.558 126.315 142.359 127.458 139.775 128.098C140.536 129.317 141.248 130.582 141.894 131.862C143.053 134.157 144.033 136.567 144.808 139.028C146.331 139.031 153.076 139.035 153.791 139.036C154.144 138.744 156.468 136.776 158.616 133.677L166.53 122.258C166.568 122.204 166.634 122.176 166.699 122.187C166.764 122.197 166.817 122.243 166.836 122.307L171.941 139.168C171.969 139.259 171.917 139.354 171.826 139.382C171.81 139.387 171.793 139.389 171.776 139.389Z" fill="white"/>
<path d="M166.22 121.818C166.148 121.818 166.08 121.771 166.057 121.699L161.948 109.009C161.918 108.919 161.968 108.822 162.058 108.793C162.149 108.764 162.246 108.813 162.275 108.903L166.384 121.593C166.413 121.683 166.364 121.78 166.273 121.809C166.256 121.815 166.238 121.818 166.22 121.818Z" fill="white"/>
<path d="M185.341 125.656C185.249 125.656 185.172 125.583 185.169 125.49C185.166 125.395 185.241 125.316 185.336 125.313L199.202 124.881C199.294 124.878 199.376 124.952 199.379 125.047C199.382 125.142 199.308 125.221 199.213 125.224L185.346 125.656C185.345 125.656 185.343 125.656 185.341 125.656Z" fill="white"/>
<path d="M195.892 125.246C195.821 125.246 195.754 125.201 195.73 125.13C194.793 122.384 193.689 119.664 192.45 117.044C192.409 116.958 192.446 116.856 192.532 116.816C192.618 116.775 192.72 116.812 192.761 116.897C194.006 119.529 195.114 122.262 196.055 125.019C196.086 125.109 196.038 125.206 195.948 125.237C195.929 125.243 195.911 125.246 195.892 125.246Z" fill="white"/>
<path d="M147.211 139.213H121.699C121.699 139.213 120.104 134.879 126.946 131.427C130.998 129.383 141.374 127.648 141.374 127.648C141.374 127.648 145.983 132.665 147.211 139.213Z" fill="white"/>
<path d="M147.211 139.384H121.699C121.627 139.384 121.563 139.339 121.538 139.272C121.521 139.227 119.97 134.754 126.868 131.274C130.898 129.241 141.241 127.496 141.346 127.479C141.403 127.469 141.461 127.489 141.501 127.532C141.547 127.583 146.157 132.66 147.38 139.181C147.39 139.231 147.376 139.283 147.343 139.322C147.311 139.362 147.262 139.384 147.211 139.384ZM121.827 139.041H147.003C145.823 133.122 141.853 128.452 141.309 127.834C140.264 128.013 130.803 129.674 127.024 131.58C121.003 134.617 121.647 138.35 121.827 139.041Z" fill="white"/>
<path d="M131.38 139.251C131.337 139.251 131.294 139.236 131.261 139.204C130.802 138.765 130.698 137.979 131.015 137.337C131.266 136.826 131.753 136.396 132.423 136.093C132.907 135.874 133.432 135.735 133.941 135.601C134.801 135.374 135.613 135.16 136.218 134.591C136.822 134.024 137.107 133.133 136.944 132.321C136.925 132.228 136.985 132.138 137.079 132.119C137.171 132.101 137.262 132.161 137.281 132.254C137.467 133.179 137.142 134.195 136.454 134.842C135.785 135.47 134.892 135.705 134.029 135.933C133.534 136.063 133.023 136.198 132.565 136.405C132.149 136.594 131.596 136.934 131.323 137.488C131.107 137.927 131.098 138.572 131.499 138.956C131.567 139.021 131.57 139.13 131.504 139.199C131.47 139.234 131.425 139.251 131.38 139.251Z" fill="white"/>
<path d="M124.761 138.99C124.695 138.99 124.632 138.952 124.604 138.888C124.232 138.048 124.556 136.962 125.494 135.91C127.223 133.969 129.655 132.729 131.801 131.634C131.885 131.591 131.989 131.624 132.032 131.709C132.075 131.793 132.042 131.897 131.957 131.94C129.839 133.021 127.437 134.246 125.751 136.138C125.351 136.587 124.471 137.738 124.918 138.749C124.957 138.836 124.917 138.937 124.83 138.975C124.808 138.985 124.784 138.99 124.761 138.99Z" fill="white"/>
<path d="M120.207 139.182H161.133C162.15 139.182 162.974 138.359 162.974 137.344C162.974 136.328 162.15 135.505 161.133 135.505H117.049L120.207 139.182Z" fill="url(#paint17_linear_1267_6152)"/>
<path d="M120.207 139.177L150.5 139L139.475 113.728C139.081 112.82 138.185 112.233 137.194 112.233H109.493C108.089 112.233 107.14 113.665 107.689 114.955L117.191 137.296C117.701 138.494 118.906 139.246 120.207 139.177Z" fill="url(#paint18_linear_1267_6152)"/>
<path d="M122.161 120.481C122.161 121 122.581 121.42 123.1 121.42C123.619 121.42 124.039 121 124.039 120.481C124.039 119.963 123.619 119.543 123.1 119.543C122.581 119.543 122.161 119.963 122.161 120.481Z" fill="white"/>
<path d="M183.706 125.572C183.706 125.572 170.711 127.883 165.289 128.688C156.002 130.066 154.336 135.248 153.884 137.395C153.688 138.327 154.41 139.199 155.364 139.199H191.741C191.741 139.199 189.541 128.319 183.706 125.572Z" fill="#B936FF"/>
<path d="M191.74 139.371C191.66 139.371 191.588 139.315 191.572 139.233C191.55 139.126 189.335 128.467 183.681 125.751C182.757 125.915 170.499 128.088 165.314 128.858C158.928 129.805 155.033 132.77 154.052 137.43C153.97 137.819 154.068 138.221 154.32 138.531C154.577 138.847 154.957 139.028 155.364 139.028C155.459 139.028 155.536 139.105 155.536 139.199C155.536 139.294 155.459 139.371 155.364 139.371C154.853 139.371 154.375 139.144 154.053 138.748C153.735 138.356 153.612 137.85 153.716 137.359C154.729 132.546 158.722 129.488 165.264 128.518C170.621 127.723 183.546 125.426 183.675 125.403C183.711 125.397 183.747 125.402 183.779 125.417C189.626 128.169 191.819 138.717 191.909 139.165C191.928 139.258 191.868 139.349 191.775 139.368C191.763 139.37 191.752 139.371 191.74 139.371Z" fill="white"/>
<path d="M163.879 139.371C163.873 139.371 163.867 139.371 163.861 139.37C163.153 139.297 162.717 138.561 162.719 137.921C162.721 137.256 163.08 136.654 163.393 136.204C164.979 133.922 167.458 132.327 170.193 131.828C170.287 131.812 170.376 131.873 170.393 131.966C170.411 132.059 170.349 132.149 170.255 132.166C167.608 132.648 165.21 134.192 163.675 136.4C163.391 136.809 163.065 137.352 163.063 137.922C163.061 138.415 163.396 138.977 163.896 139.028C163.99 139.038 164.059 139.123 164.049 139.217C164.04 139.305 163.966 139.371 163.879 139.371Z" fill="white"/>
<path d="M160.297 139.371C160.271 139.371 160.244 139.365 160.219 139.352C159.611 139.041 159.193 138.356 159.127 137.566C159.062 136.784 159.329 136.031 159.535 135.533C160.504 133.192 162.391 131.262 164.711 130.239C164.799 130.201 164.9 130.24 164.938 130.327C164.976 130.413 164.937 130.515 164.85 130.553C162.61 131.541 160.789 133.404 159.853 135.664C159.547 136.404 159.425 136.999 159.47 137.537C159.526 138.211 159.873 138.789 160.375 139.047C160.46 139.09 160.493 139.194 160.45 139.278C160.42 139.337 160.359 139.371 160.297 139.371Z" fill="white"/>
<path d="M156.852 139.371C156.819 139.371 156.785 139.361 156.755 139.341C156.247 138.991 155.916 138.38 155.845 137.664C155.792 137.123 155.874 136.55 156.113 135.807C156.914 133.315 159.061 130.703 161.334 129.454C161.417 129.408 161.522 129.438 161.568 129.521C161.613 129.604 161.583 129.709 161.5 129.755C159.298 130.965 157.217 133.497 156.441 135.912C156.217 136.608 156.139 137.138 156.187 137.63C156.247 138.236 156.532 138.77 156.95 139.058C157.028 139.112 157.048 139.219 156.994 139.297C156.961 139.345 156.907 139.371 156.852 139.371Z" fill="white"/>
<path d="M182.363 84.395C182.363 84.395 184.645 81.8502 183.197 80.1701C183.197 80.1701 184.849 74.1961 179.117 72.2673C173.384 70.3385 170.193 74.4063 169.918 75.3856C169.918 75.3856 168.658 74.9533 168.124 77.0238L181.006 85.6797L182.363 84.395Z" fill="#262626"/>
<path d="M182.789 80.2014C182.775 80.2014 182.76 80.1998 182.746 80.1961C182.707 80.1862 182.698 80.1799 182.553 80.0748C180.852 78.8461 176.292 75.9356 170.701 75.4495C170.607 75.4413 170.537 75.358 170.545 75.2635C170.553 75.169 170.638 75.099 170.731 75.1074C176.408 75.6008 181.03 78.551 182.754 79.7965C182.811 79.8372 182.848 79.8646 182.867 79.8765C182.937 79.912 182.975 79.9925 182.955 80.0718C182.935 80.1497 182.865 80.2014 182.789 80.2014Z" fill="white"/>
<path d="M178.763 86.833L183.528 97.8265C183.528 97.8265 181.467 101.672 175.494 102.315C169.844 102.924 174.26 98.3006 174.26 98.3006L171.539 90.5131L178.763 86.833Z" fill="white"/>
<path d="M174.55 102.543C173.476 102.543 172.823 102.282 172.562 101.755C171.999 100.616 173.682 98.6767 174.063 98.2596L171.377 90.5699C171.349 90.4888 171.385 90.3994 171.461 90.3603L178.685 86.6802C178.727 86.6586 178.776 86.6554 178.822 86.6715C178.866 86.6875 178.902 86.7213 178.921 86.7648L183.686 97.7584C183.707 97.8065 183.704 97.8615 183.68 97.9077C183.659 97.947 181.507 101.84 175.513 102.486C175.16 102.524 174.84 102.543 174.55 102.543ZM171.751 90.5982L174.422 98.2441C174.443 98.305 174.429 98.3725 174.384 98.4192C173.819 99.0119 172.444 100.739 172.871 101.603C173.123 102.114 174.024 102.301 175.476 102.144C180.85 101.565 183.021 98.3326 183.336 97.8152L178.678 87.0692L171.751 90.5982Z" fill="black"/>
<path d="M175.859 86.1371C174.916 85.5708 169.159 81.4475 167.574 81.1949C165.99 80.9423 164.45 80.3072 163.23 79.2648C162.743 78.8493 162.3 78.3574 162.069 77.7606C161.838 77.1639 161.849 76.4475 162.214 75.9225C162.58 75.3974 163.34 75.1427 163.902 75.4488C163.638 75.0454 163.694 74.4844 163.967 74.0876C164.241 73.6908 164.697 73.4471 165.168 73.3484C166.031 73.168 166.977 73.4585 167.59 74.0919C168.205 74.7276 168.472 75.6427 169.104 76.2613C169.726 76.8705 170.615 77.1095 171.472 77.2668C172.707 77.4938 173.963 77.5996 175.197 77.8353C176.431 78.0711 177.661 78.4465 178.698 79.1567C179.491 79.7005 180.757 80.9226 180.719 81.9974C180.702 82.4746 180.014 82.9523 179.717 83.3329C179.315 83.8489 177.881 86.2806 175.859 86.1371Z" fill="black"/>
<path d="M178.594 84.2729C178.594 84.2729 179.132 81.1341 181.541 82.4394C184.44 84.0105 182.613 89.8095 179.006 87.3406C179.006 87.3406 176.46 93.9976 171.353 93.8403C166.246 93.683 165.832 87.2251 167.082 80.9668C167.082 80.9668 169.356 82.0732 173.472 81.3809C176.232 80.9167 176.285 83.5168 176.223 85.0164L178.594 84.2729Z" fill="white"/>
<path d="M171.529 94.0147C171.469 94.0147 171.409 94.0137 171.348 94.0119C169.877 93.9667 168.704 93.4079 167.863 92.3511C165.617 89.5278 166.304 83.9857 166.914 80.9333C166.924 80.8812 166.958 80.8368 167.006 80.8132C167.053 80.7894 167.109 80.7892 167.157 80.8124C167.18 80.8233 169.439 81.8856 173.443 81.2116C174.33 81.0627 175.031 81.2082 175.527 81.6447C176.33 82.3516 176.432 83.6551 176.403 84.78L178.446 84.1396C178.527 83.7705 178.858 82.5462 179.764 82.1065C180.298 81.8481 180.923 81.9091 181.622 82.2884C182.587 82.8108 183.156 83.854 183.147 85.079C183.136 86.3163 182.555 87.4153 181.666 87.8789C181.129 88.1589 180.253 88.3263 179.085 87.5976C178.612 88.6943 176.081 94.0142 171.529 94.0147ZM167.21 81.2077C166.624 84.2391 166.021 89.484 168.133 92.1373C168.908 93.1113 169.993 93.6265 171.359 93.6686C176.284 93.8269 178.82 87.3447 178.845 87.2793C178.863 87.2302 178.904 87.1924 178.954 87.1767C179.004 87.161 179.059 87.1691 179.103 87.199C179.987 87.8038 180.818 87.9335 181.507 87.5745C182.273 87.1751 182.794 86.1711 182.803 85.0763C182.811 83.9804 182.309 83.0511 181.459 82.5902C180.862 82.267 180.343 82.2082 179.915 82.415C179.025 82.8462 178.766 84.2874 178.764 84.302C178.753 84.3654 178.707 84.4174 178.646 84.4367L176.274 85.1802C176.221 85.1969 176.163 85.1868 176.118 85.1527C176.073 85.1187 176.048 85.0652 176.051 85.0093C176.096 83.9107 176.052 82.5648 175.3 81.9022C174.886 81.5375 174.281 81.4191 173.5 81.5502C170.022 82.1353 167.859 81.4607 167.21 81.2077Z" fill="black"/>
<path d="M178.763 86.245C178.728 86.245 178.693 86.2344 178.662 86.2122C178.586 86.1565 178.569 86.049 178.625 85.9723C179.056 85.3791 179.775 85.0222 180.513 85.0415C180.608 85.0439 180.683 85.1229 180.68 85.2176C180.678 85.3109 180.601 85.3849 180.509 85.3849C180.507 85.3849 180.505 85.3849 180.504 85.3848C179.892 85.369 179.269 85.671 178.903 86.1742C178.869 86.2205 178.817 86.245 178.763 86.245Z" fill="black"/>
<path d="M214.235 139.179H94.9254V142.709H214.235V139.179Z" fill="white"/>
<path d="M214.235 142.88H94.9253C94.8302 142.88 94.7533 142.803 94.7533 142.708V139.179C94.7533 139.084 94.8302 139.007 94.9253 139.007H214.235C214.33 139.007 214.406 139.084 214.406 139.179V142.708C214.406 142.803 214.33 142.88 214.235 142.88ZM95.0972 142.536H214.063V139.351H95.0972V142.536Z" fill="black"/>
<path d="M78.6907 124.467H68.0696C64.3305 124.467 61.2885 121.429 61.2885 117.694V92.7085C61.2885 92.6137 61.3654 92.5368 61.4604 92.5368C61.5554 92.5368 61.6323 92.6137 61.6323 92.7085V117.694C61.6323 121.24 64.52 124.124 68.0695 124.124H78.6906C88.4308 124.124 96.355 116.209 96.355 106.481C96.355 103.767 94.5077 101.445 91.8625 100.834C91.7889 100.818 91.7351 100.754 91.7298 100.679C91.7244 100.604 91.7691 100.534 91.8397 100.507C97.8004 98.2206 101.805 92.3989 101.805 86.0206C101.805 78.2858 96.0264 71.6767 88.3633 70.6473C88.284 70.6367 88.2227 70.573 88.215 70.4936C88.2072 70.4142 88.2553 70.3399 88.3308 70.3144C92.4523 68.92 95.2212 65.063 95.2212 60.7167C95.2212 50.1284 86.9258 41.5708 76.3358 41.2345C76.2431 41.2315 76.1693 41.1555 76.1693 41.0629V37.5478C76.1693 31.9238 71.5883 27.3483 65.9575 27.3483C60.3267 27.3483 55.7459 31.9238 55.7459 37.5478V124.296C55.7459 124.391 55.6689 124.467 55.5739 124.467C55.4789 124.467 55.402 124.39 55.402 124.296V37.5478C55.402 31.7344 60.1372 27.0049 65.9575 27.0049C71.7779 27.0049 76.5132 31.7344 76.5132 37.5478V40.8972C81.6196 41.1014 86.3883 43.2304 89.9576 46.9032C93.5737 50.6242 95.5651 55.5299 95.5651 60.7168C95.5651 64.989 92.9777 68.8039 89.0607 70.4084C96.5672 71.7378 102.149 78.3357 102.149 86.0206C102.149 89.2909 101.16 92.4307 99.2898 95.1004C97.56 97.5693 95.1987 99.4753 92.438 100.637C94.9712 101.445 96.6988 103.78 96.6988 106.481C96.6989 116.399 88.6204 124.467 78.6907 124.467Z" fill="url(#paint19_linear_1267_6152)"/>
<path d="M91.9012 100.839H82.122C82.027 100.839 81.9501 100.762 81.9501 100.667C81.9501 100.572 82.027 100.495 82.122 100.495H91.9012C91.9962 100.495 92.0732 100.572 92.0732 100.667C92.0732 100.762 91.9962 100.839 91.9012 100.839Z" fill="url(#paint20_linear_1267_6152)"/>
<path d="M69.7328 112.576C69.6378 112.576 69.5609 112.499 69.5609 112.404V89.108C69.5609 89.0625 69.5791 89.0187 69.6113 88.9866L88.2647 70.3557C88.3318 70.2887 88.4406 70.2887 88.5078 70.3557C88.5749 70.4228 88.5749 70.5315 88.5078 70.5985L69.9047 89.1791V112.404C69.9047 112.499 69.8278 112.576 69.7328 112.576Z" fill="url(#paint21_linear_1267_6152)"/>
<path d="M65.0785 78.1652C65.0345 78.1652 64.9906 78.1484 64.957 78.1149C64.8898 78.0478 64.8898 77.9391 64.957 77.8721L76.1695 66.673V41.0631C76.1695 40.9683 76.2465 40.8914 76.3415 40.8914C76.4366 40.8914 76.5134 40.9683 76.5134 41.0631V66.744C76.5134 66.7896 76.4953 66.8333 76.4631 66.8655L65.2002 78.1148C65.1666 78.1485 65.1225 78.1652 65.0785 78.1652Z" fill="url(#paint22_linear_1267_6152)"/>
<path d="M65.7989 59.6303C65.7039 59.6303 65.627 59.5534 65.627 59.4586V41.0631C65.627 40.9683 65.7039 40.8914 65.7989 40.8914H76.3414C76.4365 40.8914 76.5133 40.9683 76.5133 41.0631C76.5133 41.158 76.4364 41.2349 76.3414 41.2349H65.9709V59.4586C65.9709 59.5534 65.894 59.6303 65.7989 59.6303Z" fill="url(#paint23_linear_1267_6152)"/>
<path d="M66.0141 63.7439C67.529 63.6281 68.6631 62.3076 68.5472 60.7945C68.4313 59.2814 67.1092 58.1487 65.5943 58.2645C64.0794 58.3803 62.9453 59.7007 63.0612 61.2138C63.1771 62.7269 64.4992 63.8597 66.0141 63.7439Z" fill="url(#paint24_linear_1267_6152)"/>
<path d="M63.8036 92.298C64.6023 91.0071 64.202 89.3139 62.9095 88.5161C61.617 87.7184 59.9218 88.1182 59.1231 89.4091C58.3244 90.7001 58.7247 92.3933 60.0171 93.191C61.3096 93.9888 63.0049 93.589 63.8036 92.298Z" fill="#E2EAFF"/>
<path d="M77.291 100.667C77.291 102.185 78.5226 103.415 80.0419 103.415C81.5612 103.415 82.7929 102.185 82.7929 100.667C82.7929 99.1498 81.5612 97.9197 80.0419 97.9197C78.5226 97.9197 77.291 99.1498 77.291 100.667Z" fill="url(#paint25_linear_1267_6152)"/>
<path d="M71.1792 117.142C72.4717 116.344 72.872 114.651 72.0732 113.36C71.2745 112.069 69.5793 111.669 68.2868 112.467C66.9943 113.264 66.594 114.958 67.3927 116.249C68.1914 117.54 69.8867 117.939 71.1792 117.142Z" fill="url(#paint26_linear_1267_6152)"/>
<path d="M73.6808 76.3232C73.6368 76.3232 73.5929 76.3065 73.5593 76.273C73.4921 76.2059 73.4921 76.0972 73.5593 76.0301L84.3794 65.223V53.5191L78.7438 47.8903C78.6766 47.8232 78.6766 47.7145 78.7438 47.6475C78.8109 47.5804 78.9197 47.5804 78.9869 47.6475L84.6729 53.3267C84.7052 53.3588 84.7233 53.4026 84.7233 53.4481V65.2942C84.7233 65.3397 84.7052 65.3834 84.6729 65.4156L73.8024 76.2731C73.7688 76.3065 73.7248 76.3232 73.6808 76.3232Z" fill="url(#paint27_linear_1267_6152)"/>
<path d="M82.8033 71.4355C82.7592 71.4355 82.7153 71.4187 82.6817 71.3852C82.6146 71.3181 82.6146 71.2095 82.6817 71.1424L88.2635 65.5673V57.2159C88.2635 57.121 88.3404 57.0442 88.4354 57.0442C88.5304 57.0442 88.6074 57.1211 88.6074 57.2159V65.6384C88.6074 65.6839 88.5892 65.7276 88.557 65.7598L82.9249 71.3851C82.8913 71.4187 82.8473 71.4355 82.8033 71.4355Z" fill="url(#paint28_linear_1267_6152)"/>
<path d="M90.8588 98.3915H84.0041C83.9091 98.3915 83.8321 98.3146 83.8321 98.2198C83.8321 98.125 83.9091 98.0481 84.0041 98.0481H90.7876L98.054 90.7904V81.8426L93.2943 77.0886H89.492C83.8515 82.524 75.4346 90.7567 75.0522 91.4611C75.0452 91.5182 75.0096 91.5706 74.9534 91.5964C74.8667 91.636 74.7648 91.5983 74.7253 91.5122C74.6468 91.3415 74.5724 91.1804 81.9702 83.9228C85.5846 80.3768 89.2665 76.8287 89.3032 76.7932C89.3353 76.7624 89.3781 76.7451 89.4226 76.7451H93.3654C93.4111 76.7451 93.4548 76.7632 93.487 76.7954L98.3474 81.65C98.3796 81.6821 98.3978 81.7259 98.3978 81.7714V90.8614C98.3978 90.9069 98.3796 90.9506 98.3474 90.9828L90.9803 98.3411C90.9481 98.3734 90.9045 98.3915 90.8588 98.3915Z" fill="url(#paint29_linear_1267_6152)"/>
<path d="M74.8801 96.7574C74.836 96.7574 74.7921 96.7406 74.7585 96.7071C74.6913 96.6401 74.6913 96.5314 74.7585 96.4643L89.4317 81.8088C89.4639 81.7767 89.5076 81.7585 89.5532 81.7585H93.3654C93.4604 81.7585 93.5373 81.8354 93.5373 81.9303C93.5373 82.0252 93.4604 82.102 93.3654 82.102H89.6244L75.0016 96.7071C74.968 96.7406 74.9241 96.7574 74.8801 96.7574Z" fill="url(#paint30_linear_1267_6152)"/>
<path d="M60.0952 58.4321C60.0001 58.4321 59.9232 58.3552 59.9232 58.2604V39.1165C59.9232 39.071 59.9413 39.0273 59.9736 38.9951L65.2663 33.7087C65.2985 33.6766 65.3422 33.6584 65.3879 33.6584H72.1432C72.2382 33.6584 72.3151 33.7354 72.3151 33.8302C72.3151 33.9251 72.2382 34.0019 72.1432 34.0019H65.4591L60.2671 39.1877V58.2604C60.2671 58.3552 60.1902 58.4321 60.0952 58.4321Z" fill="url(#paint31_linear_1267_6152)"/>
<path d="M64.2593 71.8014C64.2153 71.8014 64.1714 71.7847 64.1378 71.7512C64.0706 71.6841 64.0706 71.5754 64.1378 71.5083L71.9713 63.6842V44.3131C71.9713 44.2182 72.0482 44.1414 72.1433 44.1414C72.2384 44.1414 72.3153 44.2183 72.3153 44.3131V63.7553C72.3153 63.8008 72.2971 63.8445 72.2649 63.8767L64.381 71.7512C64.3473 71.7847 64.3033 71.8014 64.2593 71.8014Z" fill="url(#paint32_linear_1267_6152)"/>
<path d="M82.7928 95.6697C82.7488 95.6697 82.7048 95.6529 82.6712 95.6195C82.6041 95.5524 82.6041 95.4437 82.6712 95.3766L91.5599 86.4988C91.6271 86.4317 91.7359 86.4317 91.803 86.4988C91.8702 86.5659 91.8702 86.6745 91.803 86.7416L82.9143 95.6195C82.8807 95.6529 82.8367 95.6697 82.7928 95.6697Z" fill="url(#paint33_linear_1267_6152)"/>
<path d="M46.5752 124.467C46.4801 124.467 46.4032 124.39 46.4032 124.296V37.5478C46.4032 31.9238 41.8223 27.3483 36.1915 27.3483C30.5607 27.3483 25.9797 31.9238 25.9797 37.5478V41.0629C25.9797 41.1556 25.906 41.2316 25.8133 41.2345C15.2233 41.5708 6.92779 50.1284 6.92779 60.7167C6.92779 65.063 9.69675 68.92 13.8182 70.3144C13.8938 70.34 13.9418 70.4143 13.9341 70.4936C13.9263 70.573 13.865 70.6366 13.786 70.6473C6.12272 71.6768 0.343793 78.2858 0.343793 86.0205C0.343793 92.3989 4.34871 98.2205 10.3096 100.507C10.3801 100.534 10.4248 100.604 10.4194 100.679C10.4142 100.755 10.3603 100.818 10.2868 100.835C7.64157 101.445 5.79409 103.767 5.79409 106.481C5.79409 116.209 13.7183 124.124 23.4585 124.124H34.0796C37.6292 124.124 40.517 121.24 40.517 117.695V92.7086C40.517 92.6137 40.5939 92.5369 40.689 92.5369C40.784 92.5369 40.861 92.6138 40.861 92.7086V117.695C40.861 121.429 37.8188 124.467 34.0797 124.467H23.4586C13.5288 124.467 5.45029 116.399 5.45029 106.481C5.45029 103.78 7.1781 101.445 9.7113 100.637C6.95054 99.4752 4.58924 97.5693 2.85933 95.1003C0.988702 92.4307 0 89.2908 0 86.0206C0 78.3357 5.58193 71.7376 13.0884 70.4083C9.17145 68.8038 6.584 64.9889 6.584 60.7167C6.584 55.5299 8.5754 50.6241 12.1915 46.9031C15.7607 43.2303 20.5295 41.1014 25.6359 40.8971V37.5478C25.6359 31.7344 30.3712 27.0049 36.1916 27.0049C42.0119 27.0049 46.7471 31.7344 46.7471 37.5478V124.296C46.7471 124.391 46.6702 124.467 46.5752 124.467Z" fill="url(#paint34_linear_1267_6152)"/>
<path d="M20.0273 100.839H10.2481C10.1531 100.839 10.0762 100.762 10.0762 100.667C10.0762 100.572 10.1531 100.495 10.2481 100.495H20.0273C20.1224 100.495 20.1993 100.572 20.1993 100.667C20.1993 100.762 20.1224 100.839 20.0273 100.839Z" fill="url(#paint35_linear_1267_6152)"/>
<path d="M32.4165 112.576C32.3214 112.576 32.2445 112.499 32.2445 112.404V89.1791L13.6414 70.5985C13.5743 70.5315 13.5743 70.4228 13.6414 70.3557C13.7086 70.2887 13.8174 70.2887 13.8845 70.3557L32.5379 88.9866C32.5701 89.0188 32.5883 89.0625 32.5883 89.108V112.404C32.5884 112.499 32.5115 112.576 32.4165 112.576Z" fill="url(#paint36_linear_1267_6152)"/>
<path d="M37.0707 78.1651C37.0267 78.1651 36.9827 78.1483 36.9491 78.1148L25.6862 66.8655C25.654 66.8332 25.6359 66.7896 25.6359 66.7441V41.0631C25.6359 40.9683 25.7128 40.8914 25.8078 40.8914C25.9029 40.8914 25.9798 40.9683 25.9798 41.0631V66.673L37.1924 77.8721C37.2595 77.9391 37.2595 78.0478 37.1924 78.1149C37.1587 78.1484 37.1147 78.1651 37.0707 78.1651Z" fill="url(#paint37_linear_1267_6152)"/>
<path d="M36.3503 59.6303C36.2552 59.6303 36.1783 59.5534 36.1783 59.4586V41.2349H25.8076C25.7126 41.2349 25.6357 41.158 25.6357 41.0631C25.6357 40.9683 25.7127 40.8914 25.8076 40.8914H36.3503C36.4453 40.8914 36.5222 40.9683 36.5222 41.0631V59.4585C36.5222 59.5534 36.4453 59.6303 36.3503 59.6303Z" fill="url(#paint38_linear_1267_6152)"/>
<path d="M39.055 61.5241C39.3423 60.0339 38.3657 58.5932 36.8737 58.3063C35.3817 58.0193 33.9394 58.9947 33.652 60.4849C33.3647 61.9751 34.3413 63.4157 35.8333 63.7027C37.3253 63.9896 38.7677 63.0142 39.055 61.5241Z" fill="url(#paint39_linear_1267_6152)"/>
<path d="M42.6328 92.804C43.7071 91.7309 43.7071 89.9912 42.6328 88.9182C41.5585 87.8452 39.8167 87.8452 38.7423 88.9182C37.668 89.9912 37.668 91.7309 38.7423 92.804C39.8167 93.877 41.5585 93.877 42.6328 92.804Z" fill="#E2EAFF"/>
<path d="M24.8581 100.667C24.8581 102.185 23.6265 103.415 22.1072 103.415C20.5879 103.415 19.3562 102.185 19.3562 100.667C19.3562 99.1498 20.5879 97.9197 22.1072 97.9197C23.6265 97.9197 24.8581 99.1498 24.8581 100.667Z" fill="url(#paint40_linear_1267_6152)"/>
<path d="M34.3603 116.736C35.4346 115.663 35.4346 113.923 34.3603 112.85C33.286 111.777 31.5442 111.777 30.4699 112.85C29.3956 113.923 29.3956 115.663 30.4699 116.736C31.5442 117.809 33.286 117.809 34.3603 116.736Z" fill="url(#paint41_linear_1267_6152)"/>
<path d="M28.4682 76.3232C28.4242 76.3232 28.3802 76.3064 28.3467 76.2729L17.4761 65.4153C17.4439 65.3832 17.4258 65.3394 17.4258 65.2939V53.4478C17.4258 53.4023 17.4439 53.3586 17.4761 53.3264L23.1622 47.6472C23.2293 47.5802 23.3381 47.5802 23.4053 47.6472C23.4724 47.7143 23.4724 47.823 23.4053 47.89L17.7697 53.5189V65.2227L28.5898 76.0299C28.6569 76.097 28.6569 76.2057 28.5898 76.2727C28.5562 76.3065 28.5123 76.3232 28.4682 76.3232Z" fill="url(#paint42_linear_1267_6152)"/>
<path d="M19.3458 71.4354C19.3018 71.4354 19.2578 71.4186 19.2242 71.3851L13.5921 65.7598C13.5599 65.7276 13.5417 65.6839 13.5417 65.6384V57.2159C13.5417 57.121 13.6187 57.0442 13.7136 57.0442C13.8087 57.0442 13.8855 57.1211 13.8855 57.2159V65.5673L19.4673 71.1424C19.5345 71.2094 19.5345 71.3181 19.4673 71.3852C19.4338 71.4186 19.3898 71.4354 19.3458 71.4354Z" fill="url(#paint43_linear_1267_6152)"/>
<path d="M18.1449 98.3916H11.2902C11.2446 98.3916 11.2009 98.3735 11.1687 98.3413L3.80156 90.983C3.76936 90.9508 3.75122 90.9071 3.75122 90.8616V81.7716C3.75122 81.7261 3.76936 81.6824 3.80156 81.6502L8.66198 76.7956C8.69419 76.7635 8.73788 76.7454 8.78354 76.7454H12.7265C12.771 76.7454 12.8139 76.7626 12.8459 76.7935C12.8826 76.8289 16.5644 80.3771 20.1789 83.9231C27.5766 91.1806 27.5023 91.3418 27.4236 91.5124C27.384 91.5985 27.2821 91.636 27.1956 91.5967C27.1393 91.5708 27.1038 91.5184 27.0967 91.4613C26.7144 90.757 18.2977 82.5243 12.6571 77.0888H8.85467L4.09502 81.8428V90.7906L11.3614 98.0484H18.1449C18.2399 98.0484 18.3168 98.1253 18.3168 98.2201C18.3168 98.3149 18.24 98.3916 18.1449 98.3916Z" fill="url(#paint44_linear_1267_6152)"/>
<path d="M27.269 96.7574C27.225 96.7574 27.181 96.7406 27.1475 96.7071L12.5247 82.102H8.78371C8.68866 82.102 8.61182 82.0251 8.61182 81.9303C8.61182 81.8354 8.68874 81.7585 8.78371 81.7585H12.5959C12.6415 81.7585 12.6852 81.7767 12.7174 81.8088L27.3906 96.4643C27.4577 96.5314 27.4577 96.6401 27.3906 96.7071C27.357 96.7406 27.313 96.7574 27.269 96.7574Z" fill="url(#paint45_linear_1267_6152)"/>
<path d="M42.0541 58.4322C41.9591 58.4322 41.8821 58.3553 41.8821 58.2604V39.1877L36.6899 34.0019H30.0058C29.9108 34.0019 29.8339 33.925 29.8339 33.8302C29.8339 33.7354 29.9108 33.6584 30.0058 33.6584H36.7611C36.8068 33.6584 36.8505 33.6766 36.8827 33.7087L42.1756 38.9951C42.2078 39.0273 42.2259 39.071 42.2259 39.1165V58.2604C42.226 58.3553 42.1492 58.4322 42.0541 58.4322Z" fill="url(#paint46_linear_1267_6152)"/>
<path d="M37.8897 71.8014C37.8457 71.8014 37.8018 71.7847 37.7682 71.7512L29.8842 63.8767C29.852 63.8445 29.8339 63.8008 29.8339 63.7553V44.3131C29.8339 44.2182 29.9108 44.1414 30.0058 44.1414C30.1009 44.1414 30.1778 44.2183 30.1778 44.3131V63.6841L38.0114 71.5083C38.0785 71.5753 38.0785 71.684 38.0114 71.7511C37.9778 71.7847 37.9337 71.8014 37.8897 71.8014Z" fill="url(#paint47_linear_1267_6152)"/>
<path d="M19.3564 95.6697C19.3124 95.6697 19.2683 95.6529 19.2348 95.6195L10.3463 86.7416C10.2791 86.6745 10.2791 86.5659 10.3463 86.4988C10.4134 86.4317 10.5222 86.4317 10.5894 86.4988L19.4779 95.3766C19.5451 95.4437 19.5451 95.5524 19.4779 95.6195C19.4443 95.6529 19.4003 95.6697 19.3564 95.6697Z" fill="url(#paint48_linear_1267_6152)"/>
<path d="M32.4165 120.346H18.105C18.0594 120.346 18.0157 120.328 17.9835 120.296L11.5264 113.847C11.4942 113.814 11.4761 113.771 11.4761 113.725V110.453C11.4761 110.408 11.4942 110.364 11.5264 110.332L17.353 104.512C17.3852 104.48 17.4289 104.462 17.4746 104.462H27.2691C27.3642 104.462 27.4411 104.539 27.4411 104.634C27.4411 104.728 27.3642 104.805 27.2691 104.805H17.5457L11.8199 110.524V113.654L18.1762 120.003H32.4164C32.5115 120.003 32.5883 120.08 32.5883 120.175C32.5884 120.269 32.5116 120.346 32.4165 120.346Z" fill="url(#paint49_linear_1267_6152)"/>
<path d="M16.5892 113.683C16.5451 113.683 16.5011 113.666 16.4676 113.633C16.4004 113.566 16.4004 113.457 16.4676 113.39L20.7034 109.159C20.7356 109.127 20.7793 109.109 20.825 109.109H29.7233C29.8184 109.109 29.8953 109.186 29.8953 109.281C29.8953 109.376 29.8184 109.453 29.7233 109.453H20.8961L16.7107 113.633C16.6772 113.666 16.6332 113.683 16.5892 113.683Z" fill="url(#paint50_linear_1267_6152)"/>
<path d="M27.269 115.027H20.0271C19.9321 115.027 19.8552 114.95 19.8552 114.856C19.8552 114.761 19.9321 114.684 20.0271 114.684H27.269C27.3641 114.684 27.441 114.761 27.441 114.856C27.4409 114.95 27.364 115.027 27.269 115.027Z" fill="url(#paint51_linear_1267_6152)"/>
<path d="M61.5381 62.3069H40.328L29.7229 80.6533L40.328 98.9996H61.5381L72.1432 80.6533L61.5381 62.3069Z" fill="url(#paint52_linear_1267_6152)"/>
<path d="M51.8547 83.6344H44.1107L42.3533 88.4203H40.8422L47.2973 71.3831H48.668L55.1232 88.4203H53.6236L51.8547 83.6344ZM44.5559 82.4175H51.3978L47.9768 73.1383L44.5559 82.4175Z" fill="white"/>
<path d="M59.3877 88.4203H57.9467V71.3831H59.3877V88.4203Z" fill="white"/>
<path d="M110.459 135.643H46.5751C46.48 135.643 46.4031 135.566 46.4031 135.471V114.856C46.4031 114.761 46.48 114.684 46.5751 114.684C46.6701 114.684 46.747 114.761 46.747 114.856V135.299H110.459C110.554 135.299 110.63 135.376 110.63 135.471C110.63 135.566 110.554 135.643 110.459 135.643Z" fill="url(#paint53_linear_1267_6152)"/>
<defs>
<linearGradient id="paint0_linear_1267_6152" x1="120.372" y1="63.6218" x2="123.864" y2="63.6218" gradientUnits="userSpaceOnUse">
<stop stop-color="#F57A00"/>
<stop offset="1" stop-color="#7103A4"/>
</linearGradient>
<linearGradient id="paint1_linear_1267_6152" x1="140.874" y1="84.5354" x2="144.366" y2="84.5354" gradientUnits="userSpaceOnUse">
<stop stop-color="#F57A00"/>
<stop offset="1" stop-color="#7103A4"/>
</linearGradient>
<linearGradient id="paint2_linear_1267_6152" x1="113.886" y1="74.4421" x2="117.378" y2="74.4323" gradientUnits="userSpaceOnUse">
<stop stop-color="#F57A00"/>
<stop offset="1" stop-color="#7103A4"/>
</linearGradient>
<linearGradient id="paint3_linear_1267_6152" x1="132.818" y1="1.92038" x2="136.309" y2="1.91129" gradientUnits="userSpaceOnUse">
<stop stop-color="#F57A00"/>
<stop offset="1" stop-color="#7103A4"/>
</linearGradient>
<linearGradient id="paint4_linear_1267_6152" x1="112.834" y1="3.40989" x2="116.326" y2="3.4001" gradientUnits="userSpaceOnUse">
<stop stop-color="#F57A00"/>
<stop offset="1" stop-color="#7103A4"/>
</linearGradient>
<linearGradient id="paint5_linear_1267_6152" x1="166.891" y1="15.8906" x2="170.383" y2="15.8906" gradientUnits="userSpaceOnUse">
<stop stop-color="#F57A00"/>
<stop offset="1" stop-color="#7103A4"/>
</linearGradient>
<linearGradient id="paint6_linear_1267_6152" x1="198.431" y1="16.2849" x2="201.922" y2="16.2849" gradientUnits="userSpaceOnUse">
<stop stop-color="#F57A00"/>
<stop offset="1" stop-color="#7103A4"/>
</linearGradient>
<linearGradient id="paint7_linear_1267_6152" x1="194.453" y1="28.2937" x2="197.945" y2="28.2937" gradientUnits="userSpaceOnUse">
<stop stop-color="#F57A00"/>
<stop offset="1" stop-color="#7103A4"/>
</linearGradient>
<linearGradient id="paint8_linear_1267_6152" x1="168.113" y1="67.4109" x2="168.119" y2="63.9255" gradientUnits="userSpaceOnUse">
<stop stop-color="#F57A00"/>
<stop offset="1" stop-color="#7103A4"/>
</linearGradient>
<linearGradient id="paint9_linear_1267_6152" x1="99.9661" y1="24.7675" x2="99.9723" y2="21.2822" gradientUnits="userSpaceOnUse">
<stop stop-color="#F57A00"/>
<stop offset="1" stop-color="#7103A4"/>
</linearGradient>
<linearGradient id="paint10_linear_1267_6152" x1="108.258" y1="36.4494" x2="154.643" y2="36.4494" gradientUnits="userSpaceOnUse">
<stop stop-color="#F57A00"/>
<stop offset="1" stop-color="#7103A4"/>
</linearGradient>
<linearGradient id="paint11_linear_1267_6152" x1="129.932" y1="40.155" x2="132.969" y2="40.155" gradientUnits="userSpaceOnUse">
<stop stop-color="#F57A00"/>
<stop offset="1" stop-color="#7103A4"/>
</linearGradient>
<linearGradient id="paint12_linear_1267_6152" x1="189.434" y1="12.2383" x2="214.234" y2="12.2383" gradientUnits="userSpaceOnUse">
<stop stop-color="#F57A00"/>
<stop offset="1" stop-color="#7103A4"/>
</linearGradient>
<linearGradient id="paint13_linear_1267_6152" x1="190.59" y1="60.9669" x2="207.825" y2="60.9669" gradientUnits="userSpaceOnUse">
<stop stop-color="#F57A00"/>
<stop offset="1" stop-color="#7103A4"/>
</linearGradient>
<linearGradient id="paint14_linear_1267_6152" x1="119.587" y1="95.8292" x2="136.916" y2="95.8292" gradientUnits="userSpaceOnUse">
<stop stop-color="#F57A00"/>
<stop offset="1" stop-color="#7103A4"/>
</linearGradient>
<linearGradient id="paint15_linear_1267_6152" x1="138.65" y1="82.0583" x2="155.72" y2="82.0583" gradientUnits="userSpaceOnUse">
<stop stop-color="#F57A00"/>
<stop offset="1" stop-color="#7103A4"/>
</linearGradient>
<linearGradient id="paint16_linear_1267_6152" x1="63.0767" y1="12.8501" x2="80.1466" y2="12.8501" gradientUnits="userSpaceOnUse">
<stop stop-color="#F57A00"/>
<stop offset="1" stop-color="#7103A4"/>
</linearGradient>
<linearGradient id="paint17_linear_1267_6152" x1="117.049" y1="137.344" x2="162.974" y2="137.344" gradientUnits="userSpaceOnUse">
<stop stop-color="#F57A00"/>
<stop offset="1" stop-color="#7103A4"/>
</linearGradient>
<linearGradient id="paint18_linear_1267_6152" x1="107.531" y1="125.707" x2="150.5" y2="125.707" gradientUnits="userSpaceOnUse">
<stop stop-color="#F57A00"/>
<stop offset="1" stop-color="#7103A4"/>
</linearGradient>
<linearGradient id="paint19_linear_1267_6152" x1="55.402" y1="75.7356" x2="102.149" y2="75.7356" gradientUnits="userSpaceOnUse">
<stop stop-color="#F57A00"/>
<stop offset="1" stop-color="#7103A4"/>
</linearGradient>
<linearGradient id="paint20_linear_1267_6152" x1="81.9501" y1="100.667" x2="92.0732" y2="100.667" gradientUnits="userSpaceOnUse">
<stop stop-color="#F57A00"/>
<stop offset="1" stop-color="#7103A4"/>
</linearGradient>
<linearGradient id="paint21_linear_1267_6152" x1="69.5609" y1="91.4404" x2="88.5581" y2="91.4404" gradientUnits="userSpaceOnUse">
<stop stop-color="#F57A00"/>
<stop offset="1" stop-color="#7103A4"/>
</linearGradient>
<linearGradient id="paint22_linear_1267_6152" x1="64.9066" y1="59.5281" x2="76.5134" y2="59.5281" gradientUnits="userSpaceOnUse">
<stop stop-color="#F57A00"/>
<stop offset="1" stop-color="#7103A4"/>
</linearGradient>
<linearGradient id="paint23_linear_1267_6152" x1="65.627" y1="50.2607" x2="76.5133" y2="50.2607" gradientUnits="userSpaceOnUse">
<stop stop-color="#F57A00"/>
<stop offset="1" stop-color="#7103A4"/>
</linearGradient>
<linearGradient id="paint24_linear_1267_6152" x1="63.0612" y1="61.2138" x2="68.5471" y2="60.7935" gradientUnits="userSpaceOnUse">
<stop stop-color="#F57A00"/>
<stop offset="1" stop-color="#7103A4"/>
</linearGradient>
<linearGradient id="paint25_linear_1267_6152" x1="77.291" y1="100.667" x2="82.7929" y2="100.667" gradientUnits="userSpaceOnUse">
<stop stop-color="#F57A00"/>
<stop offset="1" stop-color="#7103A4"/>
</linearGradient>
<linearGradient id="paint26_linear_1267_6152" x1="67.3927" y1="116.249" x2="72.0701" y2="113.355" gradientUnits="userSpaceOnUse">
<stop stop-color="#F57A00"/>
<stop offset="1" stop-color="#7103A4"/>
</linearGradient>
<linearGradient id="paint27_linear_1267_6152" x1="73.5089" y1="61.9601" x2="84.7233" y2="61.9601" gradientUnits="userSpaceOnUse">
<stop stop-color="#F57A00"/>
<stop offset="1" stop-color="#7103A4"/>
</linearGradient>
<linearGradient id="paint28_linear_1267_6152" x1="82.6313" y1="64.2398" x2="88.6074" y2="64.2398" gradientUnits="userSpaceOnUse">
<stop stop-color="#F57A00"/>
<stop offset="1" stop-color="#7103A4"/>
</linearGradient>
<linearGradient id="paint29_linear_1267_6152" x1="74.7094" y1="87.5682" x2="98.3978" y2="87.5682" gradientUnits="userSpaceOnUse">
<stop stop-color="#F57A00"/>
<stop offset="1" stop-color="#7103A4"/>
</linearGradient>
<linearGradient id="paint30_linear_1267_6152" x1="74.7081" y1="89.2579" x2="93.5373" y2="89.2579" gradientUnits="userSpaceOnUse">
<stop stop-color="#F57A00"/>
<stop offset="1" stop-color="#7103A4"/>
</linearGradient>
<linearGradient id="paint31_linear_1267_6152" x1="59.9232" y1="46.0452" x2="72.3151" y2="46.0452" gradientUnits="userSpaceOnUse">
<stop stop-color="#F57A00"/>
<stop offset="1" stop-color="#7103A4"/>
</linearGradient>
<linearGradient id="paint32_linear_1267_6152" x1="64.0874" y1="57.9713" x2="72.3153" y2="57.9713" gradientUnits="userSpaceOnUse">
<stop stop-color="#F57A00"/>
<stop offset="1" stop-color="#7103A4"/>
</linearGradient>
<linearGradient id="paint33_linear_1267_6152" x1="82.6208" y1="91.0591" x2="91.8534" y2="91.0591" gradientUnits="userSpaceOnUse">
<stop stop-color="#F57A00"/>
<stop offset="1" stop-color="#7103A4"/>
</linearGradient>
<linearGradient id="paint34_linear_1267_6152" x1="0" y1="75.7357" x2="46.7471" y2="75.7357" gradientUnits="userSpaceOnUse">
<stop stop-color="#F57A00"/>
<stop offset="1" stop-color="#7103A4"/>
</linearGradient>
<linearGradient id="paint35_linear_1267_6152" x1="10.0762" y1="100.667" x2="20.1993" y2="100.667" gradientUnits="userSpaceOnUse">
<stop stop-color="#F57A00"/>
<stop offset="1" stop-color="#7103A4"/>
</linearGradient>
<linearGradient id="paint36_linear_1267_6152" x1="13.5911" y1="91.4404" x2="32.5883" y2="91.4404" gradientUnits="userSpaceOnUse">
<stop stop-color="#F57A00"/>
<stop offset="1" stop-color="#7103A4"/>
</linearGradient>
<linearGradient id="paint37_linear_1267_6152" x1="25.6359" y1="59.528" x2="37.2427" y2="59.528" gradientUnits="userSpaceOnUse">
<stop stop-color="#F57A00"/>
<stop offset="1" stop-color="#7103A4"/>
</linearGradient>
<linearGradient id="paint38_linear_1267_6152" x1="25.6357" y1="50.2607" x2="36.5222" y2="50.2607" gradientUnits="userSpaceOnUse">
<stop stop-color="#F57A00"/>
<stop offset="1" stop-color="#7103A4"/>
</linearGradient>
<linearGradient id="paint39_linear_1267_6152" x1="35.8333" y1="63.7027" x2="36.8713" y2="58.3058" gradientUnits="userSpaceOnUse">
<stop stop-color="#F57A00"/>
<stop offset="1" stop-color="#7103A4"/>
</linearGradient>
<linearGradient id="paint40_linear_1267_6152" x1="19.3562" y1="100.667" x2="24.8581" y2="100.667" gradientUnits="userSpaceOnUse">
<stop stop-color="#F57A00"/>
<stop offset="1" stop-color="#7103A4"/>
</linearGradient>
<linearGradient id="paint41_linear_1267_6152" x1="30.4699" y1="116.736" x2="34.3556" y2="112.846" gradientUnits="userSpaceOnUse">
<stop stop-color="#F57A00"/>
<stop offset="1" stop-color="#7103A4"/>
</linearGradient>
<linearGradient id="paint42_linear_1267_6152" x1="17.4258" y1="61.9599" x2="28.6402" y2="61.9599" gradientUnits="userSpaceOnUse">
<stop stop-color="#F57A00"/>
<stop offset="1" stop-color="#7103A4"/>
</linearGradient>
<linearGradient id="paint43_linear_1267_6152" x1="13.5417" y1="64.2397" x2="19.5177" y2="64.2397" gradientUnits="userSpaceOnUse">
<stop stop-color="#F57A00"/>
<stop offset="1" stop-color="#7103A4"/>
</linearGradient>
<linearGradient id="paint44_linear_1267_6152" x1="3.75122" y1="87.5684" x2="27.4396" y2="87.5684" gradientUnits="userSpaceOnUse">
<stop stop-color="#F57A00"/>
<stop offset="1" stop-color="#7103A4"/>
</linearGradient>
<linearGradient id="paint45_linear_1267_6152" x1="8.61182" y1="89.2579" x2="27.441" y2="89.2579" gradientUnits="userSpaceOnUse">
<stop stop-color="#F57A00"/>
<stop offset="1" stop-color="#7103A4"/>
</linearGradient>
<linearGradient id="paint46_linear_1267_6152" x1="29.8339" y1="46.0452" x2="42.2259" y2="46.0452" gradientUnits="userSpaceOnUse">
<stop stop-color="#F57A00"/>
<stop offset="1" stop-color="#7103A4"/>
</linearGradient>
<linearGradient id="paint47_linear_1267_6152" x1="29.8339" y1="57.9713" x2="38.0617" y2="57.9713" gradientUnits="userSpaceOnUse">
<stop stop-color="#F57A00"/>
<stop offset="1" stop-color="#7103A4"/>
</linearGradient>
<linearGradient id="paint48_linear_1267_6152" x1="10.2959" y1="91.0591" x2="19.5283" y2="91.0591" gradientUnits="userSpaceOnUse">
<stop stop-color="#F57A00"/>
<stop offset="1" stop-color="#7103A4"/>
</linearGradient>
<linearGradient id="paint49_linear_1267_6152" x1="11.4761" y1="112.404" x2="32.5883" y2="112.404" gradientUnits="userSpaceOnUse">
<stop stop-color="#F57A00"/>
<stop offset="1" stop-color="#7103A4"/>
</linearGradient>
<linearGradient id="paint50_linear_1267_6152" x1="16.4172" y1="111.396" x2="29.8953" y2="111.396" gradientUnits="userSpaceOnUse">
<stop stop-color="#F57A00"/>
<stop offset="1" stop-color="#7103A4"/>
</linearGradient>
<linearGradient id="paint51_linear_1267_6152" x1="19.8552" y1="114.856" x2="27.441" y2="114.856" gradientUnits="userSpaceOnUse">
<stop stop-color="#F57A00"/>
<stop offset="1" stop-color="#7103A4"/>
</linearGradient>
<linearGradient id="paint52_linear_1267_6152" x1="29.7229" y1="80.6531" x2="72.1432" y2="80.6531" gradientUnits="userSpaceOnUse">
<stop stop-color="#F57A00"/>
<stop offset="1" stop-color="#7103A4"/>
</linearGradient>
<linearGradient id="paint53_linear_1267_6152" x1="46.4031" y1="125.163" x2="110.63" y2="125.163" gradientUnits="userSpaceOnUse">
<stop stop-color="#F57A00"/>
<stop offset="1" stop-color="#7103A4"/>
</linearGradient>
</defs>
</svg>
