<svg width="178" height="181" viewBox="0 0 178 181" fill="none" xmlns="http://www.w3.org/2000/svg">
<path d="M122.629 164.981C142.759 164.981 159.078 155.55 159.078 143.917C159.078 132.283 142.759 122.853 122.629 122.853C102.499 122.853 86.1802 132.283 86.1802 143.917C86.1802 155.55 102.499 164.981 122.629 164.981Z" fill="#1D1D1D"/>
<path d="M148.702 38.3271L147.182 36.0463C147.137 36.0015 147.003 35.9121 146.913 35.9121C146.6 35.9121 146.242 35.8674 145.885 35.8226H145.84C145.84 35.8226 145.84 35.8226 145.84 35.8674L145.616 37.8799C145.616 38.014 145.527 38.1035 145.437 38.1482C145.348 38.1929 145.214 38.1929 145.124 38.1482L143.067 36.9407C142.888 36.8513 142.754 36.6276 142.754 36.404L142.531 34.1232C142.531 34.0337 142.441 33.8549 142.352 33.8101C141.949 33.4524 141.547 33.0051 141.189 32.5579C141.144 32.5132 141.055 32.4685 140.965 32.5132L139.624 32.9604C139.4 33.0499 139.176 32.9604 139.042 32.7368L137.522 30.0982C137.432 29.9193 137.477 29.651 137.611 29.4721L138.684 28.5329C138.729 28.4882 138.774 28.3987 138.729 28.3093C138.506 27.7726 138.371 27.2359 138.237 26.6993C138.237 26.6098 138.103 26.4757 138.058 26.3862L136.18 25.0445C136.001 24.9104 135.912 24.6868 135.912 24.5079V22.1376C135.912 22.0034 135.956 21.914 136.046 21.8245C136.135 21.7798 136.269 21.7798 136.359 21.8245L138.192 22.6743H138.237C138.237 22.6743 138.282 22.6743 138.282 22.6295C138.371 22.2718 138.55 21.9587 138.729 21.6904C138.774 21.6009 138.774 21.4668 138.729 21.422L137.522 18.9623C137.432 18.7387 137.477 18.5151 137.701 18.3809L139.042 17.6206C139.221 17.4865 139.489 17.5759 139.624 17.7548L141.144 20.0356C141.189 20.1251 141.323 20.1698 141.412 20.1698C141.726 20.1698 142.083 20.2145 142.441 20.2593H142.486C142.486 20.2593 142.486 20.2593 142.486 20.2145L142.709 18.202C142.709 18.0679 142.799 17.9784 142.888 17.9337C142.978 17.889 143.112 17.889 143.201 17.9337L145.259 19.1412C145.437 19.2306 145.572 19.4542 145.572 19.6779L145.795 21.9587C145.795 22.0481 145.885 22.227 145.974 22.2718C146.377 22.6295 146.779 23.0768 147.137 23.524C147.182 23.5687 147.271 23.6134 147.361 23.5687L148.702 23.1215C148.926 23.032 149.149 23.1215 149.284 23.3451L150.804 25.9837C150.938 26.1626 150.849 26.4309 150.715 26.6098L149.641 27.549C149.597 27.5937 149.552 27.6832 149.597 27.7726C149.82 28.3093 149.954 28.846 150.089 29.3826C150.133 29.4721 150.223 29.6062 150.268 29.6957L152.146 31.0373C152.325 31.1715 152.414 31.3951 152.414 31.574V33.9443C152.414 34.0785 152.369 34.1679 152.28 34.2574C152.191 34.3021 152.056 34.3021 151.967 34.2574L150.133 33.4076H150.089C150.089 33.4076 150.044 33.4076 150.044 33.4524C149.954 33.8101 149.776 34.1232 149.597 34.3915C149.552 34.481 149.552 34.6151 149.597 34.6599L150.804 37.1196C150.894 37.3432 150.849 37.5668 150.625 37.701L149.284 38.4613C149.194 38.506 149.149 38.506 149.06 38.506C148.971 38.5507 148.792 38.4613 148.702 38.3271ZM150.268 33.0946L152.101 33.9443V31.574C152.101 31.4846 152.012 31.3504 151.967 31.3057L150.089 29.964C149.954 29.8746 149.776 29.651 149.776 29.4721C149.641 28.9354 149.507 28.4434 149.284 27.9068C149.194 27.6832 149.284 27.4596 149.418 27.3254L150.491 26.3862C150.536 26.3415 150.536 26.2521 150.536 26.2073L149.015 23.5687C148.971 23.524 148.881 23.4793 148.836 23.524L147.495 23.9712C147.316 24.0607 147.047 23.9712 146.913 23.7923C146.556 23.3451 146.153 22.9426 145.795 22.5848C145.661 22.4506 145.527 22.227 145.527 22.0481L145.303 19.7673C145.303 19.6779 145.214 19.5437 145.124 19.499L143.067 18.2915L142.844 20.304C142.844 20.4381 142.754 20.5276 142.665 20.5723C142.575 20.617 142.441 20.6618 142.352 20.617C142.039 20.5276 141.681 20.5276 141.412 20.5276C141.189 20.5276 140.965 20.4381 140.876 20.2593L139.355 17.9784C139.311 17.9337 139.266 17.9337 139.221 17.9337L137.879 18.694C137.835 18.7387 137.835 18.7834 137.835 18.8281L139.042 21.2879C139.132 21.4668 139.132 21.7351 138.997 21.914C138.819 22.1823 138.684 22.4506 138.595 22.8084C138.55 22.9426 138.461 23.032 138.371 23.0768C138.282 23.1215 138.148 23.1215 138.058 23.0768L136.225 22.227V24.5973C136.225 24.6868 136.314 24.8209 136.359 24.8657L138.237 26.2073C138.371 26.2968 138.55 26.5204 138.55 26.6993C138.684 27.2359 138.819 27.7726 139.042 28.2646C139.132 28.4882 139.042 28.7118 138.908 28.846L137.835 29.7851C137.79 29.8298 137.79 29.9193 137.79 29.964L139.311 32.6026C139.355 32.6474 139.445 32.6921 139.489 32.6474L140.831 32.2001C141.01 32.1107 141.278 32.2001 141.412 32.379C141.77 32.8262 142.173 33.2287 142.531 33.5865C142.665 33.7207 142.799 33.9443 142.799 34.1232L143.022 36.404C143.022 36.4935 143.112 36.6277 143.201 36.6724L145.259 37.8799L145.482 35.8674C145.482 35.7332 145.572 35.6438 145.661 35.599C145.751 35.5543 145.885 35.5096 145.974 35.5543C146.287 35.6438 146.645 35.6438 146.913 35.6438C147.137 35.6438 147.361 35.7332 147.45 35.9121L148.971 38.1929C149.015 38.2377 149.06 38.2377 149.105 38.2377L150.446 37.4774C150.491 37.4326 150.491 37.3879 150.491 37.3432L149.284 34.8835C149.194 34.7046 149.194 34.4363 149.328 34.2574C149.507 33.989 149.641 33.7207 149.731 33.3629C149.776 33.2287 149.865 33.1393 149.954 33.0946C149.999 33.0946 150.044 33.0499 150.089 33.0499C150.133 33.0499 150.223 33.0499 150.268 33.0946ZM144.096 32.2449C142.128 31.1268 140.518 28.3093 140.518 26.0284C140.518 24.8657 140.921 24.0159 141.636 23.6134C142.352 23.2109 143.291 23.3004 144.275 23.837C146.242 24.9551 147.852 27.7726 147.852 30.0535C147.852 31.2162 147.45 32.066 146.734 32.4685C146.421 32.6474 146.108 32.7368 145.751 32.7368C145.214 32.7368 144.677 32.5579 144.096 32.2449ZM141.77 23.9265C141.144 24.2843 140.831 25.0445 140.831 26.0284C140.831 28.2198 142.352 30.8585 144.23 31.9318C145.124 32.4237 145.929 32.5132 146.556 32.1554C147.182 31.7976 147.495 31.0374 147.495 30.0535C147.495 27.8621 145.974 25.2234 144.096 24.1501C143.559 23.837 143.067 23.7029 142.62 23.7029C142.307 23.7029 142.039 23.7476 141.77 23.9265Z" fill="#EBEBEB"/>
<path d="M132.021 35.42L132.96 36.6275C133.094 36.7616 133.139 37.03 133.139 37.1641C133.139 37.3878 133.139 37.6114 133.183 37.8797C133.183 38.0586 133.094 38.148 132.915 38.1928H132.244C132.065 38.1928 131.976 38.3269 132.021 38.5058L132.557 40.1605C132.602 40.3394 132.781 40.5183 132.96 40.5631L133.765 40.7867C133.944 40.8314 134.123 41.0103 134.212 41.1892C134.346 41.4575 134.525 41.7258 134.659 42.0389C134.749 42.1731 134.793 42.4414 134.793 42.5756L134.57 43.5147C134.525 43.6489 134.615 43.8725 134.749 44.0514L135.822 45.3036C135.956 45.4378 136.09 45.4378 136.18 45.3483L136.582 44.6775C136.672 44.5433 136.851 44.5433 136.985 44.6775C137.164 44.8117 137.298 44.9011 137.477 44.9906C137.656 45.08 137.835 45.3036 137.879 45.4378L138.461 46.9136C138.505 47.0925 138.729 47.2267 138.908 47.2714L139.758 47.4056C139.937 47.4503 140.026 47.3161 140.026 47.182L139.668 45.7508C139.623 45.572 139.713 45.4378 139.847 45.3483C139.937 45.3036 140.026 45.2589 140.071 45.2142C140.205 45.1247 140.384 45.1695 140.518 45.3036L141.502 46.2875C141.636 46.4217 141.77 46.4217 141.86 46.2875L142.217 45.3483C142.262 45.2142 142.217 44.9906 142.128 44.8564L141.189 43.6489C141.055 43.5147 141.01 43.2464 141.01 43.1122C141.01 42.8886 141.01 42.665 140.965 42.3967C140.965 42.2178 141.055 42.1283 141.234 42.0836H141.904C142.083 42.0836 142.173 41.9494 142.128 41.7706L141.591 40.1158C141.547 39.9369 141.368 39.758 141.189 39.7133L140.384 39.4897C140.205 39.445 140.026 39.2661 139.937 39.0872C139.802 38.8189 139.623 38.5505 139.489 38.2375C139.4 38.1033 139.355 37.835 139.355 37.7008L139.579 36.7616C139.623 36.6275 139.534 36.4039 139.4 36.225L138.327 34.9728C138.192 34.8386 138.058 34.8386 137.969 34.928L137.566 35.5989C137.477 35.733 137.298 35.733 137.164 35.5989C136.985 35.4647 136.851 35.3753 136.672 35.2858C136.493 35.1964 136.314 34.9728 136.269 34.8386L135.598 33.2733C135.554 33.0944 135.33 32.9602 135.151 32.9155L134.302 32.7814C134.123 32.7366 134.033 32.8708 134.033 33.005L134.391 34.4361C134.436 34.615 134.346 34.7491 134.212 34.8386C134.123 34.8833 134.033 34.928 133.988 34.9728C133.854 35.0622 133.675 35.0175 133.541 34.8833L132.557 33.8994C132.423 33.7652 132.289 33.7652 132.2 33.8994L131.842 34.8386C131.842 35.0175 131.887 35.2858 132.021 35.42ZM134.883 37.6114C135.285 36.538 136.582 36.7169 137.79 38.0586C138.953 39.4003 139.579 41.3681 139.176 42.4414C138.774 43.5147 137.477 43.3358 136.269 41.9942C135.062 40.6972 134.48 38.7294 134.883 37.6114Z" fill="#EBEBEB"/>
<path d="M0.715559 148.478C0.581392 148.478 0.491946 148.434 0.357779 148.389C0.134167 148.255 0 148.031 0 147.763V118.38C0 118.112 0.0894448 117.799 0.223612 117.53C0.402502 117.262 0.581391 117.039 0.805003 116.904L9.43643 111.895C9.74948 111.717 10.0625 111.717 10.3756 111.851C10.5992 111.985 10.7334 112.164 10.8228 112.432L11.5384 114.758C11.5831 114.892 11.6278 114.981 11.7173 114.981C11.8067 115.026 11.8962 114.981 12.0303 114.937L30.769 104.114C31.0373 103.98 31.261 103.935 31.4846 104.024L31.574 104.069C31.7976 104.203 31.8871 104.472 31.8871 104.74V129.471C31.8871 130.008 31.5293 130.679 31.0373 130.947L0.983893 148.299C0.983893 148.434 0.849727 148.478 0.715559 148.478ZM10.0178 112.343C9.97309 112.343 9.88365 112.343 9.83893 112.387L1.20751 117.396C1.07334 117.486 0.93917 117.62 0.805003 117.799C0.715558 117.978 0.626114 118.157 0.626114 118.335V147.763C0.626114 147.808 0.670836 147.852 0.670836 147.852C0.715558 147.852 0.76028 147.897 0.805003 147.852L30.8585 130.5C31.1715 130.321 31.3951 129.874 31.3951 129.516V104.829C31.3951 104.695 31.3504 104.65 31.3504 104.65H31.3057C31.3057 104.65 31.2162 104.65 31.1268 104.695L12.3881 115.518C12.1198 115.652 11.8067 115.697 11.5831 115.607C11.3148 115.518 11.1359 115.294 11.0464 114.981L10.3309 112.656C10.2862 112.566 10.2414 112.477 10.152 112.432C10.1073 112.387 10.0625 112.343 10.0178 112.343Z" fill="url(#paint0_linear_1267_5723)"/>
<path d="M41.0997 136.046L40.8761 135.911C40.8761 135.911 40.7867 135.867 40.6078 135.777L40.3842 135.643C40.0264 135.419 39.7133 134.928 39.6239 134.525L36.4933 110.867C36.4486 110.464 36.2697 110.196 36.0461 110.062C35.9566 110.017 35.733 109.883 35.6436 109.838C35.3753 109.659 35.0175 109.704 34.615 109.928L18.4255 119.141C18.023 119.364 17.5757 119.409 17.218 119.275C17.0838 119.185 16.9943 119.051 16.9049 118.917L16.3682 118.022C16.2341 117.799 16.0552 117.62 15.8316 117.486C15.7421 117.441 15.5185 117.307 15.4291 117.262C14.9818 116.994 14.4452 116.994 13.9532 117.262L6.48458 121.556C5.76903 121.958 5.27708 122.942 5.41125 123.747L9.16793 151.967C9.21265 152.325 9.52571 152.995 10.1071 153.353L10.8227 153.756C10.9121 153.8 11.091 153.89 11.2699 153.89C11.4488 153.89 11.5829 153.845 11.6277 153.8L41.5917 136.09C41.4575 136.18 41.2786 136.135 41.0997 136.046Z" fill="url(#paint1_linear_1267_5723)"/>
<path opacity="0.25" d="M41.0997 136.046L40.3841 135.643C40.0263 135.419 39.7133 134.928 39.6238 134.525L36.4933 110.867C36.4038 110.062 35.733 109.749 35.0174 110.151L18.9174 119.454C18.2018 119.856 17.3074 119.632 16.9049 118.917L16.3682 118.022C15.9657 117.307 15.0712 117.083 14.3557 117.486L6.88705 121.779C6.17149 122.182 5.67954 123.166 5.81371 123.971L9.52567 151.922C9.57039 152.325 9.92817 152.817 10.286 153.04L11.0015 153.443C11.1804 153.532 11.3593 153.577 11.4487 153.487L41.5916 136.09C41.4575 136.18 41.2786 136.135 41.0997 136.046Z" fill="black"/>
<path opacity="0.25" d="M10.2412 153.04L10.9568 153.443C11.1357 153.532 11.3146 153.577 11.404 153.487L41.5469 136.09C41.4127 136.18 41.2786 136.135 41.0997 136.046L40.3841 135.643C40.2052 135.554 40.0263 135.375 39.8922 135.196L9.74927 152.593C9.92816 152.772 10.107 152.906 10.2412 153.04Z" fill="black"/>
<path d="M10.4202 126.162V150.715C10.4202 150.804 10.5096 150.938 10.5991 150.983L10.7779 151.072C10.8674 151.117 11.0016 151.117 11.1357 151.072L38.3269 135.375C38.4164 135.33 38.5058 135.196 38.5058 135.107V110.554C38.5058 110.464 38.4164 110.33 38.3269 110.286L38.1033 110.196C38.0139 110.151 37.8797 110.151 37.7456 110.196L10.5543 125.894C10.5096 125.938 10.4202 126.073 10.4202 126.162Z" fill="#FAFAFA"/>
<path d="M38.4611 110.554V110.509C38.4611 110.509 38.4611 110.509 38.4611 110.464C38.4611 110.42 38.4164 110.42 38.4164 110.375L38.3717 110.33C38.3717 110.33 38.3269 110.33 38.3269 110.286L38.1033 110.196C38.0139 110.151 37.8797 110.151 37.7456 110.196L10.5543 125.894C10.5096 125.938 10.4649 125.983 10.4202 126.028L10.9568 126.341C11.0016 126.296 11.0463 126.251 11.091 126.207L38.2822 110.509C38.3717 110.464 38.4611 110.464 38.4611 110.554Z" fill="#E0E0E0"/>
<path d="M11.091 151.117C11.0016 151.117 10.9568 151.072 10.9568 150.983V126.43C10.9568 126.386 10.9568 126.296 11.0016 126.252L10.4649 125.938C10.4202 125.983 10.4202 126.073 10.4202 126.117V150.67C10.4202 150.759 10.5096 150.894 10.5991 150.938L10.7779 151.028C10.8674 151.162 11.0016 151.162 11.091 151.117Z" fill="#E0E0E0"/>
<g opacity="0.1">
<path d="M11.091 151.117C11.0016 151.117 10.9568 151.072 10.9568 150.983V126.43C10.9568 126.386 10.9568 126.296 11.0016 126.252L10.4649 125.938C10.4202 125.983 10.4202 126.073 10.4202 126.117V150.67C10.4202 150.759 10.5096 150.894 10.5991 150.938L10.7779 151.028C10.8674 151.162 11.0016 151.162 11.091 151.117Z" fill="black"/>
</g>
<path d="M42.1285 112.611C42.1285 112.209 41.9943 111.896 41.7707 111.761C41.726 111.717 41.4577 111.582 41.4129 111.538C41.1893 111.404 40.8763 111.404 40.5185 111.627L12.9695 127.548C12.2539 127.951 11.6725 128.935 11.6725 129.784V153.085C11.6725 153.308 11.5831 153.443 11.4937 153.487L11.6725 153.8L41.9943 136.314C42.1285 136.224 42.1732 136.09 42.1732 135.911L42.1285 112.611Z" fill="url(#paint2_linear_1267_5723)"/>
<path opacity="0.2" d="M11.6279 153.8C11.8068 153.711 11.9857 153.487 11.9857 153.085V130.008C11.9857 129.203 12.5671 128.174 13.2827 127.772L40.8317 111.851C41.5472 111.448 42.1286 111.761 42.1286 112.611V135.911C42.1286 136.135 42.0392 136.269 41.9497 136.314L11.6279 153.8Z" fill="white"/>
<path d="M33.3628 132.378L30.3217 129.784C30.1428 129.606 29.785 129.785 29.6061 130.187L28.4881 132.334C28.3092 132.691 27.9514 132.915 27.7725 132.736L25.1786 130.768C24.9997 130.634 24.6419 130.813 24.463 131.171L20.3933 138.997V141.681L33.3628 134.167V132.378ZM31.7975 127.996C32.4236 127.638 32.9603 126.609 32.9603 125.759C32.9603 124.91 32.4236 124.507 31.7975 124.865C31.1714 125.223 30.6347 126.251 30.6347 127.101C30.6347 127.951 31.1714 128.353 31.7975 127.996ZM34.8386 119.946L18.9175 129.158C18.515 129.382 18.2019 130.008 18.2019 130.545V144.945C18.2019 145.482 18.515 145.75 18.9175 145.482L34.8386 136.269C35.2411 136.046 35.5542 135.42 35.5542 134.883V120.482C35.5542 119.99 35.2411 119.722 34.8386 119.946ZM34.302 134.838L19.4541 143.425V130.679L34.302 122.092V134.838Z" fill="white"/>
<path d="M0.715559 97.0924C0.581392 97.0924 0.491946 97.0477 0.357779 97.003C0.134167 96.8688 0 96.6452 0 96.3768V66.9942C0 66.7259 0.0894448 66.4128 0.223612 66.1445C0.402502 65.8762 0.581391 65.6526 0.805003 65.5184L9.43643 60.5095C9.74948 60.3306 10.0625 60.3306 10.3756 60.4648C10.5992 60.5989 10.7334 60.7778 10.8228 61.0461L11.5384 63.3717C11.5831 63.5059 11.6278 63.5953 11.7173 63.5953C11.8067 63.64 11.8962 63.5953 12.0303 63.5506L30.769 52.7278C31.0373 52.5936 31.261 52.5489 31.4846 52.6383L31.574 52.6831C31.7976 52.8172 31.8871 53.0856 31.8871 53.3539V78.0854C31.8871 78.622 31.5293 79.2929 31.0373 79.5612L0.983893 96.9135C0.983893 97.0477 0.849727 97.0924 0.715559 97.0924ZM10.0178 60.9567C9.97309 60.9567 9.88365 60.9567 9.83893 61.0014L1.20751 66.0103C1.07334 66.0998 0.93917 66.2339 0.805003 66.4128C0.715558 66.5917 0.626114 66.7706 0.626114 66.9495V96.3321C0.626114 96.3768 0.670836 96.4216 0.670836 96.4216C0.715558 96.4216 0.76028 96.4663 0.805003 96.4216L30.8585 79.0693C31.1715 78.8904 31.3951 78.4432 31.3951 78.0854V53.3539C31.3951 53.2197 31.3504 53.175 31.3504 53.175H31.3057C31.3057 53.175 31.2162 53.175 31.1268 53.2197L12.3881 64.0425C12.1198 64.1767 11.8067 64.2214 11.5831 64.132C11.3148 64.0425 11.1359 63.8189 11.0464 63.5059L10.3309 61.1803C10.2862 61.0909 10.2414 61.0014 10.152 60.9567C10.1073 61.0014 10.0625 60.9567 10.0178 60.9567Z" fill="url(#paint3_linear_1267_5723)"/>
<path d="M41.0997 84.7489L40.8761 84.6147C40.8761 84.6147 40.7867 84.57 40.6078 84.4805L40.3842 84.3464C40.0264 84.1227 39.7133 83.6308 39.6239 83.2283L36.4933 59.5702C36.4486 59.1677 36.2697 58.8993 36.0461 58.7651C35.9566 58.7204 35.733 58.5863 35.6436 58.5415C35.3753 58.3626 35.0175 58.4074 34.615 58.631L18.4255 67.8438C18.023 68.0674 17.5757 68.1121 17.218 67.978C17.0838 67.8885 16.9943 67.7544 16.9049 67.6202L16.3682 66.7257C16.2341 66.5021 16.0552 66.3232 15.8316 66.1891C15.7421 66.1443 15.5185 66.0102 15.4291 65.9655C14.9818 65.6971 14.4452 65.6971 13.9532 65.9655L6.48458 70.2588C5.76903 70.6613 5.27708 71.6452 5.41125 72.4502L9.16793 100.67C9.21265 101.028 9.52571 101.699 10.1071 102.056L10.8227 102.459C10.9121 102.504 11.091 102.593 11.2699 102.593C11.4488 102.593 11.5829 102.548 11.6277 102.504L41.5917 84.7936C41.4575 84.883 41.2786 84.8383 41.0997 84.7489Z" fill="url(#paint4_linear_1267_5723)"/>
<path opacity="0.25" d="M41.0997 84.7487L40.3841 84.3462C40.0263 84.1226 39.7133 83.6307 39.6238 83.2282L36.4933 59.57C36.4038 58.765 35.733 58.452 35.0174 58.8545L18.9174 68.1567C18.2018 68.5592 17.3074 68.3356 16.9049 67.6201L16.3682 66.7256C15.9657 66.01 15.0712 65.7864 14.3557 66.1889L6.88705 70.4823C6.17149 70.8848 5.67954 71.8687 5.81371 72.6737L9.52567 100.625C9.57039 101.028 9.92817 101.52 10.286 101.743L11.0015 102.146C11.1804 102.235 11.3593 102.28 11.4487 102.19L41.5916 84.7935C41.4575 84.8829 41.2786 84.8382 41.0997 84.7487Z" fill="black"/>
<path opacity="0.25" d="M10.2413 101.743L10.9569 102.146C11.1357 102.235 11.3146 102.28 11.4041 102.191L41.547 84.7935C41.4128 84.8829 41.2786 84.8382 41.0998 84.7488L40.3842 84.3463C40.2053 84.2568 40.0264 84.0779 39.8922 83.899L9.79407 101.251C9.92823 101.475 10.1071 101.609 10.2413 101.743Z" fill="black"/>
<path d="M10.4202 74.8652V99.4178C10.4202 99.5072 10.5096 99.6414 10.5991 99.6861L10.7779 99.7755C10.8674 99.8203 11.0016 99.8203 11.1357 99.7755L38.3269 84.078C38.4164 84.0333 38.5058 83.8991 38.5058 83.8096V59.257C38.5058 59.1676 38.4164 59.0334 38.3269 58.9887L38.1481 58.8993C38.0586 58.8545 37.9244 58.8545 37.7903 58.8993L10.5991 74.5968C10.5096 74.6415 10.4202 74.7757 10.4202 74.8652Z" fill="#FAFAFA"/>
<path d="M38.4613 59.257V59.2123C38.4613 59.2123 38.4613 59.2123 38.4613 59.1676C38.4613 59.1229 38.4166 59.1229 38.4166 59.0782L38.3719 59.0334C38.3719 59.0334 38.3271 59.0334 38.3271 58.9887L38.1483 58.8993C38.0588 58.8545 37.9246 58.8545 37.7905 58.8993L10.5993 74.5968C10.5545 74.6415 10.5098 74.6863 10.4651 74.731L11.0018 75.044C11.0465 74.9993 11.0912 74.9546 11.1359 74.9099L38.3271 59.2123C38.3719 59.1676 38.4613 59.1676 38.4613 59.257Z" fill="#E0E0E0"/>
<path d="M11.091 99.8202C11.0016 99.8202 10.9568 99.7755 10.9568 99.686V75.1334C10.9568 75.0887 10.9568 74.9993 11.0016 74.9545L10.4649 74.6415C10.4202 74.6862 10.4202 74.7756 10.4202 74.8204V99.373C10.4202 99.4624 10.5096 99.5966 10.5991 99.6413L10.7779 99.7307C10.8674 99.8649 11.0016 99.8649 11.091 99.8202Z" fill="#E0E0E0"/>
<g opacity="0.1">
<path d="M11.091 99.8202C11.0016 99.8202 10.9568 99.7755 10.9568 99.686V75.1334C10.9568 75.0887 10.9568 74.9993 11.0016 74.9545L10.4649 74.6415C10.4202 74.6862 10.4202 74.7756 10.4202 74.8204V99.373C10.4202 99.4624 10.5096 99.5966 10.5991 99.6413L10.7779 99.7307C10.8674 99.8649 11.0016 99.8649 11.091 99.8202Z" fill="black"/>
</g>
<path d="M42.1285 61.3141C42.1285 60.9116 41.9943 60.5985 41.7707 60.4643C41.726 60.4196 41.4577 60.2855 41.4129 60.2407C41.1893 60.1066 40.8763 60.1066 40.5185 60.3302L12.9695 76.2514C12.2539 76.6539 11.6725 77.6378 11.6725 78.4875V101.788C11.6725 102.011 11.5831 102.146 11.4937 102.19L11.6725 102.503L41.9943 85.0169C42.1285 84.9275 42.1732 84.7933 42.1732 84.6144L42.1285 61.3141Z" fill="url(#paint5_linear_1267_5723)"/>
<path opacity="0.2" d="M11.6279 102.503C11.8068 102.414 11.9857 102.19 11.9857 101.788V78.7112C11.9857 77.9062 12.5671 76.8776 13.2827 76.4751L40.8317 60.5539C41.5472 60.1514 42.1286 60.4644 42.1286 61.3142V84.6145C42.1286 84.8382 42.0392 84.9723 41.9497 85.017L11.6279 102.503Z" fill="white"/>
<path d="M34.0338 76.1176L26.6099 80.411C26.2521 78.309 24.6868 77.4593 22.8085 78.5326C20.6618 79.7848 18.9176 83.0943 18.9176 85.9565C18.9176 88.8188 20.6618 90.1157 22.8085 88.9082C24.6868 87.8349 26.2521 85.1515 26.6099 82.5576L30.8585 80.0979V82.021C30.8585 82.6024 31.2163 82.8707 31.6635 82.6024C32.1107 82.334 32.4685 81.6632 32.4685 81.0818V79.1587L34.0785 78.2196C34.5257 77.9512 34.8835 77.2804 34.8835 76.699C34.8835 76.1176 34.481 75.8493 34.0338 76.1176ZM22.8085 87.0746C21.4221 87.8796 20.2593 87.0299 20.2593 85.1515C20.2593 83.2732 21.3773 81.0818 22.8085 80.2768C24.1948 79.4718 25.3576 80.3215 25.3576 82.1999C25.3576 84.1229 24.1948 86.2696 22.8085 87.0746Z" fill="#FAFAFA"/>
<path d="M0.715559 45.7063C0.581392 45.7063 0.491946 45.6616 0.357779 45.6168C0.134167 45.4827 0 45.2591 0 44.9907V15.6081C0 15.3398 0.0894448 15.0267 0.223612 14.7584C0.402502 14.4901 0.581391 14.2664 0.805003 14.1323L9.52587 9.12337C9.83893 8.94448 10.152 8.94448 10.465 9.07864C10.6887 9.21281 10.8228 9.3917 10.9123 9.66003L11.6278 11.9856C11.6725 12.1198 11.7173 12.2092 11.8067 12.2092C11.8962 12.2539 11.9856 12.2092 12.1198 12.1645L30.8585 1.34167C31.1268 1.2075 31.3504 1.16278 31.574 1.25222L31.6635 1.29695C31.8871 1.43111 31.9765 1.69945 31.9765 1.96778V26.6993C31.9765 27.2359 31.6187 27.9068 31.1268 28.1751L1.07334 45.5274C0.983893 45.6616 0.849727 45.7063 0.715559 45.7063ZM10.0178 9.57059C9.97309 9.57059 9.88365 9.57059 9.83893 9.61531L1.16278 14.6242C1.02862 14.7137 0.894448 14.8478 0.760281 15.0267C0.670836 15.2056 0.581391 15.3845 0.581391 15.5634V44.946C0.581391 44.9907 0.626114 45.0355 0.626114 45.0355C0.670837 45.0355 0.715559 45.0802 0.760281 45.0355L30.8137 27.6832C31.1268 27.5043 31.3504 27.0571 31.3504 26.6993V2.05723C31.3504 1.92306 31.3057 1.87834 31.3057 1.87834H31.261C31.261 1.87834 31.1715 1.87834 31.0821 1.92306L12.3881 12.7012C12.1198 12.8353 11.8067 12.88 11.5831 12.7906C11.3148 12.7012 11.1359 12.4775 11.0464 12.1645L10.3309 9.83892C10.2862 9.74948 10.2414 9.66003 10.152 9.61531C10.1073 9.61531 10.0625 9.57059 10.0178 9.57059Z" fill="url(#paint6_linear_1267_5723)"/>
<path d="M41.0997 33.4524L40.8761 33.3182C40.8761 33.3182 40.7867 33.2735 40.6078 33.184L40.3842 33.0499C40.0264 32.8262 39.7133 32.3343 39.6239 31.9318L36.4933 8.27364C36.4486 7.87114 36.2697 7.60281 36.0461 7.46864C35.9566 7.42392 35.733 7.28975 35.6436 7.24503C35.3753 7.06614 35.0175 7.11086 34.615 7.33447L18.4255 16.5473C18.023 16.7709 17.5757 16.8156 17.218 16.6815C17.0838 16.592 16.9943 16.4578 16.9049 16.3237L16.3682 15.4292C16.2341 15.2056 16.0552 15.0267 15.8316 14.8926C15.7421 14.8478 15.5185 14.7137 15.4291 14.6689C14.9818 14.4006 14.4452 14.4006 13.9532 14.6689L6.48458 18.9623C5.76903 19.3648 5.27708 20.3487 5.41125 21.1537L9.16793 49.3735C9.21265 49.7313 9.52571 50.4021 10.1071 50.7599L10.8227 51.1624C10.9121 51.2071 11.091 51.2966 11.2699 51.2966C11.4488 51.2966 11.5829 51.2519 11.6277 51.2071L41.5917 33.4971C41.4575 33.5865 41.2786 33.5418 41.0997 33.4524Z" fill="url(#paint7_linear_1267_5723)"/>
<path opacity="0.25" d="M41.0997 33.4523L40.3841 33.0498C40.0263 32.8262 39.7133 32.3343 39.6238 31.9318L36.4933 8.27363C36.4038 7.46863 35.733 7.15557 35.0174 7.55807L18.9174 16.8603C18.2018 17.2628 17.3074 17.0392 16.9049 16.3237L16.3682 15.4292C15.9657 14.7137 15.0712 14.49 14.3557 14.8925L6.88705 19.1859C6.17149 19.5884 5.67954 20.5723 5.81371 21.3773L9.52567 49.3288C9.57039 49.7313 9.92817 50.2232 10.286 50.4469L11.0015 50.8494C11.1804 50.9388 11.3593 50.9835 11.4487 50.8941L41.5916 33.4971C41.4575 33.5865 41.2786 33.5418 41.0997 33.4523Z" fill="black"/>
<path opacity="0.25" d="M10.2412 50.4468L10.9568 50.8493C11.1357 50.9387 11.3146 50.9834 11.404 50.894L41.5469 33.497C41.4127 33.5864 41.2786 33.5417 41.0997 33.4523L40.3841 33.0498C40.2052 32.9603 40.0263 32.7814 39.8922 32.6025L9.74927 49.9995C9.92816 50.1784 10.107 50.3573 10.2412 50.4468Z" fill="black"/>
<path d="M10.4202 23.5686V48.1212C10.4202 48.2107 10.5096 48.3448 10.5991 48.4343L10.7779 48.5237C10.8674 48.5684 11.0016 48.5684 11.1357 48.5237L38.3269 32.8261C38.4164 32.7814 38.5058 32.6473 38.5058 32.5578V8.00521C38.5058 7.91577 38.4164 7.7816 38.3269 7.73688L38.1481 7.64743C38.0586 7.60271 37.9244 7.60271 37.7903 7.64743L10.5991 23.345C10.5096 23.345 10.4202 23.4792 10.4202 23.5686Z" fill="#FAFAFA"/>
<path d="M38.4613 7.96066V7.91594C38.4613 7.91594 38.4613 7.91593 38.4613 7.87121C38.4613 7.82649 38.4166 7.82649 38.4166 7.78177L38.3719 7.73705C38.3719 7.73705 38.3271 7.73705 38.3271 7.69232L38.1483 7.60288C38.0588 7.55816 37.9246 7.55816 37.7905 7.60288L10.5993 23.3004C10.5545 23.3452 10.5098 23.3899 10.4651 23.4346L11.0018 23.7477C11.0465 23.7029 11.0912 23.6582 11.1359 23.6135L38.3271 7.91594C38.3719 7.87121 38.4613 7.87121 38.4613 7.96066Z" fill="#E0E0E0"/>
<path d="M11.091 48.5238C11.0016 48.5238 10.9568 48.4791 10.9568 48.3896V23.837C10.9568 23.7923 10.9568 23.7029 11.0016 23.6581L10.4649 23.3451C10.4202 23.3898 10.4202 23.4793 10.4202 23.524V48.0766C10.4202 48.166 10.5096 48.3002 10.5991 48.3449L10.7779 48.4344C10.8674 48.5685 11.0016 48.5685 11.091 48.5238Z" fill="#E0E0E0"/>
<g opacity="0.1">
<path d="M11.091 48.5238C11.0016 48.5238 10.9568 48.4791 10.9568 48.3896V23.837C10.9568 23.7923 10.9568 23.7029 11.0016 23.6581L10.4649 23.3451C10.4202 23.3898 10.4202 23.4793 10.4202 23.524V48.0766C10.4202 48.166 10.5096 48.3002 10.5991 48.3449L10.7779 48.4344C10.8674 48.5685 11.0016 48.5685 11.091 48.5238Z" fill="black"/>
</g>
<path d="M42.1285 10.0177C42.1285 9.61518 41.9943 9.30213 41.7707 9.16796C41.726 9.12324 41.4577 8.98907 41.4129 8.94435C41.1893 8.81018 40.8763 8.81018 40.5185 9.03379L12.9695 24.955C12.2539 25.3575 11.6725 26.3414 11.6725 27.1911V50.4915C11.6725 50.7151 11.5831 50.8492 11.4937 50.894L11.6725 51.207L41.9943 33.7206C42.1285 33.6311 42.1732 33.4969 42.1732 33.3181L42.1285 10.0177Z" fill="url(#paint8_linear_1267_5723)"/>
<path opacity="0.2" d="M11.6279 51.2071C11.8068 51.1177 11.9857 50.8941 11.9857 50.4916V27.4148C11.9857 26.6098 12.5671 25.5812 13.2827 25.1787L40.8317 9.25751C41.5472 8.85501 42.1286 9.16806 42.1286 10.0178V33.3182C42.1286 33.5418 42.0392 33.6759 41.9497 33.7207L11.6279 51.2071Z" fill="white"/>
<path d="M26.8782 29.1143C28.4882 28.1751 29.7851 25.7154 29.7851 23.5687C29.7851 21.422 28.4882 20.4381 26.8782 21.3773C25.2682 22.3165 23.9712 24.7762 23.9712 26.9229C23.9712 29.0696 25.2682 30.0087 26.8782 29.1143ZM31.7529 30.3665C31.574 28.9354 30.5454 28.3987 29.3826 29.0696L24.329 31.9765C23.1662 32.6474 22.1823 34.3468 21.9587 36.0015L21.6009 38.9532C21.5562 39.2216 21.7351 39.4004 21.914 39.2663L31.7529 33.5865C31.9318 33.4524 32.1107 33.1393 32.066 32.9157L31.7529 30.3665Z" fill="#FAFAFA"/>
<path d="M62.8798 41.3682C62.6562 41.3682 62.4326 41.3235 62.2537 41.1893C61.8512 40.9657 61.6276 40.5632 61.6276 40.0713V11.6726C61.6276 11.3595 61.4487 11.0912 61.1804 10.9123C60.9121 10.7334 60.599 10.7334 60.286 10.9123L47.4953 18.3362L47.2717 17.9784L60.0623 10.5992C60.4648 10.3756 60.9568 10.3756 61.3593 10.5992C61.7618 10.8228 61.9854 11.2253 61.9854 11.7173V40.116C61.9854 40.4291 62.1643 40.6974 62.4326 40.8763C62.701 41.0552 63.014 41.0552 63.3271 40.8763L75.7599 33.676L75.9835 34.0338L63.5507 41.2341C63.3271 41.3235 63.1035 41.3682 62.8798 41.3682Z" fill="url(#paint9_linear_1267_5723)"/>
<path d="M47.4059 17.218C47.8532 16.9496 48.211 17.1732 48.211 17.7099C48.211 18.2466 47.8532 18.8727 47.4059 19.141C46.9587 19.4093 46.6009 19.1857 46.6009 18.6491C46.5562 18.1124 46.914 17.4863 47.4059 17.218Z" fill="url(#paint10_linear_1267_5723)"/>
<path d="M75.8493 32.9155C76.2965 32.6471 76.6543 32.8707 76.6543 33.4074C76.6543 33.9441 76.2965 34.5702 75.8493 34.8385C75.4021 35.1069 75.0443 34.8832 75.0443 34.3466C75.0443 33.8099 75.4021 33.1838 75.8493 32.9155Z" fill="url(#paint11_linear_1267_5723)"/>
<path d="M47.4059 68.2463C47.8532 67.9779 48.211 68.2016 48.211 68.7382C48.211 69.2749 47.8532 69.901 47.4059 70.1693C46.9587 70.4377 46.6009 70.2141 46.6009 69.6774C46.5562 69.1407 46.914 68.5146 47.4059 68.2463Z" fill="url(#paint12_linear_1267_5723)"/>
<path d="M75.8493 42.352C76.2965 42.0836 76.6543 42.3073 76.6543 42.8439C76.6543 43.3806 76.2965 44.0067 75.8493 44.275C75.4021 44.5434 75.0443 44.3198 75.0443 43.7831C75.0443 43.2464 75.4021 42.6203 75.8493 42.352Z" fill="url(#paint13_linear_1267_5723)"/>
<path d="M47.4953 69.3642L47.2717 69.0065L60.3754 61.4036C61.091 60.9564 61.5829 60.1961 61.5829 59.3464V52.9064C61.5829 51.9225 62.1196 50.9833 62.9693 50.4914L75.7152 43.1122L75.9388 43.47L63.1929 50.8492C62.4773 51.2964 61.9854 52.0567 61.9854 52.9064V59.3464C61.9854 60.3303 61.4487 61.2695 60.599 61.7614L47.4953 69.3642Z" fill="url(#paint14_linear_1267_5723)"/>
<path d="M47.4059 121.197C47.8532 120.929 48.211 121.153 48.211 121.689C48.211 122.226 47.8532 122.852 47.4059 123.12C46.9587 123.389 46.6009 123.165 46.6009 122.628C46.5562 122.092 46.914 121.466 47.4059 121.197Z" fill="url(#paint15_linear_1267_5723)"/>
<path d="M75.8493 61.3588C76.2965 61.0905 76.6543 61.3141 76.6543 61.8508C76.6543 62.3874 76.2965 63.0136 75.8493 63.2819C75.4021 63.5502 75.0443 63.3266 75.0443 62.7899C75.0443 62.2533 75.4021 61.6272 75.8493 61.3588Z" fill="url(#paint16_linear_1267_5723)"/>
<path d="M47.4953 122.316L47.2717 121.958L60.3754 114.355C61.091 113.908 61.5829 113.147 61.5829 112.298V71.824C61.5829 70.8401 62.1196 69.9009 62.9693 69.409L75.7152 62.0298L75.9388 62.3876L63.1929 69.7668C62.4773 70.214 61.9854 70.9743 61.9854 71.824V112.298C61.9854 113.282 61.4487 114.221 60.599 114.713L47.4953 122.316Z" fill="url(#paint17_linear_1267_5723)"/>
<path d="M113.461 49.5525L83.9441 66.5917V76.7884L85.1069 77.4145L114.624 60.3753V50.1786L113.461 49.5525Z" fill="#7103A4"/>
<path d="M85.1068 67.2178L114.624 50.1786V60.3753L85.1068 77.4145V67.2178Z" fill="#B936FF"/>
<path d="M83.9441 66.5917L85.1069 67.2178V77.4145L83.9441 76.7884V66.5917Z" fill="#7103A4"/>
<path d="M90.8878 65.7821C91.1175 65.6495 91.3239 65.5614 91.5069 65.5179C91.69 65.4702 91.8461 65.4713 91.9753 65.521C92.1046 65.5666 92.2033 65.6609 92.2715 65.8039C92.3433 65.9448 92.3791 66.1354 92.3791 66.3758C92.3791 66.6204 92.3433 66.8545 92.2715 67.0783C92.2033 67.3001 92.1046 67.5083 91.9753 67.7031C91.8461 67.8979 91.69 68.0793 91.5069 68.2471C91.3239 68.415 91.1175 68.5652 90.8878 68.6979L90.1986 69.0958V70.364C90.1986 70.4096 90.1843 70.4573 90.1555 70.507C90.1268 70.5568 90.0927 70.593 90.0532 70.6158L89.3479 71.0231C89.3085 71.0459 89.2744 71.049 89.2456 71.0324C89.2169 71.0158 89.2026 70.9847 89.2026 70.9391V66.923C89.2026 66.8774 89.2169 66.8297 89.2456 66.78C89.2744 66.7302 89.3085 66.694 89.3479 66.6712L90.8878 65.7821ZM90.1986 68.1259L90.8608 67.7436C91.0116 67.6565 91.1354 67.5477 91.2323 67.4172C91.3328 67.2804 91.3831 67.125 91.3831 66.9509C91.3831 66.7768 91.3328 66.6815 91.2323 66.6649C91.1354 66.6421 91.0116 66.6742 90.8608 66.7613L90.1986 67.1436V68.1259ZM94.498 63.6977C94.7349 63.5609 94.9467 63.4676 95.1333 63.4179C95.32 63.3682 95.4779 63.364 95.6071 63.4055C95.7399 63.4448 95.8404 63.536 95.9086 63.679C95.9804 63.8158 96.0163 64.0044 96.0163 64.2448C96.0163 64.5556 95.9607 64.8468 95.8494 65.1182C95.7381 65.3856 95.5802 65.6322 95.3756 65.8581L96.0432 66.9522C96.054 66.9709 96.0594 66.9906 96.0594 67.0113C96.0594 67.0486 96.0468 67.089 96.0217 67.1325C96.0002 67.1698 95.9732 67.1978 95.9409 67.2165L95.2087 67.6392C95.1369 67.6807 95.0849 67.6921 95.0526 67.6734C95.0239 67.6527 95.0005 67.6289 94.9826 67.6019L94.3849 66.6166L93.8896 66.9025V68.233C93.8896 68.2786 93.8753 68.3262 93.8465 68.376C93.8178 68.4257 93.7837 68.462 93.7442 68.4848L93.0389 68.892C92.9995 68.9148 92.9654 68.9179 92.9366 68.9013C92.9079 68.8847 92.8936 68.8537 92.8936 68.8081V64.7919C92.8936 64.7463 92.9079 64.6986 92.9366 64.6489C92.9654 64.5992 92.9995 64.5629 93.0389 64.5401L94.498 63.6977ZM93.8896 65.9327L94.498 65.5814C94.6488 65.4944 94.7726 65.3897 94.8695 65.2675C94.97 65.1431 95.0203 64.9939 95.0203 64.8198C95.0203 64.6458 94.97 64.5546 94.8695 64.5463C94.7726 64.5359 94.6488 64.5743 94.498 64.6613L93.8896 65.0126V65.9327ZM96.7825 66.7306C96.743 66.7534 96.7089 66.7565 96.6802 66.7399C96.6515 66.7233 96.6372 66.6922 96.6372 66.6466V62.6305C96.6372 62.5849 96.6515 62.5372 96.6802 62.4875C96.7089 62.4377 96.743 62.4015 96.7825 62.3787L97.4878 61.9715C97.5273 61.9487 97.5614 61.9455 97.5901 61.9621C97.6188 61.9787 97.6332 62.0098 97.6332 62.0554V66.0716C97.6332 66.1171 97.6188 66.1648 97.5901 66.2145C97.5614 66.2643 97.5273 66.3005 97.4878 66.3233L96.7825 66.7306ZM99.5294 65.1446C99.3894 65.2254 99.2943 65.1974 99.2441 65.0607L98.1457 61.8092C98.1386 61.7843 98.1332 61.7688 98.1296 61.7626C98.1296 61.7543 98.1296 61.746 98.1296 61.7377C98.1296 61.7004 98.1404 61.6631 98.1619 61.6258C98.187 61.5823 98.2157 61.5512 98.248 61.5325L98.9264 61.1409C98.9982 61.0994 99.0485 61.089 99.0772 61.1098C99.1095 61.1243 99.1292 61.146 99.1364 61.175L99.8848 63.4784L100.633 60.3109C100.64 60.2736 100.658 60.23 100.687 60.1803C100.719 60.1244 100.771 60.0757 100.843 60.0342L101.522 59.6425C101.554 59.6239 101.581 59.6228 101.602 59.6394C101.627 59.6498 101.64 59.6736 101.64 59.7109C101.64 59.7192 101.638 59.7285 101.635 59.7389C101.635 59.7472 101.631 59.7679 101.624 59.8011L100.525 64.3208C100.475 64.5156 100.38 64.6534 100.24 64.7343L99.5294 65.1446ZM103.85 58.298C103.922 58.2565 103.976 58.2482 104.012 58.2731C104.051 58.2959 104.078 58.326 104.093 58.3633L105.266 61.6023C105.281 61.6354 105.288 61.6624 105.288 61.6831C105.288 61.7204 105.275 61.7608 105.25 61.8043C105.229 61.8416 105.202 61.8696 105.169 61.8883L104.491 62.28C104.419 62.3214 104.367 62.3349 104.335 62.3204C104.306 62.2996 104.288 62.2748 104.281 62.2458L104.13 61.8168L102.698 62.6437L102.547 63.2467C102.54 63.284 102.52 63.3306 102.488 63.3866C102.459 63.4363 102.409 63.4819 102.337 63.5234L101.659 63.9151C101.627 63.9337 101.598 63.9379 101.573 63.9275C101.551 63.9109 101.541 63.884 101.541 63.8467C101.541 63.8259 101.548 63.7907 101.562 63.741L102.736 59.1466C102.75 59.0927 102.775 59.0326 102.811 58.9663C102.851 58.8979 102.906 58.843 102.978 58.8016L103.85 58.298ZM102.978 61.5184L103.85 61.0148L103.414 59.7745L102.978 61.5184ZM108.112 55.8377C108.151 55.8149 108.185 55.8118 108.214 55.8283C108.243 55.8449 108.257 55.876 108.257 55.9216V56.5806C108.257 56.6262 108.243 56.6739 108.214 56.7236C108.185 56.7733 108.151 56.8096 108.112 56.8324L107.164 57.3795V60.5688C107.164 60.6144 107.15 60.6621 107.121 60.7118C107.092 60.7615 107.058 60.7978 107.019 60.8206L106.313 61.2278C106.274 61.2506 106.24 61.2537 106.211 61.2372C106.182 61.2206 106.168 61.1895 106.168 61.1439V57.9546L105.22 58.5017C105.181 58.5245 105.147 58.5276 105.118 58.511C105.089 58.4944 105.075 58.4634 105.075 58.4178V57.7588C105.075 57.7132 105.089 57.6655 105.118 57.6158C105.147 57.566 105.181 57.5298 105.22 57.507L108.112 55.8377ZM111.438 57.2742C111.478 57.2514 111.512 57.2483 111.54 57.2649C111.569 57.2814 111.583 57.3125 111.583 57.3581V58.0171C111.583 58.0627 111.569 58.1104 111.54 58.1601C111.512 58.2098 111.478 58.2461 111.438 58.2689L108.886 59.7424C108.847 59.7652 108.812 59.7683 108.784 59.7517C108.755 59.7351 108.741 59.704 108.741 59.6584V55.6423C108.741 55.5967 108.755 55.549 108.784 55.4993C108.812 55.4495 108.847 55.4133 108.886 55.3905L111.395 53.9419C111.435 53.9191 111.469 53.916 111.497 53.9326C111.526 53.9491 111.54 53.9802 111.54 54.0258V54.6848C111.54 54.7304 111.526 54.7781 111.497 54.8278C111.469 54.8775 111.435 54.9138 111.395 54.9366L109.737 55.894V56.5655L111.277 55.6764C111.316 55.6536 111.35 55.6505 111.379 55.6671C111.408 55.6837 111.422 55.7148 111.422 55.7604V56.4194C111.422 56.4649 111.408 56.5126 111.379 56.5623C111.35 56.6121 111.316 56.6484 111.277 56.6711L109.737 57.5602V58.2565L111.438 57.2742Z" fill="#FAFAFA"/>
<path d="M112.566 2.50441C107.781 6.79776 103.667 6.57415 101.117 4.56164C98.5683 9.52583 94.4538 14.49 89.6685 15.6975L86.9405 23.032C86.9405 23.032 88.4163 24.7314 88.4163 28.7117C88.4163 30.5454 88.148 32.1106 87.7455 33.6759C87.2535 35.6437 86.6274 37.7009 86.6274 41.1446C86.6274 43.4701 86.9405 45.7062 88.1033 47.7635C88.7741 48.971 89.758 49.9549 91.0997 50.7599C90.2052 50.2679 87.6113 48.7474 86.9852 48.3896C85.5988 47.5846 84.5702 46.556 83.8546 45.3037C82.6918 43.2465 82.3788 41.0104 82.3788 38.6848C82.3788 35.2412 83.0049 33.2287 83.4968 31.2162C83.8993 29.6509 84.1677 28.0409 84.1677 26.252C84.1677 22.227 82.6918 20.5723 82.6918 20.5723L85.4199 13.2378C90.2052 12.0303 94.3197 7.02137 96.8688 2.10191C99.4627 4.06969 103.577 4.29331 108.318 0.0446777L112.566 2.50441Z" fill="url(#paint18_linear_1267_5723)"/>
<g opacity="0.2">
<path opacity="0.8" d="M98.3447 2.95165L96.8241 2.10193C97.2713 2.45971 97.7633 2.72804 98.3447 2.95165Z" fill="white"/>
<path opacity="0.85" d="M108.273 0C104.338 3.53307 100.894 3.98029 98.3447 2.95168L101.118 4.56169C103.711 6.52947 107.826 6.75308 112.566 2.50446L108.273 0Z" fill="white"/>
</g>
<path opacity="0.2" d="M96.8242 2.10193C94.275 7.06612 90.1605 12.0303 85.3752 13.2378L89.6686 15.6975C94.4539 14.49 98.5684 9.48112 101.118 4.56166L96.8242 2.10193Z" fill="white"/>
<path opacity="0.2" d="M85.3753 13.2378L82.6472 20.5723L86.9406 23.0767L89.6686 15.6975L85.3753 13.2378Z" fill="white"/>
<path opacity="0.2" d="M88.0585 47.8528C86.8957 45.7956 86.5827 43.5595 86.5827 41.2339C86.5827 37.7903 87.2088 35.7778 87.7007 33.7653C88.1032 32.2 88.3715 30.59 88.3715 28.8011C88.3715 24.7761 86.8957 23.1214 86.8957 23.1214L82.6024 20.6616C82.6024 20.6616 84.0782 22.3611 84.0782 26.3414C84.0782 28.175 83.8099 29.7403 83.4074 31.3055C82.9154 33.2733 82.2893 35.3306 82.2893 38.7742C82.2893 41.0998 82.6024 43.3359 83.7651 45.3931C84.4807 46.6453 85.5093 47.6739 86.8957 48.479C87.5666 48.8815 90.1604 50.3573 91.0102 50.8492C89.7132 50.0442 88.7293 49.0156 88.0585 47.8528Z" fill="white"/>
<path d="M101.117 52.8619C94.0066 52.9513 89.9368 51.073 88.0585 47.8083C86.8957 45.751 86.5826 43.5149 86.5826 41.1893C86.5826 37.7457 87.2088 35.7332 87.7007 33.7207C88.1032 32.1554 88.3715 30.5454 88.3715 28.7565C88.3715 24.7315 86.8957 23.0768 86.8957 23.0768L89.6238 15.7423C94.4091 14.5348 98.5235 9.52589 101.073 4.60643C103.622 6.57421 107.736 6.79782 112.522 2.54919L115.25 6.7531C115.25 6.7531 113.774 10.1073 113.774 14.1323C113.774 15.9212 114.042 17.2181 114.445 18.3362C114.937 19.7673 115.563 21.0643 115.563 24.5079C115.563 26.8335 115.25 29.4274 114.087 32.871C112.298 38.1482 108.228 44.7224 101.117 52.8619Z" fill="url(#paint19_linear_1267_5723)"/>
<path d="M101.117 52.8619C94.0066 52.9513 89.9368 51.073 88.0585 47.8083C86.8957 45.751 86.5826 43.5149 86.5826 41.1893C86.5826 37.7457 87.2088 35.7332 87.7007 33.7207C88.1032 32.1554 88.3715 30.5454 88.3715 28.7565C88.3715 24.7315 86.8957 23.0768 86.8957 23.0768L89.6238 15.7423C94.4091 14.5348 98.5235 9.52589 101.073 4.60643C103.622 6.57421 107.736 6.79782 112.522 2.54919L115.25 6.7531C115.25 6.7531 113.774 10.1073 113.774 14.1323C113.774 15.9212 114.042 17.2181 114.445 18.3362C114.937 19.7673 115.563 21.0643 115.563 24.5079C115.563 26.8335 115.25 29.4274 114.087 32.871C112.298 38.1482 108.228 44.7224 101.117 52.8619Z" fill="white"/>
<path opacity="0.75" d="M100.268 51.0283C94.7668 50.9836 91.1891 49.5972 89.6685 46.9138C88.8188 45.438 88.4163 43.6491 88.4163 41.1894C88.4163 38.3718 88.8635 36.5829 89.3107 34.8388C89.3554 34.6152 89.4449 34.3915 89.4896 34.1679C89.9815 32.1554 90.2052 30.456 90.2052 28.7565C90.2052 25.8496 89.4896 23.9265 88.9529 22.8532L91.0549 17.2181C96.1532 15.4292 99.8205 10.4203 101.788 7.11088C102.817 7.55811 103.935 7.78172 105.098 7.78172C107.423 7.78172 109.749 6.932 112.074 5.23254L113.192 6.93199C112.701 8.31839 111.94 11.0017 111.94 14.0876C111.94 15.8765 112.164 17.397 112.701 18.9176C112.745 19.0965 112.835 19.2307 112.879 19.4095C113.327 20.617 113.729 21.7351 113.729 24.4632C113.729 27.0571 113.282 29.4274 112.343 32.2001C110.599 37.4774 106.484 43.828 100.268 51.0283Z" fill="url(#paint20_linear_1267_5723)"/>
<path opacity="0.4" d="M100.268 51.0283C94.7668 50.9836 91.1891 49.5972 89.6685 46.9138C88.8188 45.438 88.4163 43.6491 88.4163 41.1894C88.4163 38.3718 88.8635 36.5829 89.3107 34.8388C89.3554 34.6152 89.4449 34.3915 89.4896 34.1679C89.9815 32.1554 90.2052 30.456 90.2052 28.7565C90.2052 25.8496 89.4896 23.9265 88.9529 22.8532L91.0549 17.2181C96.1532 15.4292 99.8205 10.4203 101.788 7.11088C102.817 7.55811 103.935 7.78172 105.098 7.78172C107.423 7.78172 109.749 6.932 112.074 5.23254L113.192 6.93199C112.701 8.31839 111.94 11.0017 111.94 14.0876C111.94 15.8765 112.164 17.397 112.701 18.9176C112.745 19.0965 112.835 19.2307 112.879 19.4095C113.327 20.617 113.729 21.7351 113.729 24.4632C113.729 27.0571 113.282 29.4274 112.343 32.2001C110.599 37.4774 106.484 43.828 100.268 51.0283Z" fill="white"/>
<path opacity="0.15" d="M100.268 51.0283C94.7668 50.9836 91.1891 49.5972 89.6685 46.9138C88.8188 45.438 88.4163 43.6491 88.4163 41.1894C88.4163 38.3718 88.8635 36.5829 89.3107 34.8388C89.3554 34.6152 89.4449 34.3915 89.4896 34.1679C89.9815 32.1554 90.2052 30.456 90.2052 28.7565C90.2052 25.8496 89.4896 23.9265 88.9529 22.8532L91.0549 17.2181C96.1532 15.4292 99.8205 10.4203 101.788 7.11088C102.817 7.55811 103.935 7.78172 105.098 7.78172C107.423 7.78172 109.749 6.932 112.074 5.23254L113.192 6.93199C112.701 8.31839 111.94 11.0017 111.94 14.0876C111.94 15.8765 112.164 17.397 112.701 18.9176C112.745 19.0965 112.835 19.2307 112.879 19.4095C113.327 20.617 113.729 21.7351 113.729 24.4632C113.729 27.0571 113.282 29.4274 112.343 32.2001C110.599 37.4774 106.484 43.828 100.268 51.0283Z" fill="url(#paint21_linear_1267_5723)"/>
<path opacity="0.8" d="M90.9208 48.4791C92.7991 50.1339 95.9297 50.9836 100.268 51.073L97.495 49.5077C95.0352 49.463 92.8438 49.1052 90.9208 48.4791Z" fill="white"/>
<path opacity="0.25" d="M111.762 6.08227L113.237 6.93199L112.119 5.23254L111.493 5.67977L111.762 6.08227Z" fill="url(#paint22_linear_1267_5723)"/>
<path d="M111.314 18.0678C110.777 16.5473 110.554 15.0714 110.554 13.2378C110.554 10.152 111.314 7.46863 111.806 6.08223L111.538 5.63501C109.391 7.0214 107.289 7.73696 105.187 7.73696C104.024 7.73696 102.906 7.51335 101.878 7.06613C99.91 10.3756 96.2427 15.3845 91.1444 17.1734L89.0424 22.8084C89.5791 23.8818 90.2946 25.8048 90.2946 28.7118C90.2946 30.4559 90.071 32.1107 89.5791 34.1232C89.5344 34.3468 89.4449 34.5704 89.4002 34.794C88.953 36.5382 88.5057 38.3271 88.5057 41.1446C88.5057 43.6043 88.9082 45.3485 89.758 46.8691C90.2052 47.6293 90.7866 48.2555 91.5469 48.8368C93.3805 49.6866 95.8402 50.1338 98.9261 50.1338C105.142 42.9335 109.257 36.5829 111.046 31.3057C111.985 28.5329 112.432 26.1626 112.432 23.5687C112.432 20.8406 112.03 19.7226 111.582 18.5151C111.404 18.3809 111.359 18.2467 111.314 18.0678Z" fill="url(#paint23_linear_1267_5723)"/>
<path d="M103.667 36.0017L97.0031 39.8479L98.0317 27.7728C97.2267 27.3703 96.7347 26.297 96.7347 24.8211C96.7347 22.1825 98.3448 19.052 100.357 17.9339C102.37 16.7711 103.98 18.0233 103.98 20.662C103.98 22.1378 103.488 23.7925 102.683 25.1342L103.667 36.0017Z" fill="url(#paint24_linear_1267_5723)"/>
<path opacity="0.25" d="M103.667 36.0017L97.0031 39.8479L98.0317 27.7728C97.2267 27.3703 96.7347 26.297 96.7347 24.8211C96.7347 22.1825 98.3448 19.052 100.357 17.9339C102.37 16.7711 103.98 18.0233 103.98 20.662C103.98 22.1378 103.488 23.7925 102.683 25.1342L103.667 36.0017Z" fill="black"/>
<path opacity="0.15" d="M103.667 36.0014L97.629 32.5131L97.0029 39.8923L103.667 36.0014Z" fill="black"/>
<path opacity="0.15" d="M100.312 17.9338C99.0155 18.6941 97.8527 20.2593 97.2266 22.0035L102.593 25.0894C103.398 23.7477 103.89 22.1377 103.89 20.6171C103.935 18.0232 102.325 16.771 100.312 17.9338Z" fill="black"/>
<path d="M109.302 154.203L105.098 145.884L96.6006 150.849L107.066 163.192C107.066 163.192 112.253 162.7 113.103 160.017C113.953 157.333 110.733 155.097 109.302 154.203Z" fill="#C8856A"/>
<path d="M115.294 157.468C115.831 157.826 116.144 158.228 116.457 158.765C116.815 159.257 116.681 161.716 117.039 162.879C117.352 164.042 117.62 164.31 118.157 165.741C118.783 167.307 119.901 168.783 118.604 172.852C117.307 176.967 115.339 178.89 113.595 179.874C112.7 180.41 111.538 180.366 111.538 180.366C111.538 180.366 109.302 179.516 109.659 178.219C110.017 176.877 115.294 157.468 115.294 157.468Z" fill="#263238"/>
<path d="M105.5 161.94C105.545 162.342 106.171 163.013 106.395 163.326C107.2 164.489 107.557 166.054 107.826 167.396C109.167 173.836 106.574 177.101 110.062 179.56C111.046 180.187 113.148 180.008 116.323 175.938C117.933 173.881 118.872 169.587 118.246 167.664C117.62 165.741 116.77 164.489 116.323 162.968C115.921 161.493 116.144 158.72 115.294 157.423C114.802 156.663 114.042 156.126 113.282 155.679C112.656 155.321 111.314 154.829 110.688 154.471C110.017 154.069 109.704 153.711 109.302 154.158L110.017 155.053C111.135 156.618 110.822 156.841 110.822 157.691C110.777 158.541 111.09 159.48 111.225 160.33C110.42 159.301 110.107 158.407 109.212 158.586C108.407 158.72 108.228 158.72 106.976 159.883C105.724 161.09 105.411 161.537 105.5 161.94Z" fill="#455A64"/>
<path d="M116.323 175.938C117.933 173.881 118.872 169.587 118.246 167.664C118.023 166.949 117.754 166.367 117.486 165.786C117.531 165.92 117.531 166.054 117.575 166.144C117.62 166.412 117.665 166.636 117.665 166.904C117.754 167.888 117.754 168.917 117.352 169.811C116.994 170.616 116.144 172.629 115.071 172.673C114.445 172.718 113.953 172.092 113.685 171.421C113.595 171.153 113.416 170.348 113.416 170.348C113.416 170.348 111.806 170.705 110.599 171.51C109.033 172.539 109.078 172.763 109.078 172.763C109.123 173.12 109.212 173.702 109.123 174.149C109.033 174.552 108.81 175.267 108.542 175.536C108.407 175.67 108.273 175.759 108.139 175.849C108.184 177.324 108.586 178.487 110.062 179.516C111.046 180.187 113.148 180.008 116.323 175.938Z" fill="#37474F"/>
<path d="M107.826 167.396C108.228 169.409 108.273 171.108 108.228 172.539C108.81 174.194 109.346 174.149 109.391 173.3C109.481 172.45 108.318 168.872 107.468 165.965C107.602 166.457 107.736 166.949 107.826 167.396Z" fill="#37474F"/>
<path d="M111.761 157.065C111.851 156.26 111.582 155.455 111.135 154.695C111.001 154.606 110.822 154.561 110.733 154.471C110.062 154.069 109.749 153.711 109.346 154.158L110.062 155.053C111.18 156.618 110.867 156.842 110.867 157.691C110.822 158.541 111.135 159.48 111.269 160.33C111.94 163.148 112.522 164.087 112.835 166.725C113.148 169.364 112.611 171.153 112.969 171.287C113.327 171.421 114.087 171.153 114.221 169.006C114.355 166.904 113.416 163.326 112.745 161.627C112.119 160.017 111.627 158.183 111.761 157.065Z" fill="#37474F"/>
<path d="M113.595 170.571C113.55 170.616 113.505 170.616 113.461 170.661C111.582 171.063 110.599 171.511 109.212 173.121C109.123 173.21 108.944 173.255 108.854 173.165C108.765 173.076 108.72 172.897 108.81 172.808C110.285 171.108 111.359 170.571 113.327 170.169C113.461 170.124 113.595 170.214 113.64 170.393C113.684 170.437 113.64 170.527 113.595 170.571Z" fill="#EBEBEB"/>
<path d="M113.282 168.38C113.237 168.425 113.192 168.425 113.148 168.47C111.225 168.917 110.151 169.453 108.675 171.153C108.586 171.287 108.407 171.287 108.273 171.198C108.139 171.108 108.139 170.929 108.228 170.795C109.794 169.006 110.956 168.38 112.969 167.933C113.103 167.888 113.282 167.978 113.282 168.157C113.371 168.201 113.327 168.291 113.282 168.38Z" fill="#EBEBEB"/>
<path d="M113.327 165.92C113.282 165.965 113.237 166.01 113.192 166.01C111.091 166.502 109.838 167.173 108.228 169.051C108.139 169.185 107.915 169.185 107.826 169.096C107.692 169.006 107.692 168.783 107.781 168.693C109.481 166.725 110.822 165.965 113.058 165.473C113.237 165.428 113.371 165.518 113.416 165.697C113.416 165.742 113.371 165.876 113.327 165.92Z" fill="#EBEBEB"/>
<path d="M112.969 163.863C112.924 163.908 112.879 163.908 112.835 163.953C110.778 164.445 109.57 165.071 107.96 166.904C107.871 167.038 107.692 167.038 107.557 166.949C107.423 166.86 107.423 166.681 107.513 166.547C109.168 164.579 110.509 163.908 112.701 163.371C112.879 163.327 113.014 163.416 113.058 163.595C113.058 163.684 113.014 163.774 112.969 163.863Z" fill="#EBEBEB"/>
<path d="M112.209 161.851C112.164 161.895 112.119 161.895 112.074 161.94C110.017 162.432 108.81 163.058 107.2 164.892C107.11 165.026 106.931 165.026 106.797 164.936C106.663 164.847 106.663 164.668 106.752 164.534C108.407 162.566 109.749 161.895 111.94 161.359C112.119 161.314 112.253 161.403 112.298 161.582C112.298 161.672 112.253 161.761 112.209 161.851Z" fill="#EBEBEB"/>
<path d="M107.021 154.874L101.52 159.346L98.4341 161.314L101.967 168.022L111.985 163.237L107.021 154.874Z" fill="#C8856A"/>
<path d="M118.246 124.865C118.246 124.865 98.2553 121.555 89.6686 121.6C80.9477 121.645 80.1427 128.219 82.2894 132.244C86.4933 139.936 101.028 156.26 101.028 156.26C101.028 156.26 105.903 154.024 107.423 149.775L104.114 142.172L114.579 145.527L119.901 141.949L120.348 139.221L118.246 124.865Z" fill="#1B1425"/>
<path opacity="0.4" d="M118.246 124.865C118.246 124.865 98.2553 121.555 89.6686 121.6C80.9477 121.645 80.1427 128.219 82.2894 132.244C86.4933 139.936 101.028 156.26 101.028 156.26C101.028 156.26 105.903 154.024 107.423 149.775L104.114 142.172L114.579 145.527L119.901 141.949L120.348 139.221L118.246 124.865Z" fill="#1B1425"/>
<path d="M118.246 124.865L152.861 130.634C152.861 130.634 153.219 138.908 149.954 146.332C147.137 152.727 141.457 155.544 136.985 156.215C132.334 156.931 126.52 157.065 126.52 157.065C126.52 157.065 123.792 159.212 121.064 160.285C118.291 161.358 106.261 166.412 106.261 166.412C106.261 166.412 102.862 163.55 103.22 157.557L114.624 145.437C117.218 142.307 118.112 141.278 119.543 140.562C117.262 136.359 117.978 129.516 118.246 124.865Z" fill="#1B1425"/>
<path opacity="0.3" d="M118.246 124.865L152.861 130.634C152.861 130.634 153.219 138.908 149.954 146.332C147.137 152.727 141.457 155.544 136.985 156.215C132.334 156.931 126.52 157.065 126.52 157.065C126.52 157.065 123.792 159.212 121.064 160.285C118.291 161.358 106.261 166.412 106.261 166.412C106.261 166.412 102.862 163.55 103.22 157.557L114.624 145.437C117.218 142.307 118.112 141.278 119.543 140.562C117.262 136.359 117.978 129.516 118.246 124.865Z" fill="#1B1425"/>
<g opacity="0.3">
<path d="M102.37 135.688C104.561 138.952 105.903 141.367 106.797 143.022L104.114 142.172C101.118 135.017 100.491 132.915 95.6614 129.561C95.7061 129.516 99.1497 130.858 102.37 135.688Z" fill="black"/>
<path d="M129.069 153.04C129.069 153.04 129.114 154.784 126.52 157.065C126.52 157.065 123.792 159.212 121.064 160.285C118.291 161.359 106.261 166.412 106.261 166.412C106.261 166.412 105.59 166.099 104.651 164.355C107.781 163.639 118.023 159.614 121.377 158.183C127.235 155.724 129.069 153.04 129.069 153.04Z" fill="black"/>
<path d="M116.278 143.47C115.116 144.856 114.534 145.482 114.534 145.482L112.879 144.946C112.879 144.946 115.831 141.726 117.754 140.026C118.157 139.668 118.425 139.4 118.827 139.176C117.844 136.627 117.888 132.468 117.888 132.468C118.246 135.33 119.677 137.522 120.393 138.55C121.734 138.192 123.255 138.192 125.178 138.506C128.532 139.042 138.237 140.697 138.237 140.697C138.237 140.697 128.935 139.847 124.105 139.668C119.319 139.489 117.441 142.083 116.278 143.47Z" fill="black"/>
</g>
<path d="M85.8223 164.802C83.452 165.741 82.0209 166.68 80.9475 168.067C79.8742 169.498 79.5164 170.929 80.545 172.629C81.5736 174.328 83.4967 176.385 85.7328 176.251C87.9689 176.117 89.3553 175.536 91.4573 174.417L85.8223 164.802Z" fill="#263238"/>
<path d="M104.651 166.77C104.695 167.485 101.699 168.872 98.6131 170.348C95.3036 171.913 94.4986 172.941 91.7706 174.283C88.6847 175.804 87.5219 175.893 85.1069 175.222C82.6919 174.552 79.7402 171.108 81.7975 167.977C83.4969 165.428 85.6436 164.713 88.953 163.818C92.352 162.924 94.1856 162.298 96.69 161.314C99.0603 160.375 101.028 158.72 101.52 159.301C101.162 159.48 98.7025 161.001 99.1498 161.403C99.2839 161.627 99.6417 161.537 100.223 161.314C100.491 161.224 100.804 161.135 101.073 161.269C101.341 161.403 101.52 161.716 101.699 162.029C102.101 162.745 102.146 163.192 102.459 163.908C102.638 164.355 102.549 164.086 102.728 164.534C102.906 165.026 103.309 165.786 103.219 166.233C103.175 166.501 102.996 166.591 102.772 166.725C102.549 166.859 102.28 167.038 102.057 167.172C101.967 167.217 101.833 167.441 101.878 167.53C101.967 167.709 102.37 167.62 102.549 167.53C102.772 167.441 103.041 167.396 103.264 167.306C103.533 167.306 104.069 167.038 104.651 166.77Z" fill="#455A64"/>
<path d="M92.8438 173.791C92.3966 174.015 89.5791 175.312 88.7294 174.552C87.7902 173.702 90.0263 172.36 90.0263 172.36C90.0263 172.36 90.3841 170.258 87.8349 167.128C87.3877 167.485 85.5541 167.441 85.5541 166.367C85.5988 165.294 88.6847 163.952 88.7294 163.952C85.5541 164.802 83.4969 165.518 81.8421 168.022C79.7849 171.197 82.7366 174.596 85.1516 175.267C87.5666 175.938 88.7294 175.849 91.8152 174.328C92.0836 174.149 92.5755 173.97 92.8438 173.791Z" fill="#37474F"/>
<path d="M89.7133 172.136C88.5505 172.539 89.3555 173.568 91.055 173.255C93.6041 172.718 95.7508 171.287 98.613 170.392C101.699 168.916 104.829 167.53 104.651 166.77C104.114 166.993 102.906 167.485 102.906 167.485C102.683 167.575 102.057 167.798 102.057 167.798C99.7311 168.827 97.1372 170.437 94.588 171.108C92.3966 171.689 90.8761 171.734 89.7133 172.136Z" fill="#37474F"/>
<path d="M87.969 167.53C89.0424 166.904 89.2213 166.367 91.3232 165.428C93.4252 164.489 96.9582 162.387 99.1496 161.135C99.8205 160.777 101.52 159.391 101.52 159.391C101.162 158.988 99.8205 159.346 98.4788 160.196C97.1371 161.045 96.3321 161.582 94.9905 162.253C92.3966 163.818 89.4896 164.847 88.0138 165.786C86.5827 166.725 86.8957 168.156 87.969 167.53Z" fill="#37474F"/>
<path d="M87.7903 167.262C87.7903 167.306 87.835 167.306 87.835 167.351C87.835 167.396 89.5344 169.229 89.8475 172.539C89.8475 172.718 89.9816 172.852 90.1605 172.807C90.2947 172.807 90.4289 172.673 90.3841 172.494C90.0711 168.961 88.2822 167.038 88.1928 166.904C88.1033 166.77 87.9244 166.77 87.835 166.904C87.7902 166.993 87.7455 167.127 87.7903 167.262Z" fill="#F0F0F0"/>
<path d="M89.8923 165.741C89.8923 165.786 89.937 165.786 89.937 165.83C89.9817 165.875 91.9495 168.29 92.3967 171.957C92.3967 172.136 92.5309 172.226 92.7098 172.226C92.844 172.226 92.9781 172.092 92.9334 171.913C92.4415 168.022 90.3842 165.562 90.2948 165.428C90.2053 165.294 90.0265 165.294 89.937 165.383C89.8476 165.473 89.8476 165.607 89.8923 165.741Z" fill="#F0F0F0"/>
<path d="M94.4537 171.689C94.4984 171.779 94.5879 171.868 94.722 171.868C94.8562 171.868 94.9904 171.734 94.9904 171.6C94.8562 167.843 92.4412 164.355 92.3518 164.22C92.2623 164.086 92.0834 164.086 91.994 164.22C91.9045 164.31 91.9045 164.534 92.0387 164.623C92.0834 164.668 94.409 168.067 94.4984 171.555C94.409 171.644 94.4537 171.689 94.4537 171.689Z" fill="#F0F0F0"/>
<path d="M96.377 170.482C96.4217 170.571 96.5111 170.66 96.6006 170.66C96.7348 170.66 96.8689 170.571 96.8689 170.392C96.7795 166.233 94.1856 163.505 94.0961 163.371C93.962 163.281 93.8278 163.281 93.7384 163.371C93.6489 163.505 93.6489 163.684 93.7831 163.773C93.8278 163.818 96.2875 166.457 96.377 170.303C96.3323 170.392 96.377 170.437 96.377 170.482Z" fill="#F0F0F0"/>
<path d="M98.8813 169.453C98.9261 169.542 99.0155 169.632 99.105 169.632C99.2391 169.632 99.3733 169.542 99.3733 169.364C99.3733 165.473 96.6005 162.432 96.5111 162.342C96.3769 162.208 96.2427 162.253 96.1533 162.342C96.0638 162.476 96.0638 162.655 96.198 162.745C96.2427 162.789 98.8813 165.696 98.8813 169.319C98.8366 169.364 98.8366 169.408 98.8813 169.453Z" fill="#EBEBEB"/>
<path d="M117.799 95.3481C116.144 97.8078 109.883 106.395 109.883 106.395C108.049 104.248 105.858 101.654 104.024 99.3731C101.609 96.4214 100.626 95.7953 99.3286 91.1442C99.0155 89.9814 98.1211 88.6397 97.6739 87.9689C96.8689 86.6719 96.5558 85.2408 96.4664 84.5253C96.4216 83.9439 94.9011 84.1227 94.588 86.0011C94.4091 86.985 94.7222 87.9689 94.7222 88.9528C94.7222 89.2658 94.9011 89.8919 94.4986 89.8472C92.2177 89.5342 90.563 86.9403 87.8349 85.1066C86.851 84.4358 84.3466 83.765 83.8099 85.1961C83.7652 85.5539 84.0335 85.7775 84.123 86.0905C84.123 86.1353 84.123 86.18 84.123 86.2247C84.123 86.3589 84.123 86.493 84.0783 86.6719C84.0335 86.9403 83.8994 87.2086 83.8546 87.5216C83.7652 87.9689 83.8099 88.4161 83.9888 88.8186C84.123 89.1317 84.3466 89.4 84.436 89.713C84.3913 90.4733 84.3913 90.8758 84.6596 91.5019C84.8833 91.9939 85.1963 92.4411 85.5094 92.8883C85.733 93.1567 85.8224 93.5145 85.9566 93.8722C86.2249 94.4089 86.6274 94.9008 87.0747 95.3481C88.5505 96.9133 90.1605 98.3892 91.9941 99.4625C92.8438 99.9545 93.7383 100.357 94.4986 100.938C95.08 101.341 95.6166 101.833 96.0639 102.414C96.6005 103.13 97.0477 103.935 97.495 104.74C97.495 104.74 97.495 104.784 97.5397 104.784C101.162 111.09 101.475 113.416 105.321 118.38C108.541 122.36 110.822 120.661 115.652 115.965C121.645 110.196 124.865 106.886 124.865 106.886L126.296 87.7453C122.808 88.908 119.454 92.8883 117.799 95.3481Z" fill="#C8856A"/>
<path d="M94.767 91.5021C94.3198 94.1407 95.4825 96.0638 96.4217 97.0477C94.4092 96.511 93.5595 93.8276 94.767 91.5021Z" fill="#AF6152"/>
<path d="M128.175 87.1194C124.865 87.7008 122.271 88.9977 118.067 94.5433C113.863 100.089 109.838 106.126 109.838 106.126L106.484 102.459C107.558 103.085 107.379 107.781 105.634 109.928C103.935 112.074 101.386 112.432 101.386 112.432C101.386 112.432 102.951 115.473 104.651 117.844C106.35 120.169 107.468 120.795 108.944 120.795C110.42 120.795 112.03 119.946 115.831 116.323C119.677 112.701 125.715 106.887 125.715 106.887L128.175 87.1194Z" fill="#A535C5"/>
<path d="M128.175 87.1194C124.865 87.7008 122.271 88.9977 118.067 94.5433C113.863 100.089 109.838 106.126 109.838 106.126L106.484 102.459C107.558 103.085 107.379 107.781 105.634 109.928C103.935 112.074 101.386 112.432 101.386 112.432C101.386 112.432 102.951 115.473 104.651 117.844C106.35 120.169 107.468 120.795 108.944 120.795C110.42 120.795 112.03 119.946 115.831 116.323C119.677 112.701 125.715 106.887 125.715 106.887L128.175 87.1194Z" fill="#B936FF"/>
<path opacity="0.35" d="M109.838 106.126C111.627 108.094 112.88 111.538 112.745 113.282C113.506 111.225 112.745 107.692 110.509 105.142L109.838 106.126Z" fill="#A535C5"/>
<path opacity="0.35" d="M102.862 114.892C103.264 114.802 103.711 114.668 104.069 114.534C104.874 114.221 105.635 113.729 106.261 113.103C107.423 111.985 108.273 110.375 108.497 108.765C108.497 108.675 108.586 108.72 108.586 108.765C108.452 110.554 107.736 112.298 106.395 113.505C105.724 114.132 104.919 114.624 104.114 114.937C103.756 115.071 103.398 115.16 103.041 115.25C102.951 115.115 102.906 114.981 102.817 114.892C102.817 114.937 102.862 114.892 102.862 114.892Z" fill="#A535C5"/>
<path d="M122.584 99.239C123.031 89.9367 125.133 87.3876 129.874 86.8509L137.656 86.0459C139.981 86.5378 147.897 89.0423 150.58 89.9815C152.325 90.5629 153.04 94.2301 153.398 99.9546C153.711 104.606 153.756 108.497 153.577 114.937C153.443 120.348 153.308 126.475 151.654 133.988C145.214 136.448 126.609 134.078 119.185 125.581C119.767 123.657 122.182 120.169 122.539 116.323C122.316 108.228 122.405 102.146 122.584 99.239Z" fill="#272727"/>
<path d="M150.759 89.8025L144.946 87.7452C144.946 87.7452 143.917 90.205 141.636 94.8561C139.4 99.552 139.311 101.654 139.087 109.838C138.863 118.022 137.387 132.378 136.404 135.732C140.026 136.224 143.112 141.457 152.369 139.847C152.369 139.847 154.293 130.366 154.606 114.221C154.784 105.903 154.829 92.1728 150.759 89.8025Z" fill="#A535C5"/>
<path d="M150.759 89.8025L144.946 87.7452C144.946 87.7452 143.917 90.205 141.636 94.8561C139.4 99.552 139.311 101.654 139.087 109.838C138.863 118.022 137.387 132.378 136.404 135.732C140.026 136.224 143.112 141.457 152.369 139.847C152.369 139.847 154.293 130.366 154.606 114.221C154.784 105.903 154.829 92.1728 150.759 89.8025Z" fill="#1B1425"/>
<path d="M139.4 102.593C140.294 95.2585 143.38 94.856 144.096 97.271C146.779 93.2907 146.869 89.8471 146.824 88.4607C146.108 87.2085 145.527 86.1351 145.303 85.6432C144.99 85.0171 144.632 85.1512 144.632 85.1512V87.0296C144.632 87.0296 144.185 89.1763 141.994 91.8596C140.339 93.8274 139.802 96.3766 139.4 102.593Z" fill="#A535C5"/>
<path opacity="0.55" d="M139.4 102.593C140.294 95.2585 143.38 94.856 144.096 97.271C146.779 93.2907 146.869 89.8471 146.824 88.4607C146.108 87.2085 145.527 86.1351 145.303 85.6432C144.99 85.0171 144.632 85.1512 144.632 85.1512V87.0296C144.632 87.0296 144.185 89.1763 141.994 91.8596C140.339 93.8274 139.802 96.3766 139.4 102.593Z" fill="white"/>
<path d="M134.123 87.0746C130.813 88.3716 128.398 92.0388 127.593 97.1372C126.833 102.236 126.162 115.205 125.625 119.051C125.089 122.897 122.629 129.561 122.629 129.561C122.629 129.561 118.559 127.906 117.441 124.686C119.32 122.226 121.064 118.872 121.377 115.652C121.69 112.432 121.421 102.236 121.869 98.3447C122.361 94.4538 122.763 89.0424 127.37 87.2535C129.382 86.4932 134.033 86.1802 134.033 86.1802L134.123 87.0746Z" fill="#A535C5"/>
<path d="M134.123 87.0746C130.813 88.3716 128.398 92.0388 127.593 97.1372C126.833 102.236 126.162 115.205 125.625 119.051C125.089 122.897 122.629 129.561 122.629 129.561C122.629 129.561 118.559 127.906 117.441 124.686C119.32 122.226 121.064 118.872 121.377 115.652C121.69 112.432 121.421 102.236 121.869 98.3447C122.361 94.4538 122.763 89.0424 127.37 87.2535C129.382 86.4932 134.033 86.1802 134.033 86.1802L134.123 87.0746Z" fill="#1B1425"/>
<path d="M127.235 100.089C127.683 96.3322 129.829 89.6686 133.854 88.2822C134.078 87.7902 134.078 87.0747 134.078 87.0747L134.033 85.1516C134.033 85.1516 132.334 85.6883 130.59 86.8511C128.845 87.9691 125.804 91.5916 125.044 94.4986C126.833 92.978 127.504 95.4378 127.235 100.089Z" fill="#A535C5"/>
<path opacity="0.55" d="M127.235 100.089C127.683 96.3322 129.829 89.6686 133.854 88.2822C134.078 87.7902 134.078 87.0747 134.078 87.0747L134.033 85.1516C134.033 85.1516 132.334 85.6883 130.59 86.8511C128.845 87.9691 125.804 91.5916 125.044 94.4986C126.833 92.978 127.504 95.4378 127.235 100.089Z" fill="white"/>
<path d="M144.588 82.2444C145.035 79.6505 147.674 76.9225 148.836 74.6416C149.999 72.4502 150.67 70.7508 150.536 68.6935C150.446 67.486 149.686 65.7866 148.792 65.4288C149.865 60.8671 146.466 58.7652 144.632 58.3179C143.917 58.1391 142.799 57.8707 142.128 57.6024C141.144 57.1999 140.92 56.3949 140.115 55.724C138.729 54.5613 136.448 54.5165 135.554 56.2607C134.659 55.0979 133.407 55.0979 131.976 55.4557C130.634 55.8135 129.963 56.9315 130.098 58.1838C128.175 57.1104 126.43 58.4521 126.251 59.5702C126.117 60.4199 126.296 61.0907 125.76 61.851C125.133 62.7007 123.971 62.656 123.658 61.9852C123.434 63.148 123.926 64.0424 125.178 63.9977C124.731 64.6238 124.597 65.4735 124.82 66.2338C125.133 67.2624 126.162 67.8885 127.012 67.9333C127.146 68.5594 127.191 69.1855 127.593 69.7222C127.996 70.2588 128.488 70.7955 129.069 71.0638C130.992 72.003 133.139 72.3161 135.196 72.7633C136.001 72.9422 136.851 73.1211 137.656 73.2999C137.79 73.3447 138.55 73.3894 138.64 73.5236C138.729 73.4788 144.588 82.2444 144.588 82.2444Z" fill="#151515"/>
<path d="M147.763 78.8456C145.929 79.9189 144.677 78.7562 144.677 78.7562L144.588 87.3429C143.156 91.0101 137.298 92.8884 134.078 92.7543C133.586 91.189 133.586 88.8187 134.123 87.0745L134.078 84.7042C134.078 84.7042 132.2 84.749 130.947 84.5701C128.89 84.257 127.369 82.6023 126.788 80.3662C126.207 78.0406 126.073 74.3287 126.564 71.5559C126.699 70.8403 126.743 70.1247 126.699 69.4092C126.52 67.4861 126.878 66.3681 127.369 64.8028C129.65 63.0139 134.883 62.3878 139.713 65.3842C139.131 68.2911 140.25 70.572 142.351 71.69C142.262 72.4503 142.128 74.4628 143.425 74.4181C144.364 74.4181 144.409 73.2553 145.393 72.2267C146.376 71.1981 148.568 70.9298 149.418 72.4503C150.625 74.5523 149.82 77.6828 147.763 78.8456Z" fill="#F5BB95"/>
<path d="M134.078 84.704C137.343 84.3462 139.802 83.9885 141.502 81.6629C142.575 80.1871 143.47 77.8168 143.47 77.8168C143.47 77.8168 143.112 80.679 142.038 82.6468C141.233 84.1673 139.176 85.3749 134.033 85.8221L134.078 84.704Z" fill="#F5BB95"/>
<path d="M135.733 72.137C135.733 72.6736 136.135 73.0761 136.672 73.0761C137.164 73.0761 137.566 72.6289 137.566 72.0922C137.566 71.5556 137.164 71.1531 136.627 71.1531C136.135 71.1531 135.688 71.6003 135.733 72.137Z" fill="#151515"/>
<path d="M135.956 69.096L138.013 69.9457C138.237 69.3643 137.969 68.6935 137.387 68.4252C136.851 68.2463 136.18 68.5146 135.956 69.096Z" fill="#151515"/>
<path d="M128.085 69.6773L130.187 68.9171C130.008 68.3357 129.382 68.0226 128.756 68.2462C128.219 68.4251 127.906 69.0959 128.085 69.6773Z" fill="#151515"/>
<path d="M128.577 71.8239C128.622 72.3606 129.069 72.7183 129.561 72.6736C130.053 72.6289 130.411 72.1369 130.366 71.645C130.321 71.1083 129.874 70.7505 129.382 70.7953C128.89 70.84 128.532 71.3319 128.577 71.8239Z" fill="#151515"/>
<path d="M129.874 75.2229L133.049 76.654L134.033 70.3929C132.87 69.9456 131.35 72.8079 129.874 75.2229Z" fill="#F5BB95"/>
<path d="M136.046 77.951L132.2 78.7561C132.378 79.8294 133.407 80.545 134.48 80.3213C135.554 80.0977 136.269 79.0244 136.046 77.951Z" fill="#F5BB95"/>
<path d="M135.599 78.5769C135.777 78.5769 135.912 78.5769 136.091 78.5769C136.001 79.4266 135.375 80.1422 134.525 80.3211C134.302 80.3658 134.123 80.3658 133.899 80.3211C133.81 79.4713 134.57 78.6663 135.599 78.5769Z" fill="#FE8A89"/>
<path opacity="0.15" d="M96.3323 141.547C96.6006 141.144 96.9137 140.786 97.2714 140.473C100.849 137.164 107.558 132.781 113.282 129.158L139.266 144.14C139.445 144.23 139.445 144.454 139.266 144.543L120.393 155.411L96.3323 141.547Z" fill="black"/>
<path d="M88.4611 133.899V134.301C88.4611 134.928 88.7741 135.464 89.3108 135.777L119.498 153.219C119.767 153.353 120.08 153.443 120.348 153.443C120.661 153.443 120.93 153.353 121.198 153.219L137.656 143.738C138.192 143.425 138.505 142.843 138.505 142.262V141.681C138.505 141.77 138.461 141.815 138.416 141.86L120.393 152.369L88.4611 133.899Z" fill="#313131"/>
<path d="M120.393 152.369V153.532C120.08 153.532 119.811 153.443 119.543 153.308L89.3555 135.867C88.8188 135.554 88.5057 134.972 88.5057 134.391V133.899L120.393 152.369Z" fill="#1B1425"/>
<path d="M88.4611 133.899L106.395 123.568C106.708 123.389 107.11 123.389 107.423 123.568L138.505 141.502C138.64 141.591 138.64 141.815 138.505 141.904L120.393 152.369L88.4611 133.899Z" fill="url(#paint25_linear_1267_5723)" fill-opacity="0.8"/>
<path d="M120.572 150.849L130.232 145.259L101.967 128.935L92.2625 134.481L120.572 150.849Z" fill="#3B44B3"/>
<path d="M92.2625 134.481L92.6202 134.704L101.967 129.382L129.874 145.482L130.232 145.259L101.967 128.935L92.2625 134.481Z" fill="white"/>
<path d="M125.312 135.33L125.133 135.419L120.393 138.148L111.985 133.318L111.806 133.183L116.725 130.366L125.312 135.33Z" fill="#1B1425"/>
<path d="M125.133 135.419L120.393 138.148L111.985 133.318L116.726 130.589L125.133 135.419Z" fill="#37474F"/>
<path d="M115.786 137.387C117.307 135.867 119.498 133.809 121.332 133.183C121.556 133.094 121.913 132.96 122.629 132.781C122.003 132.647 121.332 132.602 120.751 132.423C120.124 132.199 119.543 131.886 119.141 131.35C118.962 131.126 118.872 130.813 119.051 130.634C119.141 130.589 119.23 130.545 119.32 130.545C120.706 130.5 121.779 130.276 123.031 130.187C123.568 130.142 124.194 130.053 124.731 130.232C125.268 130.366 125.76 130.5 126.251 130.679C128.532 131.484 130.724 131.26 133.899 129.829C137.074 128.398 148.478 121.332 148.478 121.332L146.063 134.749L137.03 138.237C136.985 138.237 136.985 138.282 136.94 138.282C136.225 138.55 135.554 139.131 133.854 139.668C131.797 140.294 129.203 139.534 127.414 139.444C125.625 139.355 122.629 140.16 120.974 140.831C119.319 141.502 117.352 138.953 116.502 139.266C115.697 139.579 114.266 138.908 115.786 137.387Z" fill="#C8856A"/>
<path d="M123.434 131.797C124.642 131.663 125.938 132.2 125.938 132.2C125.938 132.2 124.463 132.244 122.674 132.781C122.048 132.647 121.377 132.602 120.795 132.423C120.259 132.244 119.722 131.931 119.32 131.529C120.303 132.2 122.227 131.931 123.434 131.797Z" fill="#AF6152"/>
<path d="M119.901 152.593C119.319 152.817 118.693 152.772 118.157 152.459L88.0585 135.106C87.5219 134.793 87.1641 134.257 87.0746 133.675L83.7652 114.042C83.7652 113.908 83.7205 113.819 83.7205 113.684C83.7205 113.148 83.9441 112.611 84.3466 112.209L115.608 130.276C116.01 130.5 116.278 130.903 116.323 131.35L119.901 152.593Z" fill="url(#paint26_linear_1267_5723)"/>
<path d="M120.393 152.369L120.169 152.504C120.08 152.548 119.99 152.593 119.901 152.638L116.323 131.395C116.234 130.947 115.965 130.545 115.608 130.321L84.3466 112.253C84.4807 112.119 84.6149 112.03 84.7491 111.94L116.055 130.008C116.457 130.232 116.726 130.634 116.77 131.082L120.393 152.369Z" fill="#455A64"/>
<path d="M116.055 130.679L116.547 130.411C116.681 130.59 116.77 130.813 116.815 131.081L120.393 152.369L120.169 152.504C120.08 152.548 119.99 152.593 119.901 152.638L116.323 131.395C116.323 131.126 116.189 130.903 116.055 130.679Z" fill="#37474F"/>
<path d="M102.996 134.48C102.772 133.183 101.431 131.439 99.9548 130.59C98.4789 129.74 97.495 130.142 97.7187 131.439C97.9423 132.736 99.284 134.48 100.76 135.33C102.191 136.18 103.175 135.777 102.996 134.48Z" fill="#A535C5"/>
<path d="M139.758 127.593C144.588 124.105 148.523 121.332 148.523 121.332L147.137 106.529C147.137 106.529 146.108 99.1946 147.763 95.0801C149.462 90.7868 151.162 90.1606 151.162 90.1606C151.162 90.1606 153.935 91.1445 155.813 92.7545C157.691 94.3646 158.586 98.166 159.033 103.533C159.436 108.228 160.151 119.99 160.285 122.763C160.419 126.252 160.285 129.069 156.573 130.724C152.682 132.513 141.01 136.493 141.01 136.493L139.758 127.593Z" fill="#C8856A"/>
<path d="M150.759 89.8029C154.561 91.0104 156.484 91.7259 158.094 96.1534C159.704 100.581 159.659 108.72 160.106 115.25C160.598 121.779 160.956 126.028 159.927 128.085C159.346 129.203 158.317 130.277 154.561 131.663C150.804 133.094 147.182 134.346 147.182 134.346C147.182 134.346 146.824 128.577 142.709 124.686L148.344 121.243C148.344 121.243 147.047 107.915 146.734 104.248C146.421 100.715 146.019 92.9781 150.759 89.8029Z" fill="#A535C5"/>
<path d="M150.759 89.8029C154.561 91.0104 156.484 91.7259 158.094 96.1534C159.704 100.581 159.659 108.72 160.106 115.25C160.598 121.779 160.956 126.028 159.927 128.085C159.346 129.203 158.317 130.277 154.561 131.663C150.804 133.094 147.182 134.346 147.182 134.346C147.182 134.346 146.824 128.577 142.709 124.686L148.344 121.243C148.344 121.243 147.047 107.915 146.734 104.248C146.421 100.715 146.019 92.9781 150.759 89.8029Z" fill="#B936FF"/>
<path opacity="0.35" d="M148.344 121.332C150.536 120.303 154.963 121.243 155.902 122.003C154.784 120.08 151.788 119.364 148.21 119.811L148.344 121.332Z" fill="#A535C5"/>
<path opacity="0.35" d="M146.913 125.357C147.629 125.804 148.165 126.565 148.523 127.28C148.926 127.996 149.239 128.756 149.418 129.561C149.641 130.455 149.775 131.395 149.82 132.334C149.82 132.692 149.865 133.139 149.82 133.541C149.686 133.586 149.552 133.631 149.418 133.675C149.552 132.334 149.418 130.992 149.105 129.695C148.881 128.935 148.613 128.175 148.255 127.459C147.852 126.744 147.36 126.117 146.913 125.491C146.868 125.402 146.868 125.312 146.913 125.357Z" fill="#A535C5"/>
<path d="M163.595 38.4166L165.607 34.6152L163.997 29.9194V27.0571L168.961 29.9194V32.7816L166.815 36.4936C166.77 36.5383 166.725 36.583 166.681 36.6277L163.595 38.4166Z" fill="url(#paint27_linear_1267_5723)"/>
<path opacity="0.3" d="M163.595 38.4166L165.607 34.6152L163.997 29.9194V27.0571L168.961 29.9194V32.7816L166.815 36.4936C166.77 36.5383 166.725 36.583 166.681 36.6277L163.595 38.4166Z" fill="black"/>
<path d="M154.695 6.03743C154.695 5.09825 155.366 3.93547 156.171 3.44353L157.378 2.72797C158.183 2.23602 159.525 2.23602 160.33 2.72797L175.401 11.4041C176.206 11.8961 176.877 13.0141 176.877 13.998V34.4362C176.877 35.3753 176.206 36.5381 175.401 37.03L174.194 37.7456C173.389 38.2376 172.047 38.2376 171.242 37.7456L165.831 34.615L163.684 38.2823C163.55 38.5059 163.192 38.5059 163.103 38.2376L160.867 31.7528L156.171 29.0695C155.366 28.5775 154.695 27.4595 154.695 26.4756V6.03743Z" fill="url(#paint28_linear_1267_5723)"/>
<path opacity="0.3" d="M176.967 34.4363C176.967 35.3754 176.296 36.5382 175.491 37.0302L174.283 37.7457C173.523 38.193 172.405 38.193 171.555 37.8799C172.271 38.1482 172.808 37.7457 172.808 36.896V16.4579C172.808 15.9659 172.629 15.474 172.36 14.982L176.564 12.567C176.833 13.0142 177.011 13.5509 177.011 14.0429V34.4363H176.967Z" fill="black"/>
<path opacity="0.3" d="M154.74 5.5902C154.919 4.96409 155.5 4.74048 156.171 5.14298L171.242 13.8191C171.645 14.0427 172.047 14.4452 172.271 14.9372L176.475 12.5222C176.206 12.0302 175.849 11.6277 175.446 11.4041L160.375 2.72797C159.57 2.23602 158.228 2.23602 157.378 2.72797L156.171 3.44353C155.5 3.84603 154.919 4.7852 154.74 5.5902Z" fill="white"/>
<path d="M158.273 13.5061C158.407 17.3075 159.257 24.7761 163.952 29.3378C167.262 27.5489 168.872 22.3611 168.782 19.1411C168.782 19.0069 168.693 18.8728 168.604 18.7386C168.514 18.6492 168.425 18.6044 168.335 18.5597C166.904 17.9783 164.668 15.5186 163.595 13.1036C163.505 12.9247 163.416 12.88 163.282 12.9247C163.237 12.9247 163.192 12.9694 163.192 13.0141C162.164 14.2664 160.106 14.3558 158.675 13.3272C158.586 13.2378 158.496 13.2378 158.407 13.2378C158.317 13.2825 158.273 13.3719 158.273 13.5061Z" fill="#FAFAFA"/>
<defs>
<linearGradient id="paint0_linear_1267_5723" x1="0" y1="126.228" x2="31.8871" y2="126.228" gradientUnits="userSpaceOnUse">
<stop stop-color="#F57A00"/>
<stop offset="1" stop-color="#7103A4"/>
</linearGradient>
<linearGradient id="paint1_linear_1267_5723" x1="5.38916" y1="131.809" x2="41.5917" y2="131.809" gradientUnits="userSpaceOnUse">
<stop stop-color="#F57A00"/>
<stop offset="1" stop-color="#7103A4"/>
</linearGradient>
<linearGradient id="paint2_linear_1267_5723" x1="11.4937" y1="132.623" x2="42.1732" y2="132.623" gradientUnits="userSpaceOnUse">
<stop stop-color="#F57A00"/>
<stop offset="1" stop-color="#7103A4"/>
</linearGradient>
<linearGradient id="paint3_linear_1267_5723" x1="0" y1="74.8419" x2="31.8871" y2="74.8419" gradientUnits="userSpaceOnUse">
<stop stop-color="#F57A00"/>
<stop offset="1" stop-color="#7103A4"/>
</linearGradient>
<linearGradient id="paint4_linear_1267_5723" x1="5.38916" y1="80.5119" x2="41.5917" y2="80.5119" gradientUnits="userSpaceOnUse">
<stop stop-color="#F57A00"/>
<stop offset="1" stop-color="#7103A4"/>
</linearGradient>
<linearGradient id="paint5_linear_1267_5723" x1="11.4937" y1="81.3261" x2="42.1732" y2="81.3261" gradientUnits="userSpaceOnUse">
<stop stop-color="#F57A00"/>
<stop offset="1" stop-color="#7103A4"/>
</linearGradient>
<linearGradient id="paint6_linear_1267_5723" x1="0" y1="23.4558" x2="31.9765" y2="23.4558" gradientUnits="userSpaceOnUse">
<stop stop-color="#F57A00"/>
<stop offset="1" stop-color="#7103A4"/>
</linearGradient>
<linearGradient id="paint7_linear_1267_5723" x1="5.38916" y1="29.2154" x2="41.5917" y2="29.2154" gradientUnits="userSpaceOnUse">
<stop stop-color="#F57A00"/>
<stop offset="1" stop-color="#7103A4"/>
</linearGradient>
<linearGradient id="paint8_linear_1267_5723" x1="11.4937" y1="30.0297" x2="42.1732" y2="30.0297" gradientUnits="userSpaceOnUse">
<stop stop-color="#F57A00"/>
<stop offset="1" stop-color="#7103A4"/>
</linearGradient>
<linearGradient id="paint9_linear_1267_5723" x1="47.2717" y1="25.8997" x2="75.9835" y2="25.8997" gradientUnits="userSpaceOnUse">
<stop stop-color="#F57A00"/>
<stop offset="1" stop-color="#7103A4"/>
</linearGradient>
<linearGradient id="paint10_linear_1267_5723" x1="46.5972" y1="18.1795" x2="48.211" y2="18.1795" gradientUnits="userSpaceOnUse">
<stop stop-color="#F57A00"/>
<stop offset="1" stop-color="#7103A4"/>
</linearGradient>
<linearGradient id="paint11_linear_1267_5723" x1="75.0443" y1="33.877" x2="76.6543" y2="33.877" gradientUnits="userSpaceOnUse">
<stop stop-color="#F57A00"/>
<stop offset="1" stop-color="#7103A4"/>
</linearGradient>
<linearGradient id="paint12_linear_1267_5723" x1="46.5972" y1="69.2078" x2="48.211" y2="69.2078" gradientUnits="userSpaceOnUse">
<stop stop-color="#F57A00"/>
<stop offset="1" stop-color="#7103A4"/>
</linearGradient>
<linearGradient id="paint13_linear_1267_5723" x1="75.0443" y1="43.3135" x2="76.6543" y2="43.3135" gradientUnits="userSpaceOnUse">
<stop stop-color="#F57A00"/>
<stop offset="1" stop-color="#7103A4"/>
</linearGradient>
<linearGradient id="paint14_linear_1267_5723" x1="47.2717" y1="56.2381" x2="75.9388" y2="56.2381" gradientUnits="userSpaceOnUse">
<stop stop-color="#F57A00"/>
<stop offset="1" stop-color="#7103A4"/>
</linearGradient>
<linearGradient id="paint15_linear_1267_5723" x1="46.5972" y1="122.159" x2="48.211" y2="122.159" gradientUnits="userSpaceOnUse">
<stop stop-color="#F57A00"/>
<stop offset="1" stop-color="#7103A4"/>
</linearGradient>
<linearGradient id="paint16_linear_1267_5723" x1="75.0443" y1="62.3203" x2="76.6543" y2="62.3203" gradientUnits="userSpaceOnUse">
<stop stop-color="#F57A00"/>
<stop offset="1" stop-color="#7103A4"/>
</linearGradient>
<linearGradient id="paint17_linear_1267_5723" x1="47.2717" y1="92.1724" x2="75.9388" y2="92.1724" gradientUnits="userSpaceOnUse">
<stop stop-color="#F57A00"/>
<stop offset="1" stop-color="#7103A4"/>
</linearGradient>
<linearGradient id="paint18_linear_1267_5723" x1="82.3788" y1="25.402" x2="112.566" y2="25.402" gradientUnits="userSpaceOnUse">
<stop stop-color="#F57A00"/>
<stop offset="1" stop-color="#7103A4"/>
</linearGradient>
<linearGradient id="paint19_linear_1267_5723" x1="86.5826" y1="27.7068" x2="115.563" y2="27.7068" gradientUnits="userSpaceOnUse">
<stop stop-color="#F57A00"/>
<stop offset="1" stop-color="#7103A4"/>
</linearGradient>
<linearGradient id="paint20_linear_1267_5723" x1="88.4163" y1="28.1302" x2="113.729" y2="28.1302" gradientUnits="userSpaceOnUse">
<stop stop-color="#F57A00"/>
<stop offset="1" stop-color="#7103A4"/>
</linearGradient>
<linearGradient id="paint21_linear_1267_5723" x1="88.4163" y1="28.1302" x2="113.729" y2="28.1302" gradientUnits="userSpaceOnUse">
<stop stop-color="#F57A00"/>
<stop offset="1" stop-color="#7103A4"/>
</linearGradient>
<linearGradient id="paint22_linear_1267_5723" x1="111.493" y1="6.08226" x2="113.237" y2="6.08226" gradientUnits="userSpaceOnUse">
<stop stop-color="#F57A00"/>
<stop offset="1" stop-color="#7103A4"/>
</linearGradient>
<linearGradient id="paint23_linear_1267_5723" x1="88.5057" y1="27.8842" x2="112.432" y2="27.8842" gradientUnits="userSpaceOnUse">
<stop stop-color="#F57A00"/>
<stop offset="1" stop-color="#7103A4"/>
</linearGradient>
<linearGradient id="paint24_linear_1267_5723" x1="96.7347" y1="28.673" x2="103.98" y2="28.673" gradientUnits="userSpaceOnUse">
<stop stop-color="#F57A00"/>
<stop offset="1" stop-color="#7103A4"/>
</linearGradient>
<linearGradient id="paint25_linear_1267_5723" x1="121.676" y1="176.654" x2="78.7037" y2="136.154" gradientUnits="userSpaceOnUse">
<stop stop-color="#7103A4"/>
<stop offset="1" stop-color="#3C0754"/>
</linearGradient>
<linearGradient id="paint26_linear_1267_5723" x1="83.7205" y1="132.47" x2="119.901" y2="132.47" gradientUnits="userSpaceOnUse">
<stop stop-color="#F57A00"/>
<stop offset="1" stop-color="#7103A4"/>
</linearGradient>
<linearGradient id="paint27_linear_1267_5723" x1="163.595" y1="32.7368" x2="168.961" y2="32.7368" gradientUnits="userSpaceOnUse">
<stop stop-color="#F57A00"/>
<stop offset="1" stop-color="#7103A4"/>
</linearGradient>
<linearGradient id="paint28_linear_1267_5723" x1="154.695" y1="20.4017" x2="176.877" y2="20.4017" gradientUnits="userSpaceOnUse">
<stop stop-color="#F57A00"/>
<stop offset="1" stop-color="#7103A4"/>
</linearGradient>
</defs>
</svg>
