<svg width="280" height="220" viewBox="0 0 280 220" fill="none" xmlns="http://www.w3.org/2000/svg">
<path d="M154.737 7.56416L170.7 110.809C171.288 114.591 168.699 117.658 164.928 117.658H24.4941C20.7229 117.658 17.1894 114.591 16.6016 110.809L0.638279 7.56416C0.0504686 3.78221 2.63947 0.715587 6.41071 0.715587H146.844C150.622 0.708963 154.156 3.78221 154.737 7.56416Z" fill="black"/>
<path d="M164.928 118.214H24.4943C20.4655 118.214 16.681 114.929 16.0536 110.889L0.0902522 7.65023C-0.220164 5.64334 0.275182 3.75568 1.49043 2.33165C2.68586 0.934115 4.43608 0.15918 6.41086 0.15918H146.845C150.873 0.15918 154.658 3.44438 155.285 7.48464L171.249 110.73C171.559 112.737 171.064 114.624 169.848 116.049C168.646 117.446 166.903 118.214 164.928 118.214ZM6.41086 1.26528C4.76631 1.26528 3.31991 1.90113 2.33582 3.04697C1.33192 4.21931 0.929037 5.78906 1.18662 7.47139L17.15 110.717C17.6915 114.234 20.9872 117.095 24.4943 117.095H164.928C166.573 117.095 168.019 116.459 169.003 115.313C170.007 114.141 170.41 112.571 170.152 110.889L154.189 7.65023C153.647 4.13321 150.352 1.27191 146.845 1.27191H6.41086V1.26528Z" fill="white"/>
<path d="M161.632 7.56416L177.596 110.809C178.184 114.591 175.595 117.658 171.823 117.658H31.3829C27.6117 117.658 24.0782 114.591 23.4904 110.809L7.53366 7.56416C6.94585 3.78221 9.53486 0.715587 13.3061 0.715587H153.74C157.511 0.708963 161.045 3.78221 161.632 7.56416Z" fill="url(#paint0_linear_1131_39620)"/>
<path d="M171.817 118.214H31.3828C27.354 118.214 23.5696 114.929 22.9421 110.889L6.98539 7.65023C6.67498 5.64334 7.17032 3.75568 8.38557 2.33165C9.581 0.934115 11.3312 0.15918 13.306 0.15918H153.74C157.769 0.15918 161.553 3.44438 162.18 7.48464L178.144 110.73C178.454 112.737 177.959 114.624 176.737 116.049C175.542 117.446 173.791 118.214 171.817 118.214ZM13.306 1.26528C11.6615 1.26528 10.215 1.90113 9.23096 3.04697C8.22706 4.21931 7.82418 5.78906 8.08176 7.47139L24.0451 110.717C24.5867 114.234 27.8824 117.095 31.3894 117.095H171.823C173.468 117.095 174.914 116.459 175.898 115.313C176.902 114.141 177.305 112.571 177.047 110.889L161.084 7.65023C160.543 4.13321 157.247 1.27191 153.74 1.27191H13.306V1.26528Z" fill="white"/>
<path d="M163.151 20.7048H27.3475C27.0436 20.7048 26.7927 20.4531 26.7927 20.1484C26.7927 19.8437 27.0436 19.592 27.3475 19.592H163.151C163.455 19.592 163.706 19.8437 163.706 20.1484C163.706 20.4597 163.455 20.7048 163.151 20.7048Z" fill="white"/>
<path d="M156.012 11.1274C156.296 12.9687 155.041 14.4524 153.212 14.4524C151.375 14.4524 149.665 12.9621 149.381 11.1274C149.097 9.28613 150.352 7.80249 152.181 7.80249C154.011 7.80249 155.728 9.28613 156.012 11.1274Z" fill="white"/>
<path d="M146.429 11.1274C146.713 12.9687 145.458 14.4524 143.628 14.4524C141.792 14.4524 140.082 12.9621 139.798 11.1274C139.514 9.28613 140.768 7.80249 142.598 7.80249C144.427 7.80249 146.145 9.28613 146.429 11.1274Z" fill="white"/>
<path d="M136.845 11.1274C137.129 12.9687 135.874 14.4524 134.045 14.4524C132.209 14.4524 130.498 12.9621 130.214 11.1274C129.93 9.28613 131.185 7.80249 133.015 7.80249C134.844 7.80249 136.561 9.28613 136.845 11.1274Z" fill="white"/>
<path d="M59.7562 158.1C59.9015 158.213 60.0799 158.279 60.2648 158.279H57.9003C57.722 158.279 57.5305 158.213 57.3852 158.1L40.5434 145.331C36.0721 141.946 33.4105 136.574 33.4105 130.964V103.345C33.4105 103.04 33.569 102.769 33.8266 102.61C33.9983 102.517 34.1634 102.477 34.3417 102.497H36.5609C36.4354 102.497 36.3099 102.544 36.1976 102.61C35.94 102.769 35.7683 103.04 35.7683 103.345V130.964C35.7683 136.574 38.4498 141.946 42.9013 145.331L59.7562 158.1Z" fill="url(#paint1_linear_1131_39620)" fill-opacity="0.8"/>
<path d="M57.9004 97.7683H60.2648C60.0601 97.7683 59.8686 97.8345 59.7167 97.9736C58.0919 99.3712 50.992 105.001 43.1127 104.418C50.0145 103.902 55.8992 99.2255 57.3522 97.9736C57.5107 97.8345 57.7023 97.7683 57.9004 97.7683Z" fill="url(#paint2_linear_1131_39620)" fill-opacity="0.8"/>
<path d="M224.567 198.655L218.287 219.982H192.846C194.305 205.324 196.571 192.164 198.248 183.553C198.565 182.03 198.836 180.639 199.094 179.427C199.655 176.625 200.111 174.645 200.322 173.738V173.711C200.421 173.32 200.454 173.122 200.454 173.122L201.128 173.148L221.794 173.592C221.794 173.287 221.794 173.128 221.794 173.128H254.823C254.955 173.36 255.107 173.618 255.239 173.877C255.371 174.122 255.484 174.38 255.629 174.652C255.741 174.91 255.86 175.181 255.999 175.46C256.587 176.851 257.115 178.394 257.577 180.043C260.662 190.938 261.144 207 260.886 219.989H231.35L224.567 198.655Z" fill="#894852"/>
<path d="M199.087 179.414C209.014 186.931 242.426 195.714 257.564 180.036C257.577 180.036 257.577 180.036 257.591 180.036C256.838 177.38 255.933 175.029 254.836 173.108H221.794C221.794 173.108 221.794 173.267 221.794 173.585L201.115 173.135L200.467 173.108C200.467 173.108 200.428 173.32 200.322 173.705V173.718C200.104 174.652 199.655 176.612 199.087 179.414Z" fill="#51383C"/>
<path d="M252.763 219.982H260.886C261.144 206.994 260.662 190.939 257.578 180.03C257.109 178.387 256.58 176.838 255.999 175.447C255.86 175.175 255.748 174.897 255.629 174.645C255.49 174.374 255.378 174.115 255.239 173.864C255.121 173.612 254.988 173.354 254.85 173.122H253.384C252.664 176.997 252.855 181.229 252.835 185.004C252.816 193.283 252.796 201.569 252.776 209.829C252.783 213.213 252.769 216.598 252.763 219.982Z" fill="#51383C"/>
<path d="M206.121 136.236C205.896 136.865 205.678 137.448 205.381 137.971C199.827 148.244 199.899 155.941 189.609 155.961C177.946 155.994 160.694 138.011 160.694 138.011C160.694 138.011 165.06 135.521 165.397 134.541C165.47 134.348 165.549 134.156 165.621 133.944C166.513 131.421 167.695 128.685 169.029 125.864C169.545 124.758 170.066 123.658 170.621 122.552H205.797L206.022 132.209L206.121 136.236Z" fill="#F6A285"/>
<path d="M259.975 175.539C262.135 185.633 192.119 183.785 198.724 169.876C199.008 169.287 199.265 168.664 199.523 168.015C206.101 151.563 205.361 118.519 205.361 118.519C205.361 118.519 204.82 92.5219 209.952 86.1369C211.008 84.8388 213.109 83.673 215.625 82.653C216.53 82.2888 217.514 81.9245 218.491 81.6066C224.68 79.593 231.681 78.4604 231.681 78.4604C231.681 78.4604 237.321 79.0499 244.309 80.613C245.273 80.825 246.257 81.0502 247.268 81.3085C256.336 83.5803 266.579 87.3888 269.69 93.4425C275.648 105.02 277.715 121.208 277.715 121.208L258.277 126.685C258.277 126.685 257.716 132.693 257.538 141.151C257.333 151.145 257.637 164.551 259.975 175.539Z" fill="#A535C5"/>
<path d="M269.393 92.9456C265.602 86.5275 253.74 82.7058 244.315 80.6062C237.328 79.0497 231.687 78.4536 231.687 78.4536C231.687 78.4536 224.686 79.5862 218.498 81.5997C214.799 82.825 211.391 84.3418 209.958 86.1235C205.388 91.813 205.328 113.107 205.368 117.657C205.414 110.392 205.969 93.6145 209.958 88.6669C211.391 86.8786 214.799 85.3684 218.498 84.1431C224.686 82.1296 231.687 80.997 231.687 80.997C231.687 80.997 237.328 81.5865 244.315 83.143C252.426 84.9445 262.333 88.031 267.359 92.939H269.393V92.9456Z" fill="#A535C5"/>
<path d="M205.368 118.519C205.368 118.519 205.414 120.241 205.381 123.089C205.381 121.804 205.368 121.062 205.368 121.062C205.368 121.062 205.335 119.757 205.368 117.671C205.368 118.214 205.368 118.519 205.368 118.519Z" fill="#EE9545"/>
<path d="M198.73 169.876C199.014 169.287 199.272 168.664 199.529 168.015C199.648 168.002 199.774 168.002 199.893 168.002C203.862 168.227 205.401 174.254 209.357 174.764C211.002 174.99 212.706 174.056 213.584 172.619C214.462 171.194 212.666 168.671 214.066 167.777C218.201 165.161 221.338 174.453 225.776 176.506C230.195 178.58 235.538 179.215 239.93 177.036C241.74 176.142 243.311 174.811 244.85 173.493C247.248 171.433 249.678 169.373 251.759 166.989C253.298 165.233 254.671 163.28 255.517 161.1C256.54 158.425 256.752 155.365 255.695 152.702C254.097 148.675 250.068 146.271 246.31 144.151C242.658 142.091 238.979 140.038 234.99 138.733C232.652 137.978 230.221 137.508 227.764 137.462C226.423 137.448 223.253 138.276 222.421 136.687C221.648 135.216 224.033 133.103 225.063 132.342C226.556 131.249 228.398 130.646 230.241 130.798C233.834 131.083 236.806 133.733 240.273 134.673C244.018 135.687 248.153 134.66 251.759 136.077C254.202 137.044 256.012 138.965 257.551 141.144C257.34 151.132 257.643 164.538 259.981 175.526C262.135 185.627 192.119 183.786 198.73 169.876Z" fill="#A535C5"/>
<path d="M247.268 81.3085C246.35 86.9384 239.646 90.5547 230.036 90.5547C221.919 90.5547 216.589 87.6007 215.625 82.653C216.53 82.2888 217.514 81.9245 218.491 81.6066C224.68 79.593 231.681 78.4604 231.681 78.4604C231.681 78.4604 237.321 79.0499 244.309 80.613C245.28 80.825 246.257 81.0502 247.268 81.3085Z" fill="#A535C5"/>
<path d="M244.315 80.6133C243.754 85.3821 236.879 87.5281 230.043 87.5281C223.161 87.5281 218.921 85.3357 218.498 81.6134C224.686 79.5999 231.687 78.4673 231.687 78.4673C231.687 78.4673 237.328 79.0501 244.315 80.6133Z" fill="white"/>
<path d="M216.668 55.4908C220.572 60.9551 221.351 73.3276 221.45 78.56C221.457 78.7455 221.457 78.9243 221.457 79.0899C221.477 80.2755 221.463 80.9709 221.463 80.9709C221.463 86.2829 241.317 85.296 241.317 79.9841C234.131 74.6456 236.76 53.3117 236.76 53.3117C235.703 49.9006 232.599 48.3375 233.88 54.6496L233.741 54.6562L216.668 55.4908Z" fill="#F6A285"/>
<path d="M216.054 83.1631L215.764 82.6001C215.764 82.6001 198.519 87.0643 194.867 96.2509C191.987 103.484 188.288 114.598 189.292 122.804C189.722 126.341 204.773 131.09 209.152 128.182C212.758 125.785 214.845 118.433 216.061 110.551V83.1631H216.054Z" fill="#A535C5"/>
<path d="M216.048 83.1694V85.0306C212.772 85.9844 199.074 90.4154 195.857 98.4827C193.064 105.503 189.504 116.174 190.217 124.281C189.675 123.784 189.339 123.281 189.279 122.797C188.282 114.597 191.98 103.49 194.86 96.2572C198.512 87.0706 215.757 82.6064 215.757 82.6064L216.048 83.1694Z" fill="#A535C5"/>
<path d="M274.868 115.115L255.959 119.406L262.187 133.309C252.36 130.792 242.757 127.408 233.523 123.195C229.917 121.552 226.265 119.757 222.322 119.44C217.065 119.022 211.966 121.287 207.442 124.01C206.834 124.374 206.213 124.771 205.837 125.368C205.467 125.964 205.407 126.811 205.883 127.321C205.89 127.328 205.896 127.335 205.903 127.341C206.517 127.964 207.561 127.739 208.393 127.46C211.563 126.421 214.74 125.381 217.917 124.341C217.078 124.646 213.445 126.096 214.621 128.057C215.182 128.984 216.794 128.653 218.062 128.209C218.848 127.792 219.594 127.54 219.713 127.507C219.601 127.56 218.914 127.911 218.062 128.209C216.86 128.851 215.572 129.891 216.351 131.183C217.038 132.329 219.277 131.607 220.499 131.097C219.449 131.64 217.824 132.726 218.379 134.097C218.901 135.375 220.961 134.726 222.137 134.223C222.17 134.375 222.157 134.422 222.269 134.561C223.299 135.813 226.919 135.018 228.794 134.892C230.267 134.793 231.766 134.693 233.193 135.038C234.653 135.389 235.96 136.177 237.248 136.952C242.499 140.138 247.829 143.198 253.007 146.496C262.603 152.609 273.303 153.007 275.099 152.258C282.84 149.026 280.033 130.679 274.868 115.115ZM220.499 131.103C220.875 130.911 221.186 130.785 221.278 130.752C221.192 130.799 220.902 130.938 220.499 131.103Z" fill="#F6A285"/>
<path d="M275.106 152.265C273.309 153.02 262.61 152.616 253.013 146.502C247.835 143.204 242.505 140.144 237.255 136.958C235.967 136.183 234.659 135.388 233.2 135.044C231.766 134.699 230.267 134.799 228.801 134.898C226.925 135.024 223.306 135.825 222.275 134.567C222.163 134.428 222.176 134.375 222.143 134.229C220.968 134.733 218.901 135.382 218.385 134.103C217.831 132.732 219.455 131.646 220.505 131.103C219.284 131.613 217.045 132.335 216.358 131.189C215.578 129.898 216.866 128.858 218.068 128.215C216.8 128.659 215.182 128.99 214.627 128.063C213.452 126.102 217.078 124.652 217.923 124.347C214.753 125.38 211.576 126.427 208.399 127.467C207.56 127.738 206.523 127.97 205.909 127.348C205.903 127.341 205.896 127.334 205.889 127.328C208.743 125.473 211.88 124.076 215.162 123.195C216.404 122.863 217.877 122.652 218.841 123.506C219.198 123.824 219.429 124.241 219.66 124.658C219.957 125.195 220.248 125.731 220.545 126.261C221.093 127.255 221.655 128.295 221.734 129.434C221.807 130.56 221.41 131.792 221.965 132.779C222.375 133.507 223.227 133.898 224.059 133.984C224.884 134.07 225.723 133.905 226.549 133.792C231.581 133.077 236.832 134.044 241.284 136.508C244.995 138.561 248.212 141.641 252.3 142.767C257.194 144.118 261.679 146.694 266.328 148.734C267.946 149.443 269.591 150.158 271.348 150.331C273.105 150.503 275.013 150.039 276.182 148.715C277.629 147.072 277.582 144.641 277.45 142.455C277.107 136.514 277.351 130.421 277.008 124.48C276.929 123.122 276.697 121.519 275.482 120.916C274.789 120.572 273.97 120.678 273.21 120.79C270.549 121.175 267.299 121.711 264.637 122.095C263.416 122.274 259.413 122.724 258.244 122.334C257.075 121.943 256.051 120.804 256.236 119.578C256.25 119.505 256.263 119.433 256.283 119.36L274.894 115.141C280.033 130.679 282.84 149.026 275.106 152.265Z" fill="url(#paint3_linear_1131_39620)"/>
<path d="M254.13 131.037C247.102 128.871 240.214 126.248 233.517 123.201C229.911 121.559 226.258 119.764 222.315 119.446C217.058 119.029 211.959 121.294 207.435 124.016C206.828 124.38 206.207 124.778 205.83 125.374C205.46 125.97 205.401 126.818 205.877 127.328C205.883 127.334 205.89 127.341 205.896 127.348C206.015 127.467 206.147 127.553 206.286 127.613C206.286 127.268 206.392 126.917 206.577 126.626C206.953 126.03 207.574 125.632 208.182 125.268C212.706 122.552 217.804 120.281 223.062 120.698C227.011 121.016 230.664 122.811 234.263 124.453C240.808 127.434 249.758 129.699 256.62 131.838L254.13 131.037Z" fill="#FDE0BB"/>
<path d="M208.703 125.573C208.987 126.129 208.624 126.884 207.891 127.262C207.164 127.632 206.339 127.48 206.055 126.924C205.771 126.367 206.134 125.606 206.861 125.235C207.6 124.864 208.419 125.016 208.703 125.573Z" fill="#FDE0BB"/>
<path d="M262.366 133.355C262.366 133.355 268.237 134.25 272.266 139.926C269.03 136.621 265.199 134.349 260.86 132.965L262.366 133.355Z" fill="#FDE0BB"/>
<path d="M269.697 93.4426C266.83 87.8657 257.901 84.1898 249.421 81.8716V117.883C252.314 122.181 255.332 125.46 258.284 126.692C262.94 128.646 273.303 124.924 277.715 121.208C281.361 118.148 275.648 105.014 269.697 93.4426Z" fill="#A535C5"/>
<path d="M277.721 121.208C277.688 121.221 277.675 121.254 277.649 121.267C278.422 116.26 273.574 105.411 268.567 95.6811C265.82 90.3361 257.551 86.7528 249.421 84.4214V81.8647C257.914 84.1962 266.837 87.8722 269.703 93.4424C275.654 105.02 281.361 118.154 277.721 121.208Z" fill="#A535C5"/>
<path d="M207.891 61.339C207.877 69.8699 209.284 78.7585 215.367 77.5663C216.655 77.3212 217.91 76.9834 219.132 76.586C225.769 74.4798 231.463 70.6515 234.369 68.4658C235.709 67.4524 236.469 66.7967 236.469 66.7967L236.297 62.412C236.297 62.412 238.615 59.7958 239.428 57.1663C240.101 55.0269 239.877 52.7816 236.898 51.6358L235.742 41.7404C224.046 41.237 213.075 41.3099 208.974 46.8139C208.974 46.8139 208.221 51.8013 207.977 57.7756C207.924 58.948 207.891 60.1336 207.891 61.339Z" fill="url(#paint4_linear_1131_39620)"/>
<path d="M220.974 58.1795C221.014 58.8617 220.492 59.4446 219.812 59.4843C219.138 59.5241 218.551 59.0141 218.511 58.3319C218.471 57.6497 218.993 57.0668 219.66 57.0271C220.347 56.9807 220.935 57.4973 220.974 58.1795Z" fill="#111D33"/>
<path d="M219.601 58.3451C219.614 58.5239 219.475 58.6763 219.297 58.6829C219.125 58.6961 218.967 58.5571 218.96 58.3849C218.947 58.206 219.086 58.0537 219.257 58.0471C219.436 58.0338 219.588 58.1663 219.601 58.3451Z" fill="#FBFBFB"/>
<path d="M243.76 46.6749C243.285 49.5759 242.004 52.7022 240.716 55.2787C239.144 58.4447 237.572 60.796 237.473 60.9417C239.012 57.8684 240.002 52.7154 237.169 51.8345C233.946 50.8344 232.513 56.716 232.513 56.716C232.513 56.716 231.324 60.3654 230.393 60.0475C228.629 59.4315 231.053 53.4639 229.191 52.6624C227.328 51.861 225.261 51.2715 225.135 47.7214C225.069 45.7675 224.165 45.1118 222.817 44.9396C213.359 43.754 211.253 49.927 206.854 45.8006C204.688 43.7739 203.809 41.3828 204.344 39.058C205.348 34.6601 211.404 30.4807 223.372 29.3415C241.462 27.6261 237.156 37.3889 237.057 37.6009C237.057 37.6075 237.057 37.6075 237.057 37.6075C243.298 38.1572 244.513 42.1445 243.76 46.6749Z" fill="#894852"/>
<path opacity="0.1" d="M204.225 40.8662C204.245 40.5747 204.291 40.2965 204.357 40.0117C205.355 35.6072 211.418 31.4345 223.385 30.2886C234.871 29.2024 237.327 32.7393 237.572 35.5277C237.79 32.6995 236.244 28.1161 223.385 29.3348C211.418 30.4674 205.361 34.6534 204.357 39.0513C204.212 39.6541 204.172 40.2568 204.225 40.8662Z" fill="white"/>
<path opacity="0.3" d="M215.367 77.5663C216.43 77.3609 217.474 77.096 218.511 76.7781C217.837 76.9569 217.144 77.1093 216.457 77.2483C205.473 79.4076 208.974 46.8271 208.974 46.8271C208.974 46.8271 204.014 79.805 215.367 77.5663Z" fill="#FDE0BB"/>
<path d="M221.509 55.0667C222.791 55.3582 223.933 56.0669 225.069 56.7226C225.274 56.8418 225.551 56.9544 225.73 56.8021C225.855 56.6895 225.868 56.4974 225.849 56.3318C225.743 55.3515 225.083 54.517 224.316 53.901C222.777 52.6624 220.717 52.0928 218.762 52.3843C218.425 52.4372 218.088 52.5101 217.771 52.636C217.415 52.775 217.084 52.9804 216.847 53.2784C216.609 53.5765 216.477 53.9673 216.549 54.3448C216.761 55.4509 217.864 55.08 218.636 54.9939C219.581 54.8813 220.558 54.8548 221.509 55.0667Z" fill="#111D33"/>
<path d="M213.663 53.6028C213.491 53.2651 213.214 52.9935 212.897 52.7815C212.613 52.5895 212.303 52.4504 211.986 52.3245C210.711 51.841 209.304 51.7417 207.97 52.0199C207.395 52.1391 206.992 52.6623 207.026 53.2452C207.059 53.9141 207.64 54.4175 208.313 54.3645C208.452 54.3513 208.597 54.3447 208.736 54.3447C209.7 54.338 210.651 54.5765 211.563 54.8812C212.296 55.1262 213.287 55.729 213.729 54.6957C213.874 54.3579 213.835 53.9473 213.663 53.6028Z" fill="#111D33"/>
<path d="M234.454 57.1263C234.646 56.305 234.989 55.6361 235.472 55.1393C236.04 54.5564 236.812 54.2385 237.539 54.2981C237.902 54.3246 238.279 54.4438 238.648 54.6558C238.721 54.6955 238.754 54.7883 238.708 54.8677C238.668 54.9406 238.569 54.9671 238.497 54.9274C238.16 54.7419 237.829 54.6359 237.506 54.6094C236.872 54.5564 236.191 54.8412 235.683 55.3579C235.254 55.8016 234.943 56.411 234.765 57.1462C234.95 57.0005 235.155 56.8945 235.386 56.8614C235.623 56.8283 235.881 56.8548 236.178 56.9475C236.317 56.9938 236.482 57.0535 236.614 57.1793C236.766 57.325 236.832 57.537 236.786 57.7158C236.766 57.7953 236.687 57.8416 236.608 57.8284H236.601C236.522 57.8085 236.469 57.7224 236.495 57.6363C236.515 57.5635 236.482 57.4707 236.409 57.4045C236.324 57.325 236.205 57.2787 236.092 57.2455C235.848 57.1661 235.63 57.1462 235.439 57.1727C235.141 57.2124 234.864 57.3979 234.712 57.6496C234.705 57.6562 234.692 57.6562 234.686 57.6628C234.6 58.2059 234.554 58.7623 234.534 59.3319C234.534 59.418 234.461 59.4842 234.375 59.4842C234.369 59.4842 234.355 59.4842 234.349 59.4776C234.276 59.4644 234.223 59.3981 234.23 59.3187" fill="#E17659"/>
<path d="M237.473 60.9416C239.012 57.8683 240.002 52.7154 237.169 51.8344C233.946 50.8343 232.513 56.7159 232.513 56.7159C232.513 56.7159 231.324 60.3654 230.393 60.0474C228.629 59.4315 231.053 53.4638 229.191 52.6624C227.328 51.8609 225.261 51.2715 225.135 47.7213C225.069 45.7674 224.165 45.1117 222.817 44.9395C213.359 43.7539 211.252 49.9269 206.854 45.8005C204.688 43.7738 203.809 41.3827 204.344 39.0579C204.47 39.1772 204.595 39.2831 204.721 39.3759C205.949 40.2766 207.554 40.5018 209.073 40.4687C211.92 40.4091 214.674 39.5481 217.461 38.9917C220.248 38.4353 223.24 38.1903 225.855 39.3096C228.471 40.429 230.531 43.2638 229.937 46.0588C229.752 46.9398 229.316 47.7677 229.21 48.6685C229.105 49.5626 229.475 50.629 230.34 50.8873C231.066 51.0992 231.832 50.6489 232.348 50.0859C232.856 49.5229 233.226 48.834 233.794 48.324C234.923 47.3107 236.806 47.2842 237.962 48.2644C238.919 49.0725 239.309 50.3508 239.652 51.5563C240.009 52.8015 240.366 54.0467 240.722 55.2852C239.144 58.4446 237.572 60.7959 237.473 60.9416Z" fill="#51383C"/>
<path d="M243.76 46.6747C243.727 46.6614 243.707 46.5687 243.701 46.3832C243.635 44.1776 241.924 40.1904 239.368 38.8392C236.872 37.5211 232.902 39.5015 232.711 39.5943C235.254 37.4748 237.057 37.594 237.057 37.594C243.298 38.157 244.513 42.1443 243.76 46.6747Z" fill="#51383C"/>
<path d="M212.607 65.1206C214.667 64.2993 213.505 64.4317 215.189 65.1206C216.054 65.4782 214.958 63.3389 214.244 63.3389C213.538 63.3389 211.616 65.5113 212.607 65.1206Z" fill="#E17659"/>
<path d="M210.922 45.9993C210.836 46.0456 210.757 46.092 210.671 46.1384C210.737 46.1052 210.823 46.0523 210.922 45.9993Z" fill="#F6A285"/>
<path d="M217.045 69.3265C217.19 69.3067 217.302 69.4524 217.249 69.5848C216.695 70.9294 215.453 71.8633 214.007 71.8368C212.593 71.8103 211.398 70.8897 210.843 69.5848C210.784 69.4524 210.902 69.3067 211.048 69.3265C212.95 69.5782 214.951 69.5716 217.045 69.3265Z" fill="#E17659"/>
<path d="M217.104 58.2191C217.137 58.2523 217.137 58.2523 217.164 58.2523C217.95 57.9807 218.795 57.676 219.548 57.3713C220.149 57.6429 220.724 58.0072 221.331 58.3119C221.998 58.5569 222.692 58.7358 223.478 58.7689C223.511 58.7689 223.537 58.7424 223.537 58.7093C223.504 58.6828 223.504 58.6828 223.504 58.6828C222.963 58.1065 222.355 57.7423 221.721 57.4376C221.054 57.166 220.36 56.9806 219.7 56.7421H219.667C219.574 56.709 219.489 56.709 219.423 56.7421C218.637 57.1991 217.884 57.6826 217.124 58.1662C217.104 58.1926 217.104 58.2191 217.104 58.2191Z" fill="#111D33"/>
<path d="M211.252 58.1793C211.292 58.8615 210.77 59.4444 210.09 59.4841C209.416 59.5238 208.828 59.0138 208.789 58.3316C208.749 57.6494 209.271 57.0666 209.938 57.0268C210.625 56.9805 211.213 57.4971 211.252 58.1793Z" fill="#111D33"/>
<path d="M207.382 58.2191C207.415 58.2523 207.415 58.2523 207.442 58.2523C208.227 57.9807 209.073 57.676 209.826 57.3713C210.427 57.6429 211.001 58.0072 211.609 58.3119C212.276 58.5569 212.97 58.7358 213.756 58.7689C213.789 58.7689 213.815 58.7424 213.815 58.7093C213.782 58.6828 213.782 58.6828 213.782 58.6828C213.24 58.1065 212.633 57.7423 211.999 57.4376C211.332 57.166 210.638 56.9806 209.978 56.7421H209.945C209.852 56.709 209.766 56.709 209.7 56.7421C208.914 57.1991 208.161 57.6826 207.402 58.1662C207.382 58.1926 207.382 58.2191 207.382 58.2191Z" fill="#111D33"/>
<path d="M209.879 58.3449C209.892 58.5237 209.753 58.676 209.575 58.6827C209.403 58.6959 209.245 58.5568 209.238 58.3846C209.225 58.2058 209.363 58.0534 209.535 58.0468C209.713 58.0336 209.865 58.166 209.879 58.3449Z" fill="#FBFBFB"/>
<path d="M171.546 133.759C171.572 133.865 171.592 133.971 171.605 134.084C171.605 134.071 171.599 134.057 171.599 134.044C171.572 133.958 171.559 133.859 171.546 133.759Z" fill="#FDE0BB"/>
<path d="M222.203 191.29L225.347 195.939L224.568 198.648L222.203 191.29Z" fill="#51383C"/>
<path d="M215.797 149.795H146.376C143.258 149.795 140.432 147.986 139.104 145.158L120.869 106.252C120.723 105.961 120.631 105.656 120.585 105.352C120.268 103.378 121.767 101.444 123.907 101.444H189.643C191.782 101.444 193.731 102.682 194.642 104.63L194.768 104.888L198.123 112.041L215.797 149.795Z" fill="url(#paint5_linear_1131_39620)"/>
<path opacity="0.6" d="M198.288 112.101C198.235 112.081 198.175 112.055 198.116 112.035C187.905 107.882 174.894 105.385 160.714 105.385C146.699 105.385 133.827 107.809 123.662 111.889L120.591 105.345C120.274 103.372 121.773 101.438 123.913 101.438H188.196C190.851 101.438 193.281 102.749 194.767 104.882C195.038 105.253 195.263 105.663 195.468 106.08L198.288 112.101Z" fill="url(#paint6_linear_1131_39620)"/>
<path d="M189.643 101.431C191.782 101.431 193.731 102.669 194.642 104.623L215.803 149.801H250.702V148.689C250.702 145.536 248.159 142.96 245.016 142.96H216.523L198.565 104.623C197.647 102.669 195.706 101.431 193.566 101.431H189.643Z" fill="#151515"/>
<path opacity="0.6" d="M158.158 127.871C159.063 130.693 162.194 132.985 165.166 132.985C168.138 132.985 169.802 130.693 168.904 127.871C167.999 125.043 164.862 122.751 161.897 122.751C158.925 122.751 157.254 125.043 158.158 127.871Z" fill="#CFCDF1"/>
<path d="M160.529 127.871C161.031 129.447 162.782 130.726 164.446 130.726C166.104 130.726 167.035 129.447 166.533 127.871C166.031 126.295 164.274 125.016 162.616 125.016C160.959 125.01 160.027 126.295 160.529 127.871Z" fill="white"/>
<path d="M182.734 148.463C182.734 148.463 184.702 149.556 184.207 151.47L184.194 151.49C183.744 152.245 182.998 152.735 181.862 152.729C181.36 152.722 180.832 152.59 180.369 152.788C179.887 153 179.617 153.523 179.181 153.822C178.732 154.133 178.111 154.159 177.635 153.894C177.331 153.729 177.061 153.444 176.717 153.444C176.427 153.444 176.182 153.649 175.931 153.795C175.132 154.245 174.029 154.053 173.428 153.358C173.058 152.927 172.867 152.338 172.398 152.02C172.398 152.02 167.801 152.292 166.738 151.338C165.912 150.603 165.417 147.602 165.608 145.887C165.654 145.489 165.734 145.158 165.866 144.94C166.004 144.695 166.196 144.595 166.447 144.701C166.546 144.741 166.632 144.787 166.718 144.834C167.913 145.476 168.125 146.635 168.527 148.106C168.957 149.682 171.48 148.602 172.041 147.92C173.527 146.105 174.716 139.879 175.825 139.336C176.915 138.8 177.913 139.561 175.931 147.98C176.354 146.258 177.919 140.065 178.824 139.508C179.861 138.873 180.964 139.588 179.788 148.145C180.046 146.423 180.997 140.442 181.908 139.826C182.972 139.118 183.711 139.793 182.734 148.463Z" fill="#F6A285"/>
<path d="M166.711 144.847C166.777 144.94 166.836 145.053 166.876 145.178C167.054 145.715 166.896 146.251 166.506 146.384C166.189 146.49 165.819 146.278 165.601 145.9C165.648 145.503 165.727 145.172 165.859 144.953C165.998 144.708 166.189 144.609 166.44 144.715C166.539 144.754 166.625 144.794 166.711 144.847Z" fill="#FDE0BB"/>
<path d="M176.492 139.469C176.558 139.568 176.618 139.687 176.657 139.813C176.836 140.376 176.664 140.939 176.261 141.085C175.924 141.204 175.548 140.986 175.323 140.588C175.376 140.164 175.469 139.813 175.601 139.588C175.746 139.33 175.951 139.224 176.208 139.33C176.307 139.376 176.4 139.416 176.492 139.469Z" fill="#FDE0BB"/>
<path d="M179.61 139.502C179.676 139.601 179.775 139.8 179.815 139.926C179.993 140.489 179.821 141.052 179.418 141.197C179.081 141.317 178.705 141.098 178.48 140.701C178.533 140.277 178.626 139.926 178.758 139.7C178.903 139.442 179.108 139.336 179.365 139.442C179.464 139.488 179.524 139.455 179.61 139.502Z" fill="#FDE0BB"/>
<path d="M182.661 139.913C182.727 140.012 182.826 140.211 182.866 140.337C183.044 140.9 182.872 141.463 182.47 141.615C182.133 141.734 181.756 141.516 181.532 141.118C181.585 140.694 181.677 140.343 181.809 140.118C181.954 139.86 182.159 139.754 182.417 139.86C182.516 139.9 182.575 139.86 182.661 139.913Z" fill="#FDE0BB"/>
<path d="M99.5491 59.1871C99.5491 59.7898 101.048 60.28 102.891 60.28C104.734 60.28 106.226 59.7898 106.226 59.1871C106.226 58.5844 104.734 58.0942 102.891 58.0942C101.042 58.0942 99.5491 58.5844 99.5491 59.1871Z" fill="white"/>
<path d="M78.9426 65.0287C80.6862 74.381 89.761 81.9581 99.2055 81.9581C108.657 81.9581 114.898 74.381 113.148 65.0287C111.398 55.6765 102.33 48.0994 92.8783 48.0994C83.4337 48.0927 77.1924 55.6765 78.9426 65.0287Z" fill="#F9F9F9"/>
<path d="M83.6517 65.0285C84.9198 71.8042 91.4913 77.295 98.3337 77.295C105.176 77.295 109.7 71.8042 108.432 65.0285C107.164 58.2528 100.592 52.762 93.7501 52.762C86.9077 52.7553 82.3836 58.2528 83.6517 65.0285Z" fill="#F57A00"/>
<path d="M91.5047 40.6875C83.916 40.6875 77.787 44.1118 74.3129 49.4767C73.9299 50.0795 73.5798 50.7021 73.2628 51.3445C72.457 52.9474 71.8824 54.696 71.5456 56.5373C71.4201 57.2791 71.3211 58.0341 71.2616 58.8091C71.222 59.1932 71.2088 59.584 71.2022 59.9748C71.1824 60.763 71.2088 61.5578 71.2748 62.3791C71.3475 63.1871 71.4598 64.0151 71.6117 64.843C71.7636 65.6709 71.9683 66.4988 72.1929 67.3069C72.4372 68.1282 72.7014 68.923 73.0184 69.7112C73.1703 70.1019 73.3289 70.4994 73.5138 70.8769C73.8572 71.6518 74.2403 72.4069 74.6432 73.1487C75.6735 74.99 76.902 76.7386 78.3021 78.3414C78.8635 78.9839 79.4447 79.6065 80.0523 80.2092C85.5276 85.5675 92.9379 88.9985 100.527 88.9985C114 88.9985 122.91 78.1825 120.413 64.843C117.93 51.5035 104.978 40.6875 91.5047 40.6875ZM92.8587 47.9136C102.297 47.9136 111.378 55.4908 113.122 64.843C114.865 74.1886 108.624 81.7724 99.1793 81.7724C89.7281 81.7724 80.6468 74.1886 78.9031 64.843C77.1595 55.4908 83.4075 47.9136 92.8587 47.9136Z" fill="#F57A00"/>
<path d="M100.533 89.5482C87.0004 89.5482 73.6591 78.7785 71.0701 64.9423C68.5009 51.2451 77.6879 40.1311 91.5048 40.1311C105.216 40.1311 118.432 51.1723 120.968 64.737C123.524 78.4209 114.37 89.5482 100.533 89.5482ZM91.5048 41.2438C78.4673 41.2438 69.7228 51.6227 72.1599 64.737C74.6762 78.1361 87.5882 88.4354 100.527 88.4354C113.624 88.4354 122.309 77.9771 119.872 64.9423C117.434 51.8744 104.707 41.2438 91.5048 41.2438ZM99.1793 82.3287C89.4904 82.3287 80.1514 74.533 78.3616 64.9423C76.5453 55.239 83.0509 47.3572 92.8587 47.3572C102.541 47.3572 111.88 55.1529 113.67 64.737C115.473 74.427 108.981 82.3287 99.1793 82.3287ZM92.8521 48.4699C83.7576 48.4699 77.7606 55.7093 79.4448 64.737C81.1421 73.8176 89.9923 81.2093 99.1727 81.2093C108.241 81.2093 114.258 73.97 112.567 64.9357C110.876 55.8616 102.033 48.4699 92.8521 48.4699Z" fill="#E58333"/>
<path d="M120.42 65.3993H113.121C112.818 65.3993 112.567 65.1477 112.567 64.843C112.567 64.5383 112.818 64.2866 113.121 64.2866H120.42C120.723 64.2866 120.974 64.5383 120.974 64.843C120.974 65.1477 120.723 65.3993 120.42 65.3993Z" fill="#E58333"/>
<path d="M119.403 77.474C119.317 77.474 119.231 77.4541 119.152 77.4144L112.157 73.8046C111.887 73.6655 111.774 73.3278 111.92 73.0562C112.058 72.7846 112.395 72.6787 112.666 72.8178L119.66 76.4275C119.931 76.5666 120.043 76.9044 119.898 77.1759C119.799 77.368 119.607 77.474 119.403 77.474Z" fill="#E58333"/>
<path d="M112.124 86.3164C111.959 86.3164 111.794 86.2435 111.688 86.0978L106.874 79.8387C106.689 79.5936 106.728 79.2492 106.973 79.0571C107.21 78.8717 107.561 78.9114 107.752 79.1565L112.567 85.409C112.752 85.654 112.712 85.9984 112.468 86.1905C112.362 86.2766 112.243 86.3164 112.124 86.3164Z" fill="#E58333"/>
<path d="M100.527 89.5483C100.262 89.5483 100.031 89.3629 99.985 89.0913L98.6376 81.8652C98.5782 81.5605 98.7763 81.2757 99.0801 81.2161C99.3773 81.1565 99.6679 81.3552 99.7274 81.6599L101.075 88.886C101.134 89.1907 100.929 89.4755 100.632 89.5351C100.593 89.5483 100.56 89.5483 100.527 89.5483Z" fill="#E58333"/>
<path d="M87.7204 86.316C87.6543 86.316 87.5817 86.3027 87.5156 86.2762C87.2316 86.1636 87.0929 85.8391 87.2052 85.5543L89.6819 79.2952C89.7942 79.0104 90.1178 78.8713 90.4018 78.9839C90.6858 79.0965 90.8245 79.421 90.7123 79.7058L88.2355 85.9649C88.1497 86.1835 87.9383 86.316 87.7204 86.316Z" fill="#E58333"/>
<path d="M77.1398 77.474C76.9549 77.474 76.7766 77.3813 76.6709 77.2157C76.5058 76.9574 76.585 76.613 76.8426 76.4474L82.4895 72.8376C82.7471 72.6787 83.0906 72.7515 83.2557 73.0098C83.4208 73.2681 83.3415 73.6126 83.084 73.7781L77.437 77.3879C77.3446 77.4409 77.2389 77.474 77.1398 77.474Z" fill="#E58333"/>
<path d="M78.9096 65.393H71.6116C71.3077 65.393 71.0568 65.1413 71.0568 64.8366C71.0568 64.532 71.3077 64.2803 71.6116 64.2803H78.9096C79.2135 64.2803 79.4644 64.532 79.4644 64.8366C79.4644 65.1479 79.2135 65.393 78.9096 65.393Z" fill="#E58333"/>
<path d="M79.623 56.9284C79.5372 56.9284 79.4513 56.9085 79.3721 56.8688L72.3712 53.2524C72.1004 53.1133 71.9881 52.7755 72.1334 52.504C72.2721 52.2258 72.6089 52.1198 72.8797 52.2655L79.874 55.8753C80.1448 56.0144 80.2571 56.3522 80.1118 56.6237C80.0127 56.8158 79.8212 56.9284 79.623 56.9284Z" fill="#E58333"/>
<path d="M84.7218 50.7284C84.5567 50.7284 84.3916 50.6556 84.2859 50.5099L79.4712 44.2574C79.2862 44.0123 79.3259 43.6679 79.5702 43.4758C79.808 43.2904 80.1581 43.3301 80.3496 43.5752L85.1643 49.8343C85.3493 50.0793 85.3096 50.4238 85.0653 50.6158C84.9662 50.6953 84.8407 50.7284 84.7218 50.7284Z" fill="#E58333"/>
<path d="M92.8521 48.4634C92.588 48.4634 92.3568 48.2779 92.3106 48.0064L90.9632 40.7803C90.9038 40.4756 91.1085 40.1908 91.4057 40.1312C91.7029 40.0716 91.9936 40.2703 92.053 40.5749L93.4003 47.8011C93.4598 48.1057 93.2616 48.3905 92.9578 48.4501C92.9248 48.4634 92.8852 48.4634 92.8521 48.4634Z" fill="#E58333"/>
<path d="M101.828 50.7351C101.762 50.7351 101.689 50.7219 101.623 50.6954C101.339 50.5828 101.2 50.2582 101.313 49.9734L103.796 43.7143C103.908 43.4295 104.232 43.2971 104.516 43.403C104.8 43.5156 104.939 43.8402 104.826 44.125L102.343 50.3841C102.257 50.6027 102.052 50.7351 101.828 50.7351Z" fill="#E58333"/>
<path d="M109.251 56.9349C109.066 56.9349 108.888 56.8422 108.782 56.6766C108.617 56.4183 108.697 56.0739 108.954 55.9083L114.601 52.2986C114.859 52.1396 115.202 52.2125 115.367 52.4708C115.532 52.7291 115.453 53.0735 115.195 53.2391L109.549 56.8488C109.456 56.9018 109.35 56.9349 109.251 56.9349Z" fill="#E58333"/>
<path d="M99.6942 64.3131C100.143 63.717 100.342 62.9222 100.176 62.0479C99.8396 60.2331 98.0893 58.756 96.2599 58.7163L96.0221 57.4247C95.9428 57.0075 95.54 56.6697 95.1173 56.6697C94.6946 56.6697 94.4172 57.0075 94.4964 57.4247L94.7342 58.7097H93.1425L92.9047 57.4247C92.8255 57.0075 92.4226 56.6697 91.9999 56.6697C91.5772 56.6697 91.2998 57.0075 91.3791 57.4247L91.6168 58.7097H90.3355C89.9128 58.7097 89.6354 59.0475 89.7147 59.4647C89.7939 59.882 90.1968 60.2198 90.6195 60.2198H91.8876L92.7066 64.6177L93.618 69.4859H92.3499C91.9272 69.4859 91.6498 69.8237 91.7291 70.241C91.8083 70.6583 92.2112 70.9961 92.6339 70.9961H93.902L94.1398 72.2479C94.219 72.6651 94.6219 73.0029 95.0446 73.0029C95.4673 73.0029 95.7447 72.6651 95.6654 72.2479L95.4277 70.9961H97.0194L97.2505 72.2479C97.3298 72.6651 97.7327 73.0029 98.1554 73.0029C98.5781 73.0029 98.8555 72.6651 98.7762 72.2479L98.5384 70.9961H99.1857C101.174 70.9961 102.495 69.3932 102.125 67.426C101.894 66.0947 100.923 64.9224 99.6942 64.3131ZM98.6507 62.0479C98.8357 63.0546 98.162 63.8693 97.1515 63.8693H94.1001L93.4199 60.2264H96.4712C97.4817 60.2264 98.4592 61.0411 98.6507 62.0479ZM98.9215 69.4925H95.1503L94.3841 65.3861H97.4355H98.1554C99.298 65.3861 100.401 66.3067 100.612 67.4393C100.824 68.5653 100.064 69.4925 98.9215 69.4925Z" fill="white"/>
<path d="M123.623 56.3053H116.933C116.629 56.3053 116.378 56.0536 116.378 55.749C116.378 55.4443 116.629 55.1926 116.933 55.1926H122.956L121.292 46.2841C121.259 46.1252 121.305 45.953 121.411 45.8271C121.516 45.7013 121.675 45.6284 121.84 45.6284H127.916C128.22 45.6284 128.471 45.8801 128.471 46.1848C128.471 46.4895 128.22 46.7411 127.916 46.7411H122.5L124.165 55.6496C124.198 55.8086 124.151 55.9808 124.046 56.1066C123.94 56.2325 123.788 56.3053 123.623 56.3053Z" fill="#E58333"/>
<path d="M130.379 49.2246C132.083 49.2246 133.2 47.8668 132.883 46.1844C132.572 44.522 130.941 43.1443 129.243 43.1443C127.559 43.1443 126.423 44.522 126.74 46.1844C127.051 47.8668 128.695 49.2246 130.379 49.2246Z" fill="white"/>
<path d="M130.379 49.7809C128.431 49.7809 126.549 48.2112 126.192 46.2838C126.007 45.3101 126.232 44.3829 126.82 43.6742C127.401 42.9721 128.266 42.5813 129.243 42.5813C131.192 42.5813 133.067 44.151 133.431 46.0784C133.616 47.0587 133.391 47.9926 132.81 48.6947C132.229 49.3968 131.363 49.7809 130.379 49.7809ZM129.243 43.694C128.603 43.694 128.041 43.9391 127.672 44.3829C127.302 44.8333 127.163 45.436 127.282 46.0718C127.546 47.476 128.959 48.6616 130.379 48.6616C131.033 48.6616 131.595 48.4165 131.958 47.9794C132.328 47.5356 132.46 46.9329 132.341 46.2772C132.077 44.8862 130.657 43.694 129.243 43.694Z" fill="#E58333"/>
<path d="M74.9999 49.112H68.3094C68.0452 49.112 67.8141 48.9199 67.7612 48.655L66.0573 39.5412H60.4433C60.1395 39.5412 59.8885 39.2895 59.8885 38.9848C59.8885 38.6802 60.1395 38.4285 60.4433 38.4285H66.5196C66.7838 38.4285 67.0149 38.6205 67.0678 38.8855L68.7717 47.9993H74.9999C75.3037 47.9993 75.5547 48.2509 75.5547 48.5556C75.5547 48.8669 75.3103 49.112 74.9999 49.112Z" fill="#E58333"/>
<path d="M59.1158 42.0317C57.4118 42.0317 55.7871 40.6739 55.4767 38.9916C55.1663 37.3291 56.2824 35.9514 57.9798 35.9514C59.664 35.9514 61.3151 37.3291 61.6256 38.9916C61.936 40.6739 60.8 42.0317 59.1158 42.0317Z" fill="white"/>
<path d="M59.1157 42.5883C57.1343 42.5883 55.2916 41.0516 54.9284 39.0911C54.7434 38.1109 54.968 37.1836 55.5492 36.4815C56.1304 35.7794 56.989 35.3953 57.9731 35.3953C59.9215 35.3953 61.8038 36.965 62.1604 38.8924C62.3453 39.8727 62.1208 40.7999 61.5396 41.502C60.965 42.2041 60.0998 42.5883 59.1157 42.5883ZM57.9797 36.508C57.3324 36.508 56.7711 36.7531 56.4078 37.1968C56.0379 37.6472 55.8992 38.2499 56.0181 38.8924C56.2823 40.3164 57.6759 41.4822 59.1157 41.4822C59.7629 41.4822 60.3243 41.2371 60.6876 40.7933C61.0574 40.3496 61.1961 39.7468 61.0707 39.0977C60.8131 37.6936 59.3997 36.508 57.9797 36.508Z" fill="#E58333"/>
<path d="M101.213 43.0852C100.949 43.0852 100.718 42.8998 100.672 42.6282L99.3178 35.3955C99.2848 35.2365 99.331 35.0643 99.4367 34.9384C99.5424 34.8126 99.7009 34.7397 99.866 34.7397H109.819C110.123 34.7397 110.374 34.9914 110.374 35.2961C110.374 35.6008 110.123 35.8525 109.819 35.8525H100.526L101.755 42.4295C101.814 42.7342 101.61 43.0256 101.312 43.0786C101.279 43.0852 101.246 43.0852 101.213 43.0852Z" fill="#E58333"/>
<path d="M91.4913 41.2308C91.2272 41.2308 90.996 41.0453 90.9498 40.7738L89.5232 33.1569C89.4637 32.8522 89.6685 32.5674 89.9657 32.5078C90.2563 32.4548 90.5535 32.6469 90.6129 32.9516L92.0395 40.5684C92.099 40.8731 91.8942 41.1579 91.597 41.2175C91.5574 41.2308 91.5244 41.2308 91.4913 41.2308Z" fill="#E58333"/>
<path d="M111.246 38.3364C112.95 38.3364 114.066 36.9786 113.749 35.2962C113.439 33.6338 111.807 32.2561 110.11 32.2561C108.426 32.2561 107.29 33.6338 107.607 35.2962C107.917 36.9786 109.562 38.3364 111.246 38.3364Z" fill="white"/>
<path d="M111.246 38.8927C109.298 38.8927 107.415 37.323 107.059 35.3956C106.874 34.4219 107.098 33.4947 107.686 32.786C108.267 32.0839 109.132 31.6931 110.11 31.6931C112.058 31.6931 113.941 33.2629 114.297 35.1903C114.482 36.1705 114.264 37.1044 113.676 37.8065C113.095 38.5086 112.23 38.8927 111.246 38.8927ZM110.11 32.8125C109.469 32.8125 108.908 33.0575 108.538 33.5013C108.168 33.9517 108.029 34.5478 108.148 35.1903C108.413 36.5944 109.833 37.78 111.246 37.78C111.9 37.78 112.461 37.5349 112.824 37.0978C113.194 36.654 113.326 36.0513 113.207 35.3956C112.943 33.9914 111.523 32.8125 110.11 32.8125Z" fill="#E58333"/>
<path d="M126.133 82.8249H116.173C115.869 82.8249 115.618 82.5732 115.618 82.2685C115.618 81.9638 115.869 81.7122 116.173 81.7122H126.133C126.437 81.7122 126.688 81.9638 126.688 82.2685C126.688 82.5732 126.437 82.8249 126.133 82.8249Z" fill="#E58333"/>
<path d="M127.553 85.3088C129.257 85.3088 130.373 83.951 130.056 82.2687C129.746 80.6062 128.114 79.2285 126.417 79.2285C124.733 79.2285 123.597 80.6062 123.914 82.2687C124.224 83.951 125.869 85.3088 127.553 85.3088Z" fill="white"/>
<path d="M127.553 85.8651C125.604 85.8651 123.722 84.2954 123.365 82.368C123.18 81.3944 123.405 80.4671 123.993 79.7584C124.574 79.0563 125.439 78.6655 126.417 78.6655C128.365 78.6655 130.241 80.2353 130.604 82.1627C130.789 83.1429 130.564 84.0768 129.983 84.7789C129.402 85.481 128.543 85.8651 127.553 85.8651ZM126.417 79.7783C125.776 79.7783 125.215 80.0233 124.845 80.4671C124.475 80.9175 124.336 81.5202 124.455 82.1627C124.719 83.5668 126.139 84.7524 127.553 84.7524C128.206 84.7524 128.768 84.5073 129.131 84.0702C129.501 83.6264 129.633 83.0237 129.514 82.368C129.25 80.9638 127.83 79.7783 126.417 79.7783Z" fill="#E58333"/>
<path d="M90.4083 34.8725C92.1123 34.8725 93.2285 33.5147 92.9115 31.8324C92.601 30.1699 90.9697 28.7922 89.2723 28.7922C87.5882 28.7922 86.4522 30.1699 86.7692 31.8324C87.0796 33.5147 88.7241 34.8725 90.4083 34.8725Z" fill="white"/>
<path d="M90.4082 35.4286C88.4599 35.4286 86.5775 33.8589 86.2209 31.9315C86.036 30.9578 86.2605 30.0306 86.8483 29.3219C87.4295 28.6198 88.2947 28.229 89.2722 28.229C91.2206 28.229 93.1029 29.7987 93.4596 31.7261C93.6445 32.7064 93.4265 33.6403 92.8387 34.3424C92.2575 35.0378 91.3923 35.4286 90.4082 35.4286ZM89.2656 29.3417C88.625 29.3417 88.0636 29.5868 87.6937 30.0306C87.3239 30.481 87.1852 31.0771 87.3041 31.7195C87.5682 33.1237 88.9882 34.3093 90.4016 34.3093C91.0555 34.3093 91.6169 34.0642 91.9801 33.6271C92.35 33.1833 92.4821 32.5806 92.3632 31.9249C92.1056 30.5273 90.6856 29.3417 89.2656 29.3417Z" fill="#E58333"/>
<path d="M83.2291 42.7276H75.2838C75.0196 42.7276 74.7884 42.5355 74.7356 42.2706L73.3816 35.0312C73.3222 34.7266 73.5203 34.4418 73.8241 34.3821C74.1213 34.3225 74.4119 34.5212 74.4714 34.8259L75.7395 41.6083H83.2225C83.5263 41.6083 83.7773 41.8599 83.7773 42.1646C83.7773 42.4693 83.5329 42.7276 83.2291 42.7276Z" fill="#E58333"/>
<path d="M74.0354 35.4748C75.7394 35.4748 76.8556 34.117 76.5385 32.4347C76.2281 30.7722 74.5968 29.3945 72.8994 29.3945C71.2152 29.3945 70.0792 30.7722 70.3963 32.4347C70.7067 34.117 72.3512 35.4748 74.0354 35.4748Z" fill="white"/>
<path d="M74.0356 36.0312C72.0872 36.0312 70.2049 34.4614 69.8483 32.534C69.6699 31.5736 69.9011 30.6265 70.4757 29.9244C71.0569 29.2223 71.9221 28.8315 72.8996 28.8315C74.8479 28.8315 76.7302 30.4013 77.0869 32.3287C77.2718 33.3089 77.0539 34.2428 76.4661 34.9449C75.8849 35.647 75.0263 36.0312 74.0356 36.0312ZM72.8996 29.9443C72.2589 29.9443 71.6975 30.1893 71.3277 30.6331C70.9578 31.0835 70.8191 31.6862 70.938 32.3287C71.2022 33.7328 72.6222 34.9184 74.0356 34.9184C74.6894 34.9184 75.2508 34.6734 75.6141 34.2362C75.9839 33.7925 76.116 33.1897 75.9971 32.534C75.733 31.1299 74.313 29.9443 72.8996 29.9443Z" fill="#E58333"/>
<path d="M120.842 94.8608H110.883C110.619 94.8608 110.387 94.6687 110.335 94.4038L108.981 87.171C108.921 86.8664 109.119 86.5749 109.423 86.522C109.714 86.469 110.017 86.661 110.07 86.9657L111.338 93.7481H120.842C121.146 93.7481 121.397 93.9998 121.397 94.3044C121.397 94.6091 121.153 94.8608 120.842 94.8608Z" fill="#E58333"/>
<path d="M101.927 97.0931C101.663 97.0931 101.431 96.9076 101.385 96.6361L99.9652 89.0192C99.9058 88.7145 100.111 88.4297 100.408 88.3701C100.705 88.3171 100.996 88.5092 101.055 88.8139L102.475 96.4308C102.534 96.7354 102.336 97.0202 102.032 97.0798C101.993 97.0931 101.96 97.0931 101.927 97.0931Z" fill="#E58333"/>
<path d="M121.133 91.2578C122.837 91.2578 124.462 92.6156 124.772 94.2979C125.083 95.9604 123.966 97.3381 122.269 97.3381C120.585 97.3381 118.934 95.9604 118.623 94.2979C118.313 92.6156 119.449 91.2578 121.133 91.2578Z" fill="white"/>
<path d="M122.269 97.901C120.321 97.901 118.438 96.3313 118.082 94.4039C117.897 93.4303 118.121 92.4964 118.703 91.7943C119.284 91.0922 120.149 90.7014 121.133 90.7014C123.114 90.7014 124.95 92.238 125.32 94.1986C125.505 95.1788 125.281 96.1061 124.7 96.8082C124.112 97.5103 123.253 97.901 122.269 97.901ZM121.133 91.8141C120.486 91.8141 119.924 92.0592 119.561 92.503C119.191 92.9467 119.053 93.5495 119.178 94.1986C119.442 95.6027 120.862 96.7883 122.276 96.7883C122.923 96.7883 123.484 96.5432 123.848 96.0995C124.217 95.6491 124.356 95.0464 124.237 94.4039C123.96 92.9732 122.573 91.8141 121.133 91.8141Z" fill="#E58333"/>
<path d="M101.59 94.7285C103.294 94.7285 104.919 96.0863 105.229 97.7687C105.539 99.4311 104.423 100.809 102.726 100.809C101.042 100.809 99.3972 99.4311 99.0802 97.7687C98.7698 96.0863 99.9058 94.7285 101.59 94.7285Z" fill="white"/>
<path d="M102.726 101.365C100.778 101.365 98.8954 99.7954 98.5388 97.868C98.3539 96.8944 98.5784 95.9671 99.1596 95.2584C99.7408 94.5563 100.606 94.1655 101.59 94.1655C103.571 94.1655 105.414 95.7021 105.777 97.6627C105.962 98.6429 105.738 99.5702 105.157 100.272C104.569 100.981 103.71 101.365 102.726 101.365ZM101.59 95.2849C100.943 95.2849 100.381 95.5299 100.018 95.9737C99.6484 96.4175 99.5097 97.0202 99.6352 97.6693C99.8993 99.0735 101.319 100.259 102.733 100.259C103.38 100.259 103.941 100.014 104.305 99.5702C104.674 99.1198 104.813 98.5171 104.694 97.8746C104.417 96.444 103.03 95.2849 101.59 95.2849Z" fill="#E58333"/>
<path d="M85.0918 95.2185C84.8276 95.2185 84.5964 95.0331 84.5502 94.7615L83.1962 87.5222C83.1632 87.3632 83.2094 87.191 83.3151 87.0652C83.4208 86.9393 83.5793 86.8665 83.7444 86.8665H91.6898C91.9936 86.8665 92.2445 87.1181 92.2445 87.4228C92.2445 87.7275 91.9936 87.9792 91.6898 87.9792H84.4115L85.6399 94.5562C85.6994 94.8609 85.4946 95.1457 85.1974 95.2053C85.1578 95.2119 85.1248 95.2185 85.0918 95.2185Z" fill="#E58333"/>
<path d="M84.9927 94.1187C86.6967 94.1187 88.3214 95.4764 88.6318 97.1588C88.9423 98.8213 87.8261 100.199 86.1287 100.199C84.4445 100.199 82.8 98.8213 82.483 97.1588C82.1725 95.4764 83.3085 94.1187 84.9927 94.1187Z" fill="white"/>
<path d="M86.1287 100.762C84.1803 100.762 82.298 99.1924 81.9414 97.265C81.7564 96.2913 81.981 95.3574 82.5622 94.6554C83.1434 93.9533 84.0086 93.5625 84.9927 93.5625C86.9741 93.5625 88.8102 95.0991 89.18 97.0596C89.3649 98.0399 89.1404 98.9672 88.5592 99.6693C87.9714 100.378 87.1128 100.762 86.1287 100.762ZM84.9927 94.6752C84.3454 94.6752 83.7841 94.9203 83.4208 95.3641C83.0509 95.8078 82.9122 96.4106 83.0377 97.0596C83.3019 98.4638 84.7219 99.6494 86.1353 99.6494C86.7825 99.6494 87.3439 99.4043 87.7072 98.9606C88.077 98.5102 88.2157 97.9074 88.0969 97.265C87.8195 95.8409 86.4325 94.6752 84.9927 94.6752Z" fill="#E58333"/>
<path d="M134.124 75.6723H128.623C128.431 75.6723 128.253 75.5729 128.154 75.414L124.772 70.049H121.285C120.981 70.049 120.73 69.7973 120.73 69.4926C120.73 69.188 120.981 68.9363 121.285 68.9363H125.083C125.274 68.9363 125.452 69.0356 125.552 69.1946L128.933 74.5595H134.131C134.435 74.5595 134.686 74.8112 134.686 75.1159C134.679 75.4206 134.435 75.6723 134.124 75.6723Z" fill="#E58333"/>
<path d="M136.04 78.1491C137.744 78.1491 138.86 76.7913 138.543 75.109C138.233 73.4465 136.601 72.0688 134.904 72.0688C133.22 72.0688 132.084 73.4465 132.401 75.109C132.711 76.7913 134.356 78.1491 136.04 78.1491Z" fill="white"/>
<path d="M136.04 78.7052C134.091 78.7052 132.209 77.1355 131.852 75.2081C131.667 74.2344 131.892 73.3072 132.48 72.5985C133.061 71.8964 133.926 71.5056 134.904 71.5056C136.852 71.5056 138.734 73.0754 139.091 75.0028C139.276 75.983 139.058 76.9169 138.47 77.619C137.889 78.3211 137.03 78.7052 136.04 78.7052ZM134.904 72.625C134.263 72.625 133.702 72.87 133.332 73.3138C132.962 73.7642 132.823 74.3603 132.942 75.0028C133.206 76.4069 134.626 77.5925 136.04 77.5925C136.694 77.5925 137.255 77.3474 137.618 76.9103C137.988 76.4665 138.12 75.8638 138.001 75.2081C137.737 73.8105 136.317 72.625 134.904 72.625Z" fill="#E58333"/>
<path d="M67.8665 75.944H62.3649C62.0611 75.944 61.8101 75.6923 61.8101 75.3876C61.8101 75.083 62.0611 74.8313 62.3649 74.8313H67.4373L68.7714 69.6253C68.8374 69.3802 69.0554 69.208 69.3063 69.208H73.0974C73.4012 69.208 73.6522 69.4597 73.6522 69.7644C73.6522 70.069 73.4012 70.3207 73.0974 70.3207H69.7356L68.4081 75.5267C68.3421 75.7718 68.1241 75.944 67.8665 75.944Z" fill="#E58333"/>
<path d="M61.5921 78.4279C59.8881 78.4279 58.2634 77.0701 57.953 75.3878C57.6426 73.7253 58.7587 72.3477 60.4561 72.3477C62.1403 72.3477 63.7849 73.7253 64.1019 75.3878C64.4123 77.0701 63.2697 78.4279 61.5921 78.4279Z" fill="white"/>
<path d="M61.5922 78.984C59.6108 78.984 57.7681 77.4474 57.4049 75.4869C57.2199 74.5133 57.4445 73.5794 58.0257 72.8773C58.6069 72.1752 59.4655 71.7844 60.4496 71.7844C62.398 71.7844 64.2803 73.3542 64.6369 75.2816C64.8218 76.2618 64.5973 77.1891 64.0161 77.8912C63.4349 78.5933 62.5763 78.984 61.5922 78.984ZM60.4562 72.8972C59.8089 72.8972 59.2476 73.1422 58.8843 73.586C58.5144 74.0364 58.3758 74.6391 58.4946 75.2816C58.7588 76.7122 60.1524 77.8713 61.5922 77.8713C62.2394 77.8713 62.8008 77.6262 63.1641 77.1825C63.5339 76.7387 63.6726 76.136 63.5538 75.4869C63.2896 74.0827 61.8696 72.8972 60.4562 72.8972Z" fill="#E58333"/>
<path d="M71.1824 58.7033H61.216C60.9122 58.7033 60.6613 58.4516 60.6613 58.1469C60.6613 57.8423 60.9122 57.5906 61.216 57.5906H71.1824C71.4862 57.5906 71.7372 57.8423 71.7372 58.1469C71.7372 58.4516 71.4862 58.7033 71.1824 58.7033Z" fill="#E58333"/>
<path d="M60.9322 61.1874C59.2282 61.1874 57.6034 59.8296 57.293 58.1473C56.9826 56.4848 58.0988 55.1072 59.7962 55.1072C61.4803 55.1072 63.1315 56.4848 63.4419 58.1473C63.7523 59.8296 62.6163 61.1874 60.9322 61.1874Z" fill="white"/>
<path d="M60.9321 61.7436C58.9507 61.7436 57.108 60.2069 56.7448 58.2464C56.5598 57.2728 56.7844 56.3389 57.3656 55.6368C57.9468 54.9347 58.8054 54.5439 59.7895 54.5439C61.7379 54.5439 63.6202 56.1137 63.9768 58.0411C64.1618 59.0214 63.9372 59.9486 63.356 60.6507C62.7748 61.3594 61.9162 61.7436 60.9321 61.7436ZM59.7961 55.6567C59.1489 55.6567 58.5875 55.9017 58.2242 56.3455C57.8543 56.7959 57.7157 57.3986 57.8345 58.0411C58.0987 59.4717 59.4923 60.6308 60.9321 60.6308C61.5793 60.6308 62.1407 60.3858 62.5106 59.942C62.8805 59.4982 63.0192 58.8955 62.9003 58.2464C62.6295 56.8423 61.2095 55.6567 59.7961 55.6567Z" fill="#E58333"/>
<path d="M114.799 45.7741H107.158C106.854 45.7741 106.603 45.5224 106.603 45.2177C106.603 44.9131 106.854 44.6614 107.158 44.6614H114.799C115.103 44.6614 115.354 44.9131 115.354 45.2177C115.354 45.5224 115.109 45.7741 114.799 45.7741Z" fill="#E58333"/>
<path d="M116.226 48.2578C117.93 48.2578 119.046 46.9 118.729 45.2176C118.419 43.5552 116.787 42.1775 115.09 42.1775C113.406 42.1775 112.27 43.5552 112.587 45.2176C112.897 46.9 114.542 48.2578 116.226 48.2578Z" fill="white"/>
<path d="M116.226 48.8144C114.277 48.8144 112.395 47.2446 112.038 45.3172C111.853 44.3436 112.078 43.4163 112.666 42.7076C113.247 42.0055 114.112 41.6147 115.09 41.6147C117.038 41.6147 118.92 43.1845 119.277 45.1119C119.462 46.0922 119.237 47.026 118.656 47.7281C118.075 48.4302 117.21 48.8144 116.226 48.8144ZM115.09 42.7275C114.449 42.7275 113.888 42.9725 113.518 43.4163C113.148 43.8667 113.009 44.4694 113.128 45.1119C113.392 46.516 114.806 47.7016 116.226 47.7016C116.88 47.7016 117.441 47.4566 117.804 47.0194C118.174 46.5757 118.306 45.9729 118.187 45.3172C117.923 43.9131 116.503 42.7275 115.09 42.7275Z" fill="#E58333"/>
<path d="M75.5216 86.3162H68.6C68.2961 86.3162 68.0452 86.0645 68.0452 85.7598C68.0452 85.4552 68.2961 85.2035 68.6 85.2035H74.8545L74.1214 81.2824C74.0884 81.1235 74.1346 80.9513 74.2403 80.8254C74.346 80.6996 74.5045 80.6267 74.6696 80.6267H81.0959C81.3997 80.6267 81.6507 80.8784 81.6507 81.1831C81.6507 81.4878 81.3997 81.7394 81.0959 81.7394H75.3367L76.0698 85.6605C76.1028 85.8194 76.0566 85.9917 75.9509 86.1175C75.8452 86.2433 75.6867 86.3162 75.5216 86.3162Z" fill="#E58333"/>
<path d="M68.8508 88.7998C67.1468 88.7998 65.5221 87.442 65.2117 85.7596C64.9012 84.0971 66.0174 82.7195 67.7148 82.7195C69.399 82.7195 71.0435 84.0971 71.3605 85.7596C71.671 87.442 70.535 88.7998 68.8508 88.7998Z" fill="white"/>
<path d="M68.8507 89.3561C66.8694 89.3561 65.0267 87.8195 64.6634 85.8589C64.4785 84.8787 64.703 83.9514 65.2842 83.2493C65.8655 82.5472 66.7241 82.1631 67.7081 82.1631C69.6565 82.1631 71.5388 83.7328 71.8955 85.6602C72.0804 86.6405 71.8558 87.5678 71.2746 88.2699C70.7 88.9719 69.8348 89.3561 68.8507 89.3561ZM67.7147 83.2758C67.0675 83.2758 66.5061 83.5209 66.1428 83.9647C65.773 84.415 65.6343 85.0178 65.7532 85.6602C66.0174 87.0909 67.4109 88.25 68.8507 88.25C69.498 88.25 70.0594 88.0049 70.4226 87.5611C70.7925 87.1174 70.9312 86.5147 70.8123 85.8656C70.5481 84.4614 69.1347 83.2758 67.7147 83.2758Z" fill="#E58333"/>
<path d="M133.325 65.1944H126.397C126.133 65.1944 125.901 65.0023 125.849 64.7374L125.076 60.611H119.105C118.802 60.611 118.551 60.3593 118.551 60.0547C118.551 59.75 118.802 59.4983 119.105 59.4983H125.532C125.796 59.4983 126.027 59.6904 126.08 59.9553L126.853 64.0817H133.312C133.616 64.0817 133.867 64.3334 133.867 64.638C133.88 64.9427 133.629 65.1944 133.325 65.1944Z" fill="#E58333"/>
<path d="M134.204 67.6782C135.908 67.6782 137.024 66.3204 136.707 64.638C136.396 62.9756 134.765 61.5979 133.068 61.5979C131.383 61.5979 130.247 62.9756 130.564 64.638C130.875 66.3204 132.526 67.6782 134.204 67.6782Z" fill="white"/>
<path d="M134.204 68.2343C132.255 68.2343 130.373 66.6645 130.016 64.7371C129.831 63.7635 130.056 62.8362 130.644 62.1275C131.225 61.4254 132.09 61.0347 133.068 61.0347C135.016 61.0347 136.898 62.6044 137.255 64.5318C137.44 65.5121 137.222 66.446 136.634 67.1481C136.059 67.8501 135.194 68.2343 134.204 68.2343ZM133.068 62.1474C132.427 62.1474 131.866 62.3925 131.496 62.8362C131.126 63.2866 130.987 63.8893 131.106 64.5318C131.37 65.936 132.784 67.1216 134.204 67.1216C134.857 67.1216 135.419 66.8765 135.782 66.4394C136.152 65.9956 136.284 65.3929 136.165 64.7371C135.901 63.333 134.488 62.1474 133.068 62.1474Z" fill="#E58333"/>
<path d="M84.7547 103.345V130.958C84.7547 136.575 82.0864 141.946 77.6217 145.337L60.7799 158.107C60.6346 158.22 60.4497 158.279 60.2648 158.279C60.0865 158.279 59.9015 158.22 59.7496 158.107L42.9145 145.337C38.4498 141.946 35.7815 136.575 35.7815 130.958V103.345C35.7815 103.04 35.94 102.762 36.2042 102.61C36.4684 102.451 36.7854 102.444 37.043 102.597C47.0423 108.134 57.6824 99.7088 59.7166 97.9735C60.0336 97.7019 60.5025 97.6953 60.8196 97.9735C62.8538 99.7154 73.4938 108.14 83.4932 102.597C83.6187 102.517 83.7574 102.484 83.9027 102.484C84.048 102.484 84.1999 102.524 84.332 102.603C84.5961 102.769 84.7547 103.04 84.7547 103.345Z" fill="url(#paint7_linear_1131_39620)"/>
<path d="M37.043 102.597C39.0706 103.723 41.118 104.266 43.1126 104.412C41.2303 104.558 39.2886 104.392 37.327 103.756L36.5873 102.491C36.7392 102.484 36.8977 102.518 37.043 102.597Z" fill="url(#paint8_linear_1131_39620)"/>
<path d="M73.7184 124.845C73.7184 131.905 68.012 137.648 60.9516 137.648C53.9111 137.648 48.1849 131.912 48.1849 124.845C48.1849 117.778 53.9045 112.042 60.9516 112.042C68.012 112.042 73.7184 117.778 73.7184 124.845Z" fill="#F57A00"/>
<path d="M63.2369 127.057L64.3861 131.256C64.4918 131.654 64.2012 132.038 63.7917 132.038H59.3666C58.9571 132.038 58.6599 131.647 58.7722 131.256L59.9346 126.991C57.9268 126.176 56.6323 123.971 57.2069 121.586C57.6098 119.911 58.9835 118.553 60.6677 118.202C63.653 117.572 66.2816 119.838 66.2816 122.719C66.2882 124.712 65.0135 126.421 63.2369 127.057Z" fill="white"/>
<path opacity="0.6" d="M63.8644 118.652C63.1643 118.46 62.4114 118.427 61.6254 118.586C59.9478 118.95 58.5741 120.301 58.1712 121.97C57.5966 124.355 58.8911 126.567 60.8923 127.375L59.7299 131.64C59.6969 131.773 59.6969 131.912 59.7497 132.038H59.3666C58.9505 132.038 58.6599 131.654 58.7722 131.256L59.928 126.991C57.9268 126.176 56.6323 123.964 57.2069 121.586C57.6098 119.917 58.9836 118.559 60.6611 118.202C61.8434 117.963 62.9463 118.155 63.8644 118.652Z" fill="#CFCDF1"/>
<path d="M188.064 43.0855V66.5853C188.064 69.1684 185.99 71.2481 183.414 71.2547V75.7189C183.414 76.8581 182.093 77.4807 181.222 76.7588L174.551 71.2547H156.018C153.449 71.2547 151.369 69.1684 151.369 66.5853V43.0789C151.369 40.5024 153.449 38.416 156.018 38.416H183.401C185.977 38.416 188.064 40.5024 188.064 43.0855Z" fill="url(#paint9_linear_1131_39620)"/>
<path d="M180.733 54.6301C180.733 60.7633 175.779 65.7375 169.657 65.7375C163.548 65.7375 158.594 60.7699 158.594 54.6301C158.594 48.5034 163.548 43.5359 169.657 43.5359C175.779 43.5359 180.733 48.5034 180.733 54.6301Z" fill="#F57A00"/>
<path d="M168.475 58.0277C168.363 58.041 168.244 58.0476 168.131 58.0344C167.742 57.9946 167.385 57.8025 167.141 57.5045L164.935 54.7757C164.42 54.1464 164.512 53.2192 165.14 52.7025C165.767 52.1859 166.692 52.2786 167.207 52.9079L168.481 54.4975L172.339 51.3116C172.966 50.795 173.891 50.8877 174.406 51.5103C174.921 52.1396 174.828 53.0668 174.208 53.5835L169.215 57.7032C168.997 57.882 168.739 57.9946 168.475 58.0277Z" fill="white"/>
<defs>
<linearGradient id="paint0_linear_1131_39620" x1="7.45044" y1="59.1862" x2="177.679" y2="59.1862" gradientUnits="userSpaceOnUse">
<stop stop-color="#F57A00"/>
<stop offset="1" stop-color="#7103A4"/>
</linearGradient>
<linearGradient id="paint1_linear_1131_39620" x1="51.198" y1="205.101" x2="10.53" y2="194.454" gradientUnits="userSpaceOnUse">
<stop stop-color="#7103A4"/>
<stop offset="1" stop-color="#3C0754"/>
</linearGradient>
<linearGradient id="paint2_linear_1131_39620" x1="54.4738" y1="110.077" x2="45.043" y2="96.9309" gradientUnits="userSpaceOnUse">
<stop stop-color="#7103A4"/>
<stop offset="1" stop-color="#3C0754"/>
</linearGradient>
<linearGradient id="paint3_linear_1131_39620" x1="210.561" y1="146.308" x2="278.808" y2="129.475" gradientUnits="userSpaceOnUse">
<stop offset="1e-07" stop-color="#F6A285"/>
<stop offset="1" stop-color="#FC6B58"/>
</linearGradient>
<linearGradient id="paint4_linear_1131_39620" x1="200.321" y1="59.7451" x2="256.95" y2="59.3894" gradientUnits="userSpaceOnUse">
<stop offset="1e-07" stop-color="#FDE0BB"/>
<stop offset="1" stop-color="#FC6B58"/>
</linearGradient>
<linearGradient id="paint5_linear_1131_39620" x1="120.542" y1="125.619" x2="215.797" y2="125.619" gradientUnits="userSpaceOnUse">
<stop stop-color="#F57A00"/>
<stop offset="1" stop-color="#7103A4"/>
</linearGradient>
<linearGradient id="paint6_linear_1131_39620" x1="120.549" y1="106.769" x2="198.288" y2="106.769" gradientUnits="userSpaceOnUse">
<stop stop-color="#F57A00"/>
<stop offset="1" stop-color="#7103A4"/>
</linearGradient>
<linearGradient id="paint7_linear_1131_39620" x1="35.7815" y1="128.023" x2="84.7547" y2="128.023" gradientUnits="userSpaceOnUse">
<stop stop-color="#F57A00"/>
<stop offset="1" stop-color="#7103A4"/>
</linearGradient>
<linearGradient id="paint8_linear_1131_39620" x1="36.5873" y1="103.476" x2="43.1126" y2="103.476" gradientUnits="userSpaceOnUse">
<stop stop-color="#F57A00"/>
<stop offset="1" stop-color="#7103A4"/>
</linearGradient>
<linearGradient id="paint9_linear_1131_39620" x1="151.369" y1="57.7418" x2="188.064" y2="57.7418" gradientUnits="userSpaceOnUse">
<stop stop-color="#F57A00"/>
<stop offset="1" stop-color="#7103A4"/>
</linearGradient>
</defs>
</svg>
