<svg width="269" height="290" viewBox="0 0 269 290" fill="none" xmlns="http://www.w3.org/2000/svg">
<path d="M65.3138 121.309L66.1928 115.859C66.5444 113.574 68.4783 111.903 70.8518 111.903H134.935C137.308 111.903 139.506 113.574 140.209 115.859L141.967 121.309C142.671 123.595 144.868 125.265 147.242 125.265C150.055 125.265 152.516 127.55 152.78 130.451L159.988 225.126C160.164 227.938 158.054 230.312 155.241 230.312H21.1852C18.3723 230.312 15.9109 228.026 15.6472 225.126L8.43895 130.451C8.26313 127.638 10.3729 125.265 13.1858 125.265H60.6548C63.0282 125.265 64.9621 123.683 65.3138 121.309Z" fill="#F57A00"/>
<path d="M25.7562 229.785H155.065C158.23 229.785 160.955 227.148 161.131 223.983L165.262 133.177C165.438 129.924 162.977 127.375 159.724 127.375H30.4152C27.2506 127.375 24.5255 130.012 24.3497 133.177L20.2181 223.983C20.1302 227.148 22.5916 229.785 25.7562 229.785Z" fill="url(#paint0_linear_1131_39379)"/>
<path opacity="0.5" d="M49.5786 4.92259V77.1809C49.5786 78.7632 50.8092 79.9938 52.3915 79.9938H116.211C117.793 79.9938 119.024 78.7632 119.024 77.1809V4.92259C119.024 3.3403 117.793 2.10962 116.211 2.10962H52.3915C50.8092 2.10962 49.5786 3.3403 49.5786 4.92259Z" fill="url(#paint1_linear_1131_39379)"/>
<g opacity="0.5">
<path d="M58.1933 1.67041V80.4337" stroke="white" stroke-width="0.4019" stroke-miterlimit="10" stroke-linecap="round" stroke-linejoin="round"/>
<path d="M71.2033 1.67065V80.4339" stroke="white" stroke-width="0.4019" stroke-miterlimit="10" stroke-linecap="round" stroke-linejoin="round"/>
<path d="M84.2133 1.67065V80.4339" stroke="white" stroke-width="0.4019" stroke-miterlimit="10" stroke-linecap="round" stroke-linejoin="round"/>
<path d="M97.3112 1.67065V80.4339" stroke="white" stroke-width="0.4019" stroke-miterlimit="10" stroke-linecap="round" stroke-linejoin="round"/>
<path d="M110.321 1.67065V80.4339" stroke="white" stroke-width="0.4019" stroke-miterlimit="10" stroke-linecap="round" stroke-linejoin="round"/>
<path d="M120.079 15.0322H48.4357" stroke="white" stroke-width="0.4019" stroke-miterlimit="10" stroke-linecap="round" stroke-linejoin="round"/>
<path d="M120.079 28.0422H48.4356" stroke="white" stroke-width="0.4019" stroke-miterlimit="10" stroke-linecap="round" stroke-linejoin="round"/>
<path d="M120.079 41.0525H48.4356" stroke="white" stroke-width="0.4019" stroke-miterlimit="10" stroke-linecap="round" stroke-linejoin="round"/>
<path d="M120.079 54.0623H48.4356" stroke="white" stroke-width="0.4019" stroke-miterlimit="10" stroke-linecap="round" stroke-linejoin="round"/>
<path d="M120.079 67.1602H48.4356" stroke="white" stroke-width="0.4019" stroke-miterlimit="10" stroke-linecap="round" stroke-linejoin="round"/>
</g>
<path opacity="0.5" d="M46.0623 4.9227V77.181C46.0623 79.906 48.2599 82.1037 50.985 82.1037H116.211C118.936 82.1037 121.133 79.906 121.133 77.181V4.9227C121.133 2.19764 118.936 0 116.211 0H50.985C48.2599 0 46.0623 2.19764 46.0623 4.9227ZM52.3914 79.9939C50.8091 79.9939 49.5785 78.7633 49.5785 77.181V4.9227C49.5785 3.34041 50.8091 2.10973 52.3914 2.10973H116.211C117.793 2.10973 119.024 3.34041 119.024 4.9227V77.181C119.024 78.7633 117.793 79.9939 116.211 79.9939H52.3914Z" fill="url(#paint2_linear_1131_39379)"/>
<path opacity="0.5" d="M47.4689 4.9227V77.181C47.4689 79.906 49.6665 82.1037 52.3916 82.1037H117.617C120.342 82.1037 122.54 79.906 122.54 77.181V4.9227C122.54 2.19764 120.342 0 117.617 0H52.3916C49.6665 0 47.4689 2.19764 47.4689 4.9227ZM49.5786 4.9227C49.5786 3.34041 50.8093 2.10973 52.3916 2.10973H116.211C117.793 2.10973 119.024 3.34041 119.024 4.9227V77.181C119.024 78.7633 117.793 79.9939 116.211 79.9939H52.3916C50.8093 79.9939 49.5786 78.7633 49.5786 77.181V4.9227Z" fill="url(#paint3_linear_1131_39379)"/>
<path opacity="0.5" d="M116.123 79.9938H117.529C119.112 79.9938 120.342 78.7632 120.342 77.1809V4.92259C120.342 3.3403 119.112 2.10962 117.529 2.10962H116.123C117.705 2.10962 118.936 3.3403 118.936 4.92259V77.1809C118.936 78.7632 117.705 79.9938 116.123 79.9938Z" fill="url(#paint4_linear_1131_39379)"/>
<path d="M103.64 35.4257C101.706 39.821 99.6845 46.6776 99.6845 46.6776C99.1571 54.0617 98.366 57.8416 96.2562 61.4457C95.0255 63.4675 86.4987 67.3354 78.8509 65.1377C73.1371 63.4675 67.9507 56.3472 66.8958 53.6221C64.2586 47.205 57.8416 40.4363 57.8416 40.4363C57.8416 40.4363 59.0722 36.8322 62.1489 38.5903C65.3135 40.3484 67.7749 45.4469 69.4451 45.7985C69.7967 45.8865 70.1483 45.8865 70.412 45.8865C70.412 45.8865 70.412 45.8865 70.4999 45.8865C71.7306 45.8865 72.9613 45.5348 73.5766 44.6558C73.6645 44.6558 73.6645 44.5679 73.7524 44.48C76.038 41.0517 75.5984 31.9095 75.071 27.8658C74.2799 22.2399 73.5766 14.4163 77.1807 15.3833C80.7849 16.2623 77.9719 19.7785 82.1034 31.9095H83.422C83.7736 32.7885 85.1801 24.0859 84.8285 16.0865C84.5648 10.5485 88.4326 12.2187 89.3996 13.801C90.3666 15.3833 89.8391 21.0092 90.0149 24.965C90.1028 27.6021 90.1907 30.3272 90.2786 31.9095L91.8609 32.6127C96.1683 22.5036 93.8828 18.8116 97.0474 18.2841C100.124 17.7567 99.9482 25.844 98.6297 29.0965C98.0143 30.503 97.399 36.041 97.399 36.041L98.278 36.4806C98.278 36.4806 99.6845 33.7555 100.827 30.9425C101.882 28.4812 103.552 25.4924 104.695 25.5803C107.244 25.7561 104.783 32.7006 103.64 35.4257Z" stroke="white" stroke-width="2.0097" stroke-miterlimit="10" stroke-linecap="round" stroke-linejoin="round"/>
<path opacity="0.5" d="M177.569 53.9736V126.232C177.569 127.814 178.8 129.045 180.382 129.045H244.201C245.784 129.045 247.014 127.814 247.014 126.232V53.9736C247.014 52.3913 245.784 51.1606 244.201 51.1606H180.382C178.8 51.1606 177.569 52.3913 177.569 53.9736Z" fill="url(#paint5_linear_1131_39379)"/>
<g opacity="0.5">
<path d="M186.184 50.7212V129.484" stroke="white" stroke-width="0.4019" stroke-miterlimit="10" stroke-linecap="round" stroke-linejoin="round"/>
<path d="M199.282 50.7212V129.484" stroke="white" stroke-width="0.4019" stroke-miterlimit="10" stroke-linecap="round" stroke-linejoin="round"/>
<path d="M212.292 50.7212V129.484" stroke="white" stroke-width="0.4019" stroke-miterlimit="10" stroke-linecap="round" stroke-linejoin="round"/>
<path d="M225.302 50.7212V129.484" stroke="white" stroke-width="0.4019" stroke-miterlimit="10" stroke-linecap="round" stroke-linejoin="round"/>
<path d="M238.312 50.7212V129.484" stroke="white" stroke-width="0.4019" stroke-miterlimit="10" stroke-linecap="round" stroke-linejoin="round"/>
<path d="M248.069 63.9949H176.426" stroke="white" stroke-width="0.4019" stroke-miterlimit="10" stroke-linecap="round" stroke-linejoin="round"/>
<path d="M248.069 77.0925H176.426" stroke="white" stroke-width="0.4019" stroke-miterlimit="10" stroke-linecap="round" stroke-linejoin="round"/>
<path d="M248.069 90.1028H176.426" stroke="white" stroke-width="0.4019" stroke-miterlimit="10" stroke-linecap="round" stroke-linejoin="round"/>
<path d="M248.069 103.113H176.426" stroke="white" stroke-width="0.4019" stroke-miterlimit="10" stroke-linecap="round" stroke-linejoin="round"/>
<path d="M248.069 116.123H176.426" stroke="white" stroke-width="0.4019" stroke-miterlimit="10" stroke-linecap="round" stroke-linejoin="round"/>
</g>
<path opacity="0.5" d="M174.053 53.974V126.232C174.053 128.957 176.25 131.155 178.975 131.155H244.201C246.926 131.155 249.124 128.957 249.124 126.232V53.974C249.124 51.2489 246.926 49.0513 244.201 49.0513H178.975C176.25 49.0513 174.053 51.2489 174.053 53.974ZM180.382 129.045C178.8 129.045 177.569 127.815 177.569 126.232V53.974C177.569 52.3917 178.8 51.161 180.382 51.161H244.201C245.784 51.161 247.014 52.3917 247.014 53.974V126.232C247.014 127.815 245.784 129.045 244.201 129.045H180.382Z" fill="url(#paint6_linear_1131_39379)"/>
<path opacity="0.5" d="M175.459 53.9737V126.232C175.459 128.957 177.657 131.155 180.382 131.155H245.608C248.333 131.155 250.531 128.957 250.531 126.232V53.9737C250.531 51.2487 248.333 49.051 245.608 49.051H180.382C177.657 49.051 175.459 51.2487 175.459 53.9737ZM177.569 53.9737C177.569 52.3914 178.8 51.1608 180.382 51.1608H244.201C245.784 51.1608 247.014 52.3914 247.014 53.9737V126.232C247.014 127.814 245.784 129.045 244.201 129.045H180.382C178.8 129.045 177.569 127.814 177.569 126.232V53.9737Z" fill="url(#paint7_linear_1131_39379)" fill-opacity="0.46"/>
<path opacity="0.5" d="M244.201 129.045H245.608C247.19 129.045 248.421 127.814 248.421 126.232V53.9736C248.421 52.3913 247.19 51.1606 245.608 51.1606H244.201C245.784 51.1606 247.014 52.3913 247.014 53.9736V126.232C246.926 127.814 245.696 129.045 244.201 129.045Z" fill="url(#paint8_linear_1131_39379)"/>
<path d="M237.432 93.2675C237.432 93.2675 226.181 106.102 212.204 106.102C198.227 106.102 186.975 93.2675 186.975 93.2675C186.975 93.2675 198.227 80.4333 212.204 80.4333C226.181 80.4333 237.432 93.2675 237.432 93.2675Z" stroke="white" stroke-width="2.0097" stroke-miterlimit="10" stroke-linecap="round" stroke-linejoin="round"/>
<path d="M212.291 104.256C218.36 104.256 223.28 99.3361 223.28 93.2675C223.28 87.1989 218.36 82.2793 212.291 82.2793C206.223 82.2793 201.303 87.1989 201.303 93.2675C201.303 99.3361 206.223 104.256 212.291 104.256Z" stroke="white" stroke-width="2.0097" stroke-miterlimit="10" stroke-linecap="round" stroke-linejoin="round"/>
<path d="M212.291 98.3657C215.107 98.3657 217.39 96.083 217.39 93.2672C217.39 90.4514 215.107 88.1687 212.291 88.1687C209.475 88.1687 207.193 90.4514 207.193 93.2672C207.193 96.083 209.475 98.3657 212.291 98.3657Z" fill="white"/>
<path d="M219.324 87.202C219.324 88.4327 218.357 89.3997 217.126 89.3997C215.895 89.3997 214.929 88.4327 214.929 87.202C214.929 85.9714 215.895 85.0044 217.126 85.0044C218.357 85.0044 219.324 85.9714 219.324 87.202Z" fill="white"/>
<path d="M187.063 78.4115C190.667 75.7744 194.71 73.8405 199.018 72.434C203.237 71.0275 207.808 70.2363 212.291 70.2363C216.863 70.3242 221.346 71.0275 225.565 72.434C229.785 73.8405 233.916 75.7744 237.52 78.4115C233.477 76.5655 229.345 75.0711 225.126 74.0163C224.071 73.7525 223.016 73.5767 221.961 73.313C220.906 73.1372 219.851 72.8735 218.797 72.7856C216.687 72.434 214.489 72.3461 212.379 72.3461C210.27 72.3461 208.072 72.434 205.962 72.7856C204.907 72.8735 203.853 73.1372 202.798 73.313C201.743 73.5767 200.688 73.7525 199.633 74.0163C195.238 75.0711 191.106 76.5655 187.063 78.4115Z" fill="white"/>
<path opacity="0.5" d="M161.834 144.956C161.834 144.956 158.318 219.939 113.925 232.598C69.5332 219.939 66.017 144.956 66.017 144.956L113.925 124.738L161.834 144.956Z" fill="#150A24"/>
<path opacity="0.5" d="M157.878 150.934C157.878 150.934 154.889 215.368 116.65 226.269C78.4995 215.368 75.4229 150.934 75.4229 150.934L116.65 133.528L157.878 150.934Z" fill="url(#paint9_linear_1131_39379)"/>
<path opacity="0.5" d="M157.878 150.934C157.878 150.934 154.889 215.368 116.65 226.269C126.496 172.822 116.65 133.528 116.65 133.528L157.878 150.934Z" fill="url(#paint10_linear_1131_39379)"/>
<path d="M113.837 124.738L116.65 131.419L74.1042 149.439L65.929 144.956L113.837 124.738Z" fill="#72069E"/>
<path d="M161.834 144.956C161.834 144.956 158.318 219.939 113.925 232.598L116.738 228.29C116.738 228.29 154.538 220.994 159.373 149.351L161.834 144.956Z" fill="#72069E"/>
<path d="M116.65 228.29L113.838 232.598C69.4453 219.939 65.929 144.956 65.929 144.956L74.1043 149.439C74.1043 149.439 74.8954 212.467 116.65 228.29Z" fill="#72069E"/>
<path d="M116.65 131.419L159.373 149.439L161.834 144.956L113.837 124.738L116.65 131.419Z" fill="#72069E"/>
<path opacity="0.5" d="M123.595 144.781C134.056 144.781 142.583 153.307 142.583 163.768V165.438H135.638V163.768C135.638 157.087 130.188 151.637 123.507 151.637C116.826 151.637 111.376 157.087 111.376 163.768V165.438H104.432V163.768C104.52 153.307 113.046 144.781 123.595 144.781Z" fill="url(#paint11_linear_1131_39379)"/>
<path opacity="0.5" d="M99.5969 171.152V201.743C99.5969 203.061 100.652 204.116 101.97 204.116H145.044C146.363 204.116 147.417 203.061 147.417 201.743V171.152C147.417 169.833 146.363 168.778 145.044 168.778H101.97C100.74 168.778 99.5969 169.833 99.5969 171.152ZM118.409 183.019C118.409 180.206 120.694 177.92 123.507 177.92C126.32 177.92 128.606 180.206 128.606 183.019C128.606 185.217 127.199 187.151 125.177 187.854L125.968 195.414H121.046L121.837 187.854C119.903 187.151 118.409 185.305 118.409 183.019Z" fill="url(#paint12_linear_1131_39379)"/>
<path d="M125.88 144.781C136.341 144.781 144.868 153.307 144.868 163.768V165.438H137.923V163.768C137.923 157.087 132.473 151.637 125.793 151.637C119.112 151.637 113.662 157.087 113.662 163.768V165.438H106.717V163.768C106.805 153.307 115.332 144.781 125.88 144.781Z" fill="url(#paint13_linear_1131_39379)"/>
<path d="M101.97 171.152V201.743C101.97 203.061 103.025 204.116 104.344 204.116H147.417C148.736 204.116 149.791 203.061 149.791 201.743V171.152C149.791 169.833 148.736 168.778 147.417 168.778H104.344C103.025 168.778 101.97 169.833 101.97 171.152ZM120.782 183.019C120.782 180.206 123.068 177.92 125.881 177.92C128.694 177.92 130.979 180.206 130.979 183.019C130.979 185.217 129.573 187.151 127.551 187.854L128.342 195.414H123.331L124.122 187.854C122.189 187.151 120.782 185.305 120.782 183.019Z" fill="#F57A00"/>
<path opacity="0.5" d="M195.941 212.907V285.165C195.941 286.748 197.172 287.978 198.754 287.978H262.573C264.156 287.978 265.386 286.748 265.386 285.165V212.907C265.386 211.325 264.156 210.094 262.573 210.094H198.754C197.172 210.094 195.941 211.325 195.941 212.907Z" fill="url(#paint14_linear_1131_39379)"/>
<g opacity="0.5">
<path d="M204.556 209.655V288.418" stroke="white" stroke-width="0.4019" stroke-miterlimit="10" stroke-linecap="round" stroke-linejoin="round"/>
<path d="M217.566 209.655V288.418" stroke="white" stroke-width="0.4019" stroke-miterlimit="10" stroke-linecap="round" stroke-linejoin="round"/>
<path d="M230.664 209.655V288.418" stroke="white" stroke-width="0.4019" stroke-miterlimit="10" stroke-linecap="round" stroke-linejoin="round"/>
<path d="M243.674 209.655V288.418" stroke="white" stroke-width="0.4019" stroke-miterlimit="10" stroke-linecap="round" stroke-linejoin="round"/>
<path d="M256.684 209.655V288.418" stroke="white" stroke-width="0.4019" stroke-miterlimit="10" stroke-linecap="round" stroke-linejoin="round"/>
<path d="M266.441 222.928H194.798" stroke="white" stroke-width="0.4019" stroke-miterlimit="10" stroke-linecap="round" stroke-linejoin="round"/>
<path d="M266.441 235.938H194.798" stroke="white" stroke-width="0.4019" stroke-miterlimit="10" stroke-linecap="round" stroke-linejoin="round"/>
<path d="M266.441 249.037H194.798" stroke="white" stroke-width="0.4019" stroke-miterlimit="10" stroke-linecap="round" stroke-linejoin="round"/>
<path d="M266.441 262.046H194.798" stroke="white" stroke-width="0.4019" stroke-miterlimit="10" stroke-linecap="round" stroke-linejoin="round"/>
<path d="M266.441 275.056H194.798" stroke="white" stroke-width="0.4019" stroke-miterlimit="10" stroke-linecap="round" stroke-linejoin="round"/>
</g>
<path d="M208.16 246.751C208.16 262.837 218.181 279.627 230.576 279.627C242.97 279.627 252.992 262.837 252.992 246.751C252.992 230.664 242.97 221.346 230.576 221.346C218.269 221.258 208.16 230.576 208.16 246.751Z" stroke="white" stroke-width="2.0097" stroke-miterlimit="10" stroke-linecap="round" stroke-linejoin="round"/>
<path d="M225.125 248.948C225.125 250.443 223.367 251.586 221.258 251.586C219.148 251.586 217.39 250.443 217.39 248.948C217.39 247.454 219.148 246.311 221.258 246.311C223.367 246.311 225.125 247.454 225.125 248.948Z" stroke="white" stroke-width="2.0097" stroke-miterlimit="10" stroke-linecap="round" stroke-linejoin="round"/>
<path d="M215.983 242.619C215.983 242.619 221.785 239.806 226.971 242.707" stroke="white" stroke-width="2.0097" stroke-miterlimit="10" stroke-linecap="round" stroke-linejoin="round"/>
<path d="M233.037 260.728C233.037 260.728 231.982 262.31 230.576 262.31C229.257 262.31 228.114 260.728 228.114 260.728" stroke="white" stroke-width="2.0097" stroke-miterlimit="10" stroke-linecap="round" stroke-linejoin="round"/>
<path d="M237.081 268.024C237.081 268.024 234.18 268.551 230.576 268.551C226.972 268.551 224.071 268.024 224.071 268.024" stroke="white" stroke-width="2.0097" stroke-miterlimit="10" stroke-linecap="round" stroke-linejoin="round"/>
<path d="M236.114 248.948C236.114 250.443 237.872 251.586 239.982 251.586C242.091 251.586 243.849 250.443 243.849 248.948C243.849 247.454 242.091 246.311 239.982 246.311C237.872 246.311 236.114 247.454 236.114 248.948Z" stroke="white" stroke-width="2.0097" stroke-miterlimit="10" stroke-linecap="round" stroke-linejoin="round"/>
<path d="M245.256 242.619C245.256 242.619 239.454 239.806 234.268 242.707" stroke="white" stroke-width="2.0097" stroke-miterlimit="10" stroke-linecap="round" stroke-linejoin="round"/>
<path d="M230.664 224.071V225.126" stroke="white" stroke-width="1.4068" stroke-linecap="round" stroke-linejoin="round"/>
<path d="M230.663 228.818V243.849" stroke="white" stroke-width="1.4068" stroke-linecap="round" stroke-linejoin="round" stroke-dasharray="2.13 2.13"/>
<path d="M230.663 245.696V246.75" stroke="white" stroke-width="1.4068" stroke-linecap="round" stroke-linejoin="round"/>
<path d="M227.587 248.948H228.642" stroke="white" stroke-width="1.4068" stroke-linecap="round" stroke-linejoin="round"/>
<path d="M232.598 248.948H233.652" stroke="white" stroke-width="1.4068" stroke-linecap="round" stroke-linejoin="round"/>
<path d="M209.478 249.124H210.533" stroke="white" stroke-width="1.4068" stroke-linecap="round" stroke-linejoin="round"/>
<path d="M214.577 249.124H215.632" stroke="white" stroke-width="1.4068" stroke-linecap="round" stroke-linejoin="round"/>
<path d="M245.607 249.124H246.662" stroke="white" stroke-width="1.4068" stroke-linecap="round" stroke-linejoin="round"/>
<path d="M250.706 249.123H251.761" stroke="white" stroke-width="1.4068" stroke-linecap="round" stroke-linejoin="round"/>
<path d="M230.664 251.146V252.288" stroke="white" stroke-width="1.4068" stroke-linecap="round" stroke-linejoin="round"/>
<path d="M230.663 256.683V274.528" stroke="white" stroke-width="1.4068" stroke-linecap="round" stroke-linejoin="round" stroke-dasharray="2.53 2.53"/>
<path d="M230.663 276.726V277.781" stroke="white" stroke-width="1.4068" stroke-linecap="round" stroke-linejoin="round"/>
<path opacity="0.5" d="M192.425 212.819V285.077C192.425 287.803 194.622 290 197.347 290H262.573C265.298 290 267.496 287.803 267.496 285.077V212.819C267.496 210.094 265.298 207.896 262.573 207.896H197.347C194.622 207.984 192.425 210.182 192.425 212.819ZM198.754 287.978C197.172 287.978 195.941 286.748 195.941 285.165V212.907C195.941 211.325 197.172 210.094 198.754 210.094H262.573C264.156 210.094 265.386 211.325 265.386 212.907V285.165C265.386 286.748 264.156 287.978 262.573 287.978H198.754Z" fill="url(#paint15_linear_1131_39379)"/>
<path opacity="0.5" d="M193.831 212.819V285.077C193.831 287.802 196.029 290 198.754 290H263.98C266.705 290 268.902 287.802 268.902 285.077V212.819C268.902 210.094 266.705 207.896 263.98 207.896H198.754C196.029 207.984 193.831 210.182 193.831 212.819ZM195.941 212.819C195.941 211.237 197.172 210.006 198.754 210.006H262.573C264.156 210.006 265.386 211.237 265.386 212.819V285.077C265.386 286.659 264.156 287.89 262.573 287.89H198.754C197.172 287.89 195.941 286.659 195.941 285.077V212.819Z" fill="url(#paint16_linear_1131_39379)"/>
<path opacity="0.5" d="M262.485 287.978H263.892C265.474 287.978 266.705 286.748 266.705 285.165V212.907C266.705 211.325 265.474 210.094 263.892 210.094H262.485C264.068 210.094 265.298 211.325 265.298 212.907V285.165C265.298 286.66 264.068 287.978 262.485 287.978Z" fill="url(#paint17_linear_1131_39379)"/>
<path d="M215.808 137.045C215.808 135.111 214.225 133.529 212.292 133.529C210.358 133.529 208.775 135.111 208.775 137.045C208.775 138.715 209.918 140.034 211.412 140.473V177.042H163.856C163.504 175.548 162.098 174.405 160.427 174.405C158.493 174.405 156.911 175.987 156.911 177.921C156.911 179.855 158.493 181.437 160.427 181.437C162.098 181.437 163.416 180.294 163.856 178.8H212.292C212.819 178.8 213.171 178.448 213.171 177.921V140.473C214.665 140.034 215.808 138.715 215.808 137.045ZM160.427 179.679C159.46 179.679 158.669 178.888 158.669 177.921C158.669 176.954 159.46 176.163 160.427 176.163C161.394 176.163 162.185 176.954 162.185 177.921C162.185 178.888 161.394 179.679 160.427 179.679ZM212.292 138.803C211.325 138.803 210.533 138.012 210.533 137.045C210.533 136.078 211.325 135.287 212.292 135.287C213.259 135.287 214.05 136.078 214.05 137.045C214.05 138.012 213.259 138.803 212.292 138.803Z" fill="url(#paint18_linear_1131_39379)"/>
<path d="M65.9291 174.404C64.2589 174.404 62.9403 175.547 62.5008 177.042H1.75811V41.9309H38.151C38.5026 43.4253 39.9091 44.5681 41.5793 44.5681C43.5132 44.5681 45.0955 42.9858 45.0955 41.0519C45.0955 39.1179 43.5132 37.5356 41.5793 37.5356C39.9091 37.5356 38.5905 38.6784 38.151 40.1728H0.879054C0.351622 40.1728 0 40.5244 0 41.0519V177.921C0 178.448 0.351622 178.8 0.879054 178.8H62.5008C62.8524 180.294 64.2589 181.437 65.9291 181.437C67.863 181.437 69.4453 179.855 69.4453 177.921C69.4453 175.987 67.863 174.404 65.9291 174.404ZM41.5793 39.2938C42.5462 39.2938 43.3374 40.0849 43.3374 41.0519C43.3374 42.0188 42.5462 42.81 41.5793 42.81C40.6123 42.81 39.8212 42.0188 39.8212 41.0519C39.8212 40.0849 40.6123 39.2938 41.5793 39.2938ZM65.9291 179.679C64.9621 179.679 64.171 178.888 64.171 177.921C64.171 176.954 64.9621 176.163 65.9291 176.163C66.896 176.163 67.6872 176.954 67.6872 177.921C67.6872 178.888 66.896 179.679 65.9291 179.679Z" fill="url(#paint19_linear_1131_39379)"/>
<path d="M186.184 271.54C184.513 271.54 183.195 272.683 182.755 274.177H114.717V244.817C116.211 244.465 117.354 243.058 117.354 241.388C117.354 239.454 115.771 237.872 113.838 237.872C111.904 237.872 110.321 239.454 110.321 241.388C110.321 243.058 111.464 244.377 112.958 244.817V275.056C112.958 275.583 113.31 275.935 113.838 275.935H182.755C183.107 277.43 184.513 278.572 186.184 278.572C188.118 278.572 189.7 276.99 189.7 275.056C189.7 273.122 188.118 271.54 186.184 271.54ZM112.079 241.476C112.079 240.509 112.871 239.718 113.838 239.718C114.804 239.718 115.596 240.509 115.596 241.476C115.596 242.443 114.804 243.234 113.838 243.234C112.871 243.234 112.079 242.443 112.079 241.476ZM186.184 276.814C185.305 276.814 184.601 276.199 184.426 275.408C184.513 275.32 184.513 275.144 184.513 275.056C184.513 274.968 184.513 274.792 184.426 274.704C184.601 273.913 185.305 273.298 186.184 273.298C187.151 273.298 187.942 274.089 187.942 275.056C187.942 276.023 187.151 276.814 186.184 276.814Z" fill="url(#paint20_linear_1131_39379)"/>
<defs>
<linearGradient id="paint0_linear_1131_39379" x1="20.2159" y1="178.579" x2="165.271" y2="178.579" gradientUnits="userSpaceOnUse">
<stop stop-color="#F57A00"/>
<stop offset="1" stop-color="#7103A4"/>
</linearGradient>
<linearGradient id="paint1_linear_1131_39379" x1="49.5786" y1="41.0513" x2="119.024" y2="41.0513" gradientUnits="userSpaceOnUse">
<stop stop-color="#F57A00"/>
<stop offset="1" stop-color="#7103A4"/>
</linearGradient>
<linearGradient id="paint2_linear_1131_39379" x1="46.0623" y1="41.0514" x2="121.133" y2="41.0514" gradientUnits="userSpaceOnUse">
<stop stop-color="#F57A00"/>
<stop offset="1" stop-color="#7103A4"/>
</linearGradient>
<linearGradient id="paint3_linear_1131_39379" x1="47.4689" y1="41.0514" x2="122.54" y2="41.0514" gradientUnits="userSpaceOnUse">
<stop stop-color="#F57A00"/>
<stop offset="1" stop-color="#7103A4"/>
</linearGradient>
<linearGradient id="paint4_linear_1131_39379" x1="116.123" y1="41.0513" x2="120.342" y2="41.0513" gradientUnits="userSpaceOnUse">
<stop stop-color="#F57A00"/>
<stop offset="1" stop-color="#7103A4"/>
</linearGradient>
<linearGradient id="paint5_linear_1131_39379" x1="177.569" y1="90.1023" x2="247.014" y2="90.1023" gradientUnits="userSpaceOnUse">
<stop stop-color="#F57A00"/>
<stop offset="1" stop-color="#7103A4"/>
</linearGradient>
<linearGradient id="paint6_linear_1131_39379" x1="174.053" y1="90.1027" x2="249.124" y2="90.1027" gradientUnits="userSpaceOnUse">
<stop stop-color="#F57A00"/>
<stop offset="1" stop-color="#7103A4"/>
</linearGradient>
<linearGradient id="paint7_linear_1131_39379" x1="225.184" y1="200.063" x2="127.789" y2="151.631" gradientUnits="userSpaceOnUse">
<stop stop-color="#F37803"/>
<stop offset="1" stop-color="#5A310A"/>
</linearGradient>
<linearGradient id="paint8_linear_1131_39379" x1="244.201" y1="90.1023" x2="248.421" y2="90.1023" gradientUnits="userSpaceOnUse">
<stop stop-color="#F57A00"/>
<stop offset="1" stop-color="#7103A4"/>
</linearGradient>
<linearGradient id="paint9_linear_1131_39379" x1="75.4229" y1="179.898" x2="157.878" y2="179.898" gradientUnits="userSpaceOnUse">
<stop stop-color="#F57A00"/>
<stop offset="1" stop-color="#7103A4"/>
</linearGradient>
<linearGradient id="paint10_linear_1131_39379" x1="116.65" y1="179.898" x2="157.878" y2="179.898" gradientUnits="userSpaceOnUse">
<stop stop-color="#F57A00"/>
<stop offset="1" stop-color="#7103A4"/>
</linearGradient>
<linearGradient id="paint11_linear_1131_39379" x1="104.432" y1="155.109" x2="142.583" y2="155.109" gradientUnits="userSpaceOnUse">
<stop stop-color="#F57A00"/>
<stop offset="1" stop-color="#7103A4"/>
</linearGradient>
<linearGradient id="paint12_linear_1131_39379" x1="99.5969" y1="186.447" x2="147.417" y2="186.447" gradientUnits="userSpaceOnUse">
<stop stop-color="#F57A00"/>
<stop offset="1" stop-color="#7103A4"/>
</linearGradient>
<linearGradient id="paint13_linear_1131_39379" x1="160.518" y1="155.144" x2="107.723" y2="155.144" gradientUnits="userSpaceOnUse">
<stop stop-color="white"/>
<stop offset="1" stop-color="#CEEAED"/>
</linearGradient>
<linearGradient id="paint14_linear_1131_39379" x1="195.941" y1="249.036" x2="265.386" y2="249.036" gradientUnits="userSpaceOnUse">
<stop stop-color="#F57A00"/>
<stop offset="1" stop-color="#7103A4"/>
</linearGradient>
<linearGradient id="paint15_linear_1131_39379" x1="192.425" y1="248.948" x2="267.496" y2="248.948" gradientUnits="userSpaceOnUse">
<stop stop-color="#F57A00"/>
<stop offset="1" stop-color="#7103A4"/>
</linearGradient>
<linearGradient id="paint16_linear_1131_39379" x1="193.831" y1="248.948" x2="268.902" y2="248.948" gradientUnits="userSpaceOnUse">
<stop stop-color="#F57A00"/>
<stop offset="1" stop-color="#7103A4"/>
</linearGradient>
<linearGradient id="paint17_linear_1131_39379" x1="262.485" y1="249.036" x2="266.705" y2="249.036" gradientUnits="userSpaceOnUse">
<stop stop-color="#F57A00"/>
<stop offset="1" stop-color="#7103A4"/>
</linearGradient>
<linearGradient id="paint18_linear_1131_39379" x1="156.911" y1="157.483" x2="215.808" y2="157.483" gradientUnits="userSpaceOnUse">
<stop stop-color="#F57A00"/>
<stop offset="1" stop-color="#7103A4"/>
</linearGradient>
<linearGradient id="paint19_linear_1131_39379" x1="0" y1="109.485" x2="69.4453" y2="109.485" gradientUnits="userSpaceOnUse">
<stop stop-color="#F57A00"/>
<stop offset="1" stop-color="#7103A4"/>
</linearGradient>
<linearGradient id="paint20_linear_1131_39379" x1="110.321" y1="258.222" x2="189.7" y2="258.222" gradientUnits="userSpaceOnUse">
<stop stop-color="#F57A00"/>
<stop offset="1" stop-color="#7103A4"/>
</linearGradient>
</defs>
</svg>
