<svg width="340" height="244" viewBox="0 0 340 244" fill="none" xmlns="http://www.w3.org/2000/svg">
<g opacity="0.86">
<path d="M335.405 116.214C339.936 118.839 339.961 123.104 335.456 125.729L137.67 240.984C133.165 243.608 125.84 243.608 121.285 240.984L3.41385 172.744C-1.11673 170.12 -1.1419 165.855 3.36351 163.23L201.149 47.9748C205.654 45.3502 212.979 45.3502 217.534 47.9748L335.405 116.214Z" fill="url(#paint0_linear_1131_39501)" fill-opacity="0.46"/>
</g>
<g opacity="0.63">
<path d="M335.405 83.4069C339.936 86.0315 339.961 90.2965 335.456 92.9211L137.67 208.176C133.165 210.801 125.84 210.801 121.285 208.176L3.41385 139.937C-1.11673 137.312 -1.1419 133.047 3.36351 130.423L201.149 15.1926C205.654 12.568 212.979 12.568 217.534 15.1926L335.405 83.4069Z" fill="url(#paint1_linear_1131_39501)"/>
</g>
<path d="M296.87 66.4226L319.951 79.5961L331.479 86.1828L334.373 87.8232C334.852 88.1008 335.33 88.3532 335.808 88.656C336.286 88.9588 336.765 89.2869 337.192 89.6655C337.62 90.044 337.998 90.473 338.325 90.9778C338.652 91.4573 338.904 92.0125 339.03 92.5929C339.307 93.7538 339.005 95.0156 338.375 95.9998C337.746 96.9841 336.84 97.7664 335.884 98.3721C334.927 98.9525 333.971 99.5077 333.014 100.063L327.275 103.419L315.823 110.158L292.919 123.609L247.034 150.435L201.124 177.236L155.189 203.962L143.711 210.624L137.972 213.955C135.934 215.091 133.694 215.697 131.428 215.899C130.296 216.025 129.163 216 128.03 215.924C126.898 215.848 125.765 215.646 124.658 215.369C123.55 215.091 122.468 214.687 121.436 214.132L121.058 213.93L120.706 213.728L119.976 213.299L118.541 212.492L107.064 205.804L61.1538 179.028L38.224 165.602L15.3193 152.151L38.4002 165.325L61.4558 178.523L107.542 204.996L119.07 211.608L120.504 212.441L121.234 212.845L121.587 213.047L121.939 213.224C122.87 213.728 123.877 214.107 124.909 214.359C125.941 214.612 126.998 214.813 128.081 214.864C129.163 214.94 130.245 214.94 131.302 214.813C133.442 214.612 135.556 214.031 137.394 212.996L143.132 209.64L154.61 202.927L200.52 176.151L246.43 149.4L292.415 122.751L315.42 109.451L326.923 102.788L332.662 99.4572C333.618 98.902 334.6 98.3468 335.531 97.7916C336.437 97.2364 337.268 96.5298 337.847 95.6465C338.426 94.7885 338.677 93.7033 338.451 92.6938C338.25 91.6844 337.595 90.7759 336.815 90.044C336.412 89.6907 335.984 89.3626 335.531 89.085C335.078 88.8074 334.575 88.5298 334.097 88.2522L331.227 86.5614L319.775 79.8484L296.87 66.4226Z" fill="#BABABA"/>
<g opacity="0.16">
<path d="M296.87 94.4358L319.951 107.609L331.479 114.196L334.373 115.836C334.852 116.114 335.33 116.366 335.808 116.669C336.286 116.972 336.765 117.3 337.192 117.679C337.62 118.057 337.998 118.486 338.325 118.991C338.652 119.47 338.904 120.026 339.03 120.606C339.307 121.767 339.005 123.029 338.375 124.013C337.746 124.997 336.84 125.78 335.884 126.385C334.927 126.966 333.971 127.521 333.014 128.076L327.275 131.433L315.823 138.171L292.919 151.622L247.034 178.448L201.124 205.249L155.189 231.975L143.711 238.637L137.972 241.969C135.934 243.104 133.694 243.71 131.428 243.912C130.296 244.038 129.163 244.013 128.03 243.937C126.898 243.861 125.765 243.659 124.658 243.382C123.55 243.104 122.468 242.7 121.436 242.145L121.058 241.943L120.706 241.742L119.976 241.312L118.541 240.505L107.064 233.817L61.1538 207.041L38.224 193.615L15.3193 180.164L38.4002 193.338L61.4558 206.537L107.542 233.01L119.07 239.622L120.504 240.454L121.234 240.858L121.587 241.06L121.939 241.237C122.87 241.742 123.877 242.12 124.909 242.372C125.941 242.625 126.998 242.827 128.081 242.877C129.163 242.953 130.245 242.953 131.302 242.827C133.442 242.625 135.556 242.044 137.394 241.01L143.132 237.653L154.61 230.94L200.52 204.164L246.43 177.414L292.415 150.764L315.42 137.464L326.923 130.802L332.662 127.47C333.618 126.915 334.6 126.36 335.531 125.805C336.437 125.25 337.268 124.543 337.847 123.66C338.426 122.802 338.677 121.716 338.451 120.707C338.25 119.698 337.595 118.789 336.815 118.057C336.412 117.704 335.984 117.376 335.531 117.098C335.078 116.821 334.575 116.543 334.097 116.265L331.227 114.575L319.775 107.862L296.87 94.4358Z" fill="url(#paint2_linear_1131_39501)"/>
</g>
<path d="M218.264 79.571C217.962 79.041 217.283 78.8391 216.729 79.1672L184.713 97.6656C184.184 97.9684 183.983 98.6498 184.31 99.205C184.511 99.5583 184.889 99.7602 185.292 99.7602C185.493 99.7602 185.669 99.7098 185.845 99.6088L217.836 81.0852C218.39 80.7823 218.566 80.101 218.264 79.571Z" fill="white" fill-opacity="0.46"/>
<path d="M228.911 85.8044C228.609 85.2744 227.93 85.0725 227.376 85.4006L195.385 103.924C194.857 104.227 194.655 104.908 194.982 105.464C195.184 105.817 195.561 106.019 195.964 106.019C196.165 106.019 196.342 105.968 196.518 105.867L228.509 87.3438C229.037 87.041 229.239 86.3344 228.911 85.8044Z" fill="white" fill-opacity="0.46"/>
<path d="M239.583 92.0632C239.281 91.5332 238.602 91.3313 238.048 91.6594L206.057 110.183C205.528 110.486 205.327 111.167 205.654 111.722C205.856 112.076 206.233 112.278 206.636 112.278C206.837 112.278 207.013 112.227 207.19 112.126L239.181 93.6026C239.709 93.2745 239.885 92.5931 239.583 92.0632Z" fill="white" fill-opacity="0.46"/>
<path d="M282.347 46.2335V84.4416C282.347 87.2429 280.862 89.8422 278.421 91.2555L259.392 102.284C256.85 103.748 254.056 103.394 251.589 102.208L255.113 62.6877C255.365 59.735 249.299 57.4637 251.866 55.9748L278.974 40.53C281.592 42.448 282.347 42.9275 282.347 46.2335Z" fill="url(#paint3_linear_1131_39501)"/>
<path d="M205.302 24.9847L228.76 11.4075L278.999 40.5052C280.484 41.3632 280.484 43.5084 278.999 44.3664L260.424 55.1172C257.378 56.8837 253.653 56.9594 250.532 55.3695L202.005 30.3853C201.954 28.1141 203.817 25.8428 205.302 24.9847Z" fill="url(#paint4_linear_1131_39501)"/>
<path d="M251.011 39.7982C253.528 38.3345 257.605 38.3345 260.122 39.7982C262.639 41.2619 262.614 43.6342 260.097 45.0979C257.58 46.5616 253.502 46.5616 250.985 45.0979C248.468 43.6342 248.494 41.2619 251.011 39.7982Z" fill="white"/>
<path d="M224.23 24.278C226.747 22.8142 230.824 22.8142 233.341 24.278C235.858 25.7417 235.833 28.1139 233.316 29.5776C230.799 31.0414 226.722 31.0414 224.205 29.5776C221.688 28.1139 221.688 25.7417 224.23 24.278Z" fill="white"/>
<path d="M256.976 42.4482C258.058 42.4482 258.914 41.5902 258.914 40.505V24.7322C258.914 15.3189 253.855 6.56186 245.725 1.84263C241.849 -0.403424 237.268 -0.605316 233.266 1.28742C228.408 3.55871 225.413 8.60602 225.413 13.9814V24.9845C225.413 26.0697 226.294 26.9278 227.351 26.9278H230.17C231.252 26.9278 232.108 26.0445 232.108 24.9845V13.6029C232.108 11.1297 233.392 8.90886 235.531 7.67227C237.67 6.43568 240.238 6.43568 242.377 7.67227C248.443 11.1801 252.193 17.7164 252.193 24.7322V40.505C252.193 41.5902 253.049 42.4482 254.132 42.4482H256.976Z" fill="url(#paint5_linear_1131_39501)"/>
<path d="M250.759 55.1674L205.327 28.8709C203.842 28.0129 201.954 29.0981 201.954 30.8142V67.4576C201.954 71.1674 203.918 74.5743 207.114 76.4418L251.589 102.183C253.351 103.193 255.541 101.931 255.541 99.8866V63.4955C255.566 60.0633 253.729 56.8835 250.759 55.1674Z" fill="url(#paint6_linear_1131_39501)"/>
<path d="M270.341 68.8708C273.638 66.978 276.306 68.4922 276.306 72.2777C276.306 74.8771 275.073 77.8802 273.21 80.101L273.764 89.2366L267.044 93.1231L267.522 83.3818C265.659 83.2808 264.401 81.7666 264.401 79.142C264.376 75.3818 267.044 70.7635 270.341 68.8708Z" fill="white"/>
<path d="M99.8651 129.01L96.4671 129.085L94.6801 131.811V134.511C94.6801 135.142 95.0073 135.697 95.5358 136.025L98.7576 138.019L101.828 133.653L99.8651 129.01Z" fill="url(#paint7_linear_1131_39501)"/>
<path d="M93.1447 132.593V76.3913C93.1447 73.8425 94.5039 71.4955 96.6936 70.2084L171.197 27.0791C172.229 26.4735 175.35 27.5334 175.4 28.9719L173.537 86.7131C173.537 87.3692 173.185 87.9749 172.631 88.303L97.4991 133.704C94.3277 136.025 93.1447 133.375 93.1447 132.593Z" fill="url(#paint8_linear_1131_39501)"/>
<path d="M97.6499 133.653L174.72 91.4324C175.173 91.1801 175.727 91.1801 176.18 91.4324L227.023 118.486C228.206 119.218 227.854 122.751 226.872 123.306L153.401 165.83C150.456 167.521 146.857 167.521 143.912 165.83L97.222 138.801C96.2655 138.246 94.3023 135.445 97.6499 133.653Z" fill="url(#paint9_linear_1131_39501)"/>
<path d="M97.2221 133.905L174.72 89.0599C175.173 88.8075 175.727 88.8075 176.18 89.0599L226.872 118.41C227.829 118.965 227.829 120.378 226.872 120.934L153.401 163.432C150.456 165.123 146.857 165.123 143.912 163.432L97.2472 136.429C96.2656 135.874 96.2656 134.46 97.2221 133.905Z" fill="url(#paint10_linear_1131_39501)"/>
<path d="M95.0576 133.426V77.2243C95.0576 74.6755 96.4168 72.3285 98.6066 71.0414L173.11 27.9121C174.142 27.3065 175.45 28.0636 175.45 29.2749V87.5713C175.45 88.2275 175.098 88.8332 174.544 89.1612L96.5426 134.309C95.8882 134.688 95.0576 134.208 95.0576 133.426Z" fill="#252332"/>
<path d="M96.0642 132.088C96.0642 132.088 95.9635 132.088 95.9635 131.987V77.2492C95.9635 75.0284 97.1465 72.959 99.0846 71.8486L173.588 28.7194C173.688 28.6689 173.814 28.6184 173.915 28.6184C174.242 28.6184 174.594 28.8708 174.594 29.2998V86.1325C174.594 86.4606 174.418 86.7634 174.141 86.9401L96.0894 132.063L96.0642 132.088Z" fill="url(#paint11_linear_1131_39501)"/>
<path d="M175.526 146.17L195.687 134.486C196.366 134.107 196.366 133.123 195.687 132.719L185.82 127.016C185.292 126.713 184.637 126.713 184.109 127.016L162.387 139.583C161.531 140.063 161.531 141.3 162.387 141.779L169.938 146.145C171.675 147.154 173.789 147.154 175.526 146.17Z" fill="black"/>
<path d="M113.759 136.631L111.519 135.318C111.091 135.066 110.386 135.066 109.933 135.318L107.693 136.631C107.265 136.883 107.265 137.287 107.693 137.539L109.933 138.852C110.361 139.104 111.091 139.104 111.519 138.852L113.759 137.539C114.212 137.287 114.212 136.883 113.759 136.631Z" fill="#3A43B2"/>
<path d="M112.727 134.612L114.967 135.925C115.395 136.177 116.125 136.177 116.553 135.925L118.793 134.612C119.221 134.36 119.221 133.956 118.793 133.704L116.553 132.391C116.125 132.139 115.42 132.139 114.967 132.391L112.727 133.704C112.299 133.956 112.299 134.36 112.727 134.612Z" fill="#3A43B2"/>
<path d="M117.761 131.685L120.001 132.997C120.429 133.249 121.159 133.249 121.587 132.997L123.827 131.685C124.255 131.432 124.255 131.028 123.827 130.776L121.562 129.464C121.134 129.211 120.429 129.211 119.976 129.464L117.736 130.776C117.308 131.028 117.308 131.432 117.761 131.685Z" fill="#3A43B2"/>
<path d="M122.77 128.757L125.01 130.069C125.438 130.321 126.168 130.321 126.596 130.069L128.836 128.757C129.264 128.504 129.264 128.1 128.836 127.848L126.596 126.536C126.168 126.283 125.438 126.283 125.01 126.536L122.77 127.848C122.342 128.1 122.342 128.504 122.77 128.757Z" fill="#3A43B2"/>
<path d="M127.804 125.83L130.044 127.142C130.472 127.394 131.202 127.394 131.629 127.142L133.87 125.83C134.297 125.577 134.297 125.173 133.87 124.921L131.629 123.609C131.202 123.356 130.472 123.356 130.044 123.609L127.804 124.921C127.376 125.173 127.376 125.577 127.804 125.83Z" fill="#3A43B2"/>
<path d="M132.838 122.902L135.078 124.214C135.506 124.466 136.236 124.466 136.663 124.214L138.904 122.902C139.332 122.649 139.332 122.246 138.904 121.993L136.663 120.681C136.236 120.429 135.531 120.429 135.078 120.681L132.838 121.993C132.385 122.246 132.385 122.649 132.838 122.902Z" fill="#3A43B2"/>
<path d="M137.847 119.975L140.087 121.287C140.515 121.539 141.244 121.539 141.672 121.287L143.912 119.975C144.34 119.722 144.34 119.319 143.912 119.066L141.672 117.754C141.244 117.502 140.54 117.502 140.087 117.754L137.847 119.066C137.419 119.293 137.419 119.722 137.847 119.975Z" fill="#3A43B2"/>
<path d="M142.881 117.048L145.121 118.36C145.549 118.612 146.279 118.612 146.706 118.36L148.947 117.048C149.374 116.795 149.374 116.391 148.947 116.139L146.706 114.827C146.279 114.574 145.574 114.574 145.121 114.827L142.881 116.139C142.453 116.366 142.453 116.795 142.881 117.048Z" fill="#3A43B2"/>
<path d="M147.915 114.12L150.155 115.432C150.583 115.685 151.312 115.685 151.74 115.432L153.98 114.12C154.408 113.868 154.408 113.464 153.98 113.212L151.74 111.899C151.312 111.647 150.608 111.647 150.155 111.899L147.915 113.212C147.461 113.439 147.461 113.868 147.915 114.12Z" fill="#3A43B2"/>
<path d="M152.923 111.193L155.163 112.505C155.591 112.757 156.321 112.757 156.749 112.505L158.989 111.193C159.417 110.94 159.417 110.537 158.989 110.284L156.749 108.972C156.321 108.72 155.591 108.72 155.163 108.972L152.923 110.284C152.495 110.511 152.495 110.94 152.923 111.193Z" fill="#3A43B2"/>
<path d="M157.957 108.265L160.197 109.577C160.625 109.829 161.355 109.829 161.783 109.577L164.023 108.265C164.451 108.012 164.451 107.609 164.023 107.356L161.783 106.044C161.355 105.792 160.65 105.792 160.197 106.044L157.957 107.356C157.529 107.583 157.529 108.012 157.957 108.265Z" fill="#3A43B2"/>
<path d="M162.991 105.337L165.231 106.65C165.659 106.902 166.389 106.902 166.817 106.65L169.057 105.337C169.485 105.085 169.485 104.681 169.057 104.429L166.817 103.117C166.389 102.864 165.684 102.864 165.231 103.117L162.991 104.429C162.538 104.656 162.538 105.085 162.991 105.337Z" fill="#3A43B2"/>
<path d="M168 102.41L170.24 103.722C170.668 103.975 171.398 103.975 171.826 103.722L174.066 102.41C174.494 102.158 174.494 101.754 174.066 101.502L171.826 100.189C171.398 99.9369 170.693 99.9369 170.24 100.189L168 101.502C167.572 101.729 167.572 102.158 168 102.41Z" fill="#3A43B2"/>
<path d="M173.084 99.5079L175.249 100.77C175.702 101.047 176.457 101.047 176.91 100.77L183.052 97.1862C183.505 96.9086 183.505 96.4796 183.052 96.202L180.887 94.9401C180.434 94.6625 179.679 94.6625 179.226 94.9401L173.084 98.5237C172.606 98.8013 172.631 99.2303 173.084 99.5079Z" fill="#3A43B2"/>
<path d="M133.266 147.912L130.371 146.246C130.119 146.095 129.691 146.095 129.415 146.246L126.545 147.912C126.293 148.063 126.293 148.316 126.545 148.467L129.44 150.133C129.691 150.284 130.119 150.284 130.396 150.133L133.266 148.467C133.517 148.316 133.517 148.063 133.266 147.912Z" fill="#3A43B2"/>
<path d="M138.3 144.984L135.405 143.318C135.153 143.167 134.725 143.167 134.449 143.318L131.579 144.984C131.328 145.135 131.328 145.388 131.579 145.539L134.474 147.205C134.725 147.356 135.153 147.356 135.43 147.205L138.3 145.539C138.551 145.388 138.551 145.135 138.3 144.984Z" fill="#3A43B2"/>
<path d="M143.308 142.057L140.414 140.391C140.162 140.24 139.734 140.24 139.457 140.391L136.588 142.057C136.336 142.208 136.336 142.461 136.588 142.612L139.482 144.278C139.734 144.429 140.162 144.429 140.439 144.278L143.308 142.612C143.585 142.461 143.585 142.208 143.308 142.057Z" fill="#3A43B2"/>
<path d="M182.347 119.319L179.452 117.653C179.201 117.502 178.773 117.502 178.496 117.653L141.622 139.129C141.37 139.281 141.37 139.533 141.622 139.685L144.517 141.35C144.768 141.502 145.196 141.502 145.473 141.35L182.347 119.874C182.599 119.723 182.599 119.47 182.347 119.319Z" fill="#3A43B2"/>
<path d="M187.507 116.29L184.612 114.625C184.361 114.473 183.933 114.473 183.656 114.625L180.786 116.29C180.535 116.442 180.535 116.694 180.786 116.845L183.681 118.511C183.933 118.662 184.36 118.662 184.637 118.511L187.507 116.845C187.784 116.694 187.784 116.442 187.507 116.29Z" fill="#3A43B2"/>
<path d="M192.541 113.362L189.646 111.697C189.394 111.545 188.967 111.545 188.69 111.697L185.82 113.362C185.569 113.514 185.569 113.766 185.82 113.918L188.715 115.583C188.967 115.735 189.394 115.735 189.671 115.583L192.541 113.918C192.792 113.766 192.792 113.514 192.541 113.362Z" fill="#3A43B2"/>
<path d="M197.575 110.435L194.68 108.77C194.429 108.618 194.001 108.618 193.724 108.77L190.854 110.435C190.603 110.587 190.603 110.839 190.854 110.991L193.749 112.656C194.001 112.808 194.429 112.808 194.705 112.656L197.575 110.991C197.826 110.839 197.826 110.587 197.575 110.435Z" fill="#3A43B2"/>
<path d="M202.583 107.508L199.689 105.842C199.437 105.691 199.009 105.691 198.732 105.842L195.863 107.508C195.611 107.659 195.611 107.912 195.863 108.063L198.758 109.729C199.009 109.88 199.437 109.88 199.689 109.729L202.558 108.063C202.86 107.912 202.86 107.659 202.583 107.508Z" fill="#3A43B2"/>
<path d="M121.486 137.691L119.246 136.404C118.818 136.151 118.088 136.151 117.66 136.404L112.5 139.407C112.072 139.659 112.072 140.063 112.5 140.341L114.74 141.628C115.168 141.88 115.898 141.88 116.326 141.628L121.486 138.624C121.914 138.347 121.914 137.943 121.486 137.691Z" fill="#3A43B2"/>
<path d="M122.669 133.451L120.454 134.738C120.026 134.991 120.026 135.42 120.454 135.672L122.694 136.959C123.122 137.211 123.852 137.211 124.28 136.959L126.495 135.672C126.923 135.42 126.923 135.016 126.495 134.738L124.255 133.451C123.827 133.199 123.122 133.199 122.669 133.451Z" fill="#3A43B2"/>
<path d="M127.703 130.523L125.488 131.81C125.06 132.063 125.06 132.466 125.488 132.744L127.728 134.031C128.156 134.283 128.886 134.283 129.314 134.031L131.529 132.744C131.957 132.492 131.957 132.088 131.529 131.81L129.289 130.523C128.836 130.271 128.131 130.271 127.703 130.523Z" fill="#3A43B2"/>
<path d="M132.737 127.596L130.522 128.883C130.094 129.136 130.094 129.539 130.522 129.817L132.762 131.104C133.19 131.356 133.92 131.356 134.348 131.104L136.563 129.817C136.991 129.565 136.991 129.161 136.563 128.883L134.323 127.596C133.87 127.344 133.165 127.344 132.737 127.596Z" fill="#3A43B2"/>
<path d="M137.746 124.669L135.531 125.956C135.103 126.208 135.103 126.612 135.531 126.889L137.771 128.176C138.199 128.429 138.929 128.429 139.356 128.176L141.571 126.889C141.999 126.637 141.999 126.233 141.571 125.956L139.331 124.669C138.903 124.416 138.199 124.416 137.746 124.669Z" fill="#3A43B2"/>
<path d="M142.78 121.742L140.565 123.029C140.137 123.281 140.137 123.685 140.565 123.962L142.805 125.249C143.233 125.502 143.963 125.502 144.391 125.249L146.606 123.962C147.033 123.71 147.033 123.306 146.606 123.029L144.365 121.742C143.938 121.489 143.208 121.489 142.78 121.742Z" fill="#3A43B2"/>
<path d="M147.814 118.814L145.599 120.101C145.171 120.353 145.171 120.757 145.599 121.035L147.839 122.322C148.267 122.574 148.997 122.574 149.425 122.322L151.64 121.035C152.068 120.782 152.068 120.378 151.64 120.101L149.4 118.814C148.946 118.561 148.242 118.561 147.814 118.814Z" fill="#3A43B2"/>
<path d="M152.822 115.887L150.582 117.174C150.154 117.426 150.154 117.83 150.582 118.108L152.822 119.395C153.25 119.647 153.98 119.647 154.408 119.395L156.648 118.108C157.076 117.855 157.076 117.451 156.648 117.174L154.408 115.887C153.98 115.634 153.275 115.634 152.822 115.887Z" fill="#3A43B2"/>
<path d="M157.856 112.959L155.641 114.246C155.214 114.498 155.214 114.902 155.641 115.18L157.882 116.467C158.309 116.719 159.039 116.719 159.467 116.467L161.682 115.18C162.11 114.927 162.11 114.523 161.682 114.246L159.442 112.959C159.014 112.706 158.284 112.706 157.856 112.959Z" fill="#3A43B2"/>
<path d="M162.89 110.032L160.676 111.319C160.248 111.571 160.248 111.975 160.676 112.252L162.916 113.539C163.344 113.792 164.073 113.792 164.501 113.539L166.716 112.252C167.144 112 167.144 111.596 166.716 111.319L164.476 110.032C164.023 109.779 163.318 109.779 162.89 110.032Z" fill="#3A43B2"/>
<path d="M167.899 107.104L165.684 108.391C165.256 108.643 165.256 109.047 165.684 109.325L167.924 110.612C168.352 110.864 169.082 110.864 169.51 110.612L171.725 109.325C172.153 109.073 172.153 108.669 171.725 108.391L169.485 107.104C169.057 106.852 168.352 106.852 167.899 107.104Z" fill="#3A43B2"/>
<path d="M172.933 104.177L170.718 105.464C170.291 105.716 170.291 106.12 170.718 106.398L172.959 107.685C173.386 107.937 174.116 107.937 174.544 107.685L176.759 106.398C177.187 106.145 177.187 105.741 176.759 105.464L174.519 104.177C174.091 103.924 173.361 103.924 172.933 104.177Z" fill="#3A43B2"/>
<path d="M181.793 102.536L179.553 101.249C179.125 100.997 178.395 100.997 177.968 101.249L175.753 102.536C175.325 102.789 175.325 103.193 175.753 103.47L177.993 104.757C178.421 105.01 179.151 105.01 179.578 104.757L181.793 103.47C182.221 103.218 182.221 102.814 181.793 102.536Z" fill="#3A43B2"/>
<path d="M180.761 100.543L183.001 101.83C183.429 102.082 184.159 102.082 184.587 101.83L187.884 99.9118C188.312 99.6594 188.312 99.2557 187.884 98.978L185.644 97.691C185.216 97.4386 184.486 97.4386 184.058 97.691L180.761 99.609C180.308 99.8866 180.333 100.29 180.761 100.543Z" fill="#3A43B2"/>
<path d="M127.829 139.71L125.312 138.246C124.96 138.044 124.381 138.044 124.003 138.246L117.132 142.234C116.779 142.435 116.779 142.789 117.132 142.991L119.649 144.454C120.001 144.656 120.58 144.656 120.958 144.454L127.829 140.467C128.206 140.265 128.206 139.937 127.829 139.71Z" fill="#3A43B2"/>
<path d="M126.57 137.514L129.087 138.978C129.44 139.18 130.018 139.18 130.396 138.978L132.913 137.514C133.265 137.312 133.265 136.959 132.913 136.757L130.396 135.294C130.044 135.092 129.465 135.092 129.087 135.294L126.57 136.757C126.193 136.984 126.218 137.312 126.57 137.514Z" fill="#3A43B2"/>
<path d="M135.43 136.05L137.947 134.586C138.299 134.384 138.299 134.031 137.947 133.829L135.43 132.366C135.078 132.164 134.474 132.164 134.121 132.366L131.604 133.829C131.252 134.031 131.252 134.384 131.604 134.586L134.121 136.05C134.474 136.277 135.078 136.277 135.43 136.05Z" fill="#3A43B2"/>
<path d="M140.439 129.438C140.087 129.236 139.482 129.236 139.13 129.438L136.613 130.902C136.261 131.104 136.261 131.457 136.613 131.659L139.13 133.123C139.482 133.325 140.087 133.325 140.439 133.123L142.956 131.659C143.308 131.457 143.308 131.104 142.956 130.902L140.439 129.438Z" fill="#3A43B2"/>
<path d="M145.473 130.196L147.99 128.732C148.342 128.53 148.342 128.177 147.99 127.975L145.473 126.511C145.121 126.309 144.542 126.309 144.164 126.511L141.647 127.975C141.295 128.177 141.295 128.53 141.647 128.732L144.164 130.196C144.542 130.423 145.121 130.423 145.473 130.196Z" fill="#3A43B2"/>
<path d="M150.507 127.268L153.024 125.804C153.376 125.602 153.376 125.249 153.024 125.047L150.507 123.584C150.155 123.382 149.576 123.382 149.198 123.584L146.681 125.047C146.329 125.249 146.329 125.602 146.681 125.804L149.198 127.268C149.551 127.495 150.155 127.495 150.507 127.268Z" fill="#3A43B2"/>
<path d="M155.516 124.341L158.033 122.877C158.385 122.675 158.385 122.322 158.033 122.12L155.516 120.656C155.163 120.454 154.584 120.454 154.207 120.656L151.69 122.12C151.338 122.322 151.338 122.675 151.69 122.877L154.207 124.341C154.584 124.568 155.163 124.568 155.516 124.341Z" fill="#3A43B2"/>
<path d="M160.55 121.413L163.067 119.95C163.419 119.748 163.419 119.394 163.067 119.193L160.55 117.729C160.197 117.527 159.593 117.527 159.241 117.729L156.724 119.193C156.372 119.394 156.372 119.748 156.724 119.95L159.241 121.413C159.619 121.64 160.197 121.64 160.55 121.413Z" fill="#3A43B2"/>
<path d="M165.584 118.485L168.101 117.022C168.453 116.82 168.453 116.466 168.101 116.265L165.584 114.801C165.231 114.599 164.627 114.599 164.275 114.801L161.758 116.265C161.406 116.466 161.406 116.82 161.758 117.022L164.275 118.485C164.627 118.687 165.231 118.687 165.584 118.485Z" fill="#3A43B2"/>
<path d="M170.592 115.558L173.109 114.094C173.462 113.893 173.462 113.539 173.109 113.337L170.592 111.874C170.24 111.672 169.636 111.672 169.284 111.874L166.767 113.337C166.414 113.539 166.414 113.893 166.767 114.094L169.284 115.558C169.661 115.76 170.24 115.76 170.592 115.558Z" fill="#3A43B2"/>
<path d="M175.626 112.631L178.143 111.167C178.496 110.965 178.496 110.612 178.143 110.41L175.626 108.946C175.274 108.744 174.695 108.744 174.318 108.946L171.801 110.41C171.448 110.612 171.448 110.965 171.801 111.167L174.318 112.631C174.695 112.833 175.274 112.833 175.626 112.631Z" fill="#3A43B2"/>
<path d="M180.661 109.703L183.178 108.24C183.53 108.038 183.53 107.684 183.178 107.483L180.661 106.019C180.308 105.817 179.729 105.817 179.352 106.019L176.835 107.483C176.482 107.684 176.482 108.038 176.835 108.24L179.352 109.703C179.704 109.905 180.308 109.905 180.661 109.703Z" fill="#3A43B2"/>
<path d="M181.844 105.312L184.361 106.776C184.713 106.978 185.292 106.978 185.669 106.776L192.818 102.612C193.17 102.41 193.17 102.057 192.818 101.855L190.301 100.391C189.948 100.189 189.344 100.189 188.992 100.391L181.844 104.555C181.491 104.757 181.491 105.11 181.844 105.312Z" fill="#3A43B2"/>
<path d="M135.229 140.972L132.737 139.533C132.359 139.331 131.78 139.331 131.403 139.533L121.964 145.035C121.587 145.237 121.612 145.59 121.964 145.817L124.456 147.256C124.834 147.458 125.412 147.458 125.79 147.256L135.229 141.754C135.606 141.527 135.606 141.174 135.229 140.972Z" fill="#3A43B2"/>
<path d="M133.97 138.801L136.462 140.24C136.84 140.441 137.419 140.441 137.796 140.24L140.288 138.801C140.666 138.599 140.64 138.246 140.288 138.019L137.796 136.58C137.419 136.378 136.84 136.353 136.462 136.58L133.97 138.019C133.593 138.246 133.593 138.599 133.97 138.801Z" fill="#3A43B2"/>
<path d="M142.83 137.312L145.322 135.874C145.699 135.672 145.699 135.318 145.322 135.091L142.83 133.653C142.452 133.451 141.874 133.451 141.496 133.653L139.004 135.091C138.627 135.293 138.652 135.647 139.004 135.874L141.496 137.312C141.874 137.539 142.452 137.539 142.83 137.312Z" fill="#3A43B2"/>
<path d="M147.839 134.385L150.331 132.947C150.708 132.745 150.708 132.391 150.331 132.164L147.839 130.726C147.461 130.524 146.882 130.524 146.505 130.726L144.013 132.164C143.635 132.366 143.661 132.72 144.013 132.947L146.505 134.385C146.882 134.612 147.486 134.612 147.839 134.385Z" fill="#3A43B2"/>
<path d="M152.873 131.457L155.365 130.019C155.742 129.817 155.742 129.464 155.365 129.237L152.873 127.798C152.495 127.596 151.916 127.596 151.539 127.798L149.047 129.237C148.67 129.439 148.695 129.792 149.047 130.019L151.539 131.457C151.916 131.685 152.495 131.685 152.873 131.457Z" fill="#3A43B2"/>
<path d="M157.907 128.529L160.399 127.091C160.776 126.889 160.776 126.536 160.399 126.309L157.907 124.87C157.529 124.668 156.951 124.668 156.573 124.87L154.081 126.309C153.704 126.511 153.729 126.864 154.081 127.091L156.573 128.529C156.951 128.757 157.529 128.757 157.907 128.529Z" fill="#3A43B2"/>
<path d="M162.916 125.603L165.408 124.165C165.785 123.963 165.76 123.609 165.408 123.382L162.916 121.944C162.538 121.742 161.959 121.717 161.582 121.944L159.09 123.382C158.712 123.584 158.737 123.937 159.09 124.165L161.582 125.603C161.959 125.83 162.563 125.83 162.916 125.603Z" fill="#3A43B2"/>
<path d="M167.95 122.675L170.441 121.237C170.819 121.035 170.794 120.681 170.441 120.454L167.95 119.016C167.572 118.814 166.993 118.789 166.616 119.016L164.124 120.454C163.746 120.656 163.771 121.009 164.124 121.237L166.616 122.675C166.993 122.902 167.597 122.902 167.95 122.675Z" fill="#3A43B2"/>
<path d="M172.984 119.748L175.475 118.309C175.853 118.107 175.853 117.754 175.475 117.527L172.984 116.088C172.606 115.887 172.027 115.887 171.65 116.088L169.158 117.527C168.78 117.729 168.805 118.082 169.158 118.309L171.65 119.748C172.027 119.975 172.606 119.975 172.984 119.748Z" fill="#3A43B2"/>
<path d="M177.992 116.82L180.484 115.382C180.862 115.18 180.862 114.827 180.484 114.6L177.992 113.161C177.615 112.959 177.036 112.959 176.658 113.161L174.166 114.6C173.789 114.802 173.814 115.155 174.166 115.382L176.658 116.82C177.036 117.048 177.64 117.048 177.992 116.82Z" fill="#3A43B2"/>
<path d="M183.026 113.893L185.518 112.455C185.896 112.253 185.896 111.899 185.518 111.672L183.026 110.234C182.649 110.032 182.07 110.032 181.692 110.234L179.201 111.672C178.823 111.874 178.848 112.227 179.201 112.455L181.692 113.893C182.07 114.12 182.649 114.12 183.026 113.893Z" fill="#3A43B2"/>
<path d="M184.235 109.527L186.726 110.965C187.104 111.167 187.683 111.167 188.06 110.965L197.625 105.388C198.003 105.186 198.003 104.833 197.625 104.606L195.133 103.167C194.756 102.965 194.177 102.965 193.799 103.167L184.235 108.745C183.857 108.972 183.857 109.3 184.235 109.527Z" fill="#3A43B2"/>
<path opacity="0.8" d="M141.899 79.6217L140.515 80.4293C140.036 89.5902 133.895 100.24 126.193 105.262C125.866 105.489 125.513 105.691 125.186 105.893C124.859 106.095 124.507 106.272 124.179 106.448C120.681 108.215 117.509 108.442 115.017 107.382C114.514 107.155 114.036 106.902 113.583 106.574C111.393 104.984 110.009 102.133 109.757 98.2463L108.373 99.0539C108.926 108.871 116.251 112.656 125.161 107.508C134.121 102.309 141.396 90.0444 141.899 79.6217ZM144.24 78.259L142.453 79.2937C141.949 90.0697 134.423 102.789 125.186 108.114C115.974 113.464 108.373 109.502 107.819 99.3315L106.032 100.366C106.283 105.439 108.096 109.123 110.965 111.117C111.418 111.42 111.896 111.697 112.4 111.925C115.571 113.363 119.674 113.06 124.204 110.713C124.532 110.537 124.884 110.36 125.211 110.158C125.564 109.956 125.891 109.754 126.218 109.552C135.959 103.344 143.762 89.8173 144.24 78.259ZM137.67 68.0634L136.714 69.729C138.904 71.3189 140.288 74.1959 140.515 78.0823L141.899 77.2747C141.647 72.9845 140.087 69.8047 137.67 68.0634ZM139.332 65.1864L138.073 67.382C140.615 69.1991 142.226 72.4798 142.478 76.9719L144.265 75.9372C143.988 70.8647 142.176 67.1801 139.332 65.1864ZM126.092 68.2653V69.8552C129.591 68.0886 132.787 67.8615 135.254 68.9215L136.211 67.2306C133.492 66.0445 129.968 66.2968 126.092 68.2653ZM124.079 69.4262C115.622 74.9025 108.851 86.6627 108.398 96.6816L109.782 95.8741C110.235 86.7132 116.402 76.0382 124.104 70.9908L124.079 69.4262ZM124.079 66.7259C114.313 72.9593 106.51 86.5113 106.057 98.0444L107.844 97.0097C108.322 86.6123 115.32 74.423 124.104 68.77L124.079 66.7259ZM126.092 65.565V67.6091C130.119 65.5398 133.794 65.2874 136.638 66.5492L137.897 64.3536C134.726 62.9152 130.623 63.218 126.092 65.565Z" fill="url(#paint12_linear_1131_39501)"/>
<path opacity="0.8" d="M124.079 69.4261C124.406 69.199 124.758 68.9971 125.085 68.8205C125.413 68.6186 125.765 68.4419 126.092 68.2652C129.968 66.2968 133.492 66.0444 136.236 67.2558C136.739 67.4829 137.217 67.7605 137.67 68.0634C140.087 69.8047 141.647 72.9592 141.899 77.2999C141.924 77.6785 141.924 78.0318 141.924 78.4356C141.924 78.8394 141.924 79.2179 141.899 79.6217C141.396 90.0444 134.121 102.309 125.211 107.458C116.301 112.606 108.977 108.795 108.423 99.0033C108.398 98.6248 108.398 98.2463 108.398 97.8425C108.398 97.4639 108.398 97.0601 108.423 96.6816C108.876 86.6627 115.622 74.9025 124.079 69.4261ZM125.085 68.1643C124.758 68.3662 124.406 68.5681 124.079 68.77C115.32 74.423 108.297 86.6122 107.819 97.0097C107.794 97.3882 107.794 97.792 107.794 98.1705C107.794 98.5743 107.794 98.9529 107.819 99.3314C108.373 109.502 115.974 113.464 125.186 108.114C134.398 102.789 141.949 90.0696 142.453 79.2936C142.478 78.8898 142.478 78.486 142.478 78.1075C142.478 77.7289 142.478 77.3504 142.453 76.9719C142.201 72.4545 140.59 69.1738 138.048 67.382C137.595 67.0539 137.117 66.8015 136.613 66.5744C133.769 65.3126 130.094 65.5649 126.067 67.6343C125.765 67.7858 125.438 67.9624 125.085 68.1643Z" fill="white"/>
<path opacity="0.8" d="M216.955 61.477C217.333 69.5274 222.971 78.9911 229.842 82.9785C236.714 86.9659 242.377 84.0132 242.805 76.4422L241.748 75.8366C241.572 78.8397 240.489 81.0353 238.803 82.2719C238.451 82.5242 238.098 82.7261 237.695 82.9028C235.782 83.7356 233.316 83.5337 230.623 82.1709C230.371 82.0447 230.094 81.8933 229.842 81.7419C229.591 81.5905 229.314 81.4391 229.062 81.2624C223.122 77.376 218.39 69.1489 218.013 62.0826L216.955 61.477ZM215.118 60.417C215.496 69.3255 221.511 79.7735 229.037 84.5936C229.289 84.7703 229.54 84.9217 229.817 85.0731C230.069 85.2245 230.346 85.376 230.597 85.5021C234.096 87.3192 237.268 87.5463 239.709 86.4359C240.087 86.2592 240.464 86.0574 240.816 85.805C243.006 84.2656 244.416 81.4391 244.617 77.5022L243.233 76.6946C242.805 84.5432 236.94 87.5968 229.817 83.4832C222.694 79.3697 216.88 69.5527 216.477 61.2246L215.118 60.417ZM220.202 52.5432C218.315 53.8808 217.132 56.3287 216.93 59.6852L217.987 60.2908C218.164 57.2877 219.246 55.0669 220.932 53.8303L220.202 52.5432ZM218.919 50.3224C216.704 51.8618 215.319 54.7136 215.118 58.6252L216.502 59.4328C216.679 55.9502 217.937 53.4013 219.9 52.0133L218.919 50.3224ZM229.138 52.6946C226.142 51.1805 223.424 50.9786 221.31 51.9123L222.065 53.1994C223.978 52.3666 226.444 52.5432 229.138 53.906V52.6946ZM230.698 53.6032V54.8398C236.638 58.7262 241.395 66.9785 241.748 74.0448L242.805 74.6504C242.453 66.9028 237.217 57.8177 230.698 53.6032ZM230.698 51.5085V53.0984C237.469 57.4644 242.88 66.8776 243.258 74.9028L244.642 75.7104C244.265 66.7766 238.249 56.3287 230.698 51.5085ZM229.138 50.6C225.639 48.783 222.468 48.5559 220.026 49.6663L221.008 51.3571C223.198 50.3729 226.042 50.5748 229.138 52.1647V50.6Z" fill="#73069F" fill-opacity="0.9939"/>
<path opacity="0.8" d="M230.698 53.6033C237.217 57.8178 242.453 66.903 242.805 74.6506C242.83 74.9534 242.83 75.2563 242.83 75.5591C242.83 75.862 242.83 76.1648 242.805 76.4424C242.377 84.0134 236.714 86.966 229.843 82.9787C222.971 78.9913 217.333 69.5276 216.956 61.4771C216.93 61.1743 216.93 60.8714 216.93 60.5434C216.93 60.2405 216.93 59.9629 216.956 59.6601C217.132 56.3289 218.34 53.8809 220.228 52.5182C220.58 52.2658 220.932 52.0639 221.335 51.8872C223.449 50.9535 226.168 51.1554 229.163 52.6696C229.415 52.7958 229.692 52.9472 229.943 53.0986C230.195 53.2752 230.447 53.4267 230.698 53.6033ZM229.918 52.6191C229.666 52.4677 229.389 52.3163 229.138 52.1901C226.017 50.6002 223.198 50.3983 221.008 51.3825C220.63 51.5592 220.253 51.7611 219.9 52.0134C217.937 53.4014 216.704 55.9503 216.502 59.433C216.477 59.7106 216.477 60.0134 216.477 60.3162C216.477 60.6191 216.477 60.9219 216.502 61.2248C216.88 69.5528 222.719 79.3698 229.843 83.4834C236.966 87.5969 242.83 84.5433 243.258 76.6948C243.283 76.3919 243.283 76.1143 243.283 75.8115C243.283 75.5086 243.283 75.2058 243.258 74.903C242.906 66.8777 237.469 57.4645 230.698 53.0986C230.447 52.9219 230.195 52.7705 229.918 52.6191Z" fill="white"/>
<path d="M159.216 52.0632V54.6374L151.388 59.1799V56.6058L159.216 52.0632Z" fill="white"/>
<path d="M159.216 64.48V67.0541L151.388 71.5967V69.0226L159.216 64.48Z" fill="white"/>
<path d="M159.216 76.896V79.4954L151.388 84.0379V81.4386L159.216 76.896Z" fill="white"/>
<path d="M159.216 57.5403V60.1396L151.388 64.6822V62.0829L159.216 57.5403Z" fill="#73069F" fill-opacity="0.9939"/>
<path d="M159.216 69.9814V72.5556L151.388 77.0982V74.524L159.216 69.9814Z" fill="#73069F" fill-opacity="0.9939"/>
<path d="M159.216 82.3982V84.9723L151.388 89.5149V86.9408L159.216 82.3982Z" fill="#73069F" fill-opacity="0.9939"/>
<path d="M86.2231 155.432C84.8136 155.432 83.3789 155.079 82.1204 154.347L62.6641 143.066C61.7076 142.511 61.1287 141.527 61.1287 140.417C61.1287 139.306 61.7076 138.322 62.6641 137.767L85.8707 124.341C86.1979 124.164 86.6007 124.265 86.7768 124.593C86.953 124.921 86.8524 125.325 86.5251 125.502L63.3185 138.928C62.7899 139.23 62.4627 139.786 62.4627 140.417C62.4627 141.047 62.7899 141.603 63.3185 141.906L82.7748 153.161C84.8891 154.372 87.5068 154.398 89.6211 153.161L99.2611 147.584C99.5883 147.407 99.9911 147.508 100.167 147.836C100.343 148.164 100.243 148.568 99.9156 148.745L90.2755 154.322C89.0673 155.079 87.6326 155.432 86.2231 155.432Z" fill="url(#paint13_linear_1131_39501)"/>
<path d="M86.2231 170.801C84.6626 170.801 83.1021 170.397 81.6925 169.59L35.0527 142.587C34.2724 142.133 33.7942 141.325 33.7942 140.391C33.7942 139.483 34.2724 138.65 35.0527 138.196L85.8707 108.77C86.198 108.593 86.6007 108.694 86.7769 109.022C86.953 109.35 86.8524 109.754 86.5252 109.931L35.7322 139.407C35.3547 139.609 35.1533 140.013 35.1533 140.442C35.1533 140.871 35.3799 141.249 35.7322 141.476L82.3721 168.48C84.7633 169.868 87.7081 169.868 90.0741 168.48L112.677 155.407C113.004 155.23 113.407 155.331 113.583 155.659C113.759 155.987 113.658 156.391 113.331 156.568L90.7537 169.59C89.3694 170.397 87.7837 170.801 86.2231 170.801Z" fill="url(#paint14_linear_1131_39501)"/>
<path d="M296.87 61.1233L319.951 74.2968L331.479 80.8835L334.373 82.5239C334.852 82.8015 335.33 83.0538 335.808 83.3567C336.286 83.6595 336.765 83.9876 337.192 84.3661C337.62 84.7447 337.998 85.1737 338.325 85.6784C338.652 86.1579 338.904 86.7131 339.03 87.2936C339.307 88.4545 339.005 89.7163 338.375 90.7005C337.746 91.6847 336.84 92.4671 335.884 93.0728C334.927 93.6532 333.971 94.2084 333.014 94.7636L327.275 98.1201L315.823 104.858L292.919 118.309L247.034 145.136L201.124 171.937L155.189 198.662L143.711 205.325L137.972 208.656C135.934 209.792 133.694 210.397 131.428 210.599C130.296 210.726 129.163 210.7 128.03 210.625C126.898 210.549 125.765 210.347 124.658 210.069C123.55 209.792 122.468 209.388 121.436 208.833L121.058 208.631L120.706 208.429L119.976 208L118.541 207.192L107.064 200.505L61.1538 173.729L38.224 160.303L15.3193 146.852L38.4002 160.025L61.4558 173.224L107.542 199.697L119.07 206.309L120.504 207.142L121.234 207.546L121.587 207.748L121.939 207.924C122.87 208.429 123.877 208.808 124.909 209.06C125.941 209.312 126.998 209.514 128.081 209.565C129.163 209.64 130.245 209.64 131.302 209.514C133.442 209.312 135.556 208.732 137.394 207.697L143.132 204.341L154.61 197.628L200.52 170.852L246.43 144.101L292.415 117.451L315.42 104.152L326.923 97.4891L332.662 94.1579C333.618 93.6027 334.6 93.0475 335.531 92.4923C336.437 91.9371 337.268 91.2305 337.847 90.3472C338.426 89.4892 338.677 88.404 338.451 87.3945C338.25 86.3851 337.595 85.4766 336.815 84.7447C336.412 84.3914 335.984 84.0633 335.531 83.7857C335.078 83.5081 334.575 83.2305 334.097 82.9529L331.227 81.2621L319.775 74.5491L296.87 61.1233Z" fill="url(#paint15_linear_1131_39501)"/>
<path opacity="0.19" d="M106.384 132.593C106.384 132.593 106.283 132.593 106.283 132.492V77.7536C106.283 75.5328 107.466 73.4634 109.405 72.353L183.908 29.2237C184.008 29.1733 184.134 29.1228 184.235 29.1228C184.562 29.1228 184.914 29.3752 184.914 29.8042V86.6369C184.914 86.965 184.738 87.2678 184.461 87.4445L106.409 132.567L106.384 132.593Z" fill="url(#paint16_linear_1131_39501)"/>
<path opacity="0.19" d="M112.928 135.874C112.928 135.874 112.828 135.874 112.828 135.773V81.0351C112.828 78.8143 114.011 76.7449 115.949 75.6345L190.452 32.5052C190.553 32.4548 190.678 32.4043 190.779 32.4043C191.106 32.4043 191.459 32.6567 191.459 33.0857V89.9184C191.459 90.2465 191.282 90.5493 191.006 90.7259L112.954 135.849L112.928 135.874Z" fill="url(#paint17_linear_1131_39501)"/>
<defs>
<linearGradient id="paint0_linear_1131_39501" x1="224.424" y1="408.246" x2="-67.9263" y2="134.717" gradientUnits="userSpaceOnUse">
<stop stop-color="#F37803"/>
<stop offset="1" stop-color="#5A310A"/>
</linearGradient>
<linearGradient id="paint1_linear_1131_39501" x1="0.00012207" y1="111.683" x2="338.819" y2="111.683" gradientUnits="userSpaceOnUse">
<stop stop-color="#F57A00"/>
<stop offset="1" stop-color="#7103A4"/>
</linearGradient>
<linearGradient id="paint2_linear_1131_39501" x1="15.3193" y1="169.217" x2="339.133" y2="169.217" gradientUnits="userSpaceOnUse">
<stop stop-color="#F57A00"/>
<stop offset="1" stop-color="#7103A4"/>
</linearGradient>
<linearGradient id="paint3_linear_1131_39501" x1="251.231" y1="71.8878" x2="282.347" y2="71.8878" gradientUnits="userSpaceOnUse">
<stop stop-color="#F57A00"/>
<stop offset="1" stop-color="#7103A4"/>
</linearGradient>
<linearGradient id="paint4_linear_1131_39501" x1="202.004" y1="33.956" x2="280.113" y2="33.956" gradientUnits="userSpaceOnUse">
<stop stop-color="#F57A00"/>
<stop offset="1" stop-color="#7103A4"/>
</linearGradient>
<linearGradient id="paint5_linear_1131_39501" x1="247.49" y1="-13.1325" x2="239.849" y2="43.8027" gradientUnits="userSpaceOnUse">
<stop stop-color="#F6921E"/>
<stop offset="1" stop-color="#C0272D"/>
</linearGradient>
<linearGradient id="paint6_linear_1131_39501" x1="201.954" y1="65.554" x2="255.541" y2="65.554" gradientUnits="userSpaceOnUse">
<stop stop-color="#F57A00"/>
<stop offset="1" stop-color="#7103A4"/>
</linearGradient>
<linearGradient id="paint7_linear_1131_39501" x1="94.6552" y1="134.897" x2="101.928" y2="131.577" gradientUnits="userSpaceOnUse">
<stop/>
<stop offset="1" stop-color="#0071BB"/>
</linearGradient>
<linearGradient id="paint8_linear_1131_39501" x1="99.4209" y1="121.036" x2="165.209" y2="43.0452" gradientUnits="userSpaceOnUse">
<stop/>
<stop offset="1" stop-color="#242424"/>
</linearGradient>
<linearGradient id="paint9_linear_1131_39501" x1="188.073" y1="156.175" x2="111.245" y2="75.2262" gradientUnits="userSpaceOnUse">
<stop/>
<stop offset="0.9649" stop-color="#F1F1F1"/>
<stop offset="1" stop-color="#0071BB"/>
</linearGradient>
<linearGradient id="paint10_linear_1131_39501" x1="96.5078" y1="126.785" x2="227.59" y2="126.785" gradientUnits="userSpaceOnUse">
<stop stop-color="#F57A00"/>
<stop offset="1" stop-color="#7103A4"/>
</linearGradient>
<linearGradient id="paint11_linear_1131_39501" x1="95.9635" y1="80.3528" x2="174.594" y2="80.3528" gradientUnits="userSpaceOnUse">
<stop stop-color="#F57A00"/>
<stop offset="1" stop-color="#7103A4"/>
</linearGradient>
<linearGradient id="paint12_linear_1131_39501" x1="106.032" y1="88.1388" x2="144.265" y2="88.1388" gradientUnits="userSpaceOnUse">
<stop stop-color="#F57A00"/>
<stop offset="1" stop-color="#7103A4"/>
</linearGradient>
<linearGradient id="paint13_linear_1131_39501" x1="61.1287" y1="139.843" x2="100.253" y2="139.843" gradientUnits="userSpaceOnUse">
<stop stop-color="#F57A00"/>
<stop offset="1" stop-color="#7103A4"/>
</linearGradient>
<linearGradient id="paint14_linear_1131_39501" x1="33.7942" y1="139.742" x2="113.669" y2="139.742" gradientUnits="userSpaceOnUse">
<stop stop-color="#F57A00"/>
<stop offset="1" stop-color="#7103A4"/>
</linearGradient>
<linearGradient id="paint15_linear_1131_39501" x1="15.3193" y1="135.905" x2="339.133" y2="135.905" gradientUnits="userSpaceOnUse">
<stop stop-color="#F57A00"/>
<stop offset="1" stop-color="#7103A4"/>
</linearGradient>
<linearGradient id="paint16_linear_1131_39501" x1="106.283" y1="80.8572" x2="184.914" y2="80.8572" gradientUnits="userSpaceOnUse">
<stop stop-color="#F57A00"/>
<stop offset="1" stop-color="#7103A4"/>
</linearGradient>
<linearGradient id="paint17_linear_1131_39501" x1="112.828" y1="84.1387" x2="191.459" y2="84.1387" gradientUnits="userSpaceOnUse">
<stop stop-color="#F57A00"/>
<stop offset="1" stop-color="#7103A4"/>
</linearGradient>
</defs>
</svg>
