<svg width="359" height="187" viewBox="0 0 359 187" fill="none" xmlns="http://www.w3.org/2000/svg">
<path d="M59.1238 41.4507C54.1237 41.4507 50.006 45.5264 50.006 50.5685V174.731C50.006 179.731 54.0817 183.849 59.1238 183.849H119.965C124.966 183.849 129.083 179.773 129.083 174.731V50.5685C129.083 45.5684 125.008 41.4507 119.965 41.4507" fill="#212121"/>
<path d="M125.47 174.731C125.47 177.756 122.991 180.235 119.966 180.235H59.124C57.0651 180.235 55.2584 179.101 54.334 177.42C53.8718 176.622 53.6197 175.697 53.6197 174.731V50.5684C53.6197 49.602 53.8718 48.6776 54.334 47.8793C55.3004 46.1986 57.0651 45.0641 59.124 45.0641H119.966C122.991 45.0641 125.47 47.5431 125.47 50.5684V174.731Z" fill="#7A7DFF"/>
<path d="M123.831 41.4504C128.831 41.4504 132.907 45.5262 132.907 50.5683V174.731C132.907 179.731 128.831 183.849 123.831 183.849H119.965C124.965 183.849 129.083 179.773 129.083 174.731V50.5683C129.083 45.5682 125.007 41.4504 119.965 41.4504" fill="#383C43"/>
<path d="M119.966 45.0216H59.124C57.0651 45.0216 55.2584 46.1561 54.334 47.8368C53.8718 48.6351 53.6197 49.5595 53.6197 50.5259V174.688C53.6197 175.655 53.8718 176.579 54.334 177.377C55.3004 179.058 57.0651 180.193 59.124 180.193H119.966C122.991 180.193 125.47 177.714 125.47 174.688V50.5679C125.47 47.5007 122.991 45.0216 119.966 45.0216Z" fill="url(#paint0_linear_1131_25071)"/>
<path d="M104.629 67.3752H29.3753V142.629H104.629V67.3752Z" fill="#A0A1DF"/>
<path d="M101.981 64.7283H26.7277V139.982H101.981V64.7283Z" fill="url(#paint1_linear_1131_25071)"/>
<path d="M101.981 64.7283H26.7277V73.51H101.981V64.7283Z" fill="#212121"/>
<path d="M38.451 69.0982C38.451 70.1907 37.5686 71.0731 36.4762 71.0731C35.3837 71.0731 34.5013 70.1907 34.5013 69.0982C34.5013 68.0058 35.3837 67.1234 36.4762 67.1234C37.5686 67.1234 38.451 68.0058 38.451 69.0982Z" fill="white"/>
<path d="M44.3756 69.0982C44.3756 70.1907 43.4933 71.0731 42.4008 71.0731C41.3083 71.0731 40.426 70.1907 40.426 69.0982C40.426 68.0058 41.3083 67.1234 42.4008 67.1234C43.4933 67.1234 44.3756 68.0058 44.3756 69.0982Z" fill="#EEEFFF"/>
<path d="M50.342 69.0982C50.342 70.1907 49.4596 71.0731 48.3671 71.0731C47.2747 71.0731 46.3923 70.1907 46.3923 69.0982C46.3923 68.0058 47.2747 67.1234 48.3671 67.1234C49.4596 67.1234 50.342 68.0058 50.342 69.0982Z" fill="#EEEFFF"/>
<path d="M118.705 109.393H37.0225V128.091H118.705V109.393Z" fill="#F57A00"/>
<path d="M116.058 106.746H34.3753V125.444H116.058V106.746Z" fill="#EEEFFF"/>
<path d="M56.2667 119.268L53.5355 117.419L53.7456 120.696H51.8128L52.0229 117.377L49.2917 119.225L48.3253 117.545L51.2666 116.074L48.3253 114.646L49.2917 112.965L51.9809 114.772L51.7708 111.536H53.7036L53.4935 114.772L56.1826 113.007L57.149 114.688L54.2078 116.116L57.149 117.587L56.2667 119.268Z" fill="url(#paint2_linear_1131_25071)" fill-opacity="0.8"/>
<path d="M71.2245 119.268L68.4934 117.419L68.7035 120.696H66.7706L66.9807 117.377L64.2496 119.226L63.2832 117.545L66.2244 116.074L63.2832 114.646L64.2496 112.965L66.9387 114.772L66.7286 111.536H68.6614L68.4514 114.772L71.1405 113.007L72.1069 114.688L69.1657 116.116L72.1069 117.587L71.2245 119.268Z" fill="url(#paint3_linear_1131_25071)" fill-opacity="0.8"/>
<path d="M86.1829 119.268L83.4518 117.419L83.6619 120.696H81.729L81.9391 117.377L79.208 119.226L78.2416 117.545L81.1828 116.074L78.2416 114.646L79.208 112.965L81.8971 114.772L81.687 111.536H83.6198L83.4098 114.772L86.0989 113.007L87.0653 114.688L84.1241 116.116L87.0653 117.587L86.1829 119.268Z" fill="url(#paint4_linear_1131_25071)" fill-opacity="0.8"/>
<path d="M101.141 119.268L98.4101 117.419L98.6202 120.696H96.6874L96.8975 117.377L94.1664 119.226L93.2 117.545L96.1412 116.074L93.2 114.646L94.1664 112.965L96.8555 114.772L96.6454 111.536H98.5782L98.3681 114.772L101.057 113.007L102.024 114.688L99.0824 116.116L102.024 117.587L101.141 119.268Z" fill="url(#paint5_linear_1131_25071)" fill-opacity="0.8"/>
<path d="M78.2838 83.7625H34.5013V88.1743H78.2838V83.7625Z" fill="#EEEFFF"/>
<path d="M91.1412 90.3174H34.5013V94.7292H91.1412V90.3174Z" fill="#EEEFFF"/>
<path d="M91.1412 96.8719H34.5013V101.284H91.1412V96.8719Z" fill="#EEEFFF"/>
<path d="M330.674 187H1.32646C0.593418 187 0 186.329 0 185.5C0 184.671 0.593418 184 1.32646 184H330.674C331.407 184 332 184.671 332 185.5C332 186.329 331.407 187 330.674 187Z" fill="#212121"/>
<path d="M348.836 35.6104H166.773C164.042 35.6104 161.731 37.5011 161.142 40.1903L133.831 170.529H327.617L352.575 51.325L354.424 42.5433C355.18 38.9718 352.449 35.6104 348.836 35.6104Z" fill="#383C43"/>
<path d="M137.024 167.924L163.663 40.6943C163.958 39.2657 165.26 38.1732 166.731 38.1732H348.836C349.802 38.1732 350.684 38.5934 351.273 39.3497C351.861 40.106 352.113 41.0304 351.903 41.9548L350.054 50.7365L325.516 167.882H137.024V167.924Z" fill="#212121"/>
<path d="M358.794 42.5013L356.945 51.283L331.987 170.487H327.617L352.575 51.283L354.424 42.5013C355.181 38.9297 352.449 35.6104 348.794 35.6104H353.164C356.819 35.6104 359.55 38.9718 358.794 42.5013Z" fill="#6369E0"/>
<path d="M345.852 43.7614L344.256 51.3245L321.02 162.377H143.873L167.151 51.3245L168.748 43.7614H345.852Z" fill="url(#paint6_linear_1131_25071)"/>
<path d="M331.987 170.487C331.987 174.143 330.516 177.504 328.079 179.899C325.684 182.294 322.365 183.807 318.667 183.807H254.296C257.952 183.807 261.313 182.336 263.708 179.899C266.103 177.504 267.616 174.143 267.616 170.487H331.987Z" fill="#3E3F41"/>
<path d="M268.288 170.487C268.288 174.143 266.817 177.504 264.38 179.899C261.985 182.294 258.624 183.807 254.968 183.807H69.7121C62.359 183.807 56.3925 177.84 56.3925 170.487H268.288Z" fill="#383C43"/>
<path opacity="0.25" d="M189.126 170.487C189.126 171.412 188.748 172.252 188.16 172.882C187.571 173.513 186.689 173.849 185.765 173.849H138.915C137.066 173.849 135.554 172.336 135.554 170.487H189.126Z" fill="#3C3B3B"/>
<path d="M197.992 144.562L206.942 101.914C207.404 99.7295 209.547 97.9647 211.732 97.9647H288.666C290.851 97.9647 292.238 99.7295 291.775 101.914L282.826 144.562C282.364 146.747 280.221 148.512 278.036 148.512H201.101C198.916 148.512 197.53 146.747 197.992 144.562Z" fill="#F57A00"/>
<path d="M274.8 119.52H216.521C214.505 119.52 213.202 117.881 213.622 115.864L214.589 111.242C215.009 109.225 216.984 107.587 219.001 107.587H277.279C279.296 107.587 280.599 109.225 280.178 111.242L279.212 115.864C278.792 117.881 276.817 119.52 274.8 119.52Z" fill="white"/>
<path d="M270.724 138.89H212.446C210.429 138.89 209.126 137.251 209.547 135.235L210.513 130.613C210.933 128.596 212.908 126.957 214.925 126.957H273.203C275.22 126.957 276.523 128.596 276.103 130.613L275.136 135.235C274.716 137.293 272.741 138.89 270.724 138.89Z" fill="white"/>
<path d="M225.009 134.562L223.79 133.596L223.538 135.277H222.53L222.992 133.554L221.395 134.52L221.059 133.68L222.74 132.924L221.395 132.167L222.068 131.285L223.244 132.209L223.496 130.529H224.505L224.043 132.209L225.639 131.285L225.975 132.125L224.295 132.882L225.681 133.638L225.009 134.562Z" fill="#7103A4"/>
<path d="M232.698 134.562L231.48 133.596L231.228 135.277H230.219L230.681 133.554L229.085 134.52L228.749 133.68L230.429 132.924L229.085 132.167L229.757 131.285L230.933 132.209L231.186 130.529H232.194L231.732 132.209L233.328 131.285L233.665 132.125L231.984 132.882L233.371 133.638L232.698 134.562Z" fill="#7103A4"/>
<path d="M240.43 134.562L239.211 133.596L238.959 135.277H237.951L238.413 133.554L236.816 134.52L236.48 133.68L238.161 132.924L236.816 132.167L237.489 131.285L238.665 132.21L238.917 130.529H239.926L239.463 132.21L241.06 131.285L241.396 132.125L239.715 132.882L241.102 133.638L240.43 134.562Z" fill="#7103A4"/>
<path d="M248.161 134.562L246.942 133.596L246.69 135.277H245.682L246.144 133.554L244.547 134.52L244.211 133.68L245.892 132.924L244.547 132.167L245.22 131.285L246.396 132.209L246.648 130.529H247.657L247.194 132.209L248.791 131.285L249.127 132.125L247.447 132.882L248.833 133.638L248.161 134.562Z" fill="#7103A4"/>
<path d="M255.85 134.562L254.632 133.596L254.379 135.277H253.371L253.833 133.554L252.237 134.52L251.9 133.68L253.581 132.924L252.237 132.167L252.909 131.285L254.085 132.209L254.337 130.529H255.346L254.884 132.209L256.48 131.285L256.816 132.125L255.136 132.882L256.522 133.638L255.85 134.562Z" fill="#7103A4"/>
<path d="M263.581 134.562L262.363 133.596L262.111 135.277H261.102L261.565 133.554L259.968 134.52L259.632 133.68L261.312 132.924L259.968 132.167L260.64 131.285L261.817 132.209L262.069 130.529H263.077L262.615 132.209L264.212 131.285L264.548 132.125L262.867 132.882L264.254 133.638L263.581 134.562Z" fill="#7103A4"/>
<path d="M267.027 115.948H225.807C225.261 115.948 224.925 115.486 225.009 114.982L225.597 112.208C225.723 111.662 226.228 111.242 226.774 111.242H267.993C268.539 111.242 268.876 111.704 268.792 112.208L268.203 114.982C268.077 115.486 267.531 115.948 267.027 115.948Z" fill="#F2C2F9"/>
<path d="M265.056 84.8328C272.505 78.1232 274.136 67.7918 268.7 61.7572C263.264 55.7225 252.819 56.2697 245.37 62.9794C237.922 69.689 236.29 80.0204 241.727 86.055C247.163 92.0897 257.608 91.5425 265.056 84.8328Z" fill="white"/>
<path d="M260.935 68.5941C260.388 71.1151 257.783 73.8463 255.262 73.8463C252.741 73.8463 251.271 71.1151 251.775 68.5941C252.321 66.073 254.716 64.2662 257.279 64.2662C259.758 64.2662 261.439 66.073 260.935 68.5941Z" fill="url(#paint7_linear_1131_25071)"/>
<path d="M247.531 83.5939H258.708C259.884 83.5939 261.103 82.8376 261.691 81.7031L262.7 79.8123C263.414 78.4257 263.036 76.9551 261.775 76.4509C257.573 74.7702 252.825 74.9803 247.657 76.619C246.229 77.0812 245.178 78.5098 245.262 79.8964L245.388 81.6191C245.388 82.7536 246.313 83.5939 247.531 83.5939Z" fill="url(#paint8_linear_1131_25071)"/>
<path d="M358.749 4.60094V54.9382C358.749 58.3836 357.783 61.7451 355.976 64.6863C354.505 67.0393 353.077 68.8461 351.9 70.2326C349.589 72.8798 347.236 74.8126 342.446 78.7622C340.976 79.9808 338.539 81.9976 335.135 84.4767C330.303 88.0482 325.597 91.0734 321.143 93.6365H316.605L306.857 84.2246C303.622 81.8295 301.269 79.8967 299.882 78.7202C297.109 76.4092 295.134 74.8126 293.538 73.342C292.361 72.2915 291.395 71.2831 290.428 70.1906C290.386 70.1486 290.386 70.1486 290.344 70.1066C289.168 68.762 287.781 66.9553 286.353 64.6443C284.546 61.703 283.579 58.3416 283.579 54.8962V4.60094L304.252 1.32356C315.429 -0.441186 326.858 -0.441186 338.034 1.32356L354.925 4.01269L358.749 4.60094Z" fill="#8860FF"/>
<path d="M354.212 4.60082V54.896C354.212 58.3415 353.245 61.7449 351.438 64.6441C349.968 66.9971 348.539 68.8459 347.363 70.1905C345.052 72.8376 342.657 74.8124 337.909 78.7201C336.438 79.9386 334.001 81.9555 330.598 84.4345C325.766 88.006 321.06 91.0313 316.606 93.5944C312.152 91.0313 307.446 87.964 302.614 84.4345C299.252 81.9555 296.773 79.9386 295.303 78.7201C292.53 76.4091 290.555 74.8124 288.958 73.3418C287.782 72.2914 286.815 71.283 285.849 70.1905C285.807 70.1485 285.807 70.1485 285.765 70.1065C284.588 68.7619 283.202 66.9551 281.773 64.6441C279.966 61.7029 279 58.3415 279 54.896V4.60082L299.715 1.32344C310.891 -0.441308 322.32 -0.441308 333.497 1.32344L350.388 4.01257L354.212 4.60082Z" fill="#7103A4"/>
<path d="M316.647 88.0902C312.824 85.7792 309.084 83.2582 305.471 80.611C302.151 78.174 299.714 76.1572 298.37 75.0647C293.832 71.3251 291.521 69.4343 289.504 67.0813C289.462 67.0393 289.42 66.9973 289.378 66.9553C288.117 65.4847 286.941 63.888 285.891 62.1653C284.546 59.9803 283.832 57.4593 283.832 54.8962V8.67669L300.513 6.02957C305.849 5.18922 311.269 4.76904 316.647 4.76904C322.026 4.76904 327.488 5.18922 332.782 6.02957L349.463 8.67669V54.9382C349.463 57.5013 348.749 60.0224 347.404 62.2073C346.312 63.972 345.094 65.6107 343.791 67.1234C341.732 69.4763 339.463 71.3671 334.883 75.1067C333.581 76.1992 331.102 78.216 327.782 80.6531C324.211 83.3002 320.471 85.7792 316.647 88.0902Z" fill="#7103A4"/>
<path d="M316.648 84.7711C313.412 82.7542 310.219 80.6113 307.152 78.3423C303.916 75.9473 301.479 73.9725 300.177 72.88C295.723 69.2245 293.496 67.3757 291.647 65.2328C291.605 65.1908 291.563 65.1488 291.521 65.0647C290.344 63.7202 289.294 62.2495 288.328 60.6529C287.277 58.9301 286.689 56.9133 286.689 54.8964V11.114L300.933 8.845C306.101 8.00465 311.395 7.58447 316.648 7.58447C321.9 7.58447 327.152 8.00465 332.362 8.845L346.606 11.114V54.9385C346.606 56.9553 346.06 58.9722 344.967 60.6949C343.959 62.3336 342.867 63.8462 341.648 65.2328C339.757 67.4177 337.53 69.2245 333.076 72.9221C331.774 74.0145 329.379 75.9894 326.102 78.3844C323.034 80.5693 319.883 82.7542 316.648 84.7711Z" fill="white"/>
<path d="M334.421 39.6861C334.085 31.1145 327.068 24.3076 318.454 24.3076C309.631 24.3076 302.446 31.4506 302.446 40.3164C302.446 49.1401 309.589 56.3251 318.454 56.3251C319.589 56.3251 320.681 56.1991 321.732 55.989C329.001 54.4764 334.421 48.0476 334.421 40.3164C334.421 40.0643 334.421 39.8962 334.421 39.6861Z" fill="url(#paint9_linear_1131_25071)" fill-opacity="0.8"/>
<path d="M332.614 38.4673C332.614 46.1565 327.152 52.5852 319.925 54.1399C318.874 54.35 317.74 54.476 316.647 54.476C307.824 54.476 300.639 47.333 300.639 38.4673C300.639 29.6435 307.782 22.4585 316.647 22.4585C325.261 22.4585 332.32 29.3074 332.614 37.837C332.614 38.0891 332.614 38.2572 332.614 38.4673Z" fill="url(#paint10_linear_1131_25071)"/>
<path d="M326.732 31.9966C325.723 30.9881 324.043 30.9881 323.034 31.9966L314.085 40.9043L310.303 37.1227C309.295 36.1143 307.614 36.1143 306.605 37.1227C305.597 38.1311 305.597 39.8119 306.605 40.8203L312.236 46.4507C312.74 46.9549 313.37 47.207 314.085 47.207C314.757 47.207 315.429 46.9128 315.933 46.4507L326.732 35.6941C327.74 34.6437 327.74 33.005 326.732 31.9966Z" fill="white"/>
<defs>
<linearGradient id="paint0_linear_1131_25071" x1="53.6197" y1="112.606" x2="125.47" y2="112.606" gradientUnits="userSpaceOnUse">
<stop stop-color="#F57A00"/>
<stop offset="1" stop-color="#7103A4"/>
</linearGradient>
<linearGradient id="paint1_linear_1131_25071" x1="26.7277" y1="102.355" x2="101.981" y2="102.355" gradientUnits="userSpaceOnUse">
<stop stop-color="#F57A00"/>
<stop offset="1" stop-color="#7103A4"/>
</linearGradient>
<linearGradient id="paint2_linear_1131_25071" x1="54.1699" y1="128.384" x2="42.9665" y2="122.514" gradientUnits="userSpaceOnUse">
<stop stop-color="#7103A4"/>
<stop offset="1" stop-color="#3C0754"/>
</linearGradient>
<linearGradient id="paint3_linear_1131_25071" x1="69.1278" y1="128.384" x2="57.9243" y2="122.515" gradientUnits="userSpaceOnUse">
<stop stop-color="#7103A4"/>
<stop offset="1" stop-color="#3C0754"/>
</linearGradient>
<linearGradient id="paint4_linear_1131_25071" x1="84.0862" y1="128.384" x2="72.8827" y2="122.515" gradientUnits="userSpaceOnUse">
<stop stop-color="#7103A4"/>
<stop offset="1" stop-color="#3C0754"/>
</linearGradient>
<linearGradient id="paint5_linear_1131_25071" x1="99.0445" y1="128.384" x2="87.8411" y2="122.515" gradientUnits="userSpaceOnUse">
<stop stop-color="#7103A4"/>
<stop offset="1" stop-color="#3C0754"/>
</linearGradient>
<linearGradient id="paint6_linear_1131_25071" x1="143.873" y1="103.069" x2="345.852" y2="103.069" gradientUnits="userSpaceOnUse">
<stop stop-color="#F57A00"/>
<stop offset="1" stop-color="#7103A4"/>
</linearGradient>
<linearGradient id="paint7_linear_1131_25071" x1="251.676" y1="69.0562" x2="261.024" y2="69.0562" gradientUnits="userSpaceOnUse">
<stop stop-color="#F57A00"/>
<stop offset="1" stop-color="#7103A4"/>
</linearGradient>
<linearGradient id="paint8_linear_1131_25071" x1="245.257" y1="79.44" x2="263.057" y2="79.44" gradientUnits="userSpaceOnUse">
<stop stop-color="#F57A00"/>
<stop offset="1" stop-color="#7103A4"/>
</linearGradient>
<linearGradient id="paint9_linear_1131_25071" x1="323.625" y1="83.197" x2="283.67" y2="61.4957" gradientUnits="userSpaceOnUse">
<stop stop-color="#7103A4"/>
<stop offset="1" stop-color="#3C0754"/>
</linearGradient>
<linearGradient id="paint10_linear_1131_25071" x1="300.639" y1="38.4671" x2="332.614" y2="38.4671" gradientUnits="userSpaceOnUse">
<stop stop-color="#F57A00"/>
<stop offset="1" stop-color="#7103A4"/>
</linearGradient>
</defs>
</svg>
