<svg width="312" height="222" viewBox="0 0 312 222" fill="none" xmlns="http://www.w3.org/2000/svg">
<path d="M200.177 221.579H112.631C109.6 221.579 107.159 219.122 107.159 216.109V186.823H205.665V216.109C205.648 219.122 203.207 221.579 200.177 221.579Z" fill="#272727"/>
<path d="M200.177 221.832H112.631C109.466 221.832 106.907 219.256 106.907 216.109V186.823C106.907 186.688 107.025 186.57 107.159 186.57H205.665C205.8 186.57 205.918 186.688 205.918 186.823V216.109C205.901 219.256 203.342 221.832 200.177 221.832ZM107.395 187.075V216.109C107.395 218.987 109.735 221.327 112.614 221.327H200.16C203.039 221.327 205.379 218.987 205.379 216.109V187.075H107.395Z" fill="#292929"/>
<path d="M201.574 199.699H111.233C111.099 199.699 110.981 199.581 110.981 199.446C110.981 199.311 111.099 199.194 111.233 199.194H201.574C201.709 199.194 201.827 199.311 201.827 199.446C201.827 199.581 201.709 199.699 201.574 199.699Z" fill="white"/>
<path d="M290.197 181.016V188.64C290.197 191.266 288.076 193.387 285.449 193.387H27.3576C24.7312 193.387 22.6099 191.266 22.6099 188.64V181.016H290.197Z" fill="#271E2C"/>
<path d="M285.45 193.656H27.3579C24.5969 193.656 22.3577 191.418 22.3577 188.657V181.033C22.3577 180.898 22.4756 180.78 22.6103 180.78C22.7449 180.78 22.8628 180.898 22.8628 181.033V188.657C22.8628 191.131 24.8831 193.151 27.3579 193.151H285.45C287.924 193.151 289.945 191.131 289.945 188.657V181.033C289.945 180.898 290.063 180.78 290.197 180.78C290.332 180.78 290.45 180.898 290.45 181.033V188.657C290.45 191.401 288.211 193.656 285.45 193.656Z" fill="#DFDFDF"/>
<path d="M290.197 182.076H22.6099V27.7002C22.6099 24.6874 25.0511 22.2637 28.0479 22.2637H284.742C287.756 22.2637 290.18 24.7042 290.18 27.7002V182.076H290.197Z" fill="#2E2D30"/>
<path d="M290.197 182.329H22.6103C22.4756 182.329 22.3577 182.211 22.3577 182.076V27.7002C22.3577 24.5527 24.9168 22.0112 28.0482 22.0112H284.742C287.891 22.0112 290.433 24.5696 290.433 27.7002V182.076C290.45 182.211 290.332 182.329 290.197 182.329ZM22.8628 181.824H289.945V27.7002C289.945 24.8389 287.621 22.5162 284.759 22.5162H28.0482C25.1861 22.5162 22.8628 24.8389 22.8628 27.7002V181.824Z" fill="#D3D3D3"/>
<path d="M280.719 45.373H32.0887V173.509H280.719V45.373Z" fill="url(#paint0_linear_1131_24955)"/>
<path d="M280.719 173.779H32.0888C31.9541 173.779 31.8362 173.661 31.8362 173.526V45.3731C31.8362 45.2384 31.9541 45.1206 32.0888 45.1206H280.719C280.853 45.1206 280.971 45.2384 280.971 45.3731V173.509C280.971 173.661 280.853 173.779 280.719 173.779ZM32.3413 173.274H280.466V45.6255H32.3413V173.274Z" fill="#292929"/>
<path d="M280.719 31.3359H32.0887V45.3732H280.719V31.3359Z" fill="#191919"/>
<path d="M280.719 45.6252H32.0888C31.9541 45.6252 31.8362 45.5074 31.8362 45.3727V31.3355C31.8362 31.2008 31.9541 31.083 32.0888 31.083H280.719C280.853 31.083 280.971 31.2008 280.971 31.3355V45.3727C280.971 45.5242 280.853 45.6252 280.719 45.6252ZM32.3413 45.1203H280.466V31.5879H32.3413V45.1203Z" fill="#292929"/>
<path d="M32.0886 45.6255C31.9371 45.6255 31.8193 45.5077 31.8193 45.3731C31.8193 45.2384 31.9371 45.1206 32.0718 45.1206C32.2065 45.1206 32.3243 45.2384 32.3243 45.3731C32.3412 45.5246 32.2233 45.6255 32.0886 45.6255Z" fill="#292929"/>
<path d="M40.4392 39.061C41.0622 39.061 41.5672 38.5562 41.5672 37.9334C41.5672 37.3105 41.0622 36.8057 40.4392 36.8057C39.8162 36.8057 39.3112 37.3105 39.3112 37.9334C39.3112 38.5562 39.8162 39.061 40.4392 39.061Z" fill="#292929"/>
<path d="M46.7527 38.0347C46.7527 38.6574 46.2476 39.1624 45.6247 39.1624C45.0018 39.1624 44.4967 38.6574 44.4967 38.0347C44.4967 37.4119 45.0018 36.907 45.6247 36.907C46.2476 36.9238 46.7527 37.4288 46.7527 38.0347Z" fill="#292929"/>
<path d="M51.9548 38.1355C51.9548 38.7583 51.4498 39.2632 50.8268 39.2632C50.2039 39.2632 49.6989 38.7583 49.6989 38.1355C49.6989 37.5127 50.2039 37.0078 50.8268 37.0078C51.4498 37.0246 51.9548 37.5296 51.9548 38.1355Z" fill="#292929"/>
<path d="M311.276 221.999H0.252475C0.117789 221.999 -6.10352e-05 221.882 -6.10352e-05 221.747C-6.10352e-05 221.612 0.117789 221.494 0.252475 221.494H311.276C311.41 221.494 311.528 221.612 311.528 221.747C311.528 221.882 311.41 221.999 311.276 221.999Z" fill="#292929"/>
<path d="M297.723 57.3733H234.016C232.703 57.3733 231.642 58.4337 231.642 59.7465V82.9399C231.642 84.2528 232.703 85.3131 234.016 85.3131H242.165V99.4177L254.909 85.3131H297.74C299.053 85.3131 300.113 84.2528 300.113 82.9399V59.7465C300.097 58.4337 299.036 57.3733 297.723 57.3733Z" fill="url(#paint1_linear_1131_24955)"/>
<path d="M242.148 99.6707C242.115 99.6707 242.081 99.6707 242.064 99.6539C241.963 99.6202 241.896 99.5192 241.896 99.4182V85.5661H234.017C232.569 85.5661 231.39 84.3879 231.39 82.9405V59.747C231.39 58.2995 232.569 57.1213 234.017 57.1213H297.723C299.171 57.1213 300.349 58.2995 300.349 59.747V82.9405C300.349 84.3879 299.171 85.5661 297.723 85.5661H255.011L242.333 99.5865C242.3 99.637 242.216 99.6707 242.148 99.6707ZM234.017 57.6263C232.838 57.6263 231.895 58.5857 231.895 59.747V82.9405C231.895 84.1186 232.855 85.0612 234.017 85.0612H242.165C242.3 85.0612 242.418 85.179 242.418 85.3137V98.7618L254.725 85.1453C254.775 85.0948 254.842 85.0612 254.91 85.0612H297.74C298.918 85.0612 299.861 84.1018 299.861 82.9405V59.747C299.861 58.5688 298.902 57.6263 297.74 57.6263H234.017Z" fill="#292929"/>
<path d="M250.313 75.9389C252.852 75.9389 254.909 73.8817 254.909 71.3439C254.909 68.8062 252.852 66.749 250.313 66.749C247.775 66.749 245.717 68.8062 245.717 71.3439C245.717 73.8817 247.775 75.9389 250.313 75.9389Z" fill="white"/>
<path d="M266.711 75.9389C269.25 75.9389 271.307 73.8817 271.307 71.3439C271.307 68.8062 269.25 66.749 266.711 66.749C264.173 66.749 262.115 68.8062 262.115 71.3439C262.115 73.8817 264.173 75.9389 266.711 75.9389Z" fill="white"/>
<path d="M283.109 75.9389C285.648 75.9389 287.706 73.8817 287.706 71.3439C287.706 68.8062 285.648 66.749 283.109 66.749C280.571 66.749 278.513 68.8062 278.513 71.3439C278.513 73.8817 280.571 75.9389 283.109 75.9389Z" fill="white"/>
<path d="M38.2167 182.48V176.589L72.5448 142.27C75.188 139.628 79.4474 139.628 82.0906 142.27L116.537 176.707V182.48C103.506 193.336 90.458 204.176 77.4271 215.032C64.3458 204.176 51.2813 193.336 38.2167 182.48Z" fill="#F57A00"/>
<path d="M77.4103 215.351L77.2419 215.217L37.9473 182.598V176.488L72.3427 142.102C75.0701 139.375 79.5147 139.375 82.2421 142.102L116.755 176.606V182.598L116.671 182.682L77.4103 215.351ZM38.4692 182.362L77.4271 214.695L116.284 182.362V176.808L81.9054 142.455C79.38 139.931 75.2553 139.931 72.7131 142.455L38.4524 176.707V182.362H38.4692Z" fill="white"/>
<path d="M104.398 153.598V218.062C86.3838 216.378 68.3528 214.678 50.3386 212.995V153.598H104.398Z" fill="url(#paint2_linear_1131_24955)"/>
<path d="M63.0999 172.28L64.5142 170.008L62.0225 168.981L62.4939 167.618L65.1707 168.19L65.4401 165.582H66.989L67.2584 168.19L69.9353 167.618L70.4067 168.981L67.8476 170.008L69.2618 172.28L68.016 173.139L66.1809 171.119L64.329 173.139L63.0999 172.28Z" fill="white"/>
<path d="M74.279 172.28L75.6932 170.008L73.2015 168.981L73.6729 167.618L76.3498 168.19L76.6192 165.582H78.1681L78.4374 168.19L81.1143 167.618L81.5857 168.981L79.0772 170.008L80.4914 172.28L79.2456 173.139L77.4105 171.119L75.5585 173.139L74.279 172.28Z" fill="white"/>
<path d="M85.4579 172.28L86.8721 170.008L84.3804 168.981L84.8518 167.618L87.5287 168.19L87.7981 165.582H89.347L89.6163 168.19L92.2932 167.618L92.7646 168.981L90.2561 170.008L91.6703 172.28L90.4245 173.139L88.5894 171.119L86.7374 173.139L85.4579 172.28Z" fill="white"/>
<path d="M116.52 177.078V221.748H38.2167V176.96L72.6626 211.396C75.3058 214.039 79.5653 214.039 82.2085 211.396L116.52 177.078Z" fill="url(#paint3_linear_1131_24955)"/>
<path d="M116.772 222H37.9644V176.354L72.848 211.228C75.3733 213.753 79.4981 213.753 82.0403 211.228L116.806 176.472V222H116.772ZM38.4694 221.495H116.284V177.683L82.3938 211.565C81.0638 212.894 79.3129 213.618 77.4441 213.618C75.5754 213.618 73.8245 212.894 72.4944 211.565L38.4863 177.566V221.495H38.4694Z" fill="white"/>
<path d="M38.2167 215.857C49.665 204.412 61.0965 192.983 72.5448 181.538C75.188 178.896 79.4474 178.896 82.0906 181.538L116.537 215.975L38.2167 215.857Z" fill="url(#paint4_linear_1131_24955)"/>
<path d="M116.352 216.143L81.9057 181.706C80.6767 180.477 79.0436 179.804 77.3096 179.804C75.5755 179.804 73.9424 180.477 72.7134 181.706L38.3854 216.025L38.0318 215.671L72.3598 181.352C73.6899 180.023 75.4408 179.299 77.3096 179.299C79.1783 179.299 80.9292 180.023 82.2593 181.352L116.705 215.789L116.352 216.143Z" fill="white"/>
<path d="M118.894 8.86614V49.0928C117.294 53.3679 114.163 60.1846 108.035 66.8666C101.284 74.2218 94.0274 78.0593 89.667 79.9613C89.6333 79.9781 89.6165 79.9781 89.5828 79.9949C85.2055 78.0593 77.9998 74.1882 71.2992 66.8666C65.1879 60.1846 62.0396 53.4016 60.4402 49.0928V8.86614C70.1712 6.00483 79.8854 3.14352 89.6165 0.265381C89.6333 0.265381 89.6502 0.282212 89.667 0.282212C99.4149 3.14352 109.163 6.00483 118.894 8.86614Z" fill="url(#paint5_linear_1131_24955)"/>
<path d="M118.894 8.86567V49.0923C117.294 53.3674 114.163 60.1841 108.035 66.8661C101.283 74.2213 94.0273 78.0589 89.6668 79.9608V0.281738C99.4147 3.14305 109.163 6.00436 118.894 8.86567Z" fill="url(#paint6_linear_1131_24955)"/>
<path d="M89.5828 80.2303C89.5491 80.2303 89.5155 80.2303 89.4818 80.2135C82.5623 77.1502 76.2152 72.5889 71.114 67.0178C66.3495 61.8001 62.6793 55.7913 60.2045 49.1598C60.1876 49.1262 60.1876 49.1093 60.1876 49.0757V8.84902C60.1876 8.7312 60.255 8.63021 60.3728 8.61338C70.1039 5.75207 79.8181 2.89076 89.5491 0.0126234C89.5996 -0.00420781 89.6333 -0.00420781 89.6838 0.0126234L89.7175 0.0294547H89.7343C99.4822 2.89076 109.213 5.75207 118.961 8.61338C119.062 8.64705 119.146 8.74803 119.146 8.84902V49.0757C119.146 49.1093 119.146 49.143 119.129 49.1598C116.655 55.8082 112.984 61.8001 108.22 67.0178C103.102 72.5889 96.738 77.1333 89.768 80.1798L89.6838 80.2135C89.6501 80.2303 89.6165 80.2303 89.5828 80.2303ZM60.6927 49.042C63.1507 55.5894 66.7872 61.5308 71.4844 66.6811C76.5014 72.1681 82.7475 76.6789 89.5828 79.7085C96.4686 76.7126 102.782 72.2018 107.85 66.6811C112.564 61.5308 116.2 55.5894 118.641 49.042V9.051C108.978 6.20652 99.297 3.36204 89.6165 0.534392C79.9696 3.37887 70.3396 6.20652 60.6927 9.051V49.042Z" fill="#292929"/>
<path d="M88.5897 15.5309C84.2797 16.81 79.953 18.0724 75.643 19.3515C74.0604 19.8228 72.9661 21.2871 72.9661 22.9366V42.4272C72.9661 42.8984 73.0503 43.3865 73.2355 43.8242C74.2288 46.2815 75.9966 49.8161 79.1785 53.2833C82.2258 56.6159 85.4582 58.703 87.9163 59.9653C88.9937 60.5207 90.2732 60.5207 91.3507 59.9821C93.8088 58.7366 97.0917 56.6496 100.173 53.2833C103.355 49.7992 105.139 46.2815 106.116 43.8242C106.301 43.3865 106.385 42.9153 106.385 42.4272V22.9198C106.385 21.2535 105.291 19.806 103.708 19.3347L90.711 15.514C90.0039 15.3289 89.2799 15.3289 88.5897 15.5309Z" fill="white"/>
<path d="M89.633 60.6388C88.9933 60.6388 88.3704 60.4873 87.7979 60.1843C84.4645 58.4676 81.5014 56.1953 78.9929 53.4518C76.4338 50.6579 74.4135 47.4431 72.9993 43.9085C72.8142 43.4373 72.7131 42.9323 72.7131 42.4106V22.92C72.7131 21.1695 73.8916 19.5874 75.5752 19.0993L88.5219 15.2786C89.2626 15.0598 90.0371 15.0598 90.7779 15.2786L103.775 19.0993C105.459 19.5874 106.637 21.1695 106.637 22.92V42.4274C106.637 42.9323 106.536 43.4373 106.351 43.9085C104.937 47.4431 102.916 50.6579 100.357 53.4518C97.8152 56.229 94.8184 58.5012 91.4513 60.2012C90.8789 60.4873 90.256 60.6388 89.633 60.6388ZM89.6499 15.6321C89.3132 15.6321 88.9933 15.6826 88.6566 15.7667L75.7099 19.5874C74.2452 20.025 73.2014 21.3883 73.2014 22.9368V42.4274C73.2014 42.8818 73.2855 43.3194 73.4539 43.7234C74.8513 47.1906 76.8379 50.3549 79.3464 53.1152C81.8213 55.8251 84.7338 58.0468 88.0168 59.7467C89.0101 60.2685 90.2055 60.2685 91.2156 59.7636C94.5322 58.0804 97.4785 55.8419 99.9702 53.1152C102.496 50.3717 104.482 47.2075 105.863 43.7234C106.031 43.3026 106.115 42.865 106.115 42.4274V22.92C106.115 21.3883 105.088 20.0082 103.607 19.5706L90.6095 15.7499C90.3065 15.6657 89.9698 15.6321 89.6499 15.6321Z" fill="#292929"/>
<path d="M93.8255 33.4803C94.3623 31.1811 92.9331 28.8821 90.6333 28.3454C88.3334 27.8088 86.0338 29.2376 85.497 31.5368C84.9602 33.8361 86.3894 36.135 88.6893 36.6717C90.9891 37.2084 93.2887 35.7795 93.8255 33.4803Z" fill="url(#paint7_linear_1131_24955)"/>
<path d="M89.6668 44.1782C88.7577 44.1782 88.0338 43.4544 88.0338 42.5455V34.1804H91.2999V42.5287C91.2999 43.4376 90.5759 44.1782 89.6668 44.1782Z" fill="url(#paint8_linear_1131_24955)"/>
<path d="M191.304 144.122H121.503V155.399H191.304V144.122Z" fill="#73069F" fill-opacity="0.9939"/>
<path d="M147.666 147.69H148.221V151.376H150.124V151.814H147.666V147.69Z" fill="white"/>
<path d="M150.73 149.743C150.73 148.43 151.504 147.622 152.599 147.622C153.693 147.622 154.467 148.43 154.467 149.743C154.467 151.056 153.693 151.897 152.599 151.897C151.504 151.897 150.73 151.056 150.73 149.743ZM153.878 149.743C153.878 148.716 153.373 148.077 152.582 148.077C151.807 148.077 151.285 148.716 151.285 149.743C151.285 150.77 151.79 151.426 152.582 151.426C153.373 151.426 153.878 150.77 153.878 149.743Z" fill="white"/>
<path d="M155.41 149.76C155.41 148.43 156.252 147.622 157.414 147.622C158.02 147.622 158.424 147.875 158.677 148.127L158.374 148.464C158.155 148.245 157.868 148.077 157.431 148.077C156.555 148.077 155.983 148.716 155.983 149.743C155.983 150.786 156.505 151.426 157.431 151.426C157.751 151.426 158.037 151.342 158.222 151.19V150.113H157.296V149.675H158.727V151.409C158.441 151.678 157.969 151.88 157.38 151.88C156.219 151.897 155.41 151.106 155.41 149.76Z" fill="white"/>
<path d="M160.024 147.69H160.579V151.814H160.024V147.69Z" fill="white"/>
<path d="M162.044 147.69H162.616L164.199 150.282L164.67 151.141H164.704C164.67 150.72 164.636 150.265 164.636 149.828V147.69H165.158V151.814H164.586L163.003 149.222L162.532 148.363H162.498C162.532 148.784 162.566 149.222 162.566 149.659V151.814H162.044V147.69Z" fill="white"/>
<path d="M179.872 73.8514C179.872 79.8938 177.583 85.4144 173.828 89.5718C169.535 94.335 163.306 97.3141 156.403 97.3141C149.484 97.3141 143.255 94.3182 138.962 89.5549C135.207 85.3976 132.918 79.877 132.918 73.8346C132.918 60.8745 143.423 50.355 156.403 50.355C169.367 50.3718 179.872 60.8913 179.872 73.8514Z" fill="url(#paint9_linear_1131_24955)"/>
<path d="M156.403 81.4592C162.057 81.4592 166.64 76.8776 166.64 71.2258C166.64 65.5741 162.057 60.9924 156.403 60.9924C150.75 60.9924 146.167 65.5741 146.167 71.2258C146.167 76.8776 150.75 81.4592 156.403 81.4592Z" fill="white"/>
<path d="M173.829 89.5717C169.535 94.335 163.306 97.3141 156.404 97.3141C149.484 97.3141 143.255 94.3181 138.962 89.5549C139.703 88.3262 140.595 87.2153 141.588 86.2055C144.652 83.1422 148.828 81.1898 153.457 81.0046C153.693 80.9878 153.929 80.9878 154.164 80.9878H158.609C158.845 80.9878 159.08 80.9878 159.316 81.0046C165.478 81.2571 170.832 84.6233 173.829 89.5717Z" fill="white"/>
<path d="M128.456 137.12H129.062C129.466 137.12 129.752 137.255 129.752 137.642C129.752 138.012 129.466 138.197 129.062 138.197H128.692V138.971H128.456V137.12ZM129.028 137.995C129.332 137.995 129.5 137.877 129.5 137.642C129.5 137.406 129.332 137.305 129.028 137.305H128.709V137.995H129.028ZM129.012 138.13L129.214 138.012L129.803 138.988H129.517L129.012 138.13Z" fill="white"/>
<path d="M130.106 138.299C130.106 137.844 130.426 137.575 130.763 137.575C131.133 137.575 131.335 137.827 131.335 138.215C131.335 138.265 131.335 138.316 131.318 138.349H130.342C130.358 138.635 130.544 138.82 130.83 138.82C130.965 138.82 131.082 138.77 131.183 138.703L131.268 138.854C131.133 138.938 130.981 138.989 130.796 138.989C130.409 139.006 130.106 138.736 130.106 138.299ZM131.116 138.181C131.116 137.912 130.981 137.76 130.763 137.76C130.561 137.76 130.375 137.912 130.342 138.181H131.116Z" fill="white"/>
<path d="M131.806 137.609H132.008L132.025 137.811C132.16 137.676 132.311 137.575 132.48 137.575C132.699 137.575 132.817 137.676 132.884 137.844C133.035 137.693 133.187 137.575 133.355 137.575C133.658 137.575 133.793 137.76 133.793 138.114V138.989H133.54V138.147C133.54 137.895 133.456 137.777 133.271 137.777C133.153 137.777 133.035 137.844 132.901 137.996V138.989H132.648V138.147C132.648 137.895 132.564 137.777 132.379 137.777C132.278 137.777 132.143 137.844 132.008 137.996V138.989H131.756V137.609H131.806Z" fill="white"/>
<path d="M134.298 138.299C134.298 137.844 134.618 137.575 134.954 137.575C135.325 137.575 135.527 137.827 135.527 138.215C135.527 138.265 135.527 138.316 135.51 138.349H134.534C134.55 138.635 134.736 138.82 135.022 138.82C135.157 138.82 135.274 138.77 135.375 138.703L135.46 138.854C135.325 138.938 135.173 138.989 134.988 138.989C134.601 139.006 134.298 138.736 134.298 138.299ZM135.308 138.181C135.308 137.912 135.173 137.76 134.954 137.76C134.752 137.76 134.567 137.912 134.534 138.181H135.308Z" fill="white"/>
<path d="M135.999 137.609H136.201L136.218 137.811C136.352 137.676 136.504 137.575 136.672 137.575C136.891 137.575 137.009 137.676 137.076 137.844C137.228 137.693 137.379 137.575 137.548 137.575C137.851 137.575 137.986 137.76 137.986 138.114V138.989H137.733V138.147C137.733 137.895 137.649 137.777 137.464 137.777C137.346 137.777 137.228 137.844 137.093 137.996V138.989H136.874V138.147C136.874 137.895 136.79 137.777 136.605 137.777C136.504 137.777 136.369 137.844 136.235 137.996V138.989H135.982V137.609H135.999Z" fill="white"/>
<path d="M138.81 138.837L138.776 138.971H138.574V136.968H138.827V137.524V137.776C138.962 137.675 139.113 137.591 139.282 137.591C139.652 137.591 139.854 137.86 139.854 138.281C139.854 138.752 139.551 139.022 139.231 139.022C139.096 139.005 138.945 138.938 138.81 138.837ZM139.601 138.264C139.601 137.961 139.5 137.759 139.214 137.759C139.096 137.759 138.962 137.827 138.827 137.944V138.668C138.962 138.769 139.08 138.803 139.181 138.803C139.416 138.82 139.601 138.618 139.601 138.264Z" fill="white"/>
<path d="M140.241 138.299C140.241 137.844 140.561 137.575 140.898 137.575C141.268 137.575 141.47 137.827 141.47 138.215C141.47 138.265 141.47 138.316 141.453 138.349H140.477C140.494 138.635 140.679 138.82 140.965 138.82C141.1 138.82 141.218 138.77 141.319 138.703L141.403 138.854C141.268 138.938 141.116 138.989 140.931 138.989C140.561 139.006 140.241 138.736 140.241 138.299ZM141.251 138.181C141.251 137.912 141.116 137.76 140.898 137.76C140.696 137.76 140.51 137.912 140.477 138.181H141.251Z" fill="white"/>
<path d="M141.958 137.609H142.16L142.177 137.861C142.278 137.693 142.43 137.575 142.581 137.575C142.649 137.575 142.682 137.575 142.733 137.609L142.682 137.811C142.632 137.794 142.598 137.794 142.548 137.794C142.43 137.794 142.278 137.878 142.177 138.114V138.989H141.925V137.609H141.958Z" fill="white"/>
<path d="M143.828 137.609H144.03L144.046 137.811C144.181 137.676 144.333 137.575 144.501 137.575C144.72 137.575 144.838 137.676 144.905 137.844C145.057 137.693 145.208 137.575 145.376 137.575C145.679 137.575 145.814 137.76 145.814 138.114V138.989H145.562V138.147C145.562 137.895 145.477 137.777 145.292 137.777C145.174 137.777 145.057 137.844 144.922 137.996V138.989H144.669V138.147C144.669 137.895 144.585 137.777 144.4 137.777C144.299 137.777 144.164 137.844 144.03 137.996V138.989H143.777V137.609H143.828Z" fill="white"/>
<path d="M146.302 138.299C146.302 137.844 146.622 137.575 146.959 137.575C147.329 137.575 147.531 137.827 147.531 138.215C147.531 138.265 147.531 138.316 147.514 138.349H146.538C146.555 138.635 146.74 138.82 147.026 138.82C147.161 138.82 147.279 138.77 147.38 138.703L147.464 138.854C147.329 138.938 147.178 138.989 146.992 138.989C146.605 139.006 146.302 138.736 146.302 138.299ZM147.312 138.181C147.312 137.912 147.178 137.76 146.959 137.76C146.757 137.76 146.571 137.912 146.538 138.181H147.312Z" fill="white"/>
<path d="M166.303 137.12H167.431V137.322H166.556V137.945H167.296V138.147H166.556V138.971H166.303V137.12Z" fill="white"/>
<path d="M167.734 138.299C167.734 137.844 168.054 137.575 168.407 137.575C168.761 137.575 169.081 137.844 169.081 138.299C169.081 138.753 168.761 139.022 168.407 139.022C168.037 139.006 167.734 138.753 167.734 138.299ZM168.811 138.299C168.811 137.979 168.643 137.777 168.39 137.777C168.138 137.777 167.97 137.996 167.97 138.299C167.97 138.602 168.138 138.82 168.39 138.82C168.643 138.82 168.811 138.602 168.811 138.299Z" fill="white"/>
<path d="M169.569 137.609H169.771L169.788 137.861C169.889 137.693 170.041 137.575 170.192 137.575C170.259 137.575 170.293 137.575 170.344 137.609L170.293 137.811C170.243 137.794 170.209 137.794 170.158 137.794C170.041 137.794 169.889 137.878 169.788 138.114V138.989H169.536V137.609H169.569Z" fill="white"/>
<path d="M170.579 139.241C170.579 139.123 170.663 139.006 170.798 138.938V138.921C170.731 138.871 170.663 138.804 170.663 138.703C170.663 138.585 170.747 138.501 170.815 138.45V138.433C170.714 138.366 170.63 138.231 170.63 138.063C170.63 137.76 170.882 137.575 171.168 137.575C171.253 137.575 171.32 137.592 171.37 137.609H171.875V137.794H171.572C171.64 137.861 171.69 137.962 171.69 138.08C171.69 138.366 171.455 138.551 171.152 138.551C171.084 138.551 171 138.534 170.933 138.501C170.882 138.534 170.848 138.585 170.848 138.669C170.848 138.753 170.916 138.82 171.101 138.82H171.387C171.724 138.82 171.892 138.921 171.892 139.14C171.892 139.393 171.606 139.612 171.168 139.612C170.832 139.612 170.579 139.477 170.579 139.241ZM171.673 139.174C171.673 139.039 171.572 139.006 171.387 139.006H171.135C171.084 139.006 171.017 139.006 170.949 138.989C170.848 139.056 170.798 139.14 170.798 139.224C170.798 139.376 170.949 139.46 171.219 139.46C171.488 139.443 171.673 139.309 171.673 139.174ZM171.488 138.063C171.488 137.861 171.354 137.743 171.185 137.743C171.017 137.743 170.882 137.861 170.882 138.063C170.882 138.265 171.017 138.383 171.185 138.383C171.354 138.383 171.488 138.265 171.488 138.063Z" fill="white"/>
<path d="M172.162 138.299C172.162 137.844 172.481 137.575 172.835 137.575C173.189 137.575 173.508 137.844 173.508 138.299C173.508 138.753 173.189 139.022 172.835 139.022C172.481 139.006 172.162 138.753 172.162 138.299ZM173.256 138.299C173.256 137.979 173.088 137.777 172.835 137.777C172.582 137.777 172.414 137.996 172.414 138.299C172.414 138.602 172.582 138.82 172.835 138.82C173.088 138.82 173.256 138.602 173.256 138.299Z" fill="white"/>
<path d="M173.997 138.55V137.793H173.778V137.625L173.997 137.608L174.031 137.221H174.233V137.608H174.62V137.793H174.233V138.55C174.233 138.719 174.283 138.82 174.452 138.82C174.502 138.82 174.569 138.803 174.62 138.786L174.67 138.954C174.586 138.988 174.485 139.005 174.401 139.005C174.098 139.005 173.997 138.82 173.997 138.55Z" fill="white"/>
<path d="M175.798 137.609H176L176.017 137.76C176.152 137.659 176.303 137.575 176.472 137.575C176.842 137.575 177.044 137.844 177.044 138.265C177.044 138.736 176.741 139.006 176.421 139.006C176.287 139.006 176.152 138.955 176.017 138.854V139.09V139.561H175.765V137.609H175.798ZM176.808 138.265C176.808 137.962 176.707 137.76 176.421 137.76C176.303 137.76 176.169 137.827 176.034 137.945V138.669C176.169 138.77 176.287 138.804 176.388 138.804C176.64 138.82 176.808 138.618 176.808 138.265Z" fill="white"/>
<path d="M177.432 138.618C177.432 138.316 177.701 138.164 178.324 138.114C178.324 137.945 178.257 137.76 178.021 137.76C177.852 137.76 177.701 137.827 177.583 137.912L177.482 137.76C177.617 137.676 177.819 137.575 178.054 137.575C178.408 137.575 178.56 137.794 178.56 138.13V138.972H178.358L178.341 138.804C178.206 138.905 178.038 139.006 177.869 139.006C177.617 139.006 177.432 138.871 177.432 138.618ZM178.324 138.635V138.248C177.836 138.299 177.667 138.417 177.667 138.585C177.667 138.736 177.785 138.804 177.92 138.804C178.071 138.82 178.189 138.753 178.324 138.635Z" fill="white"/>
<path d="M178.98 138.82L179.098 138.669C179.216 138.77 179.351 138.837 179.519 138.837C179.704 138.837 179.805 138.736 179.805 138.618C179.805 138.484 179.637 138.417 179.469 138.366C179.267 138.299 179.031 138.198 179.031 137.962C179.031 137.743 179.216 137.575 179.536 137.575C179.721 137.575 179.873 137.642 179.991 137.726L179.873 137.878C179.772 137.811 179.671 137.76 179.536 137.76C179.351 137.76 179.267 137.844 179.267 137.962C179.267 138.097 179.418 138.147 179.586 138.198C179.789 138.265 180.024 138.349 180.024 138.618C180.024 138.837 179.839 139.022 179.502 139.022C179.317 139.006 179.132 138.921 178.98 138.82Z" fill="white"/>
<path d="M180.361 138.82L180.479 138.669C180.597 138.77 180.731 138.837 180.9 138.837C181.085 138.837 181.186 138.736 181.186 138.618C181.186 138.484 181.017 138.417 180.849 138.366C180.647 138.299 180.411 138.198 180.411 137.962C180.411 137.743 180.597 137.575 180.916 137.575C181.102 137.575 181.253 137.642 181.371 137.726L181.253 137.878C181.152 137.811 181.051 137.76 180.916 137.76C180.731 137.76 180.647 137.844 180.647 137.962C180.647 138.097 180.799 138.147 180.967 138.198C181.169 138.265 181.405 138.349 181.405 138.618C181.405 138.837 181.22 139.022 180.883 139.022C180.698 139.006 180.496 138.921 180.361 138.82Z" fill="white"/>
<path d="M181.708 137.607H181.96L182.179 138.398C182.213 138.533 182.23 138.651 182.263 138.785H182.28C182.314 138.651 182.348 138.533 182.381 138.398L182.6 137.607H182.836L183.055 138.398C183.088 138.533 183.122 138.651 183.156 138.785H183.172C183.206 138.651 183.223 138.533 183.257 138.398L183.476 137.607H183.711L183.324 138.971H183.021L182.819 138.23C182.785 138.095 182.752 137.977 182.718 137.843H182.701C182.667 137.977 182.634 138.112 182.6 138.247L182.398 138.987H182.112L181.708 137.607Z" fill="white"/>
<path d="M184.031 138.299C184.031 137.844 184.351 137.575 184.705 137.575C185.058 137.575 185.378 137.844 185.378 138.299C185.378 138.753 185.058 139.022 184.705 139.022C184.334 139.006 184.031 138.753 184.031 138.299ZM185.109 138.299C185.109 137.979 184.94 137.777 184.688 137.777C184.435 137.777 184.267 137.996 184.267 138.299C184.267 138.602 184.435 138.82 184.688 138.82C184.94 138.82 185.109 138.602 185.109 138.299Z" fill="white"/>
<path d="M185.866 137.609H186.068L186.085 137.861C186.186 137.693 186.338 137.575 186.489 137.575C186.557 137.575 186.59 137.575 186.641 137.609L186.59 137.811C186.54 137.794 186.506 137.794 186.456 137.794C186.338 137.794 186.186 137.878 186.085 138.114V138.989H185.833V137.609H185.866Z" fill="white"/>
<path d="M186.893 138.298C186.893 137.86 187.196 137.574 187.516 137.574C187.684 137.574 187.802 137.642 187.92 137.726L187.903 137.49V136.968H188.156V138.971H187.954L187.937 138.803C187.819 138.904 187.667 139.005 187.499 139.005C187.112 139.005 186.893 138.752 186.893 138.298ZM187.903 138.635V137.911C187.785 137.81 187.667 137.776 187.55 137.776C187.314 137.776 187.129 137.995 187.129 138.298C187.129 138.635 187.28 138.82 187.533 138.82C187.667 138.82 187.785 138.752 187.903 138.635Z" fill="white"/>
<path d="M189.402 137.525C189.402 137.373 189.301 137.255 189.116 137.255C188.981 137.255 188.863 137.323 188.779 137.424L188.644 137.306C188.762 137.171 188.947 137.07 189.149 137.07C189.452 137.07 189.654 137.238 189.654 137.525C189.654 137.895 189.166 138.046 189.217 138.433H188.998C188.93 137.979 189.402 137.811 189.402 137.525ZM188.93 138.837C188.93 138.736 189.015 138.652 189.116 138.652C189.217 138.652 189.301 138.72 189.301 138.837C189.301 138.938 189.217 139.006 189.116 139.006C189.015 139.006 188.93 138.938 188.93 138.837Z" fill="white"/>
<path d="M191.776 105.292H120.931V116.754H191.776V105.292Z" fill="white"/>
<path d="M191.86 120.154H121.015V131.616H191.86V120.154Z" fill="white"/>
<path d="M136.217 111.234V109.584H136.588V111.234C136.588 111.907 136.891 112.126 137.278 112.126C137.665 112.126 137.985 111.907 137.985 111.234V109.584H138.339V111.234C138.339 112.143 137.884 112.446 137.278 112.446C136.672 112.446 136.217 112.143 136.217 111.234Z" fill="#292929"/>
<path d="M139.029 112.16L139.214 111.924C139.4 112.075 139.602 112.176 139.871 112.176C140.157 112.176 140.309 112.025 140.309 111.857C140.309 111.638 140.056 111.554 139.804 111.469C139.501 111.368 139.147 111.217 139.147 110.864C139.147 110.527 139.433 110.274 139.905 110.274C140.174 110.274 140.41 110.375 140.595 110.51L140.41 110.729C140.258 110.628 140.107 110.544 139.905 110.544C139.635 110.544 139.501 110.678 139.501 110.847C139.501 111.049 139.736 111.116 139.989 111.2C140.309 111.318 140.662 111.436 140.662 111.823C140.662 112.16 140.376 112.446 139.854 112.446C139.534 112.446 139.231 112.328 139.029 112.16Z" fill="#292929"/>
<path d="M141.184 111.368C141.184 110.695 141.672 110.274 142.177 110.274C142.733 110.274 143.053 110.662 143.053 111.251C143.053 111.318 143.053 111.402 143.036 111.453H141.555C141.588 111.89 141.858 112.176 142.278 112.176C142.497 112.176 142.666 112.109 142.817 112.008L142.952 112.244C142.767 112.361 142.531 112.462 142.228 112.462C141.656 112.446 141.184 112.042 141.184 111.368ZM142.716 111.2C142.716 110.779 142.514 110.561 142.177 110.561C141.874 110.561 141.588 110.796 141.555 111.2H142.716Z" fill="#292929"/>
<path d="M143.777 110.324H144.08L144.114 110.695H144.131C144.282 110.425 144.501 110.257 144.754 110.257C144.855 110.257 144.922 110.274 144.989 110.308L144.922 110.611C144.855 110.594 144.804 110.577 144.703 110.577C144.518 110.577 144.299 110.712 144.148 111.048V112.378H143.777V110.324Z" fill="#292929"/>
<path d="M145.528 110.325H145.831L145.864 110.628H145.881C146.083 110.426 146.319 110.274 146.622 110.274C147.076 110.274 147.295 110.561 147.295 111.082V112.395H146.925V111.116C146.925 110.729 146.807 110.561 146.504 110.561C146.285 110.561 146.117 110.662 145.898 110.88V112.378H145.528V110.325Z" fill="#292929"/>
<path d="M148.036 111.857C148.036 111.402 148.457 111.183 149.383 111.082C149.383 110.813 149.282 110.561 148.928 110.561C148.676 110.561 148.44 110.678 148.272 110.779L148.12 110.544C148.322 110.426 148.625 110.274 148.979 110.274C149.518 110.274 149.736 110.611 149.736 111.133V112.412H149.433L149.4 112.16H149.383C149.181 112.328 148.928 112.462 148.659 112.462C148.322 112.446 148.036 112.227 148.036 111.857ZM149.383 111.89V111.318C148.642 111.402 148.39 111.57 148.39 111.84C148.39 112.075 148.558 112.176 148.777 112.176C148.996 112.16 149.181 112.075 149.383 111.89Z" fill="#292929"/>
<path d="M150.629 110.325H150.932L150.966 110.628H150.983C151.168 110.426 151.404 110.274 151.673 110.274C152.01 110.274 152.195 110.426 152.279 110.678C152.515 110.443 152.734 110.274 153.003 110.274C153.458 110.274 153.677 110.561 153.677 111.082V112.395H153.306V111.116C153.306 110.729 153.171 110.561 152.902 110.561C152.734 110.561 152.549 110.662 152.347 110.88V112.378H151.976V111.099C151.976 110.712 151.841 110.544 151.572 110.544C151.404 110.544 151.219 110.645 151.016 110.864V112.361H150.646V110.325H150.629Z" fill="#292929"/>
<path d="M154.4 111.368C154.4 110.695 154.889 110.274 155.394 110.274C155.949 110.274 156.269 110.662 156.269 111.251C156.269 111.318 156.269 111.402 156.252 111.453H154.771C154.805 111.89 155.074 112.176 155.495 112.176C155.714 112.176 155.882 112.109 156.034 112.008L156.168 112.244C155.983 112.361 155.747 112.462 155.444 112.462C154.872 112.446 154.4 112.042 154.4 111.368ZM155.933 111.2C155.933 110.779 155.73 110.561 155.394 110.561C155.091 110.561 154.805 110.796 154.771 111.2H155.933Z" fill="#292929"/>
<path d="M126.773 111.065C127.293 111.065 127.716 110.643 127.716 110.123C127.716 109.602 127.293 109.18 126.773 109.18C126.252 109.18 125.83 109.602 125.83 110.123C125.83 110.643 126.252 111.065 126.773 111.065Z" fill="#292929"/>
<path d="M126.386 111.064H127.16C128.086 111.064 128.827 111.805 128.827 112.731V112.865H124.719V112.731C124.719 111.822 125.46 111.064 126.386 111.064Z" fill="#292929"/>
<path d="M136.217 125.894C136.217 125.658 136.403 125.49 136.621 125.49C136.84 125.49 137.026 125.658 137.026 125.894C137.026 126.129 136.84 126.281 136.621 126.281C136.403 126.281 136.217 126.113 136.217 125.894Z" fill="#292929"/>
<path d="M138.154 125.894C138.154 125.658 138.339 125.49 138.558 125.49C138.777 125.49 138.962 125.658 138.962 125.894C138.962 126.129 138.777 126.281 138.558 126.281C138.339 126.281 138.154 126.113 138.154 125.894Z" fill="#292929"/>
<path d="M140.09 125.894C140.09 125.658 140.275 125.49 140.494 125.49C140.713 125.49 140.898 125.658 140.898 125.894C140.898 126.129 140.713 126.281 140.494 126.281C140.275 126.281 140.09 126.113 140.09 125.894Z" fill="#292929"/>
<path d="M142.026 125.894C142.026 125.658 142.211 125.49 142.43 125.49C142.649 125.49 142.834 125.658 142.834 125.894C142.834 126.129 142.649 126.281 142.43 126.281C142.211 126.281 142.026 126.113 142.026 125.894Z" fill="#292929"/>
<path d="M143.962 125.894C143.962 125.658 144.147 125.49 144.366 125.49C144.585 125.49 144.77 125.658 144.77 125.894C144.77 126.129 144.585 126.281 144.366 126.281C144.147 126.281 143.962 126.113 143.962 125.894Z" fill="#292929"/>
<path d="M145.898 125.894C145.898 125.658 146.083 125.49 146.302 125.49C146.521 125.49 146.706 125.658 146.706 125.894C146.706 126.129 146.521 126.281 146.302 126.281C146.083 126.281 145.898 126.113 145.898 125.894Z" fill="#292929"/>
<path d="M147.851 125.894C147.851 125.658 148.036 125.49 148.255 125.49C148.474 125.49 148.659 125.658 148.659 125.894C148.659 126.129 148.474 126.281 148.255 126.281C148.019 126.281 147.851 126.113 147.851 125.894Z" fill="#292929"/>
<path d="M149.787 125.894C149.787 125.658 149.972 125.49 150.191 125.49C150.41 125.49 150.595 125.658 150.595 125.894C150.595 126.129 150.41 126.281 150.191 126.281C149.956 126.281 149.787 126.113 149.787 125.894Z" fill="#292929"/>
<path d="M151.723 125.894C151.723 125.658 151.908 125.49 152.127 125.49C152.346 125.49 152.531 125.658 152.531 125.894C152.531 126.129 152.346 126.281 152.127 126.281C151.908 126.281 151.723 126.113 151.723 125.894Z" fill="#292929"/>
<path d="M153.659 125.894C153.659 125.658 153.845 125.49 154.064 125.49C154.282 125.49 154.468 125.658 154.468 125.894C154.468 126.129 154.282 126.281 154.064 126.281C153.845 126.281 153.659 126.113 153.659 125.894Z" fill="#292929"/>
<path d="M155.596 125.894C155.596 125.658 155.781 125.49 156 125.49C156.218 125.49 156.404 125.658 156.404 125.894C156.404 126.129 156.218 126.281 156 126.281C155.781 126.281 155.596 126.113 155.596 125.894Z" fill="#292929"/>
<path d="M128.878 125.102H124.669V127.845H128.878V125.102Z" fill="#292929"/>
<path d="M126.773 126.617C125.965 126.617 125.308 125.961 125.308 125.153C125.308 124.345 125.965 123.689 126.773 123.689C127.581 123.689 128.238 124.345 128.238 125.153C128.238 125.961 127.581 126.617 126.773 126.617ZM126.773 124.177C126.234 124.177 125.813 124.614 125.813 125.136C125.813 125.658 126.251 126.096 126.773 126.096C127.295 126.096 127.733 125.658 127.733 125.136C127.733 124.614 127.295 124.177 126.773 124.177Z" fill="#292929"/>
<path d="M126.066 136.648H122.934V139.779H126.066V136.648Z" fill="#292929"/>
<path d="M124.265 138.988C124.18 138.988 124.113 138.955 124.063 138.887L123.557 138.248C123.473 138.147 123.49 137.978 123.591 137.894C123.692 137.81 123.86 137.827 123.945 137.928L124.248 138.315L125.19 137.171C125.275 137.07 125.443 137.053 125.544 137.137C125.645 137.221 125.662 137.389 125.578 137.49L124.433 138.887C124.416 138.955 124.332 138.988 124.265 138.988Z" fill="white"/>
<path d="M240.986 112.344H240.751C224.353 112.344 211.052 125.641 211.052 142.034V162.602H270.685V142.051C270.685 125.641 257.384 112.344 240.986 112.344ZM259.085 155.718H222.652V143.145C222.652 133.131 230.767 125.001 240.801 125.001H240.953C250.97 125.001 259.102 133.114 259.102 143.145V155.718H259.085Z" fill="url(#paint10_linear_1131_24955)"/>
<path d="M211.035 161.492C210.901 161.492 210.783 161.374 210.783 161.239V142.052C210.783 136.75 212.18 131.532 214.84 126.988C217.416 122.561 221.12 118.858 225.514 116.249C225.632 116.182 225.784 116.216 225.868 116.334C225.935 116.451 225.901 116.603 225.784 116.687C216.844 121.972 211.288 131.684 211.288 142.052V161.239C211.288 161.374 211.187 161.492 211.035 161.492Z" fill="#292929"/>
<path d="M225.666 116.703C225.582 116.703 225.498 116.652 225.447 116.585C225.38 116.467 225.414 116.316 225.531 116.232C226.794 115.491 228.124 114.835 229.488 114.279C229.622 114.229 229.757 114.296 229.825 114.414C229.875 114.548 229.808 114.683 229.69 114.75C228.36 115.289 227.047 115.945 225.801 116.669C225.75 116.703 225.7 116.703 225.666 116.703Z" fill="#292929"/>
<path d="M272.856 221.747H208.864C202.988 221.747 198.224 216.984 198.224 211.11V162.417C198.224 156.543 202.988 151.78 208.864 151.78H272.856C278.732 151.78 283.497 156.543 283.497 162.417V211.11C283.497 216.984 278.732 221.747 272.856 221.747Z" fill="url(#paint11_linear_1131_24955)"/>
<path d="M272.856 222H208.864C202.853 222 197.971 217.119 197.971 211.11V162.417C197.971 156.408 202.853 151.527 208.864 151.527H272.856C278.867 151.527 283.749 156.408 283.749 162.417V211.11C283.749 217.119 278.867 222 272.856 222ZM208.864 152.032C203.139 152.032 198.476 156.695 198.476 162.417V211.11C198.476 216.833 203.139 221.495 208.864 221.495H272.856C278.58 221.495 283.244 216.833 283.244 211.11V162.417C283.244 156.695 278.58 152.032 272.856 152.032H208.864Z" fill="white"/>
<path d="M240.869 206.97C238.831 206.97 237.165 205.32 237.165 203.267V191.687H244.556V203.267C244.556 205.303 242.906 206.97 240.869 206.97Z" fill="white"/>
<path d="M246.02 192.68H235.7C234.05 192.68 232.72 191.35 232.72 189.701V180.864C232.72 179.215 234.05 177.885 235.7 177.885H246.02C247.67 177.885 249 179.215 249 180.864V189.701C249 191.333 247.67 192.68 246.02 192.68Z" fill="white"/>
<path d="M64.447 115.458C63.2685 115.458 62.3257 114.499 62.3257 113.337V110.998C62.3257 109.82 63.2853 108.877 64.447 108.877C65.6255 108.877 66.5683 109.837 66.5683 110.998V113.337C66.5683 114.499 65.6255 115.458 64.447 115.458Z" fill="url(#paint12_linear_1131_24955)"/>
<path d="M70.8951 115.458C69.7166 115.458 68.7738 114.499 68.7738 113.337V110.998C68.7738 109.82 69.7334 108.877 70.8951 108.877C72.0736 108.877 73.0164 109.837 73.0164 110.998V113.337C73.0332 114.499 72.0736 115.458 70.8951 115.458Z" fill="url(#paint13_linear_1131_24955)"/>
<path d="M75.2388 110.914H49.7831V104.316H75.2388C77.057 104.316 78.5386 105.797 78.5386 107.615C78.5386 109.432 77.057 110.914 75.2388 110.914Z" fill="url(#paint14_linear_1131_24955)"/>
<path d="M74.161 111.166H47.51C47.3754 111.166 47.2575 111.048 47.2575 110.914V104.316C47.2575 104.181 47.3754 104.063 47.51 104.063H67.2078C67.3425 104.063 67.4604 104.181 67.4604 104.316C67.4604 104.45 67.3425 104.568 67.2078 104.568H47.7626V110.661H74.1778C74.3125 110.661 74.4304 110.779 74.4304 110.914C74.4135 111.048 74.3125 111.166 74.161 111.166Z" fill="#292929"/>
<path d="M47.8535 116.69C52.9686 111.577 52.9686 103.286 47.8535 98.1719C42.7384 93.0581 34.4451 93.0581 29.33 98.1719C24.2149 103.286 24.2149 111.577 29.33 116.69C34.4451 121.804 42.7384 121.804 47.8535 116.69Z" fill="url(#paint15_linear_1131_24955)"/>
<path d="M33.4862 106.555C35.0668 106.555 36.3482 105.274 36.3482 103.693C36.3482 102.113 35.0668 100.832 33.4862 100.832C31.9055 100.832 30.6241 102.113 30.6241 103.693C30.6241 105.274 31.9055 106.555 33.4862 106.555Z" fill="white"/>
<defs>
<linearGradient id="paint0_linear_1131_24955" x1="32.0887" y1="109.44" x2="280.719" y2="109.44" gradientUnits="userSpaceOnUse">
<stop stop-color="#F57A00"/>
<stop offset="1" stop-color="#7103A4"/>
</linearGradient>
<linearGradient id="paint1_linear_1131_24955" x1="231.642" y1="78.3953" x2="300.113" y2="78.3953" gradientUnits="userSpaceOnUse">
<stop stop-color="#F57A00"/>
<stop offset="1" stop-color="#7103A4"/>
</linearGradient>
<linearGradient id="paint2_linear_1131_24955" x1="50.3386" y1="185.829" x2="104.398" y2="185.829" gradientUnits="userSpaceOnUse">
<stop stop-color="#F57A00"/>
<stop offset="1" stop-color="#7103A4"/>
</linearGradient>
<linearGradient id="paint3_linear_1131_24955" x1="38.2167" y1="199.353" x2="116.52" y2="199.353" gradientUnits="userSpaceOnUse">
<stop stop-color="#F57A00"/>
<stop offset="1" stop-color="#7103A4"/>
</linearGradient>
<linearGradient id="paint4_linear_1131_24955" x1="38.2167" y1="197.765" x2="116.537" y2="197.765" gradientUnits="userSpaceOnUse">
<stop stop-color="#F57A00"/>
<stop offset="1" stop-color="#7103A4"/>
</linearGradient>
<linearGradient id="paint5_linear_1131_24955" x1="60.4402" y1="40.1297" x2="118.894" y2="40.1297" gradientUnits="userSpaceOnUse">
<stop stop-color="#F57A00"/>
<stop offset="1" stop-color="#7103A4"/>
</linearGradient>
<linearGradient id="paint6_linear_1131_24955" x1="89.6668" y1="40.1209" x2="118.894" y2="40.1209" gradientUnits="userSpaceOnUse">
<stop stop-color="#F57A00"/>
<stop offset="1" stop-color="#7103A4"/>
</linearGradient>
<linearGradient id="paint7_linear_1131_24955" x1="88.6892" y1="36.6717" x2="90.6322" y2="28.3452" gradientUnits="userSpaceOnUse">
<stop stop-color="#F57A00"/>
<stop offset="1" stop-color="#7103A4"/>
</linearGradient>
<linearGradient id="paint8_linear_1131_24955" x1="88.0338" y1="39.1792" x2="91.2999" y2="39.1792" gradientUnits="userSpaceOnUse">
<stop stop-color="#F57A00"/>
<stop offset="1" stop-color="#7103A4"/>
</linearGradient>
<linearGradient id="paint9_linear_1131_24955" x1="132.918" y1="73.8343" x2="179.872" y2="73.8343" gradientUnits="userSpaceOnUse">
<stop stop-color="#F57A00"/>
<stop offset="1" stop-color="#7103A4"/>
</linearGradient>
<linearGradient id="paint10_linear_1131_24955" x1="211.052" y1="137.473" x2="270.685" y2="137.473" gradientUnits="userSpaceOnUse">
<stop stop-color="#F57A00"/>
<stop offset="1" stop-color="#7103A4"/>
</linearGradient>
<linearGradient id="paint11_linear_1131_24955" x1="198.224" y1="186.763" x2="283.497" y2="186.763" gradientUnits="userSpaceOnUse">
<stop stop-color="#F57A00"/>
<stop offset="1" stop-color="#7103A4"/>
</linearGradient>
<linearGradient id="paint12_linear_1131_24955" x1="62.3257" y1="112.168" x2="66.5683" y2="112.168" gradientUnits="userSpaceOnUse">
<stop stop-color="#F57A00"/>
<stop offset="1" stop-color="#7103A4"/>
</linearGradient>
<linearGradient id="paint13_linear_1131_24955" x1="68.7738" y1="112.168" x2="73.0166" y2="112.168" gradientUnits="userSpaceOnUse">
<stop stop-color="#F57A00"/>
<stop offset="1" stop-color="#7103A4"/>
</linearGradient>
<linearGradient id="paint14_linear_1131_24955" x1="49.7831" y1="107.615" x2="78.5386" y2="107.615" gradientUnits="userSpaceOnUse">
<stop stop-color="#F57A00"/>
<stop offset="1" stop-color="#7103A4"/>
</linearGradient>
<linearGradient id="paint15_linear_1131_24955" x1="29.3299" y1="116.69" x2="47.8485" y2="98.1669" gradientUnits="userSpaceOnUse">
<stop stop-color="#F57A00"/>
<stop offset="1" stop-color="#7103A4"/>
</linearGradient>
</defs>
</svg>
