<svg width="307" height="290" viewBox="0 0 307 290" fill="none" xmlns="http://www.w3.org/2000/svg">
<path d="M217.905 239.268L217.706 238.971L304.649 188.835C305.643 188.239 306.239 187.544 306.239 186.651C306.239 185.856 305.643 185.062 304.649 184.466L289.347 175.631L289.546 175.333L304.848 184.169C305.941 184.764 306.537 185.658 306.537 186.551C306.537 187.445 305.941 188.338 304.848 188.934L217.905 239.268Z" fill="url(#paint0_linear_1131_38889)"/>
<path d="M104.431 251.579C103.636 251.579 102.841 251.38 102.245 250.983L0.993636 192.607C0.397454 192.21 0 191.714 0 191.217C0 190.82 0.298095 190.423 0.69555 190.125L61.1086 155.278C62.1023 154.683 63.8908 154.782 64.9838 155.477L166.335 213.853C166.931 214.25 167.328 214.746 167.328 215.243C167.328 215.64 167.03 216.037 166.633 216.335L106.22 251.182C105.723 251.38 105.127 251.579 104.431 251.579ZM1.093 192.309L102.345 250.785C103.438 251.38 105.027 251.48 105.922 250.983L166.335 216.136C166.732 215.938 166.931 215.64 166.931 215.342C166.931 214.945 166.633 214.548 166.136 214.25L64.8844 155.775C63.7914 155.179 62.2016 155.08 61.3074 155.576L0.894274 190.423C0.49682 190.622 0.298094 190.919 0.298094 191.217C0.298094 191.614 0.59618 192.012 1.093 192.309Z" fill="url(#paint1_linear_1131_38889)"/>
<path d="M167.229 205.116L161.665 204.322L64.9838 148.527C63.8908 147.932 62.2016 147.832 61.208 148.329L3.67646 181.488L0.0993652 180.992V185.658C0.0993652 186.055 0.397458 186.551 0.993639 186.849L102.245 245.324C103.338 245.92 105.027 246.019 106.021 245.523L166.434 210.676C166.832 210.378 167.03 210.08 167.03 209.683V205.116H167.229Z" fill="url(#paint2_linear_1131_38889)"/>
<path d="M0.99387 182.282L102.245 240.758C103.338 241.353 105.028 241.453 106.021 240.956L166.434 206.109C167.428 205.514 167.229 204.62 166.136 203.925L64.984 145.45C63.891 144.854 62.2018 144.755 61.2082 145.251L0.795146 180.098C-0.19849 180.694 -0.0991294 181.687 0.99387 182.282Z" fill="#263238"/>
<path opacity="0.3" d="M9.83707 183.474L100.357 235.694C101.351 236.29 102.841 236.29 103.736 235.794L157.789 204.62C158.684 204.124 158.584 203.23 157.591 202.734L66.9711 150.513C65.9775 149.917 64.4871 149.917 63.5928 150.414L9.53897 181.587C8.74406 182.084 8.84343 182.878 9.83707 183.474Z" fill="#24126A"/>
<path d="M166.534 205.513L106.12 240.36C105.127 240.956 103.438 240.857 102.345 240.162L0.993809 181.786C0.496991 181.488 0.198899 181.19 0.099535 180.793C-0.0991922 181.289 0.1989 181.885 0.993809 182.282L102.245 240.757C103.338 241.353 105.028 241.452 106.021 240.956L166.434 206.109C166.931 205.811 167.13 205.315 167.03 204.918C167.03 205.116 166.832 205.315 166.534 205.513Z" fill="white"/>
<path d="M283.186 179.304L266.791 170.17C263.115 168.085 259.935 163.618 258.743 158.952L244.534 100.476C243.64 96.8032 241.652 93.6262 239.367 91.4421L237.38 97.4981C236.883 98.9873 235.989 100.079 234.697 100.576C233.206 101.171 231.219 100.874 229.331 99.6823L227.046 98.3916L224.959 104.646C224.462 106.135 223.568 107.227 222.276 107.724C220.786 108.32 218.799 108.022 216.911 106.83L213.93 105.143C210.552 103.157 207.372 98.888 206.18 94.5198C205.087 90.5486 202.801 87.3717 200.317 85.3861L198.926 88.2652C198.33 89.4565 197.436 90.35 196.343 90.6479C194.852 91.1443 193.064 90.7472 191.176 89.7544L189.586 88.8609L186.506 95.4133C185.909 96.6046 185.015 97.4981 183.922 97.796C182.432 98.2924 180.643 97.8952 178.755 96.9025L175.377 94.9169C171.7 92.7327 168.521 88.1659 167.428 83.4998L153.417 20.1598C152.523 16.1887 150.337 12.9125 147.952 10.6291L127.583 66.3245C127.086 67.7144 126.192 68.7072 124.9 69.2036C123.41 69.7993 121.522 69.4022 119.534 68.3101L117.448 67.1188L115.162 73.4726C114.666 74.8625 113.771 75.8553 112.48 76.3517C110.989 76.8481 109.101 76.5503 107.114 75.4582L95.2897 68.6079L108.008 61.2613H108.108L117.348 66.5231L137.917 10.4305C138.712 8.24636 140.301 7.1543 142.388 7.25357C144.077 7.35285 146.065 8.34564 147.853 9.83483L150.238 3.18314C151.033 0.999001 152.623 -0.0930668 154.709 0.00621213C158.882 0.304049 164.546 5.46655 166.136 12.6146L180.246 76.1532C181.239 80.72 184.518 85.2868 187.996 87.3717L189.486 88.2652L190.878 85.1875C191.772 83.3012 193.362 82.4077 195.349 82.6063C196.839 82.7056 198.529 83.4998 200.218 84.7904L203.397 78.1387C204.292 76.2524 205.881 75.3589 207.869 75.5575C211.744 75.8553 217.01 80.4221 218.997 87.2724C220.19 91.5414 223.27 95.7111 226.549 97.6967L226.847 97.8952L228.934 91.4421C229.629 89.1587 231.219 87.9673 233.405 88.0666C235.194 88.1659 237.28 89.1587 239.268 90.8464L241.354 84.294C242.05 82.0106 243.64 80.8193 245.826 80.9185C249.999 81.1171 255.563 86.081 257.352 93.2291L271.561 151.704C272.654 156.271 275.833 160.739 279.41 162.724L295.805 171.858L295.607 172.156L279.212 163.022C275.535 160.937 272.356 156.47 271.163 151.804L256.954 93.3284C255.265 86.3789 249.701 81.4149 245.726 81.2164C245.627 81.2164 245.627 81.2164 245.528 81.2164C243.64 81.2164 242.248 82.3084 241.652 84.3933L239.466 91.045C241.851 93.2291 243.938 96.5053 244.832 100.377L259.041 158.853C260.134 163.419 263.314 167.887 266.891 169.872L283.286 179.006L283.186 179.304ZM200.615 84.989C203.099 87.0738 205.484 90.35 206.577 94.4205C207.769 98.6895 210.85 102.859 214.129 104.845L217.11 106.533C218.997 107.625 220.786 107.922 222.276 107.327C223.469 106.93 224.264 105.937 224.76 104.448L226.847 98.0938L226.45 97.8952C223.071 95.9097 219.892 91.6407 218.699 87.2724C216.811 80.5214 211.645 76.0539 207.869 75.756C205.981 75.5575 204.59 76.451 203.795 78.1387L200.615 84.989ZM227.145 97.9945L229.53 99.3844C231.418 100.476 233.206 100.774 234.697 100.179C235.889 99.7815 236.684 98.7887 237.181 97.2996L239.168 91.045C237.28 89.3573 235.194 88.2652 233.405 88.2652C231.418 88.1659 230.027 89.258 229.331 91.4421L227.145 97.9945ZM148.052 10.4305C150.536 12.7139 152.821 16.0894 153.716 20.1598L167.825 83.3012C168.819 87.8681 172.098 92.4349 175.576 94.5198L178.954 96.5053C180.742 97.4981 182.432 97.8952 183.823 97.3988C184.916 97.101 185.711 96.3068 186.307 95.2147L189.387 88.6623L187.797 87.7688C184.121 85.5847 180.941 81.0178 179.848 76.3517L165.739 13.2103C164.149 6.26079 158.584 1.09828 154.61 0.899723C152.623 0.800444 151.132 1.79323 150.437 3.77881L148.052 10.4305ZM189.884 88.4637L191.474 89.3573C193.262 90.35 194.951 90.7472 196.343 90.2508C197.436 89.9529 198.23 89.1587 198.827 88.0666L200.218 85.0883C198.628 83.7976 196.939 83.1027 195.448 83.0034C193.56 82.8048 192.169 83.6983 191.374 85.3861L189.884 88.4637ZM95.8859 68.7072L107.313 75.2596C109.201 76.3517 110.989 76.6496 112.38 76.1532C113.473 75.756 114.368 74.8625 114.864 73.4726L117.249 67.0195L108.108 61.7577L95.8859 68.7072ZM117.547 66.9202L119.733 68.1116C121.621 69.2036 123.41 69.5015 124.801 69.0051C125.894 68.608 126.788 67.7144 127.285 66.3245L147.754 10.4305C145.965 8.84204 143.978 7.94853 142.388 7.84925C140.401 7.74997 138.91 8.74276 138.215 10.7283L117.547 66.9202Z" fill="#42E8E0"/>
<path d="M139.904 8.34546L139.805 8.1469L152.225 0.899536L152.424 1.19737L139.904 8.34546Z" fill="#42E8E0"/>
<path d="M205.217 76.1112L192.565 83.4023L192.713 83.6603L205.366 76.3692L205.217 76.1112Z" fill="#F57A00"/>
<path d="M243.923 81.2398L230.736 88.7966L230.885 89.055L244.071 81.4981L243.923 81.2398Z" fill="#42E8E0"/>
<path d="M283.186 179.304L266.791 170.17C263.115 168.085 259.935 163.618 258.743 158.952L244.534 100.476C243.64 96.8032 241.652 93.6262 239.367 91.4421L237.38 97.4981C236.883 98.9873 235.989 100.079 234.697 100.576C233.206 101.171 231.219 100.874 229.331 99.6823L227.046 98.3916L224.959 104.646C224.462 106.135 223.568 107.227 222.276 107.724C220.786 108.32 218.799 108.022 216.911 106.83L213.93 105.143C210.551 103.157 207.372 98.888 206.18 94.5198C205.087 90.5486 202.801 87.3717 200.317 85.3861L198.926 88.2652C198.33 89.4565 197.436 90.35 196.343 90.6479C194.852 91.1443 193.064 90.7472 191.176 89.7544L189.586 88.8609L186.506 95.4133C185.909 96.6046 185.015 97.4981 183.922 97.796C182.432 98.2924 180.643 97.8952 178.755 96.9025L175.377 94.9169C171.7 92.7327 168.521 88.1659 167.428 83.4998L153.417 20.1598C152.523 16.1887 150.337 12.9125 147.952 10.6291L127.583 66.3245C127.086 67.7144 126.192 68.7072 124.9 69.2036C123.41 69.7993 121.522 69.4022 119.534 68.3101L117.448 67.1188L115.162 73.4726C114.666 74.8625 113.771 75.8553 112.48 76.3517C110.989 76.8481 109.101 76.5503 107.114 75.4582L95.2897 68.6079L108.008 61.2613H108.108L117.348 66.5231L137.917 10.4305C138.712 8.24636 140.301 7.1543 142.388 7.25357C144.077 7.35285 146.065 8.34564 147.853 9.83483L150.238 3.18314C151.033 0.999001 152.623 -0.0930668 154.709 0.00621213C158.882 0.304049 164.546 5.46655 166.136 12.6146L180.246 76.1532C181.239 80.72 184.518 85.2868 187.996 87.3717L189.486 88.2652L190.878 85.1875C191.772 83.3012 193.362 82.4077 195.349 82.6063C196.839 82.7056 198.529 83.4998 200.218 84.7904L203.397 78.1387C204.292 76.2524 205.881 75.3589 207.869 75.5575C211.744 75.8553 217.01 80.4221 218.997 87.2724C220.19 91.5414 223.27 95.7111 226.549 97.6967L226.847 97.8952L228.934 91.4421C229.629 89.1587 231.219 87.9673 233.405 88.0666C235.194 88.1659 237.28 89.1587 239.268 90.8464L241.354 84.294C242.05 82.0106 243.64 80.8193 245.826 80.9185C249.999 81.1171 255.563 86.081 257.352 93.2291L271.561 151.704C272.654 156.271 275.833 160.739 279.41 162.724L295.805 171.858L295.607 172.156L279.212 163.022C275.535 160.937 272.356 156.47 271.163 151.804L256.954 93.3284C255.265 86.3789 249.701 81.4149 245.726 81.2164C245.627 81.2164 245.627 81.2164 245.527 81.2164C243.64 81.2164 242.248 82.3084 241.652 84.3933L239.466 91.045C241.851 93.2291 243.938 96.5053 244.832 100.377L259.041 158.853C260.134 163.419 263.314 167.887 266.891 169.872L283.286 179.006L283.186 179.304ZM200.615 84.989C203.099 87.0738 205.484 90.35 206.577 94.4205C207.769 98.6895 210.85 102.859 214.129 104.845L217.11 106.533C218.997 107.625 220.786 107.922 222.276 107.327C223.469 106.93 224.264 105.937 224.76 104.448L226.847 98.0938L226.45 97.8952C223.071 95.9097 219.892 91.6407 218.699 87.2724C216.811 80.5214 211.644 76.0539 207.869 75.756C205.981 75.5575 204.59 76.451 203.795 78.1387L200.615 84.989ZM227.145 97.9945L229.53 99.3844C231.418 100.476 233.206 100.774 234.697 100.179C235.889 99.7815 236.684 98.7887 237.181 97.2996L239.168 91.045C237.28 89.3573 235.194 88.2652 233.405 88.2652C231.418 88.1659 230.027 89.258 229.331 91.4421L227.145 97.9945ZM148.052 10.4305C150.536 12.7139 152.821 16.0894 153.716 20.1598L167.825 83.3012C168.819 87.8681 172.098 92.4349 175.576 94.5198L178.954 96.5053C180.742 97.4981 182.432 97.8952 183.823 97.3988C184.916 97.101 185.711 96.3068 186.307 95.2147L189.387 88.6623L187.797 87.7688C184.121 85.5847 180.941 81.0178 179.848 76.3517L165.739 13.2103C164.149 6.26079 158.584 1.09828 154.61 0.899723C152.623 0.800444 151.132 1.79323 150.437 3.77881L148.052 10.4305ZM189.884 88.4637L191.474 89.3573C193.262 90.35 194.951 90.7472 196.343 90.2508C197.436 89.9529 198.23 89.1587 198.827 88.0666L200.218 85.0883C198.628 83.7976 196.939 83.1027 195.448 83.0034C193.56 82.8048 192.169 83.6983 191.374 85.3861L189.884 88.4637ZM95.8859 68.7072L107.313 75.2596C109.201 76.3517 110.989 76.6496 112.38 76.1532C113.473 75.756 114.368 74.8625 114.864 73.4726L117.249 67.0195L108.108 61.7577L95.8859 68.7072ZM117.547 66.9202L119.733 68.1116C121.621 69.2036 123.41 69.5015 124.801 69.0051C125.894 68.608 126.788 67.7144 127.285 66.3245L147.754 10.4305C145.965 8.84204 143.978 7.94853 142.388 7.84925C140.401 7.74997 138.91 8.74276 138.215 10.7283L117.547 66.9202Z" fill="#F57A00"/>
<path opacity="0.5" d="M108.008 61.5592L119.634 68.3101C123.112 70.2957 126.192 69.6007 127.384 66.4238L150.337 3.67954C152.921 -3.46855 163.652 2.98458 165.937 13.111L180.047 76.2524C181.041 80.9185 184.32 85.4854 187.897 87.5702L191.275 89.5558C194.554 91.4421 197.535 90.9457 198.827 88.1659L203.497 78.238C206.378 72.0827 216.116 77.8409 218.699 87.3717C219.892 91.7399 222.972 95.9097 226.35 97.8952L229.331 99.583C232.908 101.668 236.088 100.774 237.181 97.4981L241.454 84.3933C243.838 76.9474 254.669 83.202 257.054 93.3284L271.263 151.804C272.356 156.371 275.635 160.937 279.212 162.923L295.607 172.057L108.008 61.5592Z" fill="url(#paint3_linear_1131_38889)"/>
<path opacity="0.5" d="M95.5877 68.5087L107.213 75.2597C110.691 77.2453 113.771 76.5503 114.964 73.3734L137.917 10.6291C140.5 3.48104 151.231 9.93417 153.517 20.0606L167.626 83.202C168.62 87.8681 171.899 92.435 175.476 94.5198L178.854 96.5054C182.133 98.3917 185.114 97.8953 186.406 95.1155L191.076 85.1876C193.958 79.0323 203.695 84.7905 206.279 94.3213C207.471 98.6895 210.551 102.859 213.93 104.845L216.911 106.533C220.488 108.617 223.667 107.724 224.76 104.448L229.033 91.3429C231.418 83.897 242.248 90.1515 244.633 100.278L258.842 158.753C259.935 163.32 263.214 167.887 266.791 169.873L283.186 179.006L95.5877 68.5087Z" fill="url(#paint4_linear_1131_38889)"/>
<path d="M64.7849 127.282L77.6028 51.3333L76.6092 50.9362L78.199 50.0427C78.4971 49.8441 78.8946 49.8441 79.3914 50.142L181.736 109.213C182.531 109.709 183.226 110.901 183.028 111.794L170.11 188.338C170.011 188.735 169.812 189.033 169.614 189.132L168.123 190.026L167.825 188.636H167.924L66.176 129.962C65.2817 129.367 64.5862 128.076 64.7849 127.282Z" fill="url(#paint5_linear_1131_38889)"/>
<path d="M181.041 111.199L182.73 110.504C182.928 110.901 183.028 111.397 182.928 111.794L170.011 188.338C169.912 188.735 169.713 189.033 169.514 189.133L168.024 190.026L167.726 188.636H167.825L162.658 185.658L181.041 111.199Z" fill="url(#paint6_linear_1131_38889)"/>
<path d="M64.4869 130.756L166.831 189.827C167.626 190.324 168.322 190.026 168.421 189.232L181.338 112.688C181.438 111.794 180.842 110.603 180.047 110.106L77.7022 51.0354C76.9073 50.539 76.2118 50.8368 76.1124 51.6311L63.1951 128.175C62.9964 129.069 63.6919 130.26 64.4869 130.756Z" fill="#24126A"/>
<g opacity="0.51">
<path d="M77.3048 52.4254L180.146 111.695L167.229 188.438L64.3875 129.168L77.3048 52.4254Z" fill="url(#paint7_linear_1131_38889)"/>
</g>
<path d="M0.993504 167.887L102.245 226.362C103.338 226.958 105.027 227.057 106.021 226.561L166.434 191.714C167.428 191.118 167.229 190.224 166.136 189.53L64.9837 131.054C63.8907 130.459 62.2015 130.359 61.2078 130.856L0.79478 165.703C-0.198856 166.298 -0.0994956 167.291 0.993504 167.887Z" fill="url(#paint8_linear_1131_38889)"/>
<path d="M0.993532 167.49L102.245 225.965C103.338 226.56 105.027 226.66 106.021 226.163L166.434 191.316C166.732 191.118 166.931 190.919 167.03 190.622C167.13 191.019 166.931 191.515 166.434 191.813L106.021 226.66C105.027 227.255 103.338 227.156 102.245 226.461L0.993532 167.887C0.297987 167.49 -0.00010556 166.894 0.0992581 166.397C0.198622 166.795 0.496714 167.192 0.993532 167.49Z" fill="white"/>
<g opacity="0.15">
<path d="M64.3876 130.26L69.9519 133.139L125.993 100.874C126.887 100.377 128.576 100.377 129.669 101.072L226.251 156.768C227.145 156.271 231.418 154.187 231.418 154.187L229.331 157.463C229.232 157.661 229.033 157.959 228.735 158.058L169.713 192.111C168.819 192.608 167.13 192.608 166.037 191.913L67.1698 134.926C66.7723 134.629 66.4742 134.331 66.3748 134.033L64.3876 130.26Z" fill="#6A6E96"/>
<path d="M65.2818 131.154L166.533 189.629C167.626 190.225 169.315 190.324 170.309 189.827L230.722 154.98C231.716 154.385 231.517 153.491 230.424 152.796L129.173 94.3211C128.08 93.7254 126.39 93.6261 125.397 94.1225L64.9837 128.969C63.9901 129.565 64.0894 130.558 65.2818 131.154Z" fill="url(#paint9_linear_1131_38889)"/>
<path d="M230.424 152.697L129.173 94.3213C128.477 93.9241 127.484 93.7256 126.689 93.8249C127.285 93.8249 127.98 94.0234 128.477 94.3213L229.729 152.797C230.822 153.392 230.921 154.385 230.027 154.981L169.614 189.828C169.316 190.026 168.819 190.125 168.322 190.225C169.018 190.324 169.812 190.125 170.309 189.828L230.722 154.981C231.716 154.385 231.617 153.392 230.424 152.697Z" fill="white"/>
<g opacity="0.5">
<path d="M118.342 121.126L115.063 119.24C114.765 119.042 114.368 119.141 114.069 119.24L110.492 121.325C110.194 121.524 110.194 121.722 110.492 121.921L113.771 123.807C114.069 124.006 114.467 123.906 114.765 123.807L118.342 121.722C118.541 121.524 118.541 121.226 118.342 121.126Z" fill="#24126A"/>
<path d="M123.31 124.005L120.031 122.119C119.733 121.921 119.336 122.02 119.038 122.119L115.461 124.204C115.162 124.403 115.162 124.601 115.461 124.8L118.74 126.686C119.038 126.885 119.435 126.785 119.733 126.686L123.31 124.601C123.608 124.403 123.608 124.204 123.31 124.005Z" fill="#24126A"/>
<path d="M128.378 126.885L125.099 124.998C124.801 124.8 124.403 124.899 124.105 124.998L120.528 127.083C120.23 127.282 120.23 127.48 120.528 127.679L123.807 129.565C124.105 129.764 124.503 129.664 124.801 129.565L128.378 127.48C128.577 127.282 128.577 127.083 128.378 126.885Z" fill="#24126A"/>
<path d="M124.503 130.757L121.224 128.87C120.926 128.672 120.528 128.771 120.23 128.87L117.249 130.657C116.951 130.856 116.951 131.055 117.249 131.253L120.528 133.139C120.826 133.338 121.224 133.239 121.522 133.139L124.503 131.352C124.801 131.154 124.801 130.856 124.503 130.757Z" fill="#24126A"/>
<path d="M129.57 133.636L126.291 131.749C125.993 131.551 125.596 131.65 125.298 131.749L122.317 133.536C122.019 133.735 122.019 133.933 122.317 134.132L125.596 136.018C125.894 136.217 126.291 136.118 126.589 136.018L129.57 134.231C129.769 134.033 129.769 133.834 129.57 133.636Z" fill="#24126A"/>
<path d="M134.538 136.514L131.259 134.628C130.961 134.43 130.564 134.529 130.266 134.628L127.285 136.415C126.987 136.614 126.987 136.812 127.285 137.011L130.564 138.897C130.862 139.096 131.259 138.996 131.557 138.897L134.538 137.11C134.737 136.912 134.836 136.713 134.538 136.514Z" fill="#24126A"/>
<path d="M139.606 139.394L136.327 137.507C136.029 137.309 135.631 137.408 135.333 137.507L132.352 139.294C132.054 139.493 132.054 139.692 132.352 139.89L135.631 141.776C135.929 141.975 136.327 141.876 136.625 141.776L139.606 139.989C139.805 139.791 139.805 139.592 139.606 139.394Z" fill="#24126A"/>
<path d="M144.574 142.372L141.295 140.486C140.997 140.287 140.599 140.387 140.301 140.486L137.32 142.273C137.022 142.471 137.022 142.67 137.32 142.869L140.599 144.755C140.898 144.953 141.295 144.854 141.593 144.755L144.574 142.968C144.773 142.769 144.872 142.471 144.574 142.372Z" fill="#24126A"/>
<path d="M149.542 145.251L146.263 143.365C145.965 143.166 145.568 143.266 145.269 143.365L142.289 145.152C141.99 145.35 141.99 145.549 142.289 145.748L145.568 147.634C145.866 147.832 146.263 147.733 146.561 147.634L149.542 145.847C149.84 145.648 149.84 145.35 149.542 145.251Z" fill="#24126A"/>
<path d="M154.61 148.13L151.331 146.244C151.033 146.046 150.635 146.145 150.337 146.244L147.356 148.031C147.058 148.23 147.058 148.428 147.356 148.627L150.635 150.513C150.933 150.712 151.331 150.612 151.629 150.513L154.61 148.726C154.808 148.528 154.908 148.23 154.61 148.13Z" fill="#24126A"/>
<path d="M159.578 151.009L156.299 149.123C156.001 148.925 155.603 149.024 155.305 149.123L152.324 150.91C152.026 151.109 152.026 151.307 152.324 151.506L155.603 153.392C155.901 153.591 156.299 153.491 156.597 153.392L159.578 151.605C159.876 151.406 159.876 151.109 159.578 151.009Z" fill="#24126A"/>
<path d="M164.645 153.889L161.366 152.002C161.068 151.804 160.671 151.903 160.373 152.002L157.392 153.789C157.094 153.988 157.094 154.186 157.392 154.385L160.671 156.271C160.969 156.47 161.366 156.371 161.664 156.271L164.645 154.484C164.844 154.286 164.844 154.087 164.645 153.889Z" fill="#24126A"/>
<path d="M169.614 156.768L166.335 154.881C166.036 154.683 165.639 154.782 165.341 154.881L162.36 156.668C162.062 156.867 162.062 157.065 162.36 157.264L165.639 159.15C165.937 159.349 166.335 159.249 166.633 159.15L169.614 157.363C169.912 157.165 169.912 156.966 169.614 156.768Z" fill="#24126A"/>
<path d="M122.416 134.926L119.137 133.04C118.839 132.841 118.441 132.941 118.143 133.04L115.162 134.827C114.864 135.026 114.864 135.224 115.162 135.423L118.441 137.309C118.74 137.508 119.137 137.408 119.435 137.309L122.416 135.522C122.714 135.323 122.714 135.026 122.416 134.926Z" fill="#24126A"/>
<path d="M117.348 131.948L114.069 130.062C113.771 129.863 113.374 129.962 113.076 130.062L110.095 131.849C109.797 132.047 109.797 132.246 110.095 132.444L113.374 134.331C113.672 134.529 114.069 134.43 114.368 134.331L117.348 132.544C117.547 132.345 117.547 132.147 117.348 131.948Z" fill="#24126A"/>
<path d="M112.281 128.969L105.325 124.899C105.027 124.7 104.63 124.8 104.332 124.899L101.351 126.686C101.053 126.885 101.053 127.083 101.351 127.282L108.306 131.352C108.604 131.551 109.002 131.451 109.3 131.352L112.281 129.565C112.48 129.366 112.48 129.168 112.281 128.969Z" fill="#24126A"/>
<path d="M106.319 130.955L100.655 127.679C100.357 127.48 99.9597 127.579 99.6616 127.679L96.6807 129.466C96.3826 129.664 96.3826 129.863 96.6807 130.061L102.344 133.338C102.643 133.536 103.04 133.437 103.338 133.338L106.319 131.551C106.518 131.352 106.617 131.054 106.319 130.955Z" fill="#24126A"/>
<path d="M127.484 137.805L124.205 135.919C123.906 135.72 123.509 135.82 123.211 135.919L120.23 137.706C119.932 137.905 119.932 138.103 120.23 138.302L123.509 140.188C123.807 140.387 124.205 140.287 124.503 140.188L127.484 138.401C127.682 138.202 127.682 137.905 127.484 137.805Z" fill="#24126A"/>
<path d="M132.452 140.684L129.173 138.798C128.875 138.599 128.477 138.699 128.179 138.798L125.198 140.585C124.9 140.784 124.9 140.982 125.198 141.181L128.477 143.067C128.775 143.266 129.173 143.166 129.471 143.067L132.452 141.28C132.65 141.081 132.75 140.784 132.452 140.684Z" fill="#24126A"/>
<path d="M137.42 143.564L134.141 141.677C133.843 141.479 133.445 141.578 133.147 141.677L130.166 143.464C129.868 143.663 129.868 143.861 130.166 144.06L133.445 145.946C133.743 146.145 134.141 146.046 134.439 145.946L137.42 144.159C137.718 143.961 137.718 143.663 137.42 143.564Z" fill="#24126A"/>
<path d="M142.487 146.442L139.208 144.556C138.91 144.358 138.513 144.457 138.215 144.556L135.234 146.343C134.936 146.542 134.936 146.74 135.234 146.939L138.513 148.825C138.811 149.024 139.208 148.924 139.507 148.825L142.487 147.038C142.686 146.84 142.786 146.641 142.487 146.442Z" fill="#24126A"/>
<path d="M147.456 149.322L144.177 147.435C143.878 147.237 143.481 147.336 143.183 147.435L140.202 149.222C139.904 149.421 139.904 149.62 140.202 149.818L143.481 151.704C143.779 151.903 144.177 151.804 144.475 151.704L147.456 149.917C147.754 149.719 147.754 149.52 147.456 149.322Z" fill="#24126A"/>
<path d="M152.523 152.201L149.244 150.314C148.946 150.116 148.549 150.215 148.25 150.314L145.27 152.101C144.971 152.3 144.971 152.498 145.27 152.697L148.549 154.583C148.847 154.782 149.244 154.683 149.542 154.583L152.523 152.796C152.722 152.598 152.821 152.399 152.523 152.201Z" fill="#24126A"/>
<path d="M157.491 155.179L154.212 153.293C153.914 153.094 153.517 153.193 153.219 153.293L150.238 155.08C149.94 155.278 149.94 155.477 150.238 155.675L153.517 157.562C153.815 157.76 154.212 157.661 154.51 157.562L157.491 155.775C157.789 155.576 157.789 155.278 157.491 155.179Z" fill="#24126A"/>
<path d="M162.559 158.058L159.28 156.172C158.982 155.973 158.584 156.073 158.286 156.172L155.305 157.959C155.007 158.158 155.007 158.356 155.305 158.555L158.584 160.441C158.882 160.64 159.28 160.54 159.578 160.441L162.559 158.654C162.758 158.455 162.758 158.158 162.559 158.058Z" fill="#24126A"/>
<path d="M167.527 160.937L164.248 159.051C163.95 158.852 163.552 158.952 163.254 159.051L160.273 160.838C159.975 161.037 159.975 161.235 160.273 161.434L163.552 163.32C163.851 163.519 164.248 163.419 164.546 163.32L167.527 161.533C167.825 161.334 167.825 161.037 167.527 160.937Z" fill="#24126A"/>
<path d="M176.47 166.1L169.415 162.029C169.117 161.831 168.719 161.93 168.421 162.029L165.44 163.816C165.142 164.015 165.142 164.214 165.44 164.412L172.495 168.483C172.793 168.681 173.191 168.582 173.489 168.483L176.47 166.696C176.669 166.497 176.768 166.199 176.47 166.1Z" fill="#24126A"/>
<path d="M167.229 171.461L161.267 167.986C160.969 167.788 160.571 167.887 160.273 167.986L157.292 169.773C156.994 169.972 156.994 170.17 157.292 170.369L163.254 173.844C163.552 174.042 163.95 173.943 164.248 173.844L167.229 172.057C167.527 171.858 167.527 171.56 167.229 171.461Z" fill="#24126A"/>
<path d="M126.788 142.67L123.509 140.784C123.211 140.585 122.813 140.684 122.515 140.784L119.534 142.571C119.236 142.769 119.236 142.968 119.534 143.166L122.813 145.053C123.111 145.251 123.509 145.152 123.807 145.053L126.788 143.266C126.987 143.067 126.987 142.869 126.788 142.67Z" fill="#24126A"/>
<path d="M121.621 139.791L118.342 137.905C118.044 137.706 117.646 137.805 117.348 137.905L114.367 139.692C114.069 139.89 114.069 140.089 114.367 140.287L117.646 142.174C117.945 142.372 118.342 142.273 118.64 142.174L121.621 140.387C121.82 140.188 121.82 139.89 121.621 139.791Z" fill="#24126A"/>
<path d="M116.454 136.813L113.175 134.926C112.877 134.728 112.479 134.827 112.181 134.926L109.2 136.713C108.902 136.912 108.902 137.11 109.2 137.309L112.479 139.195C112.778 139.394 113.175 139.295 113.473 139.195L116.454 137.408C116.752 137.21 116.752 136.912 116.454 136.813Z" fill="#24126A"/>
<path d="M111.287 133.834L108.008 131.948C107.71 131.749 107.313 131.849 107.015 131.948L104.034 133.735C103.736 133.933 103.736 134.132 104.034 134.331L107.313 136.217C107.611 136.415 108.008 136.316 108.306 136.217L111.287 134.43C111.585 134.231 111.585 133.933 111.287 133.834Z" fill="#24126A"/>
<path d="M131.756 145.648L128.477 143.762C128.179 143.564 127.782 143.663 127.484 143.762L124.503 145.549C124.205 145.748 124.205 145.946 124.503 146.145L127.782 148.031C128.08 148.23 128.477 148.13 128.775 148.031L131.756 146.244C131.955 146.046 132.054 145.748 131.756 145.648Z" fill="#24126A"/>
<path d="M136.724 148.527L133.445 146.641C133.147 146.442 132.75 146.542 132.452 146.641L129.471 148.428C129.173 148.627 129.173 148.825 129.471 149.024L132.75 150.91C133.048 151.109 133.445 151.009 133.743 150.91L136.724 149.123C137.022 148.924 137.022 148.627 136.724 148.527Z" fill="#24126A"/>
<path d="M141.792 151.407L138.513 149.52C138.215 149.322 137.817 149.421 137.519 149.52L134.538 151.307C134.24 151.506 134.24 151.704 134.538 151.903L137.817 153.789C138.115 153.988 138.513 153.889 138.811 153.789L141.792 152.002C141.991 151.804 142.09 151.506 141.792 151.407Z" fill="#24126A"/>
<path d="M146.76 154.285L143.481 152.399C143.183 152.201 142.785 152.3 142.487 152.399L139.506 154.186C139.208 154.385 139.208 154.583 139.506 154.782L142.785 156.668C143.084 156.867 143.481 156.767 143.779 156.668L146.76 154.881C147.058 154.683 147.058 154.385 146.76 154.285Z" fill="#24126A"/>
<path d="M151.828 157.165L148.549 155.278C148.25 155.08 147.853 155.179 147.555 155.278L144.574 157.065C144.276 157.264 144.276 157.463 144.574 157.661L147.853 159.547C148.151 159.746 148.549 159.647 148.847 159.547L151.828 157.76C152.026 157.562 152.126 157.363 151.828 157.165Z" fill="#24126A"/>
<path d="M156.796 160.044L153.517 158.157C153.219 157.959 152.821 158.058 152.523 158.157L149.542 159.945C149.244 160.143 149.244 160.342 149.542 160.54L152.821 162.426C153.119 162.625 153.517 162.526 153.815 162.426L156.796 160.639C157.094 160.441 157.094 160.242 156.796 160.044Z" fill="#24126A"/>
<path d="M161.863 162.923L158.584 161.037C158.286 160.838 157.889 160.937 157.591 161.037L154.61 162.824C154.312 163.022 154.312 163.221 154.61 163.419L157.889 165.306C158.187 165.504 158.584 165.405 158.882 165.306L161.863 163.519C162.062 163.32 162.062 163.122 161.863 162.923Z" fill="#24126A"/>
<path d="M166.831 165.802L163.552 163.916C163.254 163.717 162.857 163.816 162.559 163.916L159.578 165.703C159.28 165.901 159.28 166.1 159.578 166.298L162.857 168.185C163.155 168.383 163.552 168.284 163.851 168.185L166.831 166.398C167.13 166.298 167.13 166.001 166.831 165.802Z" fill="#24126A"/>
<path d="M171.899 168.78L168.62 166.894C168.322 166.695 167.924 166.795 167.626 166.894L164.645 168.681C164.347 168.88 164.347 169.078 164.645 169.277L167.924 171.163C168.223 171.362 168.62 171.262 168.918 171.163L171.899 169.376C172.098 169.177 172.098 168.88 171.899 168.78Z" fill="#24126A"/>
<path d="M114.665 141.081L111.386 139.195C111.088 138.997 110.691 139.096 110.393 139.195L107.412 140.982C107.114 141.181 107.114 141.379 107.412 141.578L110.691 143.464C110.989 143.663 111.386 143.563 111.685 143.464L114.665 141.677C114.864 141.479 114.864 141.181 114.665 141.081Z" fill="#24126A"/>
<path d="M109.598 138.202L106.319 136.316C106.021 136.118 105.623 136.217 105.325 136.316L102.344 138.103C102.046 138.302 102.046 138.5 102.344 138.699L105.623 140.585C105.921 140.784 106.319 140.684 106.617 140.585L109.598 138.798C109.896 138.6 109.896 138.302 109.598 138.202Z" fill="#24126A"/>
<path d="M104.63 135.323L101.351 133.437C101.053 133.238 100.655 133.338 100.357 133.437L97.3762 135.224C97.0781 135.422 97.0781 135.621 97.3762 135.82L100.655 137.706C100.953 137.904 101.351 137.805 101.649 137.706L104.63 135.919C104.928 135.72 104.928 135.422 104.63 135.323Z" fill="#24126A"/>
<path d="M99.6617 132.444L96.3827 130.558C96.0846 130.359 95.6871 130.459 95.389 130.558L92.4081 132.345C92.11 132.544 92.11 132.742 92.4081 132.941L95.6871 134.827C95.9852 135.026 96.3827 134.926 96.6808 134.827L99.6617 133.04C99.8604 132.841 99.9598 132.544 99.6617 132.444Z" fill="#24126A"/>
<path d="M94.7928 135.224L91.5138 133.338C91.2157 133.139 90.8183 133.239 90.5202 133.338L89.5265 133.933C89.2285 134.132 89.2285 134.331 89.5265 134.529L92.8055 136.415C93.1036 136.614 93.5011 136.515 93.7992 136.415L94.7928 135.82C95.0909 135.621 95.0909 135.423 94.7928 135.224Z" fill="#24126A"/>
<path d="M101.351 138.997L98.0719 137.11C97.7738 136.912 97.3764 137.011 97.0783 137.11L96.0847 137.706C95.7866 137.904 95.7866 138.103 96.0847 138.302L99.3637 140.188C99.6617 140.386 100.059 140.287 100.357 140.188L101.351 139.592C101.55 139.394 101.55 139.096 101.351 138.997Z" fill="#24126A"/>
<path d="M106.319 141.876L103.04 139.99C102.742 139.791 102.344 139.89 102.046 139.99L101.053 140.585C100.755 140.784 100.755 140.982 101.053 141.181L104.332 143.067C104.63 143.266 105.027 143.166 105.325 143.067L106.319 142.471C106.518 142.273 106.518 141.975 106.319 141.876Z" fill="#24126A"/>
<path d="M111.287 144.755L108.008 142.869C107.71 142.67 107.313 142.769 107.015 142.869L106.021 143.464C105.723 143.663 105.723 143.861 106.021 144.06L109.3 145.946C109.598 146.145 109.995 146.045 110.294 145.946L111.287 145.351C111.486 145.152 111.585 144.854 111.287 144.755Z" fill="#24126A"/>
<path d="M116.255 147.634L112.976 145.748C112.678 145.549 112.281 145.649 111.983 145.748L110.989 146.343C110.691 146.542 110.691 146.741 110.989 146.939L114.268 148.825C114.566 149.024 114.964 148.925 115.262 148.825L116.255 148.23C116.454 148.031 116.553 147.733 116.255 147.634Z" fill="#24126A"/>
<path d="M143.978 163.618L140.699 161.732C140.401 161.533 140.003 161.632 139.705 161.732L138.711 162.327C138.413 162.526 138.413 162.724 138.711 162.923L141.99 164.809C142.289 165.008 142.686 164.909 142.984 164.809L143.978 164.214C144.176 164.015 144.276 163.717 143.978 163.618Z" fill="#24126A"/>
<path d="M148.946 166.497L145.667 164.611C145.369 164.412 144.971 164.511 144.673 164.611L143.68 165.206C143.382 165.405 143.382 165.603 143.68 165.802L146.959 167.688C147.257 167.887 147.654 167.788 147.952 167.688L148.946 167.093C149.244 166.894 149.244 166.596 148.946 166.497Z" fill="#24126A"/>
<path d="M153.914 169.376L150.635 167.49C150.337 167.291 149.939 167.39 149.641 167.49L148.648 168.085C148.35 168.284 148.35 168.482 148.648 168.681L151.927 170.567C152.225 170.766 152.622 170.667 152.92 170.567L153.914 169.972C154.212 169.773 154.212 169.475 153.914 169.376Z" fill="#24126A"/>
<path d="M158.882 172.156L155.603 170.269C155.305 170.071 154.908 170.17 154.61 170.269L153.616 170.865C153.318 171.064 153.318 171.262 153.616 171.461L156.895 173.347C157.193 173.546 157.591 173.446 157.889 173.347L158.882 172.751C159.181 172.553 159.181 172.354 158.882 172.156Z" fill="#24126A"/>
<path d="M119.634 143.961L116.355 142.074C116.057 141.876 115.659 141.975 115.361 142.074L112.38 143.861C112.082 144.06 112.082 144.259 112.38 144.457L115.659 146.343C115.957 146.542 116.355 146.443 116.653 146.343L119.634 144.556C119.932 144.358 119.932 144.06 119.634 143.961Z" fill="#24126A"/>
<path d="M124.701 146.84L121.422 144.953C121.124 144.755 120.727 144.854 120.429 144.953L117.448 146.74C117.15 146.939 117.15 147.138 117.448 147.336L120.727 149.222C121.025 149.421 121.422 149.322 121.72 149.222L124.701 147.435C124.9 147.237 124.9 146.939 124.701 146.84Z" fill="#24126A"/>
<path d="M129.669 149.719L126.39 147.833C126.092 147.634 125.695 147.733 125.397 147.833L122.416 149.62C122.118 149.818 122.118 150.017 122.416 150.215L125.695 152.102C125.993 152.3 126.39 152.201 126.688 152.102L129.669 150.315C129.868 150.116 129.967 149.918 129.669 149.719Z" fill="#24126A"/>
<path d="M134.638 152.598L131.359 150.712C131.061 150.513 130.663 150.612 130.365 150.712L127.384 152.499C127.086 152.697 127.086 152.896 127.384 153.094L130.663 154.981C130.961 155.179 131.359 155.08 131.657 154.981L134.638 153.194C134.936 152.995 134.936 152.796 134.638 152.598Z" fill="#24126A"/>
<path d="M139.705 155.477L136.426 153.591C136.128 153.392 135.731 153.491 135.433 153.591L132.452 155.378C132.154 155.576 132.154 155.775 132.452 155.973L135.731 157.86C136.029 158.058 136.426 157.959 136.724 157.86L139.705 156.073C139.904 155.874 140.003 155.675 139.705 155.477Z" fill="#24126A"/>
<path d="M144.673 158.455L141.394 156.569C141.096 156.37 140.699 156.47 140.401 156.569L137.42 158.356C137.122 158.555 137.122 158.753 137.42 158.952L140.699 160.838C140.997 161.037 141.394 160.937 141.693 160.838L144.673 159.051C144.972 158.852 144.972 158.555 144.673 158.455Z" fill="#24126A"/>
<path d="M149.741 161.335L146.462 159.448C146.164 159.25 145.766 159.349 145.468 159.448L142.487 161.235C142.189 161.434 142.189 161.632 142.487 161.831L145.766 163.717C146.065 163.916 146.462 163.817 146.76 163.717L149.741 161.93C149.94 161.732 149.94 161.434 149.741 161.335Z" fill="#24126A"/>
<path d="M154.709 164.213L151.43 162.327C151.132 162.129 150.735 162.228 150.437 162.327L147.456 164.114C147.158 164.313 147.158 164.511 147.456 164.71L150.735 166.596C151.033 166.795 151.43 166.695 151.728 166.596L154.709 164.809C155.007 164.611 155.007 164.313 154.709 164.213Z" fill="#24126A"/>
<path d="M159.777 167.093L156.498 165.206C156.2 165.008 155.802 165.107 155.504 165.206L152.523 166.993C152.225 167.192 152.225 167.391 152.523 167.589L155.802 169.475C156.1 169.674 156.498 169.575 156.796 169.475L159.777 167.688C159.975 167.49 159.975 167.192 159.777 167.093Z" fill="#24126A"/>
<path d="M119.435 127.778L109.896 122.219C109.598 122.02 109.2 122.119 108.902 122.219L105.921 124.006C105.623 124.204 105.623 124.403 105.921 124.601L115.46 130.161C115.758 130.359 116.156 130.26 116.454 130.161L119.435 128.374C119.634 128.175 119.634 127.977 119.435 127.778Z" fill="#24126A"/>
<path d="M181.04 163.32L171.502 157.76C171.203 157.562 170.806 157.661 170.508 157.76L167.527 159.547C167.229 159.746 167.229 159.944 167.527 160.143L177.066 165.703C177.364 165.901 177.761 165.802 178.06 165.703L181.04 163.916C181.239 163.717 181.239 163.518 181.04 163.32Z" fill="#24126A"/>
<path d="M171.7 151.903L168.421 150.017C168.123 149.818 167.726 149.917 167.428 150.017L163.851 152.101C163.552 152.3 163.552 152.499 163.851 152.697L167.13 154.583C167.428 154.782 167.825 154.683 168.123 154.583L171.7 152.499C171.998 152.3 171.998 152.101 171.7 151.903Z" fill="#24126A"/>
<path d="M135.333 130.955L130.166 127.977C129.868 127.778 129.471 127.878 129.173 127.977L125.596 130.062C125.298 130.26 125.298 130.459 125.596 130.657L130.763 133.636C131.061 133.834 131.458 133.735 131.756 133.636L135.333 131.551C135.532 131.352 135.532 131.054 135.333 130.955Z" fill="#24126A"/>
<path d="M166.831 149.123L161.665 146.145C161.366 145.946 160.969 146.045 160.671 146.145L157.094 148.23C156.796 148.428 156.796 148.627 157.094 148.825L162.261 151.804C162.559 152.002 162.956 151.903 163.254 151.804L166.831 149.719C167.13 149.52 167.13 149.322 166.831 149.123Z" fill="#24126A"/>
<path d="M142.487 135.125L137.321 132.146C137.022 131.948 136.625 132.047 136.327 132.146L132.75 134.231C132.452 134.43 132.452 134.628 132.75 134.827L137.917 137.805C138.215 138.004 138.612 137.905 138.91 137.805L142.487 135.721C142.786 135.522 142.786 135.224 142.487 135.125Z" fill="#24126A"/>
<path d="M132.75 134.827L155.305 147.832C155.604 148.031 156.001 148.031 156.299 147.832L159.976 145.648C160.274 145.45 160.274 145.251 159.976 145.053L137.42 132.047L132.75 134.827Z" fill="#24126A"/>
<path d="M180.941 159.945L184.518 162.029C184.717 162.129 185.114 162.129 185.313 162.029L186.804 161.136C187.002 161.037 187.002 160.838 186.804 160.64L183.226 158.555C183.028 158.455 182.63 158.455 182.432 158.555L180.941 159.448C180.742 159.647 180.742 159.845 180.941 159.945Z" fill="#24126A"/>
<path d="M175.874 157.065L179.451 159.15C179.649 159.249 180.047 159.249 180.246 159.15L181.736 158.257C181.935 158.157 181.935 157.959 181.736 157.76L178.159 155.675C177.96 155.576 177.563 155.576 177.364 155.675L175.874 156.569C175.675 156.668 175.675 156.867 175.874 157.065Z" fill="#24126A"/>
<path d="M170.905 154.087L174.482 156.172C174.681 156.271 175.079 156.271 175.277 156.172L176.768 155.278C176.967 155.179 176.967 154.98 176.768 154.782L173.191 152.697C172.992 152.598 172.595 152.598 172.396 152.697L170.905 153.591C170.707 153.789 170.707 153.988 170.905 154.087Z" fill="#24126A"/>
<path d="M173.29 158.555L176.867 160.64C177.066 160.739 177.463 160.739 177.662 160.64L179.152 159.746C179.351 159.647 179.351 159.448 179.152 159.25L175.575 157.165C175.377 157.066 174.979 157.066 174.78 157.165L173.29 158.058C173.091 158.257 173.091 158.455 173.29 158.555Z" fill="#24126A"/>
</g>
</g>
<g opacity="0.8">
<path d="M47.595 161.433L44.4153 159.547C44.1172 159.349 44.2166 159.15 44.5147 158.951L48.2905 156.767C48.5886 156.569 49.0854 156.569 49.2841 156.767L52.4638 158.654C52.7619 158.753 52.6625 159.051 52.3644 159.249L48.5886 161.433C48.3899 161.533 47.8931 161.533 47.595 161.433Z" fill="#252FBD"/>
<path d="M52.5631 164.312L49.3835 162.426C49.0854 162.228 49.1847 162.029 49.4828 161.831L53.2587 159.646C53.5567 159.448 54.0536 159.448 54.2523 159.646L57.4319 161.533C57.73 161.731 57.6307 161.93 57.3326 162.128L53.5567 164.312C53.2587 164.412 52.8612 164.412 52.5631 164.312Z" fill="#252FBD"/>
<path d="M57.5313 167.192L54.3516 165.305C54.0535 165.107 54.1529 164.908 54.451 164.71L58.2268 162.526C58.5249 162.327 59.0217 162.327 59.2204 162.526L62.4001 164.412C62.6982 164.61 62.5988 164.809 62.3007 165.007L58.5249 167.192C58.2268 167.291 57.8293 167.291 57.5313 167.192Z" fill="#252FBD"/>
<path d="M64.3874 164.809L61.2078 162.923C60.9097 162.724 61.009 162.526 61.3071 162.327L64.4868 160.441C64.7848 160.242 65.2817 160.242 65.4804 160.441L68.66 162.327C68.9581 162.426 68.8588 162.724 68.5607 162.923L65.381 164.809C65.1823 164.908 64.6855 164.908 64.3874 164.809Z" fill="#252FBD"/>
<path d="M69.3555 167.688L66.1759 165.802C65.8778 165.702 65.9772 165.405 66.2753 165.206L69.4549 163.32C69.753 163.121 70.2498 163.121 70.4485 163.32L73.6282 165.206C73.9263 165.405 73.8269 165.603 73.5288 165.802L70.3492 167.688C70.1504 167.787 69.6536 167.787 69.3555 167.688Z" fill="#252FBD"/>
<path d="M74.3239 170.468L71.1443 168.581C70.8462 168.482 70.9456 168.184 71.2436 167.986L74.4233 166.099C74.7214 165.901 75.2182 165.901 75.4169 166.099L78.5965 167.986C78.8946 168.085 78.7953 168.383 78.4972 168.581L75.3175 170.468C75.1188 170.666 74.622 170.666 74.3239 170.468Z" fill="#252FBD"/>
<path d="M79.2921 173.347L76.1124 171.461C75.8143 171.262 75.9137 171.064 76.2118 170.865L79.3914 168.979C79.6895 168.78 80.1863 168.78 80.3851 168.979L83.5647 170.865C83.8628 170.964 83.7634 171.262 83.4653 171.461L80.2857 173.347C80.087 173.546 79.5901 173.546 79.2921 173.347Z" fill="#252FBD"/>
<path d="M84.2602 176.226L81.0806 174.34C80.7825 174.141 80.8818 173.943 81.1799 173.744L84.3596 171.858C84.6577 171.659 85.1545 171.659 85.3532 171.858L88.5328 173.744C88.8309 173.943 88.7316 174.141 88.4335 174.34L85.2538 176.226C85.0551 176.424 84.5583 176.424 84.2602 176.226Z" fill="#252FBD"/>
<path d="M89.2283 179.105L86.0487 177.219C85.7506 177.02 85.85 176.822 86.1481 176.623L89.3277 174.737C89.6258 174.538 90.1226 174.538 90.3213 174.737L93.501 176.623C93.7991 176.822 93.6997 177.02 93.4016 177.219L90.222 179.105C90.0232 179.204 89.5264 179.304 89.2283 179.105Z" fill="#252FBD"/>
<path d="M94.1965 181.984L91.0168 180.098C90.7187 179.899 90.8181 179.701 91.1162 179.502L94.2958 177.616C94.5939 177.417 95.0907 177.417 95.2895 177.616L98.4691 179.502C98.7672 179.701 98.6678 179.899 98.3698 180.098L95.1901 181.984C94.892 182.084 94.4946 182.084 94.1965 181.984Z" fill="#252FBD"/>
<path d="M99.1645 184.863L95.9849 182.977C95.6868 182.778 95.7862 182.58 96.0843 182.381L99.2639 180.495C99.562 180.296 100.059 180.296 100.258 180.495L103.437 182.381C103.735 182.58 103.636 182.778 103.338 182.977L100.158 184.863C99.8601 184.962 99.4626 184.962 99.1645 184.863Z" fill="#252FBD"/>
<path d="M104.133 187.742L100.953 185.856C100.655 185.658 100.755 185.459 101.053 185.26L104.232 183.374C104.53 183.176 105.027 183.176 105.226 183.374L108.406 185.26C108.704 185.459 108.604 185.658 108.306 185.856L105.127 187.742C104.829 187.842 104.431 187.842 104.133 187.742Z" fill="#252FBD"/>
<path d="M109.101 190.522L105.921 188.636C105.623 188.537 105.723 188.239 106.021 188.04L109.201 186.154C109.499 185.955 109.995 185.955 110.194 186.154L113.374 188.04C113.672 188.239 113.573 188.437 113.274 188.636L110.095 190.522C109.797 190.721 109.399 190.721 109.101 190.522Z" fill="#252FBD"/>
<path d="M71.7404 163.419L68.5608 161.533C68.2627 161.433 68.3621 161.136 68.6601 160.937L71.8398 159.051C72.1379 158.852 72.6347 158.852 72.8334 159.051L76.0131 160.937C76.3111 161.036 76.2118 161.334 75.9137 161.533L72.7341 163.419C72.436 163.518 72.0385 163.618 71.7404 163.419Z" fill="#252FBD"/>
<path d="M66.6728 160.54L63.4932 158.653C63.1951 158.455 63.2945 158.256 63.5926 158.058L66.7722 156.172C67.0703 155.973 67.5671 155.973 67.7659 156.172L70.9455 158.058C71.2436 158.157 71.1442 158.455 70.8461 158.653L67.6665 160.54C67.4678 160.639 66.9709 160.639 66.6728 160.54Z" fill="#252FBD"/>
<path d="M61.7046 157.561L54.7491 153.59C54.451 153.392 54.5504 153.193 54.8485 152.995L58.0281 151.108C58.3262 150.91 58.823 150.91 59.0218 151.108L65.9772 155.079C66.2753 155.278 66.1759 155.477 65.8779 155.675L62.6982 157.561C62.4001 157.76 61.9033 157.76 61.7046 157.561Z" fill="#252FBD"/>
<path d="M65.1824 154.087L59.5187 150.81C59.2206 150.711 59.3199 150.413 59.618 150.215L62.7977 148.328C63.0958 148.13 63.5926 148.13 63.7913 148.328L69.455 151.605C69.7531 151.803 69.6538 152.002 69.3557 152.2L66.176 154.087C65.8779 154.186 65.4805 154.186 65.1824 154.087Z" fill="#252FBD"/>
<path d="M76.7086 166.298L73.5289 164.412C73.2308 164.213 73.3302 164.015 73.6283 163.816L76.8079 161.93C77.106 161.731 77.6028 161.731 77.8016 161.93L80.9812 163.816C81.2793 163.915 81.1799 164.213 80.8818 164.412L77.7022 166.298C77.4041 166.397 77.0067 166.397 76.7086 166.298Z" fill="#252FBD"/>
<path d="M81.6767 169.177L78.4971 167.291C78.199 167.092 78.2983 166.894 78.5964 166.695L81.7761 164.809C82.0741 164.611 82.571 164.611 82.7697 164.809L85.9493 166.695C86.2474 166.894 86.1481 167.092 85.85 167.291L82.6703 169.177C82.3722 169.277 81.9748 169.277 81.6767 169.177Z" fill="#252FBD"/>
<path d="M86.6448 172.056L83.4651 170.17C83.1671 169.971 83.2664 169.773 83.5645 169.574L86.7441 167.688C87.0422 167.489 87.539 167.489 87.7378 167.688L90.9174 169.574C91.2155 169.773 91.1161 169.971 90.818 170.17L87.6384 172.056C87.3403 172.156 86.9429 172.156 86.6448 172.056Z" fill="#252FBD"/>
<path d="M91.6132 174.936L88.4336 173.049C88.1355 172.95 88.2349 172.652 88.5329 172.454L91.7126 170.567C92.0107 170.369 92.5075 170.369 92.7062 170.567L95.8859 172.454C96.184 172.652 96.0846 172.851 95.7865 173.049L92.6069 174.936C92.3088 175.035 91.9113 175.035 91.6132 174.936Z" fill="#252FBD"/>
<path d="M96.5814 177.715L93.4017 175.829C93.1036 175.73 93.203 175.432 93.5011 175.233L96.6807 173.347C96.9788 173.148 97.4756 173.148 97.6744 173.347L100.854 175.233C101.152 175.333 101.053 175.63 100.755 175.829L97.575 177.715C97.2769 177.914 96.8795 177.914 96.5814 177.715Z" fill="#252FBD"/>
<path d="M101.55 180.594L98.3699 178.708C98.0718 178.509 98.1711 178.311 98.4692 178.112L101.649 176.226C101.947 176.027 102.444 176.027 102.642 176.226L105.822 178.112C106.12 178.212 106.021 178.509 105.723 178.708L102.543 180.594C102.245 180.793 101.848 180.793 101.55 180.594Z" fill="#252FBD"/>
<path d="M106.518 183.473L103.338 181.587C103.04 181.488 103.139 181.19 103.437 180.991L106.617 179.105C106.915 178.906 107.412 178.906 107.611 179.105L110.79 180.991C111.088 181.19 110.989 181.388 110.691 181.587L107.511 183.473C107.213 183.573 106.816 183.672 106.518 183.473Z" fill="#252FBD"/>
<path d="M111.486 186.353L108.306 184.466C108.008 184.367 108.107 184.069 108.405 183.871L111.585 181.984C111.883 181.786 112.38 181.786 112.579 181.984L115.758 183.871C116.056 183.97 115.957 184.268 115.659 184.466L112.479 186.353C112.181 186.452 111.784 186.452 111.486 186.353Z" fill="#252FBD"/>
<path d="M116.454 189.231L113.274 187.345C112.976 187.147 113.075 186.948 113.374 186.749L116.553 184.863C116.851 184.665 117.348 184.665 117.547 184.863L120.726 186.749C121.025 186.849 120.925 187.147 120.627 187.345L117.447 189.231C117.149 189.331 116.752 189.331 116.454 189.231Z" fill="#252FBD"/>
<path d="M125.297 194.295L118.243 190.224C117.945 190.026 118.044 189.827 118.342 189.629L121.522 187.742C121.82 187.544 122.317 187.544 122.515 187.742L129.57 191.813C129.868 191.912 129.769 192.21 129.471 192.409L126.291 194.295C125.993 194.394 125.496 194.493 125.297 194.295Z" fill="#252FBD"/>
<path d="M134.936 188.735L128.974 185.36C128.676 185.26 128.775 184.963 129.073 184.764L132.253 182.878C132.551 182.679 133.048 182.679 133.247 182.878L139.208 186.253C139.506 186.353 139.407 186.65 139.109 186.849L135.929 188.735C135.631 188.835 135.234 188.835 134.936 188.735Z" fill="#252FBD"/>
<path d="M85.4526 165.702L82.273 163.816C81.9749 163.618 82.0743 163.419 82.3724 163.221L85.552 161.334C85.8501 161.136 86.3469 161.136 86.5456 161.334L89.7253 163.221C90.0234 163.32 89.924 163.618 89.6259 163.816L86.4463 165.702C86.1482 165.901 85.6514 165.901 85.4526 165.702Z" fill="#252FBD"/>
<path d="M80.2856 162.823L77.106 160.937C76.8079 160.838 76.9073 160.54 77.2054 160.341L80.385 158.455C80.6831 158.256 81.1799 158.256 81.3786 158.455L84.5583 160.341C84.8564 160.441 84.757 160.738 84.4589 160.937L81.2793 162.823C81.0806 162.923 80.5837 162.923 80.2856 162.823Z" fill="#252FBD"/>
<path d="M75.218 159.845L72.0384 157.959C71.7403 157.76 71.8397 157.561 72.1377 157.363L75.3174 155.477C75.6155 155.278 76.1123 155.278 76.311 155.477L79.4907 157.363C79.7887 157.462 79.6894 157.76 79.3913 157.959L76.2117 159.845C75.9136 159.944 75.5161 160.043 75.218 159.845Z" fill="#252FBD"/>
<path d="M70.1504 156.966L66.9708 155.08C66.6727 154.881 66.7721 154.683 67.0702 154.484L70.2498 152.598C70.5479 152.399 71.0447 152.399 71.2435 152.598L74.4231 154.484C74.7212 154.683 74.6218 154.881 74.3237 155.08L71.1441 156.966C70.846 157.065 70.4485 157.065 70.1504 156.966Z" fill="#252FBD"/>
<path d="M90.4208 168.582L87.2411 166.695C86.9431 166.497 87.0424 166.298 87.3405 166.1L90.5201 164.213C90.8182 164.015 91.3151 164.015 91.5138 164.213L94.6934 166.1C94.9915 166.298 94.8921 166.497 94.5941 166.695L91.4144 168.582C91.1163 168.681 90.6195 168.78 90.4208 168.582Z" fill="#252FBD"/>
<path d="M95.3889 171.46L92.2093 169.574C91.9112 169.376 92.0106 169.177 92.3087 168.978L95.4883 167.092C95.7864 166.894 96.2832 166.894 96.4819 167.092L99.6616 168.978C99.9596 169.177 99.8603 169.376 99.5622 169.574L96.3826 171.46C96.0845 171.56 95.5877 171.659 95.3889 171.46Z" fill="#252FBD"/>
<path d="M100.357 174.34L97.1774 172.453C96.8793 172.255 96.9787 172.056 97.2768 171.858L100.456 169.971C100.755 169.773 101.251 169.773 101.45 169.971L104.63 171.858C104.928 172.056 104.828 172.255 104.53 172.453L101.351 174.34C101.053 174.439 100.556 174.439 100.357 174.34Z" fill="#252FBD"/>
<path d="M105.325 177.219L102.145 175.332C101.847 175.233 101.947 174.935 102.245 174.737L105.425 172.85C105.723 172.652 106.219 172.652 106.418 172.85L109.598 174.737C109.896 174.935 109.797 175.134 109.498 175.332L106.319 177.219C106.021 177.318 105.524 177.318 105.325 177.219Z" fill="#252FBD"/>
<path d="M110.293 180.098L107.114 178.212C106.816 178.112 106.915 177.814 107.213 177.616L110.393 175.73C110.691 175.531 111.188 175.531 111.386 175.73L114.566 177.616C114.864 177.715 114.765 178.013 114.467 178.212L111.287 180.098C110.989 180.197 110.492 180.197 110.293 180.098Z" fill="#252FBD"/>
<path d="M115.162 182.878L111.983 180.991C111.685 180.793 111.784 180.594 112.082 180.396L115.262 178.51C115.56 178.311 116.057 178.311 116.255 178.51L119.435 180.396C119.733 180.495 119.634 180.793 119.336 180.991L116.156 182.878C115.957 183.076 115.46 183.076 115.162 182.878Z" fill="#252FBD"/>
<path d="M120.13 185.757L116.951 183.87C116.653 183.771 116.752 183.473 117.05 183.275L120.23 181.388C120.528 181.19 121.025 181.19 121.223 181.388L124.403 183.275C124.701 183.473 124.602 183.672 124.304 183.87L121.124 185.757C120.925 185.955 120.428 185.955 120.13 185.757Z" fill="#252FBD"/>
<path d="M125.099 188.636L121.919 186.75C121.621 186.65 121.72 186.353 122.018 186.154L125.198 184.268C125.496 184.069 125.993 184.069 126.192 184.268L129.371 186.154C129.669 186.253 129.57 186.551 129.272 186.75L126.092 188.636C125.893 188.735 125.397 188.835 125.099 188.636Z" fill="#252FBD"/>
<path d="M130.067 191.515L126.887 189.629C126.589 189.43 126.688 189.231 126.986 189.033L130.166 187.147C130.464 186.948 130.961 186.948 131.16 187.147L134.339 189.033C134.637 189.132 134.538 189.43 134.24 189.629L131.06 191.515C130.862 191.614 130.365 191.713 130.067 191.515Z" fill="#252FBD"/>
<path d="M82.7697 158.654L79.5901 156.767C79.292 156.569 79.3914 156.37 79.6894 156.172L82.8691 154.285C83.1672 154.087 83.664 154.087 83.8627 154.285L87.0423 156.172C87.3404 156.37 87.2411 156.569 86.943 156.767L83.7633 158.654C83.4653 158.753 83.0678 158.753 82.7697 158.654Z" fill="#252FBD"/>
<path d="M77.901 155.775L74.7214 153.888C74.4233 153.69 74.5226 153.491 74.8207 153.293L78.0004 151.406C78.2985 151.208 78.7953 151.208 78.994 151.406L82.1736 153.293C82.4717 153.491 82.3724 153.69 82.0743 153.888L78.8946 155.775C78.5965 155.973 78.0997 155.973 77.901 155.775Z" fill="#252FBD"/>
<path d="M72.9326 152.995L69.7529 151.109C69.4548 150.91 69.5542 150.711 69.8523 150.513L73.0319 148.627C73.33 148.428 73.8268 148.428 74.0256 148.627L77.2052 150.513C77.5033 150.711 77.4039 150.91 77.1058 151.109L73.9262 152.995C73.6281 153.094 73.1313 153.094 72.9326 152.995Z" fill="#252FBD"/>
<path d="M67.9645 150.116L64.7848 148.229C64.4868 148.031 64.5861 147.832 64.8842 147.634L68.0638 145.747C68.3619 145.549 68.8588 145.549 69.0575 145.747L72.2371 147.634C72.5352 147.832 72.4358 148.031 72.1377 148.229L68.9581 150.116C68.66 150.215 68.2626 150.215 67.9645 150.116Z" fill="#252FBD"/>
<path d="M73.0321 147.137L69.8524 145.251C69.5543 145.052 69.6537 144.854 69.9518 144.655L71.0448 144.06C71.3429 143.861 71.8397 143.861 72.0384 144.06L75.2181 145.946C75.5161 146.144 75.4168 146.343 75.1187 146.542L74.0257 147.137C73.7276 147.336 73.3301 147.336 73.0321 147.137Z" fill="#252FBD"/>
<path d="M79.4907 150.91L76.311 149.023C76.0129 148.924 76.1123 148.626 76.4104 148.428L77.5034 147.832C77.8015 147.634 78.2983 147.634 78.497 147.832L81.6767 149.718C81.9748 149.818 81.8754 150.116 81.5773 150.314L80.4843 150.91C80.1862 151.009 79.7888 151.009 79.4907 150.91Z" fill="#252FBD"/>
<path d="M84.4588 153.69L81.2792 151.803C80.9811 151.704 81.0804 151.406 81.3785 151.208L82.4715 150.612C82.7696 150.413 83.2665 150.413 83.4652 150.612L86.6448 152.498C86.9429 152.697 86.8435 152.895 86.5454 153.094L85.4524 153.69C85.1544 153.888 84.6575 153.888 84.4588 153.69Z" fill="#252FBD"/>
<path d="M89.3278 156.569L86.1481 154.683C85.85 154.484 85.9494 154.285 86.2475 154.087L87.3405 153.491C87.6386 153.293 88.1354 153.293 88.3341 153.491L91.5138 155.378C91.8118 155.576 91.7125 155.775 91.4144 155.973L90.3214 156.569C90.0233 156.668 89.6259 156.668 89.3278 156.569Z" fill="#252FBD"/>
<path d="M94.2959 159.448L91.1163 157.561C90.8182 157.462 90.9175 157.164 91.2156 156.966L92.3086 156.37C92.6067 156.172 93.1035 156.172 93.3023 156.37L96.4819 158.256C96.78 158.455 96.6806 158.654 96.3825 158.852L95.2895 159.448C94.9914 159.547 94.4946 159.547 94.2959 159.448Z" fill="#252FBD"/>
<path d="M121.72 175.233L118.541 173.347C118.243 173.148 118.342 172.95 118.64 172.751L119.733 172.155C120.031 171.957 120.528 171.957 120.727 172.155L123.906 174.042C124.204 174.24 124.105 174.439 123.807 174.637L122.714 175.233C122.416 175.332 122.018 175.432 121.72 175.233Z" fill="#252FBD"/>
<path d="M126.688 178.112L123.509 176.226C123.211 176.027 123.31 175.829 123.608 175.63L124.701 175.035C124.999 174.836 125.496 174.836 125.695 175.035L128.874 176.921C129.173 177.12 129.073 177.318 128.775 177.517L127.682 178.112C127.384 178.212 126.887 178.212 126.688 178.112Z" fill="#252FBD"/>
<path d="M131.557 180.892L128.377 179.006C128.079 178.907 128.179 178.609 128.477 178.41L129.57 177.814C129.868 177.616 130.365 177.616 130.563 177.814L133.743 179.701C134.041 179.8 133.942 180.098 133.644 180.296L132.551 180.892C132.253 181.091 131.855 181.091 131.557 180.892Z" fill="#252FBD"/>
<path d="M136.525 183.771L133.346 181.885C133.048 181.786 133.147 181.488 133.445 181.289L134.538 180.693C134.836 180.495 135.333 180.495 135.532 180.693L138.711 182.58C139.009 182.679 138.91 182.977 138.612 183.175L137.519 183.771C137.221 183.87 136.724 183.87 136.525 183.771Z" fill="#252FBD"/>
<path d="M87.7378 161.533L84.5582 159.647C84.2601 159.547 84.3594 159.249 84.6575 159.051L87.8372 157.165C88.1353 156.966 88.6321 156.966 88.8308 157.165L92.0104 159.051C92.3085 159.15 92.2092 159.448 91.9111 159.647L88.7314 161.533C88.4333 161.632 88.0359 161.632 87.7378 161.533Z" fill="#252FBD"/>
<path d="M92.7059 164.412L89.5263 162.525C89.2282 162.327 89.3276 162.128 89.6257 161.93L92.8053 160.043C93.1034 159.845 93.6002 159.845 93.7989 160.043L96.9786 161.93C97.2767 162.029 97.1773 162.327 96.8792 162.525L93.6996 164.412C93.4015 164.511 93.004 164.511 92.7059 164.412Z" fill="#252FBD"/>
<path d="M97.6744 167.291L94.4947 165.404C94.1967 165.206 94.296 165.007 94.5941 164.809L97.7737 162.922C98.0718 162.724 98.5687 162.724 98.7674 162.922L101.947 164.809C102.245 165.007 102.146 165.206 101.848 165.404L98.668 167.291C98.3699 167.39 97.9725 167.39 97.6744 167.291Z" fill="#252FBD"/>
<path d="M102.643 170.071L99.4629 168.184C99.1648 168.085 99.2642 167.787 99.5623 167.589L102.742 165.703C103.04 165.504 103.537 165.504 103.736 165.703L106.915 167.589C107.213 167.787 107.114 167.986 106.816 168.184L103.636 170.071C103.338 170.269 102.941 170.269 102.643 170.071Z" fill="#252FBD"/>
<path d="M107.611 172.95L104.431 171.064C104.133 170.865 104.232 170.666 104.53 170.468L107.71 168.582C108.008 168.383 108.505 168.383 108.704 168.582L111.883 170.468C112.181 170.567 112.082 170.865 111.784 171.064L108.604 172.95C108.306 173.148 107.909 173.148 107.611 172.95Z" fill="#252FBD"/>
<path d="M112.579 175.829L109.399 173.942C109.101 173.744 109.2 173.545 109.498 173.347L112.678 171.46C112.976 171.262 113.473 171.262 113.672 171.46L116.851 173.347C117.149 173.545 117.05 173.744 116.752 173.942L113.572 175.829C113.274 175.928 112.877 176.027 112.579 175.829Z" fill="#252FBD"/>
<path d="M117.547 178.708L114.367 176.822C114.069 176.722 114.169 176.425 114.467 176.226L117.646 174.34C117.944 174.141 118.441 174.141 118.64 174.34L121.82 176.226C122.118 176.425 122.018 176.623 121.72 176.822L118.541 178.708C118.242 178.807 117.845 178.807 117.547 178.708Z" fill="#252FBD"/>
<path d="M122.515 181.587L119.335 179.701C119.037 179.502 119.137 179.304 119.435 179.105L122.614 177.219C122.912 177.02 123.409 177.02 123.608 177.219L126.788 179.105C127.086 179.304 126.986 179.502 126.688 179.701L123.509 181.587C123.211 181.686 122.813 181.686 122.515 181.587Z" fill="#252FBD"/>
<path d="M127.483 184.466L124.304 182.58C124.006 182.381 124.105 182.183 124.403 181.984L127.583 180.098C127.881 179.899 128.378 179.899 128.576 180.098L131.756 181.984C132.054 182.183 131.955 182.381 131.657 182.58L128.477 184.466C128.179 184.566 127.782 184.566 127.483 184.466Z" fill="#252FBD"/>
<path d="M59.4194 161.831L49.9799 156.37C49.6818 156.271 49.7811 155.973 50.0792 155.775L53.2588 153.888C53.5569 153.69 54.0538 153.69 54.2525 153.888L63.692 159.349C63.9901 159.448 63.8908 159.746 63.5927 159.944L60.413 161.831C60.1149 162.029 59.6181 162.029 59.4194 161.831Z" fill="#252FBD"/>
<path d="M120.429 197.075L110.989 191.614C110.691 191.416 110.79 191.217 111.088 191.019L114.268 189.132C114.566 188.934 115.063 188.934 115.262 189.132L124.701 194.593C124.999 194.791 124.9 194.99 124.602 195.188L121.422 197.075C121.124 197.174 120.627 197.174 120.429 197.075Z" fill="#252FBD"/>
<path d="M100.556 191.912L97.3763 190.026C97.0782 189.927 97.1775 189.629 97.4756 189.43L101.251 187.246C101.55 187.048 102.046 187.048 102.245 187.246L105.425 189.132C105.723 189.232 105.623 189.53 105.325 189.728L101.55 191.912C101.251 192.111 100.755 192.111 100.556 191.912Z" fill="#252FBD"/>
<path d="M64.487 171.163L59.3201 168.184C59.022 167.986 59.1213 167.787 59.4194 167.589L63.1952 165.405C63.4933 165.206 63.9901 165.206 64.1889 165.405L69.3558 168.383C69.6539 168.482 69.5545 168.78 69.2564 168.979L65.4806 171.163C65.1825 171.262 64.6857 171.262 64.487 171.163Z" fill="#252FBD"/>
<path d="M95.7862 189.132L90.6193 186.154C90.3212 185.955 90.4206 185.757 90.7187 185.558L94.4945 183.374C94.7926 183.176 95.2894 183.176 95.4881 183.374L100.655 186.353C100.953 186.452 100.854 186.75 100.556 186.948L96.7799 189.132C96.4818 189.331 95.985 189.331 95.7862 189.132Z" fill="#252FBD"/>
<path d="M71.6411 175.233L66.4742 172.255C66.1761 172.056 66.2755 171.858 66.5735 171.659L70.3493 169.475C70.6474 169.277 71.1443 169.277 71.343 169.475L76.5099 172.453C76.808 172.553 76.7086 172.851 76.4105 173.049L72.6347 175.233C72.3366 175.432 71.8398 175.432 71.6411 175.233Z" fill="#252FBD"/>
<path d="M71.3429 169.475L93.6997 182.381C93.9978 182.58 93.9978 182.778 93.6997 182.977L89.8246 185.161C89.5265 185.36 89.129 185.36 88.8309 185.161L66.4741 172.255L71.3429 169.475Z" fill="#252FBD"/>
<path d="M114.367 197.174L117.945 199.259C118.143 199.358 118.143 199.556 117.845 199.755L116.255 200.648C116.057 200.748 115.659 200.847 115.46 200.648L111.883 198.564C111.685 198.464 111.685 198.266 111.983 198.067L113.573 197.174C113.871 196.975 114.169 196.975 114.367 197.174Z" fill="#252FBD"/>
<path d="M109.399 194.196L112.976 196.28C113.175 196.38 113.175 196.578 112.877 196.777L111.287 197.67C111.088 197.77 110.691 197.869 110.492 197.67L106.915 195.585C106.716 195.486 106.716 195.288 107.014 195.089L108.604 194.196C108.803 194.096 109.2 194.096 109.399 194.196Z" fill="#252FBD"/>
<path d="M104.431 191.416L108.008 193.501C108.207 193.6 108.207 193.798 107.909 193.997L106.319 194.891C106.12 194.99 105.723 195.089 105.524 194.891L101.947 192.806C101.748 192.706 101.748 192.508 102.046 192.309L103.636 191.416C103.835 191.217 104.232 191.217 104.431 191.416Z" fill="#252FBD"/>
<path d="M112.181 192.607L115.759 194.692C115.957 194.791 115.957 194.99 115.659 195.188L114.069 196.082C113.871 196.181 113.473 196.28 113.274 196.082L109.697 193.997C109.499 193.898 109.499 193.699 109.797 193.501L111.387 192.607C111.585 192.508 111.883 192.508 112.181 192.607Z" fill="#252FBD"/>
</g>
<path d="M162.758 115.468C162.559 115.468 162.261 115.368 161.963 115.269C161.168 114.773 160.77 113.879 160.87 113.085C160.969 112.688 161.168 112.39 161.466 112.291C161.863 112.092 162.261 112.191 162.658 112.39C163.453 112.787 163.851 113.78 163.751 114.574C163.652 114.971 163.453 115.269 163.155 115.368C163.155 115.468 162.956 115.468 162.758 115.468ZM162.062 112.489C161.963 112.489 161.863 112.489 161.764 112.588C161.565 112.688 161.366 112.886 161.366 113.184C161.168 113.879 161.665 114.673 162.261 115.07C162.559 115.269 162.857 115.269 163.155 115.17C163.354 115.07 163.552 114.872 163.552 114.574C163.751 113.879 163.354 113.085 162.658 112.688C162.459 112.489 162.261 112.489 162.062 112.489Z" fill="#F57A00"/>
<path d="M166.931 117.85C166.732 117.85 166.434 117.751 166.136 117.652C165.341 117.255 164.943 116.262 165.043 115.468C165.142 115.07 165.341 114.773 165.639 114.673C166.036 114.475 166.434 114.574 166.831 114.773C167.626 115.17 168.024 116.162 167.924 116.957C167.825 117.354 167.626 117.652 167.328 117.751C167.229 117.751 167.03 117.85 166.931 117.85ZM166.136 114.872C166.036 114.872 165.937 114.872 165.838 114.971C165.639 115.07 165.44 115.269 165.44 115.567C165.241 116.262 165.738 117.056 166.334 117.453C166.633 117.652 166.931 117.652 167.229 117.552C167.427 117.453 167.626 117.255 167.626 116.957C167.825 116.262 167.427 115.468 166.732 115.07C166.533 114.872 166.334 114.872 166.136 114.872Z" fill="#F57A00"/>
<path d="M171.899 119.24C171.7 119.935 171.005 120.233 170.309 119.836C169.613 119.439 169.216 118.545 169.315 117.85C169.514 117.155 170.21 116.857 170.905 117.255C171.601 117.652 172.098 118.545 171.899 119.24Z" fill="#F57A00"/>
<path d="M93.4017 74.0681L91.2157 72.8767L91.3151 71.7847L93.6004 73.0753L93.4017 74.0681Z" fill="white"/>
<path d="M96.5813 75.9547L94.3953 74.6641L94.594 73.6713L96.78 74.9619L96.5813 75.9547Z" fill="white"/>
<path d="M90.222 72.2811L85.4526 69.5013L85.5519 68.5085L90.4208 71.2884L90.222 72.2811Z" fill="white"/>
<path d="M205.683 262.003C204.292 262.003 203 261.705 202.006 261.11L182.332 249.792C181.339 249.196 180.743 248.402 180.743 247.508C180.743 246.615 181.339 245.821 182.332 245.225L202.006 233.907C204.093 232.716 207.372 232.716 209.459 233.907L229.133 245.225C230.126 245.821 230.723 246.615 230.723 247.508C230.723 248.402 230.126 249.196 229.133 249.792L209.459 261.11C208.366 261.805 207.074 262.003 205.683 262.003ZM202.205 260.911C204.192 262.003 207.273 262.003 209.26 260.911L228.934 249.593C229.828 249.097 230.325 248.402 230.325 247.608C230.325 246.913 229.828 246.218 228.934 245.622L209.26 234.304C207.273 233.212 204.192 233.212 202.205 234.304L182.531 245.622C181.637 246.118 181.14 246.813 181.14 247.608C181.14 248.303 181.637 248.998 182.531 249.593L202.205 260.911Z" fill="url(#paint10_linear_1131_38889)"/>
<path opacity="0.4" d="M231.319 243.24V236.489L230.126 235.794C229.729 237.879 227.344 239.268 225.258 239.566L211.148 247.806L204.987 249.991L185.413 239.864L185.91 239.566C184.22 238.772 183.326 236.985 182.432 235.397L181.14 236.191L180.345 236.389V243.24C180.345 244.133 180.941 245.027 182.034 245.622L201.708 256.94C203.994 258.231 207.77 258.231 210.055 256.94L229.729 245.622C230.822 244.927 231.418 244.133 231.418 243.24C231.319 243.339 231.319 243.24 231.319 243.24Z" fill="#F2C2F9"/>
<path d="M231.319 237.283V232.815L230.126 232.12C229.729 234.205 227.344 235.595 225.258 235.893L211.148 244.133L204.987 246.317L185.413 236.191L185.91 235.893C184.22 235.099 183.326 233.312 182.432 231.723L181.14 232.518L180.345 232.716V237.283C180.345 238.176 180.941 239.07 182.034 239.666L201.708 250.983C203.994 252.274 207.77 252.274 210.055 250.983L229.729 239.666C230.822 238.971 231.418 238.176 231.418 237.283C231.319 237.382 231.319 237.283 231.319 237.283Z" fill="url(#paint11_linear_1131_38889)"/>
<path opacity="0.3" d="M225.158 235.893L211.048 244.133L205.683 246.019V252.075C207.173 252.075 208.664 251.778 209.856 251.083L229.53 239.765C230.623 239.07 231.219 238.276 231.219 237.382V237.283V232.815L230.126 232.22H230.027C229.629 234.304 227.245 235.595 225.158 235.893Z" fill="url(#paint12_linear_1131_38889)"/>
<path d="M185.711 235.992L204.292 225.27C204.987 224.873 206.18 224.873 206.975 225.27L225.258 235.793L225.059 235.893C227.146 235.595 229.63 234.205 229.928 232.12L209.359 220.703L203.398 219.115L198.529 221.994L182.233 231.723C183.227 233.411 184.121 235.198 185.711 235.992Z" fill="url(#paint13_linear_1131_38889)"/>
<path opacity="0.3" d="M205.683 219.71L203.497 219.115L198.628 221.994L182.233 231.723C183.127 233.312 184.022 235.099 185.711 235.893L204.292 225.171C204.689 224.972 205.186 224.873 205.584 224.873V219.71H205.683Z" fill="url(#paint14_linear_1131_38889)"/>
<path d="M201.51 246.516L181.836 235.198C179.55 233.907 179.55 231.723 181.836 230.333L201.51 219.015C203.795 217.725 207.571 217.725 209.856 219.015L229.53 230.333C231.815 231.624 231.815 233.808 229.53 235.099L209.856 246.416C207.571 247.906 203.894 247.906 201.51 246.516ZM207.074 220.703C206.378 220.306 205.186 220.306 204.391 220.703L184.717 232.021C184.022 232.418 184.022 233.113 184.717 233.609L204.391 244.927C205.087 245.324 206.279 245.324 207.074 244.927L226.748 233.609C227.443 233.212 227.443 232.517 226.748 232.021L207.074 220.703Z" fill="url(#paint15_linear_1131_38889)"/>
<path d="M226.748 232.021L207.074 220.703C206.379 220.306 205.186 220.306 204.391 220.703L184.717 232.021C184.221 232.319 184.022 232.716 184.221 233.113C184.32 232.915 184.419 232.716 184.717 232.617L204.391 221.299C205.087 220.902 206.279 220.902 207.074 221.299L226.748 232.617C226.947 232.716 227.146 232.915 227.245 233.113C227.344 232.716 227.245 232.319 226.748 232.021Z" fill="white"/>
<path d="M229.53 235.198L209.856 246.516C207.571 247.806 203.795 247.806 201.51 246.516L181.836 235.198C180.842 234.602 180.246 233.808 180.147 233.113C180.047 234.106 180.544 235.099 181.836 235.794L201.51 247.111C203.795 248.402 207.571 248.402 209.856 247.111L229.53 235.794C230.822 235.099 231.418 234.106 231.219 233.113C231.12 233.907 230.623 234.602 229.53 235.198Z" fill="white"/>
<path d="M202.106 246.218L182.432 234.9C180.444 233.709 180.444 231.922 182.432 230.73L202.106 219.413C204.093 218.221 207.372 218.221 209.359 219.413L229.033 230.73C231.021 231.922 231.021 233.709 229.033 234.9L209.359 246.218C207.372 247.409 204.093 247.409 202.106 246.218ZM207.571 220.405C206.577 219.81 204.789 219.81 203.795 220.405L184.22 231.723C183.227 232.319 183.227 233.312 184.22 233.907L203.894 245.225C204.888 245.821 206.676 245.821 207.67 245.225L227.344 233.907C228.338 233.312 228.338 232.319 227.344 231.723L207.571 220.405Z" fill="#F57A00"/>
<path opacity="0.4" d="M207.074 220.703C206.379 220.306 205.186 220.306 204.391 220.703L184.717 232.021C184.022 232.418 184.022 233.113 184.717 233.609L204.391 244.927C205.087 245.324 206.279 245.324 207.074 244.927L226.748 233.609C227.444 233.212 227.444 232.517 226.748 232.021L207.074 220.703Z" fill="#8860FF"/>
<path d="M130.166 290C128.477 290 126.887 289.603 125.596 288.908L46.6017 243.339C45.3099 242.644 44.7137 241.651 44.7137 240.658C44.7137 239.666 45.4093 238.673 46.6017 237.978L63.2947 228.348L63.4935 228.646L46.8004 238.276C45.7074 238.971 45.0118 239.765 45.0118 240.658C45.0118 241.552 45.608 242.445 46.8004 243.041L125.794 288.61C128.179 290 132.154 290 134.538 288.61L192.368 255.352L192.567 255.649L134.737 288.908C133.445 289.603 131.756 290 130.166 290Z" fill="url(#paint16_linear_1131_38889)"/>
<path d="M90.4208 82.2093L85.2539 79.2309L85.4526 78.0396L90.6195 81.0179L90.4208 82.2093Z" fill="white"/>
<path d="M94.8924 84.7906L92.3089 83.3015L92.5076 82.1101L95.0911 83.5993L94.8924 84.7906Z" fill="white"/>
<path d="M91.5139 85.982L89.3279 84.6914L89.5267 83.5L91.7127 84.7906L91.5139 85.982Z" fill="white"/>
<path d="M95.2898 88.0668L92.607 86.5776L92.8057 85.3862L95.4885 86.8754L95.2898 88.0668Z" fill="white"/>
<path d="M99.0654 93.4279L88.831 87.4711L89.0297 86.2798L99.2642 92.2365L99.0654 93.4279Z" fill="white"/>
<path d="M90.2221 117.155L79.8883 111.199L80.087 110.007L90.4209 115.964L90.2221 117.155Z" fill="white"/>
<path d="M94.0974 119.439L91.514 117.95L91.7127 116.758L94.2962 118.247L94.0974 119.439Z" fill="white"/>
<path d="M90.6197 91.6408L88.3344 90.3502L88.5331 89.1588L90.8184 90.4494L90.6197 91.6408Z" fill="white"/>
<path d="M94.296 93.8248L91.7126 92.2364L91.9113 91.045L94.4948 92.5342L94.296 93.8248Z" fill="white"/>
<path d="M93.5012 96.4062L87.8375 93.13L88.0362 91.9386L93.6999 95.2148L93.5012 96.4062Z" fill="white"/>
<path d="M97.277 98.5902L94.6935 97.101L94.8923 95.9097L97.4757 97.3989L97.277 98.5902Z" fill="white"/>
<path d="M101.152 100.775L98.4695 99.2853L98.6682 98.094L101.351 99.5832L101.152 100.775Z" fill="white"/>
<path d="M107.213 104.348L102.245 101.469L102.543 100.278L107.412 103.157L107.213 104.348Z" fill="white"/>
<path d="M103.338 108.32L100.755 106.83L100.953 105.639L103.537 107.128L103.338 108.32Z" fill="white"/>
<path d="M109.499 111.894L104.531 109.015L104.729 107.823L109.698 110.603L109.499 111.894Z" fill="white"/>
<path d="M89.5267 100.377L86.9433 98.888L87.142 97.5974L89.7255 99.1859L89.5267 100.377Z" fill="white"/>
<path d="M93.3025 102.561L90.719 101.072L90.9177 99.8809L93.5012 101.37L93.3025 102.561Z" fill="white"/>
<path d="M99.4631 106.135L94.4949 103.256L94.6937 102.065L99.6618 104.845L99.4631 106.135Z" fill="white"/>
<path d="M107.512 107.625L104.928 106.135L105.127 104.944L107.71 106.433L107.512 107.625Z" fill="white"/>
<path d="M111.287 109.809L108.704 108.32L108.903 107.128L111.486 108.618L111.287 109.809Z" fill="white"/>
<path d="M117.448 113.383L112.48 110.504L112.679 109.312L117.647 112.191L117.448 113.383Z" fill="white"/>
<path d="M98.2708 121.822L95.588 120.332L95.7867 119.141L98.4695 120.63L98.2708 121.822Z" fill="white"/>
<path d="M104.332 125.396L99.4631 122.517L99.6618 121.325L104.531 124.105L104.332 125.396Z" fill="white"/>
<path d="M88.5329 106.036L85.9495 104.547L86.1482 103.356L88.7316 104.845L88.5329 106.036Z" fill="white"/>
<path d="M94.6936 109.61L89.7254 106.731L89.9241 105.54L94.8923 108.32L94.6936 109.61Z" fill="white"/>
<path d="M101.053 126.587L98.4695 125.098L98.6682 123.807L101.252 125.396L101.053 126.587Z" fill="white"/>
<path d="M107.213 130.062L102.245 127.282L102.444 126.091L107.412 128.871L107.213 130.062Z" fill="white"/>
<path d="M106.915 97.9945L104.332 96.4061L104.531 95.2147L107.114 96.7039L106.915 97.9945Z" fill="white"/>
<path d="M102.941 95.7111L100.357 94.1226L100.556 92.9313L103.139 94.4205L102.941 95.7111Z" fill="white"/>
<path d="M113.076 101.469L108.108 98.5904L108.306 97.399L113.275 100.278L113.076 101.469Z" fill="white"/>
<path d="M89.7255 97.3988L87.3408 96.0089L87.6389 94.8175L89.9243 96.2074L89.7255 97.3988Z" fill="white"/>
<path d="M96.7801 101.37L91.017 98.0937L91.2158 96.9023L96.9788 100.179L96.7801 101.37Z" fill="white"/>
<path d="M103.736 105.44L97.9726 102.164L98.1713 100.973L103.934 104.249L103.736 105.44Z" fill="white"/>
<path d="M116.653 103.554L114.367 102.263L114.566 101.072L116.951 102.363L116.653 103.554Z" fill="white"/>
<path d="M123.708 107.625L117.945 104.349L118.143 103.157L123.906 106.433L123.708 107.625Z" fill="white"/>
<path d="M130.663 111.695L125 108.32L125.198 107.128L130.862 110.504L130.663 111.695Z" fill="white"/>
<path d="M92.2095 105.043L86.4464 101.668L86.6451 100.477L92.4082 103.852L92.2095 105.043Z" fill="white"/>
<path d="M95.2896 106.731L93.5011 105.738L93.6998 104.547L95.4884 105.54L95.2896 106.731Z" fill="white"/>
<path d="M98.2707 108.518L96.4821 107.525L96.6808 106.334L98.4694 107.327L98.2707 108.518Z" fill="white"/>
<path d="M103.934 111.795L99.5625 109.213L99.7612 108.022L104.133 110.504L103.934 111.795Z" fill="white"/>
<path d="M110.194 106.036L108.406 105.043L108.604 103.852L110.393 104.845L110.194 106.036Z" fill="white"/>
<path d="M115.759 109.313L111.486 106.731L111.685 105.54L115.957 108.121L115.759 109.313Z" fill="white"/>
<path d="M116.951 110.007L112.579 107.426L112.778 106.235L117.15 108.717L116.951 110.007Z" fill="white"/>
<path d="M93.8987 125.495L88.2349 122.219L88.4337 121.027L94.0974 124.304L93.8987 125.495Z" fill="white"/>
<path d="M97.6744 127.679L94.9916 126.19L95.2897 124.999L97.8731 126.488L97.6744 127.679Z" fill="white"/>
<path d="M101.45 129.863L98.867 128.374L99.0657 127.182L101.649 128.672L101.45 129.863Z" fill="white"/>
<path d="M107.611 133.437L102.643 130.558L102.841 129.367L107.81 132.246L107.611 133.437Z" fill="white"/>
<path d="M111.486 135.721L108.903 134.231L109.101 132.941L111.685 134.529L111.486 135.721Z" fill="white"/>
<path d="M117.647 139.195L112.678 136.416L112.877 135.224L117.845 138.004L117.647 139.195Z" fill="white"/>
<path d="M98.8669 134.628L96.184 133.04L96.3828 131.849L99.0656 133.338L98.8669 134.628Z" fill="white"/>
<path d="M104.928 138.103L100.059 135.324L100.258 134.033L105.127 136.912L104.928 138.103Z" fill="white"/>
<path d="M85.1547 126.686L82.5713 125.197L82.77 124.006L85.3535 125.495L85.1547 126.686Z" fill="white"/>
<path d="M88.9304 128.87L86.3469 127.381L86.5456 126.19L89.1291 127.679L88.9304 128.87Z" fill="white"/>
<path d="M95.0911 132.444L90.1229 129.565L90.3216 128.374L95.2898 131.253L95.0911 132.444Z" fill="white"/>
<path d="M90.1227 126.488L87.738 125.098L87.9367 123.906L90.3214 125.197L90.1227 126.488Z" fill="white"/>
<path d="M97.0782 130.459L91.4145 127.183L91.6132 125.991L97.2769 129.267L97.0782 130.459Z" fill="white"/>
<path d="M104.133 134.529L98.3701 131.253L98.5688 129.962L104.332 133.338L104.133 134.529Z" fill="white"/>
<path d="M83.2667 128.672L77.5037 125.395L77.7024 124.204L83.4655 127.48L83.2667 128.672Z" fill="white"/>
<path d="M86.2478 130.459L84.4592 129.466L84.658 128.176L86.4465 129.268L86.2478 130.459Z" fill="white"/>
<path d="M89.3279 132.246L87.5394 131.154L87.7381 129.962L89.5266 130.955L89.3279 132.246Z" fill="white"/>
<path d="M94.8924 135.423L90.5204 132.941L90.7191 131.749L95.0911 134.231L94.8924 135.423Z" fill="white"/>
<path d="M96.0846 136.118L91.7126 133.636L91.9113 132.444L96.2833 134.926L96.0846 136.118Z" fill="white"/>
<path d="M85.8503 117.751L84.0618 116.758L84.2605 115.567L86.049 116.56L85.8503 117.751Z" fill="white"/>
<path d="M91.4145 121.027L87.0425 118.446L87.2412 117.255L91.6132 119.737L91.4145 121.027Z" fill="white"/>
<path d="M97.1775 124.304L92.8055 121.822L93.0043 120.63L97.3763 123.112L97.1775 124.304Z" fill="white"/>
<path d="M119.236 143.266L116.553 141.777L116.852 140.486L119.435 142.075L119.236 143.266Z" fill="white"/>
<path d="M125.397 146.741L120.429 143.961L120.628 142.77L125.596 145.549L125.397 146.741Z" fill="white"/>
<path d="M109.598 137.706L105.226 135.125L105.425 133.933L109.797 136.415L109.598 137.706Z" fill="white"/>
<path d="M115.262 140.982L110.989 138.5L111.188 137.309L115.461 139.791L115.262 140.982Z" fill="white"/>
<path d="M82.7699 105.738L80.9813 104.746L81.18 103.554L82.9686 104.547L82.7699 105.738Z" fill="white"/>
<path d="M88.3344 109.015L84.0618 106.533L84.2605 105.341L88.5331 107.823L88.3344 109.015Z" fill="white"/>
<path d="M94.0974 112.291L89.7254 109.809L89.9241 108.617L94.2961 111.099L94.0974 112.291Z" fill="white"/>
<path opacity="0.4" d="M195.647 184.764C195.647 184.367 196.045 183.97 196.442 183.97C196.84 183.97 197.237 184.367 197.237 184.764C197.237 185.162 196.84 185.559 196.442 185.559C195.945 185.658 195.647 185.261 195.647 184.764Z" fill="#42E8E0"/>
<path opacity="0.4" d="M209.558 221.2C209.558 220.802 209.955 220.405 210.353 220.405C210.75 220.405 211.148 220.802 211.148 221.2C211.148 221.597 210.75 221.994 210.353 221.994C209.856 221.994 209.558 221.597 209.558 221.2Z" fill="#42E8E0"/>
<path opacity="0.4" d="M209.161 195.189C209.819 195.189 210.353 194.655 210.353 193.997C210.353 193.339 209.819 192.806 209.161 192.806C208.502 192.806 207.968 193.339 207.968 193.997C207.968 194.655 208.502 195.189 209.161 195.189Z" fill="#42E8E0"/>
<path opacity="0.8" d="M210.949 174.737C211.388 174.737 211.744 174.382 211.744 173.943C211.744 173.504 211.388 173.149 210.949 173.149C210.51 173.149 210.154 173.504 210.154 173.943C210.154 174.382 210.51 174.737 210.949 174.737Z" fill="#42E8E0"/>
<path opacity="0.8" d="M198.33 207.499C198.33 206.804 198.926 206.209 199.622 206.209C200.317 206.209 200.914 206.804 200.914 207.499C200.914 208.194 200.317 208.79 199.622 208.79C198.926 208.79 198.33 208.194 198.33 207.499Z" fill="#42E8E0"/>
<path opacity="0.8" d="M200.119 204.223C200.612 204.223 201.013 203.823 201.013 203.33C201.013 202.836 200.612 202.436 200.119 202.436C199.625 202.436 199.224 202.836 199.224 203.33C199.224 203.823 199.625 204.223 200.119 204.223Z" fill="#42E8E0"/>
<path d="M161.069 143.762C160.771 143.762 160.472 143.663 160.174 143.563L136.228 129.764C135.234 129.168 134.638 127.778 134.837 126.587L136.327 117.453C136.426 116.857 136.725 116.361 137.221 116.063C137.619 115.865 138.116 115.865 138.612 116.162L162.559 129.962C163.553 130.558 164.149 131.948 163.95 133.139L162.46 142.273C162.36 142.868 162.062 143.365 161.565 143.663C161.466 143.762 161.267 143.762 161.069 143.762ZM137.818 116.262C137.718 116.262 137.519 116.262 137.42 116.361C137.122 116.56 136.824 116.857 136.725 117.354L135.234 126.487C135.035 127.58 135.632 128.771 136.426 129.267L160.373 143.067C160.771 143.266 161.069 143.266 161.367 143.166C161.665 142.968 161.963 142.67 162.062 142.174L163.553 133.04C163.751 131.948 163.155 130.756 162.36 130.26L138.414 116.46C138.215 116.361 138.016 116.262 137.818 116.262Z" fill="#F57A00"/>
<path d="M158.386 159.448C158.088 159.448 157.789 159.349 157.491 159.25L133.545 145.45C132.551 144.854 131.955 143.464 132.154 142.273L133.644 133.139C133.743 132.544 134.042 132.047 134.538 131.749C134.936 131.551 135.433 131.551 135.929 131.849L159.876 145.648C160.87 146.244 161.466 147.634 161.267 148.825L159.777 157.959C159.677 158.555 159.379 159.051 158.882 159.349C158.783 159.448 158.584 159.448 158.386 159.448ZM135.135 131.948C135.035 131.948 134.836 131.948 134.737 132.047C134.439 132.246 134.141 132.544 134.042 133.04L132.551 142.174C132.352 143.266 132.949 144.457 133.743 144.953L157.69 158.753C158.088 158.952 158.386 158.952 158.684 158.852C158.982 158.654 159.28 158.356 159.379 157.86L160.87 148.726C161.068 147.634 160.472 146.443 159.677 145.946L135.731 132.146C135.532 132.047 135.333 131.948 135.135 131.948Z" fill="#F57A00"/>
<path opacity="0.5" d="M138.414 128.672C138.811 128.87 139.208 128.87 139.308 128.473L142.09 120.829C142.388 119.935 143.68 120.729 143.978 122.02L145.667 129.665C145.766 130.26 146.164 130.757 146.661 131.054L147.058 131.253C147.456 131.452 147.853 131.452 147.952 131.054L148.549 129.863C148.946 129.069 150.039 129.863 150.437 130.955C150.536 131.452 150.933 131.948 151.331 132.246L151.728 132.444C152.126 132.742 152.523 132.544 152.722 132.147L153.219 130.558C153.517 129.665 154.809 130.359 155.107 131.65L156.796 138.798C156.895 139.394 157.293 139.89 157.789 140.188L138.414 128.672Z" fill="url(#paint17_linear_1131_38889)"/>
<path d="M154.709 155.874C154.212 155.576 153.815 154.981 153.616 154.385L151.927 147.237C151.728 146.443 151.132 145.946 150.735 145.946C150.635 145.946 150.536 145.946 150.436 146.244L149.94 147.833C149.84 148.031 149.741 148.23 149.542 148.329C149.343 148.428 149.045 148.329 148.747 148.23L148.35 148.031C147.853 147.733 147.456 147.237 147.356 146.641C147.157 145.946 146.561 145.45 146.164 145.351C145.965 145.351 145.866 145.351 145.866 145.549L145.27 146.741C145.17 146.939 145.071 147.038 144.872 147.138C144.673 147.237 144.375 147.138 144.077 147.038L143.68 146.84C143.183 146.542 142.785 145.946 142.587 145.351L140.898 137.706C140.699 137.011 140.103 136.416 139.705 136.316C139.506 136.316 139.407 136.416 139.407 136.515L136.625 144.159C136.526 144.358 136.426 144.556 136.227 144.656C136.029 144.755 135.731 144.656 135.433 144.556L135.631 144.159C135.83 144.259 135.929 144.259 136.128 144.259C136.227 144.259 136.227 144.159 136.327 144.06L139.109 136.416C139.208 136.118 139.506 135.919 139.805 135.919C140.401 135.919 141.196 136.614 141.394 137.607L143.084 145.251C143.183 145.748 143.58 146.244 143.978 146.542L144.375 146.741C144.574 146.84 144.673 146.84 144.773 146.84C144.872 146.84 144.872 146.741 144.971 146.641L145.568 145.45C145.667 145.152 145.965 144.954 146.263 145.053C146.859 145.152 147.555 145.748 147.754 146.641C147.853 147.138 148.25 147.634 148.549 147.833L148.946 148.031C149.145 148.13 149.244 148.131 149.443 148.131C149.542 148.131 149.642 148.031 149.642 147.932L150.138 146.343C150.238 145.946 150.536 145.847 150.834 145.847C151.43 145.847 152.225 146.542 152.424 147.535L154.113 154.683C154.212 155.179 154.61 155.676 155.007 155.874H154.709Z" fill="white"/>
<defs>
<linearGradient id="paint0_linear_1131_38889" x1="217.706" y1="207.3" x2="306.537" y2="207.3" gradientUnits="userSpaceOnUse">
<stop stop-color="#F57A00"/>
<stop offset="1" stop-color="#7103A4"/>
</linearGradient>
<linearGradient id="paint1_linear_1131_38889" x1="0" y1="203.233" x2="167.328" y2="203.233" gradientUnits="userSpaceOnUse">
<stop stop-color="#F57A00"/>
<stop offset="1" stop-color="#7103A4"/>
</linearGradient>
<linearGradient id="paint2_linear_1131_38889" x1="0.0993652" y1="196.925" x2="167.229" y2="196.925" gradientUnits="userSpaceOnUse">
<stop stop-color="#F57A00"/>
<stop offset="1" stop-color="#7103A4"/>
</linearGradient>
<linearGradient id="paint3_linear_1131_38889" x1="108.008" y1="86.3522" x2="295.607" y2="86.3522" gradientUnits="userSpaceOnUse">
<stop stop-color="#F57A00"/>
<stop offset="1" stop-color="#7103A4"/>
</linearGradient>
<linearGradient id="paint4_linear_1131_38889" x1="95.5877" y1="93.3018" x2="283.186" y2="93.3018" gradientUnits="userSpaceOnUse">
<stop stop-color="#F57A00"/>
<stop offset="1" stop-color="#7103A4"/>
</linearGradient>
<linearGradient id="paint5_linear_1131_38889" x1="182.984" y1="119.889" x2="64.7591" y2="119.889" gradientUnits="userSpaceOnUse">
<stop stop-color="#C0BFF6"/>
<stop offset="0.2938" stop-color="#C5C4F7"/>
<stop offset="0.6399" stop-color="#D3D2F9"/>
<stop offset="1" stop-color="#E9E9FD"/>
</linearGradient>
<linearGradient id="paint6_linear_1131_38889" x1="182.983" y1="150.183" x2="162.683" y2="150.183" gradientUnits="userSpaceOnUse">
<stop stop-color="#5761D7"/>
<stop offset="0.1779" stop-color="#5C66D9"/>
<stop offset="0.3876" stop-color="#6A73DF"/>
<stop offset="0.6134" stop-color="#8289E8"/>
<stop offset="0.849" stop-color="#A3A7F5"/>
<stop offset="1" stop-color="#BCBEFF"/>
</linearGradient>
<linearGradient id="paint7_linear_1131_38889" x1="64.3875" y1="120.431" x2="180.146" y2="120.431" gradientUnits="userSpaceOnUse">
<stop stop-color="#F57A00"/>
<stop offset="1" stop-color="#7103A4"/>
</linearGradient>
<linearGradient id="paint8_linear_1131_38889" x1="0.107666" y1="178.708" x2="167.078" y2="178.708" gradientUnits="userSpaceOnUse">
<stop stop-color="#F57A00"/>
<stop offset="1" stop-color="#7103A4"/>
</linearGradient>
<linearGradient id="paint9_linear_1131_38889" x1="175.247" y1="141.957" x2="8.18647" y2="141.957" gradientUnits="userSpaceOnUse">
<stop stop-color="#C0BFF6"/>
<stop offset="0.2938" stop-color="#C5C4F7"/>
<stop offset="0.6399" stop-color="#D3D2F9"/>
<stop offset="1" stop-color="#E9E9FD"/>
</linearGradient>
<linearGradient id="paint10_linear_1131_38889" x1="180.743" y1="247.508" x2="230.723" y2="247.508" gradientUnits="userSpaceOnUse">
<stop stop-color="#F57A00"/>
<stop offset="1" stop-color="#7103A4"/>
</linearGradient>
<linearGradient id="paint11_linear_1131_38889" x1="180.345" y1="241.837" x2="231.418" y2="241.837" gradientUnits="userSpaceOnUse">
<stop stop-color="#F57A00"/>
<stop offset="1" stop-color="#7103A4"/>
</linearGradient>
<linearGradient id="paint12_linear_1131_38889" x1="205.683" y1="242.147" x2="231.219" y2="242.147" gradientUnits="userSpaceOnUse">
<stop stop-color="#F57A00"/>
<stop offset="1" stop-color="#7103A4"/>
</linearGradient>
<linearGradient id="paint13_linear_1131_38889" x1="182.233" y1="227.553" x2="229.928" y2="227.553" gradientUnits="userSpaceOnUse">
<stop stop-color="#F57A00"/>
<stop offset="1" stop-color="#7103A4"/>
</linearGradient>
<linearGradient id="paint14_linear_1131_38889" x1="182.233" y1="227.504" x2="205.683" y2="227.504" gradientUnits="userSpaceOnUse">
<stop stop-color="#F57A00"/>
<stop offset="1" stop-color="#7103A4"/>
</linearGradient>
<linearGradient id="paint15_linear_1131_38889" x1="180.165" y1="232.816" x2="231.273" y2="232.816" gradientUnits="userSpaceOnUse">
<stop stop-color="#E9E9FD"/>
<stop offset="0.3601" stop-color="#D3D2F9"/>
<stop offset="0.7062" stop-color="#C5C4F7"/>
<stop offset="1" stop-color="#C0BFF6"/>
</linearGradient>
<linearGradient id="paint16_linear_1131_38889" x1="44.7137" y1="259.174" x2="192.567" y2="259.174" gradientUnits="userSpaceOnUse">
<stop stop-color="#F57A00"/>
<stop offset="1" stop-color="#7103A4"/>
</linearGradient>
<linearGradient id="paint17_linear_1131_38889" x1="138.414" y1="130.318" x2="157.789" y2="130.318" gradientUnits="userSpaceOnUse">
<stop stop-color="#F57A00"/>
<stop offset="1" stop-color="#7103A4"/>
</linearGradient>
</defs>
</svg>
