<svg width="316" height="211" viewBox="0 0 316 211" fill="none" xmlns="http://www.w3.org/2000/svg">
<path d="M61.2825 57.9408C63.3717 58.4692 65.4953 57.1942 66.0234 55.1035C66.0578 54.9427 66.0922 54.7934 66.1037 54.6325C67.7223 54.6325 69.3064 54.4028 70.8101 53.9433C70.879 54.0927 70.9479 54.2305 71.0282 54.3683C72.1302 56.2178 74.5408 56.8266 76.389 55.7238C78.2371 54.6096 78.8455 52.2088 77.7435 50.3594C77.6631 50.2215 77.5713 50.0951 77.468 49.9688C78.5815 48.8545 79.5457 47.5795 80.3033 46.1436C80.4525 46.201 80.6018 46.247 80.751 46.2929C82.8402 46.8213 84.9638 45.5463 85.4918 43.4556C86.0199 41.365 84.7457 39.2284 82.6565 38.7115C82.4958 38.677 82.3466 38.6425 82.1859 38.6311C82.1974 37.0114 81.9563 35.4262 81.4971 33.9214C81.6349 33.8524 81.7841 33.7835 81.9219 33.7031C83.77 32.5889 84.3784 30.1881 83.2764 28.3387C82.1744 26.4892 79.7638 25.8804 77.9157 26.9832C77.7779 27.0636 77.6516 27.1555 77.5254 27.2589C76.4119 26.1446 75.1377 25.1797 73.7029 24.4216C73.7603 24.2722 73.8062 24.1229 73.8521 23.9736C74.3801 21.8829 73.1059 19.7463 71.0168 19.2294C68.9276 18.701 66.8039 19.9761 66.2759 22.0667C66.2415 22.2275 66.207 22.3769 66.1955 22.5377C64.577 22.5377 62.9929 22.7674 61.4891 23.2269C61.4203 23.0776 61.3514 22.9397 61.271 22.8019C60.169 20.9525 57.7584 20.3437 55.9103 21.4464C54.0622 22.5607 53.4538 24.9615 54.5558 26.8109C54.6361 26.9487 54.728 27.0751 54.8313 27.2014C53.7178 28.3157 52.7536 29.5907 51.996 31.0266C51.8467 30.9692 51.6975 30.9232 51.5483 30.8773C49.4591 30.3489 47.3355 31.624 46.8074 33.7146C46.2794 35.8052 47.5536 37.9418 49.6427 38.4588C49.8035 38.4932 49.9527 38.5277 50.1134 38.5392C50.1019 40.1588 50.343 41.7441 50.8021 43.2489C50.6644 43.3178 50.5152 43.3867 50.3774 43.4671C48.5293 44.5814 47.9209 46.9822 49.0229 48.8316C50.1249 50.681 52.5355 51.2898 54.3836 50.187C54.5213 50.1066 54.6476 50.0147 54.7739 49.9114C55.8874 51.0256 57.1615 51.9905 58.5964 52.7487C58.539 52.898 58.4931 53.0473 58.4472 53.1967C57.9191 55.2873 59.1933 57.4124 61.2825 57.9408ZM64.3819 45.6152C60.4905 44.6388 58.1372 40.6872 59.113 36.7931C60.0887 32.899 64.0375 30.5442 67.9289 31.5206C71.8203 32.497 74.1735 36.4485 73.1978 40.3426C72.2221 44.2253 68.2733 46.5916 64.3819 45.6152Z" fill="url(#paint0_linear_1131_39188)"/>
<path d="M62.2468 58.3084C61.9024 58.3084 61.558 58.2624 61.2251 58.182C60.1461 57.9063 59.2393 57.2401 58.6653 56.2752C58.0914 55.3217 57.9307 54.196 58.2062 53.1162C58.2291 53.0243 58.2521 52.9439 58.2865 52.8405C56.9894 52.1283 55.807 51.2438 54.751 50.21C54.6706 50.2674 54.5903 50.3134 54.5099 50.3708C53.5571 50.9452 52.4322 51.106 51.3532 50.8303C50.2741 50.5546 49.3673 49.8884 48.7933 48.9234C47.611 46.9477 48.2653 44.3861 50.2282 43.2144C50.3086 43.1684 50.3889 43.1225 50.4808 43.0765C50.0675 41.6636 49.8609 40.1933 49.8379 38.7229C49.7346 38.7114 49.6428 38.6885 49.5624 38.6655C48.4834 38.3898 47.5765 37.7236 47.0026 36.7586C46.4286 35.8052 46.2679 34.6795 46.5434 33.5997C47.1059 31.3712 49.3673 30.0157 51.5942 30.5786C51.686 30.6016 51.7664 30.6246 51.8697 30.659C52.5814 29.361 53.4653 28.1778 54.4984 27.121C54.441 27.0406 54.3951 26.9602 54.3377 26.8798C53.1554 24.904 53.8097 22.3424 55.7726 21.1707C56.7254 20.5963 57.8503 20.4355 58.9293 20.7112C60.0084 20.9869 60.9152 21.6532 61.4892 22.6181C61.5351 22.6985 61.581 22.7789 61.6269 22.8708C63.0388 22.4573 64.5082 22.239 65.9775 22.2275C65.989 22.1241 66.0119 22.0322 66.0349 21.9518C66.5973 19.7233 68.8587 18.3679 71.0857 18.9307C72.1647 19.2064 73.0715 19.8727 73.6455 20.8376C74.2194 21.791 74.3801 22.9167 74.1046 23.9965C74.0817 24.0884 74.0587 24.1688 74.0243 24.2722C75.3214 24.9844 76.5038 25.8689 77.5598 26.9027C77.6402 26.8453 77.7205 26.7994 77.8009 26.7419C78.7537 26.1676 79.8786 26.0068 80.9576 26.2824C82.0367 26.5581 82.9435 27.2244 83.5175 28.1893C84.6998 30.1651 84.0455 32.7267 82.0826 33.8984C82.0022 33.9443 81.9219 33.9903 81.8301 34.0362C82.2433 35.4491 82.4499 36.9195 82.4729 38.3898C82.5762 38.4013 82.668 38.4243 82.7484 38.4472C84.9753 39.0101 86.3298 41.2731 85.7674 43.5016C85.2049 45.73 82.9435 47.0855 80.7166 46.5226C80.6247 46.4997 80.5444 46.4767 80.4411 46.4422C79.7294 47.7403 78.8455 48.9234 77.8124 49.9803C77.8698 50.0607 77.9157 50.1411 77.9731 50.2215C79.1554 52.1973 78.5011 54.7589 76.5382 55.9306C75.5854 56.5049 74.4605 56.6657 73.3815 56.39C72.3024 56.1143 71.3956 55.4481 70.8216 54.4832C70.7757 54.4028 70.7298 54.3224 70.6839 54.2305C69.272 54.644 67.8026 54.8623 66.3333 54.8737C66.3218 54.9771 66.2989 55.069 66.2759 55.1494C66.0004 56.2292 65.3346 57.1367 64.3704 57.711C63.7161 58.1131 62.9929 58.3084 62.2468 58.3084ZM54.7739 49.6471C54.8428 49.6471 54.9002 49.6701 54.9576 49.7275C56.0596 50.8418 57.3337 51.7837 58.7112 52.5189C58.826 52.5763 58.8719 52.7142 58.826 52.829C58.7686 52.9784 58.7227 53.1277 58.6883 53.2541C58.4472 54.2075 58.5964 55.1839 59.09 56.0225C59.5951 56.861 60.3872 57.4583 61.3399 57.6996C62.2812 57.9408 63.2684 57.7915 64.1064 57.286C64.9444 56.7806 65.5413 55.988 65.7823 55.0346C65.8168 54.9082 65.8397 54.7589 65.8627 54.5981C65.8742 54.4717 65.989 54.3798 66.1152 54.3798C66.1267 54.3798 66.1497 54.3798 66.1726 54.3798C67.7223 54.3798 69.272 54.1501 70.7528 53.7021C70.879 53.6676 71.0053 53.725 71.0627 53.8399C71.1316 53.9892 71.2004 54.1156 71.2693 54.242C71.7744 55.0805 72.5665 55.6778 73.5192 55.9191C74.4605 56.1603 75.4477 56.011 76.2857 55.5055C78.019 54.4717 78.5815 52.2202 77.5484 50.4857C77.4795 50.3708 77.3991 50.2559 77.2958 50.1181C77.2155 50.0147 77.227 49.8769 77.3188 49.785C78.4323 48.6822 79.3735 47.4072 80.1082 46.0287C80.1656 45.9138 80.3033 45.8679 80.4181 45.9138C80.5788 45.9713 80.7051 46.0172 80.8428 46.0517C82.7943 46.5456 84.7916 45.351 85.2852 43.3982C85.7788 41.4454 84.585 39.4466 82.6336 38.9527C82.5073 38.9182 82.3581 38.8952 82.1974 38.8723C82.0711 38.8608 81.9793 38.7459 81.9793 38.6196C81.9793 37.0458 81.7612 35.4836 81.302 33.9788C81.2676 33.8524 81.325 33.7261 81.4398 33.6686C81.589 33.5997 81.7153 33.5308 81.8301 33.4619C83.5634 32.428 84.1259 30.1766 83.0927 28.442C82.5877 27.6035 81.7956 27.0061 80.8428 26.7649C79.9016 26.5237 78.9144 26.673 78.0764 27.1784C77.9616 27.2474 77.8468 27.3278 77.7091 27.4312C77.6058 27.5116 77.468 27.5001 77.3762 27.4082C76.2742 26.2939 75.0115 25.352 73.6225 24.6168C73.5077 24.5594 73.4618 24.4215 73.5077 24.3067C73.5651 24.1573 73.611 24.008 73.6455 23.8816C73.8865 22.9282 73.7373 21.9518 73.2437 21.1133C72.7386 20.2747 71.9466 19.6774 70.9938 19.4362C69.0424 18.9422 67.045 20.1369 66.5514 22.0897C66.517 22.216 66.494 22.3654 66.4711 22.5262C66.4596 22.6525 66.3448 22.7444 66.2185 22.7444C66.1956 22.7444 66.1841 22.7444 66.1611 22.7444C64.6115 22.7444 63.0618 22.9742 61.581 23.4222C61.4547 23.4566 61.3285 23.3992 61.2711 23.2843C61.2022 23.1235 61.1333 22.9971 61.0644 22.8823C60.5594 22.0437 59.7673 21.4464 58.8145 21.2052C57.8733 20.9639 56.8861 21.1133 56.0481 21.6187C54.3148 22.6525 53.7523 24.904 54.7854 26.6385C54.8543 26.7534 54.9346 26.8683 55.0379 27.0061C55.1183 27.1095 55.1068 27.2474 55.015 27.3393C53.9015 28.442 52.9602 29.7171 52.2256 31.0955C52.1682 31.2104 52.0304 31.2563 51.9156 31.2104C51.7549 31.153 51.6287 31.107 51.4909 31.0725C49.5395 30.5786 47.5421 31.7733 47.0485 33.7261C46.8075 34.6795 46.9567 35.6559 47.4503 36.4944C47.9554 37.333 48.7474 37.9303 49.7002 38.1716C49.8264 38.206 49.9757 38.229 50.1364 38.252C50.2626 38.2635 50.3545 38.3783 50.3545 38.5047C50.3545 40.0784 50.5726 41.6406 51.0317 43.1455C51.0662 43.2718 51.0088 43.3982 50.894 43.4556C50.7448 43.5245 50.6185 43.5935 50.5037 43.6624C48.7704 44.6962 48.2079 46.9477 49.241 48.6822C49.7461 49.5208 50.5381 50.1181 51.4909 50.3593C52.4322 50.6006 53.4194 50.4512 54.2574 49.9458C54.3721 49.8769 54.4869 49.7965 54.6247 49.6931C54.6706 49.6586 54.728 49.6471 54.7739 49.6471ZM66.1611 46.0861C65.5528 46.0861 64.9444 46.0172 64.3245 45.8564C62.3845 45.3625 60.743 44.1448 59.7099 42.4218C58.6768 40.6987 58.3783 38.677 58.8719 36.7242C59.8821 32.7037 63.9801 30.257 67.9863 31.2678C69.9263 31.7618 71.5678 32.9794 72.6009 34.7025C73.634 36.4255 73.9325 38.4472 73.4389 40.4C72.5894 43.8002 69.5245 46.0861 66.1611 46.0861ZM64.4508 45.3625C68.2044 46.3044 72.0155 44.0185 72.9567 40.2737C73.4159 38.4587 73.1404 36.5749 72.1762 34.9667C71.2119 33.3585 69.6852 32.2213 67.8715 31.7618C64.1179 30.8198 60.3068 33.1058 59.3655 36.8505C58.9064 38.6655 59.1819 40.5494 60.1461 42.1576C61.1104 43.7658 62.6371 44.903 64.4508 45.3625Z" fill="white"/>
<path d="M35.6154 28.2237C36.878 28.5453 38.1637 27.7757 38.4851 26.5006C38.5081 26.4087 38.5196 26.3168 38.531 26.2134C39.5068 26.2134 40.471 26.0756 41.3778 25.7884C41.4123 25.8803 41.4582 25.9607 41.5041 26.0411C42.1699 27.1668 43.6277 27.5344 44.7412 26.8567C45.8661 26.1904 46.2335 24.7316 45.5562 23.6059C45.5103 23.5254 45.4529 23.445 45.3955 23.3646C46.0728 22.6984 46.6582 21.9173 47.1174 21.0557C47.2092 21.0902 47.301 21.1247 47.3929 21.1476C48.6556 21.4693 49.9412 20.6996 50.2626 19.4246C50.584 18.161 49.8149 16.8744 48.5522 16.5528C48.4604 16.5298 48.3686 16.5183 48.2653 16.5069C48.2653 15.5305 48.1275 14.5655 47.852 13.6581C47.9439 13.6236 48.0242 13.5777 48.1046 13.5317C49.2295 12.8655 49.5968 11.4066 48.9196 10.2809C48.2538 9.15513 46.7959 8.78755 45.6825 9.46529C45.6021 9.51123 45.5218 9.56867 45.4414 9.6261C44.7756 8.94837 43.9951 8.36253 43.1341 7.90305C43.1686 7.81115 43.203 7.71925 43.226 7.62736C43.5474 6.36378 42.7783 5.07723 41.5156 4.75559C40.2529 4.43395 38.9672 5.20359 38.6458 6.47865C38.6229 6.57055 38.6114 6.66244 38.5999 6.76583C37.6242 6.76583 36.6599 6.90367 35.7531 7.19085C35.7187 7.09895 35.6727 7.01854 35.6268 6.93813C34.961 5.8124 33.5032 5.44481 32.3897 6.12255C31.2648 6.7888 30.8975 8.24766 31.5747 9.37339C31.6206 9.4538 31.678 9.53421 31.7354 9.61462C31.0582 10.2809 30.4727 11.062 30.0136 11.9235C29.9217 11.8891 29.8299 11.8546 29.7381 11.8316C28.4754 11.51 27.1897 12.2796 26.8683 13.5547C26.5469 14.8183 27.316 16.1048 28.5787 16.4264C28.6705 16.4494 28.7624 16.4609 28.8657 16.4724C28.8657 17.4488 29.0034 18.4137 29.2789 19.3212C29.1871 19.3556 29.1067 19.4016 29.0264 19.4475C27.9014 20.1138 27.5341 21.5727 28.2114 22.6984C28.8771 23.8241 30.335 24.1917 31.4485 23.514C31.5288 23.468 31.6092 23.4106 31.6895 23.3531C32.3553 24.0309 33.1359 24.6167 33.9968 25.0762C33.9624 25.1681 33.9279 25.26 33.905 25.3519C33.5836 26.6155 34.3527 27.902 35.6154 28.2237ZM37.4979 20.7686C35.1447 20.1712 33.7213 17.7819 34.3067 15.4386C34.9037 13.0837 37.2913 11.6593 39.633 12.2452C41.9862 12.8425 43.4096 15.2318 42.8242 17.5752C42.2388 19.93 39.8511 21.3659 37.4979 20.7686Z" fill="url(#paint1_linear_1131_39188)"/>
<path d="M292.723 123.44C292.723 127.001 289.853 129.884 286.306 129.884H97.4645C93.9175 129.884 91.0477 127.001 91.0477 123.44V121.074L95.8001 118.592H291.162L292.723 121.074V123.44Z" fill="url(#paint2_linear_1131_39188)"/>
<path d="M286.307 130.137H97.4646C93.7913 130.137 90.7953 127.128 90.7953 123.44C90.7953 123.302 90.9101 123.188 91.0478 123.188C91.1856 123.188 91.3004 123.302 91.3004 123.44C91.3004 126.852 94.0668 129.632 97.4646 129.632H286.307C289.704 129.632 292.471 126.852 292.471 123.44C292.471 123.302 292.586 123.188 292.723 123.188C292.861 123.188 292.976 123.302 292.976 123.44C292.976 127.128 289.98 130.137 286.307 130.137Z" fill="black"/>
<path d="M159.842 149.458H223.929C226.558 149.458 228.693 147.322 228.693 144.691V129.884H155.067V144.691C155.078 147.322 157.213 149.458 159.842 149.458Z" fill="url(#paint3_linear_1131_39188)"/>
<path d="M223.929 149.711H159.842C157.075 149.711 154.826 147.46 154.826 144.691V129.884C154.826 129.747 154.94 129.632 155.078 129.632H228.705C228.842 129.632 228.957 129.747 228.957 129.884V144.691C228.957 147.46 226.696 149.711 223.929 149.711ZM155.331 130.137V144.691C155.331 147.184 157.351 149.206 159.842 149.206H223.929C226.42 149.206 228.441 147.184 228.441 144.691V130.137H155.331Z" fill="black"/>
<path d="M225.961 134.732H157.822C157.684 134.732 157.569 134.617 157.569 134.479C157.569 134.341 157.684 134.227 157.822 134.227H225.961C226.099 134.227 226.214 134.341 226.214 134.479C226.214 134.617 226.099 134.732 225.961 134.732Z" fill="black"/>
<path d="M91.0477 121.074H292.723V5.88147C292.723 2.76847 290.209 0.252808 287.098 0.252808H96.6725C93.5616 0.252808 91.0477 2.76847 91.0477 5.88147V121.074Z" fill="url(#paint4_linear_1131_39188)"/>
<path d="M292.723 121.326H91.0478C90.91 121.326 90.7952 121.211 90.7952 121.074V5.88138C90.7952 2.64202 93.4354 0 96.6725 0H287.099C290.336 0 292.976 2.64202 292.976 5.88138V121.074C292.976 121.211 292.861 121.326 292.723 121.326ZM91.3003 120.821H292.471V5.88138C292.471 2.91771 290.06 0.505431 287.099 0.505431H96.6725C93.7109 0.505431 91.3003 2.91771 91.3003 5.88138V120.821Z" fill="black"/>
<path d="M308.278 209.961H211.36C207.687 209.961 204.702 206.974 204.702 203.298V146.414C204.702 142.739 207.687 139.752 211.36 139.752H308.278C311.951 139.752 314.935 142.739 314.935 146.414V203.298C314.935 206.974 311.951 209.961 308.278 209.961Z" fill="url(#paint5_linear_1131_39188)"/>
<path d="M308.278 210.213H211.36C207.549 210.213 204.45 207.112 204.45 203.298V146.414C204.45 142.601 207.549 139.499 211.36 139.499H308.278C312.089 139.499 315.188 142.601 315.188 146.414V203.298C315.188 207.112 312.089 210.213 308.278 210.213ZM211.36 140.004C207.824 140.004 204.955 142.876 204.955 146.414V203.298C204.955 206.836 207.824 209.708 211.36 209.708H308.278C311.813 209.708 314.683 206.836 314.683 203.298V146.414C314.683 142.876 311.813 140.004 308.278 140.004H211.36Z" fill="#F8CCCC"/>
<path d="M236.993 154.914H219.441C218.316 154.914 217.386 153.995 217.386 152.858C217.386 151.732 218.305 150.802 219.441 150.802H236.993C238.118 150.802 239.047 151.721 239.047 152.858C239.036 153.995 238.118 154.914 236.993 154.914ZM219.43 151.319C218.58 151.319 217.88 152.008 217.88 152.87C217.88 153.731 218.569 154.42 219.43 154.42H236.981C237.831 154.42 238.531 153.731 238.531 152.87C238.531 152.008 237.842 151.319 236.981 151.319H219.43Z" fill="#5479F7"/>
<path d="M232.768 162.588H223.975C222.85 162.588 221.921 161.669 221.921 160.532C221.921 159.406 222.839 158.476 223.975 158.476H232.757C233.882 158.476 234.812 159.395 234.812 160.532C234.812 161.669 233.893 162.588 232.768 162.588ZM223.975 158.993C223.126 158.993 222.426 159.682 222.426 160.543C222.426 161.405 223.114 162.094 223.975 162.094H232.757C233.606 162.094 234.307 161.405 234.307 160.543C234.307 159.682 233.618 158.993 232.757 158.993H223.975Z" fill="#5479F7"/>
<path d="M232.768 170.262H219.441C218.316 170.262 217.386 169.343 217.386 168.206C217.386 167.08 218.305 166.149 219.441 166.149H232.768C233.893 166.149 234.823 167.068 234.823 168.206C234.812 169.343 233.893 170.262 232.768 170.262ZM219.43 166.666C218.58 166.666 217.88 167.356 217.88 168.217C217.88 169.079 218.569 169.768 219.43 169.768H232.757C233.606 169.768 234.307 169.079 234.307 168.217C234.307 167.356 233.618 166.666 232.757 166.666H219.43Z" fill="#5479F7"/>
<path d="M232.768 177.935H224.595C223.47 177.935 222.54 177.016 222.54 175.878C222.54 174.741 223.459 173.822 224.595 173.822H232.768C233.893 173.822 234.823 174.741 234.823 175.878C234.823 177.016 233.893 177.935 232.768 177.935ZM224.584 174.339C223.734 174.339 223.034 175.028 223.034 175.89C223.034 176.751 223.723 177.441 224.584 177.441H232.757C233.606 177.441 234.307 176.751 234.307 175.89C234.307 175.028 233.618 174.339 232.757 174.339H224.584Z" fill="#5479F7"/>
<path d="M232.768 190.214H222.873C221.748 190.214 220.818 189.295 220.818 188.158C220.818 187.032 221.737 186.102 222.873 186.102H232.768C233.893 186.102 234.823 187.021 234.823 188.158C234.811 189.295 233.893 190.214 232.768 190.214ZM222.873 186.619C222.024 186.619 221.324 187.308 221.324 188.169C221.324 189.02 222.012 189.72 222.873 189.72H232.768C233.618 189.72 234.318 189.031 234.318 188.169C234.318 187.319 233.629 186.619 232.768 186.619H222.873Z" fill="#5479F7"/>
<path d="M232.768 197.888H222.873C221.748 197.888 220.818 196.969 220.818 195.832C220.818 194.706 221.737 193.775 222.873 193.775H232.768C233.893 193.775 234.823 194.694 234.823 195.832C234.811 196.969 233.893 197.888 232.768 197.888ZM222.873 194.292C222.024 194.292 221.324 194.982 221.324 195.843C221.324 196.693 222.012 197.394 222.873 197.394H232.768C233.618 197.394 234.318 196.705 234.318 195.843C234.318 194.993 233.629 194.292 232.768 194.292H222.873Z" fill="#5479F7"/>
<path d="M243.363 154.662H256.691C257.678 154.662 258.493 153.858 258.493 152.859C258.493 151.859 257.689 151.055 256.691 151.055H243.363C242.376 151.055 241.561 151.859 241.561 152.859C241.561 153.858 242.376 154.662 243.363 154.662Z" fill="#E2EAFF"/>
<path d="M239.139 162.335H252.466C253.453 162.335 254.268 161.531 254.268 160.532C254.268 159.544 253.465 158.729 252.466 158.729H239.139C238.152 158.729 237.337 159.533 237.337 160.532C237.348 161.531 238.152 162.335 239.139 162.335Z" fill="url(#paint6_linear_1131_39188)"/>
<path d="M252.478 162.588H239.15C238.025 162.588 237.096 161.669 237.096 160.532C237.096 159.406 238.014 158.476 239.15 158.476H252.478C253.603 158.476 254.532 159.395 254.532 160.532C254.521 161.669 253.603 162.588 252.478 162.588ZM239.139 158.993C238.29 158.993 237.589 159.682 237.589 160.543C237.589 161.405 238.278 162.094 239.139 162.094H252.466C253.316 162.094 254.016 161.405 254.016 160.543C254.016 159.682 253.327 158.993 252.466 158.993H239.139Z" fill="#F8CCCC"/>
<path d="M239.139 170.009H272.187C273.174 170.009 273.989 169.204 273.989 168.205C273.989 167.217 273.186 166.402 272.187 166.402H239.139C238.152 166.402 237.337 167.206 237.337 168.205C237.348 169.204 238.152 170.009 239.139 170.009Z" fill="url(#paint7_linear_1131_39188)"/>
<path d="M272.187 170.262H239.139C238.014 170.262 237.084 169.343 237.084 168.206C237.084 167.08 238.003 166.149 239.139 166.149H272.187C273.312 166.149 274.242 167.068 274.242 168.206C274.231 169.343 273.312 170.262 272.187 170.262ZM239.139 166.666C238.29 166.666 237.589 167.356 237.589 168.217C237.589 169.079 238.278 169.768 239.139 169.768H272.187C273.037 169.768 273.737 169.079 273.737 168.217C273.737 167.356 273.048 166.666 272.187 166.666H239.139Z" fill="#F8CCCC"/>
<path d="M239.139 177.682H252.466C253.453 177.682 254.268 176.878 254.268 175.879C254.268 174.879 253.465 174.075 252.466 174.075H239.139C238.152 174.075 237.337 174.879 237.337 175.879C237.337 176.878 238.152 177.682 239.139 177.682Z" fill="url(#paint8_linear_1131_39188)"/>
<path d="M252.478 177.935H239.15C238.025 177.935 237.096 177.016 237.096 175.878C237.096 174.741 238.014 173.822 239.15 173.822H252.478C253.603 173.822 254.532 174.741 254.532 175.878C254.532 177.016 253.603 177.935 252.478 177.935ZM239.139 174.339C238.29 174.339 237.589 175.028 237.589 175.89C237.589 176.751 238.278 177.441 239.139 177.441H252.466C253.316 177.441 254.016 176.751 254.016 175.89C254.016 175.028 253.327 174.339 252.466 174.339H239.139Z" fill="#F8CCCC"/>
<path d="M239.139 189.962H246.841C247.829 189.962 248.644 189.158 248.644 188.158C248.644 187.17 247.84 186.355 246.841 186.355H239.139C238.152 186.355 237.337 187.159 237.337 188.158C237.348 189.158 238.152 189.962 239.139 189.962Z" fill="url(#paint9_linear_1131_39188)"/>
<path d="M246.842 190.214H239.139C238.014 190.214 237.084 189.295 237.084 188.158C237.084 187.032 238.003 186.102 239.139 186.102H246.842C247.966 186.102 248.896 187.021 248.896 188.158C248.896 189.295 247.978 190.214 246.842 190.214ZM239.139 186.619C238.29 186.619 237.589 187.308 237.589 188.169C237.589 189.02 238.278 189.72 239.139 189.72H246.842C247.691 189.72 248.391 189.031 248.391 188.169C248.391 187.319 247.702 186.619 246.842 186.619H239.139Z" fill="#F8CCCC"/>
<path d="M239.139 197.635H252.466C253.453 197.635 254.268 196.83 254.268 195.831C254.268 194.843 253.465 194.028 252.466 194.028H239.139C238.152 194.028 237.337 194.832 237.337 195.831C237.337 196.83 238.152 197.635 239.139 197.635Z" fill="url(#paint10_linear_1131_39188)"/>
<path d="M252.478 197.888H239.15C238.025 197.888 237.096 196.969 237.096 195.832C237.096 194.706 238.014 193.775 239.15 193.775H252.478C253.603 193.775 254.532 194.694 254.532 195.832C254.521 196.969 253.603 197.888 252.478 197.888ZM239.139 194.292C238.29 194.292 237.589 194.982 237.589 195.843C237.589 196.693 238.278 197.394 239.139 197.394H252.466C253.316 197.394 254.016 196.705 254.016 195.843C254.016 194.993 253.327 194.292 252.466 194.292H239.139Z" fill="#F8CCCC"/>
<path d="M263.073 154.662H276.4C277.387 154.662 278.202 153.858 278.202 152.859C278.202 151.859 277.399 151.055 276.4 151.055H263.073C262.086 151.055 261.271 151.859 261.271 152.859C261.271 153.858 262.086 154.662 263.073 154.662Z" fill="url(#paint11_linear_1131_39188)"/>
<path d="M276.412 154.914H263.085C261.96 154.914 261.03 153.995 261.03 152.858C261.03 151.732 261.948 150.802 263.085 150.802H276.412C277.537 150.802 278.467 151.721 278.467 152.858C278.455 153.995 277.537 154.914 276.412 154.914ZM263.073 151.319C262.224 151.319 261.523 152.008 261.523 152.87C261.523 153.731 262.212 154.42 263.073 154.42H276.4C277.25 154.42 277.95 153.731 277.95 152.87C277.95 152.008 277.261 151.319 276.4 151.319H263.073Z" fill="#F8CCCC"/>
<path d="M258.849 162.335H267.297C268.284 162.335 269.1 161.531 269.1 160.532C269.1 159.544 268.296 158.728 267.297 158.728H258.849C257.862 158.728 257.047 159.532 257.047 160.532C257.058 161.531 257.862 162.335 258.849 162.335Z" fill="#E2EAFF"/>
<path d="M278.57 170.009H296.936C297.924 170.009 298.739 169.204 298.739 168.205C298.739 167.217 297.935 166.402 296.936 166.402H278.57C277.583 166.402 276.768 167.206 276.768 168.205C276.768 169.204 277.571 170.009 278.57 170.009Z" fill="url(#paint12_linear_1131_39188)"/>
<path d="M296.925 170.262H278.558C277.433 170.262 276.503 169.343 276.503 168.206C276.503 167.08 277.422 166.149 278.558 166.149H296.925C298.05 166.149 298.979 167.068 298.979 168.206C298.979 169.343 298.061 170.262 296.925 170.262ZM278.57 166.666C277.72 166.666 277.02 167.356 277.02 168.217C277.02 169.079 277.709 169.768 278.57 169.768H296.936C297.786 169.768 298.486 169.079 298.486 168.217C298.486 167.356 297.797 166.666 296.936 166.666H278.57Z" fill="#F8CCCC"/>
<path d="M258.849 177.682H278.053C279.04 177.682 279.855 176.878 279.855 175.879C279.855 174.879 279.052 174.075 278.053 174.075H258.849C257.861 174.075 257.046 174.879 257.046 175.879C257.046 176.878 257.861 177.682 258.849 177.682Z" fill="url(#paint13_linear_1131_39188)"/>
<path d="M278.065 177.935H258.86C257.735 177.935 256.805 177.016 256.805 175.878C256.805 174.741 257.724 173.822 258.86 173.822H278.065C279.19 173.822 280.119 174.741 280.119 175.878C280.119 177.016 279.19 177.935 278.065 177.935ZM258.849 174.339C257.999 174.339 257.299 175.028 257.299 175.89C257.299 176.751 257.988 177.441 258.849 177.441H278.053C278.903 177.441 279.603 176.751 279.603 175.89C279.603 175.028 278.914 174.339 278.053 174.339H258.849Z" fill="#F8CCCC"/>
<path d="M253.224 189.962H272.188C273.175 189.962 273.99 189.158 273.99 188.158C273.99 187.17 273.186 186.355 272.188 186.355H253.224C252.237 186.355 251.422 187.159 251.422 188.158C251.422 189.158 252.225 189.962 253.224 189.962Z" fill="url(#paint14_linear_1131_39188)"/>
<path d="M272.187 190.214H253.224C252.099 190.214 251.169 189.295 251.169 188.158C251.169 187.032 252.088 186.102 253.224 186.102H272.187C273.312 186.102 274.242 187.021 274.242 188.158C274.231 189.295 273.312 190.214 272.187 190.214ZM253.224 186.619C252.375 186.619 251.674 187.308 251.674 188.169C251.674 189.02 252.363 189.72 253.224 189.72H272.187C273.037 189.72 273.737 189.031 273.737 188.169C273.737 187.319 273.048 186.619 272.187 186.619H253.224Z" fill="#F8CCCC"/>
<path d="M258.849 197.635H287.673C288.66 197.635 289.475 196.831 289.475 195.831C289.475 194.843 288.671 194.028 287.673 194.028H258.849C257.862 194.028 257.047 194.832 257.047 195.831C257.047 196.831 257.862 197.635 258.849 197.635Z" fill="#E2EAFF"/>
<path d="M212.45 145.966C212.358 145.966 212.267 145.909 212.221 145.817L196.471 111.631C196.46 111.597 196.448 111.563 196.448 111.528V19.7119C196.448 19.5741 196.563 19.4592 196.701 19.4592C196.839 19.4592 196.954 19.5741 196.954 19.7119V111.471L212.68 145.61C212.737 145.737 212.68 145.886 212.554 145.943C212.519 145.955 212.485 145.966 212.45 145.966Z" fill="white"/>
<path d="M188.402 102.017C188.264 102.017 188.149 101.902 188.149 101.764V28.109C188.149 27.9712 188.264 27.8563 188.402 27.8563C188.539 27.8563 188.654 27.9712 188.654 28.109V101.764C188.654 101.902 188.551 102.017 188.402 102.017Z" fill="white"/>
<path d="M171.838 108.633C171.7 108.633 171.585 108.518 171.585 108.381V28.109C171.585 27.9712 171.7 27.8563 171.838 27.8563C171.975 27.8563 172.09 27.9712 172.09 28.109V108.381C172.09 108.518 171.975 108.633 171.838 108.633Z" fill="white"/>
<path d="M204.977 96.0435C204.84 96.0435 204.725 95.9287 204.725 95.7908V28.109C204.725 27.9712 204.84 27.8563 204.977 27.8563C205.115 27.8563 205.23 27.9712 205.23 28.109V95.7908C205.23 95.9287 205.115 96.0435 204.977 96.0435Z" fill="white"/>
<path d="M213.265 110.724C213.127 110.724 213.013 110.609 213.013 110.471V28.109C213.013 27.9712 213.127 27.8563 213.265 27.8563C213.403 27.8563 213.518 27.9712 213.518 28.109V110.471C213.518 110.621 213.403 110.724 213.265 110.724Z" fill="white"/>
<path d="M180.114 96.0434C179.976 96.0434 179.861 95.9286 179.861 95.7907V22.8938L170.299 15.8523C170.184 15.7718 170.161 15.611 170.242 15.4962C170.322 15.3813 170.483 15.3583 170.598 15.4387L180.263 22.5607C180.332 22.6066 180.366 22.6871 180.366 22.7675V95.7792C180.366 95.9286 180.263 96.0434 180.114 96.0434Z" fill="white"/>
<path d="M186.083 101.764C186.083 103.028 187.105 104.062 188.379 104.062C189.641 104.062 190.675 103.039 190.675 101.764C190.675 100.501 189.653 99.4668 188.379 99.4668C187.105 99.4783 186.083 100.501 186.083 101.764Z" fill="url(#paint15_linear_1131_39188)"/>
<path d="M188.379 104.314C186.979 104.314 185.831 103.177 185.831 101.764C185.831 100.351 186.967 99.2142 188.379 99.2142C189.791 99.2142 190.927 100.351 190.927 101.764C190.927 103.177 189.779 104.314 188.379 104.314ZM188.379 99.7312C187.254 99.7312 186.336 100.65 186.336 101.776C186.336 102.902 187.254 103.821 188.379 103.821C189.504 103.821 190.422 102.902 190.422 101.776C190.411 100.639 189.504 99.7312 188.379 99.7312Z" fill="white"/>
<path d="M212.456 148.011C213.724 148.009 214.749 146.978 214.747 145.709C214.744 144.44 213.714 143.414 212.446 143.416C211.178 143.419 210.152 144.45 210.155 145.719C210.158 146.987 211.188 148.014 212.456 148.011Z" fill="white"/>
<path d="M171.84 111.161C173.108 111.16 174.135 110.13 174.133 108.861C174.132 107.592 173.103 106.565 171.835 106.566C170.567 106.567 169.54 107.597 169.542 108.866C169.543 110.135 170.572 111.162 171.84 111.161Z" fill="url(#paint16_linear_1131_39188)"/>
<path d="M171.837 111.413C170.437 111.413 169.289 110.276 169.289 108.863C169.289 107.45 170.426 106.313 171.837 106.313C173.238 106.313 174.386 107.45 174.386 108.863C174.386 110.276 173.238 111.413 171.837 111.413ZM171.837 106.818C170.713 106.818 169.794 107.737 169.794 108.863C169.794 109.989 170.713 110.908 171.837 110.908C172.962 110.908 173.881 109.989 173.881 108.863C173.881 107.737 172.962 106.818 171.837 106.818Z" fill="white"/>
<path d="M194.405 20.2404C194.405 21.504 195.427 22.5378 196.701 22.5378C197.964 22.5378 198.997 21.5155 198.997 20.2404C198.997 18.9768 197.975 17.943 196.701 17.943C195.427 17.943 194.405 18.9653 194.405 20.2404Z" fill="url(#paint17_linear_1131_39188)"/>
<path d="M196.69 22.779C195.289 22.779 194.141 21.6417 194.141 20.2288C194.141 18.8274 195.278 17.6787 196.69 17.6787C198.102 17.6787 199.238 18.8159 199.238 20.2288C199.238 21.6417 198.09 22.779 196.69 22.779ZM196.69 18.1956C195.565 18.1956 194.646 19.1146 194.646 20.2403C194.646 21.3661 195.565 22.285 196.69 22.285C197.815 22.285 198.733 21.3661 198.733 20.2403C198.733 19.1146 197.815 18.1956 196.69 18.1956Z" fill="white"/>
<path d="M170.451 17.7248C171.719 17.7234 172.746 16.6938 172.744 15.425C172.743 14.1561 171.714 13.1286 170.446 13.1299C169.178 13.1313 168.151 14.1609 168.153 15.4297C168.154 16.6986 169.183 17.7261 170.451 17.7248Z" fill="url(#paint18_linear_1131_39188)"/>
<path d="M170.448 17.966C169.048 17.966 167.9 16.8288 167.9 15.4159C167.9 14.0144 169.036 12.8657 170.448 12.8657C171.849 12.8657 172.997 14.0029 172.997 15.4159C172.997 16.8288 171.86 17.966 170.448 17.966ZM170.448 13.3826C169.323 13.3826 168.405 14.3016 168.405 15.4273C168.405 16.5531 169.323 17.472 170.448 17.472C171.573 17.472 172.492 16.5531 172.492 15.4273C172.492 14.3016 171.573 13.3826 170.448 13.3826Z" fill="white"/>
<path d="M134.462 86.3824C134.393 86.3824 134.335 86.3594 134.278 86.3135C134.175 86.2101 134.175 86.0493 134.278 85.9574L146.032 74.2061C146.078 74.1602 146.147 74.1372 146.216 74.1372H240.195C240.333 74.1372 240.448 74.2521 240.448 74.3899C240.448 74.5278 240.333 74.6426 240.195 74.6426H146.319L134.645 86.325C134.599 86.3594 134.53 86.3824 134.462 86.3824Z" fill="white"/>
<path d="M138.87 102.751H125.428C125.29 102.751 125.175 102.636 125.175 102.498C125.175 102.361 125.29 102.246 125.428 102.246H138.766L158.533 82.488C158.579 82.442 158.648 82.4191 158.717 82.4191H226.386C226.524 82.4191 226.638 82.5339 226.638 82.6718C226.638 82.8096 226.524 82.9245 226.386 82.9245H158.82L139.053 102.682C139.007 102.728 138.938 102.751 138.87 102.751Z" fill="white"/>
<path d="M265.426 49.7732H132.2C132.12 49.7732 132.039 49.7387 131.994 49.6698L119.55 31.9912C119.47 31.8764 119.493 31.7155 119.608 31.6351C119.722 31.5547 119.883 31.5777 119.963 31.6926L132.338 49.2563H265.334L282.404 32.1865C282.507 32.0831 282.668 32.0831 282.759 32.1865C282.863 32.2899 282.863 32.4507 282.759 32.5426L265.61 49.6928C265.564 49.7387 265.495 49.7732 265.426 49.7732Z" fill="white"/>
<path d="M117.254 79.0079H104.306C104.168 79.0079 104.054 78.893 104.054 78.7552C104.054 78.6174 104.168 78.5025 104.306 78.5025H117.163L140.293 57.596C140.339 57.5501 140.396 57.5271 140.465 57.5271H166.213L218.833 57.9981H267.091L277.112 47.9699C277.215 47.8665 277.376 47.8665 277.468 47.9699C277.571 48.0733 277.571 48.2341 277.468 48.326L267.378 58.4231C267.332 58.469 267.263 58.492 267.194 58.492H218.833L166.213 58.0211H140.568L117.438 78.939C117.381 78.9849 117.312 79.0079 117.254 79.0079Z" fill="white"/>
<path d="M285.136 98.1339C285.067 98.1339 285.01 98.1109 284.952 98.065L253.236 66.3492H158.705C158.568 66.3492 158.453 66.2343 158.453 66.0965C158.453 65.9586 158.568 65.8438 158.705 65.8438H253.339C253.408 65.8438 253.465 65.8667 253.522 65.9127L285.308 97.7089C285.411 97.8122 285.411 97.9731 285.308 98.065C285.262 98.1109 285.193 98.1339 285.136 98.1339Z" fill="white"/>
<path d="M232.631 41.4796H158.717C158.579 41.4796 158.464 41.3647 158.464 41.2269C158.464 41.0891 158.579 40.9742 158.717 40.9742H232.516L240.884 32.1866C240.976 32.0832 241.136 32.0832 241.24 32.1751C241.343 32.267 241.343 32.4278 241.251 32.5312L232.803 41.3992C232.757 41.4566 232.699 41.4796 232.631 41.4796Z" fill="white"/>
<path d="M241.437 34.1396C242.705 34.1383 243.732 33.1086 243.731 31.8398C243.729 30.571 242.7 29.5435 241.433 29.5448C240.165 29.5462 239.138 30.5758 239.139 31.8447C239.14 33.1135 240.169 34.141 241.437 34.1396Z" fill="url(#paint19_linear_1131_39188)"/>
<path d="M241.435 34.3924C240.034 34.3924 238.887 33.2552 238.887 31.8422C238.887 30.4408 240.023 29.2921 241.435 29.2921C242.847 29.2921 243.983 30.4293 243.983 31.8422C243.972 33.2437 242.835 34.3924 241.435 34.3924ZM241.435 29.809C240.31 29.809 239.392 30.728 239.392 31.8537C239.392 32.9795 240.31 33.8984 241.435 33.8984C242.56 33.8984 243.478 32.9795 243.478 31.8537C243.467 30.7165 242.56 29.809 241.435 29.809Z" fill="white"/>
<path d="M282.842 34.6566C284.11 34.6553 285.137 33.6257 285.136 32.3568C285.134 31.088 284.105 30.0605 282.837 30.0618C281.569 30.0631 280.543 31.0928 280.544 32.3616C280.545 33.6304 281.574 34.658 282.842 34.6566Z" fill="url(#paint20_linear_1131_39188)"/>
<path d="M282.84 34.9091C281.439 34.9091 280.292 33.7719 280.292 32.359C280.292 30.9461 281.428 29.8088 282.84 29.8088C284.252 29.8088 285.388 30.9461 285.388 32.359C285.388 33.7719 284.24 34.9091 282.84 34.9091ZM282.84 30.3258C281.715 30.3258 280.797 31.2447 280.797 32.3705C280.797 33.4962 281.715 34.4152 282.84 34.4152C283.965 34.4152 284.883 33.4962 284.883 32.3705C284.883 31.2447 283.965 30.3258 282.84 30.3258Z" fill="white"/>
<path d="M277.619 50.4512C278.887 50.4498 279.914 49.4202 279.913 48.1513C279.911 46.8825 278.882 45.855 277.615 45.8563C276.347 45.8577 275.32 46.8874 275.321 48.1562C275.322 49.425 276.351 50.4525 277.619 50.4512Z" fill="url(#paint21_linear_1131_39188)"/>
<path d="M277.617 50.7039C276.217 50.7039 275.069 49.5667 275.069 48.1538C275.069 46.7523 276.205 45.6036 277.617 45.6036C279.017 45.6036 280.165 46.7409 280.165 48.1538C280.165 49.5667 279.017 50.7039 277.617 50.7039ZM277.617 46.1206C276.492 46.1206 275.574 47.0395 275.574 48.1653C275.574 49.291 276.492 50.21 277.617 50.21C278.742 50.21 279.66 49.291 279.66 48.1653C279.66 47.0395 278.742 46.1206 277.617 46.1206Z" fill="white"/>
<path d="M287.42 97.8814C287.42 99.145 286.398 100.179 285.124 100.179C283.861 100.179 282.828 99.1565 282.828 97.8814C282.828 96.6178 283.85 95.584 285.124 95.584C286.398 95.5955 287.42 96.6178 287.42 97.8814Z" fill="url(#paint22_linear_1131_39188)"/>
<path d="M285.136 100.431C283.735 100.431 282.587 99.2942 282.587 97.8813C282.587 96.4684 283.724 95.3312 285.136 95.3312C286.536 95.3312 287.684 96.4684 287.684 97.8813C287.684 99.2942 286.536 100.431 285.136 100.431ZM285.136 95.8481C284.011 95.8481 283.092 96.7671 283.092 97.8928C283.092 99.0185 284.011 99.9375 285.136 99.9375C286.261 99.9375 287.179 99.0185 287.179 97.8928C287.179 96.7556 286.261 95.8481 285.136 95.8481Z" fill="white"/>
<path d="M125.43 104.797C126.698 104.796 127.725 103.766 127.723 102.497C127.722 101.228 126.693 100.201 125.425 100.202C124.157 100.204 123.131 101.233 123.132 102.502C123.133 103.771 124.162 104.798 125.43 104.797Z" fill="url(#paint23_linear_1131_39188)"/>
<path d="M125.428 105.049C124.027 105.049 122.879 103.912 122.879 102.499C122.879 101.086 124.016 99.9491 125.428 99.9491C126.84 99.9491 127.976 101.086 127.976 102.499C127.976 103.912 126.828 105.049 125.428 105.049ZM125.428 100.455C124.303 100.455 123.384 101.373 123.384 102.499C123.384 103.625 124.303 104.544 125.428 104.544C126.553 104.544 127.471 103.625 127.471 102.499C127.471 101.373 126.553 100.455 125.428 100.455Z" fill="white"/>
<path d="M136.534 85.9056C136.535 84.6368 135.508 83.6071 134.24 83.6058C132.972 83.6045 131.943 84.632 131.942 85.9008C131.941 87.1697 132.968 88.1993 134.235 88.2006C135.503 88.202 136.532 87.1744 136.534 85.9056Z" fill="url(#paint24_linear_1131_39188)"/>
<path d="M134.232 88.4388C132.831 88.4388 131.684 87.3015 131.684 85.8886C131.684 84.4757 132.82 83.3385 134.232 83.3385C135.632 83.3385 136.78 84.4757 136.78 85.8886C136.78 87.3015 135.644 88.4388 134.232 88.4388ZM134.232 83.8554C133.107 83.8554 132.189 84.7744 132.189 85.9001C132.189 87.0258 133.107 87.9448 134.232 87.9448C135.357 87.9448 136.275 87.0258 136.275 85.9001C136.275 84.7744 135.357 83.8554 134.232 83.8554Z" fill="white"/>
<path d="M106.593 78.7579C106.594 77.4891 105.567 76.4594 104.299 76.4581C103.031 76.4568 102.002 77.4843 102.001 78.7531C102 80.022 103.027 81.0516 104.294 81.0529C105.562 81.0542 106.591 80.0267 106.593 78.7579Z" fill="url(#paint25_linear_1131_39188)"/>
<path d="M104.306 81.3056C102.906 81.3056 101.758 80.1684 101.758 78.7554C101.758 77.354 102.894 76.2053 104.306 76.2053C105.706 76.2053 106.854 77.3425 106.854 78.7554C106.843 80.1684 105.706 81.3056 104.306 81.3056ZM104.306 76.7222C103.181 76.7222 102.263 77.6412 102.263 78.7669C102.263 79.8927 103.181 80.8116 104.306 80.8116C105.431 80.8116 106.349 79.8927 106.349 78.7669C106.338 77.6297 105.431 76.7222 104.306 76.7222Z" fill="white"/>
<path d="M121.869 31.842C121.869 33.1055 120.847 34.1394 119.573 34.1394C118.311 34.1394 117.277 33.117 117.277 31.842C117.277 30.5784 118.299 29.5446 119.573 29.5446C120.836 29.556 121.869 30.5784 121.869 31.842Z" fill="url(#paint26_linear_1131_39188)"/>
<path d="M119.573 34.3924C118.173 34.3924 117.025 33.2552 117.025 31.8422C117.025 30.4408 118.161 29.2921 119.573 29.2921C120.974 29.2921 122.121 30.4293 122.121 31.8422C122.11 33.2437 120.974 34.3924 119.573 34.3924ZM119.573 29.809C118.448 29.809 117.53 30.728 117.53 31.8537C117.53 32.9795 118.448 33.8984 119.573 33.8984C120.698 33.8984 121.616 32.9795 121.616 31.8537C121.616 30.7165 120.698 29.809 119.573 29.809Z" fill="white"/>
<path d="M213.38 88.2323H171.723C168.715 88.2323 166.282 85.797 166.282 82.7874V41.1238C166.282 38.1142 168.715 35.679 171.723 35.679H213.38C216.388 35.679 218.821 38.1142 218.821 41.1238V82.7759C218.821 85.7855 216.388 88.2323 213.38 88.2323Z" fill="white"/>
<path d="M212.932 41.5603H172.17V82.3279H212.932V41.5603Z" fill="url(#paint27_linear_1131_39188)"/>
<path d="M203.921 59.8251H181.181C180.332 59.8251 179.632 60.5143 179.632 61.3758V68.2106C179.632 74.0461 184.361 78.7672 190.181 78.7672H194.91C200.742 78.7672 205.46 74.0346 205.46 68.2106V61.3758C205.471 60.5143 204.771 59.8251 203.921 59.8251Z" fill="white"/>
<path d="M201.764 58.0101C201.236 58.0101 200.811 57.585 200.811 57.0566V53.8517C200.811 50.0955 197.757 47.0399 194.004 47.0399H191.088C187.335 47.0399 184.281 50.0955 184.281 53.8517V57.0566C184.281 57.585 183.856 58.0101 183.328 58.0101C182.8 58.0101 182.376 57.585 182.376 57.0566V53.8517C182.376 49.0501 186.278 45.1331 191.088 45.1331H194.004C198.802 45.1331 202.716 49.0387 202.716 53.8517V57.0566C202.716 57.585 202.292 58.0101 201.764 58.0101Z" fill="white"/>
<path d="M194.876 66.1773C194.876 64.8908 193.831 63.8455 192.546 63.8455C191.26 63.8455 190.215 64.8908 190.215 66.1773C190.215 67.0618 190.709 67.8315 191.432 68.222V72.7135C191.432 73.3338 191.937 73.8277 192.546 73.8277C193.166 73.8277 193.659 73.3223 193.659 72.7135V68.222C194.394 67.8315 194.876 67.0618 194.876 66.1773Z" fill="url(#paint28_linear_1131_39188)"/>
<path d="M11.6817 98.3869C11.544 98.3869 11.4292 98.2721 11.4292 98.1342V33.4735C11.4292 33.3357 11.544 33.2208 11.6817 33.2208H38.4853C38.6231 33.2208 38.7378 33.3357 38.7378 33.4735C38.7378 33.6114 38.6231 33.7263 38.4853 33.7263H11.9342V98.1342C11.9342 98.2721 11.8195 98.3869 11.6817 98.3869Z" fill="black"/>
<path d="M2.56738 208.237C2.5559 208.237 2.53295 208.237 2.52147 208.237C2.38372 208.214 2.29189 208.077 2.32632 207.939L20.9224 115.583C20.9454 115.445 21.0831 115.353 21.2208 115.388C21.3586 115.41 21.4504 115.548 21.416 115.686L2.81992 208.042C2.79696 208.146 2.69365 208.237 2.56738 208.237Z" fill="black"/>
<path d="M4.40402 208.746C4.82133 207.738 4.34291 206.582 3.33547 206.165C2.32802 205.747 1.17303 206.226 0.755724 207.234C0.338417 208.242 0.816815 209.398 1.82426 209.815C2.83171 210.233 3.98671 209.754 4.40402 208.746Z" fill="black"/>
<path d="M49.7118 208.238C49.597 208.238 49.4937 208.157 49.4592 208.031L30.8631 115.675C30.8402 115.537 30.9205 115.399 31.0583 115.376C31.196 115.353 31.3223 115.434 31.3567 115.571L49.9528 207.927C49.9758 208.065 49.8954 208.203 49.7577 208.226C49.7462 208.226 49.7232 208.238 49.7118 208.238Z" fill="black"/>
<path d="M51.6293 208.445C51.8799 207.383 51.2228 206.319 50.1616 206.068C49.1003 205.818 48.0369 206.475 47.7864 207.537C47.5358 208.599 48.1929 209.663 49.2541 209.914C50.3153 210.165 51.3787 209.507 51.6293 208.445Z" fill="black"/>
<path d="M29.0494 178.762H9.39725C9.2595 178.762 9.14471 178.647 9.14471 178.509C9.14471 178.371 9.2595 178.256 9.39725 178.256H29.0494C29.1871 178.256 29.3019 178.371 29.3019 178.509C29.3019 178.647 29.1871 178.762 29.0494 178.762Z" fill="black"/>
<path d="M29.2789 183.046H11.0617C10.9239 183.046 10.8091 182.931 10.8091 182.793C10.8091 182.656 10.9239 182.541 11.0617 182.541H29.2789C29.4167 182.541 29.5315 182.656 29.5315 182.793C29.5315 182.931 29.4167 183.046 29.2789 183.046Z" fill="black"/>
<path d="M21.3241 127.897L69.5821 207.572C70.4774 209.053 72.0845 209.961 73.8179 209.961H100.851C101.712 209.961 102.056 208.835 101.333 208.353L90.715 201.231C90.715 201.231 56.6222 144.691 44.9365 121.223L21.3241 127.897Z" fill="#1B1425"/>
<path d="M100.851 210.214H73.8179C72.0042 210.214 70.3053 209.249 69.364 207.698L21.1061 128.024C21.0602 127.955 21.0602 127.874 21.0831 127.805C21.1176 127.737 21.175 127.679 21.2438 127.656L44.8677 120.994C44.9825 120.959 45.1088 121.017 45.1662 121.12C56.5764 144.014 89.7508 199.129 90.9102 201.059L101.482 208.146C101.907 208.433 102.079 208.927 101.93 209.41C101.792 209.904 101.368 210.214 100.851 210.214ZM21.703 128.047L69.8003 207.445C70.6497 208.847 72.1879 209.708 73.8294 209.708H100.863C101.207 209.708 101.391 209.479 101.459 209.272C101.528 209.053 101.494 208.766 101.207 208.571L90.5888 201.449C90.5544 201.426 90.5314 201.403 90.5085 201.369C90.1641 200.806 56.4501 144.852 44.8103 121.534L21.703 128.047Z" fill="white"/>
<path d="M70.0755 205.504C69.9492 205.504 69.8459 205.412 69.8229 205.297C69.8 205.159 69.8918 205.033 70.0296 205.01L89.521 201.771C89.6588 201.748 89.785 201.84 89.808 201.977C89.8309 202.115 89.7391 202.242 89.6014 202.265L70.1214 205.504C70.1099 205.504 70.087 205.504 70.0755 205.504Z" fill="white"/>
<path d="M69.7314 143.129C59.4921 132.469 44.6497 117.444 42.021 114.791C38.4165 116.789 19.8893 125.405 19.8893 125.405L51.4682 154.938L32.5048 179.738C31.2192 181.427 31.3684 183.793 32.8607 185.298L47.4276 199.956C48.3 200.84 49.8038 200.185 49.7464 198.945L49.3216 188.537C53.1097 185.114 63.636 171.433 70.8563 161.83C75.1266 156.167 74.6444 148.241 69.7314 143.129Z" fill="#1B1425"/>
<path d="M48.3802 200.61C47.967 200.61 47.5652 200.449 47.2553 200.128L32.6999 185.47C31.1272 183.885 30.9665 181.358 32.321 179.577L51.1467 154.949L19.7285 125.577C19.6711 125.519 19.6367 125.439 19.6482 125.347C19.6596 125.267 19.717 125.198 19.7859 125.163C19.9696 125.071 38.3361 116.525 41.8946 114.549C41.9979 114.492 42.1127 114.515 42.193 114.595C45.0398 117.478 59.7675 132.366 69.9035 142.934C74.9313 148.172 75.4134 156.178 71.0399 161.979C63.3145 172.237 53.3507 185.16 49.5626 188.641L49.9873 198.922C50.0103 199.599 49.6429 200.197 49.0231 200.461C48.8164 200.564 48.5983 200.61 48.3802 200.61ZM20.3369 125.473L51.6403 154.754C51.7321 154.846 51.7436 154.984 51.6632 155.087L32.6999 179.888C31.4946 181.461 31.6438 183.713 33.0442 185.114L47.5997 199.772C47.99 200.162 48.495 200.151 48.8279 200.001C49.1608 199.852 49.5167 199.496 49.4937 198.945L49.069 188.537C49.069 188.457 49.0919 188.388 49.1493 188.342C52.8341 185.011 62.8783 171.996 70.6496 161.669C74.8624 156.075 74.4033 148.333 69.5476 143.278C59.5494 132.871 45.1202 118.259 41.9749 115.078C38.3361 117.076 22.8393 124.313 20.3369 125.473Z" fill="white"/>
<path d="M47.7258 188.503C47.7029 188.503 47.6684 188.503 47.6455 188.492C42.2848 186.596 37.785 182.565 35.3055 177.453C35.2481 177.326 35.294 177.177 35.4203 177.12C35.5466 177.062 35.6958 177.108 35.7532 177.235C38.1753 182.231 42.5717 186.171 47.8062 188.021C47.9325 188.067 48.0013 188.216 47.9554 188.343C47.921 188.446 47.8291 188.503 47.7258 188.503Z" fill="white"/>
<path d="M47.5652 93.4473C47.7833 97.686 46.9453 100.259 45.6941 105.107C44.7184 108.92 43.6852 112.768 43.536 116.72C38.7263 118.524 33.928 120.338 29.1183 122.142C29.0609 114.825 29.8874 107.45 32.0914 100.535C33.8362 95.0669 35.34 94.148 37.7506 88.5997C37.7506 88.5997 38.2671 87.428 40.827 84.0164C41.3091 83.3731 41.6879 82.9136 42.2389 82.8562C43.6049 82.7068 44.8676 85.0502 45.4301 86.0955C47.3356 89.5761 47.5422 92.8844 47.5652 93.4473Z" fill="#FFA89C"/>
<path d="M29.1298 122.394C29.0839 122.394 29.0265 122.383 28.992 122.348C28.9232 122.302 28.8887 122.222 28.8772 122.142C28.8199 114.158 29.8185 106.864 31.8733 100.454C32.8949 97.2721 33.8247 95.6179 34.9038 93.7111C35.6614 92.3556 36.5338 90.8278 37.5439 88.4959H37.5554C37.7161 88.1054 38.5541 86.6465 40.6548 83.8552C41.1139 83.2464 41.5501 82.6605 42.2503 82.5916C43.7771 82.4308 45.0742 84.8201 45.6941 85.9688C47.4963 89.323 47.7947 92.5279 47.8406 93.4354C48.0358 97.2146 47.3815 99.7418 46.3828 103.567C46.2451 104.072 46.1073 104.612 45.9696 105.175L45.8318 105.727C44.9135 109.299 43.9607 112.998 43.823 116.731C43.823 116.835 43.7541 116.926 43.6623 116.961L29.2446 122.383C29.1872 122.394 29.1642 122.394 29.1298 122.394ZM38.0031 88.7027C36.9815 91.0576 36.1091 92.5968 35.34 93.9638C34.2724 95.8477 33.3541 97.4788 32.3554 100.615C30.358 106.875 29.3594 113.997 29.3823 121.785L43.3064 116.547C43.4671 112.814 44.4084 109.15 45.3267 105.6L45.4645 105.049C45.6137 104.486 45.7515 103.946 45.8777 103.441C46.8994 99.535 47.5078 97.1687 47.3241 93.4698C47.2782 92.5968 46.9912 89.4723 45.2349 86.2215C44.7069 85.2566 43.5016 82.9822 42.2963 83.1085C41.8486 83.1545 41.5272 83.545 41.0565 84.1768C38.5426 87.4966 38.0031 88.6912 38.0031 88.7027Z" fill="white"/>
<path d="M37.9687 79.6629C37.9687 79.6629 43.0424 81.7995 44.1903 85.9578C45.3382 90.1161 29.1298 151.342 29.1298 151.342L10.8322 136.122C7.3311 133.216 6.18319 128.334 8.01984 124.164L25.5484 84.3381C25.5484 84.3381 33.1934 77.9513 37.9687 79.6629Z" fill="#73069F" fill-opacity="0.9939"/>
<path d="M73.462 100.707C66.586 100.96 59.2968 101.109 58.3211 100.466C56.4615 99.2253 50.4579 94.9751 47.7259 88.9559C44.9939 82.9252 37.9572 79.6743 37.9572 79.6743L29.8301 95.3082C29.8301 95.3082 47.9096 112.527 58.3096 112.309C63.3145 112.206 68.7211 111.735 73.1061 111.252C72.3829 107.76 72.4977 104.119 73.462 100.707Z" fill="#73069F" fill-opacity="0.9939"/>
<path d="M93.8374 106.072C93.6422 105.349 93.1831 104.728 92.7354 104.119C91.4497 102.408 90.0263 100.593 87.983 99.9496C86.6515 99.5246 85.2166 99.6624 83.8161 99.8002C82.1632 99.9611 74.9084 100.788 73.462 100.937C72.2108 101.075 71.591 107.657 72.2797 110.07C72.3945 110.483 72.5437 110.897 72.8651 111.184C73.4391 111.689 74.323 111.552 75.0576 111.333C77.7552 110.541 80.2576 109.116 82.3239 107.209C82.829 106.738 83.3685 106.222 84.0572 106.187C84.9411 106.153 85.6069 106.934 86.1694 107.611C86.663 108.209 87.2025 108.795 87.9256 109.093C88.6374 109.392 89.5672 109.312 90.0608 108.714C90.3248 108.404 90.3707 107.956 90.2674 107.566C90.5658 107.841 90.8758 108.082 91.2431 108.255C91.9089 108.576 92.7583 108.611 93.3208 108.151C93.8948 107.669 94.0325 106.807 93.8374 106.072Z" fill="#FFA89C"/>
<path d="M75.0574 111.322C77.755 110.529 80.2574 109.105 82.3237 107.198C82.8288 106.727 83.3683 106.21 84.057 106.176C84.9409 106.141 85.6067 106.922 86.1692 107.6C86.6628 108.198 87.2023 108.783 87.9255 109.082C88.6372 109.381 89.567 109.3 90.0606 108.703C90.3246 108.393 90.3705 107.945 90.2672 107.554C90.5656 107.83 90.8756 108.071 91.2429 108.243C91.9087 108.565 92.7581 108.6 93.3206 108.14C93.906 107.669 94.0438 106.796 93.8486 106.072C93.6535 105.349 93.1943 104.728 92.7467 104.12C91.461 102.408 90.0376 100.593 87.9943 99.9498C86.6628 99.5248 85.2279 99.6626 83.8274 99.8005C82.1744 99.9613 74.9197 100.788 73.4733 100.938L75.0574 111.322Z" fill="#FFA89C"/>
<path d="M75.0577 111.574C74.9429 111.574 74.8511 111.505 74.8167 111.39C74.7822 111.252 74.8511 111.115 74.9888 111.08C77.6405 110.299 80.12 108.886 82.1518 107.014L82.1977 106.968C82.7142 106.497 83.2882 105.957 84.0458 105.922C85.0789 105.877 85.8251 106.773 86.3646 107.439C86.8008 107.967 87.3288 108.565 88.0176 108.852C88.603 109.093 89.4295 109.07 89.8542 108.553C90.0494 108.323 90.1068 107.967 90.0034 107.634C89.969 107.531 90.0149 107.404 90.1068 107.347C90.1986 107.289 90.3249 107.301 90.4167 107.381C90.7381 107.68 91.0251 107.887 91.3235 108.025C91.8631 108.277 92.6322 108.358 93.1372 107.956C93.6653 107.531 93.7341 106.75 93.5849 106.152C93.4012 105.463 92.9536 104.866 92.5174 104.291C91.1054 102.407 89.7853 100.811 87.8913 100.213C86.5827 99.7999 85.1248 99.9492 83.8277 100.076C82.8061 100.179 79.6034 100.535 77.0206 100.822C75.4136 101.006 74.0246 101.155 73.4736 101.213C73.3359 101.224 73.2096 101.132 73.1981 100.983C73.1866 100.845 73.2785 100.719 73.4277 100.707C73.9787 100.65 75.3677 100.489 76.9747 100.317C79.546 100.03 82.7602 99.6735 83.7818 99.5701C85.1248 99.4438 86.6401 99.2945 88.0405 99.731C90.0723 100.374 91.4498 102.04 92.9191 103.993C93.3553 104.578 93.8604 105.245 94.067 106.026C94.2622 106.773 94.1589 107.795 93.4472 108.358C92.8503 108.84 91.9319 108.898 91.094 108.496C90.8988 108.404 90.7151 108.289 90.5315 108.151C90.497 108.427 90.3937 108.679 90.2215 108.886C89.6017 109.633 88.5341 109.633 87.7995 109.334C87.0074 109.001 86.4335 108.358 85.9513 107.783C85.3315 107.037 84.7575 106.428 84.0458 106.451C83.4719 106.474 82.9897 106.922 82.5191 107.358L82.4732 107.404C80.384 109.334 77.8356 110.782 75.1036 111.586C75.1036 111.574 75.0807 111.574 75.0577 111.574Z" fill="white"/>
<path d="M89.946 107.313C89.8541 107.313 89.7738 107.267 89.7279 107.186C88.844 105.635 87.8338 103.878 86.2153 102.89C85.3658 102.373 84.5049 102.258 83.8965 102.568C83.7702 102.637 83.621 102.58 83.5521 102.454C83.4833 102.327 83.5407 102.178 83.6669 102.109C84.7689 101.546 85.9972 102.155 86.4793 102.454C88.2126 103.499 89.2917 105.406 90.1641 106.922C90.2329 107.048 90.187 107.198 90.0722 107.267C90.0263 107.301 89.9804 107.313 89.946 107.313Z" fill="white"/>
<path d="M22.541 82.5234C21.439 83.6491 20.4632 84.9702 20.1304 86.5209C19.8089 88.0602 20.2681 89.8522 21.5652 90.7481C22.5065 91.4029 23.7348 91.5063 24.8597 91.288C25.9847 91.0698 27.0178 90.5644 28.0509 90.0589C30.7714 88.7494 33.5264 87.4628 36.4421 86.7047C39.3692 85.9466 42.4801 85.7283 45.3958 86.5439C45.8664 86.6702 46.36 86.8311 46.8192 86.6817C47.3702 86.4979 47.6916 85.8891 47.7145 85.3148C47.7375 84.7289 47.5079 84.1775 47.2324 83.6606C43.7198 76.8833 34.1578 76.0447 27.8558 78.8705C25.8814 79.7321 24.0562 80.9727 22.541 82.5234Z" fill="#8860FF"/>
<path d="M22.5178 91.4487C22.4948 91.4487 22.4719 91.4487 22.4489 91.4372C22.0701 91.3223 21.7257 91.1615 21.4158 90.9433C20.1187 90.0473 19.4988 88.2438 19.8776 86.4633C20.1646 85.0964 20.9796 83.7409 22.3456 82.3395C23.8723 80.7887 25.686 79.5366 27.7408 78.6177C34.4675 75.608 43.9951 76.8716 47.4503 83.5226C47.7028 84.0051 47.9783 84.6369 47.9554 85.3031C47.9324 86.0383 47.4962 86.7045 46.8878 86.8998C46.773 86.9343 46.6468 86.9687 46.509 86.9687C46.3713 86.9802 46.245 86.8768 46.245 86.739C46.2335 86.6012 46.3368 86.4748 46.4746 86.4748C46.5664 86.4633 46.6468 86.4518 46.7271 86.4289C47.2092 86.268 47.4388 85.7281 47.4503 85.2916C47.4733 84.7403 47.2322 84.2119 47.0026 83.7639C43.6852 77.3541 34.4675 76.1709 27.9474 79.0771C25.95 79.9731 24.1823 81.1908 22.7015 82.6956C21.3928 84.0281 20.6352 85.2916 20.3597 86.5667C20.0268 88.1289 20.5778 89.7601 21.6913 90.5297C21.9553 90.7135 22.2538 90.8514 22.5752 90.9548C22.7129 91.0007 22.7818 91.1386 22.7474 91.2649C22.7359 91.3798 22.6326 91.4487 22.5178 91.4487Z" fill="white"/>
<path d="M43.7196 69.7725L37.9686 79.6628C40.5514 80.823 42.6291 82.121 43.777 83.6718L48.6211 74.7808C48.5063 74.149 46.3368 66.6939 43.7196 69.7725Z" fill="#FFA89C"/>
<path d="M43.7771 83.9244C43.6967 83.9244 43.6279 83.8899 43.5705 83.821C42.5603 82.4541 40.6892 81.1675 37.8539 79.8924C37.785 79.858 37.7391 79.812 37.7161 79.7431C37.6932 79.6742 37.7047 79.6053 37.7391 79.5363L43.4901 69.646C43.5016 69.6345 43.5016 69.623 43.5131 69.6115C44.0985 68.9223 44.7298 68.6581 45.3727 68.8304C47.37 69.3703 48.759 74.2063 48.8508 74.7347C48.8623 74.7922 48.8508 74.8496 48.8279 74.8956L43.9837 83.7866C43.9378 83.867 43.8689 83.9129 43.7771 83.9129C43.7886 83.9244 43.7886 83.9244 43.7771 83.9244ZM38.3245 79.5478C40.8958 80.731 42.6751 81.9371 43.7426 83.2122L48.3572 74.7462C48.1506 73.8158 46.8305 69.7494 45.2579 69.3243C44.8102 69.198 44.374 69.4048 43.9263 69.9217L38.3245 79.5478Z" fill="black"/>
<path d="M44.3741 84.6135C44.2937 84.6135 44.2248 84.5791 44.1789 84.5216C41.0222 80.4782 36.1091 79.2835 36.0632 79.272C35.9255 79.2376 35.8451 79.0997 35.8796 78.9734C35.914 78.8355 36.0518 78.7551 36.178 78.7896C36.3846 78.8355 41.3092 80.0417 44.5807 84.223C44.661 84.3378 44.6496 84.4872 44.5348 84.5791C44.4889 84.5905 44.4315 84.6135 44.3741 84.6135Z" fill="black"/>
<path d="M55.7841 61.9381C54.6707 59.2157 51.4565 57.5501 48.5983 58.2048C44.3625 59.1698 41.9978 64.2126 37.762 65.1775C37.9916 65.7863 38.5541 66.2458 39.1969 66.3492C38.0834 66.9235 37.5439 68.3479 37.8539 69.5655C38.1523 70.7832 39.1969 71.7481 40.3907 72.1272C41.5846 72.5062 42.9046 72.3569 44.064 71.8859L53.2817 69.646C55.7727 68.0952 56.8976 64.6606 55.7841 61.9381Z" fill="black"/>
<path d="M43.9952 70.5995C43.9837 70.5995 43.9837 70.5995 43.9722 70.5995C43.8345 70.588 43.7312 70.4731 43.7427 70.3238C43.7541 70.094 43.6738 69.8528 43.5016 69.6575C43.3294 69.4623 43.0998 69.3474 42.8703 69.3244C42.7325 69.3129 42.6292 69.198 42.6407 69.0602C42.6522 68.9224 42.7784 68.819 42.9047 68.8305C43.272 68.8534 43.6164 69.0372 43.8804 69.3359C44.133 69.6346 44.2707 70.0136 44.2363 70.3697C44.2363 70.4961 44.1215 70.5995 43.9952 70.5995Z" fill="black"/>
<path d="M45.5105 68.98C45.4416 68.509 45.3957 68.0381 45.1547 67.6016C44.7988 66.9698 44.133 66.5333 43.3984 66.5218C42.526 66.5103 41.688 67.0732 41.3207 67.8543C40.9533 68.6469 41.0337 69.6118 41.4699 70.3585C41.9176 71.1051 42.6981 71.6335 43.5361 71.8288C43.5361 71.8862 43.5476 71.9322 43.5591 71.9896C43.9494 71.6795 44.2937 71.3004 44.5692 70.8754C44.9595 70.2895 45.235 69.6348 45.5105 68.98Z" fill="#FFA89C"/>
<path d="M43.5592 72.2421C43.5248 72.2421 43.4903 72.2306 43.4559 72.2191C43.3755 72.1847 43.3181 72.1157 43.3067 72.0353C42.4342 71.7826 41.6881 71.2312 41.2519 70.4961C40.7468 69.646 40.6894 68.6007 41.0912 67.7507C41.5159 66.8547 42.4572 66.2574 43.3985 66.2688C44.202 66.2803 44.9596 66.7513 45.3729 67.475C45.6139 67.8885 45.6713 68.3365 45.7287 68.7615L45.7517 68.9338C45.7632 68.9798 45.7517 69.0257 45.7402 69.0717C45.4762 69.715 45.1892 70.3927 44.776 71.013C44.466 71.484 44.1102 71.8745 43.7199 72.1847C43.6625 72.2191 43.6166 72.2421 43.5592 72.2421ZM43.3641 66.7743C42.6294 66.7743 41.8833 67.2567 41.5504 67.9574C41.2175 68.6581 41.2749 69.5197 41.6881 70.2204C42.0784 70.8866 42.7901 71.3921 43.5936 71.5759C43.6051 71.5759 43.6166 71.5873 43.6281 71.5873C43.8921 71.3461 44.1331 71.0589 44.3513 70.7258C44.7186 70.163 44.9941 69.5312 45.2466 68.9338L45.2351 68.819C45.1777 68.4169 45.1203 68.0493 44.9367 67.7162C44.6153 67.1419 44.0184 66.7743 43.3985 66.7628C43.387 66.7743 43.3755 66.7743 43.3641 66.7743Z" fill="black"/>
<path d="M53.477 67.5215C53.3622 66.7863 48.3803 67.2114 48.6328 68.7621C48.9313 70.5886 47.1635 70.4852 47.1865 70.6C47.6456 72.4495 46.8191 75.0455 48.4721 75.976C49.4249 76.5044 52.4783 75.8726 53.5459 75.7118C53.6147 75.2638 53.6607 74.8043 53.7066 74.3563C53.8902 72.3231 53.7869 69.5317 53.477 67.5215Z" fill="#FFA89C"/>
<path d="M52.2144 67.6706C52.6276 67.6706 52.8802 67.7165 53.0064 67.751C53.2934 69.7268 53.3853 72.4033 53.2245 74.3101C53.1901 74.6662 53.1672 74.9878 53.1212 75.275C53.0524 75.2865 52.972 75.298 52.9031 75.3095C52.0307 75.4588 50.7221 75.6771 49.7234 75.6771C49.0921 75.6771 48.8281 75.5852 48.7362 75.5277C47.9557 75.0912 47.8868 74.1493 47.8753 72.6445C47.8753 72.0816 47.8638 71.5073 47.7835 70.9559C49.138 70.5424 49.2758 69.5085 49.138 68.6815C49.138 68.647 49.1265 68.5896 49.2069 68.4862C49.5857 68.0497 50.9517 67.6706 52.2144 67.6706ZM52.2144 67.1652C50.7221 67.1652 48.4607 67.6936 48.6329 68.7619C48.9314 70.5883 47.1636 70.4849 47.1866 70.5998C47.6457 72.4492 46.8192 75.0453 48.4722 75.9757C48.7477 76.1251 49.1839 76.1825 49.7005 76.1825C50.9976 76.1825 52.7769 75.8264 53.546 75.7115C53.6148 75.2635 53.6608 74.8041 53.7067 74.3561C53.8789 72.3228 53.7755 69.5315 53.4656 67.5213C53.4426 67.2915 52.9146 67.1652 52.2144 67.1652Z" fill="black"/>
<path d="M49.2184 74.6545C47.5539 73.724 47.6573 72.449 47.1981 70.5995C47.1751 70.4847 47.1522 70.3813 47.1292 70.2664C47.0718 70.3353 47.003 70.3813 46.9111 70.4272C46.4175 70.657 45.855 70.1975 45.6714 69.6921C45.591 69.4623 45.5451 69.2211 45.5107 68.9684C45.2467 69.6231 44.9597 70.2779 44.5694 70.8752C44.2939 71.2888 43.961 71.6793 43.5592 71.9895C43.7199 73.5058 44.0988 74.9991 44.6842 76.4005C45.1548 77.5262 45.7862 78.6175 46.7045 79.4216C47.6343 80.2142 48.897 80.6852 50.0908 80.444C51.3306 80.1912 52.6506 80.0993 53.2016 78.9621C53.5575 78.227 53.569 75.4586 53.6838 74.6545C52.3981 74.3558 50.1712 75.1944 49.2184 74.6545Z" fill="black"/>
<path d="M43.8231 70.3699C43.7083 70.3699 43.5935 70.2895 43.5706 70.1632C43.4787 69.6922 43.1918 69.2557 42.7785 69.003C42.6637 68.934 42.6178 68.7732 42.6981 68.6583C42.767 68.5435 42.9277 68.4975 43.0425 68.5779C43.5706 68.8996 43.9494 69.4624 44.0642 70.0713C44.0871 70.2091 43.9953 70.3355 43.8575 70.3699C43.8575 70.3584 43.8346 70.3699 43.8231 70.3699Z" fill="black"/>
<path d="M138.87 111.298H39.9433V114.595H138.87V111.298Z" fill="url(#paint29_linear_1131_39188)"/>
<path d="M138.87 114.848H39.9431C39.8053 114.848 39.6906 114.733 39.6906 114.595V111.298C39.6906 111.16 39.8053 111.045 39.9431 111.045H138.87C139.007 111.045 139.122 111.16 139.122 111.298V114.595C139.122 114.733 139.007 114.848 138.87 114.848ZM40.1956 114.342H138.617V111.551H40.1956V114.342Z" fill="black"/>
<path d="M27.8099 208.237C27.7984 208.237 27.7755 208.237 27.764 208.237C27.6262 208.214 27.5344 208.076 27.5688 207.939L31.7357 187.239C31.7587 187.101 31.8965 187.009 32.0342 187.044C32.1719 187.067 32.2638 187.204 32.2293 187.342L28.051 208.031C28.028 208.145 27.9247 208.237 27.8099 208.237Z" fill="black"/>
<path d="M34.6284 174.35C34.617 174.35 34.594 174.35 34.5825 174.35C34.4448 174.327 34.353 174.19 34.3874 174.052L46.3715 114.549C46.3945 114.411 46.5322 114.319 46.67 114.353C46.8077 114.376 46.8996 114.514 46.8651 114.652L34.881 174.155C34.8466 174.27 34.7432 174.35 34.6284 174.35Z" fill="black"/>
<path d="M25.8239 207.985C25.8239 209.076 26.7077 209.96 27.7982 209.96C28.8888 209.96 29.7726 209.076 29.7726 207.985C29.7726 206.893 28.8888 206.009 27.7982 206.009C26.7192 205.997 25.8239 206.882 25.8239 207.985Z" fill="black"/>
<path d="M147.605 208.237C147.491 208.237 147.387 208.157 147.353 208.03L128.562 114.687C128.539 114.549 128.619 114.411 128.757 114.388C128.895 114.365 129.021 114.445 129.055 114.583L147.846 207.927C147.869 208.065 147.789 208.203 147.651 208.226C147.64 208.226 147.617 208.237 147.605 208.237Z" fill="black"/>
<path d="M149.002 209.378C149.773 208.606 149.773 207.355 149.002 206.584C148.231 205.812 146.981 205.812 146.21 206.584C145.439 207.355 145.439 208.606 146.21 209.378C146.981 210.149 148.231 210.149 149.002 209.378Z" fill="black"/>
<path d="M98.7732 111.321H74.5638C74.5638 110.046 75.597 109.023 76.8597 109.023H101.069C101.069 110.299 100.047 111.321 98.7732 111.321Z" fill="black"/>
<path d="M98.3367 109.977L109.448 85.9001C110.596 86.4286 111.101 87.7955 110.573 88.9557L100.874 109.989H98.3367V109.977Z" fill="black"/>
<defs>
<linearGradient id="paint0_linear_1131_39188" x1="46.6881" y1="38.5849" x2="85.6112" y2="38.5849" gradientUnits="userSpaceOnUse">
<stop stop-color="#F57A00"/>
<stop offset="1" stop-color="#7103A4"/>
</linearGradient>
<linearGradient id="paint1_linear_1131_39188" x1="26.7952" y1="16.4895" x2="50.3357" y2="16.4895" gradientUnits="userSpaceOnUse">
<stop stop-color="#F57A00"/>
<stop offset="1" stop-color="#7103A4"/>
</linearGradient>
<linearGradient id="paint2_linear_1131_39188" x1="91.0477" y1="124.238" x2="292.723" y2="124.238" gradientUnits="userSpaceOnUse">
<stop stop-color="#F57A00"/>
<stop offset="1" stop-color="#7103A4"/>
</linearGradient>
<linearGradient id="paint3_linear_1131_39188" x1="155.067" y1="139.671" x2="228.693" y2="139.671" gradientUnits="userSpaceOnUse">
<stop stop-color="#F57A00"/>
<stop offset="1" stop-color="#7103A4"/>
</linearGradient>
<linearGradient id="paint4_linear_1131_39188" x1="91.0477" y1="60.6627" x2="292.723" y2="60.6627" gradientUnits="userSpaceOnUse">
<stop stop-color="#F57A00"/>
<stop offset="1" stop-color="#7103A4"/>
</linearGradient>
<linearGradient id="paint5_linear_1131_39188" x1="204.702" y1="174.856" x2="314.935" y2="174.856" gradientUnits="userSpaceOnUse">
<stop stop-color="#F57A00"/>
<stop offset="1" stop-color="#7103A4"/>
</linearGradient>
<linearGradient id="paint6_linear_1131_39188" x1="237.337" y1="160.532" x2="254.268" y2="160.532" gradientUnits="userSpaceOnUse">
<stop stop-color="#F57A00"/>
<stop offset="1" stop-color="#7103A4"/>
</linearGradient>
<linearGradient id="paint7_linear_1131_39188" x1="237.337" y1="168.205" x2="273.989" y2="168.205" gradientUnits="userSpaceOnUse">
<stop stop-color="#F57A00"/>
<stop offset="1" stop-color="#7103A4"/>
</linearGradient>
<linearGradient id="paint8_linear_1131_39188" x1="237.337" y1="175.879" x2="254.268" y2="175.879" gradientUnits="userSpaceOnUse">
<stop stop-color="#F57A00"/>
<stop offset="1" stop-color="#7103A4"/>
</linearGradient>
<linearGradient id="paint9_linear_1131_39188" x1="237.337" y1="188.158" x2="248.644" y2="188.158" gradientUnits="userSpaceOnUse">
<stop stop-color="#F57A00"/>
<stop offset="1" stop-color="#7103A4"/>
</linearGradient>
<linearGradient id="paint10_linear_1131_39188" x1="237.337" y1="195.831" x2="254.268" y2="195.831" gradientUnits="userSpaceOnUse">
<stop stop-color="#F57A00"/>
<stop offset="1" stop-color="#7103A4"/>
</linearGradient>
<linearGradient id="paint11_linear_1131_39188" x1="261.271" y1="152.859" x2="278.202" y2="152.859" gradientUnits="userSpaceOnUse">
<stop stop-color="#F57A00"/>
<stop offset="1" stop-color="#7103A4"/>
</linearGradient>
<linearGradient id="paint12_linear_1131_39188" x1="276.768" y1="168.205" x2="298.739" y2="168.205" gradientUnits="userSpaceOnUse">
<stop stop-color="#F57A00"/>
<stop offset="1" stop-color="#7103A4"/>
</linearGradient>
<linearGradient id="paint13_linear_1131_39188" x1="257.046" y1="175.879" x2="279.855" y2="175.879" gradientUnits="userSpaceOnUse">
<stop stop-color="#F57A00"/>
<stop offset="1" stop-color="#7103A4"/>
</linearGradient>
<linearGradient id="paint14_linear_1131_39188" x1="251.422" y1="188.158" x2="273.99" y2="188.158" gradientUnits="userSpaceOnUse">
<stop stop-color="#F57A00"/>
<stop offset="1" stop-color="#7103A4"/>
</linearGradient>
<linearGradient id="paint15_linear_1131_39188" x1="186.083" y1="101.764" x2="190.675" y2="101.764" gradientUnits="userSpaceOnUse">
<stop stop-color="#F57A00"/>
<stop offset="1" stop-color="#7103A4"/>
</linearGradient>
<linearGradient id="paint16_linear_1131_39188" x1="169.542" y1="108.866" x2="174.133" y2="108.861" gradientUnits="userSpaceOnUse">
<stop stop-color="#F57A00"/>
<stop offset="1" stop-color="#7103A4"/>
</linearGradient>
<linearGradient id="paint17_linear_1131_39188" x1="194.405" y1="20.2404" x2="198.997" y2="20.2404" gradientUnits="userSpaceOnUse">
<stop stop-color="#F57A00"/>
<stop offset="1" stop-color="#7103A4"/>
</linearGradient>
<linearGradient id="paint18_linear_1131_39188" x1="168.153" y1="15.4297" x2="172.744" y2="15.4249" gradientUnits="userSpaceOnUse">
<stop stop-color="#F57A00"/>
<stop offset="1" stop-color="#7103A4"/>
</linearGradient>
<linearGradient id="paint19_linear_1131_39188" x1="239.139" y1="31.8446" x2="243.731" y2="31.8398" gradientUnits="userSpaceOnUse">
<stop stop-color="#F57A00"/>
<stop offset="1" stop-color="#7103A4"/>
</linearGradient>
<linearGradient id="paint20_linear_1131_39188" x1="280.544" y1="32.3616" x2="285.136" y2="32.3568" gradientUnits="userSpaceOnUse">
<stop stop-color="#F57A00"/>
<stop offset="1" stop-color="#7103A4"/>
</linearGradient>
<linearGradient id="paint21_linear_1131_39188" x1="275.321" y1="48.1562" x2="279.913" y2="48.1513" gradientUnits="userSpaceOnUse">
<stop stop-color="#F57A00"/>
<stop offset="1" stop-color="#7103A4"/>
</linearGradient>
<linearGradient id="paint22_linear_1131_39188" x1="282.828" y1="97.8814" x2="287.42" y2="97.8814" gradientUnits="userSpaceOnUse">
<stop stop-color="#F57A00"/>
<stop offset="1" stop-color="#7103A4"/>
</linearGradient>
<linearGradient id="paint23_linear_1131_39188" x1="123.132" y1="102.502" x2="127.723" y2="102.497" gradientUnits="userSpaceOnUse">
<stop stop-color="#F57A00"/>
<stop offset="1" stop-color="#7103A4"/>
</linearGradient>
<linearGradient id="paint24_linear_1131_39188" x1="134.235" y1="88.2006" x2="134.24" y2="83.6058" gradientUnits="userSpaceOnUse">
<stop stop-color="#F57A00"/>
<stop offset="1" stop-color="#7103A4"/>
</linearGradient>
<linearGradient id="paint25_linear_1131_39188" x1="104.294" y1="81.0529" x2="104.299" y2="76.4581" gradientUnits="userSpaceOnUse">
<stop stop-color="#F57A00"/>
<stop offset="1" stop-color="#7103A4"/>
</linearGradient>
<linearGradient id="paint26_linear_1131_39188" x1="117.277" y1="31.8419" x2="121.869" y2="31.8419" gradientUnits="userSpaceOnUse">
<stop stop-color="#F57A00"/>
<stop offset="1" stop-color="#7103A4"/>
</linearGradient>
<linearGradient id="paint27_linear_1131_39188" x1="172.17" y1="61.9439" x2="212.932" y2="61.9439" gradientUnits="userSpaceOnUse">
<stop stop-color="#F57A00"/>
<stop offset="1" stop-color="#7103A4"/>
</linearGradient>
<linearGradient id="paint28_linear_1131_39188" x1="190.215" y1="68.8365" x2="194.876" y2="68.8365" gradientUnits="userSpaceOnUse">
<stop stop-color="#F57A00"/>
<stop offset="1" stop-color="#7103A4"/>
</linearGradient>
<linearGradient id="paint29_linear_1131_39188" x1="39.9433" y1="112.946" x2="138.87" y2="112.946" gradientUnits="userSpaceOnUse">
<stop stop-color="#F57A00"/>
<stop offset="1" stop-color="#7103A4"/>
</linearGradient>
</defs>
</svg>
