<svg width="371" height="398" viewBox="0 0 371 398" fill="none" xmlns="http://www.w3.org/2000/svg">
<path d="M44.867 2.98336C37.5379 5.99416 31.7021 11.7889 28.6396 19.0966C25.5772 26.4042 25.5381 34.6282 28.5309 41.9647L47.086 87.2552L55.3658 83.8522L36.819 38.5534C34.7197 33.4259 34.7432 27.6744 36.8845 22.5643C39.0258 17.4541 43.1093 13.4039 48.2368 11.3046C53.3644 9.20524 59.1158 9.2288 64.226 11.3701C69.3361 13.5113 73.3863 17.5949 75.4857 22.7224L83.8069 19.3111C80.7977 11.9908 75.0096 6.16184 67.7106 3.10133C60.4117 0.0408283 52.1971 -0.00158966 44.867 2.98336Z" fill="url(#paint0_linear_1295_1334)"/>
<g opacity="0.3">
<path d="M44.867 2.98336C37.5379 5.99416 31.7021 11.7889 28.6396 19.0966C25.5772 26.4042 25.5381 34.6282 28.5309 41.9647L47.086 87.2552L55.3658 83.8522L36.819 38.5534C34.7197 33.4259 34.7432 27.6744 36.8845 22.5643C39.0258 17.4541 43.1093 13.4039 48.2368 11.3046C53.3644 9.20524 59.1158 9.2288 64.226 11.3701C69.3361 13.5113 73.3863 17.5949 75.4857 22.7224L83.8069 19.3111C80.7977 11.9908 75.0096 6.16184 67.7106 3.10133C60.4117 0.0408283 52.1971 -0.00158966 44.867 2.98336Z" fill="black"/>
</g>
<path d="M99.3189 42.3368L33.6768 69.2184C31.2182 70.2253 30.0413 73.0346 31.0482 75.4932L46.9882 114.417C47.9951 116.876 50.8044 118.053 53.263 117.046L118.905 90.1642C121.364 89.1574 122.541 86.3481 121.534 83.8894L105.594 44.9655C104.587 42.5069 101.777 41.33 99.3189 42.3368Z" fill="url(#paint1_linear_1295_1334)"/>
<g opacity="0.5">
<path d="M79.9568 70.9108C79.4863 69.7489 78.7007 68.7416 77.6885 68.0021C76.6764 67.2626 75.4779 66.8205 74.228 66.7254C72.9781 66.6304 71.7265 66.8862 70.6141 67.4641C69.5018 68.0421 68.5729 68.9191 67.9321 69.9964C67.2913 71.0738 66.9641 72.3086 66.9872 73.5619C67.0104 74.8152 67.383 76.0371 68.0632 77.0901C68.7433 78.143 69.704 78.9851 70.8369 79.5215C71.9699 80.0579 73.2301 80.2674 74.4756 80.1262L78.2843 89.441L81.6873 88.05L77.8703 78.7352C79.0233 77.8366 79.8511 76.5859 80.2278 75.1734C80.6044 73.761 80.5093 72.2642 79.9568 70.9108Z" fill="black"/>
</g>
<path d="M50.9195 112.707C50.7456 112.782 47.3426 104.858 43.3187 95.0215C39.2947 85.1851 36.1566 77.1537 36.3305 77.0791C36.5044 77.0046 39.9074 84.9284 43.9314 94.7731C47.9553 104.618 51.0851 112.641 50.9195 112.707Z" fill="#FAFAFA"/>
<path d="M72.1158 83.4547C71.813 83.4756 71.5091 83.4362 71.2216 83.3388C70.418 83.1249 69.6507 82.7929 68.9447 82.3535C67.7464 81.6471 66.7193 80.6842 65.9373 79.5339C65.1553 78.3835 64.6376 77.0743 64.4215 75.7002C64.2054 74.3261 64.2963 72.9212 64.6875 71.5863C65.0787 70.2515 65.7606 69.0198 66.6843 67.9798C67.2134 67.3324 67.8423 66.7734 68.5472 66.3238C69.044 66.0175 69.3752 65.9015 69.3752 65.9347C68.5448 66.6446 67.7697 67.4168 67.0569 68.2447C66.2364 69.2602 65.6378 70.4363 65.2999 71.6973C64.9621 72.9583 64.8923 74.2762 65.0951 75.5658C65.298 76.8555 65.7689 78.0883 66.4776 79.1847C67.1863 80.2811 68.117 81.2167 69.2096 81.9312C70.1387 82.5113 71.1102 83.0206 72.1158 83.4547Z" fill="#FAFAFA"/>
<path d="M19.2741 91.6186L19.6798 90.4429L20.4498 91.4199C21.0691 92.1895 21.897 92.7644 22.8344 93.0759L24.0101 93.4816L23.0331 94.2516C22.2679 94.875 21.694 95.7014 21.3772 96.6362L20.9797 97.8367L20.1517 96.868C19.527 96.1005 18.6972 95.5263 17.7589 95.212L16.5914 94.8063L17.5602 94.0363C18.3518 93.4118 18.9468 92.5724 19.2741 91.6186Z" fill="url(#paint2_linear_1295_1334)"/>
<path d="M58.5701 45.4255L58.8019 44.7466L59.2491 45.3096C59.6065 45.7725 60.0893 46.1231 60.6401 46.3197L61.319 46.5516L60.756 47.007C60.3015 47.3636 59.9594 47.8437 59.7707 48.3897L59.5388 49.0686L59.0669 48.4725C58.7121 48.0179 58.2312 47.678 57.6842 47.4955L56.9969 47.2554L57.5683 46.8083C58.0272 46.4522 58.3748 45.9725 58.5701 45.4255Z" fill="url(#paint3_linear_1295_1334)"/>
<path d="M11.3172 51.18L11.9962 49.2012L13.2961 50.8571C14.3317 52.1669 15.7231 53.1501 17.3035 53.6888L19.2741 54.3678L17.6182 55.6677C16.3084 56.705 15.3229 58.0956 14.7782 59.6751L14.0993 61.6457L12.8076 59.9897C11.7725 58.6776 10.3812 57.6916 8.80018 57.1498L6.82959 56.4708L8.48555 55.1792C9.79066 54.1427 10.773 52.7553 11.3172 51.18Z" fill="url(#paint4_linear_1295_1334)"/>
<path d="M235.299 382.231L113.081 382.156C106.021 382.152 99.2526 379.345 94.2625 374.352C89.2724 369.358 86.4692 362.588 86.4692 355.529L86.5272 49.1181C86.5283 45.6206 87.2184 42.1575 88.5581 38.9268C89.8978 35.696 91.8608 32.7608 94.3351 30.2889C96.8094 27.8169 99.7464 25.8566 102.978 24.5199C106.21 23.1832 109.674 22.4964 113.172 22.4985L235.39 22.5648C242.449 22.5692 249.218 25.3765 254.208 30.3697C259.198 35.363 262.001 42.1333 262.001 49.1926L261.943 355.611C261.942 359.109 261.252 362.572 259.912 365.803C258.572 369.034 256.609 371.969 254.135 374.441C251.661 376.913 248.724 378.873 245.492 380.21C242.26 381.546 238.796 382.233 235.299 382.231Z" fill="url(#paint5_linear_1295_1334)"/>
<path d="M235.249 33.4032H211.569C210.796 33.4193 210.034 33.5877 209.326 33.8986C208.619 34.2096 207.979 34.6571 207.445 35.2154C206.91 35.7737 206.491 36.432 206.211 37.1525C205.932 37.873 205.797 38.6416 205.814 39.4143V43.6701C205.848 45.2302 205.26 46.7396 204.181 47.8667C203.102 48.9939 201.62 49.6465 200.06 49.6813H153.875C153.099 49.6684 152.333 49.5022 151.621 49.1924C150.909 48.8826 150.265 48.4351 149.726 47.8758C149.188 47.3165 148.765 46.6563 148.482 45.9332C148.2 45.21 148.063 44.4381 148.079 43.6619V39.3729C148.097 38.5998 147.962 37.8308 147.682 37.1098C147.403 36.3888 146.984 35.73 146.449 35.171C145.915 34.612 145.275 34.1638 144.568 33.8519C143.86 33.5401 143.098 33.3707 142.325 33.3535H113.288C108.349 33.3513 103.61 35.3077 100.112 38.7938C96.6135 42.2799 94.6402 47.0111 94.6249 51.9499L94.5669 351.033C94.5669 355.977 96.5303 360.718 100.025 364.215C103.52 367.711 108.261 369.677 113.205 369.679L235.183 369.753C237.632 369.756 240.058 369.275 242.322 368.339C244.586 367.403 246.643 366.029 248.375 364.298C250.108 362.566 251.482 360.509 252.419 358.246C253.356 355.983 253.838 353.557 253.837 351.107L253.895 52.0327C253.891 47.0904 251.924 42.3519 248.428 38.8587C244.932 35.3654 240.191 33.4032 235.249 33.4032Z" fill="white"/>
<path d="M162.908 346.918C162.913 347.381 162.781 347.835 162.527 348.223C162.274 348.611 161.911 348.916 161.485 349.097C161.059 349.279 160.588 349.331 160.133 349.245C159.677 349.16 159.257 348.941 158.926 348.617C158.595 348.292 158.367 347.877 158.272 347.424C158.177 346.97 158.218 346.499 158.391 346.069C158.564 345.639 158.86 345.269 159.243 345.008C159.625 344.746 160.077 344.604 160.54 344.599C161.161 344.595 161.759 344.836 162.202 345.27C162.646 345.705 162.9 346.297 162.908 346.918Z" fill="#263238"/>
<path d="M176.024 346.81C176.028 347.274 175.896 347.729 175.642 348.117C175.388 348.505 175.025 348.809 174.598 348.991C174.171 349.173 173.7 349.223 173.245 349.137C172.789 349.051 172.369 348.831 172.038 348.506C171.707 348.181 171.481 347.765 171.386 347.311C171.292 346.857 171.335 346.385 171.509 345.956C171.683 345.526 171.98 345.157 172.364 344.896C172.748 344.636 173.2 344.495 173.664 344.492C174.284 344.487 174.88 344.729 175.323 345.163C175.765 345.598 176.017 346.19 176.024 346.81Z" fill="#263238"/>
<path d="M189.147 346.71C189.152 347.174 189.019 347.629 188.765 348.017C188.512 348.405 188.148 348.71 187.722 348.891C187.295 349.073 186.824 349.124 186.368 349.038C185.913 348.951 185.493 348.732 185.162 348.407C184.831 348.082 184.604 347.666 184.51 347.212C184.415 346.758 184.458 346.286 184.632 345.856C184.806 345.426 185.104 345.057 185.488 344.797C185.871 344.536 186.324 344.395 186.787 344.392C187.407 344.388 188.004 344.629 188.446 345.064C188.888 345.498 189.14 346.09 189.147 346.71Z" fill="#263238"/>
<path d="M235.978 63.6077C235.978 63.674 232.889 63.7568 229.089 63.7899C225.288 63.823 222.208 63.7899 222.208 63.7154C222.208 63.6409 225.313 63.5415 229.089 63.5415C232.864 63.5415 235.969 63.5415 235.978 63.6077Z" fill="#263238"/>
<path d="M236.002 67.1264C236.002 67.2009 232.922 67.2837 229.122 67.3169C225.322 67.35 222.233 67.3169 222.233 67.2423C222.233 67.1678 225.313 67.085 229.122 67.0519C232.931 67.0188 236.002 67.0519 236.002 67.1264Z" fill="#263238"/>
<path d="M236.077 70.6456C236.077 70.7202 232.989 70.803 229.188 70.8361C225.388 70.8692 222.308 70.8361 222.308 70.7616C222.308 70.687 225.388 70.6125 229.188 70.5794C232.989 70.5463 236.027 70.5794 236.077 70.6456Z" fill="#263238"/>
<path d="M110.762 74.6695H111.044H111.872L114.819 74.6032L114.745 74.6778C114.745 74.0319 114.745 73.3199 114.745 72.5498C114.724 72.1416 114.724 71.7327 114.745 71.3244C114.788 71.0908 114.906 70.8775 115.081 70.7163C115.255 70.5552 115.477 70.4548 115.714 70.4302C116.185 70.4302 116.608 70.4302 117.121 70.4302C117.388 70.4702 117.631 70.6054 117.806 70.8108C117.981 71.0163 118.076 71.2781 118.073 71.548C118.073 72.5416 118.073 73.5848 118.073 74.6612L117.949 74.537H121.658L121.534 74.6612C121.534 73.1708 121.534 71.6225 121.534 70.0411C121.534 69.6519 121.534 69.2131 121.534 68.8653C121.528 68.6949 121.476 68.5293 121.385 68.3851C121.269 68.2397 121.142 68.1041 121.004 67.9794C120.458 67.4412 119.92 66.903 119.348 66.3814L117.783 64.8414C117.535 64.5847 117.278 64.3363 117.03 64.0879C116.782 63.8395 116.566 63.5745 116.252 63.5166C116.11 63.4823 115.962 63.4793 115.819 63.5079C115.676 63.5365 115.541 63.596 115.424 63.6822C115.2 63.8726 114.96 64.1376 114.737 64.3611L113.403 65.7025C112.575 66.5304 111.698 67.3584 111.06 68.1202C110.876 68.5591 110.813 69.0395 110.878 69.5112C110.878 69.9748 110.878 70.4054 110.878 70.8194C110.878 71.6474 110.878 72.3263 110.878 72.9224C110.878 73.5186 110.878 73.916 110.878 74.272C110.878 74.6281 110.878 74.7523 110.878 74.7523C110.878 74.7523 110.878 74.6032 110.878 74.3052C110.878 74.0071 110.878 73.4772 110.878 72.9804C110.878 72.4836 110.878 71.6722 110.837 70.8608C110.837 70.4385 110.837 70.0328 110.837 69.5277C110.837 69.2876 110.837 69.0475 110.837 68.7991C110.836 68.5285 110.907 68.2627 111.044 68.0291C111.731 67.2011 112.551 66.4476 113.395 65.5451L114.712 64.1955C114.952 63.9637 115.151 63.7236 115.424 63.4835C115.575 63.3707 115.749 63.2935 115.934 63.2577C116.119 63.2219 116.31 63.2283 116.492 63.2765C116.837 63.4004 117.141 63.6184 117.369 63.9057L118.131 64.6509L119.704 66.191L121.36 67.789C121.513 67.9241 121.651 68.0739 121.774 68.2361C121.89 68.4201 121.956 68.6314 121.965 68.8488C121.965 69.2462 121.965 69.6768 121.965 70.0328C121.965 71.6142 121.965 73.1626 121.965 74.6529V74.7771H121.832H118.123H118.007V74.6529C118.007 73.5765 118.007 72.5416 118.007 71.548C118.01 71.3292 117.935 71.1164 117.796 70.948C117.656 70.7795 117.461 70.6664 117.245 70.6289C116.815 70.6289 116.31 70.6289 115.896 70.6289C115.697 70.6445 115.51 70.7239 115.36 70.8552C115.211 70.9866 115.108 71.1629 115.068 71.3576C115.068 71.7384 115.068 72.1855 115.068 72.5416C115.068 73.3116 115.068 74.0237 115.068 74.6778V74.7523H114.993H112.004H111.052C110.953 74.7355 110.855 74.7077 110.762 74.6695Z" fill="#020202"/>
<path d="M142.076 145.677C142.076 148.55 139.924 150.339 136.479 150.339H133.888V153.882H130.923V141.007H136.496C139.924 141.007 142.076 142.796 142.076 145.677ZM139.054 145.677C139.054 144.261 138.135 143.433 136.314 143.433H133.888V147.904H136.314C138.135 147.904 139.054 147.076 139.054 145.677Z" fill="#263238"/>
<path d="M152.65 148.235V153.882H149.967V152.649C149.635 153.128 149.18 153.509 148.649 153.753C148.119 153.996 147.533 154.092 146.953 154.031C144.635 154.031 143.252 152.748 143.252 151.034C143.252 149.32 144.486 148.07 147.5 148.07H149.785C149.785 146.836 149.048 146.124 147.5 146.124C146.476 146.115 145.477 146.437 144.651 147.043L143.616 145.039C144.889 144.223 146.377 143.805 147.889 143.839C150.903 143.855 152.65 145.238 152.65 148.235ZM149.785 150.761V149.751H147.814C146.473 149.751 146.051 150.239 146.051 150.901C146.051 151.564 146.655 152.135 147.665 152.135C148.119 152.165 148.571 152.048 148.953 151.8C149.335 151.552 149.627 151.188 149.785 150.761Z" fill="#263238"/>
<path d="M154.289 152.963L155.25 150.902C156.287 151.525 157.475 151.857 158.686 151.862C160.01 151.862 160.507 151.514 160.507 150.96C160.507 149.304 154.529 150.96 154.529 147.043C154.529 145.164 156.185 143.839 159.108 143.839C160.429 143.813 161.737 144.111 162.917 144.708L161.964 146.745C161.092 146.257 160.108 146.003 159.108 146.008C157.825 146.008 157.27 146.414 157.27 146.936C157.27 148.592 163.248 146.985 163.248 150.885C163.248 152.723 161.534 154.031 158.578 154.031C157.079 154.062 155.599 153.693 154.289 152.963Z" fill="#263238"/>
<path d="M164.043 152.963L164.995 150.902C166.036 151.524 167.226 151.856 168.439 151.862C169.764 151.862 170.261 151.514 170.261 150.959C170.261 149.304 164.283 150.959 164.283 147.043C164.283 145.164 165.939 143.839 168.862 143.839C170.183 143.814 171.491 144.112 172.67 144.708L171.71 146.745C170.841 146.255 169.859 146.001 168.862 146.008C167.57 146.008 167.023 146.414 167.023 146.936C167.023 148.591 173.001 146.985 173.001 150.885C173.001 152.723 171.288 154.031 168.332 154.031C166.832 154.063 165.352 153.694 164.043 152.963Z" fill="#263238"/>
<path d="M190.488 143.988L186.903 153.924H184.146L181.919 147.78L179.617 153.924H176.86L173.291 143.988H175.999L178.334 150.687L180.76 143.988H183.186L185.545 150.687L187.955 143.988H190.488Z" fill="#263238"/>
<path d="M190.828 148.939C190.828 145.958 193.121 143.839 196.268 143.839C199.414 143.839 201.699 145.958 201.699 148.939C201.699 151.92 199.414 154.031 196.268 154.031C193.121 154.031 190.828 151.92 190.828 148.939ZM198.793 148.939C198.753 148.449 198.571 147.98 198.268 147.592C197.966 147.203 197.558 146.911 197.092 146.75C196.627 146.59 196.125 146.569 195.647 146.69C195.17 146.81 194.738 147.067 194.405 147.429C194.071 147.791 193.85 148.243 193.769 148.728C193.688 149.214 193.75 149.712 193.947 150.163C194.145 150.614 194.47 150.998 194.882 151.267C195.294 151.536 195.775 151.68 196.268 151.68C196.622 151.691 196.975 151.627 197.302 151.49C197.63 151.354 197.924 151.149 198.166 150.889C198.407 150.63 198.591 150.321 198.703 149.985C198.816 149.649 198.855 149.292 198.818 148.939H198.793Z" fill="#263238"/>
<path d="M209.755 143.855V146.505C209.515 146.505 209.333 146.505 209.11 146.505C207.528 146.505 206.477 147.333 206.477 149.262V153.932H203.612V143.996H206.352V145.304C206.76 144.805 207.282 144.412 207.875 144.16C208.468 143.908 209.113 143.803 209.755 143.855Z" fill="#263238"/>
<path d="M221.455 140.237V153.882H218.689V152.748C218.306 153.182 217.828 153.524 217.293 153.746C216.758 153.968 216.179 154.066 215.601 154.031C214.285 153.978 213.04 153.418 212.128 152.468C211.216 151.518 210.706 150.252 210.706 148.935C210.706 147.618 211.216 146.352 212.128 145.402C213.04 144.452 214.285 143.892 215.601 143.839C216.151 143.812 216.701 143.905 217.212 144.113C217.722 144.32 218.181 144.636 218.557 145.04V140.237H221.455ZM218.64 148.939C218.599 148.447 218.416 147.977 218.112 147.588C217.808 147.198 217.397 146.906 216.929 146.747C216.461 146.589 215.957 146.57 215.479 146.694C215.001 146.818 214.569 147.079 214.237 147.445C213.905 147.811 213.688 148.266 213.611 148.754C213.535 149.242 213.603 149.742 213.807 150.192C214.011 150.642 214.342 151.023 214.759 151.287C215.176 151.551 215.662 151.688 216.156 151.68C216.505 151.682 216.85 151.61 217.169 151.47C217.489 151.329 217.775 151.123 218.009 150.864C218.244 150.606 218.421 150.301 218.53 149.969C218.638 149.637 218.676 149.286 218.64 148.939Z" fill="#263238"/>
<path d="M243.529 164.555C243.529 164.671 212.894 164.77 175.063 164.77C137.233 164.77 106.581 164.671 106.581 164.555C106.581 164.439 137.216 164.34 175.063 164.34C212.91 164.34 243.529 164.414 243.529 164.555Z" fill="#E0E0E0"/>
<path d="M240.341 290.599C240.341 290.723 209.706 290.814 171.867 290.814C134.028 290.814 103.393 290.723 103.393 290.599C103.393 290.474 134.028 290.383 171.867 290.383C209.706 290.383 240.341 290.483 240.341 290.599Z" fill="#E0E0E0"/>
<path d="M209.366 300.071C209.366 300.187 192.335 300.286 171.329 300.286C150.323 300.286 133.292 300.187 133.292 300.071C133.292 299.955 150.315 299.855 171.329 299.855C192.343 299.855 209.366 299.947 209.366 300.071Z" fill="#E0E0E0"/>
<path d="M118.918 201.235L121.509 202.634L120.342 204.588L117.725 203.04L117.775 205.921H115.54V203.015L112.915 204.588L111.797 202.642L114.364 201.235L111.764 199.802L112.907 197.856L115.531 199.421V196.523H117.767L117.717 199.421L120.334 197.856L121.501 199.802L118.918 201.235Z" fill="#7103A4"/>
<path d="M148.659 201.235L151.25 202.634L150.083 204.588L147.483 203.04V205.954H145.239V203.048L142.623 204.621L141.538 202.642L144.171 201.235L141.58 199.802L142.722 197.856L145.339 199.421V196.523H147.483L147.433 199.421L150.05 197.856L151.217 199.802L148.659 201.235Z" fill="#7103A4"/>
<path d="M177.605 201.235L180.197 202.634L179.029 204.588L176.413 203.04L176.462 205.954H174.227V203.048L171.602 204.621L170.484 202.642L173.084 201.243L170.484 199.811L171.627 197.865L174.252 199.43V196.532H176.462L176.413 199.43L179.029 197.865L180.197 199.811L177.605 201.235Z" fill="#7103A4"/>
<path d="M205.649 201.235L208.24 202.634L207.098 204.588L204.481 203.04L204.531 205.921H202.295V203.015L199.679 204.588L198.528 202.642L201.128 201.243L198.528 199.811L199.671 197.865L202.287 199.43V196.532H204.523L204.473 199.43L207.089 197.865L208.257 199.811L205.649 201.235Z" fill="#7103A4"/>
<path d="M233.469 201.235L236.077 202.642L234.909 204.596L232.293 203.048L232.334 205.929H230.099V203.023L227.482 204.596L226.356 202.642L228.948 201.243L226.356 199.811L227.499 197.865L230.115 199.43V196.532H232.351L232.31 199.43L234.926 197.865L236.093 199.811L233.469 201.235Z" fill="#7103A4"/>
<path d="M123.53 219.268H110.986C109.434 219.266 107.946 218.648 106.849 217.551C105.752 216.454 105.134 214.966 105.132 213.414V191.141C105.134 189.59 105.752 188.104 106.849 187.008C107.947 185.911 109.435 185.296 110.986 185.296H123.53C125.081 185.296 126.568 185.911 127.666 187.008C128.764 188.104 129.381 189.59 129.383 191.141V213.406C129.383 214.959 128.767 216.449 127.669 217.548C126.572 218.647 125.083 219.266 123.53 219.268ZM110.986 185.71C109.544 185.71 108.162 186.282 107.142 187.3C106.122 188.319 105.548 189.7 105.546 191.141V213.406C105.548 214.848 106.122 216.23 107.142 217.25C108.161 218.27 109.544 218.843 110.986 218.846H123.53C124.972 218.846 126.356 218.273 127.376 217.252C128.396 216.232 128.969 214.849 128.969 213.406V191.133C128.967 189.692 128.393 188.31 127.373 187.292C126.353 186.274 124.971 185.702 123.53 185.702L110.986 185.71Z" fill="#263238"/>
<path d="M152.666 219.268H140.122C139.35 219.271 138.585 219.122 137.871 218.829C137.157 218.536 136.508 218.104 135.961 217.56C135.414 217.015 134.98 216.368 134.684 215.655C134.388 214.942 134.235 214.178 134.235 213.406V191.133C134.238 189.582 134.855 188.095 135.953 186.999C137.05 185.903 138.538 185.288 140.089 185.288H152.633C154.184 185.288 155.672 185.903 156.769 186.999C157.867 188.095 158.485 189.582 158.487 191.133V213.406C158.487 214.953 157.875 216.438 156.785 217.536C155.694 218.635 154.214 219.257 152.666 219.268ZM140.122 185.71C138.681 185.71 137.299 186.282 136.279 187.3C135.259 188.319 134.685 189.7 134.682 191.141V213.406C134.685 214.848 135.258 216.23 136.278 217.25C137.298 218.27 138.68 218.843 140.122 218.846H152.666C154.109 218.846 155.493 218.273 156.513 217.252C157.533 216.232 158.106 214.849 158.106 213.406V191.133C158.104 189.692 157.53 188.31 156.51 187.292C155.49 186.274 154.107 185.702 152.666 185.702L140.122 185.71Z" fill="#263238"/>
<path d="M181.008 219.268H168.456C166.904 219.266 165.416 218.648 164.319 217.551C163.222 216.454 162.604 214.966 162.602 213.414V191.141C162.604 189.59 163.222 188.104 164.32 187.008C165.417 185.911 166.905 185.296 168.456 185.296H181.008C182.558 185.298 184.043 185.915 185.139 187.01C186.235 188.106 186.851 189.592 186.854 191.141V213.406C186.855 214.175 186.704 214.936 186.411 215.647C186.118 216.357 185.688 217.003 185.145 217.548C184.602 218.092 183.957 218.524 183.248 218.819C182.538 219.114 181.777 219.267 181.008 219.268ZM168.456 185.71C167.015 185.71 165.632 186.282 164.612 187.3C163.592 188.319 163.018 189.7 163.016 191.141V213.406C163.018 214.848 163.592 216.23 164.612 217.25C165.631 218.27 167.014 218.843 168.456 218.846H181.008C182.449 218.843 183.831 218.269 184.849 217.249C185.868 216.229 186.44 214.847 186.44 213.406V191.133C186.44 189.693 185.867 188.311 184.849 187.292C183.83 186.274 182.449 185.702 181.008 185.702L168.456 185.71Z" fill="#263238"/>
<path d="M209.664 219.268H197.112C195.56 219.266 194.073 218.648 192.975 217.551C191.878 216.454 191.261 214.966 191.258 213.414V191.141C191.261 189.59 191.878 188.104 192.976 187.008C194.073 185.911 195.561 185.296 197.112 185.296H209.664C211.214 185.298 212.7 185.915 213.795 187.01C214.891 188.106 215.508 189.592 215.51 191.141V213.406C215.511 214.175 215.361 214.936 215.068 215.647C214.774 216.357 214.344 217.003 213.801 217.548C213.258 218.092 212.614 218.524 211.904 218.819C211.194 219.114 210.433 219.267 209.664 219.268ZM197.112 185.71C195.671 185.71 194.289 186.282 193.269 187.3C192.249 188.319 191.675 189.7 191.672 191.141V213.406C191.675 214.848 192.248 216.23 193.268 217.25C194.288 218.27 195.67 218.843 197.112 218.846H209.664C211.106 218.843 212.487 218.269 213.506 217.249C214.524 216.229 215.096 214.847 215.096 213.406V191.133C215.096 189.693 214.524 188.311 213.505 187.292C212.486 186.274 211.105 185.702 209.664 185.702L197.112 185.71Z" fill="#263238"/>
<path d="M237.485 219.268H224.941C223.389 219.266 221.901 218.648 220.804 217.551C219.706 216.454 219.089 214.966 219.087 213.414V191.141C219.089 189.59 219.707 188.104 220.804 187.008C221.902 185.911 223.389 185.296 224.941 185.296H237.485C239.036 185.296 240.523 185.911 241.621 187.008C242.718 188.104 243.336 189.59 243.338 191.141V213.406C243.338 214.959 242.722 216.449 241.624 217.548C240.527 218.647 239.038 219.266 237.485 219.268ZM224.941 185.71C223.499 185.71 222.117 186.282 221.097 187.3C220.077 188.319 219.503 189.7 219.501 191.141V213.406C219.501 214.849 220.074 216.232 221.094 217.252C222.114 218.273 223.498 218.846 224.941 218.846H237.485C238.927 218.843 240.309 218.27 241.329 217.25C242.348 216.23 242.922 214.848 242.924 213.406V191.133C242.922 189.692 242.348 188.31 241.328 187.292C240.308 186.274 238.926 185.702 237.485 185.702L224.941 185.71Z" fill="#263238"/>
<path d="M236.565 246.161H114.678C109.516 246.161 105.331 250.346 105.331 255.509V261.437C105.331 266.6 109.516 270.785 114.678 270.785H236.565C241.728 270.785 245.913 266.6 245.913 261.437V255.509C245.913 250.346 241.728 246.161 236.565 246.161Z" fill="#7103A4"/>
<path d="M157.874 253.521H161.658C164.382 253.521 166.253 255.177 166.253 257.661C166.253 260.145 164.382 261.801 161.658 261.801H157.874V253.521ZM161.559 260.27C162.244 260.27 162.901 259.997 163.385 259.513C163.87 259.028 164.142 258.371 164.142 257.686C164.142 257.001 163.87 256.344 163.385 255.86C162.901 255.375 162.244 255.103 161.559 255.103H159.795V260.27H161.559Z" fill="white"/>
<path d="M167.098 258.655C167.055 257.95 167.224 257.248 167.585 256.64C167.945 256.033 168.48 255.547 169.119 255.247C169.759 254.947 170.474 254.845 171.172 254.956C171.869 255.067 172.518 255.385 173.033 255.868C173.548 256.352 173.906 256.979 174.06 257.669C174.215 258.358 174.159 259.078 173.899 259.735C173.64 260.392 173.189 260.956 172.605 261.354C172.021 261.752 171.332 261.966 170.625 261.967C170.172 261.996 169.718 261.933 169.291 261.779C168.864 261.626 168.473 261.387 168.143 261.076C167.812 260.766 167.549 260.391 167.369 259.974C167.189 259.558 167.097 259.109 167.098 258.655ZM172.256 258.655C172.256 258.216 172.082 257.795 171.771 257.484C171.461 257.174 171.039 256.999 170.6 256.999C170.161 256.999 169.74 257.174 169.429 257.484C169.119 257.795 168.944 258.216 168.944 258.655C168.944 259.094 169.119 259.515 169.429 259.826C169.74 260.137 170.161 260.311 170.6 260.311C171.039 260.311 171.461 260.137 171.771 259.826C172.082 259.515 172.256 259.094 172.256 258.655Z" fill="white"/>
<path d="M181.919 258.192V261.851H180.064V258.473C180.064 257.438 179.584 256.966 178.764 256.966C177.944 256.966 177.232 257.513 177.232 258.688V261.851H175.378V255.451H177.15V256.204C177.425 255.926 177.757 255.709 178.122 255.566C178.487 255.423 178.878 255.359 179.269 255.376C180.776 255.36 181.919 256.237 181.919 258.192Z" fill="white"/>
<path d="M189.909 259.177H185.065C185.166 259.574 185.406 259.922 185.742 260.158C186.078 260.393 186.487 260.5 186.895 260.46C187.191 260.473 187.487 260.425 187.763 260.318C188.04 260.211 188.291 260.048 188.501 259.839L189.495 260.915C189.157 261.27 188.745 261.547 188.289 261.726C187.833 261.905 187.343 261.981 186.854 261.95C184.635 261.95 183.194 260.559 183.194 258.638C183.185 258.192 183.269 257.749 183.439 257.336C183.609 256.923 183.863 256.55 184.183 256.239C184.504 255.928 184.885 255.687 185.303 255.53C185.722 255.373 186.167 255.304 186.613 255.327C187.054 255.305 187.494 255.376 187.906 255.535C188.317 255.694 188.691 255.937 189.003 256.249C189.314 256.561 189.558 256.935 189.717 257.346C189.876 257.758 189.947 258.198 189.925 258.638C189.942 258.821 189.917 259.019 189.909 259.177ZM185.04 258.117H188.195C188.134 257.742 187.942 257.402 187.653 257.156C187.364 256.91 186.997 256.775 186.618 256.775C186.238 256.775 185.871 256.91 185.582 257.156C185.293 257.402 185.101 257.742 185.04 258.117Z" fill="white"/>
<path d="M174.235 128.596C187.976 128.596 199.116 117.457 199.116 103.715C199.116 89.974 187.976 78.8345 174.235 78.8345C160.494 78.8345 149.354 89.974 149.354 103.715C149.354 117.457 160.494 128.596 174.235 128.596Z" fill="#7103A4"/>
<path d="M169.839 99.1859H169.425V96.8676C169.425 95.5808 169.936 94.3467 170.846 93.4367C171.756 92.5268 172.99 92.0156 174.277 92.0156C175.563 92.0156 176.797 92.5268 177.707 93.4367C178.617 94.3467 179.128 95.5808 179.128 96.8676V98.7554H178.714V96.8676C178.714 95.6906 178.247 94.5618 177.415 93.7295C176.582 92.8972 175.454 92.4296 174.277 92.4296C173.1 92.4296 171.971 92.8972 171.138 93.7295C170.306 94.5618 169.839 95.6906 169.839 96.8676V99.1859Z" fill="white"/>
<path d="M180.404 115.414H168.067C167.525 115.412 167.006 115.196 166.623 114.813C166.24 114.43 166.024 113.911 166.022 113.369V101.024C166.024 100.482 166.24 99.9635 166.623 99.5804C167.006 99.1973 167.525 98.9812 168.067 98.979H180.404C180.945 98.9812 181.464 99.1973 181.847 99.5804C182.23 99.9635 182.447 100.482 182.449 101.024V113.369C182.447 113.911 182.23 114.43 181.847 114.813C181.464 115.196 180.945 115.412 180.404 115.414ZM168.067 99.393C167.628 99.393 167.206 99.5675 166.896 99.878C166.585 100.189 166.411 100.61 166.411 101.049V113.394C166.411 113.833 166.585 114.255 166.896 114.565C167.206 114.876 167.628 115.05 168.067 115.05H180.404C180.843 115.05 181.264 114.876 181.575 114.565C181.885 114.255 182.06 113.833 182.06 113.394V101.024C182.06 100.585 181.885 100.164 181.575 99.8532C181.264 99.5426 180.843 99.3682 180.404 99.3682L168.067 99.393Z" fill="white"/>
<path d="M174.293 107.598C173.91 107.598 173.535 107.484 173.217 107.272C172.898 107.059 172.65 106.756 172.503 106.402C172.356 106.048 172.318 105.658 172.393 105.283C172.468 104.907 172.652 104.562 172.923 104.291C173.194 104.02 173.539 103.835 173.915 103.76C174.291 103.686 174.68 103.724 175.035 103.871C175.389 104.017 175.691 104.266 175.904 104.584C176.117 104.903 176.231 105.277 176.231 105.661C176.231 106.174 176.026 106.667 175.663 107.031C175.3 107.394 174.807 107.598 174.293 107.598ZM174.293 104.145C173.991 104.145 173.697 104.235 173.446 104.403C173.195 104.571 173 104.809 172.885 105.088C172.77 105.367 172.74 105.673 172.799 105.969C172.859 106.265 173.005 106.536 173.219 106.749C173.433 106.962 173.705 107.106 174.001 107.164C174.297 107.222 174.604 107.191 174.882 107.074C175.16 106.957 175.397 106.761 175.564 106.509C175.73 106.258 175.818 105.962 175.817 105.661C175.82 105.458 175.783 105.258 175.708 105.07C175.633 104.882 175.521 104.711 175.379 104.567C175.237 104.423 175.068 104.309 174.882 104.231C174.695 104.152 174.495 104.112 174.293 104.112V104.145Z" fill="white"/>
<path d="M174.442 107.309H174.028V110.803H174.442V107.309Z" fill="white"/>
<path d="M347.283 364.735L331.659 328.693L313.733 340.202L332.744 373.148L342.274 368.875L347.283 364.735Z" fill="#FFA89C"/>
<path d="M347.001 362.442L347.515 363.469C347.515 363.469 368.338 361.688 370.185 364.884L335.708 382.032L330.467 370.324C336.776 370.159 342.274 367.758 347.001 362.442Z" fill="#1B1425"/>
<g opacity="0.6">
<path d="M335.716 372.552C335.434 372.816 335.261 373.176 335.229 373.561C335.196 373.947 335.308 374.33 335.542 374.638C335.797 374.93 336.153 375.112 336.539 375.147C336.924 375.183 337.308 375.069 337.612 374.829C337.909 374.547 338.091 374.165 338.124 373.757C338.156 373.348 338.035 372.943 337.786 372.618C337.493 372.337 337.103 372.18 336.697 372.18C336.291 372.18 335.901 372.337 335.608 372.618" fill="white"/>
</g>
<g opacity="0.6">
<path d="M335.641 382.313L334.383 379.498L367.883 364.098C367.883 364.098 369.754 364.007 370.118 365.174L335.641 382.313Z" fill="white"/>
</g>
<path d="M347.622 363.783C347.697 363.957 346.894 364.446 346.339 365.439C345.784 366.433 345.685 367.319 345.511 367.327C345.337 367.336 345.089 366.243 345.784 365.1C346.48 363.957 347.581 363.61 347.622 363.783Z" fill="white"/>
<path d="M351.994 363.477C352.118 363.626 351.53 364.305 351.315 365.265C351.1 366.226 351.315 367.104 351.133 367.178C350.951 367.253 350.38 366.35 350.678 365.116C350.976 363.883 351.895 363.32 351.994 363.477Z" fill="white"/>
<path d="M356.192 366.78C356.051 366.896 355.364 366.168 355.364 365.033C355.364 363.899 355.943 363.137 356.084 363.245C356.225 363.353 355.985 364.073 356.018 365.017C356.051 365.961 356.349 366.681 356.192 366.78Z" fill="white"/>
<path d="M317.898 370.995L318.494 331.708L297.422 334.821L301.181 372.676L311.63 372.701L317.898 370.995Z" fill="#FFA89C"/>
<path d="M318.403 369.016L318.461 370.159C318.461 370.159 338.167 377.114 338.531 380.782L300.047 382.222L300.088 369.397C305.909 371.831 311.912 371.906 318.403 369.016Z" fill="#1B1425"/>
<g opacity="0.6">
<path d="M304.137 373.346C303.771 373.475 303.466 373.733 303.278 374.072C303.09 374.411 303.033 374.807 303.118 375.184C303.232 375.555 303.483 375.868 303.82 376.059C304.158 376.25 304.555 376.304 304.931 376.211C305.321 376.077 305.646 375.802 305.843 375.44C306.041 375.079 306.096 374.657 306 374.257C305.837 373.887 305.538 373.594 305.164 373.44C304.791 373.286 304.372 373.282 303.996 373.429" fill="white"/>
</g>
<g opacity="0.6">
<path d="M300.047 382.223V379.142L336.925 378.886C336.925 378.886 338.672 379.565 338.523 380.782L300.047 382.223Z" fill="white"/>
</g>
<path d="M318.593 370.258C318.593 370.449 317.658 370.573 316.755 371.21C315.853 371.848 315.397 372.651 315.215 372.585C315.033 372.519 315.281 371.426 316.383 370.672C317.484 369.919 318.626 370.084 318.593 370.258Z" fill="white"/>
<path d="M322.692 371.782C322.742 371.956 321.947 372.312 321.334 373.131C320.721 373.951 320.572 374.787 320.382 374.787C320.191 374.787 320.042 373.727 320.812 372.717C321.582 371.707 322.684 371.6 322.692 371.782Z" fill="white"/>
<path d="M325.167 376.518C325.002 376.559 324.704 375.632 325.167 374.589C325.631 373.545 326.476 373.098 326.567 373.247C326.658 373.396 326.128 373.976 325.739 374.837C325.35 375.698 325.358 376.518 325.167 376.518Z" fill="white"/>
<path d="M302.737 210.831L301.951 179.897L271.845 181.479L270.852 185.139C269.233 190.805 267.918 196.554 266.911 202.361C264.89 215.318 265.131 227.109 270.223 240.961C275.315 254.813 283.272 281.151 283.272 281.151L313.137 363.643L347.912 352.208L302.737 210.831Z" fill="#1B1425"/>
<path d="M320.945 178.896L323.569 187.465C327.428 189.949 333.662 202.12 334.234 207.105C334.805 212.089 335.89 229.154 334.755 249.158C333.787 265.61 325.648 361.904 325.648 361.904L292.744 363.643L296.171 207.933L297.62 180.129L320.945 178.896Z" fill="#1B1425"/>
<path d="M264.559 205.208C264.926 205.364 265.31 205.478 265.702 205.548C266.756 205.783 267.828 205.927 268.906 205.979C272.499 206.172 276.08 205.436 279.305 203.84C282.529 202.245 285.287 199.844 287.312 196.871C287.928 195.982 288.463 195.04 288.91 194.056C289.095 193.704 289.237 193.331 289.332 192.946C289.25 192.905 288.629 194.494 287.047 196.689C284.99 199.553 282.262 201.869 279.103 203.435C275.943 205.001 272.448 205.769 268.923 205.672C267.461 205.591 266.005 205.437 264.559 205.208Z" fill="#455A64"/>
<path d="M319.703 188.666C319.726 188.914 319.79 189.158 319.893 189.386C320.107 190.02 320.362 190.639 320.655 191.241C322.576 195.267 325.581 198.679 329.332 201.093C329.894 201.458 330.477 201.787 331.079 202.079C331.293 202.207 331.525 202.301 331.767 202.36C331.808 202.286 330.889 201.789 329.514 200.82C325.922 198.312 322.983 194.979 320.945 191.1C320.142 189.618 319.761 188.641 319.703 188.666Z" fill="#455A64"/>
<path d="M304.195 214.962C304.195 214.962 304.278 215.169 304.418 215.6L305.023 217.496C305.553 219.152 306.323 221.636 307.308 224.791C309.279 231.149 312.127 240.323 315.646 251.658C322.783 274.312 331.849 305.866 344.004 340.021C345.395 344.111 346.775 348.148 348.144 352.134L348.21 352.349L348.003 352.415L313.228 363.833L313.038 363.899L312.971 363.709L292.976 308.234L287.287 292.345C286.633 290.507 286.137 289.083 285.789 288.114C285.623 287.64 285.499 287.275 285.416 287.021L285.292 286.649C285.292 286.649 285.35 286.765 285.441 287.013C285.532 287.262 285.673 287.626 285.855 288.09L287.412 292.296C288.761 295.997 290.724 301.404 293.207 308.152L313.344 363.543L313.096 363.419L347.871 351.977L347.73 352.25C346.372 348.264 344.992 344.227 343.59 340.136C331.435 305.974 322.419 274.411 315.356 251.733C311.895 240.373 309.096 231.183 307.151 224.824C306.198 221.644 305.453 219.185 304.948 217.496C304.7 216.668 304.509 216.031 304.385 215.592C304.261 215.153 304.195 214.962 304.195 214.962Z" fill="#455A64"/>
<path d="M333.778 125.184C333.778 125.184 332.205 116.383 327.693 112.168C323.18 107.954 304.377 103.185 304.377 103.185C304.377 103.185 304.6 109.718 300.394 111.465C295.94 113.328 291.485 112.698 287.975 108.981C285.859 106.67 284.384 103.848 283.694 100.792C283.694 100.792 261.405 104.046 258.234 110.09C255.062 116.134 251.742 139.07 251.742 139.07L271.937 142.257L271.282 181.487L324.356 178.697L321.359 142.092L335.915 143.392L333.778 125.184Z" fill="#A535C5"/>
<path d="M275.96 143.358C275.992 143.067 275.992 142.772 275.96 142.481C275.96 141.909 275.911 141.09 275.853 140.071C275.745 138.051 275.571 135.252 275.34 132.164C275.108 129.076 274.884 126.277 274.694 124.257C274.594 123.247 274.512 122.427 274.445 121.864C274.432 121.568 274.379 121.276 274.288 120.995C274.245 121.286 274.245 121.581 274.288 121.872C274.288 122.444 274.338 123.263 274.396 124.273C274.503 126.302 274.677 129.101 274.909 132.189C275.141 135.277 275.364 138.076 275.555 140.096C275.646 141.106 275.737 141.926 275.803 142.489C275.811 142.785 275.864 143.078 275.96 143.358Z" fill="#263238"/>
<path d="M325.383 124.622C325.258 124.622 324.224 128.621 323.064 133.622C322.289 136.625 321.664 139.664 321.193 142.729C322.117 139.77 322.891 136.767 323.511 133.729C324.287 130.727 324.911 127.687 325.383 124.622Z" fill="#263238"/>
<path d="M260.37 108.6C260.37 108.683 261.33 108.807 262.854 109.287C264.787 109.915 266.596 110.873 268.202 112.119C269.798 113.379 271.168 114.902 272.251 116.623C273.079 117.956 273.427 118.867 273.51 118.834C273.481 118.604 273.416 118.381 273.319 118.171C273.104 117.579 272.841 117.006 272.533 116.457C270.449 112.802 267.001 110.123 262.945 109.005C262.341 108.833 261.723 108.714 261.098 108.649C260.861 108.588 260.613 108.571 260.37 108.6Z" fill="#263238"/>
<path d="M328.115 113.94C327.692 114.826 327.413 115.774 327.287 116.747C327.023 117.687 326.908 118.662 326.948 119.637C327.352 118.75 327.618 117.806 327.734 116.838C328.013 115.898 328.141 114.92 328.115 113.94Z" fill="#263238"/>
<path d="M255.319 139.657C255.319 139.657 262.903 169.721 263.723 172.288C264.543 174.855 266.017 181.793 273.336 182.853C283.222 184.294 321.557 180.907 321.557 180.907L313.832 172.114L279.728 164.464L273.932 142.605L255.319 139.657Z" fill="#FFA89C"/>
<path d="M314.197 166.956C314.067 167.177 313.983 167.422 313.948 167.676C313.781 168.346 313.687 169.032 313.667 169.722C313.583 172.024 314.183 174.3 315.389 176.263C316.034 177.346 316.828 178.332 317.749 179.194C318.513 179.897 319.415 180.433 320.398 180.767C321.06 180.979 321.749 181.097 322.443 181.115C322.697 181.143 322.953 181.12 323.197 181.048C322.287 180.935 321.389 180.738 320.514 180.46C319.589 180.104 318.745 179.566 318.03 178.879C317.162 178.026 316.405 177.066 315.778 176.022C314.624 174.122 314.006 171.945 313.99 169.722C313.981 168.016 314.28 166.973 314.197 166.956Z" fill="#EB996E"/>
<path d="M275.721 136.048C275.415 136.05 275.109 136.019 274.81 135.957L272.326 135.601C270.256 135.302 267.358 134.963 264.22 134.549C261.507 134.219 258.813 133.752 256.147 133.15C255.129 132.901 254.309 132.678 253.754 132.496C253.467 132.423 253.189 132.317 252.926 132.181C252.926 132.106 254.201 132.438 256.238 132.843C258.275 133.249 261.14 133.671 264.303 134.11C267.466 134.549 270.339 134.938 272.4 135.286C273.435 135.476 274.263 135.65 274.835 135.791C275.141 135.833 275.439 135.92 275.721 136.048Z" fill="#FF725E"/>
<path d="M274.164 126.037C273.907 126.084 273.646 126.098 273.386 126.079C272.881 126.079 272.152 126.079 271.249 126.012C269.453 125.921 266.969 125.723 264.236 125.383C261.504 125.044 259.045 124.621 257.281 124.265C256.395 124.083 255.683 123.926 255.195 123.802C254.935 123.767 254.683 123.689 254.45 123.57C255.421 123.631 256.387 123.761 257.339 123.959C259.111 124.232 261.57 124.605 264.286 124.944C267.002 125.284 269.478 125.532 271.274 125.698C272.244 125.741 273.21 125.854 274.164 126.037Z" fill="#FF725E"/>
<path d="M272.434 118.42C271.65 118.51 270.858 118.51 270.074 118.42C266.282 118.16 262.533 117.457 258.904 116.325C258.14 116.129 257.399 115.852 256.694 115.497C257.472 115.612 258.239 115.792 258.987 116.035C260.386 116.4 262.34 116.863 264.51 117.277C266.679 117.691 268.65 117.948 270.107 118.105C270.89 118.148 271.667 118.254 272.434 118.42Z" fill="#FF725E"/>
<path d="M286.584 107.565C285.72 107.916 284.828 108.193 283.917 108.393C282.261 108.823 279.951 109.353 277.393 109.867C274.834 110.38 272.491 110.769 270.769 111.018C269.858 111.195 268.932 111.292 268.004 111.307C268.891 111.044 269.796 110.845 270.711 110.711L277.269 109.436L283.818 108.087C284.725 107.841 285.649 107.666 286.584 107.565Z" fill="#FF725E"/>
<path d="M327.726 116.532C327.4 116.456 327.084 116.345 326.782 116.201L324.248 115.158C322.121 114.28 319.173 113.063 315.894 111.78C312.615 110.496 309.626 109.395 307.457 108.6L304.899 107.656C304.574 107.559 304.263 107.423 303.971 107.25C304.305 107.295 304.632 107.375 304.948 107.491C305.577 107.664 306.463 107.946 307.565 108.319C309.759 109.039 312.773 110.099 316.06 111.382C319.347 112.665 322.278 113.924 324.34 114.884C325.391 115.365 326.236 115.762 326.823 116.052C327.142 116.177 327.445 116.338 327.726 116.532Z" fill="#FF725E"/>
<path d="M325.383 124.249C325.21 124.248 325.038 124.229 324.869 124.191L323.396 123.959L318.014 123.015C313.468 122.187 307.184 121.119 300.196 120.274C296.701 119.869 293.365 119.579 290.318 119.397C287.271 119.215 284.522 119.173 282.228 119.215C281.078 119.215 280.034 119.264 279.115 119.289C278.196 119.314 277.418 119.347 276.772 119.397L275.29 119.471C275.117 119.491 274.942 119.491 274.768 119.471C274.936 119.425 275.108 119.397 275.282 119.388L276.755 119.231C277.401 119.157 278.188 119.09 279.107 119.049C280.026 119.008 281.069 118.916 282.22 118.908C284.53 118.834 287.287 118.867 290.343 118.999C293.398 119.132 296.743 119.438 300.278 119.827C307.275 120.655 313.526 121.823 318.096 122.7C320.357 123.139 322.236 123.528 323.454 123.777L324.911 124.1C325.074 124.129 325.232 124.179 325.383 124.249Z" fill="#FF725E"/>
<path d="M303.971 137.778C303.594 137.813 303.214 137.813 302.837 137.778C302.1 137.737 301.048 137.646 299.74 137.513C297.14 137.24 293.547 136.768 289.614 136.048C285.681 135.327 282.162 134.507 279.62 133.845C278.354 133.506 277.335 133.224 276.64 133.017C276.27 132.926 275.91 132.801 275.563 132.645C275.943 132.671 276.318 132.74 276.681 132.852L279.695 133.555C282.245 134.143 285.772 134.913 289.697 135.634C293.621 136.354 297.19 136.867 299.782 137.215L302.853 137.629C303.23 137.639 303.605 137.689 303.971 137.778Z" fill="#FF725E"/>
<path d="M321.98 138.06C319.18 138.303 316.369 138.403 313.559 138.358C310.755 138.453 307.947 138.406 305.147 138.217C307.944 137.968 310.752 137.869 313.559 137.919C316.367 137.814 319.178 137.861 321.98 138.06Z" fill="#FF725E"/>
<path d="M298.324 149.949C298.017 149.977 297.708 149.963 297.405 149.908C296.826 149.858 295.973 149.75 294.921 149.601C292.835 149.303 289.953 148.773 286.832 148.07C283.71 147.366 280.904 146.513 278.908 145.859C277.906 145.528 277.103 145.246 276.548 145.031C276.259 144.942 275.982 144.819 275.72 144.667C276.026 144.692 276.327 144.759 276.615 144.865L279.008 145.561C281.02 146.14 283.818 146.902 286.94 147.639C290.061 148.376 292.909 148.922 294.979 149.295L297.463 149.742C297.758 149.775 298.047 149.845 298.324 149.949Z" fill="#FF725E"/>
<path d="M317.823 150.81C316.937 150.899 316.044 150.899 315.157 150.81C313.501 150.752 311.241 150.587 308.749 150.264C306.256 149.941 304.013 149.519 302.406 149.163C301.529 149.011 300.669 148.772 299.84 148.451C300.726 148.518 301.607 148.654 302.473 148.856C304.087 149.138 306.323 149.502 308.807 149.825C311.291 150.148 313.543 150.363 315.174 150.504C316.063 150.543 316.948 150.646 317.823 150.81Z" fill="#FF725E"/>
<path d="M313.758 161.624C313.653 161.689 313.539 161.737 313.418 161.765C313.195 161.831 312.864 161.947 312.425 162.063C311.199 162.393 309.955 162.65 308.699 162.833C304.545 163.411 300.334 163.447 296.172 162.94C292.016 162.438 287.898 161.667 283.843 160.63C282.286 160.249 281.036 159.918 280.167 159.678C279.71 159.583 279.264 159.444 278.834 159.264C279.297 159.316 279.756 159.399 280.208 159.513L283.918 160.341C287.975 161.28 292.079 162.007 296.213 162.518C300.339 163.004 304.507 163.004 308.633 162.518C310.214 162.319 311.489 162.079 312.367 161.889C312.824 161.767 313.288 161.678 313.758 161.624Z" fill="#FF725E"/>
<path d="M332.892 130.55C331.504 130.775 330.101 130.888 328.695 130.889C327.289 131.039 325.869 131.005 324.472 130.79C325.86 130.565 327.264 130.451 328.67 130.451C330.076 130.301 331.495 130.335 332.892 130.55Z" fill="#FF725E"/>
<path d="M331.775 120.465C330.244 120.664 328.688 120.563 327.196 120.167C328.727 119.978 330.281 120.08 331.775 120.465Z" fill="#FF725E"/>
<path d="M296.718 150.67C296.677 150.595 297.588 150.14 298.83 149.113C299.547 148.508 300.207 147.837 300.8 147.109C302.247 145.312 303.264 143.208 303.773 140.957C303.974 140.037 304.087 139.1 304.112 138.159C304.153 136.553 303.938 135.559 304.021 135.542C304.124 135.759 304.191 135.991 304.22 136.23C304.284 136.502 304.329 136.779 304.352 137.058C304.396 137.423 304.421 137.791 304.427 138.159C304.446 139.126 304.36 140.092 304.17 141.04C303.692 143.37 302.642 145.544 301.115 147.366C300.492 148.106 299.789 148.775 299.02 149.361C298.729 149.589 298.425 149.8 298.109 149.991C297.876 150.143 297.633 150.279 297.381 150.396C297.177 150.524 296.953 150.617 296.718 150.67Z" fill="#263238"/>
<g opacity="0.3">
<path d="M303.814 142.605L300.593 147.391C298.415 150.114 295.37 152.01 291.965 152.764C293.457 153.288 295.061 153.409 296.615 153.117C298.169 152.825 299.618 152.13 300.819 151.101C302.019 150.071 302.927 148.745 303.453 147.254C303.979 145.763 304.103 144.159 303.814 142.605Z" fill="black"/>
</g>
<path d="M313.36 92.7194C316.434 92.988 319.52 92.3611 322.245 90.9144C318.237 88.4305 315.712 84.0753 314.486 79.5297C313.261 74.9841 311.688 67.2342 311.646 62.5312L304.311 95.1288C308.177 96.0022 312.217 95.6877 315.902 94.2263C315.389 94.1983 314.889 94.0466 314.447 93.7843C314.004 93.5219 313.631 93.1566 313.36 92.7194Z" fill="black"/>
<path d="M292.429 96.6604C290.834 92.9977 290.223 88.982 290.657 85.0107L275.869 79.4053C275.189 83.4278 273.572 87.2339 271.15 90.5168C270.247 91.7422 269.171 93.1663 269.593 94.6567C269.778 95.1514 270.085 95.5911 270.486 95.9344C270.888 96.2776 271.37 96.5132 271.887 96.619C272.928 96.7971 273.992 96.7971 275.033 96.619L273.145 98.6806C279.504 97.4581 285.955 96.7822 292.429 96.6604Z" fill="black"/>
<path d="M293.679 47.9421C289.018 47.4619 285.077 49.507 281.359 52.3552C277.654 55.2858 274.933 59.2782 273.56 63.7979C272.014 68.5324 272.049 73.6409 273.659 78.3538C274.482 80.6899 275.769 82.835 277.444 84.6594C279.119 86.4838 281.147 87.9497 283.404 88.9685C289.598 91.6181 297.207 90.0532 302.307 85.6566C307.407 81.26 310.032 74.3381 309.85 67.5901C309.792 62.9095 308.259 58.3664 305.47 54.6074C304.063 52.7542 302.291 51.21 300.263 50.0705C298.235 48.931 295.994 48.2207 293.679 47.9835" fill="black"/>
<path d="M281.616 64.4853C282.17 62.6804 281.781 60.7263 281.922 58.8385C282.245 54.6986 285.35 51.1632 289.076 49.3085C292.553 47.578 296.933 47.6525 301.322 48.7289C304.368 49.436 307.149 50.9987 309.337 53.2331C310.737 54.7533 311.753 56.5872 312.299 58.581C312.845 60.5749 312.905 62.6705 312.475 64.6923L291.204 63.0364C289.434 64.9009 287.37 66.4617 285.093 67.6565C284.426 68.0075 283.678 68.1787 282.924 68.1533C282.536 68.1328 282.163 67.9986 281.851 67.7675C281.539 67.5363 281.301 67.2184 281.169 66.8534C280.92 66.0916 281.343 65.2719 281.616 64.4853Z" fill="black"/>
<path d="M302.133 54.5163L283.992 59.6167C283.138 59.7297 282.357 60.159 281.803 60.8196C281.25 61.4803 280.964 62.3243 281.003 63.1853L283.835 102.986C284.029 105.703 285.111 108.281 286.915 110.322L288.819 112.467C293.158 117.368 301.239 116.317 303.905 110.347C304.066 110.007 304.183 109.648 304.253 109.279C304.312 108.978 304.351 108.674 304.369 108.368C304.556 106.354 304.531 104.325 304.294 102.316C304.244 98.7636 304.203 97.3063 304.203 97.3477C304.203 97.3891 311.655 95.8987 312.963 86.0789C313.609 81.1855 313.153 73.2204 312.566 66.7042C312.044 60.8421 307.962 53.738 302.133 54.5163Z" fill="#FFA89C"/>
<path d="M309.08 72.9635C309.089 73.2913 308.971 73.6099 308.75 73.8524C308.529 74.0948 308.223 74.2422 307.896 74.2635C307.737 74.2806 307.577 74.2656 307.424 74.2196C307.271 74.1736 307.129 74.0973 307.006 73.9954C306.884 73.8935 306.783 73.768 306.709 73.6263C306.636 73.4846 306.592 73.3296 306.579 73.1705C306.566 72.8443 306.68 72.5257 306.898 72.2828C307.116 72.0399 307.421 71.8919 307.747 71.8706C307.906 71.8523 308.068 71.8663 308.222 71.9117C308.377 71.9571 308.52 72.033 308.644 72.1349C308.769 72.2369 308.871 72.3627 308.946 72.5051C309.021 72.6474 309.066 72.8033 309.08 72.9635Z" fill="#263238"/>
<path d="M310.951 70.8935C310.794 71.0591 309.825 70.3802 308.467 70.4216C307.109 70.463 306.149 71.1667 305.983 71.0011C305.818 70.8356 306.058 70.6286 306.48 70.3056C307.052 69.8862 307.741 69.6547 308.451 69.6433C309.155 69.621 309.848 69.824 310.429 70.2228C310.877 70.5292 311.026 70.819 310.951 70.8935Z" fill="#263238"/>
<path d="M296.296 73.6345C296.307 73.9615 296.191 74.2801 295.971 74.5228C295.752 74.7654 295.446 74.9131 295.12 74.9344C294.961 74.9515 294.8 74.9367 294.647 74.8907C294.493 74.8448 294.351 74.7686 294.228 74.6668C294.104 74.565 294.002 74.4395 293.928 74.2978C293.854 74.1561 293.809 74.0009 293.795 73.8415C293.784 73.5145 293.9 73.1959 294.12 72.9532C294.339 72.7105 294.644 72.5629 294.971 72.5416C295.13 72.5244 295.291 72.5393 295.444 72.5852C295.597 72.6312 295.74 72.7073 295.863 72.8092C295.987 72.911 296.089 73.0364 296.163 73.1782C296.237 73.3199 296.282 73.4751 296.296 73.6345Z" fill="#263238"/>
<path d="M297.679 71.4983C297.529 71.6638 296.561 70.9932 295.195 71.0263C293.828 71.0594 292.876 71.7715 292.711 71.6059C292.545 71.4403 292.785 71.2416 293.216 70.9104C293.788 70.4909 294.477 70.2595 295.186 70.248C295.888 70.2275 296.578 70.4304 297.157 70.8276C297.604 71.1339 297.753 71.4237 297.679 71.4983Z" fill="#263238"/>
<path d="M302.845 81.384C303.552 81.1406 304.286 80.9876 305.031 80.9286C305.379 80.9286 305.702 80.8044 305.751 80.5726C305.77 80.2151 305.68 79.8603 305.495 79.5541L304.402 76.9543C302.887 73.2532 301.785 70.2063 301.918 70.1483C302.05 70.0903 303.416 73.038 304.932 76.7721L305.975 79.3886C306.205 79.7986 306.281 80.277 306.19 80.7382C306.146 80.8632 306.073 80.9758 305.976 81.0665C305.88 81.1573 305.763 81.2236 305.635 81.2598C305.447 81.3152 305.252 81.3458 305.056 81.3509C304.323 81.4553 303.58 81.4664 302.845 81.384Z" fill="#263238"/>
<path d="M304.203 97.3392C299.6 97.5296 295.034 96.4405 291.013 94.1929C291.013 94.1929 294.482 100.875 304.261 99.6989L304.203 97.3392Z" fill="#EB996E"/>
<path d="M302.365 84.6548C302.098 84.3413 301.756 84.1008 301.371 83.9559C300.985 83.8111 300.57 83.7667 300.162 83.8268C299.867 83.8547 299.58 83.9425 299.32 84.0849C299.059 84.2272 298.83 84.4212 298.647 84.6548C298.465 84.8894 298.36 85.1752 298.348 85.4722C298.336 85.7691 298.418 86.0624 298.581 86.3108C298.806 86.544 299.095 86.706 299.411 86.7767C299.728 86.8473 300.058 86.8235 300.361 86.7082C300.996 86.4669 301.576 86.1009 302.067 85.6318C302.212 85.5175 302.338 85.3805 302.439 85.2261C302.488 85.151 302.514 85.0632 302.514 84.9736C302.514 84.884 302.488 84.7962 302.439 84.7211" fill="#EB996E"/>
<path d="M298.904 82.4194C299.119 82.4194 299.161 83.8684 300.444 84.9034C301.727 85.9383 303.284 85.7313 303.3 85.9135C303.317 86.0957 302.961 86.2033 302.299 86.2364C301.44 86.2731 300.596 86.0063 299.914 85.483C299.263 84.9773 298.835 84.2376 298.722 83.4213C298.647 82.7837 298.796 82.4194 298.904 82.4194Z" fill="#263238"/>
<path d="M297.803 67.4078C297.679 67.7804 296.321 67.6397 294.748 67.8798C293.174 68.1199 291.899 68.5753 291.676 68.2524C291.576 68.0951 291.792 67.7473 292.297 67.3747C292.976 66.9273 293.75 66.6439 294.557 66.5467C295.367 66.4292 296.192 66.5058 296.967 66.7703C297.554 66.9524 297.852 67.234 297.803 67.4078Z" fill="#263238"/>
<path d="M310.396 64.9985C310.173 65.3131 309.229 64.9985 308.111 64.9985C306.993 64.9985 306.049 65.2635 305.826 64.9488C305.726 64.7915 305.867 64.4852 306.273 64.1788C306.818 63.8139 307.459 63.6191 308.115 63.6191C308.771 63.6191 309.412 63.8139 309.957 64.1788C310.363 64.5348 310.504 64.8495 310.396 64.9985Z" fill="#263238"/>
<path d="M278.031 61.8854C279.571 56.1558 287.395 47.9836 293.323 48.1244L303.019 53.3572C302.785 54.9808 302.117 56.511 301.085 57.7862C300.053 59.0614 298.696 60.0342 297.157 60.602C295.501 61.1899 293.514 61.43 292.586 62.8955C291.659 64.361 292.33 66.5138 291.452 68.0704C290.243 70.2231 286.666 70.2894 285.789 72.5994C285.4 73.6013 285.681 74.777 285.275 75.7789C284.746 77.1119 281.508 78.9252 280.117 78.5526C278.726 78.18 278.618 75.8451 278.113 74.6446C277.486 73.2901 277.345 71.7603 277.716 70.3142C278.188 67.5156 277.294 64.6012 278.031 61.8854Z" fill="black"/>
<path d="M284.216 79.5048C284.216 78.7762 283.305 77.0788 282.56 77.0209C280.63 76.7725 277.178 77.0209 277.269 81.8977C277.41 88.5712 284.075 87.0643 284.083 86.8656C284.091 86.6668 284.282 82.0219 284.216 79.5048Z" fill="#FFA89C"/>
<path d="M282.013 84.3483C282.013 84.3483 281.897 84.4311 281.707 84.5305C281.428 84.6424 281.116 84.6424 280.837 84.5305C280.125 84.2904 279.513 83.1809 279.455 81.9803C279.425 81.4135 279.524 80.8473 279.745 80.3243C279.799 80.1169 279.902 79.9256 280.046 79.7669C280.191 79.6083 280.371 79.487 280.572 79.4136C280.706 79.374 280.849 79.3831 280.976 79.4392C281.104 79.4953 281.207 79.5948 281.268 79.7199C281.359 79.9021 281.326 80.0345 281.359 80.0511C281.392 80.0677 281.5 79.9352 281.442 79.662C281.399 79.4976 281.303 79.352 281.169 79.248C281.078 79.1785 280.973 79.1287 280.862 79.1016C280.751 79.0746 280.635 79.0708 280.523 79.0906C280.251 79.1526 279.999 79.2822 279.791 79.4675C279.582 79.6528 279.424 79.8877 279.331 80.1505C279.057 80.7318 278.932 81.3719 278.966 82.0134C279.032 83.363 279.745 84.605 280.713 84.8617C280.893 84.9116 281.083 84.9196 281.266 84.8851C281.45 84.8507 281.623 84.7747 281.773 84.663C282.005 84.5139 282.038 84.3649 282.013 84.3483Z" fill="#EB996E"/>
<path d="M276.491 60.2294C276.375 58.1429 273.692 56.9175 271.63 56.6112C269.536 56.3896 267.432 56.937 265.71 58.1512C264.684 58.8053 263.657 59.7078 263.5 60.9167C263.342 62.1255 264.584 63.4751 265.694 62.9701C265.155 63.1922 264.671 63.5307 264.279 63.9613C263.886 64.3919 263.593 64.904 263.42 65.461C263.248 66.0181 263.201 66.6062 263.283 67.1834C263.365 67.7607 263.573 68.3127 263.893 68.8002C264.213 69.2876 264.636 69.6984 265.133 70.0031C265.63 70.3079 266.188 70.4991 266.768 70.563C267.347 70.627 267.934 70.5622 268.485 70.3732C269.036 70.1842 269.539 69.8757 269.958 69.4697C269.504 71.4373 268.391 73.1903 266.803 74.4376C268.54 74.5656 270.281 74.2346 271.85 73.4778C273.419 72.721 274.761 71.5651 275.742 70.1259C276.724 68.6866 277.309 67.0147 277.441 65.2778C277.572 63.5408 277.244 61.7998 276.491 60.2294Z" fill="black"/>
<path d="M264.874 88.811C264.874 88.4963 265.743 88.3473 266.927 87.983C268.439 87.5633 269.858 86.861 271.109 85.913C272.334 84.9298 273.36 83.7213 274.131 82.3527C274.768 81.2846 275.108 80.5146 275.422 80.5643C275.737 80.614 275.919 81.4999 275.588 82.924C275.095 84.7994 274.002 86.4619 272.475 87.6579C270.949 88.8539 269.073 89.5176 267.134 89.5479C265.669 89.523 264.841 89.1008 264.874 88.811Z" fill="black"/>
<path d="M272.566 71.1175C272.327 70.4845 272.198 69.8151 272.185 69.1386C271.952 65.8514 272.826 62.5808 274.669 59.8487C275.017 59.2665 275.462 58.7484 275.985 58.3169C274.709 60.1739 273.723 62.2149 273.063 64.3694C272.556 66.5805 272.388 68.8559 272.566 71.1175Z" fill="#FF725E"/>
<path d="M300.957 51.4529C301.744 54.119 306.091 57.3233 308.037 59.3187C311.746 63.1109 312.516 64.4025 313.071 73.3944C314.495 70.1818 315.555 67.0521 315.182 63.558C314.872 60.0204 313.282 56.7173 310.711 54.2681C309.416 53.0726 307.86 52.195 306.167 51.705C304.474 51.2149 302.691 51.1258 300.957 51.4446" fill="black"/>
<path d="M344.459 129.308C344.459 129.308 340.005 147.821 338.175 155.803C336.262 164.306 332.007 183.598 320.713 180.783C312.118 178.663 314.031 167.535 314.031 167.535L321.359 142.092L328.148 142.862L334.383 127.511L341.106 120.432L344.459 129.308Z" fill="#FFA89C"/>
<path d="M317.028 168.198C316.65 166.851 316.574 165.438 316.805 164.058C317.089 162.58 317.627 161.163 318.394 159.868C319.382 158.29 320.49 156.79 321.706 155.381C322.929 153.95 324.036 152.424 325.018 150.819C325.8 149.496 326.47 148.112 327.022 146.679C327.391 145.713 327.7 144.726 327.949 143.723C328.061 143.359 328.13 142.984 328.156 142.605C328.001 142.95 327.874 143.308 327.775 143.673C327.552 144.36 327.221 145.329 326.716 146.554C326.129 147.953 325.44 149.306 324.654 150.603C323.658 152.176 322.551 153.676 321.342 155.091C320.113 156.519 319.005 158.048 318.03 159.661C317.252 161.003 316.727 162.477 316.482 164.008C316.323 165.045 316.368 166.102 316.614 167.121C316.683 167.404 316.774 167.681 316.888 167.949C316.962 168.115 317.012 168.206 317.028 168.198Z" fill="#EB996E"/>
<path d="M333.861 128.952C333.861 128.621 334.027 123.23 334.135 121.823C334.221 120.932 334.471 120.065 334.871 119.264C335.026 118.971 335.245 118.717 335.512 118.522C335.78 118.327 336.088 118.195 336.414 118.138C336.74 118.08 337.075 118.098 337.394 118.19C337.712 118.282 338.004 118.446 338.25 118.668L338.374 118.776C339.013 117.525 339.92 116.431 341.032 115.572C342.613 114.537 343.913 113.833 345.271 114.644C345.642 114.828 345.958 115.106 346.188 115.45C346.417 115.795 346.552 116.193 346.579 116.607C346.579 116.607 348.591 116.333 349.46 117.145C350.33 117.956 349.46 120.407 349.46 120.407C349.46 120.407 351.249 119.86 351.688 121.169C351.907 122.073 351.771 123.028 351.307 123.835C351.307 123.835 352.714 124.265 352.88 125.3C353.046 126.335 351.472 127.47 351.472 127.47L346.563 131.378C345.908 133.418 344.572 135.172 342.779 136.346C339.367 137.654 333.861 128.952 333.861 128.952Z" fill="#FFA89C"/>
<path d="M337.604 123.081C337.653 123.081 337.645 123.288 337.496 123.537C337.311 123.867 337.019 124.124 336.668 124.265C336.303 124.388 335.907 124.388 335.542 124.265C335.269 124.174 335.136 124.042 335.161 123.984C335.186 123.926 335.832 124.075 336.511 123.81C337.19 123.545 337.488 123.023 337.604 123.081Z" fill="#EB996E"/>
<path d="M341.495 118.262C341.421 118.362 340.949 118.03 340.866 117.385C340.783 116.739 341.139 116.3 341.238 116.374C341.338 116.449 341.238 116.846 341.305 117.327C341.371 117.807 341.586 118.188 341.495 118.262Z" fill="#EB996E"/>
<path d="M349.701 120.357C349.701 120.357 349.353 120.862 348.616 121.5C347.643 122.305 346.622 123.051 345.561 123.736C344.989 124.187 344.32 124.498 343.607 124.646C343.3 124.698 342.986 124.667 342.695 124.558C342.404 124.449 342.148 124.266 341.951 124.025C341.825 123.853 341.747 123.651 341.724 123.439C341.701 123.227 341.733 123.012 341.818 122.817C341.951 122.552 342.116 122.485 342.133 122.51C342.149 122.535 342.042 122.643 341.975 122.883C341.937 123.049 341.938 123.222 341.977 123.389C342.015 123.555 342.091 123.711 342.199 123.843C342.377 124.021 342.597 124.15 342.839 124.22C343.081 124.289 343.336 124.296 343.582 124.241C344.225 124.08 344.826 123.783 345.345 123.371C346.579 122.543 347.68 121.823 348.45 121.252C348.837 120.914 349.256 120.614 349.701 120.357Z" fill="#EB996E"/>
<path d="M351.274 123.81C349.784 124.735 348.219 125.532 346.596 126.195C345.972 126.542 345.279 126.746 344.567 126.791C344.252 126.807 343.938 126.728 343.667 126.566C343.396 126.404 343.179 126.165 343.044 125.88C342.994 125.765 342.969 125.641 342.969 125.516C342.969 125.39 342.994 125.267 343.044 125.151C343.116 124.982 343.241 124.84 343.4 124.746C343.673 124.597 343.847 124.679 343.838 124.696C343.83 124.713 343.681 124.696 343.499 124.886C343.387 124.989 343.311 125.125 343.283 125.274C343.254 125.424 343.275 125.578 343.342 125.714C343.466 125.925 343.648 126.096 343.867 126.206C344.086 126.317 344.332 126.361 344.575 126.335C345.225 126.268 345.853 126.068 346.422 125.748C347.984 124.971 349.606 124.323 351.274 123.81Z" fill="#EB996E"/>
<path d="M348.889 128.223C348.889 128.272 348.624 128.479 348.061 128.612C347.741 128.687 347.413 128.72 347.084 128.711C346.662 128.72 346.245 128.626 345.867 128.438C345.748 128.366 345.651 128.262 345.588 128.137C345.525 128.013 345.498 127.873 345.511 127.734C345.539 127.512 345.631 127.302 345.776 127.13C345.982 126.874 346.218 126.643 346.48 126.443C346.927 126.111 347.258 126.004 347.307 126.054C347.357 126.103 347.076 126.31 346.711 126.683C346.498 126.894 346.304 127.124 346.132 127.37C345.941 127.643 345.875 127.925 346.132 128.065C346.447 128.21 346.787 128.292 347.134 128.306C347.434 128.335 347.736 128.335 348.036 128.306C348.549 128.256 348.864 128.165 348.889 128.223Z" fill="#EB996E"/>
<path d="M344.227 129.043C344.254 128.291 344.069 127.547 343.692 126.896C343.316 126.245 342.764 125.712 342.099 125.36C341.435 125.008 340.684 124.85 339.934 124.904C339.184 124.958 338.464 125.222 337.857 125.666C337.25 126.11 336.78 126.716 336.501 127.415C336.222 128.113 336.145 128.876 336.279 129.616C336.414 130.356 336.753 131.044 337.26 131.6C337.766 132.156 338.419 132.558 339.144 132.76L339.102 133.878L340.195 134.706L339.044 135.352L338.995 136.751L340.088 137.579L338.937 138.225L338.895 139.426L339.558 139.922L338.862 140.312V141.015L339.69 141.959L341.346 140.974L341.661 132.694C342.402 132.408 343.041 131.908 343.498 131.258C343.955 130.608 344.209 129.837 344.227 129.043ZM340.328 125.963C340.555 125.971 340.775 126.047 340.959 126.18C341.144 126.313 341.285 126.498 341.364 126.711C341.443 126.925 341.458 127.157 341.405 127.378C341.353 127.599 341.236 127.8 341.07 127.955C340.903 128.11 340.694 128.213 340.47 128.249C340.245 128.285 340.015 128.254 339.808 128.16C339.6 128.065 339.426 127.911 339.307 127.718C339.187 127.524 339.127 127.3 339.135 127.072C339.141 126.921 339.176 126.772 339.239 126.635C339.301 126.497 339.391 126.373 339.502 126.27C339.612 126.167 339.742 126.087 339.884 126.034C340.026 125.982 340.176 125.957 340.328 125.963Z" fill="#263238"/>
<path d="M340.328 125.962C340.328 125.962 340.228 125.962 340.055 126.012C339.807 126.071 339.585 126.211 339.425 126.41C339.302 126.572 339.225 126.765 339.204 126.967C339.182 127.17 339.217 127.375 339.305 127.559C339.392 127.743 339.529 127.899 339.699 128.011C339.87 128.123 340.068 128.185 340.272 128.192C340.475 128.198 340.677 128.149 340.854 128.048C341.032 127.948 341.178 127.8 341.277 127.622C341.376 127.444 341.424 127.242 341.416 127.038C341.408 126.835 341.343 126.637 341.23 126.468C341.086 126.257 340.876 126.1 340.634 126.02C340.469 125.971 340.361 125.971 340.361 125.954H340.402C340.474 125.945 340.546 125.945 340.618 125.954C340.875 126.022 341.1 126.177 341.255 126.393C341.372 126.555 341.447 126.744 341.471 126.942C341.496 127.14 341.47 127.342 341.396 127.527C341.309 127.748 341.155 127.936 340.957 128.066C340.748 128.209 340.498 128.282 340.245 128.273C339.989 128.263 339.743 128.173 339.541 128.016C339.356 127.865 339.218 127.664 339.144 127.436C339.087 127.246 339.078 127.044 339.117 126.85C339.156 126.655 339.242 126.472 339.367 126.318C339.543 126.116 339.782 125.978 340.046 125.929C340.115 125.923 340.184 125.923 340.253 125.929L340.328 125.962Z" fill="#263238"/>
<path d="M344.228 129.043V129.126V129.366C344.195 129.67 344.129 129.97 344.029 130.26C343.863 130.728 343.61 131.161 343.284 131.535C342.839 132.052 342.269 132.445 341.628 132.678C341.545 134.822 341.446 137.646 341.33 140.958L339.674 141.951L338.846 141.007C338.846 140.784 338.846 140.544 338.846 140.303L339.541 139.914V139.997L338.87 139.492C338.87 139.119 338.871 138.664 338.912 138.291L340.063 137.654V137.737L338.97 136.909V136.404C338.97 136.056 338.97 135.716 339.011 135.377L340.162 134.731V134.814L339.069 133.986C339.069 133.605 339.069 133.233 339.111 132.868V132.918C338.494 132.741 337.927 132.424 337.455 131.991C337.225 131.782 337.022 131.546 336.85 131.287C336.437 130.684 336.197 129.98 336.154 129.25C336.112 128.521 336.27 127.793 336.61 127.147C336.914 126.557 337.36 126.051 337.907 125.675C338.454 125.298 339.085 125.063 339.745 124.99C340.405 124.917 341.073 125.009 341.689 125.256C342.305 125.504 342.85 125.9 343.275 126.41C343.628 126.823 343.89 127.305 344.045 127.826L344.095 127.975V128.124C344.095 128.223 344.136 128.306 344.145 128.397C344.153 128.488 344.186 128.703 344.186 128.819V128.952C344.19 128.979 344.19 129.007 344.186 129.035V128.687C344.186 128.571 344.186 128.43 344.136 128.265C344.124 128.175 344.105 128.086 344.078 128V127.851L344.029 127.702C343.873 127.189 343.61 126.715 343.259 126.311C342.792 125.765 342.189 125.354 341.512 125.118C340.796 124.878 340.026 124.847 339.293 125.029C338.56 125.21 337.894 125.597 337.372 126.143C336.851 126.69 336.496 127.373 336.35 128.114C336.203 128.855 336.27 129.622 336.544 130.326C336.647 130.618 336.786 130.896 336.958 131.154C337.127 131.408 337.327 131.638 337.554 131.842C338.013 132.266 338.566 132.576 339.169 132.744H339.21C339.21 133.117 339.21 133.489 339.169 133.862L340.27 134.69H340.328L340.261 134.731L339.111 135.369V135.327C339.111 135.667 339.111 136.015 339.111 136.354V136.727L340.204 137.555L340.261 137.604H340.195L339.044 138.25C339.044 138.664 339.044 139.078 339.003 139.451L339.674 139.947L339.732 139.997H339.665L338.97 140.395C338.97 140.635 338.97 140.875 338.97 141.09L339.798 142.034H339.74L341.396 141.049V141.09C341.528 137.778 341.636 134.93 341.719 132.81C342.338 132.579 342.89 132.198 343.325 131.701C343.646 131.329 343.898 130.903 344.07 130.442C344.174 130.153 344.246 129.853 344.285 129.548V129.316C344.29 129.222 344.27 129.128 344.228 129.043Z" fill="#263238"/>
<path d="M343.814 128.819C343.842 128.065 343.658 127.318 343.282 126.664C342.905 126.01 342.352 125.475 341.686 125.121C341.02 124.767 340.267 124.607 339.515 124.661C338.762 124.715 338.04 124.98 337.43 125.425C336.821 125.871 336.35 126.479 336.071 127.18C335.791 127.881 335.715 128.646 335.851 129.388C335.986 130.131 336.328 130.82 336.837 131.377C337.347 131.933 338.003 132.336 338.73 132.537L338.688 133.646L339.781 134.474L338.631 135.112L338.581 136.511L339.674 137.339L338.523 137.977L338.473 139.177L339.144 139.682L338.44 140.071V140.767L339.268 141.711L340.924 140.726L341.239 132.446C341.978 132.163 342.617 131.668 343.075 131.023C343.534 130.377 343.791 129.61 343.814 128.819ZM339.914 125.739C340.065 125.744 340.214 125.78 340.351 125.842C340.489 125.905 340.613 125.995 340.716 126.105C340.819 126.216 340.899 126.346 340.952 126.488C341.005 126.629 341.029 126.78 341.023 126.931C341.017 127.083 340.982 127.231 340.918 127.368C340.855 127.506 340.765 127.629 340.654 127.732C340.543 127.835 340.413 127.914 340.271 127.967C340.129 128.019 339.978 128.043 339.827 128.037C339.676 128.031 339.527 127.995 339.39 127.932C339.253 127.868 339.129 127.779 339.026 127.667C338.924 127.556 338.844 127.426 338.792 127.284C338.739 127.142 338.716 126.991 338.722 126.84C338.735 126.536 338.867 126.25 339.091 126.044C339.314 125.837 339.61 125.728 339.914 125.739Z" fill="#FF725E"/>
<path d="M339.914 125.739C339.82 125.735 339.726 125.735 339.632 125.739C339.387 125.799 339.168 125.939 339.011 126.137C338.894 126.281 338.815 126.452 338.782 126.634C338.749 126.816 338.762 127.004 338.821 127.18C338.891 127.396 339.025 127.585 339.206 127.722C339.386 127.86 339.604 127.939 339.831 127.95C340.056 127.953 340.277 127.89 340.465 127.768C340.654 127.645 340.802 127.469 340.891 127.263C340.951 127.119 340.98 126.964 340.977 126.808C340.973 126.652 340.937 126.499 340.871 126.358C340.805 126.216 340.709 126.091 340.592 125.989C340.474 125.886 340.336 125.81 340.187 125.764C340.097 125.737 340.006 125.715 339.914 125.698H339.988C340.057 125.689 340.127 125.689 340.195 125.698C340.456 125.762 340.685 125.918 340.841 126.137C341.02 126.396 341.09 126.716 341.034 127.026C340.978 127.337 340.802 127.612 340.543 127.793C340.331 127.937 340.079 128.01 339.823 128C339.569 127.986 339.326 127.893 339.127 127.735C338.964 127.624 338.833 127.473 338.746 127.296C338.697 127.138 338.681 126.971 338.7 126.806C338.719 126.641 338.772 126.482 338.856 126.339C338.941 126.196 339.054 126.073 339.189 125.977C339.324 125.88 339.478 125.814 339.641 125.781C339.712 125.769 339.785 125.769 339.856 125.781L339.914 125.739Z" fill="#263238"/>
<path d="M343.813 128.819V128.902V129.134C343.78 129.441 343.714 129.744 343.615 130.036C343.442 130.501 343.19 130.933 342.87 131.311C342.42 131.823 341.851 132.215 341.214 132.454C341.139 134.599 341.04 137.422 340.924 140.734L339.268 141.719L338.44 140.775C338.44 140.56 338.44 140.32 338.44 140.08L339.135 139.682V139.765L338.473 139.268C338.473 138.888 338.473 138.482 338.514 138.068L339.665 137.422V137.505L338.572 136.677V136.304C338.572 135.965 338.572 135.617 338.614 135.278L339.765 134.64V134.723L338.672 133.895C338.672 133.522 338.672 133.15 338.713 132.777V132.827C338.094 132.657 337.525 132.339 337.057 131.899C336.825 131.691 336.619 131.454 336.444 131.196C336.271 130.937 336.13 130.659 336.022 130.368C335.825 129.857 335.732 129.312 335.751 128.764C335.77 128.217 335.899 127.68 336.131 127.184C336.363 126.688 336.693 126.244 337.102 125.879C337.51 125.514 337.987 125.236 338.506 125.06C339.355 124.777 340.273 124.777 341.123 125.06C341.784 125.238 342.391 125.58 342.886 126.054C343.236 126.469 343.498 126.951 343.656 127.47L343.706 127.627V127.776C343.706 127.867 343.747 127.958 343.755 128.041C343.764 128.124 343.797 128.356 343.797 128.463V128.819C343.799 128.789 343.799 128.759 343.797 128.728V128.472C343.797 128.356 343.797 128.215 343.755 128.041C343.714 127.867 343.714 127.875 343.698 127.776V127.635L343.648 127.478C343.485 126.966 343.22 126.493 342.87 126.087C342.407 125.54 341.802 125.13 341.123 124.903C340.29 124.621 339.388 124.621 338.556 124.903C337.594 125.242 336.796 125.931 336.32 126.832C336.061 127.334 335.91 127.884 335.879 128.448C335.848 129.012 335.936 129.576 336.138 130.103C336.249 130.393 336.39 130.671 336.56 130.931C336.729 131.184 336.929 131.415 337.156 131.618C337.616 132.041 338.17 132.35 338.771 132.52H338.746V132.562C338.746 132.926 338.746 133.299 338.746 133.68V133.638C339.111 133.903 339.475 134.185 339.839 134.466L339.905 134.516H339.839L338.688 135.162V135.12C338.688 135.46 338.688 135.799 338.647 136.147C338.647 136.271 338.647 136.395 338.647 136.511L339.74 137.339H339.806L339.74 137.381L338.589 138.018C338.589 138.432 338.589 138.846 338.539 139.219L339.21 139.724L339.268 139.765H339.202L338.498 140.154C338.498 140.394 338.498 140.635 338.498 140.85L339.326 141.802H339.268L340.924 140.817V140.858C341.048 137.546 341.164 134.698 341.247 132.578C341.867 132.341 342.421 131.957 342.861 131.461C343.18 131.087 343.432 130.661 343.606 130.202C343.711 129.916 343.783 129.618 343.822 129.316V129.076C343.798 129.038 343.785 128.994 343.783 128.949C343.782 128.904 343.792 128.859 343.813 128.819Z" fill="#263238"/>
<path d="M343.333 128.852C343.321 128.574 343.288 128.297 343.234 128.024C343.166 127.693 343.045 127.374 342.878 127.08C342.67 126.688 342.389 126.34 342.05 126.054C341.596 125.677 341.053 125.423 340.474 125.316C339.894 125.209 339.296 125.252 338.738 125.441C338.416 125.54 338.112 125.688 337.835 125.88C337.693 125.978 337.557 126.086 337.43 126.203C337.303 126.324 337.184 126.454 337.074 126.592C336.607 127.174 336.34 127.89 336.311 128.636C336.283 129.381 336.495 130.116 336.916 130.732C337.02 130.878 337.13 131.019 337.248 131.154C337.366 131.279 337.494 131.395 337.628 131.502C337.877 131.712 338.156 131.882 338.456 132.007C339.036 132.242 339.667 132.319 340.286 132.23C340.823 132.157 341.334 131.955 341.777 131.643C342.145 131.383 342.462 131.057 342.712 130.682C342.896 130.398 343.038 130.088 343.134 129.763C343.211 129.492 343.266 129.215 343.3 128.935V129.167C343.3 129.241 343.3 129.333 343.3 129.44C343.3 129.548 343.259 129.664 343.217 129.804C343.127 130.137 342.985 130.453 342.795 130.74C342.549 131.125 342.231 131.46 341.859 131.725C341.407 132.047 340.885 132.257 340.336 132.338C339.704 132.433 339.058 132.359 338.465 132.123C338.144 131.996 337.845 131.82 337.579 131.601C337.44 131.489 337.308 131.37 337.181 131.245C337.059 131.111 336.949 130.967 336.85 130.815C336.419 130.186 336.201 129.435 336.23 128.673C336.258 127.911 336.531 127.179 337.007 126.584C337.12 126.441 337.242 126.305 337.372 126.178C337.505 126.061 337.646 125.953 337.794 125.855C338.198 125.574 338.657 125.381 339.141 125.29C339.625 125.199 340.122 125.211 340.601 125.325C341.144 125.445 341.65 125.695 342.075 126.054C342.415 126.348 342.696 126.705 342.903 127.105C343.064 127.407 343.181 127.731 343.25 128.066C343.277 128.188 343.294 128.313 343.3 128.438C343.307 128.529 343.307 128.621 343.3 128.712V128.935L343.333 128.852Z" fill="#263238"/>
<path d="M341.23 126.948C341.22 126.84 341.203 126.732 341.181 126.625C341.119 126.332 340.954 126.071 340.717 125.888C340.557 125.76 340.37 125.669 340.171 125.623C339.942 125.575 339.705 125.59 339.483 125.665C339.236 125.739 339.018 125.889 338.862 126.095C338.692 126.31 338.596 126.575 338.589 126.849C338.578 127.119 338.652 127.385 338.801 127.611C338.949 127.837 339.165 128.01 339.417 128.107C339.621 128.188 339.841 128.219 340.059 128.195C340.276 128.172 340.485 128.097 340.667 127.975C340.912 127.804 341.093 127.556 341.181 127.271C341.213 127.165 341.238 127.057 341.255 126.948C341.255 126.948 341.255 126.948 341.255 127.039C341.25 127.123 341.236 127.206 341.214 127.288C341.134 127.588 340.952 127.851 340.7 128.033C340.523 128.159 340.319 128.241 340.104 128.273C339.846 128.314 339.581 128.28 339.34 128.176C339.1 128.072 338.894 127.902 338.746 127.685C338.577 127.443 338.49 127.152 338.498 126.857C338.51 126.556 338.617 126.266 338.804 126.029C338.976 125.812 339.21 125.654 339.475 125.574C339.716 125.503 339.971 125.503 340.212 125.574C340.421 125.623 340.617 125.719 340.783 125.855C341.031 126.066 341.193 126.361 341.239 126.683C341.25 126.766 341.25 126.849 341.239 126.931C341.23 126.923 341.23 126.948 341.23 126.948Z" fill="#263238"/>
<path d="M340.402 140.916C340.402 140.916 340.402 139.02 340.51 136.693C340.618 134.367 340.692 132.471 340.717 132.471C340.742 132.471 340.717 134.359 340.609 136.693C340.502 139.028 340.402 140.916 340.402 140.916Z" fill="#263238"/>
<path d="M340.262 126.137C340.178 126.177 340.086 126.199 339.992 126.199C339.899 126.199 339.807 126.177 339.723 126.137V121.044L340.262 121.086V126.137Z" fill="#E0E0E0"/>
<path d="M339.988 126.219C339.894 126.217 339.8 126.194 339.715 126.153V121.028L340.295 121.069V126.153C340.199 126.199 340.094 126.222 339.988 126.219ZM339.748 126.12C339.824 126.157 339.908 126.176 339.992 126.176C340.077 126.176 340.16 126.157 340.237 126.12V121.102H339.74L339.748 126.12Z" fill="#263238"/>
<path d="M337.918 118.544C338.369 118.929 338.848 119.281 339.351 119.595C339.601 119.758 339.811 119.977 339.963 120.234C340.116 120.491 340.206 120.78 340.228 121.078C340.185 121.381 340.064 121.669 339.879 121.914C339.694 122.159 339.449 122.352 339.169 122.477C338.785 122.683 338.365 122.812 337.932 122.856C337.499 122.899 337.062 122.857 336.645 122.732C336.228 122.607 335.84 122.401 335.503 122.125C335.166 121.85 334.887 121.511 334.681 121.127" fill="#FFA89C"/>
<path d="M334.714 121.127C335.06 121.495 335.437 121.833 335.84 122.138C336.288 122.423 336.8 122.594 337.33 122.634C337.975 122.683 338.62 122.542 339.185 122.229C339.457 122.106 339.684 121.901 339.833 121.643C339.981 121.384 340.044 121.085 340.013 120.788C339.848 120.297 339.525 119.875 339.094 119.587C338.307 119.058 337.869 118.594 337.935 118.544C338.001 118.495 338.423 118.851 339.268 119.331C339.797 119.625 340.2 120.102 340.402 120.672C340.489 121.051 340.427 121.448 340.228 121.782C340.026 122.122 339.741 122.407 339.4 122.61C338.756 122.971 338.015 123.122 337.281 123.04C336.681 122.977 336.109 122.754 335.625 122.394C334.855 121.773 334.673 121.136 334.714 121.127Z" fill="#EB996E"/>
<path d="M343.019 116.432C342.056 117.55 341.223 118.772 340.535 120.076C340.314 120.475 340.186 120.92 340.162 121.376C340.152 121.605 340.203 121.833 340.309 122.036C340.415 122.239 340.573 122.411 340.767 122.535C340.944 122.619 341.138 122.662 341.334 122.662C341.53 122.662 341.724 122.619 341.901 122.535C342.25 122.364 342.569 122.137 342.845 121.864C343.982 120.826 345.014 119.678 345.925 118.436C346.162 118.148 346.347 117.82 346.471 117.467C346.537 117.292 346.565 117.105 346.554 116.918C346.542 116.731 346.492 116.549 346.405 116.383" fill="#FFA89C"/>
<path d="M346.413 116.375C346.413 116.375 346.62 116.54 346.645 116.987C346.619 117.601 346.378 118.187 345.966 118.643C345.465 119.361 344.911 120.042 344.31 120.68C343.979 121.044 343.615 121.417 343.226 121.781C342.833 122.213 342.353 122.558 341.818 122.791C341.509 122.891 341.176 122.891 340.866 122.791C340.551 122.688 340.29 122.465 340.137 122.17C340.021 121.91 339.961 121.628 339.961 121.342C339.961 121.057 340.021 120.775 340.137 120.514C340.481 119.698 340.927 118.927 341.462 118.221C341.908 117.553 342.437 116.943 343.035 116.408C342.638 117.099 342.199 117.766 341.719 118.403C341.238 119.104 340.838 119.857 340.527 120.647C340.432 120.854 340.384 121.078 340.384 121.305C340.384 121.532 340.432 121.757 340.527 121.963C340.64 122.16 340.822 122.307 341.037 122.377C341.253 122.448 341.487 122.436 341.694 122.344C342.164 122.129 342.586 121.822 342.936 121.442C343.325 121.086 343.689 120.73 344.021 120.382C344.691 119.678 345.254 119.016 345.677 118.436C346.073 118.033 346.338 117.519 346.438 116.962C346.448 116.766 346.44 116.569 346.413 116.375Z" fill="#EB996E"/>
<path d="M359.446 382.455C359.446 382.579 278.991 382.67 179.774 382.67C80.5574 382.67 0.102539 382.579 0.102539 382.455C0.102539 382.33 80.5408 382.239 179.774 382.239C279.008 382.239 359.446 382.314 359.446 382.455Z" fill="#263238"/>
<path fill-rule="evenodd" clip-rule="evenodd" d="M133.092 324.567C131.025 355.032 123.692 388.792 90.121 397.526L89.2872 397.743L88.454 397.526C54.8833 388.792 47.5502 355.032 45.4825 324.567L45.2832 321.632L48.1749 321.09C62.1745 318.465 75.0118 313.219 87.9067 307.299L89.2873 306.665L90.6683 307.299C103.563 313.219 116.401 318.465 130.4 321.09L133.291 321.632L133.092 324.567Z" fill="url(#paint6_linear_1295_1334)"/>
<path fill-rule="evenodd" clip-rule="evenodd" d="M129.79 324.231C115.956 321.638 103.615 316.773 89.2873 310.195C74.9595 316.773 62.6189 321.638 48.785 324.231C51.6086 365.84 63.9481 387.619 89.2873 394.212C114.627 387.619 126.966 365.84 129.79 324.231Z" fill="url(#paint7_linear_1295_1334)"/>
<path fill-rule="evenodd" clip-rule="evenodd" d="M123.357 329.043C111.511 326.27 100.413 321.856 89.2876 316.831C78.1629 321.856 67.065 326.27 55.2188 329.043C56.8835 347.551 61.3946 370.432 76.6002 381.751C80.4402 384.61 84.7261 386.604 89.2875 387.948C93.8493 386.604 98.1353 384.61 101.975 381.751C117.181 370.432 121.692 347.551 123.357 329.043Z" fill="url(#paint8_linear_1295_1334)" fill-opacity="0.46"/>
<path fill-rule="evenodd" clip-rule="evenodd" d="M81.4859 344.757H97.0892C97.0892 342.714 97.0892 340.672 97.0892 338.63C97.0892 336.486 96.2108 334.536 94.7959 333.121C93.381 331.706 91.431 330.828 89.2878 330.828C87.1441 330.828 85.1942 331.706 83.7792 333.121C82.3643 334.536 81.4859 336.486 81.4859 338.63V344.757ZM100.782 344.757V344.813C102.622 345.129 104.034 346.741 104.034 348.667V366.765C104.034 368.916 102.274 370.675 100.124 370.675H78.4512C76.3009 370.675 74.5411 368.916 74.5411 366.765V348.667C74.5411 346.741 75.953 345.129 77.7927 344.813V338.629C77.7927 335.466 79.0856 332.592 81.1678 330.509C83.25 328.427 86.1242 327.134 89.2878 327.134C92.4508 327.134 95.3246 328.427 97.4072 330.509C99.4894 332.592 100.782 335.466 100.782 338.629C100.782 340.672 100.782 342.714 100.782 344.757Z" fill="url(#paint9_linear_1295_1334)"/>
<path fill-rule="evenodd" clip-rule="evenodd" d="M81.5315 343.661H97.1346C97.1346 341.618 97.1346 339.576 97.1346 337.533C97.1346 335.39 96.2562 333.44 94.8413 332.025C93.4265 330.61 91.4764 329.731 89.3332 329.731C87.1895 329.731 85.2396 330.61 83.8246 332.025C82.4098 333.44 81.5314 335.39 81.5314 337.533L81.5315 343.661ZM100.828 343.661V343.717C102.667 344.032 104.079 345.645 104.079 347.571V365.669C104.079 367.82 102.32 369.579 100.17 369.579H78.4968C76.3463 369.579 74.5872 367.82 74.5872 365.669V347.571C74.5872 345.645 75.9987 344.032 77.8383 343.717V337.533C77.8383 334.37 79.1311 331.496 81.2138 329.413C83.296 327.331 86.1702 326.038 89.3332 326.038C92.4962 326.038 95.3701 327.331 97.4528 329.413C99.5354 331.496 100.828 334.37 100.828 337.533C100.828 339.576 100.828 341.618 100.828 343.661Z" fill="white"/>
<path fill-rule="evenodd" clip-rule="evenodd" d="M89.2879 350.326C91.5894 350.326 93.4557 352.192 93.4557 354.494C93.4557 356.365 92.2232 357.948 90.5261 358.475V363.512C90.5261 364.193 89.9686 364.75 89.2879 364.75C88.6067 364.75 88.0492 364.193 88.0492 363.512V358.475C86.3519 357.948 85.1196 356.364 85.1196 354.494C85.1196 352.192 86.9859 350.326 89.2879 350.326Z" fill="#534C4C"/>
<defs>
<linearGradient id="paint0_linear_1295_1334" x1="26.3142" y1="44.0146" x2="83.8069" y2="44.0146" gradientUnits="userSpaceOnUse">
<stop stop-color="#F57A00"/>
<stop offset="1" stop-color="#7103A4"/>
</linearGradient>
<linearGradient id="paint1_linear_1295_1334" x1="39.0181" y1="94.955" x2="113.564" y2="64.4272" gradientUnits="userSpaceOnUse">
<stop stop-color="#F57A00"/>
<stop offset="1" stop-color="#7103A4"/>
</linearGradient>
<linearGradient id="paint2_linear_1295_1334" x1="16.5914" y1="94.1398" x2="24.0101" y2="94.1398" gradientUnits="userSpaceOnUse">
<stop stop-color="#F57A00"/>
<stop offset="1" stop-color="#7103A4"/>
</linearGradient>
<linearGradient id="paint3_linear_1295_1334" x1="56.9969" y1="46.9076" x2="61.319" y2="46.9076" gradientUnits="userSpaceOnUse">
<stop stop-color="#F57A00"/>
<stop offset="1" stop-color="#7103A4"/>
</linearGradient>
<linearGradient id="paint4_linear_1295_1334" x1="6.82959" y1="55.4234" x2="19.2741" y2="55.4234" gradientUnits="userSpaceOnUse">
<stop stop-color="#F57A00"/>
<stop offset="1" stop-color="#7103A4"/>
</linearGradient>
<linearGradient id="paint5_linear_1295_1334" x1="86.4692" y1="202.363" x2="262.001" y2="202.363" gradientUnits="userSpaceOnUse">
<stop stop-color="#F57A00"/>
<stop offset="1" stop-color="#7103A4"/>
</linearGradient>
<linearGradient id="paint6_linear_1295_1334" x1="45.2832" y1="352.203" x2="133.291" y2="352.203" gradientUnits="userSpaceOnUse">
<stop stop-color="#F57A00"/>
<stop offset="1" stop-color="#7103A4"/>
</linearGradient>
<linearGradient id="paint7_linear_1295_1334" x1="48.785" y1="352.203" x2="129.79" y2="352.203" gradientUnits="userSpaceOnUse">
<stop stop-color="#F57A00"/>
<stop offset="1" stop-color="#7103A4"/>
</linearGradient>
<linearGradient id="paint8_linear_1295_1334" x1="100.351" y1="447.635" x2="13.6361" y2="402.45" gradientUnits="userSpaceOnUse">
<stop stop-color="#F37803"/>
<stop offset="1" stop-color="#5A310A"/>
</linearGradient>
<linearGradient id="paint9_linear_1295_1334" x1="74.5411" y1="348.905" x2="104.034" y2="348.905" gradientUnits="userSpaceOnUse">
<stop stop-color="#F57A00"/>
<stop offset="1" stop-color="#7103A4"/>
</linearGradient>
</defs>
</svg>
