<svg width="411" height="321" viewBox="0 0 411 321" fill="none" xmlns="http://www.w3.org/2000/svg">
<path d="M180.736 35.0589C180.621 35.0589 180.51 35.0706 180.396 35.076C180.163 32.0549 177.642 29.675 174.56 29.675C172.846 29.675 171.309 30.4157 170.237 31.5893C169.768 26.957 165.856 23.3413 161.1 23.3413C156.172 23.3413 152.161 27.2267 151.937 32.1C150.772 31.5652 149.481 31.259 148.115 31.259C143.043 31.259 138.93 35.3714 138.93 40.4436C138.93 44.7914 141.954 48.4242 146.012 49.3771C146.536 49.5403 147.094 49.6289 147.672 49.6289H180.737C184.76 49.6289 188.021 46.3677 188.021 42.3447C188.02 38.3202 184.759 35.0589 180.736 35.0589Z" fill="url(#paint0_linear_1290_1116)"/>
<path d="M140.22 303.196H141.963C155.716 303.196 167.935 291.744 172.326 274.74L177.31 255.443H192.237H194.498H209.425L212.412 271.343C215.925 290.045 228.774 303.197 243.531 303.197H246.514C249.263 303.197 251.491 306.105 251.491 309.691H194.498H192.237H135.243C135.244 306.104 137.472 303.196 140.22 303.196Z" fill="url(#paint1_linear_1290_1116)"/>
<path opacity="0.15" d="M209.425 255.443H177.31L172.081 275.691H213.228L209.425 255.443Z" fill="black"/>
<path d="M44.8615 64.8335H341.876C346.664 64.8335 350.546 68.715 350.546 73.5028V253.803C350.546 258.591 346.664 262.473 341.876 262.473H44.8607C40.0729 262.473 36.1914 258.591 36.1914 253.803V73.5028C36.1914 68.715 40.0729 64.8335 44.8615 64.8335Z" fill="url(#paint2_linear_1290_1116)"/>
<path d="M44.8615 64.8335H341.876C346.664 64.8335 350.546 68.715 350.546 73.5028V246.684H36.1914V73.5028C36.1914 68.715 40.0729 64.8335 44.8615 64.8335Z" fill="url(#paint3_linear_1290_1116)"/>
<path d="M47.6766 71.8638H339.061C341.521 71.8638 343.516 73.8582 343.516 76.3181V236.82C343.516 239.28 341.521 241.275 339.061 241.275H47.6758C45.2158 241.275 43.2214 239.28 43.2214 236.82V76.3181C43.2214 73.8582 45.2158 71.8638 47.6766 71.8638Z" fill="white" fill-opacity="0.1"/>
<path d="M101.024 71.8638H43.2214V241.714H101.024V71.8638Z" fill="white" fill-opacity="0.1"/>
<path d="M343.515 71.8638H101.024V82.3976H343.515V71.8638Z" fill="white"/>
<path d="M329.34 77.1307C329.34 77.9849 328.647 78.6774 327.793 78.6774C326.939 78.6774 326.246 77.9849 326.246 77.1307C326.246 76.2765 326.939 75.584 327.793 75.584C328.647 75.584 329.34 76.2765 329.34 77.1307Z" fill="url(#paint4_linear_1290_1116)"/>
<path d="M334.052 77.1307C334.052 77.9849 333.359 78.6774 332.505 78.6774C331.651 78.6774 330.958 77.9849 330.958 77.1307C330.958 76.2765 331.651 75.584 332.505 75.584C333.359 75.584 334.052 76.2765 334.052 77.1307Z" fill="url(#paint5_linear_1290_1116)"/>
<path d="M338.764 77.1307C338.764 77.9849 338.072 78.6774 337.217 78.6774C336.363 78.6774 335.671 77.9849 335.671 77.1307C335.671 76.2765 336.363 75.584 337.217 75.584C338.072 75.584 338.764 76.2765 338.764 77.1307Z" fill="url(#paint6_linear_1290_1116)"/>
<path d="M78.9696 101.63C84.2528 96.3473 84.2528 87.7816 78.9696 82.4984C73.6864 77.2152 65.1207 77.2152 59.8375 82.4984C54.5543 87.7816 54.5543 96.3473 59.8375 101.63C65.1207 106.914 73.6864 106.914 78.9696 101.63Z" fill="#668BDD"/>
<path d="M403.018 34.7678H339.313C335.435 34.7678 332.291 31.6239 332.291 27.7455C332.291 23.8671 335.435 20.7231 339.313 20.7231H403.018C406.897 20.7231 410.041 23.8671 410.041 27.7455C410.041 31.6239 406.897 34.7678 403.018 34.7678Z" fill="url(#paint7_linear_1290_1116)"/>
<path d="M403.018 55.5979H339.313C335.435 55.5979 332.291 52.4539 332.291 48.5755C332.291 44.6971 335.435 41.5532 339.313 41.5532H403.018C406.897 41.5532 410.041 44.6971 410.041 48.5755C410.041 52.4539 406.897 55.5979 403.018 55.5979Z" fill="url(#paint8_linear_1290_1116)"/>
<path d="M342.573 44.9893H344.098L344.077 47.23L346.027 46.0875L346.791 47.478L344.772 48.5762L346.791 49.6752L346.027 51.0874L344.053 49.9216L344.099 52.1647H342.573L342.619 49.8998L340.647 51.0424L339.906 49.6752L341.881 48.5762L339.906 47.478L340.647 46.0634L342.598 47.2292L342.573 44.9893Z" fill="white"/>
<path d="M352.989 44.9893H354.515L354.493 47.23L356.444 46.0875L357.207 47.478L355.189 48.5762L357.207 49.6752L356.444 51.0874L354.47 49.9216L354.516 52.1647H352.99L353.036 49.8998L351.063 51.0424L350.323 49.6752L352.297 48.5762L350.323 47.478L351.063 46.0634L353.014 47.2292L352.989 44.9893Z" fill="white"/>
<path d="M363.589 44.9893H365.115L365.093 47.23L367.044 46.0875L367.806 47.478L365.788 48.5762L367.806 49.6752L367.044 51.0874L365.07 49.9216L365.116 52.1647H363.59L363.636 49.8998L361.663 51.0424L360.922 49.6752L362.897 48.5762L360.922 47.478L361.663 46.0634L363.614 47.2292L363.589 44.9893Z" fill="white"/>
<path d="M374.004 44.9893H375.53L375.508 47.23L377.459 46.0875L378.222 47.478L376.204 48.5762L378.222 49.6752L377.459 51.0874L375.485 49.9216L375.531 52.1647H374.005L374.051 49.8998L372.078 51.0424L371.337 49.6752L373.312 48.5762L371.337 47.478L372.078 46.0634L374.029 47.2292L374.004 44.9893Z" fill="white"/>
<path d="M384.296 44.9893H385.822L385.8 47.23L387.751 46.0875L388.514 47.478L386.496 48.5762L388.514 49.6752L387.751 51.0874L385.777 49.9216L385.823 52.1647H384.297L384.343 49.8998L382.37 51.0424L381.63 49.6752L383.604 48.5762L381.63 47.478L382.37 46.0634L384.321 47.2292L384.296 44.9893Z" fill="white"/>
<path d="M394.711 44.9893H396.237L396.215 47.23L398.166 46.0875L398.929 47.478L396.911 48.5762L398.929 49.6752L398.166 51.0874L396.192 49.9216L396.238 52.1647H394.712L394.758 49.8998L392.785 51.0424L392.044 49.6752L394.019 48.5762L392.044 47.478L392.785 46.0634L394.736 47.2292L394.711 44.9893Z" fill="white"/>
<path d="M342.336 30.0326C340.994 30.0326 339.906 28.9445 339.906 27.603C339.906 26.2615 340.994 25.1733 342.336 25.1733C343.678 25.1733 344.765 26.2615 344.765 27.603C344.765 28.9445 343.677 30.0326 342.336 30.0326Z" fill="white"/>
<path d="M349.859 30.0326C348.516 30.0326 347.429 28.9445 347.429 27.603C347.429 26.2615 348.517 25.1733 349.859 25.1733C351.2 25.1733 352.288 26.2615 352.288 27.603C352.288 28.9445 351.2 30.0326 349.859 30.0326Z" fill="white"/>
<path d="M357.16 30.0326C355.818 30.0326 354.73 28.9445 354.73 27.603C354.73 26.2615 355.818 25.1733 357.16 25.1733C358.501 25.1733 359.59 26.2615 359.59 27.603C359.59 28.9445 358.501 30.0326 357.16 30.0326Z" fill="white"/>
<path d="M364.682 30.0326C363.34 30.0326 362.252 28.9445 362.252 27.603C362.252 26.2615 363.34 25.1733 364.682 25.1733C366.024 25.1733 367.112 26.2615 367.112 27.603C367.112 28.9445 366.024 30.0326 364.682 30.0326Z" fill="white"/>
<path d="M372.184 30.0326C370.842 30.0326 369.754 28.9445 369.754 27.603C369.754 26.2615 370.842 25.1733 372.184 25.1733C373.526 25.1733 374.613 26.2615 374.613 27.603C374.613 28.9445 373.525 30.0326 372.184 30.0326Z" fill="white"/>
<path d="M379.707 30.0326C378.364 30.0326 377.277 28.9445 377.277 27.603C377.277 26.2615 378.365 25.1733 379.707 25.1733C381.048 25.1733 382.136 26.2615 382.136 27.603C382.136 28.9445 381.048 30.0326 379.707 30.0326Z" fill="white"/>
<path d="M387.008 30.0326C385.666 30.0326 384.578 28.9445 384.578 27.603C384.578 26.2615 385.666 25.1733 387.008 25.1733C388.349 25.1733 389.438 26.2615 389.438 27.603C389.438 28.9445 388.349 30.0326 387.008 30.0326Z" fill="white"/>
<path d="M394.53 30.0326C393.189 30.0326 392.1 28.9445 392.1 27.603C392.1 26.2615 393.189 25.1733 394.53 25.1733C395.872 25.1733 396.96 26.2615 396.96 27.603C396.96 28.9445 395.872 30.0326 394.53 30.0326Z" fill="white"/>
<path d="M401.359 30.0326C400.017 30.0326 398.929 28.9445 398.929 27.603C398.929 26.2615 400.017 25.1733 401.359 25.1733C402.7 25.1733 403.788 26.2615 403.788 27.603C403.788 28.9445 402.7 30.0326 401.359 30.0326Z" fill="white"/>
<path d="M254.532 28.7988H252.463V45.856H254.532V28.7988Z" fill="url(#paint9_linear_1290_1116)"/>
<path d="M254.532 63.4653H252.463V78.466H254.532V63.4653Z" fill="url(#paint10_linear_1290_1116)"/>
<path d="M254.532 11.3574H252.463V28.7986H254.532V11.3574Z" fill="url(#paint11_linear_1290_1116)"/>
<path d="M254.532 45.856H252.463V63.465H254.532V45.856Z" fill="url(#paint12_linear_1290_1116)"/>
<path d="M236.923 17.1748H234.854V28.7991H236.923V17.1748Z" fill="url(#paint13_linear_1290_1116)"/>
<path d="M236.923 28.7988H234.854V45.856H236.923V28.7988Z" fill="url(#paint14_linear_1290_1116)"/>
<path d="M236.923 63.4653H234.854V72.6499H236.923V63.4653Z" fill="url(#paint15_linear_1290_1116)"/>
<path d="M236.923 45.856H234.854V63.465H236.923V45.856Z" fill="url(#paint16_linear_1290_1116)"/>
<path d="M271.59 28.7988H269.521V45.856H271.59V28.7988Z" fill="url(#paint17_linear_1290_1116)"/>
<path d="M271.59 45.856H269.521V63.465H271.59V45.856Z" fill="url(#paint18_linear_1290_1116)"/>
<path d="M271.59 63.4653H269.521V72.6507H271.59V63.4653Z" fill="url(#paint19_linear_1290_1116)"/>
<path d="M271.59 16.8438H269.521V28.7992H271.59V16.8438Z" fill="url(#paint20_linear_1290_1116)"/>
<path d="M287.028 44.8223H270.555V46.8913H287.028V44.8223Z" fill="url(#paint21_linear_1290_1116)"/>
<path d="M270.555 44.8223H253.498V46.8913H270.555V44.8223Z" fill="url(#paint22_linear_1290_1116)"/>
<path d="M235.888 44.8223H219.967V46.8913H235.888V44.8223Z" fill="url(#paint23_linear_1290_1116)"/>
<path d="M253.498 44.8223H235.888V46.8913H253.498V44.8223Z" fill="url(#paint24_linear_1290_1116)"/>
<path d="M253.498 62.4307H235.888V64.4997H253.498V62.4307Z" fill="url(#paint25_linear_1290_1116)"/>
<path d="M235.888 62.4307H226.365V64.4997H235.888V62.4307Z" fill="url(#paint26_linear_1290_1116)"/>
<path d="M270.555 62.4307H253.498V64.4997H270.555V62.4307Z" fill="url(#paint27_linear_1290_1116)"/>
<path d="M280.465 62.4307H270.555V64.4997H280.465V62.4307Z" fill="url(#paint28_linear_1290_1116)"/>
<path d="M235.888 27.7646H224.557V29.8336H235.888V27.7646Z" fill="url(#paint29_linear_1290_1116)"/>
<path d="M282.274 27.7646H270.555V29.8336H282.274V27.7646Z" fill="url(#paint30_linear_1290_1116)"/>
<path d="M270.555 27.7646H253.498V29.8336H270.555V27.7646Z" fill="url(#paint31_linear_1290_1116)"/>
<path d="M253.498 27.7646H235.888V29.8336H253.498V27.7646Z" fill="url(#paint32_linear_1290_1116)"/>
<path d="M253.498 13.4256C270.859 13.4256 284.984 27.5503 284.984 44.9114C284.984 62.2725 270.859 76.3972 253.498 76.3972C236.137 76.3972 222.012 62.2725 222.012 44.9114C222.012 27.5503 236.137 13.4256 253.498 13.4256ZM253.498 11.3574C234.966 11.3574 219.944 26.3798 219.944 44.9114C219.944 63.443 234.966 78.4654 253.498 78.4654C272.029 78.4654 287.052 63.443 287.052 44.9114C287.052 26.3798 272.029 11.3574 253.498 11.3574Z" fill="url(#paint33_linear_1290_1116)"/>
<path d="M350.518 1.65396H348.762V0.774902H350.518V1.65396ZM346.127 1.65396H344.371V0.774902H346.127V1.65396ZM341.735 1.65396H339.978V0.774902H341.735V1.65396ZM337.344 1.65396H335.587V0.774902H337.344V1.65396ZM332.951 1.65396H331.194V0.774902H332.951V1.65396ZM328.559 1.65396H326.803V0.774902H328.559V1.65396ZM324.167 1.65396H322.411V0.774902H324.167V1.65396ZM319.775 1.65396H318.018V0.774902H319.775V1.65396ZM315.384 1.65396H313.627V0.774902H315.384V1.65396ZM310.991 1.65396H309.234V0.774902H310.991V1.65396ZM306.599 1.65396H304.843V0.774902H306.599V1.65396ZM302.207 1.65396H300.451V0.774902H302.207V1.65396ZM297.816 1.65396H296.059V0.774902H297.816V1.65396ZM293.423 1.65396H291.666V0.774902H293.423V1.65396ZM289.031 1.65396H287.275V0.774902H289.031V1.65396ZM284.641 1.65396C284.081 1.65396 283.522 1.70758 282.978 1.81251L282.812 0.950556C283.411 0.835525 284.026 0.776456 284.64 0.775679L284.641 1.65396ZM354.995 1.07802L354.776 1.92832C354.239 1.79075 353.683 1.7037 353.126 1.6695L353.18 0.792778C353.793 0.830085 354.404 0.925685 354.995 1.07802ZM280.616 2.63094C280.121 2.88665 279.649 3.19132 279.212 3.53642L278.668 2.84623C279.149 2.46772 279.669 2.13273 280.211 1.85059L280.616 2.63094ZM359.016 3.22164L358.432 3.87762C358.016 3.50688 357.563 3.175 357.085 2.88976L357.535 2.13506C358.062 2.44907 358.56 2.81437 359.016 3.22164ZM277.486 5.34738C277.162 5.80206 276.879 6.28783 276.649 6.79303L275.85 6.42851C276.104 5.87279 276.414 5.33727 276.77 4.83751L277.486 5.34738ZM361.614 6.9648L360.794 7.28114C360.593 6.76116 360.341 6.25907 360.047 5.78729L360.791 5.32095C361.115 5.84014 361.392 6.39353 361.614 6.9648ZM275.945 9.19236C275.886 9.60274 275.857 10.0248 275.857 10.4453V10.8813H274.977V10.4453C274.977 9.98203 275.01 9.5188 275.075 9.06722L275.945 9.19236ZM362.258 10.4453V11.4386H361.379V10.4453C361.379 10.2004 361.369 9.95793 361.349 9.71854L362.225 9.64704C362.247 9.91052 362.258 10.1771 362.258 10.4453ZM362.258 15.8307H361.379V14.0742H362.258V15.8307Z" fill="white"/>
<path d="M214.171 55.3007H212.415V54.4224H214.171V55.3007ZM209.779 55.3007H208.023V54.4224H209.779V55.3007ZM205.3 54.9789C204.708 54.8172 204.13 54.5934 203.581 54.3128L203.979 53.5301C204.476 53.7827 204.998 53.9856 205.532 54.1317L205.3 54.9789ZM201.343 52.7024C200.903 52.2702 200.507 51.7938 200.165 51.2863L200.894 50.7958C201.202 51.2544 201.561 51.685 201.959 52.0751L201.343 52.7024ZM198.99 48.7906C198.816 48.2014 198.702 47.5921 198.651 46.9796L199.527 46.9073C199.572 47.4599 199.675 48.0102 199.832 48.5426L198.99 48.7906ZM199.498 44.309H198.619V42.5525H199.498V44.309ZM124.02 42.6333H123.142V40.876H124.02V42.6333ZM199.498 39.9169H198.619V38.1603H199.498V39.9169ZM124.02 38.2404H123.142V36.4838H124.02V38.2404ZM199.498 35.5247H198.619V33.7682H199.498V35.5247ZM124.02 33.849H123.142V32.0924H124.02V33.849ZM199.498 31.1333H198.619V29.3768H199.498V31.1333ZM124.02 29.4568H123.142V27.7003H124.02V29.4568ZM199.498 26.7412H198.619V24.9846H199.498V26.7412ZM124.02 25.0647H123.142V24.8688C123.142 24.3317 123.17 23.7923 123.227 23.2646L124.101 23.3586C124.047 23.8553 124.02 24.3636 124.02 24.8688V25.0647ZM198.408 22.4384C198.31 21.8811 198.177 21.3238 198.011 20.7837L198.851 20.5264C199.027 21.1008 199.168 21.693 199.272 22.2853L198.408 22.4384ZM124.605 20.8591L123.763 20.6072C123.935 20.0329 124.146 19.4608 124.388 18.9098L125.193 19.2626C124.964 19.7818 124.767 20.3189 124.605 20.8591ZM197.044 18.4248C196.784 17.9258 196.488 17.4353 196.166 16.9659L196.889 16.4692C197.231 16.9674 197.545 17.4882 197.822 18.019L197.044 18.4248ZM126.428 17.032L125.702 16.5376C126.039 16.0418 126.411 15.5607 126.808 15.1075L127.469 15.6858C127.096 16.1125 126.746 16.5656 126.428 17.032ZM194.534 15.0057C194.133 14.6054 193.704 14.2254 193.26 13.8772L193.802 13.1854C194.274 13.5554 194.73 13.9588 195.155 14.3839L194.534 15.0057ZM129.317 13.9269L128.771 13.239C129.243 12.8652 129.743 12.517 130.256 12.2038L130.713 12.9538C130.231 13.2476 129.76 13.5748 129.317 13.9269ZM191.117 12.4952C190.615 12.2333 190.093 12.0001 189.562 11.8019L189.871 10.9796C190.434 11.1903 190.989 11.4382 191.523 11.7164L191.117 12.4952ZM133.002 11.8291L132.689 11.0084C133.251 10.7939 133.832 10.6128 134.418 10.469L134.628 11.3216C134.077 11.4576 133.531 11.6286 133.002 11.8291ZM187.103 11.1312C186.546 11.0333 185.977 10.9687 185.411 10.9392L185.456 10.0617C186.058 10.0936 186.663 10.162 187.254 10.2661L187.103 11.1312ZM137.15 10.9431L137.099 10.0664C137.387 10.0493 137.677 10.0415 137.97 10.0415H138.881V10.9198H137.97C137.694 10.9198 137.42 10.9276 137.15 10.9431ZM182.8 10.9198H181.043V10.0415H182.8V10.9198ZM178.408 10.9198H176.652V10.0415H178.408V10.9198ZM174.016 10.9198H172.26V10.0415H174.016V10.9198ZM169.624 10.9198H167.868V10.0415H169.624V10.9198ZM165.232 10.9198H163.475V10.0415H165.232V10.9198ZM160.841 10.9198H159.084V10.0415H160.841V10.9198ZM156.448 10.9198H154.692V10.0415H156.448V10.9198ZM152.055 10.9198H150.299V10.0415H152.055V10.9198ZM147.664 10.9198H145.908V10.0415H147.664V10.9198ZM143.272 10.9198H141.515V10.0415H143.272V10.9198Z" fill="white"/>
<path d="M32.8896 206.581H30.6713V205.471H32.8896V206.581ZM27.3427 206.581H25.1244V205.471H27.3427V206.581ZM21.7742 206.562C21.0155 206.531 20.2538 206.461 19.5117 206.355L19.6678 205.258C20.3735 205.358 21.0979 205.423 21.8204 205.454L21.7742 206.562ZM16.1831 205.62C15.4627 205.402 14.7432 205.143 14.0433 204.85L14.4723 203.827C15.1358 204.105 15.82 204.352 16.5051 204.559L16.1831 205.62ZM11.0102 203.299C10.3653 202.905 9.73319 202.474 9.13344 202.017L9.80386 201.134C10.3742 201.568 10.9749 201.977 11.5884 202.352L11.0102 203.299ZM6.58232 199.758C6.05815 199.217 5.55362 198.642 5.08344 198.049L5.95312 197.36C6.39974 197.924 6.87973 198.471 7.37837 198.985L6.58232 199.758ZM3.17721 195.223C2.80323 194.567 2.45968 193.884 2.15441 193.193L3.16936 192.744C3.45892 193.401 3.78678 194.05 4.14211 194.674L3.17721 195.223ZM1.01773 189.976C0.821417 189.248 0.659458 188.5 0.538723 187.754L1.63417 187.575C1.74902 188.284 1.90214 188.995 2.08864 189.687L1.01773 189.976ZM0.248178 184.36L0.247197 182.135H1.35638L1.35736 184.348L0.248178 184.36ZM1.3554 178.808H0.246216V176.59H1.3554V178.808ZM1.3554 173.261H0.246216V171.043H1.3554V173.261ZM1.3554 167.714H0.246216V165.495H1.3554V167.714ZM1.3554 162.167H0.246216V159.949H1.3554V162.167ZM1.3554 156.62H0.246216V154.402H1.3554V156.62ZM1.3554 151.074H0.246216V148.856H1.3554V151.074ZM1.3554 145.527H0.246216V143.309H1.3554V145.527ZM1.3554 139.981H0.246216V137.762H1.3554V139.981ZM1.3554 134.434H0.246216V132.215H1.3554V134.434ZM1.3554 128.888H0.246216V126.669H1.3554V128.888ZM1.3554 123.341H0.246216V121.122H1.3554V123.341ZM1.3554 117.793H0.246216V115.575H1.3554V117.793ZM1.3554 112.247H0.246216V110.029H1.3554V112.247ZM1.3554 106.7H0.246216V104.482H1.3554V106.7ZM1.3554 101.154H0.246216V98.9358H1.3554V101.154ZM1.43098 95.6573L0.325725 95.5641C0.389528 94.8092 0.49161 94.0515 0.630012 93.3114L1.72055 93.5155C1.58902 94.2183 1.49184 94.9398 1.43098 95.6573ZM2.55783 90.3872L1.51147 90.0201C1.76178 89.3075 2.05134 88.5998 2.3733 87.9146L3.37746 88.3877C3.0712 89.0375 2.79537 89.7109 2.55783 90.3872ZM4.97449 85.5696L4.05376 84.9512C4.4729 84.3269 4.93129 83.7144 5.4162 83.1304L6.27017 83.8381C5.80785 84.3937 5.37203 84.9767 4.97449 85.5696ZM8.51995 81.5098L7.78279 80.6804C8.34916 80.1768 8.94596 79.6968 9.55552 79.2561L10.2053 80.1542C9.62619 80.5753 9.05884 81.0298 8.51995 81.5098ZM12.9685 78.461L12.461 77.4745C13.1334 77.129 13.8313 76.8139 14.5341 76.5401L14.9375 77.5737C14.2701 77.8338 13.6075 78.1322 12.9685 78.461ZM18.0393 76.6284L17.7969 75.5467C18.533 75.3818 19.2869 75.2532 20.0388 75.1649L20.1684 76.2662C19.4548 76.3506 18.7372 76.4723 18.0393 76.6284ZM53.3762 76.117H51.1578V75.0068H53.3762V76.117ZM47.8303 76.117H45.6119V75.0068H47.8303V76.117ZM42.2834 76.117H40.065V75.0068H42.2834V76.117ZM36.7364 76.117H34.5181V75.0068H36.7364V76.117ZM31.1905 76.117H28.9712V75.0068H31.1905V76.117ZM25.6426 76.117H23.4243V75.0068H25.6426V76.117Z" fill="white"/>
<path d="M139.338 52.9698C139.186 52.2905 138.583 51.8071 137.887 51.8071C121.888 51.8071 108.093 47.8494 99.3373 44.5291C89.8263 40.9227 84.0359 37.2658 83.9791 37.2293C83.7405 37.0769 83.456 36.9961 83.1723 36.9961C82.8894 36.9961 82.612 37.0769 82.3734 37.2293C82.3158 37.2658 76.5254 40.9227 67.0144 44.5291C58.2589 47.8494 44.4645 51.8071 28.4651 51.8071C27.7664 51.8071 27.1625 52.2936 27.0125 52.9753C26.9083 53.4502 24.4841 64.797 26.4956 80.7093C27.6762 90.0509 30.1556 99.0179 33.8638 107.361C38.4977 117.785 45.0723 127.254 53.4035 135.505C53.447 135.551 53.4905 135.595 53.5364 135.637C61.5403 143.535 71.2869 150.427 82.5032 156.123C82.7146 156.23 82.9454 156.284 83.1762 156.284C83.4071 156.284 83.6379 156.23 83.8493 156.123C98.9479 148.455 111.283 138.684 120.515 127.082C128.048 117.613 133.561 106.882 136.902 95.1853C142.785 74.5863 140.092 57.0627 139.492 53.7564C139.401 53.2559 139.34 52.9815 139.338 52.9698Z" fill="white"/>
<path d="M140.789 52.6462C140.485 51.2869 139.279 50.3208 137.886 50.3208C122.148 50.3208 108.567 46.4322 99.945 43.1694C90.5537 39.6159 84.8332 36.0111 84.7765 35.9746C84.3 35.6714 83.7443 35.5098 83.18 35.5098H83.173C82.6064 35.5098 82.0523 35.6714 81.5743 35.9761C81.5198 36.0111 75.7994 39.6159 66.4081 43.1694C57.7862 46.4315 44.204 50.3208 28.4666 50.3208C27.0699 50.3208 25.8613 51.2931 25.562 52.6579C25.4556 53.1437 22.9793 64.733 25.0219 80.8972C26.2211 90.3826 28.7394 99.4902 32.5066 107.966C37.2128 118.553 43.8869 128.17 52.344 136.548C52.3961 136.602 52.4497 136.656 52.5049 136.708C60.6161 144.709 70.4831 151.688 81.8323 157.451C82.2551 157.665 82.7168 157.773 83.1785 157.773C83.6402 157.773 84.1018 157.666 84.5246 157.451C99.8144 149.686 112.315 139.781 121.68 128.01C129.336 118.388 134.938 107.482 138.333 95.5962C140.852 86.7801 142.13 77.5691 142.134 68.2189C142.137 60.7979 141.313 55.4513 140.958 53.4965C140.86 52.9688 140.796 52.6781 140.789 52.6462ZM83.1769 154.799C71.3661 148.802 61.9918 141.896 54.5669 134.567C54.5327 134.535 54.5008 134.503 54.469 134.469C18.4783 98.8482 28.465 53.2952 28.465 53.2952C59.9423 53.2952 83.1722 38.485 83.1722 38.485H83.1792C83.1792 38.485 106.409 53.2952 137.886 53.2952C137.886 53.2952 137.942 53.5478 138.031 54.0274C139.358 61.3412 148.166 121.794 83.1769 154.799Z" fill="url(#paint34_linear_1290_1116)"/>
<path d="M83.9137 39.2188H83.9067C83.9067 39.2188 60.6767 54.029 29.1994 54.029C29.1994 54.029 19.3503 98.9578 54.4689 134.468C54.5008 134.502 54.5326 134.534 54.5668 134.566C61.9918 141.895 71.366 148.801 83.1769 154.798C148.166 121.793 139.358 61.3412 138.031 54.0266C106.855 53.8455 83.9137 39.2188 83.9137 39.2188Z" fill="url(#paint35_linear_1290_1116)"/>
<path d="M83.9767 55.9238C75.5181 60.0237 60.9053 65.8476 42.8307 67.9469C42.7708 73.616 43.2768 81.0456 45.3466 89.1638C50.6217 109.855 63.6038 126.429 83.9775 138.521C104.351 126.429 117.333 109.855 122.608 89.1638C124.677 81.0464 125.183 73.616 125.123 67.9469C107.048 65.8476 92.4354 60.0237 83.9767 55.9238Z" fill="black" fill-opacity="0.08"/>
<path d="M83.1754 55.2998C74.7168 59.3997 60.104 65.2235 42.0294 67.3229C41.9695 72.992 42.4755 80.4216 44.5453 88.5398C49.8204 109.231 62.8026 125.805 83.1762 137.897C103.55 125.805 116.532 109.231 121.806 88.5398C123.876 80.4224 124.381 72.992 124.321 67.3229C106.248 65.2235 91.6341 59.3989 83.1754 55.2998Z" fill="url(#paint36_linear_1290_1116)"/>
<g opacity="0.2">
<path d="M87.0032 62.2188C85.4635 59.5521 81.6154 59.5521 80.0757 62.2188L51.8784 111.057C50.3387 113.724 52.2631 117.057 55.3417 117.057H111.736C114.814 117.057 116.739 113.724 115.199 111.057L87.0032 62.2188Z" fill="black"/>
</g>
<path d="M86.6395 61.1289C85.0998 58.4622 81.2517 58.4622 79.712 61.1289L51.5147 109.967C49.975 112.634 51.8994 115.967 54.9781 115.967H111.372C114.451 115.967 116.375 112.634 114.835 109.967L86.6395 61.1289Z" fill="url(#paint37_linear_1290_1116)"/>
<path d="M83.3339 63.0372C83.3083 62.9921 83.2811 62.9463 83.1761 62.9463C83.0712 62.9463 83.044 62.9929 83.0183 63.0372L54.821 111.876C54.7954 111.921 54.7682 111.966 54.821 112.057C54.8739 112.148 54.9268 112.148 54.9788 112.148H111.373C111.425 112.148 111.478 112.148 111.53 112.057C111.583 111.966 111.556 111.92 111.53 111.876L83.3339 63.0372Z" fill="white"/>
<path d="M83.1948 98.8892C80.5437 98.8892 78.6791 100.631 78.6791 102.97C78.6791 105.266 80.5437 107.131 83.1948 107.131C85.8498 107.131 87.6717 105.266 87.6717 102.97C87.6725 100.631 85.8498 98.8892 83.1948 98.8892Z" fill="#1B1425"/>
<path d="M80.1853 96.67H86.1692L87.6724 79.0415H78.721L80.1853 96.67Z" fill="#1B1425"/>
<path d="M262.611 215.51C295.275 215.51 321.755 189.031 321.755 156.366C321.755 123.702 295.275 97.2227 262.611 97.2227C229.947 97.2227 203.468 123.702 203.468 156.366C203.468 189.031 229.947 215.51 262.611 215.51Z" fill="url(#paint38_linear_1290_1116)"/>
<path d="M229.611 185.483L281.704 185.483L281.704 142.319L229.611 142.319L229.611 185.483Z" fill="white"/>
<path d="M293.149 142.319H281.703V185.484H293.149V142.319Z" fill="#E5E5E5"/>
<path d="M246.949 160.085C246.949 155.637 250.658 152.055 255.151 152.263C259.16 152.448 262.448 155.763 262.605 159.772C262.728 162.913 260.998 165.659 258.421 167.015V172.037C258.421 174.047 256.791 175.678 254.78 175.678C252.769 175.678 251.139 174.048 251.139 172.037V167.015C248.649 165.705 246.949 163.095 246.949 160.085Z" fill="url(#paint39_linear_1290_1116)"/>
<path d="M282.139 142.319H274.756V134.569C274.756 126.65 268.314 120.207 260.395 120.207C252.475 120.207 246.033 126.65 246.033 134.569V142.319H238.65V134.569C238.65 122.579 248.404 112.824 260.395 112.824C272.385 112.824 282.139 122.579 282.139 134.569V142.319Z" fill="white"/>
<path d="M146.087 155.569C146.31 153.267 146.695 150.941 146.197 148.635C145.699 146.329 143.854 143.836 141.283 142.904C139.056 142.172 136.258 142.463 134.394 143.581C132.529 144.698 131.276 146.418 130.473 148.245C129.67 150.072 129.278 152.024 128.846 153.955C128.268 156.537 127.543 159.087 127.068 161.692C126.601 164.26 126.897 166.648 126.82 169.236C126.797 169.992 137.713 169.8 138.722 169.796C139.754 169.792 140.785 169.801 141.816 169.847C142.433 169.875 144.304 170.354 144.802 170.073C145.288 169.798 145.561 167.874 145.688 167.345C145.919 166.376 146.075 165.384 146.03 164.384C145.896 161.426 145.801 158.517 146.087 155.569Z" fill="black"/>
<path d="M138.341 159.967C136.83 159.754 135.646 159.192 134.85 158.278C134.857 159.692 134.773 160.847 134.505 162.274C134.913 162.991 135.958 163.176 136.762 163.362C137.565 163.547 138.412 163.467 139.212 163.266C139.325 162.054 139.438 161.143 139.62 159.985C139.221 160.034 138.795 160.03 138.341 159.967Z" fill="#FFA89C"/>
<path d="M134.932 158.367C135.836 160.089 137.456 161.569 139.442 161.2C139.494 160.811 139.552 160.415 139.62 159.985C139.221 160.034 138.794 160.03 138.34 159.966C136.881 159.761 135.727 159.228 134.932 158.367Z" fill="#DD7957"/>
<path d="M144.413 148.676C143.973 147.226 142.893 145.751 141.463 145.133C140.516 146.73 138.991 150.217 134.247 152.633C133.821 151.436 132.965 151.744 132.63 151.942C132.466 152.039 132.343 152.199 132.249 152.371C131.887 153.031 131.944 153.916 132.386 154.51C132.696 154.926 133.181 155.182 133.683 155.224C133.718 155.556 133.764 155.874 133.827 156.164C134.298 158.361 135.891 159.621 138.341 159.966C144.138 160.782 145.365 151.813 144.413 148.676Z" fill="#FFA89C"/>
<path d="M143.095 153.177C143.063 153.556 142.778 153.84 142.459 153.813C142.141 153.786 141.908 153.457 141.941 153.078C141.974 152.7 142.258 152.416 142.577 152.443C142.895 152.47 143.128 152.799 143.095 153.177Z" fill="black"/>
<path d="M138.206 152.978C138.173 153.356 137.888 153.641 137.57 153.614C137.251 153.587 137.019 153.258 137.051 152.879C137.084 152.501 137.369 152.216 137.687 152.243C138.006 152.271 138.238 152.599 138.206 152.978Z" fill="black"/>
<path d="M139.748 155.449C139.736 155.448 139.724 155.447 139.713 155.446C139.635 155.439 139.577 155.37 139.584 155.292C139.591 155.214 139.659 155.16 139.738 155.164C140.361 155.221 140.779 155.161 140.973 154.984C140.273 154.319 140.097 153.323 140.562 152.568C140.603 152.501 140.69 152.481 140.757 152.521C140.823 152.562 140.844 152.649 140.803 152.716C140.39 153.387 140.582 154.289 141.258 154.861L141.35 154.938L141.288 155.042C141.016 155.497 140.289 155.495 139.748 155.449Z" fill="#BA5B45"/>
<path d="M141.322 156.371C140.111 156.277 138.898 156.182 137.686 156.087C137.662 157.105 138.505 157.932 139.377 158.028C140.247 158.126 141.075 157.365 141.322 156.371Z" fill="white"/>
<path d="M141.245 156.619C141.275 156.538 141.301 156.456 141.322 156.371C140.111 156.277 138.898 156.182 137.686 156.087C137.683 156.217 137.695 156.345 137.719 156.469C138.86 156.795 140.079 156.845 141.245 156.619Z" fill="#E8EAEA"/>
<path d="M143.982 150.795C143.364 150.166 142.397 150.155 141.733 150.768C141.651 150.844 141.632 150.982 141.691 151.081C141.723 151.136 141.775 151.17 141.834 151.175C141.884 151.179 141.933 151.161 141.973 151.124C142.48 150.655 143.247 150.663 143.718 151.143C143.757 151.182 143.807 151.202 143.86 151.196C143.916 151.191 143.968 151.159 144.002 151.108C144.069 151.011 144.06 150.874 143.982 150.795Z" fill="black"/>
<path d="M138.981 150.323C138.129 149.813 137.028 149.927 136.24 150.606C136.152 150.682 136.132 150.82 136.194 150.92C136.228 150.975 136.283 151.009 136.343 151.015C136.394 151.019 136.444 151.002 136.486 150.967C137.147 150.398 138.07 150.302 138.783 150.728C138.829 150.756 138.883 150.762 138.934 150.746C138.99 150.728 139.038 150.684 139.064 150.626C139.115 150.514 139.078 150.38 138.981 150.323Z" fill="black"/>
<path d="M90.4483 298.077L83.1967 307.278L97.232 320.775L93.7227 302.78L90.4483 298.077Z" fill="white"/>
<path d="M145.639 307.912L146.839 319.566L166.309 319.485L151.264 309.009L145.639 307.912Z" fill="white"/>
<path d="M121.644 165.614L115.898 199.036L138.82 204.776L147.33 172.578C148.292 167.863 145.031 163.329 140.255 162.739L127.686 161.188C124.819 160.834 122.172 162.774 121.644 165.614Z" fill="#A535C5"/>
<path d="M146.307 167.342C149.363 178.647 156.006 199.661 156.006 199.661L162.951 200.213C164.298 201.758 166.488 202.232 169.448 201.727C169.448 201.727 165.891 208.25 157.503 208.978C144.925 210.07 140.303 181.844 140.303 181.844L146.307 167.342Z" fill="#A535C5"/>
<path d="M139.51 203.242C131.67 201.571 123.85 199.909 116.018 198.242C103.122 210.165 110.628 243.216 114.099 257.025C105.277 270.705 96.457 284.384 87.6346 298.064C90.658 301.405 93.6356 304.765 96.6878 308.093C105.883 294.87 115.911 281.259 124.838 268.185C127.638 264.083 128.118 262.082 128.338 257.217C128.722 248.716 128.171 239.373 128.505 230.379C131.807 242.807 137.973 248.506 140.641 262.551C143.309 276.597 142.651 298.536 144.752 314.105C149.004 313.578 153.51 312.507 157.866 311.733C157.604 294.282 157.228 276.339 156.967 259.111C156.928 256.547 156.807 255.996 156.093 253.783C150.675 237.005 145.001 220.073 139.51 203.242Z" fill="#1B1425"/>
<path d="M145.849 176.596L143.401 185.917L144.153 186.114L146.6 176.793L145.849 176.596Z" fill="#83A0F0"/>
<path d="M152.112 203.18L151.378 202.925C152.587 199.44 155.957 199.274 155.992 199.272L156.022 200.049C155.905 200.054 153.144 200.207 152.112 203.18Z" fill="white"/>
<path d="M127.907 230.362C127.878 212.443 135.852 207.004 136.191 206.782L136.618 207.431C136.538 207.484 128.656 212.904 128.684 230.361L127.907 230.362Z" fill="black"/>
<path d="M90.5454 301.388L89.8832 300.98L116.342 258.031C115.984 256.433 113.022 242.907 112.002 228.185C110.915 212.505 116.359 202.226 116.414 202.124L117.098 202.493C117.044 202.593 111.707 212.691 112.777 228.133C113.855 243.67 117.102 257.871 117.135 258.013L117.17 258.168L117.087 258.304L90.5454 301.388Z" fill="black"/>
<path d="M113.552 212.533L113.402 211.772C119.895 210.496 120.883 203.079 120.893 203.005L121.664 203.099C121.654 203.179 120.604 211.149 113.552 212.533Z" fill="black"/>
<path d="M144.903 192.028C151.062 201.098 163.407 203.457 172.477 197.298C179.876 192.274 182.807 183.133 180.294 175.011L203.644 159.155L208.023 165.603L214.203 161.407L211.215 157.007L216.32 153.541L219.971 158.9L226.411 154.526L216.268 139.59L175.672 167.158C169.096 160.264 158.316 158.923 150.173 164.453C141.103 170.613 138.744 182.958 144.903 192.028ZM150.689 189.277C148.385 185.882 149.268 181.262 152.661 178.957C156.055 176.653 160.676 177.536 162.981 180.929C165.286 184.324 164.403 188.943 161.009 191.248C157.614 193.553 152.994 192.671 150.689 189.277Z" fill="url(#paint40_linear_1290_1116)"/>
<path d="M182.662 154.003C182.662 154.003 159.886 167.384 126.658 161.146L122.583 175.606C122.583 175.606 164.552 179.044 187.008 161.146L182.662 154.003Z" fill="#A535C5"/>
<path d="M183.104 154.73C183.104 154.73 189.508 150.056 189.97 149.954C192.075 149.486 196.932 150.858 197.143 151.513C197.455 152.477 191.139 151.591 191.139 151.591C191.139 151.591 198.702 152.823 198.078 153.603C197.454 154.382 191.373 153.603 191.373 153.603C191.373 153.603 198.469 154.72 198.115 155.533C197.761 156.346 191.217 155.533 191.217 155.533C191.217 155.533 198.078 156.503 196.908 157.516C195.739 158.53 191.057 155.898 185.445 158.579L183.104 154.73Z" fill="#FFA89C"/>
<path d="M130.207 176.401C127.469 176.401 124.808 176.288 122.532 175.992L122.633 175.221C132.045 176.449 148.226 174.492 148.387 174.473L148.482 175.244C148.358 175.258 138.907 176.401 130.207 176.401Z" fill="white"/>
<path d="M169.098 201.727C171.764 197.61 170.369 186.657 169.601 186.517C168.834 186.377 169.098 193.075 169.098 193.075C169.098 193.075 167.438 186.029 166.113 186.029C164.788 186.029 167.02 193.878 167.02 193.878C167.02 193.878 163.741 185.681 162.764 186.029C161.787 186.378 164.959 194.299 164.959 194.299C164.959 194.299 162.694 189.448 161.787 189.936C160.88 190.424 163.461 195.099 163.461 195.099C163.88 198.587 162.88 196.724 162.95 200.213C163.648 202.571 165.953 202.725 169.098 201.727Z" fill="#FFA89C"/>
<defs>
<linearGradient id="paint0_linear_1290_1116" x1="143.983" y1="27.6911" x2="157.321" y2="56.7423" gradientUnits="userSpaceOnUse">
<stop stop-color="#F57A00"/>
<stop offset="1" stop-color="#7103A4"/>
</linearGradient>
<linearGradient id="paint1_linear_1290_1116" x1="147.209" y1="264.419" x2="172.244" y2="326.991" gradientUnits="userSpaceOnUse">
<stop stop-color="#F57A00"/>
<stop offset="1" stop-color="#7103A4"/>
</linearGradient>
<linearGradient id="paint2_linear_1290_1116" x1="68.5498" y1="97.5369" x2="179.009" y2="302.451" gradientUnits="userSpaceOnUse">
<stop stop-color="#F57A00"/>
<stop offset="1" stop-color="#7103A4"/>
</linearGradient>
<linearGradient id="paint3_linear_1290_1116" x1="68.5498" y1="94.9244" x2="165.411" y2="290.213" gradientUnits="userSpaceOnUse">
<stop stop-color="#F57A00"/>
<stop offset="1" stop-color="#7103A4"/>
</linearGradient>
<linearGradient id="paint4_linear_1290_1116" x1="326.565" y1="76.0959" x2="328.61" y2="78.4814" gradientUnits="userSpaceOnUse">
<stop stop-color="#F57A00"/>
<stop offset="1" stop-color="#7103A4"/>
</linearGradient>
<linearGradient id="paint5_linear_1290_1116" x1="331.277" y1="76.0959" x2="333.322" y2="78.4814" gradientUnits="userSpaceOnUse">
<stop stop-color="#F57A00"/>
<stop offset="1" stop-color="#7103A4"/>
</linearGradient>
<linearGradient id="paint6_linear_1290_1116" x1="335.989" y1="76.0959" x2="338.035" y2="78.4814" gradientUnits="userSpaceOnUse">
<stop stop-color="#F57A00"/>
<stop offset="1" stop-color="#7103A4"/>
</linearGradient>
<linearGradient id="paint7_linear_1290_1116" x1="340.294" y1="23.0471" x2="343.136" y2="41.3997" gradientUnits="userSpaceOnUse">
<stop stop-color="#F57A00"/>
<stop offset="1" stop-color="#7103A4"/>
</linearGradient>
<linearGradient id="paint8_linear_1290_1116" x1="340.294" y1="43.8772" x2="343.136" y2="62.2298" gradientUnits="userSpaceOnUse">
<stop stop-color="#F57A00"/>
<stop offset="1" stop-color="#7103A4"/>
</linearGradient>
<linearGradient id="paint9_linear_1290_1116" x1="252.676" y1="31.6213" x2="255.842" y2="32.0691" gradientUnits="userSpaceOnUse">
<stop stop-color="#F57A00"/>
<stop offset="1" stop-color="#7103A4"/>
</linearGradient>
<linearGradient id="paint10_linear_1290_1116" x1="252.676" y1="65.9475" x2="255.824" y2="66.4538" gradientUnits="userSpaceOnUse">
<stop stop-color="#F57A00"/>
<stop offset="1" stop-color="#7103A4"/>
</linearGradient>
<linearGradient id="paint11_linear_1290_1116" x1="252.676" y1="14.2434" x2="255.845" y2="14.6818" gradientUnits="userSpaceOnUse">
<stop stop-color="#F57A00"/>
<stop offset="1" stop-color="#7103A4"/>
</linearGradient>
<linearGradient id="paint12_linear_1290_1116" x1="252.676" y1="48.7697" x2="255.846" y2="49.2041" gradientUnits="userSpaceOnUse">
<stop stop-color="#F57A00"/>
<stop offset="1" stop-color="#7103A4"/>
</linearGradient>
<linearGradient id="paint13_linear_1290_1116" x1="235.067" y1="19.0983" x2="238.162" y2="19.7409" gradientUnits="userSpaceOnUse">
<stop stop-color="#F57A00"/>
<stop offset="1" stop-color="#7103A4"/>
</linearGradient>
<linearGradient id="paint14_linear_1290_1116" x1="235.067" y1="31.6213" x2="238.232" y2="32.0691" gradientUnits="userSpaceOnUse">
<stop stop-color="#F57A00"/>
<stop offset="1" stop-color="#7103A4"/>
</linearGradient>
<linearGradient id="paint15_linear_1290_1116" x1="235.067" y1="64.9851" x2="238.087" y2="65.7787" gradientUnits="userSpaceOnUse">
<stop stop-color="#F57A00"/>
<stop offset="1" stop-color="#7103A4"/>
</linearGradient>
<linearGradient id="paint16_linear_1290_1116" x1="235.067" y1="48.7697" x2="238.236" y2="49.2041" gradientUnits="userSpaceOnUse">
<stop stop-color="#F57A00"/>
<stop offset="1" stop-color="#7103A4"/>
</linearGradient>
<linearGradient id="paint17_linear_1290_1116" x1="269.734" y1="31.6213" x2="272.899" y2="32.0691" gradientUnits="userSpaceOnUse">
<stop stop-color="#F57A00"/>
<stop offset="1" stop-color="#7103A4"/>
</linearGradient>
<linearGradient id="paint18_linear_1290_1116" x1="269.734" y1="48.7697" x2="272.903" y2="49.2041" gradientUnits="userSpaceOnUse">
<stop stop-color="#F57A00"/>
<stop offset="1" stop-color="#7103A4"/>
</linearGradient>
<linearGradient id="paint19_linear_1290_1116" x1="269.734" y1="64.9852" x2="272.754" y2="65.7788" gradientUnits="userSpaceOnUse">
<stop stop-color="#F57A00"/>
<stop offset="1" stop-color="#7103A4"/>
</linearGradient>
<linearGradient id="paint20_linear_1290_1116" x1="269.734" y1="18.822" x2="272.836" y2="19.4483" gradientUnits="userSpaceOnUse">
<stop stop-color="#F57A00"/>
<stop offset="1" stop-color="#7103A4"/>
</linearGradient>
<linearGradient id="paint21_linear_1290_1116" x1="272.251" y1="45.1646" x2="272.545" y2="47.9014" gradientUnits="userSpaceOnUse">
<stop stop-color="#F57A00"/>
<stop offset="1" stop-color="#7103A4"/>
</linearGradient>
<linearGradient id="paint22_linear_1290_1116" x1="255.254" y1="45.1646" x2="255.539" y2="47.9035" gradientUnits="userSpaceOnUse">
<stop stop-color="#F57A00"/>
<stop offset="1" stop-color="#7103A4"/>
</linearGradient>
<linearGradient id="paint23_linear_1290_1116" x1="221.606" y1="45.1646" x2="221.911" y2="47.8992" gradientUnits="userSpaceOnUse">
<stop stop-color="#F57A00"/>
<stop offset="1" stop-color="#7103A4"/>
</linearGradient>
<linearGradient id="paint24_linear_1290_1116" x1="237.701" y1="45.1646" x2="237.977" y2="47.9053" gradientUnits="userSpaceOnUse">
<stop stop-color="#F57A00"/>
<stop offset="1" stop-color="#7103A4"/>
</linearGradient>
<linearGradient id="paint25_linear_1290_1116" x1="237.701" y1="62.773" x2="237.977" y2="65.5137" gradientUnits="userSpaceOnUse">
<stop stop-color="#F57A00"/>
<stop offset="1" stop-color="#7103A4"/>
</linearGradient>
<linearGradient id="paint26_linear_1290_1116" x1="227.346" y1="62.773" x2="227.844" y2="65.4487" gradientUnits="userSpaceOnUse">
<stop stop-color="#F57A00"/>
<stop offset="1" stop-color="#7103A4"/>
</linearGradient>
<linearGradient id="paint27_linear_1290_1116" x1="255.254" y1="62.773" x2="255.539" y2="65.5119" gradientUnits="userSpaceOnUse">
<stop stop-color="#F57A00"/>
<stop offset="1" stop-color="#7103A4"/>
</linearGradient>
<linearGradient id="paint28_linear_1290_1116" x1="271.575" y1="62.773" x2="272.055" y2="65.4556" gradientUnits="userSpaceOnUse">
<stop stop-color="#F57A00"/>
<stop offset="1" stop-color="#7103A4"/>
</linearGradient>
<linearGradient id="paint29_linear_1290_1116" x1="225.723" y1="28.107" x2="226.146" y2="30.8093" gradientUnits="userSpaceOnUse">
<stop stop-color="#F57A00"/>
<stop offset="1" stop-color="#7103A4"/>
</linearGradient>
<linearGradient id="paint30_linear_1290_1116" x1="271.761" y1="28.107" x2="272.171" y2="30.8135" gradientUnits="userSpaceOnUse">
<stop stop-color="#F57A00"/>
<stop offset="1" stop-color="#7103A4"/>
</linearGradient>
<linearGradient id="paint31_linear_1290_1116" x1="255.254" y1="28.107" x2="255.539" y2="30.8459" gradientUnits="userSpaceOnUse">
<stop stop-color="#F57A00"/>
<stop offset="1" stop-color="#7103A4"/>
</linearGradient>
<linearGradient id="paint32_linear_1290_1116" x1="237.701" y1="28.107" x2="237.977" y2="30.8477" gradientUnits="userSpaceOnUse">
<stop stop-color="#F57A00"/>
<stop offset="1" stop-color="#7103A4"/>
</linearGradient>
<linearGradient id="paint33_linear_1290_1116" x1="226.852" y1="22.4618" x2="271.223" y2="74.2141" gradientUnits="userSpaceOnUse">
<stop stop-color="#F57A00"/>
<stop offset="1" stop-color="#7103A4"/>
</linearGradient>
<linearGradient id="paint34_linear_1290_1116" x1="36.3549" y1="55.7408" x2="117.591" y2="147.121" gradientUnits="userSpaceOnUse">
<stop stop-color="#F57A00"/>
<stop offset="1" stop-color="#7103A4"/>
</linearGradient>
<linearGradient id="paint35_linear_1290_1116" x1="39.3773" y1="58.3437" x2="116.191" y2="144.564" gradientUnits="userSpaceOnUse">
<stop stop-color="#F57A00"/>
<stop offset="1" stop-color="#7103A4"/>
</linearGradient>
<linearGradient id="paint36_linear_1290_1116" x1="50.4966" y1="68.9671" x2="105.139" y2="132.47" gradientUnits="userSpaceOnUse">
<stop stop-color="#F57A00"/>
<stop offset="1" stop-color="#7103A4"/>
</linearGradient>
<linearGradient id="paint37_linear_1290_1116" x1="57.6023" y1="68.5339" x2="94.1971" y2="116.898" gradientUnits="userSpaceOnUse">
<stop stop-color="#F57A00"/>
<stop offset="1" stop-color="#7103A4"/>
</linearGradient>
<linearGradient id="paint38_linear_1290_1116" x1="215.644" y1="116.796" x2="293.855" y2="208.016" gradientUnits="userSpaceOnUse">
<stop stop-color="#F57A00"/>
<stop offset="1" stop-color="#7103A4"/>
</linearGradient>
<linearGradient id="paint39_linear_1290_1116" x1="248.561" y1="156.13" x2="263.761" y2="167.983" gradientUnits="userSpaceOnUse">
<stop stop-color="#F57A00"/>
<stop offset="1" stop-color="#7103A4"/>
</linearGradient>
<linearGradient id="paint40_linear_1290_1116" x1="153.664" y1="184.598" x2="214.631" y2="138.961" gradientUnits="userSpaceOnUse">
<stop stop-color="#F57A00"/>
<stop offset="1" stop-color="#7103A4"/>
</linearGradient>
</defs>
</svg>
