<svg width="326" height="321" viewBox="0 0 326 321" fill="none" xmlns="http://www.w3.org/2000/svg">
<path d="M99.9227 64.6048L108.932 65.2218C108.932 65.2218 111.509 64.942 110.47 57.579C109.738 52.3935 110.47 50.5175 110.47 50.5175C110.47 50.5175 113.956 42.2387 114.514 40.6241C115.109 38.9003 113.448 36.9784 112.082 39.7697C112.082 39.7697 112.926 37.3281 111.771 36.8751C110.406 36.3397 109.747 37.8356 109.3 39.0405C109.3 39.0405 110.616 36.4221 109.38 35.8566C108.143 35.2913 107.639 36.4114 107.068 37.4941C106.564 38.4493 104.47 42.9775 104.102 43.395C104.102 43.395 104.305 41.999 104.481 41.6968C104.656 41.3946 105.97 38.649 106.595 37.3965C107.22 36.1439 106.822 35.6108 105.92 35.3399C105.017 35.0689 103.92 37.3096 103.11 38.7072C102.3 40.1048 99.016 45.2915 98.3348 47.2937C97.6536 49.296 97.5806 50.222 98.3192 53.5975C99.0579 56.9728 98.1351 61.9476 99.9227 64.6048Z" fill="#FFA89C"/>
<path d="M115.774 44.7816C114.704 43.1746 113.013 42.1979 111.13 42.0665C110.517 42.0223 109.913 42.0708 109.333 42.2047L102.276 31.1704L104.591 29.6404C105.308 29.1664 105.479 28.1863 104.963 27.4981L104.193 26.4694C103.708 25.8225 102.797 25.6782 102.136 26.144L102.024 25.9866C101.628 25.4289 100.855 25.2989 100.298 25.6964L100.099 25.8389L99.4404 24.9135L100.445 24.1577C100.766 23.9162 100.829 23.4595 100.586 23.1399C100.346 22.8257 99.8992 22.7612 99.5808 22.9951L97.8568 24.2613L97.5445 23.7731C97.113 23.0987 96.2522 22.7688 95.5173 23.0867C94.5805 23.4921 94.2638 24.6122 94.7898 25.4347L106.505 43.7524C103.892 46.2665 103.989 50.6399 107.086 52.989C107.974 53.6628 109.057 54.0621 110.168 54.1582C110.352 54.1742 110.534 54.1821 110.716 54.1821C112.364 54.1821 113.93 53.5199 115.1 52.299C117.03 50.2861 117.32 47.1024 115.774 44.7816ZM112.576 50.2676C112.002 50.7666 111.266 51.0165 110.508 50.9594C109.537 50.8918 108.673 50.3449 108.187 49.4537C107.667 48.5018 107.76 47.2837 108.414 46.4188C109 45.6456 109.855 45.2687 110.705 45.2687C111.502 45.2687 112.295 45.6002 112.857 46.2474V46.2478C113.357 46.8222 113.603 47.5567 113.549 48.316C113.496 49.0752 113.151 49.7684 112.576 50.2676Z" fill="#F69E00"/>
<path d="M100.761 54.2092C101.667 52.1478 102.295 51.3304 103.505 48.1969C104.716 45.0635 105.766 39.0872 107.855 40.0537C109.945 41.0201 108.336 43.4611 107.653 47.1357C106.97 50.8103 108.889 50.981 108.931 57.7C108.953 61.2983 108.839 62.7702 108.112 64.0814C107.392 65.3821 102.079 64.7577 101.623 64.0559C100.321 62.0507 99.0736 58.0448 100.761 54.2092Z" fill="#FFA89C"/>
<path d="M89.7955 288.606C89.6615 301.413 89.5019 312.092 89.5019 312.092H75.4243L71.67 288.606H89.7955Z" fill="#FFA89C"/>
<path d="M89.6024 304.85C89.6024 304.85 90.5984 303.025 90.4079 301.169C90.2174 299.313 84.1371 299.742 83.5243 301.788C82.9115 303.834 84.4101 306.743 84.4101 306.743C84.4101 306.743 87.9035 306.389 89.6024 304.85Z" fill="#1B1425"/>
<path d="M107.378 320.501L74.1716 320.494L73.4374 304.215C84.3972 309.644 89.6024 304.85 89.6024 304.85C96.188 305.537 105.598 308.276 107.156 317.885C107.29 318.705 107.366 319.576 107.378 320.501Z" fill="#1B1425"/>
<path d="M107.379 320.501L74.1717 320.495L73.9935 317.58L107.156 317.885C107.29 318.705 107.367 319.577 107.379 320.501Z" fill="white"/>
<path d="M107.156 317.885L92.7314 317.766C92.4628 307.451 97.7139 306.897 97.9042 306.866C97.9075 306.866 97.9075 306.866 97.9075 306.866C102.219 308.666 106.189 311.925 107.156 317.885Z" fill="white"/>
<path d="M91.5717 305.186C91.5717 305.186 91.7466 301.167 94.4445 300.56C97.1422 299.952 100.577 305.515 91.5717 305.186Z" stroke="white" stroke-width="0.4297" stroke-miterlimit="10" stroke-linecap="round" stroke-linejoin="round"/>
<path d="M91.6282 305.173C91.6282 305.173 88.3684 301.926 85.6707 302.533C82.9729 303.14 84.4483 309.144 91.6282 305.173Z" stroke="white" stroke-width="0.4297" stroke-miterlimit="10" stroke-linecap="round" stroke-linejoin="round"/>
<path d="M93.7969 305.537C93.7969 305.537 91.1491 305.877 91.1288 308.481" stroke="white" stroke-width="0.4297" stroke-miterlimit="10" stroke-linecap="round" stroke-linejoin="round"/>
<path d="M91.8841 308.644C92.0395 309.01 91.885 309.37 91.5393 309.448C91.1934 309.526 90.787 309.292 90.6316 308.926C90.4763 308.56 90.6306 308.2 90.9766 308.122C91.3224 308.045 91.7288 308.278 91.8841 308.644Z" fill="white"/>
<path d="M84.1974 308.311L80.9841 312.432" stroke="white" stroke-width="1.4012" stroke-miterlimit="10"/>
<path d="M87.1228 311.14L85.2245 313.574" stroke="white" stroke-width="1.4012" stroke-miterlimit="10"/>
<path d="M78.9689 317.625C78.9689 317.625 78.5189 314.181 73.8383 313.1L73.9936 317.579L78.9689 317.625Z" fill="white"/>
<path d="M89.6992 297.172C89.6992 297.172 81.3046 299.434 73.1289 297.732L71.67 288.606H89.7955L89.6992 297.172Z" fill="#FFA89C"/>
<path d="M18.2852 288.606C18.419 301.413 18.5786 312.092 18.5786 312.092H32.6562L36.4106 288.606H18.2852Z" fill="#FFA89C"/>
<path d="M18.4782 304.85C18.4782 304.85 17.4823 303.025 17.6728 301.169C17.8632 299.313 23.9437 299.742 24.5564 301.788C25.1692 303.834 23.6705 306.743 23.6705 306.743C23.6705 306.743 20.1772 306.389 18.4782 304.85Z" fill="#1B1425"/>
<path d="M0.702148 320.501L33.909 320.494L34.6432 304.215C23.6834 309.644 18.4781 304.85 18.4781 304.85C11.8927 305.537 2.48229 308.276 0.924851 317.885C0.790975 318.705 0.714158 319.576 0.702148 320.501Z" fill="#1B1425"/>
<path d="M0.702148 320.501L33.909 320.495L34.0871 317.58L0.924851 317.885C0.790975 318.705 0.714158 319.577 0.702148 320.501Z" fill="white"/>
<path d="M0.924927 317.885L15.3494 317.766C15.618 307.451 10.3667 306.897 10.1764 306.866C10.1731 306.866 10.1731 306.866 10.1731 306.866C5.86176 308.666 1.89205 311.925 0.924927 317.885Z" fill="white"/>
<path d="M16.5089 305.186C16.5089 305.186 16.3339 301.167 13.6362 300.56C10.9384 299.952 7.50332 305.515 16.5089 305.186Z" stroke="white" stroke-width="0.4297" stroke-miterlimit="10" stroke-linecap="round" stroke-linejoin="round"/>
<path d="M16.452 305.173C16.452 305.173 19.7117 301.926 22.4096 302.533C25.1073 303.14 23.632 309.144 16.452 305.173Z" stroke="white" stroke-width="0.4297" stroke-miterlimit="10" stroke-linecap="round" stroke-linejoin="round"/>
<path d="M14.2839 305.537C14.2839 305.537 16.9316 305.877 16.952 308.481" stroke="white" stroke-width="0.4297" stroke-miterlimit="10" stroke-linecap="round" stroke-linejoin="round"/>
<path d="M16.1965 308.644C16.0411 309.01 16.1954 309.37 16.5414 309.448C16.8872 309.526 17.2936 309.292 17.449 308.926C17.6042 308.56 17.45 308.2 17.104 308.122C16.7582 308.045 16.3517 308.278 16.1965 308.644Z" fill="white"/>
<path d="M23.8833 308.311L27.0966 312.432" stroke="white" stroke-width="1.4012" stroke-miterlimit="10"/>
<path d="M20.9581 311.14L22.8563 313.574" stroke="white" stroke-width="1.4012" stroke-miterlimit="10"/>
<path d="M29.1117 317.625C29.1117 317.625 29.5619 314.181 34.2425 313.1L34.0871 317.579L29.1117 317.625Z" fill="white"/>
<path d="M18.3814 297.172C18.3814 297.172 26.776 299.434 34.9517 297.732L36.4106 288.606H18.2852L18.3814 297.172Z" fill="#FFA89C"/>
<path d="M82.3288 143.303L101.387 293.814C101.387 293.814 78.5546 297.955 67.0089 293.814L55.3218 183.298L42.5759 293.544C42.5759 293.544 22.6791 298.276 9.17627 293.544L30.2716 143.303H82.3288V143.303Z" fill="#1B1425"/>
<path opacity="0.1" d="M81.843 295.641C76.4888 295.702 71.0603 295.268 67.0075 293.809L55.3243 183.3C56.7 178.791 57.5182 173.065 57.9766 167.206L60.6785 166.193L81.843 295.641Z" fill="#4F73BF"/>
<path d="M58.1917 143.303C58.1917 143.303 60.0181 167.917 55.3215 183.298" stroke="#081420" stroke-width="0.4378" stroke-miterlimit="10" stroke-linecap="round" stroke-linejoin="round"/>
<path d="M62.8883 143.303V152.863C62.8883 155.441 60.9934 157.622 58.4565 157.962" stroke="#081420" stroke-width="0.4378" stroke-miterlimit="10" stroke-linecap="round" stroke-linejoin="round"/>
<path d="M62.8884 165.354L53.756 168.804" stroke="#081420" stroke-width="0.4378" stroke-miterlimit="10" stroke-linecap="round" stroke-linejoin="round"/>
<path d="M76.0663 143.303C76.0663 143.303 76.4364 157.255 83.6877 159.448" stroke="#081420" stroke-width="0.4378" stroke-miterlimit="10" stroke-linecap="round" stroke-linejoin="round"/>
<path d="M56.3651 179.167L74.4038 295.367" stroke="#081420" stroke-width="0.4378" stroke-miterlimit="10" stroke-linecap="round" stroke-linejoin="round"/>
<path d="M33.0669 143.303L16.2927 295.203" stroke="#081420" stroke-width="0.4378" stroke-miterlimit="10" stroke-linecap="round" stroke-linejoin="round"/>
<path d="M96.9083 68.7994C96.9083 68.7994 97.3164 63.9327 98.257 63.4075C99.1978 62.8823 109.385 62.8917 110.746 64.0203C112.107 65.1489 111.753 69.7048 111.753 69.7048L96.9083 68.7994Z" fill="#A535C5"/>
<path d="M89.5785 85.309C89.5785 85.309 82.5771 73.2474 77.1898 71.0267C71.8025 68.806 69.4372 69.8937 66.9439 72.8469C64.4506 75.8001 63.946 78.5049 68.8788 86.9498C73.8116 95.3947 80.4764 106.424 85.521 111.524C90.5654 116.624 93.0456 120.299 97.8018 120.091C102.558 119.883 105.956 115.349 101.473 107.479C96.9904 99.609 91.8891 88.6182 89.5785 85.309Z" fill="#A535C5"/>
<path d="M109.175 99.1803C109.175 99.1803 112.709 84.1515 113.054 73.0836L111.753 69.7048L96.9085 68.7993L94.0262 71.7312C94.0262 71.7312 91.0279 94.8959 90.1773 107.363C89.3267 119.831 96.4772 120.585 99.3505 119.87C102.224 119.156 106.91 117.632 109.175 99.1803Z" fill="#A535C5"/>
<path d="M82.3071 137.339C82.3071 137.339 82.4702 142.96 82.4064 143.501C82.3427 144.043 76.115 147.321 57.6475 147.619C39.1799 147.916 30.9399 145.537 30.3406 145.029C29.7413 144.522 30.2189 137.472 30.2189 137.472L82.3071 137.339Z" fill="white"/>
<path d="M29.4192 71.8917C29.4192 71.8917 29.5803 106.446 30.3727 113.624C31.1651 120.803 28.7657 127.192 28.2881 129.694C27.8105 132.196 27.3719 137.762 32.6969 138.761C38.0219 139.761 52.1076 140.521 65.0477 139.606C77.9877 138.69 81.0104 139.621 84.4118 135.02C87.8131 130.419 82.2952 129.573 81.8115 124.252C81.3279 118.93 79.9086 101.963 80.2406 95.2858C80.5727 88.6086 80.7757 73.8388 77.8267 71.4556C74.8778 69.0725 62.1317 68.1908 55.0332 68.2414C47.9348 68.2916 42.5579 67.0847 29.4192 71.8917Z" fill="#A535C5"/>
<path d="M80.2562 138.729L80.3347 143.604" stroke="#081420" stroke-width="0.5144" stroke-miterlimit="10" stroke-linecap="round" stroke-linejoin="round"/>
<path d="M75.5471 139.964L75.6257 144.84" stroke="#081420" stroke-width="0.5144" stroke-miterlimit="10" stroke-linecap="round" stroke-linejoin="round"/>
<path d="M70.0215 140.962L70.1001 145.837" stroke="#081420" stroke-width="0.5144" stroke-miterlimit="10" stroke-linecap="round" stroke-linejoin="round"/>
<path d="M63.9701 141.429L64.0487 146.304" stroke="#081420" stroke-width="0.5144" stroke-miterlimit="10" stroke-linecap="round" stroke-linejoin="round"/>
<path d="M58.1223 141.523L58.2009 146.399" stroke="#081420" stroke-width="0.5144" stroke-miterlimit="10" stroke-linecap="round" stroke-linejoin="round"/>
<path d="M51.8553 141.624L51.9339 146.499" stroke="#081420" stroke-width="0.5144" stroke-miterlimit="10" stroke-linecap="round" stroke-linejoin="round"/>
<path d="M45.866 141.352L45.9446 146.227" stroke="#081420" stroke-width="0.5144" stroke-miterlimit="10" stroke-linecap="round" stroke-linejoin="round"/>
<path d="M39.3313 140.866L39.4098 145.741" stroke="#081420" stroke-width="0.5144" stroke-miterlimit="10" stroke-linecap="round" stroke-linejoin="round"/>
<path d="M32.7186 140.127L32.7972 145.002" stroke="#081420" stroke-width="0.5144" stroke-miterlimit="10" stroke-linecap="round" stroke-linejoin="round"/>
<path d="M65.6067 69.007C65.592 68.1698 65.4041 57.6834 65.4041 57.6834L46.9677 52.2568L47.6819 67.5582L59.9667 76.5947C60.5671 76.5885 65.6067 69.007 65.6067 69.007Z" fill="#FFA89C"/>
<path d="M65.4041 57.6835L65.4973 62.4912C65.4973 62.4912 51.1959 66.4129 47.1592 56.3593L46.9677 52.2568L65.4041 57.6835Z" fill="#FFA9A9"/>
<path d="M46.4067 42.0256C46.325 44.4128 44.7085 46.2949 42.7961 46.2294C40.8838 46.1641 39.3997 44.1757 39.4815 41.7884C39.5631 39.4013 41.1797 37.5192 43.092 37.5847C45.0044 37.6501 46.4885 39.6384 46.4067 42.0256Z" fill="#FF8A8A"/>
<path d="M70.0902 42.8353C70.0086 45.2225 71.4926 47.2108 73.4049 47.2763C75.3173 47.3417 76.9337 45.4596 77.0156 43.0724C77.0972 40.6852 75.6133 38.697 73.7009 38.6315C71.7885 38.5661 70.172 40.4482 70.0902 42.8353Z" fill="#FF8A8A"/>
<path d="M57.5906 61.4816C49.8608 61.2171 43.809 54.7363 44.0735 47.0064L44.3599 38.6421C44.6244 30.9123 51.1052 24.8605 58.8352 25.1251C66.5651 25.3897 72.6168 31.8704 72.3522 39.6003L72.0659 47.9646C71.8013 55.6944 65.3205 61.7463 57.5906 61.4816Z" fill="#FFA89C"/>
<path d="M66.0636 32.2481C66.0636 32.2481 68.2882 32.6184 69.4367 34.3515C70.5853 36.0846 69.4367 32.2481 69.4367 32.2481L67.3653 31.5288L66.0636 32.2481Z" fill="#030A12"/>
<path d="M66.0636 32.2477C66.0636 32.2477 62.4452 30.3294 58.9277 32.2477C58.9277 32.2477 60.3087 29.062 63.1862 29.2332C66.0636 29.4046 66.0636 32.2477 66.0636 32.2477Z" fill="black"/>
<path d="M63.7482 43.0562C63.9057 43.8163 64.6492 44.3047 65.4094 44.1473C66.1693 43.9898 66.6578 43.2462 66.5003 42.4862C66.343 41.7262 65.5993 41.2378 64.8393 41.3952C64.0794 41.5526 63.5909 42.2964 63.7482 43.0562Z" fill="black"/>
<path d="M67.7452 39.6423C67.7452 39.6423 66.137 37.8482 63.7007 38.717" stroke="black" stroke-width="1.0849" stroke-miterlimit="10" stroke-linecap="round" stroke-linejoin="round"/>
<path d="M57.1521 46.4341C57.1521 46.4341 57.7992 47.3673 58.8049 47.441C59.8106 47.5147 60.5133 46.6803 60.5133 46.6803" stroke="#FA6B5D" stroke-width="0.3765" stroke-miterlimit="10" stroke-linecap="round" stroke-linejoin="round"/>
<path d="M58.9277 41.9692L58.3246 45.8677" stroke="#FA6B5D" stroke-width="0.3765" stroke-miterlimit="10" stroke-linecap="round" stroke-linejoin="round"/>
<path d="M53.7992 42.3276C53.5326 43.0565 52.7258 43.4314 51.9967 43.1648C51.2679 42.8984 50.8929 42.0916 51.1594 41.3625C51.4259 40.6336 52.2328 40.2588 52.9618 40.5253C53.6907 40.7917 54.0657 41.5988 53.7992 42.3276Z" fill="black"/>
<path d="M50.3425 38.3667C50.3425 38.3667 52.195 36.8262 54.4787 38.0408" stroke="black" stroke-width="1.0849" stroke-miterlimit="10" stroke-linecap="round" stroke-linejoin="round"/>
<path d="M54.8487 49.2221C54.6425 49.1782 54.4546 49.3395 54.4678 49.5498C54.539 50.6837 55.0196 53.7661 58.147 53.9954C61.0993 54.2117 62.0764 51.2511 62.3387 50.1349C62.3876 49.927 62.2249 49.7348 62.0117 49.7482C61.3221 49.7918 59.8624 49.8571 58.4153 49.7511C56.9634 49.6447 55.5213 49.3652 54.8487 49.2221Z" fill="#4A1612"/>
<path d="M61.4749 52.2398C60.8469 53.2371 59.806 54.1152 58.1502 53.9939C56.4061 53.8661 55.4813 52.8549 55.0046 51.788C56.3822 51.4671 58.843 51.2035 61.4749 52.2398Z" fill="#8D231D"/>
<path d="M61.8336 49.7687C61.477 50.2419 60.5419 51.0392 58.3341 50.8774C56.0491 50.71 55.2749 49.7654 55.0125 49.2578C55.7337 49.4105 57.0699 49.6527 58.4167 49.7513C59.7413 49.8484 61.0874 49.8027 61.8336 49.7687Z" fill="white"/>
<path d="M75.5718 39.4025C75.5718 39.4025 73.4513 38.0842 72.5149 39.6421C71.5785 41.2 71.7355 42.9578 71.7355 42.9578C71.7355 42.9578 69.1902 41.6111 69.5851 36.9524C69.98 32.2937 67.5004 32.0637 66.0636 32.248C66.0636 32.248 65.1843 29.2336 61.7132 30.1014C58.2421 30.9691 57.6078 38.6872 44.36 38.642C44.36 38.642 43.614 37.071 41.565 37.9709C41.565 37.9709 39.7155 29.089 44.4944 23.6804C48.605 19.0281 54.7252 19.0485 54.7252 19.0485C54.7252 19.0485 53.2197 18.9432 50.3425 19.2678C50.3425 19.2678 65.5347 13.4307 68.8028 24.5881C68.8028 24.5881 72.5098 23.4459 75.1272 26.8193C77.7446 30.1927 76.7625 33.3443 76.7625 33.3443C76.7625 33.3443 76.6845 32.8515 76.3743 32.0426C76.1309 31.4078 75.9175 31.1062 75.9175 31.1062C75.9175 31.1062 77.1904 34.7279 75.5718 39.4025Z" fill="black"/>
<path d="M46.4098 38.583C46.4098 38.583 45.1328 41.6189 44.2198 42.734C44.2198 42.734 44.9105 40.9253 44.3599 38.642L46.4098 38.583Z" fill="black"/>
<path d="M80.4276 105.278C80.3088 102.947 80.2246 100.725 80.1991 98.8086" stroke="#081420" stroke-width="0.5144" stroke-miterlimit="10" stroke-linecap="round" stroke-linejoin="round"/>
<path d="M59.9668 76.5951C65.7018 75.8849 70.4318 69.7065 70.4318 69.7065C70.4318 69.7065 71.5676 65.8508 70.025 64.2097C68.4638 62.5877 65.4702 61.5127 65.4702 61.5127L65.6068 69.0073C62.8231 71.9314 59.9668 76.5951 59.9668 76.5951Z" fill="#A535C5"/>
<path d="M36.4736 69.5796C38.0578 69.1423 39.5303 68.763 40.8368 68.5173C45.0538 67.6818 53.8606 76.3751 59.9665 76.5949C59.9665 76.5949 54.024 66.7698 47.5446 64.2722L47.2078 56.1538C47.2078 56.1538 43.6533 57.4466 42.2673 59.7151C40.8816 62.0023 40.1587 63.6051 38.3048 64.7207C36.4508 65.8362 36.4736 69.5796 36.4736 69.5796Z" fill="#A535C5"/>
<path d="M54.8282 74.0212C54.8357 74.4835 55.2165 74.8523 55.679 74.8448C56.1413 74.8374 56.51 74.4566 56.5026 73.9943C56.4952 73.5318 56.1143 73.1631 55.652 73.1705C55.1896 73.178 54.8207 73.5588 54.8282 74.0212Z" fill="#081420"/>
<path d="M62.2178 73.9743C62.2252 74.4366 62.6061 74.8054 63.0685 74.7979C63.5309 74.7905 63.8996 74.4096 63.8922 73.9473C63.8847 73.485 63.5039 73.1162 63.0415 73.1236C62.5791 73.1311 62.2103 73.5119 62.2178 73.9743Z" fill="#081420"/>
<path d="M55.5926 74.0806C55.5926 74.0806 57.6313 82.7439 56.3255 88.0849C55.0197 93.4259 54.9643 95.348 55.1981 98.0043" stroke="#FAF2DE" stroke-width="0.5144" stroke-miterlimit="10" stroke-linecap="round" stroke-linejoin="round"/>
<path d="M55.1866 101.971C56.0039 101.957 56.6558 101.284 56.6426 100.467L56.6224 99.2159C56.6092 98.3986 55.936 97.7467 55.1187 97.76C54.3014 97.7731 53.6495 98.4464 53.6627 99.2636L53.6829 100.515C53.696 101.332 54.3693 101.984 55.1866 101.971Z" fill="#FAF2DE"/>
<path d="M63.0547 73.9609C63.0547 73.9609 65.8908 79.4709 64.585 84.812C63.2793 90.153 65.7999 92.8588 66.0338 95.5151" stroke="#FAF2DE" stroke-width="0.5144" stroke-miterlimit="10" stroke-linecap="round" stroke-linejoin="round"/>
<path d="M66.0909 99.036C66.9082 99.0229 67.5601 98.3496 67.5468 97.5324L67.5267 96.2814C67.5135 95.4641 66.8403 94.8122 66.023 94.8254C65.2056 94.8385 64.5538 95.5118 64.567 96.3291L64.5872 97.58C64.6003 98.3973 65.2735 99.0492 66.0909 99.036Z" fill="#FAF2DE"/>
<path d="M50.2664 122.853L85.0051 129.416C85.1551 129.444 85.2996 129.346 85.3279 129.196L91.0854 98.7237C91.1137 98.5738 91.0151 98.4292 90.8652 98.4009L56.1262 91.8374C55.9763 91.8091 55.8318 91.9076 55.8034 92.0576L50.0461 122.53C50.0179 122.68 50.1164 122.824 50.2664 122.853Z" fill="#E07D21"/>
<path d="M80.4622 100.265L63.0698 96.9652L65.7312 82.9365C66.8828 76.8651 72.7385 72.8769 78.8099 74.0286C84.8812 75.1804 88.8695 81.0359 87.7178 87.1074L87.0641 90.553" stroke="url(#paint0_linear_1290_1332)" stroke-width="4.88"/>
<path d="M52.3997 123.256L87.1386 129.819C87.2885 129.847 87.433 129.749 87.4614 129.599L93.2188 99.1265C93.2472 98.9766 93.1486 98.8321 92.9986 98.8037L58.2598 92.2402C58.1099 92.2118 57.9653 92.3105 57.937 92.4604L52.1795 122.933C52.1512 123.083 52.2497 123.227 52.3997 123.256Z" fill="url(#paint1_linear_1290_1332)"/>
<path d="M88.7846 98.0076L76.1487 95.6201" stroke="#081420" stroke-width="0.4432" stroke-miterlimit="10" stroke-linecap="round" stroke-linejoin="round"/>
<path d="M77.4192 108.799C77.1961 109.968 76.3154 110.843 75.2293 111.113L74.2957 116.08C74.2546 116.291 74.0492 116.432 73.8378 116.391L72.2761 116.097L71.7948 116.003L70.6264 115.786C70.5559 115.774 70.4972 115.745 70.4503 115.698C70.3446 115.616 70.2919 115.475 70.3211 115.334L70.4503 114.641C70.4914 114.43 70.691 114.295 70.9024 114.336L71.6891 114.483C71.9004 114.524 72.1001 114.383 72.1412 114.171L72.1882 113.931C72.2292 113.719 72.0883 113.514 71.877 113.473L71.5365 113.408L71.0962 113.326C71.0256 113.314 70.9611 113.285 70.9142 113.238C70.8143 113.15 70.7556 113.015 70.785 112.874L70.9142 112.187C70.9553 111.976 71.1549 111.835 71.3663 111.876L72.153 112.023C72.3642 112.064 72.564 111.923 72.605 111.711L72.8046 110.655C71.7889 109.932 71.2782 108.594 71.7243 107.285C72.1471 106.034 73.4034 105.206 74.7186 105.306C74.8419 105.318 74.9651 105.33 75.0826 105.359C76.6795 105.664 77.7187 107.202 77.4192 108.799Z" fill="#CE6508"/>
<path d="M76.9176 108.661C76.6935 109.835 75.8091 110.713 74.7183 110.99L73.7748 115.979C73.7336 116.185 73.533 116.327 73.3208 116.285L71.7464 115.991L71.2688 115.902L70.4374 115.743L70.0954 115.678C69.8831 115.637 69.7416 115.436 69.7829 115.224L69.9126 114.528C69.9539 114.316 70.1603 114.18 70.3726 114.222L71.1568 114.369C71.3691 114.41 71.5754 114.269 71.6167 114.056L71.6639 113.815C71.6874 113.673 71.6344 113.532 71.5283 113.443C71.4811 113.402 71.4221 113.372 71.3513 113.361L70.9032 113.272C70.8029 113.184 70.744 113.048 70.7734 112.907L70.9032 112.217C70.9445 112.004 71.145 111.863 71.3572 111.904L72.1473 112.052C72.3596 112.093 72.5601 111.951 72.6014 111.739L72.8019 110.678C71.7818 109.952 71.2688 108.608 71.7169 107.293C72.1415 106.037 73.4033 105.206 74.7241 105.306C74.8479 105.318 74.9717 105.33 75.0897 105.359C76.3869 105.867 77.1829 107.24 76.9176 108.661Z" fill="white"/>
<path d="M82.1894 119.979C83.4799 120.509 83.3279 122.871 81.095 122.168C76.7079 120.789 73.5434 121.244 73.5434 121.244C76.2898 121.86 80.8064 124.358 82.2239 125.846C83.6267 127.332 82.5498 128.369 82.5498 128.369C82.5498 128.369 83.2754 129.672 82.0922 130.363C80.9022 131.046 78.8484 129.518 78.8484 129.518C78.8484 129.518 78.523 131.808 75.7866 130.663C73.0423 129.525 71.2071 129.697 68.3769 130.396C65.5547 131.089 63.6589 130.793 63.6589 130.793C63.6589 130.793 63.0384 130.857 61.9479 130.925L63.1123 120.389C63.1123 120.389 67.9608 118.51 72.3168 118.042C76.666 117.566 80.8911 119.456 82.1894 119.979Z" fill="#FF8A8A"/>
<path d="M30.1751 109.695C30.1751 109.695 38.1927 96.2361 40.8832 83.5902C43.5735 70.9443 33.4508 69.0507 28.9056 72.2784C24.3604 75.5061 17.562 93.5475 15.651 99.568C13.7399 105.588 10.8322 114.692 12.2152 121.253C13.7401 128.487 47.4527 132.962 53.3444 133.691C53.9113 133.761 54.4848 133.652 54.9875 133.381L56.7413 132.435L58.0716 117.622L57.1123 116.007C56.714 115.336 56.05 114.866 55.2852 114.713L30.1751 109.695Z" fill="#A535C5"/>
<path d="M58.0718 117.622C58.0718 117.622 62.9249 118.169 63.4229 119.124C63.9208 120.08 63.6197 130.262 62.4525 131.59C61.2854 132.919 56.7415 132.435 56.7415 132.435L58.0718 117.622Z" fill="#A535C5"/>
<path d="M305.272 318.265L210.546 314.462C200.051 314.04 191.777 305.516 191.823 295.173L192.947 44.8378C192.993 34.6442 201.112 26.2589 211.45 25.7292L307.815 20.792C317.476 20.2971 325.585 27.8771 325.585 37.4032V299.061C325.585 309.983 316.354 318.71 305.272 318.265Z" fill="url(#paint2_linear_1290_1332)"/>
<path d="M295.627 317.886L202.53 314.09C192.216 313.67 184.084 305.162 184.13 294.84L185.234 44.993C185.279 34.8192 193.259 26.4503 203.419 25.9216L298.126 20.9941C307.621 20.5001 315.59 28.0654 315.59 37.5729V298.72C315.59 309.62 306.518 318.33 295.627 317.886Z" fill="url(#paint3_linear_1290_1332)"/>
<path d="M310.025 37.5705V298.712C310.025 306.223 303.921 312.345 296.427 312.345C296.231 312.345 296.034 312.345 295.855 312.328L272.29 311.364L229.96 309.642L202.755 308.534C198.509 308.363 194.809 306.3 192.439 303.162C190.7 300.861 189.677 297.987 189.685 294.867L189.762 278.515L189.983 227.207L190.035 216.976L190.111 198.561L190.35 145.395L190.444 124.055L190.563 96.0056L190.794 45.022C190.828 37.8093 196.497 31.8583 203.71 31.4832L214.879 30.8949L245.767 29.2836L269.886 28.0303L283.118 27.3397L288.242 27.0754L298.413 26.5469C298.609 26.5469 298.805 26.5298 299.002 26.5298C305.089 26.5297 310.025 31.4831 310.025 37.5705Z" fill="#1A1227"/>
<g opacity="0.02">
<path d="M269.886 28.0303L190.444 124.055L190.563 96.0055L245.767 29.2835L269.886 28.0303Z" fill="white"/>
<path d="M310.025 133.144V161.04L192.439 303.163C190.7 300.861 189.677 297.988 189.685 294.867L189.762 278.515L310.025 133.144Z" fill="white"/>
<path d="M310.025 37.5705V53.6244L190.111 198.561L190.35 145.395L288.242 27.0754L298.413 26.5469C298.609 26.5469 298.805 26.5298 299.002 26.5298C305.089 26.5298 310.025 31.4832 310.025 37.5705Z" fill="white"/>
<path d="M309.919 212.867V265.751L272.184 311.364L229.854 309.642L309.919 212.867Z" fill="white"/>
<path d="M310.025 71.9463V82.1089L189.984 227.208L190.035 216.977L310.025 71.9463Z" fill="white"/>
</g>
<path d="M283.12 27.3359V32.8658C283.12 35.2582 281.25 37.2331 278.861 37.3625L219.626 40.5721C217.047 40.7118 214.879 38.6582 214.879 36.0754V30.8953L283.12 27.3359Z" fill="#1A1227"/>
<path d="M258.906 33.5958C258.906 34.3366 258.328 34.9486 257.588 34.9905L240.569 35.9577C239.768 36.0034 239.093 35.3657 239.093 34.563V34.4835C239.093 33.7402 239.675 33.1271 240.417 33.0884L257.436 32.2007C258.235 32.1591 258.906 32.7957 258.906 33.5958Z" fill="#2F3552"/>
<path d="M250.381 178.093C258.418 178.093 264.934 184.608 264.934 192.645V218.053H235.829V192.645L235.834 192.27C236.033 184.406 242.47 178.093 250.381 178.093Z" stroke="url(#paint4_linear_1290_1332)" stroke-width="4"/>
<path d="M248.446 178.093C256.281 178.093 262.999 185.26 262.999 194.579V223.188H233.895V194.579L233.9 194.144C234.105 185.038 240.734 178.093 248.446 178.093Z" stroke="url(#paint5_linear_1290_1332)" stroke-width="4"/>
<path d="M249.414 265.051C264.571 265.051 276.858 252.764 276.858 237.608V216.613H221.971V237.608C221.971 252.764 234.257 265.051 249.414 265.051Z" fill="url(#paint6_linear_1290_1332)"/>
<path d="M253.498 248.215H245.33L248.127 236.466C247.027 235.972 246.26 234.872 246.26 233.593C246.26 231.854 247.675 230.438 249.414 230.438C249.61 230.438 249.806 230.456 249.985 230.49C251.452 230.762 252.569 232.05 252.569 233.593C252.569 234.872 251.801 235.972 250.71 236.466L253.498 248.215Z" fill="#393047"/>
<path d="M253.498 248.214H246.473L249.269 236.466C248.169 235.971 247.402 234.871 247.402 233.593C247.402 232.049 248.519 230.762 249.985 230.489C251.452 230.762 252.568 232.049 252.568 233.593C252.568 234.871 251.801 235.971 250.71 236.466L253.498 248.214Z" fill="#1A1227"/>
<path d="M257.072 99.991C261.302 95.7608 261.302 88.9023 257.072 84.6721C252.842 80.4418 245.983 80.4418 241.753 84.6721C237.523 88.9023 237.523 95.7608 241.753 99.991C245.983 104.221 252.842 104.221 257.072 99.991Z" fill="url(#paint7_linear_1290_1332)"/>
<path d="M252.045 89.0719C252.045 90.5251 250.867 91.7032 249.414 91.7032C247.961 91.7032 246.783 90.5251 246.783 89.0719C246.783 87.6186 247.961 86.4404 249.414 86.4404C250.867 86.4404 252.045 87.6186 252.045 89.0719Z" fill="white"/>
<path d="M254.679 96.9671C254.679 97.401 254.63 97.8185 254.524 98.2196H244.307C244.2 97.8185 244.151 97.401 244.151 96.9671C244.151 94.0609 246.509 91.7031 249.415 91.7031C252.322 91.703 254.679 94.0608 254.679 96.9671Z" fill="white"/>
<path d="M290.376 122.968L208.452 124.324C205.716 124.369 203.498 122.188 203.498 119.452C203.498 116.716 205.716 114.461 208.452 114.415L290.376 113.06C293.112 113.014 295.33 115.196 295.33 117.932C295.33 120.668 293.112 122.923 290.376 122.968Z" fill="url(#paint8_linear_1290_1332)"/>
<path d="M290.376 140.533L208.452 141.889C205.716 141.934 203.498 139.753 203.498 137.017C203.498 134.28 205.716 132.026 208.452 131.98L290.376 130.625C293.112 130.579 295.33 132.761 295.33 135.497C295.33 138.233 293.112 140.488 290.376 140.533Z" fill="url(#paint9_linear_1290_1332)"/>
<path d="M188.534 102.357C188.534 102.357 173.972 98.6486 161.516 84.189C150.655 71.5796 141.396 50.811 144.772 17.2113C144.772 17.2113 177.127 12.9655 188.534 0.500977C196.216 8.89023 213.395 13.5623 223.805 15.7108C228.852 16.7595 232.305 17.2113 232.305 17.2113C239.552 89.3641 188.534 102.357 188.534 102.357Z" fill="url(#paint10_linear_1290_1332)"/>
<g filter="url(#filter0_d_1290_1332)">
<path d="M188.535 93.6871C180.088 90.5513 149.744 75.6609 152.492 24.3079C161.588 22.5946 177.609 18.7151 188.535 11.251C199.46 18.7151 215.481 22.5946 224.576 24.3079C227.324 75.6609 196.982 90.5513 188.535 93.6871Z" fill="url(#paint11_linear_1290_1332)"/>
</g>
<path d="M168.772 56.2568L175.176 47.5839C175.176 47.5839 182.351 50.4472 184.817 55.8797C184.817 55.8797 195.384 38.4358 210.662 33.2031L212.818 35.641C212.818 35.641 195.54 48.4368 189.054 69.067L181.181 69.2352C181.181 69.2352 179.286 60.586 168.772 56.2568Z" fill="white"/>
<path d="M137.082 160.322C137.086 160.814 136.689 161.217 136.196 161.22C135.239 161.227 134.268 161.275 133.31 161.364C132.825 161.408 132.396 161.056 132.342 160.575C132.341 160.569 132.34 160.563 132.34 160.557C132.294 160.067 132.655 159.633 133.146 159.587C134.154 159.494 135.177 159.443 136.184 159.436C136.645 159.433 137.026 159.78 137.077 160.228C137.08 160.259 137.082 160.29 137.082 160.322ZM128.677 162.115C127.74 162.333 126.804 162.594 125.894 162.889C125.425 163.041 124.922 162.785 124.77 162.317C124.619 161.846 124.874 161.345 125.343 161.193C126.301 160.882 127.286 160.607 128.271 160.378C128.751 160.266 129.231 160.564 129.343 161.044C129.351 161.079 129.357 161.114 129.361 161.148C129.41 161.591 129.122 162.011 128.677 162.115ZM121.543 164.645C120.681 165.066 119.827 165.528 119.004 166.021C118.581 166.274 118.033 166.137 117.78 165.714C117.528 165.292 117.665 164.744 118.087 164.491C118.954 163.972 119.854 163.484 120.762 163.042C121.204 162.826 121.738 163.01 121.954 163.453C122 163.547 122.028 163.646 122.039 163.745C122.08 164.109 121.892 164.476 121.543 164.645ZM115.155 168.708C114.407 169.311 113.678 169.953 112.986 170.617C112.63 170.958 112.065 170.946 111.724 170.591C111.384 170.235 111.396 169.671 111.751 169.33C112.48 168.631 113.248 167.954 114.034 167.32C114.417 167.01 114.979 167.07 115.288 167.454C115.399 167.591 115.463 167.751 115.481 167.914C115.513 168.207 115.401 168.509 115.155 168.708ZM109.831 174.092C109.237 174.844 108.668 175.632 108.138 176.435C107.867 176.846 107.313 176.959 106.902 176.688C106.491 176.416 106.378 175.863 106.65 175.452C107.207 174.608 107.806 173.779 108.43 172.987C108.735 172.6 109.296 172.534 109.683 172.84C109.878 172.993 109.991 173.212 110.017 173.441C110.042 173.666 109.982 173.9 109.831 174.092ZM105.831 180.52C105.418 181.386 105.037 182.281 104.699 183.179C104.525 183.64 104.01 183.873 103.55 183.699C103.089 183.526 102.855 183.011 103.029 182.55C103.385 181.605 103.786 180.664 104.22 179.752C104.433 179.308 104.965 179.119 105.409 179.331C105.698 179.469 105.879 179.742 105.912 180.038C105.93 180.198 105.905 180.364 105.831 180.52ZM107.002 213.622C106.579 213.875 106.032 213.736 105.779 213.313C105.263 212.446 104.776 211.545 104.335 210.635C104.12 210.192 104.305 209.658 104.748 209.443C105.191 209.228 105.725 209.413 105.94 209.857C106.359 210.721 106.821 211.576 107.312 212.399C107.379 212.512 107.419 212.634 107.432 212.757C107.47 213.094 107.313 213.437 107.002 213.622ZM103.356 187.671C103.146 188.606 102.975 189.562 102.846 190.513C102.78 191.001 102.33 191.343 101.842 191.277C101.354 191.21 101.014 190.761 101.078 190.273C101.214 189.272 101.395 188.265 101.616 187.28C101.724 186.8 102.201 186.497 102.682 186.605C103.063 186.691 103.332 187.009 103.373 187.377C103.384 187.472 103.379 187.572 103.356 187.671ZM103.617 206.624C103.148 206.776 102.645 206.518 102.494 206.049C102.184 205.089 101.912 204.102 101.684 203.117C101.571 202.637 101.873 202.159 102.352 202.047C102.832 201.936 103.311 202.236 103.423 202.716C103.639 203.652 103.898 204.589 104.192 205.502C104.211 205.56 104.223 205.619 104.23 205.677C104.276 206.09 104.027 206.492 103.617 206.624ZM102.542 195.194C102.547 196.152 102.593 197.123 102.68 198.079C102.725 198.57 102.363 199.003 101.872 199.048C101.388 199.092 100.959 198.74 100.905 198.259C100.905 198.253 100.904 198.246 100.904 198.24C100.812 197.233 100.763 196.211 100.758 195.203C100.756 194.71 101.153 194.309 101.646 194.306C102.106 194.304 102.487 194.651 102.537 195.098C102.54 195.129 102.542 195.161 102.542 195.194Z" fill="white"/>
<path d="M111.114 217.824C111.095 217.649 111.024 217.478 110.899 217.336C110.596 216.99 110.296 216.632 110.005 216.272C109.696 215.888 109.134 215.828 108.751 216.137C108.367 216.446 108.306 217.008 108.616 217.391C108.922 217.77 109.238 218.147 109.557 218.511C109.881 218.882 110.445 218.919 110.815 218.595C111.044 218.395 111.146 218.104 111.114 217.824Z" fill="white"/>
<path d="M135.593 229.668C135.545 229.24 135.193 228.898 134.749 228.877C134.29 228.855 133.823 228.823 133.363 228.782C132.872 228.739 132.439 229.101 132.395 229.592C132.351 230.084 132.714 230.516 133.204 230.559C133.689 230.602 134.181 230.636 134.664 230.659C135.157 230.682 135.574 230.302 135.598 229.81C135.6 229.762 135.598 229.714 135.593 229.668Z" fill="white"/>
<path d="M171.952 192.894C171.983 193.386 171.609 193.809 171.117 193.84C170.625 193.871 170.203 193.497 170.171 193.005C170.113 192.069 170.014 191.121 169.876 190.176C169.803 189.692 170.142 189.236 170.63 189.165C171.117 189.094 171.57 189.431 171.641 189.919C171.701 190.328 171.754 190.737 171.8 191.145C171.865 191.726 171.916 192.315 171.952 192.894ZM170.005 186.271C169.531 186.408 169.037 186.135 168.901 185.661C168.639 184.753 168.336 183.845 167.999 182.964C167.823 182.505 168.054 181.989 168.515 181.813C168.975 181.637 169.49 181.868 169.666 182.328C170.02 183.256 170.339 184.211 170.615 185.167C170.629 185.217 170.639 185.267 170.644 185.316C170.692 185.74 170.428 186.149 170.005 186.271ZM171.922 197.755C171.848 198.744 171.73 199.744 171.572 200.727C171.494 201.213 171.036 201.544 170.55 201.466C170.063 201.388 169.733 200.93 169.811 200.444C169.961 199.511 170.072 198.561 170.143 197.621C170.18 197.13 170.608 196.762 171.099 196.798C171.534 196.831 171.872 197.17 171.919 197.588C171.925 197.642 171.926 197.698 171.922 197.755ZM167.272 179.126C166.84 179.363 166.298 179.205 166.061 178.774C165.607 177.946 165.111 177.128 164.589 176.342C164.316 175.931 164.428 175.378 164.838 175.105C165.248 174.833 165.802 174.944 166.075 175.354C166.625 176.182 167.146 177.044 167.625 177.915C167.682 178.021 167.717 178.132 167.73 178.245C167.769 178.593 167.598 178.947 167.272 179.126ZM170.473 205.458C170.184 206.407 169.849 207.356 169.479 208.28C169.296 208.737 168.777 208.959 168.32 208.776C167.862 208.593 167.64 208.074 167.823 207.617C168.174 206.739 168.492 205.837 168.767 204.937C168.911 204.466 169.41 204.2 169.881 204.344C170.232 204.452 170.469 204.756 170.507 205.099C170.52 205.216 170.51 205.338 170.473 205.458ZM167.371 212.657C166.879 213.521 166.346 214.375 165.785 215.194C165.507 215.601 164.952 215.705 164.545 215.426C164.138 215.147 164.034 214.592 164.313 214.186C164.846 213.408 165.353 212.597 165.82 211.776C166.064 211.347 166.608 211.198 167.036 211.441C167.294 211.588 167.451 211.844 167.482 212.118C167.502 212.299 167.467 212.487 167.371 212.657ZM162.773 219.009C162.105 219.746 161.398 220.463 160.672 221.141C160.312 221.477 159.748 221.457 159.412 221.097C159.075 220.736 159.095 220.172 159.455 219.836C160.145 219.193 160.816 218.512 161.451 217.811C161.782 217.446 162.346 217.418 162.711 217.749C162.879 217.901 162.975 218.102 162.998 218.311C163.026 218.556 162.952 218.812 162.773 219.009ZM156.899 224.207C156.086 224.78 155.239 225.325 154.381 225.827C153.956 226.076 153.409 225.933 153.161 225.507C152.912 225.083 153.055 224.536 153.48 224.287C154.295 223.811 155.099 223.293 155.871 222.749C156.274 222.465 156.83 222.561 157.114 222.964C157.204 223.091 157.255 223.234 157.271 223.378C157.306 223.691 157.174 224.013 156.899 224.207ZM150.023 227.989C149.105 228.368 148.16 228.713 147.212 229.013C146.742 229.162 146.241 228.903 146.092 228.433C145.943 227.965 146.202 227.462 146.672 227.313C147.573 227.027 148.471 226.7 149.342 226.34C149.797 226.152 150.319 226.369 150.507 226.824C150.539 226.903 150.56 226.984 150.569 227.066C150.612 227.451 150.399 227.834 150.023 227.989ZM142.492 230.166C141.771 230.292 141.038 230.397 140.313 230.478C140.05 230.507 139.788 230.533 139.526 230.557C139.035 230.601 138.593 230.246 138.558 229.748C138.513 229.258 138.875 228.824 139.366 228.78C139.615 228.758 139.865 228.733 140.114 228.705C140.804 228.628 141.501 228.528 142.186 228.409C142.671 228.325 143.133 228.65 143.218 229.135C143.221 229.153 143.223 229.171 143.225 229.19C143.277 229.654 142.959 230.085 142.492 230.166Z" fill="white"/>
<path d="M163.315 171.973C163.295 171.796 163.223 171.624 163.097 171.482C162.777 171.12 162.443 170.758 162.105 170.406C161.764 170.051 161.199 170.039 160.844 170.38C160.489 170.722 160.477 171.286 160.819 171.642C161.14 171.976 161.456 172.32 161.76 172.663C162.086 173.032 162.65 173.067 163.019 172.741C163.245 172.541 163.346 172.251 163.315 171.973Z" fill="white"/>
<path d="M148.053 171.018C147.904 170.922 147.71 170.931 147.57 171.041L143.579 174.174C141.347 173.377 138.973 172.93 136.535 172.886L133.909 168.549C133.817 168.396 133.638 168.32 133.464 168.357L127.515 169.639C127.341 169.677 127.21 169.82 127.189 169.997L126.583 175.031C124.379 176.075 122.399 177.46 120.694 179.106L115.767 177.895C115.594 177.852 115.414 177.924 115.317 178.073L112.017 183.187C111.92 183.336 111.929 183.531 112.039 183.67L115.173 187.661C114.376 189.893 113.929 192.267 113.885 194.705L109.547 197.331C109.395 197.423 109.318 197.602 109.356 197.776L110.638 203.725C110.675 203.899 110.819 204.03 110.996 204.051L116.03 204.657C117.074 206.861 118.459 208.841 120.105 210.546L118.893 215.473C118.851 215.646 118.923 215.826 119.072 215.923L124.186 219.223C124.335 219.319 124.529 219.31 124.669 219.201L128.66 216.067C130.891 216.864 133.266 217.311 135.704 217.355L138.33 221.693C138.422 221.845 138.6 221.922 138.774 221.884L144.724 220.602C144.898 220.565 145.029 220.421 145.05 220.244L145.656 215.21C147.86 214.166 149.839 212.781 151.545 211.135L156.472 212.347C156.644 212.389 156.825 212.317 156.922 212.168L160.222 207.054C160.318 206.905 160.309 206.711 160.199 206.571L157.066 202.58C157.863 200.348 158.31 197.974 158.354 195.536L162.691 192.91C162.843 192.818 162.92 192.639 162.883 192.466L161.601 186.516C161.563 186.342 161.42 186.211 161.243 186.19L156.209 185.584C155.165 183.38 153.779 181.401 152.134 179.695L153.346 174.768C153.388 174.596 153.316 174.415 153.167 174.319L148.053 171.018Z" fill="url(#paint12_linear_1290_1332)"/>
<path d="M142.233 195.335C142.115 198.706 139.276 201.352 135.905 201.234C134.272 201.177 132.759 200.488 131.644 199.292C130.53 198.097 129.948 196.54 130.005 194.906C130.123 191.535 132.962 188.889 136.333 189.007C139.4 189.114 141.868 191.473 142.199 194.437C142.232 194.731 142.243 195.031 142.233 195.335ZM132.688 198.319C133.543 199.236 134.703 199.764 135.955 199.808C138.539 199.899 140.716 197.869 140.807 195.285C140.898 192.699 138.868 190.524 136.283 190.433C133.699 190.342 131.522 192.372 131.431 194.956C131.423 195.191 131.432 195.423 131.458 195.652C131.569 196.646 131.994 197.574 132.688 198.319Z" fill="white"/>
<path d="M150.994 193.58C150.937 193.071 150.854 192.562 150.745 192.054C150.711 191.894 150.674 191.735 150.634 191.577C150.439 190.795 150.182 190.03 149.867 189.293C149.863 189.283 149.859 189.273 149.854 189.263C149.842 189.234 149.83 189.206 149.817 189.178C149.793 189.122 149.768 189.067 149.744 189.012C149.679 188.868 149.529 188.788 149.379 188.804C149.343 188.808 149.307 188.818 149.271 188.834C149.092 188.915 149.013 189.127 149.094 189.306C149.511 190.23 149.832 191.205 150.047 192.204C151.118 197.168 149.464 202.095 146.096 205.425C144.223 207.278 141.819 208.636 139.059 209.231C138.575 209.335 138.089 209.414 137.603 209.468C134.336 209.833 131.07 209.069 128.27 207.263C125.054 205.187 122.839 201.984 122.033 198.242C120.368 190.515 125.298 182.881 133.021 181.216C133.497 181.114 133.977 181.035 134.458 180.982C136.542 180.749 138.654 180.975 140.642 181.651C140.693 181.669 140.745 181.674 140.796 181.668C140.929 181.653 141.048 181.564 141.094 181.428C141.157 181.241 141.058 181.039 140.871 180.976C138.785 180.266 136.567 180.028 134.379 180.273C133.874 180.329 133.371 180.411 132.871 180.519C124.762 182.266 119.588 190.287 121.335 198.392C122.182 202.32 124.507 205.683 127.883 207.862C130.822 209.759 134.251 210.561 137.681 210.178C138.191 210.121 138.701 210.038 139.209 209.928C143.137 209.082 146.5 206.756 148.679 203.38C150.576 200.441 151.377 197.011 150.994 193.58Z" fill="white"/>
<path d="M157.056 127.367C157.029 127.13 156.85 126.929 156.603 126.886C156.143 126.804 155.673 126.736 155.208 126.683C154.906 126.648 154.633 126.865 154.598 127.167C154.562 127.47 154.781 127.743 155.083 127.777C155.526 127.828 155.973 127.893 156.413 127.971C156.712 128.024 156.998 127.823 157.051 127.524C157.06 127.47 157.061 127.418 157.056 127.367Z" fill="white"/>
<path d="M152.836 127.075C152.838 127.379 152.595 127.628 152.29 127.631C151.522 127.638 150.746 127.685 149.983 127.771C149.822 127.789 149.661 127.809 149.499 127.83C149.198 127.87 148.92 127.658 148.88 127.357C148.854 127.07 149.052 126.778 149.354 126.738C149.523 126.715 149.692 126.695 149.86 126.676C150.66 126.586 151.474 126.537 152.28 126.529C152.564 126.526 152.801 126.741 152.832 127.018C152.834 127.037 152.835 127.056 152.836 127.075ZM146.753 128.367C145.852 128.602 144.957 128.894 144.094 129.236C143.811 129.348 143.491 129.209 143.379 128.926C143.268 128.645 143.405 128.323 143.688 128.211C144.593 127.853 145.531 127.546 146.476 127.301C146.771 127.225 147.071 127.401 147.148 127.696C147.155 127.722 147.159 127.748 147.162 127.774C147.192 128.042 147.022 128.298 146.753 128.367ZM141.562 130.426C140.747 130.874 139.952 131.377 139.198 131.922C138.951 132.1 138.607 132.044 138.429 131.798C138.25 131.551 138.305 131.207 138.552 131.029C139.343 130.457 140.178 129.929 141.032 129.46C141.299 129.314 141.634 129.412 141.78 129.678C141.816 129.743 141.837 129.812 141.845 129.882C141.869 130.097 141.764 130.316 141.562 130.426ZM137.036 133.698C136.354 134.332 135.706 135.015 135.11 135.726C134.914 135.959 134.566 135.99 134.333 135.794C134.101 135.599 134.07 135.251 134.265 135.018C134.891 134.272 135.57 133.557 136.285 132.891C136.508 132.684 136.857 132.697 137.064 132.919C137.147 133.009 137.195 133.12 137.208 133.233C137.227 133.4 137.169 133.574 137.036 133.698ZM133.445 137.975C132.939 138.756 132.476 139.575 132.069 140.41C131.936 140.684 131.606 140.797 131.332 140.664C131.059 140.531 130.944 140.201 131.078 139.928C131.505 139.052 131.99 138.194 132.521 137.375C132.686 137.12 133.027 137.048 133.282 137.213C133.427 137.307 133.513 137.456 133.53 137.614C133.544 137.737 133.517 137.864 133.445 137.975ZM131.002 142.995C130.7 143.874 130.452 144.781 130.262 145.689C130.2 145.987 129.908 146.178 129.61 146.116C129.313 146.054 129.122 145.763 129.183 145.464C129.382 144.511 129.643 143.56 129.959 142.637C130.058 142.35 130.371 142.196 130.659 142.295C130.867 142.366 131.005 142.55 131.028 142.755C131.037 142.833 131.029 142.915 131.002 142.995ZM129.861 148.457C129.785 149.38 129.766 150.321 129.805 151.253C129.817 151.557 129.581 151.814 129.277 151.826C128.974 151.839 128.721 151.603 128.704 151.299C128.663 150.322 128.683 149.336 128.762 148.367C128.787 148.064 129.054 147.838 129.357 147.863C129.623 147.885 129.83 148.094 129.859 148.35C129.863 148.385 129.863 148.421 129.861 148.457ZM130.348 157.447C130.056 157.533 129.75 157.367 129.664 157.075C129.425 156.267 129.227 155.432 129.074 154.596C129.05 154.469 129.029 154.343 129.007 154.216C128.949 153.918 129.161 153.632 129.462 153.582C129.762 153.533 130.045 153.736 130.095 154.037C130.114 154.156 130.135 154.275 130.158 154.396C130.304 155.196 130.493 155.993 130.72 156.763C130.73 156.795 130.736 156.827 130.739 156.858C130.769 157.119 130.608 157.371 130.348 157.447Z" fill="white"/>
<path d="M176.163 148.012C176.257 148.967 176.293 149.937 176.272 150.893C176.265 151.197 176.013 151.439 175.709 151.432C175.404 151.425 175.166 151.171 175.17 150.868C175.191 149.956 175.156 149.031 175.066 148.119C175.036 147.817 175.258 147.547 175.56 147.517C175.861 147.488 176.129 147.705 176.162 148.004C176.162 148.007 176.163 148.009 176.163 148.012ZM175.289 145.819C174.992 145.885 174.697 145.698 174.632 145.401C174.433 144.507 174.179 143.617 173.875 142.754C173.776 142.468 173.925 142.152 174.212 142.052C174.499 141.95 174.814 142.101 174.915 142.388C175.233 143.292 175.5 144.226 175.707 145.162C175.712 145.182 175.715 145.201 175.717 145.221C175.748 145.497 175.567 145.758 175.289 145.819ZM176.03 153.769C175.89 154.72 175.692 155.67 175.439 156.593C175.359 156.886 175.056 157.059 174.763 156.979C174.469 156.899 174.297 156.597 174.376 156.303C174.617 155.422 174.807 154.516 174.94 153.609C174.985 153.308 175.264 153.1 175.565 153.144C175.818 153.181 176.006 153.385 176.033 153.628C176.038 153.674 176.037 153.721 176.03 153.769ZM173.543 140.468C173.271 140.603 172.94 140.492 172.804 140.219C172.397 139.4 171.935 138.598 171.432 137.834C171.265 137.58 171.335 137.239 171.588 137.071C171.842 136.904 172.184 136.973 172.351 137.228C172.88 138.028 173.364 138.87 173.791 139.729C173.821 139.789 173.838 139.851 173.845 139.913C173.87 140.137 173.756 140.362 173.543 140.468ZM174.51 159.322C174.147 160.209 173.726 161.083 173.258 161.921C173.109 162.186 172.774 162.281 172.508 162.133C172.242 161.984 172.147 161.649 172.296 161.383C172.743 160.585 173.144 159.751 173.49 158.905C173.606 158.623 173.927 158.488 174.209 158.604C174.402 158.683 174.526 158.859 174.548 159.053C174.558 159.141 174.546 159.234 174.51 159.322ZM171.702 164.349C171.136 165.125 170.518 165.873 169.865 166.573C169.657 166.796 169.309 166.808 169.086 166.6C168.864 166.393 168.852 166.044 169.059 165.822C169.682 165.154 170.272 164.44 170.812 163.7C170.992 163.454 171.336 163.4 171.582 163.58C171.712 163.675 171.788 163.815 171.805 163.964C171.82 164.096 171.787 164.234 171.702 164.349ZM167.771 168.56C167.035 169.178 166.255 169.756 165.453 170.279C165.197 170.445 164.856 170.372 164.69 170.117C164.524 169.862 164.597 169.521 164.851 169.355C165.617 168.857 166.361 168.306 167.062 167.716C167.295 167.52 167.643 167.551 167.838 167.784C167.911 167.87 167.952 167.972 167.964 168.076C167.984 168.253 167.918 168.437 167.771 168.56Z" fill="white"/>
<path d="M170.73 135.196C170.718 135.09 170.676 134.987 170.601 134.9C170.296 134.541 169.978 134.19 169.656 133.855C169.446 133.636 169.097 133.629 168.877 133.84C168.659 134.05 168.651 134.399 168.862 134.619C169.168 134.937 169.471 135.273 169.763 135.615C169.961 135.846 170.309 135.874 170.54 135.676C170.684 135.553 170.75 135.371 170.73 135.196Z" fill="white"/>
<path d="M160.286 134.233C160.186 134.168 160.056 134.174 159.962 134.248L157.292 136.344C155.799 135.811 154.21 135.512 152.578 135.483L150.821 132.58C150.76 132.479 150.64 132.427 150.524 132.452L146.543 133.31C146.426 133.335 146.339 133.431 146.325 133.549L145.919 136.918C144.444 137.617 143.12 138.544 141.979 139.645L138.682 138.834C138.566 138.806 138.445 138.854 138.381 138.954L136.172 142.375C136.108 142.475 136.114 142.605 136.187 142.699L138.284 145.369C137.751 146.863 137.452 148.452 137.422 150.083L134.52 151.84C134.418 151.902 134.366 152.021 134.392 152.138L135.25 156.119C135.275 156.235 135.371 156.323 135.489 156.337L138.858 156.743C139.556 158.217 140.483 159.542 141.584 160.683L140.774 163.98C140.745 164.095 140.793 164.216 140.893 164.281L144.315 166.489C144.415 166.554 144.545 166.548 144.639 166.474L147.309 164.378C148.802 164.911 150.391 165.21 152.023 165.239L153.78 168.142C153.841 168.244 153.961 168.295 154.077 168.27L158.058 167.412C158.175 167.387 158.262 167.291 158.277 167.173L158.682 163.804C160.157 163.105 161.481 162.178 162.622 161.077L165.919 161.888C166.035 161.916 166.156 161.868 166.22 161.768L168.429 158.347C168.493 158.246 168.487 158.117 168.414 158.023L166.317 155.352C166.85 153.859 167.149 152.27 167.179 150.639L170.081 148.882C170.183 148.82 170.235 148.701 170.209 148.584L169.351 144.603C169.326 144.487 169.23 144.399 169.112 144.385L165.743 143.98C165.045 142.505 164.118 141.18 163.017 140.039L163.827 136.742C163.856 136.627 163.808 136.506 163.708 136.441L160.286 134.233Z" fill="url(#paint13_linear_1290_1332)"/>
<path d="M156.465 150.507C156.426 151.62 155.956 152.65 155.142 153.409C154.328 154.168 153.267 154.565 152.155 154.526C149.858 154.446 148.059 152.515 148.136 150.215C148.217 147.919 150.15 146.116 152.446 146.197C153.558 146.236 154.589 146.706 155.348 147.52C155.965 148.181 156.343 149.006 156.441 149.89C156.464 150.093 156.472 150.299 156.465 150.507ZM152.193 153.425C153.011 153.454 153.792 153.162 154.391 152.604C154.99 152.045 155.335 151.287 155.364 150.469C155.391 149.65 155.101 148.87 154.542 148.271C153.984 147.672 153.226 147.327 152.408 147.298C150.719 147.239 149.296 148.565 149.237 150.254C149.232 150.406 149.238 150.556 149.254 150.704C149.42 152.189 150.656 153.371 152.193 153.425Z" fill="white"/>
<path d="M162.563 149.285C162.524 148.938 162.467 148.591 162.393 148.243C162.244 147.553 162.025 146.877 161.741 146.232C161.728 146.203 161.715 146.174 161.702 146.145C161.601 145.922 161.37 145.799 161.139 145.824C161.083 145.831 161.027 145.846 160.973 145.87C160.695 145.995 160.574 146.322 160.698 146.599C160.969 147.198 161.176 147.83 161.315 148.475V148.475C161.323 148.511 161.33 148.546 161.337 148.582C161.652 150.112 161.573 151.663 161.129 153.12C160.889 153.91 160.54 154.673 160.087 155.389C160.083 155.395 160.079 155.401 160.076 155.407C160.064 155.424 160.053 155.442 160.041 155.46C158.698 157.541 156.624 158.976 154.202 159.497C153.888 159.565 153.574 159.616 153.26 159.651C151.145 159.888 149.03 159.393 147.217 158.223C145.136 156.88 143.702 154.806 143.18 152.384C142.659 149.963 143.111 147.482 144.454 145.4C145.797 143.318 147.871 141.884 150.293 141.362C150.602 141.295 150.912 141.245 151.223 141.21C152.573 141.059 153.94 141.206 155.226 141.643C155.305 141.67 155.386 141.678 155.465 141.669C155.67 141.646 155.854 141.508 155.925 141.299C156.022 141.011 155.869 140.698 155.581 140.6C154.141 140.11 152.611 139.947 151.102 140.115C150.753 140.154 150.406 140.21 150.061 140.284C147.351 140.869 145.031 142.473 143.528 144.802C142.025 147.131 141.517 149.905 142.103 152.616C142.687 155.326 144.291 157.646 146.62 159.149C148.648 160.458 151.013 161.011 153.38 160.747C153.731 160.707 154.083 160.65 154.434 160.575C159.68 159.444 163.146 154.508 162.563 149.285Z" fill="white"/>
<defs>
<filter id="filter0_d_1290_1332" x="148.317" y="11.251" width="80.4343" height="90.436" filterUnits="userSpaceOnUse" color-interpolation-filters="sRGB">
<feFlood flood-opacity="0" result="BackgroundImageFix"/>
<feColorMatrix in="SourceAlpha" type="matrix" values="0 0 0 0 0 0 0 0 0 0 0 0 0 0 0 0 0 0 127 0" result="hardAlpha"/>
<feOffset dy="4"/>
<feGaussianBlur stdDeviation="2"/>
<feComposite in2="hardAlpha" operator="out"/>
<feColorMatrix type="matrix" values="0 0 0 0 0 0 0 0 0 0 0 0 0 0 0 0 0 0 0.25 0"/>
<feBlend mode="normal" in2="BackgroundImageFix" result="effect1_dropShadow_1290_1332"/>
<feBlend mode="normal" in="SourceGraphic" in2="effect1_dropShadow_1290_1332" result="shape"/>
</filter>
<linearGradient id="paint0_linear_1290_1332" x1="65.6274" y1="78.2046" x2="83.2384" y2="97.511" gradientUnits="userSpaceOnUse">
<stop stop-color="#F57A00"/>
<stop offset="1" stop-color="#7103A4"/>
</linearGradient>
<linearGradient id="paint1_linear_1290_1332" x1="56.4001" y1="98.4551" x2="80.8299" y2="129.572" gradientUnits="userSpaceOnUse">
<stop stop-color="#F57A00"/>
<stop offset="1" stop-color="#7103A4"/>
</linearGradient>
<linearGradient id="paint2_linear_1290_1332" x1="205.592" y1="69.9985" x2="369.324" y2="155.858" gradientUnits="userSpaceOnUse">
<stop stop-color="#F57A00"/>
<stop offset="1" stop-color="#7103A4"/>
</linearGradient>
<linearGradient id="paint3_linear_1290_1332" x1="197.662" y1="70.1045" x2="359.637" y2="153.744" gradientUnits="userSpaceOnUse">
<stop stop-color="#F57A00"/>
<stop offset="1" stop-color="#7103A4"/>
</linearGradient>
<linearGradient id="paint4_linear_1290_1332" x1="237.237" y1="183.367" x2="266.402" y2="208.983" gradientUnits="userSpaceOnUse">
<stop stop-color="#F57A00"/>
<stop offset="1" stop-color="#7103A4"/>
</linearGradient>
<linearGradient id="paint5_linear_1290_1332" x1="235.302" y1="184.217" x2="267.224" y2="209.321" gradientUnits="userSpaceOnUse">
<stop stop-color="#F57A00"/>
<stop offset="1" stop-color="#7103A4"/>
</linearGradient>
<linearGradient id="paint6_linear_1290_1332" x1="227.62" y1="224.628" x2="258.807" y2="265.845" gradientUnits="userSpaceOnUse">
<stop stop-color="#F57A00"/>
<stop offset="1" stop-color="#7103A4"/>
</linearGradient>
<linearGradient id="paint7_linear_1290_1332" x1="238.205" y1="93.2895" x2="260.148" y2="94.9743" gradientUnits="userSpaceOnUse">
<stop stop-color="#F57A00"/>
<stop offset="1" stop-color="#7103A4"/>
</linearGradient>
<linearGradient id="paint8_linear_1290_1332" x1="212.951" y1="114.923" x2="214.519" y2="129.832" gradientUnits="userSpaceOnUse">
<stop stop-color="#F57A00"/>
<stop offset="1" stop-color="#7103A4"/>
</linearGradient>
<linearGradient id="paint9_linear_1290_1332" x1="212.951" y1="132.488" x2="214.519" y2="147.397" gradientUnits="userSpaceOnUse">
<stop stop-color="#F57A00"/>
<stop offset="1" stop-color="#7103A4"/>
</linearGradient>
<linearGradient id="paint10_linear_1290_1332" x1="153.222" y1="17.3552" x2="221.356" y2="86.7486" gradientUnits="userSpaceOnUse">
<stop stop-color="#F57A00"/>
<stop offset="1" stop-color="#7103A4"/>
</linearGradient>
<linearGradient id="paint11_linear_1290_1332" x1="159.773" y1="24.8917" x2="214.91" y2="81.3971" gradientUnits="userSpaceOnUse">
<stop stop-color="#F57A00"/>
<stop offset="1" stop-color="#7103A4"/>
</linearGradient>
<linearGradient id="paint12_linear_1290_1332" x1="114.858" y1="177.208" x2="150.263" y2="218.501" gradientUnits="userSpaceOnUse">
<stop stop-color="#F57A00"/>
<stop offset="1" stop-color="#7103A4"/>
</linearGradient>
<linearGradient id="paint13_linear_1290_1332" x1="138.074" y1="138.375" x2="161.765" y2="166.006" gradientUnits="userSpaceOnUse">
<stop stop-color="#F57A00"/>
<stop offset="1" stop-color="#7103A4"/>
</linearGradient>
</defs>
</svg>
