<svg width="442" height="389" viewBox="0 0 442 389" fill="none" xmlns="http://www.w3.org/2000/svg">
<path d="M174.367 120.215L172.792 255.287C167.23 300.231 87.5588 335.912 87.5588 335.912C87.5588 335.912 7.87592 300.265 2.2795 255.287L0.65918 120.215L85.8121 92.1865L174.367 120.215Z" fill="url(#paint0_linear_1270_1663)"/>
<path d="M163.254 128.764L161.887 250.047C157.037 289.245 87.5472 320.364 87.5472 320.364C87.5472 320.364 18.0574 289.245 13.2194 250.047L11.76 128.764L86.0304 104.322L163.254 128.764Z" fill="#1B1425"/>
<path d="M158.382 136.418L157.095 247.76C152.498 284.533 87.3979 313.676 87.3979 313.676C87.3979 313.676 22.2519 284.499 17.7127 247.76L16.3452 136.418L85.973 113.503L158.382 136.418Z" stroke="white" stroke-width="3" stroke-linecap="round" stroke-linejoin="round"/>
<path d="M441.627 74.6274H288.352V343.577H441.627V74.6274Z" fill="url(#paint1_linear_1270_1663)"/>
<path d="M430.515 85.2002H299.683V343.577H430.515V85.2002Z" fill="#1B1425"/>
<path d="M303.36 344.725C303.13 344.726 302.903 344.679 302.693 344.587C302.486 344.505 302.298 344.38 302.142 344.22C301.975 344.063 301.845 343.87 301.762 343.657C301.68 343.448 301.637 343.226 301.636 343.002C301.636 342.747 301.693 342.496 301.802 342.266C301.911 342.036 302.069 341.833 302.266 341.671C302.463 341.51 302.692 341.394 302.939 341.332C303.186 341.27 303.443 341.263 303.693 341.312L304.015 341.404L304.314 341.565C304.407 341.632 304.495 341.705 304.578 341.783C304.659 341.861 304.729 341.95 304.785 342.048C304.852 342.14 304.906 342.24 304.946 342.347C304.992 342.45 305.027 342.558 305.049 342.668C305.061 342.779 305.061 342.891 305.049 343.002C305.05 343.227 305.003 343.45 304.911 343.657C304.829 343.868 304.704 344.059 304.543 344.22C304.228 344.533 303.804 344.714 303.36 344.725Z" fill="white"/>
<path d="M301.613 300.667C301.615 300.439 301.661 300.214 301.75 300.005C301.839 299.796 301.968 299.606 302.13 299.447C302.293 299.288 302.485 299.162 302.696 299.078C302.907 298.993 303.133 298.951 303.36 298.954C303.817 298.954 304.255 299.136 304.579 299.459C304.902 299.782 305.084 300.221 305.084 300.678C305.084 301.135 304.902 301.574 304.579 301.897C304.255 302.22 303.817 302.402 303.36 302.402C303.131 302.405 302.903 302.362 302.69 302.276C302.478 302.19 302.285 302.063 302.122 301.901C301.959 301.739 301.831 301.547 301.743 301.335C301.656 301.123 301.612 300.896 301.613 300.667ZM301.613 258.343C301.613 257.886 301.795 257.447 302.118 257.124C302.441 256.801 302.88 256.619 303.337 256.619C303.794 256.619 304.232 256.801 304.556 257.124C304.879 257.447 305.061 257.886 305.061 258.343C305.061 258.8 304.879 259.239 304.556 259.562C304.232 259.885 303.794 260.067 303.337 260.067C302.88 260.067 302.441 259.885 302.118 259.562C301.795 259.239 301.613 258.8 301.613 258.343ZM301.613 216.008C301.613 215.551 301.795 215.112 302.118 214.789C302.441 214.466 302.88 214.284 303.337 214.284C303.794 214.284 304.232 214.466 304.556 214.789C304.879 215.112 305.061 215.551 305.061 216.008C305.061 216.465 304.879 216.903 304.556 217.227C304.232 217.55 303.794 217.732 303.337 217.732C303.111 217.732 302.886 217.687 302.677 217.6C302.468 217.514 302.278 217.387 302.118 217.227C301.958 217.067 301.831 216.877 301.744 216.668C301.658 216.458 301.613 216.234 301.613 216.008ZM301.613 173.673C301.613 173.216 301.795 172.777 302.118 172.454C302.441 172.131 302.88 171.949 303.337 171.949C303.794 171.949 304.232 172.131 304.556 172.454C304.879 172.777 305.061 173.216 305.061 173.673C305.061 174.13 304.879 174.568 304.556 174.892C304.232 175.215 303.794 175.397 303.337 175.397C302.884 175.397 302.449 175.218 302.126 174.9C301.803 174.582 301.619 174.149 301.613 173.696V173.673ZM301.613 131.349C301.613 130.892 301.795 130.454 302.118 130.13C302.441 129.807 302.88 129.625 303.337 129.625C303.794 129.625 304.232 129.807 304.556 130.13C304.879 130.454 305.061 130.892 305.061 131.349C305.061 131.806 304.879 132.245 304.556 132.568C304.232 132.891 303.794 133.073 303.337 133.073C303.111 133.073 302.886 133.028 302.677 132.942C302.468 132.855 302.278 132.728 302.118 132.568C301.958 132.408 301.831 132.218 301.744 132.009C301.658 131.8 301.613 131.576 301.613 131.349Z" fill="white"/>
<path d="M303.36 90.7384C303.134 90.7395 302.909 90.6953 302.7 90.6085C302.491 90.5216 302.301 90.3939 302.142 90.2328C302.057 90.1554 301.984 90.0664 301.924 89.9685C301.863 89.8767 301.809 89.7806 301.763 89.6812C301.715 89.5753 301.684 89.463 301.671 89.3479C301.659 89.2371 301.659 89.1254 301.671 89.0146C301.674 88.5581 301.855 88.1209 302.176 87.7965C302.253 87.715 302.337 87.6418 302.429 87.5782C302.523 87.517 302.623 87.4669 302.728 87.4288C302.832 87.384 302.939 87.3494 303.05 87.3254C303.273 87.2796 303.504 87.2796 303.728 87.3254C303.838 87.3494 303.946 87.384 304.05 87.4288C304.155 87.4669 304.255 87.517 304.348 87.5782C304.441 87.6447 304.53 87.7176 304.613 87.7965C304.934 88.1209 305.115 88.5581 305.118 89.0146C305.13 89.1254 305.13 89.2371 305.118 89.3479C305.094 89.462 305.06 89.5736 305.015 89.6812C304.973 89.7829 304.919 89.8793 304.854 89.9685C304.798 90.0662 304.729 90.1553 304.647 90.2328C304.478 90.4002 304.277 90.5314 304.056 90.6184C303.834 90.7053 303.598 90.7461 303.36 90.7384Z" fill="white"/>
<path d="M383.664 89.0148C383.664 88.5576 383.845 88.1192 384.168 87.7959C384.492 87.4726 384.93 87.291 385.387 87.291C385.844 87.291 386.283 87.4726 386.606 87.7959C386.929 88.1192 387.111 88.5576 387.111 89.0148C387.111 89.4719 386.929 89.9104 386.606 90.2336C386.283 90.5569 385.844 90.7385 385.387 90.7385C384.93 90.7385 384.492 90.5569 384.168 90.2336C383.845 89.9104 383.664 89.4719 383.664 89.0148ZM342.638 89.0148C342.638 88.5576 342.82 88.1192 343.143 87.7959C343.467 87.4726 343.905 87.291 344.362 87.291C344.819 87.291 345.258 87.4726 345.581 87.7959C345.904 88.1192 346.086 88.5576 346.086 89.0148C346.086 89.4719 345.904 89.9104 345.581 90.2336C345.258 90.5569 344.819 90.7385 344.362 90.7385C343.905 90.7385 343.467 90.5569 343.143 90.2336C342.82 89.9104 342.638 89.4719 342.638 89.0148Z" fill="white"/>
<path d="M426.412 90.7391C426.301 90.7504 426.19 90.7504 426.079 90.7391L425.757 90.6471L425.458 90.4863C425.365 90.4198 425.277 90.3468 425.194 90.2679C424.871 89.945 424.689 89.5068 424.689 89.0498C424.691 88.5933 424.873 88.1561 425.194 87.8317C425.274 87.753 425.363 87.6837 425.458 87.6249C425.549 87.5558 425.65 87.5015 425.757 87.464C425.86 87.4175 425.968 87.3828 426.079 87.3605C426.303 87.3147 426.533 87.3147 426.757 87.3605L427.079 87.464C427.183 87.5017 427.28 87.5561 427.366 87.6249C427.464 87.6805 427.553 87.7502 427.63 87.8317C427.952 88.1561 428.133 88.5933 428.136 89.0498C428.136 89.5068 427.954 89.945 427.63 90.2679C427.55 90.3496 427.461 90.4228 427.366 90.4863C427.274 90.5467 427.178 90.6004 427.079 90.6471L426.757 90.7391C426.642 90.7504 426.527 90.7504 426.412 90.7391Z" fill="white"/>
<path d="M424.689 300.667C424.689 300.209 424.87 299.771 425.193 299.448C425.517 299.124 425.955 298.943 426.412 298.943C426.869 298.943 427.308 299.124 427.631 299.448C427.954 299.771 428.136 300.209 428.136 300.667C428.136 301.124 427.954 301.562 427.631 301.885C427.308 302.209 426.869 302.39 426.412 302.39C425.955 302.39 425.517 302.209 425.193 301.885C424.87 301.562 424.689 301.124 424.689 300.667ZM424.689 258.343C424.689 257.886 424.87 257.447 425.193 257.124C425.517 256.801 425.955 256.619 426.412 256.619C426.869 256.619 427.308 256.801 427.631 257.124C427.954 257.447 428.136 257.886 428.136 258.343C428.136 258.8 427.954 259.239 427.631 259.562C427.308 259.885 426.869 260.067 426.412 260.067C425.955 260.067 425.517 259.885 425.193 259.562C424.87 259.239 424.689 258.8 424.689 258.343ZM424.689 216.008C424.689 215.551 424.87 215.112 425.193 214.789C425.517 214.466 425.955 214.284 426.412 214.284C426.869 214.284 427.308 214.466 427.631 214.789C427.954 215.112 428.136 215.551 428.136 216.008C428.136 216.465 427.954 216.903 427.631 217.227C427.308 217.55 426.869 217.732 426.412 217.732C426.186 217.732 425.962 217.687 425.753 217.6C425.544 217.514 425.353 217.387 425.193 217.227C425.033 217.067 424.906 216.877 424.82 216.668C424.733 216.458 424.689 216.234 424.689 216.008ZM424.689 173.673C424.689 173.216 424.87 172.777 425.193 172.454C425.517 172.131 425.955 171.949 426.412 171.949C426.869 171.949 427.308 172.131 427.631 172.454C427.954 172.777 428.136 173.216 428.136 173.673C428.136 174.13 427.954 174.568 427.631 174.892C427.308 175.215 426.869 175.397 426.412 175.397C425.959 175.397 425.524 175.218 425.201 174.9C424.879 174.582 424.695 174.149 424.689 173.696V173.673ZM424.689 131.349C424.689 130.892 424.87 130.454 425.193 130.13C425.517 129.807 425.955 129.625 426.412 129.625C426.869 129.625 427.308 129.807 427.631 130.13C427.954 130.454 428.136 130.892 428.136 131.349C428.136 131.806 427.954 132.245 427.631 132.568C427.308 132.891 426.869 133.073 426.412 133.073C426.186 133.073 425.962 133.028 425.753 132.942C425.544 132.855 425.353 132.728 425.193 132.568C425.033 132.408 424.906 132.218 424.82 132.009C424.733 131.8 424.689 131.576 424.689 131.349Z" fill="white"/>
<path d="M426.412 344.726C426.072 344.725 425.739 344.624 425.455 344.435C425.172 344.245 424.952 343.976 424.821 343.661C424.691 343.347 424.657 343 424.723 342.666C424.79 342.332 424.953 342.025 425.194 341.784C425.277 341.705 425.365 341.632 425.459 341.566L425.757 341.405L426.079 341.313C426.303 341.267 426.533 341.267 426.757 341.313L427.079 341.405C427.178 341.451 427.274 341.505 427.366 341.566C427.462 341.629 427.55 341.702 427.63 341.784C427.954 342.107 428.136 342.545 428.136 343.002C428.138 343.229 428.095 343.453 428.008 343.663C427.921 343.872 427.793 344.062 427.63 344.22C427.308 344.543 426.869 344.725 426.412 344.726Z" fill="white"/>
<path d="M285.904 1.39111H229.572V57.723H285.904V1.39111Z" fill="url(#paint2_linear_1270_1663)"/>
<path d="M287.341 1.39111H285.904V57.723H287.341V1.39111Z" fill="url(#paint3_linear_1270_1663)"/>
<path d="M280.687 6.6084H234.766V52.5288H280.687V6.6084Z" fill="#F5F5F5"/>
<path d="M235.203 6.6084H234.778V52.5288H235.203V6.6084Z" fill="#E0E0E0"/>
<path d="M258.164 36.1992C263.108 36.1992 267.115 31.0954 267.115 24.7996C267.115 18.5037 263.108 13.3999 258.164 13.3999C253.219 13.3999 249.212 18.5037 249.212 24.7996C249.212 31.0954 253.219 36.1992 258.164 36.1992Z" fill="#1B1425"/>
<path d="M253.486 41.9683H262.921V32.5337H253.486V41.9683Z" fill="#1B1425"/>
<path d="M275.171 52.5288L240.604 52.5288V49.3112C240.604 46.3731 241.771 43.5554 243.849 41.4779C245.926 39.4004 248.744 38.2333 251.682 38.2333H264.139C267.077 38.2333 269.895 39.4004 271.972 41.4779C274.05 43.5554 275.217 46.3731 275.217 49.3112V52.5288H275.171Z" fill="#1B1425"/>
<path d="M239.742 33.3613C239.742 35.2344 243.19 36.8088 243.19 36.8088C243.19 36.8088 246.637 35.2804 246.637 33.3613C246.637 32.465 245.396 31.9593 244.58 32.2121C244.268 32.3211 243.98 32.491 243.733 32.7119C243.487 32.9328 243.286 33.2004 243.144 33.4992C242.704 32.9065 242.123 32.4326 241.455 32.1202C241.258 32.0515 241.049 32.0313 240.843 32.0614C240.637 32.0914 240.442 32.1709 240.274 32.2928C240.105 32.4148 239.969 32.5757 239.877 32.7617C239.784 32.9478 239.738 33.1535 239.742 33.3613Z" fill="#1B1425"/>
<path d="M270.333 24.9838C270.333 27.4545 274.803 29.4541 274.803 29.4541C274.803 29.4541 279.274 27.4545 279.274 24.9838C279.274 23.8347 277.619 23.1567 276.573 23.4555C275.784 23.7705 275.15 24.3806 274.803 25.1562C274.22 24.3819 273.46 23.7592 272.586 23.3405C272.327 23.2489 272.049 23.2217 271.778 23.2614C271.506 23.3011 271.248 23.4064 271.026 23.5683C270.804 23.7301 270.625 23.9436 270.504 24.1903C270.384 24.437 270.325 24.7093 270.333 24.9838Z" fill="#1B1425"/>
<path d="M115.736 58.3093C113.092 58.6811 110.396 58.2603 107.991 57.1001C105.585 55.94 103.578 54.0925 102.222 51.7914C100.867 49.4904 100.224 46.839 100.375 44.1727C100.527 41.5063 101.466 38.9448 103.073 36.8119C104.68 34.6791 106.884 33.0708 109.405 32.1904C111.926 31.3099 114.652 31.197 117.238 31.8658C119.823 32.5346 122.153 33.9551 123.931 35.9476C125.709 37.9402 126.856 40.4153 127.228 43.06C127.72 46.605 126.786 50.2005 124.632 53.0587C122.478 55.917 119.279 57.8051 115.736 58.3093ZM113.001 38.6587C111.76 38.8297 110.598 39.365 109.661 40.1968C108.725 41.0285 108.056 42.1194 107.739 43.3314C107.423 44.5433 107.473 45.822 107.883 47.0055C108.294 48.189 109.046 49.2242 110.045 49.9801C111.043 50.736 112.244 51.1788 113.494 51.2522C114.745 51.3257 115.989 51.0266 117.07 50.3928C118.15 49.759 119.018 48.819 119.564 47.6917C120.11 46.5644 120.31 45.3004 120.137 44.0597C119.904 42.3989 119.022 40.8983 117.684 39.8862C116.347 38.874 114.663 38.4327 113.001 38.6587Z" fill="#E0E0E0"/>
<path d="M110.675 4.65832L105.599 5.36719L110.158 38.0197L115.234 37.3109L110.675 4.65832Z" fill="#E0E0E0"/>
<path d="M114.968 0.113376L105.446 1.45996L106.163 6.53396L115.686 5.18738L114.968 0.113376Z" fill="#E0E0E0"/>
<path d="M115.751 7.01682L106.794 8.26611L107.502 13.3422L116.459 12.0929L115.751 7.01682Z" fill="#E0E0E0"/>
<path d="M117.057 16.219L109.238 17.3096L109.946 22.3857L117.765 21.2951L117.057 16.219Z" fill="#E0E0E0"/>
<path d="M105.095 172.865C115.69 161.798 114.489 143.455 102.413 131.895C90.3372 120.334 71.9593 119.935 61.3647 131.002C50.7702 142.069 51.971 160.412 64.0468 171.972C76.1226 183.532 94.5006 183.932 105.095 172.865Z" fill="white"/>
<path d="M105.095 172.864C115.69 161.797 114.489 143.454 102.413 131.894C90.3372 120.334 71.9593 119.934 61.3647 131.001C50.7702 142.068 51.971 160.411 64.0468 171.971C76.1226 183.531 94.5006 183.931 105.095 172.864Z" fill="url(#paint4_linear_1270_1663)"/>
<path d="M69.7236 133.752C69.4824 133.752 69.2474 133.676 69.0517 133.535C68.856 133.394 68.7097 133.195 68.6334 132.966C68.5572 132.737 68.5548 132.49 68.6267 132.26C68.6986 132.03 68.8412 131.828 69.0341 131.683C72.9037 128.906 77.5678 127.455 82.3299 127.546C82.6347 127.546 82.927 127.667 83.1425 127.883C83.358 128.098 83.4791 128.39 83.4791 128.695C83.4791 129 83.358 129.292 83.1425 129.508C82.927 129.723 82.6347 129.844 82.3299 129.844C78.0647 129.75 73.8837 131.041 70.4131 133.522C70.2142 133.671 69.9723 133.752 69.7236 133.752Z" fill="white"/>
<path d="M75.1593 173.282C74.9707 173.281 74.7852 173.234 74.6192 173.144C71.0974 171.261 68.0415 168.614 65.6754 165.397C63.3092 162.18 61.6926 158.474 60.9442 154.551C60.214 151.158 60.2477 147.644 61.0427 144.265C61.8377 140.887 63.3741 137.727 65.5408 135.015C65.7359 134.781 66.0162 134.633 66.32 134.605C66.6239 134.577 66.9264 134.671 67.1611 134.866C67.3958 135.061 67.5434 135.341 67.5714 135.645C67.5994 135.949 67.5056 136.251 67.3105 136.486C65.3533 138.941 63.9675 141.801 63.2538 144.858C62.5402 147.915 62.5167 151.093 63.185 154.16C63.8735 157.746 65.353 161.134 67.5159 164.076C69.6787 167.018 72.4705 169.441 75.6879 171.168C75.9126 171.289 76.0905 171.482 76.1935 171.715C76.2966 171.949 76.3189 172.21 76.257 172.458C76.195 172.705 76.0524 172.925 75.8516 173.083C75.6507 173.241 75.4031 173.327 75.1478 173.328L75.1593 173.282Z" fill="white"/>
<path d="M86.6622 176.282C84.09 176.271 81.5352 175.86 79.0892 175.064C78.9451 175.017 78.8116 174.942 78.6964 174.844C78.5811 174.745 78.4864 174.625 78.4175 174.49C78.3487 174.355 78.3071 174.208 78.2952 174.057C78.2833 173.906 78.3012 173.754 78.348 173.61C78.3948 173.466 78.4695 173.332 78.5679 173.217C78.6662 173.102 78.7863 173.007 78.9213 172.938C79.0563 172.869 79.2035 172.828 79.3546 172.816C79.5056 172.804 79.6576 172.822 79.8017 172.869C86.869 175.167 93.9249 173.88 99.1536 169.421C101.806 167.08 103.811 164.095 104.974 160.754C106.138 157.412 106.421 153.828 105.796 150.345C105.747 150.04 105.821 149.729 106.002 149.479C106.183 149.229 106.456 149.061 106.761 149.012C107.066 148.963 107.377 149.038 107.627 149.219C107.877 149.4 108.045 149.673 108.094 149.977C108.791 153.847 108.474 157.831 107.175 161.543C105.877 165.254 103.64 168.566 100.682 171.156C96.785 174.509 91.8024 176.33 86.6622 176.282Z" fill="white"/>
<path d="M105.991 147.403C105.747 147.402 105.51 147.324 105.314 147.179C105.118 147.035 104.973 146.831 104.9 146.599C103.843 143.336 102.112 140.331 99.8194 137.779C97.527 135.227 94.7241 133.186 91.5922 131.786C91.3118 131.664 91.0913 131.436 90.9793 131.152C90.8672 130.867 90.8727 130.55 90.9947 130.269C91.1166 129.989 91.3449 129.768 91.6293 129.656C91.9138 129.544 92.2312 129.55 92.5116 129.672C95.9413 131.205 99.0107 133.442 101.521 136.237C104.031 139.032 105.926 142.324 107.083 145.898C107.177 146.187 107.153 146.503 107.015 146.774C106.877 147.046 106.637 147.251 106.347 147.346C106.232 147.381 106.112 147.4 105.991 147.403Z" fill="white"/>
<path d="M87.8804 130.487C87.7927 130.499 87.7038 130.499 87.6161 130.487C85.8867 130.085 84.1171 129.88 82.3414 129.878C82.0366 129.878 81.7444 129.757 81.5288 129.542C81.3133 129.326 81.1923 129.034 81.1923 128.729C81.1923 128.424 81.3133 128.132 81.5288 127.917C81.7444 127.701 82.0366 127.58 82.3414 127.58C84.2763 127.586 86.2041 127.813 88.0872 128.258C88.392 128.293 88.6704 128.448 88.8611 128.688C89.0518 128.928 89.1393 129.235 89.1042 129.539C89.0692 129.844 88.9145 130.123 88.6742 130.313C88.4339 130.504 88.1277 130.591 87.8229 130.556L87.8804 130.487Z" fill="white"/>
<path d="M67.6092 157.941C67.3744 157.941 67.145 157.87 66.9519 157.737C66.7588 157.603 66.6112 157.414 66.529 157.194C65.4518 154.413 65.0729 151.411 65.4256 148.45C65.7782 145.489 66.8515 142.659 68.5515 140.209C70.1585 137.888 72.3108 135.998 74.8195 134.703C77.3282 133.409 80.1163 132.75 82.939 132.786C83.2438 132.786 83.5361 132.907 83.7516 133.122C83.9671 133.338 84.0882 133.63 84.0882 133.935C84.0882 134.239 83.9671 134.532 83.7516 134.747C83.5361 134.963 83.2438 135.084 82.939 135.084C80.4865 135.055 78.0641 135.626 75.8829 136.748C73.7017 137.87 71.8279 139.508 70.4247 141.519C68.9339 143.677 67.996 146.167 67.6934 148.772C67.3908 151.377 67.7328 154.016 68.6894 156.458C68.7935 156.743 68.7806 157.058 68.6536 157.333C68.5266 157.609 68.2957 157.823 68.0114 157.929C67.8789 157.955 67.743 157.959 67.6092 157.941Z" fill="white"/>
<path d="M85.835 171.064C82.3905 170.949 79.0247 170.004 76.0237 168.31C73.0227 166.615 70.4751 164.221 68.5976 161.331C68.4581 161.077 68.4196 160.78 68.4899 160.499C68.5602 160.218 68.734 159.974 68.9766 159.815C69.2192 159.657 69.5127 159.596 69.7982 159.645C70.0838 159.694 70.3404 159.848 70.5167 160.078C72.1855 162.649 74.4486 164.781 77.1148 166.293C79.781 167.805 82.7719 168.653 85.835 168.766C86.1398 168.766 86.4321 168.887 86.6476 169.103C86.8631 169.318 86.9842 169.61 86.9842 169.915C86.9842 170.22 86.8631 170.512 86.6476 170.728C86.4321 170.943 86.1398 171.064 85.835 171.064Z" fill="white"/>
<path d="M90.1328 170.571C89.8702 170.579 89.613 170.496 89.404 170.337C89.1949 170.178 89.0465 169.953 88.9836 169.698C88.9107 169.402 88.9581 169.09 89.1154 168.829C89.2727 168.568 89.527 168.381 89.8225 168.307C99.1422 166.009 101.555 157.838 100.785 151.564C99.7857 143.382 93.3274 135.096 82.9045 135.085C82.5998 135.085 82.3075 134.964 82.092 134.748C81.8764 134.533 81.7554 134.241 81.7554 133.936C81.7554 133.631 81.8764 133.339 82.092 133.123C82.3075 132.908 82.5998 132.787 82.9045 132.787C94.6605 132.787 101.946 142.095 103.072 151.288C104.221 160.769 99.2456 168.33 90.3741 170.537C90.2951 170.557 90.2142 170.568 90.1328 170.571Z" fill="white"/>
<path d="M78.2391 141.427C78.0213 141.426 77.8084 141.362 77.6253 141.244C77.4421 141.126 77.2963 140.959 77.2048 140.761C77.0754 140.485 77.0608 140.169 77.1642 139.883C77.2676 139.596 77.4807 139.362 77.7564 139.233C79.5182 138.453 81.4266 138.061 83.3529 138.083C83.6576 138.083 83.9499 138.204 84.1655 138.42C84.381 138.635 84.502 138.928 84.502 139.233C84.502 139.537 84.381 139.83 84.1655 140.045C83.9499 140.261 83.6576 140.382 83.3529 140.382C81.7668 140.383 80.1994 140.724 78.7562 141.381C78.5896 141.436 78.4127 141.452 78.2391 141.427Z" fill="white"/>
<path d="M85.628 165.71C82.7175 165.663 79.8815 164.783 77.4558 163.174C75.0301 161.565 73.1164 159.294 71.9415 156.631C69.5627 151.449 70.2637 146.036 73.8146 142.129C74.0206 141.905 74.3068 141.773 74.6105 141.76C74.9142 141.747 75.2106 141.855 75.4349 142.06C75.6584 142.266 75.7911 142.552 75.804 142.856C75.8169 143.16 75.709 143.456 75.5039 143.68C74.076 145.295 73.1711 147.305 72.9085 149.445C72.6459 151.585 73.0379 153.754 74.0329 155.666C75.0486 157.987 76.7239 159.959 78.8507 161.336C80.9775 162.713 83.4621 163.435 85.9957 163.411C87.9124 163.397 89.784 162.829 91.3848 161.775C92.9855 160.721 94.2469 159.226 95.0166 157.47C95.8822 155.399 96.1429 153.126 95.7687 150.913C95.3944 148.7 94.4005 146.638 92.9022 144.967C92.8041 144.853 92.7295 144.72 92.6828 144.576C92.6361 144.433 92.6181 144.281 92.6298 144.131C92.6415 143.981 92.6828 143.834 92.7512 143.699C92.8196 143.565 92.9139 143.445 93.0286 143.347C93.1433 143.249 93.2762 143.174 93.4197 143.128C93.5632 143.081 93.7145 143.063 93.8649 143.075C94.0154 143.086 94.1621 143.128 94.2966 143.196C94.4311 143.264 94.5508 143.359 94.6489 143.473C96.4327 145.474 97.6119 147.94 98.0493 150.585C98.4866 153.229 98.1642 155.944 97.1196 158.413C96.1767 160.566 94.6317 162.402 92.6706 163.698C90.7094 164.995 88.4155 165.697 86.0647 165.721L85.628 165.71Z" fill="white"/>
<path d="M90.4658 142.439C90.249 142.44 90.0368 142.376 89.8568 142.255C87.9164 141.006 85.6601 140.337 83.3525 140.325C83.0478 140.325 82.7555 140.204 82.54 139.988C82.3244 139.773 82.2034 139.48 82.2034 139.176C82.2034 138.871 82.3244 138.578 82.54 138.363C82.7555 138.147 83.0478 138.026 83.3525 138.026C86.0973 138.037 88.7815 138.834 91.0864 140.325C91.2945 140.459 91.4537 140.657 91.54 140.89C91.6264 141.122 91.6353 141.376 91.5655 141.614C91.4957 141.851 91.351 142.06 91.1528 142.209C90.9546 142.358 90.7137 142.438 90.4658 142.439Z" fill="white"/>
<path d="M85.0189 160.527C83.6762 160.518 82.3518 160.215 81.1387 159.639C79.9257 159.063 78.8535 158.229 77.9975 157.194C76.893 155.93 76.1757 154.375 75.9312 152.714C75.6866 151.053 75.9253 149.357 76.6185 147.829C77.2374 146.441 78.2501 145.266 79.531 144.448C80.8119 143.631 82.3046 143.208 83.8238 143.232C84.1286 143.232 84.4209 143.353 84.6364 143.568C84.8519 143.784 84.973 144.076 84.973 144.381C84.973 144.686 84.8519 144.978 84.6364 145.194C84.4209 145.409 84.1286 145.53 83.8238 145.53C82.7492 145.51 81.6924 145.806 80.7837 146.38C79.8749 146.953 79.1541 147.781 78.71 148.759C78.2047 149.888 78.0347 151.138 78.2201 152.36C78.4055 153.583 78.9386 154.726 79.7557 155.654C80.5693 156.651 81.6493 157.396 82.8699 157.803C84.0906 158.21 85.4018 158.262 86.6507 157.953C87.6669 157.724 88.5959 157.208 89.3273 156.467C90.0587 155.725 90.5616 154.789 90.7762 153.77C90.8422 153.473 91.0232 153.214 91.2795 153.05C91.5358 152.887 91.8466 152.831 92.1437 152.896C92.2918 152.928 92.4322 152.988 92.5569 153.074C92.6815 153.16 92.7881 153.269 92.8703 153.396C92.9525 153.523 93.0088 153.665 93.036 153.814C93.0631 153.963 93.0606 154.116 93.0286 154.264C92.7243 155.702 92.0152 157.023 90.985 158.072C89.9548 159.12 88.6463 159.852 87.2138 160.182C86.4985 160.384 85.7617 160.5 85.0189 160.527Z" fill="white"/>
<path d="M91.7072 151.425C91.4538 151.437 91.2036 151.364 90.9957 151.219C90.7878 151.073 90.6339 150.863 90.5581 150.621C90.0995 149.181 89.2031 147.92 87.994 147.014C86.7849 146.107 85.3232 145.601 83.8125 145.564C83.5077 145.564 83.2154 145.443 82.9999 145.228C82.7844 145.012 82.6633 144.72 82.6633 144.415C82.6633 144.11 82.7844 143.818 82.9999 143.603C83.2154 143.387 83.5077 143.266 83.8125 143.266C85.8105 143.311 87.745 143.976 89.3472 145.171C90.9495 146.365 92.1398 148.029 92.753 149.931C92.7994 150.075 92.8169 150.227 92.8045 150.378C92.792 150.529 92.7499 150.676 92.6804 150.81C92.611 150.945 92.5157 151.065 92.4 151.162C92.2842 151.26 92.1504 151.333 92.006 151.379C91.9089 151.408 91.8084 151.423 91.7072 151.425Z" fill="white"/>
<path d="M85.3292 155.747C85.0244 155.747 84.7321 155.626 84.5166 155.41C84.3011 155.195 84.1801 154.902 84.1801 154.598C84.1801 154.293 84.3011 154.001 84.5166 153.785C84.7321 153.57 85.0244 153.448 85.3292 153.448C85.4861 153.449 85.6414 153.417 85.7855 153.355C85.9296 153.293 86.0595 153.202 86.1672 153.088C86.2748 152.974 86.358 152.839 86.4115 152.691C86.465 152.544 86.4878 152.387 86.4784 152.23C86.4845 152.007 86.4461 151.784 86.3653 151.575C86.2846 151.366 86.1632 151.176 86.0082 151.014C85.8531 150.853 85.6676 150.724 85.4622 150.635C85.2569 150.545 85.0359 150.498 84.8121 150.495C84.6435 150.5 84.4775 150.537 84.3236 150.606C84.1698 150.675 84.0311 150.774 83.9157 150.897C83.798 151.036 83.7089 151.197 83.6537 151.371C83.5985 151.544 83.5782 151.727 83.594 151.909C83.603 152.059 83.5823 152.211 83.5329 152.354C83.4835 152.496 83.4065 152.628 83.3061 152.741C83.2058 152.854 83.0842 152.947 82.9483 153.013C82.8123 153.079 82.6647 153.118 82.5138 153.127C82.3628 153.136 82.2116 153.115 82.0687 153.066C81.9259 153.016 81.7941 152.939 81.681 152.839C81.5679 152.739 81.4756 152.617 81.4095 152.481C81.3434 152.345 81.3047 152.197 81.2957 152.046C81.2548 151.564 81.3129 151.079 81.4664 150.62C81.62 150.161 81.8658 149.738 82.1886 149.378C82.5115 149.017 82.9046 148.726 83.3439 148.523C83.7832 148.32 84.2593 148.209 84.7431 148.197C85.2692 148.198 85.7897 148.304 86.2746 148.508C86.7594 148.712 87.199 149.011 87.5677 149.386C87.9365 149.761 88.2271 150.205 88.4228 150.694C88.6185 151.182 88.7154 151.704 88.7078 152.23C88.7169 152.689 88.6345 153.145 88.4654 153.571C88.2962 153.997 88.0437 154.385 87.7227 154.713C87.4017 155.04 87.0185 155.3 86.5957 155.478C86.1729 155.655 85.7189 155.747 85.2603 155.747H85.3292Z" fill="white"/>
<path d="M114.897 151.919C116.299 167.927 104.451 180.901 88.4666 180.901H87.2255C102.463 180.12 113.53 167.456 112.174 151.954C111.391 144.366 107.949 137.299 102.458 132.004C96.9674 126.708 89.7807 123.525 82.1692 123.018C82.5714 123.018 82.9851 123.018 83.3988 123.018C99.4296 122.949 113.541 135.923 114.897 151.919Z" fill="white"/>
<path d="M114.897 151.919C116.299 167.927 104.451 180.901 88.4666 180.901H87.2255C102.463 180.12 113.53 167.456 112.174 151.954C111.391 144.366 107.949 137.299 102.458 132.004C96.9674 126.708 89.7807 123.525 82.1692 123.018C82.5714 123.018 82.9851 123.018 83.3988 123.018C99.4296 122.949 113.541 135.923 114.897 151.919Z" fill="url(#paint5_linear_1270_1663)"/>
<path d="M138.363 10.6762C138.391 11.0192 138.437 11.3606 138.501 11.6989C138.934 13.9131 140.071 15.9282 141.742 17.4447C143.634 19.2171 146.124 20.2137 148.717 20.2372H245.81C246.943 20.2601 248.07 20.0573 249.124 19.6408C250.178 19.2243 251.139 18.6022 251.951 17.8109C252.762 17.0196 253.408 16.0747 253.852 15.0314C254.295 13.988 254.526 12.867 254.532 11.7334C254.549 11.3927 254.549 11.0514 254.532 10.7106C254.261 8.13769 253.061 5.75177 251.157 4.00012C249.253 2.24846 246.776 1.25132 244.189 1.1956H147.074C145.856 1.17099 144.647 1.40567 143.528 1.88404C142.408 2.36242 141.403 3.07355 140.579 3.97022C139.755 4.86689 139.131 5.92856 138.749 7.08475C138.367 8.24094 138.236 9.46518 138.363 10.6762Z" fill="#407BFF"/>
<path d="M138.363 10.6762C138.391 11.0192 138.437 11.3606 138.501 11.6989C138.934 13.9131 140.071 15.9282 141.742 17.4447C143.634 19.2171 146.124 20.2137 148.717 20.2372H245.81C246.943 20.2601 248.07 20.0573 249.124 19.6408C250.178 19.2243 251.139 18.6022 251.951 17.8109C252.762 17.0196 253.408 16.0747 253.852 15.0314C254.295 13.988 254.526 12.867 254.532 11.7334C254.549 11.3927 254.549 11.0514 254.532 10.7106C254.261 8.13769 253.061 5.75177 251.157 4.00012C249.253 2.24846 246.776 1.25132 244.189 1.1956H147.074C145.856 1.17099 144.647 1.40567 143.528 1.88404C142.408 2.36242 141.403 3.07355 140.579 3.97022C139.755 4.86689 139.131 5.92856 138.749 7.08475C138.367 8.24094 138.236 9.46518 138.363 10.6762Z" fill="url(#paint6_linear_1270_1663)"/>
<path d="M254.532 11.6649C254.532 11.9726 254.509 12.2799 254.463 12.5842C254.12 10.0695 252.889 7.76031 250.992 6.07419C249.095 4.38807 246.658 3.43629 244.12 3.39092L140.891 3.62075C141.71 2.82471 142.677 2.19779 143.738 1.77582C144.798 1.35386 145.932 1.14512 147.074 1.16154H244.166C246.753 1.21727 249.23 2.2144 251.134 3.96606C253.038 5.71771 254.238 8.10363 254.509 10.6766C254.532 11.0055 254.54 11.3353 254.532 11.6649Z" fill="#407BFF"/>
<path d="M254.532 11.6649C254.532 11.9726 254.509 12.2799 254.463 12.5842C254.12 10.0695 252.889 7.76031 250.992 6.07419C249.095 4.38807 246.658 3.43629 244.12 3.39092L140.891 3.62075C141.71 2.82471 142.677 2.19779 143.738 1.77582C144.798 1.35386 145.932 1.14512 147.074 1.16154H244.166C246.753 1.21727 249.23 2.2144 251.134 3.96606C253.038 5.71771 254.238 8.10363 254.509 10.6766C254.532 11.0055 254.54 11.3353 254.532 11.6649Z" fill="url(#paint7_linear_1270_1663)"/>
<path d="M237.858 5.75815L238.271 10.3548L242.592 8.74596L243.615 11.0443L239.202 12.5152L242.374 16.4109L240.386 17.8703L237.294 13.8252L234.996 17.8703L232.824 16.4109L235.272 12.5152L230.675 11.0443L231.296 8.74596L235.95 10.2973L235.536 5.70068L237.858 5.75815Z" fill="white"/>
<path d="M211.254 5.75785L211.668 10.3545L215.989 8.74567L217.023 11.044L212.576 12.5494L215.747 16.445L213.771 17.9045L210.68 13.8594L208.381 17.9045L206.198 16.445L208.657 12.5494L204.06 11.0785L204.681 8.78014L209.335 10.3315L208.933 5.73486L211.254 5.75785Z" fill="white"/>
<path d="M184.709 5.75785L185.111 10.3545L189.432 8.74567L190.466 11.044L186.042 12.5149L189.213 16.4106L187.294 17.9045L184.203 13.8594L181.905 17.9045L179.733 16.445L182.18 12.5494L177.584 11.0785L178.216 8.78014L182.812 10.3315L182.41 5.73486L184.709 5.75785Z" fill="white"/>
<path d="M158.152 5.75815L158.554 10.3548L162.886 8.74596L163.909 11.0443L159.485 12.5152L162.668 16.4109L160.68 17.8703L157.588 13.8252L155.29 17.8703L153.118 16.4109L155.566 12.5152L150.969 11.0443L151.59 8.74596L156.186 10.2973L155.784 5.70068L158.152 5.75815Z" fill="white"/>
<path opacity="0.8" d="M392.753 39.5205L388.053 93.2552C387.872 94.9702 387.072 96.5604 385.803 97.728C384.533 98.8956 382.882 99.5606 381.158 99.5986H343.845C343.037 99.603 342.238 99.4371 341.499 99.1117C340.76 98.7863 340.097 98.3088 339.555 97.7102C339.013 97.1117 338.603 96.4056 338.352 95.6379C338.101 94.8703 338.015 94.0584 338.099 93.2552L342.799 39.509C342.973 37.7912 343.771 36.1968 345.042 35.0277C346.312 33.8587 347.968 33.1962 349.694 33.1656H387.007C387.816 33.1611 388.617 33.3272 389.357 33.6533C390.097 33.9794 390.759 34.458 391.302 35.0578C391.844 35.6576 392.254 36.3652 392.504 37.1342C392.754 37.9032 392.839 38.7164 392.753 39.5205Z" fill="#407BFF"/>
<path d="M392.753 39.5205L388.053 93.2552C387.872 94.9702 387.072 96.5604 385.803 97.728C384.533 98.8956 382.882 99.5606 381.158 99.5986H343.845C343.037 99.603 342.238 99.4371 341.499 99.1117C340.76 98.7863 340.097 98.3088 339.555 97.7102C339.013 97.1117 338.603 96.4056 338.352 95.6379C338.101 94.8703 338.015 94.0584 338.099 93.2552L342.799 39.509C342.973 37.7912 343.771 36.1968 345.042 35.0277C346.312 33.8587 347.968 33.1962 349.694 33.1656H387.007C387.816 33.1611 388.617 33.3272 389.357 33.6533C390.097 33.9794 390.759 34.458 391.302 35.0578C391.844 35.6576 392.254 36.3652 392.504 37.1342C392.754 37.9032 392.839 38.7164 392.753 39.5205Z" fill="url(#paint8_linear_1270_1663)"/>
<path d="M346.2 48.1852H346.097C345.794 48.1589 345.514 48.0135 345.318 47.7808C345.122 47.5482 345.026 47.2473 345.051 46.9441L345.488 42.0257C345.514 41.7392 345.646 41.4728 345.859 41.2792C346.072 41.0856 346.349 40.9788 346.637 40.98H351.831C352.136 40.98 352.428 41.1011 352.644 41.3166C352.859 41.5321 352.98 41.8244 352.98 42.1292C352.98 42.4339 352.859 42.7262 352.644 42.9417C352.428 43.1572 352.136 43.2783 351.831 43.2783H347.694L347.35 47.1395C347.324 47.426 347.191 47.6924 346.978 47.886C346.766 48.0796 346.488 48.1864 346.2 48.1852Z" fill="#1B1425"/>
<path d="M387.984 48.1852H387.881C387.578 48.1589 387.297 48.0135 387.101 47.7808C386.905 47.5482 386.809 47.2473 386.835 46.9441L387.157 43.2783H383.227C382.922 43.2783 382.63 43.1572 382.414 42.9417C382.198 42.7262 382.077 42.4339 382.077 42.1292C382.077 41.8244 382.198 41.5321 382.414 41.3166C382.63 41.1011 382.922 40.98 383.227 40.98H388.398C388.558 40.9793 388.716 41.0121 388.863 41.0762C389.009 41.1403 389.141 41.2344 389.249 41.3523C389.357 41.4702 389.44 41.6094 389.491 41.761C389.542 41.9126 389.561 42.0732 389.547 42.2326L389.11 47.1395C389.085 47.4221 388.956 47.6853 388.748 47.8783C388.54 48.0714 388.268 48.1807 387.984 48.1852Z" fill="#1B1425"/>
<path d="M348.177 85.2689H342.983C342.825 85.2683 342.67 85.2354 342.525 85.1722C342.381 85.1089 342.251 85.0166 342.144 84.9011C342.037 84.7841 341.955 84.6461 341.903 84.4958C341.852 84.3454 341.832 84.1861 341.845 84.0278L342.271 79.1093C342.296 78.8046 342.442 78.5226 342.676 78.3254C342.91 78.1282 343.213 78.032 343.517 78.0579C343.822 78.0838 344.104 78.2297 344.301 78.4635C344.499 78.6973 344.595 78.9999 344.569 79.3047L344.247 82.9705H348.177C348.482 82.9705 348.774 83.0916 348.99 83.3071C349.205 83.5226 349.326 83.8149 349.326 84.1197C349.326 84.4245 349.205 84.7168 348.99 84.9323C348.774 85.1478 348.482 85.2689 348.177 85.2689Z" fill="#1B1425"/>
<path d="M384.732 85.2684H379.549C379.245 85.2684 378.952 85.1473 378.737 84.9318C378.521 84.7163 378.4 84.424 378.4 84.1192C378.4 83.8144 378.521 83.5221 378.737 83.3066C378.952 83.0911 379.245 82.97 379.549 82.97H383.686L384.02 79.1089C384.046 78.8058 384.191 78.5255 384.424 78.3295C384.657 78.1334 384.957 78.0376 385.261 78.0631C385.564 78.0894 385.844 78.2349 386.04 78.4675C386.236 78.7002 386.332 79.0011 386.306 79.3042L385.881 84.2226C385.855 84.5091 385.723 84.7755 385.51 84.9691C385.297 85.1627 385.02 85.2695 384.732 85.2684Z" fill="#1B1425"/>
<path d="M380.777 66.7405C383.371 56.6802 378.918 46.8339 370.83 44.7484C362.743 42.6628 354.083 49.1276 351.489 59.188C348.895 69.2483 353.348 79.0945 361.435 81.1801C369.523 83.2656 378.182 76.8008 380.777 66.7405Z" fill="white"/>
<path d="M370.643 91.5662H355.762L357.06 76.6846H371.942L370.643 91.5662Z" fill="white"/>
<path d="M388.053 93.2556C387.872 94.9706 387.072 96.5607 385.803 97.7283C384.533 98.896 382.882 99.561 381.158 99.599H343.845C343.037 99.6033 342.238 99.4374 341.499 99.112C340.759 98.7867 340.097 98.3091 339.555 97.7106C339.013 97.112 338.603 96.4059 338.352 95.6383C338.101 94.8707 338.015 94.0588 338.099 93.2556C338.099 93.2556 355.244 87.8315 357.359 87.8315H370.609L388.053 93.2556Z" fill="white"/>
<path d="M356.083 173.776H351.555V174.926H356.083V173.776Z" fill="#407BFF"/>
<path d="M375.539 173.776H360.772V174.926H375.539V173.776Z" fill="#407BFF"/>
<path d="M402.567 154.16L399.705 186.911C399.557 188.359 398.883 189.702 397.812 190.686C396.74 191.671 395.345 192.229 393.89 192.255C393.206 192.267 392.527 192.133 391.898 191.863C391.269 191.592 390.704 191.191 390.243 190.685C389.781 190.18 389.431 189.582 389.218 188.931C389.005 188.281 388.933 187.592 389.007 186.911L391.845 154.16C392.109 151.717 391.851 149.247 391.088 146.911C390.324 144.576 389.073 142.43 387.417 140.615C385.76 138.8 383.737 137.358 381.481 136.385C379.225 135.411 376.788 134.929 374.332 134.969H362.656C357.434 135.068 352.429 137.074 348.585 140.61C344.74 144.145 342.323 148.965 341.787 154.16L340.638 167.536H329.951L331.1 154.16C332.537 137.681 347.12 124.282 363.587 124.282H375.309C379.133 124.219 382.927 124.97 386.439 126.485C389.951 128.001 393.1 130.246 395.678 133.072C398.256 135.897 400.204 139.239 401.391 142.875C402.579 146.511 402.979 150.358 402.567 154.16Z" fill="url(#paint9_linear_1270_1663)"/>
<path d="M403.337 185.716L397.763 249.54C397.561 251.519 396.64 253.355 395.174 254.7C393.708 256.045 391.8 256.805 389.811 256.837H325.987C325.052 256.854 324.124 256.672 323.265 256.302C322.406 255.933 321.636 255.385 321.005 254.694C320.375 254.004 319.899 253.187 319.608 252.299C319.318 251.41 319.22 250.47 319.321 249.54L324.906 185.716C325.035 184.443 325.462 183.219 326.153 182.143C326.844 181.066 327.779 180.168 328.882 179.522C330.08 178.788 331.454 178.391 332.859 178.373H396.671C397.975 178.365 399.254 178.728 400.36 179.418C401.393 180.088 402.218 181.032 402.744 182.144C403.269 183.256 403.475 184.493 403.337 185.716Z" fill="url(#paint10_linear_1270_1663)"/>
<path d="M336.973 213.594L353.555 239.117L408.244 184.429C408.328 184.327 408.374 184.199 408.372 184.067C408.37 183.935 408.32 183.808 408.233 183.709C408.145 183.611 408.025 183.547 407.894 183.529C407.763 183.511 407.63 183.541 407.52 183.613L355.405 224.465L345.557 208.596L336.973 213.594Z" fill="white"/>
<path d="M252.797 113.538L253.187 114.009L253.716 114.618C254.095 115.02 254.463 115.445 254.865 115.836C255.658 116.663 256.52 117.468 257.393 118.284C259.139 119.893 260.968 121.408 262.875 122.823C264.817 124.271 266.863 125.592 268.908 126.902C270.057 127.523 271 128.178 272.08 128.776L274.573 130.154C274.936 130.314 275.344 130.339 275.723 130.223C276.527 129.982 281.147 125.408 282.618 123.708C285.881 119.973 290.823 115.055 293.489 110.872L296.465 114.974C294.584 120.099 292.087 124.976 289.03 129.499C287.386 131.945 285.414 134.153 283.169 136.061C281.822 137.196 280.301 138.108 278.664 138.762C276.59 139.589 274.312 139.762 272.137 139.256C271.575 139.119 271.025 138.934 270.494 138.704L269.46 138.256L267.598 137.406C266.345 136.854 265.139 136.188 263.921 135.579C261.485 134.279 259.122 132.848 256.842 131.292C254.543 129.711 252.337 128 250.234 126.167C249.142 125.213 248.166 124.248 247.166 123.202C246.672 122.685 246.166 122.145 245.683 121.582L244.971 120.708C244.707 120.387 244.511 120.145 244.155 119.651L252.797 113.538Z" fill="#FFA89C"/>
<path d="M293.017 111.504L298.35 100.104L303.44 109.229C303.44 109.229 300.096 114.975 296.465 114.975L293.017 111.504Z" fill="#FFA89C"/>
<path d="M304.35 95.3696L309.728 102.288L303.442 109.217L298.351 100.104L304.35 95.3696Z" fill="#FFA89C"/>
<path d="M302.521 112.366H310.99C311.229 112.364 311.459 112.274 311.635 112.113C311.811 111.951 311.921 111.73 311.944 111.493L313.702 91.1869C313.715 91.0541 313.7 90.9201 313.658 90.7936C313.616 90.667 313.548 90.5507 313.458 90.4522C313.368 90.3536 313.258 90.275 313.136 90.2215C313.014 90.1679 312.882 90.1405 312.749 90.1411H304.291C304.05 90.1432 303.819 90.235 303.642 90.3987C303.466 90.5624 303.357 90.7861 303.337 91.026L301.556 111.32C301.545 111.454 301.561 111.588 301.605 111.714C301.648 111.841 301.718 111.957 301.808 112.055C301.899 112.154 302.009 112.232 302.132 112.286C302.255 112.339 302.387 112.366 302.521 112.366Z" fill="url(#paint11_linear_1270_1663)"/>
<path opacity="0.3" d="M302.613 110.332H311.094L312.68 92.1865H304.199L302.613 110.332Z" fill="white"/>
<path d="M302.061 107.757L303.567 106.987C304.333 106.598 305.041 106.103 305.67 105.517L305.946 104.517C305.785 104.251 305.543 104.043 305.255 103.925C304.967 103.807 304.649 103.785 304.348 103.862L303.096 104.206L296.879 104.678L296.729 107.298L298.545 110.102H299.165C299.85 110.126 300.52 109.902 301.052 109.471C301.584 109.04 301.943 108.432 302.061 107.757Z" fill="#FFA89C"/>
<path d="M241.949 102.449C246.258 101.668 276.653 128.018 276.653 128.018L267.644 141.233C267.644 141.233 234.41 118.089 235.467 112.504C236.49 106.632 235.674 103.598 241.949 102.449Z" fill="#A535C5"/>
<path opacity="0.2" d="M245.787 110.872L245.454 124.662C248.901 127.339 261.358 136.889 261.358 136.889L245.787 110.872Z" fill="black"/>
<path d="M221.689 376.305L231.882 377.305L235.123 353.666L224.918 352.667L221.689 376.305Z" fill="#FFA89C"/>
<path d="M121.333 237.601L118.724 247.53L140.777 257.033L145.35 246.955L121.333 237.601Z" fill="#FFA89C"/>
<path d="M239.179 379.396C240.056 379.504 240.944 379.31 241.696 378.845C241.858 378.703 241.984 378.526 242.064 378.326C242.144 378.126 242.176 377.91 242.155 377.696C242.155 377.561 242.119 377.43 242.05 377.314C241.981 377.199 241.883 377.105 241.765 377.041C240.535 376.305 236.375 378.282 235.904 378.5C235.859 378.521 235.821 378.556 235.797 378.599C235.772 378.642 235.761 378.692 235.766 378.741C235.773 378.792 235.795 378.839 235.83 378.877C235.865 378.914 235.911 378.939 235.961 378.948C237.018 379.195 238.095 379.345 239.179 379.396ZM241.029 377.339C241.189 377.327 241.349 377.363 241.489 377.443C241.537 377.468 241.578 377.506 241.606 377.553C241.635 377.599 241.65 377.653 241.65 377.707C241.662 377.851 241.64 377.995 241.587 378.129C241.533 378.263 241.448 378.382 241.34 378.477C240.707 379.017 239.041 379.063 236.743 378.626C238.098 377.95 239.56 377.51 241.064 377.328L241.029 377.339Z" fill="white"/>
<path d="M236.008 378.902H236.1C237.341 378.385 239.834 376.248 239.673 375.075C239.629 374.872 239.515 374.69 239.352 374.56C239.189 374.43 238.986 374.361 238.777 374.363C238.538 374.318 238.292 374.326 238.056 374.386C237.82 374.445 237.599 374.555 237.41 374.708C236.088 375.73 235.778 378.5 235.755 378.603C235.744 378.645 235.743 378.689 235.753 378.731C235.763 378.773 235.784 378.812 235.812 378.845C235.839 378.867 235.87 378.884 235.904 378.894C235.938 378.904 235.973 378.907 236.008 378.902ZM238.547 374.8H238.685C239.133 374.869 239.156 375.041 239.156 375.098C239.26 375.799 237.559 377.5 236.283 378.178C236.406 377.013 236.897 375.918 237.685 375.052C237.941 374.868 238.258 374.79 238.57 374.834L238.547 374.8Z" fill="white"/>
<path d="M231.376 373.191L222.183 373.582C221.985 373.584 221.794 373.659 221.648 373.792C221.502 373.926 221.41 374.109 221.39 374.306L219.184 387.142C219.171 387.36 219.202 387.579 219.275 387.785C219.348 387.991 219.46 388.181 219.607 388.344C219.753 388.506 219.93 388.638 220.128 388.731C220.325 388.825 220.54 388.878 220.758 388.889H220.942C224.953 388.682 226.883 388.383 231.962 388.211C235.077 388.107 244.603 389.233 248.855 388.268C253.107 387.303 252.303 383.085 250.475 383.12C244.569 383.235 237.754 379.385 234.387 374.88C233.801 374.501 232.02 373.157 231.376 373.191Z" fill="white"/>
<path d="M123.413 248.828L128.101 240.865C128.207 240.696 128.246 240.494 128.21 240.298C128.174 240.102 128.065 239.927 127.906 239.807L118.345 230.993C117.99 230.743 117.55 230.641 117.121 230.709C116.691 230.778 116.306 231.012 116.047 231.361L115.943 231.522C113.944 234.969 113.151 236.785 110.542 241.14C108.933 243.818 102.797 251.253 101.349 255.31C99.9008 259.366 103.831 261.055 104.796 259.47C107.911 254.436 114.84 250.805 120.471 250.368C121.011 250.161 123.091 249.391 123.413 248.828Z" fill="white"/>
<path opacity="0.2" d="M235.123 353.666L233.456 365.859L223.252 364.859L224.907 352.678L235.123 353.666Z" fill="black"/>
<path opacity="0.2" d="M152.13 249.415L147.419 260.045L133.215 253.771L136.835 243.646L152.13 249.415Z" fill="black"/>
<path d="M248.465 114.572C254.291 124.478 247.166 132.832 241.213 162.434L202.808 162.538C203.429 146.588 203.36 133.694 196.557 102.31C196.38 101.537 196.381 100.734 196.558 99.9608C196.736 99.1877 197.085 98.4647 197.582 97.8458C198.078 97.227 198.707 96.7283 199.424 96.387C200.14 96.0457 200.923 95.8707 201.717 95.8751C204.888 95.8751 208.876 95.9785 212.932 96.3922C219.331 96.9154 225.685 97.8792 231.951 99.2766C235.349 100.096 238.689 101.14 241.949 102.402C243.925 103.069 246.304 108.447 248.465 114.572Z" fill="#A535C5"/>
<path d="M242.638 164.435C242.638 164.435 264.208 226.8 263.691 256.793C263.392 273.973 262.094 305.988 256.911 328.5C252.682 346.887 235.444 358.608 235.444 358.608L221.655 357.792C221.655 357.792 214.185 329.753 215.484 318.594C218.069 296.381 225.734 279.695 224.803 259.298C223.332 225.903 213.45 163.917 213.45 163.917L242.638 164.435Z" fill="#1B1425"/>
<path d="M218.885 361.389L238.363 362.538L240.133 356.689L218.368 354.678L218.885 361.389Z" fill="#1B1425"/>
<path opacity="0.2" d="M221.344 290.428C221.344 290.428 221.344 290.313 221.459 290.325C233.698 291.474 242.144 273.857 240.133 249.736L233.64 188.256L221.344 290.428Z" fill="black"/>
<path d="M232.962 163.917C232.962 163.917 250.108 273.581 214.461 285.923C195.649 293.048 179.825 285.326 161.082 277.029C150.246 272.237 136.708 259.263 136.708 259.263L141.914 245.094C151.277 242.562 161.074 242.068 170.643 243.646C188.915 246.473 189.685 251.69 196.178 247.748C209.83 214.009 186.341 187.337 202.303 163.859L232.962 163.917Z" fill="#1B1425"/>
<path d="M142.937 242.405L135.973 260.78L141.098 264.698L149.372 242.83L142.937 242.405Z" fill="#1B1425"/>
<path d="M140.064 143.313C138.329 145.875 129.526 144.14 129.526 144.14L127.653 133.234L138.467 137.567L140.064 143.313Z" fill="#FFA89C"/>
<path d="M129.837 132.672L131.514 144.003L125.022 144.968C124.67 145 124.318 144.9 124.036 144.688C123.754 144.475 123.56 144.166 123.493 143.819L120.999 135.775C120.957 135.587 120.988 135.391 121.087 135.226C121.185 135.062 121.343 134.941 121.528 134.89L129.837 132.672Z" fill="#FFA89C"/>
<path d="M126.929 137.808L130.629 138.463L134.134 135.832L132.778 134.866C131.859 134.212 131.213 133.243 130.963 132.143C130.702 130.991 130.544 129.818 130.491 128.638V128.247C130.447 127.901 130.291 127.578 130.046 127.329C129.801 127.08 129.481 126.918 129.135 126.868L128.216 127.546C127.642 128.799 128.055 130.258 127.986 131.235L127.837 133.131L126.354 133.775L126.929 137.808Z" fill="#FFA89C"/>
<path d="M198.407 100.15L176.665 130.029L136.731 137.912V144.462C136.731 144.462 174.263 147.243 182.698 142.336C191.133 137.429 205.279 107.666 205.279 107.666L198.407 100.15Z" fill="#FFA89C"/>
<path d="M198.154 42.6922C189.03 39.6355 178.446 45.3008 174.275 53.9655C170.103 62.6302 171.563 73.2599 176.263 81.6488C177.676 84.1884 179.365 86.5787 180.526 89.2332C181.816 91.8647 182.098 94.8774 181.319 97.7025C180.377 100.449 179.411 102.207 176.01 101.771C176.01 101.771 176.01 99.886 177.308 100.116C177.308 100.116 174.55 101.644 173.47 100.644C174.723 102.575 178.067 101.874 179.135 99.8285C180.733 96.7832 177.791 92.6577 174.343 92.6922C170.896 92.7267 168.092 96.2201 168.207 99.6561C168.351 101.375 168.962 103.021 169.975 104.417C170.988 105.812 172.364 106.904 173.953 107.574C173.021 107.727 172.065 107.568 171.234 107.121C170.402 106.674 169.742 105.965 169.356 105.103C170.919 109.194 176.021 110.998 180.331 110.194C184.64 109.39 188.283 106.632 191.661 103.839C196.258 100.07 200.958 95.3008 200.855 89.4056C200.751 85.0043 197.924 81.2236 195.546 77.5118C193.167 73.8 191.087 69.2723 192.604 65.1468C193.879 61.6419 197.35 59.5274 200.406 57.39C202.613 55.8616 207.095 52.4486 206.566 49.2195C206.026 46.1397 200.74 43.5541 198.154 42.6922Z" fill="black"/>
<path d="M177.596 144.967L171.574 129.028L172.953 129.143C174.069 129.237 175.188 129.007 176.176 128.481C177.165 127.955 177.981 127.156 178.527 126.179C183.123 117.997 194.994 97.2312 198.338 96.197C203.107 94.7835 208.014 98.5987 209.83 104.241C211.197 108.39 197.189 126.179 190.731 136.291C184.996 145.243 177.596 144.967 177.596 144.967Z" fill="#A535C5"/>
<path d="M118.862 254.069V254.196C118.947 254.417 119.086 254.613 119.267 254.765C119.447 254.918 119.664 255.023 119.896 255.069C120.035 255.113 120.184 255.12 120.327 255.09C120.47 255.06 120.602 254.993 120.712 254.897C121.677 254.012 121.057 250.3 120.999 249.932C120.993 249.885 120.972 249.84 120.939 249.805C120.906 249.77 120.863 249.746 120.815 249.737C120.771 249.731 120.725 249.737 120.683 249.753C120.641 249.769 120.604 249.795 120.574 249.829C119.793 250.932 118.552 252.897 118.862 254.069ZM120.632 250.622C120.838 252.093 120.93 254.069 120.39 254.552C120.334 254.583 120.271 254.599 120.206 254.599C120.142 254.599 120.079 254.583 120.023 254.552C119.868 254.523 119.724 254.455 119.603 254.355C119.482 254.254 119.389 254.124 119.333 253.977C119.126 253.357 119.563 252.093 120.632 250.599V250.622Z" fill="white"/>
<path d="M120.643 250.415C120.942 251.656 122.114 253.77 123.148 254.023C123.337 254.061 123.533 254.034 123.704 253.946C123.875 253.858 124.011 253.715 124.091 253.54C124.181 253.376 124.234 253.195 124.245 253.008C124.257 252.821 124.228 252.634 124.16 252.46C123.689 251.035 120.977 249.863 120.862 249.806C120.825 249.785 120.783 249.775 120.741 249.775C120.699 249.775 120.657 249.785 120.62 249.806C120.587 249.833 120.56 249.868 120.544 249.908C120.528 249.949 120.523 249.992 120.528 250.035C120.557 250.165 120.595 250.291 120.643 250.415ZM123.769 252.713C123.792 252.814 123.795 252.92 123.778 253.022C123.76 253.125 123.722 253.223 123.666 253.31C123.516 253.586 123.367 253.586 123.252 253.563C122.551 253.425 121.482 251.69 121.137 250.484C122.022 250.932 123.436 251.771 123.735 252.644C123.727 252.666 123.727 252.691 123.735 252.713H123.769Z" fill="white"/>
<path d="M202.67 160.596L201.602 164.331C201.464 164.618 201.797 164.917 202.28 164.906H241.926C242.305 164.906 242.615 164.71 242.638 164.481L243.006 160.746C243.006 160.493 242.707 160.263 242.293 160.275H203.337C203.207 160.265 203.077 160.289 202.96 160.346C202.843 160.402 202.743 160.489 202.67 160.596Z" fill="#407BFF"/>
<path d="M202.67 160.596L201.602 164.331C201.464 164.618 201.797 164.917 202.28 164.906H241.926C242.305 164.906 242.615 164.71 242.638 164.481L243.006 160.746C243.006 160.493 242.707 160.263 242.293 160.275H203.337C203.207 160.265 203.077 160.289 202.96 160.346C202.843 160.402 202.743 160.489 202.67 160.596Z" fill="white"/>
<path d="M210.278 165.25H209.129C208.91 165.25 208.726 165.135 208.749 164.997L209.266 160.136C209.266 159.998 209.485 159.883 209.715 159.883H210.864C211.082 159.883 211.254 159.998 211.243 160.148L210.726 164.997C210.657 165.135 210.45 165.261 210.278 165.25Z" fill="#1B1425"/>
<path d="M238.858 165.25H237.708C237.502 165.25 237.318 165.135 237.341 164.997L237.858 160.148C237.858 159.998 238.065 159.883 238.283 159.883H239.432C239.651 159.883 239.834 159.998 239.811 160.136L239.294 164.986C239.271 165.135 239.087 165.25 238.858 165.25Z" fill="#1B1425"/>
<path d="M225.746 165.227H224.597C224.378 165.227 224.194 165.112 224.217 164.974L224.734 160.125C224.734 159.975 224.953 159.86 225.171 159.86H226.32C226.539 159.86 226.711 159.975 226.699 160.113L226.171 164.963C226.171 165.112 225.975 165.227 225.746 165.227Z" fill="#1B1425"/>
<path d="M214.725 75.478C215.943 81.741 217.138 93.0487 212.886 96.4502C212.886 96.4502 214.587 102.874 225.952 104.586C238.501 106.471 231.917 99.3231 231.917 99.3231C225.079 96.6226 225.251 91.6812 226.424 87.1305L214.725 75.478Z" fill="#FFA89C"/>
<path d="M212.932 96.3928C218.997 96.7773 225.023 97.6147 230.963 98.898L239.558 101.461C241.087 104.54 238.582 110.872 231.388 112.079C231.388 112.079 213.266 114.573 207.922 95.9102L212.932 96.3928Z" fill="#FFA89C"/>
<path opacity="0.2" d="M219.471 80.2471L226.366 87.142C226.076 88.2096 225.887 89.3024 225.803 90.4057C223.183 89.6357 218.977 86.7513 218.69 83.9933C218.693 82.7045 218.959 81.4297 219.471 80.2471Z" fill="black"/>
<path d="M207.049 67.5722C210.128 77.2941 211.209 81.4771 217.517 85.3038C226.918 91.0496 238.202 85.1659 238.088 74.7315C237.996 65.3314 232.997 51.0128 222.321 49.45C219.974 49.0983 217.577 49.3529 215.356 50.1897C213.136 51.0266 211.167 52.4177 209.636 54.2307C208.105 56.0437 207.064 58.2183 206.611 60.5476C206.158 62.8769 206.309 65.2832 207.049 67.5378V67.5722Z" fill="#FFA89C"/>
<path d="M230.25 66.0552C231.337 67.7615 232.656 69.3086 234.169 70.6518C233.815 71.0349 233.382 71.3362 232.899 71.5347C232.417 71.7332 231.897 71.8241 231.376 71.801L230.25 66.0552Z" fill="#FF8E7E"/>
<path d="M229.159 76.9943C229.548 76.9515 229.932 76.8746 230.308 76.7645C230.337 76.7577 230.365 76.7452 230.39 76.7277C230.414 76.7101 230.435 76.6879 230.451 76.6623C230.467 76.6367 230.478 76.6082 230.483 76.5784C230.488 76.5486 230.487 76.5181 230.48 76.4887C230.464 76.4284 230.425 76.3767 230.371 76.3445C230.318 76.3124 230.254 76.3023 230.193 76.3163C229.212 76.5867 228.181 76.6236 227.184 76.4241C226.186 76.2245 225.249 75.794 224.447 75.1672C224.4 75.1201 224.336 75.0938 224.269 75.0938C224.202 75.0938 224.138 75.1201 224.091 75.1672C224.068 75.1896 224.05 75.2164 224.037 75.246C224.025 75.2756 224.018 75.3074 224.018 75.3395C224.018 75.3716 224.025 75.4034 224.037 75.433C224.05 75.4626 224.068 75.4894 224.091 75.5119C224.797 76.0798 225.608 76.5031 226.477 76.7575C227.347 77.0118 228.258 77.0923 229.159 76.9943Z" fill="black"/>
<path d="M203.705 48.1623C202.438 48.9814 201.387 50.0925 200.639 51.4023C199.891 52.7121 199.469 54.1823 199.407 55.6893C199.355 56.2656 199.445 56.8458 199.671 57.3786C199.784 57.6422 199.965 57.8713 200.195 58.0428C200.425 58.2143 200.696 58.3221 200.981 58.3554C201.855 58.3554 202.498 57.5739 202.981 56.8385L205.21 53.391C206.128 52.2711 206.9 51.0393 207.508 49.7252C208.255 47.4613 205.072 47.2889 203.705 48.1623Z" fill="#EE7408"/>
<path d="M204.796 50.4489C198.694 57.5047 195.959 77.029 213.84 82.476C216.828 80.1087 212.002 75.7994 209.956 70.3523C208.612 66.7899 215.426 60.1363 218.081 57.4013C220.735 54.6663 223.183 50.7247 226.929 51.3567C227.88 51.6746 228.904 51.7026 229.871 51.4372C232.847 50.0926 231.399 48.3114 229.871 47.0703C227.527 45.3354 224.736 44.3068 221.827 44.1055C218.689 43.7358 215.507 44.1183 212.546 45.2213C209.585 46.3243 206.928 48.1162 204.796 50.4489Z" fill="black"/>
<path d="M224.642 48.0822C231.825 54.0693 222.344 54.2187 217.322 58.011C212.507 61.6538 215.886 67.6179 207.738 70.3874C201.085 72.3295 199.545 71.1573 197.706 69.8703C199.985 69.476 202.069 68.3391 203.634 66.6368C205.199 64.9345 206.157 62.7623 206.359 60.4587C206.922 56.0919 216.437 41.1413 224.642 48.0822Z" fill="black"/>
<path d="M205.969 75.742C207.094 77.3629 208.811 78.4771 210.749 78.8447C213.323 79.2929 214.312 76.9371 213.427 74.6388C212.588 72.5703 210.255 69.8468 207.761 70.4329C206.904 70.6547 206.169 71.2076 205.719 71.9702C205.269 72.7329 205.14 73.643 205.36 74.5009C205.477 74.9515 205.684 75.3737 205.969 75.742Z" fill="#FFA89C"/>
<path d="M223.413 48.691C224.803 52.2304 228.814 51.7593 231.779 55.4596C233.606 57.7579 237.191 50.6675 232.307 47.8751C227.423 45.0826 221.229 43.152 223.413 48.691Z" fill="black"/>
<path d="M219.184 63.6294C219.286 63.6404 219.389 63.6184 219.478 63.5668C219.567 63.5151 219.637 63.4364 219.678 63.3421C220.62 61.2506 223.447 60.722 223.47 60.722C223.596 60.6943 223.707 60.6193 223.78 60.5125C223.853 60.4056 223.882 60.275 223.861 60.1474C223.836 60.0228 223.763 59.9131 223.657 59.8421C223.552 59.7711 223.423 59.7445 223.298 59.7682C223.148 59.7682 219.931 60.4462 218.782 62.9744C218.73 63.092 218.727 63.2249 218.772 63.345C218.817 63.465 218.907 63.5629 219.023 63.6179H219.184V63.6294Z" fill="black"/>
<path d="M234.123 59.4007C234.207 59.4068 234.291 59.3896 234.366 59.3511C234.441 59.3126 234.504 59.2542 234.548 59.1823C234.585 59.1307 234.61 59.0721 234.624 59.0102C234.637 58.9484 234.638 58.8844 234.626 58.8222C234.615 58.76 234.59 58.7008 234.555 58.6482C234.52 58.5955 234.475 58.5505 234.422 58.5158C233.785 58.0749 233.052 57.7936 232.284 57.6956C231.516 57.5976 230.736 57.6858 230.009 57.9527C229.948 57.9764 229.893 58.0122 229.848 58.0581C229.802 58.104 229.766 58.1588 229.742 58.2193C229.718 58.2797 229.707 58.3444 229.71 58.4092C229.712 58.4741 229.728 58.5378 229.756 58.5963C229.807 58.7134 229.901 58.8057 230.02 58.8531C230.138 58.9004 230.271 58.899 230.388 58.8491C230.96 58.6493 231.571 58.5889 232.17 58.6729C232.77 58.7568 233.341 58.9827 233.836 59.3317C233.925 59.3752 234.023 59.3987 234.123 59.4007Z" fill="black"/>
<path d="M281.365 122.306L274.631 126.133L267.632 141.187C267.632 141.187 274.389 145.485 279.722 142.003C285.054 138.521 281.365 122.306 281.365 122.306Z" fill="#407BFF"/>
<path d="M281.365 122.306L274.631 126.133L267.632 141.187C267.632 141.187 274.389 145.485 279.722 142.003C285.054 138.521 281.365 122.306 281.365 122.306Z" fill="#A535C5"/>
<path d="M163.61 126.96L171.574 129.258L179.124 144.875C179.124 144.875 173.056 150.495 166.483 145.128C161.565 141.06 163.61 126.96 163.61 126.96Z" fill="#407BFF"/>
<path d="M163.61 126.96L171.574 129.258L179.124 144.875C179.124 144.875 173.056 150.495 166.483 145.128C161.565 141.06 163.61 126.96 163.61 126.96Z" fill="#A535C5"/>
<path d="M233.663 63.2964C234.215 63.193 234.812 63.8135 234.939 64.6639C235.065 65.5143 234.755 66.2957 234.203 66.3877C233.652 66.4796 233.054 65.8705 232.928 65.0202C232.801 64.1698 233.112 63.3769 233.663 63.2964Z" fill="black"/>
<path d="M235.364 62.458L233.422 63.4118C234.594 64.2392 235.364 62.458 235.364 62.458Z" fill="black"/>
<path d="M224.068 65.273C224.619 65.1696 225.217 65.7901 225.343 66.6405C225.47 67.4909 225.16 68.2723 224.608 68.3642C224.056 68.4562 223.459 67.8471 223.332 66.9967C223.206 66.1463 223.493 65.3764 224.068 65.273Z" fill="black"/>
<path d="M225.746 64.4346L223.803 65.3884C224.976 66.2158 225.746 64.4346 225.746 64.4346Z" fill="black"/>
<path d="M175.412 109.24C174.33 109.246 173.257 109.043 172.252 108.642C168.69 107.183 167.035 103.483 167.656 98.4723C167.676 98.3215 167.755 98.1849 167.875 98.0922C167.996 97.9996 168.148 97.9586 168.299 97.9782C168.374 97.9866 168.447 98.0101 168.513 98.0474C168.579 98.0846 168.637 98.1347 168.683 98.1948C168.729 98.2549 168.763 98.3237 168.782 98.397C168.801 98.4704 168.804 98.5468 168.793 98.6217C168.196 103.069 169.598 106.333 172.643 107.574C174.41 108.179 176.324 108.209 178.109 107.66C179.895 107.111 181.461 106.01 182.583 104.517C185.468 100.679 184.525 95.2317 180.032 89.5778C168.265 74.8111 169.046 66.9623 170.712 60.7569C173.126 51.7474 180.193 41.428 200.188 43.416C200.341 43.4313 200.481 43.5064 200.578 43.6249C200.675 43.7435 200.721 43.8957 200.705 44.0481C200.69 44.2004 200.615 44.3405 200.497 44.4375C200.378 44.5345 200.226 44.5804 200.073 44.5652C180.894 42.6576 174.114 52.4944 171.815 61.0671C170.161 67.2726 169.517 74.5238 180.928 88.8768C187.823 97.53 185.031 103.195 183.502 105.218C182.546 106.457 181.321 107.462 179.92 108.159C178.518 108.856 176.977 109.225 175.412 109.24Z" fill="black"/>
<defs>
<linearGradient id="paint0_linear_1270_1663" x1="0.65918" y1="214.048" x2="174.367" y2="214.048" gradientUnits="userSpaceOnUse">
<stop stop-color="#F57A00"/>
<stop offset="1" stop-color="#7103A4"/>
</linearGradient>
<linearGradient id="paint1_linear_1270_1663" x1="288.352" y1="209.101" x2="441.627" y2="209.101" gradientUnits="userSpaceOnUse">
<stop stop-color="#F57A00"/>
<stop offset="1" stop-color="#7103A4"/>
</linearGradient>
<linearGradient id="paint2_linear_1270_1663" x1="229.572" y1="29.5567" x2="285.904" y2="29.5567" gradientUnits="userSpaceOnUse">
<stop stop-color="#F57A00"/>
<stop offset="1" stop-color="#7103A4"/>
</linearGradient>
<linearGradient id="paint3_linear_1270_1663" x1="285.904" y1="29.5567" x2="287.341" y2="29.5567" gradientUnits="userSpaceOnUse">
<stop stop-color="#F57A00"/>
<stop offset="1" stop-color="#7103A4"/>
</linearGradient>
<linearGradient id="paint4_linear_1270_1663" x1="64.0466" y1="171.971" x2="102.413" y2="131.893" gradientUnits="userSpaceOnUse">
<stop stop-color="#F57A00"/>
<stop offset="1" stop-color="#7103A4"/>
</linearGradient>
<linearGradient id="paint5_linear_1270_1663" x1="82.1692" y1="151.959" x2="115.01" y2="151.959" gradientUnits="userSpaceOnUse">
<stop stop-color="#F57A00"/>
<stop offset="1" stop-color="#7103A4"/>
</linearGradient>
<linearGradient id="paint6_linear_1270_1663" x1="138.316" y1="10.7163" x2="254.545" y2="10.7163" gradientUnits="userSpaceOnUse">
<stop stop-color="#F57A00"/>
<stop offset="1" stop-color="#7103A4"/>
</linearGradient>
<linearGradient id="paint7_linear_1270_1663" x1="140.891" y1="6.87236" x2="254.535" y2="6.87236" gradientUnits="userSpaceOnUse">
<stop stop-color="#F57A00"/>
<stop offset="1" stop-color="#7103A4"/>
</linearGradient>
<linearGradient id="paint8_linear_1270_1663" x1="338.068" y1="66.3818" x2="392.786" y2="66.3818" gradientUnits="userSpaceOnUse">
<stop stop-color="#F57A00"/>
<stop offset="1" stop-color="#7103A4"/>
</linearGradient>
<linearGradient id="paint9_linear_1270_1663" x1="329.951" y1="158.267" x2="402.724" y2="158.267" gradientUnits="userSpaceOnUse">
<stop stop-color="#F57A00"/>
<stop offset="1" stop-color="#7103A4"/>
</linearGradient>
<linearGradient id="paint10_linear_1270_1663" x1="319.283" y1="217.605" x2="403.378" y2="217.605" gradientUnits="userSpaceOnUse">
<stop stop-color="#F57A00"/>
<stop offset="1" stop-color="#7103A4"/>
</linearGradient>
<linearGradient id="paint11_linear_1270_1663" x1="301.552" y1="101.253" x2="313.707" y2="101.253" gradientUnits="userSpaceOnUse">
<stop stop-color="#F57A00"/>
<stop offset="1" stop-color="#7103A4"/>
</linearGradient>
</defs>
</svg>
