<svg width="349" height="284" viewBox="0 0 349 284" fill="none" xmlns="http://www.w3.org/2000/svg">
<path opacity="0.12" d="M322.816 257.413H67.8368C66.3041 257.413 65.0501 256.159 65.0501 254.626V73.2471C65.0501 71.7145 66.3041 70.4604 67.8368 70.4604H322.817C324.349 70.4604 325.603 71.7145 325.603 73.2471V254.626C325.603 256.159 324.349 257.413 322.816 257.413Z" fill="white"/>
<path opacity="0.12" d="M322.612 70.4604H68.0407C66.3959 70.4604 65.0499 71.9332 65.0499 73.7334V254.14C65.0499 255.94 66.3957 257.413 68.0407 257.413H79.5691C127.272 234.676 172.711 211.86 218.383 178.275C237.574 164.365 254.77 152.365 271.219 136C289.972 117.433 309.109 100.825 325.603 80.4582V73.7337C325.603 71.9332 324.257 70.4604 322.612 70.4604Z" fill="white"/>
<path d="M322.612 261.64H68.0407C64.2615 261.64 61.1871 258.276 61.1871 254.14V73.7333C61.1871 69.5974 64.2617 66.2329 68.0407 66.2329H322.612C326.391 66.2329 329.466 69.5974 329.466 73.7333V254.14C329.466 258.276 326.391 261.64 322.612 261.64ZM68.913 240.912H321.74V74.688H68.913V240.912Z" fill="url(#paint0_linear_1295_1336)"/>
<path d="M46.2237 264.723C46.2237 268.587 49.6411 271.731 53.8418 271.731H336.811C341.012 271.731 344.43 268.588 344.43 264.723V256.315H46.2237V264.723Z" fill="url(#paint1_linear_1295_1336)"/>
<path opacity="0.5" d="M344.43 256.315H46.2237V261.64H344.43V256.315Z" fill="url(#paint2_linear_1295_1336)"/>
<path d="M123.228 137.994H30.541V195.858H123.228V137.994Z" fill="url(#paint3_linear_1295_1336)"/>
<path d="M61.2319 172.525H39.759C38.2263 172.525 36.9723 171.271 36.9723 169.739V148.266C36.9723 146.733 38.2263 145.479 39.759 145.479H61.2319C62.7646 145.479 64.0186 146.733 64.0186 148.266V169.739C64.0186 171.271 62.7643 172.525 61.2319 172.525Z" fill="white"/>
<path d="M42.4558 168.267H58.5346C57.5307 165.381 55.5851 163.137 53.1895 162.161C52.8702 162.03 52.6045 161.813 52.4169 161.541C52.2225 161.26 52.1117 160.922 52.1117 160.565V160.128C53.5341 159.44 54.6578 157.914 55.1399 156.245C55.195 156.264 55.2519 156.274 55.3101 156.274C55.7767 156.274 56.1548 155.635 56.1548 154.848C56.1548 154.061 55.7767 153.423 55.3101 153.423C55.302 153.423 55.2944 153.424 55.2862 153.425C54.8104 151.173 52.8467 149.738 50.4954 149.738C48.1442 149.738 46.1805 151.173 45.7046 153.425C45.6965 153.424 45.6888 153.423 45.6807 153.423C45.2142 153.423 44.8361 154.061 44.8361 154.848C44.8361 155.635 45.2144 156.274 45.6807 156.274C45.739 156.274 45.7959 156.264 45.8509 156.245C46.3328 157.914 47.4568 159.44 48.8791 160.128V160.565C48.8791 160.942 48.7561 161.297 48.5415 161.587C48.3562 161.837 48.1028 162.038 47.8014 162.16C45.4055 163.137 43.4597 165.381 42.4558 168.267Z" fill="#1A1227"/>
<path d="M114.01 155.117H71.4041C69.8714 155.117 68.6174 153.863 68.6174 152.33V148.266C68.6174 146.733 69.8714 145.479 71.4041 145.479H114.01C115.543 145.479 116.797 146.733 116.797 148.266V152.33C116.797 153.863 115.543 155.117 114.01 155.117Z" fill="url(#paint4_linear_1295_1336)"/>
<path d="M116.797 157.964H67.851V159.297H116.797V157.964Z" fill="white"/>
<path d="M116.797 162.374H67.851V163.707H116.797V162.374Z" fill="white"/>
<path d="M116.797 166.783H67.851V168.116H116.797V166.783Z" fill="white"/>
<path d="M116.797 171.192H67.851V172.525H116.797V171.192Z" fill="white"/>
<path d="M116.797 178.221H36.972V179.554H116.797V178.221Z" fill="white"/>
<path d="M116.797 182.631H36.972V183.964H116.797V182.631Z" fill="white"/>
<path d="M116.797 187.04H36.972V188.373H116.797V187.04Z" fill="white"/>
<path d="M293.829 91.208H280.351C279.614 91.208 279.011 91.8111 279.011 92.5484V122.898C279.011 123.635 279.614 124.238 280.351 124.238H302.542C303.279 124.238 303.882 123.635 303.882 122.898V101.931H293.829V91.208Z" fill="url(#paint5_linear_1295_1336)"/>
<path d="M293.829 91.208V101.931H303.882L293.829 91.208Z" fill="url(#paint6_linear_1295_1336)"/>
<path d="M292.303 98.1006H282.027V98.9522H292.303V98.1006Z" fill="white"/>
<path d="M292.303 101.931H282.027V102.782H292.303V101.931Z" fill="white"/>
<path d="M300.866 106.292H282.027V107.143H300.866V106.292Z" fill="white"/>
<path d="M300.866 110.122H282.027V110.974H300.866V110.122Z" fill="white"/>
<path d="M300.866 114.929H282.027V115.781H300.866V114.929Z" fill="white"/>
<path d="M300.866 118.76H282.027V119.611H300.866V118.76Z" fill="white"/>
<path d="M345.396 214.232H210.439C208.906 214.232 207.652 212.978 207.652 211.445V143.92C207.652 142.388 208.906 141.134 210.439 141.134H345.396C346.929 141.134 348.183 142.388 348.183 143.92V211.445C348.183 212.978 346.929 214.232 345.396 214.232Z" fill="#F57A00"/>
<path d="M345.396 148.147H210.439C208.906 148.147 207.652 146.893 207.652 145.36V143.92C207.652 142.388 208.906 141.134 210.439 141.134H345.396C346.929 141.134 348.183 142.388 348.183 143.92V145.36C348.183 146.893 346.929 148.147 345.396 148.147Z" fill="url(#paint7_linear_1295_1336)"/>
<path d="M333.487 144.64C333.487 145.273 332.974 145.787 332.341 145.787C331.707 145.787 331.194 145.273 331.194 144.64C331.194 144.007 331.707 143.494 332.341 143.494C332.974 143.494 333.487 144.007 333.487 144.64Z" fill="white"/>
<path d="M338.949 144.64C338.949 145.273 338.436 145.787 337.803 145.787C337.17 145.787 336.656 145.273 336.656 144.64C336.656 144.007 337.17 143.494 337.803 143.494C338.436 143.494 338.949 144.007 338.949 144.64Z" fill="white"/>
<path d="M344.412 144.64C344.412 145.273 343.899 145.787 343.265 145.787C342.632 145.787 342.119 145.273 342.119 144.64C342.119 144.007 342.632 143.494 343.265 143.494C343.899 143.494 344.412 144.007 344.412 144.64Z" fill="white"/>
<path d="M336.657 154.401H239.578V155.622H336.657V154.401Z" fill="white"/>
<path d="M336.657 157.708H239.578V158.93H336.657V157.708Z" fill="white"/>
<path d="M336.657 161.016H239.578V162.237H336.657V161.016Z" fill="white"/>
<path d="M276.824 164.323H239.578V165.544H276.824V164.323Z" fill="white"/>
<path d="M276.824 167.63H239.578V168.851H276.824V167.63Z" fill="white"/>
<path d="M234.99 154.619H220.758V168.851H234.99V154.619Z" fill="white"/>
<path d="M230.642 161.043L229.13 163.662L226.362 158.869L222.083 166.281H227.617H230.642H233.666L230.642 161.043Z" fill="#1A1227"/>
<path d="M230.281 158.392C230.281 159.056 229.742 159.595 229.078 159.595C228.413 159.595 227.874 159.056 227.874 158.392C227.874 157.727 228.413 157.188 229.078 157.188C229.742 157.188 230.281 157.727 230.281 158.392Z" fill="#1A1227"/>
<path d="M336.657 174.372H239.578V175.593H336.657V174.372Z" fill="white"/>
<path d="M336.657 177.679H239.578V178.9H336.657V177.679Z" fill="white"/>
<path d="M336.657 180.986H239.578V182.207H336.657V180.986Z" fill="white"/>
<path d="M276.824 184.293H239.578V185.514H276.824V184.293Z" fill="white"/>
<path d="M276.824 187.601H239.578V188.822H276.824V187.601Z" fill="white"/>
<path d="M234.99 174.59H220.758V188.822H234.99V174.59Z" fill="white"/>
<path d="M230.642 181.014L229.13 183.632L226.362 178.839L222.083 186.252H227.617H230.642H233.666L230.642 181.014Z" fill="#1A1227"/>
<path d="M230.281 178.363C230.281 179.027 229.742 179.566 229.078 179.566C228.413 179.566 227.874 179.027 227.874 178.363C227.874 177.698 228.413 177.159 229.078 177.159C229.742 177.159 230.281 177.698 230.281 178.363Z" fill="#1A1227"/>
<path d="M336.657 194.342H239.578V195.563H336.657V194.342Z" fill="white"/>
<path d="M336.657 197.649H239.578V198.87H336.657V197.649Z" fill="white"/>
<path d="M336.657 200.956H239.578V202.177H336.657V200.956Z" fill="white"/>
<path d="M276.824 204.263H239.578V205.484H276.824V204.263Z" fill="white"/>
<path d="M276.824 207.571H239.578V208.792H276.824V207.571Z" fill="white"/>
<path d="M234.99 194.56H220.758V208.792H234.99V194.56Z" fill="white"/>
<path d="M230.642 200.984L229.13 203.603L226.362 198.81L222.083 206.222H227.617H230.642H233.666L230.642 200.984Z" fill="#1A1227"/>
<path d="M230.281 198.333C230.281 198.997 229.742 199.536 229.078 199.536C228.413 199.536 227.874 198.997 227.874 198.333C227.874 197.668 228.413 197.129 229.078 197.129C229.742 197.129 230.281 197.668 230.281 198.333Z" fill="#1A1227"/>
<path d="M190.882 8.43164L192.311 9.09277C192.825 9.32519 193.375 9.5687 193.959 9.81934C199.572 12.2296 208.214 18.1175 216.396 18.4248C236.008 48.8979 264.137 49.3117 264.193 49.3125C255.553 103.866 226.855 155.762 193.959 168.201C192.937 168.588 191.911 168.944 190.882 169.27C189.852 168.944 188.826 168.588 187.804 168.201C154.908 155.761 126.21 103.866 117.57 49.3125C117.688 49.3108 145.776 48.8644 165.366 18.4248C173.549 18.1176 182.19 12.2294 187.804 9.81934C188.971 9.31819 190.008 8.84523 190.882 8.43164Z" fill="#F57A00"/>
<path d="M190.222 107.253L168.379 90.2853C167.133 89.3181 166.908 87.5242 167.875 86.2785C168.843 85.034 170.637 84.8083 171.882 85.7755L189.537 99.4896L219.995 65.7589C221.052 64.5887 222.857 64.4968 224.028 65.5534C225.198 66.6103 225.29 68.4158 224.233 69.5864L190.222 107.253Z" fill="white"/>
<path d="M190.882 176.326L188.855 175.686C187.718 175.327 186.564 174.926 185.424 174.495C176.511 171.125 167.757 165.172 159.404 156.802C151.644 149.025 144.364 139.309 137.768 127.923C124.845 105.614 115.312 78.0702 110.924 50.3655L109.694 42.5969L117.458 42.5848C117.857 42.57 124.03 42.2834 132.114 38.8477C143.173 34.1477 152.457 26.0511 159.708 14.7834L161.607 11.8325L165.114 11.7008C169.638 11.5311 175.223 8.63359 179.711 6.30553C181.632 5.30906 183.447 4.36762 185.149 3.6368C186.119 3.22043 187.079 2.78756 188.003 2.35028L190.881 0.988281L193.76 2.35028C194.684 2.78756 195.644 3.22043 196.614 3.6368C198.316 4.36762 200.131 5.30906 202.052 6.30553C206.54 8.63359 212.125 11.5311 216.649 11.7008L220.156 11.8325L222.055 14.7834C229.437 26.255 238.913 34.4314 250.218 39.0857C258.3 42.4132 264.227 42.5841 264.285 42.5848L272.054 42.691L270.839 50.3655C266.451 78.0702 256.917 105.614 243.994 127.923C237.398 139.309 230.119 149.025 222.359 156.802C214.006 165.172 205.252 171.125 196.339 174.495C195.199 174.926 194.045 175.327 192.908 175.686L190.882 176.326ZM125.397 55.0337C129.924 78.8173 138.348 102.076 149.413 121.177C161.522 142.079 176.001 156.545 190.184 161.908C190.416 161.996 190.649 162.082 190.882 162.166C191.115 162.082 191.348 161.995 191.58 161.908C205.762 156.545 220.242 142.079 232.35 121.177C243.415 102.076 251.839 78.8173 256.366 55.0337C253.264 54.3805 249.405 53.3039 245.095 51.5297C238.99 49.0163 233.219 45.5987 227.94 41.3717C222.19 36.766 217.022 31.1903 212.547 24.7662C206.368 23.704 200.622 20.7239 195.855 18.2512C194.158 17.3708 192.555 16.5394 191.305 16.0023C191.163 15.9417 191.022 15.8809 190.882 15.8198C190.741 15.8809 190.6 15.9419 190.459 16.0025C189.208 16.5395 187.605 17.371 185.908 18.2512C181.141 20.7239 175.395 23.7043 169.217 24.7662C164.741 31.1903 159.574 36.766 153.823 41.3717C148.545 45.5987 142.773 49.0163 136.668 51.5297C132.359 53.3039 128.499 54.3805 125.397 55.0337Z" fill="url(#paint8_linear_1295_1336)"/>
<path d="M190.882 176.864L188.7 176.175C187.554 175.813 186.391 175.409 185.243 174.975C176.262 171.578 167.446 165.586 159.041 157.164C151.25 149.356 143.943 139.604 137.325 128.18C124.371 105.818 114.815 78.2111 110.418 50.4458L109.094 42.0851L117.448 42.072C117.811 42.0574 123.938 41.7653 131.914 38.3757C142.876 33.7166 152.083 25.6856 159.277 14.5056L161.321 11.3299L165.095 11.1882C169.504 11.0227 175.032 8.15468 179.475 5.85032C181.405 4.84919 183.228 3.90357 184.947 3.16556C185.912 2.75127 186.866 2.32096 187.784 1.8867L190.882 0.420898L193.979 1.8867C194.898 2.3212 195.852 2.75151 196.816 3.16556C198.536 3.90404 200.358 4.84943 202.288 5.85032C206.731 8.15491 212.26 11.0229 216.668 11.1885L220.442 11.3301L222.486 14.5058C229.811 25.8876 239.207 33.9981 250.413 38.6114C258.399 41.899 264.237 42.0709 264.295 42.0723L272.654 42.1865L271.346 50.4458C266.948 78.2111 257.392 105.818 244.439 128.18C237.82 139.604 230.514 149.356 222.723 157.164C214.318 165.586 205.502 171.579 196.521 174.975C195.372 175.409 194.209 175.813 193.063 176.175L190.882 176.864ZM110.294 43.1087L111.43 50.2854C115.809 77.9292 125.32 105.41 138.212 127.666C144.786 139.014 152.038 148.695 159.767 156.44C168.068 164.758 176.761 170.672 185.606 174.016C186.736 174.443 187.881 174.841 189.009 175.197L190.882 175.789L192.754 175.197C193.882 174.841 195.027 174.444 196.158 174.016C205.002 170.672 213.695 164.758 221.997 156.44C229.726 148.695 236.978 139.014 243.551 127.666C256.443 105.41 265.955 77.9292 270.333 50.2854L271.456 43.1955L264.278 43.0975C264.22 43.0969 258.203 42.9271 250.023 39.5598C238.619 34.8649 229.064 26.6224 221.624 15.0608L219.869 12.3347L216.63 12.213C211.991 12.0389 206.349 9.11237 201.816 6.76087C199.903 5.76857 198.096 4.83132 196.411 4.10793C195.436 3.689 194.47 3.25381 193.54 2.81375L190.881 1.55555L188.222 2.81375C187.293 3.25335 186.327 3.689 185.351 4.10793C183.666 4.83155 181.86 5.76858 179.947 6.76064C175.413 9.11238 169.771 12.0391 165.133 12.213L161.893 12.3347L160.139 15.0608C152.831 26.4168 143.469 34.5786 132.314 39.3197C124.093 42.8138 117.743 43.0873 117.477 43.0973L117.458 43.0978L110.294 43.1087ZM190.882 162.711L190.707 162.648C190.472 162.563 190.237 162.476 190.003 162.387C175.71 156.982 161.137 142.438 148.97 121.434C143.455 111.914 138.577 101.35 134.472 90.036C130.377 78.7517 127.155 67.0076 124.894 55.1296L124.8 54.6356L125.292 54.5321C129.01 53.749 132.772 52.5793 136.473 51.0557C142.533 48.5611 148.262 45.1683 153.503 40.9715C159.206 36.4037 164.352 30.8528 168.796 24.4734L168.919 24.2973L169.13 24.2611C175.231 23.2124 181.021 20.2092 185.672 17.7962C187.379 16.9109 188.989 16.0756 190.257 15.5315C190.397 15.4712 190.538 15.4105 190.678 15.3497L190.882 15.2608L191.087 15.3497C191.227 15.4105 191.367 15.4712 191.507 15.5313C192.775 16.0756 194.385 16.9109 196.09 17.795C200.744 20.209 206.533 23.2121 212.634 24.2609L212.846 24.2971L212.968 24.4731C217.412 30.8526 222.558 36.4034 228.262 40.9713C233.502 45.1678 239.231 48.5606 245.291 51.0554C248.992 52.5793 252.754 53.7488 256.473 54.5318L256.965 54.6354L256.871 55.1293C254.61 67.0072 251.387 78.7515 247.293 90.0358C243.187 101.35 238.309 111.913 232.794 121.434C220.627 142.438 206.055 156.982 191.762 162.387C191.528 162.475 191.292 162.563 191.057 162.648L190.882 162.711ZM125.995 55.4298C130.521 78.9152 138.987 102.156 149.857 120.92C161.906 141.721 176.292 156.106 190.365 161.428C190.537 161.493 190.709 161.557 190.882 161.62C191.054 161.557 191.227 161.493 191.399 161.428C205.471 156.106 219.857 141.72 231.906 120.92C242.776 102.156 251.242 78.9152 255.769 55.4298C252.15 54.6359 248.496 53.4843 244.9 52.0041C238.75 49.4723 232.936 46.0296 227.62 41.772C221.892 37.1844 216.721 31.6215 212.248 25.2346C206.07 24.1273 200.281 21.1247 195.619 18.7065C193.93 17.8301 192.336 17.0031 191.102 16.4737C191.029 16.4421 190.955 16.4105 190.882 16.3787C190.808 16.4105 190.734 16.4423 190.661 16.4739C189.428 17.0031 187.834 17.8301 186.146 18.7056C181.482 21.1247 175.693 24.1276 169.515 25.2348C165.042 31.6217 159.872 37.1846 154.143 41.7722C148.827 46.0298 143.013 49.4724 136.863 52.0043C133.268 53.4843 129.614 54.6359 125.995 55.4298Z" fill="#B8D7E8"/>
<path d="M95.7507 122.79H2.8907C1.35802 122.79 0.104004 121.536 0.104004 120.003V74.3756C0.104004 72.8429 1.35802 71.5889 2.8907 71.5889H95.7507C97.2833 71.5889 98.5374 72.8429 98.5374 74.3756V120.003C98.5374 121.536 97.2833 122.79 95.7507 122.79Z" fill="#F57A00"/>
<path d="M97.0446 76.5011H1.59698C0.77583 76.5011 0.104004 75.8293 0.104004 75.0081V73.0818C0.104004 72.2607 0.77583 71.5889 1.59698 71.5889H97.0446C97.8658 71.5889 98.5376 72.2607 98.5376 73.0818V75.0081C98.5374 75.8293 97.8655 76.5011 97.0446 76.5011Z" fill="url(#paint9_linear_1295_1336)"/>
<path d="M88.2438 74.0447C88.2438 74.4883 87.8843 74.8478 87.4407 74.8478C86.9972 74.8478 86.6377 74.4883 86.6377 74.0447C86.6377 73.6012 86.9972 73.2417 87.4407 73.2417C87.8843 73.2417 88.2438 73.6012 88.2438 74.0447Z" fill="white"/>
<path d="M92.0699 74.0447C92.0699 74.4883 91.7104 74.8478 91.2668 74.8478C90.8233 74.8478 90.4638 74.4883 90.4638 74.0447C90.4638 73.6012 90.8233 73.2417 91.2668 73.2417C91.7104 73.2417 92.0699 73.6012 92.0699 74.0447Z" fill="white"/>
<path d="M95.8958 74.0447C95.8958 74.4883 95.5363 74.8478 95.0928 74.8478C94.6492 74.8478 94.2897 74.4883 94.2897 74.0447C94.2897 73.6012 94.6492 73.2417 95.0928 73.2417C95.5363 73.2417 95.8958 73.6012 95.8958 74.0447Z" fill="white"/>
<path d="M90.4638 80.8818H22.4666V81.7371H90.4638V80.8818Z" fill="white"/>
<path d="M90.4638 83.1982H22.4666V84.0535H90.4638V83.1982Z" fill="white"/>
<path d="M90.4638 85.5146H22.4666V86.3699H90.4638V85.5146Z" fill="white"/>
<path d="M90.4638 87.8311H22.4666V88.6863H90.4638V87.8311Z" fill="white"/>
<path d="M90.4638 90.1479H22.4666V91.0032H90.4638V90.1479Z" fill="white"/>
<path d="M19.2528 81.0347H9.2843V91.0034H19.2528V81.0347Z" fill="white"/>
<path d="M19.8981 113.499H12.7254C11.1927 113.499 9.93872 112.245 9.93872 110.713V103.54C9.93872 102.007 11.1927 100.753 12.7254 100.753H19.8981C21.4308 100.753 22.6848 102.007 22.6848 103.54V110.713C22.6848 112.245 21.4308 113.499 19.8981 113.499Z" fill="white"/>
<path d="M12.5231 111.492H20.1003C19.6273 110.132 18.7102 109.075 17.5814 108.615C17.4309 108.553 17.3057 108.451 17.2173 108.323C17.1255 108.19 17.0735 108.031 17.0735 107.863V107.657C17.7437 107.333 18.2734 106.613 18.5005 105.827C18.5265 105.836 18.5533 105.84 18.5807 105.84C18.8006 105.84 18.9787 105.54 18.9787 105.169C18.9787 104.798 18.8006 104.497 18.5807 104.497C18.5769 104.497 18.5732 104.498 18.5693 104.498C18.3449 103.437 17.4195 102.76 16.3116 102.76C15.2036 102.76 14.278 103.437 14.0539 104.498C14.0502 104.498 14.0465 104.497 14.0425 104.497C13.8226 104.497 13.6445 104.798 13.6445 105.169C13.6445 105.54 13.8226 105.84 14.0425 105.84C14.0699 105.84 14.0969 105.836 14.1226 105.827C14.3498 106.613 14.8795 107.333 15.5497 107.657V107.863C15.5497 108.04 15.4916 108.208 15.3906 108.344C15.3033 108.462 15.1839 108.557 15.0418 108.615C13.9132 109.075 12.9961 110.132 12.5231 111.492Z" fill="#1A1227"/>
<path d="M23.3578 116.555H9.26575V116.99H23.3578V116.555Z" fill="white"/>
<path d="M41.904 113.499H34.7315C33.1988 113.499 31.9448 112.245 31.9448 110.713V103.54C31.9448 102.007 33.1988 100.753 34.7315 100.753H41.9042C43.4369 100.753 44.6909 102.007 44.6909 103.54V110.713C44.6907 112.245 43.4367 113.499 41.904 113.499Z" fill="white"/>
<path d="M34.5291 111.492H42.1063C41.6333 110.132 40.7162 109.075 39.5874 108.615C39.4369 108.553 39.3117 108.451 39.2232 108.323C39.1318 108.19 39.0795 108.031 39.0795 107.863V107.657C39.7497 107.333 40.2794 106.613 40.5065 105.827C40.5325 105.836 40.5592 105.84 40.5866 105.84C40.8066 105.84 40.9847 105.54 40.9847 105.169C40.9847 104.798 40.8063 104.497 40.5866 104.497C40.5829 104.497 40.5792 104.498 40.5755 104.498C40.3512 103.437 39.4257 102.76 38.3176 102.76C37.2094 102.76 36.284 103.437 36.0599 104.498C36.0562 104.498 36.0524 104.497 36.0485 104.497C35.8286 104.497 35.6505 104.798 35.6505 105.169C35.6505 105.54 35.8286 105.84 36.0485 105.84C36.0759 105.84 36.1028 105.836 36.1286 105.827C36.3557 106.613 36.8854 107.333 37.5556 107.657V107.863C37.5556 108.04 37.4976 108.208 37.3966 108.344C37.3093 108.462 37.1899 108.557 37.0478 108.615C35.9192 109.075 35.0021 110.132 34.5291 111.492Z" fill="#1A1227"/>
<path d="M45.3637 116.555H31.2716V116.99H45.3637V116.555Z" fill="white"/>
<path d="M63.9099 113.499H56.7372C55.2045 113.499 53.9505 112.245 53.9505 110.713V103.54C53.9505 102.007 55.2045 100.753 56.7372 100.753H63.9099C65.4426 100.753 66.6966 102.007 66.6966 103.54V110.713C66.6966 112.245 65.4426 113.499 63.9099 113.499Z" fill="white"/>
<path d="M56.5349 111.492H64.1124C63.6394 110.132 62.7223 109.075 61.5935 108.615C61.443 108.553 61.3178 108.451 61.2293 108.323C61.1378 108.19 61.0856 108.031 61.0856 107.863V107.657C61.7558 107.333 62.2855 106.613 62.5126 105.827C62.5386 105.836 62.5653 105.84 62.5927 105.84C62.8126 105.84 62.9908 105.54 62.9908 105.169C62.9908 104.798 62.8126 104.497 62.5927 104.497C62.589 104.497 62.5853 104.498 62.5813 104.498C62.357 103.437 61.4316 102.76 60.3237 102.76C59.2155 102.76 58.2901 103.437 58.066 104.498C58.0623 104.498 58.0585 104.497 58.0546 104.497C57.8347 104.497 57.6566 104.798 57.6566 105.169C57.6566 105.54 57.8347 105.84 58.0546 105.84C58.082 105.84 58.1089 105.836 58.1347 105.827C58.3618 106.613 58.8915 107.333 59.5617 107.657V107.863C59.5617 108.04 59.5037 108.208 59.4027 108.344C59.3153 108.462 59.196 108.557 59.0539 108.615C57.925 109.075 57.0082 110.132 56.5349 111.492Z" fill="#1A1227"/>
<path d="M67.3698 116.555H53.2777V116.99H67.3698V116.555Z" fill="white"/>
<path d="M85.916 113.499H78.7435C77.2108 113.499 75.9568 112.245 75.9568 110.713V103.54C75.9568 102.007 77.2108 100.753 78.7435 100.753H85.916C87.4487 100.753 88.7027 102.007 88.7027 103.54V110.713C88.7027 112.245 87.4487 113.499 85.916 113.499Z" fill="white"/>
<path d="M78.541 111.492H86.1185C85.6455 110.132 84.7284 109.075 83.5996 108.615C83.4491 108.553 83.3239 108.451 83.2354 108.323C83.1439 108.19 83.0917 108.031 83.0917 107.863V107.657C83.7619 107.333 84.2916 106.613 84.5187 105.827C84.5447 105.836 84.5714 105.84 84.5988 105.84C84.8187 105.84 84.9969 105.54 84.9969 105.169C84.9969 104.798 84.8185 104.497 84.5988 104.497C84.5951 104.497 84.5914 104.498 84.5877 104.498C84.3633 103.437 83.4379 102.76 82.3297 102.76C81.2216 102.76 80.2962 103.437 80.0721 104.498C80.0683 104.498 80.0646 104.497 80.0607 104.497C79.8408 104.497 79.6627 104.798 79.6627 105.169C79.6627 105.54 79.8408 105.84 80.0607 105.84C80.0881 105.84 80.115 105.836 80.1408 105.827C80.3679 106.613 80.8976 107.333 81.5678 107.657V107.863C81.5678 108.04 81.5098 108.208 81.4088 108.344C81.3214 108.462 81.2021 108.557 81.06 108.615C79.9309 109.075 79.0141 110.132 78.541 111.492Z" fill="#1A1227"/>
<path d="M89.3757 116.555H75.2836V116.99H89.3757V116.555Z" fill="white"/>
<path d="M104.331 165.641C102.043 165.23 100.13 163.832 98.9678 162.145C97.8053 160.458 97.3204 158.504 97.1323 156.566C96.9642 154.833 97.0236 153.068 97.5703 151.389C98.1717 149.543 99.3658 147.831 100.997 146.48C102.331 145.373 104.123 144.472 105.998 144.645C107.562 144.79 108.917 145.673 109.814 146.747C111.572 148.852 112.214 151.638 113.209 154.028C113.894 155.674 114.998 157.461 115.024 159.236C115.084 163.224 108.663 166.417 104.331 165.641Z" fill="#FFA89C"/>
<path d="M97.688 149.924C98.9508 150.989 100.487 151.908 101.084 153.449C102.069 155.991 100.063 159.153 101.503 161.467C101.927 162.148 102.599 162.638 103.29 163.046C104.721 163.894 106.311 164.471 107.952 164.74C109.082 164.925 110.255 164.963 111.359 164.66C112.473 164.354 113.466 163.718 114.39 163.025C116.604 161.365 118.562 159.278 119.689 156.75C120.816 154.222 121.039 151.218 119.904 148.693C118.373 145.285 114.685 143.302 111.017 142.588C109.354 142.264 107.629 142.141 106.069 141.479C104.509 140.816 103.098 139.438 103.028 137.744C101.566 138.754 100.63 140.486 100.587 142.262C98.8538 141.248 97.7644 139.223 97.8735 137.217C97.8459 137.725 95.9166 139.549 95.5861 140.202C95.1196 141.125 94.6932 142.103 94.6291 143.144C94.4668 145.792 95.6911 148.24 97.688 149.924Z" fill="black"/>
<path d="M122.394 186.564C122.394 186.564 122.507 196.499 122.056 198.814C121.604 201.128 113.419 221.618 113.363 221.788C113.306 221.957 114.887 225.005 114.492 226.586C114.097 228.166 112.177 229.803 112.177 230.311C112.177 230.82 113.25 232.908 112.177 232.795C111.105 232.682 108.282 227.376 109.242 223.199C110.201 219.022 115.112 199.04 115.112 198.87C115.112 198.701 115.056 187.694 115.056 187.694L122.394 186.564Z" fill="#FFA89C"/>
<path d="M123.401 185.792C123.486 186.111 123.568 186.451 123.466 186.764C123.329 187.186 122.905 187.435 122.509 187.636C119.242 189.292 115.64 190.286 111.986 190.539C109.819 185.369 109.603 179.418 111.337 174.092C111.957 172.188 113.136 168.662 115.783 169.933C117.946 170.971 119.178 174.684 120.12 176.722C121.469 179.645 122.569 182.683 123.401 185.792Z" fill="#A535C5"/>
<path d="M72.8332 148.632C73.1718 148.011 75.599 153.035 76.2764 155.97C76.9538 158.905 78.9293 162.45 79.9456 164.883C80.9618 167.316 87.7353 178.492 87.7353 180.355C87.7353 182.218 88.1868 186.79 84.179 185.379C80.1713 183.967 77.5745 175.67 75.2038 164.042C73.0587 162.235 72.7765 160.768 72.1556 159.865C71.196 159.695 69.2203 156.704 73.2847 154.559C74.5266 153.656 71.8535 150.428 72.8332 148.632Z" fill="#FFA89C"/>
<path d="M93.3238 208.523C93.3238 208.523 87.3403 240.811 87.1146 242.391C86.8889 243.972 84.8014 276.711 84.8014 276.711C84.8014 276.711 71.9865 281.453 74.809 282.695C77.6314 283.937 93.3238 282.695 93.3238 282.695C93.3238 282.695 94.1141 280.211 92.7593 277.389C94.1141 277.276 94.1141 277.276 94.1141 277.276L98.7428 245.885L101.678 240.133L102.264 246.794L103.823 276.373C103.823 276.373 92.195 281.227 95.4689 281.904C98.7428 282.582 112.855 281.453 112.855 281.453C112.855 281.453 112.29 277.953 111.274 276.711C112.403 276.711 112.403 276.711 112.403 276.711L113.532 241.262C113.532 241.262 120.983 219.586 115.225 207.168C105.855 207.055 93.3238 208.523 93.3238 208.523Z" fill="#1B1425"/>
<path d="M114.851 222.501C115.622 221.611 116.478 220.862 117.393 220.218C117.506 215.592 116.979 210.951 115.225 207.168C105.855 207.055 93.3238 208.523 93.3238 208.523C93.3238 208.523 87.3403 240.811 87.1146 242.391C86.8889 243.972 84.8014 276.711 84.8014 276.711C84.8014 276.711 71.9865 281.453 74.809 282.695C77.6314 283.937 93.3238 282.695 93.3238 282.695C93.3238 282.695 94.1141 280.211 92.7593 277.389C94.1141 277.276 94.1141 277.276 94.1141 277.276L98.7428 245.885L101.678 240.133L101.707 240.467C102.026 239.966 102.376 239.523 102.727 239.173C107.526 233.868 110.305 227.805 114.851 222.501Z" fill="#1B1425"/>
<path d="M91.4388 170.234C93.4281 168.466 95.4754 166.671 97.9458 165.681C98.9151 165.293 99.9332 165.037 100.959 164.843C104.484 164.179 108.215 164.266 111.551 165.582C114.887 166.898 117.782 169.535 118.96 172.922C119.676 174.984 119.743 177.209 119.722 179.392C119.706 181.068 119.642 182.746 119.458 184.413C118.89 189.568 117.19 194.548 116.638 199.704C116.333 202.556 116.383 205.445 116.787 208.284C116.874 208.89 116.939 209.607 116.483 210.016C116.27 210.207 115.982 210.287 115.705 210.358C108.497 212.208 100.868 212.396 93.5776 210.905C93.2346 210.835 92.8663 210.746 92.6411 210.478C92.446 210.246 92.3995 209.927 92.3629 209.626C91.1924 200.046 91.9174 192.043 92.7978 182.432C90.7278 183.632 89.0332 184.363 87.282 185.106C86.352 182.96 84.0717 178.636 85.0327 176.28C85.4433 175.273 86.6192 174.532 87.3997 173.837C88.748 172.638 90.0903 171.432 91.4388 170.234Z" fill="#A535C5"/>
<path d="M113.588 198.756C116.926 188.074 117.517 172.689 108.285 164.687C105.874 164.286 103.368 164.388 100.959 164.843C99.9332 165.037 98.9153 165.293 97.9458 165.681C95.4754 166.671 93.4281 168.466 91.4388 170.233C90.0901 171.432 88.7478 172.638 87.4 173.837C86.6195 174.531 85.4435 175.273 85.0329 176.279C84.072 178.635 86.3522 182.959 87.2822 185.105C89.0337 184.363 90.7282 183.632 92.7981 182.432C91.9175 192.042 91.1927 200.046 92.3631 209.626C92.3998 209.926 92.4462 210.245 92.6413 210.477C92.8666 210.745 93.2349 210.834 93.5779 210.904C96.6932 211.542 99.8705 211.87 103.05 211.895C107.892 208.56 111.923 204.307 113.588 198.756Z" fill="#A535C5"/>
<path d="M194.32 225.927H184.417C179.937 225.927 176.292 222.282 176.292 217.802V189.109C176.292 187.254 176.917 185.542 177.967 184.173C179.453 182.236 181.792 180.984 184.417 180.984H194.32C196.491 180.984 198.466 181.84 199.925 183.232C201.477 184.713 202.445 186.8 202.445 189.109V217.802C202.445 222.282 198.8 225.927 194.32 225.927ZM184.417 185.047C183.42 185.047 182.506 185.408 181.798 186.006C180.915 186.752 180.354 187.866 180.354 189.109V217.802C180.354 220.042 182.177 221.865 184.417 221.865H194.32C196.56 221.865 198.383 220.042 198.383 217.802V189.109C198.383 187.989 197.927 186.974 197.191 186.238C196.456 185.502 195.44 185.047 194.32 185.047H184.417Z" fill="#7103A4"/>
<path d="M170.865 221.669C170.865 224.408 171.775 226.946 173.309 228.992C175.55 231.982 179.119 233.926 183.121 233.926H195.616C199.239 233.926 202.508 232.333 204.757 229.813C206.693 227.643 207.873 224.787 207.873 221.669V203.334C207.873 202.402 207.539 201.548 206.984 200.886C206.284 200.051 205.234 199.52 204.059 199.52H192.627H174.679C173.826 199.52 173.038 199.8 172.403 200.273C171.469 200.969 170.865 202.081 170.865 203.334V221.669H170.865Z" fill="#7103A4"/>
<path d="M195.319 211.31C195.319 208.024 192.655 205.36 189.369 205.36C186.082 205.36 183.419 208.024 183.419 211.31C183.419 213.59 184.701 215.569 186.584 216.568V225.869C186.584 226.704 187.267 227.388 188.103 227.388H190.635C191.47 227.388 192.154 226.704 192.154 225.869V216.568C194.036 215.569 195.319 213.59 195.319 211.31Z" fill="white"/>
<defs>
<linearGradient id="paint0_linear_1295_1336" x1="61.1871" y1="163.936" x2="329.466" y2="163.936" gradientUnits="userSpaceOnUse">
<stop stop-color="#F57A00"/>
<stop offset="1" stop-color="#7103A4"/>
</linearGradient>
<linearGradient id="paint1_linear_1295_1336" x1="46.2237" y1="264.023" x2="344.43" y2="264.023" gradientUnits="userSpaceOnUse">
<stop stop-color="#F57A00"/>
<stop offset="1" stop-color="#7103A4"/>
</linearGradient>
<linearGradient id="paint2_linear_1295_1336" x1="46.2237" y1="258.978" x2="344.43" y2="258.978" gradientUnits="userSpaceOnUse">
<stop stop-color="#F57A00"/>
<stop offset="1" stop-color="#7103A4"/>
</linearGradient>
<linearGradient id="paint3_linear_1295_1336" x1="30.541" y1="166.926" x2="123.228" y2="166.926" gradientUnits="userSpaceOnUse">
<stop stop-color="#F57A00"/>
<stop offset="1" stop-color="#7103A4"/>
</linearGradient>
<linearGradient id="paint4_linear_1295_1336" x1="68.6174" y1="150.298" x2="116.797" y2="150.298" gradientUnits="userSpaceOnUse">
<stop stop-color="#F57A00"/>
<stop offset="1" stop-color="#7103A4"/>
</linearGradient>
<linearGradient id="paint5_linear_1295_1336" x1="279.011" y1="107.723" x2="303.882" y2="107.723" gradientUnits="userSpaceOnUse">
<stop stop-color="#F57A00"/>
<stop offset="1" stop-color="#7103A4"/>
</linearGradient>
<linearGradient id="paint6_linear_1295_1336" x1="293.829" y1="96.5694" x2="303.882" y2="96.5694" gradientUnits="userSpaceOnUse">
<stop stop-color="#F57A00"/>
<stop offset="1" stop-color="#7103A4"/>
</linearGradient>
<linearGradient id="paint7_linear_1295_1336" x1="207.652" y1="144.64" x2="348.183" y2="144.64" gradientUnits="userSpaceOnUse">
<stop stop-color="#F57A00"/>
<stop offset="1" stop-color="#7103A4"/>
</linearGradient>
<linearGradient id="paint8_linear_1295_1336" x1="109.694" y1="88.6563" x2="272.054" y2="88.6563" gradientUnits="userSpaceOnUse">
<stop stop-color="#F57A00"/>
<stop offset="1" stop-color="#7103A4"/>
</linearGradient>
<linearGradient id="paint9_linear_1295_1336" x1="0.104004" y1="74.045" x2="98.5376" y2="74.045" gradientUnits="userSpaceOnUse">
<stop stop-color="#F57A00"/>
<stop offset="1" stop-color="#7103A4"/>
</linearGradient>
</defs>
</svg>
