<svg width="1153" height="215" viewBox="0 0 1153 215" fill="none" xmlns="http://www.w3.org/2000/svg">
<path d="M30.4612 70.9058L24.7772 65.2218H45.5532V75.9038H0.669185V65.2218H23.3072L17.6232 70.9058V12.2038L23.2092 17.9858H1.84518V7.3038H30.4612V70.9058ZM67.7203 76.5898C65.499 76.5898 63.6043 75.8385 62.0363 74.3358C60.4683 72.7678 59.6843 70.8078 59.6843 68.4558C59.6843 65.9731 60.4683 64.0131 62.0363 62.5758C63.6043 61.0731 65.499 60.3218 67.7203 60.3218C69.9417 60.3218 71.8363 61.0731 73.4043 62.5758C74.9723 64.0131 75.7563 65.9731 75.7563 68.4558C75.7563 70.8078 74.9723 72.7678 73.4043 74.3358C71.8363 75.8385 69.9417 76.5898 67.7203 76.5898ZM153.32 76.8838C148.094 76.8838 143.226 76.0345 138.718 74.3358C134.276 72.5718 130.388 70.1218 127.056 66.9858C123.79 63.7845 121.242 60.0278 119.412 55.7158C117.583 51.4038 116.668 46.6998 116.668 41.6038C116.668 36.5078 117.583 31.8038 119.412 27.4918C121.242 23.1798 123.822 19.4558 127.154 16.3198C130.486 13.1185 134.374 10.6685 138.816 8.96981C143.259 7.20581 148.126 6.3238 153.418 6.3238C159.037 6.3238 164.166 7.30381 168.804 9.26381C173.443 11.1585 177.363 14.0005 180.564 17.7898L172.332 25.5318C169.85 22.8531 167.073 20.8605 164.002 19.5538C160.932 18.1818 157.6 17.4958 154.006 17.4958C150.413 17.4958 147.114 18.0838 144.108 19.2598C141.168 20.4358 138.588 22.1018 136.366 24.2578C134.21 26.4138 132.512 28.9618 131.27 31.9018C130.094 34.8418 129.506 38.0758 129.506 41.6038C129.506 45.1318 130.094 48.3658 131.27 51.3058C132.512 54.2458 134.21 56.7938 136.366 58.9498C138.588 61.1058 141.168 62.7718 144.108 63.9478C147.114 65.1238 150.413 65.7118 154.006 65.7118C157.6 65.7118 160.932 65.0585 164.002 63.7518C167.073 62.3798 169.85 60.3218 172.332 57.5778L180.564 65.4178C177.363 69.1418 173.443 71.9838 168.804 73.9438C164.166 75.9038 159.004 76.8838 153.32 76.8838ZM213.106 76.5898C207.748 76.5898 202.979 75.4465 198.798 73.1598C194.616 70.8078 191.317 67.6065 188.9 63.5558C186.482 59.5051 185.274 54.8991 185.274 49.7378C185.274 44.5111 186.482 39.9051 188.9 35.9198C191.317 31.8691 194.616 28.7005 198.798 26.4138C202.979 24.1271 207.748 22.9838 213.106 22.9838C218.528 22.9838 223.33 24.1271 227.512 26.4138C231.758 28.7005 235.058 31.8365 237.41 35.8218C239.827 39.8071 241.036 44.4458 241.036 49.7378C241.036 54.8991 239.827 59.5051 237.41 63.5558C235.058 67.6065 231.758 70.8078 227.512 73.1598C223.33 75.4465 218.528 76.5898 213.106 76.5898ZM213.106 66.1038C216.111 66.1038 218.79 65.4505 221.142 64.1438C223.494 62.8371 225.323 60.9425 226.63 58.4598C228.002 55.9771 228.688 53.0698 228.688 49.7378C228.688 46.3405 228.002 43.4331 226.63 41.0158C225.323 38.5331 223.494 36.6385 221.142 35.3318C218.79 34.0251 216.144 33.3718 213.204 33.3718C210.198 33.3718 207.52 34.0251 205.168 35.3318C202.881 36.6385 201.052 38.5331 199.68 41.0158C198.308 43.4331 197.622 46.3405 197.622 49.7378C197.622 53.0698 198.308 55.9771 199.68 58.4598C201.052 60.9425 202.881 62.8371 205.168 64.1438C207.52 65.4505 210.166 66.1038 213.106 66.1038ZM282.444 22.9838C286.625 22.9838 290.349 23.8005 293.616 25.4338C296.948 27.0671 299.561 29.5825 301.456 32.9798C303.351 36.3118 304.298 40.6238 304.298 45.9158V75.9038H292.048V47.4838C292.048 42.8451 290.937 39.3825 288.716 37.0958C286.56 34.8091 283.522 33.6658 279.602 33.6658C276.727 33.6658 274.179 34.2538 271.958 35.4298C269.737 36.6058 268.005 38.3698 266.764 40.7218C265.588 43.0085 265 45.9158 265 49.4438V75.9038H252.75V23.5718H264.412V37.6838L262.354 33.3718C264.183 30.0398 266.829 27.4918 270.292 25.7278C273.82 23.8985 277.871 22.9838 282.444 22.9838ZM339.536 76.5898C333.786 76.5898 329.344 75.1198 326.208 72.1798C323.072 69.1745 321.504 64.7645 321.504 58.9498V12.0078H333.754V58.6558C333.754 61.1385 334.374 63.0658 335.616 64.4378C336.922 65.8098 338.719 66.4958 341.006 66.4958C343.75 66.4958 346.036 65.7771 347.866 64.3398L351.296 73.0618C349.858 74.2378 348.094 75.1198 346.004 75.7078C343.913 76.2958 341.757 76.5898 339.536 76.5898ZM312.88 33.7638V23.9638H347.768V33.7638H312.88ZM393.615 75.9038V65.3198L392.929 63.0658V44.5438C392.929 40.9505 391.851 38.1738 389.695 36.2138C387.539 34.1885 384.272 33.1758 379.895 33.1758C376.955 33.1758 374.048 33.6331 371.173 34.5478C368.364 35.4625 365.979 36.7365 364.019 38.3698L359.217 29.4518C362.026 27.2958 365.358 25.6951 369.213 24.6498C373.133 23.5391 377.184 22.9838 381.365 22.9838C388.944 22.9838 394.791 24.8131 398.907 28.4718C403.088 32.0651 405.179 37.6511 405.179 45.2298V75.9038H393.615ZM377.151 76.5898C373.231 76.5898 369.801 75.9365 366.861 74.6298C363.921 73.2578 361.634 71.3958 360.001 69.0438C358.433 66.6265 357.649 63.9151 357.649 60.9098C357.649 57.9698 358.335 55.3238 359.707 52.9718C361.144 50.6198 363.464 48.7578 366.665 47.3858C369.866 46.0138 374.113 45.3278 379.405 45.3278H394.595V53.4618H380.287C376.106 53.4618 373.296 54.1478 371.859 55.5198C370.422 56.8265 369.703 58.4598 369.703 60.4198C369.703 62.6411 370.585 64.4051 372.349 65.7118C374.113 67.0185 376.563 67.6718 379.699 67.6718C382.704 67.6718 385.383 66.9858 387.735 65.6138C390.152 64.2418 391.884 62.2165 392.929 59.5378L394.987 66.8878C393.811 69.9585 391.688 72.3431 388.617 74.0418C385.612 75.7405 381.79 76.5898 377.151 76.5898ZM420.9 75.9038V23.5718H433.15V75.9038H420.9ZM427.074 14.9478C424.788 14.9478 422.893 14.2291 421.39 12.7918C419.953 11.3545 419.234 9.62314 419.234 7.59781C419.234 5.50714 419.953 3.7758 421.39 2.4038C422.893 0.966472 424.788 0.247807 427.074 0.247807C429.361 0.247807 431.223 0.933806 432.66 2.3058C434.163 3.61247 434.914 5.27847 434.914 7.3038C434.914 9.4598 434.196 11.2891 432.758 12.7918C431.321 14.2291 429.426 14.9478 427.074 14.9478ZM478.922 22.9838C483.104 22.9838 486.828 23.8005 490.094 25.4338C493.426 27.0671 496.04 29.5825 497.934 32.9798C499.829 36.3118 500.776 40.6238 500.776 45.9158V75.9038H488.526V47.4838C488.526 42.8451 487.416 39.3825 485.194 37.0958C483.038 34.8091 480 33.6658 476.08 33.6658C473.206 33.6658 470.658 34.2538 468.436 35.4298C466.215 36.6058 464.484 38.3698 463.242 40.7218C462.066 43.0085 461.478 45.9158 461.478 49.4438V75.9038H449.228V23.5718H460.89V37.6838L458.832 33.3718C460.662 30.0398 463.308 27.4918 466.77 25.7278C470.298 23.8985 474.349 22.9838 478.922 22.9838ZM541.01 76.5898C535.195 76.5898 530.099 75.4465 525.722 73.1598C521.41 70.8078 518.045 67.6065 515.628 63.5558C513.276 59.5051 512.1 54.8991 512.1 49.7378C512.1 44.5111 513.243 39.9051 515.53 35.9198C517.882 31.8691 521.083 28.7005 525.134 26.4138C529.25 24.1271 533.921 22.9838 539.148 22.9838C544.244 22.9838 548.785 24.0945 552.77 26.3158C556.755 28.5371 559.891 31.6731 562.178 35.7238C564.465 39.7745 565.608 44.5438 565.608 50.0318C565.608 50.5545 565.575 51.1425 565.51 51.7958C565.51 52.4491 565.477 53.0698 565.412 53.6578H521.802V45.5238H558.944L554.142 48.0718C554.207 45.0665 553.587 42.4205 552.28 40.1338C550.973 37.8471 549.177 36.0505 546.89 34.7438C544.669 33.4371 542.088 32.7838 539.148 32.7838C536.143 32.7838 533.497 33.4371 531.21 34.7438C528.989 36.0505 527.225 37.8798 525.918 40.2318C524.677 42.5185 524.056 45.2298 524.056 48.3658V50.3258C524.056 53.4618 524.775 56.2385 526.212 58.6558C527.649 61.0731 529.675 62.9351 532.288 64.2418C534.901 65.5485 537.907 66.2018 541.304 66.2018C544.244 66.2018 546.89 65.7445 549.242 64.8298C551.594 63.9151 553.685 62.4778 555.514 60.5178L562.08 68.0638C559.728 70.8078 556.755 72.9311 553.162 74.4338C549.634 75.8711 545.583 76.5898 541.01 76.5898ZM577.375 75.9038V23.5718H589.037V37.9778L587.665 33.7638C589.233 30.2358 591.683 27.5571 595.015 25.7278C598.412 23.8985 602.626 22.9838 607.657 22.9838V34.6458C607.134 34.5151 606.644 34.4498 606.187 34.4498C605.73 34.3845 605.272 34.3518 604.815 34.3518C600.176 34.3518 596.485 35.7238 593.741 38.4678C590.997 41.1465 589.625 45.1645 589.625 50.5218V75.9038H577.375ZM634.697 76.5898C630.32 76.5898 626.106 76.0345 622.055 74.9238C618.07 73.7478 614.901 72.3431 612.549 70.7098L617.253 61.3998C619.605 62.9025 622.415 64.1438 625.681 65.1238C628.948 66.1038 632.215 66.5938 635.481 66.5938C639.336 66.5938 642.113 66.0711 643.811 65.0258C645.575 63.9805 646.457 62.5758 646.457 60.8118C646.457 59.3745 645.869 58.2965 644.693 57.5778C643.517 56.7938 641.982 56.2058 640.087 55.8138C638.193 55.4218 636.069 55.0625 633.717 54.7358C631.431 54.4091 629.111 53.9845 626.759 53.4618C624.473 52.8738 622.382 52.0571 620.487 51.0118C618.593 49.9011 617.057 48.4311 615.881 46.6018C614.705 44.7725 614.117 42.3551 614.117 39.3498C614.117 36.0178 615.065 33.1431 616.959 30.7258C618.854 28.2431 621.5 26.3485 624.897 25.0418C628.36 23.6698 632.443 22.9838 637.147 22.9838C640.675 22.9838 644.236 23.3758 647.829 24.1598C651.423 24.9438 654.395 26.0545 656.747 27.4918L652.043 36.8018C649.561 35.2991 647.045 34.2865 644.497 33.7638C642.015 33.1758 639.532 32.8818 637.049 32.8818C633.325 32.8818 630.549 33.4371 628.719 34.5478C626.955 35.6585 626.073 37.0631 626.073 38.7618C626.073 40.3298 626.661 41.5058 627.837 42.2898C629.013 43.0738 630.549 43.6945 632.443 44.1518C634.338 44.6091 636.429 45.0011 638.715 45.3278C641.067 45.5891 643.387 46.0138 645.673 46.6018C647.96 47.1898 650.051 48.0065 651.945 49.0518C653.905 50.0318 655.473 51.4365 656.649 53.2658C657.825 55.0951 658.413 57.4798 658.413 60.4198C658.413 63.6865 657.433 66.5285 655.473 68.9458C653.579 71.3631 650.867 73.2578 647.339 74.6298C643.811 75.9365 639.597 76.5898 634.697 76.5898ZM728.289 75.9038V65.3198L727.603 63.0658V44.5438C727.603 40.9505 726.525 38.1738 724.369 36.2138C722.213 34.1885 718.946 33.1758 714.569 33.1758C711.629 33.1758 708.721 33.6331 705.847 34.5478C703.037 35.4625 700.653 36.7365 698.693 38.3698L693.891 29.4518C696.7 27.2958 700.032 25.6951 703.887 24.6498C707.807 23.5391 711.857 22.9838 716.039 22.9838C723.617 22.9838 729.465 24.8131 733.581 28.4718C737.762 32.0651 739.853 37.6511 739.853 45.2298V75.9038H728.289ZM711.825 76.5898C707.905 76.5898 704.475 75.9365 701.535 74.6298C698.595 73.2578 696.308 71.3958 694.675 69.0438C693.107 66.6265 692.323 63.9151 692.323 60.9098C692.323 57.9698 693.009 55.3238 694.381 52.9718C695.818 50.6198 698.137 48.7578 701.339 47.3858C704.54 46.0138 708.787 45.3278 714.079 45.3278H729.269V53.4618H714.961C710.779 53.4618 707.97 54.1478 706.533 55.5198C705.095 56.8265 704.377 58.4598 704.377 60.4198C704.377 62.6411 705.259 64.4051 707.023 65.7118C708.787 67.0185 711.237 67.6718 714.373 67.6718C717.378 67.6718 720.057 66.9858 722.409 65.6138C724.826 64.2418 726.557 62.2165 727.603 59.5378L729.661 66.8878C728.485 69.9585 726.361 72.3431 723.291 74.0418C720.285 75.7405 716.463 76.5898 711.825 76.5898ZM785.268 22.9838C789.449 22.9838 793.173 23.8005 796.44 25.4338C799.772 27.0671 802.385 29.5825 804.28 32.9798C806.175 36.3118 807.122 40.6238 807.122 45.9158V75.9038H794.872V47.4838C794.872 42.8451 793.761 39.3825 791.54 37.0958C789.384 34.8091 786.346 33.6658 782.426 33.6658C779.551 33.6658 777.003 34.2538 774.782 35.4298C772.561 36.6058 770.829 38.3698 769.588 40.7218C768.412 43.0085 767.824 45.9158 767.824 49.4438V75.9038H755.574V23.5718H767.236V37.6838L765.178 33.3718C767.007 30.0398 769.653 27.4918 773.116 25.7278C776.644 23.8985 780.695 22.9838 785.268 22.9838ZM844.906 76.5898C839.875 76.5898 835.334 75.4791 831.284 73.2578C827.298 70.9711 824.162 67.8351 821.876 63.8498C819.589 59.8645 818.446 55.1605 818.446 49.7378C818.446 44.3151 819.589 39.6111 821.876 35.6258C824.162 31.6405 827.298 28.5371 831.284 26.3158C835.334 24.0945 839.875 22.9838 844.906 22.9838C849.283 22.9838 853.203 23.9638 856.666 25.9238C860.128 27.8185 862.872 30.7258 864.898 34.6458C866.923 38.5658 867.936 43.5965 867.936 49.7378C867.936 55.8138 866.956 60.8445 864.996 64.8298C863.036 68.7498 860.324 71.6898 856.862 73.6498C853.399 75.6098 849.414 76.5898 844.906 76.5898ZM846.376 66.1038C849.316 66.1038 851.929 65.4505 854.216 64.1438C856.568 62.8371 858.43 60.9425 859.802 58.4598C861.239 55.9771 861.958 53.0698 861.958 49.7378C861.958 46.3405 861.239 43.4331 859.802 41.0158C858.43 38.5331 856.568 36.6385 854.216 35.3318C851.929 34.0251 849.316 33.3718 846.376 33.3718C843.436 33.3718 840.79 34.0251 838.438 35.3318C836.151 36.6385 834.289 38.5331 832.852 41.0158C831.48 43.4331 830.794 46.3405 830.794 49.7378C830.794 53.0698 831.48 55.9771 832.852 58.4598C834.289 60.9425 836.151 62.8371 838.438 64.1438C840.79 65.4505 843.436 66.1038 846.376 66.1038ZM862.252 75.9038V63.5558L862.742 49.6398L861.762 35.7238V3.1878H873.914V75.9038H862.252ZM148.44 178.734L147.754 163.642L183.72 126.304H198.028L168.138 158.056L161.082 165.798L148.44 178.734ZM137.072 194.904V126.304H149.812V194.904H137.072ZM184.896 194.904L158.632 163.642L167.06 154.332L199.792 194.904H184.896ZM227.716 195.59C223.274 195.59 219.354 194.773 215.956 193.14C212.559 191.441 209.913 188.893 208.018 185.496C206.124 182.033 205.176 177.688 205.176 172.462V142.572H217.426V170.796C217.426 175.5 218.472 179.028 220.562 181.38C222.718 183.666 225.756 184.81 229.676 184.81C232.551 184.81 235.034 184.222 237.124 183.046C239.28 181.87 240.946 180.106 242.122 177.754C243.364 175.402 243.984 172.494 243.984 169.032V142.572H256.234V194.904H244.572V180.792L246.63 185.104C244.866 188.501 242.286 191.114 238.888 192.944C235.491 194.708 231.767 195.59 227.716 195.59ZM301.281 195.59C296.839 195.59 292.886 194.61 289.423 192.65C285.961 190.69 283.217 187.75 281.191 183.83C279.231 179.844 278.251 174.814 278.251 168.738C278.251 162.596 279.264 157.566 281.289 153.646C283.38 149.726 286.157 146.818 289.619 144.924C293.147 142.964 297.035 141.984 301.281 141.984C306.443 141.984 310.983 143.094 314.903 145.316C318.889 147.537 322.025 150.64 324.311 154.626C326.663 158.611 327.839 163.315 327.839 168.738C327.839 174.16 326.663 178.864 324.311 182.85C322.025 186.835 318.889 189.971 314.903 192.258C310.983 194.479 306.443 195.59 301.281 195.59ZM272.273 194.904V122.188H284.523V154.724L283.543 168.64L283.935 182.556V194.904H272.273ZM299.909 185.104C302.849 185.104 305.463 184.45 307.749 183.144C310.101 181.837 311.963 179.942 313.335 177.46C314.707 174.977 315.393 172.07 315.393 168.738C315.393 165.34 314.707 162.433 313.335 160.016C311.963 157.533 310.101 155.638 307.749 154.332C305.463 153.025 302.849 152.372 299.909 152.372C296.969 152.372 294.323 153.025 291.971 154.332C289.619 155.638 287.757 157.533 286.385 160.016C285.013 162.433 284.327 165.34 284.327 168.738C284.327 172.07 285.013 174.977 286.385 177.46C287.757 179.942 289.619 181.837 291.971 183.144C294.323 184.45 296.969 185.104 299.909 185.104ZM364.055 195.59C358.24 195.59 353.144 194.446 348.767 192.16C344.455 189.808 341.09 186.606 338.673 182.556C336.321 178.505 335.145 173.899 335.145 168.738C335.145 163.511 336.288 158.905 338.575 154.92C340.927 150.869 344.128 147.7 348.179 145.414C352.295 143.127 356.966 141.984 362.193 141.984C367.289 141.984 371.83 143.094 375.815 145.316C379.8 147.537 382.936 150.673 385.223 154.724C387.51 158.774 388.653 163.544 388.653 169.032C388.653 169.554 388.62 170.142 388.555 170.796C388.555 171.449 388.522 172.07 388.457 172.658H344.847V164.524H381.989L377.187 167.072C377.252 164.066 376.632 161.42 375.325 159.134C374.018 156.847 372.222 155.05 369.935 153.744C367.714 152.437 365.133 151.784 362.193 151.784C359.188 151.784 356.542 152.437 354.255 153.744C352.034 155.05 350.27 156.88 348.963 159.232C347.722 161.518 347.101 164.23 347.101 167.366V169.326C347.101 172.462 347.82 175.238 349.257 177.656C350.694 180.073 352.72 181.935 355.333 183.242C357.946 184.548 360.952 185.202 364.349 185.202C367.289 185.202 369.935 184.744 372.287 183.83C374.639 182.915 376.73 181.478 378.559 179.518L385.125 187.064C382.773 189.808 379.8 191.931 376.207 193.434C372.679 194.871 368.628 195.59 364.055 195.59ZM400.42 194.904V142.572H412.082V156.978L410.71 152.764C412.278 149.236 414.728 146.557 418.06 144.728C421.457 142.898 425.671 141.984 430.702 141.984V153.646C430.179 153.515 429.689 153.45 429.232 153.45C428.774 153.384 428.317 153.352 427.86 153.352C423.221 153.352 419.53 154.724 416.786 157.468C414.042 160.146 412.67 164.164 412.67 169.522V194.904H400.42ZM470.788 141.984C474.969 141.984 478.693 142.8 481.96 144.434C485.292 146.067 487.905 148.582 489.8 151.98C491.694 155.312 492.642 159.624 492.642 164.916V194.904H480.392V166.484C480.392 161.845 479.281 158.382 477.06 156.096C474.904 153.809 471.866 152.666 467.946 152.666C465.071 152.666 462.523 153.254 460.302 154.43C458.08 155.606 456.349 157.37 455.108 159.722C453.932 162.008 453.344 164.916 453.344 168.444V194.904H441.094V142.572H452.756V156.684L450.698 152.372C452.527 149.04 455.173 146.492 458.636 144.728C462.164 142.898 466.214 141.984 470.788 141.984ZM532.875 195.59C527.061 195.59 521.965 194.446 517.587 192.16C513.275 189.808 509.911 186.606 507.493 182.556C505.141 178.505 503.965 173.899 503.965 168.738C503.965 163.511 505.109 158.905 507.395 154.92C509.747 150.869 512.949 147.7 516.999 145.414C521.115 143.127 525.787 141.984 531.013 141.984C536.109 141.984 540.65 143.094 544.635 145.316C548.621 147.537 551.757 150.673 554.043 154.724C556.33 158.774 557.473 163.544 557.473 169.032C557.473 169.554 557.441 170.142 557.375 170.796C557.375 171.449 557.343 172.07 557.277 172.658H513.667V164.524H550.809L546.007 167.072C546.073 164.066 545.452 161.42 544.145 159.134C542.839 156.847 541.042 155.05 538.755 153.744C536.534 152.437 533.953 151.784 531.013 151.784C528.008 151.784 525.362 152.437 523.075 153.744C520.854 155.05 519.09 156.88 517.783 159.232C516.542 161.518 515.921 164.23 515.921 167.366V169.326C515.921 172.462 516.64 175.238 518.077 177.656C519.515 180.073 521.54 181.935 524.153 183.242C526.767 184.548 529.772 185.202 533.169 185.202C536.109 185.202 538.755 184.744 541.107 183.83C543.459 182.915 545.55 181.478 547.379 179.518L553.945 187.064C551.593 189.808 548.621 191.931 545.027 193.434C541.499 194.871 537.449 195.59 532.875 195.59ZM588.938 195.59C583.189 195.59 578.746 194.12 575.61 191.18C572.474 188.174 570.906 183.764 570.906 177.95V131.008H583.156V177.656C583.156 180.138 583.777 182.066 585.018 183.438C586.325 184.81 588.121 185.496 590.408 185.496C593.152 185.496 595.439 184.777 597.268 183.34L600.698 192.062C599.261 193.238 597.497 194.12 595.406 194.708C593.315 195.296 591.159 195.59 588.938 195.59ZM562.282 152.764V142.964H597.17V152.764H562.282ZM633.651 195.59C627.836 195.59 622.74 194.446 618.363 192.16C614.051 189.808 610.686 186.606 608.269 182.556C605.917 178.505 604.741 173.899 604.741 168.738C604.741 163.511 605.884 158.905 608.171 154.92C610.523 150.869 613.724 147.7 617.775 145.414C621.891 143.127 626.562 141.984 631.789 141.984C636.885 141.984 641.425 143.094 645.411 145.316C649.396 147.537 652.532 150.673 654.819 154.724C657.105 158.774 658.249 163.544 658.249 169.032C658.249 169.554 658.216 170.142 658.151 170.796C658.151 171.449 658.118 172.07 658.053 172.658H614.443V164.524H651.585L646.783 167.072C646.848 164.066 646.227 161.42 644.921 159.134C643.614 156.847 641.817 155.05 639.531 153.744C637.309 152.437 634.729 151.784 631.789 151.784C628.783 151.784 626.137 152.437 623.851 153.744C621.629 155.05 619.865 156.88 618.559 159.232C617.317 161.518 616.697 164.23 616.697 167.366V169.326C616.697 172.462 617.415 175.238 618.853 177.656C620.29 180.073 622.315 181.935 624.929 183.242C627.542 184.548 630.547 185.202 633.945 185.202C636.885 185.202 639.531 184.744 641.883 183.83C644.235 182.915 646.325 181.478 648.155 179.518L654.721 187.064C652.369 189.808 649.396 191.931 645.803 193.434C642.275 194.871 638.224 195.59 633.651 195.59ZM686.185 195.59C681.808 195.59 677.594 195.034 673.543 193.924C669.558 192.748 666.389 191.343 664.037 189.71L668.741 180.4C671.093 181.902 673.903 183.144 677.169 184.124C680.436 185.104 683.703 185.594 686.969 185.594C690.824 185.594 693.601 185.071 695.299 184.026C697.063 182.98 697.945 181.576 697.945 179.812C697.945 178.374 697.357 177.296 696.181 176.578C695.005 175.794 693.47 175.206 691.575 174.814C689.681 174.422 687.557 174.062 685.205 173.736C682.919 173.409 680.599 172.984 678.247 172.462C675.961 171.874 673.87 171.057 671.975 170.012C670.081 168.901 668.545 167.431 667.369 165.602C666.193 163.772 665.605 161.355 665.605 158.35C665.605 155.018 666.553 152.143 668.447 149.726C670.342 147.243 672.988 145.348 676.385 144.042C679.848 142.67 683.931 141.984 688.635 141.984C692.163 141.984 695.724 142.376 699.317 143.16C702.911 143.944 705.883 145.054 708.235 146.492L703.531 155.802C701.049 154.299 698.533 153.286 695.985 152.764C693.503 152.176 691.02 151.882 688.537 151.882C684.813 151.882 682.037 152.437 680.207 153.548C678.443 154.658 677.561 156.063 677.561 157.762C677.561 159.33 678.149 160.506 679.325 161.29C680.501 162.074 682.037 162.694 683.931 163.152C685.826 163.609 687.917 164.001 690.203 164.328C692.555 164.589 694.875 165.014 697.161 165.602C699.448 166.19 701.539 167.006 703.433 168.052C705.393 169.032 706.961 170.436 708.137 172.266C709.313 174.095 709.901 176.48 709.901 179.42C709.901 182.686 708.921 185.528 706.961 187.946C705.067 190.363 702.355 192.258 698.827 193.63C695.299 194.936 691.085 195.59 686.185 195.59ZM769.977 195.884C764.62 195.884 759.491 195.132 754.591 193.63C749.691 192.062 745.804 190.069 742.929 187.652L747.339 177.754C750.083 179.91 753.48 181.706 757.531 183.144C761.582 184.581 765.73 185.3 769.977 185.3C773.57 185.3 776.478 184.908 778.699 184.124C780.92 183.34 782.554 182.294 783.599 180.988C784.644 179.616 785.167 178.08 785.167 176.382C785.167 174.291 784.416 172.625 782.913 171.384C781.41 170.077 779.45 169.064 777.033 168.346C774.681 167.562 772.035 166.843 769.095 166.19C766.22 165.536 763.313 164.785 760.373 163.936C757.498 163.021 754.852 161.878 752.435 160.506C750.083 159.068 748.156 157.174 746.653 154.822C745.15 152.47 744.399 149.464 744.399 145.806C744.399 142.082 745.379 138.684 747.339 135.614C749.364 132.478 752.402 129.995 756.453 128.166C760.569 126.271 765.763 125.324 772.035 125.324C776.151 125.324 780.234 125.846 784.285 126.892C788.336 127.937 791.864 129.44 794.869 131.4L790.851 141.298C787.78 139.468 784.612 138.129 781.345 137.28C778.078 136.365 774.942 135.908 771.937 135.908C768.409 135.908 765.534 136.332 763.313 137.182C761.157 138.031 759.556 139.142 758.511 140.514C757.531 141.886 757.041 143.454 757.041 145.218C757.041 147.308 757.76 149.007 759.197 150.314C760.7 151.555 762.627 152.535 764.979 153.254C767.396 153.972 770.075 154.691 773.015 155.41C775.955 156.063 778.862 156.814 781.737 157.664C784.677 158.513 787.323 159.624 789.675 160.996C792.092 162.368 794.02 164.23 795.457 166.582C796.96 168.934 797.711 171.906 797.711 175.5C797.711 179.158 796.698 182.556 794.673 185.692C792.713 188.762 789.675 191.245 785.559 193.14C781.443 194.969 776.249 195.884 769.977 195.884ZM833.766 195.59C827.951 195.59 822.855 194.446 818.478 192.16C814.166 189.808 810.801 186.606 808.384 182.556C806.032 178.505 804.856 173.899 804.856 168.738C804.856 163.511 805.999 158.905 808.286 154.92C810.638 150.869 813.839 147.7 817.89 145.414C822.006 143.127 826.677 141.984 831.904 141.984C837 141.984 841.541 143.094 845.526 145.316C849.511 147.537 852.647 150.673 854.934 154.724C857.221 158.774 858.364 163.544 858.364 169.032C858.364 169.554 858.331 170.142 858.266 170.796C858.266 171.449 858.233 172.07 858.168 172.658H814.558V164.524H851.7L846.898 167.072C846.963 164.066 846.343 161.42 845.036 159.134C843.729 156.847 841.933 155.05 839.646 153.744C837.425 152.437 834.844 151.784 831.904 151.784C828.899 151.784 826.253 152.437 823.966 153.744C821.745 155.05 819.981 156.88 818.674 159.232C817.433 161.518 816.812 164.23 816.812 167.366V169.326C816.812 172.462 817.531 175.238 818.968 177.656C820.405 180.073 822.431 181.935 825.044 183.242C827.657 184.548 830.663 185.202 834.06 185.202C837 185.202 839.646 184.744 841.998 183.83C844.35 182.915 846.441 181.478 848.27 179.518L854.836 187.064C852.484 189.808 849.511 191.931 845.918 193.434C842.39 194.871 838.339 195.59 833.766 195.59ZM894.141 195.59C888.653 195.59 883.753 194.446 879.441 192.16C875.194 189.808 871.862 186.606 869.445 182.556C867.027 178.505 865.819 173.899 865.819 168.738C865.819 163.511 867.027 158.905 869.445 154.92C871.862 150.869 875.194 147.7 879.441 145.414C883.753 143.127 888.653 141.984 894.141 141.984C899.237 141.984 903.712 143.029 907.567 145.12C911.487 147.145 914.459 150.15 916.485 154.136L907.077 159.624C905.509 157.141 903.581 155.312 901.295 154.136C899.073 152.96 896.656 152.372 894.043 152.372C891.037 152.372 888.326 153.025 885.909 154.332C883.491 155.638 881.597 157.533 880.225 160.016C878.853 162.433 878.167 165.34 878.167 168.738C878.167 172.135 878.853 175.075 880.225 177.558C881.597 179.975 883.491 181.837 885.909 183.144C888.326 184.45 891.037 185.104 894.043 185.104C896.656 185.104 899.073 184.516 901.295 183.34C903.581 182.164 905.509 180.334 907.077 177.852L916.485 183.34C914.459 187.26 911.487 190.298 907.567 192.454C903.712 194.544 899.237 195.59 894.141 195.59ZM949.222 195.59C944.779 195.59 940.859 194.773 937.462 193.14C934.065 191.441 931.419 188.893 929.524 185.496C927.629 182.033 926.682 177.688 926.682 172.462V142.572H938.932V170.796C938.932 175.5 939.977 179.028 942.068 181.38C944.224 183.666 947.262 184.81 951.182 184.81C954.057 184.81 956.539 184.222 958.63 183.046C960.786 181.87 962.452 180.106 963.628 177.754C964.869 175.402 965.49 172.494 965.49 169.032V142.572H977.74V194.904H966.078V180.792L968.136 185.104C966.372 188.501 963.791 191.114 960.394 192.944C956.997 194.708 953.273 195.59 949.222 195.59ZM993.779 194.904V142.572H1005.44V156.978L1004.07 152.764C1005.64 149.236 1008.09 146.557 1011.42 144.728C1014.82 142.898 1019.03 141.984 1024.06 141.984V153.646C1023.54 153.515 1023.05 153.45 1022.59 153.45C1022.13 153.384 1021.68 153.352 1021.22 153.352C1016.58 153.352 1012.89 154.724 1010.15 157.468C1007.4 160.146 1006.03 164.164 1006.03 169.522V194.904H993.779ZM1034.45 194.904V142.572H1046.7V194.904H1034.45ZM1040.63 133.948C1038.34 133.948 1036.45 133.229 1034.94 131.792C1033.51 130.354 1032.79 128.623 1032.79 126.598C1032.79 124.507 1033.51 122.776 1034.94 121.404C1036.45 119.966 1038.34 119.248 1040.63 119.248C1042.91 119.248 1044.78 119.934 1046.21 121.306C1047.72 122.612 1048.47 124.278 1048.47 126.304C1048.47 128.46 1047.75 130.289 1046.31 131.792C1044.87 133.229 1042.98 133.948 1040.63 133.948ZM1082.48 195.59C1076.73 195.59 1072.29 194.12 1069.15 191.18C1066.02 188.174 1064.45 183.764 1064.45 177.95V131.008H1076.7V177.656C1076.7 180.138 1077.32 182.066 1078.56 183.438C1079.87 184.81 1081.66 185.496 1083.95 185.496C1086.69 185.496 1088.98 184.777 1090.81 183.34L1094.24 192.062C1092.8 193.238 1091.04 194.12 1088.95 194.708C1086.86 195.296 1084.7 195.59 1082.48 195.59ZM1055.82 152.764V142.964H1090.71V152.764H1055.82ZM1107.67 214.602C1105.12 214.602 1102.58 214.177 1100.03 213.328C1097.48 212.478 1095.36 211.302 1093.66 209.8L1098.56 200.784C1099.8 201.894 1101.2 202.776 1102.77 203.43C1104.34 204.083 1105.94 204.41 1107.57 204.41C1109.79 204.41 1111.59 203.854 1112.96 202.744C1114.34 201.633 1115.61 199.771 1116.79 197.158L1119.82 190.298L1120.8 188.828L1140.6 142.572H1152.36L1127.86 199.118C1126.23 203.038 1124.4 206.141 1122.37 208.428C1120.41 210.714 1118.19 212.315 1115.71 213.23C1113.29 214.144 1110.61 214.602 1107.67 214.602ZM1118.45 196.766L1094.83 142.572H1107.57L1126.78 187.75L1118.45 196.766Z" fill="white"/>
</svg>
