<svg width="375" height="345" viewBox="0 0 375 345" fill="none" xmlns="http://www.w3.org/2000/svg">
<path d="M134.152 249.829L29.6223 176.459V54.3613L134.152 127.62V249.829Z" fill="url(#paint0_linear_1266_3812)"/>
<path d="M134.152 249.828L187.853 212.149V89.9407L134.152 127.62V249.828Z" fill="url(#paint1_linear_1266_3812)"/>
<path d="M83.3234 16.6821L29.6223 54.3613L134.152 127.731L187.853 90.0515L83.3234 16.6821Z" fill="url(#paint2_linear_1266_3812)"/>
<path d="M134.483 117.786L51.1689 59.665V55.5767L134.483 113.698V117.786Z" fill="url(#paint3_linear_1266_3812)"/>
<path d="M134.483 117.786L171.941 91.4883V87.3999L134.483 113.698V117.786Z" fill="url(#paint4_linear_1266_3812)"/>
<path d="M88.7376 29.2786L51.1689 55.5766L134.483 113.698L171.941 87.3995L88.7376 29.2786Z" fill="url(#paint5_linear_1266_3812)"/>
<path d="M93.3786 37.5659L62.5502 59.2231L64.9811 60.8806L95.8095 39.2234L93.3786 37.5659Z" fill="white"/>
<path d="M97.5775 40.4387L66.7491 62.0959L69.0696 63.7534L100.008 42.0962L97.5775 40.4387Z" fill="white"/>
<path d="M101.666 43.4219L70.8374 65.0791L73.2683 66.7365L104.097 45.0793L101.666 43.4219Z" fill="white"/>
<path d="M121.445 57.3445L90.7267 78.8912L93.0471 80.5487L123.875 59.0019L121.445 57.3445Z" fill="white"/>
<path d="M125.533 60.3284L94.8151 81.8751L97.246 83.5325L127.964 61.9858L125.533 60.3284Z" fill="white"/>
<path d="M129.732 63.2007L98.9033 84.8579L101.224 86.5153L132.163 64.8581L129.732 63.2007Z" fill="white"/>
<path d="M150.505 77.5654L119.566 99.2226L121.997 100.88L152.826 79.2229L150.505 77.5654Z" fill="white"/>
<path d="M154.594 80.5491L123.765 102.096L126.086 103.864L157.024 82.2065L154.594 80.5491Z" fill="white"/>
<path d="M158.792 83.4216L127.854 105.079L130.284 106.736L161.113 85.0791L158.792 83.4216Z" fill="white"/>
<path d="M138.24 212.702L183.654 180.879V105.631L138.24 137.454V212.702Z" fill="url(#paint6_linear_1266_3812)"/>
<path d="M138.24 212.702L176.913 185.52V177.012L138.24 149.94V212.702Z" fill="#47417D"/>
<path d="M139.787 211.597L176.913 185.52V176.901L139.787 202.978V211.597Z" fill="url(#paint7_linear_1266_3812)"/>
<path d="M176.913 110.383V185.52L183.654 180.879V105.631L176.913 110.383Z" fill="url(#paint8_linear_1266_3812)"/>
<path d="M139.787 136.349L138.24 137.454V212.702L139.787 211.597V136.349Z" fill="#002B64"/>
<path d="M138.24 139.333L183.654 107.51V105.631L138.24 137.454V139.333Z" fill="#002B64"/>
<g filter="url(#filter0_d_1266_3812)">
<path d="M138.24 212.702L183.654 180.879V105.631L138.24 137.454V212.702Z" fill="url(#paint9_linear_1266_3812)"/>
</g>
<path d="M172.715 120.106L164.759 125.631V128.615L172.715 123.09V120.106Z" fill="white"/>
<path d="M174.593 118.78V121.764L176.803 120.106V117.233L174.593 118.78Z" fill="white"/>
<path d="M163.433 126.626L141.334 142.095V145.079L163.433 129.499V126.626Z" fill="white"/>
<path d="M172.715 127.73L164.759 133.255V136.239L172.715 130.603V127.73Z" fill="white"/>
<path d="M163.433 134.25L141.334 149.719V152.592L163.433 137.123V134.25Z" fill="white"/>
<path d="M163.433 141.874L141.334 157.343V160.216L163.433 144.747V141.874Z" fill="white"/>
<path d="M172.715 142.538L164.759 148.062V150.935L172.715 145.411V142.538Z" fill="white"/>
<path d="M174.593 141.101V144.085L176.803 142.538V139.554L174.593 141.101Z" fill="white"/>
<path d="M163.433 148.946L141.334 164.526V167.399L163.433 151.93V148.946Z" fill="white"/>
<path d="M172.715 150.051L164.759 155.576V158.559L172.715 153.035V150.051Z" fill="white"/>
<path d="M163.433 156.57L141.334 172.04V175.023L163.433 159.443V156.57Z" fill="white"/>
<path d="M163.433 164.195L141.334 179.664V182.537L163.433 167.067V164.195Z" fill="white"/>
<path d="M172.715 164.858L164.759 170.382V173.255L172.715 167.731V164.858Z" fill="white"/>
<path d="M174.593 163.531V166.404L176.803 164.857V161.874L174.593 163.531Z" fill="white"/>
<path d="M163.433 171.266L141.334 186.846V189.719L163.433 174.25V171.266Z" fill="white"/>
<path d="M172.715 172.371L164.759 178.006V180.879L172.715 175.354V172.371Z" fill="white"/>
<path d="M163.433 178.89L141.334 194.36V197.343L163.433 181.874V178.89Z" fill="white"/>
<path d="M163.433 186.514L141.334 201.984V204.967L163.433 189.387V186.514Z" fill="white"/>
<path d="M207.742 343.53C202.438 339.662 167.742 315.574 153.709 305.85C152.273 304.856 150.726 303.751 149.621 302.978C146.195 300.547 147.19 294.027 147.19 294.027L209.068 337.452V344.082C209.178 344.082 208.515 344.082 207.742 343.53Z" fill="#252332"/>
<path d="M210.394 343.64C218.239 338.115 291.056 286.845 316.138 269.276C319.674 266.845 318.569 260.657 318.569 260.657L209.068 337.452V344.082C209.51 344.082 209.952 343.971 210.394 343.64Z" fill="#252332"/>
<path d="M256.691 217.233L147.3 294.027L209.178 337.452L318.569 260.658L256.691 217.233Z" fill="url(#paint10_linear_1266_3812)"/>
<path d="M256.36 221.874L155.035 293.033L189.068 316.9L290.393 245.741L256.36 221.874Z" fill="#150A24"/>
<path d="M260.78 271.376L227.631 295.022L245.531 307.618L278.68 283.972L260.78 271.376Z" fill="#150A24"/>
<path d="M147.301 294.027C147.301 294.027 143.544 293.917 143.544 290.05C143.544 279.884 143.544 224.857 143.544 218.559C143.544 217.785 144.096 216.68 144.096 216.68L147.19 218.448V294.027H147.301Z" fill="#252332"/>
<path d="M147.301 294.027L256.581 217.233V141.653L147.301 218.448V294.027Z" fill="url(#paint11_linear_1266_3812)"/>
<path d="M147.301 294.027L256.581 217.233V141.653L147.301 218.448V294.027Z" fill="url(#paint12_linear_1266_3812)"/>
<path d="M248.736 142.758C224.758 159.554 155.919 207.951 145.864 214.802C144.428 215.796 144.096 216.791 144.096 216.791L147.19 218.558L256.471 141.874C256.581 141.764 253.929 139.112 248.736 142.758Z" fill="#252332"/>
<path d="M151.72 285.74L253.156 214.47V149.388L151.72 220.658V285.74Z" fill="#594E83"/>
<path opacity="0.39" d="M206.637 182.205L151.942 220.658V285.74L253.045 214.801L206.637 182.205Z" fill="white"/>
<path opacity="0.39" d="M151.499 285.63L249.288 216.901L222.217 197.896L151.499 247.619V285.63Z" fill="white"/>
<path opacity="0.39" d="M151.942 239.332L183.322 217.011L170.284 207.73L151.942 220.658V239.332Z" fill="white"/>
<path d="M199.013 332.37L207.189 338.226V340.767L199.013 334.911V332.37Z" fill="url(#paint13_linear_1266_3812)"/>
<path d="M188.295 324.746L196.471 330.602V333.143L188.295 327.287V324.746Z" fill="url(#paint14_linear_1266_3812)"/>
<path d="M163.875 307.729L184.427 322.093V324.635L163.875 310.27V307.729Z" fill="url(#paint15_linear_1266_3812)"/>
<path d="M149.069 297.453L157.356 303.199V305.74L149.069 299.994V297.453Z" fill="url(#paint16_linear_1266_3812)"/>
<path d="M88.5167 330.159C98.2404 323.198 117.688 309.497 127.411 302.867C132.384 299.441 132.384 294.801 132.384 291.817C132.384 283.309 132.384 263.42 132.384 255.133C132.384 252.26 131.5 250.271 131.5 250.271C120.892 257.784 82.5499 284.525 82.5499 284.525C82.5499 284.525 82.5499 320.988 82.5499 332.48C82.5499 332.59 84.8703 332.701 88.5167 330.159Z" fill="url(#paint17_linear_1266_3812)"/>
<path d="M78.6827 331.706C76.0308 329.938 72.3844 327.397 70.064 325.739C66.9701 323.419 67.4121 320.878 67.4121 319.11C67.4121 310.602 67.4121 288.834 67.4121 279C67.4121 275.906 68.1856 274.58 68.1856 274.58L82.55 284.635C82.55 284.635 82.55 322.093 82.55 332.59C82.55 332.59 80.7821 333.143 78.6827 331.706Z" fill="url(#paint18_linear_1266_3812)"/>
<path d="M117.246 239C117.246 239 124.649 244.414 128.516 246.956C130.395 248.171 131.5 250.381 131.5 250.381C119.345 258.889 82.55 284.635 82.55 284.635C82.55 284.635 70.727 276.348 68.1855 274.58C68.1855 274.58 68.738 273.254 70.6165 271.817C82.4395 263.199 117.246 239 117.246 239Z" fill="url(#paint19_linear_1266_3812)"/>
<path d="M101.003 293.032C101.003 288.613 105.423 281.651 109.069 279.11C112.715 276.568 117.135 277.342 117.135 281.762C117.135 284.966 115.146 288.944 112.605 292.038C112.715 296.568 112.826 298.889 112.936 303.53C110.063 305.518 108.516 306.513 105.533 308.612V296.789C102.992 297.342 101.003 296.237 101.003 293.032Z" fill="white"/>
<path d="M115.367 244.525C114.704 244.967 115.146 244.635 114.594 245.077C113.599 245.74 112.384 248.061 114.815 249.939C115.92 250.713 117.025 250.934 117.909 251.044C120.34 251.155 122.108 249.387 122.108 249.387C122.108 249.387 125.201 247.177 121.555 244.635C119.124 242.867 116.804 243.641 115.367 244.525Z" fill="url(#paint20_linear_1266_3812)"/>
<path d="M78.7931 272.259C78.1301 272.701 78.5721 272.37 78.0196 272.812C77.0251 273.475 75.8097 275.795 78.2406 277.673C79.3455 278.447 80.4505 278.668 81.3345 278.778C83.7654 278.889 85.5333 277.121 85.5333 277.121C85.5333 277.121 88.6272 274.911 84.9808 272.37C82.6604 270.491 80.2295 271.265 78.7931 272.259Z" fill="url(#paint21_linear_1266_3812)"/>
<path d="M81.445 278.668C83.4339 278.668 85.0913 277.784 85.0913 276.679V253.917C85.0913 242.204 90.6161 233.475 101.445 227.84C104.097 226.403 110.616 224.746 113.268 226.514C113.599 226.735 114.704 227.508 114.594 230.713C114.594 230.823 114.594 230.823 114.594 230.934C114.594 236.348 114.594 241.652 114.704 247.066V249.608C114.704 250.381 116.141 251.155 118.351 251.155C120.119 251.155 121.997 249.829 121.997 249.718V247.066C121.997 241.762 121.997 236.459 121.887 231.044C122.218 224.967 119.566 221.984 117.246 220.437C110.947 216.348 101.003 219.884 98.0194 221.431C84.7599 228.282 77.6881 239.552 77.6881 254.027V276.679C77.7986 278.447 81.445 278.668 81.445 278.668Z" fill="url(#paint22_linear_1266_3812)"/>
<path d="M351.939 189.94C351.939 191.487 355.696 229.055 357.132 240.436C358.569 251.375 361.773 278.889 361.773 288.834C361.773 289.386 363.872 291.043 367.187 291.596C369.508 292.038 373.044 290.049 373.044 289.276L372.381 189.829H351.939V189.94Z" fill="#1B1425"/>
<path d="M364.756 286.624C364.756 286.624 359.453 286.624 356.138 286.624C345.862 286.624 353.154 294.579 360.558 294.579C363.762 294.579 370.502 294.579 370.502 294.579C370.502 294.579 373.044 294.579 373.044 292.701V286.624H364.756Z" fill="white"/>
<path d="M333.265 189.94C333.375 192.923 333.265 197.674 333.265 204.304C333.265 218.337 334.922 238.226 336.359 249.607C337.795 260.547 343.099 288.06 343.099 298.005C343.099 298.557 345.198 300.215 348.513 300.767C350.834 301.209 354.37 299.22 354.37 298.447L354.149 189.829H333.265V189.94Z" fill="#1B1425"/>
<path d="M345.972 295.795C345.972 295.795 340.668 295.795 337.353 295.795C327.077 295.795 334.37 303.75 341.773 303.75C344.977 303.75 351.718 303.75 351.718 303.75C351.718 303.75 354.259 303.75 354.259 301.872V295.795H345.972Z" fill="white"/>
<path d="M343.099 95.0234C343.099 95.0234 342.989 108.504 342.989 110.714C342.989 113.918 349.95 109.719 352.049 108.283C359.563 103.2 359.232 101.653 359.453 100.327V95.0234H343.099Z" fill="#E39E76"/>
<path d="M352.27 67.3992C359.784 67.3992 364.977 74.1394 364.977 81.6532V86.6255C364.977 93.9182 355.917 101.542 348.403 101.542C347.74 101.542 343.873 101.542 342.105 101.542C340.116 101.542 339.563 99.664 339.563 98.6695C339.563 98.1171 339.563 95.1337 339.563 93.4762C339.563 92.3713 338.9 91.9293 338.679 91.8188C337.353 91.3768 338.237 90.3823 338.348 89.9404C339.011 88.2829 339.342 87.178 339.563 85.5205C339.784 83.2001 339.342 80.3272 339.563 78.7803C340.447 73.145 344.867 67.3992 352.27 67.3992Z" fill="#F5BB95"/>
<path d="M365.372 81.6076C365.372 73.8593 360.7 66.9087 352.269 66.9087C345.204 66.9087 339.735 72.1502 339.279 78.645C339.393 78.5311 343.951 76.2522 343.951 84.1144C343.951 89.4698 343.951 92.0905 343.951 92.0905H345.888C345.774 91.2929 346.002 90.2674 346.457 89.2419C347.369 87.3048 349.078 86.2793 350.104 86.849C351.243 87.4188 351.357 89.3558 350.331 91.2929C349.99 92.0905 349.42 92.7742 348.85 93.116C347.483 94.9391 354.661 99.9527 356.598 99.269C356.598 99.269 365.144 94.4833 365.144 86.6211C365.372 85.4817 365.372 81.6076 365.372 81.6076Z" fill="black"/>
<path d="M359.453 99.333C359.453 99.333 361.11 99.996 360.779 101.764C360.779 101.764 350.392 109.388 340.226 116.791L342.878 110.493L359.453 99.333Z" fill="white"/>
<path d="M360.779 101.763C360.779 101.763 342.547 114.47 338.348 118.227C336.138 120.216 334.702 129.166 334.702 142.426C334.702 146.072 332.823 178.006 332.05 188.282C331.608 193.365 331.166 195.243 335.585 196.569C340.447 198.116 348.293 199.773 354.37 199.773C360.779 199.773 368.403 197.784 372.491 196.679C374.48 196.127 375.585 193.033 374.701 189.055C372.491 178.89 368.182 156.79 368.182 148.835C368.182 135.023 367.519 127.177 368.182 118.448C369.066 106.183 363.43 103.089 360.779 101.763Z" fill="#A535C5"/>
<path d="M342.989 110.714C342.989 110.714 339.674 111.929 338.458 118.228L340.337 116.791C340.226 116.791 341.994 112.703 342.989 110.714Z" fill="black"/>
<path d="M350.834 165.63C349.95 169.497 346.193 171.928 342.326 171.044C338.458 170.16 336.027 166.404 336.911 162.536L343.099 128.061C344.425 120.216 348.955 116.57 354.37 117.785C358.237 118.669 363.209 122.426 360.668 130.934L350.834 165.63Z" fill="#A535C5"/>
<path d="M333.265 204.304C331.829 207.95 321.442 203.199 322.878 199.552L336.58 162.536C338.016 158.89 342.215 157.011 345.861 158.448C349.508 159.884 351.386 164.083 349.95 167.729L333.265 204.304Z" fill="#A535C5"/>
<path d="M341.552 265.408L295.254 232.922V200.547L341.552 232.922V265.408Z" fill="url(#paint23_linear_1266_3812)"/>
<path d="M341.552 265.408L346.635 261.762V229.386L341.552 232.922V265.408Z" fill="url(#paint24_linear_1266_3812)"/>
<path d="M300.337 196.901L295.254 200.547L341.552 232.922L346.635 229.386L300.337 196.901Z" fill="url(#paint25_linear_1266_3812)"/>
<path d="M313.597 211.597L315.917 209.829V206.403L313.597 204.746V211.597Z" fill="url(#paint26_linear_1266_3812)"/>
<path d="M310.834 199.663V209.718L313.597 211.597V204.746L329.177 215.685V222.757L332.05 224.635V217.674V214.691L310.834 199.663Z" fill="url(#paint27_linear_1266_3812)"/>
<path d="M334.37 212.923L332.049 214.691V224.635L334.37 222.978V212.923Z" fill="#766FAC"/>
<path d="M313.155 198.005L310.834 199.663L332.05 214.69L334.37 212.922L313.155 198.005Z" fill="url(#paint28_linear_1266_3812)"/>
<path d="M341.552 243.198L314.812 240.325L295.254 210.823V200.547L341.552 232.922V243.198Z" fill="url(#paint29_linear_1266_3812)"/>
<path d="M323.21 201.762C323.21 201.762 317.906 206.514 320.006 209.497C322.105 212.37 323.32 213.033 325.972 213.475C325.972 213.475 326.083 208.834 329.398 209.497C329.398 209.497 330.834 208.503 331.276 205.74C331.166 205.519 326.635 205.63 323.21 201.762Z" fill="#F5BB95"/>
<path d="M50.285 240.989L0.00927734 205.74V199.663L50.285 234.911V240.989Z" fill="url(#paint30_linear_1266_3812)"/>
<path d="M50.2849 240.989L100.561 205.74V199.663L50.2849 234.911V240.989Z" fill="url(#paint31_linear_1266_3812)"/>
<path d="M50.285 164.304L0.00927734 199.663L50.285 234.911L100.561 199.663L50.285 164.304Z" fill="url(#paint32_linear_1266_3812)"/>
<path d="M50.2849 169.277L7.08093 199.663L50.2849 229.939L93.5993 199.663L50.2849 169.277Z" fill="white" fill-opacity="0.1"/>
<path d="M48.4067 211.265C47.3017 211.818 44.7603 212.039 42.7714 210.602C39.788 208.503 33.7107 204.636 33.7107 204.083C33.7107 203.641 33.7107 202.757 33.7107 202.757V200.879V199.995H43.4343C43.4343 199.995 43.4343 200.658 43.4343 200.879C43.4343 201.21 43.4343 202.647 44.2078 203.42C45.3128 204.415 45.8653 205.078 47.6332 206.846C49.5116 208.614 49.6221 210.492 48.4067 211.265Z" fill="white"/>
<path d="M43.6552 201.21C43.6552 201.763 41.7768 203.089 38.7934 203.752C36.8045 204.194 33.6001 202.978 33.6001 202.315C33.6001 198.227 35.589 172.039 35.2575 163.752C34.5946 149.719 34.4841 111.819 34.4841 111.819L51.9424 105.079C51.9424 105.079 52.8264 110.383 51.7214 121.211C50.506 132.703 51.0585 148.172 49.7325 158.338C48.2961 168.062 43.6552 192.371 43.6552 201.21Z" fill="#1B1425"/>
<path d="M65.5335 199.553C64.4285 200.105 61.8871 200.326 59.8982 198.89C56.9148 196.79 50.8375 192.923 50.8375 192.371C50.8375 191.929 50.8375 191.045 50.8375 191.045V189.166V188.282H60.5612C60.5612 188.282 60.5612 188.945 60.5612 189.166C60.5612 189.498 60.5612 190.934 61.3346 191.708C62.4396 192.702 62.9921 193.365 64.76 195.133C66.6385 196.901 66.8594 198.779 65.5335 199.553Z" fill="white"/>
<path d="M61.1136 188.945C61.0031 190.492 58.9037 191.708 56.3623 192.481C54.3734 193.034 50.285 192.371 50.285 191.376C50.285 187.288 52.1635 160.437 51.832 152.04C51.169 138.007 51.832 105.079 51.832 105.079L68.5169 94.0293C68.5169 94.0293 68.5169 115.134 66.1965 133.255C64.8705 142.979 61.9976 180.106 61.1136 188.945Z" fill="#1B1425"/>
<path d="M41.0034 31.4882L59.0143 31.1567L55.8099 60.5487L41.0034 31.4882Z" fill="white"/>
<path d="M59.0142 31.1567L55.8098 60.5487V101.985C55.8098 101.985 55.8098 107.73 60.3401 106.405C65.644 104.858 68.4064 99.7747 68.5169 97.4543C69.0693 83.0899 69.0693 83.3109 69.0693 58.2283V38.339L59.0142 31.1567Z" fill="#A535C5"/>
<path d="M55.8098 60.5482L41.0033 31.4878C34.926 35.7971 27.0808 40.88 27.0808 40.88L32.8266 66.4045L35.9205 87.0673C35.9205 87.0673 34.1526 103.31 33.2686 112.592C32.8266 117.233 46.4176 117.233 52.3844 112.039C55.0363 109.719 55.6993 105.189 55.6993 101.321C55.8098 91.5976 55.8098 60.5482 55.8098 60.5482Z" fill="#A535C5"/>
<path d="M55.8097 10.936C54.4837 10.273 52.2738 9.83105 50.6163 9.83105C45.5335 9.83105 42.1082 14.4719 42.1082 19.5547V26.1845C42.1082 29.3889 49.0694 34.6927 53.3787 35.5766C54.2627 35.7976 54.7047 35.5766 55.0362 35.4661C55.5887 35.1346 56.1412 34.2507 56.2516 34.0297C56.6936 33.1457 56.9146 31.2673 56.9146 31.2673L55.8097 10.936Z" fill="#E39E76"/>
<path d="M50.5059 0.438965C44.3181 0.438965 40.0088 6.18476 40.0088 12.3725V16.6819C40.0088 23.6431 50.0639 32.7038 56.2517 32.7038C59.3456 32.7038 59.8981 28.9469 61.224 25.1901C62.108 22.4277 61.7765 14.472 61.7765 11.0466C61.666 4.8588 56.6937 0.438965 50.5059 0.438965Z" fill="#F5BB95"/>
<path d="M42.2188 19.0024C43.1027 20.7704 42.9922 22.5383 41.9978 22.9803C41.0033 23.4223 39.5669 22.5383 38.6829 20.7704C37.7989 19.0024 37.9094 17.2345 38.9039 16.7925C39.8983 16.3505 41.3348 17.345 42.2188 19.0024Z" fill="#F5BB95"/>
<path d="M42.1083 26.2949C42.1083 26.2949 42.4398 28.7258 45.2022 30.9358C47.9646 33.1457 52.7159 36.6815 55.0363 35.5766L50.064 39.7754C50.064 39.7754 41.0033 33.8087 41.0033 31.0463C41.0033 28.3943 40.8929 27.2894 42.1083 26.2949Z" fill="white"/>
<path d="M56.6938 32.7038C56.6938 32.7038 56.4728 34.5822 55.0364 35.5767L58.2408 37.8971L58.9037 31.2673C59.0142 31.1568 58.1303 32.3723 56.6938 32.7038Z" fill="white"/>
<path d="M47.3015 9.83132L41.5557 6.07446C40.5613 7.9529 40.0088 10.0523 40.0088 12.2622V16.5716V16.6821C41.9977 17.4556 42.6607 20.3284 42.6607 20.3284L44.3181 19.2235V16.4611C46.5281 16.1296 48.4065 12.2622 49.18 10.4943C48.075 10.2733 47.3015 9.83132 47.3015 9.83132Z" fill="black"/>
<path d="M61.7765 11.7096C61.7765 11.4886 61.7765 11.2676 61.7765 11.0466C61.7765 4.8588 56.8042 0.438965 50.6164 0.438965C46.6386 0.438965 43.3237 2.4279 41.6663 6.07426L47.4121 9.83113C47.3016 9.83113 55.0363 13.6985 61.7765 11.7096Z" fill="black"/>
<path d="M56.1412 39.3333V36.3499L55.0363 35.5764L51.3899 38.6703L53.8208 40.9907L56.1412 39.3333Z" fill="black"/>
<path d="M53.8209 40.9904L52.2739 53.6975L55.8098 60.5482L56.9148 50.4931L56.1413 39.333L53.8209 40.9904Z" fill="black"/>
<path d="M55.8097 60.549L46.6385 58.56L37.5779 33.9194L41.0033 31.4885L55.8097 60.549Z" fill="#A535C5"/>
<path d="M55.8098 60.5487L63.3235 46.8472L61.6661 32.8142C61.6661 32.8142 60.4506 31.7092 58.9037 31.1567L55.8098 60.5487Z" fill="#A535C5"/>
<path d="M39.4563 106.516C48.738 106.295 42.9922 100.659 40.8928 100.659C38.6828 100.549 36.3624 99.7753 34.8155 98.7808C34.1525 98.3388 34.1525 97.5653 34.705 97.5653L34.926 95.5764C34.263 95.3554 33.2685 95.0239 32.3846 94.6924C29.4012 93.8085 27.3017 92.4825 26.1968 94.14C23.7659 98.1178 31.7216 106.737 39.4563 106.516Z" fill="#F5BB95"/>
<path d="M25.9759 100.991C25.9759 100.991 14.0424 90.7145 3.10327 82.6483C1.00385 81.1013 0.340869 76.0185 1.77732 74.0296C5.31319 69.2783 16.6943 52.7039 25.7549 41.8753C32.0532 34.3615 38.7935 36.019 41.0034 38.4499C45.3127 43.0907 39.7879 47.0686 34.2631 53.5878C29.0698 59.6651 22.6611 68.7258 18.0202 75.908C17.3573 77.013 17.3573 78.5599 18.1307 79.3334C24.65 85.6317 33.2687 93.6979 33.2687 93.6979C33.2687 93.6979 31.2798 99.6647 25.9759 100.991Z" fill="#A535C5"/>
<path d="M99.7871 62.9799L69.0692 38.2288V54.3612L92.4944 73.1455C95.2568 75.1344 99.2346 74.4714 101.224 71.709C103.212 68.9466 102.549 64.9688 99.7871 62.9799Z" fill="#A535C5"/>
<path d="M69.0689 82.759C65.6436 85.0794 64.8701 88.5048 64.8701 88.5048C64.4281 89.9413 63.9861 92.4827 64.7596 96.2395C64.8701 96.792 65.4226 97.234 65.975 97.234C66.0855 97.234 66.0855 97.234 66.196 97.234C66.638 97.1235 67.08 96.792 67.1905 96.2395C67.301 96.792 67.8535 97.234 68.406 97.234C68.5165 97.234 68.627 97.234 68.627 97.234C69.0689 97.1235 69.4004 96.792 69.5109 96.35C69.6214 96.9025 70.1739 97.234 70.7264 97.234C70.8369 97.234 70.9474 97.234 70.9474 97.234C71.3894 97.1235 71.8313 96.792 71.9418 96.2395C72.0523 96.792 72.6048 97.234 73.1573 97.234C73.2678 97.234 73.2678 97.234 73.3783 97.234C74.0413 97.1235 74.4832 96.4605 74.3727 95.7975C73.9308 93.5876 73.9308 91.7092 74.1518 90.4938C74.2622 89.6098 74.4832 88.9468 74.7042 88.3943L69.0689 82.759Z" fill="#F5BB95"/>
<path d="M101.223 64.748C99.3448 62.2066 95.6985 61.6541 93.1571 63.5326L68.0745 82.8694L75.8092 89.9411L99.8973 72.8142C102.549 70.9358 103.102 67.2894 101.223 64.748Z" fill="#A535C5"/>
<defs>
<filter id="filter0_d_1266_3812" x="134.24" y="105.631" width="53.4138" height="115.071" filterUnits="userSpaceOnUse" color-interpolation-filters="sRGB">
<feFlood flood-opacity="0" result="BackgroundImageFix"/>
<feColorMatrix in="SourceAlpha" type="matrix" values="0 0 0 0 0 0 0 0 0 0 0 0 0 0 0 0 0 0 127 0" result="hardAlpha"/>
<feOffset dy="4"/>
<feGaussianBlur stdDeviation="2"/>
<feComposite in2="hardAlpha" operator="out"/>
<feColorMatrix type="matrix" values="0 0 0 0 0 0 0 0 0 0 0 0 0 0 0 0 0 0 0.25 0"/>
<feBlend mode="normal" in2="BackgroundImageFix" result="effect1_dropShadow_1266_3812"/>
<feBlend mode="normal" in="SourceGraphic" in2="effect1_dropShadow_1266_3812" result="shape"/>
</filter>
<linearGradient id="paint0_linear_1266_3812" x1="40.3822" y1="86.7054" x2="157.827" y2="159.958" gradientUnits="userSpaceOnUse">
<stop stop-color="#F57A00"/>
<stop offset="1" stop-color="#7103A4"/>
</linearGradient>
<linearGradient id="paint1_linear_1266_3812" x1="139.679" y1="116.397" x2="212.338" y2="144.86" gradientUnits="userSpaceOnUse">
<stop stop-color="#F57A00"/>
<stop offset="1" stop-color="#7103A4"/>
</linearGradient>
<linearGradient id="paint2_linear_1266_3812" x1="45.9099" y1="35.0574" x2="111.554" y2="144.15" gradientUnits="userSpaceOnUse">
<stop stop-color="#F57A00"/>
<stop offset="1" stop-color="#7103A4"/>
</linearGradient>
<linearGradient id="paint3_linear_1266_3812" x1="59.745" y1="65.8704" x2="97.5437" y2="124.913" gradientUnits="userSpaceOnUse">
<stop stop-color="#F57A00"/>
<stop offset="1" stop-color="#7103A4"/>
</linearGradient>
<linearGradient id="paint4_linear_1266_3812" x1="138.339" y1="92.428" x2="157.398" y2="119.831" gradientUnits="userSpaceOnUse">
<stop stop-color="#F57A00"/>
<stop offset="1" stop-color="#7103A4"/>
</linearGradient>
<linearGradient id="paint5_linear_1266_3812" x1="63.6008" y1="43.2474" x2="113.409" y2="126.357" gradientUnits="userSpaceOnUse">
<stop stop-color="#F57A00"/>
<stop offset="1" stop-color="#7103A4"/>
</linearGradient>
<linearGradient id="paint6_linear_1266_3812" x1="136.136" y1="149.822" x2="174.498" y2="164.264" gradientUnits="userSpaceOnUse">
<stop offset="0.0698167" stop-color="#30338C"/>
<stop offset="0.4733" stop-color="#5C589F"/>
<stop offset="0.8093" stop-color="#726DAC"/>
<stop offset="1" stop-color="#7A75B1"/>
</linearGradient>
<linearGradient id="paint7_linear_1266_3812" x1="178.661" y1="180.891" x2="136.993" y2="208.332" gradientUnits="userSpaceOnUse">
<stop offset="0.1253" stop-color="#30338C"/>
<stop offset="0.5047" stop-color="#5C589F"/>
<stop offset="0.8207" stop-color="#726DAC"/>
<stop offset="1" stop-color="#7A75B1"/>
</linearGradient>
<linearGradient id="paint8_linear_1266_3812" x1="180.299" y1="182.754" x2="180.299" y2="102.834" gradientUnits="userSpaceOnUse">
<stop offset="0.0698167" stop-color="#30338C"/>
<stop offset="0.4733" stop-color="#5C589F"/>
<stop offset="0.8093" stop-color="#726DAC"/>
<stop offset="1" stop-color="#7A75B1"/>
</linearGradient>
<linearGradient id="paint9_linear_1266_3812" x1="142.915" y1="123.348" x2="199.855" y2="151.517" gradientUnits="userSpaceOnUse">
<stop stop-color="#F57A00"/>
<stop offset="1" stop-color="#7103A4"/>
</linearGradient>
<linearGradient id="paint10_linear_1266_3812" x1="164.93" y1="237.125" x2="236.001" y2="355.217" gradientUnits="userSpaceOnUse">
<stop stop-color="#F57A00"/>
<stop offset="1" stop-color="#7103A4"/>
</linearGradient>
<linearGradient id="paint11_linear_1266_3812" x1="201.956" y1="295.998" x2="201.956" y2="197.722" gradientUnits="userSpaceOnUse">
<stop stop-color="#9186BB"/>
<stop offset="1" stop-color="#C7C4E1"/>
</linearGradient>
<linearGradient id="paint12_linear_1266_3812" x1="158.549" y1="166.867" x2="258.89" y2="250.8" gradientUnits="userSpaceOnUse">
<stop stop-color="#F57A00"/>
<stop offset="1" stop-color="#7103A4"/>
</linearGradient>
<linearGradient id="paint13_linear_1266_3812" x1="198.943" y1="336.589" x2="207.182" y2="336.589" gradientUnits="userSpaceOnUse">
<stop stop-color="#3130A7"/>
<stop offset="1" stop-color="#3F4EB8"/>
</linearGradient>
<linearGradient id="paint14_linear_1266_3812" x1="188.225" y1="328.965" x2="196.464" y2="328.965" gradientUnits="userSpaceOnUse">
<stop stop-color="#3130A7"/>
<stop offset="1" stop-color="#3F4EB8"/>
</linearGradient>
<linearGradient id="paint15_linear_1266_3812" x1="163.7" y1="316.223" x2="184.408" y2="316.223" gradientUnits="userSpaceOnUse">
<stop stop-color="#3130A7"/>
<stop offset="1" stop-color="#3F4EB8"/>
</linearGradient>
<linearGradient id="paint16_linear_1266_3812" x1="148.998" y1="301.616" x2="157.348" y2="301.616" gradientUnits="userSpaceOnUse">
<stop stop-color="#3130A7"/>
<stop offset="1" stop-color="#3F4EB8"/>
</linearGradient>
<linearGradient id="paint17_linear_1266_3812" x1="87.6796" y1="263.881" x2="139.552" y2="300.536" gradientUnits="userSpaceOnUse">
<stop stop-color="#F57A00"/>
<stop offset="1" stop-color="#7103A4"/>
</linearGradient>
<linearGradient id="paint18_linear_1266_3812" x1="68.9507" y1="284.196" x2="90.6054" y2="290.785" gradientUnits="userSpaceOnUse">
<stop stop-color="#F57A00"/>
<stop offset="1" stop-color="#7103A4"/>
</linearGradient>
<linearGradient id="paint19_linear_1266_3812" x1="74.7029" y1="246.551" x2="102.01" y2="290.739" gradientUnits="userSpaceOnUse">
<stop stop-color="#F57A00"/>
<stop offset="1" stop-color="#7103A4"/>
</linearGradient>
<linearGradient id="paint20_linear_1266_3812" x1="114.417" y1="244.808" x2="118.976" y2="251.874" gradientUnits="userSpaceOnUse">
<stop stop-color="#F57A00"/>
<stop offset="1" stop-color="#7103A4"/>
</linearGradient>
<linearGradient id="paint21_linear_1266_3812" x1="77.8428" y1="272.474" x2="82.4717" y2="279.571" gradientUnits="userSpaceOnUse">
<stop stop-color="#F57A00"/>
<stop offset="1" stop-color="#7103A4"/>
</linearGradient>
<linearGradient id="paint22_linear_1266_3812" x1="82.2491" y1="228.483" x2="122.024" y2="262.665" gradientUnits="userSpaceOnUse">
<stop stop-color="#F57A00"/>
<stop offset="1" stop-color="#7103A4"/>
</linearGradient>
<linearGradient id="paint23_linear_1266_3812" x1="300.02" y1="211.279" x2="342.696" y2="246.808" gradientUnits="userSpaceOnUse">
<stop stop-color="#F57A00"/>
<stop offset="1" stop-color="#7103A4"/>
</linearGradient>
<linearGradient id="paint24_linear_1266_3812" x1="342.075" y1="235.347" x2="349.799" y2="236.618" gradientUnits="userSpaceOnUse">
<stop stop-color="#F57A00"/>
<stop offset="1" stop-color="#7103A4"/>
</linearGradient>
<linearGradient id="paint25_linear_1266_3812" x1="300.543" y1="202.861" x2="321.826" y2="238.268" gradientUnits="userSpaceOnUse">
<stop stop-color="#F57A00"/>
<stop offset="1" stop-color="#7103A4"/>
</linearGradient>
<linearGradient id="paint26_linear_1266_3812" x1="313.836" y1="205.879" x2="316.968" y2="207.117" gradientUnits="userSpaceOnUse">
<stop stop-color="#F57A00"/>
<stop offset="1" stop-color="#7103A4"/>
</linearGradient>
<linearGradient id="paint27_linear_1266_3812" x1="313.018" y1="203.795" x2="329.725" y2="220.349" gradientUnits="userSpaceOnUse">
<stop stop-color="#F57A00"/>
<stop offset="1" stop-color="#7103A4"/>
</linearGradient>
<linearGradient id="paint28_linear_1266_3812" x1="313.257" y1="200.766" x2="323.166" y2="217.069" gradientUnits="userSpaceOnUse">
<stop stop-color="#F57A00"/>
<stop offset="1" stop-color="#7103A4"/>
</linearGradient>
<linearGradient id="paint29_linear_1266_3812" x1="300.02" y1="207.604" x2="327.78" y2="242.749" gradientUnits="userSpaceOnUse">
<stop stop-color="#F57A00"/>
<stop offset="1" stop-color="#7103A4"/>
</linearGradient>
<linearGradient id="paint30_linear_1266_3812" x1="5.18447" y1="206.501" x2="31.2225" y2="243.448" gradientUnits="userSpaceOnUse">
<stop stop-color="#F57A00"/>
<stop offset="1" stop-color="#7103A4"/>
</linearGradient>
<linearGradient id="paint31_linear_1266_3812" x1="55.4601" y1="206.501" x2="81.4982" y2="243.448" gradientUnits="userSpaceOnUse">
<stop stop-color="#F57A00"/>
<stop offset="1" stop-color="#7103A4"/>
</linearGradient>
<linearGradient id="paint32_linear_1266_3812" x1="10.3597" y1="175.988" x2="52.1079" y2="245.331" gradientUnits="userSpaceOnUse">
<stop stop-color="#F57A00"/>
<stop offset="1" stop-color="#7103A4"/>
</linearGradient>
</defs>
</svg>
