<svg width="349" height="371" viewBox="0 0 349 371" fill="none" xmlns="http://www.w3.org/2000/svg">
<path d="M210.938 345.294H142.265C142.121 345.294 142.005 345.177 142.005 345.033V312.634C142.005 312.49 142.121 312.374 142.265 312.374C142.409 312.374 142.526 312.49 142.526 312.634V344.773H210.678V312.634C210.678 312.49 210.794 312.374 210.938 312.374C211.082 312.374 211.199 312.49 211.199 312.634V345.033C211.199 345.177 211.082 345.294 210.938 345.294Z" fill="white"/>
<path d="M70.7187 216.061C70.5747 216.061 70.4584 215.944 70.4584 215.8V185.591H59.1661C59.0221 185.591 58.9058 185.474 58.9058 185.331V123.077H0.590418C0.44645 123.077 0.330078 122.961 0.330078 122.817V29.8956C0.330078 29.7519 0.44645 29.6353 0.590418 29.6353H19.0631C19.2071 29.6353 19.3234 29.7519 19.3234 29.8956C19.3234 30.0393 19.2071 30.1559 19.0631 30.1559H0.850758V122.557H59.1661C59.3101 122.557 59.4265 122.673 59.4265 122.817V185.07H70.7187C70.8627 185.07 70.979 185.187 70.979 185.331V215.8C70.979 215.944 70.8627 216.061 70.7187 216.061Z" fill="white"/>
<path d="M149.331 130.736L187.715 169.12V110.38L149.331 71.9961V130.736L149.331 130.736Z" fill="url(#paint0_linear_1254_1262)"/>
<path d="M187.714 169.38C187.645 169.38 187.579 169.353 187.53 169.304L149.147 130.92C149.098 130.871 149.071 130.805 149.071 130.736L149.071 71.9961C149.071 71.8909 149.134 71.7959 149.231 71.7556C149.329 71.7155 149.441 71.7376 149.515 71.8121L187.899 110.196C187.948 110.245 187.975 110.311 187.975 110.38L187.975 166.596C187.975 169.228 187.975 169.228 187.899 169.304C187.85 169.353 187.784 169.38 187.714 169.38ZM149.591 130.628L187.454 168.491C187.455 162.347 187.455 113.153 187.455 110.488L149.591 72.6248V130.628Z" fill="white"/>
<path d="M149.331 130.737L187.714 169.12H128.917L90.5336 130.737L149.331 130.736L149.331 130.737Z" fill="url(#paint1_linear_1254_1262)"/>
<path d="M187.714 169.38C187.578 169.38 129.504 169.38 128.917 169.38C128.848 169.38 128.781 169.353 128.733 169.304L90.3495 130.92C90.2751 130.846 90.2527 130.734 90.293 130.636C90.3331 130.539 90.4284 130.476 90.5336 130.476L149.331 130.475C149.4 130.475 149.466 130.503 149.515 130.552L187.862 168.899C187.915 168.923 187.93 168.96 187.955 169.02C188.003 169.134 187.962 169.267 187.859 169.336C187.815 169.365 187.764 169.38 187.714 169.38ZM91.162 130.997L129.025 168.859H187.054C187.064 168.859 187.075 168.859 187.086 168.859L149.223 130.997H91.162Z" fill="white"/>
<path d="M90.5337 130.736H149.331L149.331 71.9961H90.5334V130.736L90.5337 130.736Z" fill="url(#paint2_linear_1254_1262)"/>
<path d="M149.331 130.997H90.5337C90.3897 130.997 90.2733 130.88 90.2733 130.737L90.2731 71.9964C90.2731 71.9274 90.3004 71.8611 90.3493 71.8124C90.3983 71.7637 90.4644 71.7361 90.5334 71.7361H149.331C149.475 71.7361 149.591 71.8527 149.591 71.9964V130.737C149.591 130.88 149.475 130.997 149.331 130.997ZM90.7938 130.476H149.071V72.2568H90.7938V130.476Z" fill="#374EAB"/>
<path d="M98.5517 81.1389H96.6276V82.4406H98.5517V81.1389Z" fill="white"/>
<path d="M107.959 81.1389H99.6205V82.4406H107.959V81.1389Z" fill="white"/>
<path d="M120.574 81.1389H109.028V82.4406H120.574V81.1389Z" fill="white"/>
<path d="M123.567 81.1389H121.643V82.4406H123.567V81.1389Z" fill="white"/>
<path d="M126.56 81.1389H124.636V82.4406H126.56V81.1389Z" fill="white"/>
<path d="M135.967 81.1389H127.629V82.4406H135.967V81.1389Z" fill="white"/>
<path d="M138.96 81.1389H137.036V82.4406H138.96V81.1389Z" fill="white"/>
<path d="M99.6206 84.0525H96.6274V85.3542H99.6206V84.0525Z" fill="white"/>
<path d="M107.959 84.0525H100.689V85.3542H107.959V84.0525Z" fill="white"/>
<path d="M110.952 84.0525H109.028V85.3542H110.952V84.0525Z" fill="white"/>
<path d="M123.567 84.0525H112.021V85.3542H123.567V84.0525Z" fill="white"/>
<path d="M126.559 84.0525H124.635V85.3542H126.559V84.0525Z" fill="white"/>
<path d="M129.552 84.0525H127.629V85.3542H129.552V84.0525Z" fill="white"/>
<path d="M138.96 84.0525H130.622V85.3542H138.96V84.0525Z" fill="white"/>
<path d="M109.242 86.9656H100.904V88.2673H109.242V86.9656Z" fill="white"/>
<path d="M112.235 86.9656H110.311V88.2673H112.235V86.9656Z" fill="white"/>
<path d="M121.643 86.9656H113.304V88.2673H121.643V86.9656Z" fill="white"/>
<path d="M133.189 86.9656H122.712V88.2673H133.189V86.9656Z" fill="white"/>
<path d="M136.182 86.9656H134.258V88.2673H136.182V86.9656Z" fill="white"/>
<path d="M141.313 86.9656H137.25V88.2673H141.313V86.9656Z" fill="white"/>
<path d="M143.236 86.9656H142.382V88.2673H143.236V86.9656Z" fill="white"/>
<path d="M101.759 89.8787H100.904V91.1804H101.759V89.8787Z" fill="white"/>
<path d="M112.236 89.8787H102.828V91.1804H112.236V89.8787Z" fill="white"/>
<path d="M125.919 89.8787H113.304V91.1804H125.919V89.8787Z" fill="white"/>
<path d="M132.119 89.8787H126.988V91.1804H132.119V89.8787Z" fill="white"/>
<path d="M138.32 89.8787H133.189V91.1804H138.32V89.8787Z" fill="white"/>
<path d="M141.313 89.8787H139.389V91.1804H141.313V89.8787Z" fill="white"/>
<path d="M143.236 89.8787H142.382V91.1804H143.236V89.8787Z" fill="white"/>
<path d="M100.69 92.7922H96.6274V94.0939H100.69V92.7922Z" fill="white"/>
<path d="M107.959 92.7922H101.758V94.0939H107.959V92.7922Z" fill="white"/>
<path d="M110.952 92.7922H109.028V94.0939H110.952V92.7922Z" fill="white"/>
<path d="M123.567 92.7922H112.021V94.0939H123.567V92.7922Z" fill="white"/>
<path d="M129.767 92.7922H124.635V94.0939H129.767V92.7922Z" fill="white"/>
<path d="M132.76 92.7922H130.836V94.0939H132.76V92.7922Z" fill="white"/>
<path d="M138.96 92.7922H133.829V94.0939H138.96V92.7922Z" fill="white"/>
<path d="M102.828 95.7053H100.904V97.007H102.828V95.7053Z" fill="white"/>
<path d="M112.235 95.7053H103.897V97.007H112.235V95.7053Z" fill="white"/>
<path d="M115.228 95.7053H113.304V97.007H115.228V95.7053Z" fill="white"/>
<path d="M131.05 95.7053H116.297V97.007H131.05V95.7053Z" fill="white"/>
<path d="M134.043 95.7053H132.12V97.007H134.043V95.7053Z" fill="white"/>
<path d="M140.244 95.7053H135.112V97.007H140.244V95.7053Z" fill="white"/>
<path d="M143.237 95.7053H141.313V97.007H143.237V95.7053Z" fill="white"/>
<path d="M103.897 98.6189H100.904V99.9206H103.897V98.6189Z" fill="white"/>
<path d="M112.236 98.6189H104.966V99.9206H112.236V98.6189Z" fill="white"/>
<path d="M124.85 98.6189H113.304V99.9206H124.85V98.6189Z" fill="white"/>
<path d="M128.912 98.6189H125.919V99.9206H128.912V98.6189Z" fill="white"/>
<path d="M139.389 98.6189H129.981V99.9206H139.389V98.6189Z" fill="white"/>
<path d="M141.313 98.6189H140.458V99.9206H141.313V98.6189Z" fill="white"/>
<path d="M143.236 98.6189H142.382V99.9206H143.236V98.6189Z" fill="white"/>
<path d="M98.5516 102.812H96.6274V104.114H98.5516V102.812Z" fill="white"/>
<path d="M107.959 102.812H99.6204V104.114H107.959V102.812Z" fill="white"/>
<path d="M120.574 102.812H109.028V104.114H120.574V102.812Z" fill="white"/>
<path d="M123.567 102.812H121.643V104.114H123.567V102.812Z" fill="white"/>
<path d="M126.559 102.812H124.635V104.114H126.559V102.812Z" fill="white"/>
<path d="M135.967 102.812H127.629V104.114H135.967V102.812Z" fill="white"/>
<path d="M138.96 102.812H137.036V104.114H138.96V102.812Z" fill="white"/>
<path d="M99.6206 105.725H96.6274V107.027H99.6206V105.725Z" fill="white"/>
<path d="M107.959 105.725H100.689V107.027H107.959V105.725Z" fill="white"/>
<path d="M110.952 105.725H109.028V107.027H110.952V105.725Z" fill="white"/>
<path d="M123.567 105.725H112.021V107.027H123.567V105.725Z" fill="white"/>
<path d="M126.559 105.725H124.635V107.027H126.559V105.725Z" fill="white"/>
<path d="M129.552 105.725H127.629V107.027H129.552V105.725Z" fill="white"/>
<path d="M138.96 105.725H130.622V107.027H138.96V105.725Z" fill="white"/>
<path d="M109.242 108.639H100.904V109.94H109.242V108.639Z" fill="white"/>
<path d="M112.235 108.639H110.311V109.94H112.235V108.639Z" fill="white"/>
<path d="M121.643 108.639H113.304V109.94H121.643V108.639Z" fill="white"/>
<path d="M133.189 108.639H122.712V109.94H133.189V108.639Z" fill="white"/>
<path d="M136.182 108.639H134.258V109.94H136.182V108.639Z" fill="white"/>
<path d="M141.313 108.639H137.25V109.94H141.313V108.639Z" fill="white"/>
<path d="M143.236 108.639H142.382V109.94H143.236V108.639Z" fill="white"/>
<path d="M101.759 111.552H100.904V112.854H101.759V111.552Z" fill="white"/>
<path d="M112.236 111.552H102.828V112.854H112.236V111.552Z" fill="white"/>
<path d="M125.919 111.552H113.304V112.854H125.919V111.552Z" fill="white"/>
<path d="M132.119 111.552H126.988V112.854H132.119V111.552Z" fill="white"/>
<path d="M138.32 111.552H133.189V112.854H138.32V111.552Z" fill="white"/>
<path d="M141.313 111.552H139.389V112.854H141.313V111.552Z" fill="white"/>
<path d="M143.236 111.552H142.382V112.854H143.236V111.552Z" fill="white"/>
<path d="M100.69 114.465H96.6274V115.767H100.69V114.465Z" fill="white"/>
<path d="M107.959 114.465H101.758V115.767H107.959V114.465Z" fill="white"/>
<path d="M110.952 114.465H109.028V115.767H110.952V114.465Z" fill="white"/>
<path d="M123.567 114.465H112.021V115.767H123.567V114.465Z" fill="white"/>
<path d="M129.767 114.465H124.635V115.767H129.767V114.465Z" fill="white"/>
<path d="M132.76 114.465H130.836V115.767H132.76V114.465Z" fill="white"/>
<path d="M138.96 114.465H133.829V115.767H138.96V114.465Z" fill="white"/>
<path d="M102.828 117.378H100.904V118.68H102.828V117.378Z" fill="white"/>
<path d="M112.235 117.378H103.897V118.68H112.235V117.378Z" fill="white"/>
<path d="M115.228 117.378H113.304V118.68H115.228V117.378Z" fill="white"/>
<path d="M131.05 117.378H116.297V118.68H131.05V117.378Z" fill="white"/>
<path d="M134.043 117.378H132.12V118.68H134.043V117.378Z" fill="white"/>
<path d="M140.244 117.378H135.112V118.68H140.244V117.378Z" fill="white"/>
<path d="M143.237 117.378H141.313V118.68H143.237V117.378Z" fill="white"/>
<path d="M103.897 120.292H100.904V121.593H103.897V120.292Z" fill="white"/>
<path d="M112.236 120.292H104.966V121.593H112.236V120.292Z" fill="white"/>
<path d="M124.85 120.292H113.304V121.593H124.85V120.292Z" fill="white"/>
<path d="M128.912 120.292H125.919V121.593H128.912V120.292Z" fill="white"/>
<path d="M139.389 120.292H129.981V121.593H139.389V120.292Z" fill="white"/>
<path d="M141.313 120.292H140.458V121.593H141.313V120.292Z" fill="white"/>
<path d="M143.236 120.292H142.382V121.593H143.236V120.292Z" fill="white"/>
<path d="M100.579 81.9841L110.28 91.6857L110.28 32.9455L100.578 23.2439V81.9839L100.579 81.9841Z" fill="url(#paint3_linear_1254_1262)"/>
<path d="M110.28 91.9458C110.212 91.9458 110.146 91.9192 110.096 91.8695L100.395 82.1682C100.346 82.1193 100.319 82.0531 100.319 81.9842L100.318 23.2439C100.318 23.1387 100.382 23.0437 100.479 23.0034C100.577 22.9633 100.688 22.9854 100.763 23.0599L110.464 32.7612C110.513 32.8101 110.54 32.8762 110.54 32.9452V91.6855C110.54 91.7906 110.477 91.8857 110.38 91.926C110.347 91.9393 110.313 91.9458 110.28 91.9458ZM100.839 81.8758L110.02 91.0567V33.053L100.839 23.8724V81.8758Z" fill="white"/>
<path d="M100.579 81.9839L110.28 91.6855H51.4829L41.7814 81.9839L100.579 81.9836L100.579 81.9839Z" fill="url(#paint4_linear_1254_1262)"/>
<path d="M110.28 91.9456C109.895 91.9454 52.068 91.9456 51.4827 91.9456C51.4135 91.9456 51.3473 91.918 51.2986 91.8694L41.5971 82.1681C41.5226 82.0936 41.5002 81.9817 41.5406 81.8843C41.5807 81.7872 41.676 81.7237 41.7811 81.7237L100.579 81.7234C100.648 81.7234 100.714 81.751 100.763 81.7999L110.443 91.4807C110.502 91.5179 110.54 91.5806 110.54 91.6853C110.54 91.7905 110.477 91.8855 110.38 91.9259C110.347 91.9391 110.314 91.9456 110.28 91.9456ZM42.4096 82.2441L51.5905 91.4247H107.754H109.651L100.471 82.2441H42.4096Z" fill="url(#paint5_linear_1254_1262)"/>
<path d="M41.7811 81.9841H100.578L100.579 23.2439H41.7809V81.9839L41.7811 81.9841Z" fill="url(#paint6_linear_1254_1262)"/>
<path d="M100.578 82.2443H41.7811C41.6371 82.2443 41.5208 82.1277 41.5208 81.984L41.5205 23.2437C41.5205 23.1747 41.5478 23.1084 41.5968 23.0597C41.6457 23.011 41.7116 22.9834 41.7808 22.9834H100.579C100.723 22.9834 100.839 23.1 100.839 23.2437L100.839 79.46C100.839 82.0918 100.839 82.0918 100.762 82.168C100.714 82.217 100.648 82.2443 100.578 82.2443ZM42.0412 81.7236H100.318C100.318 77.6756 100.318 27.5888 100.318 23.5041H42.0412V81.7236Z" fill="#374EAB"/>
<path d="M221.146 130.736L259.529 169.12L259.529 110.38L221.146 71.9961V130.736V130.736Z" fill="url(#paint7_linear_1254_1262)"/>
<path d="M259.529 169.38C259.459 169.38 259.393 169.353 259.345 169.304L220.961 130.921C220.912 130.872 220.885 130.806 220.885 130.737L220.885 71.9963C220.885 71.8912 220.948 71.7962 221.045 71.7558C221.143 71.7157 221.255 71.7378 221.329 71.8123L259.713 110.196C259.762 110.245 259.789 110.311 259.789 110.38L259.789 166.596C259.789 169.228 259.789 169.228 259.713 169.304C259.664 169.353 259.598 169.38 259.529 169.38ZM221.405 130.628L259.268 168.491C259.269 162.347 259.269 113.153 259.269 110.488L221.405 72.6248V130.628Z" fill="white"/>
<path d="M221.146 130.737L259.529 169.12H200.732L162.348 130.737L221.146 130.736V130.737Z" fill="url(#paint8_linear_1254_1262)"/>
<path d="M259.529 169.38C259.393 169.38 201.318 169.38 200.731 169.38C200.662 169.38 200.596 169.353 200.547 169.304L162.164 130.92C162.089 130.846 162.067 130.734 162.107 130.636C162.147 130.539 162.243 130.476 162.348 130.476L221.145 130.475C221.215 130.475 221.281 130.503 221.33 130.552L259.677 168.899C259.729 168.923 259.745 168.96 259.769 169.02C259.817 169.134 259.777 169.267 259.673 169.336C259.629 169.365 259.579 169.38 259.529 169.38ZM162.976 130.997L200.839 168.859H258.868C258.879 168.859 258.89 168.859 258.9 168.859L221.038 130.997H162.976Z" fill="white"/>
<path d="M162.348 130.736H221.145L221.146 71.9961H162.348V130.736L162.348 130.736Z" fill="url(#paint9_linear_1254_1262)"/>
<path d="M221.145 130.997H162.348C162.204 130.997 162.088 130.88 162.088 130.737V71.9964C162.088 71.8527 162.204 71.7361 162.348 71.7361H221.145C221.289 71.7361 221.406 71.8527 221.406 71.9964L221.406 128.213C221.406 130.844 221.406 130.844 221.329 130.921C221.28 130.969 221.214 130.997 221.145 130.997ZM162.608 130.476H220.885C220.885 126.428 220.885 76.3415 220.885 72.2568H162.608V130.476Z" fill="white"/>
<path d="M292.96 130.736L331.343 169.12V110.38L292.96 71.9961V130.736L292.96 130.736Z" fill="url(#paint10_linear_1254_1262)"/>
<path d="M331.343 169.38C331.274 169.38 331.208 169.353 331.159 169.304L292.776 130.92C292.727 130.871 292.7 130.805 292.7 130.736L292.699 71.9961C292.699 71.8909 292.763 71.7959 292.86 71.7556C292.958 71.7155 293.069 71.7376 293.144 71.8121L331.527 110.196C331.576 110.245 331.604 110.311 331.604 110.38L331.604 166.596C331.604 169.228 331.604 169.228 331.527 169.304C331.478 169.353 331.412 169.38 331.343 169.38ZM293.22 130.628L331.083 168.491C331.083 162.347 331.083 113.153 331.083 110.488L293.22 72.6248V130.628Z" fill="white"/>
<path d="M292.96 130.737L331.343 169.12H272.546L234.162 130.737L292.96 130.736L292.96 130.737Z" fill="url(#paint11_linear_1254_1262)"/>
<path d="M331.343 169.38C331.208 169.38 273.133 169.38 272.546 169.38C272.477 169.38 272.411 169.353 272.362 169.304L233.978 130.92C233.904 130.846 233.881 130.734 233.922 130.636C233.962 130.539 234.057 130.476 234.162 130.476L292.96 130.475C293.029 130.475 293.095 130.503 293.144 130.552L331.491 168.899C331.543 168.923 331.559 168.96 331.584 169.02C331.631 169.134 331.591 169.267 331.488 169.336C331.443 169.365 331.393 169.38 331.343 169.38ZM234.791 130.997L272.654 168.859H330.683C330.693 168.859 330.704 168.859 330.715 168.859L292.852 130.997H234.791Z" fill="white"/>
<path d="M234.162 130.736H292.959L292.96 71.9961H234.162V130.736L234.162 130.736Z" fill="url(#paint12_linear_1254_1262)"/>
<path d="M292.959 130.997H233.902L233.901 71.7361H293.22L293.22 128.213C293.22 130.844 293.22 130.844 293.143 130.921L293.067 130.997H292.959ZM234.422 130.476H292.699C292.699 126.428 292.699 76.3415 292.699 72.2568H234.422V130.476Z" fill="#A33B50"/>
<path d="M149.331 202.493L187.715 240.877V182.137L149.331 143.753V202.493L149.331 202.493Z" fill="url(#paint13_linear_1254_1262)"/>
<path d="M187.714 241.137C187.645 241.137 187.579 241.11 187.53 241.061L149.147 202.677C149.098 202.629 149.071 202.563 149.071 202.493L149.071 143.753C149.071 143.648 149.134 143.553 149.231 143.513C149.329 143.473 149.441 143.495 149.515 143.569L187.899 181.953C187.948 182.002 187.975 182.067 187.975 182.137L187.975 238.353C187.975 240.985 187.975 240.985 187.899 241.061C187.85 241.11 187.784 241.137 187.714 241.137ZM149.591 202.385L187.454 240.248C187.455 234.104 187.455 184.91 187.455 182.244L149.591 144.382V202.385Z" fill="white"/>
<path d="M149.331 202.493L187.714 240.877H128.917L90.5336 202.493L149.331 202.493L149.331 202.493Z" fill="url(#paint14_linear_1254_1262)"/>
<path d="M187.714 241.137C187.352 241.137 129.502 241.137 128.917 241.137C128.848 241.137 128.781 241.11 128.733 241.061L90.3495 202.677C90.2751 202.603 90.2527 202.491 90.293 202.394C90.3331 202.296 90.4284 202.233 90.5336 202.233L149.331 202.233C149.4 202.233 149.466 202.26 149.515 202.309L187.862 240.656C187.915 240.68 187.93 240.717 187.955 240.777C188.003 240.892 187.962 241.024 187.859 241.093C187.815 241.123 187.764 241.137 187.714 241.137ZM91.162 202.754L129.025 240.616H187.054C187.064 240.616 187.075 240.616 187.086 240.616L149.223 202.754H91.162Z" fill="white"/>
<path d="M90.5338 202.493H149.331L149.331 143.753H90.5336V202.493L90.5338 202.493Z" fill="url(#paint15_linear_1254_1262)"/>
<path d="M149.331 202.754H90.5338C90.3898 202.754 90.2734 202.637 90.2734 202.494L90.2732 143.753C90.2732 143.684 90.3005 143.618 90.3495 143.569C90.3984 143.52 90.4645 143.493 90.5335 143.493H149.331C149.475 143.493 149.591 143.61 149.591 143.753V202.494C149.591 202.637 149.475 202.754 149.331 202.754ZM90.7939 202.233H149.071V144.013H90.7939V202.233Z" fill="#374EAB"/>
<path d="M127.894 163.885L121.669 172.075V172.206L131.563 170.895V175.351L121.669 174.172V174.303L127.959 182.166L123.831 184.525L119.899 175.351H119.768L115.509 184.59L111.774 182.231L117.999 174.237V174.106L108.302 175.351V170.895L117.934 172.14V172.009L111.774 164.015L115.771 161.722L119.834 170.83H119.965L123.962 161.656L127.894 163.885Z" fill="white"/>
<path d="M221.146 202.494L259.529 240.877L259.529 182.137L221.146 143.753V202.493V202.494Z" fill="url(#paint16_linear_1254_1262)"/>
<path d="M259.529 241.137C259.459 241.137 259.393 241.11 259.345 241.061L220.961 202.677C220.912 202.629 220.885 202.563 220.885 202.493L220.885 143.753C220.885 143.648 220.948 143.553 221.045 143.513C221.143 143.473 221.255 143.495 221.329 143.569L259.713 181.953C259.762 182.002 259.789 182.067 259.789 182.137L259.789 238.353C259.789 240.985 259.789 240.985 259.713 241.061C259.664 241.11 259.598 241.137 259.529 241.137ZM221.405 202.386L259.268 240.249C259.269 234.104 259.269 184.91 259.269 182.245L221.405 144.382V202.386Z" fill="white"/>
<path d="M221.146 202.494L259.529 240.877H200.732L162.348 202.494L221.146 202.493V202.494Z" fill="url(#paint17_linear_1254_1262)"/>
<path d="M259.529 241.137C259.167 241.137 201.317 241.137 200.731 241.137C200.662 241.137 200.596 241.11 200.547 241.061L162.164 202.678C162.089 202.603 162.067 202.491 162.107 202.394C162.147 202.296 162.243 202.233 162.348 202.233L221.145 202.233C221.215 202.233 221.281 202.261 221.33 202.309L259.677 240.657C259.729 240.68 259.745 240.717 259.769 240.777C259.817 240.892 259.777 241.024 259.673 241.093C259.629 241.123 259.579 241.137 259.529 241.137ZM162.976 202.754L200.839 240.617H258.868C258.879 240.617 258.89 240.617 258.9 240.617L221.038 202.754H162.976Z" fill="white"/>
<path d="M162.348 202.494H221.145L221.146 143.753H162.348V202.493L162.348 202.494Z" fill="url(#paint18_linear_1254_1262)"/>
<path d="M221.145 202.754H162.348C162.204 202.754 162.088 202.638 162.088 202.494V143.753C162.088 143.61 162.204 143.493 162.348 143.493H221.145C221.289 143.493 221.406 143.61 221.406 143.753L221.406 199.97C221.406 202.601 221.406 202.601 221.329 202.678C221.28 202.726 221.214 202.754 221.145 202.754ZM162.608 202.233H220.885C220.885 198.185 220.885 148.099 220.885 144.014H162.608V202.233Z" fill="white"/>
<path d="M191.746 150.085C185.56 154.056 178.309 155.415 170.033 154.259C170.991 171.219 179.266 186.215 191.746 196.162C204.227 186.215 212.502 171.219 213.459 154.259C205.184 155.416 197.933 154.057 191.746 150.085Z" fill="white"/>
<path d="M191.747 196.328L191.666 196.264C178.762 185.979 170.83 170.672 169.904 154.266L169.895 154.108L170.051 154.13C178.309 155.283 185.585 153.886 191.676 149.975L191.747 149.93L191.817 149.975C197.909 153.886 205.183 155.284 213.442 154.13L213.599 154.108L213.59 154.266C212.664 170.671 204.732 185.979 191.828 196.264L191.747 196.328ZM170.172 154.41C171.134 170.646 178.99 185.791 191.746 195.996C204.502 185.791 212.358 170.646 213.32 154.41C205.094 155.529 197.838 154.126 191.747 150.239C185.654 154.126 178.398 155.529 170.172 154.41Z" fill="white"/>
<path d="M191.746 180.378C196.796 180.378 200.889 176.284 200.889 171.235C200.889 166.185 196.796 162.092 191.746 162.092C186.697 162.092 182.604 166.185 182.604 171.235C182.604 176.284 186.697 180.378 191.746 180.378Z" fill="white"/>
<path d="M190.758 175.968C190.209 175.968 189.692 175.754 189.303 175.365L185.598 171.659L187.439 169.819L190.758 173.139L196.676 167.221L198.516 169.062L192.214 175.365C191.825 175.754 191.308 175.968 190.758 175.968Z" fill="url(#paint19_linear_1254_1262)"/>
<path d="M292.96 202.493L331.343 240.877V182.137L292.96 143.753V202.493L292.96 202.493Z" fill="url(#paint20_linear_1254_1262)"/>
<path d="M331.343 241.137C331.274 241.137 331.208 241.11 331.159 241.061L292.776 202.677C292.727 202.629 292.7 202.563 292.7 202.493L292.699 143.753C292.699 143.648 292.763 143.553 292.86 143.513C292.958 143.473 293.069 143.495 293.144 143.569L331.527 181.953C331.576 182.002 331.604 182.067 331.604 182.137L331.604 238.353C331.604 240.985 331.604 240.985 331.527 241.061C331.478 241.11 331.412 241.137 331.343 241.137ZM293.22 202.385L331.083 240.248C331.083 234.104 331.083 184.91 331.083 182.244L293.22 144.382V202.385Z" fill="white"/>
<path d="M292.96 202.493L331.343 240.877H272.546L234.162 202.493L292.96 202.493L292.96 202.493Z" fill="url(#paint21_linear_1254_1262)"/>
<path d="M331.343 241.137C330.981 241.137 273.131 241.137 272.546 241.137C272.477 241.137 272.411 241.11 272.362 241.061L233.978 202.677C233.904 202.603 233.881 202.491 233.922 202.394C233.962 202.296 234.057 202.233 234.162 202.233L292.96 202.233C293.029 202.233 293.095 202.26 293.144 202.309L331.491 240.656C331.543 240.68 331.559 240.717 331.584 240.777C331.631 240.892 331.591 241.024 331.488 241.093C331.443 241.123 331.393 241.137 331.343 241.137ZM234.791 202.754L272.654 240.616H330.683C330.693 240.616 330.704 240.616 330.715 240.616L292.852 202.754H234.791Z" fill="white"/>
<path d="M234.162 202.493H292.959L292.96 143.753H234.162V202.493L234.162 202.493Z" fill="url(#paint22_linear_1254_1262)"/>
<path d="M292.959 202.754H234.162C234.018 202.754 233.902 202.637 233.902 202.494L233.901 143.753C233.901 143.684 233.929 143.618 233.978 143.569C234.027 143.52 234.093 143.493 234.162 143.493H292.96C293.104 143.493 293.22 143.61 293.22 143.753L293.22 199.969C293.22 202.601 293.22 202.601 293.143 202.678C293.095 202.726 293.029 202.754 292.959 202.754ZM234.422 202.233H292.699C292.699 198.185 292.699 148.098 292.699 144.014H234.422V202.233Z" fill="white"/>
<path d="M256.544 178.405C256.4 178.405 256.254 178.365 256.123 178.281L249.107 173.781C248.884 173.637 248.748 173.389 248.748 173.123C248.748 172.857 248.884 172.609 249.107 172.466L256.123 167.965C256.487 167.732 256.97 167.838 257.203 168.201C257.436 168.564 257.33 169.047 256.967 169.28L250.976 173.123L256.967 176.967C257.33 177.2 257.436 177.683 257.203 178.046C257.053 178.278 256.802 178.405 256.544 178.405Z" fill="white"/>
<path d="M270.578 178.405C270.321 178.405 270.069 178.278 269.92 178.046C269.687 177.683 269.792 177.199 270.155 176.966L276.147 173.123L270.155 169.28C269.792 169.047 269.687 168.563 269.92 168.2C270.153 167.837 270.635 167.732 270.999 167.965L278.015 172.465C278.239 172.609 278.375 172.857 278.375 173.123C278.375 173.389 278.239 173.637 278.015 173.78L270.999 178.281C270.868 178.365 270.722 178.405 270.578 178.405Z" fill="white"/>
<path d="M258.652 182.679C258.523 182.679 258.392 182.647 258.271 182.58C257.895 182.369 257.76 181.893 257.971 181.517L267.788 163.967C267.999 163.59 268.475 163.456 268.851 163.667C269.228 163.877 269.362 164.353 269.152 164.73L259.334 182.279C259.191 182.535 258.925 182.679 258.652 182.679Z" fill="white"/>
<path d="M149.331 274.25L187.715 312.634V253.894L149.331 215.51V274.25H149.331Z" fill="url(#paint23_linear_1254_1262)"/>
<path d="M187.714 312.894C187.645 312.894 187.579 312.867 187.53 312.818L149.147 274.434C149.098 274.385 149.071 274.32 149.071 274.25L149.07 215.51C149.07 215.405 149.134 215.31 149.231 215.27C149.329 215.229 149.441 215.252 149.515 215.326L187.898 253.71C187.947 253.758 187.975 253.824 187.975 253.894L187.974 310.11C187.974 312.742 187.974 312.742 187.898 312.818C187.85 312.867 187.783 312.894 187.714 312.894ZM149.591 274.143L187.454 312.006C187.454 305.861 187.454 256.667 187.454 254.002L149.592 216.139L149.591 274.143Z" fill="white"/>
<path d="M149.331 274.25L187.714 312.634H128.917L90.5336 274.25H149.331H149.331Z" fill="url(#paint24_linear_1254_1262)"/>
<path d="M187.714 312.894C187.352 312.894 129.503 312.894 128.917 312.894C128.848 312.894 128.782 312.867 128.733 312.818L90.3495 274.434C90.2751 274.36 90.2527 274.248 90.293 274.151C90.3331 274.053 90.4284 273.99 90.5336 273.99L149.331 273.99C149.4 273.99 149.466 274.017 149.515 274.066L187.862 312.413C187.915 312.437 187.93 312.474 187.955 312.534C188.003 312.649 187.962 312.781 187.859 312.85C187.815 312.88 187.765 312.894 187.714 312.894ZM91.1623 274.511L129.025 312.374H187.054C187.065 312.374 187.075 312.374 187.086 312.374L149.223 274.511H91.1623Z" fill="white"/>
<path d="M90.5338 274.25H149.331L149.331 215.51H90.5336V274.25H90.5338Z" fill="url(#paint25_linear_1254_1262)"/>
<path d="M149.331 274.511H90.5338C90.3898 274.511 90.2734 274.395 90.2734 274.251L90.2732 215.511C90.2732 215.441 90.3005 215.375 90.3495 215.327C90.3984 215.278 90.4645 215.25 90.5335 215.25H149.331C149.475 215.25 149.591 215.367 149.591 215.511V274.251C149.591 274.395 149.475 274.511 149.331 274.511ZM90.7939 273.99H149.071V215.771H90.7939V273.99Z" fill="white"/>
<path d="M112.915 250.162C112.771 250.162 112.625 250.122 112.494 250.038L105.478 245.538C105.255 245.394 105.119 245.146 105.119 244.88C105.119 244.615 105.255 244.366 105.478 244.223L112.494 239.722C112.858 239.489 113.341 239.595 113.574 239.958C113.807 240.321 113.701 240.804 113.338 241.037L107.347 244.881L113.338 248.724C113.701 248.957 113.807 249.44 113.574 249.803C113.424 250.035 113.173 250.162 112.915 250.162Z" fill="white"/>
<path d="M126.949 250.162C126.692 250.162 126.44 250.035 126.291 249.803C126.058 249.44 126.164 248.956 126.526 248.723L132.518 244.88L126.526 241.037C126.164 240.804 126.058 240.321 126.291 239.957C126.524 239.594 127.007 239.489 127.37 239.722L134.386 244.223C134.61 244.366 134.746 244.614 134.746 244.88C134.746 245.146 134.61 245.394 134.386 245.537L127.37 250.038C127.239 250.122 127.093 250.162 126.949 250.162Z" fill="white"/>
<path d="M115.023 254.436C114.894 254.436 114.763 254.404 114.642 254.337C114.266 254.126 114.131 253.65 114.342 253.274L124.159 235.724C124.37 235.348 124.846 235.213 125.222 235.424C125.599 235.634 125.733 236.11 125.523 236.487L115.705 254.037C115.562 254.292 115.296 254.436 115.023 254.436Z" fill="white"/>
<path d="M221.146 274.25L259.529 312.634L259.529 253.894L221.146 215.51V274.25Z" fill="url(#paint26_linear_1254_1262)"/>
<path d="M259.529 312.894C259.459 312.894 259.393 312.867 259.345 312.818L220.961 274.434C220.913 274.385 220.885 274.32 220.885 274.25L220.885 215.51C220.885 215.405 220.948 215.31 221.046 215.27C221.143 215.229 221.255 215.252 221.329 215.326L259.713 253.71C259.762 253.758 259.789 253.824 259.789 253.894L259.789 310.11C259.789 312.742 259.789 312.742 259.713 312.818C259.664 312.867 259.598 312.894 259.529 312.894ZM221.406 274.143L259.268 312.006C259.269 305.861 259.269 256.667 259.269 254.002L221.406 216.139V274.143Z" fill="white"/>
<path d="M221.146 274.25L259.529 312.634H200.732L162.348 274.25H221.146Z" fill="url(#paint27_linear_1254_1262)"/>
<path d="M259.529 312.894C259.167 312.894 201.317 312.894 200.732 312.894C200.662 312.894 200.596 312.867 200.547 312.818L162.164 274.434C162.089 274.36 162.067 274.248 162.107 274.151C162.147 274.053 162.243 273.99 162.348 273.99L221.145 273.99C221.215 273.99 221.281 274.017 221.33 274.066L259.676 312.413C259.729 312.437 259.745 312.474 259.769 312.534C259.817 312.649 259.776 312.781 259.673 312.85C259.629 312.88 259.579 312.894 259.529 312.894ZM162.977 274.511L200.84 312.374H258.869C258.879 312.374 258.89 312.374 258.9 312.374L221.038 274.511H162.977Z" fill="white"/>
<path d="M162.348 274.25H221.145L221.146 215.51H162.348V274.25H162.348Z" fill="url(#paint28_linear_1254_1262)"/>
<path d="M221.145 274.511H162.348C162.204 274.511 162.088 274.395 162.088 274.251V215.511C162.088 215.367 162.204 215.25 162.348 215.25H221.145C221.289 215.25 221.406 215.367 221.406 215.511L221.406 271.727C221.406 274.359 221.406 274.359 221.329 274.435C221.28 274.484 221.214 274.511 221.145 274.511ZM162.608 273.99H220.885C220.885 269.942 220.885 219.856 220.885 215.771H162.608V273.99Z" fill="#374EAB"/>
<path d="M191.747 228.391C182.639 228.391 175.257 235.773 175.257 244.881C175.257 248.056 176.156 251.02 177.711 253.536L185.584 245.663C186.141 245.105 186.409 244.328 186.338 243.544C186.138 241.343 186.881 239.074 188.565 237.39C190.47 235.485 193.123 234.786 195.578 235.29L190.056 240.812L191.933 244.931L196.052 246.808L201.574 241.286C202.078 243.741 201.379 246.394 199.474 248.299C197.632 250.141 195.09 250.857 192.703 250.446C191.867 250.302 191.014 250.577 190.414 251.176L182.837 258.753C185.407 260.407 188.463 261.371 191.747 261.371C200.854 261.371 208.237 253.988 208.237 244.881C208.237 235.773 200.854 228.391 191.747 228.391Z" fill="white"/>
<path d="M292.96 274.25L331.343 312.634V253.894L292.96 215.51V274.25H292.96Z" fill="url(#paint29_linear_1254_1262)"/>
<path d="M331.343 312.894C331.274 312.894 331.208 312.867 331.159 312.818L292.776 274.434C292.727 274.385 292.7 274.32 292.7 274.25L292.699 215.51C292.699 215.405 292.763 215.31 292.86 215.27C292.958 215.229 293.069 215.252 293.144 215.326L331.527 253.71C331.576 253.758 331.604 253.824 331.604 253.894L331.604 310.11C331.604 312.742 331.604 312.742 331.527 312.818C331.478 312.867 331.412 312.894 331.343 312.894ZM293.22 274.143L331.083 312.006C331.083 305.861 331.083 256.667 331.083 254.002L293.22 216.139V274.143Z" fill="white"/>
<path d="M292.96 274.25L331.343 312.634H272.546L234.162 274.25H292.96H292.96Z" fill="url(#paint30_linear_1254_1262)"/>
<path d="M331.343 312.894C330.981 312.894 273.131 312.894 272.546 312.894C272.477 312.894 272.411 312.867 272.362 312.818L233.978 274.434C233.904 274.36 233.881 274.248 233.922 274.151C233.962 274.053 234.057 273.99 234.162 273.99L292.96 273.99C293.029 273.99 293.095 274.017 293.144 274.066L331.491 312.413C331.543 312.437 331.559 312.474 331.584 312.534C331.631 312.649 331.591 312.781 331.488 312.85C331.443 312.88 331.393 312.894 331.343 312.894ZM234.791 274.511L272.654 312.374H330.683C330.693 312.374 330.704 312.374 330.715 312.374L292.852 274.511H234.791Z" fill="white"/>
<path d="M234.162 274.25H292.959L292.96 215.51H234.162V274.25H234.162Z" fill="url(#paint31_linear_1254_1262)"/>
<path d="M292.959 274.511H234.162C234.018 274.511 233.902 274.395 233.902 274.251L233.901 215.511C233.901 215.441 233.929 215.375 233.978 215.327C234.027 215.278 234.093 215.25 234.162 215.25H292.96C293.104 215.25 293.22 215.367 293.22 215.511L293.22 271.727C293.22 274.359 293.22 274.359 293.143 274.435C293.095 274.484 293.029 274.511 292.959 274.511ZM234.422 273.99H292.699C292.699 269.942 292.699 219.856 292.699 215.771H234.422V273.99Z" fill="#374EAB"/>
<path d="M242.181 224.653H240.257V225.955H242.181V224.653Z" fill="white"/>
<path d="M251.588 224.653H243.249V225.955H251.588V224.653Z" fill="white"/>
<path d="M264.203 224.653H252.657V225.955H264.203V224.653Z" fill="#ED637F"/>
<path d="M267.196 224.653H265.272V225.955H267.196V224.653Z" fill="#ED637F"/>
<path d="M270.189 224.653H268.265V225.955H270.189V224.653Z" fill="#ED637F"/>
<path d="M279.596 224.653H271.258V225.955H279.596V224.653Z" fill="#ED637F"/>
<path d="M282.589 224.653H280.665V225.955H282.589V224.653Z" fill="#ED637F"/>
<path d="M243.249 227.567H240.256V228.868H243.249V227.567Z" fill="white"/>
<path d="M251.588 227.567H244.318V228.868H251.588V227.567Z" fill="white"/>
<path d="M254.58 227.567H252.656V228.868H254.58V227.567Z" fill="white"/>
<path d="M267.195 227.567H255.649V228.868H267.195V227.567Z" fill="white"/>
<path d="M270.189 227.567H268.265V228.868H270.189V227.567Z" fill="white"/>
<path d="M273.181 227.567H271.258V228.868H273.181V227.567Z" fill="white"/>
<path d="M282.589 227.567H274.25V228.868H282.589V227.567Z" fill="white"/>
<path d="M252.871 230.48H244.533V231.781H252.871V230.48Z" fill="white"/>
<path d="M255.864 230.48H253.94V231.781H255.864V230.48Z" fill="white"/>
<path d="M265.272 230.48H256.933V231.781H265.272V230.48Z" fill="white"/>
<path d="M276.818 230.48H266.341V231.781H276.818V230.48Z" fill="#ED637F"/>
<path d="M279.811 230.48H277.887V231.781H279.811V230.48Z" fill="#ED637F"/>
<path d="M284.941 230.48H280.88V231.781H284.941V230.48Z" fill="#ED637F"/>
<path d="M286.866 230.48H286.011V231.781H286.866V230.48Z" fill="#ED637F"/>
<path d="M245.387 233.393H244.533V234.695H245.387V233.393Z" fill="white"/>
<path d="M255.864 233.393H246.457V234.695H255.864V233.393Z" fill="white"/>
<path d="M269.548 233.393H256.933V234.695H269.548V233.393Z" fill="white"/>
<path d="M275.749 233.393H270.617V234.695H275.749V233.393Z" fill="#ED637F"/>
<path d="M281.949 233.393H276.818V234.695H281.949V233.393Z" fill="#ED637F"/>
<path d="M284.942 233.393H283.018V234.695H284.942V233.393Z" fill="#ED637F"/>
<path d="M286.866 233.393H286.011V234.695H286.866V233.393Z" fill="#ED637F"/>
<path d="M244.319 236.307H240.256V237.608H244.319V236.307Z" fill="white"/>
<path d="M251.587 236.307H245.387V237.608H251.587V236.307Z" fill="white"/>
<path d="M254.58 236.307H252.656V237.608H254.58V236.307Z" fill="#ED637F"/>
<path d="M267.195 236.307H255.649V237.608H267.195V236.307Z" fill="#ED637F"/>
<path d="M273.396 236.307H268.265V237.608H273.396V236.307Z" fill="white"/>
<path d="M276.389 236.307H274.465V237.608H276.389V236.307Z" fill="#ED637F"/>
<path d="M282.589 236.307H277.458V237.608H282.589V236.307Z" fill="#ED637F"/>
<path d="M246.457 239.22H244.533V240.521H246.457V239.22Z" fill="white"/>
<path d="M255.864 239.22H247.526V240.521H255.864V239.22Z" fill="white"/>
<path d="M258.857 239.22H256.933V240.521H258.857V239.22Z" fill="white"/>
<path d="M274.679 239.22H259.926V240.521H274.679V239.22Z" fill="white"/>
<path d="M277.673 239.22H275.749V240.521H277.673V239.22Z" fill="white"/>
<path d="M283.872 239.22H278.741V240.521H283.872V239.22Z" fill="white"/>
<path d="M286.866 239.22H284.941V240.521H286.866V239.22Z" fill="white"/>
<path d="M247.526 242.133H244.533V243.435H247.526V242.133Z" fill="white"/>
<path d="M255.864 242.133H248.595V243.435H255.864V242.133Z" fill="white"/>
<path d="M268.479 242.133H256.933V243.435H268.479V242.133Z" fill="white"/>
<path d="M272.541 242.133H269.548V243.435H272.541V242.133Z" fill="#ED637F"/>
<path d="M283.018 242.133H273.61V243.435H283.018V242.133Z" fill="#ED637F"/>
<path d="M284.941 242.133H284.087V243.435H284.941V242.133Z" fill="#ED637F"/>
<path d="M286.866 242.133H286.011V243.435H286.866V242.133Z" fill="#ED637F"/>
<path d="M242.18 246.326H240.256V247.628H242.18V246.326Z" fill="white"/>
<path d="M251.588 246.326H243.249V247.628H251.588V246.326Z" fill="white"/>
<path d="M264.203 246.326H252.656V247.628H264.203V246.326Z" fill="#ED637F"/>
<path d="M267.196 246.326H265.272V247.628H267.196V246.326Z" fill="#ED637F"/>
<path d="M270.189 246.326H268.265V247.628H270.189V246.326Z" fill="#ED637F"/>
<path d="M279.596 246.326H271.258V247.628H279.596V246.326Z" fill="#ED637F"/>
<path d="M282.589 246.326H280.665V247.628H282.589V246.326Z" fill="#ED637F"/>
<path d="M243.249 249.24H240.256V250.541H243.249V249.24Z" fill="white"/>
<path d="M251.588 249.24H244.318V250.541H251.588V249.24Z" fill="white"/>
<path d="M254.58 249.24H252.656V250.541H254.58V249.24Z" fill="white"/>
<path d="M267.195 249.24H255.649V250.541H267.195V249.24Z" fill="white"/>
<path d="M270.189 249.24H268.265V250.541H270.189V249.24Z" fill="white"/>
<path d="M273.181 249.24H271.258V250.541H273.181V249.24Z" fill="white"/>
<path d="M282.589 249.24H274.25V250.541H282.589V249.24Z" fill="white"/>
<path d="M252.871 252.153H244.533V253.455H252.871V252.153Z" fill="white"/>
<path d="M255.864 252.153H253.94V253.455H255.864V252.153Z" fill="white"/>
<path d="M265.272 252.153H256.933V253.455H265.272V252.153Z" fill="white"/>
<path d="M276.818 252.153H266.341V253.455H276.818V252.153Z" fill="#ED637F"/>
<path d="M279.811 252.153H277.887V253.455H279.811V252.153Z" fill="#ED637F"/>
<path d="M284.941 252.153H280.88V253.455H284.941V252.153Z" fill="#ED637F"/>
<path d="M286.866 252.153H286.011V253.455H286.866V252.153Z" fill="#ED637F"/>
<path d="M245.387 255.066H244.533V256.368H245.387V255.066Z" fill="white"/>
<path d="M255.864 255.066H246.457V256.368H255.864V255.066Z" fill="white"/>
<path d="M269.548 255.066H256.933V256.368H269.548V255.066Z" fill="white"/>
<path d="M275.749 255.066H270.617V256.368H275.749V255.066Z" fill="#ED637F"/>
<path d="M281.949 255.066H276.818V256.368H281.949V255.066Z" fill="#ED637F"/>
<path d="M284.942 255.066H283.018V256.368H284.942V255.066Z" fill="#ED637F"/>
<path d="M286.866 255.066H286.011V256.368H286.866V255.066Z" fill="#ED637F"/>
<path d="M244.319 257.98H240.256V259.281H244.319V257.98Z" fill="white"/>
<path d="M251.587 257.98H245.387V259.281H251.587V257.98Z" fill="white"/>
<path d="M254.58 257.98H252.656V259.281H254.58V257.98Z" fill="#ED637F"/>
<path d="M267.195 257.98H255.649V259.281H267.195V257.98Z" fill="#ED637F"/>
<path d="M273.396 257.98H268.265V259.281H273.396V257.98Z" fill="white"/>
<path d="M276.389 257.98H274.465V259.281H276.389V257.98Z" fill="#ED637F"/>
<path d="M282.589 257.98H277.458V259.281H282.589V257.98Z" fill="#ED637F"/>
<path d="M246.457 260.893H244.533V262.195H246.457V260.893Z" fill="white"/>
<path d="M255.864 260.893H247.526V262.195H255.864V260.893Z" fill="white"/>
<path d="M258.857 260.893H256.933V262.195H258.857V260.893Z" fill="white"/>
<path d="M274.679 260.893H259.926V262.195H274.679V260.893Z" fill="white"/>
<path d="M277.673 260.893H275.749V262.195H277.673V260.893Z" fill="white"/>
<path d="M283.872 260.893H278.741V262.195H283.872V260.893Z" fill="white"/>
<path d="M286.866 260.893H284.941V262.195H286.866V260.893Z" fill="white"/>
<path d="M247.526 263.806H244.533V265.108H247.526V263.806Z" fill="white"/>
<path d="M255.864 263.806H248.595V265.108H255.864V263.806Z" fill="white"/>
<path d="M268.479 263.806H256.933V265.108H268.479V263.806Z" fill="white"/>
<path d="M272.541 263.806H269.548V265.108H272.541V263.806Z" fill="#ED637F"/>
<path d="M283.018 263.806H273.61V265.108H283.018V263.806Z" fill="#ED637F"/>
<path d="M284.941 263.806H284.087V265.108H284.941V263.806Z" fill="#ED637F"/>
<path d="M286.866 263.806H286.011V265.108H286.866V263.806Z" fill="#ED637F"/>
<path d="M331.343 240.877L341.044 250.578L341.045 191.838L331.343 182.137V240.877L331.343 240.877Z" fill="url(#paint32_linear_1254_1262)"/>
<path d="M341.044 250.839C340.975 250.839 340.909 250.811 340.86 250.762L331.159 241.061C331.11 241.012 331.083 240.946 331.083 240.877L331.083 182.137C331.083 182.031 331.146 181.936 331.243 181.896C331.341 181.856 331.453 181.878 331.527 181.953L341.229 191.654C341.278 191.703 341.305 191.769 341.305 191.838L341.305 248.054C341.305 250.686 341.305 250.686 341.228 250.762C341.18 250.811 341.114 250.839 341.044 250.839ZM331.604 240.769L340.784 249.95C340.785 243.805 340.785 194.612 340.785 191.946L331.604 182.765V240.769Z" fill="white"/>
<path d="M331.343 240.877L341.044 250.578H282.247L272.546 240.877L331.343 240.877L331.343 240.877Z" fill="url(#paint33_linear_1254_1262)"/>
<path d="M341.044 250.839C340.908 250.838 282.834 250.839 282.247 250.839C282.178 250.839 282.112 250.811 282.063 250.762L272.361 241.061C272.287 240.986 272.265 240.874 272.305 240.777C272.345 240.68 272.44 240.616 272.545 240.616L331.343 240.616C331.412 240.616 331.479 240.644 331.527 240.693L341.192 250.358C341.244 250.382 341.26 250.419 341.285 250.479C341.332 250.593 341.292 250.726 341.189 250.795C341.145 250.824 341.094 250.839 341.044 250.839ZM273.174 241.137L282.355 250.318H340.384C340.395 250.318 340.405 250.318 340.416 250.318L331.235 241.137H273.174Z" fill="url(#paint34_linear_1254_1262)"/>
<path d="M272.546 240.877H331.343V182.136H272.546V240.876L272.546 240.877Z" fill="url(#paint35_linear_1254_1262)"/>
<path d="M331.343 241.137H272.546C272.402 241.137 272.286 241.021 272.286 240.877L272.285 182.136C272.285 182.067 272.313 182.001 272.362 181.952C272.411 181.904 272.476 181.876 272.546 181.876H331.344C331.487 181.876 331.604 181.992 331.604 182.136L331.604 238.353C331.604 240.984 331.604 240.984 331.527 241.061C331.478 241.11 331.412 241.137 331.343 241.137ZM272.806 240.616H331.083C331.083 236.568 331.083 186.481 331.083 182.397H272.806V240.616Z" fill="white"/>
<path d="M288.698 221.361C286.164 221.361 284.11 219.307 284.11 216.773C284.11 214.239 286.165 212.185 288.698 212.185C289.427 212.185 290.113 212.359 290.725 212.661C290.681 212.283 290.655 211.898 290.655 211.507C290.655 206.065 295.067 201.653 300.51 201.653C305.179 201.653 309.087 204.901 310.104 209.26C311.048 208.722 312.14 208.413 313.304 208.413C316.88 208.413 319.778 211.312 319.778 214.887C319.778 218.463 316.88 221.361 313.304 221.361H288.698Z" fill="white"/>
<path d="M77.8611 59.2656L87.5621 68.9669L87.5624 10.2267L77.8608 0.525391V59.2654L77.8611 59.2656Z" fill="url(#paint36_linear_1254_1262)"/>
<path d="M87.5621 69.2273C87.4929 69.2273 87.4267 69.1997 87.378 69.151L77.677 59.4494C77.6281 59.4005 77.6007 59.3344 77.6007 59.2654L77.6005 0.525412C77.6005 0.420235 77.6637 0.325208 77.7611 0.284855C77.859 0.244763 77.9704 0.266895 78.0449 0.341352L87.7464 10.0427C87.7954 10.0916 87.8227 10.1577 87.8227 10.2267L87.8225 66.4429C87.8225 69.0747 87.8224 69.0747 87.7462 69.151C87.6972 69.2 87.6314 69.2273 87.5621 69.2273ZM78.1211 59.1576L87.3018 68.3388C87.302 62.194 87.302 13.0006 87.302 10.3348L78.1211 1.15413V59.1576Z" fill="white"/>
<path d="M77.8612 59.2657L87.5623 68.967H28.765L19.0637 59.2657L77.861 59.2654L77.8612 59.2657Z" fill="url(#paint37_linear_1254_1262)"/>
<path d="M87.5619 69.2274C87.4258 69.2269 29.3515 69.2274 28.7649 69.2274C28.6957 69.2274 28.6296 69.1998 28.5809 69.1511L18.8793 59.4495C18.8049 59.3751 18.7825 59.2631 18.8228 59.1658C18.8629 59.0687 18.9582 59.0051 19.0634 59.0051H77.8609C77.9301 59.0051 77.9965 59.0327 78.0452 59.0814L87.7098 68.7465C87.7624 68.7702 87.778 68.8077 87.8025 68.8673C87.8501 68.9821 87.8098 69.1144 87.7067 69.1834C87.6624 69.2128 87.6122 69.2274 87.5619 69.2274ZM19.6921 59.5261L28.873 68.707H85.0361H86.9022C86.9129 68.707 86.9236 68.707 86.934 68.707L77.7536 59.5261H19.6921Z" fill="white"/>
<path d="M19.0636 59.2656H77.8606L77.8609 0.525391H19.0634V59.2654L19.0636 59.2656Z" fill="url(#paint38_linear_1254_1262)"/>
<path d="M77.8604 59.526H19.0635C18.9195 59.526 18.8031 59.4094 18.8031 59.2657L18.8029 0.525721C18.8029 0.456731 18.8302 0.390604 18.8791 0.34166C18.9281 0.292716 18.9939 0.265381 19.0632 0.265381H77.861C78.0049 0.265381 78.1213 0.382013 78.1213 0.525721L78.121 58.606C78.121 59.4266 78.121 59.4266 77.9771 59.4987C77.9409 59.5167 77.9011 59.526 77.8604 59.526ZM19.3235 59.0054H77.6004C77.6006 54.9573 77.6006 4.87053 77.6006 0.786061H19.3235V59.0054Z" fill="url(#paint39_linear_1254_1262)"/>
<path d="M56.5452 46.0863H40.3788C38.9982 46.0863 37.8788 44.9671 37.8788 43.5863V27.42C37.8788 26.0394 38.998 24.9199 40.3788 24.9199H56.5452C57.9257 24.9199 59.0452 26.0391 59.0452 27.42V43.5863C59.0452 44.9671 57.926 46.0863 56.5452 46.0863Z" fill="white"/>
<path d="M56.1205 24.92H53.5171V20.0618C53.5171 17.2743 51.2496 15.0065 48.4621 15.0065C45.6747 15.0065 43.4071 17.2743 43.4071 20.0618V24.92H40.8037V20.0618C40.8037 15.8388 44.2392 12.4031 48.4621 12.4031C52.6851 12.4031 56.1205 15.8388 56.1205 20.0618V24.92Z" fill="white"/>
<path d="M51.0225 33.674C51.0225 32.2598 49.8762 31.1133 48.4621 31.1133C47.0479 31.1133 45.9016 32.2598 45.9016 33.674C45.9016 34.6094 46.4088 35.4193 47.1575 35.866L46.7141 39.8922H50.2102L49.7669 35.866C50.5156 35.4193 51.0225 34.6094 51.0225 33.674Z" fill="url(#paint40_linear_1254_1262)"/>
<path d="M245.694 96.5156L255.395 106.217V47.4767L245.693 37.7754V96.5154L245.694 96.5156Z" fill="url(#paint41_linear_1254_1262)"/>
<path d="M255.395 106.477C255.325 106.477 255.259 106.45 255.211 106.401L245.51 96.6997C245.461 96.6508 245.433 96.5846 245.433 96.5156L245.433 37.7754C245.433 37.6702 245.496 37.5752 245.594 37.5349C245.691 37.4948 245.803 37.5169 245.877 37.5913L255.579 47.2927C255.628 47.3416 255.655 47.4077 255.655 47.4767L255.655 103.693C255.655 106.325 255.655 106.325 255.579 106.401C255.53 106.45 255.464 106.477 255.395 106.477ZM245.954 96.4076L255.134 105.588C255.135 99.4437 255.135 50.2501 255.135 47.5845L245.954 38.4039V96.4076Z" fill="white"/>
<path d="M245.693 96.5156L255.394 106.217H196.597L186.896 96.5156L245.693 96.5154L245.693 96.5156Z" fill="url(#paint42_linear_1254_1262)"/>
<path d="M255.394 106.477C255.259 106.477 197.184 106.477 196.597 106.477C196.528 106.477 196.462 106.45 196.413 106.401L186.712 96.6995C186.637 96.6251 186.615 96.5131 186.655 96.4158C186.695 96.3184 186.79 96.2551 186.896 96.2551L245.693 96.2549C245.763 96.2549 245.829 96.2827 245.878 96.3314L255.542 105.997C255.595 106.02 255.611 106.058 255.635 106.117C255.683 106.232 255.642 106.364 255.539 106.433C255.495 106.463 255.445 106.477 255.394 106.477ZM187.525 96.7758L196.705 105.956H252.868H254.734C254.745 105.956 254.756 105.956 254.766 105.956L245.586 96.7758H187.525Z" fill="white"/>
<path d="M186.896 96.5156H245.693L245.693 37.7754H186.896V96.5154L186.896 96.5156Z" fill="url(#paint43_linear_1254_1262)"/>
<path d="M245.693 96.776H186.896C186.752 96.776 186.636 96.6594 186.636 96.5157L186.636 37.7755C186.636 37.7065 186.663 37.6401 186.712 37.5914C186.761 37.5427 186.827 37.5151 186.896 37.5151H245.694C245.838 37.5151 245.954 37.6318 245.954 37.7755L245.954 93.9917C245.954 96.6235 245.954 96.6235 245.878 96.6998C245.829 96.7487 245.763 96.776 245.693 96.776ZM187.156 96.2554H245.433C245.433 92.2073 245.434 42.1205 245.434 38.0358H187.156V96.2554Z" fill="white"/>
<path d="M193.992 49.4668H191.529V50.7685H193.992V49.4668Z" fill="white"/>
<path d="M206.031 49.4668H195.359V50.7685H206.031V49.4668Z" fill="white"/>
<path d="M222.177 49.4668H207.4V50.7685H222.177V49.4668Z" fill="white"/>
<path d="M226.008 49.4668H223.546V50.7685H226.008V49.4668Z" fill="white"/>
<path d="M229.839 49.4668H227.376V50.7685H229.839V49.4668Z" fill="white"/>
<path d="M196.728 52.563H191.529V53.8647H196.728V52.563Z" fill="white"/>
<path d="M206.032 52.563H198.096V53.8647H206.032V52.563Z" fill="white"/>
<path d="M209.862 52.563H207.4V53.8647H209.862V52.563Z" fill="white"/>
<path d="M226.008 52.563H211.231V53.8647H226.008V52.563Z" fill="white"/>
<path d="M229.839 52.563H227.376V53.8647H229.839V52.563Z" fill="white"/>
<path d="M233.669 52.563H231.207V53.8647H233.669V52.563Z" fill="white"/>
<path d="M207.675 55.6589H197.002V56.9606H207.675V55.6589Z" fill="white"/>
<path d="M211.505 55.6589H209.043V56.9606H211.505V55.6589Z" fill="white"/>
<path d="M223.546 55.6589H212.874V56.9606H223.546V55.6589Z" fill="white"/>
<path d="M238.323 55.6589H224.914V56.9606H238.323V55.6589Z" fill="white"/>
<path d="M198.096 58.7549H197.002V60.0566H198.096V58.7549Z" fill="white"/>
<path d="M211.505 58.7549H199.465V60.0566H211.505V58.7549Z" fill="white"/>
<path d="M229.019 58.7549H212.874V60.0566H229.019V58.7549Z" fill="white"/>
<path d="M236.955 58.7549H230.387V60.0566H236.955V58.7549Z" fill="white"/>
<path d="M196.728 61.8508H191.529V63.1525H196.728V61.8508Z" fill="white"/>
<path d="M206.032 61.8508H198.096V63.1525H206.032V61.8508Z" fill="white"/>
<path d="M209.862 61.8508H207.4V63.1525H209.862V61.8508Z" fill="white"/>
<path d="M226.008 61.8508H211.231V63.1525H226.008V61.8508Z" fill="white"/>
<path d="M233.944 61.8508H227.376V63.1525H233.944V61.8508Z" fill="white"/>
<path d="M237.774 61.8508H235.312V63.1525H237.774V61.8508Z" fill="white"/>
<path d="M199.464 64.9465H197.002V66.2482H199.464V64.9465Z" fill="white"/>
<path d="M211.505 64.9465H200.833V66.2482H211.505V64.9465Z" fill="white"/>
<path d="M215.336 64.9465H212.874V66.2482H215.336V64.9465Z" fill="white"/>
<path d="M235.586 64.9465H216.704V66.2482H235.586V64.9465Z" fill="white"/>
<path d="M239.417 64.9465H236.955V66.2482H239.417V64.9465Z" fill="white"/>
<path d="M200.833 68.0427H197.002V69.3444H200.833V68.0427Z" fill="white"/>
<path d="M211.505 68.0427H202.201V69.3444H211.505V68.0427Z" fill="white"/>
<path d="M227.651 68.0427H212.874V69.3444H227.651V68.0427Z" fill="white"/>
<path d="M232.85 68.0427H229.019V69.3444H232.85V68.0427Z" fill="white"/>
<path d="M213.148 71.1387H202.475V72.4404H213.148V71.1387Z" fill="white"/>
<path d="M216.978 71.1387H214.516V72.4404H216.978V71.1387Z" fill="white"/>
<path d="M220.809 71.1387H218.347V72.4404H220.809V71.1387Z" fill="white"/>
<path d="M232.85 71.1387H222.177V72.4404H232.85V71.1387Z" fill="white"/>
<path d="M238.049 71.1387H234.218V72.4404H238.049V71.1387Z" fill="white"/>
<path d="M213.148 74.2344H202.475V75.5361H213.148V74.2344Z" fill="white"/>
<path d="M216.978 74.2344H214.516V75.5361H216.978V74.2344Z" fill="white"/>
<path d="M229.019 74.2344H218.347V75.5361H229.019V74.2344Z" fill="white"/>
<path d="M202.201 77.3301H197.002V78.6318H202.201V77.3301Z" fill="white"/>
<path d="M211.506 77.3301H203.57V78.6318H211.506V77.3301Z" fill="white"/>
<path d="M229.019 77.3301H212.874V78.6318H229.019V77.3301Z" fill="white"/>
<path d="M236.955 77.3301H230.387V78.6318H236.955V77.3301Z" fill="white"/>
<path d="M207.675 80.4263H202.475V81.728H207.675V80.4263Z" fill="white"/>
<path d="M216.978 80.4263H209.043V81.728H216.978V80.4263Z" fill="white"/>
<path d="M220.809 80.4263H218.347V81.728H220.809V80.4263Z" fill="white"/>
<path d="M236.955 80.4263H222.177V81.728H236.955V80.4263Z" fill="white"/>
<path d="M204.938 83.5225H202.475V84.8242H204.938V83.5225Z" fill="white"/>
<path d="M216.978 83.5225H206.306V84.8242H216.978V83.5225Z" fill="white"/>
<path d="M220.809 83.5225H218.347V84.8242H220.809V83.5225Z" fill="white"/>
<path d="M241.06 83.5225H222.177V84.8242H241.06V83.5225Z" fill="white"/>
<path d="M73.9254 349.438C71.3689 348.538 69.8623 345.9 70.4184 343.247C70.9745 340.594 73.273 339.455 75.9759 339.657C77.5603 339.776 79.2122 340.313 80.9309 340.674C84.18 341.355 87.5795 341.077 89.9231 342.893C91.5385 344.145 92.2075 346.187 91.8808 347.746C91.5541 349.305 90.1915 350.57 88.2095 351.068C83.7783 352.18 78.1937 350.941 73.9254 349.438Z" fill="white"/>
<path d="M122.807 315.938C113.186 310.928 82.3395 300.287 82.3395 300.287L69.0846 300.388L55.8296 300.287C55.8296 300.287 24.9833 310.928 15.3621 315.938C5.62308 321.009 7.63316 330.24 14.9112 332.98C26.6882 331.761 50.8642 333.602 69.0846 326.514C88.5322 331.43 112.373 333.195 123.878 332.496C131.156 329.756 132.546 321.009 122.807 315.938Z" fill="#1B1425"/>
<path d="M14.8947 333.113L14.8661 333.102C11.2221 331.73 8.83114 328.758 8.62626 325.346C8.40236 321.619 10.8358 318.148 15.3029 315.822C24.822 310.866 55.4791 300.271 55.7879 300.164L55.809 300.157L55.8314 300.157L69.086 300.258L82.3613 300.157L82.3824 300.164C82.6911 300.27 113.348 310.865 122.867 315.822C127.521 318.245 130.064 321.748 129.842 325.432C129.654 328.561 127.387 331.315 123.925 332.618L123.887 332.626C111.55 333.375 87.6884 331.345 69.0933 326.65C55.7986 331.81 39.0761 332.24 26.8631 332.554C22.1681 332.675 18.1133 332.779 14.9252 333.109L14.8947 333.113ZM55.8514 300.418C54.8933 300.749 24.821 311.16 15.4227 316.053C11.0511 318.33 8.66869 321.711 8.88608 325.331C9.08445 328.63 11.3986 331.508 14.9291 332.848C18.1224 332.519 22.1707 332.415 26.8566 332.295C39.0623 331.981 55.779 331.551 69.0376 326.393L69.0764 326.378L69.1168 326.388C87.6824 331.081 111.517 333.113 123.851 332.368C127.205 331.098 129.401 328.436 129.582 325.416C129.797 321.84 127.306 318.427 122.747 316.053C113.349 311.16 83.2764 300.749 82.3183 300.418L69.0858 300.519L55.8514 300.418Z" fill="#1B1425"/>
<path d="M14.9119 332.98C25.3065 339.563 49.7131 344.606 72.8555 349.828C75.9652 347.848 78.5165 342.684 78.2148 340.039C55.5366 328.733 35.2598 318.871 18.6969 317.498C9.75115 319.357 7.49348 328.282 14.9119 332.98Z" fill="#1B1425"/>
<path d="M64.3865 335.864C66.943 334.964 68.4496 332.326 67.8935 329.673C67.3374 327.02 65.0389 325.881 62.336 326.083C60.7516 326.202 59.0998 326.739 57.3807 327.1C54.1317 327.781 50.7322 327.503 48.3886 329.319C46.7732 330.571 46.1041 332.613 46.4308 334.172C46.7576 335.731 48.1202 336.996 50.1022 337.494C54.5337 338.606 60.1182 337.367 64.3865 335.864Z" fill="white"/>
<path d="M123.156 332.771C110.451 337.131 87.7792 337.775 63.0332 337.922C60.348 335.361 59.222 330.054 60.3642 326.212C84.82 319.575 105.972 314.943 122.483 316.846C130.889 320.425 131.462 329.92 123.156 332.771Z" fill="#1B1425"/>
<path d="M80.2912 298.932L95.652 286.456C96.9613 285.201 97.1956 283.194 96.2109 281.671L91.3376 274.136L104.802 267.737C107.111 272.512 108.671 276.262 110.129 280.052C112.123 285.234 110.281 291.091 105.644 294.143C98.925 298.565 89.3822 302.593 82.2093 303.745L76.6409 305.459L73.0977 308.154L72.7226 305.774C72.5101 303.317 73.9058 300.045 80.2912 298.932Z" fill="#FFA89C"/>
<path d="M58.6306 298.914L43.2698 286.439C41.9605 285.184 41.7262 283.176 42.7108 281.654L47.5841 274.119L34.1193 267.72C31.8106 272.495 30.2507 276.245 28.7925 280.035C26.7986 285.217 28.6405 291.073 33.2779 294.126C39.9968 298.548 49.5395 302.576 56.7124 303.728L62.2808 305.442L65.8241 308.137L66.1992 305.757C66.4116 303.3 65.016 300.028 58.6306 298.914Z" fill="#FFA89C"/>
<path d="M105.887 267.194C102.237 259.641 96.6408 248.979 92.2216 246.907C87.8549 244.34 78.6547 242.573 69.4624 242.573C60.27 242.573 51.0701 244.34 46.7032 246.907C42.0324 249.537 36.8025 259.707 33.1517 267.26L48.492 274.553C50.4172 287.936 52.8045 301.098 52.8045 301.098C53.1989 304.89 61.0393 306.454 69.4624 306.454C77.8854 306.454 85.7253 304.89 86.1202 301.098C86.1202 301.098 88.5591 287.796 90.4736 274.555L105.887 267.194Z" fill="#A535C5"/>
<path d="M74.7259 236.186H64.7578L63.8229 247.454C63.8229 252.456 76.2218 252.456 76.2218 247.454L74.7259 236.186Z" fill="#FFA89C"/>
<path d="M92.7617 285.176H45.7058C44.1081 285.176 42.9066 286.633 43.2112 288.201L47.4714 310.144C47.7034 311.339 48.7495 312.201 49.966 312.201H88.5013C89.7181 312.201 90.7639 311.339 90.9959 310.144L95.256 288.201C95.5609 286.633 94.3594 285.176 92.7617 285.176Z" fill="#FDE4CD"/>
<path d="M88.501 312.331H49.9661C48.6899 312.331 47.5868 311.422 47.3437 310.169L43.0835 288.226C42.9309 287.44 43.1355 286.635 43.6447 286.017C44.154 285.399 44.9053 285.045 45.7059 285.045H92.7615C93.5621 285.045 94.3134 285.399 94.8226 286.017C95.3319 286.635 95.5365 287.44 95.3839 288.226L91.1237 310.169C90.8803 311.422 89.7775 312.331 88.501 312.331ZM45.7059 285.306C44.9834 285.306 44.3052 285.626 43.8455 286.183C43.3857 286.74 43.2011 287.467 43.3391 288.176L47.5993 310.12C47.8188 311.25 48.8141 312.071 49.9661 312.071H88.5013C89.6533 312.071 90.6486 311.25 90.8681 310.12L95.1283 288.176C95.266 287.467 95.0814 286.74 94.6219 286.183C94.1621 285.625 93.4842 285.306 92.7615 285.306H45.7059Z" fill="#6B92FF"/>
<path d="M69.2337 303.447C72.0488 303.447 74.3309 301.899 74.3309 299.99C74.3309 298.081 72.0488 296.533 69.2337 296.533C66.4186 296.533 64.1365 298.081 64.1365 299.99C64.1365 301.899 66.4186 303.447 69.2337 303.447Z" fill="#942179"/>
<path d="M80.2338 228.743C80.1052 228.743 79.9776 228.768 79.8537 228.815V227.299C79.8537 219.374 75.6792 217.975 70.5291 217.975C65.3791 217.975 61.2045 219.373 61.2045 227.299V228.815C61.0806 228.768 60.9533 228.743 60.8244 228.743C60.0523 228.743 59.5337 229.646 59.6662 230.761C59.793 231.828 60.4698 232.7 61.2043 232.774V233.307C61.2043 236.173 62.8965 238.769 65.5186 239.925L69.613 241.731C70.1964 241.988 70.861 241.988 71.4445 241.731L75.5388 239.925C78.1612 238.769 79.8535 236.173 79.8535 233.307V232.774C80.5879 232.7 81.2647 231.828 81.3915 230.761C81.5246 229.646 81.006 228.743 80.2338 228.743Z" fill="#FFA89C"/>
<path d="M66.7355 228.488C66.4038 228.488 66.1351 228.756 66.1351 229.088V230.161C66.1351 230.493 66.4041 230.761 66.7355 230.761C67.0671 230.761 67.3358 230.493 67.3358 230.161V229.088C67.3358 228.756 67.0671 228.488 66.7355 228.488ZM74.3231 228.488C73.9917 228.488 73.7227 228.756 73.7227 229.088V230.161C73.7227 230.493 73.9917 230.761 74.3231 230.761C74.6548 230.761 74.9234 230.493 74.9234 230.161V229.088C74.9234 228.756 74.6545 228.488 74.3231 228.488Z" fill="black"/>
<path d="M80.265 219.227C78.6879 217.975 73.7526 217.416 70.5293 217.416C67.3058 217.416 62.3705 217.975 60.7936 219.227C58.8138 220.8 60.6458 228.788 60.6458 228.788L61.2047 234.984C61.2047 237.85 62.8969 240.446 65.5191 241.602L69.6134 243.408C69.905 243.537 70.2172 243.601 70.5293 243.601C70.8415 243.601 71.1534 243.537 71.4452 243.408L75.5396 241.602C78.162 240.446 79.8542 237.85 79.8542 234.984L80.4131 228.788C80.4126 228.788 82.2446 220.8 80.265 219.227ZM77.7457 232.311C77.615 233.288 76.7585 234.003 75.7736 233.956C74.0853 233.877 71.6233 233.77 70.5291 233.77C69.4348 233.77 66.9728 233.877 65.2845 233.956C64.2999 234.003 63.4434 233.288 63.3124 232.311L62.9813 221.628H78.0763L77.7457 232.311Z" fill="black"/>
<path d="M71.1329 229.625C70.9614 230.682 71.8762 232.535 71.8215 233.523C71.7752 234.362 70.7419 234.59 69.807 233.781L71.1329 229.625Z" fill="#FFA89C"/>
<path d="M70.9744 234.414C70.5738 234.414 70.1247 234.227 69.722 233.879C69.6675 233.832 69.6618 233.75 69.7087 233.695C69.7558 233.641 69.8378 233.635 69.8922 233.682C70.3673 234.093 70.9247 234.254 71.3098 234.089C71.541 233.991 71.6766 233.788 71.6917 233.515C71.7154 233.085 71.5428 232.47 71.36 231.819C71.1372 231.026 70.9068 230.206 71.0046 229.603C71.0161 229.533 71.0833 229.483 71.1538 229.496C71.2246 229.507 71.2731 229.574 71.2613 229.645C71.1728 230.191 71.3954 230.983 71.6105 231.749C71.7995 232.421 71.9778 233.056 71.9518 233.53C71.9315 233.901 71.7344 234.192 71.4118 234.329C71.2767 234.387 71.1293 234.414 70.9744 234.414Z" fill="#FFA296"/>
<path d="M64.9809 226.406L64.8992 227.444L67.7016 227.665L67.7834 226.626L64.9809 226.406Z" fill="black"/>
<path d="M76.0764 226.957L73.2739 227.178L73.3558 228.217L76.1582 227.996L76.0764 226.957Z" fill="black"/>
<path d="M67.7469 236.271C69.5191 237.799 71.3849 237.929 73.3117 237.154L67.7469 236.271Z" fill="white"/>
<path d="M62.9716 222.195C66.4414 220.988 70.1544 224.15 74.9043 224.15C78.8757 224.15 81.8762 219.702 81.8762 216.863C81.8762 214.303 78.9924 211.507 73.7533 211.507C67.8662 211.507 62.9156 214.525 60.7936 219.227L62.9716 222.195Z" fill="black"/>
<path d="M278.095 318.39H275.31V319.692H278.095V318.39Z" fill="url(#paint44_linear_1254_1262)"/>
<path d="M291.717 318.39H279.644V319.692H291.717V318.39Z" fill="url(#paint45_linear_1254_1262)"/>
<path d="M309.982 318.39H293.265V319.692H309.982V318.39Z" fill="url(#paint46_linear_1254_1262)"/>
<path d="M314.316 318.39H311.53V319.692H314.316V318.39Z" fill="url(#paint47_linear_1254_1262)"/>
<path d="M318.649 318.39H315.863V319.692H318.649V318.39Z" fill="url(#paint48_linear_1254_1262)"/>
<path d="M281.191 321.486H275.31V322.788H281.191V321.486Z" fill="url(#paint49_linear_1254_1262)"/>
<path d="M291.717 321.486H282.74V322.788H291.717V321.486Z" fill="url(#paint50_linear_1254_1262)"/>
<path d="M296.05 321.486H293.265V322.788H296.05V321.486Z" fill="url(#paint51_linear_1254_1262)"/>
<path d="M314.315 321.486H297.598V322.788H314.315V321.486Z" fill="url(#paint52_linear_1254_1262)"/>
<path d="M318.649 321.486H315.863V322.788H318.649V321.486Z" fill="url(#paint53_linear_1254_1262)"/>
<path d="M322.983 321.486H320.197V322.788H322.983V321.486Z" fill="url(#paint54_linear_1254_1262)"/>
<path d="M293.575 324.582H281.502V325.884H293.575V324.582Z" fill="url(#paint55_linear_1254_1262)"/>
<path d="M297.909 324.582H295.123V325.884H297.909V324.582Z" fill="url(#paint56_linear_1254_1262)"/>
<path d="M311.53 324.582H299.456V325.884H311.53V324.582Z" fill="url(#paint57_linear_1254_1262)"/>
<path d="M328.247 324.582H313.078V325.884H328.247V324.582Z" fill="url(#paint58_linear_1254_1262)"/>
<path d="M282.739 327.678H281.502V328.98H282.739V327.678Z" fill="url(#paint59_linear_1254_1262)"/>
<path d="M297.908 327.678H284.287V328.98H297.908V327.678Z" fill="url(#paint60_linear_1254_1262)"/>
<path d="M317.722 327.678H299.456V328.98H317.722V327.678Z" fill="url(#paint61_linear_1254_1262)"/>
<path d="M326.699 327.678H319.27V328.98H326.699V327.678Z" fill="url(#paint62_linear_1254_1262)"/>
<path d="M281.191 330.774H275.31V332.075H281.191V330.774Z" fill="url(#paint63_linear_1254_1262)"/>
<path d="M291.717 330.774H282.74V332.075H291.717V330.774Z" fill="url(#paint64_linear_1254_1262)"/>
<path d="M296.05 330.774H293.265V332.075H296.05V330.774Z" fill="url(#paint65_linear_1254_1262)"/>
<path d="M314.315 330.774H297.598V332.075H314.315V330.774Z" fill="url(#paint66_linear_1254_1262)"/>
<path d="M323.293 330.774H315.863V332.075H323.293V330.774Z" fill="url(#paint67_linear_1254_1262)"/>
<path d="M327.627 330.774H324.841V332.075H327.627V330.774Z" fill="url(#paint68_linear_1254_1262)"/>
<path d="M284.287 333.87H281.502V335.171H284.287V333.87Z" fill="url(#paint69_linear_1254_1262)"/>
<path d="M297.909 333.87H285.835V335.171H297.909V333.87Z" fill="url(#paint70_linear_1254_1262)"/>
<path d="M302.242 333.87H299.456V335.171H302.242V333.87Z" fill="url(#paint71_linear_1254_1262)"/>
<path d="M325.151 333.87H303.79V335.171H325.151V333.87Z" fill="url(#paint72_linear_1254_1262)"/>
<path d="M329.485 333.87H326.699V335.171H329.485V333.87Z" fill="url(#paint73_linear_1254_1262)"/>
<path d="M285.835 336.966H281.502V338.267H285.835V336.966Z" fill="url(#paint74_linear_1254_1262)"/>
<path d="M297.909 336.966H287.383V338.267H297.909V336.966Z" fill="url(#paint75_linear_1254_1262)"/>
<path d="M316.174 336.966H299.456V338.267H316.174V336.966Z" fill="url(#paint76_linear_1254_1262)"/>
<path d="M322.056 336.966H317.722V338.267H322.056V336.966Z" fill="url(#paint77_linear_1254_1262)"/>
<path d="M299.767 340.062H287.694V341.363H299.767V340.062Z" fill="url(#paint78_linear_1254_1262)"/>
<path d="M304.101 340.062H301.315V341.363H304.101V340.062Z" fill="url(#paint79_linear_1254_1262)"/>
<path d="M308.434 340.062H305.649V341.363H308.434V340.062Z" fill="url(#paint80_linear_1254_1262)"/>
<path d="M322.055 340.062H309.982V341.363H322.055V340.062Z" fill="url(#paint81_linear_1254_1262)"/>
<path d="M327.937 340.062H323.603V341.363H327.937V340.062Z" fill="url(#paint82_linear_1254_1262)"/>
<path d="M299.767 343.157H287.694V344.459H299.767V343.157Z" fill="url(#paint83_linear_1254_1262)"/>
<path d="M304.101 343.157H301.315V344.459H304.101V343.157Z" fill="url(#paint84_linear_1254_1262)"/>
<path d="M317.722 343.157H305.649V344.459H317.722V343.157Z" fill="url(#paint85_linear_1254_1262)"/>
<path d="M287.383 346.253H281.502V347.555H287.383V346.253Z" fill="url(#paint86_linear_1254_1262)"/>
<path d="M297.908 346.253H288.931V347.555H297.908V346.253Z" fill="url(#paint87_linear_1254_1262)"/>
<path d="M317.722 346.253H299.456V347.555H317.722V346.253Z" fill="url(#paint88_linear_1254_1262)"/>
<path d="M326.699 346.253H319.27V347.555H326.699V346.253Z" fill="url(#paint89_linear_1254_1262)"/>
<path d="M293.575 349.349H287.694V350.651H293.575V349.349Z" fill="url(#paint90_linear_1254_1262)"/>
<path d="M304.101 349.349H295.123V350.651H304.101V349.349Z" fill="url(#paint91_linear_1254_1262)"/>
<path d="M308.434 349.349H305.649V350.651H308.434V349.349Z" fill="url(#paint92_linear_1254_1262)"/>
<path d="M326.699 349.349H309.982V350.651H326.699V349.349Z" fill="url(#paint93_linear_1254_1262)"/>
<path d="M290.479 352.445H287.694V353.747H290.479V352.445Z" fill="url(#paint94_linear_1254_1262)"/>
<path d="M304.101 352.445H292.027V353.747H304.101V352.445Z" fill="url(#paint95_linear_1254_1262)"/>
<path d="M308.434 352.445H305.649V353.747H308.434V352.445Z" fill="url(#paint96_linear_1254_1262)"/>
<path d="M331.343 352.445H309.982V353.747H331.343V352.445Z" fill="url(#paint97_linear_1254_1262)"/>
<path d="M68.0043 130.628L77.9383 140.563V110.488L68.004 100.553V130.628L68.0043 130.628Z" fill="url(#paint98_linear_1254_1262)"/>
<path d="M77.9382 140.823C77.8707 140.823 77.8041 140.797 77.7541 140.747L67.8203 130.812C67.7714 130.763 67.744 130.697 67.744 130.628L67.7438 100.553C67.7438 100.448 67.807 100.353 67.9044 100.313C68.0018 100.273 68.1137 100.295 68.1882 100.369L78.1225 110.304C78.1714 110.352 78.1988 110.419 78.1988 110.488L78.1985 139.27C78.1985 140.723 78.1985 140.723 78.0545 140.795C78.0176 140.814 77.978 140.823 77.9382 140.823ZM68.2645 130.52L77.6778 139.934C77.6781 135.784 77.6781 112.398 77.6781 110.595L68.2645 101.182V130.52Z" fill="url(#paint99_linear_1254_1262)"/>
<path d="M68.0042 130.629L77.9382 140.563H47.8338L37.8998 130.629L68.0039 130.628L68.0042 130.629Z" fill="url(#paint100_linear_1254_1262)"/>
<path d="M77.9381 140.823C77.6734 140.823 48.1331 140.823 47.834 140.823C47.7647 140.823 47.6986 140.796 47.6499 140.747L37.7159 130.813C37.6414 130.738 37.619 130.626 37.6594 130.529C37.6995 130.432 37.7947 130.368 37.8999 130.368L68.0041 130.368C68.0733 130.368 68.1397 130.396 68.1884 130.444L78.1081 140.364C78.1662 140.394 78.1763 140.438 78.1917 140.503C78.2185 140.616 78.1664 140.733 78.0652 140.79C78.0251 140.812 77.9816 140.823 77.9381 140.823ZM73.2346 140.302H76.6447C76.9111 140.302 77.1303 140.302 77.311 140.304L67.8968 130.889H38.5284L47.9417 140.302H73.2346Z" fill="white"/>
<path d="M37.9 130.628H68.0042V100.553H37.8998V130.628L37.9 130.628Z" fill="url(#paint101_linear_1254_1262)"/>
<path d="M68.0041 130.889H37.9C37.756 130.889 37.6397 130.772 37.6397 130.628L37.6394 100.553C37.6394 100.484 37.6667 100.418 37.7157 100.369C37.7646 100.32 37.8305 100.293 37.8997 100.293H68.0041C68.1481 100.293 68.2645 100.41 68.2645 100.553V130.628C68.2645 130.772 68.1481 130.889 68.0041 130.889ZM38.1601 130.368H67.7438V100.814H38.1601V130.368Z" fill="white"/>
<path d="M59.2035 115.777C59.0941 115.777 58.9861 115.783 58.8791 115.793C59.0645 115.25 59.1663 114.669 59.1663 114.063C59.1663 111.101 56.7651 108.699 53.8033 108.699C50.8408 108.699 48.4403 111.101 48.4403 114.063C48.4403 114.214 48.4478 114.364 48.4603 114.511C48.1232 114.421 47.7707 114.368 47.4057 114.368C45.1649 114.368 43.3483 116.184 43.3483 118.426C43.3483 120.666 45.1649 122.483 47.4057 122.483H51.897V118.392H49.2801L53.4328 114.239L57.5855 118.392H54.9678V122.483H59.1668C59.1793 122.481 59.1918 122.483 59.204 122.483C61.0556 122.483 62.5569 120.982 62.5569 119.13C62.5564 117.278 61.0548 115.777 59.2035 115.777Z" fill="#CCDCFF"/>
<path d="M143.237 56.5699H110.952C110.808 56.5699 110.692 56.4533 110.692 56.3096C110.692 56.1659 110.808 56.0493 110.952 56.0493H142.977V37.7752C142.977 37.632 143.092 37.5157 143.236 37.5149L186.895 37.2915C187.039 37.2915 187.156 37.4071 187.156 37.5505C187.157 37.6942 187.041 37.8114 186.897 37.8122L143.497 38.0343V56.3096C143.497 56.4533 143.381 56.5699 143.237 56.5699Z" fill="white"/>
<path d="M348.428 217.448H341.045C340.901 217.448 340.785 217.332 340.785 217.188C340.785 217.044 340.901 216.927 341.045 216.927H348.168V135.657H331.343C331.199 135.657 331.083 135.54 331.083 135.397C331.083 135.253 331.199 135.136 331.343 135.136H348.428C348.572 135.136 348.688 135.253 348.688 135.397V217.188C348.688 217.332 348.572 217.448 348.428 217.448Z" fill="white"/>
<path d="M186.398 360.071L196.332 370.005L196.332 339.93L186.398 329.996V360.071H186.398Z" fill="url(#paint102_linear_1254_1262)"/>
<path d="M196.332 370.265C196.265 370.265 196.198 370.239 196.148 370.189L186.214 360.255C186.165 360.206 186.138 360.14 186.138 360.071V329.996C186.138 329.891 186.201 329.795 186.298 329.755C186.396 329.715 186.508 329.737 186.582 329.812L196.516 339.746C196.565 339.795 196.593 339.861 196.593 339.93V370.005C196.593 370.11 196.529 370.205 196.432 370.245C196.4 370.259 196.366 370.265 196.332 370.265ZM186.658 359.963L196.072 369.376V340.038L186.658 330.624V359.963Z" fill="white"/>
<path d="M186.398 360.071L196.332 370.005H166.228L156.294 360.071H186.398H186.398Z" fill="url(#paint103_linear_1254_1262)"/>
<path d="M196.332 370.265H166.228C166.158 370.265 166.093 370.238 166.044 370.189L156.11 360.255C156.035 360.18 156.013 360.068 156.053 359.971C156.093 359.874 156.188 359.81 156.294 359.81L186.398 359.81C186.467 359.81 186.533 359.838 186.582 359.887L196.516 369.821C196.591 369.895 196.613 370.007 196.573 370.104C196.532 370.202 196.437 370.265 196.332 370.265ZM166.335 369.744H195.704L186.29 360.331H156.922L166.335 369.744Z" fill="white"/>
<path d="M156.294 360.071H186.398V329.996H156.293V360.071H156.294Z" fill="url(#paint104_linear_1254_1262)"/>
<path d="M186.398 360.331H156.294C156.15 360.331 156.033 360.214 156.033 360.07L156.033 329.995C156.033 329.926 156.061 329.86 156.109 329.811C156.158 329.763 156.224 329.735 156.294 329.735H186.398C186.542 329.735 186.659 329.851 186.659 329.995V355.371C186.658 360.178 186.658 360.178 186.582 360.255C186.533 360.303 186.467 360.331 186.398 360.331ZM156.554 359.81H186.138C186.138 357.042 186.138 333.039 186.138 330.256H156.554V359.81Z" fill="white"/>
<path d="M224.312 360.071L234.247 370.005V339.93L224.312 329.996V360.071Z" fill="url(#paint105_linear_1254_1262)"/>
<path d="M234.247 370.265C234.177 370.265 234.111 370.238 234.063 370.189L224.129 360.255C224.08 360.206 224.053 360.14 224.053 360.071L224.052 329.996C224.052 329.891 224.116 329.795 224.213 329.755C224.311 329.715 224.422 329.737 224.497 329.812L234.431 339.746C234.48 339.795 234.507 339.861 234.507 339.93L234.507 368.713C234.507 370.265 234.507 370.265 234.247 370.265ZM224.573 359.962L233.986 369.376C233.986 365.226 233.986 341.84 233.986 340.038L224.573 330.624V359.962Z" fill="white"/>
<path d="M224.312 360.071L234.246 370.005H204.142L194.208 360.071H224.312Z" fill="url(#paint106_linear_1254_1262)"/>
<path d="M234.247 370.265H204.142C204.073 370.265 204.007 370.238 203.958 370.189L194.024 360.255C193.95 360.18 193.927 360.068 193.968 359.971C194.008 359.874 194.103 359.81 194.208 359.81L224.313 359.81C224.382 359.81 224.448 359.838 224.497 359.887L234.431 369.821C234.505 369.895 234.527 370.007 234.487 370.104C234.447 370.202 234.352 370.265 234.247 370.265ZM204.25 369.744H233.618L224.205 360.331H194.837L204.25 369.744Z" fill="url(#paint107_linear_1254_1262)"/>
<path d="M194.208 360.071H224.312L224.312 329.996H194.208V360.071Z" fill="url(#paint108_linear_1254_1262)"/>
<path d="M224.312 360.331H194.208C194.064 360.331 193.948 360.214 193.948 360.07L193.948 329.995C193.948 329.926 193.975 329.86 194.024 329.811C194.073 329.763 194.139 329.735 194.208 329.735H224.313C224.456 329.735 224.573 329.851 224.573 329.995V360.07C224.573 360.214 224.456 360.331 224.312 360.331ZM194.468 359.81H224.052V330.256H194.468V359.81Z" fill="white"/>
<path d="M262.227 360.071L272.161 370.005V339.93L262.227 329.996V360.071Z" fill="url(#paint109_linear_1254_1262)"/>
<path d="M272.161 370.265C272.092 370.265 272.026 370.238 271.977 370.189L262.043 360.255C261.994 360.206 261.967 360.14 261.967 360.071L261.967 329.996C261.967 329.891 262.03 329.795 262.127 329.755C262.225 329.715 262.337 329.737 262.411 329.812L272.345 339.746C272.394 339.795 272.422 339.861 272.422 339.93L272.421 368.713C272.421 370.265 272.421 370.265 272.161 370.265ZM262.487 359.962L271.901 369.376C271.901 365.226 271.901 341.84 271.901 340.038L262.487 330.624V359.962Z" fill="white"/>
<path d="M262.227 360.071L272.161 370.005H242.057L232.122 360.071H262.227Z" fill="url(#paint110_linear_1254_1262)"/>
<path d="M272.161 370.265H242.057C241.987 370.265 241.921 370.238 241.873 370.189L231.939 360.255C231.864 360.18 231.842 360.068 231.882 359.971C231.922 359.874 232.018 359.81 232.123 359.81L262.227 359.81C262.296 359.81 262.362 359.838 262.411 359.887L272.345 369.821C272.419 369.895 272.442 370.007 272.401 370.104C272.361 370.202 272.266 370.265 272.161 370.265ZM242.165 369.744H271.533L262.12 360.331H232.751L242.165 369.744Z" fill="white"/>
<path d="M232.123 360.071H262.227L262.227 329.996H232.123V360.071Z" fill="url(#paint111_linear_1254_1262)"/>
<path d="M262.227 360.331H232.123C231.979 360.331 231.862 360.214 231.862 360.07L231.862 329.995C231.862 329.926 231.89 329.86 231.938 329.811C231.987 329.763 232.053 329.735 232.123 329.735H262.227C262.371 329.735 262.487 329.851 262.487 329.995V360.07C262.487 360.214 262.371 360.331 262.227 360.331ZM232.383 359.81H261.967V330.256H232.383V359.81Z" fill="white"/>
<path d="M175.361 340.374L172.221 344.505V344.571L177.211 343.91V346.157L172.221 345.562V345.628L175.394 349.594L173.312 350.784L171.329 346.157H171.263L169.115 350.817L167.231 349.627L170.371 345.595V345.529L165.479 346.157V343.91L170.338 344.538V344.472L167.231 340.44L169.247 339.283L171.296 343.877H171.362L173.378 339.25L175.361 340.374Z" fill="white"/>
<path d="M213.276 340.374L210.136 344.505V344.571L215.126 343.91V346.157L210.136 345.562V345.628L213.309 349.594L211.227 350.784L209.244 346.157H209.178L207.03 350.817L205.146 349.627L208.286 345.595V345.529L203.395 346.157V343.91L208.253 344.538V344.472L205.146 340.44L207.162 339.283L209.211 343.877H209.277L211.293 339.25L213.276 340.374Z" fill="white"/>
<path d="M251.19 340.374L248.05 344.505V344.571L253.041 343.91V346.157L248.05 345.562V345.628L251.223 349.594L249.141 350.784L247.158 346.157H247.092L244.944 350.817L243.06 349.627L246.2 345.595V345.529L241.309 346.157V343.91L246.167 344.538V344.472L243.06 340.44L245.076 339.283L247.125 343.877H247.191L249.207 339.25L251.19 340.374Z" fill="white"/>
<defs>
<linearGradient id="paint0_linear_1254_1262" x1="153.282" y1="88.0672" x2="202.688" y2="110.84" gradientUnits="userSpaceOnUse">
<stop stop-color="#F57A00"/>
<stop offset="1" stop-color="#7103A4"/>
</linearGradient>
<linearGradient id="paint1_linear_1254_1262" x1="100.537" y1="137.088" x2="116.14" y2="183.164" gradientUnits="userSpaceOnUse">
<stop stop-color="#F57A00"/>
<stop offset="1" stop-color="#7103A4"/>
</linearGradient>
<linearGradient id="paint2_linear_1254_1262" x1="96.5858" y1="81.7159" x2="135.419" y2="127.053" gradientUnits="userSpaceOnUse">
<stop stop-color="#F57A00"/>
<stop offset="1" stop-color="#7103A4"/>
</linearGradient>
<linearGradient id="paint3_linear_1254_1262" x1="101.577" y1="34.569" x2="116.315" y2="37.0054" gradientUnits="userSpaceOnUse">
<stop stop-color="#F57A00"/>
<stop offset="1" stop-color="#7103A4"/>
</linearGradient>
<linearGradient id="paint4_linear_1254_1262" x1="48.8324" y1="83.589" x2="50.3859" y2="96.3822" gradientUnits="userSpaceOnUse">
<stop stop-color="#F57A00"/>
<stop offset="1" stop-color="#7103A4"/>
</linearGradient>
<linearGradient id="paint5_linear_1254_1262" x1="48.6254" y1="83.4149" x2="50.3347" y2="96.876" gradientUnits="userSpaceOnUse">
<stop stop-color="#F57A00"/>
<stop offset="1" stop-color="#7103A4"/>
</linearGradient>
<linearGradient id="paint6_linear_1254_1262" x1="47.8333" y1="32.9637" x2="86.6664" y2="78.3005" gradientUnits="userSpaceOnUse">
<stop stop-color="#F57A00"/>
<stop offset="1" stop-color="#7103A4"/>
</linearGradient>
<linearGradient id="paint7_linear_1254_1262" x1="225.097" y1="88.0672" x2="274.503" y2="110.84" gradientUnits="userSpaceOnUse">
<stop stop-color="#F57A00"/>
<stop offset="1" stop-color="#7103A4"/>
</linearGradient>
<linearGradient id="paint8_linear_1254_1262" x1="172.352" y1="137.088" x2="187.955" y2="183.164" gradientUnits="userSpaceOnUse">
<stop stop-color="#F57A00"/>
<stop offset="1" stop-color="#7103A4"/>
</linearGradient>
<linearGradient id="paint9_linear_1254_1262" x1="168.4" y1="81.7159" x2="207.233" y2="127.053" gradientUnits="userSpaceOnUse">
<stop stop-color="#F57A00"/>
<stop offset="1" stop-color="#7103A4"/>
</linearGradient>
<linearGradient id="paint10_linear_1254_1262" x1="296.911" y1="88.0672" x2="346.317" y2="110.84" gradientUnits="userSpaceOnUse">
<stop stop-color="#F57A00"/>
<stop offset="1" stop-color="#7103A4"/>
</linearGradient>
<linearGradient id="paint11_linear_1254_1262" x1="244.166" y1="137.088" x2="259.769" y2="183.164" gradientUnits="userSpaceOnUse">
<stop stop-color="#F57A00"/>
<stop offset="1" stop-color="#7103A4"/>
</linearGradient>
<linearGradient id="paint12_linear_1254_1262" x1="240.215" y1="81.7159" x2="279.048" y2="127.053" gradientUnits="userSpaceOnUse">
<stop stop-color="#F57A00"/>
<stop offset="1" stop-color="#7103A4"/>
</linearGradient>
<linearGradient id="paint13_linear_1254_1262" x1="153.282" y1="159.824" x2="202.688" y2="182.597" gradientUnits="userSpaceOnUse">
<stop stop-color="#F57A00"/>
<stop offset="1" stop-color="#7103A4"/>
</linearGradient>
<linearGradient id="paint14_linear_1254_1262" x1="100.537" y1="208.845" x2="116.14" y2="254.921" gradientUnits="userSpaceOnUse">
<stop stop-color="#F57A00"/>
<stop offset="1" stop-color="#7103A4"/>
</linearGradient>
<linearGradient id="paint15_linear_1254_1262" x1="96.586" y1="153.473" x2="135.419" y2="198.81" gradientUnits="userSpaceOnUse">
<stop stop-color="#F57A00"/>
<stop offset="1" stop-color="#7103A4"/>
</linearGradient>
<linearGradient id="paint16_linear_1254_1262" x1="225.097" y1="159.825" x2="274.503" y2="182.598" gradientUnits="userSpaceOnUse">
<stop stop-color="#F57A00"/>
<stop offset="1" stop-color="#7103A4"/>
</linearGradient>
<linearGradient id="paint17_linear_1254_1262" x1="172.352" y1="208.845" x2="187.955" y2="254.921" gradientUnits="userSpaceOnUse">
<stop stop-color="#F57A00"/>
<stop offset="1" stop-color="#7103A4"/>
</linearGradient>
<linearGradient id="paint18_linear_1254_1262" x1="168.4" y1="153.473" x2="207.233" y2="198.81" gradientUnits="userSpaceOnUse">
<stop stop-color="#F57A00"/>
<stop offset="1" stop-color="#7103A4"/>
</linearGradient>
<linearGradient id="paint19_linear_1254_1262" x1="186.928" y1="168.669" x2="192.009" y2="177.422" gradientUnits="userSpaceOnUse">
<stop stop-color="#F57A00"/>
<stop offset="1" stop-color="#7103A4"/>
</linearGradient>
<linearGradient id="paint20_linear_1254_1262" x1="296.911" y1="159.824" x2="346.317" y2="182.598" gradientUnits="userSpaceOnUse">
<stop stop-color="#F57A00"/>
<stop offset="1" stop-color="#7103A4"/>
</linearGradient>
<linearGradient id="paint21_linear_1254_1262" x1="244.166" y1="208.845" x2="259.769" y2="254.921" gradientUnits="userSpaceOnUse">
<stop stop-color="#F57A00"/>
<stop offset="1" stop-color="#7103A4"/>
</linearGradient>
<linearGradient id="paint22_linear_1254_1262" x1="240.215" y1="153.473" x2="279.048" y2="198.81" gradientUnits="userSpaceOnUse">
<stop stop-color="#F57A00"/>
<stop offset="1" stop-color="#7103A4"/>
</linearGradient>
<linearGradient id="paint23_linear_1254_1262" x1="153.282" y1="231.582" x2="202.688" y2="254.355" gradientUnits="userSpaceOnUse">
<stop stop-color="#F57A00"/>
<stop offset="1" stop-color="#7103A4"/>
</linearGradient>
<linearGradient id="paint24_linear_1254_1262" x1="100.537" y1="280.602" x2="116.14" y2="326.678" gradientUnits="userSpaceOnUse">
<stop stop-color="#F57A00"/>
<stop offset="1" stop-color="#7103A4"/>
</linearGradient>
<linearGradient id="paint25_linear_1254_1262" x1="96.586" y1="225.23" x2="135.419" y2="270.567" gradientUnits="userSpaceOnUse">
<stop stop-color="#F57A00"/>
<stop offset="1" stop-color="#7103A4"/>
</linearGradient>
<linearGradient id="paint26_linear_1254_1262" x1="225.097" y1="231.582" x2="274.503" y2="254.355" gradientUnits="userSpaceOnUse">
<stop stop-color="#F57A00"/>
<stop offset="1" stop-color="#7103A4"/>
</linearGradient>
<linearGradient id="paint27_linear_1254_1262" x1="172.352" y1="280.602" x2="187.955" y2="326.678" gradientUnits="userSpaceOnUse">
<stop stop-color="#F57A00"/>
<stop offset="1" stop-color="#7103A4"/>
</linearGradient>
<linearGradient id="paint28_linear_1254_1262" x1="168.4" y1="225.23" x2="207.233" y2="270.567" gradientUnits="userSpaceOnUse">
<stop stop-color="#F57A00"/>
<stop offset="1" stop-color="#7103A4"/>
</linearGradient>
<linearGradient id="paint29_linear_1254_1262" x1="296.911" y1="231.582" x2="346.317" y2="254.355" gradientUnits="userSpaceOnUse">
<stop stop-color="#F57A00"/>
<stop offset="1" stop-color="#7103A4"/>
</linearGradient>
<linearGradient id="paint30_linear_1254_1262" x1="244.166" y1="280.602" x2="259.769" y2="326.678" gradientUnits="userSpaceOnUse">
<stop stop-color="#F57A00"/>
<stop offset="1" stop-color="#7103A4"/>
</linearGradient>
<linearGradient id="paint31_linear_1254_1262" x1="240.215" y1="225.23" x2="279.047" y2="270.567" gradientUnits="userSpaceOnUse">
<stop stop-color="#F57A00"/>
<stop offset="1" stop-color="#7103A4"/>
</linearGradient>
<linearGradient id="paint32_linear_1254_1262" x1="332.342" y1="193.462" x2="347.08" y2="195.898" gradientUnits="userSpaceOnUse">
<stop stop-color="#F57A00"/>
<stop offset="1" stop-color="#7103A4"/>
</linearGradient>
<linearGradient id="paint33_linear_1254_1262" x1="279.597" y1="242.482" x2="281.15" y2="255.275" gradientUnits="userSpaceOnUse">
<stop stop-color="#F57A00"/>
<stop offset="1" stop-color="#7103A4"/>
</linearGradient>
<linearGradient id="paint34_linear_1254_1262" x1="279.39" y1="242.308" x2="281.099" y2="255.769" gradientUnits="userSpaceOnUse">
<stop stop-color="#F57A00"/>
<stop offset="1" stop-color="#7103A4"/>
</linearGradient>
<linearGradient id="paint35_linear_1254_1262" x1="278.598" y1="191.856" x2="317.431" y2="237.193" gradientUnits="userSpaceOnUse">
<stop stop-color="#F57A00"/>
<stop offset="1" stop-color="#7103A4"/>
</linearGradient>
<linearGradient id="paint36_linear_1254_1262" x1="78.8595" y1="11.8504" x2="93.5974" y2="14.287" gradientUnits="userSpaceOnUse">
<stop stop-color="#F57A00"/>
<stop offset="1" stop-color="#7103A4"/>
</linearGradient>
<linearGradient id="paint37_linear_1254_1262" x1="26.1147" y1="60.8707" x2="27.6682" y2="73.6635" gradientUnits="userSpaceOnUse">
<stop stop-color="#F57A00"/>
<stop offset="1" stop-color="#7103A4"/>
</linearGradient>
<linearGradient id="paint38_linear_1254_1262" x1="25.1157" y1="10.2452" x2="63.9488" y2="55.5818" gradientUnits="userSpaceOnUse">
<stop stop-color="#F57A00"/>
<stop offset="1" stop-color="#7103A4"/>
</linearGradient>
<linearGradient id="paint39_linear_1254_1262" x1="24.9089" y1="10.0713" x2="64.086" y2="55.8096" gradientUnits="userSpaceOnUse">
<stop stop-color="#F57A00"/>
<stop offset="1" stop-color="#7103A4"/>
</linearGradient>
<linearGradient id="paint40_linear_1254_1262" x1="46.4287" y1="32.5659" x2="51.8919" y2="36.2828" gradientUnits="userSpaceOnUse">
<stop stop-color="#F57A00"/>
<stop offset="1" stop-color="#7103A4"/>
</linearGradient>
<linearGradient id="paint41_linear_1254_1262" x1="246.692" y1="49.1004" x2="261.43" y2="51.5369" gradientUnits="userSpaceOnUse">
<stop stop-color="#F57A00"/>
<stop offset="1" stop-color="#7103A4"/>
</linearGradient>
<linearGradient id="paint42_linear_1254_1262" x1="193.947" y1="98.1207" x2="195.5" y2="110.914" gradientUnits="userSpaceOnUse">
<stop stop-color="#F57A00"/>
<stop offset="1" stop-color="#7103A4"/>
</linearGradient>
<linearGradient id="paint43_linear_1254_1262" x1="192.948" y1="47.4952" x2="231.781" y2="92.8318" gradientUnits="userSpaceOnUse">
<stop stop-color="#F57A00"/>
<stop offset="1" stop-color="#7103A4"/>
</linearGradient>
<linearGradient id="paint44_linear_1254_1262" x1="275.597" y1="318.606" x2="276.198" y2="320.106" gradientUnits="userSpaceOnUse">
<stop stop-color="#F57A00"/>
<stop offset="1" stop-color="#7103A4"/>
</linearGradient>
<linearGradient id="paint45_linear_1254_1262" x1="280.886" y1="318.606" x2="281.046" y2="320.333" gradientUnits="userSpaceOnUse">
<stop stop-color="#F57A00"/>
<stop offset="1" stop-color="#7103A4"/>
</linearGradient>
<linearGradient id="paint46_linear_1254_1262" x1="294.986" y1="318.606" x2="295.101" y2="320.34" gradientUnits="userSpaceOnUse">
<stop stop-color="#F57A00"/>
<stop offset="1" stop-color="#7103A4"/>
</linearGradient>
<linearGradient id="paint47_linear_1254_1262" x1="311.817" y1="318.606" x2="312.418" y2="320.106" gradientUnits="userSpaceOnUse">
<stop stop-color="#F57A00"/>
<stop offset="1" stop-color="#7103A4"/>
</linearGradient>
<linearGradient id="paint48_linear_1254_1262" x1="316.15" y1="318.606" x2="316.751" y2="320.106" gradientUnits="userSpaceOnUse">
<stop stop-color="#F57A00"/>
<stop offset="1" stop-color="#7103A4"/>
</linearGradient>
<linearGradient id="paint49_linear_1254_1262" x1="275.915" y1="321.701" x2="276.234" y2="323.382" gradientUnits="userSpaceOnUse">
<stop stop-color="#F57A00"/>
<stop offset="1" stop-color="#7103A4"/>
</linearGradient>
<linearGradient id="paint50_linear_1254_1262" x1="283.664" y1="321.701" x2="283.877" y2="323.417" gradientUnits="userSpaceOnUse">
<stop stop-color="#F57A00"/>
<stop offset="1" stop-color="#7103A4"/>
</linearGradient>
<linearGradient id="paint51_linear_1254_1262" x1="293.552" y1="321.701" x2="294.153" y2="323.202" gradientUnits="userSpaceOnUse">
<stop stop-color="#F57A00"/>
<stop offset="1" stop-color="#7103A4"/>
</linearGradient>
<linearGradient id="paint52_linear_1254_1262" x1="299.319" y1="321.701" x2="299.435" y2="323.435" gradientUnits="userSpaceOnUse">
<stop stop-color="#F57A00"/>
<stop offset="1" stop-color="#7103A4"/>
</linearGradient>
<linearGradient id="paint53_linear_1254_1262" x1="316.15" y1="321.701" x2="316.751" y2="323.202" gradientUnits="userSpaceOnUse">
<stop stop-color="#F57A00"/>
<stop offset="1" stop-color="#7103A4"/>
</linearGradient>
<linearGradient id="paint54_linear_1254_1262" x1="320.484" y1="321.701" x2="321.085" y2="323.202" gradientUnits="userSpaceOnUse">
<stop stop-color="#F57A00"/>
<stop offset="1" stop-color="#7103A4"/>
</linearGradient>
<linearGradient id="paint55_linear_1254_1262" x1="282.745" y1="324.797" x2="282.904" y2="326.524" gradientUnits="userSpaceOnUse">
<stop stop-color="#F57A00"/>
<stop offset="1" stop-color="#7103A4"/>
</linearGradient>
<linearGradient id="paint56_linear_1254_1262" x1="295.41" y1="324.797" x2="296.011" y2="326.298" gradientUnits="userSpaceOnUse">
<stop stop-color="#F57A00"/>
<stop offset="1" stop-color="#7103A4"/>
</linearGradient>
<linearGradient id="paint57_linear_1254_1262" x1="300.699" y1="324.797" x2="300.859" y2="326.524" gradientUnits="userSpaceOnUse">
<stop stop-color="#F57A00"/>
<stop offset="1" stop-color="#7103A4"/>
</linearGradient>
<linearGradient id="paint58_linear_1254_1262" x1="314.639" y1="324.797" x2="314.767" y2="326.53" gradientUnits="userSpaceOnUse">
<stop stop-color="#F57A00"/>
<stop offset="1" stop-color="#7103A4"/>
</linearGradient>
<linearGradient id="paint59_linear_1254_1262" x1="281.629" y1="327.893" x2="282.495" y2="328.854" gradientUnits="userSpaceOnUse">
<stop stop-color="#F57A00"/>
<stop offset="1" stop-color="#7103A4"/>
</linearGradient>
<linearGradient id="paint60_linear_1254_1262" x1="285.689" y1="327.893" x2="285.831" y2="329.624" gradientUnits="userSpaceOnUse">
<stop stop-color="#F57A00"/>
<stop offset="1" stop-color="#7103A4"/>
</linearGradient>
<linearGradient id="paint61_linear_1254_1262" x1="301.337" y1="327.893" x2="301.443" y2="329.629" gradientUnits="userSpaceOnUse">
<stop stop-color="#F57A00"/>
<stop offset="1" stop-color="#7103A4"/>
</linearGradient>
<linearGradient id="paint62_linear_1254_1262" x1="320.035" y1="327.893" x2="320.291" y2="329.597" gradientUnits="userSpaceOnUse">
<stop stop-color="#F57A00"/>
<stop offset="1" stop-color="#7103A4"/>
</linearGradient>
<linearGradient id="paint63_linear_1254_1262" x1="275.915" y1="330.989" x2="276.234" y2="332.67" gradientUnits="userSpaceOnUse">
<stop stop-color="#F57A00"/>
<stop offset="1" stop-color="#7103A4"/>
</linearGradient>
<linearGradient id="paint64_linear_1254_1262" x1="283.664" y1="330.989" x2="283.877" y2="332.704" gradientUnits="userSpaceOnUse">
<stop stop-color="#F57A00"/>
<stop offset="1" stop-color="#7103A4"/>
</linearGradient>
<linearGradient id="paint65_linear_1254_1262" x1="293.552" y1="330.989" x2="294.153" y2="332.49" gradientUnits="userSpaceOnUse">
<stop stop-color="#F57A00"/>
<stop offset="1" stop-color="#7103A4"/>
</linearGradient>
<linearGradient id="paint66_linear_1254_1262" x1="299.319" y1="330.989" x2="299.435" y2="332.723" gradientUnits="userSpaceOnUse">
<stop stop-color="#F57A00"/>
<stop offset="1" stop-color="#7103A4"/>
</linearGradient>
<linearGradient id="paint67_linear_1254_1262" x1="316.628" y1="330.989" x2="316.884" y2="332.692" gradientUnits="userSpaceOnUse">
<stop stop-color="#F57A00"/>
<stop offset="1" stop-color="#7103A4"/>
</linearGradient>
<linearGradient id="paint68_linear_1254_1262" x1="325.128" y1="330.989" x2="325.729" y2="332.49" gradientUnits="userSpaceOnUse">
<stop stop-color="#F57A00"/>
<stop offset="1" stop-color="#7103A4"/>
</linearGradient>
<linearGradient id="paint69_linear_1254_1262" x1="281.789" y1="334.085" x2="282.39" y2="335.586" gradientUnits="userSpaceOnUse">
<stop stop-color="#F57A00"/>
<stop offset="1" stop-color="#7103A4"/>
</linearGradient>
<linearGradient id="paint70_linear_1254_1262" x1="287.078" y1="334.085" x2="287.238" y2="335.812" gradientUnits="userSpaceOnUse">
<stop stop-color="#F57A00"/>
<stop offset="1" stop-color="#7103A4"/>
</linearGradient>
<linearGradient id="paint71_linear_1254_1262" x1="299.743" y1="334.085" x2="300.344" y2="335.586" gradientUnits="userSpaceOnUse">
<stop stop-color="#F57A00"/>
<stop offset="1" stop-color="#7103A4"/>
</linearGradient>
<linearGradient id="paint72_linear_1254_1262" x1="305.989" y1="334.085" x2="306.08" y2="335.822" gradientUnits="userSpaceOnUse">
<stop stop-color="#F57A00"/>
<stop offset="1" stop-color="#7103A4"/>
</linearGradient>
<linearGradient id="paint73_linear_1254_1262" x1="326.986" y1="334.085" x2="327.588" y2="335.586" gradientUnits="userSpaceOnUse">
<stop stop-color="#F57A00"/>
<stop offset="1" stop-color="#7103A4"/>
</linearGradient>
<linearGradient id="paint74_linear_1254_1262" x1="281.948" y1="337.181" x2="282.369" y2="338.814" gradientUnits="userSpaceOnUse">
<stop stop-color="#F57A00"/>
<stop offset="1" stop-color="#7103A4"/>
</linearGradient>
<linearGradient id="paint75_linear_1254_1262" x1="288.467" y1="337.181" x2="288.649" y2="338.903" gradientUnits="userSpaceOnUse">
<stop stop-color="#F57A00"/>
<stop offset="1" stop-color="#7103A4"/>
</linearGradient>
<linearGradient id="paint76_linear_1254_1262" x1="301.177" y1="337.181" x2="301.293" y2="338.915" gradientUnits="userSpaceOnUse">
<stop stop-color="#F57A00"/>
<stop offset="1" stop-color="#7103A4"/>
</linearGradient>
<linearGradient id="paint77_linear_1254_1262" x1="318.168" y1="337.181" x2="318.589" y2="338.814" gradientUnits="userSpaceOnUse">
<stop stop-color="#F57A00"/>
<stop offset="1" stop-color="#7103A4"/>
</linearGradient>
<linearGradient id="paint78_linear_1254_1262" x1="288.936" y1="340.277" x2="289.096" y2="342.004" gradientUnits="userSpaceOnUse">
<stop stop-color="#F57A00"/>
<stop offset="1" stop-color="#7103A4"/>
</linearGradient>
<linearGradient id="paint79_linear_1254_1262" x1="301.602" y1="340.277" x2="302.203" y2="341.778" gradientUnits="userSpaceOnUse">
<stop stop-color="#F57A00"/>
<stop offset="1" stop-color="#7103A4"/>
</linearGradient>
<linearGradient id="paint80_linear_1254_1262" x1="305.935" y1="340.277" x2="306.537" y2="341.778" gradientUnits="userSpaceOnUse">
<stop stop-color="#F57A00"/>
<stop offset="1" stop-color="#7103A4"/>
</linearGradient>
<linearGradient id="paint81_linear_1254_1262" x1="311.225" y1="340.277" x2="311.385" y2="342.004" gradientUnits="userSpaceOnUse">
<stop stop-color="#F57A00"/>
<stop offset="1" stop-color="#7103A4"/>
</linearGradient>
<linearGradient id="paint82_linear_1254_1262" x1="324.049" y1="340.277" x2="324.47" y2="341.91" gradientUnits="userSpaceOnUse">
<stop stop-color="#F57A00"/>
<stop offset="1" stop-color="#7103A4"/>
</linearGradient>
<linearGradient id="paint83_linear_1254_1262" x1="288.936" y1="343.373" x2="289.096" y2="345.1" gradientUnits="userSpaceOnUse">
<stop stop-color="#F57A00"/>
<stop offset="1" stop-color="#7103A4"/>
</linearGradient>
<linearGradient id="paint84_linear_1254_1262" x1="301.602" y1="343.373" x2="302.203" y2="344.874" gradientUnits="userSpaceOnUse">
<stop stop-color="#F57A00"/>
<stop offset="1" stop-color="#7103A4"/>
</linearGradient>
<linearGradient id="paint85_linear_1254_1262" x1="306.891" y1="343.373" x2="307.051" y2="345.1" gradientUnits="userSpaceOnUse">
<stop stop-color="#F57A00"/>
<stop offset="1" stop-color="#7103A4"/>
</linearGradient>
<linearGradient id="paint86_linear_1254_1262" x1="282.107" y1="346.469" x2="282.426" y2="348.15" gradientUnits="userSpaceOnUse">
<stop stop-color="#F57A00"/>
<stop offset="1" stop-color="#7103A4"/>
</linearGradient>
<linearGradient id="paint87_linear_1254_1262" x1="289.855" y1="346.469" x2="290.068" y2="348.184" gradientUnits="userSpaceOnUse">
<stop stop-color="#F57A00"/>
<stop offset="1" stop-color="#7103A4"/>
</linearGradient>
<linearGradient id="paint88_linear_1254_1262" x1="301.337" y1="346.469" x2="301.443" y2="348.204" gradientUnits="userSpaceOnUse">
<stop stop-color="#F57A00"/>
<stop offset="1" stop-color="#7103A4"/>
</linearGradient>
<linearGradient id="paint89_linear_1254_1262" x1="320.035" y1="346.469" x2="320.291" y2="348.172" gradientUnits="userSpaceOnUse">
<stop stop-color="#F57A00"/>
<stop offset="1" stop-color="#7103A4"/>
</linearGradient>
<linearGradient id="paint90_linear_1254_1262" x1="288.299" y1="349.565" x2="288.618" y2="351.246" gradientUnits="userSpaceOnUse">
<stop stop-color="#F57A00"/>
<stop offset="1" stop-color="#7103A4"/>
</linearGradient>
<linearGradient id="paint91_linear_1254_1262" x1="296.048" y1="349.565" x2="296.261" y2="351.28" gradientUnits="userSpaceOnUse">
<stop stop-color="#F57A00"/>
<stop offset="1" stop-color="#7103A4"/>
</linearGradient>
<linearGradient id="paint92_linear_1254_1262" x1="305.935" y1="349.565" x2="306.537" y2="351.066" gradientUnits="userSpaceOnUse">
<stop stop-color="#F57A00"/>
<stop offset="1" stop-color="#7103A4"/>
</linearGradient>
<linearGradient id="paint93_linear_1254_1262" x1="311.703" y1="349.565" x2="311.819" y2="351.299" gradientUnits="userSpaceOnUse">
<stop stop-color="#F57A00"/>
<stop offset="1" stop-color="#7103A4"/>
</linearGradient>
<linearGradient id="paint94_linear_1254_1262" x1="287.98" y1="352.66" x2="288.582" y2="354.161" gradientUnits="userSpaceOnUse">
<stop stop-color="#F57A00"/>
<stop offset="1" stop-color="#7103A4"/>
</linearGradient>
<linearGradient id="paint95_linear_1254_1262" x1="293.27" y1="352.66" x2="293.43" y2="354.387" gradientUnits="userSpaceOnUse">
<stop stop-color="#F57A00"/>
<stop offset="1" stop-color="#7103A4"/>
</linearGradient>
<linearGradient id="paint96_linear_1254_1262" x1="305.935" y1="352.66" x2="306.537" y2="354.161" gradientUnits="userSpaceOnUse">
<stop stop-color="#F57A00"/>
<stop offset="1" stop-color="#7103A4"/>
</linearGradient>
<linearGradient id="paint97_linear_1254_1262" x1="312.181" y1="352.66" x2="312.272" y2="354.397" gradientUnits="userSpaceOnUse">
<stop stop-color="#F57A00"/>
<stop offset="1" stop-color="#7103A4"/>
</linearGradient>
<linearGradient id="paint98_linear_1254_1262" x1="69.0266" y1="107.174" x2="83.3309" y2="111.316" gradientUnits="userSpaceOnUse">
<stop stop-color="#F57A00"/>
<stop offset="1" stop-color="#7103A4"/>
</linearGradient>
<linearGradient id="paint99_linear_1254_1262" x1="68.82" y1="106.999" x2="83.7822" y2="111.501" gradientUnits="userSpaceOnUse">
<stop stop-color="#F57A00"/>
<stop offset="1" stop-color="#7103A4"/>
</linearGradient>
<linearGradient id="paint100_linear_1254_1262" x1="42.0212" y1="132.272" x2="44.7267" y2="144.99" gradientUnits="userSpaceOnUse">
<stop stop-color="#F57A00"/>
<stop offset="1" stop-color="#7103A4"/>
</linearGradient>
<linearGradient id="paint101_linear_1254_1262" x1="40.9986" y1="105.53" x2="60.8811" y2="128.742" gradientUnits="userSpaceOnUse">
<stop stop-color="#F57A00"/>
<stop offset="1" stop-color="#7103A4"/>
</linearGradient>
<linearGradient id="paint102_linear_1254_1262" x1="187.421" y1="336.616" x2="201.725" y2="340.759" gradientUnits="userSpaceOnUse">
<stop stop-color="#F57A00"/>
<stop offset="1" stop-color="#7103A4"/>
</linearGradient>
<linearGradient id="paint103_linear_1254_1262" x1="160.415" y1="361.714" x2="163.121" y2="374.432" gradientUnits="userSpaceOnUse">
<stop stop-color="#F57A00"/>
<stop offset="1" stop-color="#7103A4"/>
</linearGradient>
<linearGradient id="paint104_linear_1254_1262" x1="159.392" y1="334.972" x2="179.275" y2="358.185" gradientUnits="userSpaceOnUse">
<stop stop-color="#F57A00"/>
<stop offset="1" stop-color="#7103A4"/>
</linearGradient>
<linearGradient id="paint105_linear_1254_1262" x1="225.335" y1="336.616" x2="239.639" y2="340.758" gradientUnits="userSpaceOnUse">
<stop stop-color="#F57A00"/>
<stop offset="1" stop-color="#7103A4"/>
</linearGradient>
<linearGradient id="paint106_linear_1254_1262" x1="198.329" y1="361.714" x2="201.035" y2="374.432" gradientUnits="userSpaceOnUse">
<stop stop-color="#F57A00"/>
<stop offset="1" stop-color="#7103A4"/>
</linearGradient>
<linearGradient id="paint107_linear_1254_1262" x1="198.123" y1="361.54" x2="201.071" y2="374.878" gradientUnits="userSpaceOnUse">
<stop stop-color="#F57A00"/>
<stop offset="1" stop-color="#7103A4"/>
</linearGradient>
<linearGradient id="paint108_linear_1254_1262" x1="197.307" y1="334.972" x2="217.189" y2="358.185" gradientUnits="userSpaceOnUse">
<stop stop-color="#F57A00"/>
<stop offset="1" stop-color="#7103A4"/>
</linearGradient>
<linearGradient id="paint109_linear_1254_1262" x1="263.25" y1="336.616" x2="277.554" y2="340.758" gradientUnits="userSpaceOnUse">
<stop stop-color="#F57A00"/>
<stop offset="1" stop-color="#7103A4"/>
</linearGradient>
<linearGradient id="paint110_linear_1254_1262" x1="236.244" y1="361.714" x2="238.949" y2="374.432" gradientUnits="userSpaceOnUse">
<stop stop-color="#F57A00"/>
<stop offset="1" stop-color="#7103A4"/>
</linearGradient>
<linearGradient id="paint111_linear_1254_1262" x1="235.221" y1="334.972" x2="255.104" y2="358.185" gradientUnits="userSpaceOnUse">
<stop stop-color="#F57A00"/>
<stop offset="1" stop-color="#7103A4"/>
</linearGradient>
</defs>
</svg>
