<svg width="376" height="316" viewBox="0 0 376 316" fill="none" xmlns="http://www.w3.org/2000/svg">
<path fill-rule="evenodd" clip-rule="evenodd" d="M153.328 252.131C153.937 260.486 155.172 261.624 163.125 262.282C155.172 262.923 153.937 264.078 153.328 272.416C152.718 264.062 151.484 262.923 143.53 262.282C151.484 261.624 152.718 260.47 153.328 252.131ZM120.969 274.148C121.289 278.606 121.947 279.215 126.196 279.568C121.947 279.904 121.289 280.53 120.969 284.988C120.648 280.53 119.991 279.92 115.741 279.568C119.991 279.215 120.648 278.606 120.969 274.148ZM135.144 239.848C135.481 244.37 136.138 244.98 140.435 245.332C136.138 245.685 135.465 246.311 135.144 250.817C134.807 246.295 134.15 245.685 129.852 245.332C134.15 244.98 134.807 244.354 135.144 239.848Z" fill="white"/>
<path fill-rule="evenodd" clip-rule="evenodd" d="M280.487 231.542C280.022 237.94 279.076 238.822 272.983 239.303C279.076 239.8 280.022 240.682 280.487 247.064C280.952 240.666 281.899 239.784 287.992 239.303C281.899 238.822 280.952 237.94 280.487 231.542ZM305.262 248.411C305.005 251.827 304.508 252.292 301.253 252.548C304.508 252.805 305.005 253.286 305.262 256.701C305.518 253.286 306.016 252.821 309.271 252.548C305.999 252.292 305.502 251.827 305.262 248.411ZM294.406 222.146C294.149 225.609 293.636 226.074 290.349 226.347C293.636 226.619 294.149 227.084 294.406 230.548C294.663 227.084 295.176 226.619 298.463 226.347C295.176 226.074 294.663 225.593 294.406 222.146Z" fill="white"/>
<path fill-rule="evenodd" clip-rule="evenodd" d="M241.217 75.4233C241.217 61.0237 251.191 48.8369 264.564 45.4214C248.802 46.8165 236.342 60.1418 236.342 76.2572V111.182L241.233 111.31V75.4233H241.217ZM332.201 113.812V76.2572C332.201 40.5467 303.001 11.3465 267.29 11.3465C264.436 11.3465 261.63 11.5389 258.872 11.8917C263.169 10.9937 267.611 10.5127 272.165 10.5127C307.875 10.5127 337.076 39.7289 337.076 75.4233V113.94L332.201 113.812Z" fill="url(#paint0_linear_1266_3998)"/>
<path fill-rule="evenodd" clip-rule="evenodd" d="M236.342 76.2571C236.342 59.2277 250.277 45.293 267.306 45.293C284.336 45.293 298.27 59.2277 298.27 76.2571V113.844L332.217 114.774V76.2571C332.217 40.5466 303.017 11.3464 267.306 11.3464C231.612 11.3464 202.396 40.5626 202.396 76.2571V111.214L236.342 112.144V76.2571Z" fill="url(#paint1_linear_1266_3998)"/>
<path fill-rule="evenodd" clip-rule="evenodd" d="M340.443 106.083L175.344 110.621L170.662 305.818H340.443V106.083Z" fill="#EEEEEF"/>
<path fill-rule="evenodd" clip-rule="evenodd" d="M340.443 106.083L368.28 106.852L370.557 305.818H340.443V106.083Z" fill="#EEEEEF"/>
<path fill-rule="evenodd" clip-rule="evenodd" d="M244.569 108.713L306.481 107.029L340.443 106.083V305.818H170.662L175.344 110.621L210.622 109.643L244.569 108.713Z" fill="url(#paint2_linear_1266_3998)"/>
<path fill-rule="evenodd" clip-rule="evenodd" d="M340.443 305.818V106.083L368.28 106.852L376.009 305.818H340.443Z" fill="url(#paint3_linear_1266_3998)"/>
<path d="M151.211 111.919H31.861V160.105H151.211V111.919Z" fill="url(#paint4_linear_1266_3998)"/>
<path d="M182.063 111.919H1.00928V156.048H182.063V111.919Z" fill="url(#paint5_linear_1266_3998)"/>
<g filter="url(#filter0_d_1266_3998)">
<path fill-rule="evenodd" clip-rule="evenodd" d="M7.27893 114.774H175.793C177.509 114.774 178.904 116.265 178.904 118.093V149.859C178.904 151.687 177.509 153.178 175.793 153.178H7.27893C5.57919 153.178 4.16809 151.687 4.16809 149.859V118.077C4.16809 116.265 5.57919 114.774 7.27893 114.774Z" fill="url(#paint6_linear_1266_3998)"/>
</g>
<path fill-rule="evenodd" clip-rule="evenodd" d="M14.8956 124.619C16.9962 124.619 18.712 126.335 18.712 128.436C18.712 130.536 17.0123 132.252 14.8956 132.252C12.779 132.252 11.0792 130.552 11.0792 128.436C11.0953 126.319 12.795 124.619 14.8956 124.619ZM14.8956 135.716C16.9962 135.716 18.712 137.416 18.712 139.532C18.712 141.649 17.0123 143.349 14.8956 143.349C12.779 143.349 11.0792 141.649 11.0792 139.532C11.0792 137.416 12.795 135.716 14.8956 135.716ZM54.6149 135.716C56.7155 135.716 58.4313 137.416 58.4313 139.532C58.4313 141.649 56.7315 143.349 54.6149 143.349C52.4982 143.349 50.7985 141.649 50.7985 139.532C50.7985 137.416 52.4982 135.716 54.6149 135.716ZM41.3698 135.716C43.4704 135.716 45.1862 137.416 45.1862 139.532C45.1862 141.649 43.4704 143.349 41.3698 143.349C39.2692 143.349 37.5534 141.649 37.5534 139.532C37.5534 137.416 39.2692 135.716 41.3698 135.716ZM28.1407 135.716C30.2413 135.716 31.9571 137.416 31.9571 139.532C31.9571 141.649 30.2574 143.349 28.1407 143.349C26.0241 143.349 24.3243 141.649 24.3243 139.532C24.3243 137.416 26.0241 135.716 28.1407 135.716ZM54.6149 124.619C56.7155 124.619 58.4313 126.335 58.4313 128.436C58.4313 130.536 56.7315 132.252 54.6149 132.252C52.4982 132.252 50.7985 130.552 50.7985 128.436C50.7985 126.319 52.4982 124.619 54.6149 124.619ZM41.3698 124.619C43.4704 124.619 45.1862 126.335 45.1862 128.436C45.1862 130.536 43.4704 132.252 41.3698 132.252C39.2692 132.252 37.5534 130.552 37.5534 128.436C37.5534 126.319 39.2692 124.619 41.3698 124.619ZM28.1407 124.619C30.2413 124.619 31.9571 126.335 31.9571 128.436C31.9571 130.536 30.2574 132.252 28.1407 132.252C26.0241 132.252 24.3243 130.552 24.3243 128.436C24.3243 126.319 26.0241 124.619 28.1407 124.619Z" fill="white"/>
<path d="M76.1986 121.092H71.0513V146.62H76.1986V121.092Z" fill="#1A1226"/>
<path d="M85.1942 121.092H80.0469V146.62H85.1942V121.092Z" fill="white"/>
<path d="M94.1899 121.092H89.0426V146.62H94.1899V121.092Z" fill="#1A1226"/>
<path d="M103.186 121.092H98.0385V146.62H103.186V121.092Z" fill="white"/>
<path d="M112.181 121.092H107.034V146.62H112.181V121.092Z" fill="#1A1226"/>
<path d="M121.193 121.092H116.046V146.62H121.193V121.092Z" fill="white"/>
<path d="M130.189 121.092H125.042V146.62H130.189V121.092Z" fill="#1A1226"/>
<path d="M139.185 121.092H134.038V146.62H139.185V121.092Z" fill="white"/>
<path d="M148.181 121.092H143.033V146.62H148.181V121.092Z" fill="#1A1226"/>
<path d="M157.176 121.092H152.029V146.62H157.176V121.092Z" fill="white"/>
<path d="M166.172 121.092H161.025V146.62H166.172V121.092Z" fill="#1A1226"/>
<path d="M151.211 160.089H31.861V208.275H151.211V160.089Z" fill="url(#paint7_linear_1266_3998)"/>
<path d="M182.063 160.089H1.00928V204.218H182.063V160.089Z" fill="url(#paint8_linear_1266_3998)"/>
<g filter="url(#filter1_d_1266_3998)">
<path fill-rule="evenodd" clip-rule="evenodd" d="M7.27893 162.944H175.793C177.509 162.944 178.904 164.435 178.904 166.263V198.045C178.904 199.873 177.509 201.364 175.793 201.364H7.27893C5.57919 201.364 4.16809 199.873 4.16809 198.045V166.263C4.16809 164.451 5.57919 162.944 7.27893 162.944Z" fill="url(#paint9_linear_1266_3998)"/>
</g>
<path fill-rule="evenodd" clip-rule="evenodd" d="M14.8956 172.805C16.9962 172.805 18.712 174.505 18.712 176.622C18.712 178.722 17.0123 180.438 14.8956 180.438C12.779 180.438 11.0792 178.738 11.0792 176.622C11.0953 174.505 12.795 172.805 14.8956 172.805ZM14.8956 183.886C16.9962 183.886 18.712 185.585 18.712 187.702C18.712 189.803 17.0123 191.518 14.8956 191.518C12.779 191.518 11.0792 189.819 11.0792 187.702C11.0953 185.601 12.795 183.886 14.8956 183.886ZM54.6149 183.886C56.7155 183.886 58.4313 185.585 58.4313 187.702C58.4313 189.803 56.7315 191.518 54.6149 191.518C52.4982 191.518 50.7985 189.819 50.7985 187.702C50.7985 185.601 52.4982 183.886 54.6149 183.886ZM41.3698 183.886C43.4704 183.886 45.1862 185.585 45.1862 187.702C45.1862 189.803 43.4704 191.518 41.3698 191.518C39.2692 191.518 37.5534 189.819 37.5534 187.702C37.5534 185.601 39.2692 183.886 41.3698 183.886ZM28.1407 183.886C30.2413 183.886 31.9571 185.585 31.9571 187.702C31.9571 189.803 30.2574 191.518 28.1407 191.518C26.0241 191.518 24.3243 189.819 24.3243 187.702C24.3243 185.601 26.0241 183.886 28.1407 183.886ZM54.6149 172.805C56.7155 172.805 58.4313 174.505 58.4313 176.622C58.4313 178.722 56.7315 180.438 54.6149 180.438C52.4982 180.438 50.7985 178.738 50.7985 176.622C50.7985 174.505 52.4982 172.805 54.6149 172.805ZM41.3698 172.805C43.4704 172.805 45.1862 174.505 45.1862 176.622C45.1862 178.722 43.4704 180.438 41.3698 180.438C39.2692 180.438 37.5534 178.738 37.5534 176.622C37.5534 174.505 39.2692 172.805 41.3698 172.805ZM28.1407 172.805C30.2413 172.805 31.9571 174.505 31.9571 176.622C31.9571 178.722 30.2574 180.438 28.1407 180.438C26.0241 180.438 24.3243 178.738 24.3243 176.622C24.3243 174.505 26.0241 172.805 28.1407 172.805Z" fill="white"/>
<path d="M76.1986 169.278H71.0513V194.806H76.1986V169.278Z" fill="#1A1226"/>
<path d="M85.1942 169.278H80.0469V194.806H85.1942V169.278Z" fill="white"/>
<path d="M94.1899 169.278H89.0426V194.806H94.1899V169.278Z" fill="#1A1226"/>
<path d="M103.186 169.278H98.0385V194.806H103.186V169.278Z" fill="white"/>
<path d="M112.181 169.278H107.034V194.806H112.181V169.278Z" fill="#1A1226"/>
<path d="M121.193 169.278H116.046V194.806H121.193V169.278Z" fill="white"/>
<path d="M130.189 169.278H125.042V194.806H130.189V169.278Z" fill="#1A1226"/>
<path d="M139.185 169.278H134.038V194.806H139.185V169.278Z" fill="white"/>
<path d="M148.181 169.278H143.033V194.806H148.181V169.278Z" fill="#1A1226"/>
<path d="M157.176 169.278H152.029V194.806H157.176V169.278Z" fill="white"/>
<path d="M166.172 169.278H161.025V194.806H166.172V169.278Z" fill="#1A1226"/>
<path d="M151.211 208.275H31.861V256.461H151.211V208.275Z" fill="url(#paint10_linear_1266_3998)"/>
<path d="M182.063 208.275H1.00928V252.404H182.063V208.275Z" fill="url(#paint11_linear_1266_3998)"/>
<g filter="url(#filter2_d_1266_3998)">
<path fill-rule="evenodd" clip-rule="evenodd" d="M7.27893 211.13H175.793C177.509 211.13 178.904 212.621 178.904 214.449V246.231C178.904 248.059 177.509 249.55 175.793 249.55H7.27893C5.57919 249.55 4.16809 248.059 4.16809 246.231V214.449C4.16809 212.621 5.57919 211.13 7.27893 211.13Z" fill="url(#paint12_linear_1266_3998)"/>
</g>
<path fill-rule="evenodd" clip-rule="evenodd" d="M14.8956 220.991C16.9962 220.991 18.712 222.691 18.712 224.808C18.712 226.908 17.0123 228.624 14.8956 228.624C12.779 228.624 11.0792 226.924 11.0792 224.808C11.0953 222.691 12.795 220.991 14.8956 220.991ZM14.8956 232.072C16.9962 232.072 18.712 233.771 18.712 235.888C18.712 237.989 17.0123 239.704 14.8956 239.704C12.779 239.704 11.0792 238.005 11.0792 235.888C11.0953 233.787 12.795 232.072 14.8956 232.072ZM54.6149 232.072C56.7155 232.072 58.4313 233.771 58.4313 235.888C58.4313 237.989 56.7315 239.704 54.6149 239.704C52.4982 239.704 50.7985 238.005 50.7985 235.888C50.7985 233.787 52.4982 232.072 54.6149 232.072ZM41.3698 232.072C43.4704 232.072 45.1862 233.771 45.1862 235.888C45.1862 237.989 43.4704 239.704 41.3698 239.704C39.2692 239.704 37.5534 238.005 37.5534 235.888C37.5534 233.787 39.2692 232.072 41.3698 232.072ZM28.1407 232.072C30.2413 232.072 31.9571 233.771 31.9571 235.888C31.9571 237.989 30.2574 239.704 28.1407 239.704C26.0241 239.704 24.3243 238.005 24.3243 235.888C24.3243 233.787 26.0241 232.072 28.1407 232.072ZM54.6149 220.991C56.7155 220.991 58.4313 222.691 58.4313 224.808C58.4313 226.908 56.7315 228.624 54.6149 228.624C52.4982 228.624 50.7985 226.924 50.7985 224.808C50.7985 222.691 52.4982 220.991 54.6149 220.991ZM41.3698 220.991C43.4704 220.991 45.1862 222.691 45.1862 224.808C45.1862 226.908 43.4704 228.624 41.3698 228.624C39.2692 228.624 37.5534 226.924 37.5534 224.808C37.5534 222.691 39.2692 220.991 41.3698 220.991ZM28.1407 220.991C30.2413 220.991 31.9571 222.691 31.9571 224.808C31.9571 226.908 30.2574 228.624 28.1407 228.624C26.0241 228.624 24.3243 226.924 24.3243 224.808C24.3243 222.691 26.0241 220.991 28.1407 220.991Z" fill="white"/>
<path d="M76.1986 217.463H71.0513V242.991H76.1986V217.463Z" fill="#1A1226"/>
<path d="M85.1942 217.463H80.0469V242.991H85.1942V217.463Z" fill="#EEE5F4"/>
<path d="M94.1899 217.463H89.0426V242.991H94.1899V217.463Z" fill="#D0D0D0"/>
<path d="M103.186 217.463H98.0385V242.991H103.186V217.463Z" fill="white"/>
<path d="M112.181 217.463H107.034V242.991H112.181V217.463Z" fill="#D0D0D0"/>
<path d="M121.193 217.463H116.046V242.991H121.193V217.463Z" fill="white"/>
<path d="M130.189 217.463H125.042V242.991H130.189V217.463Z" fill="#D0D0D0"/>
<path d="M139.185 217.463H134.038V242.991H139.185V217.463Z" fill="white"/>
<path d="M148.181 217.463H143.033V242.991H148.181V217.463Z" fill="#D0D0D0"/>
<path d="M157.176 217.463H152.029V242.991H157.176V217.463Z" fill="white"/>
<path d="M166.172 217.463H161.025V242.991H166.172V217.463Z" fill="#D0D0D0"/>
<path d="M151.211 256.461H31.861V304.647H151.211V256.461Z" fill="url(#paint13_linear_1266_3998)"/>
<path d="M182.063 256.461H1.00928V300.59H182.063V256.461Z" fill="url(#paint14_linear_1266_3998)"/>
<g filter="url(#filter3_d_1266_3998)">
<path fill-rule="evenodd" clip-rule="evenodd" d="M7.27893 259.315H175.793C177.509 259.315 178.904 260.807 178.904 262.635V294.417C178.904 296.245 177.509 297.736 175.793 297.736H7.27893C5.57919 297.736 4.16809 296.245 4.16809 294.417V262.635C4.16809 260.807 5.57919 259.315 7.27893 259.315Z" fill="url(#paint15_linear_1266_3998)"/>
</g>
<path fill-rule="evenodd" clip-rule="evenodd" d="M14.8956 269.161C16.9962 269.161 18.712 270.861 18.712 272.978C18.712 275.078 17.0123 276.794 14.8956 276.794C12.779 276.794 11.0792 275.094 11.0792 272.978C11.0953 270.877 12.795 269.161 14.8956 269.161ZM14.8956 280.258C16.9962 280.258 18.712 281.957 18.712 284.074C18.712 286.175 17.0123 287.89 14.8956 287.89C12.779 287.89 11.0792 286.191 11.0792 284.074C11.0953 281.973 12.795 280.258 14.8956 280.258ZM54.6149 280.258C56.7155 280.258 58.4313 281.957 58.4313 284.074C58.4313 286.175 56.7315 287.89 54.6149 287.89C52.4982 287.89 50.7985 286.191 50.7985 284.074C50.7985 281.973 52.4982 280.258 54.6149 280.258ZM41.3698 280.258C43.4704 280.258 45.1862 281.957 45.1862 284.074C45.1862 286.175 43.4704 287.89 41.3698 287.89C39.2692 287.89 37.5534 286.191 37.5534 284.074C37.5534 281.973 39.2692 280.258 41.3698 280.258ZM28.1407 280.258C30.2413 280.258 31.9571 281.957 31.9571 284.074C31.9571 286.175 30.2574 287.89 28.1407 287.89C26.0241 287.89 24.3243 286.191 24.3243 284.074C24.3243 281.973 26.0241 280.258 28.1407 280.258ZM54.6149 269.161C56.7155 269.161 58.4313 270.861 58.4313 272.978C58.4313 275.078 56.7315 276.794 54.6149 276.794C52.4982 276.794 50.7985 275.094 50.7985 272.978C50.7985 270.877 52.4982 269.161 54.6149 269.161ZM41.3698 269.161C43.4704 269.161 45.1862 270.861 45.1862 272.978C45.1862 275.078 43.4704 276.794 41.3698 276.794C39.2692 276.794 37.5534 275.094 37.5534 272.978C37.5534 270.877 39.2692 269.161 41.3698 269.161ZM28.1407 269.161C30.2413 269.161 31.9571 270.861 31.9571 272.978C31.9571 275.078 30.2574 276.794 28.1407 276.794C26.0241 276.794 24.3243 275.094 24.3243 272.978C24.3243 270.877 26.0241 269.161 28.1407 269.161Z" fill="white"/>
<path d="M76.1986 265.633H71.0513V291.161H76.1986V265.633Z" fill="#1A1226"/>
<path d="M85.1942 265.633H80.0469V291.161H85.1942V265.633Z" fill="#EEE5F4"/>
<path d="M94.1899 265.633H89.0426V291.161H94.1899V265.633Z" fill="#1A1226"/>
<path d="M103.186 265.633H98.0385V291.161H103.186V265.633Z" fill="white"/>
<path d="M112.181 265.633H107.034V291.161H112.181V265.633Z" fill="#D0D0D0"/>
<path d="M121.193 265.633H116.046V291.161H121.193V265.633Z" fill="white"/>
<path d="M130.189 265.633H125.042V291.161H130.189V265.633Z" fill="#D0D0D0"/>
<path d="M139.185 265.633H134.038V291.161H139.185V265.633Z" fill="white"/>
<path d="M148.181 265.633H143.033V291.161H148.181V265.633Z" fill="#D0D0D0"/>
<path d="M157.176 265.633H152.029V291.161H157.176V265.633Z" fill="white"/>
<path d="M166.172 265.633H161.025V291.161H166.172V265.633Z" fill="#D0D0D0"/>
<path d="M99.3053 44.155H57.0845V66.5082H99.3053V44.155Z" fill="white"/>
<path d="M99.3053 72.8901H57.0845V82.4792H99.3053V72.8901Z" fill="white"/>
<path fill-rule="evenodd" clip-rule="evenodd" d="M79.4858 46.4959C78.6199 45.1169 77.8342 44.1227 77.1287 43.5294C80.4961 41.7014 82.3562 39.713 82.725 37.5322C83.2221 37.9652 83.639 38.4783 83.9757 39.1037C82.7089 42.0702 81.2176 44.5396 79.4858 46.4959Z" fill="#A535C5"/>
<path fill-rule="evenodd" clip-rule="evenodd" d="M74.7553 46.4959C75.6212 45.1169 76.407 44.1227 77.1125 43.5294C73.7611 41.7014 71.885 39.713 71.5322 37.5322C71.0351 37.9652 70.6182 38.4783 70.2815 39.1037C71.5322 42.0702 73.0235 44.5396 74.7553 46.4959Z" fill="#A535C5"/>
<path fill-rule="evenodd" clip-rule="evenodd" d="M104.453 49.3662C100.829 44.3632 93.9976 40.9317 83.9595 39.0876C82.7088 42.0702 81.2175 44.5236 79.4857 46.4959C78.6198 45.1169 77.8341 44.1227 77.1285 43.5294C76.423 44.1387 75.6372 45.1169 74.7713 46.4959C73.0395 44.5396 71.5483 42.0702 70.2975 39.0876C60.2595 40.9317 53.4284 44.3632 49.8045 49.3662C47.0304 57.4801 45.2024 63.9102 44.3204 68.6566C47.2709 69.282 50.6383 70.0357 54.4707 70.9016C53.9576 80.0577 53.8293 87.8668 54.0699 94.3611C59.4256 95.9165 66.898 98.6906 75.8136 102.427C76.2787 102.411 76.7116 102.395 77.1285 102.363C77.5454 102.395 77.9944 102.411 78.4434 102.427C87.359 98.7067 94.8314 95.9165 100.187 94.3611C100.444 87.8829 100.299 80.0577 99.7863 70.9016C103.619 70.0357 107.002 69.298 109.937 68.6566C109.055 63.9102 107.227 57.4801 104.453 49.3662Z" fill="#A535C5"/>
<path fill-rule="evenodd" clip-rule="evenodd" d="M98.1827 55.572C98.8883 60.1581 99.4335 65.2733 99.7863 70.9017C100.267 70.7895 100.748 70.6772 101.213 70.581C100.588 67.0853 99.5778 62.0823 98.1827 55.572Z" fill="#A535C5"/>
<path fill-rule="evenodd" clip-rule="evenodd" d="M56.0742 55.572C55.3687 60.1581 54.8235 65.2733 54.4707 70.9017C53.9897 70.7895 53.5086 70.6772 53.0436 70.581C53.6529 67.0853 54.6631 62.0823 56.0742 55.572Z" fill="#A535C5"/>
<path fill-rule="evenodd" clip-rule="evenodd" d="M97.8943 112.256C98.9686 114.998 96.9963 119.44 95.6494 120.322C71.1315 117.869 55.8178 114.421 46.3731 109.643C43.5509 108.087 38.6441 107.414 35.6455 105.425C28.3976 97.7766 33.8175 87.7546 41.0013 88.2517C46.0203 89.2138 48.3935 90.657 50.7667 93.4952C59.3616 95.4515 76.8561 102.379 97.8943 112.256Z" fill="#1B1425"/>
<path fill-rule="evenodd" clip-rule="evenodd" d="M123.983 116.346C124.978 123.048 116.607 124.107 99.4335 121.188C106.665 118.799 107.611 116.698 102.24 113.347C117.184 110.637 123.999 110.653 123.983 116.346ZM30.2735 116.346C29.2953 123.048 37.6497 124.107 54.8395 121.188C47.6076 118.799 46.6615 116.698 52.0333 113.347C37.0724 110.637 30.2414 110.653 30.2735 116.346Z" fill="white"/>
<path fill-rule="evenodd" clip-rule="evenodd" d="M95.9539 120.066C97.3971 120.338 98.5516 120.723 99.4175 121.204C106.649 118.815 107.596 116.714 102.224 113.363C101.005 113.427 99.626 113.267 98.0706 112.882C98.6478 115.399 97.1726 118.863 95.9539 120.066ZM58.2871 120.066C56.844 120.338 55.6894 120.723 54.8235 121.204C47.5916 118.815 46.6456 116.714 52.0174 113.363C53.2361 113.427 54.6151 113.267 56.1705 112.882C55.6093 115.399 57.0845 118.863 58.2871 120.066Z" fill="#FFB27D"/>
<path fill-rule="evenodd" clip-rule="evenodd" d="M109.055 83.9383C109.648 79.1117 109.504 74.1087 108.606 68.9453C106.377 69.4264 103.923 69.9716 101.214 70.5809C100.748 70.6771 100.267 70.7894 99.7864 70.9016C100.283 79.7691 100.428 87.3858 100.203 93.7518C104.597 90.192 107.547 86.9368 109.055 83.9383Z" fill="#FFB27D"/>
<path fill-rule="evenodd" clip-rule="evenodd" d="M45.2025 83.9383C44.6092 79.1117 44.7535 74.1087 45.6514 68.9453C47.8803 69.4264 50.3337 69.9716 53.0437 70.5809C53.5087 70.6771 53.9898 70.7894 54.4708 70.9016C53.9737 79.7691 53.8294 87.3858 54.0539 93.7518C49.6442 90.192 46.6937 86.9368 45.2025 83.9383Z" fill="#FFB27D"/>
<path fill-rule="evenodd" clip-rule="evenodd" d="M102.336 82.6715C102.288 79.2079 102.176 75.1189 101.967 70.4045C101.727 70.4526 101.47 70.5168 101.213 70.5649C100.748 70.6611 100.267 70.7734 99.7863 70.8856C100.091 76.3536 100.267 81.3406 100.299 85.8625C100.7 85.3975 101.165 84.8523 101.695 84.2269C103.218 83.5855 104.741 83.2648 106.265 83.2648C104.517 82.7356 103.202 82.5272 102.336 82.6715ZM51.9051 82.6715C51.9532 79.2079 52.0655 75.1189 52.2739 70.4045C52.5145 70.4526 52.771 70.5168 53.0115 70.5649C53.4766 70.6611 53.9576 70.7734 54.4387 70.8856C54.134 76.3536 53.9576 81.3406 53.9256 85.8625C53.5247 85.3975 53.0597 84.8523 52.5305 84.2269C51.0071 83.5855 49.4838 83.2648 47.9604 83.2648C49.7404 82.7356 51.0392 82.5272 51.9051 82.6715Z" fill="#F08261"/>
<path fill-rule="evenodd" clip-rule="evenodd" d="M54.7272 73.3872H99.5297C99.9627 73.3872 100.315 73.74 100.315 74.1729V94.3132C94.9597 95.8686 87.4712 98.6427 78.5235 102.379H75.7494C66.8018 98.6427 59.3133 95.8526 53.9576 94.3132V74.1729C53.9415 73.74 54.2943 73.3872 54.7272 73.3872Z" fill="white"/>
<path fill-rule="evenodd" clip-rule="evenodd" d="M56.0262 94.9386C61.1736 96.5582 67.8923 99.0917 75.7335 102.379L75.7977 102.411L76.3429 102.379H77.1286H77.9143L78.4595 102.411C86.3328 99.1238 93.0676 96.5742 98.231 94.9386V78.3101C85.1943 95.3876 75.942 83.8743 66.0803 83.8743C62.729 83.8743 59.5059 85.093 56.0423 88.2038V94.9386H56.0262Z" fill="#AA375D"/>
<path fill-rule="evenodd" clip-rule="evenodd" d="M72.4461 14.8423C75.4608 19.0435 80.2553 22.7316 86.8298 25.9226C85.1942 30.8454 82.7087 35.64 77.2888 36.538C72.0934 35.7041 69.2231 31.9519 68.0525 26.6282C70.8426 23.5173 72.3018 19.5887 72.4461 14.8423Z" fill="#FFB27D"/>
<path fill-rule="evenodd" clip-rule="evenodd" d="M92.1215 17.5043C92.1215 9.21406 85.3386 2.43115 77.0483 2.43115C68.7581 2.43115 61.9752 9.21406 61.9752 17.5043V41.2204C64.4446 40.3545 67.2187 39.6489 70.2815 39.0877C70.6182 38.4784 71.0351 37.9492 71.5322 37.5163C71.901 39.6971 73.7611 41.7015 77.1125 43.5134C80.4799 41.6854 82.34 39.6971 82.7088 37.5163C83.2059 37.9492 83.6228 38.4623 83.9595 39.0877C86.9742 39.6489 89.7001 40.3385 92.1375 41.1723V17.5043H92.1215ZM72.4462 14.8424C75.4609 19.0437 80.2554 22.7318 86.8298 25.9228C85.1942 30.8456 82.7088 35.6401 77.2889 36.5381C72.0935 35.7043 69.2232 31.952 68.0526 26.6283C70.8427 23.5175 72.3019 19.5889 72.4462 14.8424Z" fill="black"/>
<path fill-rule="evenodd" clip-rule="evenodd" d="M82.7087 37.5324C82.3399 36.9391 82.0673 35.8968 81.9069 34.3895C80.6562 35.4638 79.1329 36.2335 77.2728 36.5382C75.092 36.1854 73.3281 35.3195 71.917 34.0527C71.8689 35.4318 71.7406 36.5863 71.5161 37.5324C71.8849 39.7132 73.745 41.7176 77.0964 43.5296C80.4798 41.7015 82.3399 39.7132 82.7087 37.5324Z" fill="#FFB27D"/>
<path fill-rule="evenodd" clip-rule="evenodd" d="M82.0674 35.5119C82.0032 35.1751 81.9551 34.7903 81.923 34.3734C80.6723 35.4477 79.1489 36.2174 77.2889 36.5221C75.1081 36.1693 73.3442 35.3034 71.9331 34.0366C71.917 34.5337 71.885 34.9827 71.8529 35.4317C73.1518 36.3136 74.9798 37.0673 77.337 37.6766C78.8282 37.2757 80.3997 36.7305 82.0674 35.5119Z" fill="#F08261"/>
<path fill-rule="evenodd" clip-rule="evenodd" d="M61.9912 30.4126H68.8062L67.9403 58.2177H64.7493L65.3426 49.1738L63.7711 58.2177H59.4576C61.0451 51.7074 62.5364 37.3719 61.9912 30.4126Z" fill="black"/>
<path fill-rule="evenodd" clip-rule="evenodd" d="M85.3707 30.7654L91.7527 30.2202C91.6084 40.1941 91.7366 51.8518 92.8591 58.6026H89.6521L89.4115 57.7527L89.0267 58.6026H87.8882L87.1025 52.7978L86.878 58.6026H84.5048L85.3707 30.7654Z" fill="black"/>
<path fill-rule="evenodd" clip-rule="evenodd" d="M56.3628 112.256C55.2885 114.998 57.2608 119.44 58.6078 120.322C83.1256 117.869 98.4393 114.421 107.884 109.643C110.706 108.087 115.613 107.414 118.612 105.425C125.86 97.7766 120.424 87.7546 113.256 88.2517C108.237 89.2138 105.864 90.657 103.49 93.4952C94.8955 95.4515 77.385 102.379 56.3628 112.256Z" fill="#1B1425"/>
<path fill-rule="evenodd" clip-rule="evenodd" d="M75.493 102.282C62.0875 107.494 51.5363 109.595 43.8234 108.568C44.7694 108.889 45.6353 109.242 46.373 109.643C48.8424 110.893 51.7127 112.048 55.032 113.122C55.4008 113.058 55.7857 112.978 56.1865 112.882C56.2346 112.673 56.2988 112.465 56.379 112.272C63.8193 108.777 70.8267 105.65 77.1446 102.988C76.6956 102.796 76.2627 102.619 75.8297 102.427C75.8137 102.411 75.7816 102.411 75.7656 102.395C75.6533 102.347 75.5731 102.315 75.493 102.282Z" fill="#1B1425"/>
<path fill-rule="evenodd" clip-rule="evenodd" d="M98.1667 113.443C92.5063 115.191 85.579 116.698 77.1124 118.013C82.6125 118.863 88.754 119.632 95.6331 120.322C95.7293 120.258 95.8416 120.162 95.9538 120.065C97.0763 118.959 98.4233 115.896 98.1667 113.443Z" fill="#1B1425"/>
<path fill-rule="evenodd" clip-rule="evenodd" d="M80.7526 31.6953C76.3429 32.0802 72.9434 31.6953 74.0499 31.8717C75.2044 32.4169 78.2351 32.3848 80.7526 31.6953Z" fill="white"/>
<path fill-rule="evenodd" clip-rule="evenodd" d="M332.506 150.981C340.058 153.723 344.901 153.98 347.034 151.767C349.215 151.27 350.626 149.33 351.283 145.994C353.528 140.895 351.604 132.749 348.445 136.79C345.831 130.103 335.344 133.984 329.427 130.264C325.835 132.605 327.198 138.41 329.78 140.366C329.684 147.053 330.052 150.612 332.506 150.981Z" fill="black"/>
<path fill-rule="evenodd" clip-rule="evenodd" d="M350.16 137.512C349.343 136.886 349.086 136.197 349.375 135.443C350.625 134.738 351.812 134.721 352.951 135.379C352.261 135.427 351.331 136.133 350.16 137.512Z" fill="black"/>
<path fill-rule="evenodd" clip-rule="evenodd" d="M348.605 135.764C349.182 136.405 349.728 136.55 350.209 136.197C350.513 134.978 350.337 133.888 349.679 132.974C349.76 133.583 349.391 134.513 348.605 135.764Z" fill="black"/>
<path fill-rule="evenodd" clip-rule="evenodd" d="M344.612 138.554C346.04 137.993 347.114 138.185 347.851 139.115C347.787 141.248 346.681 145.545 344.981 146.475C344.676 146.283 344.741 141.761 344.612 138.554Z" fill="#284191"/>
<path fill-rule="evenodd" clip-rule="evenodd" d="M344.067 136.502C346.472 137.672 347.274 138.731 346.44 139.661C342.816 140.19 339.337 139.805 336.017 138.49C338.038 138.666 340.716 138.009 344.067 136.502Z" fill="#284191"/>
<path fill-rule="evenodd" clip-rule="evenodd" d="M329.956 140.093C332.682 137.335 337.813 137.015 344.901 139.596C349.375 138.49 350.385 136.421 348.493 133.054C345.815 128.291 340.026 132.06 332.939 127.586C333.211 131.05 322.66 134.032 329.956 140.093Z" fill="black"/>
<path fill-rule="evenodd" clip-rule="evenodd" d="M346.986 142.435C345.109 142.034 345.286 145.898 345.43 147.807C345.703 151.559 349.936 143.06 346.986 142.435Z" fill="#FFB27D"/>
<path fill-rule="evenodd" clip-rule="evenodd" d="M349.182 158.085C348.14 158.165 346.504 157.957 346.216 157.588C345.109 156.177 344.34 154.717 344.051 153.787C344.259 153.178 344.484 152.392 344.724 151.462C348.733 148.736 349.279 146.716 346.376 145.417C345.783 145.754 345.061 146.764 344.195 148.464C343.506 148.432 342.977 148.079 342.608 147.405C343.442 144.535 343.971 142.21 344.227 140.43C342.255 137.496 337.637 137.079 331.511 137.864C331.223 139.5 330.998 141.216 330.806 143.044C330.052 143.749 327.823 155.487 335.344 155.952C335.392 156.818 335.312 157.86 335.264 157.989C335.184 158.181 334.863 158.357 334.446 158.502C334.318 162.479 339.24 162.35 349.182 158.085Z" fill="#FFB27D"/>
<path fill-rule="evenodd" clip-rule="evenodd" d="M331.512 137.849C337.637 137.063 342.255 137.48 344.228 140.414C343.971 142.21 343.442 144.535 342.608 147.39C342.961 148.079 343.49 148.432 344.195 148.448C345.061 146.748 345.799 145.738 346.376 145.401C349.295 146.7 348.749 148.72 344.725 151.446C344.484 152.393 344.26 153.162 344.051 153.772C347.659 152.97 350.674 149.731 351.107 148.336C355.308 140.045 350.626 136.534 348.108 135.267C347.002 127.057 335.071 134.305 329.106 130.36C326.717 133.663 329.651 137.784 331.512 137.849Z" fill="black"/>
<path fill-rule="evenodd" clip-rule="evenodd" d="M339.369 155.103C338.391 155.584 337.06 155.872 335.344 155.952C335.376 156.53 335.36 157.187 335.312 157.604C337.028 157.267 338.391 156.433 339.369 155.103Z" fill="#F08261"/>
<path fill-rule="evenodd" clip-rule="evenodd" d="M332.378 135.828C331.448 136.534 331.159 137.319 331.48 138.153C332.891 138.955 334.238 138.971 335.52 138.233C334.751 138.201 333.709 137.4 332.378 135.828Z" fill="black"/>
<path fill-rule="evenodd" clip-rule="evenodd" d="M356.719 313.466C360.199 312.248 360.471 310.452 362.347 309.586C364.24 308.704 364.448 307.132 362.604 305.433C361.241 306.523 359.557 307.854 358.659 307.148C358.066 306.683 356.03 306.699 355.629 307.405C353.865 311.51 351.411 310.211 350.93 312.071C350.866 314.557 355.116 314.028 356.719 313.466Z" fill="white"/>
<path fill-rule="evenodd" clip-rule="evenodd" d="M326.877 313.594C333.291 313.498 338.086 313.418 340.299 312.713C342.688 311.959 342.191 310.5 340.828 308.175C334.783 310.949 336.386 307.597 333.564 308.03C331.576 309.634 328.641 310.708 324.745 311.237C323.093 312.456 323.766 313.546 326.877 313.594Z" fill="white"/>
<path fill-rule="evenodd" clip-rule="evenodd" d="M295.785 172.003C301.173 186.611 303.738 194.966 311.227 202.005C313.921 201.188 316.326 199.343 318.411 196.473C318.298 205.693 318.523 214.882 319.1 224.022C324.568 226.619 331.816 226.443 340.86 223.525L344.532 219.003C345.478 218.826 347.611 219.869 348.637 221.456C357.232 214.898 363.021 207.858 366.436 200.851C365.506 185.81 363.47 173.944 360.311 165.253C358.707 162.799 354.955 160.378 349.038 158.005C339.256 162.206 334.414 162.334 334.526 158.389C331.64 159.336 327.823 161.003 323.077 163.409C319.116 166.423 315.733 174.585 312.943 187.926C308.886 181.464 304.62 175.162 299.249 169.55C298.158 169.839 296.891 170.64 295.785 172.003ZM346.504 214.93C343.65 205.565 345.238 194.02 351.219 180.262C352.726 187.044 354.362 193.715 356.11 200.29C354.073 201.252 350.882 206.126 346.504 214.93Z" fill="#A535C5"/>
<path fill-rule="evenodd" clip-rule="evenodd" d="M347.563 227.133C346.184 227.02 343.939 225.818 340.844 223.525C331.8 226.443 324.536 226.62 319.084 224.022C318.106 239.4 321.89 255.531 326.701 273.523C331.399 281.412 331.207 286.96 333.708 305.176C335.103 306.17 337.396 306.026 340.603 304.743C341.614 289.221 340.924 278.943 336.883 273.138C337.509 267.926 335.873 255.13 335.793 247.097C338.727 253.623 340.732 262.458 344.548 271.374C349.198 282.23 352.437 293.839 354.891 304.439C357.488 304.936 359.926 304.647 362.187 303.541C359.573 286.126 356.687 274.132 353.528 267.574C353.656 250.448 352.02 235.07 348.637 221.44C348.012 223.06 347.643 224.952 347.563 227.133Z" fill="#1B1425"/>
<path fill-rule="evenodd" clip-rule="evenodd" d="M318.395 196.473C318.699 187.51 319.405 180.165 320.543 174.441C317.641 186.612 314.835 194.693 312.109 198.67C310.393 198.622 308.437 197.516 305.807 195.527C307.394 197.917 309.094 200.113 311.211 202.005C313.921 201.188 316.31 199.344 318.395 196.473Z" fill="#A535C5"/>
<path fill-rule="evenodd" clip-rule="evenodd" d="M344.532 219.003C345.061 217.704 345.719 216.341 346.504 214.93C343.65 205.565 345.238 194.02 351.219 180.262C342.496 192.657 340.026 205.854 343.81 219.885L344.532 219.003Z" fill="#A535C5"/>
<path fill-rule="evenodd" clip-rule="evenodd" d="M340.219 308.447C339.898 307.389 339.77 306.251 339.85 305.016C337.397 305.898 335.537 306.042 334.254 305.481C334.318 306.379 334.222 307.229 333.949 307.998C336.162 307.918 335.152 310.612 340.219 308.447ZM356.382 306.94C357.152 306.732 358.242 306.828 358.643 307.149C359.445 307.774 360.872 306.78 362.139 305.786C361.914 305.192 361.738 304.535 361.594 303.813C360.07 304.455 358.467 304.743 356.799 304.679C356.831 305.577 356.687 306.331 356.382 306.94Z" fill="#FFB27D"/>
<path fill-rule="evenodd" clip-rule="evenodd" d="M291.792 139.548L356.847 224.134C359.012 226.94 359.076 230.628 356.238 232.809C353.399 234.99 349.327 234.477 347.162 231.671L282.828 148.015C276.767 149.49 270.385 147.309 266.569 142.338C263.618 138.506 263.362 134.353 263.843 130.039L264.837 128.276L272.967 138.859L282.315 137.624L286.196 128.596L278.242 118.253L279.365 117.115C284.624 118.045 287.671 119.552 290.878 122.888C294.678 127.827 293.203 133.278 291.792 139.548Z" fill="#F06A30"/>
<path fill-rule="evenodd" clip-rule="evenodd" d="M279.365 117.115C283.726 117.179 288.008 119.151 290.878 122.888C294.71 127.859 294.871 134.497 291.808 139.564L356.863 224.15C358.659 226.475 358.21 229.843 355.885 231.639C353.56 233.435 350.176 232.986 348.396 230.661L283.342 146.075C277.665 147.742 271.283 145.882 267.467 140.911C264.596 137.191 263.795 132.541 264.853 128.308L272.983 138.891L283.47 137.496L287.511 127.714L279.365 117.115Z" fill="#F57A44"/>
<path fill-rule="evenodd" clip-rule="evenodd" d="M363.325 206.223C359.862 211.418 355.019 216.566 348.637 221.44C347.883 220.173 345.975 217.143 344.933 217.207C345.991 216.245 345.719 216.325 346.504 214.914C349.679 208.516 352.245 204.202 354.185 201.941C356.494 203.24 359.541 204.667 363.325 206.223Z" fill="#A535C5"/>
<path fill-rule="evenodd" clip-rule="evenodd" d="M346.537 224.744C347.531 222.803 348.653 221.232 349.904 220.045C349.647 218.169 348.156 216.325 347.21 216.084L343.65 217.816C340.523 218.073 338.038 218.522 336.178 219.147C337.509 220.238 338.759 220.606 339.93 220.238C338.391 221.328 337.589 222.098 337.525 222.515C339.593 226.572 341.373 228.528 342.881 228.367C344.933 227.021 346.152 225.818 346.537 224.744Z" fill="#FFB27D"/>
<path fill-rule="evenodd" clip-rule="evenodd" d="M295.785 172.004C295.609 171.555 294.951 169.743 294.229 167.963C292.45 167.049 290.67 164.194 290.91 162.559C291.552 160.474 291.135 159.4 293.187 158.887C293.797 159.111 294.759 160.442 295.352 162.575C294.646 163.922 295.913 165.028 296.619 165.958C297.453 167.321 296.891 166.311 297.837 167.818C298.206 168.604 298.912 169.278 299.104 169.711C297.982 170.047 296.907 170.641 295.785 172.004Z" fill="#FFB27D"/>
<path fill-rule="evenodd" clip-rule="evenodd" d="M338.246 142.306C338.647 142.258 339.016 142.627 339.048 143.156C339.096 143.685 338.792 144.15 338.391 144.198C337.99 144.246 337.621 143.878 337.589 143.349C337.541 142.835 337.846 142.37 338.246 142.306Z" fill="#BBDBFA"/>
<path fill-rule="evenodd" clip-rule="evenodd" d="M338.391 144.198C338.792 144.15 339.096 143.669 339.048 143.156C339 142.627 338.647 142.258 338.246 142.306C338.086 142.322 337.926 142.418 337.813 142.563L337.862 142.547C337.99 142.531 338.118 142.659 338.118 142.819C338.134 142.996 338.038 143.14 337.91 143.156C337.781 143.172 337.653 143.044 337.653 142.883V142.851C337.605 142.996 337.573 143.172 337.589 143.349C337.637 143.878 337.99 144.263 338.391 144.198Z" fill="black"/>
<path fill-rule="evenodd" clip-rule="evenodd" d="M336.963 141.681C336.947 141.697 336.931 141.713 336.915 141.729C336.931 141.649 337.044 141.521 337.076 141.456C337.028 141.489 337.012 141.505 336.963 141.553C336.931 141.601 336.899 141.649 336.883 141.713C336.883 141.649 336.899 141.601 336.915 141.537C336.883 141.585 336.867 141.665 336.851 141.729C336.851 141.537 336.867 141.553 336.931 141.36C336.851 141.408 336.787 141.585 336.787 141.681C336.771 141.633 336.771 141.585 336.771 141.537C336.739 141.601 336.739 141.633 336.739 141.697L336.691 141.633C336.707 141.681 336.707 141.697 336.723 141.729C336.627 141.649 336.466 141.408 336.482 141.28C336.498 141.328 336.547 141.44 336.563 141.472C336.547 141.376 336.515 141.28 336.531 141.184C336.563 141.248 336.547 141.344 336.563 141.408C336.579 141.472 336.611 141.569 336.643 141.617C336.611 141.456 336.563 141.328 336.611 141.168V141.216C336.611 141.296 336.611 141.392 336.627 141.456C336.643 141.312 336.627 141.184 336.755 141.072C336.723 141.136 336.707 141.168 336.675 141.232C336.739 141.168 336.755 141.04 336.867 141.04C336.819 141.088 336.771 141.136 336.723 141.216C336.691 141.28 336.627 141.376 336.659 141.456C336.723 141.2 336.867 141.056 337.044 141.007C336.996 141.04 336.851 141.152 336.835 141.2V141.216C336.851 141.28 336.851 141.152 336.835 141.232C336.803 141.264 336.755 141.312 336.739 141.36C336.723 141.392 336.707 141.424 336.707 141.456C336.707 141.472 336.691 141.505 336.691 141.521C336.691 141.537 336.691 141.537 336.691 141.553V141.569C336.739 141.392 336.803 141.296 336.915 141.2C336.996 141.136 337.156 141.04 337.252 141.023L337.172 141.072C336.98 141.168 336.787 141.296 336.723 141.553C336.739 141.537 336.723 141.553 336.739 141.537C336.739 141.537 336.739 141.537 336.755 141.521C336.803 141.456 336.835 141.376 336.899 141.312C336.964 141.248 337.044 141.184 337.108 141.136C337.204 141.088 337.477 140.975 337.637 140.991C337.589 140.991 337.316 141.072 337.284 141.088C337.188 141.136 337.06 141.184 336.98 141.296C337.028 141.28 337.06 141.248 337.108 141.232C337.364 141.12 337.797 140.943 338.054 140.959C337.894 140.991 337.669 141.072 337.541 141.136L337.637 141.12C337.605 141.136 337.589 141.152 337.557 141.168C337.525 141.184 337.509 141.184 337.477 141.216C337.348 141.296 337.14 141.424 337.06 141.585C337.092 141.553 337.14 141.521 337.188 141.489C337.236 141.456 337.268 141.424 337.316 141.392C337.396 141.328 337.493 141.264 337.589 141.216C337.781 141.12 337.974 141.04 338.198 140.991C338.166 141.007 338.134 141.023 338.102 141.04C338.278 141.023 338.583 140.879 339.048 140.863C338.952 140.895 338.792 140.911 338.679 140.943L338.583 140.975C338.647 140.975 338.84 140.927 338.92 140.911C339.305 140.831 339.561 140.783 339.978 140.783C340.251 140.783 340.507 140.783 340.78 140.895C340.956 140.975 341.117 141.056 341.261 141.184C341.309 141.232 341.341 141.264 341.373 141.296C341.261 141.248 341.02 141.007 340.78 140.959C341.149 141.184 341.453 141.376 341.71 141.649C341.646 141.601 341.55 141.505 341.469 141.456C341.373 141.392 341.293 141.328 341.197 141.264C341.036 141.152 340.764 141.007 340.555 140.943C340.604 140.991 340.732 141.04 340.796 141.088C341.261 141.344 341.694 141.649 342.095 141.986C342.143 142.034 342.239 142.13 342.271 142.146C342.223 142.13 342.063 142.002 341.999 141.954C341.694 141.745 341.421 141.569 341.052 141.456C341.149 141.537 341.806 141.793 342.015 141.986L341.453 141.697C341.277 141.617 340.988 141.488 340.796 141.472C341.02 141.521 341.854 141.889 342.015 142.034C341.918 142.002 341.79 141.938 341.694 141.889C341.582 141.841 341.469 141.793 341.357 141.761C341.117 141.681 340.876 141.601 340.62 141.569C340.283 141.521 339.962 141.521 339.641 141.553C339.545 141.569 339.417 141.585 339.337 141.585C339.385 141.553 339.545 141.537 339.609 141.537C339.802 141.505 339.994 141.489 340.171 141.489C340.251 141.489 340.395 141.505 340.459 141.489C340.235 141.424 340.058 141.456 339.85 141.424C339.866 141.424 339.866 141.424 339.866 141.424C339.882 141.408 339.882 141.424 339.882 141.408C339.77 141.392 339.529 141.44 339.417 141.472C339.289 141.505 339.016 141.617 339 141.617C339.032 141.601 339.064 141.569 339.096 141.553L338.775 141.633L339.176 141.489C339.096 141.505 338.984 141.537 338.92 141.553C338.824 141.569 338.631 141.617 338.535 141.665C338.439 141.713 338.246 141.729 338.134 141.729C338.166 141.713 338.294 141.665 338.359 141.649L338.567 141.569C338.615 141.553 338.647 141.537 338.679 141.521C338.776 141.472 338.888 141.424 338.984 141.392C339.176 141.312 339.722 141.152 339.914 141.216C339.657 141.136 339.128 141.296 338.952 141.376L338.519 141.553C338.487 141.569 338.455 141.585 338.407 141.601C338.31 141.649 338.198 141.697 338.086 141.713V141.697C338.054 141.729 337.942 141.761 337.894 141.777C337.99 141.681 338.262 141.601 338.343 141.472C338.246 141.505 338.15 141.585 338.07 141.633C338.038 141.649 338.006 141.665 337.99 141.681C338.054 141.553 338.198 141.456 338.31 141.376L338.439 141.296C338.327 141.296 338.214 141.408 338.134 141.472C338.054 141.537 337.99 141.633 337.91 141.713C337.91 141.729 337.91 141.729 337.894 141.729C337.878 141.745 337.894 141.745 337.878 141.745L337.974 141.585C337.958 141.617 337.829 141.745 337.813 141.793C337.829 141.697 337.878 141.633 337.926 141.569L337.861 141.617C337.958 141.44 338.198 141.328 338.343 141.216C338.198 141.232 337.926 141.44 337.829 141.569C337.781 141.633 337.749 141.713 337.701 141.761L337.749 141.633L337.685 141.713C337.733 141.553 337.813 141.456 337.926 141.36C337.878 141.376 337.845 141.408 337.813 141.424C337.781 141.456 337.749 141.489 337.717 141.521C337.669 141.601 337.621 141.681 337.573 141.777C337.557 141.745 337.589 141.665 337.605 141.617C337.573 141.633 337.605 141.617 337.573 141.633C337.525 141.665 337.493 141.729 337.477 141.777L337.493 141.681L337.429 141.777C337.445 141.681 337.477 141.633 337.493 141.553C337.445 141.585 337.412 141.665 337.38 141.729C337.364 141.697 337.38 141.649 337.396 141.601L337.316 141.681C337.3 141.713 337.284 141.745 337.252 141.761C337.268 141.681 337.316 141.633 337.348 141.553C337.268 141.601 337.236 141.681 337.172 141.777C337.188 141.681 337.268 141.521 337.316 141.456C337.22 141.472 337.172 141.713 337.124 141.761V141.665C337.108 141.665 337.124 141.665 337.108 141.681L337.06 141.777V141.649C337.028 141.681 337.028 141.729 336.996 141.777C336.996 141.777 336.996 141.665 337.012 141.601C336.996 141.617 337.012 141.601 336.98 141.617C336.931 141.649 336.931 141.713 336.883 141.745L336.931 141.633C336.915 141.633 336.931 141.633 336.915 141.649L336.963 141.681Z" fill="black"/>
<path fill-rule="evenodd" clip-rule="evenodd" d="M331.768 142.098C331.399 142.146 331.127 142.611 331.159 143.14C331.191 143.67 331.528 144.038 331.912 143.99C332.281 143.942 332.554 143.461 332.522 142.948C332.474 142.435 332.137 142.05 331.768 142.098Z" fill="#BBDBFA"/>
<path fill-rule="evenodd" clip-rule="evenodd" d="M331.896 143.99C331.528 144.038 331.191 143.669 331.143 143.14C331.111 142.611 331.383 142.146 331.752 142.098C331.912 142.082 332.057 142.13 332.185 142.242H332.137C332.009 142.258 331.929 142.419 331.945 142.579C331.961 142.755 332.073 142.868 332.185 142.852C332.313 142.836 332.394 142.675 332.378 142.515V142.483C332.442 142.611 332.49 142.771 332.506 142.948C332.554 143.477 332.281 143.942 331.896 143.99Z" fill="black"/>
<path fill-rule="evenodd" clip-rule="evenodd" d="M333.34 141.809C333.356 141.825 333.372 141.841 333.372 141.857C333.356 141.777 333.276 141.665 333.243 141.585C333.276 141.617 333.292 141.633 333.324 141.681C333.356 141.729 333.372 141.777 333.388 141.841C333.388 141.777 333.372 141.729 333.372 141.665C333.388 141.713 333.404 141.793 333.42 141.841C333.42 141.649 333.404 141.665 333.356 141.489C333.42 141.537 333.452 141.713 333.468 141.809C333.484 141.761 333.484 141.713 333.484 141.665C333.5 141.729 333.516 141.761 333.5 141.825L333.532 141.761C333.532 141.809 333.516 141.809 333.516 141.857C333.58 141.777 333.692 141.537 333.692 141.408C333.676 141.456 333.66 141.569 333.628 141.601C333.628 141.505 333.66 141.408 333.644 141.296C333.628 141.36 333.628 141.456 333.628 141.521C333.612 141.601 333.596 141.681 333.564 141.729C333.58 141.585 333.612 141.456 333.58 141.28V141.328C333.58 141.408 333.58 141.489 333.564 141.569C333.548 141.424 333.548 141.296 333.468 141.184C333.484 141.248 333.516 141.28 333.516 141.344C333.468 141.28 333.452 141.152 333.372 141.152C333.404 141.2 333.436 141.248 333.468 141.312C333.5 141.376 333.532 141.472 333.516 141.553C333.468 141.296 333.356 141.152 333.227 141.104C333.26 141.136 333.372 141.248 333.388 141.296V141.312C333.388 141.392 333.372 141.248 333.388 141.328C333.404 141.36 333.436 141.408 333.452 141.456C333.468 141.489 333.468 141.521 333.484 141.553C333.484 141.569 333.5 141.601 333.5 141.617C333.5 141.633 333.5 141.633 333.5 141.649V141.665C333.468 141.489 333.42 141.392 333.324 141.296C333.276 141.232 333.147 141.136 333.083 141.12L333.147 141.152C333.292 141.248 333.436 141.376 333.484 141.617C333.468 141.601 333.484 141.617 333.468 141.601V141.585C333.436 141.521 333.404 141.44 333.356 141.376C333.308 141.312 333.26 141.248 333.211 141.216C333.147 141.168 332.939 141.056 332.843 141.072C332.875 141.072 333.067 141.152 333.099 141.168C333.179 141.216 333.259 141.264 333.324 141.36C333.292 141.344 333.26 141.312 333.227 141.296C333.051 141.184 332.73 141.007 332.554 141.023C332.666 141.056 332.843 141.136 332.923 141.2L332.859 141.184C332.875 141.2 332.891 141.216 332.923 141.232C332.939 141.248 332.955 141.248 332.987 141.28C333.083 141.36 333.227 141.488 333.292 141.633C333.26 141.601 333.227 141.569 333.195 141.537C333.163 141.505 333.131 141.472 333.099 141.44C333.035 141.376 332.971 141.312 332.907 141.264C332.762 141.168 332.618 141.088 332.458 141.04C332.474 141.056 332.506 141.072 332.522 141.088C332.394 141.072 332.169 140.927 331.848 140.911C331.913 140.943 332.041 140.959 332.121 140.991L332.201 141.023C332.153 141.023 332.025 140.975 331.961 140.959C331.672 140.879 331.496 140.831 331.191 140.831C330.999 140.831 330.806 140.831 330.614 140.959C330.485 141.04 330.373 141.12 330.277 141.248C330.245 141.296 330.229 141.328 330.197 141.36C330.277 141.312 330.437 141.056 330.614 141.007C330.357 141.232 330.149 141.424 329.956 141.713C330.004 141.665 330.069 141.569 330.133 141.521C330.197 141.456 330.261 141.392 330.325 141.328C330.437 141.216 330.63 141.072 330.774 141.007C330.742 141.056 330.646 141.12 330.598 141.152C330.277 141.408 329.956 141.713 329.684 142.05C329.652 142.098 329.587 142.194 329.555 142.21C329.587 142.194 329.7 142.066 329.748 142.018C329.956 141.809 330.149 141.617 330.405 141.521C330.341 141.601 329.876 141.857 329.732 142.05L330.133 141.761C330.245 141.681 330.453 141.553 330.598 141.537C330.437 141.585 329.844 141.954 329.732 142.098C329.796 142.066 329.892 142.002 329.956 141.954C330.036 141.905 330.117 141.857 330.197 141.809C330.357 141.729 330.534 141.649 330.726 141.617C330.966 141.569 331.191 141.569 331.431 141.601C331.496 141.617 331.592 141.633 331.656 141.633C331.608 141.601 331.496 141.585 331.464 141.585C331.335 141.553 331.191 141.537 331.063 141.537C331.015 141.537 330.902 141.553 330.854 141.553C331.015 141.488 331.143 141.521 331.287 141.489C331.271 141.489 331.287 141.489 331.271 141.489C331.255 141.489 331.271 141.488 331.255 141.472C331.335 141.456 331.512 141.505 331.592 141.537C331.688 141.569 331.88 141.665 331.897 141.681C331.88 141.649 331.848 141.649 331.832 141.617L332.057 141.697L331.768 141.553C331.816 141.569 331.897 141.601 331.961 141.617C332.025 141.633 332.169 141.681 332.233 141.713C332.313 141.761 332.442 141.777 332.522 141.777C332.49 141.761 332.394 141.713 332.362 141.697L332.201 141.617C332.169 141.601 332.153 141.601 332.121 141.569C332.041 141.521 331.977 141.472 331.897 141.44C331.768 141.36 331.367 141.2 331.239 141.264C331.415 141.184 331.8 141.344 331.929 141.408L332.233 141.585C332.265 141.601 332.281 141.617 332.313 141.633C332.394 141.681 332.474 141.729 332.538 141.745V141.729C332.57 141.761 332.65 141.793 332.682 141.793C332.602 141.697 332.426 141.617 332.346 141.489C332.41 141.521 332.49 141.601 332.538 141.649C332.554 141.665 332.586 141.681 332.602 141.697C332.554 141.569 332.442 141.472 332.362 141.392L332.265 141.312C332.346 141.328 332.426 141.424 332.49 141.489C332.554 141.553 332.602 141.633 332.65 141.729C332.65 141.745 332.65 141.745 332.666 141.745C332.682 141.761 332.666 141.745 332.682 141.761L332.618 141.601C332.634 141.633 332.73 141.761 332.73 141.809C332.714 141.729 332.682 141.649 332.65 141.585L332.698 141.633C332.618 141.456 332.458 141.344 332.346 141.248C332.442 141.264 332.65 141.472 332.714 141.601C332.746 141.665 332.778 141.745 332.811 141.793L332.778 141.665L332.827 141.745C332.778 141.585 332.73 141.488 332.65 141.392C332.682 141.408 332.698 141.424 332.73 141.472C332.746 141.505 332.778 141.537 332.794 141.569C332.843 141.649 332.875 141.729 332.907 141.825C332.907 141.777 332.891 141.713 332.875 141.665C332.891 141.681 332.875 141.665 332.891 141.681C332.923 141.713 332.939 141.777 332.971 141.825L332.955 141.729L333.003 141.825C332.987 141.729 332.971 141.681 332.955 141.601C333.003 141.633 333.019 141.713 333.035 141.777C333.035 141.745 333.035 141.697 333.019 141.649L333.067 141.729C333.083 141.761 333.099 141.793 333.115 141.809C333.099 141.713 333.067 141.681 333.035 141.617C333.099 141.665 333.115 141.745 333.163 141.841C333.147 141.745 333.099 141.585 333.051 141.521C333.115 141.537 333.163 141.777 333.195 141.825V141.729C333.195 141.729 333.195 141.729 333.211 141.745L333.26 141.841V141.713C333.292 141.745 333.292 141.793 333.308 141.841C333.308 141.841 333.308 141.729 333.292 141.665C333.308 141.681 333.292 141.665 333.308 141.681C333.34 141.713 333.356 141.777 333.372 141.809L333.34 141.697C333.356 141.697 333.34 141.697 333.356 141.713L333.34 141.809Z" fill="black"/>
<path fill-rule="evenodd" clip-rule="evenodd" d="M338.038 150.612C335.007 152.424 333.243 152.553 332.73 150.965C334.943 151.158 336.707 151.045 338.038 150.612Z" fill="#FC9774"/>
<path fill-rule="evenodd" clip-rule="evenodd" d="M203.999 212.525C201.097 255.371 190.77 302.851 143.562 315.134L142.392 315.439L141.221 315.134C93.9975 302.851 83.6869 255.371 80.7845 212.525L80.4958 208.404L84.5688 207.634C104.26 203.946 122.316 196.57 140.452 188.231L142.392 187.333L144.332 188.231C162.468 196.554 180.524 203.93 200.215 207.634L204.288 208.404L203.999 212.525Z" fill="url(#paint16_linear_1266_3998)"/>
<path fill-rule="evenodd" clip-rule="evenodd" d="M199.349 212.059C179.898 208.403 162.532 201.572 142.376 192.32C122.22 201.572 104.869 208.419 85.4027 212.059C89.3794 270.588 106.73 301.215 142.376 310.484C178.022 301.215 195.388 270.588 199.349 212.059Z" fill="white" fill-opacity="0.1"/>
<path fill-rule="evenodd" clip-rule="evenodd" d="M190.305 218.826C173.645 214.93 158.026 208.724 142.392 201.652C126.742 208.724 111.139 214.93 94.4786 218.826C96.8198 244.851 103.17 277.034 124.545 292.957C129.949 296.982 135.978 299.788 142.392 301.68C148.806 299.788 154.835 296.982 160.239 292.957C181.614 277.034 187.964 244.851 190.305 218.826Z" fill="white" fill-opacity="0.1"/>
<path fill-rule="evenodd" clip-rule="evenodd" d="M190.305 218.826C173.644 214.93 158.026 208.724 142.392 201.652V301.68C148.806 299.788 154.835 296.982 160.239 292.957C181.614 277.034 187.964 244.851 190.305 218.826Z" fill="white" fill-opacity="0.1"/>
<path fill-rule="evenodd" clip-rule="evenodd" d="M124.673 239.608L141.606 260.63L162.933 223.412L172.907 227.004L144.557 266.467L142.777 269.594L140.243 267.044L118.804 245.364L124.673 239.608Z" fill="white"/>
<path fill-rule="evenodd" clip-rule="evenodd" d="M124.866 238.806L141.799 259.828L163.142 222.626L173.116 226.218L144.765 265.665L142.969 268.792L140.452 266.242L119.013 244.563L124.866 238.806Z" fill="white"/>
<path fill-rule="evenodd" clip-rule="evenodd" d="M296.571 197.436H221.478C215.016 197.436 209.74 202.711 209.74 209.174V209.19C209.74 215.652 215.016 220.927 221.478 220.927H296.571C303.033 220.927 308.309 215.652 308.309 209.19V209.174C308.293 202.711 303.017 197.436 296.571 197.436Z" fill="#FEFEFE"/>
<path fill-rule="evenodd" clip-rule="evenodd" d="M296.555 196.65H221.462C218.014 196.65 214.887 198.061 212.626 200.322C210.365 202.583 208.954 205.726 208.954 209.157C208.954 212.605 210.365 215.732 212.626 217.993C214.903 220.254 218.03 221.665 221.478 221.665H296.571C300.018 221.665 303.145 220.254 305.422 217.993C307.683 215.732 309.094 212.589 309.094 209.141C309.094 205.694 307.683 202.567 305.422 200.29C303.129 198.061 300.002 196.65 296.555 196.65ZM221.462 198.221H296.555C299.569 198.221 302.311 199.456 304.284 201.444C306.272 203.433 307.507 206.159 307.507 209.173C307.507 212.188 306.272 214.93 304.284 216.902C302.295 218.891 299.553 220.125 296.555 220.125H221.462C218.447 220.125 215.705 218.891 213.733 216.902C211.744 214.914 210.526 212.172 210.526 209.173C210.526 206.159 211.76 203.417 213.733 201.444C215.721 199.456 218.463 198.221 221.462 198.221Z" fill="white"/>
<path fill-rule="evenodd" clip-rule="evenodd" d="M291.408 208.468L292.642 205.261L294.406 206.239L292.209 208.949L292.225 208.981L295.464 208.404V210.376L292.177 209.799L292.161 209.847L294.406 212.541L292.754 213.567L291.456 210.328L291.424 210.296L290.173 213.551L288.393 212.541L290.654 209.895L290.638 209.831L287.302 210.376V208.404L290.638 208.997V208.933L288.393 206.207L290.125 205.229L291.359 208.452H291.408V208.468ZM279.798 208.468L281.033 205.261L282.797 206.239L280.6 208.949L280.616 208.981L283.855 208.404V210.376L280.568 209.799L280.552 209.847L282.797 212.541L281.145 213.567L279.846 210.328L279.814 210.296L278.563 213.551L276.783 212.541L279.044 209.895L279.028 209.831L275.693 210.376V208.404L279.028 208.997V208.933L276.783 206.207L278.515 205.229L279.75 208.452H279.798V208.468ZM268.172 208.468L269.407 205.261L271.171 206.239L268.974 208.949L268.99 208.981L272.229 208.404V210.376L268.942 209.799L268.926 209.847L271.171 212.541L269.503 213.567L268.205 210.328L268.172 210.296L266.922 213.551L265.142 212.541L267.403 209.895L267.387 209.831L264.051 210.376V208.404L267.387 208.997V208.933L265.142 206.207L266.874 205.229L268.108 208.452H268.172V208.468ZM256.563 208.468L257.798 205.261L259.545 206.239L257.349 208.949L257.365 208.981L260.604 208.404V210.376L257.317 209.799L257.301 209.847L259.545 212.541L257.894 213.567L256.595 210.328L256.563 210.296L255.312 213.551L253.532 212.541L255.793 209.895L255.777 209.831L252.442 210.376V208.404L255.777 208.997V208.933L253.548 206.207L255.28 205.229L256.515 208.452H256.563V208.468ZM244.937 208.468L246.172 205.261L247.92 206.239L245.723 208.949L245.739 208.981L248.978 208.404V210.376L245.691 209.799L245.675 209.847L247.92 212.541L246.268 213.567L244.969 210.328L244.937 210.296L243.687 213.551L241.907 212.541L244.168 209.895L244.152 209.831L240.816 210.376V208.404L244.152 208.997V208.933L241.907 206.207L243.639 205.229L244.873 208.452H244.937V208.468ZM233.328 208.468L234.563 205.261L236.31 206.239L234.114 208.949L234.13 208.981L237.369 208.404V210.376L234.082 209.799L234.065 209.847L236.31 212.541L234.643 213.567L233.344 210.328L233.312 210.296L232.061 213.551L230.281 212.541L232.542 209.895L232.526 209.831L229.191 210.376V208.404L232.526 208.997V208.933L230.281 206.207L232.013 205.229L233.248 208.452H233.328V208.468ZM221.702 208.468L222.937 205.261L224.685 206.239L222.488 208.949L222.504 208.981L225.743 208.404V210.376L222.456 209.799L222.44 209.847L224.685 212.541L223.017 213.567L221.718 210.328L221.67 210.296L220.42 213.551L218.64 212.541L220.901 209.895L220.885 209.831L217.549 210.376V208.404L220.885 208.997V208.933L218.64 206.207L220.371 205.229L221.606 208.452H221.702V208.468Z" fill="url(#paint17_linear_1266_3998)"/>
<path fill-rule="evenodd" clip-rule="evenodd" d="M130.526 29.2579C132.193 29.2579 133.781 29.5305 135.24 30.0275C135.08 29.2579 134.999 28.4721 134.999 27.6704C134.999 20.7431 141.013 15.1308 148.437 15.1308C149.752 15.1308 151.019 15.3072 152.221 15.6439C154.097 6.79248 162.291 0.121826 172.105 0.121826C183.314 0.121826 192.405 8.81292 192.405 19.5245C192.405 21.3685 192.133 23.1484 191.636 24.8321C198.964 25.3292 204.737 30.4765 204.737 37.1312C204.737 43.7858 198.387 49.0774 194.474 50.1678C193.881 50.3282 193.095 50.3282 192.149 50.1678H166.172V41.0277H174.703L160.207 26.5319L145.711 41.0277H154.242V50.1678H130.526C123.598 50.1678 117.986 45.4855 117.986 39.7289C117.986 33.9401 123.598 29.2579 130.526 29.2579Z" fill="url(#paint18_linear_1266_3998)"/>
<path opacity="0.17" fill-rule="evenodd" clip-rule="evenodd" d="M196.318 28.5043C198.788 30.7011 200.311 33.7157 200.311 37.1312C200.311 40.6269 198.563 43.7378 196.318 46.0789C194.298 48.1795 191.893 49.6548 190.033 50.1679H192.133C193.079 50.3282 193.865 50.3282 194.458 50.1679C195.035 50.0075 195.661 49.751 196.318 49.4303C200.103 47.49 204.737 42.8237 204.737 37.1473C204.737 32 201.289 27.7506 196.318 25.8585C194.875 25.2972 193.288 24.9605 191.62 24.8482C192.117 23.1645 192.39 21.3846 192.39 19.5406C192.39 8.82904 183.298 0.137939 172.089 0.137939C171.335 0.137939 170.598 0.170012 169.876 0.250188C180.043 1.30851 187.964 9.53459 187.964 19.5406C187.964 20.8555 187.836 22.1222 187.563 23.357C187.451 23.8541 187.339 24.3512 187.194 24.8482C190.77 25.0727 193.977 26.4197 196.318 28.5043Z" fill="white"/>
<path fill-rule="evenodd" clip-rule="evenodd" d="M129.884 29.2579C129.996 29.2579 130.093 29.2579 130.205 29.2579C123.422 29.4022 117.986 34.0203 117.986 39.6968C117.986 45.4695 123.598 50.1357 130.526 50.1357H129.9C122.973 50.1357 117.361 45.4534 117.361 39.6968C117.361 33.9401 122.973 29.2579 129.884 29.2579ZM134.567 29.8191C134.438 29.1296 134.374 28.408 134.374 27.6704C134.374 20.7431 140.387 15.1308 147.812 15.1308C147.924 15.1308 148.036 15.1308 148.132 15.1308C140.852 15.2751 135.016 20.8394 135.016 27.6704C135.016 28.4721 135.096 29.2579 135.256 30.0275C135.016 29.9474 134.791 29.8832 134.567 29.8191ZM151.612 15.4996C153.552 6.7123 161.698 0.121826 171.464 0.121826C171.56 0.121826 171.656 0.121826 171.752 0.121826C162.083 0.266143 154.049 6.88869 152.205 15.6439C152.013 15.5958 151.82 15.5477 151.612 15.4996ZM193.127 50.264C192.662 50.2961 192.117 50.248 191.508 50.1518H192.133C192.486 50.2159 192.823 50.248 193.127 50.264ZM166.156 50.1518H165.531V41.0117H166.156V50.1518ZM174.061 41.0117H174.687L160.191 26.5158L159.87 26.8365L174.061 41.0117Z" fill="url(#paint19_linear_1266_3998)"/>
<ellipse cx="79.5761" cy="24.9769" rx="0.975959" ry="1.57086" fill="black"/>
<ellipse cx="73.1917" cy="24.5425" rx="0.975959" ry="1.57086" fill="black"/>
<ellipse cx="79.576" cy="25.7542" rx="0.49314" ry="0.793734" fill="white"/>
<ellipse cx="73.1916" cy="25.3199" rx="0.49314" ry="0.793734" fill="white"/>
<defs>
<filter id="filter0_d_1266_3998" x="0.168091" y="114.774" width="182.736" height="46.4043" filterUnits="userSpaceOnUse" color-interpolation-filters="sRGB">
<feFlood flood-opacity="0" result="BackgroundImageFix"/>
<feColorMatrix in="SourceAlpha" type="matrix" values="0 0 0 0 0 0 0 0 0 0 0 0 0 0 0 0 0 0 127 0" result="hardAlpha"/>
<feOffset dy="4"/>
<feGaussianBlur stdDeviation="2"/>
<feComposite in2="hardAlpha" operator="out"/>
<feColorMatrix type="matrix" values="0 0 0 0 0 0 0 0 0 0 0 0 0 0 0 0 0 0 0.25 0"/>
<feBlend mode="normal" in2="BackgroundImageFix" result="effect1_dropShadow_1266_3998"/>
<feBlend mode="normal" in="SourceGraphic" in2="effect1_dropShadow_1266_3998" result="shape"/>
</filter>
<filter id="filter1_d_1266_3998" x="0.168091" y="162.944" width="182.736" height="46.4204" filterUnits="userSpaceOnUse" color-interpolation-filters="sRGB">
<feFlood flood-opacity="0" result="BackgroundImageFix"/>
<feColorMatrix in="SourceAlpha" type="matrix" values="0 0 0 0 0 0 0 0 0 0 0 0 0 0 0 0 0 0 127 0" result="hardAlpha"/>
<feOffset dy="4"/>
<feGaussianBlur stdDeviation="2"/>
<feComposite in2="hardAlpha" operator="out"/>
<feColorMatrix type="matrix" values="0 0 0 0 0 0 0 0 0 0 0 0 0 0 0 0 0 0 0.25 0"/>
<feBlend mode="normal" in2="BackgroundImageFix" result="effect1_dropShadow_1266_3998"/>
<feBlend mode="normal" in="SourceGraphic" in2="effect1_dropShadow_1266_3998" result="shape"/>
</filter>
<filter id="filter2_d_1266_3998" x="0.168091" y="211.13" width="182.736" height="46.4204" filterUnits="userSpaceOnUse" color-interpolation-filters="sRGB">
<feFlood flood-opacity="0" result="BackgroundImageFix"/>
<feColorMatrix in="SourceAlpha" type="matrix" values="0 0 0 0 0 0 0 0 0 0 0 0 0 0 0 0 0 0 127 0" result="hardAlpha"/>
<feOffset dy="4"/>
<feGaussianBlur stdDeviation="2"/>
<feComposite in2="hardAlpha" operator="out"/>
<feColorMatrix type="matrix" values="0 0 0 0 0 0 0 0 0 0 0 0 0 0 0 0 0 0 0.25 0"/>
<feBlend mode="normal" in2="BackgroundImageFix" result="effect1_dropShadow_1266_3998"/>
<feBlend mode="normal" in="SourceGraphic" in2="effect1_dropShadow_1266_3998" result="shape"/>
</filter>
<filter id="filter3_d_1266_3998" x="0.168091" y="259.315" width="182.736" height="46.4204" filterUnits="userSpaceOnUse" color-interpolation-filters="sRGB">
<feFlood flood-opacity="0" result="BackgroundImageFix"/>
<feColorMatrix in="SourceAlpha" type="matrix" values="0 0 0 0 0 0 0 0 0 0 0 0 0 0 0 0 0 0 127 0" result="hardAlpha"/>
<feOffset dy="4"/>
<feGaussianBlur stdDeviation="2"/>
<feComposite in2="hardAlpha" operator="out"/>
<feColorMatrix type="matrix" values="0 0 0 0 0 0 0 0 0 0 0 0 0 0 0 0 0 0 0.25 0"/>
<feBlend mode="normal" in2="BackgroundImageFix" result="effect1_dropShadow_1266_3998"/>
<feBlend mode="normal" in="SourceGraphic" in2="effect1_dropShadow_1266_3998" result="shape"/>
</filter>
<linearGradient id="paint0_linear_1266_3998" x1="246.711" y1="27.6268" x2="315.35" y2="105.597" gradientUnits="userSpaceOnUse">
<stop stop-color="#F57A00"/>
<stop offset="1" stop-color="#7103A4"/>
</linearGradient>
<linearGradient id="paint1_linear_1266_3998" x1="215.759" y1="28.4606" x2="280.217" y2="122.825" gradientUnits="userSpaceOnUse">
<stop stop-color="#F57A00"/>
<stop offset="1" stop-color="#7103A4"/>
</linearGradient>
<linearGradient id="paint2_linear_1266_3998" x1="188.139" y1="139.133" x2="321.764" y2="271.613" gradientUnits="userSpaceOnUse">
<stop stop-color="#F57A00"/>
<stop offset="1" stop-color="#7103A4"/>
</linearGradient>
<linearGradient id="paint3_linear_1266_3998" x1="344.104" y1="139.133" x2="397.315" y2="150.184" gradientUnits="userSpaceOnUse">
<stop stop-color="#F57A00"/>
<stop offset="1" stop-color="#7103A4"/>
</linearGradient>
<linearGradient id="paint4_linear_1266_3998" x1="44.1464" y1="119.893" x2="64.0772" y2="177.47" gradientUnits="userSpaceOnUse">
<stop stop-color="#F57A00"/>
<stop offset="1" stop-color="#7103A4"/>
</linearGradient>
<linearGradient id="paint5_linear_1266_3998" x1="19.6463" y1="119.221" x2="31.4695" y2="175.799" gradientUnits="userSpaceOnUse">
<stop stop-color="#F57A00"/>
<stop offset="1" stop-color="#7103A4"/>
</linearGradient>
<linearGradient id="paint6_linear_1266_3998" x1="22.1548" y1="121.129" x2="31.5063" y2="170.755" gradientUnits="userSpaceOnUse">
<stop stop-color="#F57A00"/>
<stop offset="1" stop-color="#7103A4"/>
</linearGradient>
<linearGradient id="paint7_linear_1266_3998" x1="44.1464" y1="168.063" x2="64.0772" y2="225.64" gradientUnits="userSpaceOnUse">
<stop stop-color="#F57A00"/>
<stop offset="1" stop-color="#7103A4"/>
</linearGradient>
<linearGradient id="paint8_linear_1266_3998" x1="19.6463" y1="167.391" x2="31.4695" y2="223.969" gradientUnits="userSpaceOnUse">
<stop stop-color="#F57A00"/>
<stop offset="1" stop-color="#7103A4"/>
</linearGradient>
<linearGradient id="paint9_linear_1266_3998" x1="22.1548" y1="169.301" x2="31.5138" y2="218.946" gradientUnits="userSpaceOnUse">
<stop stop-color="#F57A00"/>
<stop offset="1" stop-color="#7103A4"/>
</linearGradient>
<linearGradient id="paint10_linear_1266_3998" x1="44.1464" y1="216.248" x2="64.0772" y2="273.826" gradientUnits="userSpaceOnUse">
<stop stop-color="#F57A00"/>
<stop offset="1" stop-color="#7103A4"/>
</linearGradient>
<linearGradient id="paint11_linear_1266_3998" x1="19.6463" y1="215.577" x2="31.4695" y2="272.155" gradientUnits="userSpaceOnUse">
<stop stop-color="#F57A00"/>
<stop offset="1" stop-color="#7103A4"/>
</linearGradient>
<linearGradient id="paint12_linear_1266_3998" x1="22.1548" y1="217.487" x2="31.5138" y2="267.132" gradientUnits="userSpaceOnUse">
<stop stop-color="#F57A00"/>
<stop offset="1" stop-color="#7103A4"/>
</linearGradient>
<linearGradient id="paint13_linear_1266_3998" x1="44.1464" y1="264.435" x2="64.0772" y2="322.012" gradientUnits="userSpaceOnUse">
<stop stop-color="#F57A00"/>
<stop offset="1" stop-color="#7103A4"/>
</linearGradient>
<linearGradient id="paint14_linear_1266_3998" x1="19.6463" y1="263.763" x2="31.4695" y2="320.341" gradientUnits="userSpaceOnUse">
<stop stop-color="#F57A00"/>
<stop offset="1" stop-color="#7103A4"/>
</linearGradient>
<linearGradient id="paint15_linear_1266_3998" x1="22.1548" y1="265.673" x2="31.5138" y2="315.318" gradientUnits="userSpaceOnUse">
<stop stop-color="#F57A00"/>
<stop offset="1" stop-color="#7103A4"/>
</linearGradient>
<linearGradient id="paint16_linear_1266_3998" x1="93.2385" y1="208.531" x2="178.337" y2="304.442" gradientUnits="userSpaceOnUse">
<stop stop-color="#F57A00"/>
<stop offset="1" stop-color="#7103A4"/>
</linearGradient>
<linearGradient id="paint17_linear_1266_3998" x1="225.569" y1="206.609" x2="226.585" y2="217.673" gradientUnits="userSpaceOnUse">
<stop stop-color="#F57A00"/>
<stop offset="1" stop-color="#7103A4"/>
</linearGradient>
<linearGradient id="paint18_linear_1266_3998" x1="126.916" y1="8.42285" x2="153.63" y2="62.3039" gradientUnits="userSpaceOnUse">
<stop stop-color="#F57A00"/>
<stop offset="1" stop-color="#7103A4"/>
</linearGradient>
<linearGradient id="paint19_linear_1266_3998" x1="125.16" y1="8.42051" x2="153.967" y2="59.1792" gradientUnits="userSpaceOnUse">
<stop stop-color="#F57A00"/>
<stop offset="1" stop-color="#7103A4"/>
</linearGradient>
</defs>
</svg>
