<svg width="375" height="290" viewBox="0 0 375 290" fill="none" xmlns="http://www.w3.org/2000/svg">
<path d="M321.563 275.015C321.563 275.015 322.583 282.838 322.993 284.469V287.123H299.132L300.557 284.364C300.557 284.364 313.918 281.462 316.466 275.014L321.563 275.015Z" fill="white"/>
<path d="M341.469 275.015C341.469 275.015 343.381 285.568 343.609 286.866V288.011C343.609 288.011 340.627 289.006 336.498 289.391L332.141 287.86V286.332C332.141 286.332 334.891 279.066 335.122 275.015H341.469Z" fill="white"/>
<path d="M347.17 163.981L342.767 275.396C342.767 275.396 340.16 276.605 333.377 275.582L328.681 183.827L326.905 183.747L322.678 275.669C322.678 275.669 318.987 276.53 314.913 275.44L307.303 169.577C307.303 169.577 323.09 166.432 347.17 163.981Z" fill="#1B1425"/>
<path d="M307.475 98.9126C307.475 98.9126 310.773 99.6092 311.887 101.651C313 103.692 316.527 110.932 300.192 130.702C300.192 130.702 294.994 136.27 292.395 132.464C290.288 129.382 299.541 106.013 307.475 98.9126Z" fill="#A535C5"/>
<path d="M307.583 85.7463C307.583 85.7463 291.202 126.761 290.57 130.355C290.57 130.355 294.225 138.184 299.25 133.493C304.275 128.802 310.207 87.2652 310.207 87.2652L307.583 85.7463Z" fill="#F5B79C"/>
<path d="M310.125 87.8244L307.36 86.3032C307.36 86.3032 306.866 82.3106 307.269 80.0999C307.67 77.8892 309.623 74.1999 310.137 73.9771C310.651 73.7532 310.816 74.194 310.782 74.9368C310.782 74.9368 312.008 73.8776 311.995 75.4889C311.995 75.4889 312.648 74.7757 312.958 76.0919C312.958 76.0919 313.986 75.8301 313.955 76.8821C313.926 77.9342 312.483 80.9754 312.483 80.9754C312.483 80.9754 312.462 87.0389 310.125 87.8244Z" fill="#F5B79C"/>
<path d="M334.143 95.0573C331.307 89.4393 331.503 77.0078 331.503 77.0078C331.503 77.0078 322.182 82.6839 322.112 83.9824C321.789 89.1727 320.615 94.4733 319.799 96.2397C319.605 96.6544 318.628 97.1046 317.465 97.5074V108.099L335.563 106.643V95.5597C334.701 95.2457 334.143 95.0573 334.143 95.0573Z" fill="#E6977B"/>
<path d="M333.72 94.1155C333.72 94.1155 329.554 101.37 323.779 104.124C322.013 102.858 319.79 100.337 320.515 94.1155L308.394 98.7277C307.874 101.804 307.262 105.254 306.585 108.762C305.715 125.333 306.06 158.051 307.304 169.575C320.272 174.08 346.916 170.364 346.916 170.364C348.135 159.809 349.103 99.0961 349.103 99.0961C341.193 96.6639 337.459 95.0858 333.72 94.1155Z" fill="#A535C5"/>
<path d="M322.112 83.9824C321.944 86.7179 321.535 89.4867 321.072 91.7507C323.752 92.259 327.885 92.0197 332.196 87.8731C331.417 82.5275 331.502 77.0078 331.502 77.0078C331.502 77.0078 322.182 82.6839 322.112 83.9824Z" fill="#D4775E"/>
<path d="M312.999 69.0511C312.999 69.0511 312.821 75.0791 313.919 80.7599C314.565 84.1199 318.069 88.9891 320.195 89.9156C320.195 89.9156 320.769 90.2438 322.853 89.9002C325.42 89.4761 330.032 85.6363 331.295 80.5929C331.295 80.5929 333.181 80.9128 333.968 78.5468C334.756 76.1821 333.59 72.6954 331.116 74.9038C331.116 74.9038 331.924 64.6723 327.352 64.0373C322.778 63.4058 313.401 61.6619 312.999 69.0511Z" fill="#F4A785"/>
<path d="M334.212 58.3053C335.339 59.0612 336.976 62.0965 337.696 65.5441C338.565 69.6705 337.105 77.2019 333.968 81.1068C332.103 83.436 332.298 86.4796 332.022 86.4311C331.795 84.5118 331.261 82.4575 331.196 80.9268C331.235 80.813 331.262 80.704 331.296 80.5927C331.296 80.5927 332.337 81.1613 333.463 78.3511C334.257 76.3608 333.319 72.7686 331.37 74.9817C331.155 75.285 330.914 75.5729 330.7 75.7092C330.19 76.0172 328.647 73.3954 329.216 71.1906C329.216 71.1906 329.47 68.7749 328.409 66.4066C328.409 66.4066 323.474 69.0592 319.124 69.2239C319.124 69.2239 315.05 69.2962 313.307 67.6257L312.991 70.7889C312.991 70.7889 310.986 67.2015 312.989 60.6262C312.989 60.6262 314.01 58.6287 317.929 58.3977C320.643 58.2378 324.699 56.4796 325.516 56.3552C328.603 55.892 332.087 56.8824 334.212 58.3053Z" fill="black"/>
<path d="M348.508 98.9126C348.508 98.9126 351.807 99.6092 352.92 101.651C354.034 103.692 357.562 110.932 341.226 130.702C341.226 130.702 336.028 136.27 333.429 132.464C331.323 129.382 340.577 106.013 348.508 98.9126Z" fill="#A535C5"/>
<path d="M327.026 84.4766C327.026 84.4766 341.478 126.21 341.943 129.828C341.943 129.828 337.927 137.48 333.127 132.56C328.325 127.641 324.335 85.8734 324.335 85.8734L327.026 84.4766Z" fill="#F5B79C"/>
<path d="M330.429 72.1041C330.429 72.1041 326.19 72.9702 322.754 73.5543C321.499 73.7687 313.688 73.1041 313.059 73.0117L312.989 71.3364C312.989 71.3364 310.037 72.9714 309.945 73.6206C309.855 74.2698 309.483 78.1949 310.411 79.4803C311.34 80.767 319.298 80.8594 321.074 80.8594C322.85 80.8594 331.389 76.727 331.389 76.727L330.429 72.1041Z" fill="#E7EEF7"/>
<path d="M310.409 74.7329C310.409 74.7329 310.317 78.3535 310.921 79.0039C311.525 79.6532 318.161 80.396 321.27 79.8392C321.27 79.8392 327.056 77.844 325.022 75.5219C325.022 75.5219 322.382 75.7542 321.316 75.8466C321.316 75.8466 316.073 76.1736 310.409 74.7329Z" fill="#213242"/>
<path d="M322.291 74.9509L330.6 72.9261L330.429 72.1051C330.429 72.1051 326.19 72.9712 322.753 73.5552C321.499 73.7697 313.688 73.105 313.059 73.0126L312.989 71.3374C312.989 71.3374 310.036 72.9724 309.945 73.6216C309.945 73.6216 311.88 74.9757 322.291 74.9509Z" fill="#88AFCD"/>
<path d="M335.441 75.5221C335.441 81.684 334.076 80.8594 332.394 80.8594C330.709 80.8594 329.346 78.4698 329.346 75.5221C329.346 72.5757 330.709 70.1861 332.394 70.1861C334.076 70.1861 335.441 69.3627 335.441 75.5221Z" fill="#364D60"/>
<path d="M336.833 75.5221C336.833 78.4697 335.469 80.8594 333.786 80.8594C332.102 80.8594 330.739 78.4697 330.739 75.5221C330.739 72.5757 332.102 70.186 333.786 70.186C335.469 70.186 336.833 72.5757 336.833 75.5221Z" fill="#213242"/>
<path d="M336.536 75.5222C336.536 79.2612 335.707 78.7601 334.686 78.7601C333.665 78.7601 332.837 77.3111 332.837 75.5222C332.837 73.7344 333.664 72.2855 334.686 72.2855C335.709 72.2855 336.536 71.7855 336.536 75.5222Z" fill="#364D60"/>
<path d="M337.38 75.5221C337.38 77.3123 336.552 78.76 335.531 78.76C334.511 78.76 333.681 77.3111 333.681 75.5221C333.681 73.7343 334.51 72.2854 335.531 72.2854C336.552 72.2854 337.38 73.7343 337.38 75.5221Z" fill="#213242"/>
<path d="M310.964 74.8644C310.78 74.8206 310.595 74.7815 310.409 74.7329C310.409 74.7329 310.317 78.3535 310.921 79.0039C310.958 79.043 311.018 79.0821 311.097 79.1236C310.934 77.9495 310.707 75.8667 310.964 74.8644Z" fill="#88AFCD"/>
<path d="M324.388 86.4321L327.221 85.0412C327.221 85.0412 327.9 81.0759 327.603 78.8486C327.303 76.6201 325.525 72.8455 325.022 72.5991C324.519 72.3515 324.334 72.7839 324.334 73.5267C324.334 73.5267 323.157 72.4131 323.096 74.022C323.096 74.022 322.476 73.2791 322.105 74.5788C322.105 74.5788 321.091 74.2684 321.072 75.3216C321.053 76.3737 322.353 79.4801 322.353 79.4801C322.353 79.4801 322.092 85.5376 324.388 86.4321Z" fill="#F5B79C"/>
<path d="M333.986 72.8077C333.986 72.8077 334.358 62.6676 331.389 60.1606C328.418 57.6561 320.916 57.29 317.466 58.4357L315.973 58.7022C315.973 58.7022 319.422 56.0117 324.643 56.0472C327.275 56.0662 332.394 57.3362 333.681 58.8622C333.681 58.8622 336.477 62.087 335.233 72.2628L333.986 72.8077Z" fill="#E7EEF7"/>
<path d="M236.777 95.7083C236.777 95.7083 240.682 98.7009 251.713 122.575C251.713 122.575 244.617 129.178 239.586 126.891C239.586 126.891 233.477 118.358 233.111 117.326C233.111 117.326 231.923 102.633 236.777 95.7083Z" fill="#A535C5"/>
<path d="M249.851 123.681C248.98 124.298 245.341 126.36 244.102 126.66C242.908 126.949 241.72 127.017 240.846 126.879C239.631 126.686 239.012 126.102 239.796 125.173C241.765 122.842 246.929 121.237 248.819 121.495C250.051 121.667 250.904 122.005 250.904 122.005C251.18 122.437 250.701 123.077 249.851 123.681Z" fill="#18365C"/>
<path d="M249.776 140.336C249.776 140.336 243.509 131.1 240.846 126.879C240.34 126.075 239.968 125.471 239.796 125.173C241.765 122.842 246.929 121.237 248.819 121.495C248.82 121.499 249.667 121.648 249.667 121.648C249.667 121.648 253.201 132.421 254.379 135.244C254.379 135.244 250.806 139.608 249.776 140.336Z" fill="#ED8A6D"/>
<path d="M199.743 95.7083C199.743 95.7083 195.838 98.7009 184.808 122.575C184.808 122.575 191.906 129.178 196.935 126.891C196.935 126.891 203.045 118.358 203.412 117.326C203.412 117.326 204.597 102.633 199.743 95.7083Z" fill="#A535C5"/>
<path d="M186.671 123.681C187.54 124.298 191.179 126.36 192.418 126.66C193.612 126.949 194.799 127.017 195.676 126.879C196.889 126.686 197.51 126.102 196.725 125.173C194.756 122.842 189.591 121.237 187.703 121.495C186.469 121.667 185.616 122.005 185.616 122.005C185.34 122.437 185.819 123.077 186.671 123.681Z" fill="#18365C"/>
<path d="M186.743 140.336C186.743 140.336 193.01 131.1 195.675 126.879C196.18 126.075 196.552 125.471 196.723 125.173C194.754 122.842 189.59 121.237 187.702 121.495C187.699 121.499 186.852 121.648 186.852 121.648C186.852 121.648 183.318 132.421 182.139 135.244C182.139 135.244 185.715 139.608 186.743 140.336Z" fill="#ED8A6D"/>
<path d="M229.878 273.688C230.225 274.862 229.009 279.426 230.006 282.162C230.884 284.566 234.256 287.699 234.256 287.699C240.383 290.713 244.507 289.08 245.169 287.565C245.83 286.048 244.21 283.131 241.469 280.36C238.726 277.588 237.15 272.464 237.15 272.464L236.435 269.929C236.362 268.359 234.935 268.719 234.935 268.719C233.835 269.013 232.988 269.034 232.343 268.919C232.343 268.919 231.413 269.157 231.782 271.664C231.782 271.664 230.448 269.231 229.747 268.124C229.75 268.124 228.769 269.931 229.878 273.688Z" fill="white"/>
<path d="M206.672 273.044C206.326 274.219 207.541 278.781 206.544 281.518C205.667 283.923 202.293 287.055 202.293 287.055C196.167 290.069 192.043 288.436 191.381 286.921C190.719 285.405 192.34 282.487 195.083 279.715C197.825 276.944 199.399 271.82 199.399 271.82L200.114 269.285C200.185 267.715 201.614 268.077 201.614 268.077C202.714 268.369 203.559 268.39 204.206 268.275C204.206 268.275 205.138 268.513 204.766 271.02C204.766 271.02 206.101 268.589 206.802 267.48C206.8 267.48 207.782 269.288 206.672 273.044Z" fill="white"/>
<path d="M200.26 153.832C200.26 153.832 197.395 168.65 198.948 270.057C198.948 270.057 201.921 272.634 208.246 271.089C208.246 271.089 214.547 217.747 217.73 177.599C217.73 177.599 222.743 231.814 227.176 271.86C227.176 271.86 232.455 273.688 237.291 270.544C237.291 270.544 239.78 192.875 236.437 153.832C236.437 153.832 222.878 155.378 218.335 155.378C213.799 155.375 200.26 153.832 200.26 153.832Z" fill="#1B1425"/>
<path d="M200.023 154.434C200.023 154.434 217.894 158.891 236.556 154.083L236.871 157.281C236.871 157.281 219.614 162.905 199.752 157.364L200.023 154.434Z" fill="#0C0F10"/>
<path d="M210.918 160.155L208.904 159.935V155.675L210.918 155.895V160.155Z" fill="#2F525F"/>
<path d="M221.104 159.204C221.104 159.608 220.777 159.935 220.372 159.935H216.296C215.892 159.935 215.565 159.608 215.565 159.204V156.847C215.565 156.443 215.892 156.115 216.296 156.115H220.372C220.777 156.115 221.104 156.443 221.104 156.847V159.204Z" fill="white"/>
<path d="M220.111 158.78C220.111 159.041 219.901 159.249 219.642 159.249H217.028C216.768 159.249 216.558 159.04 216.558 158.78V157.268C216.558 157.009 216.769 156.799 217.028 156.799H219.642C219.902 156.799 220.111 157.009 220.111 157.268V158.78Z" fill="#0C0F10"/>
<path d="M228.857 159.538L226.846 159.883V155.623L228.857 155.278V159.538Z" fill="#2F525F"/>
<path d="M227.016 93.4383C226.407 93.2855 225.738 92.9419 225.738 92.9419C222.569 86.6675 223.134 72.793 223.134 72.793C223.134 72.793 212.746 79.129 212.658 80.5755C212.304 86.3666 211.57 91.7382 210.641 93.7048C210.544 93.9157 210.148 94.1503 209.563 94.3908V106.716L226.718 104.107L227.016 93.4383Z" fill="#EE794E"/>
<path d="M212.659 80.5768C212.45 83.9687 212.112 87.2149 211.682 89.7182C215.053 92.5592 220.293 95.4855 225.519 92.481C222.596 86.0135 223.134 72.7942 223.134 72.7942C223.134 72.7942 212.746 79.129 212.659 80.5768Z" fill="#E05E35"/>
<path d="M200.37 151.714C201.049 150.171 200.691 148.459 200.895 145.087C201.46 135.732 197.271 122.649 197.259 120.061C197.208 107.954 199.743 95.7082 199.743 95.7082C200.525 95.0198 209.598 92.289 211.112 91.8364C213.151 97.1678 218.223 101.583 218.223 101.583C218.242 101.573 218.257 101.562 218.276 101.552C218.294 101.563 218.311 101.574 218.328 101.583C218.328 101.583 223.4 97.1678 225.438 91.8364C226.952 92.289 236.026 95.0198 236.808 95.7082C236.808 95.7082 239.343 107.954 239.291 120.061C239.281 122.65 235.091 135.733 235.657 145.087C235.86 148.459 235.943 149.693 236.141 151.367C236.141 151.367 236.916 152.742 236.438 153.832C236.438 153.832 218.337 158.541 200.262 153.832C200.26 153.832 199.845 152.906 200.37 151.714Z" fill="#A535C5"/>
<path d="M254.012 134.308C254.012 134.308 256.619 139.3 255.456 141.762C254.294 144.225 230.087 144.039 230.087 144.039C230.087 144.039 229.986 142.541 230.074 140.974C230.074 140.974 247.94 135.236 254.012 134.308Z" fill="#F29B7C"/>
<path d="M232.661 123.837H203.539V144.767H232.661V123.837Z" fill="#5E89AA"/>
<path d="M232.661 123.837H203.539V125.066H232.661V123.837Z" fill="#7FBBE2"/>
<path d="M232.662 144.993H204.85V148.342H232.662V144.993Z" fill="#5E89AA"/>
<path d="M232.662 146.753H204.85V148.343H232.662V146.753Z" fill="#40718E"/>
<path d="M228.855 73.0274C228.983 69.331 228.797 66.4888 228.797 66.4888C228.463 60.667 223.486 59.5818 218.543 59.7216C213.601 59.5818 208.624 60.667 208.289 66.4888C208.289 66.4888 208.105 69.3298 208.231 73.0274C205.346 70.8428 204.917 74.1731 205.858 76.8719C206.674 79.181 208.124 79.7295 208.828 79.7153C208.911 80.2449 209.003 80.7709 209.109 81.2874C209.907 85.2208 214.657 90.1493 217.283 91.2381C217.283 91.2381 217.603 91.4016 218.543 91.4016C219.484 91.4016 219.802 91.2381 219.802 91.2381C222.43 90.1493 227.18 85.2208 227.979 81.2874C228.084 80.7697 228.176 80.2449 228.259 79.7153C228.963 79.7295 229.816 79.7248 230.632 77.4157C231.573 74.7157 231.74 70.8428 228.855 73.0274Z" fill="#F29B7C"/>
<path d="M229.142 72.633C229.142 72.633 228.249 75.5866 227.579 74.3095C227.052 73.3013 227.016 65.1135 227.016 65.1135C225.059 62.4502 222.469 65.7331 219.109 66.4677C212.617 67.8846 209.028 63.8565 209.028 63.8565C208.205 69.9022 209.241 73.9185 208.808 73.9813C208.371 74.0334 207.319 72.5489 207.319 72.5489C202.777 55.4981 215.908 55.4981 215.908 55.4981C215.908 55.4981 221.432 56.453 224.474 52.7211C226.404 50.354 229.936 56.5431 228.593 58.2598C228.593 58.2598 229.712 57.8866 230.309 57.2907C230.906 56.6924 231.055 60.8709 230.458 62.5876C230.458 62.5876 230.936 66.0317 230.906 66.9901C230.889 67.5564 230.705 70.9566 229.142 72.633Z" fill="black"/>
<path d="M225.887 69.5005C224.537 69.1794 219.363 69.7896 218.205 69.8216C217.048 69.7896 211.873 69.1783 210.525 69.5005C209.174 69.8216 208.724 71.2113 208.724 71.2113L218.205 71.684L227.688 71.2113C227.688 71.2113 227.238 69.8228 225.887 69.5005Z" fill="#213242"/>
<path d="M227.945 72.8677C227.945 73.2219 227.63 73.5098 227.243 73.5098H209.167C208.779 73.5098 208.464 73.2219 208.464 72.8677V71.2683C208.464 70.9129 208.779 70.625 209.167 70.625H227.243C227.63 70.625 227.945 70.9129 227.945 71.2683V72.8677Z" fill="#E7EEF7"/>
<path d="M228.17 76.8044C228.17 77.9405 227.25 78.8611 226.112 78.8611H210.298C209.162 78.8611 208.242 77.9405 208.242 76.8044V73.2691C208.242 72.133 209.162 71.2124 210.298 71.2124H226.112C227.25 71.2124 228.17 72.133 228.17 73.2691V76.8044Z" fill="#6185A8"/>
<path d="M228.17 77.8246C228.17 78.9608 227.25 79.8813 226.112 79.8813H210.298C209.162 79.8813 208.242 78.9608 208.242 77.8246V74.2894C208.242 73.1532 209.162 72.2327 210.298 72.2327H226.112C227.25 72.2327 228.17 73.1532 228.17 74.2894V77.8246Z" fill="#E7EEF7"/>
<path d="M227.381 77.473C227.381 78.3829 226.533 79.1198 225.487 79.1198H210.924C209.877 79.1198 209.028 78.3829 209.028 77.473V74.6426C209.028 73.7328 209.877 72.9958 210.924 72.9958H225.487C226.533 72.9958 227.381 73.7328 227.381 74.6426V77.473Z" fill="#213242"/>
<path d="M182.508 134.308C182.508 134.308 179.903 139.3 181.065 141.761C182.228 144.225 206.922 148.698 206.922 148.698C206.922 148.698 207.023 147.199 206.935 145.633C206.935 145.633 187.856 133.993 182.508 134.308Z" fill="#F29B7C"/>
<path d="M206.241 145.215C206.241 145.215 210.27 144.906 210.917 145.017C211.564 145.13 212.807 145.353 213.59 145.578C214.373 145.802 214.764 145.969 214.681 146.081C214.598 146.194 214.094 146.977 212.246 146.809C210.399 146.64 210.16 146.969 209.91 146.944C209.91 146.944 212.011 148.025 213.241 148.319C214.472 148.613 219.117 147.612 220.74 148.697C221.661 149.313 215.478 150.613 213.912 150.5C212.346 150.388 207.088 150.145 204.849 148.307L206.241 145.215Z" fill="#F29B7C"/>
<path d="M375.009 15.9653C375.009 24.6353 303.101 31.6643 214.4 31.6643C125.697 31.6643 53.7903 24.6353 53.7903 15.9653C53.7903 7.29421 125.697 0.265137 214.4 0.265137C303.101 0.265137 375.009 7.29302 375.009 15.9653Z" fill="white" fill-opacity="0.1"/>
<path d="M214.4 31.6643C125.697 31.6643 53.7903 24.6353 53.7903 15.9653V126.676C53.7903 135.346 125.697 142.375 214.4 142.375C303.101 142.375 375.009 135.346 375.009 126.676V15.9653C375.009 24.6353 303.101 31.6643 214.4 31.6643Z" fill="white" fill-opacity="0.1"/>
<path d="M214.4 0.765137C258.74 0.765137 298.875 2.52185 327.919 5.36084C342.444 6.78059 354.179 8.46924 362.275 10.3403C366.327 11.2768 369.44 12.2539 371.531 13.2524C372.577 13.7524 373.339 14.2448 373.833 14.7202C374.327 15.1954 374.509 15.6094 374.509 15.9653C374.509 16.3211 374.327 16.7353 373.833 17.2104C373.339 17.6857 372.577 18.1784 371.531 18.6782C369.44 19.6765 366.327 20.652 362.275 21.5884C354.179 23.4593 342.444 25.1491 327.919 26.5688C298.875 29.4078 258.74 31.1646 214.4 31.1646C170.059 31.1645 129.924 29.4078 100.88 26.5688C86.3554 25.1491 74.6205 23.4593 66.5247 21.5884C62.4728 20.652 59.3589 19.6766 57.2688 18.6782C56.2224 18.1784 55.4599 17.6857 54.9661 17.2104C54.4724 16.7353 54.2903 16.3211 54.2903 15.9653C54.2903 15.6095 54.4725 15.1954 54.9661 14.7202C55.4599 14.2449 56.2224 13.7523 57.2688 13.2524C59.3589 12.254 62.4727 11.2778 66.5247 10.3413C74.6204 8.47025 86.3555 6.78068 100.88 5.36084C129.924 2.52171 170.059 0.765139 214.4 0.765137Z" stroke="url(#paint0_linear_1261_304)"/>
<path d="M374.509 126.676C374.509 127.032 374.327 127.446 373.833 127.92C373.339 128.396 372.577 128.888 371.531 129.388C369.44 130.387 366.327 131.363 362.275 132.299C354.179 134.17 342.444 135.859 327.919 137.279C298.875 140.118 258.74 141.875 214.4 141.875C170.059 141.875 129.924 140.118 100.88 137.279C86.3555 135.859 74.6204 134.17 66.5247 132.299C62.4727 131.363 59.3589 130.387 57.2688 129.388C56.2224 128.888 55.4599 128.396 54.9661 127.92C54.4728 127.446 54.2904 127.032 54.2903 126.676V17.9458C54.8924 18.52 55.7551 19.0633 56.8381 19.5806C59.0269 20.626 62.2241 21.6213 66.2991 22.563C74.4577 24.4484 86.243 26.1427 100.782 27.564C129.868 30.407 170.037 32.1645 214.4 32.1646C258.761 32.1646 298.931 30.407 328.016 27.564C342.556 26.1427 354.341 24.4484 362.5 22.563C366.576 21.6212 369.773 20.6261 371.962 19.5806C373.045 19.0633 373.907 18.5199 374.509 17.9458V126.676Z" stroke="url(#paint1_linear_1261_304)"/>
<path d="M161.959 82.6239L157.659 85.2967C154.994 76.7831 147.032 70.5869 137.651 70.5869C128.682 70.5869 121.013 76.2523 118.029 84.1913L113.605 81.9711C112.421 84.9353 111.762 88.1637 111.762 91.5438C111.762 105.821 123.376 117.435 137.653 117.435C151.93 117.435 163.542 105.821 163.542 91.5438C163.542 88.4125 162.984 85.4068 161.959 82.6239ZM137.653 71.5999C148.649 71.5999 157.597 80.547 157.597 91.5438C157.597 102.541 148.649 111.487 137.653 111.487C126.656 111.487 117.71 102.541 117.71 91.5438C117.71 80.547 126.655 71.5999 137.653 71.5999ZM117.085 87.524C117.128 87.261 117.185 87.0015 117.258 86.7338C117.196 86.9968 117.138 87.2574 117.085 87.524Z" fill="url(#paint2_linear_1261_304)"/>
<path d="M137.652 55.6472C117.827 55.6472 101.755 71.7182 101.755 91.5449C101.755 111.37 117.826 127.444 137.652 127.444C157.478 127.444 173.55 111.372 173.55 91.5449C173.55 71.7182 157.478 55.6472 137.652 55.6472ZM137.652 122.873C120.35 122.873 106.324 108.847 106.324 91.5449C106.324 74.2429 120.35 60.2156 137.652 60.2156C154.954 60.2156 168.981 74.2441 168.981 91.5449C168.981 108.847 154.954 122.873 137.652 122.873Z" fill="url(#paint3_linear_1261_304)"/>
<path d="M137.653 62.7827C121.794 62.7827 108.892 75.6857 108.892 91.5435C108.892 107.402 121.795 120.304 137.653 120.304C153.513 120.304 166.413 107.401 166.413 91.5435C166.413 75.6857 153.511 62.7827 137.653 62.7827ZM137.653 118.915C122.561 118.915 110.283 106.636 110.283 91.5435C110.283 76.4523 122.56 64.1736 137.653 64.1736C152.744 64.1736 165.022 76.4511 165.022 91.5435C165.022 106.636 152.744 118.915 137.653 118.915Z" fill="url(#paint4_linear_1261_304)"/>
<path d="M139.034 102.993L139.728 108.827C141.329 108.636 142.894 108.224 144.38 107.602L142.108 102.185C141.126 102.595 140.091 102.866 139.034 102.993Z" fill="url(#paint5_linear_1261_304)"/>
<path d="M143.3 101.6L146.183 106.718C147.583 105.929 148.868 104.95 150.003 103.807L145.836 99.6663C145.082 100.427 144.229 101.076 143.3 101.6Z" fill="url(#paint6_linear_1261_304)"/>
<path d="M137.652 103.073C136.58 103.073 135.518 102.928 134.497 102.639L132.893 108.29C134.436 108.727 136.036 108.95 137.652 108.95H137.737L137.692 103.075H137.652V103.073Z" fill="url(#paint7_linear_1261_304)"/>
<path d="M146.718 98.6697L151.334 102.302C152.333 101.036 153.148 99.6376 153.759 98.1508L148.325 95.9187C147.919 96.9044 147.38 97.8297 146.718 98.6697Z" fill="url(#paint8_linear_1261_304)"/>
<path d="M126.2 92.8884L120.364 93.5625C120.55 95.1667 120.957 96.7329 121.575 98.2198L126.998 95.9652C126.592 94.9842 126.322 93.9476 126.2 92.8884Z" fill="url(#paint9_linear_1261_304)"/>
<path d="M127.58 97.1606L122.452 100.027C123.237 101.43 124.212 102.719 125.351 103.857L129.503 99.7007C128.747 98.946 128.099 98.0907 127.58 97.1606Z" fill="url(#paint10_linear_1261_304)"/>
<path d="M130.499 100.588L126.849 105.191C128.113 106.193 129.508 107.013 130.994 107.63L133.243 102.202C132.258 101.795 131.337 101.252 130.499 100.588Z" fill="url(#paint11_linear_1261_304)"/>
<path d="M140.784 80.4439L142.375 74.7891C140.844 74.3591 139.257 74.1399 137.629 74.1399H137.626L137.622 77.0769V80.0138H137.67C138.729 80.015 139.778 80.1607 140.784 80.4439Z" fill="url(#paint12_linear_1261_304)"/>
<path d="M132.026 81.477L129.154 76.353C127.752 77.1385 126.464 78.1147 125.328 79.2556L129.487 83.4034C130.242 82.6464 131.096 81.9983 132.026 81.477Z" fill="url(#paint13_linear_1261_304)"/>
<path d="M136.296 80.092L135.615 74.2583C134.012 74.4443 132.446 74.8542 130.96 75.4727L133.219 80.8952C134.203 80.4877 135.237 80.2164 136.296 80.092Z" fill="url(#paint14_linear_1261_304)"/>
<path d="M128.602 84.3987L123.994 80.7568C122.993 82.021 122.175 83.4166 121.56 84.9034L126.99 87.145C127.396 86.164 127.938 85.2387 128.602 84.3987Z" fill="url(#paint15_linear_1261_304)"/>
<path d="M126.121 91.5436C126.121 90.4749 126.267 89.4158 126.555 88.3993L120.901 86.8022C120.468 88.3389 120.246 89.9347 120.246 91.5436V91.5602L126.121 91.5436Z" fill="url(#paint16_linear_1261_304)"/>
<path d="M149.182 91.5435C149.182 92.6051 149.039 93.6548 148.756 94.6642L154.413 96.2493C154.841 94.7234 155.058 93.1406 155.058 91.5435V91.4902L149.184 91.5056L149.182 91.5435Z" fill="url(#paint17_linear_1261_304)"/>
<path d="M149.103 90.1751L154.937 89.4879C154.748 87.8862 154.336 86.3199 153.716 84.8354L148.296 87.0995C148.706 88.0828 148.977 89.1171 149.103 90.1751Z" fill="url(#paint18_linear_1261_304)"/>
<path d="M147.713 85.9065L152.834 83.03C152.048 81.6284 151.068 80.343 149.928 79.2068L145.785 83.3712C146.543 84.1246 147.191 84.9788 147.713 85.9065Z" fill="url(#paint19_linear_1261_304)"/>
<path d="M144.787 82.485L148.425 77.874C147.159 76.8741 145.763 76.0578 144.276 75.4453L142.038 80.8762C143.024 81.2813 143.948 81.8228 144.787 82.485Z" fill="url(#paint20_linear_1261_304)"/>
<path d="M137.652 101.66C143.231 101.66 147.769 97.1225 147.769 91.5435C147.769 85.9657 143.231 81.427 137.652 81.427C132.075 81.427 127.536 85.9657 127.536 91.5435C127.536 97.1225 132.075 101.66 137.652 101.66ZM137.652 83.3866C142.151 83.3866 145.812 87.0462 145.812 91.5447C145.812 96.0431 142.151 99.7028 137.652 99.7028C133.154 99.7028 129.494 96.0431 129.494 91.5447C129.494 87.0462 133.154 83.3866 137.652 83.3866Z" fill="url(#paint21_linear_1261_304)"/>
<path d="M70.3817 33.5847H68.1023V117.377H70.3817V33.5847Z" fill="white"/>
<path d="M73.9085 113.25H64.574V117.376H73.9085V113.25Z" fill="white"/>
<path d="M96.4838 86.551H73.0402V89.6444H96.4838V86.551Z" fill="white"/>
<path d="M88.7144 81.1782H72.7666V84.2704H88.7144V81.1782Z" fill="white"/>
<path d="M98.8131 75.45H72.7666V78.5433H98.8131V75.45Z" fill="white"/>
<path d="M84.7621 69.7256H72.7666V72.8189H84.7621V69.7256Z" fill="white"/>
<path d="M88.8376 58.2712H72.7666V61.3634H88.8376V58.2712Z" fill="white"/>
<path d="M84.4884 52.5454H72.7666V55.6388H84.4884V52.5454Z" fill="white"/>
<path d="M98.8131 46.8196H72.7666V49.9118H98.8131V46.8196Z" fill="white"/>
<path d="M96.4828 41.0925H72.7666V44.1859H96.4828V41.0925Z" fill="white"/>
<path d="M81.8592 279.474C81.8592 279.474 80.5323 280.715 85.3933 288.194L85.8577 288.041L84.8578 284.183C84.8578 284.183 87.6336 285.247 89.8787 286.138C89.8787 286.138 90.2164 286.329 90.7388 286.33C91.4675 286.333 96.3913 284.474 96.3913 284.474C96.3913 284.474 96.7016 283.851 96.2905 283.467C95.8865 283.085 91.0647 281.59 91.0647 281.59L81.8592 279.474Z" fill="white"/>
<path d="M82.171 280.247C82.171 280.247 74.8884 265.179 72.2357 257.081L79.2209 254.785C80.382 259.691 84.8876 275.056 85.8057 279.198C85.8057 279.198 90.1123 281.409 91.2638 281.64C91.2638 281.64 89.3232 281.882 88.5757 283.192C88.5757 283.192 84.0736 281.396 82.171 280.247Z" fill="#F4A785"/>
<path d="M98.7217 276.195C98.7217 276.195 97.3936 277.436 102.256 284.915L102.72 284.763L101.72 280.904C101.72 280.904 104.496 281.968 106.74 282.859C106.74 282.859 107.078 283.05 107.601 283.051C108.329 283.052 113.253 281.195 113.253 281.195C113.253 281.195 113.563 280.572 113.152 280.186C112.748 279.805 107.927 278.31 107.927 278.31L98.7217 276.195Z" fill="white"/>
<path d="M98.7941 261.583C100.39 267.314 102.134 273.512 102.668 275.919C102.668 275.919 106.975 278.131 108.125 278.361C108.125 278.361 106.185 278.601 105.436 279.913C105.436 279.913 100.936 278.117 99.0334 276.968C99.0334 276.968 95.1972 269.031 92.079 261.584H98.7941V261.583Z" fill="#F4A785"/>
<path d="M5.11295 118.16H26.34C26.34 118.16 29.8338 176.834 38.8224 193.182C38.8224 193.182 60.0103 191.718 68.3059 193.182C76.6014 194.646 87.7179 213.91 88.8007 226.596H74.3658L19.5597 225.143C19.5597 225.143 0.231814 187.82 5.11295 118.16Z" fill="url(#paint22_linear_1261_304)"/>
<path d="M36.6271 93.5171C36.6271 93.5171 29.4251 87.5578 26.1315 90.9746C22.8379 94.3902 19.1783 102.937 22.1437 116.894C23.6317 123.9 21.0075 126.597 20.0325 127.206C20.0325 127.206 29.5471 127.572 27.4738 115.982C25.3993 104.393 30.1691 94.8534 35.767 94.1947L36.6271 93.5171Z" fill="black"/>
<path d="M37.2714 93.2304C37.2714 93.2304 36.7608 92.6819 35.8995 92.6819C35.0358 92.6819 34.1697 94.4033 34.2669 94.8535C34.2669 94.8535 34.2953 95.3973 35.1542 95.6864C36.0132 95.9755 37.2714 93.2304 37.2714 93.2304Z" fill="white"/>
<path d="M46.432 225.655H40.6777V282.969H46.432V225.655Z" fill="url(#paint23_linear_1261_304)"/>
<path d="M55.2512 226.597H31.5303V230.696H55.2512V226.597Z" fill="url(#paint24_linear_1261_304)"/>
<path d="M49.3963 230.696H37.0739V233.624H49.3963V230.696Z" fill="url(#paint25_linear_1261_304)"/>
<path d="M73.5224 212.533L80.1925 217.347L94.458 272.884C94.458 272.884 99.2811 272.864 102.804 271.036L95.465 215.619C95.465 215.619 95.696 207.799 88.5556 202.653L58.7819 191.85L58.4158 183.798C58.4158 183.798 49.3442 187.325 26.6979 185.019L24.7466 195.021C24.6435 209.782 31.6146 212.238 31.6146 212.238L60.3043 221.788L78.6642 277.696C78.6642 277.696 80.3193 278.161 86.3425 275.859L79.2459 225.806C79.2459 225.806 77.3705 217.502 73.5224 212.533Z" fill="#1B1425"/>
<path d="M45.862 196.387C45.862 196.387 53.6778 199.165 56.2332 200.232C58.7792 201.291 58.842 203.126 58.842 203.126H46.2103C46.2103 203.126 44.528 200.437 43.3551 198.115L45.862 196.387Z" fill="#F5B79C"/>
<path d="M0.0102215 120.269C0.0102215 120.269 -0.410361 195.866 16.5018 227.584H74.4037C74.4037 227.584 74.1537 205.407 61.1026 203.076C48.0515 200.744 19.5596 203.46 19.5596 203.46C19.5596 203.46 4.62479 172.209 5.1129 118.161L0.0102215 120.269Z" fill="url(#paint26_linear_1261_304)"/>
<path d="M49.3963 280.461H38.05V283.946H49.3963V280.461Z" fill="url(#paint27_linear_1261_304)"/>
<path d="M16.4734 289.392H70.6374V287.33L48.5135 283.306H40.4265L16.4734 287.33V289.392Z" fill="url(#paint28_linear_1261_304)"/>
<path d="M55.037 128.4L54.2859 142.169C54.2859 142.169 70.1662 148.41 75.6823 150.473C75.6823 150.473 79.8656 148.522 80.1867 144.365C80.4473 140.993 70.4552 136.95 55.037 128.4Z" fill="#A535C5"/>
<path d="M104.329 138.048C104.329 138.048 81.4772 149.599 78.2014 150.03C78.2014 150.03 77.0238 150.571 75.6992 149.667C73.6283 148.256 77.5652 142.764 78.5237 142.434C84.4059 140.407 103.058 135.616 103.058 135.616L104.329 138.048Z" fill="#F5B79C"/>
<path d="M52.0812 126.467C50.0185 125.62 48.1478 124.71 48.1194 124.156C48.1194 124.156 47.4038 116.891 46.9785 112.68C46.8505 111.415 39.2397 107.13 39.2397 107.13C39.2397 107.13 38.9862 119.881 37.0124 124.268C37.0124 124.268 34.7496 124.978 31.3209 126.12V138.039H52.08L52.0812 126.467Z" fill="#E6977B"/>
<path d="M39.1697 109.196C39.1009 110.709 38.9837 112.886 38.7668 115.165C40.4575 118.617 44.8967 126.741 48.2211 124.392C48.1595 124.308 48.1216 124.229 48.1192 124.156C48.1192 124.156 47.6358 119.264 47.2271 115.178L39.8023 108.978L39.1697 109.196Z" fill="#D4775E"/>
<path d="M24.197 188.387C24.197 188.387 38.7066 194.369 59.1647 188.761C60.3944 188.423 59.9194 186.311 59.9194 186.311C58.8436 172.378 58.4076 156.97 58.4076 156.97C64.8858 153.956 61.4275 145.36 61.4275 145.36C61.4275 145.36 57.0855 130.545 55.0382 128.4C54.1426 127.455 52.0823 126.218 48.2911 124.469C48.2911 124.469 49.9995 126.388 45.8897 133.144C45.8897 133.144 41.98 132.691 37.0148 124.268C37.0148 124.268 21.7967 127.238 22.151 132.691C22.151 132.691 23.0502 145.664 25.1508 151.391C27.6754 158.251 28.0546 168.752 28.0546 169.335C28.0546 169.335 24.0525 187.417 24.197 188.387Z" fill="#A535C5"/>
<path d="M49.9699 120.805C49.9699 120.805 49.2769 121.244 47.8386 120.898C46.6313 120.602 40.3475 116.595 39.1118 111.65C39.1118 111.65 37.2541 111.955 36.484 109.638C35.7128 107.321 36.7127 104.078 39.1438 106.241C39.1438 106.241 38.4898 96.0443 42.974 95.4247C47.4547 94.8074 56.0216 93.2779 56.4185 100.524C56.4185 100.524 56.5595 107.009 55.3262 112.478C55.3262 112.478 54.0229 117.007 49.9699 120.805Z" fill="#F4A785"/>
<path d="M56.4243 101.159C56.9456 99.5735 56.7264 96.8226 55.3367 94.8583C52.4506 90.7804 42.0249 86.2085 36.0882 94.1924C31.7627 100.013 33.9059 109.613 36.4839 112.151C38.5738 114.199 37.1663 115.464 37.5656 116.569C37.8463 117.338 38.139 117.418 38.3961 117.377C38.6152 115.486 39.133 113.474 39.1981 111.974C39.1697 111.864 39.1365 111.761 39.1116 111.65C39.1116 111.65 37.254 111.955 36.4839 109.638C35.7185 107.358 36.69 104.179 39.037 106.155C39.2432 106.447 39.4813 106.734 39.691 106.86C40.1933 107.169 42.1043 105.76 41.5463 103.595C41.5463 103.595 51.0621 106.258 55.4078 98.1151C55.4078 98.1151 56.4231 99.2572 56.4243 101.159Z" fill="black"/>
<path d="M39.146 104.81C39.146 104.81 43.3447 105.557 46.7461 106.046C47.9877 106.224 55.6696 105.374 56.2868 105.266L56.4231 103.283C56.4231 103.283 59.2617 105.15 59.3683 105.787C59.4761 106.425 59.9394 110.284 59.0567 111.575C58.1753 112.865 50.3358 113.158 48.586 113.203C46.8349 113.247 38.3167 109.391 38.3167 109.391L39.146 104.81Z" fill="#E7EEF7"/>
<path d="M58.9382 106.897C58.9382 106.897 59.1206 110.462 58.5424 111.118C57.9643 111.773 51.4435 112.672 48.3655 112.202C48.3655 112.202 42.6136 110.381 44.559 108.042C44.559 108.042 47.1642 108.205 48.2186 108.269C48.2186 108.269 53.3959 108.458 58.9382 106.897Z" fill="#213242"/>
<path d="M47.2366 107.41L38.9979 105.623L39.146 104.809C39.146 104.809 43.3447 105.556 46.7461 106.045C47.9877 106.223 55.6696 105.373 56.2869 105.265L56.4231 103.282C56.4231 103.282 59.2617 105.149 59.3684 105.785C59.3684 105.785 57.4953 107.173 47.2366 107.41Z" fill="#88AFCD"/>
<path d="M34.2671 108.197C34.2671 114.27 35.613 113.459 37.2716 113.459C38.9302 113.459 40.2749 111.104 40.2749 108.197C40.2749 105.292 38.9302 102.937 37.2716 102.937C35.613 102.937 34.2671 102.126 34.2671 108.197Z" fill="#364D60"/>
<path d="M32.8951 108.198C32.8951 111.104 34.241 113.459 35.8996 113.459C37.5583 113.459 38.903 111.104 38.903 108.198C38.903 105.293 37.5583 102.937 35.8996 102.937C34.241 102.937 32.8951 105.293 32.8951 108.198Z" fill="#213242"/>
<path d="M58.3967 107.04C58.5768 106.992 58.7569 106.948 58.9381 106.897C58.9381 106.897 59.1206 110.462 58.5424 111.118C58.5081 111.157 58.45 111.196 58.3718 111.239C58.5033 110.078 58.6763 108.021 58.3967 107.04Z" fill="#88AFCD"/>
<path d="M27.0178 127.475C27.0178 127.475 22.1438 129.28 20.76 131.646C19.7589 133.357 16.983 164.963 20.0326 165.757C20.0326 165.757 29.0295 166.836 29.6053 162.951C30.3813 157.714 31.0613 135.598 27.0178 127.475Z" fill="#A535C5"/>
<path d="M47.3859 199.465C47.3859 199.465 30.0555 164.385 28.167 161.913C28.167 161.913 20.7837 162.711 21.1652 164.171C22.8392 170.58 44.918 200.232 44.918 200.232L47.3859 199.465Z" fill="#F5B79C"/>
<path d="M103.784 137.998C103.784 137.998 102.042 137.998 101.045 135.966C101.045 135.966 98.7479 131.483 99.2017 129.857C99.2017 129.857 99.781 129.384 100.313 130.421C101 131.762 101.494 132.842 101.963 132.792C101.963 132.792 102.432 131.348 102.732 128.241C102.732 128.241 103.165 122.621 104.174 122.618C104.174 122.618 104.856 122.366 104.727 124.085C104.598 125.804 104.178 129.556 104.291 130.017L104.746 130.03C104.746 130.03 106.143 121.854 107.008 121.838C107.875 121.823 107.88 122.612 107.853 123.088C107.827 123.563 106.753 129.19 106.544 130.159L106.842 130.504C106.842 130.504 109.069 124.119 109.638 123.555C110.208 122.991 110.801 123.138 110.543 124.139C110.543 124.139 110.039 125.558 109.611 126.946C109.611 126.946 108.571 130.685 108.674 130.911L108.96 131.071C108.96 131.071 111.743 127.704 112.246 127.247C112.748 126.791 113.721 127.763 112.351 129.199C112.351 129.199 110.619 131.174 110.053 132.495C110.053 132.495 109.527 134.419 108.918 135.353C108.918 135.353 106.804 140.127 103.784 137.998Z" fill="#F5B79C"/>
<path d="M270.043 87.3447H275.498L275.403 86.5641C283.151 84.2089 288.118 76.7853 287.052 67.99C285.986 59.195 279.22 51.7714 270.901 49.4159L270.807 48.6353H265.352C254.663 48.6353 247.047 57.3007 248.343 67.99C249.638 78.6795 259.354 87.3447 270.043 87.3447Z" fill="url(#paint29_linear_1261_304)"/>
<path d="M287.649 82.0764C294.545 74.7498 293.431 62.5004 285.161 54.7165C276.891 46.9326 264.597 46.5618 257.701 53.8884C250.805 61.2149 251.918 73.4644 260.188 81.2483C268.458 89.0322 280.753 89.4029 287.649 82.0764Z" fill="url(#paint30_linear_1261_304)"/>
<path d="M285.907 80.4791C291.978 74.0164 290.964 63.2006 283.642 56.3212C276.32 49.4419 265.462 49.1041 259.39 55.5668C253.318 62.0295 254.332 72.8454 261.655 79.7247C268.977 86.604 279.835 86.9418 285.907 80.4791Z" fill="url(#paint31_linear_1261_304)"/>
<path opacity="0.2" d="M289.711 72.4119L281.628 83.5703C285.988 81.4804 289.002 77.3941 289.711 72.4119Z" fill="url(#paint32_linear_1261_304)"/>
<path opacity="0.2" d="M255.47 67.1353L266.955 51.2808C259.715 52.8778 254.878 59.3149 255.47 67.1353Z" fill="url(#paint33_linear_1261_304)"/>
<path opacity="0.2" d="M274.783 85.0807C275.783 85.0807 276.752 84.9938 277.684 84.8293L289.757 68.1618C289.751 68.1044 289.745 68.0475 289.738 67.9899C289.175 63.4852 286.919 59.3884 283.69 56.3354L264.946 82.2126C267.885 84.0239 271.276 85.0807 274.783 85.0807Z" fill="url(#paint34_linear_1261_304)"/>
<path opacity="0.2" d="M272.978 51.0735L256.993 73.1426C257.695 74.7349 258.611 76.2264 259.698 77.5791L277.883 52.4739C276.323 51.7909 274.674 51.312 272.978 51.0735Z" fill="url(#paint35_linear_1261_304)"/>
<path d="M280.16 63.0304C274.005 61.8423 271.686 59.9512 271.686 59.9512C271.686 59.9512 269.826 61.8423 263.958 63.0304C263.958 63.0304 264.434 73.8569 273.858 77.8755C282.226 74.0801 280.16 63.0304 280.16 63.0304Z" fill="white"/>
<path d="M278.345 64.3672C273.588 63.449 271.796 61.9875 271.796 61.9875C271.796 61.9875 270.359 63.449 265.824 64.3672C265.824 64.3672 266.192 72.7338 273.475 75.8394C279.941 72.9063 278.345 64.3672 278.345 64.3672Z" fill="url(#paint36_linear_1261_304)"/>
<defs>
<linearGradient id="paint0_linear_1261_304" x1="86.8553" y1="5.46077" x2="90.352" y2="47.1823" gradientUnits="userSpaceOnUse">
<stop stop-color="#F57A00"/>
<stop offset="1" stop-color="#7103A4"/>
</linearGradient>
<linearGradient id="paint1_linear_1261_304" x1="86.8553" y1="36.8824" x2="138.093" y2="188.74" gradientUnits="userSpaceOnUse">
<stop stop-color="#F57A00"/>
<stop offset="1" stop-color="#7103A4"/>
</linearGradient>
<linearGradient id="paint2_linear_1261_304" x1="117.092" y1="78.3389" x2="147.452" y2="117.475" gradientUnits="userSpaceOnUse">
<stop stop-color="#F57A00"/>
<stop offset="1" stop-color="#7103A4"/>
</linearGradient>
<linearGradient id="paint3_linear_1261_304" x1="109.145" y1="67.5274" x2="156.617" y2="122.895" gradientUnits="userSpaceOnUse">
<stop stop-color="#F57A00"/>
<stop offset="1" stop-color="#7103A4"/>
</linearGradient>
<linearGradient id="paint4_linear_1261_304" x1="114.813" y1="72.3008" x2="152.846" y2="116.66" gradientUnits="userSpaceOnUse">
<stop stop-color="#F57A00"/>
<stop offset="1" stop-color="#7103A4"/>
</linearGradient>
<linearGradient id="paint5_linear_1261_304" x1="139.584" y1="103.284" x2="144.019" y2="107.447" gradientUnits="userSpaceOnUse">
<stop stop-color="#F57A00"/>
<stop offset="1" stop-color="#7103A4"/>
</linearGradient>
<linearGradient id="paint6_linear_1261_304" x1="143.99" y1="100.833" x2="148.683" y2="106.036" gradientUnits="userSpaceOnUse">
<stop stop-color="#F57A00"/>
<stop offset="1" stop-color="#7103A4"/>
</linearGradient>
<linearGradient id="paint7_linear_1261_304" x1="133.392" y1="103.683" x2="137.588" y2="107.439" gradientUnits="userSpaceOnUse">
<stop stop-color="#F57A00"/>
<stop offset="1" stop-color="#7103A4"/>
</linearGradient>
<linearGradient id="paint8_linear_1261_304" x1="147.443" y1="96.975" x2="151.582" y2="102.299" gradientUnits="userSpaceOnUse">
<stop stop-color="#F57A00"/>
<stop offset="1" stop-color="#7103A4"/>
</linearGradient>
<linearGradient id="paint9_linear_1261_304" x1="121.047" y1="93.7706" x2="124.38" y2="98.6081" gradientUnits="userSpaceOnUse">
<stop stop-color="#F57A00"/>
<stop offset="1" stop-color="#7103A4"/>
</linearGradient>
<linearGradient id="paint10_linear_1261_304" x1="123.178" y1="98.2687" x2="127.565" y2="103.656" gradientUnits="userSpaceOnUse">
<stop stop-color="#F57A00"/>
<stop offset="1" stop-color="#7103A4"/>
</linearGradient>
<linearGradient id="paint11_linear_1261_304" x1="127.507" y1="101.753" x2="132.211" y2="106.735" gradientUnits="userSpaceOnUse">
<stop stop-color="#F57A00"/>
<stop offset="1" stop-color="#7103A4"/>
</linearGradient>
<linearGradient id="paint12_linear_1261_304" x1="138.111" y1="75.183" x2="142.294" y2="78.8616" gradientUnits="userSpaceOnUse">
<stop stop-color="#F57A00"/>
<stop offset="1" stop-color="#7103A4"/>
</linearGradient>
<linearGradient id="paint13_linear_1261_304" x1="126.017" y1="77.5197" x2="130.709" y2="82.7193" gradientUnits="userSpaceOnUse">
<stop stop-color="#F57A00"/>
<stop offset="1" stop-color="#7103A4"/>
</linearGradient>
<linearGradient id="paint14_linear_1261_304" x1="131.509" y1="75.3565" x2="135.94" y2="79.5118" gradientUnits="userSpaceOnUse">
<stop stop-color="#F57A00"/>
<stop offset="1" stop-color="#7103A4"/>
</linearGradient>
<linearGradient id="paint15_linear_1261_304" x1="122.285" y1="81.8139" x2="126.427" y2="87.1399" gradientUnits="userSpaceOnUse">
<stop stop-color="#F57A00"/>
<stop offset="1" stop-color="#7103A4"/>
</linearGradient>
<linearGradient id="paint16_linear_1261_304" x1="120.896" y1="87.5895" x2="123.799" y2="92.0789" gradientUnits="userSpaceOnUse">
<stop stop-color="#F57A00"/>
<stop offset="1" stop-color="#7103A4"/>
</linearGradient>
<linearGradient id="paint17_linear_1261_304" x1="149.405" y1="92.2777" x2="152.31" y2="96.7646" gradientUnits="userSpaceOnUse">
<stop stop-color="#F57A00"/>
<stop offset="1" stop-color="#7103A4"/>
</linearGradient>
<linearGradient id="paint18_linear_1261_304" x1="148.98" y1="85.719" x2="152.319" y2="90.562" gradientUnits="userSpaceOnUse">
<stop stop-color="#F57A00"/>
<stop offset="1" stop-color="#7103A4"/>
</linearGradient>
<linearGradient id="paint19_linear_1261_304" x1="146.51" y1="80.3154" x2="150.9" y2="85.7028" gradientUnits="userSpaceOnUse">
<stop stop-color="#F57A00"/>
<stop offset="1" stop-color="#7103A4"/>
</linearGradient>
<linearGradient id="paint20_linear_1261_304" x1="142.696" y1="76.6102" x2="147.398" y2="81.5861" gradientUnits="userSpaceOnUse">
<stop stop-color="#F57A00"/>
<stop offset="1" stop-color="#7103A4"/>
</linearGradient>
<linearGradient id="paint21_linear_1261_304" x1="129.619" y1="84.775" x2="142.997" y2="100.378" gradientUnits="userSpaceOnUse">
<stop stop-color="#F57A00"/>
<stop offset="1" stop-color="#7103A4"/>
</linearGradient>
<linearGradient id="paint22_linear_1261_304" x1="13.0186" y1="136.103" x2="85.2348" y2="201.722" gradientUnits="userSpaceOnUse">
<stop stop-color="#F57A00"/>
<stop offset="1" stop-color="#7103A4"/>
</linearGradient>
<linearGradient id="paint23_linear_1261_304" x1="41.2701" y1="235.139" x2="50.129" y2="236.176" gradientUnits="userSpaceOnUse">
<stop stop-color="#F57A00"/>
<stop offset="1" stop-color="#7103A4"/>
</linearGradient>
<linearGradient id="paint24_linear_1261_304" x1="33.972" y1="227.275" x2="34.7672" y2="232.643" gradientUnits="userSpaceOnUse">
<stop stop-color="#F57A00"/>
<stop offset="1" stop-color="#7103A4"/>
</linearGradient>
<linearGradient id="paint25_linear_1261_304" x1="38.3423" y1="231.181" x2="39.1084" y2="234.942" gradientUnits="userSpaceOnUse">
<stop stop-color="#F57A00"/>
<stop offset="1" stop-color="#7103A4"/>
</linearGradient>
<linearGradient id="paint26_linear_1261_304" x1="7.66716" y1="136.267" x2="78.9489" y2="192.792" gradientUnits="userSpaceOnUse">
<stop stop-color="#F57A00"/>
<stop offset="1" stop-color="#7103A4"/>
</linearGradient>
<linearGradient id="paint27_linear_1261_304" x1="39.218" y1="281.038" x2="40.366" y2="285.398" gradientUnits="userSpaceOnUse">
<stop stop-color="#F57A00"/>
<stop offset="1" stop-color="#7103A4"/>
</linearGradient>
<linearGradient id="paint28_linear_1261_304" x1="22.0488" y1="284.313" x2="22.8261" y2="292.381" gradientUnits="userSpaceOnUse">
<stop stop-color="#F57A00"/>
<stop offset="1" stop-color="#7103A4"/>
</linearGradient>
<linearGradient id="paint29_linear_1261_304" x1="252.214" y1="55.0405" x2="277.779" y2="85.0791" gradientUnits="userSpaceOnUse">
<stop stop-color="#F57A00"/>
<stop offset="1" stop-color="#7103A4"/>
</linearGradient>
<linearGradient id="paint30_linear_1261_304" x1="252.74" y1="69.0875" x2="292.282" y2="68.5379" gradientUnits="userSpaceOnUse">
<stop stop-color="#F57A00"/>
<stop offset="1" stop-color="#7103A4"/>
</linearGradient>
<linearGradient id="paint31_linear_1261_304" x1="255.047" y1="68.9817" x2="289.962" y2="68.3984" gradientUnits="userSpaceOnUse">
<stop stop-color="#F57A00"/>
<stop offset="1" stop-color="#7103A4"/>
</linearGradient>
<linearGradient id="paint32_linear_1261_304" x1="282.46" y1="74.2583" x2="289.82" y2="80.4769" gradientUnits="userSpaceOnUse">
<stop stop-color="#F57A00"/>
<stop offset="1" stop-color="#7103A4"/>
</linearGradient>
<linearGradient id="paint33_linear_1261_304" x1="256.609" y1="53.9042" x2="267.074" y2="62.7835" gradientUnits="userSpaceOnUse">
<stop stop-color="#F57A00"/>
<stop offset="1" stop-color="#7103A4"/>
</linearGradient>
<linearGradient id="paint34_linear_1261_304" x1="267.5" y1="61.0919" x2="286.731" y2="80.4525" gradientUnits="userSpaceOnUse">
<stop stop-color="#F57A00"/>
<stop offset="1" stop-color="#7103A4"/>
</linearGradient>
<linearGradient id="paint35_linear_1261_304" x1="259.143" y1="55.4594" x2="276.814" y2="71.7031" gradientUnits="userSpaceOnUse">
<stop stop-color="#F57A00"/>
<stop offset="1" stop-color="#7103A4"/>
</linearGradient>
<linearGradient id="paint36_linear_1261_304" x1="267.131" y1="64.2796" x2="276.378" y2="74.1641" gradientUnits="userSpaceOnUse">
<stop stop-color="#F57A00"/>
<stop offset="1" stop-color="#7103A4"/>
</linearGradient>
</defs>
</svg>
