<svg width="375" height="356" viewBox="0 0 375 356" fill="none" xmlns="http://www.w3.org/2000/svg">
<path d="M46.6472 53.5959V46.3879C46.6472 45.5709 45.9845 44.9091 45.1684 44.9091H43.5316C42.8879 44.9091 42.3237 44.4911 42.1241 43.8799C41.8046 42.8986 41.41 41.9443 40.9415 41.0253C40.6499 40.452 40.7537 39.7577 41.2087 39.3027L42.3661 38.1453C42.9439 37.5675 42.9439 36.6313 42.3661 36.0535L37.2689 30.9563C36.6911 30.3785 35.7549 30.3785 35.1771 30.9563L34.0197 32.1137C33.5647 32.5687 32.8704 32.6725 32.2971 32.3809C31.3772 31.9124 30.4229 31.517 29.4416 31.1983C28.8295 30.9996 28.4124 30.4345 28.4124 29.7908V28.154C28.4124 27.337 27.7497 26.6743 26.9327 26.6743H19.7247C18.9077 26.6743 18.245 27.337 18.245 28.154V29.7908C18.245 30.4345 17.827 30.9987 17.2158 31.1983C16.2345 31.517 15.2811 31.9124 14.3611 32.3809C13.7879 32.6734 13.0927 32.5687 12.6377 32.1137L11.4803 30.9563C10.9025 30.3785 9.9663 30.3785 9.3885 30.9563L4.29127 36.0535C3.71348 36.6313 3.71348 37.5675 4.29127 38.1453L5.44867 39.3027C5.90368 39.7577 6.00751 40.452 5.7159 41.0262C5.24734 41.9461 4.85282 42.9004 4.53323 43.8817C4.33461 44.4938 3.76945 44.9109 3.12575 44.9109H1.48897C0.671935 44.9109 0.00927734 45.5736 0.00927734 46.3897V53.5977C0.00927734 54.4148 0.671935 55.0765 1.48897 55.0765H3.12575C3.76945 55.0765 4.33371 55.4945 4.53323 56.1057C4.85282 57.0871 5.24734 58.0413 5.7159 58.9613C6.00841 59.5346 5.90368 60.2288 5.44867 60.6838L4.29127 61.8412C3.71348 62.419 3.71348 63.3552 4.29127 63.933L9.3885 69.0302C9.9663 69.608 10.9025 69.608 11.4803 69.0302L12.6377 67.8728C13.0927 67.4178 13.787 67.314 14.3602 67.6056C15.2793 68.0742 16.2336 68.4687 17.2149 68.7883C17.827 68.9869 18.2441 69.5521 18.2441 70.1958V71.8325C18.2441 72.6496 18.9068 73.3122 19.7238 73.3122H26.9318C27.7488 73.3122 28.4115 72.6496 28.4115 71.8325V70.1958C28.4115 69.5521 28.8295 68.9878 29.4407 68.7883C30.422 68.4687 31.3763 68.0742 32.2962 67.6056C32.8695 67.314 33.5638 67.4178 34.0188 67.8728L35.1762 69.0302C35.754 69.608 36.6902 69.608 37.268 69.0302L42.3652 63.933C42.943 63.3552 42.943 62.419 42.3652 61.8412L41.2078 60.6838C40.7528 60.2288 40.649 59.5346 40.9406 58.9613C41.4091 58.0413 41.8037 57.088 42.1232 56.1066C42.3219 55.4945 42.887 55.0774 43.5307 55.0774H45.1675C45.9854 55.0747 46.6472 54.412 46.6472 53.5959ZM29.9092 56.6718C28.1641 58.4169 25.797 59.3982 23.3287 59.3982C20.8604 59.3982 18.4933 58.4178 16.7482 56.6718C15.003 54.9266 14.0217 52.5595 14.0217 50.0903C14.0217 47.6221 15.0021 45.2549 16.7482 43.5098C18.4933 41.7647 20.8604 40.7842 23.3287 40.7842C25.797 40.7842 28.1641 41.7647 29.9092 43.5098C31.6543 45.2549 32.6348 47.6221 32.6348 50.0903C32.6357 52.5595 31.6543 54.9266 29.9092 56.6718Z" fill="white"/>
<path d="M59.4706 14.8242V11.8711C59.4706 11.1425 58.8802 10.5521 58.1516 10.5521H58.1164C57.5657 10.5521 57.0683 10.2126 56.8832 9.69353C56.7622 9.35317 56.6232 9.02004 56.4688 8.69322C56.2332 8.19578 56.3442 7.60354 56.7342 7.21443L56.755 7.19367C57.2732 6.67456 57.2741 5.83946 56.7586 5.32486L54.6704 3.23668C54.1549 2.72208 53.3207 2.72208 52.8052 3.23668L52.7809 3.26106C52.3918 3.65017 51.7995 3.76211 51.3021 3.52648C50.9753 3.3721 50.6421 3.23307 50.3018 3.11209C49.7827 2.92702 49.4432 2.42957 49.4432 1.87886V1.84907C49.4432 1.116 48.8528 0.524658 48.1242 0.524658H45.1711C44.4426 0.524658 43.8521 1.11509 43.8521 1.84366V1.87796C43.8521 2.42867 43.5127 2.92612 42.9936 3.11119C42.6532 3.23217 42.3201 3.3712 41.9933 3.52558C41.4958 3.76121 40.9036 3.65017 40.5145 3.26106L40.4937 3.24029C39.9755 2.72208 39.1395 2.72118 38.6249 3.23668L36.5367 5.32486C36.0221 5.83946 36.0221 6.67455 36.5367 7.19005L36.5611 7.21443C36.9502 7.60354 37.0622 8.19578 36.8265 8.69322C36.6721 9.02004 36.5331 9.35317 36.4121 9.69353C36.2271 10.2126 35.7296 10.5521 35.1789 10.5521H35.1491C34.416 10.5521 33.8247 11.1425 33.8247 11.8711V14.8242C33.8247 15.5527 34.4151 16.1432 35.1437 16.1432H35.178C35.7287 16.1432 36.2262 16.4826 36.4112 17.0017C36.5322 17.3421 36.6712 17.6761 36.8256 18.002C37.0613 18.4995 36.9502 19.0917 36.5602 19.4808L36.5394 19.5016C36.0212 20.0198 36.0203 20.8558 36.5358 21.3704L38.624 23.4586C39.1386 23.9732 39.9737 23.9732 40.4892 23.4586L40.5136 23.4342C40.9027 23.0451 41.4949 22.9331 41.9924 23.1688C42.3183 23.3232 42.6523 23.4622 42.9927 23.5832C43.5118 23.7682 43.8512 24.2657 43.8512 24.8164V24.8462C43.8512 25.5793 44.4417 26.1706 45.1702 26.1706H48.1233C48.8519 26.1706 49.4423 25.5802 49.4423 24.8516V24.8173C49.4423 24.2666 49.7818 23.7691 50.3009 23.5841C50.6412 23.4631 50.9753 23.3241 51.3012 23.1697C51.7986 22.934 52.3909 23.0451 52.78 23.4342L52.8007 23.455C53.3189 23.9732 54.1549 23.9741 54.6695 23.4586L56.7577 21.3704C57.2723 20.8558 57.2723 20.0207 56.7577 19.5052L56.7333 19.4808C56.3442 19.0917 56.2323 18.4995 56.4679 18.002C56.6223 17.6752 56.7613 17.3421 56.8823 17.0017C57.0674 16.4826 57.5648 16.1432 58.1155 16.1432H58.1453C58.8793 16.1423 59.4706 15.5518 59.4706 14.8242ZM50.2657 17.0207C49.306 17.9804 48.0041 18.5193 46.6472 18.5193C45.2894 18.5193 43.9885 17.9804 43.0288 17.0207C42.0691 16.061 41.5301 14.7592 41.5301 13.4022C41.5301 12.0453 42.0691 10.7435 43.0288 9.78381C43.9885 8.82413 45.2903 8.28516 46.6472 8.28516C48.0041 8.28516 49.306 8.82413 50.2657 9.78381C51.2253 10.7435 51.7643 12.0453 51.7643 13.4022C51.7652 14.7592 51.2262 16.061 50.2657 17.0207Z" fill="white" stroke="#DBDFFF" stroke-miterlimit="10"/>
<path d="M368.448 42.8538H329.872C324.661 42.8538 321.536 37.0633 324.397 32.7081L343.686 3.34537C346.273 -0.592661 352.048 -0.592661 354.635 3.34537L373.923 32.7081C376.783 37.0633 373.66 42.8538 368.448 42.8538Z" fill="url(#paint0_linear_1261_310)"/>
<path d="M347.887 30.5829L347.025 13.777H352.34L351.442 30.5829H347.887ZM349.683 39.1654C348.845 39.1654 348.151 38.8901 347.6 38.3395C347.049 37.7889 346.774 37.1305 346.774 36.3644C346.774 35.5984 347.049 34.952 347.6 34.4253C348.151 33.8747 348.845 33.5994 349.683 33.5994C350.521 33.5994 351.203 33.8747 351.73 34.4253C352.256 34.952 352.52 35.5984 352.52 36.3644C352.52 37.1305 352.256 37.7889 351.73 38.3395C351.203 38.8901 350.521 39.1654 349.683 39.1654Z" fill="white"/>
<path d="M63.4195 85.5798H62.1403" stroke="white" stroke-width="0.9921" stroke-linecap="round" stroke-linejoin="round"/>
<path d="M56.9871 85.5798H5.36479C3.29015 85.5798 1.60913 87.2618 1.60913 89.3355V168.369" stroke="white" stroke-width="0.9921" stroke-linecap="round" stroke-linejoin="round" stroke-dasharray="2.85 5.71"/>
<path d="M1.60815 170.945V172.225" stroke="white" stroke-width="0.9921" stroke-linecap="round" stroke-linejoin="round"/>
<path d="M77.0195 110.43H199.952C203.344 110.43 206.094 107.68 206.094 104.287V20.9265C206.094 17.5338 203.343 14.783 199.951 14.783H77.0195C73.6268 14.783 70.8768 17.5329 70.8768 20.9256V104.286C70.8759 107.68 73.6268 110.43 77.0195 110.43Z" fill="url(#paint1_linear_1261_310)"/>
<path opacity="0.54" d="M86.6551 84.001H190.315C192.364 84.001 194.026 82.3398 194.026 80.2904V45.2364C194.026 43.187 192.364 41.5259 190.315 41.5259H86.6551C84.6057 41.5259 82.9446 43.187 82.9446 45.2364V80.2896C82.9446 82.3398 84.6057 84.001 86.6551 84.001Z" fill="white"/>
<path d="M70.8759 31.5751H206.094V20.9265C206.094 17.5338 203.343 14.783 199.951 14.783H77.0194C73.6267 14.783 70.8768 17.5329 70.8768 20.9256L70.8759 31.5751Z" fill="url(#paint2_linear_1261_310)"/>
<path d="M105.158 23.744C105.158 25.8719 106.883 27.5972 109.011 27.5972C111.139 27.5972 112.865 25.8719 112.865 23.744C112.865 21.6161 111.139 19.8909 109.011 19.8909C106.883 19.8918 105.158 21.6161 105.158 23.744Z" fill="white"/>
<path d="M91.9366 23.744C91.9366 25.8719 93.6619 27.5972 95.7889 27.5972C97.9168 27.5972 99.6421 25.8719 99.6421 23.744C99.6421 21.6161 97.9168 19.8909 95.7889 19.8909C93.661 19.8918 91.9366 21.6161 91.9366 23.744Z" fill="#E8F4FF"/>
<path d="M78.7142 23.7443C78.7142 25.8722 80.4395 27.5974 82.5674 27.5974C84.6953 27.5974 86.4206 25.8722 86.4206 23.7443C86.4206 21.6164 84.6953 19.8911 82.5674 19.8911C80.4395 19.8911 78.7142 21.6164 78.7142 23.7443Z" fill="#CEDFFD"/>
<path d="M111.859 71.7446L106.346 88.2849L102.746 84.6845L95.7624 91.6677L91.9363 87.8416L98.9195 80.8575L95.3191 77.2581L111.859 71.7446Z" fill="#0F1E36"/>
<path d="M264.411 325.871H202.373C200.761 341.016 184.621 349.315 174.135 353.049C172.736 353.547 172.696 355.465 174.101 355.465H241.508C241.602 355.465 241.689 355.456 241.776 355.435C243.922 354.927 271.065 347.977 264.411 325.871Z" fill="url(#paint3_linear_1261_310)"/>
<path d="M258.123 325.871H181.474C177.781 341.016 160.502 349.315 149.504 353.049C148.036 353.547 147.733 355.465 149.138 355.465H227.082C227.159 355.465 227.229 355.459 227.303 355.445C229.505 355.032 263.914 348.164 258.123 325.871Z" fill="url(#paint4_linear_1261_310)"/>
<path d="M340.821 330.901H98.9358C95.1739 330.901 87.5704 327.852 87.5867 324.089L92.9214 148.636C92.9376 144.874 96.0008 141.824 99.7628 141.824H339.2C342.962 141.824 348.424 145.935 348.408 149.697L347.664 324.089C347.646 327.852 344.583 330.901 340.821 330.901Z" fill="url(#paint5_linear_1261_310)"/>
<path d="M337.435 329.841H94.0272C90.2652 329.841 87.2282 326.791 87.2444 323.028L87.9893 148.636C88.0055 144.874 91.0678 141.825 94.8307 141.825H338.238C342 141.825 345.037 144.874 345.021 148.636L344.276 323.028C344.26 326.791 341.197 329.841 337.435 329.841Z" fill="url(#paint6_linear_1261_310)"/>
<path d="M337.435 329.841H94.0272C90.2652 329.841 87.2282 326.791 87.2444 323.028L87.3672 294.299H344.399L344.276 323.028C344.26 326.791 341.197 329.841 337.435 329.841Z" fill="url(#paint7_linear_1261_310)"/>
<path d="M96.3375 286.053L96.9153 150.76H336.078L335.5 286.053H96.3375Z" fill="white" fill-opacity="0.1"/>
<path d="M309.757 275.276H177.089C173.168 275.276 169.989 272.097 169.989 268.176V197.454C169.989 193.533 173.168 190.354 177.089 190.354H309.758C313.678 190.354 316.857 193.533 316.857 197.454V268.176C316.856 272.097 313.678 275.276 309.757 275.276Z" fill="url(#paint8_linear_1261_310)"/>
<path d="M158.412 275.276H123.357C121.242 275.276 119.528 273.561 119.528 271.447V194.183C119.528 192.069 121.242 190.354 123.357 190.354H158.412C160.526 190.354 162.24 192.069 162.24 194.183V271.447C162.24 273.561 160.526 275.276 158.412 275.276Z" fill="white"/>
<path d="M309.986 169.618H126.398C122.604 169.618 119.527 172.694 119.527 176.49C119.527 180.284 122.603 183.361 126.398 183.361H309.985C313.779 183.361 316.856 180.285 316.856 176.49C316.856 172.695 313.78 169.618 309.986 169.618Z" fill="white"/>
<path d="M254.741 125.337H109.778C102.218 125.337 96.0902 119.208 96.0902 111.649V109.662C96.0902 102.103 102.218 95.9749 109.778 95.9749H254.741V125.337Z" fill="#240031"/>
<path d="M150.11 108.271C152.217 108.271 153.628 109.516 153.628 111.939V117H152.798V112.005C152.798 110.047 151.753 109.018 149.994 109.018C147.952 109.018 146.708 110.329 146.708 112.387V117H145.878V104.687H146.708V110.146C147.305 108.968 148.5 108.271 150.11 108.271ZM160.993 115.872L161.342 116.452C160.91 116.867 160.213 117.066 159.566 117.066C158.039 117.066 157.21 116.17 157.21 114.71V109.051H155.617V108.338H157.21V106.446H158.039V108.338H160.794V109.051H158.039V114.627C158.039 115.739 158.587 116.353 159.649 116.353C160.164 116.353 160.645 116.187 160.993 115.872ZM167.378 115.872L167.727 116.452C167.295 116.867 166.598 117.066 165.951 117.066C164.424 117.066 163.595 116.17 163.595 114.71V109.051H162.002V108.338H163.595V106.446H164.424V108.338H167.179V109.051H164.424V114.627C164.424 115.739 164.972 116.353 166.034 116.353C166.549 116.353 167.03 116.187 167.378 115.872ZM174.388 108.271C176.828 108.271 178.67 110.08 178.67 112.669C178.67 115.274 176.828 117.066 174.388 117.066C172.862 117.066 171.567 116.32 170.87 115.025V120.219H170.041V108.338H170.837V110.379C171.518 109.051 172.829 108.271 174.388 108.271ZM174.339 116.32C176.33 116.32 177.84 114.843 177.84 112.669C177.84 110.495 176.33 109.018 174.339 109.018C172.347 109.018 170.854 110.495 170.854 112.669C170.854 114.843 172.347 116.32 174.339 116.32ZM183.429 117.066C182.002 117.066 180.641 116.585 179.961 115.955L180.343 115.291C181.006 115.855 182.185 116.336 183.462 116.336C185.288 116.336 186.018 115.689 186.018 114.71C186.018 112.188 180.276 114.046 180.276 110.644C180.276 109.333 181.371 108.271 183.562 108.271C184.657 108.271 185.852 108.603 186.532 109.118L186.151 109.781C185.421 109.25 184.475 109.001 183.545 109.001C181.853 109.001 181.106 109.698 181.106 110.628C181.106 113.233 186.848 111.391 186.848 114.693C186.848 116.104 185.636 117.066 183.429 117.066ZM189.064 109.682C188.682 109.682 188.367 109.367 188.367 108.968C188.367 108.57 188.682 108.271 189.064 108.271C189.445 108.271 189.761 108.57 189.761 108.968C189.761 109.367 189.445 109.682 189.064 109.682ZM189.064 117.066C188.682 117.066 188.367 116.751 188.367 116.353C188.367 115.955 188.682 115.656 189.064 115.656C189.445 115.656 189.761 115.955 189.761 116.353C189.761 116.751 189.445 117.066 189.064 117.066ZM191.058 118.659L196.534 103.027H197.297L191.821 118.659H191.058ZM195.32 118.659L200.796 103.027H201.559L196.083 118.659H195.32Z" fill="white"/>
<path d="M153.628 117V117.496C153.902 117.496 154.124 117.274 154.124 117H153.628ZM152.798 117H152.302C152.302 117.274 152.524 117.496 152.798 117.496V117ZM146.708 117V117.496C146.982 117.496 147.204 117.274 147.204 117H146.708ZM145.878 117H145.382C145.382 117.274 145.604 117.496 145.878 117.496V117ZM145.878 104.687V104.191C145.604 104.191 145.382 104.413 145.382 104.687H145.878ZM146.708 104.687H147.204C147.204 104.413 146.982 104.191 146.708 104.191V104.687ZM146.708 110.146H146.212C146.212 110.376 146.369 110.576 146.593 110.629C146.816 110.682 147.047 110.576 147.15 110.371L146.708 110.146ZM150.11 108.271V108.767C151.067 108.767 151.808 109.048 152.309 109.548C152.809 110.046 153.132 110.824 153.132 111.939H153.628H154.124C154.124 110.631 153.741 109.575 153.009 108.845C152.278 108.117 151.26 107.775 150.11 107.775V108.271ZM153.628 111.939H153.132V117H153.628H154.124V111.939H153.628ZM153.628 117V116.504H152.798V117V117.496H153.628V117ZM152.798 117H153.294V112.005H152.798H152.302V117H152.798ZM152.798 112.005H153.294C153.294 110.941 153.009 110.055 152.414 109.434C151.815 108.81 150.97 108.522 149.994 108.522V109.018V109.514C150.777 109.514 151.333 109.741 151.697 110.121C152.064 110.503 152.302 111.111 152.302 112.005H152.798ZM149.994 109.018V108.522C148.864 108.522 147.905 108.887 147.229 109.586C146.555 110.282 146.212 111.258 146.212 112.387H146.708H147.204C147.204 111.458 147.483 110.749 147.942 110.276C148.398 109.804 149.082 109.514 149.994 109.514V109.018ZM146.708 112.387H146.212V117H146.708H147.204V112.387H146.708ZM146.708 117V116.504H145.878V117V117.496H146.708V117ZM145.878 117H146.374V104.687H145.878H145.382V117H145.878ZM145.878 104.687V105.183H146.708V104.687V104.191H145.878V104.687ZM146.708 104.687H146.212V110.146H146.708H147.204V104.687H146.708ZM146.708 110.146L147.15 110.371C147.649 109.386 148.654 108.767 150.11 108.767V108.271V107.775C148.346 107.775 146.961 108.55 146.265 109.922L146.708 110.146ZM160.993 115.872L161.419 115.616C161.342 115.489 161.213 115.403 161.066 115.381C160.919 115.359 160.771 115.404 160.66 115.504L160.993 115.872ZM161.342 116.452L161.686 116.81C161.852 116.65 161.886 116.395 161.767 116.197L161.342 116.452ZM157.21 109.051H157.706C157.706 108.777 157.484 108.555 157.21 108.555V109.051ZM155.617 109.051H155.121C155.121 109.325 155.343 109.547 155.617 109.547V109.051ZM155.617 108.338V107.842C155.343 107.842 155.121 108.064 155.121 108.338H155.617ZM157.21 108.338V108.834C157.484 108.834 157.706 108.612 157.706 108.338H157.21ZM157.21 106.446V105.95C156.936 105.95 156.714 106.172 156.714 106.446H157.21ZM158.039 106.446H158.536C158.536 106.172 158.313 105.95 158.039 105.95V106.446ZM158.039 108.338H157.543C157.543 108.612 157.766 108.834 158.039 108.834V108.338ZM160.794 108.338H161.29C161.29 108.064 161.068 107.842 160.794 107.842V108.338ZM160.794 109.051V109.547C161.068 109.547 161.29 109.325 161.29 109.051H160.794ZM158.039 109.051V108.555C157.766 108.555 157.543 108.777 157.543 109.051H158.039ZM160.993 115.872L160.568 116.127L160.916 116.708L161.342 116.452L161.767 116.197L161.419 115.616L160.993 115.872ZM161.342 116.452L160.998 116.095C160.69 116.391 160.135 116.57 159.566 116.57V117.066V117.562C160.291 117.562 161.131 117.343 161.686 116.81L161.342 116.452ZM159.566 117.066V116.57C158.9 116.57 158.452 116.377 158.17 116.089C157.886 115.799 157.706 115.348 157.706 114.71H157.21H156.714C156.714 115.532 156.949 116.26 157.461 116.783C157.975 117.308 158.706 117.562 159.566 117.562V117.066ZM157.21 114.71H157.706V109.051H157.21H156.714V114.71H157.21ZM157.21 109.051V108.555H155.617V109.051V109.547H157.21V109.051ZM155.617 109.051H156.113V108.338H155.617H155.121V109.051H155.617ZM155.617 108.338V108.834H157.21V108.338V107.842H155.617V108.338ZM157.21 108.338H157.706V106.446H157.21H156.714V108.338H157.21ZM157.21 106.446V106.942H158.039V106.446V105.95H157.21V106.446ZM158.039 106.446H157.543V108.338H158.039H158.536V106.446H158.039ZM158.039 108.338V108.834H160.794V108.338V107.842H158.039V108.338ZM160.794 108.338H160.298V109.051H160.794H161.29V108.338H160.794ZM160.794 109.051V108.555H158.039V109.051V109.547H160.794V109.051ZM158.039 109.051H157.543V114.627H158.039H158.536V109.051H158.039ZM158.039 114.627H157.543C157.543 115.258 157.699 115.828 158.081 116.243C158.47 116.665 159.022 116.849 159.649 116.849V116.353V115.857C159.214 115.857 158.961 115.734 158.811 115.571C158.654 115.401 158.536 115.108 158.536 114.627H158.039ZM159.649 116.353V116.849C160.267 116.849 160.873 116.65 161.326 116.239L160.993 115.872L160.66 115.504C160.417 115.724 160.06 115.857 159.649 115.857V116.353ZM167.378 115.872L167.804 115.616C167.727 115.489 167.598 115.403 167.451 115.381C167.304 115.359 167.156 115.404 167.045 115.504L167.378 115.872ZM167.727 116.452L168.071 116.81C168.237 116.65 168.271 116.395 168.152 116.197L167.727 116.452ZM163.595 109.051H164.091C164.091 108.777 163.869 108.555 163.595 108.555V109.051ZM162.002 109.051H161.506C161.506 109.325 161.728 109.547 162.002 109.547V109.051ZM162.002 108.338V107.842C161.728 107.842 161.506 108.064 161.506 108.338H162.002ZM163.595 108.338V108.834C163.869 108.834 164.091 108.612 164.091 108.338H163.595ZM163.595 106.446V105.95C163.321 105.95 163.099 106.172 163.099 106.446H163.595ZM164.424 106.446H164.921C164.921 106.172 164.698 105.95 164.424 105.95V106.446ZM164.424 108.338H163.928C163.928 108.612 164.15 108.834 164.424 108.834V108.338ZM167.179 108.338H167.675C167.675 108.064 167.453 107.842 167.179 107.842V108.338ZM167.179 109.051V109.547C167.453 109.547 167.675 109.325 167.675 109.051H167.179ZM164.424 109.051V108.555C164.15 108.555 163.928 108.777 163.928 109.051H164.424ZM167.378 115.872L166.953 116.127L167.301 116.708L167.727 116.452L168.152 116.197L167.804 115.616L167.378 115.872ZM167.727 116.452L167.383 116.095C167.075 116.391 166.52 116.57 165.951 116.57V117.066V117.562C166.676 117.562 167.516 117.343 168.071 116.81L167.727 116.452ZM165.951 117.066V116.57C165.285 116.57 164.837 116.377 164.555 116.089C164.271 115.799 164.091 115.348 164.091 114.71H163.595H163.099C163.099 115.532 163.334 116.26 163.846 116.783C164.36 117.308 165.091 117.562 165.951 117.562V117.066ZM163.595 114.71H164.091V109.051H163.595H163.099V114.71H163.595ZM163.595 109.051V108.555H162.002V109.051V109.547H163.595V109.051ZM162.002 109.051H162.498V108.338H162.002H161.506V109.051H162.002ZM162.002 108.338V108.834H163.595V108.338V107.842H162.002V108.338ZM163.595 108.338H164.091V106.446H163.595H163.099V108.338H163.595ZM163.595 106.446V106.942H164.424V106.446V105.95H163.595V106.446ZM164.424 106.446H163.928V108.338H164.424H164.921V106.446H164.424ZM164.424 108.338V108.834H167.179V108.338V107.842H164.424V108.338ZM167.179 108.338H166.683V109.051H167.179H167.675V108.338H167.179ZM167.179 109.051V108.555H164.424V109.051V109.547H167.179V109.051ZM164.424 109.051H163.928V114.627H164.424H164.921V109.051H164.424ZM164.424 114.627H163.928C163.928 115.258 164.084 115.828 164.466 116.243C164.855 116.665 165.407 116.849 166.034 116.849V116.353V115.857C165.599 115.857 165.346 115.734 165.196 115.571C165.039 115.401 164.921 115.108 164.921 114.627H164.424ZM166.034 116.353V116.849C166.652 116.849 167.258 116.65 167.711 116.239L167.378 115.872L167.045 115.504C166.802 115.724 166.445 115.857 166.034 115.857V116.353ZM170.87 115.025L171.307 114.79C171.199 114.59 170.969 114.489 170.749 114.544C170.529 114.6 170.374 114.798 170.374 115.025H170.87ZM170.87 120.219V120.715C171.144 120.715 171.366 120.493 171.366 120.219H170.87ZM170.041 120.219H169.545C169.545 120.493 169.767 120.715 170.041 120.715V120.219ZM170.041 108.338V107.842C169.767 107.842 169.545 108.064 169.545 108.338H170.041ZM170.837 108.338H171.333C171.333 108.064 171.111 107.842 170.837 107.842V108.338ZM170.837 110.379H170.341C170.341 110.608 170.498 110.807 170.721 110.861C170.944 110.915 171.174 110.809 171.279 110.605L170.837 110.379ZM174.388 108.271V108.767C176.548 108.767 178.174 110.348 178.174 112.669H178.67H179.166C179.166 109.812 177.108 107.775 174.388 107.775V108.271ZM178.67 112.669H178.174C178.174 115.005 176.549 116.57 174.388 116.57V117.066V117.562C177.107 117.562 179.166 115.543 179.166 112.669H178.67ZM174.388 117.066V116.57C173.034 116.57 171.913 115.915 171.307 114.79L170.87 115.025L170.434 115.26C171.222 116.724 172.69 117.562 174.388 117.562V117.066ZM170.87 115.025H170.374V120.219H170.87H171.366V115.025H170.87ZM170.87 120.219V119.723H170.041V120.219V120.715H170.87V120.219ZM170.041 120.219H170.537V108.338H170.041H169.545V120.219H170.041ZM170.041 108.338V108.834H170.837V108.338V107.842H170.041V108.338ZM170.837 108.338H170.341V110.379H170.837H171.333V108.338H170.837ZM170.837 110.379L171.279 110.605C171.87 109.452 173.005 108.767 174.388 108.767V108.271V107.775C172.652 107.775 171.165 108.651 170.396 110.153L170.837 110.379ZM174.339 116.32V116.816C176.615 116.816 178.336 115.106 178.336 112.669H177.84H177.344C177.344 114.58 176.045 115.824 174.339 115.824V116.32ZM177.84 112.669H178.336C178.336 110.232 176.615 108.522 174.339 108.522V109.018V109.514C176.045 109.514 177.344 110.758 177.344 112.669H177.84ZM174.339 109.018V108.522C172.06 108.522 170.358 110.235 170.358 112.669H170.854H171.35C171.35 110.755 172.635 109.514 174.339 109.514V109.018ZM170.854 112.669H170.358C170.358 115.103 172.06 116.816 174.339 116.816V116.32V115.824C172.635 115.824 171.35 114.583 171.35 112.669H170.854ZM179.961 115.955L179.531 115.707C179.416 115.908 179.454 116.161 179.624 116.318L179.961 115.955ZM180.343 115.291L180.664 114.913C180.552 114.817 180.403 114.777 180.258 114.802C180.112 114.827 179.986 114.916 179.913 115.043L180.343 115.291ZM186.532 109.118L186.962 109.365C187.087 109.148 187.031 108.873 186.832 108.722L186.532 109.118ZM186.151 109.781L185.859 110.183C185.973 110.265 186.116 110.296 186.254 110.267C186.392 110.237 186.511 110.151 186.581 110.029L186.151 109.781ZM183.429 117.066V116.57C182.085 116.57 180.86 116.112 180.298 115.591L179.961 115.955L179.624 116.318C180.422 117.059 181.919 117.562 183.429 117.562V117.066ZM179.961 115.955L180.391 116.202L180.773 115.538L180.343 115.291L179.913 115.043L179.531 115.707L179.961 115.955ZM180.343 115.291L180.021 115.669C180.781 116.314 182.075 116.832 183.462 116.832V116.336V115.84C182.294 115.84 181.232 115.396 180.664 114.913L180.343 115.291ZM183.462 116.336V116.832C184.419 116.832 185.177 116.665 185.707 116.298C186.268 115.91 186.514 115.341 186.514 114.71H186.018H185.522C185.522 115.058 185.402 115.302 185.142 115.482C184.851 115.684 184.331 115.84 183.462 115.84V116.336ZM186.018 114.71H186.514C186.514 114.292 186.392 113.934 186.159 113.642C185.934 113.359 185.631 113.17 185.318 113.034C184.715 112.772 183.92 112.65 183.241 112.52C182.515 112.38 181.888 112.228 181.44 111.942C181.226 111.805 181.065 111.645 180.955 111.449C180.846 111.255 180.772 110.998 180.772 110.644H180.276H179.78C179.78 111.142 179.886 111.571 180.09 111.935C180.295 112.299 180.582 112.571 180.906 112.778C181.535 113.18 182.344 113.358 183.053 113.494C183.81 113.639 184.45 113.739 184.923 113.944C185.149 114.042 185.294 114.148 185.383 114.26C185.464 114.362 185.522 114.497 185.522 114.71H186.018ZM180.276 110.644H180.772C180.772 110.139 180.978 109.69 181.404 109.357C181.839 109.015 182.542 108.767 183.562 108.767V108.271V107.775C182.392 107.775 181.451 108.059 180.792 108.576C180.122 109.101 179.78 109.839 179.78 110.644H180.276ZM183.562 108.271V108.767C184.585 108.767 185.664 109.083 186.233 109.513L186.532 109.118L186.832 108.722C186.04 108.124 184.729 107.775 183.562 107.775V108.271ZM186.532 109.118L186.102 108.87L185.721 109.534L186.151 109.781L186.581 110.029L186.962 109.365L186.532 109.118ZM186.151 109.781L186.442 109.38C185.61 108.775 184.556 108.505 183.545 108.505V109.001V109.498C184.393 109.498 185.231 109.726 185.859 110.183L186.151 109.781ZM183.545 109.001V108.505C182.641 108.505 181.913 108.69 181.399 109.065C180.865 109.455 180.61 110.014 180.61 110.628H181.106H181.602C181.602 110.312 181.721 110.058 181.983 109.867C182.265 109.661 182.757 109.498 183.545 109.498V109.001ZM181.106 110.628H180.61C180.61 111.052 180.729 111.416 180.959 111.716C181.181 112.008 181.483 112.206 181.797 112.349C182.404 112.626 183.2 112.754 183.882 112.886C184.611 113.027 185.24 113.176 185.69 113.453C185.905 113.586 186.064 113.74 186.172 113.926C186.279 114.111 186.352 114.355 186.352 114.693H186.848H187.344C187.344 114.206 187.237 113.785 187.03 113.429C186.824 113.073 186.535 112.809 186.211 112.609C185.584 112.222 184.778 112.049 184.071 111.912C183.318 111.766 182.679 111.66 182.209 111.446C181.985 111.344 181.838 111.233 181.747 111.114C181.662 111.003 181.602 110.855 181.602 110.628H181.106ZM186.848 114.693H186.352C186.352 115.239 186.126 115.682 185.676 116.006C185.209 116.343 184.469 116.57 183.429 116.57V117.066V117.562C184.597 117.562 185.565 117.309 186.256 116.811C186.964 116.301 187.344 115.559 187.344 114.693H186.848ZM189.064 109.682V109.186C188.964 109.186 188.863 109.1 188.863 108.968H188.367H187.871C187.871 109.633 188.4 110.178 189.064 110.178V109.682ZM188.367 108.968H188.863C188.863 108.852 188.948 108.767 189.064 108.767V108.271V107.775C188.416 107.775 187.871 108.288 187.871 108.968H188.367ZM189.064 108.271V108.767C189.179 108.767 189.265 108.852 189.265 108.968H189.761H190.257C190.257 108.288 189.712 107.775 189.064 107.775V108.271ZM189.761 108.968H189.265C189.265 109.1 189.164 109.186 189.064 109.186V109.682V110.178C189.727 110.178 190.257 109.633 190.257 108.968H189.761ZM189.064 117.066V116.57C188.964 116.57 188.863 116.485 188.863 116.353H188.367H187.871C187.871 117.017 188.4 117.562 189.064 117.562V117.066ZM188.367 116.353H188.863C188.863 116.236 188.948 116.152 189.064 116.152V115.656V115.16C188.416 115.16 187.871 115.673 187.871 116.353H188.367ZM189.064 115.656V116.152C189.179 116.152 189.265 116.236 189.265 116.353H189.761H190.257C190.257 115.673 189.712 115.16 189.064 115.16V115.656ZM189.761 116.353H189.265C189.265 116.485 189.164 116.57 189.064 116.57V117.066V117.562C189.727 117.562 190.257 117.017 190.257 116.353H189.761ZM191.058 118.659L190.59 118.495C190.536 118.647 190.56 118.815 190.653 118.946C190.746 119.078 190.897 119.156 191.058 119.156V118.659ZM196.534 103.027V102.531C196.323 102.531 196.135 102.665 196.066 102.863L196.534 103.027ZM197.297 103.027L197.765 103.191C197.819 103.04 197.795 102.872 197.702 102.74C197.609 102.609 197.458 102.531 197.297 102.531V103.027ZM191.821 118.659V119.156C192.032 119.156 192.22 119.022 192.289 118.823L191.821 118.659ZM191.058 118.659L191.526 118.823L197.002 103.191L196.534 103.027L196.066 102.863L190.59 118.495L191.058 118.659ZM196.534 103.027V103.523H197.297V103.027V102.531H196.534V103.027ZM197.297 103.027L196.829 102.863L191.353 118.495L191.821 118.659L192.289 118.823L197.765 103.191L197.297 103.027ZM191.821 118.659V118.163H191.058V118.659V119.156H191.821V118.659ZM195.32 118.659L194.852 118.495C194.798 118.647 194.822 118.815 194.915 118.946C195.008 119.078 195.159 119.156 195.32 119.156V118.659ZM200.796 103.027V102.531C200.585 102.531 200.397 102.665 200.328 102.863L200.796 103.027ZM201.559 103.027L202.027 103.191C202.081 103.04 202.057 102.872 201.964 102.74C201.871 102.609 201.72 102.531 201.559 102.531V103.027ZM196.083 118.659V119.156C196.294 119.156 196.482 119.022 196.551 118.823L196.083 118.659ZM195.32 118.659L195.788 118.823L201.264 103.191L200.796 103.027L200.328 102.863L194.852 118.495L195.32 118.659ZM200.796 103.027V103.523H201.559V103.027V102.531H200.796V103.027ZM201.559 103.027L201.091 102.863L195.615 118.495L196.083 118.659L196.551 118.823L202.027 103.191L201.559 103.027ZM196.083 118.659V118.163H195.32V118.659V119.156H196.083V118.659Z" fill="white"/>
<path d="M289.552 171.684C272.202 169.803 256.33 161.21 245.218 147.523C235.478 135.526 230.433 120.393 230.433 104.941V55.1475C230.433 55.0861 230.479 55.0346 230.539 55.0265C251.521 52.4752 271.783 45.1002 289.5 33.5379C289.54 33.5118 289.592 33.5118 289.632 33.5379C307.344 45.1002 327.609 52.4752 348.594 55.0265C348.656 55.0337 348.701 55.0852 348.701 55.1475V104.942C348.701 120.392 343.657 135.523 333.919 147.52C322.808 161.209 306.933 169.803 289.581 171.685C289.572 171.686 289.562 171.686 289.552 171.684Z" fill="url(#paint9_linear_1261_310)"/>
<path d="M289.584 161.641C289.573 161.643 289.56 161.643 289.548 161.641C276.493 159.908 264.457 153.643 255.53 143.908C245.995 133.51 240.744 120.015 240.744 105.907V64.0475C240.744 63.9888 240.785 63.9391 240.842 63.9283C257.924 60.5924 274.469 54.3811 289.506 45.6483C289.543 45.6267 289.589 45.6267 289.627 45.6483C304.662 54.3821 321.205 60.5924 338.291 63.9283C338.348 63.9391 338.39 63.9897 338.39 64.0475V105.907C338.39 120.014 333.138 133.509 323.604 143.908C314.677 153.643 302.641 159.908 289.584 161.641Z" fill="#240031"/>
<path d="M271.012 128.179L285.962 140.367L313.018 116.703" stroke="white" stroke-width="8.5039" stroke-miterlimit="10" stroke-linecap="round" stroke-linejoin="round"/>
<path d="M253.496 102.2C252.688 101.206 252.284 100.321 252.284 99.5441C252.284 98.7364 252.952 97.6802 254.288 96.3754C255.065 95.6298 255.888 95.257 256.758 95.257C257.627 95.257 258.839 96.0337 260.392 97.587C260.827 98.1151 261.449 98.6277 262.256 99.1247C263.064 99.5907 263.81 99.8237 264.493 99.8237C267.382 99.8237 268.827 98.6432 268.827 96.2822C268.827 95.5677 268.423 94.9774 267.615 94.5114C266.839 94.0144 265.86 93.6571 264.68 93.4396C263.499 93.2222 262.225 92.8804 260.858 92.4144C259.491 91.9174 258.218 91.3427 257.037 90.6903C255.857 90.0379 254.863 89.0127 254.055 87.6147C253.278 86.1857 252.89 84.4771 252.89 82.4888C252.89 79.755 253.9 77.3784 255.919 75.3591C257.969 73.3088 260.75 72.2836 264.26 72.2836C266.124 72.2836 267.817 72.5321 269.339 73.0292C270.893 73.4952 271.965 73.9767 272.555 74.4738L273.72 75.3591C274.683 76.2601 275.164 77.0212 275.164 77.6425C275.164 78.2638 274.792 79.1181 274.046 80.2055C272.99 81.7588 271.902 82.5354 270.784 82.5354C270.132 82.5354 269.324 82.2248 268.361 81.6034C268.268 81.5413 268.081 81.386 267.802 81.1374C267.553 80.8889 267.32 80.687 267.103 80.5317C266.45 80.1278 265.611 79.9259 264.586 79.9259C263.592 79.9259 262.753 80.1744 262.07 80.6715C261.418 81.1374 261.091 81.8054 261.091 82.6752C261.091 83.514 261.48 84.1975 262.256 84.7256C263.064 85.2537 264.058 85.611 265.239 85.7974C266.419 85.9838 267.708 86.2789 269.106 86.6827C270.504 87.0555 271.794 87.5215 272.974 88.0807C274.155 88.6399 275.133 89.6185 275.91 91.0165C276.718 92.3834 277.121 94.0765 277.121 96.0958C277.121 98.1151 276.718 99.9014 275.91 101.455C275.102 102.977 274.046 104.157 272.741 104.996C270.225 106.643 267.538 107.466 264.68 107.466C263.219 107.466 261.837 107.295 260.532 106.953C259.227 106.581 258.171 106.13 257.363 105.602C255.717 104.608 254.567 103.645 253.915 102.713L253.496 102.2ZM280.663 102.2C279.856 101.206 279.452 100.321 279.452 99.5441C279.452 98.7364 280.12 97.6802 281.456 96.3754C282.232 95.6298 283.055 95.257 283.925 95.257C284.795 95.257 286.007 96.0337 287.56 97.587C287.995 98.1151 288.616 98.6277 289.424 99.1247C290.232 99.5907 290.977 99.8237 291.661 99.8237C294.55 99.8237 295.995 98.6432 295.995 96.2822C295.995 95.5677 295.591 94.9774 294.783 94.5114C294.006 94.0144 293.028 93.6571 291.847 93.4396C290.667 93.2222 289.393 92.8804 288.026 92.4144C286.659 91.9174 285.385 91.3427 284.205 90.6903C283.024 90.0379 282.03 89.0127 281.223 87.6147C280.446 86.1857 280.058 84.4771 280.058 82.4888C280.058 79.755 281.067 77.3784 283.087 75.3591C285.137 73.3088 287.917 72.2836 291.428 72.2836C293.292 72.2836 294.985 72.5321 296.507 73.0292C298.06 73.4952 299.132 73.9767 299.722 74.4738L300.887 75.3591C301.851 76.2601 302.332 77.0212 302.332 77.6425C302.332 78.2638 301.959 79.1181 301.214 80.2055C300.157 81.7588 299.07 82.5354 297.952 82.5354C297.299 82.5354 296.492 82.2248 295.529 81.6034C295.435 81.5413 295.249 81.386 294.969 81.1374C294.721 80.8889 294.488 80.687 294.27 80.5317C293.618 80.1278 292.779 79.9259 291.754 79.9259C290.76 79.9259 289.921 80.1744 289.238 80.6715C288.585 81.1374 288.259 81.8054 288.259 82.6752C288.259 83.514 288.647 84.1975 289.424 84.7256C290.232 85.2537 291.226 85.611 292.406 85.7974C293.587 85.9838 294.876 86.2789 296.274 86.6827C297.672 87.0555 298.961 87.5215 300.142 88.0807C301.322 88.6399 302.301 89.6185 303.078 91.0165C303.885 92.3834 304.289 94.0765 304.289 96.0958C304.289 98.1151 303.885 99.9014 303.078 101.455C302.27 102.977 301.214 104.157 299.909 104.996C297.393 106.643 294.705 107.466 291.847 107.466C290.387 107.466 289.005 107.295 287.7 106.953C286.395 106.581 285.339 106.13 284.531 105.602C282.885 104.608 281.735 103.645 281.083 102.713L280.663 102.2ZM315.567 100.103H328.242C329.267 100.103 330.012 100.228 330.478 100.476C330.944 100.694 331.255 101.051 331.41 101.548C331.566 102.045 331.643 102.713 331.643 103.552C331.643 104.359 331.566 105.012 331.41 105.509C331.255 106.006 330.991 106.348 330.618 106.534C330.028 106.845 329.22 107 328.195 107H311.419C309.245 107 307.971 106.41 307.598 105.229C307.412 104.732 307.319 103.94 307.319 102.853V76.9435C307.319 76.229 307.334 75.7009 307.365 75.3591C307.427 74.9863 307.583 74.567 307.831 74.101C308.266 73.2622 309.478 72.8428 311.466 72.8428C313.64 72.8428 314.93 73.4175 315.334 74.567C315.489 75.0951 315.567 75.9028 315.567 76.9901V100.103Z" fill="white"/>
<path d="M19.2418 218.001L23.8037 220.054C23.8037 220.054 25.3123 223.585 26.0165 224.401C26.7206 225.215 27.9521 227.067 27.1603 229.484C26.3686 231.901 24.5214 236.475 24.5214 236.475C24.5214 236.475 21.3959 231.642 21.0673 229.484C20.7387 227.327 20.7387 225.655 20.0354 223.983C19.3303 222.311 19.2418 218.001 19.2418 218.001Z" fill="#FEB8A6"/>
<path d="M23.5941 148.79C19.4701 151.766 7.11519 177.703 2.38179 188.852C1.45913 191.025 1.14405 197.203 2.67791 200.464C7.2786 210.247 17.65 225.832 17.65 225.832C17.65 225.832 21.7027 224.082 23.8035 220.053L15.1637 196.426C15.1637 196.426 30.3028 179.757 33.6594 172.225C38.9544 160.343 23.5941 148.79 23.5941 148.79Z" fill="#A535C5"/>
<path d="M108.22 121.866C108.22 121.866 110.423 116.548 110.931 115.484C111.439 114.419 114.188 110.898 115.11 110.336C116.033 109.773 118.184 109.327 118.297 109.593C118.41 109.86 119.457 110.398 119.854 111.227C120.282 112.122 120.21 112.799 121.101 114.768C121.683 116.052 120.337 117.934 119.207 119.319C118.078 120.704 117.607 121.38 115.97 122.16C114.333 122.94 112.733 124.763 112.601 125.048L108.22 121.866Z" fill="#FEB8A6"/>
<path d="M22.6786 348.291V355.362H32.4749C32.4749 355.362 32.3043 352.566 29.3133 351.622L29.2645 348.291H22.6786Z" fill="white"/>
<path d="M56.5717 348.291V355.362H65.6177C65.6177 355.362 64.826 352.576 62.281 351.827L62.2584 348.291H56.5717Z" fill="white"/>
<path d="M27.5303 213.048C27.5303 213.048 22.5387 235.532 22.4521 259.687C22.3654 283.843 22.1162 348.272 22.1162 348.272H30.821C30.821 348.272 40.6002 286.258 44.2566 270.73C47.9129 255.201 53.2169 209.77 53.2169 209.77L27.5303 213.048Z" fill="#1B1425"/>
<path d="M43.9829 237.721C43.9829 237.721 47.9119 274.526 48.2775 281.772C48.6432 289.019 55.277 348.236 55.277 348.236C55.277 348.236 63.367 348.484 63.367 348.236C63.367 347.989 66.1756 285.393 67.2924 267.536C68.4101 249.68 65.921 232.074 65.9463 229.194C65.996 223.553 60.8942 209.597 60.8942 209.597L50.0579 213.048L43.9829 237.721Z" fill="#1B1425"/>
<path d="M47.2854 107.864C49.3366 108.398 50.9156 111.109 50.9156 111.109C50.9156 111.109 52.5731 114.232 53.7432 116.634C54.9132 119.034 57.6469 120.377 57.5837 121.121C57.5214 121.866 56.0607 122.313 56.345 123.243C56.6294 124.172 57.0501 126.973 57.6153 128.821C58.1804 130.668 56.4028 131.502 54.7173 132.163C53.0318 132.824 50.8966 133.912 50.7413 134.831C50.587 135.75 52.5379 144.073 52.5379 144.073L30.4572 146.274C30.4572 146.274 38.3874 142.44 38.3747 141.81C38.3458 140.283 38.1734 137.308 37.3383 134.82C36.1584 131.304 34.7265 127.096 34.7265 127.096C34.7265 127.096 33.1683 119.151 37.0142 114.635C40.8602 110.12 47.2854 107.864 47.2854 107.864Z" fill="#FEB8A6"/>
<path d="M45.0511 112.903C45.3355 112.78 49.056 111.503 50.8589 110.125C52.6618 108.748 52.5489 107.271 51.8809 106.749C50.5456 105.705 47.1556 106.016 42.777 105.467C38.3984 104.918 31.0947 107.151 30.237 113.367C30.237 113.367 25.9334 116.862 26.8452 120.794C27.757 124.725 29.0336 125.981 31.6716 128.03C34.3394 130.102 37.3376 134.82 37.3376 134.82C37.3376 134.82 39.6849 134.292 41.9013 133.468C44.1177 132.645 45.2272 128.676 45.6696 126.798C45.6696 126.798 41.6196 125.278 41.6909 122.497C41.7622 119.717 45.0168 120.414 46.2103 120.97C47.1556 121.41 48.6976 123.404 48.6976 123.404L50.1989 123.09C50.1989 123.09 48.7066 121.184 48.1866 119.246C47.9844 118.493 48.0683 116.232 47.8363 115.604C47.0048 113.361 45.0511 112.903 45.0511 112.903Z" fill="black"/>
<path d="M34.9604 143.759C34.9604 143.759 37.1217 144.631 41.3585 144.073C48.7326 143.102 51.0149 141.819 51.0149 141.819L66.5242 142.09C66.5242 142.09 66.2064 163.706 66.5088 172.592C66.8113 181.479 67.7953 220.59 68.0987 223.553C68.0987 223.553 64.2807 229.998 44.5788 229.45C33.1331 229.131 24.8751 225.826 24.8751 225.826C24.8751 225.826 22.4665 191.847 22.0963 184.071C21.7262 176.295 20.9678 152.373 23.595 148.79C24.9519 146.937 34.9604 143.759 34.9604 143.759Z" fill="#A535C5"/>
<path d="M61.343 142.038C61.343 142.038 50.4525 159.221 63.6406 159.694C76.0253 160.137 93.6272 155.613 93.6272 155.613L114.785 127.966C114.785 127.966 110.911 120.654 108.268 120.599L87.9242 141.156C87.9242 141.156 78.4863 142.355 61.343 142.038Z" fill="#A535C5"/>
<path d="M115.417 111.189C115.729 110.916 115.11 110.337 115.11 110.337C115.11 110.337 117.246 108.66 118.92 107.337C120.593 106.014 121.994 104.224 122.928 103.835C123.861 103.445 124.095 104.185 123.861 104.729C123.627 105.274 119.637 109.28 119.192 110.293C118.747 111.306 119.192 113.445 119.192 113.445L116.04 112.394L115.417 111.189Z" fill="#FEB8A6"/>
<path d="M261.694 225.386H258.858V217.887C258.858 209.508 252.041 202.691 243.661 202.691C235.282 202.691 228.464 209.508 228.464 217.887V225.386H225.15C223.072 225.386 221.386 227.071 221.386 229.15V240.905C221.386 253.074 231.252 262.94 243.422 262.94C255.592 262.94 265.458 253.074 265.458 240.905V229.15C265.458 227.072 263.773 225.386 261.694 225.386ZM233.303 217.887C233.303 212.176 237.949 207.528 243.661 207.528C249.373 207.528 254.019 212.175 254.019 217.887V225.386H233.303V217.887H233.303ZM245.834 243.367V250.398C245.834 251.566 244.888 252.512 243.721 252.512H243.124C241.957 252.512 241.011 251.566 241.011 250.398V243.367C239.113 242.407 237.86 240.358 238.09 238.038C238.336 235.557 240.333 233.533 242.81 233.259C246.045 232.9 248.783 235.423 248.783 238.585C248.783 240.676 247.581 242.484 245.834 243.367Z" fill="white"/>
<path d="M220.549 47.4163H158.583C155.171 47.4163 152.405 44.6502 152.405 41.2385V12.2946C152.405 8.88288 155.171 6.1167 158.583 6.1167H220.549C223.96 6.1167 226.727 8.88288 226.727 12.2946V41.2394C226.727 44.6502 223.96 47.4163 220.549 47.4163Z" fill="url(#paint10_linear_1261_310)"/>
<path d="M188.661 20.5568H164.906C163.912 20.5568 163.107 19.7515 163.107 18.7575C163.107 17.7636 163.912 16.9583 164.906 16.9583H188.661C189.655 16.9583 190.46 17.7636 190.46 18.7575C190.46 19.7515 189.655 20.5568 188.661 20.5568Z" fill="white"/>
<path d="M212.712 26.6852H163.754C163.397 26.6852 163.107 26.3954 163.107 26.0379C163.107 25.6804 163.397 25.3906 163.754 25.3906H212.712C213.07 25.3906 213.36 25.6804 213.36 26.0379C213.36 26.3954 213.07 26.6852 212.712 26.6852Z" fill="white"/>
<path d="M212.712 31.0261H163.754C163.397 31.0261 163.107 30.7363 163.107 30.3788C163.107 30.0212 163.397 29.7314 163.754 29.7314H212.712C213.07 29.7314 213.36 30.0212 213.36 30.3788C213.36 30.7363 213.07 31.0261 212.712 31.0261Z" fill="white"/>
<path d="M192.263 35.3664H163.603C163.329 35.3664 163.106 35.1434 163.106 34.869V34.5692C163.106 34.2948 163.329 34.0718 163.603 34.0718H192.263C192.537 34.0718 192.76 34.2948 192.76 34.5692V34.869C192.76 35.1434 192.538 35.3664 192.263 35.3664Z" fill="white"/>
<path d="M236.499 16.9587H237.779" stroke="white" stroke-width="0.9921" stroke-linecap="round" stroke-linejoin="round"/>
<path d="M242.938 16.9587H325.486" stroke="white" stroke-width="0.9921" stroke-linecap="round" stroke-linejoin="round" stroke-dasharray="2.86 5.71"/>
<path d="M328.066 16.9587H329.346" stroke="white" stroke-width="0.9921" stroke-linecap="round" stroke-linejoin="round"/>
<defs>
<linearGradient id="paint0_linear_1261_310" x1="328.633" y1="7.41787" x2="355.38" y2="45.3998" gradientUnits="userSpaceOnUse">
<stop stop-color="#F57A00"/>
<stop offset="1" stop-color="#7103A4"/>
</linearGradient>
<linearGradient id="paint1_linear_1261_310" x1="84.7952" y1="30.6092" x2="141.542" y2="124.177" gradientUnits="userSpaceOnUse">
<stop stop-color="#F57A00"/>
<stop offset="1" stop-color="#7103A4"/>
</linearGradient>
<linearGradient id="paint2_linear_1261_310" x1="84.7943" y1="17.5615" x2="87.1599" y2="39.7789" gradientUnits="userSpaceOnUse">
<stop stop-color="#F57A00"/>
<stop offset="1" stop-color="#7103A4"/>
</linearGradient>
<linearGradient id="paint3_linear_1261_310" x1="182.576" y1="330.768" x2="192.689" y2="367.59" gradientUnits="userSpaceOnUse">
<stop stop-color="#F57A00"/>
<stop offset="1" stop-color="#7103A4"/>
</linearGradient>
<linearGradient id="paint4_linear_1261_310" x1="159.609" y1="330.768" x2="168.242" y2="368.385" gradientUnits="userSpaceOnUse">
<stop stop-color="#F57A00"/>
<stop offset="1" stop-color="#7103A4"/>
</linearGradient>
<linearGradient id="paint5_linear_1261_310" x1="114.434" y1="173.11" x2="227.865" y2="355.609" gradientUnits="userSpaceOnUse">
<stop stop-color="#F57A00"/>
<stop offset="1" stop-color="#7103A4"/>
</linearGradient>
<linearGradient id="paint6_linear_1261_310" x1="113.778" y1="172.935" x2="226.877" y2="353.789" gradientUnits="userSpaceOnUse">
<stop stop-color="#F57A00"/>
<stop offset="1" stop-color="#7103A4"/>
</linearGradient>
<linearGradient id="paint7_linear_1261_310" x1="113.714" y1="300.18" x2="119.272" y2="347.079" gradientUnits="userSpaceOnUse">
<stop stop-color="#F57A00"/>
<stop offset="1" stop-color="#7103A4"/>
</linearGradient>
<linearGradient id="paint8_linear_1261_310" x1="185.107" y1="204.406" x2="230.326" y2="295.62" gradientUnits="userSpaceOnUse">
<stop stop-color="#F57A00"/>
<stop offset="1" stop-color="#7103A4"/>
</linearGradient>
<linearGradient id="paint9_linear_1261_310" x1="242.606" y1="56.3803" x2="335.046" y2="148.668" gradientUnits="userSpaceOnUse">
<stop stop-color="#F57A00"/>
<stop offset="1" stop-color="#7103A4"/>
</linearGradient>
<linearGradient id="paint10_linear_1261_310" x1="160.055" y1="12.9504" x2="181.514" y2="57.9892" gradientUnits="userSpaceOnUse">
<stop stop-color="#F57A00"/>
<stop offset="1" stop-color="#7103A4"/>
</linearGradient>
</defs>
</svg>
