<svg width="80" height="91" viewBox="0 0 80 91" fill="none" xmlns="http://www.w3.org/2000/svg">
<path d="M76.7447 34.7273L71.1325 33.8835C70.326 30.1842 68.8836 26.7034 66.834 23.511L70.2072 18.9442C71.2907 17.4772 71.1413 15.4764 69.8516 14.1867L66.4733 10.8084C65.1836 9.51885 63.183 9.36908 61.7157 10.4529L57.1489 13.8262C53.9568 11.7766 50.4756 10.3339 46.7766 9.52764L45.933 3.91529C45.662 2.11178 44.1413 0.802734 42.3174 0.802734H37.5398C35.7159 0.802734 34.1954 2.11178 33.9246 3.91529L33.0808 9.52764C29.3817 10.3339 25.9007 11.7766 22.7083 13.8262L18.1415 10.4529C16.6746 9.36926 14.6739 9.51902 13.384 10.8084L10.0058 14.1867C8.71611 15.4764 8.56652 17.4772 9.65022 18.9442L13.0235 23.511C10.9738 26.7034 9.53121 30.1844 8.7249 33.8835L3.11256 34.7273C1.30904 34.9982 0 36.5188 0 38.3426V43.12C0 44.9437 1.30904 46.4642 3.11256 46.7354L8.7249 47.579C9.53121 51.278 10.9737 54.759 13.0235 57.9515L9.65022 62.5183C8.56652 63.9854 8.71611 65.9863 10.0058 67.2758L13.384 70.6542C14.6739 71.9437 16.6744 72.0933 18.1415 71.0096L22.7087 67.6362C24.041 68.49 25.4349 69.2437 26.8789 69.8909C26.6844 70.1866 26.484 70.4783 26.2779 70.766C25.5304 71.8054 25.1293 73.054 25.1316 74.3343V76.0097C23.3191 76.5499 21.9934 78.2309 21.9934 80.2165C21.9934 80.8792 22.143 81.5071 22.407 82.071C20.4318 82.5117 18.9505 84.2772 18.9505 86.3832V89.4816C18.9505 89.8319 19.0897 90.1679 19.3374 90.4156C19.5851 90.6633 19.9211 90.8025 20.2714 90.8026H59.5858C59.9361 90.8025 60.2721 90.6633 60.5198 90.4156C60.7676 90.1679 60.9068 89.8319 60.9068 89.4816V86.3832C60.9068 84.277 59.4253 82.5115 57.4499 82.0708C57.7225 81.4906 57.8638 80.8575 57.8637 80.2165C57.8637 78.2309 56.5381 76.5499 54.7256 76.0097V74.3343C54.728 73.054 54.3269 71.8054 53.5794 70.766C53.3733 70.4782 53.173 70.1864 52.9784 69.8907C54.4225 69.2437 55.8164 68.49 57.1486 67.636L61.7156 71.0094C62.3712 71.4937 63.1334 71.7319 63.8912 71.7317C64.8288 71.7317 65.7598 71.3671 66.4731 70.6538L69.8514 67.2757C71.1411 65.9861 71.2906 63.9854 70.207 62.5181L66.8338 57.9513C68.8834 54.759 70.3259 51.2781 71.1323 47.5788L76.7447 46.7353C78.5482 46.464 79.8572 44.9435 79.8572 43.1198V38.3426C79.8572 36.5187 78.5482 34.9982 76.7447 34.7273ZM58.265 86.3834V88.1609H21.5924V86.3834C21.5924 85.4034 22.3898 84.6061 23.3698 84.6061H56.4873C57.4675 84.6061 58.265 85.4034 58.265 86.3834ZM55.2219 80.2167C55.2219 81.1803 54.4379 81.9643 53.4744 81.9643H26.383C25.4194 81.9643 24.6354 81.1803 24.6354 80.2167C24.6354 79.253 25.4194 78.469 26.383 78.469H32.5236C32.8702 78.4634 33.2007 78.3217 33.4438 78.0746C33.6869 77.8275 33.8232 77.4947 33.8232 77.148C33.8232 76.8014 33.6869 76.4686 33.4438 76.2215C33.2007 75.9744 32.8702 75.8327 32.5236 75.827H27.7736V74.3343C27.7736 73.6018 27.9991 72.8999 28.4256 72.3046C31.9808 67.3414 33.86 61.4909 33.86 55.3856V53.7386H45.997V55.3856C45.997 61.4909 47.8763 67.3414 51.4315 72.3046C51.8567 72.8958 52.0848 73.606 52.0835 74.3343V75.827H37.807C37.4604 75.8327 37.1299 75.9744 36.8868 76.2215C36.6437 76.4686 36.5074 76.8014 36.5074 77.148C36.5074 77.4947 36.6437 77.8275 36.8868 78.0746C37.1299 78.3217 37.4604 78.4634 37.807 78.469H53.4741C54.4379 78.469 55.2219 79.253 55.2219 80.2167ZM39.9282 39.8503H29.4799C28.5391 39.8503 27.7738 39.0849 27.7738 38.1441V30.5484C27.7738 30.5317 27.7875 30.518 27.8044 30.518H31.188C31.2049 30.518 31.2186 30.5317 31.2186 30.5484V33.4801C31.2186 34.8762 32.3543 36.0119 33.7504 36.0119H35.4973C36.8933 36.0119 38.029 34.8762 38.029 33.4801V30.5484C38.029 30.5317 38.0428 30.518 38.0596 30.518H41.7981C41.815 30.518 41.8287 30.5317 41.8287 30.5484V33.4801C41.8287 34.8762 42.9645 36.0119 44.3605 36.0119H46.1074C47.5035 36.0119 48.6392 34.8762 48.6392 33.4801V30.5484C48.6392 30.5317 48.6529 30.518 48.6698 30.518H52.0534C52.0701 30.518 52.0838 30.5317 52.0838 30.5484V38.1441C52.0838 39.0849 51.3185 39.8503 50.3777 39.8503H45.2118C44.8652 39.8559 44.5347 39.9976 44.2916 40.2447C44.0485 40.4918 43.9122 40.8246 43.9122 41.1712C43.9122 41.5179 44.0485 41.8507 44.2916 42.0978C44.5347 42.3449 44.8652 42.4866 45.2118 42.4922H47.8083C48.7963 42.4922 49.6002 43.2961 49.6002 44.2842C49.6002 45.2722 48.7963 46.0761 47.8083 46.0761H32.0491C31.0611 46.0761 30.2572 45.2722 30.2572 44.2842C30.2572 43.2961 31.0611 42.4922 32.0491 42.4922H39.928C40.2784 42.4923 40.6144 42.3531 40.8621 42.1054C41.1099 41.8577 41.2491 41.5217 41.2491 41.1713C41.2491 40.821 41.11 40.485 40.8622 40.2372C40.6145 39.9895 40.2785 39.8503 39.9282 39.8503ZM45.9972 48.7179V51.0967H33.8602V48.7179H45.9972ZM77.2154 43.1201C77.2167 43.3633 77.13 43.5988 76.9713 43.7831C76.8126 43.9675 76.5927 44.0882 76.352 44.1231L69.8254 45.1042C69.5541 45.145 69.3023 45.2693 69.1048 45.4597C68.9074 45.6502 68.7741 45.8973 68.7234 46.167C67.9748 50.1586 66.4298 53.8866 64.1319 57.2473C63.977 57.4737 63.8965 57.7427 63.9015 58.017C63.9065 58.2912 63.9968 58.5571 64.1598 58.7777L68.0824 64.088C68.2279 64.2829 68.2981 64.5238 68.28 64.7664C68.2619 65.0089 68.1567 65.2367 67.9837 65.4078L64.6054 68.7861C64.4343 68.959 64.2065 69.0642 63.964 69.0823C63.7214 69.1004 63.4805 69.0303 63.2856 68.8848L57.9753 64.9622C57.7546 64.7992 57.4887 64.709 57.2145 64.704C56.9402 64.699 56.6712 64.7795 56.4448 64.9342C54.9265 65.971 53.3138 66.8624 51.6282 67.5964C50.9104 66.2249 50.3157 64.7924 49.851 63.3158C53.9856 61.5004 57.5269 58.6022 60.1413 54.8729C63.0555 50.7156 64.5959 45.8256 64.5959 40.7313C64.5959 27.1298 53.5303 16.0642 39.9289 16.0642C37.3688 16.0642 34.8449 16.455 32.4278 17.2258C32.0976 17.3351 31.8239 17.5702 31.666 17.8801C31.5081 18.1901 31.4788 18.5497 31.5844 18.8811C31.69 19.2125 31.9221 19.4888 32.2302 19.6501C32.5384 19.8115 32.8977 19.8448 33.2302 19.7428C35.3876 19.055 37.6413 18.7061 39.9287 18.7061C52.0734 18.7061 61.9539 28.5865 61.9539 40.7313C61.9539 45.2801 60.579 49.6458 57.9779 53.3564C55.7253 56.5699 52.7036 59.0929 49.1792 60.7225C48.8194 58.9664 48.6385 57.1783 48.6392 55.3856V53.7386H49.6136C49.9602 53.7329 50.2907 53.5912 50.5338 53.3441C50.7769 53.097 50.9132 52.7642 50.9132 52.4176C50.9132 52.0709 50.7769 51.7381 50.5338 51.491C50.2907 51.2439 49.9602 51.1022 49.6136 51.0966H48.6392V48.6386C50.6881 48.2484 52.2422 46.4449 52.2422 44.284C52.2425 43.5825 52.0752 42.8911 51.7542 42.2674C53.4788 41.6902 54.7258 40.0605 54.7258 38.1439V30.5484C54.7258 29.0749 53.527 27.876 52.0534 27.876H48.6698C47.1962 27.876 45.9974 29.0749 45.9974 30.5484V33.3699H44.4706V30.5484C44.4706 29.0749 43.2717 27.876 41.7981 27.876H38.0596C36.5861 27.876 35.3872 29.0749 35.3872 30.5484V33.3699H33.8604V30.5484C33.8604 29.0749 32.6616 27.876 31.188 27.876H27.8044C26.3308 27.876 25.132 29.0749 25.132 30.5484V38.1441C25.132 40.0605 26.3788 41.6903 28.1034 42.2676C27.7825 42.8913 27.6152 43.5827 27.6156 44.2842C27.6156 46.445 29.1697 48.2486 31.2186 48.6388V51.0967H30.2442C29.8976 51.1024 29.5671 51.2441 29.324 51.4912C29.0809 51.7383 28.9446 52.0711 28.9446 52.4177C28.9446 52.7644 29.0809 53.0972 29.324 53.3443C29.5671 53.5914 29.8976 53.7331 30.2442 53.7387H31.2186V55.3858C31.2186 57.1962 31.0356 58.9816 30.6786 60.7227C27.1542 59.0928 24.1325 56.5699 21.8798 53.3566C19.2786 49.646 17.9039 45.2803 17.9039 40.7314C17.9039 36.8428 18.9304 33.0212 20.873 29.6797C22.7655 26.4286 25.4544 23.7127 28.6864 21.7877C28.9875 21.6086 29.2052 21.3172 29.2914 20.9777C29.3777 20.6381 29.3256 20.2782 29.1465 19.9771C28.9674 19.676 28.676 19.4584 28.3365 19.3721C27.9969 19.2859 27.637 19.338 27.3359 19.5171C23.7178 21.6721 20.7077 24.7125 18.589 28.3521C16.4125 32.0964 15.262 36.3772 15.262 40.7316C15.262 45.8259 16.8024 50.716 19.7167 54.8732C22.3311 58.6026 25.8724 61.5007 30.0069 63.3162C29.5422 64.7928 28.9475 66.2253 28.2298 67.5968C26.5441 66.8627 24.9314 65.9713 23.413 64.9346C23.1866 64.7798 22.9176 64.6993 22.6434 64.7043C22.3691 64.7093 22.1033 64.7996 21.8827 64.9625L16.5721 68.8851C16.3773 69.0307 16.1364 69.1008 15.8939 69.0827C15.6514 69.0646 15.4236 68.9594 15.2525 68.7865L11.8744 65.4081C11.7015 65.2371 11.5963 65.0093 11.5782 64.7668C11.5601 64.5243 11.6302 64.2834 11.7758 64.0886L15.6983 58.7782C15.8613 58.5576 15.9515 58.2916 15.9565 58.0174C15.9615 57.7431 15.8809 57.4741 15.7261 57.2477C13.4279 53.8866 11.883 50.1586 11.1345 46.1673C11.0839 45.8977 10.9506 45.6505 10.7531 45.4601C10.5557 45.2696 10.3038 45.1454 10.0325 45.1045L3.50596 44.1235C3.26527 44.0886 3.04532 43.9678 2.88664 43.7835C2.72797 43.5992 2.64127 43.3637 2.64252 43.1205V38.3426C2.64128 38.0994 2.72798 37.8639 2.88666 37.6797C3.04534 37.4954 3.26528 37.3746 3.50596 37.3397L10.0327 36.3585C10.304 36.3178 10.5559 36.1935 10.7534 36.0031C10.9509 35.8126 11.0841 35.5654 11.1347 35.2958C11.8833 31.3043 13.4281 27.5763 15.7263 24.2154C15.8811 23.989 15.9616 23.7199 15.9566 23.4457C15.9516 23.1714 15.8614 22.9055 15.6985 22.6849L11.7752 17.3745C11.6297 17.1796 11.5595 16.9387 11.5777 16.6962C11.5958 16.4536 11.701 16.2258 11.8738 16.0547L15.252 12.6766C15.4231 12.5037 15.6509 12.3985 15.8934 12.3803C16.136 12.3622 16.3769 12.4324 16.5718 12.578L21.8821 16.5005C22.1028 16.6635 22.3686 16.7537 22.6428 16.7587C22.9171 16.7637 23.1861 16.6833 23.4125 16.5285C26.7734 14.2303 30.5016 12.6854 34.4929 11.9369C34.7625 11.8863 35.0097 11.753 35.2002 11.5556C35.3906 11.3581 35.5148 11.1062 35.5556 10.8349L36.5368 4.30816C36.5717 4.06749 36.6925 3.84754 36.8767 3.68887C37.061 3.53019 37.2965 3.44348 37.5397 3.44473H42.3172C42.5604 3.44348 42.7959 3.53018 42.9802 3.68885C43.1645 3.84752 43.2853 4.06747 43.3202 4.30816L44.3013 10.8349C44.3421 11.1062 44.4664 11.358 44.6568 11.5555C44.8472 11.753 45.0944 11.8863 45.364 11.9369C49.3557 12.6855 53.0837 14.2303 56.4446 16.5285C56.671 16.6833 56.9401 16.7638 57.2143 16.7588C57.4886 16.7538 57.7545 16.6635 57.9751 16.5005L63.2855 12.578C63.4803 12.4324 63.7213 12.3623 63.9638 12.3804C64.2063 12.3985 64.4342 12.5037 64.6052 12.6766L67.9836 16.0549C68.1565 16.226 68.2617 16.4538 68.2798 16.6964C68.2979 16.9389 68.2277 17.1798 68.0822 17.3747L64.1596 22.6852C63.9967 22.9059 63.9065 23.1718 63.9014 23.446C63.8964 23.7203 63.9769 23.9893 64.1317 24.2157C66.4297 27.5765 67.9746 31.3045 68.7233 35.2961C68.7739 35.5657 68.9072 35.8129 69.1047 36.0034C69.3021 36.1938 69.554 36.3181 69.8252 36.3589L76.3518 37.3401C76.5925 37.375 76.8124 37.4957 76.9711 37.68C77.1298 37.8643 77.2165 38.0997 77.2153 38.3429V43.1201H77.2154Z" fill="#F57A00"/>
</svg>
