<svg width="89" height="89" viewBox="0 0 89 89" fill="none" xmlns="http://www.w3.org/2000/svg">
<path d="M38.4831 28.1137C38.4831 28.7214 37.9892 29.2153 37.3815 29.2153H1.10156C0.493867 29.2153 0 28.7214 0 28.1137C0 27.506 0.493867 27.0121 1.10156 27.0121H37.3815C37.9911 27.0121 38.4831 27.5042 38.4831 28.1137ZM1.10156 36.5682H19.2425C19.8502 36.5682 20.344 36.0743 20.344 35.4666C20.344 34.8589 19.8502 34.3651 19.2425 34.3651H1.10156C0.493867 34.3651 0 34.8589 0 35.4666C0 36.0743 0.493867 36.5682 1.10156 36.5682ZM37.3815 34.3651H25.951C25.3433 34.3651 24.8494 34.8589 24.8494 35.4666C24.8494 36.0743 25.3433 36.5682 25.951 36.5682H37.3815C37.9892 36.5682 38.4831 36.0743 38.4831 35.4666C38.4831 34.8589 37.9911 34.3651 37.3815 34.3651ZM37.3815 41.7198H1.10156C0.493867 41.7198 0 42.2137 0 42.8214C0 43.4291 0.493867 43.923 1.10156 43.923H37.3815C37.9892 43.923 38.4831 43.4291 38.4831 42.8214C38.4831 42.2137 37.9911 41.7198 37.3815 41.7198ZM32.2317 50.1743C32.2317 49.5666 31.7379 49.0728 31.1302 49.0728H1.10156C0.493867 49.0728 0 49.5666 0 50.1743C0 50.782 0.493867 51.2759 1.10156 51.2759H31.1302C31.7379 51.2759 32.2317 50.7839 32.2317 50.1743ZM50.0091 39.144C50.0091 39.7517 50.503 40.2456 51.1107 40.2456H87.3906C87.9983 40.2456 88.4922 39.7517 88.4922 39.144C88.4922 38.5363 87.9983 38.0425 87.3906 38.0425H51.1107C50.5011 38.0425 50.0091 38.5363 50.0091 39.144ZM51.1107 45.3972C50.503 45.3972 50.0091 45.8911 50.0091 46.4988C50.0091 47.1065 50.503 47.6003 51.1107 47.6003H62.5412C63.1489 47.6003 63.6428 47.1065 63.6428 46.4988C63.6428 45.8911 63.1489 45.3972 62.5412 45.3972H51.1107ZM87.3906 45.3972H69.2497C68.642 45.3972 68.1482 45.8911 68.1482 46.4988C68.1482 47.1065 68.642 47.6003 69.2497 47.6003H87.3906C87.9983 47.6003 88.4922 47.1065 88.4922 46.4988C88.4922 45.8911 87.9983 45.3972 87.3906 45.3972ZM87.3906 52.7502H51.1107C50.503 52.7502 50.0091 53.244 50.0091 53.8517C50.0091 54.4594 50.503 54.9533 51.1107 54.9533H87.3906C87.9983 54.9533 88.4922 54.4594 88.4922 53.8517C88.4922 53.244 87.9983 52.7502 87.3906 52.7502ZM87.3906 60.1049H58.9024C58.2947 60.1049 57.8008 60.5988 57.8008 61.2065C57.8008 61.8142 58.2947 62.308 58.9024 62.308H87.3906C87.9983 62.308 88.4922 61.8142 88.4922 61.2065C88.4922 60.5988 87.9983 60.1049 87.3906 60.1049ZM35.5952 78.7544V87.1868C35.5952 87.7945 35.1013 88.2884 34.4936 88.2884H7.51266C6.90496 88.2884 6.41109 87.7945 6.41109 87.1868V78.7544C6.41109 73.6193 10.4942 69.4205 15.5834 69.2314C13.6373 67.6506 12.3907 65.24 12.3907 62.543C12.3907 57.7935 16.2554 53.9288 21.0031 53.9288C25.7527 53.9288 29.6173 57.7935 29.6173 62.543C29.6173 65.24 28.3707 67.6506 26.4246 69.2314C31.512 69.4205 35.5952 73.6193 35.5952 78.7544ZM21.0031 68.9523C24.5373 68.9523 27.4142 66.0772 27.4142 62.5412C27.4142 59.0052 24.5391 56.1301 21.0031 56.1301C17.4689 56.1301 14.5939 59.0052 14.5939 62.5412C14.5939 66.0772 17.4671 68.9523 21.0031 68.9523ZM33.392 78.7544C33.392 74.7135 30.1039 71.4253 26.063 71.4253H15.9451C11.9042 71.4253 8.61605 74.7135 8.61605 78.7544V86.0853H33.3939V78.7544H33.392ZM54.7018 33.2562V24.8237C54.7018 19.6886 58.7849 15.4898 63.8741 15.3007C61.928 13.72 60.6814 11.3094 60.6814 8.61238C60.6814 3.86281 64.5461 0 69.2938 0C74.0415 0 77.9062 3.86465 77.9062 8.61238C77.9062 11.3094 76.6596 13.72 74.7135 15.3007C79.8027 15.4916 83.8858 19.6886 83.8858 24.8237V33.2562C83.8858 33.8639 83.392 34.3577 82.7843 34.3577H55.8033C55.1956 34.3577 54.7018 33.8639 54.7018 33.2562ZM69.2938 15.0216C72.828 15.0216 75.703 12.1466 75.703 8.61238C75.703 5.0782 72.828 2.20312 69.2938 2.20312C65.7596 2.20312 62.8845 5.0782 62.8845 8.61238C62.8845 12.1466 65.7596 15.0216 69.2938 15.0216ZM56.9049 32.1546H81.6827V24.8237C81.6827 20.7828 78.3945 17.4946 74.3518 17.4946H64.2339C60.193 17.4946 56.903 20.7828 56.903 24.8237V32.1546H56.9049ZM79.3364 69.705C79.2831 69.0992 78.7507 68.6494 78.143 68.7045L73.2613 69.1341C72.6554 69.1873 72.2074 69.7216 72.2607 70.3274C72.3139 70.9333 72.8482 71.3831 73.454 71.328L75.6535 71.1334C65.1482 82.9844 53.8701 87.3337 40.3062 84.8056C39.7095 84.6936 39.133 85.0884 39.021 85.6869C38.909 86.2854 39.3037 86.86 39.9023 86.972C42.546 87.4659 45.1072 87.7138 47.593 87.7138C58.6876 87.7138 68.3207 82.7641 77.3737 72.514L77.5739 74.7814C77.6234 75.3542 78.1045 75.7857 78.6699 75.7857C78.703 75.7857 78.7342 75.7838 78.7672 75.782C79.3731 75.7287 79.8211 75.1945 79.7678 74.5886L79.3364 69.705ZM11.75 21.2473C11.7996 21.8201 12.2806 22.2516 12.8461 22.2516C12.8791 22.2516 12.9103 22.2497 12.9434 22.2479L17.8251 21.8183C18.431 21.765 18.8789 21.2308 18.8257 20.6249C18.7725 20.0191 18.24 19.5693 17.6323 19.6243L15.4329 19.8189C25.9363 7.96797 37.2181 3.61863 50.782 6.14672C51.3787 6.25871 51.9552 5.86398 52.0672 5.26547C52.0938 5.12322 52.092 4.97712 52.0621 4.83554C52.0322 4.69396 51.9747 4.55965 51.8928 4.44031C51.811 4.32096 51.7064 4.21891 51.5851 4.13998C51.4639 4.06105 51.3282 4.0068 51.1859 3.98031C36.75 1.28883 24.7943 5.88785 13.7145 18.4365L13.5143 16.1728C13.4611 15.5669 12.9268 15.1171 12.321 15.1722C11.7151 15.2254 11.2671 15.7597 11.3204 16.3655L11.75 21.2473Z" fill="#F57A00"/>
</svg>
