<svg width="76" height="88" viewBox="0 0 76 88" fill="none" xmlns="http://www.w3.org/2000/svg">
<path d="M38.4344 87.4902H37.4014C36.4382 87.4908 35.4828 87.3179 34.5809 86.9799C24.6255 83.2553 16.6261 77.2191 10.8047 69.0388C6.23326 62.6149 3.06259 54.9357 1.38091 46.2146C-1.39292 31.8296 0.853233 19.3603 0.950217 18.8366C1.44686 16.1549 3.24569 13.9263 5.76212 12.8749L34.8149 0.73736C35.803 0.324531 36.847 0.115234 37.9179 0.115234C38.9888 0.115234 40.0327 0.324531 41.0208 0.737313L70.0736 12.8749C72.5901 13.9263 74.3889 16.1549 74.8854 18.8365C74.9824 19.3604 77.2283 31.8311 74.4548 46.2145C72.773 54.9357 69.6024 62.6148 65.031 69.0387C59.2096 77.2191 51.2101 83.2553 41.2548 86.9798C40.353 87.3179 39.3975 87.4908 38.4344 87.4902ZM37.9179 3.11523C37.2495 3.11455 36.5878 3.24721 35.9714 3.50547L6.91858 15.643C5.34001 16.3025 4.21159 17.7006 3.90006 19.3828C3.80729 19.8837 1.65892 31.812 4.32662 45.6465C5.92642 53.9429 8.92834 61.2279 13.249 67.2993C18.7169 74.983 26.2476 80.6591 35.632 84.1701C36.1978 84.3821 36.7971 84.4905 37.4013 84.4902H38.4343C39.0405 84.4902 39.6358 84.3825 40.2037 84.17C49.588 80.6591 57.1187 74.983 62.5867 67.2993C66.9074 61.228 69.9092 53.9429 71.5091 45.6465C74.1765 31.8134 72.0283 19.8837 71.9356 19.3826C71.6241 17.7006 70.4957 16.3025 68.9171 15.643L39.8643 3.50542C39.2479 3.2472 38.5862 3.11455 37.9179 3.11523Z" fill="#F57A00"/>
<path d="M38.4344 80.9406H37.4014C37.2219 80.9406 37.0439 80.9084 36.8758 80.8455C28.1669 77.5873 21.1907 72.3373 16.1409 65.2413C12.1171 59.5868 9.31476 52.7681 7.8119 44.9743C6.48323 38.084 6.4371 31.6844 6.63234 27.5292C6.84454 23.0141 7.36799 20.1487 7.39017 20.029C7.43554 19.7839 7.54129 19.554 7.69785 19.36C7.85441 19.166 8.05684 19.0142 8.28684 18.9181L37.3396 6.7805C37.5228 6.70396 37.7193 6.66455 37.9178 6.66455C38.1163 6.66455 38.3129 6.70396 38.496 6.7805L67.5488 18.9181C67.7788 19.0142 67.9812 19.1661 68.1378 19.36C68.2943 19.554 68.4001 19.7839 68.4455 20.029C68.4677 20.1488 68.9911 23.0141 69.2033 27.5292C69.3986 31.6844 69.3525 38.0839 68.0238 44.9743C66.5209 52.7681 63.7186 59.5868 59.6947 65.2413C54.645 72.3373 47.6688 77.5873 38.9599 80.8455C38.7918 80.9084 38.6138 80.9406 38.4344 80.9406ZM37.6748 77.9406H38.1609C52.8056 72.3726 61.8606 61.0917 65.0781 44.4063C67.1413 33.7071 66.0239 24.1166 65.6211 21.364L37.9179 9.7902L10.2141 21.3641C10.0484 22.4909 9.76223 24.7608 9.62488 27.7608C9.44202 31.7546 9.49307 37.8996 10.7747 44.4942C14.008 61.1317 23.0571 72.3829 37.6748 77.9406Z" fill="#F57A00"/>
<path d="M45.1474 62.3708H30.6883C26.8054 62.3708 23.6463 59.2116 23.6463 55.3283V43.5786C23.6463 39.6954 26.8054 36.5361 30.6883 36.5361H45.1474C49.0304 36.5361 52.1894 39.6954 52.1894 43.5786V55.3283C52.1894 59.2116 49.0304 62.3708 45.1474 62.3708ZM30.6883 39.5361C28.4596 39.5361 26.6463 41.3496 26.6463 43.5786V55.3283C26.6463 57.5574 28.4596 59.3708 30.6883 59.3708H45.1474C47.3762 59.3708 49.1894 57.5573 49.1894 55.3283V43.5786C49.1894 41.3496 47.3761 39.5361 45.1474 39.5361H30.6883ZM37.9179 51.246C35.6263 51.246 33.7619 49.3817 33.7619 47.09C33.7619 44.7982 35.6263 42.9336 37.9179 42.9336C40.2095 42.9336 42.0738 44.7982 42.0738 47.09C42.0738 49.3817 40.2095 51.246 37.9179 51.246ZM37.9179 45.9336C37.2805 45.9336 36.7619 46.4524 36.7619 47.09C36.7619 47.7274 37.2805 48.246 37.9179 48.246C38.5552 48.246 39.0738 47.7274 39.0738 47.09C39.0738 46.4524 38.5553 45.9336 37.9179 45.9336Z" fill="#F57A00"/>
<path d="M47.2589 39.5365C46.4305 39.5365 45.7589 38.865 45.7589 38.0365V33.4421C45.7589 29.1185 42.2414 25.6011 37.9179 25.6011C33.5943 25.6011 30.0768 29.1186 30.0768 33.4421V38.0365C30.0768 38.865 29.4053 39.5365 28.5768 39.5365C27.7484 39.5365 27.0768 38.865 27.0768 38.0365V33.4421C27.0768 30.5463 28.2045 27.8239 30.2521 25.7763C32.2997 23.7287 35.0221 22.6011 37.9179 22.6011C40.8136 22.6011 43.536 23.7287 45.5836 25.7763C47.6313 27.8239 48.7589 30.5463 48.7589 33.4421V38.0365C48.7589 38.865 48.0873 39.5365 47.2589 39.5365ZM37.9179 55.7232C37.0894 55.7232 36.4179 55.0516 36.4179 54.2232V49.7462C36.4179 48.9177 37.0894 48.2462 37.9179 48.2462C38.7463 48.2462 39.4179 48.9177 39.4179 49.7462V54.2232C39.4179 55.0516 38.7463 55.7232 37.9179 55.7232Z" fill="#F57A00"/>
</svg>
