<svg width="92" height="84" viewBox="0 0 92 84" fill="none" xmlns="http://www.w3.org/2000/svg">
<path d="M78.7952 64.1203C78.67 63.9951 78.5213 63.8958 78.3578 63.8281C78.1942 63.7603 78.0189 63.7254 77.8418 63.7254C77.6648 63.7254 77.4895 63.7603 77.3259 63.8281C77.1623 63.8958 77.0137 63.9951 76.8885 64.1203C76.7633 64.2455 76.664 64.3941 76.5962 64.5577C76.5285 64.7213 76.4936 64.8966 76.4936 65.0737C76.4936 65.2507 76.5285 65.426 76.5962 65.5896C76.664 65.7532 76.7633 65.9018 76.8885 66.027L81.3178 70.4563C81.7011 70.8573 81.9287 71.6839 81.3178 72.3626L77.0899 76.5906C76.564 77.1162 75.7087 77.1162 75.1834 76.5906L62.5351 63.9424C64.8941 62.2383 66.9661 60.1686 68.6727 57.8113L72.5837 61.7224C72.7088 61.8477 72.8574 61.9471 73.021 62.0148C73.1846 62.0826 73.3599 62.1174 73.537 62.1172C73.8036 62.1171 74.0642 62.0381 74.2859 61.8899C74.5076 61.7418 74.6804 61.5312 74.7824 61.2849C74.8844 61.0386 74.9111 60.7675 74.8591 60.506C74.8071 60.2445 74.6787 60.0043 74.4902 59.8157L70.1756 55.5011C76.2813 44.9899 74.8401 31.2646 65.8483 22.2727C55.1377 11.5619 37.7103 11.5623 26.9997 22.2727C21.9144 27.3582 19.0579 34.1183 18.9567 41.3079C18.8555 48.4827 21.5052 55.3061 26.4173 60.5212C26.663 60.7796 27.0009 60.9302 27.3573 60.94C27.7137 60.9499 28.0594 60.8182 28.3189 60.5737C28.5784 60.3293 28.7306 59.992 28.742 59.6357C28.7535 59.2793 28.6233 58.933 28.3801 58.6724C19.1414 48.864 19.3725 33.7125 28.9064 24.1792C38.5658 14.5196 54.2827 14.5196 63.9417 24.1792C73.6009 33.8385 73.6009 49.5554 63.9417 59.2145C55.8101 67.3463 42.8702 68.7852 33.1738 62.6361C32.872 62.4528 32.5103 62.3951 32.1665 62.4756C31.8226 62.556 31.5241 62.7682 31.335 63.0664C31.1458 63.3646 31.0813 63.7251 31.1551 64.0704C31.2289 64.4157 31.4353 64.7183 31.7298 64.9131C36.1149 67.6938 41.2522 69.1652 46.4476 69.1652C47.3969 69.1652 48.3484 69.116 49.2973 69.017C53.1622 68.6127 56.89 67.3802 60.2237 65.4443L73.2764 78.4968C74.0649 79.285 75.1004 79.6793 76.136 79.6791C77.1715 79.6791 78.2074 79.2849 78.9959 78.4968L83.2239 74.2687C84.8007 72.6918 84.8007 70.1262 83.2239 68.5493L78.7952 64.1203Z" fill="#F57A00"/>
<path d="M55.4731 33.9833C55.6171 33.656 55.6251 33.285 55.4954 32.9518C55.3658 32.6186 55.1091 32.3505 54.7819 32.2065C51.959 30.9651 49.1544 30.3354 46.4462 30.3354C38.5877 30.3354 31.8703 35.5983 28.5657 38.7357C27.7226 39.536 27.2392 40.6623 27.2392 41.8257C27.2392 42.9892 27.7226 44.1153 28.5657 44.9158C31.8703 48.053 38.5877 53.316 46.4462 53.316C54.3048 53.316 61.0221 48.0532 64.3269 44.9158C65.17 44.1155 65.6533 42.9892 65.6533 41.8257C65.6533 40.6623 65.17 39.5362 64.3267 38.7357C63.1545 37.6217 61.9136 36.5823 60.6113 35.6237C60.3229 35.4165 59.9644 35.3315 59.6137 35.3871C59.263 35.4427 58.9484 35.6344 58.7382 35.9206C58.528 36.2068 58.4392 36.5644 58.4911 36.9157C58.543 37.267 58.7314 37.5836 59.0153 37.7968C60.2264 38.6884 61.3804 39.655 62.4705 40.691C62.7846 40.9889 62.9573 41.392 62.9573 41.8256C62.9573 42.2592 62.7846 42.6624 62.4705 42.9601C59.4573 45.8207 53.3686 50.6195 46.4462 50.6195C39.5241 50.6195 33.4352 45.8207 30.422 42.9601C30.1081 42.6622 29.9352 42.2592 29.9352 41.8256C29.9352 41.392 30.1081 40.9888 30.422 40.691C33.4352 37.8304 39.5239 33.0317 46.4462 33.0317C48.7785 33.0317 51.2178 33.5844 53.6964 34.6745C53.8584 34.7459 54.0329 34.7846 54.2099 34.7884C54.387 34.7923 54.563 34.7613 54.728 34.6971C54.893 34.6329 55.0437 34.5368 55.1716 34.4143C55.2994 34.2918 55.4019 34.1454 55.4731 33.9833Z" fill="#F57A00"/>
<path d="M39.8308 41.8251C39.8308 45.4728 42.7985 48.4405 46.4462 48.4405C50.094 48.4405 53.0618 45.4728 53.0618 41.8251C53.0618 38.1773 50.094 35.2096 46.4462 35.2096C42.7985 35.2096 39.8308 38.1773 39.8308 41.8251ZM50.3657 41.8251C50.3657 43.9862 48.6075 45.7443 46.4464 45.7443C44.2853 45.7443 42.5272 43.9862 42.5272 41.8251C42.5272 39.664 44.2853 37.9058 46.4464 37.9058C48.6073 37.9058 50.3657 39.664 50.3657 41.8251ZM69.7612 17.5652C70.1062 17.5652 70.4512 17.4335 70.7144 17.1704L76.5967 11.288L79.1364 13.8277C79.92 14.6108 81.1949 14.6107 81.9794 13.8275L89.113 6.6939V8.50371C89.113 9.24834 89.7164 9.85173 90.461 9.85173C91.2056 9.85173 91.809 9.24834 91.809 8.50371V3.50912C91.8091 3.33209 91.7742 3.15679 91.7065 2.99323C91.6387 2.82967 91.5394 2.68105 91.4143 2.55587C91.2891 2.43069 91.1405 2.3314 90.9769 2.26366C90.8133 2.19593 90.638 2.16108 90.461 2.1611H85.4664C84.7218 2.1611 84.1184 2.76449 84.1184 3.50912C84.1184 4.25374 84.7218 4.85713 85.4664 4.85713H87.1363L80.5577 11.436L78.018 8.89633C77.234 8.11271 75.9588 8.11289 75.175 8.89651L68.8078 15.2637C68.6192 15.4523 68.4909 15.6925 68.4389 15.954C68.3869 16.2156 68.4136 16.4866 68.5156 16.733C68.6177 16.9793 68.7905 17.1899 69.0122 17.338C69.2339 17.4861 69.4946 17.5652 69.7612 17.5652ZM7.11099 13.8841C10.9387 13.8841 14.053 10.7699 14.053 6.94205C14.053 3.11416 10.9387 0 7.11099 0C3.28329 0 0.168945 3.11416 0.168945 6.94205C0.168945 10.7699 3.28311 13.8841 7.11099 13.8841ZM7.11099 2.69621C9.45214 2.69621 11.3568 4.6009 11.3568 6.94205C11.3568 9.2832 9.45214 11.1879 7.11099 11.1879C4.76984 11.1879 2.86498 9.2832 2.86498 6.94205C2.86498 4.6009 4.76966 2.69621 7.11099 2.69621ZM7.31709 18.5055C3.48939 18.5055 0.375047 21.6196 0.375047 25.4475C0.375047 29.2754 3.48921 32.3896 7.31709 32.3896C11.145 32.3896 14.2591 29.2754 14.2591 25.4475C14.2591 21.6196 11.145 18.5055 7.31709 18.5055ZM7.31709 29.6934C4.97595 29.6934 3.07126 27.7887 3.07126 25.4475C3.07126 23.1064 4.97595 21.2017 7.31709 21.2017C9.65824 21.2017 11.5629 23.1064 11.5629 25.4475C11.5631 27.7887 9.65842 29.6934 7.31709 29.6934ZM7.31709 36.7944C3.48939 36.7944 0.375047 39.9086 0.375047 43.7365C0.375047 47.5644 3.48921 50.6785 7.31709 50.6785C11.145 50.6785 14.2591 47.5644 14.2591 43.7365C14.2591 39.9086 11.145 36.7944 7.31709 36.7944ZM7.31709 47.9823C4.97595 47.9823 3.07126 46.0776 3.07126 43.7365C3.07126 41.3953 4.97595 39.4906 7.31709 39.4906C9.65824 39.4906 11.5629 41.3953 11.5629 43.7365C11.5631 46.0776 9.65842 47.9823 7.31709 47.9823ZM19.5301 4.84761H31.4604C32.2051 4.84761 32.8085 4.24422 32.8085 3.49959C32.8085 2.75497 32.2051 2.15158 31.4604 2.15158H19.5301C18.7855 2.15158 18.1821 2.75497 18.1821 3.49959C18.1821 4.24422 18.7856 4.84761 19.5301 4.84761ZM19.5301 10.5924H25.4954C26.24 10.5924 26.8434 9.98901 26.8434 9.24438C26.8434 8.49976 26.24 7.89637 25.4954 7.89637H19.5301C19.1726 7.89637 18.8297 8.03839 18.5769 8.29119C18.3241 8.54399 18.1821 8.88687 18.1821 9.24438C18.1821 9.6019 18.3241 9.94477 18.5769 10.1976C18.8297 10.4504 19.1726 10.5924 19.5301 10.5924ZM90.652 21.2279H84.069C83.3244 21.2279 82.721 21.8313 82.721 22.5759C82.721 23.3206 83.3244 23.924 84.069 23.924H90.652C91.3966 23.924 92 23.3206 92 22.5759C92 21.8313 91.3966 21.2279 90.652 21.2279Z" fill="#F57A00"/>
<path d="M79.0698 24.1084C79.8968 24.1084 80.5672 23.4381 80.5672 22.6111C80.5672 21.7841 79.8968 21.1138 79.0698 21.1138C78.2429 21.1138 77.5725 21.7841 77.5725 22.6111C77.5725 23.4381 78.2429 24.1084 79.0698 24.1084Z" fill="#F57A00"/>
<path d="M90.652 26.7231H84.069C83.3243 26.7231 82.7209 27.3265 82.7209 28.0712C82.7209 28.8158 83.3243 29.4192 84.069 29.4192H90.652C91.3966 29.4192 92 28.8158 92 28.0712C92 27.3265 91.3966 26.7231 90.652 26.7231Z" fill="#F57A00"/>
<path d="M79.0698 29.6036C79.8968 29.6036 80.5672 28.9332 80.5672 28.1062C80.5672 27.2793 79.8968 26.6089 79.0698 26.6089C78.2429 26.6089 77.5725 27.2793 77.5725 28.1062C77.5725 28.9332 78.2429 29.6036 79.0698 29.6036Z" fill="#F57A00"/>
<path d="M55.018 74.771H48.435C47.6903 74.771 47.0869 75.3744 47.0869 76.119C47.0869 76.8637 47.6903 77.4671 48.435 77.4671H55.018C55.195 77.4671 55.3703 77.4322 55.5339 77.3645C55.6974 77.2968 55.8461 77.1975 55.9712 77.0723C56.0964 76.9471 56.1957 76.7985 56.2634 76.6349C56.3312 76.4714 56.366 76.2961 56.366 76.119C56.366 75.7615 56.224 75.4186 55.9712 75.1658C55.7184 74.913 55.3755 74.771 55.018 74.771ZM43.4359 74.6567C43.0388 74.6567 42.6579 74.8145 42.3771 75.0953C42.0963 75.3761 41.9385 75.757 41.9385 76.1541C41.9385 76.5512 42.0963 76.932 42.3771 77.2129C42.6579 77.4937 43.0388 77.6514 43.4359 77.6514C43.833 77.6514 44.2138 77.4937 44.4946 77.2129C44.7755 76.932 44.9332 76.5512 44.9332 76.1541C44.9332 75.757 44.7755 75.3761 44.4946 75.0953C44.2138 74.8145 43.833 74.6567 43.4359 74.6567ZM55.018 80.2662H48.435C47.6903 80.2662 47.0869 80.8696 47.0869 81.6142C47.0869 82.3589 47.6903 82.9623 48.435 82.9623H55.018C55.7626 82.9623 56.366 82.3589 56.366 81.6142C56.366 80.8696 55.7626 80.2662 55.018 80.2662Z" fill="#F57A00"/>
<path d="M43.4359 83.146C44.2628 83.146 44.9332 82.4757 44.9332 81.6487C44.9332 80.8217 44.2628 80.1514 43.4359 80.1514C42.6089 80.1514 41.9385 80.8217 41.9385 81.6487C41.9385 82.4757 42.6089 83.146 43.4359 83.146Z" fill="#F57A00"/>
<path d="M90.652 32.2295H84.069C83.3243 32.2295 82.7209 32.8329 82.7209 33.5775C82.7209 34.3221 83.3243 34.9255 84.069 34.9255H90.652C91.3966 34.9255 92 34.3221 92 33.5775C92 32.8329 91.3966 32.2295 90.652 32.2295ZM90.652 37.7247H84.069C83.3243 37.7247 82.7209 38.3281 82.7209 39.0727C82.7209 39.8173 83.3243 40.4207 84.069 40.4207H90.652C91.3966 40.4207 92 39.8173 92 39.0727C92 38.3281 91.3966 37.7247 90.652 37.7247Z" fill="#F57A00"/>
<path d="M79.0698 40.605C79.8968 40.605 80.5672 39.9346 80.5672 39.1077C80.5672 38.2807 79.8968 37.6104 79.0698 37.6104C78.2429 37.6104 77.5725 38.2807 77.5725 39.1077C77.5725 39.9346 78.2429 40.605 79.0698 40.605Z" fill="#F57A00"/>
<path d="M90.652 43.2197H84.069C83.3243 43.2197 82.7209 43.8231 82.7209 44.5677C82.7209 45.3124 83.3243 45.9158 84.069 45.9158H90.652C91.3966 45.9158 92 45.3124 92 44.5677C92 43.8231 91.3966 43.2197 90.652 43.2197ZM90.652 48.7147H84.069C83.3243 48.7147 82.7209 49.3181 82.7209 50.0628C82.7209 50.8074 83.3243 51.4108 84.069 51.4108H90.652C90.829 51.4108 91.0043 51.3759 91.1679 51.3082C91.3314 51.2405 91.48 51.1412 91.6052 51.016C91.7304 50.8908 91.8297 50.7422 91.8974 50.5787C91.9652 50.4151 92 50.2398 92 50.0628C92 49.8857 91.9651 49.7104 91.8974 49.5469C91.8296 49.3834 91.7303 49.2348 91.6052 49.1096C91.48 48.9844 91.3314 48.8851 91.1678 48.8174C91.0043 48.7496 90.829 48.7147 90.652 48.7147ZM79.0699 48.6005C78.8732 48.6005 78.6785 48.6392 78.4969 48.7144C78.3152 48.7897 78.1501 48.9 78.0111 49.039C77.872 49.1781 77.7618 49.3431 77.6865 49.5248C77.6113 49.7065 77.5725 49.9012 77.5725 50.0978C77.5725 50.2944 77.6113 50.4891 77.6865 50.6708C77.7618 50.8525 77.872 51.0175 78.0111 51.1566C78.1501 51.2956 78.3152 51.4059 78.4969 51.4812C78.6785 51.5564 78.8732 51.5951 79.0699 51.5951C79.467 51.5951 79.8478 51.4374 80.1286 51.1566C80.4094 50.8758 80.5672 50.4949 80.5672 50.0978C80.5672 49.7007 80.4094 49.3198 80.1286 49.039C79.8478 48.7582 79.467 48.6005 79.0699 48.6005ZM36.381 80.2754H31.337V72.5679C31.337 71.4281 30.4096 70.5008 29.2698 70.5008H24.3805C23.2408 70.5008 22.3134 71.4281 22.3134 72.5679V80.2754H20.3913V67.7422C20.3913 66.6025 19.4639 65.6751 18.3242 65.6751H13.4349C12.2951 65.6751 11.3678 66.6025 11.3678 67.7422V80.2754H9.7078V76.015C9.7078 74.8753 8.78043 73.9479 7.64067 73.9479H2.75137C1.61162 73.9479 0.68425 74.8753 0.68425 76.015V80.451C0.476565 80.5683 0.30377 80.7387 0.183544 80.9447C0.0633175 81.1507 -2.38963e-05 81.3849 1.19803e-08 81.6234C-2.35905e-05 81.8005 0.0348278 81.9758 0.102564 82.1393C0.170299 82.3029 0.269592 82.4515 0.394772 82.5767C0.519952 82.7019 0.668565 82.8012 0.832124 82.8689C0.995684 82.9366 1.17098 82.9715 1.34802 82.9715H36.381C37.1256 82.9715 37.729 82.3681 37.729 81.6234C37.729 80.8788 37.1256 80.2754 36.381 80.2754ZM25.0096 73.197H28.6407V80.2754H25.0096V73.197ZM14.0641 68.3713H17.6953V80.2754H14.0641V68.3713ZM3.38046 76.6439H7.01177V80.2752H3.38046V76.6439Z" fill="#F57A00"/>
</svg>
