<svg width="101" height="101" viewBox="0 0 101 101" fill="none" xmlns="http://www.w3.org/2000/svg">
<path d="M4.15234 44.2129C6.66211 48.2285 11.123 50.9004 16.207 50.9004H26.918M46.4238 2.42578C47.7598 2.14648 49.1426 2 50.5586 2C59.9648 2 67.8672 8.43359 70.1055 17.1387C73.0644 15.127 76.6367 13.9512 80.4824 13.9512C86.334 13.9512 91.5508 16.6719 94.9336 20.918M98.1367 26.9609C98.6699 28.6875 98.957 30.5234 98.957 32.4258C98.957 42.6289 90.6855 50.9004 80.4824 50.9004H74.0078M40.0684 4.93945C37.4367 6.54405 35.2057 8.72767 33.5449 11.3242C33.543 11.3242 33.543 11.3262 33.543 11.3262C31.125 9.41992 28.0742 8.2793 24.7578 8.2793C16.9121 8.2793 10.5508 14.6406 10.5508 22.4863C10.5508 22.875 10.5703 23.2559 10.6016 23.6348V23.6367C5.54297 25.8125 2 30.8379 2 36.6934C2 37.0332 2.01172 37.3711 2.03516 37.7051M73.7172 50.8996L79.0818 45.535C79.4262 45.1906 79.6994 44.7818 79.8857 44.3319C80.0721 43.8819 80.168 43.3997 80.168 42.9127V34.7744H84.3412L77.1246 25.6104L69.908 34.7744H74.0812V41.9275L69.4494 46.5594M27.2398 50.8996L21.8752 45.535C21.5308 45.1906 21.2577 44.7818 21.0713 44.3319C20.885 43.8819 20.789 43.3997 20.7891 42.9127V34.7744H16.6158L23.8324 25.6104L31.049 34.7744H26.8758V41.9275L31.5076 46.5594" stroke="#F57A00" stroke-width="3" stroke-miterlimit="10" stroke-linecap="round" stroke-linejoin="round"/>
<path d="M10.6004 23.6354C12.3203 22.8959 14.2154 22.4865 16.2063 22.4865C16.644 22.4865 17.077 22.5063 17.5045 22.5451M33.5451 11.3232C35.2043 12.6307 36.5524 14.2903 37.492 16.1822M64.9086 22.4848C66.2619 20.3697 68.03 18.5511 70.1061 17.1387M53.5221 40.0867V23.3977H57.6951L50.4785 14.2338L43.2619 23.3977H47.435V40.1189M79.1231 63.5877L75.2871 63.0955C74.9785 63.0564 74.7266 62.8357 74.6367 62.5369C74.1387 60.865 73.4727 59.2654 72.6563 57.7576C72.5078 57.4842 72.5313 57.1502 72.7207 56.9041L75.0859 53.8416C75.2021 53.6915 75.2596 53.5042 75.2478 53.3148C75.2359 53.1254 75.1555 52.9468 75.0215 52.8123L67.4102 45.201C67.2757 45.067 67.0971 44.9866 66.9077 44.9747C66.7182 44.9629 66.531 45.0204 66.3809 45.1365L63.3184 47.5018C63.1977 47.5941 63.0527 47.6493 62.9012 47.6607C62.7497 47.6722 62.5981 47.6393 62.4649 47.5662C60.957 46.7498 59.3574 46.0838 57.6856 45.5857C57.3867 45.4959 57.166 45.2439 57.127 44.9354L56.6348 41.0994C56.6105 40.9113 56.5187 40.7384 56.3764 40.613C56.2341 40.4875 56.051 40.4182 55.8613 40.4178H45.0957C44.7031 40.4178 44.3731 40.7107 44.3223 41.0994L43.8301 44.9354C43.791 45.2439 43.5703 45.4959 43.2715 45.5857C41.5996 46.0838 40 46.7498 38.4922 47.5662C38.2188 47.7146 37.8848 47.6912 37.6387 47.5018L34.5762 45.1365C34.4261 45.0204 34.2388 44.9629 34.0494 44.9747C33.86 44.9866 33.6813 45.067 33.5469 45.201L25.9356 52.8123C25.8016 52.9468 25.7212 53.1254 25.7093 53.3148C25.6974 53.5042 25.755 53.6915 25.8711 53.8416L28.2363 56.9041C28.4258 57.1502 28.4492 57.4842 28.3008 57.7576C27.4844 59.2654 26.8184 60.865 26.3203 62.5369C26.2305 62.8357 25.9785 63.0564 25.6699 63.0955L21.834 63.5877C21.4434 63.6385 21.1524 63.9686 21.1524 64.3611V75.1268C21.1524 75.5193 21.4434 75.8494 21.834 75.9002L25.6699 76.3924C25.9785 76.4314 26.2305 76.6521 26.3203 76.951C26.8184 78.6229 27.4844 80.2225 28.3008 81.7303C28.4492 82.0037 28.4258 82.3377 28.2363 82.5838L25.8711 85.6463C25.7549 85.7964 25.6974 85.9837 25.7092 86.1731C25.7211 86.3625 25.8015 86.5412 25.9356 86.6756L33.5469 94.2869C33.6813 94.4209 33.86 94.5013 34.0494 94.5132C34.2388 94.525 34.4261 94.4675 34.5762 94.3514L37.6387 91.9861C37.7594 91.8938 37.9043 91.8386 38.0559 91.8271C38.2074 91.8157 38.359 91.8485 38.4922 91.9217C40 92.7381 41.5996 93.4041 43.2715 93.9022C43.5703 93.992 43.791 94.2439 43.8301 94.5545L44.3223 98.3885C44.3731 98.7791 44.7031 99.0701 45.0957 99.0701H55.8613C56.2539 99.0701 56.584 98.7791 56.6348 98.3885L57.127 94.5545C57.166 94.2439 57.3867 93.992 57.6856 93.9022C59.3574 93.4041 60.957 92.7381 62.4649 91.9217C62.7383 91.7732 63.0723 91.7967 63.3184 91.9861L66.3809 94.3514C66.531 94.4675 66.7182 94.525 66.9077 94.5132C67.0971 94.5013 67.2757 94.4209 67.4102 94.2869L75.0215 86.6756C75.1555 86.5412 75.236 86.3625 75.2478 86.1731C75.2597 85.9837 75.2021 85.7964 75.0859 85.6463L72.7207 82.5838C72.6284 82.4631 72.5732 82.3181 72.5617 82.1666C72.5503 82.0151 72.5831 81.8635 72.6563 81.7303C73.4727 80.2225 74.1387 78.6229 74.6367 76.951C74.7266 76.6521 74.9785 76.4314 75.2871 76.3924L79.1231 75.9002C79.5137 75.8494 79.8047 75.5193 79.8047 75.1268V64.3611C79.8047 63.9686 79.5137 63.6385 79.1231 63.5877Z" stroke="#F57A00" stroke-width="3" stroke-miterlimit="10" stroke-linecap="round" stroke-linejoin="round"/>
<path d="M65.498 79.4141C67.2988 76.6269 68.3418 73.3066 68.3418 69.7441C68.3418 59.8789 60.3438 51.8809 50.4785 51.8809C40.6133 51.8809 32.6152 59.8789 32.6152 69.7441C32.6152 79.6094 40.6133 87.6074 50.4785 87.6074C54.3105 87.6074 57.8574 86.4004 60.7656 84.3477" stroke="#F57A00" stroke-width="3" stroke-miterlimit="10" stroke-linecap="round" stroke-linejoin="round"/>
<path d="M43.358 74.3021L38.8002 69.7445L43.358 65.1867M57.599 74.3021L62.1568 69.7445L57.599 65.1867M48.4291 75.4207L52.5279 64.0684" stroke="#F57A00" stroke-width="3" stroke-miterlimit="10" stroke-linecap="round" stroke-linejoin="round"/>
</svg>
