<svg width="94" height="91" viewBox="0 0 94 91" fill="none" xmlns="http://www.w3.org/2000/svg">
<path d="M8.36875 25.868C8.28457 26.0137 8.17251 26.1413 8.03899 26.2437C7.90546 26.346 7.75308 26.4211 7.59055 26.4645C7.42802 26.508 7.25852 26.519 7.09173 26.4969C6.92495 26.4748 6.76414 26.4201 6.6185 26.3359L0.804525 22.975C0.656189 22.8923 0.525795 22.7808 0.420929 22.6472C0.316064 22.5136 0.238822 22.3604 0.193699 22.1967C0.148576 22.0329 0.136473 21.8618 0.158095 21.6934C0.179716 21.5249 0.234631 21.3624 0.319642 21.2153C0.404654 21.0683 0.518064 20.9396 0.653273 20.8368C0.788481 20.734 0.942788 20.6591 1.10721 20.6165C1.27164 20.5739 1.4429 20.5644 1.61102 20.5886C1.77915 20.6128 1.94078 20.6702 2.08652 20.7574L7.90086 24.1183C8.19489 24.2883 8.40936 24.5681 8.4971 24.8963C8.58485 25.2244 8.53868 25.5739 8.36875 25.868ZM51.3757 14.5158C51.5214 14.5999 51.6822 14.6545 51.849 14.6764C52.0158 14.6984 52.1853 14.6873 52.3478 14.6437C52.5103 14.6001 52.6626 14.525 52.7961 14.4225C52.9295 14.3201 53.0415 14.1923 53.1256 14.0466L56.6006 8.02496C56.7705 7.73067 56.8165 7.38096 56.7285 7.05276C56.6405 6.72456 56.4257 6.44475 56.1315 6.2749C55.8372 6.10504 55.4875 6.05904 55.1593 6.14703C54.8311 6.23502 54.5512 6.44978 54.3814 6.74407L50.9058 12.7657C50.8217 12.9115 50.7671 13.0724 50.7452 13.2392C50.7233 13.4061 50.7345 13.5756 50.7781 13.7381C50.8217 13.9007 50.897 14.053 50.9995 14.1864C51.102 14.3199 51.2299 14.4318 51.3757 14.5158ZM35.7089 10.4136C36.0486 10.4136 36.3744 10.2787 36.6146 10.0385C36.8548 9.79827 36.9898 9.47247 36.9898 9.13275V2.08363C36.9898 1.74391 36.8548 1.41811 36.6146 1.1779C36.3744 0.937685 36.0486 0.802734 35.7089 0.802734C35.3692 0.802734 35.0434 0.937685 34.8032 1.1779C34.5629 1.41811 34.428 1.74391 34.428 2.08363V9.13239C34.4279 9.30063 34.461 9.46723 34.5254 9.62268C34.5897 9.77812 34.6841 9.91937 34.803 10.0384C34.922 10.1573 35.0632 10.2517 35.2186 10.3161C35.3741 10.3805 35.5406 10.4136 35.7089 10.4136ZM18.2979 14.0519C18.382 14.1976 18.494 14.3253 18.6274 14.4277C18.7609 14.5302 18.9132 14.6053 19.0757 14.6488C19.2382 14.6924 19.4077 14.7035 19.5744 14.6816C19.7412 14.6596 19.9021 14.605 20.0478 14.5209C20.1935 14.4368 20.3212 14.3248 20.4236 14.1914C20.526 14.0579 20.6011 13.9056 20.6447 13.7431C20.6882 13.5806 20.6993 13.4111 20.6774 13.2444C20.6554 13.0776 20.6009 12.9167 20.5168 12.771L17.0362 6.74389C16.8663 6.44965 16.5866 6.23493 16.2584 6.14698C15.9302 6.05903 15.5806 6.10504 15.2863 6.2749C14.9921 6.44475 14.7774 6.72454 14.6894 7.05271C14.6015 7.38087 14.6475 7.73054 14.8173 8.02478L18.2979 14.0519ZM60.0243 42.8669H58.2618C57.9221 42.8669 57.5963 43.0019 57.356 43.2421C57.1158 43.4823 56.9809 43.8081 56.9809 44.1478C56.9809 44.4875 57.1158 44.8133 57.356 45.0536C57.5963 45.2938 57.9221 45.4287 58.2618 45.4287H60.0252C60.3649 45.4287 60.6907 45.2938 60.9309 45.0536C61.1711 44.8133 61.3061 44.4875 61.3061 44.1478C61.3061 43.8081 61.1711 43.4823 60.9309 43.2421C60.6907 43.0019 60.3649 42.8669 60.0252 42.8669H60.0243ZM93.8523 38.4685C93.8523 50.2864 85.521 60.1938 74.4226 62.6326V84.7655C74.4144 86.1701 73.8506 87.5143 72.8545 88.5046C71.8584 89.4949 70.5109 90.0508 69.1063 90.0508C67.7017 90.0508 66.3541 89.4949 65.358 88.5046C64.3619 87.5143 63.7982 86.1701 63.7899 84.7655V62.6326C60.6397 61.939 57.6564 60.6334 55.0094 58.7899C54.4573 59.4827 53.9001 60.1623 53.355 60.8249C51.1105 63.5545 48.9793 66.1497 47.6488 69.2056C48.3157 69.6187 48.8571 70.2062 49.2144 70.9046C49.5718 71.603 49.7315 72.3858 49.6765 73.1683C49.6214 73.9509 49.3536 74.7036 48.9019 75.345C48.4503 75.9865 47.832 76.4924 47.1138 76.808C47.4832 77.4632 47.6745 78.2038 47.6685 78.9559C47.6625 79.7081 47.4595 80.4455 47.0797 81.0947C46.6998 81.744 46.1565 82.2823 45.5037 82.656C44.851 83.0297 44.1116 83.2259 43.3595 83.2248H41.4455V84.3447C41.4497 85.1004 41.3046 85.8495 41.0183 86.5489C40.7321 87.2483 40.3104 87.8842 39.7775 88.4201C39.2447 88.956 38.6111 89.3813 37.9133 89.6715C37.2155 89.9617 36.4673 90.111 35.7115 90.111C34.9558 90.111 34.2075 89.9617 33.5097 89.6715C32.812 89.3813 32.1784 88.956 31.6455 88.4201C31.1127 87.8842 30.691 87.2483 30.4048 86.5489C30.1185 85.8495 29.9733 85.1004 29.9776 84.3447V83.2248H28.0638C27.3115 83.2261 26.572 83.0301 25.919 82.6563C25.2661 82.2826 24.7226 81.7443 24.3426 81.0949C23.9627 80.4456 23.7596 79.708 23.7537 78.9557C23.7478 78.2034 23.9392 77.4627 24.3089 76.8075C23.5895 76.4927 22.97 75.987 22.5174 75.3453C22.0648 74.7036 21.7964 73.9503 21.7413 73.167C21.6861 72.3837 21.8463 71.6002 22.2045 70.9014C22.5628 70.2026 23.1053 69.6152 23.7735 69.2027C22.4443 66.1527 20.3151 63.5579 18.0719 60.83C14.003 55.8808 9.39164 50.2718 9.39164 40.9114C9.39164 26.4007 21.1975 14.5939 35.7089 14.5939C41.7115 14.5909 47.5342 16.6427 52.209 20.4079C56.7848 16.1093 62.8282 13.7183 69.1064 13.7227C82.7514 13.7227 93.8523 24.8237 93.8523 38.4685ZM26.2819 68.5567H30.8076V44.7809H28.126C27.0896 44.7804 26.0766 44.4727 25.2151 43.8966C24.3536 43.3205 23.6822 42.5019 23.2858 41.5443C22.8894 40.5867 22.7858 39.5331 22.9881 38.5166C23.1904 37.5002 23.6896 36.5665 24.4224 35.8337C25.1552 35.1008 26.0889 34.6017 27.1053 34.3993C28.1217 34.197 29.1754 34.3005 30.133 34.6969C31.0906 35.0933 31.9092 35.7646 32.4853 36.6261C33.0615 37.4876 33.3692 38.5006 33.3698 39.537V42.2186H38.0542V39.537C38.0531 38.7301 38.2386 37.934 38.5962 37.2108C38.9539 36.4875 39.474 35.8569 40.1159 35.368C40.7577 34.8792 41.504 34.5454 42.2962 34.3928C43.0885 34.2403 43.9053 34.2731 44.6828 34.4886C45.4211 29.9582 47.4087 25.7237 50.4223 22.2614C46.9201 19.4982 42.7106 17.777 38.2757 17.2949C33.8408 16.8128 29.3598 17.5893 25.3456 19.5354C21.3314 21.4815 17.9464 24.5186 15.578 28.299C13.2096 32.0794 11.9536 36.4503 11.9538 40.9114C11.9538 49.3536 16.071 54.3607 20.0511 59.2029C22.3967 62.0554 24.8121 64.9991 26.2819 68.5567ZM44.3608 38.4685C44.3608 38.0092 44.3745 37.5536 44.3992 37.0996C43.9915 36.9148 43.5439 36.8352 43.0974 36.868C42.651 36.9008 42.2198 37.0451 41.8435 37.2875C41.4672 37.53 41.1576 37.8629 40.9432 38.2559C40.7288 38.6488 40.6163 39.0893 40.616 39.537V42.2186H43.2974C43.7527 42.2182 44.2001 42.1005 44.5966 41.8768C44.4398 40.7475 44.3609 39.6087 44.3604 38.4685H44.3608ZM33.3702 44.7815V68.5567H38.0546V44.7809L33.3702 44.7815ZM28.126 36.8601C27.4155 36.8601 26.7341 37.1423 26.2317 37.6447C25.7293 38.1471 25.4471 38.8285 25.4471 39.539C25.4471 40.2495 25.7293 40.9309 26.2317 41.4332C26.7341 41.9356 27.4155 42.2179 28.126 42.2179H30.8076V39.537C30.8063 38.8266 30.5232 38.1458 30.0205 37.6439C29.5177 37.142 28.8364 36.8601 28.126 36.8601ZM38.8837 83.2248H32.5398V84.3447C32.5366 84.7632 32.6163 85.1782 32.7743 85.5658C32.9322 85.9534 33.1653 86.306 33.4602 86.6031C33.755 86.9001 34.1058 87.1359 34.4922 87.2968C34.8786 87.4577 35.293 87.5406 35.7115 87.5406C36.1301 87.5406 36.5445 87.4577 36.9309 87.2968C37.3173 87.1359 37.668 86.9001 37.9629 86.6031C38.2577 86.306 38.4908 85.9534 38.6488 85.5658C38.8068 85.1782 38.8865 84.7632 38.8833 84.3447L38.8837 83.2248ZM45.1077 78.9197C45.1071 78.4563 44.9228 78.0121 44.5951 77.6845C44.2675 77.3568 43.8232 77.1725 43.3598 77.172H28.0638C27.8331 77.1696 27.6042 77.213 27.3904 77.2997C27.1766 77.3863 26.9821 77.5145 26.8181 77.6768C26.6542 77.8391 26.524 78.0323 26.4352 78.2452C26.3463 78.4581 26.3006 78.6865 26.3006 78.9172C26.3006 79.1479 26.3463 79.3763 26.4352 79.5892C26.524 79.8022 26.6542 79.9954 26.8181 80.1576C26.9821 80.3199 27.1766 80.4481 27.3904 80.5348C27.6042 80.6214 27.8331 80.6648 28.0638 80.6624H43.3595C43.8222 80.6626 44.2661 80.4792 44.5938 80.1525C44.9214 79.8258 45.1061 79.3824 45.1074 78.9197H45.1077ZM47.1253 72.8616C47.1247 72.3996 46.9409 71.9567 46.6142 71.63C46.2875 71.3033 45.8446 71.1196 45.3826 71.119H26.0411C25.5782 71.119 25.1343 71.3029 24.8069 71.6302C24.4796 71.9576 24.2958 72.4015 24.2958 72.8644C24.2958 73.3272 24.4796 73.7712 24.8069 74.0985C25.1343 74.4258 25.5782 74.6097 26.0411 74.6097H45.3826C45.8452 74.6084 46.2885 74.4236 46.6152 74.0959C46.9418 73.7682 47.1251 73.3243 47.1249 72.8616H47.1253ZM52.9839 57.2197C49.0991 53.8842 46.3433 49.4268 45.0956 44.4609C44.5197 44.6725 43.911 44.7809 43.2974 44.7809H40.6156V68.5567H45.1418C46.6124 64.9947 49.0302 62.0501 51.3768 59.1965C51.9071 58.5506 52.4494 57.8892 52.9836 57.2197H52.9839ZM71.8606 63.0553C70.0304 63.2607 68.183 63.2607 66.3528 63.0553V84.7655C66.3612 85.4904 66.655 86.1828 67.1705 86.6924C67.6861 87.202 68.3818 87.4879 69.1067 87.4879C69.8317 87.4879 70.5274 87.202 71.0429 86.6924C71.5585 86.1828 71.8523 85.4904 71.8606 84.7655V63.0553ZM91.2905 38.4685C91.2917 34.0808 89.9916 29.7912 87.5548 26.1424C85.1179 22.4935 81.6537 19.6493 77.6003 17.9694C73.5468 16.2894 69.0863 15.8493 64.7827 16.7046C60.4791 17.5599 56.5258 19.6722 53.4228 22.7744C50.3198 25.8766 48.2064 29.8293 47.35 34.1327C46.4935 38.4361 46.9325 42.8967 48.6114 46.9506C50.2902 51.0045 53.1335 54.4694 56.7817 56.9073C60.4299 59.3451 64.7192 60.6463 69.1069 60.6463C74.9873 60.6396 80.6251 58.3011 84.7837 54.1436C88.9423 49.9861 91.2823 44.3489 91.2905 38.4685ZM60.0248 37.1876H58.2618C57.9221 37.1876 57.5963 37.3226 57.356 37.5628C57.1158 37.803 56.9809 38.1288 56.9809 38.4685C56.9809 38.8082 57.1158 39.134 57.356 39.3742C57.5963 39.6145 57.9221 39.7494 58.2618 39.7494H60.0252C60.3649 39.7494 60.6907 39.6145 60.9309 39.3742C61.1711 39.134 61.3061 38.8082 61.3061 38.4685C61.3061 38.1288 61.1711 37.803 60.9309 37.5628C60.6907 37.3226 60.3649 37.1876 60.0252 37.1876H60.0248ZM60.0248 31.5028H58.2618C57.9221 31.5028 57.5963 31.6378 57.356 31.878C57.1158 32.1182 56.9809 32.444 56.9809 32.7837C56.9809 33.1234 57.1158 33.4492 57.356 33.6895C57.5963 33.9297 57.9221 34.0646 58.2618 34.0646H60.0252C60.3649 34.0646 60.6907 33.9297 60.9309 33.6895C61.1711 33.4492 61.3061 33.1234 61.3061 32.7837C61.3061 32.444 61.1711 32.1182 60.9309 31.878C60.6907 31.6378 60.3649 31.5028 60.0252 31.5028H60.0248ZM63.5674 34.0646H79.9522C80.2919 34.0646 80.6178 33.9297 80.858 33.6895C81.0982 33.4492 81.2331 33.1234 81.2331 32.7837C81.2331 32.444 81.0982 32.1182 80.858 31.878C80.6178 31.6378 80.2919 31.5028 79.9522 31.5028H63.5669C63.2271 31.5028 62.9013 31.6378 62.6611 31.878C62.4209 32.1182 62.286 32.444 62.286 32.7837C62.286 33.1234 62.4209 33.4492 62.6611 33.6895C62.9013 33.9297 63.2271 34.0646 63.5669 34.0646H63.5674ZM88.8107 38.4685C88.8103 42.3663 87.6541 46.1765 85.4882 49.4172C83.3223 52.6579 80.2441 55.1835 76.6429 56.6747C73.0416 58.1659 69.079 58.5557 65.2561 57.7948C61.4333 57.0339 57.922 55.1565 55.1662 52.4C52.4103 49.6434 50.5338 46.1316 49.7739 42.3086C49.014 38.4856 49.4049 34.5231 50.897 30.9222C52.3892 27.3213 54.9156 24.2437 58.1568 22.0787C61.3981 19.9137 65.2085 18.7584 69.1064 18.759C74.3314 18.7649 79.3406 20.8435 83.0347 24.5386C86.7289 28.2338 88.8062 33.2435 88.8107 38.4685ZM86.2489 38.4685C86.2494 35.0774 85.2443 31.7623 83.3606 28.9424C81.4769 26.1226 78.7992 23.9247 75.6663 22.6267C72.5334 21.3288 69.086 20.989 65.7599 21.6505C62.4339 22.312 59.3788 23.9449 56.9809 26.3428C54.583 28.7408 52.9501 31.7959 52.2887 35.1219C51.6273 38.4479 51.967 41.8954 53.265 45.0283C54.563 48.1612 56.7609 50.8388 59.5808 52.7225C62.4006 54.6061 65.7158 55.6113 69.1069 55.6107C73.6514 55.6048 78.0081 53.7968 81.2214 50.5833C84.4348 47.3697 86.2426 43.013 86.2484 38.4685H86.2489ZM79.9522 37.1876H63.5669C63.2271 37.1876 62.9013 37.3226 62.6611 37.5628C62.4209 37.803 62.286 38.1288 62.286 38.4685C62.286 38.8082 62.4209 39.134 62.6611 39.3742C62.9013 39.6145 63.2271 39.7494 63.5669 39.7494H79.9517C80.2914 39.7494 80.6172 39.6145 80.8574 39.3742C81.0976 39.134 81.2326 38.8082 81.2326 38.4685C81.2326 38.1288 81.0976 37.803 80.8574 37.5628C80.6172 37.3226 80.2914 37.1876 79.9517 37.1876H79.9522ZM79.9522 42.8671H63.5669C63.2271 42.8671 62.9013 43.0021 62.6611 43.2423C62.4209 43.4825 62.286 43.8083 62.286 44.148C62.286 44.4877 62.4209 44.8135 62.6611 45.0537C62.9013 45.2939 63.2271 45.4289 63.5669 45.4289H79.9517C80.2914 45.4289 80.6172 45.2939 80.8574 45.0537C81.0976 44.8135 81.2326 44.4877 81.2326 44.148C81.2326 43.8083 81.0976 43.4825 80.8574 43.2423C80.6172 43.0021 80.2914 42.8671 79.9517 42.8671H79.9522Z" fill="#F57A00"/>
</svg>
