<svg width="238" height="203" viewBox="0 0 238 203" fill="none" xmlns="http://www.w3.org/2000/svg">
<path opacity="0.3" d="M125.289 155.097L55.3558 114.937L128.454 72.9574L197.583 113.271L125.289 155.097Z" fill="url(#paint0_linear_1237_3)"/>
<path d="M125.83 112.984L54.1979 154.81L82.791 171.717L83.0998 171.529L57.1862 187.233" stroke="url(#paint1_linear_1237_3)" stroke-width="1.17" stroke-miterlimit="10"/>
<path d="M82.7909 138.256L64.4089 127.618L43.3582 140.165L39.4326 137.892" stroke="url(#paint2_linear_1237_3)" stroke-width="1.17" stroke-miterlimit="10"/>
<path d="M126.149 129.527L93.6305 148.718L108.076 156.719L97.5561 163.164" stroke="url(#paint3_linear_1237_3)" stroke-width="1.17" stroke-miterlimit="10"/>
<path d="M133.372 134.074L158.668 148.718L169.817 142.262L195.113 156.896" stroke="url(#paint4_linear_1237_3)" stroke-width="1.17" stroke-miterlimit="10"/>
<path d="M125.521 142.439L158.668 161.266L144.531 169.443L155.051 175.535" stroke="url(#paint5_linear_1237_3)" stroke-width="1.17" stroke-miterlimit="10"/>
<path d="M173.114 119.076L198.101 133.897L205.952 129.714L225.999 141.677" stroke="url(#paint6_linear_1237_3)" stroke-width="1.17" stroke-miterlimit="10"/>
<path d="M216.163 156.895L183.964 138.256L194.572 131.8" stroke="url(#paint7_linear_1237_3)" stroke-width="5.1699" stroke-miterlimit="10"/>
<path d="M26.7626 128.489L43.3583 119.252L53.5693 125.532L82.791 108.978L90.3224 113.348L101.173 106.705" stroke="url(#paint8_linear_1237_3)" stroke-width="1.17" stroke-miterlimit="10"/>
<path d="M154.743 104.619L162.594 108.802L172.805 102.533L202.335 119.253L208.94 115.07L227.631 125.532" stroke="url(#paint9_linear_1237_3)" stroke-width="1.17" stroke-miterlimit="10"/>
<path d="M166.21 98.3509L190.878 83.7064L202.853 90.6479L215.424 82.051" stroke="url(#paint10_linear_1237_3)" stroke-width="1.17" stroke-miterlimit="10"/>
<path d="M147.509 96.254L166.211 85.8031L158.668 81.7971L173.114 73.432" stroke="url(#paint11_linear_1237_3)" stroke-width="5.1699" stroke-miterlimit="10"/>
<path d="M130.075 85.8032L144.531 77.4381L137.298 73.2555L155.051 62.6171" stroke="url(#paint12_linear_1237_3)" stroke-width="5.1699" stroke-miterlimit="10"/>
<path d="M173.124 64.7028L158.348 73.2555L148.137 66.9761" stroke="url(#paint13_linear_1237_3)" stroke-width="5.1699" stroke-miterlimit="10"/>
<path d="M122.532 73.4321L136.989 64.7028L133.372 62.6171L151.754 52.3428" stroke="url(#paint14_linear_1237_3)" stroke-width="5.1699" stroke-miterlimit="10"/>
<path d="M122.533 81.7972L93.9395 64.8904L108.076 56.7019L91.4253 47.0676" stroke="url(#paint15_linear_1237_3)" stroke-width="1.17" stroke-miterlimit="10"/>
<path d="M114.99 94.5215L78.8654 73.2556L71.9514 77.6147L54.1979 67.3514" stroke="url(#paint16_linear_1237_3)" stroke-width="1.17" stroke-miterlimit="10"/>
<path d="M90.6422 100.624L64.7177 85.9797L50.2612 93.9807L26.7626 80.7488" stroke="url(#paint17_linear_1237_3)" stroke-width="1.17" stroke-miterlimit="10"/>
<path d="M82.791 87.7123L75.2485 92.0714" stroke="url(#paint18_linear_1237_3)" stroke-width="5.1699" stroke-miterlimit="10"/>
<path d="M75.5573 62.6171L93.6306 73.4321L85.7683 77.6147" stroke="url(#paint19_linear_1237_3)" stroke-width="1.17" stroke-miterlimit="10"/>
<path d="M28.9902 81.8635C27.7882 82.3711 25.8144 82.3491 24.5793 81.8193C23.3443 81.2896 23.3443 80.4619 24.5793 79.9874C25.8144 79.5018 27.7882 79.5239 28.9902 80.0315C30.1811 80.5392 30.1811 81.3558 28.9902 81.8635Z" fill="url(#paint20_linear_1237_3)"/>
<path d="M58.1015 68.2783C56.8995 68.7859 54.9257 68.7638 53.6907 68.2341C52.4556 67.7044 52.4556 66.8767 53.6907 66.4022C54.9257 65.9166 56.8995 65.9387 58.1015 66.4463C59.3034 66.9429 59.3034 67.7706 58.1015 68.2783Z" fill="url(#paint21_linear_1237_3)"/>
<path d="M77.4649 63.544C76.2629 64.0517 74.2891 64.0296 73.0541 63.4999C71.8191 62.9702 71.8191 62.1425 73.0541 61.6679C74.2891 61.1824 76.2629 61.2044 77.4649 61.7121C78.6668 62.2197 78.6668 63.0364 77.4649 63.544Z" fill="url(#paint22_linear_1237_3)"/>
<path d="M94.193 48.0057C92.9911 48.5133 91.0173 48.4913 89.7822 47.9615C88.5472 47.4318 88.5472 46.6041 89.7822 46.1296C91.0173 45.644 92.9911 45.6661 94.193 46.1738C95.395 46.6704 95.395 47.498 94.193 48.0057Z" fill="url(#paint23_linear_1237_3)"/>
<path d="M153.971 53.0931C152.769 53.6007 150.795 53.5787 149.56 53.0489C148.325 52.5192 148.325 51.6915 149.56 51.217C150.795 50.7314 152.769 50.7535 153.971 51.2612C155.173 51.7578 155.173 52.5854 153.971 53.0931Z" fill="url(#paint24_linear_1237_3)"/>
<path d="M156.959 63.7316C155.757 64.2393 153.783 64.2172 152.548 63.6875C151.313 63.1578 151.313 62.3301 152.548 61.8556C153.783 61.37 155.757 61.3921 156.959 61.8997C158.161 62.3963 158.161 63.224 156.959 63.7316Z" fill="url(#paint25_linear_1237_3)"/>
<path d="M174.9 65.6849C173.698 66.1925 171.724 66.1705 170.489 65.6407C169.254 65.111 169.254 64.2833 170.489 63.8088C171.724 63.3232 173.698 63.3453 174.9 63.8529C176.102 64.3496 176.102 65.1772 174.9 65.6849Z" fill="url(#paint26_linear_1237_3)"/>
<path d="M175.341 74.0058C174.139 74.5135 172.165 74.4914 170.93 73.9617C169.695 73.432 169.695 72.6043 170.93 72.1297C172.165 71.6442 174.139 71.6662 175.341 72.1739C176.532 72.6705 176.532 73.4982 175.341 74.0058Z" fill="url(#paint27_linear_1237_3)"/>
<path d="M217.641 82.5476C216.439 83.0552 214.465 83.0331 213.23 82.5034C211.995 81.9737 211.995 81.146 213.23 80.6715C214.465 80.1859 216.439 80.208 217.641 80.7156C218.843 81.2233 218.843 82.0399 217.641 82.5476Z" fill="url(#paint28_linear_1237_3)"/>
<path d="M229.848 126.282C228.646 126.79 226.672 126.768 225.437 126.238C224.202 125.708 224.202 124.881 225.437 124.406C226.672 123.921 228.646 123.943 229.848 124.45C231.05 124.958 231.05 125.775 229.848 126.282Z" fill="url(#paint29_linear_1237_3)"/>
<path d="M228.227 143.013C227.025 143.52 225.051 143.498 223.816 142.968C222.581 142.439 222.581 141.611 223.816 141.136C225.051 140.651 227.025 140.673 228.227 141.181C229.418 141.677 229.418 142.505 228.227 143.013Z" fill="url(#paint30_linear_1237_3)"/>
<path d="M217.641 158.01C216.439 158.518 214.465 158.496 213.23 157.966C211.995 157.436 211.995 156.609 213.23 156.134C214.465 155.648 216.439 155.67 217.641 156.178C218.843 156.686 218.843 157.502 217.641 158.01Z" fill="url(#paint31_linear_1237_3)"/>
<path d="M197.219 157.823C196.017 158.33 194.043 158.308 192.808 157.778C191.573 157.249 191.573 156.421 192.808 155.947C194.043 155.461 196.017 155.483 197.219 155.991C198.421 156.498 198.421 157.315 197.219 157.823Z" fill="url(#paint32_linear_1237_3)"/>
<path d="M156.959 176.462C155.757 176.97 153.783 176.948 152.548 176.418C151.313 175.888 151.313 175.06 152.548 174.586C153.783 174.1 155.757 174.122 156.959 174.63C158.15 175.138 158.15 175.954 156.959 176.462Z" fill="url(#paint33_linear_1237_3)"/>
<path d="M99.7726 164.102C98.5707 164.61 96.5968 164.588 95.3618 164.058C94.1268 163.528 94.1268 162.7 95.3618 162.226C96.5968 161.74 98.5707 161.762 99.7726 162.27C100.975 162.767 100.975 163.594 99.7726 164.102Z" fill="url(#paint34_linear_1237_3)"/>
<path d="M59.7115 187.718C58.5095 188.226 56.5357 188.204 55.3007 187.674C54.0656 187.144 54.0656 186.317 55.3007 185.842C56.5357 185.357 58.5095 185.379 59.7115 185.886C60.9134 186.383 60.9134 187.211 59.7115 187.718Z" fill="url(#paint35_linear_1237_3)"/>
<path d="M41.9579 139.194C40.756 139.702 38.7821 139.68 37.5471 139.15C36.3121 138.62 36.3121 137.793 37.5471 137.318C38.7821 136.832 40.756 136.854 41.9579 137.362C43.1599 137.859 43.1599 138.686 41.9579 139.194Z" fill="url(#paint36_linear_1237_3)"/>
<path d="M28.9902 129.427C27.7882 129.935 25.8144 129.913 24.5793 129.383C23.3443 128.854 23.3443 128.026 24.5793 127.551C25.8144 127.066 27.7882 127.088 28.9902 127.595C30.1811 128.092 30.1811 128.92 28.9902 129.427Z" fill="url(#paint37_linear_1237_3)"/>
<path d="M85.3273 88.6394C84.1254 89.147 82.1515 89.1249 80.9165 88.5952C79.6815 88.0655 79.6815 87.2378 80.9165 86.7633C82.1515 86.2777 84.1254 86.2998 85.3273 86.8074C86.5182 87.3151 86.5182 88.1317 85.3273 88.6394Z" fill="url(#paint38_linear_1237_3)"/>
<path d="M185.486 109.155L111.792 66.6671V0L185.486 42.4767V109.155Z" fill="url(#paint39_linear_1237_3)"/>
<path d="M132.302 47.9393L115.795 38.2499V5.92615L132.302 15.6156V47.9393Z" fill="white"/>
<path d="M177.315 75.1535L160.807 65.4641V33.1404L177.315 42.8298V75.1535Z" fill="white"/>
<path d="M138.345 29.6311V61.9549L154.853 71.6443V39.3205L138.345 29.6311ZM152.89 66.6671L140.297 59.2732V34.6193L152.89 42.0132V66.6671Z" fill="white"/>
<path d="M161.315 69.371V87.1055L177.822 96.4417V78.6962L161.315 69.371ZM175.87 93.6938L163.277 85.6267V72.0968L175.87 80.164V93.6938Z" fill="white"/>
<path d="M132.302 73.5865L115.795 63.886V40.446L132.302 50.1354V73.5865Z" fill="white"/>
<path d="M34.9117 113.58L57.6495 100.414L80.4314 113.58L57.6716 126.922L34.9117 113.58Z" fill="url(#paint40_linear_1237_3)"/>
<path d="M34.9117 113.58V120.389L57.6716 133.456V126.735L34.9117 113.58Z" fill="#CADFE9"/>
<path d="M80.4312 113.58V120.389L57.6714 133.456V126.735L80.4312 113.58Z" fill="#B1D1E1"/>
<path d="M34.9117 115.357V118.072L57.6716 130.95V128.269L34.9117 115.357Z" fill="url(#paint41_linear_1237_3)"/>
<path d="M80.4312 115.357V118.072L57.6714 130.95V128.269L80.4312 115.357Z" fill="url(#paint42_linear_1237_3)"/>
<g opacity="0.6">
<path d="M66.8349 117.089C61.8727 119.186 53.7237 119.098 48.6182 116.902C43.5127 114.706 43.5127 111.307 48.6182 109.32C53.7237 107.334 61.8727 107.411 66.8349 109.508C71.797 111.605 71.797 115.004 66.8349 117.089Z" fill="#F57A00"/>
</g>
<path d="M71.1355 135.431L93.8733 122.265L116.655 135.431L93.8953 148.773L71.1355 135.431Z" fill="url(#paint43_linear_1237_3)"/>
<path d="M71.1355 135.431V142.24L93.8953 155.306V148.586L71.1355 135.431Z" fill="#CADFE9"/>
<path d="M116.655 135.431V142.24L93.8953 155.306V148.586L116.655 135.431Z" fill="#B1D1E1"/>
<path d="M71.1355 137.208V139.923L93.8953 152.801V150.12L71.1355 137.208Z" fill="url(#paint44_linear_1237_3)"/>
<path d="M116.655 137.208V139.923L93.8953 152.801V150.12L116.655 137.208Z" fill="url(#paint45_linear_1237_3)"/>
<g opacity="0.6">
<path d="M103.059 138.94C98.0966 141.037 89.9476 140.949 84.8421 138.753C79.7366 136.557 79.7366 133.158 84.8421 131.171C89.9476 129.185 98.0966 129.262 103.059 131.359C108.01 133.456 108.01 136.855 103.059 138.94Z" fill="#F57A00"/>
</g>
<path d="M108.264 158.253L131.012 145.076L153.783 158.253L131.023 171.595L108.264 158.253Z" fill="url(#paint46_linear_1237_3)"/>
<path d="M108.264 158.253V165.062L131.023 178.128V171.396L108.264 158.253Z" fill="#CADFE9"/>
<path d="M153.783 158.253V165.062L131.023 178.128V171.396L153.783 158.253Z" fill="#B1D1E1"/>
<path d="M108.264 160.019V162.745L131.023 175.623V172.942L108.264 160.019Z" fill="url(#paint47_linear_1237_3)"/>
<path d="M153.783 160.019V162.745L131.023 175.623V172.942L153.783 160.019Z" fill="url(#paint48_linear_1237_3)"/>
<g opacity="0.6">
<path d="M140.187 161.762C135.225 163.859 127.076 163.771 121.97 161.575C116.865 159.379 116.865 155.98 121.97 153.993C127.076 152.007 135.225 152.084 140.187 154.181C145.149 156.277 145.149 159.665 140.187 161.762Z" fill="#F57A00"/>
</g>
<path d="M62.5344 55.9956V58.28L64.1995 59.2512V55.9956H62.5344Z" fill="white"/>
<path d="M64.1996 55.9955V59.251L65.0052 58.7986V55.9955H64.1996Z" fill="white"/>
<path d="M63.1629 61.3368C63.7142 58.9641 64.0891 57.0328 64.0891 57.0328H62.6887L60.781 61.3368H63.1629Z" fill="#FFD5AA"/>
<path d="M64.034 57.6177C64.034 57.6177 65.1477 57.1321 65.3021 56.2824C65.4675 55.4326 65.3793 54.8698 65.3021 54.2959C65.2249 53.7221 63.8686 54.0531 63.6811 54.0531C63.4826 54.0531 62.5895 53.5234 62.1484 54.2959C61.6963 55.0684 61.586 56.9555 62.4461 57.6067H64.034V57.6177Z" fill="#FFD5AA"/>
<path d="M64.1995 54.5719V52.6848L62.5344 51.7136V54.5719H64.1995Z" fill="white"/>
<path d="M64.1995 52.6848L62.5344 51.7136L64.9714 50.301L66.6365 51.2391L64.1995 52.6848Z" fill="#333333"/>
<path d="M64.1996 53.391V52.6847L66.6366 51.239V51.9674L64.1996 53.391Z" fill="white"/>
<path d="M65.0052 54.5718V52.4309L64.1996 52.8944V54.5718H65.0052Z" fill="white"/>
<path d="M75.4249 57.4633V59.7366L77.09 60.7188V57.4633H75.4249Z" fill="white"/>
<path d="M77.0901 57.4633V60.7188L77.8847 60.2553V57.4633H77.0901Z" fill="white"/>
<path d="M76.9798 58.5007C76.9798 58.5007 74.642 70.2206 73.2636 71.5008L71.4552 67.7928L75.5683 58.4896H76.9798V58.5007Z" fill="#FFD5AA"/>
<path d="M73.3188 69.117C72.3704 68.3335 65.4785 62.4845 65.4785 62.4845L62.0712 64.8461C62.0712 64.8461 69.8232 70.9489 71.0472 71.6111C71.0472 71.6111 72.5579 72.3063 73.2746 71.5228C73.9914 70.7503 73.9914 69.6798 73.3188 69.117Z" fill="#FFD5AA"/>
<path d="M52.169 107.83C52.169 107.83 50.6693 110.424 50.8457 113.359C50.8457 113.359 53.6907 115.004 55.1352 113.624C55.1352 113.624 60.0974 113.249 60.4834 112.499C60.4834 112.499 60.3731 111.406 59.6343 110.887C58.8955 110.369 55.0691 110.192 54.617 109.784L52.169 107.83Z" fill="white"/>
<path d="M59.2483 112.741C59.2483 112.741 57.7046 115.82 58.3331 117.983C58.3331 117.983 59.3586 119.672 61.7735 118.469C61.7735 118.469 62.7549 118.05 63.9569 118.237C65.5448 118.491 67.1437 117.829 67.3753 117.332C67.3753 117.332 67.9376 116.173 67.0334 115.898C64.8501 115.213 62.2256 115.015 61.7515 114.628L59.2483 112.741Z" fill="white"/>
<path d="M48.9822 81.4109C48.9822 81.4109 49.0263 82.2496 55.0581 92.1266C55.0581 92.1266 53.9443 94.7421 53.5143 97.1368C53.1725 99.0681 51.353 108.912 51.353 108.912C51.353 108.912 52.2131 111.086 55.422 110.038C55.422 110.038 58.5867 99.4874 59.2373 97.4789C59.899 95.4373 60.4944 94.2896 59.7666 88.9483C59.1712 84.5561 56.8334 77.5483 56.8334 77.5483L48.9822 81.4109Z" fill="#1B1425"/>
<path d="M52.4226 80.1859C52.4226 80.1859 49.5555 81.7088 60.4833 94.4772C60.4833 94.4772 61.972 96.7727 61.6081 97.6114C60.8913 99.2005 60.6487 100.359 60.4833 101.209C60.3179 102.048 58.5867 111.086 58.5757 113.426C58.5757 113.426 59.2593 116.46 62.6336 114.893C62.6336 114.893 66.1292 102.158 67.0003 97.7659C67.5847 94.8083 61.961 82.7573 61.564 80.6384L52.4226 80.1859Z" fill="#1B1425"/>
<path d="M58.267 57.0108C58.267 57.0108 60.329 57.5184 61.2663 57.6619C61.2663 57.6619 63.979 65.1441 62.2036 71.3131C61.9721 72.1298 62.2808 77.8573 62.8101 83.3421C62.8101 83.3421 58.8514 84.5561 52.9078 83.5187C50.9561 83.1766 48.8499 81.9516 48.6294 81.5323C48.6294 81.5323 48.3647 78.1112 49.5115 72.6485C49.5115 72.6485 50.2393 69.5143 49.4343 66.5015C47.7913 60.2994 48.8058 57.1211 49.7982 55.7748C49.7982 55.7748 50.4268 54.8809 52.4557 55.4437L58.267 57.0108Z" fill="#7103A4"/>
<path d="M59.513 45.6661C59.513 45.6661 60.0423 46.5158 60.1195 48.3588C60.1195 48.3588 60.2077 50.9412 60.1856 51.4819C60.1636 52.0227 59.7776 54.274 59.6343 54.4947C59.4579 54.7595 59.0499 54.8257 59.0499 54.8257C59.0499 54.8257 58.5206 54.914 57.7266 54.8478C57.7266 54.8478 57.6935 55.9293 57.8589 57.2426C58.0133 58.5448 53.5363 57.9599 52.8306 56.7239C52.8306 56.7239 53.2276 53.7994 52.9298 53.4021C52.9298 53.4021 51.5515 50.6542 51.342 49.1975C51.1986 48.2153 51.3309 45.0701 54.231 44.1211C55.7969 43.6024 57.1642 44.0879 59.513 45.6661Z" fill="#FFD5AA"/>
<path d="M52.9078 53.3911C52.8967 53.38 52.8967 53.38 52.8967 53.369C52.8967 53.358 52.8857 53.358 52.8857 53.3469C52.8857 53.3359 52.8747 53.3359 52.8747 53.3249C52.8636 53.3138 52.8636 53.2918 52.8526 53.2697C52.8526 53.2586 52.8416 53.2586 52.8416 53.2476C52.8306 53.2255 52.8195 53.2145 52.8085 53.1924C52.8085 53.1814 52.7975 53.1704 52.7975 53.1593C52.7865 53.1373 52.7754 53.1152 52.7644 53.0821C52.7644 53.071 52.7534 53.06 52.7534 53.049C52.7313 53.0159 52.7203 52.9717 52.6982 52.9276C52.6982 52.9276 52.6982 52.9165 52.6872 52.9055C52.6652 52.8724 52.6541 52.8282 52.6321 52.7841C52.6211 52.7731 52.6211 52.762 52.61 52.751C52.588 52.7069 52.5659 52.6627 52.5549 52.6186C52.5549 52.6075 52.5439 52.5965 52.5439 52.5855C52.5218 52.5303 52.4887 52.4751 52.4667 52.4089V52.3979C52.4446 52.3427 52.4115 52.2875 52.3895 52.2213C52.3895 52.2102 52.3785 52.1992 52.3785 52.1882C52.2902 51.9895 52.202 51.7799 52.1138 51.5591V51.5481C52.0256 51.3163 51.9264 51.0846 51.8381 50.8528C52.8636 49.8376 54.242 48.7781 54.7824 48.7229C55.7086 48.6347 55.6866 51.504 55.9402 52.144C56.5246 53.6449 58.5095 54.0532 59.0167 54.285C59.2593 54.3953 59.535 54.2739 59.7445 54.1305C59.7004 54.296 59.6673 54.4174 59.6453 54.4505C59.4688 54.7154 59.0608 54.7816 59.0608 54.7816C59.0608 54.7816 58.5315 54.8699 57.7376 54.8037C57.7376 54.8037 57.7045 55.8852 57.8699 57.1984C58.0243 58.5006 53.5473 57.9157 52.8416 56.6797C52.8195 56.7239 53.2165 53.7994 52.9078 53.3911Z" fill="#FFD5AA"/>
<path d="M51.3529 46.1737C51.7719 45.3129 52.5107 44.5183 53.7458 44.121C55.3226 43.6134 56.69 44.0989 59.0388 45.666C59.0388 45.666 59.8548 46.0412 60.0202 47.3103C59.4578 47.4317 58.0684 47.6525 56.4695 47.1669C54.1869 46.4716 52.4225 46.2068 51.3529 46.1737Z" fill="#FFD5AA"/>
<path d="M56.6238 51.0072C56.6238 51.0072 56.2269 50.4333 56.0284 50.1574C55.8299 49.8815 55.3116 49.1311 55.1462 49.3849C54.9808 49.6388 55.069 50.5547 55.466 51.2941C55.8519 52.0446 55.4329 53.5454 55.2234 53.8323C55.0139 54.1193 53.4701 53.9868 53.018 53.8434C53.018 53.8434 52.1028 51.7576 51.5735 50.952C50.5149 49.3077 50.6582 46.3942 51.4191 45.4672C51.4191 45.4672 51.9925 43.9443 53.6686 43.5801C54.6721 43.3594 56.293 43.6905 58.1345 44.3195C59.0829 44.6506 60.0643 45.5003 60.1746 46.1515C60.1746 46.1515 60.373 46.9571 59.8217 47.1226C59.1711 47.3102 57.8037 46.8246 57.4178 46.946C57.4178 46.946 57.6163 48.0386 57.2303 48.5241C57.2303 48.5241 56.7782 48.8994 56.7782 50.1685C56.7782 50.1795 57.0429 50.7754 56.6238 51.0072Z" fill="#3C3C3C"/>
<path d="M66.0078 68.6315C64.7617 67.8039 60.8582 64.9456 59.4467 64.151C56.9105 62.7384 55.907 56.5915 60.781 57.5958C60.781 57.5958 61.9939 57.4192 64.9382 60.6416C66.2835 62.1094 67.0112 62.308 69.4482 65.067C69.0843 66.0823 68.3565 68.1901 66.0078 68.6315Z" fill="#7103A4"/>
<path d="M60.2187 48.3588C60.2187 48.3588 58.1787 48.4912 57.892 48.7671C57.5942 49.0319 57.8258 51.206 58.0684 51.3605C58.311 51.515 60.0864 51.4819 60.3841 51.3605C60.3841 51.3605 60.7811 49.9369 60.2187 48.3588Z" fill="white"/>
<path d="M60.3841 51.3605C60.3841 51.3605 60.715 50.1907 60.3511 48.7892C59.7666 48.8444 58.5536 48.9658 58.3331 49.1754C58.1015 49.3851 58.1898 50.7867 58.3662 51.4378C58.9396 51.4929 60.1415 51.4488 60.3841 51.3605Z" fill="#7C80B2"/>
<path d="M57.9581 49.4623C57.9581 49.4623 57.9581 49.9037 57.9581 50.5217C57.9581 50.5217 52.3674 51.1177 50.9338 49.683C50.9338 49.683 50.7574 49.4071 50.6692 48.3587L50.8125 48.149C50.8125 48.149 50.3053 49.9037 57.9581 49.4623Z" fill="#4C4C4C"/>
<path d="M56.3812 50.6431C56.3812 50.6431 55.7637 49.4844 55.3888 49.3961C55.0249 49.3078 54.7161 50.4997 55.7968 51.6033L56.3812 50.6431Z" fill="#FFD5AA"/>
<path d="M76.9247 59.0855C76.9247 59.0855 78.0385 58.5999 78.1929 57.7501C78.3583 56.9004 78.27 56.3376 78.1929 55.7637C78.1157 55.1898 76.7593 55.5209 76.5719 55.5209C76.3734 55.5209 75.4802 54.9912 75.0391 55.7637C74.587 56.5362 74.4767 58.4233 75.3368 59.0744H76.9247V59.0855Z" fill="#FFD5AA"/>
<path d="M77.09 56.0396V54.1525L75.4249 53.1703V56.0396H77.09Z" fill="white"/>
<path d="M77.09 54.1526L75.4249 53.1704L77.8619 51.7578L79.527 52.7069L77.09 54.1526Z" fill="#333333"/>
<path d="M77.0901 54.8477V54.1525L79.5271 52.7068V53.4351L77.0901 54.8477Z" fill="white"/>
<path d="M77.8847 56.0396V53.8987L77.0901 54.3622V56.0396H77.8847Z" fill="white"/>
<path d="M89.1977 131.701C89.1977 131.701 88.1832 132.837 89.1867 134.868C89.1867 134.868 89.749 135.497 90.8628 134.824C90.8628 134.824 91.6126 134.394 92.6712 134.824C94.1599 135.431 96.0345 134.294 96.1668 133.764C96.1668 133.764 96.5417 133.047 95.6044 132.926C93.3218 132.65 91.9214 131.756 91.3921 131.458L89.1977 131.701Z" fill="white"/>
<path d="M89.0875 117.884H93.6637C92.528 122.806 91.2157 131.889 91.2157 131.889C90.091 132.76 89.1868 131.9 89.1868 131.9C89.3191 129.692 89.1316 120.003 89.0875 117.884Z" fill="#FFD5AA"/>
<path d="M89.0767 134.658L89.5729 135.608C89.5729 135.608 90.0691 135.883 90.7969 135.608L91.4034 134.074L89.0767 134.658Z" fill="white"/>
<path d="M95.6155 133.919C95.6155 133.919 94.6011 135.056 95.6045 137.086C95.6045 137.086 96.1669 137.715 97.2806 137.042C97.2806 137.042 98.0305 136.612 99.0891 137.042C100.578 137.649 102.452 136.512 102.585 135.983C102.585 135.983 102.96 135.265 102.022 135.144C99.7397 134.868 98.3392 133.974 97.8099 133.676L95.6155 133.919Z" fill="white"/>
<path d="M100.313 119.153C100.302 119.197 100.291 119.23 100.28 119.263C99.0779 123.921 97.7547 134.007 97.7547 134.007C96.3322 135.21 95.6044 134.107 95.6044 134.107C95.7478 131.734 95.5162 120.599 95.4941 119.738C95.4941 119.572 95.4941 119.374 95.5162 119.153H100.313Z" fill="#FFD5AA"/>
<path d="M101.416 94.069C101.416 94.069 103.246 114.121 102.43 120.632C102.43 120.632 94.7997 125.918 87.6873 120.632C87.6873 120.632 88.0511 97.5342 89.1759 94.5987L101.416 94.069Z" fill="#BA519A"/>
<path d="M95.4941 136.877L95.9904 137.826C95.9904 137.826 96.4866 138.102 97.2144 137.826L97.8209 136.292L95.4941 136.877Z" fill="white"/>
<path d="M102.386 70.9268V73.2112L104.051 74.1933V70.9268H102.386Z" fill="white"/>
<path d="M104.051 70.9268V74.1933L104.857 73.7298V70.9268H104.051Z" fill="white"/>
<path d="M103.015 76.2792C103.566 73.8955 103.952 71.9642 103.952 71.9642H102.551L100.644 76.2792H103.015Z" fill="#FFD5AA"/>
<path d="M103.886 72.5492C103.886 72.5492 105 72.0636 105.165 71.2139C105.33 70.3641 105.242 69.7903 105.165 69.2274C105.088 68.6536 103.731 68.9847 103.533 68.9847C103.334 68.9847 102.441 68.4549 101.989 69.2274C101.537 69.9999 101.427 71.8981 102.287 72.5492H103.886Z" fill="#FFD5AA"/>
<path d="M104.051 69.5033V67.6051L102.386 66.6229V69.5033H104.051Z" fill="white"/>
<path d="M104.051 67.6051L102.386 66.6229L104.834 65.2103L106.499 66.1484L104.051 67.6051Z" fill="#333333"/>
<path d="M104.051 68.3003V67.605L106.499 66.1483V66.8877L104.051 68.3003Z" fill="white"/>
<path d="M104.857 69.5034V67.3514L104.051 67.8149V69.5034H104.857Z" fill="white"/>
<path d="M115.42 72.3395V74.6349L117.096 75.6171V72.3395H115.42Z" fill="white"/>
<path d="M117.096 72.3395V75.6171L117.902 75.1536V72.3395H117.096Z" fill="white"/>
<path d="M116.986 73.3879C116.986 73.3879 114.648 85.1521 113.259 86.4432L111.45 82.7242L115.585 73.3879H116.986Z" fill="#FFD5AA"/>
<path d="M113.204 84.0926C112.244 83.309 105.33 77.438 105.33 77.438L101.912 79.8107C101.912 79.8107 109.697 85.9355 110.921 86.5977C110.921 86.5977 112.443 87.2929 113.159 86.5094C113.887 85.7369 113.887 84.6554 113.204 84.0926Z" fill="#FFD5AA"/>
<path d="M98.1078 71.9422C98.1078 71.9422 100.17 72.4498 101.118 72.5933C101.118 72.5933 103.588 77.427 103.588 79.3693C103.588 79.9652 102.949 82.371 101.372 83.607C100.699 84.1367 101.736 88.3303 101.912 96.6071C101.912 96.6071 98.7363 98.8253 92.7707 97.788C90.8079 97.4459 88.7017 96.2099 88.4811 95.8015C88.4811 95.8015 88.6024 93.4178 89.7603 87.933C89.7603 87.933 90.2896 85.759 89.242 81.4881C87.6982 75.2419 88.6135 72.0746 89.6169 70.7172C89.6169 70.7172 90.2455 69.8123 92.2855 70.3862L98.1078 71.9422Z" fill="#7D3B8A"/>
<path d="M99.3537 60.5532C99.3537 60.5532 99.8941 61.414 99.9602 63.257C99.9602 63.257 100.048 65.8504 100.026 66.3911C100.004 66.9319 99.6184 69.1942 99.475 69.4149C99.2986 69.6908 98.8906 69.746 98.8906 69.746C98.8906 69.746 98.3613 69.8343 97.5674 69.7681C97.5674 69.7681 97.5343 70.8606 97.6997 72.1739C97.8651 73.4761 93.355 72.8912 92.6493 71.6552C92.6493 71.6552 93.0573 68.7197 92.7485 68.3114C92.7485 68.3114 91.3702 65.5635 91.1606 64.0847C91.0173 63.1025 91.1496 59.9352 94.0608 58.9972C95.6156 58.4895 96.9939 58.9751 99.3537 60.5532Z" fill="#FFD5AA"/>
<path d="M92.7265 68.3115C92.7155 68.3004 92.7155 68.3004 92.7155 68.2894C92.7155 68.2784 92.7044 68.2784 92.7044 68.2673C92.7044 68.2563 92.6934 68.2563 92.6934 68.2453C92.6824 68.2342 92.6824 68.2122 92.6713 68.1901C92.6713 68.1791 92.6603 68.168 92.6603 68.168C92.6493 68.1459 92.6383 68.1239 92.6272 68.1128C92.6272 68.1018 92.6162 68.0908 92.6162 68.0797C92.6052 68.0577 92.5942 68.0356 92.5831 68.0025C92.5721 67.9914 92.5721 67.9804 92.5721 67.9694C92.55 67.9363 92.539 67.8921 92.517 67.848C92.517 67.848 92.517 67.8369 92.5059 67.8259C92.4839 67.7928 92.4729 67.7487 92.4508 67.7045C92.4398 67.6935 92.4398 67.6824 92.4288 67.6714C92.4067 67.6273 92.3846 67.5831 92.3736 67.539C92.3736 67.5279 92.3626 67.5169 92.3626 67.5059C92.3405 67.4507 92.3075 67.3955 92.2854 67.3293V67.3183C92.2633 67.2631 92.2303 67.2079 92.2082 67.1417C92.2082 67.1307 92.1972 67.1196 92.1972 67.1086C92.109 66.9099 92.0208 66.7003 91.9325 66.4795V66.4685C91.8333 66.2368 91.7451 66.005 91.6569 65.7733C92.6824 64.7469 94.0718 63.6875 94.6121 63.6434C95.5384 63.5551 95.5163 66.4244 95.7699 67.0755C96.3544 68.5763 98.3503 68.9847 98.8575 69.2274C99.1001 69.3378 99.3758 69.2164 99.5853 69.073C99.5412 69.2385 99.5081 69.3599 99.4861 69.393C99.3096 69.6689 98.9016 69.7241 98.9016 69.7241C98.9016 69.7241 98.3723 69.8123 97.5784 69.7461C97.5784 69.7461 97.5453 70.8387 97.7107 72.1519C97.8761 73.4541 93.3661 72.8692 92.6603 71.6332C92.6383 71.6553 93.0352 68.7198 92.7265 68.3115Z" fill="#FFD5AA"/>
<path d="M91.1715 61.0609C91.6016 60.2001 92.3293 59.3945 93.5644 58.9972C95.1412 58.4895 96.5196 58.9751 98.8684 60.5532C98.8684 60.5532 99.6844 60.9284 99.8498 62.1975C99.2874 62.3189 97.898 62.5397 96.2881 62.0541C94.0165 61.3699 92.2411 61.105 91.1715 61.0609Z" fill="#FFD5AA"/>
<path d="M96.4536 65.9166C96.4536 65.9166 96.0566 65.3428 95.8581 65.0669C95.6597 64.791 95.2958 64.4489 95.1414 64.7027C94.976 64.9565 94.8988 65.4642 95.2958 66.2146C95.6817 66.965 95.2627 68.4769 95.0532 68.7639C94.8436 69.0508 93.2888 68.9184 92.8367 68.7749C92.8367 68.7749 91.9105 66.6781 91.3922 65.8725C90.3336 64.2171 90.4659 61.3037 91.2378 60.3767C91.2378 60.3767 91.8222 58.8537 93.4984 58.4896C94.5018 58.2688 96.1338 58.5999 97.9753 59.24C98.9237 59.5711 99.9161 60.4208 100.026 61.083C100.026 61.083 100.368 61.8224 99.8168 61.9879C99.1552 62.1755 98.1848 61.7782 97.7989 61.8996C97.7989 61.8996 97.4571 62.9811 97.0711 63.4667C97.0711 63.4667 96.619 63.8419 96.619 65.1221C96.619 65.0889 96.8726 65.6849 96.4536 65.9166Z" fill="#3C3C3C"/>
<path d="M104.195 82.1613C102.937 81.3336 100.765 79.8438 99.5632 78.7402C97.3026 76.6765 95.7258 71.5228 100.622 72.5381C100.622 72.5381 101.846 72.3616 104.79 75.584C106.135 77.0628 106.312 77.6587 107.106 78.5637C107.117 79.281 106.543 81.7199 104.195 82.1613Z" fill="#7D3B8A"/>
<path d="M100.059 63.2571C100.059 63.2571 98.0083 63.3895 97.7216 63.6654C97.4238 63.9413 97.6554 66.1043 97.898 66.2698C98.1516 66.4243 99.927 66.3912 100.225 66.2698C100.225 66.2698 100.622 64.8462 100.059 63.2571Z" fill="white"/>
<path d="M100.225 66.2698C100.225 66.2698 100.556 65.0889 100.192 63.6874C99.6074 63.7315 98.3834 63.864 98.1628 64.0736C97.9313 64.2943 98.0195 65.6849 98.1959 66.347C98.7803 66.4132 99.9823 66.3691 100.225 66.2698Z" fill="#7C80B2"/>
<path d="M97.7877 64.3715C97.7877 64.3715 97.7877 64.813 97.7877 65.442C97.7877 65.442 92.175 66.0379 90.7415 64.5922C90.7415 64.5922 90.565 64.3164 90.4768 63.268L90.6202 63.0583C90.6202 63.0472 90.1129 64.813 97.7877 64.3715Z" fill="#4C4C4C"/>
<path d="M96.2109 65.5524C96.2109 65.5524 95.5824 64.3826 95.2185 64.2943C94.8546 64.206 94.5458 65.3979 95.6265 66.5125L96.2109 65.5524Z" fill="#FFD5AA"/>
<path d="M116.931 73.9728C116.931 73.9728 118.044 73.4872 118.21 72.6375C118.375 71.7877 118.287 71.2139 118.21 70.651C118.133 70.0882 116.776 70.4082 116.578 70.4082C116.379 70.4082 115.486 69.8785 115.034 70.651C114.582 71.4235 114.472 73.3217 115.332 73.9728H116.931Z" fill="#FFD5AA"/>
<path d="M117.096 70.9159V69.0177L115.42 68.0355V70.9159H117.096Z" fill="white"/>
<path d="M117.096 69.0177L115.42 68.0355L117.879 66.6229L119.544 67.572L117.096 69.0177Z" fill="#333333"/>
<path d="M117.096 69.724V69.0177L119.544 67.572V68.3004L117.096 69.724Z" fill="white"/>
<path d="M117.902 70.9159V68.7639L117.096 69.2274V70.9159H117.902Z" fill="white"/>
<path d="M93.1454 59.2179C93.1454 59.2179 91.7229 57.5184 89.2859 59.2179C86.849 60.9174 87.7091 65.0558 87.9737 66.7222C88.2494 68.3996 88.8118 75.8377 87.3893 76.4668C87.3893 76.4668 91.8001 77.2282 91.8442 73.0788C91.9104 66.4904 90.7636 59.9683 92.9249 60.2552C92.9249 60.2663 93.3329 59.6041 93.1454 59.2179Z" fill="#3C3C3C"/>
<path d="M92.9802 59.0634C92.9802 59.0634 92.9471 59.549 92.616 60.2884C92.616 60.2884 92.5829 60.5974 92.9802 60.487C93.3775 60.3767 93.7417 58.8096 92.9802 59.0634Z" fill="url(#paint49_linear_1237_3)"/>
<path d="M138.257 93.0756C138.257 93.0756 147.222 88.5399 148.424 87.8778C148.424 87.8778 151.28 83.9159 153.077 80.4397C153.077 80.4397 154.434 79.4133 154.577 80.9804C154.731 82.5475 151.203 90.2946 150.001 91.2768C148.799 92.259 139.216 97.5892 139.216 97.5892L138.257 93.0756Z" fill="#FFD5AA"/>
<path d="M123.602 151.786C123.602 151.786 122.466 154.92 123.238 158.087C123.238 158.087 126.679 159.334 127.991 157.536C127.991 157.536 133.35 156.145 133.615 155.251C133.615 155.251 133.284 154.081 132.369 153.651C131.453 153.232 127.241 153.783 126.657 153.43L123.602 151.786Z" fill="white"/>
<path d="M131.387 157.171C131.387 157.171 130.329 160.846 131.431 163.087C131.431 163.087 132.898 164.72 135.291 162.921C135.291 162.921 136.283 162.259 137.629 162.226C139.415 162.182 141.036 161.144 141.179 160.548C141.179 160.548 141.554 159.169 140.518 159.047C137.993 158.738 135.081 159.059 134.486 158.727L131.387 157.171Z" fill="white"/>
<path d="M124.44 115.887C124.44 115.887 124.881 128.567 124.341 132.363C124.341 132.363 122.974 137.108 122.974 139.823C122.974 142.008 122.918 153.132 122.918 153.132C122.918 153.132 124.253 156.024 127.55 154.247C127.55 154.247 128.267 141.39 128.586 139.062C128.917 136.7 131.553 130.542 131.597 125.62C131.63 120.698 130.494 112.719 130.494 112.719L124.44 115.887Z" fill="#1B1425"/>
<path d="M129.094 114.375C129.094 114.375 128.057 124.208 131.012 133.588C131.012 133.588 131.894 135.983 131.431 137.837C130.957 139.713 130.163 142.185 130.053 143.123C129.943 144.072 130.34 155.472 130.792 158.043C130.792 158.043 132.148 161.221 135.533 158.827C135.533 158.827 135.18 146.676 137.011 142.052C138.676 137.848 138.996 119.418 138.566 117.067L129.094 114.375Z" fill="#1B1425"/>
<path d="M134.254 91.2437C134.254 91.2437 137.684 91.4203 138.731 91.5858C138.731 91.5858 140.606 100.282 138.632 107.146C138.367 108.062 138.72 114.419 139.305 120.522C139.305 120.522 134.905 121.879 128.289 120.72C126.116 120.345 123.778 118.977 123.536 118.513C123.536 118.513 123.238 114.706 124.517 108.636C124.517 108.636 125.322 105.149 124.429 101.805C122.61 94.9076 123.734 91.3762 124.837 89.8753C124.837 89.8753 125.532 88.8821 127.792 89.5111L134.254 91.2437Z" fill="#7103A4"/>
<path d="M135.633 78.6299C135.633 78.6299 136.228 79.5789 136.305 81.6316C136.305 81.6316 136.405 84.5009 136.371 85.0968C136.349 85.6928 135.919 88.1979 135.754 88.4517C135.555 88.7497 135.103 88.8269 135.103 88.8269C135.103 88.8269 134.508 88.9262 133.637 88.849C133.637 88.849 133.604 90.0519 133.78 91.5196C133.957 92.9653 128.972 92.3142 128.189 90.9348C128.189 90.9348 128.641 87.6792 128.289 87.2378C128.289 87.2378 126.756 84.1919 126.524 82.5586C126.37 81.4661 126.502 77.9677 129.733 76.9193C131.509 76.3455 133.03 76.8862 135.633 78.6299Z" fill="#FFD5AA"/>
<path d="M128.299 87.2268C128.288 87.2158 128.288 87.2047 128.288 87.2047C128.288 87.2047 128.277 87.1937 128.277 87.1827C128.277 87.1716 128.266 87.1716 128.266 87.1606C128.255 87.1496 128.244 87.1275 128.233 87.1054C128.233 87.0944 128.222 87.0834 128.222 87.0723C128.211 87.0502 128.2 87.0282 128.189 87.0061C128.178 86.9951 128.178 86.984 128.167 86.973C128.156 86.9509 128.145 86.9178 128.123 86.8957C128.112 86.8847 128.112 86.8737 128.101 86.8626C128.079 86.8185 128.057 86.7744 128.035 86.7302C128.035 86.7192 128.024 86.7192 128.024 86.7081C128.002 86.664 127.98 86.6198 127.958 86.5757C127.947 86.5647 127.947 86.5426 127.936 86.5316C127.914 86.4874 127.891 86.4433 127.869 86.3881C127.869 86.3771 127.858 86.366 127.858 86.355C127.825 86.2888 127.803 86.2336 127.77 86.1674V86.1563C127.737 86.0901 127.715 86.035 127.682 85.9687C127.682 85.9577 127.671 85.9467 127.671 85.9356C127.572 85.7149 127.472 85.4832 127.373 85.2404V85.2293C127.274 84.9755 127.164 84.7107 127.064 84.4568C128.2 83.3202 129.744 82.1504 130.339 82.0952C131.365 82.0069 131.343 85.1852 131.619 85.9025C132.269 87.5689 134.475 88.0214 135.048 88.2863C135.324 88.4076 135.621 88.2752 135.853 88.1097C135.809 88.2973 135.765 88.4187 135.732 88.4739C135.533 88.7718 135.081 88.8491 135.081 88.8491C135.081 88.8491 134.486 88.9484 133.615 88.8711C133.615 88.8711 133.581 90.074 133.758 91.5418C133.934 92.9875 128.95 92.3364 128.167 90.9569C128.2 90.9238 128.652 87.6683 128.299 87.2268Z" fill="#FFD5AA"/>
<path d="M126.579 79.1926C127.054 78.2325 127.859 77.3497 129.237 76.9082C130.99 76.3454 132.512 76.8862 135.114 78.6298C135.114 78.6298 136.019 79.0381 136.195 80.4507C135.578 80.5831 134.023 80.837 132.247 80.2962C129.722 79.5347 127.759 79.2368 126.579 79.1926Z" fill="#FFD5AA"/>
<path d="M132.435 84.5672C132.435 84.5672 131.994 83.9271 131.773 83.6181C131.553 83.3091 130.968 82.4814 130.792 82.7573C130.604 83.0332 130.715 84.0595 131.145 84.8872C131.575 85.7149 131.111 87.3923 130.88 87.7124C130.648 88.0324 128.928 87.8889 128.421 87.7234C128.421 87.7234 127.395 85.4059 126.822 84.501C125.642 82.669 125.796 79.4355 126.657 78.4092C126.657 78.4092 127.296 76.7207 129.16 76.3124C130.273 76.0696 132.082 76.4338 134.122 77.1401C135.169 77.5043 136.272 78.4534 136.393 79.1707C136.393 79.1707 136.614 80.0646 135.996 80.2522C135.269 80.4619 133.758 79.9211 133.317 80.0646C133.317 80.0646 133.526 81.2895 133.107 81.8193C133.107 81.8193 132.611 82.2276 132.611 83.6512C132.611 83.6512 132.887 84.3133 132.435 84.5672Z" fill="#3C3C3C"/>
<path d="M146.693 94.1241C145.358 95.1173 140.892 98.119 139.536 99.3109C137.11 101.43 130.307 100.161 133.196 95.4373C133.196 95.4373 133.813 93.4068 137.717 91.9832C139.79 91.2217 141.025 90.4713 144.829 88.9594C146.241 89.3015 147.365 91.0451 146.693 94.1241Z" fill="#7103A4"/>
<path d="M152.879 80.804C152.879 80.804 153.651 77.9126 153.949 77.4932C154.246 77.0849 155.04 76.5883 155.04 76.5883C155.04 76.5883 156.827 74.2046 157.279 73.9066C157.279 73.9066 157.621 73.9397 157.499 74.4363C157.389 74.9219 156.143 77.0628 156.143 77.0628C156.143 77.0628 156.705 77.405 156.816 77.6257L156.849 77.8464C156.849 77.8464 157.488 78.0119 157.422 78.2768V78.652C157.422 78.652 157.698 78.8727 157.654 79.1376C157.621 79.4024 157.29 80.2853 157.29 80.2853C157.29 80.2853 156.992 80.6274 156.838 80.6936C156.683 80.7709 155.944 81.2123 155.944 81.2123L155.735 80.9364C155.735 80.9364 154.742 82.2607 154.323 82.2497L152.879 80.804Z" fill="#FFD5AA"/>
<path d="M136.416 81.6206C136.416 81.6206 134.144 81.7751 133.824 82.0731C133.504 82.371 133.747 84.7768 134.023 84.9534C134.298 85.13 136.272 85.0858 136.603 84.9534C136.603 84.9534 137.044 83.3753 136.416 81.6206Z" fill="white"/>
<path d="M136.603 84.9534C136.603 84.9534 136.967 83.6511 136.559 82.0951C135.908 82.1503 134.552 82.2937 134.309 82.5145C134.056 82.7462 134.155 84.3022 134.342 85.0306C135.004 85.1189 136.338 85.0637 136.603 84.9534Z" fill="#7C80B2"/>
<path d="M133.912 82.8567C133.912 82.8567 133.912 83.3422 133.912 84.0375C133.912 84.0375 127.704 84.6996 126.105 83.0995C126.105 83.0995 125.907 82.7905 125.818 81.6317L125.973 81.3999C125.973 81.3889 125.41 83.3533 133.912 82.8567Z" fill="#4C4C4C"/>
<path d="M132.159 84.1697C132.159 84.1697 131.464 82.8785 131.056 82.7792C130.648 82.6799 130.307 84.0042 131.509 85.2291L132.159 84.1697Z" fill="#FFD5AA"/>
<defs>
<linearGradient id="paint0_linear_1237_3" x1="55.3558" y1="114.027" x2="197.583" y2="114.027" gradientUnits="userSpaceOnUse">
<stop stop-color="#F57A00"/>
<stop offset="1" stop-color="#7103A4"/>
</linearGradient>
<linearGradient id="paint1_linear_1237_3" x1="54.1979" y1="150.108" x2="125.83" y2="150.108" gradientUnits="userSpaceOnUse">
<stop stop-color="#F57A00"/>
<stop offset="1" stop-color="#7103A4"/>
</linearGradient>
<linearGradient id="paint2_linear_1237_3" x1="39.4326" y1="133.891" x2="82.7909" y2="133.891" gradientUnits="userSpaceOnUse">
<stop stop-color="#F57A00"/>
<stop offset="1" stop-color="#7103A4"/>
</linearGradient>
<linearGradient id="paint3_linear_1237_3" x1="93.6305" y1="146.345" x2="126.149" y2="146.345" gradientUnits="userSpaceOnUse">
<stop stop-color="#F57A00"/>
<stop offset="1" stop-color="#7103A4"/>
</linearGradient>
<linearGradient id="paint4_linear_1237_3" x1="133.372" y1="145.484" x2="195.113" y2="145.484" gradientUnits="userSpaceOnUse">
<stop stop-color="#F57A00"/>
<stop offset="1" stop-color="#7103A4"/>
</linearGradient>
<linearGradient id="paint5_linear_1237_3" x1="125.521" y1="158.987" x2="158.668" y2="158.987" gradientUnits="userSpaceOnUse">
<stop stop-color="#F57A00"/>
<stop offset="1" stop-color="#7103A4"/>
</linearGradient>
<linearGradient id="paint6_linear_1237_3" x1="173.114" y1="130.376" x2="225.999" y2="130.376" gradientUnits="userSpaceOnUse">
<stop stop-color="#F57A00"/>
<stop offset="1" stop-color="#7103A4"/>
</linearGradient>
<linearGradient id="paint7_linear_1237_3" x1="183.964" y1="144.348" x2="216.163" y2="144.348" gradientUnits="userSpaceOnUse">
<stop stop-color="#F57A00"/>
<stop offset="1" stop-color="#7103A4"/>
</linearGradient>
<linearGradient id="paint8_linear_1237_3" x1="26.7626" y1="117.597" x2="101.173" y2="117.597" gradientUnits="userSpaceOnUse">
<stop stop-color="#F57A00"/>
<stop offset="1" stop-color="#7103A4"/>
</linearGradient>
<linearGradient id="paint9_linear_1237_3" x1="154.743" y1="114.032" x2="227.631" y2="114.032" gradientUnits="userSpaceOnUse">
<stop stop-color="#F57A00"/>
<stop offset="1" stop-color="#7103A4"/>
</linearGradient>
<linearGradient id="paint10_linear_1237_3" x1="166.21" y1="90.2009" x2="215.424" y2="90.2009" gradientUnits="userSpaceOnUse">
<stop stop-color="#F57A00"/>
<stop offset="1" stop-color="#7103A4"/>
</linearGradient>
<linearGradient id="paint11_linear_1237_3" x1="147.509" y1="84.8429" x2="173.114" y2="84.8429" gradientUnits="userSpaceOnUse">
<stop stop-color="#F57A00"/>
<stop offset="1" stop-color="#7103A4"/>
</linearGradient>
<linearGradient id="paint12_linear_1237_3" x1="130.075" y1="74.21" x2="155.051" y2="74.21" gradientUnits="userSpaceOnUse">
<stop stop-color="#F57A00"/>
<stop offset="1" stop-color="#7103A4"/>
</linearGradient>
<linearGradient id="paint13_linear_1237_3" x1="148.137" y1="68.9791" x2="173.124" y2="68.9791" gradientUnits="userSpaceOnUse">
<stop stop-color="#F57A00"/>
<stop offset="1" stop-color="#7103A4"/>
</linearGradient>
<linearGradient id="paint14_linear_1237_3" x1="122.532" y1="62.8873" x2="151.754" y2="62.8873" gradientUnits="userSpaceOnUse">
<stop stop-color="#F57A00"/>
<stop offset="1" stop-color="#7103A4"/>
</linearGradient>
<linearGradient id="paint15_linear_1237_3" x1="91.4253" y1="64.4322" x2="122.533" y2="64.4322" gradientUnits="userSpaceOnUse">
<stop stop-color="#F57A00"/>
<stop offset="1" stop-color="#7103A4"/>
</linearGradient>
<linearGradient id="paint16_linear_1237_3" x1="54.1979" y1="80.9363" x2="114.99" y2="80.9363" gradientUnits="userSpaceOnUse">
<stop stop-color="#F57A00"/>
<stop offset="1" stop-color="#7103A4"/>
</linearGradient>
<linearGradient id="paint17_linear_1237_3" x1="26.7626" y1="90.6864" x2="90.6422" y2="90.6864" gradientUnits="userSpaceOnUse">
<stop stop-color="#F57A00"/>
<stop offset="1" stop-color="#7103A4"/>
</linearGradient>
<linearGradient id="paint18_linear_1237_3" x1="75.2485" y1="89.8918" x2="82.791" y2="89.8918" gradientUnits="userSpaceOnUse">
<stop stop-color="#F57A00"/>
<stop offset="1" stop-color="#7103A4"/>
</linearGradient>
<linearGradient id="paint19_linear_1237_3" x1="75.5573" y1="70.1158" x2="93.6306" y2="70.1158" gradientUnits="userSpaceOnUse">
<stop stop-color="#F57A00"/>
<stop offset="1" stop-color="#7103A4"/>
</linearGradient>
<linearGradient id="paint20_linear_1237_3" x1="23.6531" y1="80.9337" x2="29.8834" y2="80.9337" gradientUnits="userSpaceOnUse">
<stop stop-color="#F57A00"/>
<stop offset="1" stop-color="#7103A4"/>
</linearGradient>
<linearGradient id="paint21_linear_1237_3" x1="52.7644" y1="67.3485" x2="59.003" y2="67.3485" gradientUnits="userSpaceOnUse">
<stop stop-color="#F57A00"/>
<stop offset="1" stop-color="#7103A4"/>
</linearGradient>
<linearGradient id="paint22_linear_1237_3" x1="72.1278" y1="62.6142" x2="78.3664" y2="62.6142" gradientUnits="userSpaceOnUse">
<stop stop-color="#F57A00"/>
<stop offset="1" stop-color="#7103A4"/>
</linearGradient>
<linearGradient id="paint23_linear_1237_3" x1="88.856" y1="47.0759" x2="95.0945" y2="47.0759" gradientUnits="userSpaceOnUse">
<stop stop-color="#F57A00"/>
<stop offset="1" stop-color="#7103A4"/>
</linearGradient>
<linearGradient id="paint24_linear_1237_3" x1="148.634" y1="52.1633" x2="154.872" y2="52.1633" gradientUnits="userSpaceOnUse">
<stop stop-color="#F57A00"/>
<stop offset="1" stop-color="#7103A4"/>
</linearGradient>
<linearGradient id="paint25_linear_1237_3" x1="151.622" y1="62.8019" x2="157.86" y2="62.8019" gradientUnits="userSpaceOnUse">
<stop stop-color="#F57A00"/>
<stop offset="1" stop-color="#7103A4"/>
</linearGradient>
<linearGradient id="paint26_linear_1237_3" x1="169.563" y1="64.7551" x2="175.802" y2="64.7551" gradientUnits="userSpaceOnUse">
<stop stop-color="#F57A00"/>
<stop offset="1" stop-color="#7103A4"/>
</linearGradient>
<linearGradient id="paint27_linear_1237_3" x1="170.004" y1="73.076" x2="176.234" y2="73.076" gradientUnits="userSpaceOnUse">
<stop stop-color="#F57A00"/>
<stop offset="1" stop-color="#7103A4"/>
</linearGradient>
<linearGradient id="paint28_linear_1237_3" x1="212.304" y1="81.6178" x2="218.542" y2="81.6178" gradientUnits="userSpaceOnUse">
<stop stop-color="#F57A00"/>
<stop offset="1" stop-color="#7103A4"/>
</linearGradient>
<linearGradient id="paint29_linear_1237_3" x1="224.511" y1="125.352" x2="230.749" y2="125.352" gradientUnits="userSpaceOnUse">
<stop stop-color="#F57A00"/>
<stop offset="1" stop-color="#7103A4"/>
</linearGradient>
<linearGradient id="paint30_linear_1237_3" x1="222.89" y1="142.083" x2="229.12" y2="142.083" gradientUnits="userSpaceOnUse">
<stop stop-color="#F57A00"/>
<stop offset="1" stop-color="#7103A4"/>
</linearGradient>
<linearGradient id="paint31_linear_1237_3" x1="212.304" y1="157.08" x2="218.542" y2="157.08" gradientUnits="userSpaceOnUse">
<stop stop-color="#F57A00"/>
<stop offset="1" stop-color="#7103A4"/>
</linearGradient>
<linearGradient id="paint32_linear_1237_3" x1="191.882" y1="156.893" x2="198.12" y2="156.893" gradientUnits="userSpaceOnUse">
<stop stop-color="#F57A00"/>
<stop offset="1" stop-color="#7103A4"/>
</linearGradient>
<linearGradient id="paint33_linear_1237_3" x1="151.622" y1="175.532" x2="157.852" y2="175.532" gradientUnits="userSpaceOnUse">
<stop stop-color="#F57A00"/>
<stop offset="1" stop-color="#7103A4"/>
</linearGradient>
<linearGradient id="paint34_linear_1237_3" x1="94.4355" y1="163.172" x2="100.674" y2="163.172" gradientUnits="userSpaceOnUse">
<stop stop-color="#F57A00"/>
<stop offset="1" stop-color="#7103A4"/>
</linearGradient>
<linearGradient id="paint35_linear_1237_3" x1="54.3744" y1="186.789" x2="60.6129" y2="186.789" gradientUnits="userSpaceOnUse">
<stop stop-color="#F57A00"/>
<stop offset="1" stop-color="#7103A4"/>
</linearGradient>
<linearGradient id="paint36_linear_1237_3" x1="36.6208" y1="138.264" x2="42.8594" y2="138.264" gradientUnits="userSpaceOnUse">
<stop stop-color="#F57A00"/>
<stop offset="1" stop-color="#7103A4"/>
</linearGradient>
<linearGradient id="paint37_linear_1237_3" x1="23.6531" y1="128.498" x2="29.8834" y2="128.498" gradientUnits="userSpaceOnUse">
<stop stop-color="#F57A00"/>
<stop offset="1" stop-color="#7103A4"/>
</linearGradient>
<linearGradient id="paint38_linear_1237_3" x1="79.9902" y1="87.7096" x2="86.2205" y2="87.7096" gradientUnits="userSpaceOnUse">
<stop stop-color="#F57A00"/>
<stop offset="1" stop-color="#7103A4"/>
</linearGradient>
<linearGradient id="paint39_linear_1237_3" x1="111.792" y1="54.5768" x2="185.486" y2="54.5768" gradientUnits="userSpaceOnUse">
<stop stop-color="#F57A00"/>
<stop offset="1" stop-color="#7103A4"/>
</linearGradient>
<linearGradient id="paint40_linear_1237_3" x1="34.9117" y1="113.668" x2="80.4314" y2="113.668" gradientUnits="userSpaceOnUse">
<stop stop-color="#F57A00"/>
<stop offset="1" stop-color="#7103A4"/>
</linearGradient>
<linearGradient id="paint41_linear_1237_3" x1="34.9117" y1="123.153" x2="57.6716" y2="123.153" gradientUnits="userSpaceOnUse">
<stop stop-color="#F57A00"/>
<stop offset="1" stop-color="#7103A4"/>
</linearGradient>
<linearGradient id="paint42_linear_1237_3" x1="57.6714" y1="123.153" x2="80.4312" y2="123.153" gradientUnits="userSpaceOnUse">
<stop stop-color="#F57A00"/>
<stop offset="1" stop-color="#7103A4"/>
</linearGradient>
<linearGradient id="paint43_linear_1237_3" x1="71.1355" y1="135.519" x2="116.655" y2="135.519" gradientUnits="userSpaceOnUse">
<stop stop-color="#F57A00"/>
<stop offset="1" stop-color="#7103A4"/>
</linearGradient>
<linearGradient id="paint44_linear_1237_3" x1="71.1355" y1="145.004" x2="93.8953" y2="145.004" gradientUnits="userSpaceOnUse">
<stop stop-color="#F57A00"/>
<stop offset="1" stop-color="#7103A4"/>
</linearGradient>
<linearGradient id="paint45_linear_1237_3" x1="93.8953" y1="145.004" x2="116.655" y2="145.004" gradientUnits="userSpaceOnUse">
<stop stop-color="#F57A00"/>
<stop offset="1" stop-color="#7103A4"/>
</linearGradient>
<linearGradient id="paint46_linear_1237_3" x1="108.264" y1="158.336" x2="153.783" y2="158.336" gradientUnits="userSpaceOnUse">
<stop stop-color="#F57A00"/>
<stop offset="1" stop-color="#7103A4"/>
</linearGradient>
<linearGradient id="paint47_linear_1237_3" x1="108.264" y1="167.821" x2="131.023" y2="167.821" gradientUnits="userSpaceOnUse">
<stop stop-color="#F57A00"/>
<stop offset="1" stop-color="#7103A4"/>
</linearGradient>
<linearGradient id="paint48_linear_1237_3" x1="131.023" y1="167.821" x2="153.783" y2="167.821" gradientUnits="userSpaceOnUse">
<stop stop-color="#F57A00"/>
<stop offset="1" stop-color="#7103A4"/>
</linearGradient>
<linearGradient id="paint49_linear_1237_3" x1="92.6154" y1="59.7732" x2="93.425" y2="59.7732" gradientUnits="userSpaceOnUse">
<stop stop-color="#F57A00"/>
<stop offset="1" stop-color="#7103A4"/>
</linearGradient>
</defs>
</svg>
