<svg width="153" height="131" viewBox="0 0 153 131" fill="none" xmlns="http://www.w3.org/2000/svg">
<path d="M67.6057 76.4488L64.7687 116.917L64.7366 117.376H48.6462C47.1795 117.376 46.0554 116.073 46.2695 114.62L52.0077 76.4381H67.6057V76.4488Z" fill="#3C3C3C"/>
<path d="M67.8948 76.4489L65.0578 116.917H49.4812C48.0146 116.917 46.8905 115.614 47.1046 114.161L52.7678 76.4489H67.8948Z" fill="#1C1C1C"/>
<path d="M23.2632 115.667C22.0214 115.667 21.0258 116.671 21.0258 117.899V119.085H40.2208V115.667H23.2632Z" fill="#1C1C1C"/>
<path d="M101.532 115.667H39.5465V119.085H104.197V118.337C104.208 116.863 103.009 115.667 101.532 115.667Z" fill="#4653B7"/>
<path d="M104.379 104.154H16.2404C14.8166 104.154 13.639 103.118 13.4677 101.718L12.7397 95.652L6.51977 43.6493C6.30566 41.8978 7.7295 40.3064 9.51733 40.3064H97.6456C99.0695 40.3064 100.247 41.3424 100.418 42.7415L106.745 95.6413L107.366 100.8C107.58 102.562 106.157 104.154 104.379 104.154Z" fill="#3C3C3C"/>
<path d="M105.45 102.904H17.3216C15.8978 102.904 14.7202 101.868 14.5489 100.469L13.8209 94.4024L7.60095 42.3997C7.38684 40.6481 8.81068 39.0568 10.5985 39.0568H98.7268C100.151 39.0568 101.328 40.0928 101.5 41.4919L107.827 94.3917L108.447 99.5503C108.651 101.313 107.227 102.904 105.45 102.904Z" fill="#1C1C1C"/>
<path d="M107.827 94.4024H13.8209L7.60095 42.3997C7.38684 40.6481 8.81068 39.0568 10.5985 39.0568H98.7268C100.151 39.0568 101.328 40.0928 101.5 41.4919L107.827 94.4024Z" fill="#4653B7"/>
<path d="M104.294 91.3586L98.5662 42.0901H10.7698L16.4973 91.3586H104.294Z" fill="url(#paint0_linear_1262_62)"/>
<path d="M62.4183 99.8973C63.1479 99.1407 63.0763 97.8908 62.2582 97.1057C61.4402 96.3205 60.1856 96.2973 59.4559 97.0539C58.7263 97.8105 58.7979 99.0603 59.6159 99.8455C60.434 100.631 61.6886 100.654 62.4183 99.8973Z" fill="white"/>
<path d="M112.451 93.3344H111.884C111.467 93.3344 111.124 93.6761 111.135 94.0927L111.702 126.999C111.713 127.405 112.045 127.736 112.451 127.736C112.858 127.736 113.201 127.405 113.201 126.999L113.768 94.0927C113.779 93.6761 113.436 93.3344 113.019 93.3344H112.451Z" fill="#3B44B3"/>
<path d="M120.331 93.5907L119.795 93.7936C119.399 93.9431 119.207 94.381 119.367 94.7762L133.242 129.188C133.391 129.573 133.83 129.754 134.216 129.605C134.601 129.455 134.794 129.028 134.655 128.644L121.84 93.8257C121.69 93.4305 121.251 93.2276 120.866 93.3878L120.331 93.5907Z" fill="#3B44B3"/>
<path d="M104.23 93.5907L104.765 93.7936C105.161 93.9431 105.354 94.381 105.193 94.7762L91.3186 129.188C91.1688 129.573 90.7298 129.754 90.3444 129.605C89.959 129.455 89.7663 129.028 89.9055 128.644L102.72 93.8257C102.87 93.4305 103.309 93.2276 103.694 93.3878L104.23 93.5907Z" fill="#3B44B3"/>
<path d="M129.784 88.9341C129.463 90.3653 129.002 91.7858 128.156 92.9713C127.129 94.4024 125.619 95.4171 124.056 96.2288C120.331 98.1619 115.845 98.6639 111.177 99.0377C108.79 99.23 106.36 99.4009 103.962 99.7106H86.3405C86.03 99.7106 85.741 99.5824 85.5376 99.3795C85.3984 99.2406 85.3021 99.0698 85.2485 98.8775C86.2656 98.6959 86.7473 98.5571 87.7215 98.5678C90.9439 98.5891 94.359 98.5571 97.3137 97.4357C98.1809 97.1046 99.0052 96.6774 99.776 96.1327C102.806 93.9859 104.412 90.2905 104.979 86.6378C105.546 82.9745 105.225 79.2363 105.182 75.5302C105.139 71.8242 105.118 68.5987 106.745 65.2664L131.775 64.4974C128.831 72.0378 131.518 81.052 129.784 88.9341Z" fill="#3B44B3"/>
<path d="M92.464 99.7213H86.3297C85.6981 99.7213 85.1949 99.2087 85.1949 98.5892C85.1949 97.9591 85.7088 97.4571 86.3297 97.4571H92.464C99.155 97.4571 104.572 92.0528 104.572 85.3776V75.573C104.572 72.0485 104.968 69.0473 105.643 66.1743C105.792 65.5442 106.435 65.1597 107.066 65.3412C107.655 65.5014 108.009 66.0996 107.869 66.687C107.248 69.3784 106.863 72.2621 106.863 75.5837V85.3883C106.852 93.2917 100.418 99.7213 92.464 99.7213Z" fill="#727373"/>
<path d="M132.032 64.5615C131.4 64.3799 130.758 64.7644 130.608 65.3945C129.944 68.2675 129.537 72.0377 129.537 75.5622V85.3668C129.537 92.042 124.12 97.4463 117.429 97.4463H111.167H103.951H86.3297C85.6981 97.4463 85.1949 97.9589 85.1949 98.5784C85.1949 98.6852 85.2057 98.792 85.2378 98.8881C85.2913 99.0804 85.3876 99.2513 85.5268 99.3901C85.7302 99.593 86.0193 99.7212 86.3297 99.7212H103.951H111.167H117.429C125.373 99.7212 131.818 93.2916 131.818 85.3668V75.5622C131.818 72.2513 132.203 68.5986 132.824 65.8965C132.974 65.3091 132.621 64.7217 132.032 64.5615Z" fill="#727373"/>
<path d="M103.569 78.8394C104.015 77.4027 103.21 75.877 101.77 75.4318C100.329 74.9866 98.8001 75.7904 98.3538 77.2271C97.9076 78.6639 98.7132 80.1895 100.153 80.6348C101.594 81.08 103.123 80.2762 103.569 78.8394Z" fill="#FFB196"/>
<path d="M95.6222 85.2066L98.6305 86.9795L103.416 79.279L98.3628 77.2177L95.6222 85.2066Z" fill="#FFB196"/>
<path d="M98.7956 86.6005C99.0809 85.6821 98.5659 84.7069 97.6453 84.4223C96.7247 84.1377 95.7472 84.6515 95.462 85.5699C95.1767 86.4883 95.6917 87.4635 96.6123 87.7481C97.5328 88.0327 98.5104 87.5189 98.7956 86.6005Z" fill="#FFB196"/>
<path d="M93.4704 86.6378C93.5132 86.6271 93.5453 86.6164 93.5881 86.6164C93.7915 86.595 93.9842 86.6378 94.1876 86.6378C94.391 86.6485 94.6052 86.6057 94.7443 86.4562C94.8193 86.3708 94.8514 86.2746 94.8942 86.1678C95.0013 85.8581 95.0869 85.5377 95.1511 85.2173C94.573 85.2493 93.9949 85.2814 93.4168 85.3134C93.3098 85.3241 93.2027 85.3241 93.1064 85.3775C92.282 85.8367 91.6076 86.8514 91.0616 87.6097C90.976 87.7272 90.8903 87.8767 90.9546 88.0155C90.9867 88.0796 91.0509 88.1223 91.1151 88.1544C91.3078 88.2291 91.522 88.1757 91.6932 88.0796C91.8645 87.9728 92.0037 87.8233 92.1536 87.6844C92.5069 87.3213 92.9565 86.7659 93.4704 86.6378Z" fill="#FFB196"/>
<path d="M97.1424 87.8126C98.1002 87.8126 98.8767 87.038 98.8767 86.0824C98.8767 85.1268 98.1002 84.3522 97.1424 84.3522C96.1845 84.3522 95.4081 85.1268 95.4081 86.0824C95.4081 87.038 96.1845 87.8126 97.1424 87.8126Z" fill="#FFB196"/>
<path d="M97.8168 84.8329C98.2558 85.0465 98.6519 85.3669 98.9195 85.7834C99.0587 85.9864 99.1764 86.2213 99.23 86.467C99.2835 86.7019 99.1229 86.8408 98.9302 86.9583C98.6198 87.1505 98.32 87.3428 97.9881 87.4923C97.667 87.6418 97.3244 87.7593 96.9711 87.7913C96.5 87.8234 96.0183 87.6952 95.6329 87.4175C95.4616 87.3 95.3117 87.1505 95.1404 87.033C94.9692 86.9155 94.755 86.8408 94.5516 86.8835C94.3803 86.9262 94.2305 87.0437 94.1234 87.1825C94.0057 87.3214 93.9307 87.4816 93.8237 87.6204C93.6845 87.8127 93.5132 87.9943 93.2991 88.1011C93.085 88.1972 92.8066 88.2079 92.6032 88.0797C92.5604 88.0583 92.5283 88.0263 92.5069 87.9836C92.4641 87.8981 92.5069 87.8127 92.5497 87.7273C92.903 87.033 93.267 86.1038 93.9842 85.698C94.3375 85.4951 94.6801 85.4096 94.9906 85.1319C95.2903 84.8542 95.74 84.6406 96.1575 84.6299C97.0674 84.5872 97.3565 84.6086 97.8168 84.8329Z" fill="#FFB196"/>
<path d="M99.7973 86.9902C99.7331 86.9474 99.6689 86.9047 99.6046 86.8833C99.4334 86.8299 99.2514 86.9047 99.0908 86.9795C98.9302 87.0542 98.7589 87.1504 98.5876 87.1397C98.3628 87.129 98.1701 86.9474 98.0738 86.7445C97.9774 86.5416 97.9667 86.3066 97.9774 86.0823C97.9774 85.7512 97.9239 85.4415 97.9025 85.1104C97.9025 85.0784 97.9025 85.0356 97.9239 85.0143C97.956 84.9929 97.9881 85.0036 98.0202 85.0143C98.5662 85.1852 99.155 85.324 99.6582 85.591C99.9044 85.7192 100.108 85.9008 100.311 86.0823C100.782 86.4989 101.232 86.9261 101.682 87.3533C101.703 87.3746 101.724 87.396 101.735 87.4281C101.746 87.4708 101.724 87.5242 101.692 87.5562C101.564 87.7271 101.328 87.7805 101.114 87.7805C100.9 87.7698 100.675 87.7164 100.493 87.5989C100.322 87.4921 100.172 87.3533 100.033 87.2144C99.9686 87.1504 99.883 87.0649 99.7973 86.9902Z" fill="#FFB196"/>
<path d="M95.0548 88.4C95.5044 88.1437 95.665 87.599 95.7934 87.1397C95.8577 86.9048 95.9005 86.6591 95.9861 86.4348C96.0825 85.9756 96.2859 85.6018 96.6392 85.3134C96.6499 85.3027 96.6606 85.292 96.6713 85.2707C96.6713 85.26 96.6713 85.2493 96.6713 85.2386C96.6392 85.1532 96.5428 85.1105 96.4679 85.0784C96.2859 85.0037 96.1039 84.8969 95.9005 84.8969C95.6971 84.8969 95.5044 85.0143 95.3652 85.1639C95.1404 85.4202 94.9798 85.762 94.8942 86.0824C94.6801 86.8086 94.4659 87.5135 94.1876 88.2078C94.1662 88.2612 94.1448 88.3252 94.1769 88.3786C94.1983 88.4107 94.2304 88.4321 94.2626 88.4427C94.4981 88.5602 94.8085 88.5389 95.0548 88.4Z" fill="#FFB196"/>
<path d="M100.3 60.5991C99.9364 62.5963 101.2 64.5081 103.148 64.978C103.212 64.9994 103.287 65.01 103.362 65.0207C105.428 65.4052 107.42 64.0381 107.794 61.9661C108.18 59.9048 106.809 57.9183 104.732 57.5445C102.666 57.1707 100.686 58.5377 100.3 60.5991Z" fill="#FFB196"/>
<path d="M100.953 80.7636C102.455 80.7636 103.673 79.5491 103.673 78.0508C103.673 76.5526 102.455 75.338 100.953 75.338C99.4517 75.338 98.2343 76.5526 98.2343 78.0508C98.2343 79.5491 99.4517 80.7636 100.953 80.7636Z" fill="#FFB196"/>
<path d="M107.794 61.9768C106.799 67.5627 105.418 73.0737 103.662 78.478L103.641 78.5527L98.2878 77.5702C99.3477 71.995 100.022 66.3558 100.3 60.6845V60.6097L107.794 61.9768Z" fill="#FFB196"/>
<path d="M100.172 60.5564C100.568 58.4203 102.624 56.9998 104.765 57.395C106.424 57.7047 107.655 58.997 107.934 60.567C108.019 61.037 107.998 61.5069 107.955 61.9769C107.784 63.6109 107.591 65.2344 107.366 66.8685C107.056 69.1541 106.66 71.4183 106.199 73.6825L98.3307 72.8388C99.0801 69.1647 99.6475 65.4693 100.044 61.7419L100.172 60.5564Z" fill="#A535C5"/>
<path d="M107.741 117.6L106.563 126.273L111.049 126.946L112.109 118.017L107.741 117.6Z" fill="#FFB196"/>
<path d="M104.593 129.263C104.593 129.69 104.904 129.979 105.268 130.043C106.991 130.31 110.589 130.321 112.366 130.043C112.73 129.979 113.04 129.69 113.04 129.263C113.04 129.263 113.029 128.665 113.008 128.516C113.019 128.505 113.008 128.494 113.008 128.484L112.055 126.721L111.338 124.831L110.567 124.457C110.225 124.286 109.828 124.211 109.443 124.254L108.073 124.361C107.762 124.382 107.473 124.468 107.206 124.617L106.649 124.916L105.814 126.828L104.668 128.484C104.658 128.494 104.658 128.516 104.658 128.558C104.604 128.751 104.593 129.263 104.593 129.263Z" fill="white"/>
<path d="M104.593 129.263C104.593 129.69 104.904 129.979 105.268 130.043C106.991 130.31 110.589 130.32 112.366 130.043C112.73 129.979 113.04 129.69 113.04 129.263C113.04 129.263 113.029 128.665 113.008 128.516C112.922 128.815 112.676 129.017 112.376 129.071C110.599 129.349 107.002 129.338 105.279 129.071C104.989 129.028 104.743 128.836 104.658 128.548C104.604 128.75 104.593 129.263 104.593 129.263Z" fill="#1B1425"/>
<path d="M90.2159 119.085L90.7297 122.791C90.794 123.453 90.7726 123.838 90.2587 124.051L87.4967 125.397C86.0621 125.995 86.4903 127.586 88.0534 127.586H95.2582V125.397L94.648 119.085H90.2159Z" fill="#FFB196"/>
<path d="M94.6052 125.226C94.7122 125.162 94.9585 125.012 95.0441 124.98C95.3225 124.863 95.6329 125.141 95.665 125.45L95.9862 129.103C96.0183 129.413 95.7828 129.658 95.4723 129.658H81.8977C81.4909 129.658 81.1376 129.327 81.1055 128.932C81.1055 128.889 81.1055 128.825 81.1162 128.783C81.1483 128.558 81.2875 128.366 81.4909 128.27L89.231 124.361C89.6592 124.137 90.0232 124.307 90.141 124.713C90.3444 125.365 90.9439 125.771 92.2928 125.749C93.2563 125.728 94.0913 125.525 94.6052 125.226Z" fill="white"/>
<path d="M95.9541 128.772L95.9862 129.103C96.0183 129.413 95.7828 129.658 95.4723 129.658H81.8977C81.4909 129.658 81.1376 129.327 81.1055 128.932C81.1055 128.889 81.1055 128.825 81.1162 128.783H95.9541V128.772Z" fill="#1B1425"/>
<path d="M104.401 85.2921L103.373 85.8581L88.8028 89.7671C85.9551 90.5361 84.1673 93.3451 84.6919 96.2501L89.5094 122.866H96.2325L94.6266 98.6318L114.55 96.6667L114.646 85.2921L108.779 82.9851L104.401 85.2921Z" fill="#1B1425"/>
<path d="M110.803 86.5311L110.953 85.3349L118.628 83.4658L123.564 87.2253V92.2237C123.564 95.0967 121.53 97.5639 118.703 98.1086L117.729 98.3008L112.665 123.421L106.039 122.289L107.816 94.4132C107.934 92.5548 108.469 90.7391 109.368 89.1157L110.803 86.5311Z" fill="#1B1425"/>
<path d="M123.521 84.8436L122.14 71.0873L122.044 58.164C120.502 56.6795 116.873 54.9599 114.282 54.4259L106.553 55.1522C104.808 55.7396 102.324 57.2989 101.104 58.6767L101.96 60.3962L102.934 73.5544L102.87 84.1814L102.238 86.1893L103.395 85.8796C108.33 85.8796 110.781 85.666 114.764 85.666C118.789 85.666 120.159 87.77 123.874 87.77L123.521 84.8436Z" fill="#A535C5"/>
<path d="M111.317 83.3911C109.925 83.1668 107.58 83.5192 106.178 83.6794C104.754 83.8396 103.159 85.4524 102.656 86.734C102.517 87.0865 102.377 87.4282 102.238 87.7807C102.206 87.8768 102.174 88.005 102.26 88.0584C102.399 88.1545 102.881 88.0263 103.02 87.9729C103.148 87.9302 103.255 87.8448 103.352 87.7593C103.534 87.5991 103.705 87.4069 103.833 87.204C103.758 87.3214 103.63 87.8021 103.758 87.9089C103.94 88.0798 104.369 87.9836 104.583 87.9195C104.861 87.8341 105.097 87.6739 105.279 87.4603C105.471 87.236 105.621 86.9797 105.825 86.7661C106.156 86.4136 106.617 86.1893 107.056 85.9757C106.456 86.3282 106.178 86.8835 105.814 87.471C105.643 87.7487 105.396 88.2293 105.953 88.1118C106.328 88.037 106.52 87.6953 106.777 87.4496C107.013 87.2146 107.227 86.8942 107.538 86.7554C107.912 86.5738 108.33 86.8088 108.704 86.8835C108.972 86.9369 109.272 87.0438 109.55 87.0438C109.871 87.0438 110.075 86.9156 110.439 86.8835C110.792 86.8622 111.199 87.0224 111.595 87.001C111.531 86.5738 111.359 83.7008 111.317 83.3911Z" fill="#FFB196"/>
<path d="M103.93 84.0212C103.555 84.1173 103.33 84.4804 103.148 84.8222C103.031 85.0465 102.913 85.2708 102.816 85.5058C102.634 85.9436 102.527 86.4029 102.474 86.8622C102.463 86.9262 102.463 87.001 102.485 87.0651C102.559 87.3214 102.934 87.3535 103.148 87.1932C103.362 87.033 103.459 86.766 103.577 86.5311C103.973 85.7407 104.765 85.164 105.643 85.0251C105.825 84.9931 106.039 84.9717 106.146 84.8115C106.231 84.6727 106.178 84.4698 106.071 84.3523C105.675 83.9357 104.444 83.893 103.93 84.0212Z" fill="#FFB196"/>
<path d="M113.036 86.2717C113.628 85.4608 113.448 84.3253 112.635 83.7354C111.822 83.1456 110.684 83.3249 110.093 84.1358C109.501 84.9467 109.681 86.0823 110.494 86.6721C111.307 87.2619 112.445 87.0827 113.036 86.2717Z" fill="#FFB196"/>
<path d="M102.923 88.4535L87.593 89.5643C86.8436 89.6177 86.1692 89.1371 85.9765 88.4108L83.2251 77.8906C83.0859 77.3459 83.4713 76.8119 84.028 76.7692L98.2664 75.7332C99.0265 75.6798 99.7117 76.1711 99.9044 76.9081L102.923 88.4535Z" fill="#212121"/>
<path d="M110.77 86.8622L86.6401 88.6137C86.4688 88.6244 86.3296 88.7739 86.3511 88.9555L86.3832 89.34C86.3939 89.5109 86.5438 89.6497 86.7258 89.6284L110.856 87.8768C111.027 87.8661 111.167 87.7166 111.145 87.535L111.113 87.1505C111.102 86.9903 110.942 86.8515 110.77 86.8622Z" fill="#212121"/>
<path d="M102.174 88.5177L86.8436 89.6285C86.0942 89.6819 85.4198 89.2013 85.2271 88.475L82.4757 77.9549C82.3365 77.4102 82.7219 76.8761 83.2786 76.8334L97.517 75.7974C98.2771 75.744 98.9623 76.2353 99.155 76.9723L102.174 88.5177Z" fill="url(#paint1_linear_1262_62)"/>
<path d="M91.9394 83.8183C92.5425 83.8183 93.0314 83.3306 93.0314 82.7289C93.0314 82.1273 92.5425 81.6395 91.9394 81.6395C91.3363 81.6395 90.8474 82.1273 90.8474 82.7289C90.8474 83.3306 91.3363 83.8183 91.9394 83.8183Z" fill="white"/>
<path d="M115.556 62.6283C116.155 64.6682 118.243 65.8644 120.288 65.3945C120.363 65.3731 120.438 65.3625 120.502 65.3411C122.622 64.7216 123.831 62.5108 123.21 60.4068C122.59 58.3027 120.373 57.0852 118.264 57.7046C116.155 58.3241 114.935 60.5136 115.556 62.6283Z" fill="#FFB196"/>
<path d="M127.363 79.709C128.198 78.3789 127.793 76.6259 126.46 75.7936C125.127 74.9612 123.37 75.3647 122.535 76.6947C121.701 78.0248 122.106 79.7778 123.439 80.6102C124.772 81.4425 126.529 81.0391 127.363 79.709Z" fill="#FFB196"/>
<path d="M123.21 60.3961C124.859 65.3198 127.075 72.4329 127.664 77.3245L127.675 77.3993L122.204 78.9906C120.416 73.565 118.286 68.0112 115.577 62.6924L115.545 62.6176L123.21 60.3961Z" fill="#FFB196"/>
<path d="M114.614 62.5002C113.993 60.3107 115.46 57.9717 117.9 57.2882C119.785 56.7541 121.594 57.459 122.654 58.7834C122.964 59.1786 123.178 59.6272 123.35 60.0864C123.96 61.6885 124.645 63.2264 125.202 64.8605C125.972 67.1461 126.904 70.8095 127.439 73.1699L119.581 75.3166C118.264 71.696 116.455 67.3277 115.063 63.6537L114.614 62.5002Z" fill="#A535C5"/>
<path d="M119.528 75.5088C119.538 75.5088 119.549 75.5088 119.56 75.5088L120.641 75.2418C120.77 75.2097 120.845 75.0816 120.812 74.9641C120.78 74.8359 120.652 74.7612 120.534 74.7932L119.678 74.9961L117.558 66.3023C117.526 66.1741 117.397 66.0994 117.28 66.1314C117.151 66.1635 117.076 66.2916 117.108 66.4091L119.292 75.3272C119.303 75.3913 119.346 75.434 119.399 75.4661C119.421 75.4981 119.474 75.5088 119.528 75.5088Z" fill="black"/>
<path d="M109.861 59.6592C109.143 59.6806 108.48 59.5524 107.88 59.2961C106.713 58.7834 105.825 57.7261 105.504 56.4765C105.471 56.3483 105.546 56.2201 105.675 56.1881C105.803 56.1561 105.932 56.2308 105.964 56.359C106.242 57.4804 107.034 58.4203 108.073 58.8689C108.769 59.1786 109.604 59.264 110.428 59.1466C112.034 58.933 114.164 57.8542 114.86 55.5686C114.903 55.4405 115.031 55.3764 115.149 55.4084C115.278 55.4512 115.342 55.5793 115.31 55.6968C114.55 58.196 112.237 59.3602 110.492 59.5951C110.278 59.6379 110.075 59.6485 109.861 59.6592Z" fill="black"/>
<path d="M112.473 86.7766L110.76 83.5618C112.708 82.5259 115.46 80.7956 118.147 79.0227C120.427 77.5061 122.493 76.2565 123.671 75.6263L126.358 80.6675C121.54 83.0171 117.13 84.8755 112.505 86.766L112.473 86.7766Z" fill="#FFB196"/>
<path d="M124.955 81.0306C126.534 81.0306 127.814 79.7539 127.814 78.1789C127.814 76.604 126.534 75.3273 124.955 75.3273C123.377 75.3273 122.097 76.604 122.097 78.1789C122.097 79.7539 123.377 81.0306 124.955 81.0306Z" fill="#FFB196"/>
<path d="M111.563 87.0116C112.568 87.0116 113.383 86.1987 113.383 85.1959C113.383 84.1931 112.568 83.3802 111.563 83.3802C110.558 83.3802 109.743 84.1931 109.743 85.1959C109.743 86.1987 110.558 87.0116 111.563 87.0116Z" fill="#FFB196"/>
<path d="M103.93 45.7747C103.18 45.6786 102.26 45.0698 101.981 44.5465C101.682 44.0018 101.66 43.0833 101.992 42.4638C102.27 41.9405 102.677 41.4812 103.17 41.1394C105.3 39.6335 108.265 39.0674 110.781 39.6869C111.252 39.8044 111.723 40.0073 112.077 40.3384C112.441 40.6695 112.676 41.1608 112.591 41.6414C113.19 41.6841 113.672 42.09 113.972 42.6026C114.271 43.1153 114.378 43.7241 114.432 44.3222C114.56 45.8922 114.261 47.4942 113.586 48.9147C112.901 50.3779 111.905 51.6596 110.696 52.7917L103.93 45.7747Z" fill="#141414"/>
<path d="M114.271 54.4258L110.332 53.6888L106.542 55.1521L106.574 55.5793C106.628 56.7434 107.484 57.694 108.415 58.0464C109.047 58.2921 109.743 58.3028 110.396 58.196C112.269 57.8755 114.079 56.5512 114.271 54.4258Z" fill="#FFB196"/>
<path d="M106.574 46.6292L107.452 54.9065L107.613 56.4231L113.501 55.7396L112.751 48.7012L112.462 46.0098L106.574 46.6292Z" fill="#FFB196"/>
<path d="M112.751 48.7012C112.591 51.7665 110.375 54.2764 107.452 54.9065L106.574 46.6292L112.462 46.0098L112.751 48.7012Z" fill="#FFB196"/>
<path d="M104.523 49.7718C105.176 49.5439 105.496 48.7634 105.239 48.0284C104.981 47.2935 104.243 46.8824 103.59 47.1103C102.937 47.3382 102.616 48.1187 102.874 48.8537C103.132 49.5886 103.87 49.9996 104.523 49.7718Z" fill="#FFB196"/>
<path d="M113.554 45.2515C113.682 47.6653 113.254 49.7479 112.066 51.6704C111.616 52.4074 110.963 53.0375 110.182 53.4647C108.715 54.2657 106.67 54.2764 105.471 53.1336C104.411 52.119 103.887 50.6024 103.63 49.1498C103.352 47.6119 103.202 46.0419 103.202 44.4825C103.202 42.2717 105.236 40.3599 108.244 40.2211C111.638 40.0502 113.415 42.4319 113.554 45.2515Z" fill="#FFB196"/>
<path d="M108.223 39.9433C105.204 40.0928 102.923 42.0473 102.934 44.4825C102.923 44.7708 102.956 44.8349 102.956 44.8349C105.118 45.4651 108.148 45.166 110.246 44.3329L110.257 44.3116C110.449 45.0058 110.963 45.6466 111.477 45.8816L111.531 46.9603L112.28 48.0604L113.725 47.9856C113.854 47.1312 113.897 46.2234 113.843 45.2515C113.661 41.8658 111.467 39.7831 108.223 39.9433Z" fill="#141414"/>
<path d="M113.943 48.3124C114.126 47.5556 113.73 46.8106 113.057 46.6483C112.385 46.4861 111.691 46.9681 111.508 47.7249C111.324 48.4817 111.721 49.2267 112.393 49.389C113.065 49.5512 113.759 49.0693 113.943 48.3124Z" fill="#FFB196"/>
<path d="M112.055 48.2739C112.045 48.2739 112.045 48.2739 112.055 48.2739C111.98 48.2739 111.927 48.2205 111.938 48.1565C111.938 48.039 111.959 47.9215 112.012 47.804C112.162 47.4088 112.548 47.1418 112.933 47.1739C112.997 47.1739 113.062 47.1952 113.126 47.2166C113.254 47.2593 113.361 47.3341 113.447 47.4409C113.49 47.4943 113.479 47.569 113.426 47.6011C113.372 47.6438 113.308 47.6331 113.265 47.5904C113.211 47.5156 113.126 47.4622 113.051 47.4409C113.008 47.4302 112.965 47.4195 112.912 47.4088C112.633 47.3982 112.344 47.5904 112.227 47.8895C112.194 47.9856 112.173 48.071 112.173 48.1671C112.162 48.2205 112.109 48.2739 112.055 48.2739Z" fill="#FFB196"/>
<path d="M112.73 49.342C112.409 49.1497 112.162 48.7866 112.034 48.3273C111.873 47.804 111.852 47.1098 112.109 46.6292L111.52 46.9389C111.541 47.3447 111.606 47.7613 111.681 48.1351C111.83 48.8507 111.83 49.609 111.541 50.2818C111.359 50.709 110.931 51.0081 110.556 50.9974C110.289 50.9974 110.053 50.9547 109.796 50.8693C108.137 50.3246 105.942 50.4848 104.422 51.1363C104.262 51.211 104.187 51.414 104.262 51.5742C104.561 52.2257 104.947 52.7704 105.396 53.1976C106.06 53.8491 107.045 54.1695 108.148 54.1161C108.876 54.084 109.582 53.8811 110.214 53.55C110.985 53.1335 111.648 52.4927 112.13 51.7237C112.184 51.6382 112.227 51.5528 112.269 51.478C112.623 50.8265 112.773 49.9507 112.73 49.342Z" fill="#141414"/>
<path d="M105.011 47.8041C104.797 47.7721 104.604 47.9216 104.572 48.1352C104.54 48.3488 104.69 48.5411 104.904 48.5731C105.118 48.6052 105.311 48.4556 105.343 48.242C105.364 48.0391 105.225 47.8362 105.011 47.8041Z" fill="#141414"/>
<path d="M108.158 47.6546C107.944 47.6226 107.752 47.7721 107.72 47.9857C107.687 48.1993 107.837 48.3915 108.051 48.4236C108.266 48.4556 108.458 48.3061 108.49 48.0925C108.512 47.8789 108.373 47.6866 108.158 47.6546Z" fill="#141414"/>
<path d="M109.272 46.4263C109.25 46.3409 109.143 46.3088 109.047 46.2982C108.597 46.2554 108.148 46.3302 107.709 46.4477C107.559 46.4904 107.141 46.5652 107.216 46.7681C107.27 46.8963 107.516 46.9817 107.666 46.9603C108.009 46.9069 108.351 46.8535 108.683 46.7788C108.886 46.7467 109.347 46.6933 109.272 46.4263Z" fill="#141414"/>
<path d="M105.503 46.6825C105.075 46.533 104.626 46.501 104.165 46.5116C104.037 46.5116 103.908 46.501 103.78 46.5437C103.726 46.5544 103.673 46.5864 103.641 46.6291C103.598 46.6825 103.598 46.8 103.619 46.8534C103.651 46.9068 103.705 46.9495 103.769 46.9709C103.951 47.035 104.176 47.0457 104.369 47.0563C104.583 47.067 104.797 47.0884 105.011 47.0991C105.204 47.1097 105.675 47.1631 105.675 46.8855C105.685 46.7787 105.6 46.7146 105.503 46.6825Z" fill="#141414"/>
<path d="M106.36 50.4101C106.349 50.4101 106.328 50.4101 106.317 50.3994C106.081 50.314 105.921 50.1751 105.835 50.0042C105.76 49.844 105.76 49.6625 105.846 49.4702C105.889 49.3634 105.953 49.2246 106.028 49.0644C106.114 48.8721 106.221 48.6692 106.306 48.4449C106.328 48.3808 106.392 48.3595 106.456 48.3808C106.52 48.4022 106.542 48.4663 106.52 48.5303C106.435 48.7546 106.328 48.9682 106.242 49.1605C106.167 49.31 106.103 49.4382 106.071 49.545C106.017 49.6838 106.017 49.8013 106.06 49.8974C106.114 50.0149 106.231 50.111 106.413 50.1751C106.478 50.1965 106.51 50.2606 106.478 50.3246C106.445 50.378 106.403 50.4101 106.36 50.4101Z" fill="#FFB196"/>
<path d="M105.921 51.1789L108.233 50.7731C107.934 51.7984 106.392 52.0761 105.921 51.1789Z" fill="white"/>
<path d="M106.328 99.529L107.634 97.4463H94.5731L94.6266 98.6318L106.328 99.529Z" fill="#69B0E8"/>
<path d="M122.493 97.0832L121.487 96.7521C120.877 97.0832 119.078 97.4463 117.986 97.4463L117.74 98.3007L118.8 98.9095L122.493 97.0832Z" fill="#69B0E8"/>
<path d="M102.763 73.3621C102.891 73.3621 102.998 73.2553 102.998 73.1271V65.9927C102.998 65.8645 102.891 65.7577 102.763 65.7577C102.634 65.7577 102.527 65.8645 102.527 65.9927V73.1271C102.527 73.2553 102.634 73.3621 102.763 73.3621Z" fill="black"/>
<path d="M51.5366 88.0263H24.8048L23.6058 85.463C23.3917 85.0038 22.9313 84.7047 22.4175 84.7047H1.31679C0.588808 84.7047 0 85.2921 0 86.0184V118.177H52.832V89.34C52.8427 88.6137 52.2539 88.0263 51.5366 88.0263Z" fill="url(#paint2_linear_1262_62)"/>
<path d="M49.3955 92.2236H3.45789V124.147H49.3955V92.2236Z" fill="#E1F2FF"/>
<path d="M51.5366 95.4597H30.4359C29.9221 95.4597 29.4617 95.7588 29.2476 96.218L28.0486 98.792H1.31679C0.588808 98.792 0 99.3794 0 100.106V127.629C0 128.355 0.588808 128.943 1.31679 128.943H51.5259C52.2539 128.943 52.8427 128.355 52.8427 127.629V96.7734C52.8427 96.0471 52.2539 95.4597 51.5366 95.4597Z" fill="url(#paint3_linear_1262_62)"/>
<path d="M96.9069 36.4829C91.1795 36.4829 86.4797 31.9224 86.4369 26.3152V26.1977C86.4369 18.9564 92.3357 13.0715 99.5833 13.0715C99.6797 13.0715 99.776 13.0715 99.8724 13.0715C103.384 5.60596 111.038 0.692993 119.389 0.692993C129.377 0.692993 138.07 7.66727 140.35 17.1942C140.436 17.1942 140.532 17.1942 140.618 17.1942C147.084 17.1942 152.34 22.4382 152.34 28.8891V28.9532C152.33 33.1079 148.936 36.4829 144.772 36.4829H96.9069Z" fill="url(#paint4_linear_1262_62)"/>
<path d="M122.75 8.87415H116.016V19.8215H122.75V8.87415Z" fill="#E1F2FF"/>
<path d="M119.389 26.0587L126.187 18.5718H112.58L119.389 26.0587Z" fill="#E1F2FF"/>
<path d="M127.825 28.3016H110.942V25.6422H112.162V27.0841H126.604V25.6422H127.825V28.3016Z" fill="#E1F2FF"/>
<path d="M52.9819 84.1919C36.8486 77.1642 26.4214 60.9941 26.4214 42.9977V29.4978L55.6476 18.2941L84.8738 29.4978V42.9977C84.8738 60.9941 74.4466 77.1749 58.3133 84.2026L55.6476 85.3561L52.9819 84.1919Z" fill="url(#paint5_linear_1262_62)"/>
<path d="M54.5556 80.6034C39.8461 74.1951 30.3396 59.4349 30.3396 42.9871V32.1786L55.6476 22.4808L80.9555 32.1786V42.9871C80.9555 59.4349 71.449 74.1951 56.7395 80.6034L55.6476 81.084L54.5556 80.6034Z" fill="white"/>
<path d="M56.3007 26.3472L77.5726 34.4963V42.9872C77.5726 57.7474 69.2544 71.0231 56.3007 77.1002V26.3472Z" fill="white"/>
<path d="M44.4709 67.5412C44.0748 67.5412 43.7001 67.3703 43.4431 67.0713C37.7799 60.4494 34.6646 51.8945 34.6646 42.9977V35.2331L53.2173 28.1093C53.3779 28.0452 53.5385 28.0132 53.7098 28.0132C54.2772 28.0132 54.791 28.3656 54.9944 28.889C55.2621 29.5939 54.9088 30.3949 54.2022 30.6619L37.4052 37.1022V42.987C37.4052 51.2216 40.285 59.1358 45.5093 65.2663C45.9911 65.8217 45.9482 66.6547 45.4237 67.1567C45.1667 67.4023 44.8348 67.5412 44.4709 67.5412Z" fill="#F57A00"/>
<path d="M62.574 45.9562V43.0725C62.574 39.5907 59.7264 36.7498 56.2363 36.7498H54.5556C51.0656 36.7498 48.2179 39.5907 48.2179 43.0725V45.9562C46.976 46.1698 46.0339 47.2379 46.0339 48.5302V60.1291C46.0339 61.5709 47.2115 62.7458 48.6568 62.7458H62.1351C63.5804 62.7458 64.758 61.5709 64.758 60.1291V48.5302C64.758 47.2379 63.8159 46.1592 62.574 45.9562ZM56.5468 53.9772V57.4376C56.5468 58.0678 56.0329 58.5804 55.4013 58.5804C54.7697 58.5804 54.2558 58.0678 54.2558 57.4376V53.9772C53.4957 53.5713 52.9819 52.7703 52.9819 51.8518C52.9819 50.5167 54.0631 49.438 55.4013 49.438C56.7395 49.438 57.8208 50.5167 57.8208 51.8518C57.8208 52.7703 57.2962 53.5713 56.5468 53.9772ZM60.0796 45.9135H50.7123V43.0725C50.7123 40.9578 52.4359 39.2383 54.5556 39.2383H56.2363C58.356 39.2383 60.0796 40.9578 60.0796 43.0725V45.9135Z" fill="url(#paint6_linear_1262_62)"/>
<path d="M26.4213 125.813C33.6523 125.813 39.5142 119.965 39.5142 112.751C39.5142 105.537 33.6523 99.6892 26.4213 99.6892C19.1903 99.6892 13.3284 105.537 13.3284 112.751C13.3284 119.965 19.1903 125.813 26.4213 125.813Z" fill="white"/>
<path d="M24.4622 119.266L19.1201 113.937C18.5955 113.413 18.5955 112.57 19.1201 112.046C19.6447 111.523 20.4904 111.523 21.015 112.046L24.4622 115.485L31.849 108.116C32.3736 107.593 33.2193 107.593 33.7439 108.116C34.2685 108.639 34.2685 109.483 33.7439 110.006L24.4622 119.266Z" fill="url(#paint7_linear_1262_62)"/>
<defs>
<linearGradient id="paint0_linear_1262_62" x1="10.7698" y1="66.7241" x2="104.294" y2="66.7241" gradientUnits="userSpaceOnUse">
<stop stop-color="#F57A00"/>
<stop offset="1" stop-color="#7103A4"/>
</linearGradient>
<linearGradient id="paint1_linear_1262_62" x1="82.4471" y1="82.7129" x2="102.174" y2="82.7129" gradientUnits="userSpaceOnUse">
<stop stop-color="#F57A00"/>
<stop offset="1" stop-color="#7103A4"/>
</linearGradient>
<linearGradient id="paint2_linear_1262_62" x1="0" y1="101.441" x2="52.8321" y2="101.441" gradientUnits="userSpaceOnUse">
<stop stop-color="#F57A00"/>
<stop offset="1" stop-color="#7103A4"/>
</linearGradient>
<linearGradient id="paint3_linear_1262_62" x1="0" y1="112.201" x2="52.8427" y2="112.201" gradientUnits="userSpaceOnUse">
<stop stop-color="#F57A00"/>
<stop offset="1" stop-color="#7103A4"/>
</linearGradient>
<linearGradient id="paint4_linear_1262_62" x1="86.4369" y1="18.5878" x2="152.34" y2="18.5878" gradientUnits="userSpaceOnUse">
<stop stop-color="#F57A00"/>
<stop offset="1" stop-color="#7103A4"/>
</linearGradient>
<linearGradient id="paint5_linear_1262_62" x1="26.4214" y1="51.8247" x2="84.8738" y2="51.8247" gradientUnits="userSpaceOnUse">
<stop stop-color="#F57A00"/>
<stop offset="1" stop-color="#7103A4"/>
</linearGradient>
<linearGradient id="paint6_linear_1262_62" x1="46.0339" y1="49.7476" x2="64.758" y2="49.7476" gradientUnits="userSpaceOnUse">
<stop stop-color="#F57A00"/>
<stop offset="1" stop-color="#7103A4"/>
</linearGradient>
<linearGradient id="paint7_linear_1262_62" x1="18.7267" y1="113.495" x2="34.1374" y2="113.495" gradientUnits="userSpaceOnUse">
<stop stop-color="#F57A00"/>
<stop offset="1" stop-color="#7103A4"/>
</linearGradient>
</defs>
</svg>
