<svg width="81" height="71" viewBox="0 0 81 71" fill="none" xmlns="http://www.w3.org/2000/svg">
<path fill-rule="evenodd" clip-rule="evenodd" d="M11.2037 63.727C11.2037 65.7983 9.51872 67.4833 7.44634 67.4833C5.37396 67.4833 3.68899 65.7983 3.68899 63.727C3.68899 61.6557 5.37396 59.9706 7.44634 59.9706C9.51872 59.9706 11.2037 61.6556 11.2037 63.727ZM37.6792 61.0726C34.2608 59.5223 31.6655 56.3354 30.0967 53.9347C28.4408 51.412 27.056 48.4983 25.9714 45.2562H30.213C31.4958 48.6796 33.5191 52.5806 36.3332 55.2934C36.8173 55.7572 37.5824 55.7465 38.0471 55.2672C38.5023 54.7888 38.4926 54.0248 38.0181 53.5599C35.2645 50.879 33.4373 47.1374 32.2079 43.6525C32.0336 43.1663 31.5785 42.8409 31.0653 42.8409H24.3254C23.5295 42.8409 22.9336 43.6116 23.1731 44.3913C24.3836 48.4856 26.0298 52.1422 28.073 55.2584C29.7192 57.7636 32.3823 61.0521 35.9652 62.9259V67.3078C28.3925 64.3736 21.9141 55.5303 18.8346 43.7442C18.6991 43.2115 18.2148 42.8407 17.6726 42.8407H14.0896C13.7507 42.8407 13.4312 42.9802 13.2083 43.2241L6.5652 50.3417C6.35221 50.5644 6.23599 50.8569 6.23599 51.161L6.21671 57.6802C3.3987 58.2554 1.27803 60.7479 1.27803 63.7267C1.27803 67.1296 4.04757 69.8981 7.4467 69.8981C10.8554 69.8981 13.6249 67.1294 13.6249 63.7267C13.6249 60.7267 11.4655 58.2204 8.62803 57.6694L8.64749 51.6432L14.6127 45.2558H16.7431C18.4571 51.4176 21.1009 56.9045 24.4126 61.171C27.9955 65.7796 32.2953 68.8823 36.8563 70.1422C37.619 70.3514 38.3863 69.786 38.3863 68.9782V62.1714C38.3861 61.6983 38.1054 61.2683 37.6792 61.0726ZM6.81693 2.60181C8.88931 2.60181 10.5743 4.28678 10.5743 6.35808C10.5743 8.42938 8.88931 10.1145 6.81693 10.1145C4.74455 10.1145 3.05958 8.42956 3.05958 6.35808C3.05958 4.28696 4.74455 2.60181 6.81693 2.60181ZM6.81693 12.5298C7.77555 12.5298 8.67614 12.3109 9.48971 11.9217L14.6124 17.0386V29.3795C14.6124 30.0293 15.1492 30.5871 15.8229 30.5871L37.0111 30.5805C37.6697 30.5805 38.2118 30.0401 38.2118 29.3728V22.9553C38.2118 22.2881 37.6695 21.7477 37.0111 21.7477H23.4441V17.7453H37.0111C37.6697 17.7453 38.2118 17.204 38.2118 16.5378C38.2118 15.8706 37.6695 15.3302 37.0111 15.3302H22.253C21.5849 15.3302 21.0522 15.8706 21.0522 16.5378H21.0328V22.9553C21.0328 23.6226 21.5751 24.163 22.2433 24.163H35.8005V28.1663L17.0332 28.1711V16.538C17.0332 16.2039 16.8977 15.9017 16.675 15.683L11.4264 10.4508C12.3948 9.36042 12.9856 7.92718 12.9856 6.35844C12.9856 2.95552 10.2161 0.186884 6.81693 0.186884C3.4178 0.186884 0.648438 2.95534 0.648438 6.35826C0.648438 9.76117 3.41798 12.5298 6.81693 12.5298ZM74.1678 2.60181C76.2402 2.60181 77.9251 4.28678 77.9251 6.35808C77.9251 8.42938 76.2402 10.1145 74.1678 10.1145C72.0954 10.1145 70.4104 8.42956 70.4104 6.35808C70.4104 4.28696 72.0954 2.60181 74.1678 2.60181ZM43.9736 30.5803L65.1618 30.587C65.8355 30.5871 66.3723 30.0293 66.3723 29.3793V17.0384L71.495 11.9215C75.585 13.8789 80.3363 10.8967 80.3363 6.35808C80.3363 2.95516 77.5667 0.186523 74.1676 0.186523C70.7589 0.186523 67.9989 2.95516 67.9989 6.35808C67.9989 7.92682 68.5896 9.36007 69.5484 10.4495L64.3095 15.6826C64.0868 15.9014 63.9513 16.2036 63.9513 16.5376V28.1708L45.1842 28.1659V24.1626H58.7414C59.4096 24.1626 59.9519 23.6222 59.9519 22.955V16.5374H59.9327C59.9327 15.8702 59.4 15.3298 58.7319 15.3298H43.9736C43.3152 15.3298 42.7729 15.8702 42.7729 16.5374C42.7729 17.2036 43.3152 17.7449 43.9736 17.7449H57.5406V21.7473H43.9736C43.3152 21.7473 42.7729 22.2877 42.7729 22.955V29.3725C42.7729 30.0399 43.3152 30.5803 43.9736 30.5803ZM73.5384 40.4665C71.466 40.4665 69.781 38.7815 69.781 36.7102C69.781 34.6389 71.466 32.9549 73.5384 32.9549C75.6107 32.9549 77.286 34.6389 77.286 36.7102C77.286 38.7815 75.6106 40.4665 73.5384 40.4665ZM40.6134 47.434C40.5844 47.4882 40.536 47.5502 40.4877 47.619C40.4489 47.5504 40.4005 47.4884 40.3714 47.434C38.7155 44.9172 37.4179 41.6489 36.5851 37.9177H44.4C43.567 41.6489 42.2694 44.9172 40.6134 47.434ZM7.44634 40.4665C5.37396 40.4665 3.68899 38.7815 3.68899 36.7102C3.68899 34.6389 5.37396 32.9549 7.44634 32.9549C9.51854 32.9549 11.2037 34.6389 11.2037 36.7102C11.2037 38.7815 9.51872 40.4665 7.44634 40.4665ZM73.5384 30.5396C76.9373 30.5396 79.707 33.3071 79.707 36.71C79.707 40.113 76.9375 42.8816 73.5384 42.8816C70.5461 42.8816 68.0476 40.7444 67.4861 37.9177H46.8789C45.9783 42.1495 44.5257 45.8807 42.6373 48.7578C42.3952 49.1209 41.9595 49.7368 41.4173 50.3799C40.9437 50.9549 40.053 50.9697 39.5676 50.381C39.0252 49.737 38.5798 49.1202 38.3474 48.758C36.4589 45.8809 35.0064 42.1488 34.1058 37.9179H13.4988C12.9371 40.7445 10.4388 42.8818 7.44652 42.8818C4.04757 42.8818 1.27785 40.1131 1.27785 36.7102C1.27785 33.3073 4.04739 30.5398 7.44652 30.5398C10.4388 30.5398 12.9373 32.6759 13.4988 35.5028H67.4859C68.0476 32.6759 70.5461 30.5396 73.5384 30.5396ZM73.5384 67.4833C71.466 67.4833 69.781 65.7983 69.781 63.727C69.781 61.6557 71.466 59.9706 73.5384 59.9706C75.6107 59.9706 77.286 61.6556 77.286 63.727C77.286 65.7983 75.6106 67.4833 73.5384 67.4833ZM74.7682 57.6804L74.7489 51.1612C74.7489 50.8571 74.6327 50.5646 74.4197 50.3419L67.7766 43.2243C67.5538 42.9803 67.2342 42.8409 66.8952 42.8409H63.3121C62.7602 42.8409 62.2858 43.2117 62.1501 43.7444C59.0706 55.5305 52.5922 64.3737 45.0195 67.308V62.9261C48.6026 61.0523 51.2656 57.7636 52.9119 55.2586C54.955 52.1424 56.6015 48.4866 57.8118 44.3914C58.0421 43.6069 57.4584 42.8411 56.6595 42.8411H49.9196C49.4064 42.8411 48.9512 43.1665 48.777 43.6526C47.5479 47.1356 45.7199 50.881 42.9667 53.5601C42.4923 54.025 42.4728 54.789 42.9377 55.2674C43.4026 55.7458 44.1675 55.7584 44.6517 55.2935C47.4506 52.5936 49.4981 48.6558 50.7719 45.2563H55.0134C53.0915 51.0019 49.1655 58.3991 43.3057 61.0728C42.8795 61.2683 42.5988 61.6984 42.5988 62.172V68.9787C42.5988 69.7863 43.366 70.352 44.1288 70.1428C48.69 68.8829 52.9895 65.7801 56.5724 61.1716C59.8844 56.905 62.528 51.418 64.2419 45.2563H66.3723L72.3376 51.6438L72.3568 57.6699C69.5196 58.2209 67.36 60.727 67.36 63.7272C67.36 67.1301 70.1295 69.8986 73.5382 69.8986C76.9371 69.8986 79.7069 67.13 79.7069 63.7272C79.7069 60.7483 77.5862 58.2557 74.7682 57.6804Z" fill="#F57A00"/>
</svg>
