<svg width="73" height="72" viewBox="0 0 73 72" fill="none" xmlns="http://www.w3.org/2000/svg">
<path d="M47.3748 35.9843H47.3849M36.5488 50.1759C36.4869 50.1759 36.4249 50.162 36.3678 50.1337C36.2807 50.091 34.2027 49.0586 31.7743 46.8305C27.6946 43.1001 23.1434 36.5237 24.6302 26.3813C24.6467 26.2691 24.7087 26.1693 24.8016 26.1047C24.8935 26.04 25.0094 26.0144 25.1204 26.039C25.1472 26.0454 27.8244 26.5832 31.0646 25.6123C32.9744 25.0472 34.7111 24.0651 36.2279 22.6931C36.3715 22.5633 36.5889 22.5521 36.747 22.668C36.7582 22.676 37.8872 23.5054 39.601 24.3476C40.9864 25.0269 43.1162 25.8841 45.3918 26.1089C46.2864 26.2008 47.1692 26.1848 48.0194 26.0651C48.2325 26.0251 48.4435 26.1821 48.4814 26.4011C48.4872 26.4347 48.6245 27.2385 48.671 28.5795C48.7244 30.3312 48.6111 33.0555 47.77 36.0938C47.7631 36.1183 47.754 36.1418 47.7433 36.1643C47.2578 37.9315 46.5732 39.61 45.7091 41.1551C45.3341 41.8301 44.9598 42.4331 44.5656 42.9981C44.5336 43.0515 44.4796 43.1322 44.4252 43.2037C43.5103 44.5015 42.4326 45.7256 41.231 46.83C39.9364 48.0231 38.4314 49.1302 36.7577 50.1188C36.693 50.1567 36.6209 50.1759 36.5488 50.1759ZM25.3848 26.9127C24.1308 36.4655 28.4503 42.6793 32.3281 46.2254C34.2481 47.9873 35.972 48.9892 36.536 49.2958C38.0821 48.3665 39.4734 47.3347 40.675 46.2265C41.8344 45.1611 42.8737 43.9808 43.7635 42.7183C43.811 42.6558 43.8489 42.5986 43.8804 42.5484C44.2708 41.9871 44.6308 41.4066 44.9929 40.7556C45.8367 39.2469 46.5021 37.6057 46.9716 35.8769C46.9785 35.8513 46.9876 35.8267 46.9994 35.8032C47.7951 32.8931 47.9019 30.2864 47.8506 28.6062C47.825 27.8569 47.7689 27.2791 47.7262 26.9276C46.9379 27.0099 46.1272 27.0094 45.309 26.925C43.3864 26.7349 41.3436 26.1153 39.2394 25.0841C37.939 24.4448 36.9772 23.8237 36.5317 23.5193C34.9824 24.8608 33.2232 25.8291 31.2985 26.3984C28.5977 27.2075 26.3087 27.0361 25.3848 26.9127Z" stroke="#F57A00" stroke-width="1.2"/>
<path d="M36.5197 67.3221C19.3517 67.3221 5.38495 53.3548 5.38495 36.1868C5.38495 19.0183 19.3517 5.05103 36.5197 5.05103C53.6876 5.05103 67.6549 19.0183 67.6549 36.1868C67.6549 53.3548 53.6876 67.3221 36.5197 67.3221ZM36.5197 5.87134C19.8041 5.87134 6.20527 19.4707 6.20527 36.1868C6.20527 52.9025 19.8041 66.5018 36.5197 66.5018C53.2353 66.5018 66.8346 52.9025 66.8346 36.1868C66.8346 19.4707 53.2353 5.87134 36.5197 5.87134ZM36.5197 60.3473C23.198 60.3473 12.3598 49.509 12.3598 36.1868C12.3598 22.8732 23.198 12.0414 36.5197 12.0414C49.8338 12.0414 60.6657 22.8732 60.6657 36.1868C60.6657 49.509 49.8338 60.3473 36.5197 60.3473ZM36.5197 12.8617C23.6504 12.8617 13.1801 23.3256 13.1801 36.1868C13.1801 49.0567 23.6504 59.527 36.5197 59.527C49.3815 59.527 59.8454 49.0567 59.8454 36.1868C59.8454 23.3256 49.3815 12.8617 36.5197 12.8617Z" stroke="#F57A00" stroke-width="1.2"/>
<path d="M36.5117 16.0126C36.2853 16.0126 36.1016 15.8288 36.1016 15.6024V1.62012C36.1016 1.39368 36.2853 1.20996 36.5117 1.20996C36.7382 1.20996 36.9219 1.39368 36.9219 1.62012V15.6024C36.9219 15.8288 36.7382 16.0126 36.5117 16.0126Z" stroke="#F57A00" stroke-width="1.2"/>
<path d="M36.5117 71.1772C36.2853 71.1772 36.1016 70.9934 36.1016 70.767V56.7842C36.1016 56.5577 36.2853 56.374 36.5117 56.374C36.7382 56.374 36.9219 56.5577 36.9219 56.7842V70.767C36.9219 70.9934 36.7382 71.1772 36.5117 71.1772Z" stroke="#F57A00" stroke-width="1.2"/>
<path d="M71.0858 36.6045H57.1035C56.8771 36.6045 56.6934 36.4208 56.6934 36.1943C56.6934 35.9679 56.8771 35.7842 57.1035 35.7842H71.0858C71.3122 35.7842 71.4959 35.9679 71.4959 36.1943C71.4959 36.4208 71.3122 36.6045 71.0858 36.6045Z" stroke="#F57A00" stroke-width="1.2"/>
<path d="M15.9223 36.6045H1.93946C1.71301 36.6045 1.5293 36.4208 1.5293 36.1943C1.5293 35.9679 1.71301 35.7842 1.93946 35.7842H15.9223C16.1487 35.7842 16.3324 35.9679 16.3324 36.1943C16.3324 36.4208 16.1487 36.6045 15.9223 36.6045Z" stroke="#F57A00" stroke-width="1.2"/>
<path d="M36.5126 37.4325C34.6285 37.4325 33.0957 35.8997 33.0957 34.0156C33.0957 32.1314 34.6285 30.5986 36.5126 30.5986C38.3968 30.5986 39.9296 32.1314 39.9296 34.0156C39.9296 35.8997 38.3968 37.4325 36.5126 37.4325ZM36.5126 31.419C35.0808 31.419 33.916 32.5837 33.916 34.0156C33.916 35.4474 35.0808 36.6122 36.5126 36.6122C37.9444 36.6122 39.1092 35.4474 39.1092 34.0156C39.1092 32.5837 37.9444 31.419 36.5126 31.419Z" stroke="#F57A00" stroke-width="1.2"/>
<path d="M36.5117 42.164C36.2853 42.164 36.1016 41.9803 36.1016 41.7538V37.0215C36.1016 36.795 36.2853 36.6113 36.5117 36.6113C36.7382 36.6113 36.9219 36.795 36.9219 37.0215V41.7538C36.9219 41.9803 36.7382 42.164 36.5117 42.164Z" stroke="#F57A00" stroke-width="1.2"/>
<path d="M2.00977 11.0704C1.78333 11.0704 1.59961 10.8867 1.59961 10.6602V1.59668C1.59961 1.37024 1.78333 1.18652 2.00977 1.18652H11.0739C11.3003 1.18652 11.484 1.37024 11.484 1.59668C11.484 1.82313 11.3003 2.00684 11.0739 2.00684H2.41993V10.6602C2.41993 10.8867 2.23621 11.0704 2.00977 11.0704Z" stroke="#F57A00" stroke-width="1.2"/>
<path d="M71.0288 11.0704C70.8024 11.0704 70.6187 10.8867 70.6187 10.6602V2.00684H61.9647C61.7383 2.00684 61.5546 1.82313 61.5546 1.59668C61.5546 1.37024 61.7383 1.18652 61.9647 1.18652H71.0288C71.2553 1.18652 71.439 1.37024 71.439 1.59668V10.6602C71.439 10.8867 71.2553 11.0704 71.0288 11.0704Z" stroke="#F57A00" stroke-width="1.2"/>
<path d="M11.0739 71.1866H2.00977C1.78333 71.1866 1.59961 71.0029 1.59961 70.7765V61.7129C1.59961 61.4865 1.78333 61.3027 2.00977 61.3027C2.23621 61.3027 2.41993 61.4865 2.41993 61.7129V70.3663H11.0739C11.3003 70.3663 11.484 70.55 11.484 70.7765C11.484 71.0029 11.3003 71.1866 11.0739 71.1866Z" stroke="#F57A00" stroke-width="1.2"/>
<path d="M71.0288 71.1864H61.9647C61.7383 71.1864 61.5546 71.0027 61.5546 70.7762C61.5546 70.5498 61.7383 70.3661 61.9647 70.3661H70.6187V61.7126C70.6187 61.4862 70.8024 61.3025 71.0288 61.3025C71.2553 61.3025 71.439 61.4862 71.439 61.7126V70.7762C71.439 71.0027 71.2553 71.1864 71.0288 71.1864Z" stroke="#F57A00" stroke-width="1.2"/>
</svg>
