<svg width="71" height="71" viewBox="0 0 71 71" fill="none" xmlns="http://www.w3.org/2000/svg">
<path d="M62.3099 4.85319V3.68652C62.3099 2.75827 61.9411 1.86803 61.2848 1.21165C60.6284 0.555272 59.7382 0.186524 58.8099 0.186524C57.8816 0.186524 56.9914 0.555272 56.335 1.21165C55.6786 1.86803 55.3099 2.75827 55.3099 3.68652V4.85319H50.6432V3.68652C50.6432 2.75827 50.2745 1.86803 49.6181 1.21165C48.9617 0.555272 48.0715 0.186523 47.1432 0.186523C46.215 0.186523 45.3247 0.555272 44.6684 1.21165C44.012 1.86803 43.6432 2.75827 43.6432 3.68652V4.85319H38.9766V3.68652C38.9766 2.75827 38.6078 1.86803 37.9514 1.21165C37.2951 0.555272 36.4048 0.186523 35.4766 0.186523C34.5483 0.186523 33.6581 0.555272 33.0017 1.21165C32.3453 1.86803 31.9766 2.75827 31.9766 3.68652V4.85319H27.3099V3.68652C27.3099 2.75827 26.9411 1.86803 26.2848 1.21165C25.6284 0.555272 24.7382 0.186523 23.8099 0.186523C22.8816 0.186523 21.9914 0.555272 21.335 1.21165C20.6786 1.86803 20.3099 2.75827 20.3099 3.68652V4.85319H15.6432V3.68652C15.6432 2.75827 15.2745 1.86803 14.6181 1.21165C13.9617 0.555272 13.0715 0.186523 12.1432 0.186523C11.215 0.186523 10.3247 0.555272 9.66835 1.21165C9.01198 1.86803 8.64323 2.75827 8.64323 3.68652V4.85319C6.47815 4.85597 4.40254 5.71727 2.87159 7.24822C1.34065 8.77917 0.479341 10.8548 0.476562 13.0199L0.476563 62.0199C0.479341 64.1849 1.34065 66.2605 2.87159 67.7915C4.40254 69.3224 6.47815 70.1837 8.64323 70.1865H62.3099C64.475 70.1837 66.5506 69.3224 68.0815 67.7915C69.6125 66.2605 70.4738 64.1849 70.4766 62.0199V13.0199C70.4738 10.8548 69.6125 8.77917 68.0815 7.24822C66.5506 5.71727 64.475 4.85597 62.3099 4.85319ZM57.6432 3.68652C57.6432 3.3771 57.7661 3.08036 57.9849 2.86157C58.2037 2.64277 58.5005 2.51986 58.8099 2.51986C59.1193 2.51986 59.4161 2.64277 59.6349 2.86157C59.8536 3.08036 59.9766 3.3771 59.9766 3.68652V8.35319C59.9766 8.66261 59.8536 8.95936 59.6349 9.17815C59.4161 9.39694 59.1193 9.51986 58.8099 9.51986C58.5005 9.51986 58.2037 9.39694 57.9849 9.17815C57.7661 8.95936 57.6432 8.66261 57.6432 8.35319V3.68652ZM45.9766 3.68652C45.9766 3.3771 46.0995 3.08036 46.3183 2.86157C46.5371 2.64277 46.8338 2.51986 47.1432 2.51986C47.4526 2.51986 47.7494 2.64277 47.9682 2.86157C48.187 3.08036 48.3099 3.3771 48.3099 3.68652V8.35319C48.3099 8.66261 48.187 8.95936 47.9682 9.17815C47.7494 9.39694 47.4526 9.51986 47.1432 9.51986C46.8338 9.51986 46.5371 9.39694 46.3183 9.17815C46.0995 8.95936 45.9766 8.66261 45.9766 8.35319V3.68652ZM34.3099 3.68652C34.3099 3.3771 34.4328 3.08036 34.6516 2.86157C34.8704 2.64277 35.1671 2.51986 35.4766 2.51986C35.786 2.51986 36.0827 2.64277 36.3015 2.86157C36.5203 3.08036 36.6432 3.3771 36.6432 3.68652V8.35319C36.6432 8.66261 36.5203 8.95936 36.3015 9.17815C36.0827 9.39694 35.786 9.51986 35.4766 9.51986C35.1671 9.51986 34.8704 9.39694 34.6516 9.17815C34.4328 8.95936 34.3099 8.66261 34.3099 8.35319V3.68652ZM22.6432 3.68652C22.6432 3.3771 22.7661 3.08036 22.9849 2.86157C23.2037 2.64277 23.5005 2.51986 23.8099 2.51986C24.1193 2.51986 24.4161 2.64277 24.6349 2.86157C24.8536 3.08036 24.9766 3.3771 24.9766 3.68652V8.35319C24.9766 8.66261 24.8536 8.95936 24.6349 9.17815C24.4161 9.39694 24.1193 9.51986 23.8099 9.51986C23.5005 9.51986 23.2037 9.39694 22.9849 9.17815C22.7661 8.95936 22.6432 8.66261 22.6432 8.35319V3.68652ZM10.9766 3.68652C10.9766 3.3771 11.0995 3.08036 11.3183 2.86157C11.5371 2.64277 11.8338 2.51986 12.1432 2.51986C12.4526 2.51986 12.7494 2.64277 12.9682 2.86157C13.187 3.08036 13.3099 3.3771 13.3099 3.68652V8.35319C13.3099 8.66261 13.187 8.95936 12.9682 9.17815C12.7494 9.39694 12.4526 9.51986 12.1432 9.51986C11.8338 9.51986 11.5371 9.39694 11.3183 9.17815C11.0995 8.95936 10.9766 8.66261 10.9766 8.35319V3.68652ZM62.3099 67.8532H8.64323C7.0967 67.8513 5.61405 67.2362 4.52049 66.1426C3.42692 65.049 2.81175 63.5664 2.8099 62.0199V16.5199H68.1432V62.0199C68.1414 63.5664 67.5262 65.049 66.4326 66.1426C65.3391 67.2362 63.8564 67.8513 62.3099 67.8532ZM68.1432 14.1865H2.8099V13.0199C2.81175 11.4733 3.42692 9.99067 4.52049 8.89711C5.61405 7.80355 7.0967 7.18838 8.64323 7.18652V8.35319C8.64323 9.28145 9.01198 10.1717 9.66835 10.8281C10.3247 11.4844 11.215 11.8532 12.1432 11.8532C13.0715 11.8532 13.9617 11.4844 14.6181 10.8281C15.2745 10.1717 15.6432 9.28145 15.6432 8.35319V7.18652H20.3099V8.35319C20.3099 9.28145 20.6786 10.1717 21.335 10.8281C21.9914 11.4844 22.8816 11.8532 23.8099 11.8532C24.7382 11.8532 25.6284 11.4844 26.2848 10.8281C26.9411 10.1717 27.3099 9.28145 27.3099 8.35319V7.18652H31.9766V8.35319C31.9766 9.28145 32.3453 10.1717 33.0017 10.8281C33.6581 11.4844 34.5483 11.8532 35.4766 11.8532C36.4048 11.8532 37.2951 11.4844 37.9514 10.8281C38.6078 10.1717 38.9766 9.28145 38.9766 8.35319V7.18652H43.6432V8.35319C43.6432 9.28145 44.012 10.1717 44.6684 10.8281C45.3247 11.4844 46.215 11.8532 47.1432 11.8532C48.0715 11.8532 48.9617 11.4844 49.6181 10.8281C50.2745 10.1717 50.6432 9.28145 50.6432 8.35319V7.18652H55.3099V8.35319C55.3099 9.28145 55.6786 10.1717 56.335 10.8281C56.9914 11.4844 57.8816 11.8532 58.8099 11.8532C59.7382 11.8532 60.6284 11.4844 61.2848 10.8281C61.9411 10.1717 62.3099 9.28145 62.3099 8.35319V7.18652C63.8561 7.1893 65.3383 7.80477 66.4316 8.89813C67.525 9.99149 68.1404 11.4736 68.1432 13.0199V14.1865Z" fill="#F57A00"/>
<path d="M51.8476 24.0527C42.4513 23.831 38.4018 20.8059 37.0963 19.5144C36.6635 19.0907 36.082 18.8535 35.4763 18.8535C34.8707 18.8535 34.2892 19.0907 33.8564 19.5144C32.5521 20.8047 28.5026 23.831 19.1063 24.0515C18.4943 24.0619 17.911 24.3124 17.4819 24.7488C17.0529 25.1853 16.8125 25.7728 16.8126 26.3849V47.2682C16.8017 50.5351 17.7755 53.7295 19.6068 56.4349C21.4382 59.1403 24.0421 61.2312 27.0793 62.4349L34.1796 65.2745C35.0134 65.609 35.944 65.609 36.7778 65.2745L43.8769 62.4302C46.914 61.2265 49.518 59.1357 51.3494 56.4303C53.1807 53.7249 54.1544 50.5305 54.1436 47.2635V26.3802C54.1421 25.7688 53.9008 25.1824 53.4714 24.7471C53.042 24.3118 52.4589 24.0625 51.8476 24.0527ZM51.8103 47.2647C51.8193 50.0646 50.9846 52.8023 49.4148 55.1209C47.8451 57.4394 45.6132 59.2312 43.0101 60.2625L35.9121 63.1034C35.633 63.2142 35.322 63.2142 35.0429 63.1034L27.9438 60.2625C25.3407 59.2312 23.1088 57.4394 21.539 55.1209C19.9693 52.8023 19.1345 50.0646 19.1436 47.2647V26.3942C19.1436 26.3942 19.1436 26.386 19.1669 26.386C29.0299 26.1527 33.6336 23.0202 35.4594 21.1745C37.3261 23.0202 41.9309 26.1515 51.8138 26.3825L51.8103 47.2647Z" fill="#F57A00"/>
<path d="M23.5428 28.412C22.9753 28.4794 22.4521 28.7519 22.0716 29.1782C21.6911 29.6045 21.4795 30.1552 21.4766 30.7266V46.4766C21.4686 49.0428 22.2336 51.552 23.672 53.6772C25.1103 55.8025 27.1553 57.4453 29.5406 58.3918L34.6121 60.4206C35.1672 60.6421 35.7861 60.6421 36.3411 60.4206L41.4091 58.393C43.7956 57.4472 45.8418 55.8043 47.2809 53.6785C48.7199 51.5526 49.4851 49.0426 49.4766 46.4755V30.7255C49.4738 30.154 49.2622 29.6034 48.8817 29.1771C48.5011 28.7508 47.9779 28.4782 47.4105 28.4108C43.6415 28.0433 39.9913 26.8908 36.6946 25.0275C36.3273 24.8057 35.9063 24.6885 35.4772 24.6885C35.0481 24.6885 34.6271 24.8057 34.2598 25.0275C30.9629 26.8915 27.3122 28.0444 23.5428 28.412ZM35.4906 27.033C39.0734 29.0665 43.0433 30.3249 47.1433 30.7266V46.4766C47.1501 48.5763 46.5242 50.6293 45.3472 52.368C44.1701 54.1067 42.4966 55.4505 40.5446 56.2241L35.4766 58.2518L30.4075 56.223C28.4558 55.449 26.7826 54.1051 25.6058 52.3665C24.429 50.6278 23.8032 48.575 23.81 46.4755L23.8263 30.7255C27.9284 30.3171 31.9008 29.0596 35.4906 27.033Z" fill="#F57A00"/>
<path d="M27.3092 43.3535H29.7592C29.9095 44.0839 30.1995 44.7783 30.6132 45.3987L29.9832 46.0287C29.8718 46.1363 29.7829 46.265 29.7218 46.4074C29.6606 46.5497 29.6285 46.7028 29.6271 46.8577C29.6258 47.0126 29.6553 47.1662 29.714 47.3096C29.7726 47.453 29.8592 47.5833 29.9688 47.6928C30.0783 47.8024 30.2086 47.889 30.352 47.9476C30.4953 48.0063 30.649 48.0358 30.8039 48.0345C30.9588 48.0331 31.1119 48.0009 31.2542 47.9398C31.3966 47.8787 31.5253 47.7898 31.6329 47.6784L32.2629 47.0483C32.8835 47.4627 33.5784 47.753 34.3092 47.9035V50.3535C34.3092 50.6629 34.4322 50.9597 34.651 51.1785C34.8697 51.3973 35.1665 51.5202 35.4759 51.5202C35.7853 51.5202 36.0821 51.3973 36.3009 51.1785C36.5197 50.9597 36.6426 50.6629 36.6426 50.3535V47.9035C37.3729 47.7533 38.0674 47.4633 38.6877 47.0495L39.3177 47.6795C39.5378 47.892 39.8325 48.0096 40.1384 48.007C40.4443 48.0043 40.7369 47.8816 40.9532 47.6653C41.1695 47.449 41.2922 47.1564 41.2949 46.8505C41.2975 46.5446 41.1799 46.2499 40.9674 46.0298L40.3374 45.3999C40.7517 44.7792 41.0421 44.0844 41.1926 43.3535H43.6426C43.952 43.3535 44.2487 43.2306 44.4675 43.0118C44.6863 42.793 44.8092 42.4963 44.8092 42.1868C44.8092 41.8774 44.6863 41.5807 44.4675 41.3619C44.2487 41.1431 43.952 41.0202 43.6426 41.0202H41.1926C41.0423 40.2898 40.7523 39.5954 40.3386 38.975L40.9686 38.345C41.1811 38.125 41.2987 37.8303 41.296 37.5244C41.2934 37.2185 41.1707 36.9259 40.9544 36.7096C40.7381 36.4933 40.4454 36.3706 40.1395 36.3679C39.8337 36.3652 39.5389 36.4828 39.3189 36.6953L38.6889 37.3253C38.0683 36.911 37.3734 36.6207 36.6426 36.4702V34.0202C36.6426 33.7108 36.5197 33.414 36.3009 33.1952C36.0821 32.9764 35.7853 32.8535 35.4759 32.8535C35.1665 32.8535 34.8697 32.9764 34.651 33.1952C34.4322 33.414 34.3092 33.7108 34.3092 34.0202V36.4702C33.5789 36.6204 32.8844 36.9104 32.2641 37.3242L31.6341 36.6942C31.414 36.4817 31.1193 36.3641 30.8134 36.3667C30.5075 36.3694 30.2149 36.4921 29.9986 36.7084C29.7823 36.9247 29.6596 37.2173 29.657 37.5232C29.6543 37.8291 29.7719 38.1238 29.9844 38.3439L30.6144 38.9738C30.2001 39.5945 29.9097 40.2893 29.7592 41.0202H27.3092C26.9998 41.0202 26.7031 41.1431 26.4843 41.3619C26.2655 41.5807 26.1426 41.8774 26.1426 42.1868C26.1426 42.4963 26.2655 42.793 26.4843 43.0118C26.7031 43.2306 26.9998 43.3535 27.3092 43.3535ZM35.4759 38.6868C36.1681 38.6868 36.8448 38.8921 37.4204 39.2767C37.996 39.6613 38.4446 40.2079 38.7095 40.8475C38.9744 41.487 39.0437 42.1907 38.9087 42.8697C38.7736 43.5486 38.4403 44.1722 37.9508 44.6617C37.4613 45.1512 36.8377 45.4846 36.1587 45.6196C35.4798 45.7546 34.7761 45.6853 34.1365 45.4204C33.497 45.1555 32.9504 44.7069 32.5658 44.1313C32.1812 43.5558 31.9759 42.8791 31.9759 42.1868C31.9759 41.2586 32.3447 40.3684 33.001 39.712C33.6574 39.0556 34.5477 38.6868 35.4759 38.6868Z" fill="#F57A00"/>
</svg>
