<svg width="71" height="71" viewBox="0 0 71 71" fill="none" xmlns="http://www.w3.org/2000/svg">
<path d="M68.1722 61.0836H64.6722V22.5843C64.6722 20.6546 63.1019 19.0843 61.1723 19.0843H44.6946C44.5534 16.513 44.3306 14.8051 44.1311 13.7154C44.0518 13.2896 43.8931 12.8964 43.6749 12.5453C44.3784 11.9748 44.8381 11.1138 44.8381 10.1385V4.57823C44.8381 3.91674 44.5184 3.29025 43.9818 2.90293C43.4451 2.51793 42.7498 2.41177 42.1221 2.6206L38.9803 3.66825C38.8508 1.85761 37.3505 0.417969 35.5061 0.417969C33.6616 0.417969 32.1613 1.85761 32.0318 3.66941L28.89 2.62177C28.2647 2.40944 27.5682 2.5191 27.0304 2.90409C26.4937 3.29142 26.1741 3.91674 26.1741 4.5794V10.1408C26.1741 11.1161 26.6337 11.9771 27.3384 12.5476C27.1202 12.8999 26.9604 13.2931 26.8822 13.7189C26.6827 14.8062 26.461 16.5142 26.3187 19.0855H9.84099C7.91136 19.0855 6.34105 20.6558 6.34105 22.5854V61.0848H2.84111C1.55429 61.0848 0.507812 62.1313 0.507812 63.4181V64.5847C0.507812 67.8012 3.1246 70.418 6.34105 70.418H64.6734C67.8899 70.418 70.5066 67.8012 70.5066 64.5847V63.4181C70.5066 62.1313 69.4602 61.0848 68.1733 61.0848L68.1722 61.0836ZM57.6724 26.0842V56.417H13.3398V26.0842H26.2242C26.7574 37.4625 34.8306 39.937 35.1864 40.0396C35.2914 40.0688 35.3987 40.084 35.5061 40.084C35.6134 40.084 35.7219 40.0688 35.8257 40.0396C36.1816 39.937 44.2547 37.4625 44.7879 26.0842H57.6724ZM30.2561 13.2511H32.0061C32.0061 15.1807 33.5764 16.751 35.5061 16.751C37.4357 16.751 39.006 15.1807 39.006 13.2511H40.756C41.2868 13.2511 41.743 13.6244 41.8375 14.1377C42.1431 15.8049 42.5059 19.0272 42.5059 24.9176C42.5059 34.3382 36.9352 37.123 35.5061 37.6818C34.0699 37.1195 28.5062 34.3324 28.5062 24.9176C28.5062 19.0272 28.8702 15.8037 29.1747 14.1401C29.2692 13.6256 29.7253 13.2511 30.2561 13.2511ZM42.5059 4.95273V10.1396C42.5059 10.569 42.1571 10.9178 41.7278 10.9178H39.006V6.11937L42.5059 4.95156V4.95273ZM34.3394 3.91791C34.3394 3.27392 34.8621 2.75126 35.5061 2.75126C36.1501 2.75126 36.6727 3.27392 36.6727 3.91791V13.2511C36.6727 13.8951 36.1501 14.4177 35.5061 14.4177C34.8621 14.4177 34.3394 13.8951 34.3394 13.2511V3.91791ZM28.5062 4.95273L32.0061 6.12054V10.919H29.2843C28.855 10.919 28.5062 10.5701 28.5062 10.1408V4.95273ZM8.67318 22.5843C8.67318 21.9403 9.19583 21.4176 9.83982 21.4176H26.2242C26.2032 22.1398 26.1892 22.9214 26.1822 23.7509H12.1731C11.528 23.7509 11.0065 24.2724 11.0065 24.9176V57.5837C11.0065 58.2288 11.528 58.7503 12.1731 58.7503H58.839C59.4842 58.7503 60.0057 58.2288 60.0057 57.5837V24.9176C60.0057 24.2724 59.4842 23.7509 58.839 23.7509H44.8299C44.8229 22.9214 44.8089 22.1398 44.7879 21.4176H61.1723C61.8163 21.4176 62.3389 21.9403 62.3389 22.5843V61.0836H8.67318V22.5843ZM68.1722 64.5836C68.1722 66.5132 66.6019 68.0835 64.6722 68.0835H6.33988C4.41025 68.0835 2.83994 66.5132 2.83994 64.5836V63.4169H68.1722V64.5836Z" fill="#F57A00"/>
<path d="M21.5058 42.417H19.1725C18.5274 42.417 18.0059 42.9385 18.0059 43.5836V52.9168C18.0059 53.562 18.5274 54.0835 19.1725 54.0835H21.5058C23.4354 54.0835 25.0057 52.5132 25.0057 50.5835V45.9169C25.0057 43.9873 23.4354 42.417 21.5058 42.417ZM22.6724 50.5835C22.6724 51.2275 22.1498 51.7502 21.5058 51.7502H20.3392V44.7503H21.5058C22.1498 44.7503 22.6724 45.2729 22.6724 45.9169V50.5835Z" fill="#F57A00"/>
<path d="M30.8378 42.417H28.5045C27.8594 42.417 27.3379 42.9385 27.3379 43.5836V52.9168C27.3379 53.562 27.8594 54.0835 28.5045 54.0835H30.8378C32.7675 54.0835 34.3378 52.5132 34.3378 50.5835V45.9169C34.3378 43.9873 32.7675 42.417 30.8378 42.417ZM32.0045 50.5835C32.0045 51.2275 31.4818 51.7502 30.8378 51.7502H29.6712V44.7503H30.8378C31.4818 44.7503 32.0045 45.2729 32.0045 45.9169V50.5835Z" fill="#F57A00"/>
<path d="M36.6719 49.4169V50.5836C36.6719 52.5132 38.2422 54.0835 40.1718 54.0835C42.1015 54.0835 43.6718 52.5132 43.6718 50.5836V49.4169C43.6718 47.4873 42.1015 45.917 40.1718 45.917C38.2422 45.917 36.6719 47.4873 36.6719 49.4169ZM41.3385 49.4169V50.5836C41.3385 51.2276 40.8158 51.7502 40.1718 51.7502C39.5278 51.7502 39.0052 51.2276 39.0052 50.5836V49.4169C39.0052 48.7729 39.5278 48.2503 40.1718 48.2503C40.8158 48.2503 41.3385 48.7729 41.3385 49.4169Z" fill="#F57A00"/>
<path d="M50.0872 49.4169C51.0193 49.4169 51.8371 49.9629 51.8371 50.5835C51.8371 51.2042 51.0193 51.7502 50.0872 51.7502C49.1632 51.7502 48.6114 51.4433 48.1844 50.6932C47.867 50.1344 47.1577 49.9384 46.5942 50.2557C46.0342 50.573 45.8382 51.2858 46.1567 51.8458C47.0014 53.3298 48.3232 54.0835 50.0872 54.0835C52.3388 54.0835 54.1704 52.5132 54.1704 50.5835C54.1704 48.6539 52.3388 47.0836 50.0872 47.0836C49.155 47.0836 48.3372 46.5376 48.3372 45.9169C48.3372 45.2963 49.155 44.7503 50.0872 44.7503C51.0112 44.7503 51.563 45.0571 51.99 45.8073C52.3096 46.3673 53.0201 46.5644 53.5801 46.2448C54.1401 45.9274 54.3361 45.2146 54.0176 44.6546C53.173 43.1706 51.8511 42.417 50.0872 42.417C47.8355 42.417 46.0039 43.9873 46.0039 45.9169C46.0039 47.8466 47.8355 49.4169 50.0872 49.4169Z" fill="#F57A00"/>
</svg>
