<svg width="1674" height="723" viewBox="0 0 1674 723" fill="none" xmlns="http://www.w3.org/2000/svg">
<path d="M0 707.133C0 698.595 374.6 691.687 836.692 691.687C1298.78 691.687 1673.38 698.595 1673.38 707.133C1673.38 715.67 1298.78 722.578 836.692 722.578C374.6 722.578 0 715.67 0 707.133Z" fill="#353738"/>
<path d="M340.907 164.36L340.874 226.435C340.874 231.909 336.41 236.374 330.936 236.374C325.462 236.374 320.997 231.909 320.997 226.435L321.03 164.36C321.03 158.886 325.494 154.422 330.969 154.422C336.475 154.422 340.907 158.886 340.907 164.36Z" fill="#01273E"/>
<path d="M447.135 0.00012207L509.21 0.0327193C514.684 0.0327193 519.148 4.4969 519.148 9.97122C519.148 15.4455 514.684 19.9097 509.21 19.9097L447.135 19.8771C441.661 19.8771 437.197 15.4129 437.197 9.93862C437.197 4.43172 441.661 0.00012207 447.135 0.00012207Z" fill="#01273E"/>
<path d="M540.492 0.0653076L602.567 0.0979048C608.041 0.0979048 612.505 4.56208 612.505 10.0364C612.505 15.5107 608.041 19.9749 602.567 19.9749L540.492 19.9423C535.017 19.9423 530.553 15.4781 530.553 10.0038C530.553 4.4969 534.985 0.0653076 540.492 0.0653076Z" fill="#01273E"/>
<path d="M396.726 9.90603L1243.23 10.4274C1279.49 10.46 1308.85 39.8519 1308.82 76.1193L1308.46 641.539C1308.43 677.806 1279.04 707.165 1242.77 707.133L396.269 706.611C360.002 706.579 330.643 677.187 330.675 640.919L331.001 75.5002C331.066 39.2654 360.458 9.87345 396.726 9.90603Z" fill="url(#paint0_linear_1681_385)"/>
<path d="M404.774 35.0944L1235.14 35.5832C1262.48 35.6158 1284.61 57.7737 1284.61 85.1128L1284.28 632.512C1284.28 659.851 1262.09 681.977 1234.75 681.977L404.383 681.455C377.044 681.423 354.919 659.265 354.919 631.926L355.245 84.5262C355.277 57.2198 377.435 35.0618 404.774 35.0944Z" fill="white"/>
<path d="M404.774 35.0618C377.435 35.0292 355.277 57.1872 355.245 84.5262V86.9375H1284.25V79.6059C1281.55 54.8737 1260.59 35.5832 1235.11 35.5832L404.774 35.0618Z" fill="#215A91"/>
<path d="M396.693 61.1952C396.66 52.8534 403.405 46.0757 411.747 46.0757C420.089 46.0431 426.867 52.7882 426.867 61.1301C426.899 69.4719 420.154 76.2496 411.845 76.2496C403.503 76.2496 396.725 69.5371 396.693 61.1952Z" fill="#7103A4"/>
<path d="M439.803 61.0649C439.771 52.723 446.516 45.9779 454.825 45.9453C463.167 45.9127 469.945 52.6579 469.945 60.9671C469.977 69.3089 463.232 76.0867 454.89 76.0867C446.614 76.1193 439.836 69.4067 439.803 61.0649Z" fill="#F5891D"/>
<path d="M478.743 60.9345C478.71 52.5927 485.455 45.8149 493.797 45.8149C502.139 45.7824 508.917 52.5275 508.917 60.8368C508.949 69.1786 502.204 75.9563 493.862 75.9563C485.553 75.9889 478.775 69.2763 478.743 60.9345Z" fill="white"/>
<path d="M400.896 187.105H509.08V291.508H400.896V187.105Z" fill="#E9F4FE"/>
<path d="M400.896 303.499H509.08V407.902H400.896V303.499Z" fill="#F57A00"/>
<path d="M400.896 420.382H509.08V524.786H400.896V420.382Z" fill="#BFD6EB"/>
<path d="M400.896 538.276H509.08V642.679H400.896V538.276Z" fill="#BFD6EB"/>
<path d="M881.659 185.997H989.842V290.4H881.659V185.997Z" fill="#BFD6EB"/>
<path d="M881.659 302.359H989.842V406.762H881.659V302.359Z" fill="#BFD6EB"/>
<path d="M881.659 419.274H989.842V523.678H881.659V419.274Z" fill="#BFD6EB"/>
<path d="M881.659 537.168H989.842V641.571H881.659V537.168Z" fill="#E9F4FE"/>
<path d="M639.974 187.105H748.157V291.508H639.974V187.105Z" fill="#E9F4FE"/>
<path d="M639.974 303.499H748.157V407.902H639.974V303.499Z" fill="#BFD6EB"/>
<path d="M639.974 420.382H748.157V524.786H639.974V420.382Z" fill="#BFD6EB"/>
<path d="M639.974 538.276H748.157V642.679H639.974V538.276Z" fill="#BFD6EB"/>
<path d="M1120.74 185.997H1228.92V290.4H1120.74V185.997Z" fill="#F57A00"/>
<path d="M1120.74 302.359H1228.92V406.762H1120.74V302.359Z" fill="#F57A00"/>
<path d="M1120.74 419.274H1228.92V523.678H1120.74V419.274Z" fill="#F57A00"/>
<path d="M1120.74 537.168H1228.92V641.571H1120.74V537.168Z" fill="#E9F4FE"/>
<path d="M521.136 187.105H629.286V291.508H521.136V187.105Z" fill="#E9F4FE"/>
<path d="M521.136 303.499H629.286V407.902H521.136V303.499Z" fill="#BFD6EB"/>
<path d="M521.136 420.382H629.286V524.786H521.136V420.382Z" fill="#BFD6EB"/>
<path d="M521.136 538.276H629.286V642.679H521.136V538.276Z" fill="#BFD6EB"/>
<path d="M1001.9 185.997H1110.05V290.4H1001.9V185.997Z" fill="#F57A00"/>
<path d="M1001.9 302.359H1110.05V406.762H1001.9V302.359Z" fill="#F57A00"/>
<path d="M1001.9 419.274H1110.05V523.678H1001.9V419.274Z" fill="#F57A00"/>
<path d="M1001.9 537.168H1110.05V641.571H1001.9V537.168Z" fill="#E9F4FE"/>
<path d="M760.214 187.105H868.365V291.508H760.214V187.105Z" fill="#BFD6EB"/>
<path d="M760.214 303.499H868.365V407.902H760.214V303.499Z" fill="#BFD6EB"/>
<path d="M760.214 420.382H868.365V524.786H760.214V420.382Z" fill="#BFD6EB"/>
<path d="M760.214 538.276H868.365V642.679H760.214V538.276Z" fill="#BFD6EB"/>
<path d="M662.458 136.206C662.458 132.883 665.163 130.178 668.487 130.178H742.944C746.268 130.178 748.94 132.883 748.94 136.206V137.054C748.94 140.377 746.235 143.049 742.944 143.049H668.487C665.163 143.049 662.458 140.345 662.458 137.054V136.206Z" fill="#C2E1FF"/>
<path d="M487.964 113.462C487.964 110.138 485.26 107.466 481.969 107.466H407.511C404.188 107.466 401.483 110.171 401.483 113.462V114.309C401.483 117.633 404.188 120.337 407.511 120.337H481.969C485.292 120.337 487.964 117.633 487.964 114.309V113.462Z" fill="url(#paint1_linear_1681_385)"/>
<path d="M483.859 161.069C483.859 157.517 486.759 154.617 490.31 154.617H563.888C567.44 154.617 570.34 157.485 570.34 161.069C570.34 164.621 567.472 167.521 563.888 167.521H490.31C486.759 167.521 483.859 164.621 483.859 161.069Z" fill="#C2E1FF"/>
<path d="M608.497 136.109C608.497 132.85 611.136 130.211 614.395 130.211H651.053C654.312 130.211 656.951 132.85 656.951 136.109V137.217C656.951 140.475 654.312 143.114 651.053 143.114H614.395C611.136 143.114 608.497 140.475 608.497 137.217V136.109Z" fill="#C2E1FF"/>
<path d="M493.504 113.788C493.504 110.301 496.339 107.466 499.825 107.466H535.604C539.091 107.466 541.925 110.301 541.925 113.788V114.016C541.925 117.503 539.091 120.337 535.604 120.337H499.825C496.339 120.337 493.504 117.503 493.504 114.016V113.788Z" fill="url(#paint2_linear_1681_385)"/>
<path d="M429.897 161.069C429.897 157.517 432.765 154.617 436.349 154.617H471.9C475.451 154.617 478.352 157.485 478.352 161.069C478.352 164.621 475.451 167.521 471.9 167.521H436.349C432.765 167.521 429.897 164.621 429.897 161.069Z" fill="#C2E1FF"/>
<path d="M583.016 161.069C583.016 157.517 585.883 154.617 589.467 154.617H625.018C628.57 154.617 631.47 157.485 631.47 161.069C631.47 164.621 628.57 167.521 625.018 167.521H589.467C585.916 167.521 583.016 164.621 583.016 161.069Z" fill="#C2E1FF"/>
<path d="M401.483 136.5C401.483 133.046 404.285 130.211 407.772 130.211H427.649C431.103 130.211 433.938 133.013 433.938 136.5V136.826C433.938 140.28 431.136 143.114 427.649 143.114H407.772C404.318 143.114 401.483 140.312 401.483 136.826V136.5Z" fill="#C2E1FF"/>
<path d="M580.083 135.946C580.083 132.785 582.657 130.211 585.818 130.211H597.451C600.611 130.211 603.186 132.785 603.186 135.946V137.347C603.186 140.508 600.611 143.082 597.451 143.082H585.818C582.657 143.082 580.083 140.508 580.083 137.347V135.946Z" fill="#C2E1FF"/>
<path d="M570.34 113.201C570.34 110.041 567.766 107.466 564.605 107.466H552.939C549.778 107.466 547.204 110.041 547.204 113.201V114.602C547.204 117.763 549.778 120.337 552.939 120.337H564.605C567.766 120.337 570.34 117.763 570.34 114.602V113.201Z" fill="url(#paint3_linear_1681_385)"/>
<path d="M401.483 161.069C401.483 157.517 404.383 154.617 407.935 154.617H418.167C421.718 154.617 424.619 157.485 424.619 161.069C424.619 164.621 421.751 167.521 418.167 167.521H407.935C404.383 167.521 401.483 164.621 401.483 161.069Z" fill="#C2E1FF"/>
<path d="M443.127 136.272C443.127 132.915 445.832 130.211 449.188 130.211H463.656C467.012 130.211 469.717 132.915 469.717 136.272V137.054C469.717 140.41 467.012 143.114 463.656 143.114H449.188C445.832 143.114 443.127 140.41 443.127 137.054V136.272Z" fill="#C2E1FF"/>
<path d="M474.539 136.206C474.539 132.915 477.211 130.211 480.535 130.211H489.268C492.559 130.211 495.263 132.883 495.263 136.206V137.119C495.263 140.41 492.591 143.114 489.268 143.114H480.535C477.244 143.114 474.539 140.442 474.539 137.119V136.206Z" fill="#C2E1FF"/>
<path d="M499.402 136.5C499.402 133.013 502.237 130.211 505.691 130.211H564.051C567.538 130.211 570.34 133.046 570.34 136.5V136.793C570.34 140.28 567.538 143.082 564.051 143.082H505.691C502.204 143.082 499.402 140.247 499.402 136.793V136.5Z" fill="#C2E1FF"/>
<path d="M309.853 434.133L299.524 567.635L289.813 676.633C289.813 676.633 283.883 684.551 277.17 685.691C270.49 686.799 262.409 681.13 262.409 681.13L264.527 567.309L262.409 486.335L223.633 435.534L309.853 434.133Z" fill="#041F40"/>
<path d="M285.284 434.133L262.376 486.368L202.745 679.696L180.783 677.839L182.249 664.348L218.745 432.863L285.284 434.133Z" fill="#041F40"/>
<path d="M289.813 676.666L307.084 693.61C307.084 693.61 319.173 689.178 321.03 696.184C322.887 703.157 320.183 702.245 320.183 702.245L262.311 702.734L262.442 681.195C262.442 681.195 272.25 686.278 277.626 684.91C282.905 683.508 289.813 676.666 289.813 676.666Z" fill="white"/>
<path d="M262.409 701.887L262.377 706.351L321.486 707.133V701.333L272.543 702.049L262.409 701.887Z" fill="#BCBCBC"/>
<path d="M311.124 297.308L281.928 284.078L275.834 276.747L246.28 271.338L237.156 280.592L202.713 299.817L228.064 381.28L218.517 433.873C218.517 433.873 246.279 437.327 268.209 437.913C290.139 438.5 309.821 434.166 309.821 434.166C309.821 434.166 306.953 401.874 308.485 377.403C310.016 352.931 315.914 336.312 315.914 336.312L311.124 297.308Z" fill="#A535C5"/>
<path d="M310.994 297.308L428.366 361.566L421.327 376.653L301.251 334.585L310.994 297.308Z" fill="#A535C5"/>
<path d="M418.59 356.222L428.366 361.566L421.327 376.653L411.584 373.199L418.59 356.222Z" fill="#DDDDDD"/>
<path d="M271.989 464.633L262.377 486.368V681.162C262.377 681.162 264.169 682.107 266.287 682.922C268.405 683.737 270.881 684.453 270.881 684.453L271.989 464.633Z" fill="#001023"/>
<path d="M218.745 432.863L183.162 658.581L180.751 677.839C180.751 677.839 182.934 677.382 184.791 677.056C186.649 676.731 188.213 676.535 188.213 676.535L204.147 564.931C204.147 564.931 208.09 526.285 217.214 480.958C224.936 442.671 247.387 436.74 247.387 436.74L218.745 432.863Z" fill="#001023"/>
<path d="M219.625 301.446C219.625 301.446 227.152 304.021 235.038 317.152C242.956 330.284 247.42 348.793 247.42 348.793L295.907 360.98L300.143 381.573L233.017 391.251C233.017 391.251 226.305 416.994 229.563 428.464C231.29 434.557 247.42 436.74 247.42 436.74L218.712 432.863L231.062 343.025L202.713 299.817L219.625 301.446Z" fill="#7103A4"/>
<path d="M219.625 301.446C230.997 309.951 243.673 352.507 243.673 352.507L299.556 365.835L300.175 378.673C300.175 378.673 245.725 390.437 233.897 383.692C223.893 377.957 204.798 341.135 198.216 318.488C192.807 299.98 208.252 292.942 219.625 301.446Z" fill="#A535C5"/>
<path d="M413.67 292.746L336.41 290.53L329.633 365.835H404.644L413.67 292.746Z" fill="#4B4B4B"/>
<path d="M246.28 271.338L266.385 291.182L259.542 290.53L253.709 297.308L238.427 279.321L246.28 271.338Z" fill="#DDDDDD"/>
<path d="M275.834 276.747L266.385 291.182L275.932 287.858L281.993 299.98L285.284 286.392L281.928 284.078L275.834 276.747Z" fill="#DDDDDD"/>
<path d="M330.089 360.849L280.461 361.012C279.125 361.012 278.05 362.087 278.05 363.423C278.05 364.759 279.125 365.835 280.461 365.835H329.633L330.089 360.849Z" fill="#303030"/>
<path d="M296.167 365.835H301.283L311.711 359.122L320.052 357.135C320.052 357.135 320.444 360.589 318.521 361.338C316.175 362.25 312.981 362.446 312.981 362.446L313.894 365.835H341.852L330.838 373.069L328.036 372.645L324.614 374.665L322.79 374.209L317.022 376.099L300.143 378.706L296.167 365.835Z" fill="#F1D2B2"/>
<path d="M296.167 365.835L300.175 378.673L285.154 381.573L283.589 365.835H296.167Z" fill="#DDDDDD"/>
<path d="M270.849 272.804L275.052 277.92L266.352 291.215L248.169 273.26L251.33 268.763C251.33 268.763 236.895 264.169 233.278 249.277C229.694 234.353 234.484 223.209 249.538 218.517C264.592 213.857 277.105 220.798 277.105 220.798L270.849 272.804Z" fill="#FFE1C2"/>
<path d="M271.044 272.804L272.152 276.779C272.152 276.779 265.211 275.085 261.203 271.142C257.195 267.199 254.165 260.617 254.165 260.617L257.684 256.413L271.044 272.804Z" fill="#ECC7A3"/>
<path d="M247.713 242.109C246.833 237.025 253.448 239.469 254.686 236.308C257.293 229.628 257.652 220.146 265.635 218.745C277.431 216.659 291.215 229.27 288.477 247.681C286.131 263.452 280.461 274.368 268.6 272.673C262.083 271.761 256.609 253.611 254.328 250.059C252.047 246.41 248.332 245.595 247.713 242.109Z" fill="#FFE1C2"/>
<path d="M262.083 235.07L258.988 247.061C258.988 247.061 254.654 241.88 254.654 239.762C254.654 237.71 246.638 238.231 248.756 243.477C249.571 245.465 252.699 245.954 254.524 248.658C257.456 253.025 257.424 256.967 257.424 256.967L250.45 270.034C250.45 270.034 218.452 254.458 233.604 221.645C233.995 220.83 234.223 219.983 234.712 219.299C243.998 206.982 253.025 209.621 270.718 209.621C291.443 209.621 294.929 207.079 294.929 207.079C294.929 207.079 299.915 228.325 286.359 231.616C273.977 234.581 262.083 235.07 262.083 235.07Z" fill="black"/>
<path d="M204.016 703.385L203.462 693.61L202.746 679.663C202.746 679.663 197.011 675.883 192.286 676.111C187.528 676.34 180.783 677.806 180.783 677.806L178.111 689.732L173.875 699.54L172.181 704.591L204.016 703.385Z" fill="white"/>
<path d="M204.44 707.133C204.44 698.172 197.043 688.787 188.082 688.787C179.121 688.787 171.953 698.172 171.953 707.133" fill="#BCBCBC"/>
<path d="M315.914 336.312C315.914 336.312 316.696 329.437 313.894 319.759C311.092 310.081 304.737 297.601 304.737 297.601C304.737 297.601 309.104 308.419 310.896 321.942C312.688 335.433 311.939 351.628 311.939 351.628L315.914 336.312Z" fill="#7103A4"/>
<path d="M428.366 361.566L444.17 366.356L448.438 366.193L456.78 368.8C456.78 368.8 456.129 369.615 453.945 370.788C452.642 371.472 449.579 369.94 449.579 369.94L447.689 370.071L448.96 370.885L470.043 380.107C470.043 380.107 469.13 382.812 464.861 382.421C460.593 382.03 451.567 377.794 451.567 377.794C451.567 377.794 449.025 386.396 444.039 386.95C441.759 387.211 429.05 381.639 429.05 381.639L426.965 376.164L422.533 373.981L428.366 361.566Z" fill="#FFE1C2"/>
<path d="M259.672 244.422L266.58 267.297L281.406 267.59L278.963 280.527L262.898 271.957L256.837 244.194L259.672 244.422Z" fill="black"/>
<path d="M1419.54 397.801C1419.54 390.991 1414.04 385.451 1407.19 385.451H1323.58C1316.77 385.451 1311.23 390.991 1311.23 397.801V556.882C1311.23 563.692 1316.74 569.232 1323.58 569.232H1407.19C1414 569.232 1419.54 563.725 1419.54 556.882V397.801Z" fill="#25507A"/>
<path d="M1398.43 397.801C1398.43 390.991 1392.89 385.451 1386.08 385.451H1302.47C1295.66 385.451 1290.12 390.991 1290.12 397.801V556.882C1290.12 563.692 1295.66 569.232 1302.47 569.232H1386.08C1392.89 569.232 1398.43 563.725 1398.43 556.882V397.801Z" fill="#4084C6"/>
<path d="M1311.3 528.956C1311.3 528.956 1258.38 524.981 1238.47 538.732C1218.53 552.483 1219.83 569.199 1219.83 569.199H1308.07L1311.3 528.956Z" fill="#4084C6"/>
<path d="M1419.54 574.511C1419.54 571.578 1417.17 569.232 1414.27 569.232H1225.08C1222.14 569.232 1219.8 571.611 1219.8 574.511V574.674C1219.8 577.606 1222.18 579.952 1225.08 579.952H1414.27C1417.2 579.952 1419.54 577.574 1419.54 574.674V574.511Z" fill="#14304B"/>
<path d="M1339.12 574.608H1323.22V691.818H1339.12V574.608Z" fill="#14304B"/>
<path d="M1293.96 517.063C1293.96 517.063 1216.02 523.645 1210.28 547.204C1202.92 577.606 1209.3 685.594 1209.3 685.594H1232.96L1247.14 569.362C1247.14 569.362 1306.6 567.635 1341.34 551.734C1376.08 535.832 1378.1 514.424 1378.1 514.424L1293.96 517.063Z" fill="#1B1425"/>
<path d="M1244.5 539.318C1245.51 533.258 1303.96 524.981 1303.96 524.981L1263.3 548.149L1247.53 569.623L1232.96 685.594H1228.33C1228.33 685.594 1231.72 645.123 1236.19 603.772C1238.76 580.115 1241.66 556.165 1244.5 539.318Z" fill="#2A2236"/>
<path d="M1311.33 515.662C1311.33 515.662 1251.5 537.266 1248.54 549.192C1244.5 565.485 1248.54 684.193 1248.54 684.193L1273.82 685.561L1282.36 570.144C1282.36 570.144 1346.26 571.35 1368.29 553.526C1390.32 535.734 1381.75 514.391 1381.75 514.391L1311.33 515.662Z" fill="#1B1425"/>
<path d="M1206.96 676.535L1190.05 693.121C1190.05 693.121 1178.19 688.787 1176.39 695.63C1174.57 702.473 1177.24 701.593 1177.24 701.593L1233.97 702.049L1233.87 680.934C1233.87 680.934 1224.26 685.92 1218.98 684.584C1213.74 683.248 1206.96 676.535 1206.96 676.535Z" fill="white"/>
<path d="M1233.81 701.267L1233.84 705.601L1175.9 706.416V700.681L1223.87 701.398L1233.81 701.267Z" fill="#BCBCBC"/>
<path d="M1293.24 384.148L1321.85 371.179L1327.82 363.977L1356.78 358.666L1365.71 367.757L1399.47 386.592L1374.64 466.425L1383.99 517.975C1383.99 517.975 1356.78 521.364 1335.31 521.918C1313.8 522.505 1294.51 518.236 1294.51 518.236C1294.51 518.236 1297.32 486.563 1295.82 462.58C1294.32 438.598 1288.52 422.305 1288.52 422.305L1293.24 384.148Z" fill="#A535C5"/>
<path d="M1382.63 517.617C1384.09 524.004 1385.46 539.677 1368.29 553.558C1346.26 571.383 1282.36 570.177 1282.36 570.177L1274.18 681.26C1273.3 682.238 1270.17 685.626 1270.17 685.626H1266.2L1273.95 567.342L1274.44 559.978C1274.44 559.978 1335.25 549.616 1355.51 539.84C1375.78 530.064 1355.51 520.875 1355.51 520.875L1377.18 518.301L1382.63 517.617Z" fill="#2A2236"/>
<path d="M1382.92 388.188C1382.92 388.188 1375.55 390.73 1367.8 403.568C1360.04 416.44 1355.64 434.59 1355.64 434.59L1308.1 446.516L1303.96 466.686L1369.79 476.168C1369.79 476.168 1376.37 501.422 1373.18 512.664C1371.48 518.627 1355.64 520.778 1355.64 520.778L1383.34 518.562L1371.68 428.92L1399.44 386.559L1382.92 388.188Z" fill="#7103A4"/>
<path d="M1382.92 388.188C1371.77 396.53 1359.36 438.239 1359.36 438.239L1304.58 451.306L1303.96 463.884C1303.96 463.884 1357.34 475.419 1368.94 468.804C1378.75 463.2 1397.45 427.095 1403.94 404.905C1409.21 386.755 1394.06 379.846 1382.92 388.188Z" fill="#A535C5"/>
<path d="M1289.24 385.972C1278.09 394.314 1265.68 436.023 1265.68 436.023L1210.9 449.09L1210.28 461.668C1210.28 461.668 1263.66 473.203 1275.26 466.588C1285.06 460.984 1303.77 424.879 1310.25 402.689C1315.56 384.506 1300.38 377.631 1289.24 385.972Z" fill="#A535C5"/>
<path d="M1356.79 358.666L1337.07 378.119L1343.82 377.5L1349.52 384.148L1364.51 366.519L1356.79 358.666Z" fill="#DDDDDD"/>
<path d="M1170.89 413.051H1232.47L1252.9 472.519H1191.58L1170.89 413.051Z" fill="#5E5E5E"/>
<path d="M1251.57 468.609L1293.11 468.576C1294.19 468.576 1295.07 469.456 1295.07 470.564C1295.07 471.639 1294.19 472.519 1293.11 472.519H1252.9L1251.57 468.609Z" fill="#303030"/>
<path d="M1251.57 468.609L1253 472.519H1191.58L1191.06 468.12L1251.57 468.609Z" fill="#3D3C3C"/>
<path d="M1327.82 363.977L1337.07 378.119L1327.75 374.861L1321.79 386.754L1318.56 373.427L1321.85 371.179L1327.82 363.977Z" fill="#DDDDDD"/>
<path d="M1299.47 465.383L1295.1 467.859L1283.5 468.641H1281.19L1257.37 468.315L1268.15 459.224L1270.89 459.615L1274.21 457.66L1276.01 458.116L1281.68 456.259L1307.32 450.85L1305.01 462.483L1299.47 465.383Z" fill="#F1D2B2"/>
<path d="M1307.35 450.654L1303.96 463.884L1318.69 466.719V447.95L1307.35 450.654Z" fill="#DDDDDD"/>
<path d="M1332.7 360.1L1328.57 365.118L1337.07 378.119L1354.89 360.523L1351.8 356.092C1351.8 356.092 1365.94 351.595 1369.49 336.997C1373.01 322.366 1368.32 311.417 1353.56 306.856C1338.8 302.294 1326.55 309.071 1326.55 309.071L1332.7 360.1Z" fill="#FFE1C2"/>
<path d="M1332.54 360.1L1331.47 363.977C1331.47 363.977 1338.28 362.316 1342.19 358.438C1346.1 354.56 1349.09 348.141 1349.09 348.141L1345.64 344.035L1332.54 360.1Z" fill="#ECC7A3"/>
<path d="M1355.42 330.024C1356.3 325.038 1349.78 327.449 1348.57 324.321C1346 317.772 1345.67 308.485 1337.82 307.084C1326.25 305.063 1312.73 317.413 1315.43 335.433C1317.75 350.878 1323.29 361.599 1334.92 359.937C1341.31 359.024 1346.68 341.265 1348.9 337.746C1351.15 334.227 1354.8 333.445 1355.42 330.024Z" fill="#FFE1C2"/>
<path d="M1341.31 323.115L1344.34 334.879C1344.34 334.879 1348.57 329.795 1348.57 327.743C1348.57 325.755 1356.46 326.244 1354.34 331.392C1353.53 333.347 1350.46 333.803 1348.7 336.443C1345.84 340.712 1345.84 344.589 1345.84 344.589L1352.68 357.395C1352.68 357.395 1384.03 342.113 1369.17 309.951C1368.81 309.169 1368.58 308.322 1368.06 307.67C1358.97 295.614 1350.1 298.188 1332.74 298.188C1312.4 298.188 1309.01 295.679 1309.01 295.679C1309.01 295.679 1304.09 316.501 1317.42 319.727C1329.64 322.627 1341.31 323.115 1341.31 323.115Z" fill="black"/>
<path d="M1288.55 422.37C1288.55 422.37 1287.8 415.625 1290.54 406.143C1293.28 396.66 1299.5 384.441 1299.5 384.441C1299.5 384.441 1295.23 395.064 1293.47 408.293C1291.71 421.523 1292.46 437.392 1292.46 437.392L1288.55 422.37Z" fill="#7103A4"/>
<path d="M1248.18 676.535L1231.27 693.121C1231.27 693.121 1219.41 688.787 1217.58 695.63C1215.76 702.473 1218.43 701.593 1218.43 701.593L1275.16 702.049L1275.03 680.934C1275.03 680.934 1265.42 685.92 1260.17 684.584C1254.96 683.248 1248.18 676.535 1248.18 676.535Z" fill="white"/>
<path d="M1275.03 701.267L1275.06 705.601L1217.12 706.416L1217.09 700.681L1265.09 701.398L1275.03 701.267Z" fill="#BCBCBC"/>
<path d="M1408.43 528.956C1408.43 528.956 1355.51 524.981 1335.6 538.732C1315.66 552.483 1316.97 569.199 1316.97 569.199H1405.21L1408.43 528.956Z" fill="#25507A"/>
<path d="M1369.98 680.38C1369.98 676.405 1366.76 673.179 1362.78 673.179H1299.6C1295.62 673.179 1292.4 676.405 1292.4 680.38V680.804C1292.4 684.779 1292.36 688.005 1292.36 688.005H1369.88C1369.88 688.005 1369.98 684.779 1369.98 680.804V680.38Z" fill="#204263"/>
<path d="M1367.41 684.486H1294.97C1293.54 684.486 1291.78 685.659 1291 687.06L1281.97 703.776C1281.19 705.21 1281.74 706.351 1283.17 706.351H1379.27C1380.7 706.351 1381.22 705.177 1380.44 703.776L1371.42 687.06C1370.6 685.659 1368.84 684.486 1367.41 684.486Z" fill="#25507A"/>
<path d="M1494.82 495.785H1465.59L1524.24 707.133H1533.76L1494.82 495.785Z" fill="#133B61"/>
<path d="M1185.22 495.035H1156.03L1214.68 706.416H1224.2L1185.22 495.035Z" fill="#133B61"/>
<path d="M1401.17 495.785H1430.4L1371.74 707.133H1362.19L1401.17 495.785Z" fill="#133B61"/>
<path d="M1091.61 495.035H1120.8L1062.15 706.416H1052.63L1091.61 495.035Z" fill="#133B61"/>
<path d="M1565 471.737H1052.63V486.074H1565V471.737Z" fill="#2773BC"/>
<path d="M1545.84 486.074H1072.32V498.229H1545.84V486.074Z" fill="#225E98"/>
<path d="M1510.39 473.692C1510.39 473.692 1493.09 467.631 1484.26 492.037C1481.36 500.086 1476.83 526.187 1475.23 537.331C1468.81 582.299 1478.26 653.986 1478.26 653.986H1488.1C1488.1 653.986 1474.45 582.168 1478.39 537.135C1479.7 522.179 1483.28 501.617 1486.51 492.037C1493.61 470.955 1510.39 473.692 1510.39 473.692Z" fill="#7BBE70"/>
<path d="M1504.3 473.594C1505.7 473.692 1503.55 473.268 1501.79 470.987C1493.55 460.169 1500.71 446.972 1512.58 443.681C1514.6 443.127 1517.37 442.932 1520.59 443.192C1520.82 443.192 1517.53 446.809 1515.77 450.785C1513.45 455.966 1512.48 461.864 1512.48 461.864C1512.48 461.864 1515.18 455.998 1518.51 451.436C1521.83 446.907 1525.64 443.648 1525.77 443.681C1531.34 444.43 1535.32 446.06 1541.48 449.155C1541.9 449.383 1541.45 450.85 1541.45 450.85C1541.45 450.85 1544.09 450.557 1544.74 450.948C1547.8 452.772 1550.7 454.923 1553.27 457.399C1567.35 471.118 1573.12 493.341 1573.12 493.341C1573.12 493.341 1561.26 480.665 1544.22 482.555C1541.8 482.816 1540.14 482.686 1538.15 483.598C1537.96 483.696 1532.26 482.979 1527.79 480.959C1523.33 478.938 1519.87 476.234 1519.87 476.234C1519.87 476.234 1523.1 480.633 1526.68 483.011C1530.27 485.39 1534.31 485.683 1534.18 485.749C1525.9 490.311 1522.22 498.457 1513.68 500.77C1513.29 500.868 1510.23 499.402 1510.23 499.402C1510.23 499.402 1511.73 501.161 1511.34 501.227C1509.41 501.455 1507.3 501.357 1504.98 500.868C1488.01 497.186 1491.95 472.682 1504.3 473.594Z" fill="#85C67A"/>
<path d="M1504.72 473.594L1503.58 472.747C1503.42 472.845 1507.69 474.148 1512.25 471.02C1520.59 465.285 1532.55 458.768 1542.1 462.352C1557.12 467.989 1573.15 493.308 1573.15 493.308C1573.15 493.308 1558.55 468.934 1541.05 464.242C1523.56 459.55 1510.65 479.329 1503.35 473.562L1504.72 473.594Z" fill="#C3EDBC"/>
<path d="M1510.39 473.692C1508.11 474.441 1506.58 481.447 1509.77 486.791C1512.93 492.135 1523.1 495.035 1523.1 495.035C1523.1 495.035 1513.45 491.451 1510.85 485.879C1508.24 480.274 1510.39 475.223 1512.02 472.975L1510.39 473.692Z" fill="#C3EDBC"/>
<path d="M1521.28 465.546C1521.28 465.546 1521.83 456.259 1525.58 451.534C1529.32 446.809 1536.3 446.679 1536.3 446.679C1536.3 446.679 1529.98 447.754 1526.78 452.218C1523.56 456.715 1523.43 464.633 1523.43 464.633L1521.28 465.546Z" fill="#C3EDBC"/>
<path d="M1553.57 508.069L1536.72 499.532C1536.72 499.532 1504.95 480.633 1491.46 518.236C1477.97 555.839 1482.76 653.986 1482.76 653.986H1489.18C1489.18 653.986 1484.19 558.251 1495.14 520.81C1506.09 483.37 1534.11 501.292 1534.11 501.292L1553.57 508.069Z" fill="#72B068"/>
<path d="M1530.69 504.518C1527.92 506.049 1513.23 521.136 1517.63 530.977C1523.72 544.663 1532.65 535.767 1532.65 535.767C1532.65 535.767 1533.1 542.642 1537.8 543.587C1543.21 544.695 1544.48 541.665 1553.57 542.512L1530.69 504.518Z" fill="#5B9651"/>
<path d="M1545.06 495.1C1561.13 488.486 1572.3 492.689 1583.35 505.919C1584 506.701 1574.39 508.297 1574.39 508.297C1574.39 508.297 1586.41 509.796 1586.93 510.546C1587.91 511.882 1588.89 513.283 1589.87 514.749C1603.19 534.757 1603.52 558.153 1602.93 573.729C1602.93 573.957 1589.77 568.124 1574.68 559.945C1573.61 559.359 1571.07 545.314 1571.07 545.314C1571.07 545.314 1568.88 556.719 1567.61 556.002C1561.75 552.646 1555.85 549.029 1550.54 545.314C1547.38 543.131 1548.61 533.681 1542.68 527.164C1536.75 520.647 1529.32 524.166 1526.78 519.246C1520.82 507.515 1537.7 498.131 1545.06 495.1Z" fill="#85C67A"/>
<path d="M1538.19 498.554C1538.19 498.554 1555.23 505.984 1571.39 524.786C1587.59 543.587 1602.9 573.761 1602.9 573.761C1602.9 573.761 1586.25 544.5 1569.05 526.382C1551.84 508.265 1534.08 501.292 1534.08 501.292L1538.19 498.554Z" fill="#C3EDBC"/>
<path d="M1558.59 516.607C1558.59 516.607 1554.74 518.562 1551.32 524.688C1547.93 530.814 1548.45 541.274 1548.45 541.274C1548.45 541.274 1548.45 531.042 1552.49 525.47C1556.57 519.898 1561.19 518.855 1561.19 518.855L1558.59 516.607Z" fill="#C3EDBC"/>
<path d="M1573.87 527.718L1575.82 530.195C1575.82 530.195 1577.39 527.653 1582.24 526.252C1587.13 524.851 1595.34 524.623 1595.34 524.623C1595.34 524.623 1587.29 523.743 1581.92 524.525C1576.54 525.274 1573.87 527.718 1573.87 527.718Z" fill="#C3EDBC"/>
<path d="M1582.08 542.056L1584 544.663C1584 544.663 1581.07 545.771 1578.72 549.616C1576.41 553.428 1574.68 559.978 1574.68 559.978C1574.68 559.978 1575.3 553.493 1577.16 549.029C1579.02 544.5 1582.08 542.056 1582.08 542.056Z" fill="#C3EDBC"/>
<path d="M1443.53 510.611C1443.53 510.611 1452 515.988 1461.19 525.959C1472.33 538.015 1485.69 555.155 1490.25 572.067C1498.56 602.925 1493.28 653.954 1493.28 653.954H1484.19C1484.19 653.954 1492.34 604.685 1486.44 573.729C1483.22 556.784 1470.93 539.188 1460.44 526.708C1451.77 516.346 1443.53 510.611 1443.53 510.611Z" fill="#81C476"/>
<path d="M1426.42 503.573C1448.9 509.927 1464.09 524.688 1461.48 531.922C1458.65 539.84 1450.92 545.705 1443.56 549.159C1426.91 557.012 1424.46 546.455 1420.82 534.431C1420.52 533.486 1422.44 530.977 1422.44 530.977C1422.44 530.977 1419.58 530.455 1419.38 529.934C1419.06 528.924 1418.08 526.806 1417.69 525.828C1417.43 525.209 1420.52 525.893 1420.52 525.893C1420.52 525.893 1417.04 524.101 1416.77 523.58C1414.46 518.985 1411.17 514.977 1405.96 512.696C1402.5 511.197 1399.18 510.024 1396.05 509.112C1395.37 508.917 1394.91 507.19 1394.91 507.19C1394.91 507.19 1393.35 508.395 1393.02 508.297C1380.38 505.202 1371.61 506.473 1371.61 506.473C1371.61 506.473 1403.97 497.186 1426.42 503.573Z" fill="#85C67A"/>
<path d="M1392.89 508.232C1393.35 508.363 1395.14 506.57 1395.14 506.57C1395.14 506.57 1395.56 508.917 1396.05 509.047C1400.81 510.448 1406.15 512.175 1409.74 514.814C1413.94 517.877 1415.8 521.723 1415.8 521.723C1415.8 521.723 1404.07 514.391 1394.36 512.012C1384.65 509.666 1371.61 506.44 1371.61 506.44C1371.61 506.44 1381.39 505.006 1392.89 508.232Z" fill="#5B9651"/>
<path d="M1401.49 501.52C1389.31 502.237 1378.36 504.713 1373.86 505.854C1373.86 505.854 1371.61 506.44 1371.64 506.44C1372.23 506.31 1408.27 498.294 1429.84 505.756C1451.51 513.25 1461.71 529.901 1461.77 529.999C1461.61 522.342 1447.11 509.405 1426.45 503.54C1418.73 501.389 1409.83 501.031 1401.49 501.52Z" fill="#C3EDBC"/>
<path d="M1453.43 517.454C1454.25 522.668 1453.24 528.207 1450.24 533.062C1444.54 542.251 1433.46 546.064 1423.58 542.903C1423.75 543.294 1423.91 543.685 1424.07 544.076C1434.17 547.889 1445.91 544.141 1451.8 534.594C1454.83 529.706 1455.81 524.134 1454.96 518.855C1454.48 518.399 1453.95 517.943 1453.43 517.454Z" fill="#C3EDBC"/>
<path d="M1433.62 505.984C1434.92 509.764 1434.99 513.967 1433.52 518.008C1431.18 524.395 1425.6 528.631 1419.32 529.576C1419.35 529.706 1419.41 529.836 1419.45 529.934C1419.48 529.967 1419.51 530.032 1419.54 530.064C1419.54 530.097 1419.58 530.097 1419.58 530.097C1419.61 530.13 1419.64 530.13 1419.67 530.162C1419.74 530.195 1419.8 530.227 1419.87 530.26C1420.07 530.358 1420.26 530.423 1420.52 530.521C1420.52 530.521 1420.52 530.521 1420.55 530.521C1426.91 529.641 1432.58 525.372 1434.96 518.92C1436.49 514.717 1436.36 510.35 1434.92 506.473C1434.47 506.31 1434.04 506.147 1433.62 505.984Z" fill="#C3EDBC"/>
<path d="M1408.6 501.324C1408.5 501.65 1408.43 501.976 1408.33 502.269C1407.19 505.919 1404.98 508.917 1402.14 511.1C1402.73 511.328 1403.28 511.523 1403.87 511.784C1406.58 509.633 1408.69 506.701 1409.8 503.149C1410 502.562 1410.13 501.943 1410.26 501.357C1409.74 501.357 1409.18 501.324 1408.6 501.324Z" fill="#C3EDBC"/>
<path d="M1457.99 634.24V670.409C1457.99 685.692 1470.38 698.041 1485.63 698.041C1500.88 698.041 1513.26 685.659 1513.26 670.409V634.24H1457.99Z" fill="#C1C1C1"/>
<path d="M1511.47 702.473C1508.37 699.931 1497.55 698.074 1484.75 698.074C1471.91 698.074 1461.12 699.931 1458.03 702.473H1511.47Z" fill="#C1C1C1"/>
<path d="M1457.99 649.522V665.065H1513.29V649.522H1457.99Z" fill="#303030"/>
<path d="M1460.57 657.245L1464.19 649.457L1467.8 657.245L1464.19 665.065L1460.57 657.245Z" fill="#5E5E5E"/>
<path d="M1457.99 651.673V662.849L1460.57 657.245L1457.99 651.673Z" fill="#5E5E5E"/>
<path d="M1467.8 657.277L1471.39 649.489L1475 657.277L1471.39 665.065L1467.8 657.277Z" fill="#5E5E5E"/>
<path d="M1475 657.277L1478.62 649.489L1482.24 657.277L1478.62 665.065L1475 657.277Z" fill="#5E5E5E"/>
<path d="M1482.24 657.277L1485.82 649.489L1489.44 657.277L1485.82 665.065L1482.24 657.277Z" fill="#5E5E5E"/>
<path d="M1489.44 657.245L1493.06 649.457L1496.64 657.245L1493.06 665.065L1489.44 657.245Z" fill="#5E5E5E"/>
<path d="M1496.64 657.277L1500.26 649.489L1503.87 657.277L1500.26 665.065L1496.64 657.277Z" fill="#5E5E5E"/>
<path d="M1503.87 657.277L1507.49 649.489L1511.08 657.277L1507.49 665.065L1503.87 657.277Z" fill="#5E5E5E"/>
<path d="M1513.29 651.673L1510.88 656.854L1510.69 657.245L1510.88 657.701L1513.29 662.849V651.673Z" fill="#5E5E5E"/>
<path d="M1455.32 631.893H1516.35C1516.35 631.893 1516.35 632.936 1516.35 634.239C1516.35 635.543 1515.31 636.586 1514.01 636.586H1457.67C1456.37 636.586 1455.32 635.543 1455.32 634.239C1455.32 632.936 1455.32 631.893 1455.32 631.893Z" fill="#8B8B8B"/>
<path d="M1454.21 707.133H1515.25C1515.25 707.133 1515.25 706.09 1515.25 704.787C1515.25 703.483 1514.2 702.44 1512.9 702.44H1456.56C1455.26 702.44 1454.21 703.483 1454.21 704.787C1454.21 706.09 1454.21 707.133 1454.21 707.133Z" fill="#8B8B8B"/>
<path d="M1472.46 696.445H1497C1497.88 696.445 1498.63 697.162 1498.63 698.074C1498.63 698.954 1497.91 699.671 1497 699.671H1472.46C1471.58 699.671 1470.83 698.954 1470.83 698.074C1470.87 697.162 1471.58 696.445 1472.46 696.445Z" fill="#8B8B8B"/>
<path d="M688.038 580.278C688.038 510.22 744.834 453.391 814.925 453.391C885.016 453.391 941.812 510.187 941.812 580.278C941.812 650.337 885.016 707.165 814.925 707.165C744.834 707.165 688.038 650.337 688.038 580.278Z" fill="#1F4F7E"/>
<path d="M825.222 458.54C755.163 458.54 698.335 515.336 698.335 585.427C698.335 633.034 724.566 674.482 763.375 696.217C779.114 703.222 796.547 707.165 814.925 707.165C884.983 707.165 941.779 650.369 941.779 580.278C941.779 532.671 915.548 491.19 876.739 469.488C861 462.483 843.567 458.54 825.222 458.54Z" fill="#215A91"/>
<path d="M710.587 580.278C710.587 522.668 757.281 475.973 814.892 475.973C872.503 475.973 919.198 522.668 919.198 580.278C919.198 637.889 872.503 684.584 814.892 684.584C757.281 684.584 710.587 637.889 710.587 580.278Z" fill="#B5CEE6"/>
<path d="M814.925 475.973C757.314 475.973 710.619 522.668 710.619 580.278C710.619 611.267 724.142 639.062 745.583 658.19C761.68 668.389 780.775 674.287 801.239 674.287C858.85 674.287 905.544 627.592 905.544 569.981C905.544 538.993 892.021 511.198 870.58 492.103C854.451 481.871 835.388 475.973 814.925 475.973Z" fill="#CDE5FD"/>
<path d="M809.32 500.542C809.32 496.73 812.416 493.667 816.196 493.667H817.043C820.855 493.667 823.918 496.762 823.918 500.542V580.604C823.918 584.417 820.823 587.48 817.043 587.48H816.196C812.383 587.48 809.32 584.384 809.32 580.604V500.542Z" fill="#215A91"/>
<path d="M864.063 572.523C868.006 572.49 871.232 575.684 871.265 579.626V579.952C871.297 583.895 868.104 587.121 864.161 587.154L816.489 587.48C812.546 587.512 809.32 584.319 809.288 580.376V580.083C809.255 576.14 812.448 572.914 816.391 572.881L864.063 572.523Z" fill="#215A91"/>
<path d="M814.762 580.311C815.022 579.92 815.576 579.855 816.033 580.181L816.163 580.278C816.619 580.572 816.782 581.125 816.521 581.517L769.957 652.096C769.696 652.487 769.142 652.552 768.686 652.227L768.556 652.161C768.1 651.868 767.937 651.314 768.197 650.923L814.762 580.311Z" fill="#F28169"/>
<path d="M793.679 580.278C793.679 568.548 803.194 559.065 814.892 559.065C826.623 559.065 836.138 568.58 836.138 580.278C836.138 591.976 826.623 601.524 814.892 601.524C803.194 601.491 793.679 592.009 793.679 580.278Z" fill="#F28169"/>
<path d="M804.595 580.278C804.595 574.576 809.222 569.981 814.892 569.981C820.595 569.981 825.189 574.609 825.189 580.278C825.189 585.948 820.562 590.575 814.892 590.575C809.222 590.575 804.595 585.981 804.595 580.278Z" fill="#FBD9D2"/>
<path d="M809.744 484.184C809.744 481.349 812.057 479.036 814.892 479.036C817.727 479.036 820.041 481.349 820.041 484.184C820.041 487.019 817.727 489.333 814.892 489.333C812.057 489.365 809.744 487.052 809.744 484.184Z" fill="#215A91"/>
<path d="M820.073 676.34C820.073 679.175 817.76 681.488 814.925 681.488C812.09 681.488 809.776 679.175 809.776 676.34C809.776 673.505 812.09 671.191 814.925 671.191C817.76 671.191 820.073 673.505 820.073 676.34Z" fill="#215A91"/>
<path d="M910.693 575.13C913.528 575.13 915.841 577.443 915.841 580.278C915.841 583.113 913.528 585.427 910.693 585.427C907.858 585.427 905.544 583.113 905.544 580.278C905.544 577.443 907.858 575.13 910.693 575.13Z" fill="#215A91"/>
<path d="M719.124 575.13C716.289 575.13 713.976 577.443 713.976 580.278C713.976 583.113 716.289 585.427 719.124 585.427C721.959 585.427 724.273 583.113 724.273 580.278C724.273 577.411 721.959 575.13 719.124 575.13Z" fill="#215A91"/>
<path d="M676.274 611.43C696.933 614.395 711.271 633.523 708.338 654.182C706.057 670.116 694.131 682.303 679.305 685.692H679.337L659.297 697.064L641.832 686.8L627.885 673.537L633.229 650.597V650.63C633.131 648.284 633.229 645.905 633.555 643.494C636.488 622.802 655.615 608.465 676.274 611.43Z" fill="#EFC23E"/>
<path d="M681.097 653.237C681.097 653.237 680.836 653.041 680.706 652.943C679.37 652.031 677.708 651.998 676.014 652.813C674.352 653.628 672.625 655.224 670.898 657.636C667.574 662.23 663.11 668.161 657.733 675.069C657.245 675.72 657.505 676.665 658.287 676.926C661.839 678.164 665.619 678.49 669.073 677.838C672.853 677.089 676.079 675.199 678.458 672.201C681.162 668.78 682.792 664.902 683.215 661.252C683.606 657.766 682.857 654.768 681.097 653.237ZM679.533 655.061C679.533 655.061 681.13 658.189 680.804 660.959C680.445 664.153 678.979 667.639 676.535 670.702C674.548 673.244 671.81 674.841 668.584 675.46C666.075 675.948 663.338 675.818 660.666 675.134C665.554 668.812 669.725 663.305 672.82 659.004C674.352 656.886 675.786 655.55 677.024 654.931C678.002 654.475 678.751 654.475 679.337 654.898C679.435 654.964 679.5 654.996 679.533 655.061Z" fill="white"/>
<path d="M659.363 674.808C659.265 674.743 659.2 674.71 659.102 674.678C656.984 673.928 655.029 672.853 653.367 671.517C652.846 671.093 652.096 671.191 651.673 671.713L638.15 688.852C637.628 689.537 637.954 690.514 638.769 690.742L646.068 692.665C646.524 692.795 647.045 692.6 647.339 692.209C647.306 692.241 648.479 690.775 649.587 689.341C652.78 685.301 656.202 680.902 659.623 676.503C660.08 675.949 659.917 675.167 659.363 674.808ZM656.788 676.307C653.725 680.283 650.597 684.225 647.73 687.875C646.948 688.885 646.329 689.667 645.938 690.156L641.148 688.885L652.813 674.059C654.051 674.939 655.355 675.721 656.788 676.307Z" fill="white"/>
<path d="M664.381 640.04C664.381 640.04 659.395 638.671 656.137 639.877C652.683 641.148 649.294 643.624 646.589 647.046C644.243 650.043 643.135 653.628 643.298 657.473C643.461 660.992 644.634 664.576 646.687 667.737C647.143 668.421 648.121 668.487 648.642 667.835C654.116 661.025 658.841 655.257 662.523 650.988C664.446 648.74 665.619 646.687 666.01 644.895C666.401 643.038 665.977 641.441 664.772 640.366C664.641 640.235 664.511 640.137 664.381 640.04ZM662.98 641.995C662.98 641.995 663.11 642.093 663.143 642.125C663.664 642.581 663.859 643.331 663.631 644.374C663.338 645.742 662.361 647.437 660.666 649.424C657.212 653.432 652.813 658.809 647.828 665C646.524 662.556 645.775 659.917 645.677 657.375C645.547 654.084 646.459 651.053 648.447 648.544C650.891 645.449 653.921 643.233 656.951 642.125C659.558 641.148 661.839 641.18 662.98 641.995Z" fill="white"/>
<path d="M648.479 666.238C647.99 665.782 647.176 665.815 646.72 666.369C641.669 672.658 633.881 682.498 634.305 681.977C633.979 682.335 633.946 682.889 634.174 683.313L637.726 689.96C638.117 690.71 639.192 690.807 639.714 690.123L653.237 672.983C653.66 672.462 653.563 671.713 653.041 671.289C651.347 669.986 649.848 668.324 648.642 666.434C648.61 666.369 648.544 666.303 648.479 666.238ZM647.599 669.073C648.512 670.311 649.555 671.419 650.695 672.397L638.997 687.223L636.651 682.857C637.172 682.205 642.94 674.906 647.599 669.073Z" fill="white"/>
<path d="M659.069 696.314L628.309 672.592C626.582 671.256 624.105 671.582 622.769 673.309C621.433 675.036 621.759 677.513 623.486 678.849L654.247 702.571C655.974 703.907 658.45 703.581 659.786 701.854C661.122 700.127 660.796 697.618 659.069 696.314Z" fill="#777175"/>
<path d="M652.976 697.39L628.602 678.588C626.875 677.252 624.399 677.578 623.063 679.305C621.727 681.032 622.053 683.508 623.78 684.844L648.153 703.646C649.88 704.982 652.357 704.656 653.693 702.929C655.029 701.202 654.703 698.726 652.976 697.39Z" fill="#777175"/>
<path d="M647.86 700.062L627.755 684.551C626.028 683.215 623.552 683.541 622.216 685.268C620.88 686.995 621.205 689.472 622.933 690.808L643.038 706.318C644.765 707.654 647.241 707.328 648.577 705.601C649.913 703.874 649.587 701.398 647.86 700.062Z" fill="#777175"/>
<path d="M643.103 698.367C643.82 693.284 640.3 688.559 635.217 687.842C630.134 687.125 625.409 690.645 624.692 695.728C623.975 700.811 627.494 705.536 632.578 706.253C637.661 706.97 642.386 703.451 643.103 698.367Z" fill="#777175"/>
<path d="M622.085 676.698L624.203 678.327L654.345 701.658L656.593 703.385C655.778 703.353 654.964 703.092 654.279 702.571L654.051 702.408C653.986 702.538 653.888 702.668 653.823 702.799L623.258 679.142C623.356 679.044 623.421 678.946 623.519 678.849C623.323 678.686 623.161 678.523 622.998 678.36C622.9 678.262 622.835 678.164 622.769 678.067C622.704 678.001 622.672 677.904 622.607 677.838C622.509 677.708 622.444 677.545 622.378 677.382C622.346 677.35 622.346 677.317 622.346 677.285C622.216 677.056 622.15 676.894 622.085 676.698Z" fill="#545052"/>
<path d="M622.704 683.541L623.552 684.193L649.294 704.102L649.587 704.33C649.489 704.298 649.392 704.265 649.294 704.233C649.196 704.591 649.033 704.95 648.805 705.308L622.541 684.975C622.769 684.747 623.03 684.519 623.291 684.356C623.226 684.29 623.16 684.193 623.095 684.128C623.03 684.03 622.965 683.965 622.9 683.867C622.802 683.737 622.737 683.639 622.704 683.541Z" fill="#545052"/>
<path d="M621.401 687.94L646.133 707.067C645.286 707.23 644.373 707.1 643.559 706.644L622.281 690.188C622.02 689.862 621.824 689.504 621.662 689.146C621.596 688.983 621.531 688.787 621.499 688.624C621.499 688.592 621.499 688.559 621.499 688.559C621.466 688.331 621.433 688.135 621.401 687.94Z" fill="#545052"/>
<path d="M639.03 640.203C637.661 638.15 642.288 627.527 652.227 620.977C662.132 614.428 673.602 614.428 674.971 616.481C676.34 618.534 667.02 619.446 657.082 625.996C647.143 632.578 640.398 642.256 639.03 640.203Z" fill="#F8D66F"/>
<defs>
<linearGradient id="paint0_linear_1681_385" x1="330.675" y1="358.516" x2="1308.82" y2="358.516" gradientUnits="userSpaceOnUse">
<stop stop-color="#F57A00"/>
<stop offset="1" stop-color="#7103A4"/>
</linearGradient>
<linearGradient id="paint1_linear_1681_385" x1="401.483" y1="113.902" x2="487.964" y2="113.902" gradientUnits="userSpaceOnUse">
<stop stop-color="#F57A00"/>
<stop offset="1" stop-color="#7103A4"/>
</linearGradient>
<linearGradient id="paint2_linear_1681_385" x1="493.504" y1="113.902" x2="541.925" y2="113.902" gradientUnits="userSpaceOnUse">
<stop stop-color="#F57A00"/>
<stop offset="1" stop-color="#7103A4"/>
</linearGradient>
<linearGradient id="paint3_linear_1681_385" x1="547.204" y1="113.902" x2="570.34" y2="113.902" gradientUnits="userSpaceOnUse">
<stop stop-color="#F57A00"/>
<stop offset="1" stop-color="#7103A4"/>
</linearGradient>
</defs>
</svg>
